<svg width="354" height="124" viewBox="0 0 354 124" fill="none" xmlns="http://www.w3.org/2000/svg">
<rect width="11" height="10.375" transform="translate(26.625 5.375)" fill="#196E7D" fill-opacity="0.2"/>
<rect width="11" height="10.375" transform="translate(26.625 5.375)" fill="white"/>
<rect width="4.875" height="3.375" transform="translate(29.625 7.375)" fill="#D9D9D9" fill-opacity="0.2"/>
<rect width="11" height="10.375" transform="translate(97.125 5.375)" fill="white"/>
<rect width="11" height="15.75" transform="translate(156.75)" fill="#196E7D" fill-opacity="0.2"/>
<rect width="11" height="15.75" transform="translate(156.75)" fill="white"/>
<rect width="4.875" height="10.375" transform="translate(159.75 2)" fill="#D9D9D9" fill-opacity="0.2"/>
<rect width="11" height="15.75" transform="translate(169)" fill="#196E7D" fill-opacity="0.2"/>
<rect width="11" height="15.75" transform="translate(169)" fill="white"/>
<rect width="4.875" height="10.375" transform="translate(172 2)" fill="#D9D9D9" fill-opacity="0.2"/>
<rect width="11" height="15.75" transform="translate(181.25)" fill="#196E7D" fill-opacity="0.2"/>
<rect width="11" height="15.75" transform="translate(181.25)" fill="white"/>
<rect width="4.875" height="10.375" transform="translate(184.25 2)" fill="#D9D9D9" fill-opacity="0.2"/>
<rect width="11" height="15.75" transform="translate(98 40)" fill="#111111"/>
<rect width="3.125" height="3" transform="translate(101.875 42)" fill="#FAFAFA"/>
<rect width="11" height="15.75" transform="translate(110.25 40)" fill="#196E7D" fill-opacity="0.2"/>
<rect width="11" height="15.75" transform="translate(110.25 40)" fill="white"/>
<rect width="4.875" height="4.875" transform="translate(113.25 42)" fill="#D9D9D9" fill-opacity="0.2"/>
<rect width="11" height="15.75" transform="translate(122.5 40)" fill="#196E7D" fill-opacity="0.2"/>
<rect width="11" height="15.75" transform="translate(122.5 40)" fill="white"/>
<rect width="4.875" height="3" transform="translate(125.5 42)" fill="#D9D9D9" fill-opacity="0.2"/>
<rect width="11" height="15.75" transform="translate(134.75 40)" fill="#196E7D" fill-opacity="0.2"/>
<rect width="11" height="15.75" transform="translate(134.75 40)" fill="white"/>
<rect width="4.875" height="2.625" transform="translate(137.75 42)" fill="#D9D9D9" fill-opacity="0.2"/>
<rect width="11" height="15.75" transform="translate(147 40)" fill="white"/>
<rect width="11" height="15.75" transform="translate(159.25 40)" fill="white"/>
<rect width="11" height="15.75" transform="translate(171.5 40)" fill="white"/>
<rect width="11" height="15.75" transform="translate(183.75 40)" fill="#196E7D" fill-opacity="0.2"/>
<rect width="11" height="15.75" transform="translate(183.75 40)" fill="white"/>
<rect width="4.875" height="10.375" transform="translate(186.75 42)" fill="#D9D9D9" fill-opacity="0.2"/>
<rect width="11" height="15.75" transform="translate(196 40)" fill="#196E7D" fill-opacity="0.2"/>
<rect width="11" height="15.75" transform="translate(196 40)" fill="white"/>
<rect width="4.875" height="10.375" transform="translate(199 42)" fill="#D9D9D9" fill-opacity="0.2"/>
<rect width="11" height="15.75" transform="translate(208.25 40)" fill="#196E7D" fill-opacity="0.2"/>
<rect width="11" height="15.75" transform="translate(208.25 40)" fill="white"/>
<rect width="4.875" height="10.375" transform="translate(211.25 42)" fill="#D9D9D9" fill-opacity="0.2"/>
<rect width="11" height="15.75" transform="translate(220.5 40)" fill="white"/>
<rect width="11" height="15.75" transform="translate(232.75 40)" fill="white"/>
<rect width="11" height="15.75" transform="translate(245 40)" fill="white"/>
<rect width="11" height="15.75" transform="translate(257.25 40)" fill="white"/>
<rect width="11" height="15.75" transform="translate(269.5 40)" fill="white"/>
<rect width="11" height="15.75" transform="translate(281.75 40)" fill="#196E7D" fill-opacity="0.2"/>
<rect width="11" height="15.75" transform="translate(281.75 40)" fill="white"/>
<rect width="4.875" height="10.375" transform="translate(284.75 42)" fill="#D9D9D9" fill-opacity="0.2"/>
<rect width="11" height="15.75" transform="translate(294 40)" fill="#196E7D" fill-opacity="0.2"/>
<rect width="11" height="15.75" transform="translate(294 40)" fill="white"/>
<rect width="4.875" height="10.375" transform="translate(297 42)" fill="#D9D9D9" fill-opacity="0.2"/>
<rect width="11" height="15.75" transform="translate(306.25 40)" fill="#196E7D" fill-opacity="0.2"/>
<rect width="11" height="15.75" transform="translate(306.25 40)" fill="white"/>
<rect width="4.875" height="10.375" transform="translate(309.25 42)" fill="#D9D9D9" fill-opacity="0.2"/>
<rect width="11" height="15.75" transform="translate(318.5 40)" fill="white"/>
<rect width="11" height="15.75" transform="translate(330.75 40)" fill="white"/>
<rect width="11" height="15.75" transform="translate(343 40)" fill="white"/>
<rect width="11" height="15.75" transform="translate(134.75 57)" fill="#196E7D" fill-opacity="0.2"/>
<rect width="11" height="15.75" transform="translate(134.75 57)" fill="white"/>
<rect width="4.875" height="3.375" transform="translate(137.75 59)" fill="#D9D9D9" fill-opacity="0.2"/>
<rect width="11" height="15.75" transform="translate(147 57)" fill="#196E7D" fill-opacity="0.2"/>
<rect width="11" height="15.75" transform="translate(147 57)" fill="white"/>
<rect width="4.875" height="3.375" transform="translate(150 59)" fill="#D9D9D9" fill-opacity="0.2"/>
<rect width="11" height="15.75" transform="translate(159.25 57)" fill="#196E7D" fill-opacity="0.2"/>
<rect width="11" height="15.75" transform="translate(159.25 57)" fill="white"/>
<rect width="4.875" height="3.375" transform="translate(162.25 59)" fill="#D9D9D9" fill-opacity="0.2"/>
<rect width="11" height="15.75" transform="translate(171.5 57)" fill="#196E7D" fill-opacity="0.2"/>
<rect width="11" height="15.75" transform="translate(171.5 57)" fill="white"/>
<rect width="4.875" height="3.375" transform="translate(174.5 59)" fill="#D9D9D9" fill-opacity="0.2"/>
<rect width="11" height="15.75" transform="translate(196 57)" fill="#196E7D" fill-opacity="0.2"/>
<rect width="11" height="15.75" transform="translate(196 57)" fill="white"/>
<rect width="4.875" height="10.375" transform="translate(199 59)" fill="#D9D9D9" fill-opacity="0.2"/>
<rect width="11" height="15.75" transform="translate(208.25 57)" fill="#196E7D" fill-opacity="0.2"/>
<rect width="11" height="15.75" transform="translate(208.25 57)" fill="white"/>
<rect width="4.875" height="10.375" transform="translate(211.25 59)" fill="#D9D9D9" fill-opacity="0.2"/>
<rect width="11" height="15.75" transform="translate(232.75 57)" fill="white"/>
<rect width="11" height="15.75" transform="translate(269.5 57)" fill="white"/>
<rect width="11" height="15.75" transform="translate(281.75 57)" fill="white"/>
<rect width="11" height="15.75" transform="translate(294 57)" fill="#196E7D" fill-opacity="0.2"/>
<rect width="11" height="15.75" transform="translate(294 57)" fill="white"/>
<rect width="3.125" height="3" transform="translate(297.875 59)" fill="#D9D9D9" fill-opacity="0.2"/>
<rect width="11" height="15.75" transform="translate(196 74)" fill="#196E7D" fill-opacity="0.2"/>
<rect width="11" height="15.75" transform="translate(196 74)" fill="white"/>
<rect width="4.875" height="10.375" transform="translate(199 76)" fill="#D9D9D9" fill-opacity="0.2"/>
<rect width="11" height="15.75" transform="translate(208.25 74)" fill="#196E7D" fill-opacity="0.2"/>
<rect width="11" height="15.75" transform="translate(208.25 74)" fill="white"/>
<rect width="4.875" height="10.375" transform="translate(211.25 76)" fill="#D9D9D9" fill-opacity="0.2"/>
<rect width="11" height="15.75" transform="translate(220.5 74)" fill="#196E7D" fill-opacity="0.2"/>
<rect width="11" height="15.75" transform="translate(220.5 74)" fill="white"/>
<rect width="4.875" height="10.375" transform="translate(223.5 76)" fill="#D9D9D9" fill-opacity="0.2"/>
<rect width="11" height="15.75" transform="translate(232.75 74)" fill="#196E7D" fill-opacity="0.2"/>
<rect width="11" height="15.75" transform="translate(232.75 74)" fill="white"/>
<rect width="4.875" height="10.375" transform="translate(235.75 76)" fill="#D9D9D9" fill-opacity="0.2"/>
<rect width="11" height="15.75" transform="translate(245 74)" fill="#196E7D" fill-opacity="0.2"/>
<rect width="11" height="15.75" transform="translate(245 74)" fill="white"/>
<rect width="4.875" height="10.375" transform="translate(248 76)" fill="#D9D9D9" fill-opacity="0.2"/>
<rect width="11" height="15.75" transform="translate(257.25 74)" fill="#196E7D" fill-opacity="0.2"/>
<rect width="11" height="15.75" transform="translate(257.25 74)" fill="white"/>
<rect width="4.875" height="10.375" transform="translate(260.25 76)" fill="#D9D9D9" fill-opacity="0.2"/>
<rect width="11" height="15.75" transform="translate(196 91)" fill="#196E7D" fill-opacity="0.2"/>
<rect width="11" height="15.75" transform="translate(196 91)" fill="white"/>
<rect width="4.875" height="10.375" transform="translate(199 93)" fill="#D9D9D9" fill-opacity="0.2"/>
<rect width="11" height="15.75" transform="translate(208.25 91)" fill="#196E7D" fill-opacity="0.2"/>
<rect width="11" height="15.75" transform="translate(208.25 91)" fill="white"/>
<rect width="4.875" height="10.375" transform="translate(211.25 93)" fill="#D9D9D9" fill-opacity="0.2"/>
<rect width="11" height="15.75" transform="translate(220.5 91)" fill="#196E7D" fill-opacity="0.2"/>
<rect width="11" height="15.75" transform="translate(220.5 91)" fill="white"/>
<rect width="4.875" height="10.375" transform="translate(223.5 93)" fill="#D9D9D9" fill-opacity="0.2"/>
<rect width="11" height="15.75" transform="translate(232.75 91)" fill="#196E7D" fill-opacity="0.2"/>
<rect width="11" height="15.75" transform="translate(232.75 91)" fill="white"/>
<rect width="4.875" height="10.375" transform="translate(235.75 93)" fill="#D9D9D9" fill-opacity="0.2"/>
<rect width="11" height="15.75" transform="translate(245 91)" fill="#196E7D" fill-opacity="0.2"/>
<rect width="11" height="15.75" transform="translate(245 91)" fill="white"/>
<rect width="4.875" height="10.375" transform="translate(248 93)" fill="#D9D9D9" fill-opacity="0.2"/>
<rect width="11" height="15.75" transform="translate(257.25 91)" fill="#196E7D" fill-opacity="0.2"/>
<rect width="11" height="15.75" transform="translate(257.25 91)" fill="white"/>
<rect width="4.875" height="10.375" transform="translate(260.25 93)" fill="#D9D9D9" fill-opacity="0.2"/>
<rect width="11" height="15.75" transform="translate(196 108)" fill="#196E7D" fill-opacity="0.2"/>
<rect width="11" height="15.75" transform="translate(196 108)" fill="white"/>
<rect width="4.875" height="10.375" transform="translate(199 110)" fill="#D9D9D9" fill-opacity="0.2"/>
<rect width="11" height="15.75" transform="translate(208.25 108)" fill="#196E7D" fill-opacity="0.2"/>
<rect width="11" height="15.75" transform="translate(208.25 108)" fill="white"/>
<rect width="4.875" height="10.375" transform="translate(211.25 110)" fill="#D9D9D9" fill-opacity="0.2"/>
<rect width="11" height="15.75" transform="translate(220.5 108)" fill="#196E7D" fill-opacity="0.2"/>
<rect width="11" height="15.75" transform="translate(220.5 108)" fill="white"/>
<rect width="4.875" height="10.375" transform="translate(223.5 110)" fill="#D9D9D9" fill-opacity="0.2"/>
<rect width="11" height="15.75" transform="translate(232.75 108)" fill="#196E7D" fill-opacity="0.2"/>
<rect width="11" height="15.75" transform="translate(232.75 108)" fill="white"/>
<rect width="4.875" height="10.375" transform="translate(235.75 110)" fill="#D9D9D9" fill-opacity="0.2"/>
<rect width="11" height="15.75" transform="translate(245 108)" fill="#196E7D" fill-opacity="0.2"/>
<rect width="11" height="15.75" transform="translate(245 108)" fill="white"/>
<rect width="4.875" height="10.375" transform="translate(248 110)" fill="#D9D9D9" fill-opacity="0.2"/>
<rect width="11" height="15.75" transform="translate(257.25 108)" fill="#196E7D" fill-opacity="0.2"/>
<rect width="11" height="15.75" transform="translate(257.25 108)" fill="white"/>
<rect width="4.875" height="10.375" transform="translate(260.25 110)" fill="#D9D9D9" fill-opacity="0.2"/>
<rect width="11" height="15.75" transform="translate(269.5 108)" fill="#196E7D" fill-opacity="0.2"/>
<rect width="11" height="15.75" transform="translate(269.5 108)" fill="white"/>
<rect width="4.875" height="10.375" transform="translate(272.5 110)" fill="#D9D9D9" fill-opacity="0.2"/>
<rect width="11" height="15.75" transform="translate(281.75 108)" fill="#196E7D" fill-opacity="0.2"/>
<rect width="11" height="15.75" transform="translate(281.75 108)" fill="white"/>
<rect width="4.875" height="10.375" transform="translate(284.75 110)" fill="#D9D9D9" fill-opacity="0.2"/>
<rect width="11" height="15.75" transform="translate(294 108)" fill="#196E7D" fill-opacity="0.2"/>
<rect width="11" height="15.75" transform="translate(294 108)" fill="white"/>
<rect width="4.875" height="10.375" transform="translate(297 110)" fill="#D9D9D9" fill-opacity="0.2"/>
<rect width="11" height="15.75" transform="translate(306.25 108)" fill="#196E7D" fill-opacity="0.2"/>
<rect width="11" height="15.75" transform="translate(306.25 108)" fill="white"/>
<rect width="4.875" height="10.375" transform="translate(309.25 110)" fill="#D9D9D9" fill-opacity="0.2"/>
<rect width="11" height="15.75" transform="translate(318.5 108)" fill="#196E7D" fill-opacity="0.2"/>
<rect width="11" height="15.75" transform="translate(318.5 108)" fill="white"/>
<rect width="4.875" height="10.375" transform="translate(321.5 110)" fill="#D9D9D9" fill-opacity="0.2"/>
<rect width="11" height="15.75" transform="translate(330.75 108)" fill="#196E7D" fill-opacity="0.2"/>
<rect width="11" height="15.75" transform="translate(330.75 108)" fill="white"/>
<rect width="4.875" height="10.375" transform="translate(333.75 110)" fill="#D9D9D9" fill-opacity="0.2"/>
<rect width="11" height="10.375" transform="translate(0 22.125)" fill="white"/>
<rect width="11" height="10.375" transform="translate(12.25 22.125)" fill="#111111"/>
<rect width="11" height="10.375" transform="translate(24.5 22.125)" fill="#111111"/>
<rect width="4.875" height="3.375" transform="translate(27.5 24.125)" fill="#FAFAFA"/>
<rect width="11" height="10.375" transform="translate(36.75 22.125)" fill="#111111"/>
<rect width="4.875" height="3.75" transform="translate(39.75 24.125)" fill="#FAFAFA"/>
<rect width="11" height="10.375" transform="translate(49 22.125)" fill="#111111"/>
<rect width="4.875" height="4" transform="translate(52 24.125)" fill="#FAFAFA"/>
<rect width="11" height="10.375" transform="translate(61.25 22.125)" fill="#111111"/>
<rect width="4.875" height="5.75" transform="translate(64.25 24.125)" fill="#FAFAFA"/>
<rect width="11" height="10.375" transform="translate(73.5 22.125)" fill="#111111"/>
<rect width="4.875" height="5.75" transform="translate(76.5 24.125)" fill="#FAFAFA"/>
<rect width="11" height="15.75" transform="translate(85.75 22.125)" fill="#111111"/>
<rect width="11" height="15.75" transform="translate(98 22.125)" fill="white"/>
<rect width="11" height="15.75" transform="translate(183.75 22.125)" fill="#196E7D" fill-opacity="0.2"/>
<rect width="11" height="15.75" transform="translate(183.75 22.125)" fill="white"/>
<rect width="4.875" height="10.375" transform="translate(186.75 24.125)" fill="#D9D9D9" fill-opacity="0.2"/>
<rect width="11" height="15.75" transform="translate(196 22.125)" fill="#196E7D" fill-opacity="0.2"/>
<rect width="11" height="15.75" transform="translate(196 22.125)" fill="white"/>
<rect width="4.875" height="10.375" transform="translate(199 24.125)" fill="#D9D9D9" fill-opacity="0.2"/>
<rect width="11" height="15.75" transform="translate(208.25 22.125)" fill="#196E7D" fill-opacity="0.2"/>
<rect width="11" height="15.75" transform="translate(208.25 22.125)" fill="white"/>
<rect width="4.875" height="10.375" transform="translate(211.25 24.125)" fill="#D9D9D9" fill-opacity="0.2"/>
<rect width="11" height="15.75" transform="translate(220.5 22.125)" fill="#196E7D" fill-opacity="0.2"/>
<rect width="11" height="15.75" transform="translate(220.5 22.125)" fill="white"/>
<rect width="4.875" height="10.375" transform="translate(223.5 24.125)" fill="#D9D9D9" fill-opacity="0.2"/>
<rect width="11" height="15.75" transform="translate(281.75 22.125)" fill="white"/>
<rect width="11" height="15.75" transform="translate(294 22.125)" fill="white"/>
<rect width="11" height="15.75" transform="translate(306.25 22.125)" fill="#196E7D" fill-opacity="0.2"/>
<rect width="11" height="15.75" transform="translate(306.25 22.125)" fill="white"/>
<rect width="4.875" height="10.375" transform="translate(309.25 24.125)" fill="#D9D9D9" fill-opacity="0.2"/>
<rect width="11" height="15.75" transform="translate(318.5 22.125)" fill="#196E7D" fill-opacity="0.2"/>
<rect width="11" height="15.75" transform="translate(318.5 22.125)" fill="white"/>
<rect width="4.875" height="10.375" transform="translate(321.5 24.125)" fill="#D9D9D9" fill-opacity="0.2"/>
</svg>
