<svg width="1000" height="1000" viewBox="0 0 1000 1000" fill="none" xmlns="http://www.w3.org/2000/svg">
<path d="M805.409 276.6C809.769 275.08 811.978 273.22 812.168 270.93C812.538 266.45 804.859 262.26 797.429 258.2C794.159 256.41 791.048 254.72 789.348 253.32C790.178 250.94 792.208 248.3 794.188 245.75C797.248 241.79 800.408 237.7 799.798 233.77C799.488 231.81 798.258 230.07 796.128 228.59L795.558 228.13C786.628 220.95 777.398 213.52 767.548 207.37C758.338 201.62 752.318 196.02 750.778 185.88C750.458 182.63 746.088 159.49 738.128 159.49C737.008 159.49 735.908 159.94 734.838 160.84C732.038 148.57 727.278 144.66 722.258 140.53C718.988 137.85 715.618 135.07 712.508 129.69C702.818 107.78 677.008 99.5 654.248 92.19C646.568 89.72 639.318 87.39 632.818 84.66C632.788 84.65 632.759 84.63 632.719 84.62C594.219 72.93 553.429 67 511.489 67C484.049 67 456.168 69.56 428.618 74.62C401.438 79.61 374.468 87.05 348.448 96.73C318.588 105.93 298.248 128.51 278.578 150.35C271.668 158.02 264.528 165.95 257.098 173.16C249.998 180.42 248.408 190.15 246.878 199.56C246.138 204.09 245.378 208.78 243.998 213.09C239.808 221.36 239.458 230.58 239.128 239.49C238.888 245.73 238.648 252.19 237.058 258.17C228.698 286.3 222.888 310.93 219.298 333.44C214.828 361.51 213.658 386.7 215.718 410.45C219.728 439.9 227.338 468.43 235.058 494.94C227.048 492.4 220.438 491.16 214.898 491.16C202.188 491.16 194.718 497.72 192.668 510.65C182.998 540.4 190.258 571.2 197.278 600.99C197.698 602.76 198.108 604.52 198.518 606.27C198.518 606.3 198.538 606.34 198.548 606.37C215.068 653.81 236.738 682.64 264.818 694.49C264.938 694.54 265.078 694.57 265.208 694.57C265.208 694.57 265.218 694.57 265.228 694.57C270.388 694.46 275.218 691.61 279.878 688.85C282.118 687.52 284.258 686.26 286.388 685.31C288.788 695.85 291.588 706.56 294.298 716.93C299.518 736.9 304.908 757.55 307.778 778.02C307.898 806.88 312.188 835.97 316.328 864.1C317.648 873.05 319.008 882.3 320.228 891.44C318.518 891.37 316.848 891.33 315.238 891.33C272.958 891.33 267.678 915.43 262.098 940.94C257.258 963.05 252.248 985.92 223.988 997.79C223.528 997.98 223.288 998.48 223.408 998.95C223.518 999.4 223.918 999.71 224.378 999.71C224.408 999.71 224.438 999.71 224.468 999.71C253.368 997.06 259.298 972.09 265.038 947.95C269.408 929.55 273.608 911.89 287.108 903.35C283.538 918.9 284.278 936.29 289.298 953.75C294.148 970.6 302.548 986.38 313.618 999.37C313.808 999.59 314.088 999.72 314.378 999.72H319.378C319.758 999.72 320.098 999.51 320.268 999.17C320.438 998.84 320.408 998.43 320.188 998.13C296.188 965.07 287.178 935.32 292.638 907.18C292.938 905.19 292.948 903.7 292.098 902.71C291.578 902.11 290.838 901.84 290.068 901.73C294.918 899.36 300.818 898.02 308.138 898.02C311.418 898.02 314.978 898.3 318.728 898.84C321.018 905.32 319.058 915.72 317.318 924.92C316.568 928.9 315.858 932.66 315.538 935.85C315.538 935.93 315.538 936.01 315.538 936.08C315.808 938.11 313.438 944.14 311.158 949.97C306.808 961.06 304.098 968.56 306.128 971.53C306.518 972.09 307.258 972.77 308.638 972.77C308.998 972.77 309.378 972.72 309.798 972.63C310.158 972.55 310.448 972.28 310.548 971.93C312.028 966.75 313.678 961.54 315.278 956.51C320.888 938.85 326.688 920.6 325.358 901.16C324.688 883.54 322.108 865.62 319.618 848.29C316.458 826.34 313.208 803.68 313.828 781.47C331.768 811.37 354.988 837.38 375.468 859.52C401.108 893.75 447.508 934.48 493.938 936.66C497.108 936.86 500.328 936.96 503.508 936.96C541.248 936.96 578.278 922.86 613.568 895.04C641.228 873.24 667.249 843.61 690.949 806.96C691.149 826.95 689.488 847.85 687.878 868.1C684.408 911.63 680.829 956.65 694.469 999.03C694.599 999.44 694.988 999.72 695.418 999.72H699.418C699.728 999.72 700.018 999.58 700.208 999.33C700.398 999.08 700.458 998.76 700.378 998.46C689.098 955.96 686.888 914.78 694.108 882.25C707.818 897.38 715.938 916.32 717.638 937.15C719.268 957.15 715.078 978.29 705.508 998.28C705.358 998.59 705.378 998.95 705.558 999.24C705.738 999.53 706.058 999.71 706.398 999.71C706.398 999.71 706.448 999.71 706.458 999.71C712.888 999.71 714.828 992.05 716.538 985.29C717.348 982.09 718.118 979.07 719.248 977.02C719.268 976.98 719.288 976.94 719.308 976.89C729.848 949.57 725.578 919.84 706.208 886.22C708.908 888.82 711.658 891.38 714.358 893.89C722.018 901.01 729.939 908.37 736.409 916.47C741.169 923.88 745.388 932.26 749.858 941.14C763.268 967.77 777.138 995.31 807.258 999.69C807.308 999.69 807.358 999.7 807.398 999.7C807.828 999.7 808.218 999.42 808.348 999C808.498 998.53 808.278 998.02 807.838 997.81C774.828 981.43 765.968 962.54 756.578 942.54C749.758 928 742.708 912.97 726.398 897.23C719.488 888.54 710.608 881.77 702.018 875.22C698.708 872.7 695.588 870.31 692.558 867.82C693.218 859.92 693.518 851.77 693.818 843.89C694.468 826.73 695.139 808.98 699.429 792.43C713.109 764.46 726.018 734.04 728.168 700.94C732.958 703.31 737.828 704.51 742.668 704.51C751.648 704.51 760.298 700.43 767.688 692.7C777.768 682.15 783.878 666.26 783.248 652.21C783.628 637.57 788.968 623.86 794.128 610.6C800.288 594.78 806.648 578.43 804.528 560.51C804.528 560.48 804.528 560.45 804.518 560.43C803.288 554.5 802.888 548.08 802.498 541.87C801.898 532.39 801.338 523.44 798.008 516.66C794.228 508.96 787.248 505.22 776.648 505.22C774.818 505.22 772.848 505.33 770.788 505.55C775.188 481.79 780.608 457.69 785.858 434.37C791.578 408.95 797.488 382.66 802.108 356.7C802.108 356.65 802.118 356.59 802.128 356.54C802.218 350.54 802.618 344.32 802.998 338.3C804.088 321.29 805.218 303.7 799.808 287.25C799.798 287.21 799.778 287.18 799.768 287.14C798.628 284.68 798.369 282.84 798.949 281.37C799.639 279.61 801.648 278.14 805.438 276.59L805.409 276.6ZM728.228 683.53C728.228 683.53 728.228 683.46 728.228 683.42C728.648 666.98 731.829 650.2 736.159 633.43C737.379 636.1 739.118 638.7 741.868 638.7C743.878 638.7 746.078 637.33 748.998 634.25C749.058 634.18 749.109 634.11 749.159 634.03C750.999 630.58 755.078 629.25 759.398 627.84C764.978 626.02 770.748 624.14 771.188 617.3C771.188 617.26 771.188 617.21 771.188 617.17C771.188 616.62 770.738 616.17 770.188 616.17C769.978 616.17 769.788 616.24 769.628 616.34C764.118 619.99 757.918 622.32 752.058 624.39C752.028 624.39 752.008 624.41 751.978 624.42C750.118 625.25 748.478 626.85 746.888 628.4C745.068 630.17 743.348 631.85 741.818 631.85C740.918 631.85 740.028 631.24 739.088 629.99C738.888 629.73 738.588 629.59 738.288 629.59C738.088 629.59 737.899 629.65 737.719 629.77L736.989 630.27C740.249 618.03 744.068 605.81 747.848 593.76C749.358 588.94 750.918 583.96 752.388 579.14C755.128 570.62 756.738 561.39 758.288 552.47C760.678 538.76 763.148 524.59 769.788 512.76C773.598 511.47 777.038 510.81 779.998 510.81C796.078 510.81 797.189 530.47 798.159 547.82C798.449 552.97 798.718 557.83 799.368 562C800.798 573.85 799.528 584.27 795.378 594.75C785.118 615.54 781.099 638.38 777.219 660.47C776.139 666.59 775.028 672.92 773.798 679.12C765.068 689.08 756.778 697.38 744.108 698.53C736.648 698.24 732.158 697.54 729.828 694.75C727.988 692.55 727.479 688.97 728.239 683.51L728.228 683.53ZM721.489 704.84C724.199 714.01 721.639 722.16 718.929 730.79L718.868 730.98C705.918 777.24 676.318 827.17 639.688 864.57C619.658 885.02 598.328 901.13 576.278 912.44C552.118 924.84 527.699 931.12 503.679 931.12C501.459 931.12 499.218 931.07 497.018 930.96C471.378 929.46 446.128 918.2 419.828 896.54C396.768 877.55 375.748 852.89 357.208 831.13C351.098 823.96 345.328 817.19 339.598 810.73C311.498 777.23 302.338 734.73 293.478 693.62L292.478 688.97C285.828 657.36 278.908 625.95 273.018 599.38C277.008 574.76 278.008 549.15 278.978 524.39C279.648 507.4 280.328 489.83 281.978 472.76C283.158 463.43 288.538 455.64 293.748 448.1C294.498 447.01 295.238 445.93 295.968 444.86C304.788 431.81 309.298 417.96 314.288 401.21C314.298 401.17 314.308 401.13 314.318 401.09C320.318 365.68 333.618 341.45 356.168 324.84C376.318 310 402.078 301.75 439.748 292.54C476.898 285.48 510.198 282.05 541.548 282.05C596.198 282.05 643.648 293.02 682.558 314.66C712.938 331.1 717.578 364.47 722.058 396.74C723.158 404.65 724.198 412.13 725.608 419.41C731.628 458.12 736.759 497.67 741.719 535.9C742.709 543.54 743.699 551.18 744.699 558.81C744.699 558.84 744.709 558.87 744.719 558.91C749.129 577.98 742.919 596.46 736.909 614.34C733.979 623.07 730.938 632.09 729.148 641.12C726.008 656.08 724.569 671.67 723.179 686.74C722.639 692.56 722.088 698.58 721.438 704.46C721.428 704.59 721.439 704.73 721.469 704.85L721.489 704.84ZM583.628 278.36C581.808 278.04 579.999 277.72 578.199 277.4C578.149 277.4 578.098 277.39 578.048 277.38C567.878 277.08 558.429 276.94 549.179 276.94C492.099 276.94 444.518 282.69 407.788 294.03C354.888 310.36 323.828 338.32 315.468 377.15C309.538 409.57 294.418 438.31 278.958 464.55C278.898 464.64 278.858 464.75 278.838 464.85C274.478 485.79 273.598 507.59 272.748 528.67C272.148 543.5 271.528 558.77 269.708 573.8C264.108 553.88 257.188 534.45 250.478 515.61C240.078 486.41 229.328 456.21 223.688 424.53C215.168 375.21 225.448 323.16 236.638 278.74C241.978 267.14 243.228 254.71 244.438 242.7C245.548 231.69 246.688 220.3 251.028 209.77C252.628 205.32 253.378 200.63 254.108 196.09C255.568 186.93 256.958 178.28 264.798 172.17C264.838 172.14 264.868 172.11 264.898 172.08C269.818 166.98 274.738 161.64 279.498 156.48C292.808 142.03 306.568 127.09 322.378 115.35C367.718 90.1 425.138 75.52 493.038 72C494.258 72 495.508 72 496.768 72C572.148 72 632.698 84.29 681.858 109.58C681.898 109.6 681.938 109.62 681.978 109.63C696.968 115.03 701.278 121.95 705.828 129.28C709.178 134.66 712.638 140.23 720.338 145.51C720.358 145.52 720.378 145.54 720.398 145.55C726.548 149.13 727.939 155.4 729.159 160.94C729.919 165.58 731.278 167.47 733.838 167.47C734.308 167.47 734.778 167.41 735.228 167.35C735.678 167.29 736.138 167.24 736.588 167.24C739.228 167.24 742.698 169.72 746.018 189.04C749.188 203.56 761.519 210.94 773.449 218.08C780.219 222.13 787.209 226.32 792.489 231.76C792.529 231.8 792.568 231.84 792.618 231.87C793.788 232.72 794.418 233.57 794.538 234.46C794.688 235.51 794.148 236.8 792.898 238.41C784.888 247.88 782.328 252.46 783.128 255.88C783.858 259.02 787.428 260.57 792.368 262.71C796.248 264.4 801.009 266.46 806.239 269.95C805.889 270.11 805.538 270.27 805.188 270.43C795.678 274.79 789.398 277.67 795.098 290.46C797.588 298.44 798.029 306.28 798.489 314.58C798.679 317.96 798.869 321.46 799.219 324.93C793.359 392.83 775.908 461.23 759.028 527.38C756.188 538.52 753.259 549.99 750.429 561.29C743.009 501.3 734.728 441.37 725.798 383.06C721.448 302.81 648.249 289.83 583.659 278.37L583.628 278.36ZM254.258 544.44C258.378 556.84 262.648 569.66 265.898 582.47C265.988 583.1 266.158 583.68 266.328 584.24C266.778 585.78 267.138 587 265.748 588.73C265.578 588.94 265.498 589.21 265.538 589.48C267.508 605.96 271.858 622.61 276.068 638.72C279.478 651.77 282.998 665.26 285.298 678.73C278.988 684.34 272.648 687.19 266.438 687.19C245.248 687.19 228.498 655.22 216.258 631.88C213.648 626.91 211.188 622.21 209.008 618.47C204.578 611.62 203.648 604.02 202.668 595.98C202.148 591.76 201.618 587.4 200.528 583.2C200.518 583.15 200.498 583.11 200.478 583.06C194.408 568.69 193.908 553.74 194.258 539.73C195.278 503.87 205.488 496.34 213.878 496.34C216.068 496.34 218.468 496.83 221.028 497.8C221.078 497.82 221.128 497.83 221.178 497.84C235.888 500.86 242.238 506.99 247.338 523.08C249.538 530.22 251.938 537.45 254.268 544.45L254.258 544.44Z" fill="black"/>
<path d="M711.1 485.031C697.82 464.891 676.58 452.391 655.67 452.391C653.01 452.391 650.32 452.591 647.69 452.981C631.36 454.481 614.6 459.241 597.87 467.141C597.55 467.291 565.46 483.031 566.79 492.011C567.16 494.521 569.73 496.071 574.64 496.751C574.69 496.751 574.73 496.751 574.78 496.751C574.83 496.751 574.87 496.751 574.92 496.741C585.22 495.271 595.71 492.371 605.86 489.561C620.53 485.501 635.71 481.301 650.69 481.301C658.01 481.301 664.72 482.271 671.2 484.271C678.17 487.821 685.88 488.551 693.33 489.261C697.57 489.661 701.95 490.081 706.1 491.011C706.88 491.161 707.5 491.231 708.02 491.231C709.04 491.231 709.8 490.961 710.33 490.401C711.22 489.481 711.34 488.041 711.25 485.541C711.25 485.361 711.19 485.181 711.09 485.021L711.1 485.031Z" fill="black"/>
<path d="M453.961 494.171C455.951 495.591 458.431 496.331 461.151 496.331C466.981 496.331 472.951 492.891 475.021 488.331C476.571 484.941 475.881 481.301 473.091 478.091C473.051 478.051 473.011 478.011 472.971 477.971C451.751 460.771 422.421 457.521 396.601 455.821C395.561 455.761 394.511 455.691 393.461 455.621C389.851 455.391 386.121 455.141 382.451 455.141C378.601 455.141 375.261 455.411 372.261 455.981C364.541 456.811 332.621 468.561 328.421 480.361C327.381 483.291 328.081 486.101 330.461 488.481C330.651 488.671 330.911 488.771 331.171 488.771C331.301 488.771 331.431 488.741 331.561 488.691C345.601 482.771 361.711 479.761 379.431 479.761C401.991 479.761 427.761 484.741 453.951 494.161L453.961 494.171Z" fill="black"/>
<path d="M621.17 765.141C620.06 764.661 619.07 764.331 618.2 764.041C617.19 763.701 616.04 763.321 615.88 762.991C615.83 762.891 615.76 762.791 615.68 762.711C611.58 758.761 605.78 757.661 600.17 756.591C595.75 755.751 591.18 754.891 587.5 752.631C587.48 752.621 587.46 752.611 587.44 752.591C585.43 751.551 583.44 750.481 581.34 749.351C569.39 742.931 557.03 736.301 544.22 736.301C537.24 736.301 530.9 738.261 524.86 742.301C512.1 738.541 503.61 736.501 495.56 736.501C485.58 736.501 476.34 739.641 459.4 746.681C459.32 746.711 459.25 746.761 459.18 746.811C457.25 748.271 452.86 749.941 448.22 751.711C439.56 755.011 429.74 758.751 427.76 763.791C427.2 765.221 427.28 766.661 427.98 768.091C428.15 768.431 428.49 768.641 428.86 768.651C444.12 768.901 454.93 776.591 466.38 784.731C474.39 790.431 482.67 796.321 492.59 799.401C501.87 802.981 512 804.801 522.7 804.801C556.79 804.801 591.41 786.871 619.22 772.471L620.48 771.821C620.82 771.661 621.05 771.321 621.05 770.921C621.05 770.371 620.6 769.921 620.05 769.921C620.05 769.921 620.04 769.921 620.03 769.921C620.03 769.921 620 769.921 619.99 769.921C609.25 770.461 599.5 775.701 590.06 780.771C584.12 783.961 577.97 787.261 571.71 789.301C571.69 789.301 571.67 789.311 571.65 789.321C558.23 794.711 543.68 798.181 528.42 799.621C528.4 799.621 528.37 799.621 528.35 799.621C525.49 800.111 522.59 800.361 519.74 800.361C501.97 800.361 486.76 790.681 472.04 781.311C464.35 776.411 456.43 771.371 448.13 767.691C459.13 766.461 471.1 765.861 484.6 765.861C500.66 765.861 517.17 766.711 533.13 767.521C549.11 768.341 565.62 769.181 581.71 769.181C596.33 769.181 609.14 768.481 620.88 767.041C621.33 766.981 621.68 766.641 621.75 766.191C621.81 765.741 621.57 765.311 621.15 765.131L621.17 765.141ZM597.89 762.941C590.5 763.331 582.74 763.521 574.33 763.521C557.59 763.521 540.53 762.741 524.03 761.991C507.52 761.241 490.46 760.461 473.7 760.461C462.89 760.461 453.07 760.781 443.82 761.431C457.62 752.431 476.96 741.781 496.22 741.781C504.8 741.781 512.78 743.941 519.94 748.201C519.96 748.211 519.98 748.221 520.01 748.241C521.32 748.891 522.41 749.201 523.43 749.201C524.87 749.201 526.18 748.641 527.95 747.271C533.26 743.511 538.88 741.671 545.11 741.671C556.51 741.671 568.17 747.951 579.44 754.011C585.81 757.441 591.9 760.721 597.9 762.931L597.89 762.941Z" fill="black"/>
<path d="M677.059 543.191C677.119 543.191 677.179 543.191 677.239 543.171C677.549 543.121 677.809 542.921 677.949 542.641C678.869 540.861 679.029 539.021 678.429 537.171C676.529 531.311 667.359 526.681 661.289 523.611C660.329 523.121 659.449 522.681 658.719 522.291C658.699 522.291 658.689 522.271 658.669 522.271C649.739 518.091 639.539 515.881 629.179 515.881C606.729 515.881 588.509 526.051 580.429 543.081C578.739 545.941 578.489 548.711 579.719 550.881C581.109 553.321 584.238 554.731 588.298 554.731C588.428 554.731 588.559 554.731 588.689 554.731C591.809 554.851 594.969 555.011 598.309 555.191C605.589 555.561 613.109 555.951 620.679 555.951C637.069 555.951 657.818 554.371 672.898 542.091C673.138 541.911 673.298 541.621 673.298 541.291C673.298 540.741 672.859 540.291 672.309 540.291C672.309 540.291 672.288 540.291 672.278 540.291C672.248 540.291 672.229 540.291 672.199 540.291C665.779 540.921 659.228 543.421 652.898 545.851C648.728 547.441 644.449 549.091 640.189 550.201C645.069 547.261 648.779 541.731 649.679 535.841C650.339 531.501 649.439 527.491 647.119 524.251C658.229 527.751 666.958 534.301 676.398 542.941C676.588 543.111 676.829 543.201 677.079 543.201L677.059 543.191ZM609.298 550.101L585.019 548.111C591.259 535.481 598.978 527.621 607.028 525.641C602.668 533.571 600.279 542.361 609.309 550.101H609.298Z" fill="black"/>
<path d="M471.672 548.09C471.762 547.76 471.692 547.41 471.462 547.15C455.242 528.67 433.372 518.07 411.442 518.07C399.582 518.07 388.022 521.05 377.072 526.92C374.742 528.07 371.992 530.9 371.672 533.42C371.642 533.67 371.702 533.92 371.852 534.12C376.972 541.36 384.952 546.81 395.572 550.31C404.692 553.32 415.521 554.84 427.761 554.84C442.241 554.84 458.011 552.62 471.011 548.76C471.341 548.66 471.592 548.41 471.692 548.08L471.672 548.09ZM460.272 545.76C453.072 548.95 445.712 549.2 437.932 549.47C435.522 549.55 433.052 549.64 430.582 549.82L439.242 529.34C446.262 532.85 454.072 537.58 460.272 545.76ZM393.342 526.51V542.59C385.172 538.79 379.322 536.03 379.352 534.33C379.382 532.56 385.992 529.64 393.342 526.51Z" fill="black"/>
<path d="M372.55 518.701C386.05 513.251 400.07 510.361 413.09 510.361C432.97 510.361 450.28 517.041 463.14 529.671C463.33 529.861 463.59 529.961 463.84 529.961C464.05 529.961 464.25 529.901 464.43 529.771C464.83 529.481 464.95 528.951 464.73 528.511C457.03 513.421 439.29 505.111 414.77 505.111C390.25 505.111 364.6 513.521 351.16 525.571C350.94 525.771 350.81 526.061 350.83 526.361C350.84 526.661 350.99 526.941 351.23 527.121C352.13 527.781 353.16 528.121 354.3 528.121C357.35 528.121 360.63 525.771 364.11 523.291C366.96 521.261 369.9 519.161 372.33 518.761C372.4 518.751 372.48 518.731 372.55 518.701Z" fill="black"/>
<path d="M631.121 508.861C618.581 508.861 606.821 510.481 598.011 513.421C587.791 516.831 581.801 521.901 580.691 528.101C580.621 528.501 580.791 528.901 581.131 529.121C581.841 529.581 582.542 529.811 583.222 529.811C585.062 529.811 586.241 528.191 587.281 526.761C587.911 525.891 588.571 524.991 589.281 524.541C589.331 524.511 589.371 524.481 589.421 524.441C595.401 519.081 603.381 516.131 613.811 515.441C620.841 514.991 627.721 514.591 634.531 514.591C648.731 514.591 667.001 516.111 682.361 527.971C682.541 528.111 682.762 528.181 682.972 528.181C683.172 528.181 683.361 528.121 683.531 528.011C683.891 527.771 684.052 527.321 683.932 526.911C680.392 514.511 654.081 508.871 631.131 508.871L631.121 508.861Z" fill="black"/>
<path d="M461.281 564.351C461.671 564.261 461.981 563.941 462.051 563.551L462.221 562.581L462.391 561.601C462.441 561.291 462.351 560.981 462.141 560.751C461.951 560.541 461.681 560.431 461.411 560.431C461.381 560.431 461.351 560.431 461.311 560.431C455.081 561.041 448.891 561.351 442.901 561.351C427.921 561.351 413.461 559.411 399.901 555.591C396.891 554.681 393.701 554.111 390.621 553.551C383.221 552.221 376.221 550.971 370.731 545.321C370.231 544.811 369.551 544.801 368.681 544.781C368.261 544.781 367.731 544.761 367.091 544.711C367.061 544.711 367.031 544.711 367.001 544.711C366.701 544.711 366.411 544.851 366.221 545.081C366.011 545.341 365.941 545.691 366.041 546.011C369.171 556.001 380.081 557.471 389.711 558.761C394.111 559.351 398.261 559.911 401.651 561.161C401.681 561.171 401.721 561.181 401.751 561.191C416.441 564.911 428.581 566.651 439.961 566.651C447.351 566.651 454.521 565.881 461.281 564.361V564.351Z" fill="black"/>
<path d="M682.229 557.581C681.059 556.841 679.679 556.471 678.109 556.471C674.559 556.471 670.528 558.301 666.258 560.241C662.158 562.101 657.929 564.031 654.439 564.031C654.329 564.031 654.209 564.031 654.099 564.031C654.089 564.031 654.079 564.031 654.059 564.031C654.009 564.031 653.949 564.031 653.899 564.041C647.679 565.071 641.149 565.591 634.489 565.591C631.359 565.591 628.179 565.471 625.039 565.241C625.019 565.241 624.989 565.241 624.969 565.241C624.949 565.241 624.929 565.241 624.909 565.241C624.449 565.271 623.969 565.281 623.489 565.281C619.289 565.281 614.759 564.141 610.369 563.041C605.929 561.931 601.328 560.771 597.008 560.771C594.208 560.771 591.759 561.241 589.539 562.221C589.159 562.391 588.919 562.771 588.939 563.191C588.959 563.611 589.239 563.961 589.639 564.091C603.609 568.531 618.549 570.871 632.819 570.871C651.329 570.871 668.399 566.871 682.189 559.301C682.499 559.131 682.699 558.811 682.709 558.451C682.719 558.091 682.539 557.761 682.249 557.571L682.229 557.581Z" fill="black"/>
<path d="M472.931 633.051C472.741 632.771 472.431 632.611 472.101 632.611C472.011 632.611 471.911 632.621 471.811 632.651C464.401 634.861 459.241 641.501 457.271 651.371C455.911 658.181 456.241 665.881 458.191 673.031C460.221 680.501 463.891 686.681 468.511 690.441C468.691 690.591 468.921 690.661 469.141 690.661C469.261 690.661 469.381 690.641 469.491 690.591L470.871 690.071C471.381 689.881 471.681 689.291 471.491 688.781C470.651 686.451 469.811 684.251 469.011 682.121C462.081 663.791 457.901 652.731 472.871 634.231C473.151 633.891 473.171 633.411 472.921 633.041L472.931 633.051Z" fill="black"/>
<path d="M582.079 690.111C582.269 690.331 582.549 690.451 582.829 690.451C582.979 690.451 583.139 690.411 583.279 690.341C599.049 682.311 596.539 663.081 594.519 647.631C594.159 644.841 593.809 642.211 593.579 639.721C593.529 639.221 593.119 638.831 592.619 638.811C592.479 638.811 592.349 638.811 592.219 638.811C590.419 638.811 589.169 639.271 588.419 640.211C587.029 641.971 587.679 644.771 588.659 649.021C590.629 657.511 593.919 671.711 581.989 688.881C581.729 689.261 581.759 689.761 582.059 690.111H582.079Z" fill="black"/>
<path d="M490.079 688.671C490.239 688.671 490.398 688.671 490.568 688.661C490.918 688.641 491.238 688.441 491.398 688.131C491.568 687.821 491.558 687.451 491.378 687.141C487.848 681.251 487.829 678.731 488.439 677.651C488.909 676.811 490.089 676.391 491.939 676.391C496.209 676.391 502.828 678.631 508.148 680.441C509.958 681.051 511.669 681.631 513.079 682.051C513.169 682.081 513.268 682.091 513.358 682.091C513.608 682.091 513.849 682.001 514.039 681.821C514.299 681.581 514.409 681.221 514.329 680.871C512.849 674.201 498.518 669.531 491.318 669.531C489.888 669.531 488.698 669.701 487.778 670.041C482.358 671.091 480.309 675.621 480.679 679.671C481.089 684.151 484.449 688.681 490.059 688.681L490.079 688.671Z" fill="black"/>
<path d="M504.872 618.421C504.962 618.441 505.052 618.461 505.142 618.461C505.342 618.461 505.542 618.401 505.712 618.281C505.952 618.111 506.112 617.841 506.132 617.541C506.642 611.021 507.482 604.351 508.282 597.901C509.852 585.401 511.472 572.471 510.832 559.831C510.812 559.371 510.472 558.981 510.012 558.901C509.952 558.891 509.892 558.881 509.832 558.881C509.442 558.881 509.082 559.111 508.912 559.481C504.672 569.141 504.002 580.321 503.362 591.131C502.982 597.511 502.582 604.111 501.452 610.241C501.452 610.271 501.452 610.291 501.442 610.321L501.392 610.811C501.102 613.541 500.712 617.281 504.862 618.431L504.872 618.421Z" fill="black"/>
<path d="M544.391 685.361C544.461 685.361 544.541 685.361 544.611 685.341C547.871 684.611 551.271 682.081 554.551 679.631C558.331 676.811 562.241 673.891 565.691 673.891C567.811 673.891 569.661 675.011 571.371 677.321C572.101 678.611 573.811 679.111 575.461 679.591C576.141 679.791 576.791 679.981 577.331 680.211C577.461 680.261 577.591 680.291 577.721 680.291C577.891 680.291 578.061 680.251 578.211 680.161C578.481 680.011 578.671 679.731 578.711 679.421C578.981 677.361 577.981 674.851 575.961 672.541C573.541 669.781 570.281 668.061 567.441 668.061C566.251 668.061 565.141 668.351 564.131 668.911C562.321 670.001 559.871 670.881 557.291 671.811C550.601 674.221 543.031 676.951 543.391 684.401C543.401 684.691 543.551 684.971 543.781 685.151C543.961 685.281 544.171 685.351 544.391 685.351V685.361Z" fill="black"/>
<path d="M561.571 622.07C561.711 622.07 561.841 622.04 561.981 621.98C562.401 621.79 562.641 621.35 562.561 620.9C561.041 612.1 561.301 603.49 561.551 595.17C561.851 585.25 562.131 575.88 559.651 566.24C559.541 565.8 559.141 565.49 558.681 565.49C558.681 565.49 558.681 565.49 558.671 565.49C558.211 565.49 557.811 565.81 557.711 566.26C555.271 576.78 554.611 613.8 560.791 621.69C560.981 621.94 561.281 622.07 561.581 622.07H561.571Z" fill="black"/>
<path d="M513.109 692.731C513.109 693.091 513.299 693.421 513.609 693.591C516.669 695.351 520.23 696.201 524.5 696.201C530.46 696.201 536.56 694.551 542.81 692.711C543.09 692.631 543.329 692.421 543.439 692.151C543.549 691.881 543.549 691.571 543.419 691.301C542.329 689.131 539.51 689.131 538.58 689.131C536.74 689.131 534.53 689.481 532.2 689.851C529.59 690.261 526.89 690.691 524.41 690.691C521.93 690.691 520.06 690.251 518.72 689.341C518.55 689.231 518.36 689.171 518.16 689.171C518.13 689.171 518.099 689.171 518.069 689.171C516.759 689.291 515.74 690.161 514.85 690.921C514.42 691.281 514.009 691.631 513.629 691.861C513.319 692.041 513.129 692.371 513.129 692.731H513.109Z" fill="black"/>
<path d="M224.769 510.871C223.429 509.961 222.159 509.111 220.919 508.231C218.159 506.451 215.609 505.551 213.289 505.551C210.009 505.551 205.469 507.381 202.439 516.111C200.149 522.701 199.669 530.261 199.579 533.211C199.429 547.211 203.069 560.631 206.599 573.611C207.909 578.421 209.259 583.401 210.399 588.331C210.409 588.391 210.429 588.451 210.459 588.511C211.849 591.661 212.499 596.261 213.129 600.701C214.189 608.211 215.289 615.981 220.049 618.641C220.199 618.721 220.369 618.771 220.539 618.771C220.719 618.771 220.889 618.721 221.049 618.631C221.359 618.451 221.539 618.121 221.539 617.761C221.509 611.411 218.579 600.281 215.189 587.401C208.679 562.651 200.569 531.861 208.619 518.731C210.519 515.631 213.189 513.721 216.779 512.901C222.049 513.841 225.459 517.531 229.069 521.441C232.429 525.081 235.899 528.841 240.969 530.091C241.049 530.111 241.129 530.121 241.209 530.121C241.489 530.121 241.759 530.001 241.949 529.791C242.199 529.521 242.269 529.131 242.149 528.781C239.159 520.571 231.519 515.421 224.779 510.871H224.769Z" fill="black"/>
<path d="M234.879 590.27C234.869 590.36 234.879 590.45 234.879 590.54C235.059 591.65 235.229 592.86 235.409 594.13C236.689 603.07 238.449 615.31 244.899 620.78C245.089 620.94 245.32 621.02 245.55 621.02C245.72 621.02 245.89 620.98 246.04 620.89L247.8 619.89C248.04 619.75 248.21 619.53 248.28 619.26C248.35 618.99 248.299 618.71 248.149 618.48C237.219 601.41 237.57 583.63 249.24 562.54C249.38 562.29 249.4 561.99 249.31 561.72C249.22 561.45 249.01 561.23 248.75 561.13C248.11 560.87 247.48 560.74 246.85 560.74C243.15 560.74 240.21 565.03 237.84 573.85C236.18 580.04 235.269 586.79 234.879 590.27Z" fill="black"/>
<path d="M269.03 646.121C269.2 646.341 269.46 646.491 269.74 646.511C269.77 646.511 269.8 646.511 269.83 646.511C270.08 646.511 270.32 646.421 270.51 646.241L272.22 644.661L273.18 643.771C273.38 643.591 273.49 643.341 273.5 643.071C273.5 642.801 273.41 642.541 273.23 642.351C266.59 635.311 259.06 627.341 259.32 615.801C259.32 615.521 259.22 615.251 259.02 615.061C258.83 614.881 258.58 614.781 258.32 614.781C258.3 614.781 258.29 614.781 258.27 614.781C256.04 614.891 254.56 615.731 253.86 617.261C251.45 622.531 260.1 634.671 267.91 644.651C268.38 645.261 268.77 645.751 269.04 646.111L269.03 646.121Z" fill="black"/>
<path d="M240.058 535.101C238.858 530.741 235.368 528.141 230.718 528.141C230.628 528.141 230.548 528.141 230.458 528.141C230.098 528.141 229.768 528.351 229.598 528.661C229.428 528.971 229.438 529.361 229.618 529.661L229.758 529.881C233.568 536.111 236.318 540.611 231.528 546.041C231.338 546.261 231.248 546.541 231.288 546.831C231.328 547.121 231.478 547.371 231.718 547.531L233.658 548.851C233.828 548.971 234.028 549.021 234.218 549.021C234.398 549.021 234.568 548.971 234.728 548.881C239.198 546.211 241.488 540.281 240.058 535.091V535.101Z" fill="black"/>
<path d="M778.711 535.341C778.851 535.351 778.99 535.361 779.13 535.361C781.07 535.361 782.32 533.971 783.53 532.631C783.96 532.151 784.39 531.671 784.86 531.241C791.15 539.621 788.911 551.161 786.751 562.331C784.711 572.881 782.781 582.851 787.491 590.431C787.671 590.721 787.99 590.901 788.34 590.901C788.36 590.901 788.371 590.901 788.391 590.901C788.751 590.881 789.081 590.671 789.241 590.341C791.551 585.621 791.33 580.531 791.13 575.611C790.98 571.951 790.831 568.491 791.671 565.231C794.151 556.611 794.52 548.141 794.32 538.101C794.79 534.871 793.89 531.751 791.8 529.311C789.85 527.051 787.141 525.691 784.541 525.691C782.801 525.691 781.261 526.311 780.101 527.471C778.601 528.981 777.81 531.351 777.82 534.341C777.82 534.851 778.211 535.281 778.721 535.331L778.711 535.341Z" fill="black"/>
<path d="M757.781 580C757.781 580 757.691 580 757.651 580C757.371 580 757.101 580.12 756.911 580.33C756.691 580.57 756.601 580.91 756.681 581.23L762.251 605L762.511 606.13C762.601 606.53 762.941 606.84 763.351 606.89C763.401 606.89 763.441 606.89 763.491 606.89C763.851 606.89 764.191 606.69 764.371 606.37C766.711 602.14 766.621 592.47 762.771 584.84C761.291 581.91 759.571 580.24 757.801 580H757.781Z" fill="black"/>
<path d="M736.761 666.152L737.291 667.122C737.471 667.452 737.811 667.642 738.171 667.642C738.331 667.642 738.491 667.602 738.641 667.522C740.111 666.742 741.891 665.912 743.781 665.022C751.601 661.362 761.341 656.812 762.301 649.902C762.351 649.522 762.181 649.142 761.851 648.922C761.681 648.812 761.491 648.762 761.301 648.762C761.111 648.762 760.941 648.812 760.771 648.912L736.611 663.872C736.161 664.152 736.011 664.732 736.261 665.202L736.771 666.132L736.761 666.152Z" fill="black"/>
</svg>
