<svg width="1000" height="1000" viewBox="0 0 1000 1000" fill="none" xmlns="http://www.w3.org/2000/svg">
<g clip-path="url(#clip0_1745_276409)">
<path d="M810.809 541.341C810.809 541.281 810.819 541.221 810.819 541.161C810.739 538.021 808.37 535.151 806.27 532.621C805.35 531.511 804.479 530.461 803.869 529.481C803.849 529.441 803.819 529.401 803.789 529.371C802.939 528.351 802.269 525.651 801.629 523.041C800.449 518.271 799.239 513.341 795.959 513.341C795.069 513.341 794.159 513.721 793.179 514.511C793.129 514.551 793.089 514.591 793.049 514.641C788.019 520.531 780.759 529.091 774.229 537.361C769.169 491.351 754.009 447.971 732.839 397.231C732.839 397.211 732.819 397.181 732.809 397.161C713.319 358.971 685.939 325.141 653.629 299.331C618.299 271.121 578.639 254.181 538.919 250.351C531.989 249.821 524.889 249.551 517.809 249.551C478.909 249.551 440.359 257.331 406.309 272.061C368.929 288.231 338.83 312.311 319.27 341.691C289.95 386.141 270.229 442.111 260.679 508.061C257.749 537.971 256.419 569.481 256.589 604.441C256.629 606.591 255.639 607.001 253.579 607.681C252.579 608.011 251.479 608.371 250.549 609.101C250.169 608.671 249.789 608.251 249.429 607.831C247.129 605.201 244.959 602.711 241.119 601.701C241.039 601.681 240.949 601.671 240.869 601.671C240.649 601.671 240.43 601.741 240.26 601.881C240.01 602.071 239.869 602.371 239.879 602.681C239.929 607.061 241.129 611.691 242.289 616.181C243.179 619.621 244.019 622.871 244.349 625.911C244.369 626.111 244.459 626.311 244.589 626.461C250.199 632.931 252.019 640.891 253.789 648.591C256.409 660.051 266.709 668.061 278.829 668.061C279.049 668.061 279.28 668.061 279.5 668.061C280.44 672.131 281.379 676.301 282.289 680.341C289.099 710.671 296.139 742.041 313.369 768.211C313.399 768.261 313.44 768.301 313.47 768.341C326.9 782.771 335.379 793.461 338.949 805.401C342.409 816.961 341.58 829.711 338.72 850.671C338.72 850.691 338.72 850.721 338.72 850.741C338.48 854.361 336.559 857.831 334.699 861.181C333.789 862.831 332.93 864.391 332.24 865.971C332.18 866.111 332.149 866.271 332.159 866.431C332.469 871.401 331.71 876.691 330.98 881.801C329.99 888.701 328.959 895.841 330.549 902.351C330.639 902.721 330.929 903.001 331.289 903.091C331.369 903.111 331.44 903.121 331.52 903.121C331.81 903.121 332.09 902.991 332.28 902.761C336.17 898.141 336.59 891.941 337 885.931C337.18 883.261 337.349 880.741 337.809 878.371C345.499 855.421 348.209 830.641 345.859 804.691C356.659 811.861 369.789 822.071 383.649 832.851C422.229 862.851 470.229 900.191 504.219 900.221C505.709 900.261 507.24 900.271 508.74 900.271C575.009 900.271 615.32 866.181 662 826.701C666.43 822.951 670.989 819.101 675.609 815.241C663.929 840.331 654.23 865.521 646.02 892.121C640.05 908.871 633.56 925.801 627.28 942.171L626.929 943.091C626.929 943.091 626.899 943.171 626.889 943.221C626.299 945.711 624.949 948.251 623.629 950.711C621.159 955.341 618.599 960.131 620.479 965.341C620.569 965.601 620.77 965.811 621.02 965.921C621.15 965.981 621.289 966.011 621.419 966.011C621.549 966.011 621.679 965.981 621.799 965.931C626.349 964.041 628.769 959.811 631.099 955.721C632.259 953.681 633.369 951.751 634.709 950.101C634.739 950.061 634.769 950.021 634.799 949.981C638.099 944.381 639.459 943.271 639.889 943.051C640.599 944.361 639.96 950.981 639.49 955.871C638.74 963.671 637.88 972.501 639.52 976.811C639.64 977.141 639.93 977.381 640.28 977.441C640.34 977.451 640.399 977.461 640.459 977.461C640.749 977.461 641.019 977.341 641.209 977.121L646.039 971.611L647.28 970.191C647.15 975.991 646.849 981.671 646.559 987.191C646.359 991.101 646.14 995.131 645.99 999.211C645.98 999.481 646.08 999.751 646.27 999.941C646.46 1000.14 646.72 1000.25 646.99 1000.25H649.99C650.28 1000.25 650.55 1000.13 650.74 999.911C650.93 999.691 651.019 999.411 650.979 999.121C650.729 997.171 651.269 992.591 651.839 987.741C653.009 977.801 654.34 966.521 651.28 963.081C650.61 962.331 649.75 961.941 648.77 961.931C647.4 961.931 645.799 962.701 643.889 964.271C643.939 960.811 644.439 956.211 644.919 951.731C646.119 940.641 646.699 933.741 644.629 931.441C644.149 930.901 643.519 930.611 642.819 930.611C641.799 930.611 640.329 931.111 637.589 934.221C640.779 924.801 643.779 915.351 646.699 906.171C655.689 877.871 664.189 851.141 677.619 824.891C677.639 824.861 677.649 824.831 677.659 824.791C682.739 811.631 691.099 800.121 699.189 788.981C701.809 785.371 704.509 781.651 707.079 777.911C707.089 777.891 707.099 777.871 707.109 777.861C728.559 741.901 742.07 704.531 747.28 666.761C749.31 667.231 751.309 667.461 753.219 667.461C765.229 667.461 773.25 658.451 781.01 649.731C784.09 646.271 787.279 642.691 790.619 639.811C790.659 639.781 790.689 639.751 790.719 639.711C806.289 621.871 807.429 595.731 808.539 570.461C808.989 560.131 809.419 550.381 810.809 541.401V541.341ZM254.26 632.201C252.87 627.121 251.439 621.891 249.469 617.341C250.539 617.841 251.519 618.211 252.469 618.211C254.719 618.211 255.71 616.161 256.25 614.381C262.72 612.301 263.559 605.611 263.119 598.951L276.589 661.731C261.879 660.111 258.17 646.551 254.26 632.211V632.201ZM744.229 643.861C744.229 643.861 744.219 643.941 744.209 643.971C741.709 675.981 734.58 706.311 723.02 734.111C710.45 764.321 693.199 790.021 671.729 810.511C668.029 813.631 664.429 817.211 660.949 820.681C652.369 829.221 643.49 838.051 631.99 841.251C631.66 841.341 631.399 841.601 631.299 841.921C630.759 843.701 629.099 844.431 627.169 845.281C624.799 846.321 621.86 847.611 621.53 851.461C606.38 865.771 588.399 876.791 568.079 884.221C548.639 891.321 527.569 894.981 505.459 895.071C504.909 895.091 504.389 895.101 503.879 895.101C481.499 895.101 453.48 875.411 428.76 858.041C419.17 851.301 410.11 844.941 402.24 840.361C361.4 811.481 337.67 792.391 321.26 768.221C304.1 742.951 295.279 711.651 285.829 666.131C285.829 666.091 285.809 666.051 285.799 666.011C272.289 626.941 264.729 584.101 263.939 542.111C262.449 516.721 268.619 491.881 274.599 467.861C277.059 457.971 279.599 447.741 281.579 437.601C290.189 411.991 299.99 385.011 313.26 361.161C328.49 333.791 346.23 314.061 367.5 300.861C389.1 286.211 412.839 274.771 438.079 266.821C463.659 258.761 489.599 254.671 515.169 254.671C542.579 254.671 568.539 259.391 592.309 268.701C617.729 278.651 640.109 293.671 658.839 313.351C662.769 317.231 666.82 321.121 670.74 324.881C691.53 344.811 713.029 365.431 724.189 392.881C740.869 431.321 759.759 474.871 764.289 519.631C764.939 551.941 758.359 580.631 751.389 611.011C748.949 621.671 746.419 632.691 744.229 643.871V643.861ZM795.549 621.231C792.809 628.261 785.409 638.391 776.669 647.071C767.369 656.301 758.739 661.821 753.569 661.821C751.909 661.821 750.669 661.251 749.789 660.091C747.989 657.711 746.779 651.581 751.229 635.911C752.739 629.901 753.969 623.671 755.149 617.651C757.819 604.091 760.579 590.071 766.669 577.781C766.729 577.671 766.76 577.551 766.77 577.431C767.25 572.101 767.329 566.601 767.419 561.281C767.509 555.441 767.609 549.431 768.229 543.641C769.309 544.711 770.539 545.251 771.909 545.251C777.289 545.251 783.329 536.601 788.659 528.961C790.899 525.751 793.029 522.701 794.689 520.961C796.309 523.631 797.079 526.621 797.889 529.761C799.129 534.611 800.42 539.611 805.03 543.591C804.05 568.711 799.899 595.731 795.559 621.221L795.549 621.231Z" fill="black"/>
<path d="M889.86 958.58C886.2 949.51 882.42 940.12 880.05 930.78C864.82 880.4 857.1 834.98 856.44 791.88C856.49 772.25 856.86 752.3 857.21 733C858 689.72 858.83 644.97 856.13 600.85C856.22 598.66 856.31 596.47 856.4 594.28C857.58 565.78 858.8 536.31 855.8 507.45C855.79 507.35 855.77 507.26 855.73 507.17C851.2 496.22 849.38 484.32 847.61 472.82C846.78 467.44 845.93 461.88 844.81 456.45C840.54 438.11 836.62 419.14 832.83 400.81C818.08 329.49 802.83 255.75 762.79 193.61C762.77 193.59 762.76 193.56 762.74 193.54C736.52 159.8 709.4 132.82 682.15 113.34C647.49 88.57 612.61 76 578.48 76C565.56 76 552.55 77.81 539.83 81.39C533.4 82.91 526.57 85.27 519 88.59C518.68 88.73 518.37 88.87 518.08 89.01C517.04 89.5 516.29 89.85 515.42 89.85C514.9 89.85 514.34 89.72 513.7 89.47C499.88 83.9 486.76 81.14 473.59 81.03C471.93 80.98 470.23 80.95 468.55 80.95C417.06 80.95 376.12 105.11 342.86 128.75C299.61 152.94 276.73 196.35 254.6 238.32C245.19 256.17 235.47 274.62 224.34 291.21C224.33 291.23 224.32 291.25 224.3 291.27C193.82 344.17 177 388.96 171.37 432.21C167.82 449.73 163.32 467.5 158.97 484.69C151.92 512.51 144.64 541.27 141.12 569.98C141.06 570.5 141.4 570.98 141.92 571.08C141.99 571.09 142.05 571.1 142.12 571.1C142.56 571.1 142.96 570.81 143.08 570.37C149.64 547.04 155.28 522.06 160.73 497.89C166.14 473.9 171.74 449.09 178.28 425.67C178.3 425.6 178.31 425.53 178.32 425.46C181.13 377.8 205.38 334.85 228.82 293.3C231.35 288.81 233.97 284.18 236.49 279.65C248.8 259.13 257.98 242.09 266.08 227.05C294.37 174.51 307.29 150.53 385.6 106.48C411.92 93.49 439.57 86.62 465.56 86.62C482.57 86.62 498.57 89.59 513.11 95.44C513.23 95.49 513.36 95.51 513.48 95.51C513.56 95.51 513.65 95.5 513.73 95.48C519.4 94.02 525.2 92.29 530.8 90.61C546.22 85.99 562.16 81.21 578.67 81.21C581.2 81.21 583.73 81.32 586.17 81.55C586.19 81.55 586.21 81.55 586.24 81.55C626.6 82.59 668.21 104.28 713.46 147.86C715.25 149.76 717.18 151.66 719.04 153.49C724.5 158.85 730.14 164.4 733.66 171.49C733.69 171.55 733.73 171.61 733.77 171.67C735.06 173.31 737.12 174.1 739.11 174.86C740.79 175.51 742.39 176.11 743.31 177.15C790 230.62 805.82 301.83 821.11 370.69C823.83 382.91 826.63 395.55 829.55 407.73C835.88 432.87 840.09 458.86 844.17 484C844.75 487.57 845.33 491.15 845.91 494.72C846.5 497.72 847.13 500.7 847.73 503.58C850.79 518.2 853.69 532 852.94 547.22C850.4 585.43 850.63 627.14 853.65 678.47C853.38 688.75 852.93 699.2 852.49 709.32C851.68 728.13 850.85 747.58 851.09 766.73C849.9 804.16 853.89 842.95 863.29 885.27C870.87 919.4 881.91 955.71 898.04 999.55C898.18 999.94 898.56 1000.2 898.98 1000.2H900.98C901.26 1000.2 901.53 1000.08 901.72 999.87C901.91 999.66 902 999.38 901.97 999.1C900.62 985.29 895.15 971.71 889.85 958.58H889.86Z" fill="black"/>
<path d="M333.461 943.88C333.451 943.81 333.431 943.75 333.401 943.68C328.671 931.74 326.901 918.74 327.981 903.94C328.021 902.56 328.221 901.17 328.401 899.82C328.921 896.12 329.451 892.29 327.071 888.74C326.891 888.46 326.571 888.3 326.241 888.3C325.911 888.3 325.601 888.46 325.411 888.74C319.171 897.93 322.691 924.83 325.751 937.93C320.821 933.17 316.771 927.17 312.841 921.34C307.501 913.43 301.981 905.24 294.131 899.84C293.961 899.72 293.761 899.66 293.561 899.66C293.341 899.66 293.121 899.73 292.931 899.88C292.591 900.16 292.461 900.62 292.631 901.03C292.961 901.84 293.241 902.64 293.521 903.41C293.951 904.59 294.381 905.8 294.961 907.05C294.461 907.27 294.041 907.63 293.711 908.12C289.751 914.02 300.481 941.46 313.841 974.03C317.121 982.02 320.041 989.15 321.471 993.27C312.261 986.56 304.761 976.33 296.861 965.55C289.721 955.81 282.331 945.73 273.531 938.51C273.351 938.36 273.121 938.28 272.901 938.28C272.801 938.28 272.691 938.3 272.591 938.33C272.271 938.44 272.021 938.7 271.931 939.03C271.021 942.53 269.771 946.14 268.561 949.63C265.271 959.14 261.881 968.94 264.131 978.89C258.711 973.87 256.441 965.66 254.241 957.7C251.701 948.51 249.071 939.01 241.481 934.87C241.331 934.79 241.171 934.75 241.001 934.75C240.841 934.75 240.691 934.79 240.551 934.86C240.261 935.01 240.051 935.29 240.011 935.62C238.841 944.41 239.181 953.89 239.501 963.05C239.831 972.48 240.171 982.2 238.821 990.9C237.081 988.01 235.531 984.71 234.031 981.49C231.011 975.05 227.891 968.39 223.071 964.52C222.891 964.38 222.671 964.3 222.441 964.3C222.331 964.3 222.211 964.32 222.101 964.36C221.771 964.48 221.531 964.76 221.461 965.1L220.141 971.47L219.871 972.79C219.111 971.22 218.421 969.58 217.751 967.97C215.671 963.01 213.511 957.87 209.181 954.35C209.001 954.2 208.781 954.13 208.551 954.13C208.511 954.13 208.471 954.13 208.441 954.13C208.171 954.16 207.931 954.3 207.761 954.51C203.911 959.5 204.741 965.58 205.561 971.46C205.661 972.19 205.761 972.91 205.851 973.62C201.301 963.4 192.741 946.37 186.311 946.37C182.491 946.37 180.391 951.44 179.781 962.23C174.091 948.5 172.011 943.8 169.381 943.8C166.751 943.8 165.501 948.29 162.331 960.31C161.881 962.01 161.401 963.84 160.871 965.8C159.001 961.73 159.171 955.82 159.341 950.08C159.481 945.28 159.621 940.33 158.591 936.32C154.971 921.64 150.611 907.52 146.831 895.65C146.811 895.59 146.791 895.53 146.761 895.48C145.611 893.37 146.281 891.96 147.131 890.18C147.701 888.98 148.351 887.63 148.401 885.98C148.401 885.74 148.331 885.51 148.181 885.32C147.511 884.49 146.761 884.07 145.951 884.07C143.101 884.07 141.181 888.98 137.751 898.39C134.661 906.87 130.891 917.22 125.991 921.14C126.511 917.79 127.121 914.23 127.751 910.5C130.691 893.25 133.471 876.96 129.691 872.48C128.981 871.64 128.031 871.19 126.961 871.19C124.421 871.19 119.611 873.31 107.011 890.74C107.801 887.41 108.791 884.05 109.831 880.54C113.191 869.15 116.661 857.37 113.101 845.65C112.981 845.27 112.651 844.99 112.251 844.95C112.211 844.95 112.181 844.95 112.141 844.95C111.781 844.95 111.441 845.14 111.271 845.46C101.091 863.71 65.5114 906.41 54.4414 914.34C63.4214 892.65 74.1612 871.04 84.5512 850.13C106.381 806.21 128.951 760.78 136.921 711.53C138.541 703.08 137.741 694.45 136.971 686.1C136.471 680.65 135.951 675.01 136.121 669.52C136.121 669.5 136.121 669.48 136.121 669.46C135.671 652.03 137.511 634.37 139.281 617.28C140.641 604.19 142.051 590.67 142.411 577.36C142.411 577.33 142.411 577.29 142.411 577.26C142.411 576.71 141.971 576.27 141.431 576.26C141.431 576.26 141.421 576.26 141.411 576.26C141.341 576.26 141.281 576.26 141.221 576.28C141.061 576.31 140.911 576.38 140.791 576.49C140.691 576.57 140.611 576.67 140.551 576.78C140.511 576.86 140.471 576.95 140.451 577.04C132.271 610 131.831 647.41 131.401 683.59C131.281 694.03 131.151 704.82 130.831 715.12C125.001 763.13 101.151 806.88 78.0713 849.19C70.7313 862.65 63.1413 876.57 56.3413 890.29L56.1613 890.63C54.8413 893.09 53.1914 896.15 54.0014 898.34C55.3314 904.01 52.4513 908.58 49.3913 913.42C46.8513 917.44 44.2314 921.6 44.0014 926.58C43.9814 926.95 44.1714 927.3 44.4914 927.49C44.6514 927.58 44.8214 927.63 45.0014 927.63C45.1814 927.63 45.3715 927.58 45.5315 927.48C65.5615 915 80.5214 895.36 94.9814 876.37C99.5114 870.43 104.171 864.3 108.921 858.51C109.951 867.34 106.331 876.13 102.811 884.65C99.3313 893.07 96.0514 901.02 97.6614 908.28C97.7314 908.62 97.9812 908.89 98.3012 909C98.4112 909.04 98.5213 909.06 98.6413 909.06C98.8613 909.06 99.0814 908.99 99.2614 908.85C101.991 906.7 105.851 901.57 109.951 896.13C115.091 889.3 122.131 879.95 125.171 879.95C125.441 879.95 125.631 880.04 125.821 880.24C126.381 880.85 127.251 882.91 126.671 889.82C126.381 895.46 124.801 901.3 123.271 906.95C120.911 915.67 118.481 924.68 120.551 933.36C120.631 933.68 120.861 933.95 121.171 934.06C121.281 934.1 121.401 934.12 121.521 934.12C121.731 934.12 121.931 934.06 122.101 933.93C132.261 926.69 138.021 912.96 142.561 901.24C148.051 915.1 153.531 931.41 154.591 948.93C154.591 948.97 154.591 949 154.601 949.04C155.321 953.3 155.221 958.03 155.131 962.61C154.981 970.27 154.821 978.19 158.341 984.65C158.501 984.94 158.781 985.13 159.101 985.16C159.141 985.16 159.181 985.16 159.221 985.16C159.501 985.16 159.771 985.04 159.961 984.83C164.051 980.27 165.301 974.05 166.511 968.04C167.411 963.57 168.331 958.97 170.411 955.02C181.471 977.5 181.581 977.51 186.141 977.91C186.171 977.91 186.201 977.91 186.231 977.91C186.501 977.91 186.751 977.8 186.941 977.61C187.151 977.4 187.251 977.1 187.221 976.8L185.661 961.89C185.841 961.9 186.021 961.91 186.191 961.91C189.521 961.91 190.311 959.38 190.941 957.34C191.031 957.05 191.121 956.75 191.221 956.46C196.141 962.96 198.571 970.77 200.921 978.33C203.141 985.47 205.441 992.86 209.821 999.2C210.011 999.47 210.311 999.63 210.641 999.63C210.641 999.63 210.641 999.63 210.651 999.63C210.981 999.63 211.291 999.46 211.471 999.18C214.721 994.19 213.591 986.34 212.501 978.75C211.991 975.25 211.481 971.65 211.411 968.43C213.581 971.88 215.761 976.54 217.591 980.44C220.931 987.57 222.161 990.03 223.751 990.03C224.151 990.03 224.521 989.86 224.801 989.55C225.481 988.79 226.041 987.09 225.051 976.44L240.141 999.74C240.321 1000.02 240.641 1000.2 240.981 1000.2H244.981C245.531 1000.2 245.981 999.75 245.981 999.2V949.6C246.891 952.05 247.811 954.79 248.751 957.62C253.271 971.18 258.381 986.54 268.851 989.49C268.941 989.52 269.031 989.53 269.121 989.53C269.561 989.53 269.961 989.24 270.081 988.8C270.251 988.19 270.541 987.51 270.841 986.8C271.571 985.06 272.331 983.25 271.641 981.84C266.741 971.76 269.851 963.55 273.451 954.05C274.331 951.73 275.231 949.35 276.041 946.88C281.211 951.87 286.561 959.56 292.201 967.67C303.341 983.69 314.861 1000.26 327.731 1000.26C328.181 1000.26 328.631 1000.24 329.071 1000.2C329.391 1000.17 329.681 999.99 329.841 999.71C330.001 999.43 330.021 999.09 329.891 998.79C317.431 971.38 305.761 944.32 299.861 914.89C306.981 922.78 313.331 931.13 319.171 939.05C320.781 942.43 323.231 943.94 325.391 945.27C327.641 946.65 329.581 947.84 330.611 950.87C330.751 951.28 331.141 951.55 331.561 951.55C331.641 951.55 331.731 951.54 331.811 951.52C334.921 950.72 334.091 946.89 333.641 944.83C333.561 944.48 333.491 944.16 333.451 943.88H333.461Z" fill="black"/>
<path d="M812.31 849.56C812.3 849.08 811.95 848.68 811.49 848.6C811.43 848.59 811.37 848.58 811.31 848.58C810.91 848.58 810.53 848.83 810.38 849.21C805.09 862.63 807.25 879.68 809.35 896.17C810.67 906.57 811.92 916.4 811.44 925.36C811.41 925.89 811.8 926.35 812.32 926.41L814.08 926.61C814.08 926.61 814.16 926.61 814.19 926.61C814.42 926.61 814.65 926.53 814.83 926.38C815.04 926.21 815.17 925.96 815.19 925.69C816.42 909.97 815.24 894.69 814 878.5C813.28 869.07 812.53 859.31 812.31 849.55V849.56Z" fill="black"/>
<path d="M245.991 353.271C245.991 353.271 246.011 353.271 246.021 353.271C246.411 353.271 246.771 353.041 246.931 352.681C249.321 347.371 251.541 341.961 253.691 336.731C260.831 319.341 267.571 302.921 280.291 289.221C280.571 288.911 280.641 288.461 280.451 288.091C280.281 287.751 279.931 287.541 279.561 287.541C279.521 287.541 279.491 287.541 279.451 287.541C268.391 288.721 262.861 302.761 257.981 315.151C255.651 321.061 253.451 326.651 250.881 330.381C250.821 330.461 250.781 330.561 250.751 330.661C250.111 332.741 249.091 334.821 247.991 337.031C245.521 342.021 242.971 347.171 245.071 352.641C245.211 353.021 245.571 353.271 245.981 353.281L245.991 353.271Z" fill="black"/>
<path d="M789.229 383.321C793.539 399.231 797.999 415.671 801.309 432.081C801.409 432.551 801.819 432.881 802.289 432.881C802.339 432.881 802.399 432.881 802.449 432.871L803.369 432.721L804.279 432.571C804.779 432.491 805.139 432.041 805.119 431.541C804.219 412.331 799.289 394.291 792.159 373.121C792.069 372.851 791.869 372.631 791.599 372.521C791.469 372.471 791.339 372.441 791.209 372.441C791.059 372.441 790.919 372.471 790.779 372.541C786.889 374.371 786.899 375.001 788.139 379.381C788.239 379.731 788.349 380.121 788.469 380.541L789.229 383.331V383.321Z" fill="black"/>
<path d="M493.399 133.54C489.889 131.34 484.529 130.17 477.909 130.17C463.109 130.17 442.989 136.25 437.799 144.98C437.609 145.3 437.609 145.69 437.799 146.01C437.979 146.31 438.309 146.49 438.659 146.49C438.679 146.49 438.699 146.49 438.709 146.49C438.799 146.49 438.899 146.49 438.999 146.49C439.269 146.49 439.559 146.51 439.839 146.52C440.159 146.54 440.479 146.55 440.789 146.55C441.389 146.55 442.169 146.5 442.859 146.09C458.369 136.39 474.329 135.93 492.809 135.39H492.909C493.349 135.37 493.729 135.08 493.849 134.65C493.969 134.23 493.789 133.77 493.419 133.54H493.399Z" fill="black"/>
<path d="M751.06 881.06L750.34 880.7C750.2 880.63 750.04 880.59 749.88 880.59C749.76 880.59 749.65 880.61 749.54 880.65C749.28 880.74 749.07 880.94 748.96 881.2C740.1 902.2 736.18 924.82 738.2 943.26C738.24 943.61 738.46 943.92 738.78 944.06C738.91 944.12 739.05 944.15 739.19 944.15C739.39 944.15 739.59 944.09 739.76 943.97C743.76 941.17 743.4 936.75 743.08 932.85C742.92 930.83 742.75 928.75 743.15 926.95C743.15 926.91 743.17 926.87 743.17 926.82C744.7 910.44 747.44 895.85 751.55 882.24C751.69 881.78 751.48 881.28 751.05 881.06H751.06Z" fill="black"/>
<path d="M535.209 162.76C535.629 162.77 536.059 162.8 536.479 162.82C537.049 162.85 537.639 162.89 538.219 162.89C539.459 162.89 541.069 162.75 542.579 161.68C550.549 158.02 559.359 156.24 569.509 156.24C575.509 156.24 581.999 156.87 589.349 158.15C589.409 158.16 589.469 158.17 589.519 158.17C589.969 158.17 590.369 157.87 590.489 157.42L590.599 156.98L590.939 155.65C591.009 155.39 590.959 155.1 590.819 154.87C590.669 154.64 590.439 154.48 590.169 154.42C583.689 153.09 573.979 151.32 564.469 151.32C551.419 151.32 541.639 154.5 534.549 161.03C534.249 161.31 534.149 161.74 534.289 162.12C534.429 162.5 534.789 162.76 535.199 162.77L535.209 162.76Z" fill="black"/>
<path d="M177.408 619.15C177.478 619.16 177.538 619.17 177.608 619.17C177.878 619.17 178.148 619.06 178.338 618.86C178.638 618.54 178.998 618.23 179.388 617.9C180.368 617.05 181.388 616.18 181.678 614.95C181.688 614.89 181.698 614.83 181.708 614.77C182.258 604.86 184.558 595.5 186.988 585.6C188.218 580.61 189.478 575.44 190.508 570.19C190.608 569.69 190.308 569.19 189.818 569.04C189.718 569.01 189.628 569 189.528 569C189.138 569 188.768 569.23 188.608 569.61C181.748 585.97 173.058 608.84 176.678 618.52C176.798 618.84 177.078 619.08 177.418 619.15H177.408Z" fill="black"/>
<path d="M464.581 189.281C464.071 191.091 464.791 192.951 466.721 194.811C466.911 194.991 467.161 195.091 467.411 195.091C467.471 195.091 467.531 195.091 467.591 195.071C467.911 195.011 468.181 194.811 468.311 194.521C472.141 186.561 481.721 182.521 496.781 182.521C498.831 182.521 500.951 182.591 503.251 182.741C503.271 182.741 503.291 182.741 503.311 182.741C503.811 182.741 504.241 182.371 504.301 181.871C504.511 180.231 504.111 178.731 503.161 177.651C502.291 176.661 500.991 176.111 499.521 176.111C498.981 176.111 498.411 176.181 497.831 176.321C497.771 176.331 497.721 176.351 497.671 176.371C496.301 176.961 493.131 177.671 489.461 178.491C479.061 180.821 466.121 183.721 464.571 189.261L464.581 189.281Z" fill="black"/>
<path d="M611.039 725.08C593.499 721.01 579.989 715.46 568.499 707.63C562.189 703.58 555.399 701.7 547.099 701.7C541.219 701.7 535.239 702.65 529.449 703.57C523.709 704.48 517.779 705.42 512.009 705.42C505.559 705.42 499.969 704.21 494.919 701.74C494.889 701.72 494.859 701.71 494.829 701.7C491.599 700.5 488.479 699.92 485.289 699.92C476.339 699.92 468.899 704.5 461.029 709.34C458.289 711.02 455.459 712.77 452.589 714.28C440.139 719.74 427.049 721.56 413.179 723.49C410.799 723.82 408.409 724.15 406.009 724.51C405.539 724.58 405.189 724.96 405.159 725.43C404.589 734.22 411.319 738.35 417.819 742.34C420.829 744.19 423.949 746.1 426.249 748.44C440.209 761.4 454.499 771.76 468.749 779.25C485.989 788.31 502.759 792.9 518.609 792.9C528.699 792.9 538.519 791.02 547.809 787.3C552.849 786.16 569.999 776.96 586.769 765.45C613.099 747.38 618.719 737.59 618.799 732.55C618.859 728.86 616.249 726.34 611.039 725.05V725.08ZM419.899 729.51C422.769 728.78 425.659 728.1 428.469 727.43C442.289 724.17 455.339 721.09 466.909 712.25C472.559 708.22 478.619 706.17 484.879 706.17C488.659 706.17 492.519 706.92 496.369 708.41C501.909 710.55 507.579 711.63 513.209 711.63C518.319 711.63 523.569 710.74 528.789 708.97C533.389 707.25 537.839 706.42 542.399 706.42C554.469 706.42 564.959 712.25 576.059 718.42C583.669 722.65 591.499 726.99 599.979 729.38C598.899 729.42 597.819 729.44 596.729 729.44C581.809 729.44 567.619 725.49 554.369 721.43C554.289 721.41 554.209 721.39 554.119 721.39C552.879 721.34 551.589 721.31 550.289 721.31C542.609 721.31 534.889 722.27 527.429 723.19C520.049 724.1 512.419 725.05 504.919 725.05C499.509 725.05 494.639 724.57 490.029 723.57C489.959 723.56 489.889 723.55 489.819 723.55C489.789 723.55 489.769 723.55 489.739 723.55C481.599 724.18 473.509 725.85 465.689 727.46C455.969 729.46 445.929 731.53 435.959 731.53C430.259 731.53 424.969 730.87 419.889 729.51H419.899ZM597.839 735.41C597.039 735.85 596.179 736.35 595.289 736.87C592.559 738.48 589.459 740.3 587.569 740.3C586.929 740.3 586.659 740.07 586.519 739.9C586.199 739.51 585.749 738.44 586.169 735.54C586.609 735.57 587.079 735.59 587.589 735.59C588.839 735.59 590.189 735.49 591.499 735.39C592.779 735.29 594.109 735.19 595.309 735.19C596.309 735.19 597.139 735.26 597.829 735.4L597.839 735.41ZM565.209 733.86C565.029 733.55 564.699 733.37 564.349 733.37C564.329 733.37 564.319 733.37 564.299 733.37C563.929 733.39 563.599 733.61 563.439 733.95C559.789 741.89 559.739 746.29 559.709 748.92C559.689 750.88 559.629 751.19 558.789 751.61C557.479 752.27 554.479 752.8 549.019 753.76C545.759 754.34 541.699 755.05 536.439 756.06C531.639 756.47 524.139 756.96 515.539 756.96C500.889 756.96 488.489 755.59 478.689 752.89C466.039 749.41 458.109 743.77 455.119 736.14C454.969 735.76 454.599 735.5 454.189 735.5C454.169 735.5 454.159 735.5 454.139 735.5C453.709 735.52 453.339 735.82 453.229 736.23L451.579 742.18L451.549 742.28L437.649 737.71C443.109 737 448.629 736.13 454.389 735.21C462.419 733.94 470.599 732.65 478.819 731.81C475.699 734.89 476.629 740.71 479.089 748.31C479.209 748.69 479.539 748.95 479.929 749C479.969 749 479.999 749 480.039 749C480.389 749 480.719 748.81 480.899 748.5C483.269 744.45 483.129 740.55 482.989 736.78C482.929 735.02 482.869 733.21 483.079 731.42C487.219 731.08 491.369 730.87 495.499 730.87C497.459 730.87 499.389 730.92 501.259 731.01C501.279 731.01 501.289 731.01 501.309 731.01C501.339 731.01 501.369 731.01 501.399 731.01C506.449 730.57 511.259 730.06 515.899 729.56C525.419 728.54 534.419 727.57 543.309 727.57C556.619 727.57 567.989 729.72 580.119 734.54C581.539 743.03 578.239 745.51 568.529 748.1C567.919 748.25 567.369 748.33 566.909 748.33C565.929 748.33 565.619 747.97 565.519 747.86C564.669 746.87 565.079 744.1 565.449 741.66C565.889 738.77 566.339 735.78 565.209 733.86ZM517.109 786.88C488.719 786.88 460.539 772.64 431.049 743.36C475.079 758.93 497.289 762.17 516.799 762.17C542.839 762.17 569.169 755.48 607.689 739.09C607.949 738.98 608.159 738.76 608.249 738.49C608.339 738.22 608.309 737.92 608.169 737.67L606.739 735.21C607.359 735.08 608.009 734.9 608.679 734.71C609.779 734.4 610.909 734.08 611.809 734.08C612.169 734.08 612.439 734.13 612.649 734.22C579.479 769.65 548.229 786.87 517.119 786.87L517.109 786.88Z" fill="black"/>
<path d="M317.791 449.211C317.791 449.211 317.851 449.181 317.881 449.171C330.331 442.871 343.981 439.811 359.591 439.811C378.771 439.811 398.491 444.431 417.561 448.901C425.151 450.681 433.001 452.521 440.631 454.011C442.171 454.351 443.801 454.521 445.461 454.521C450.811 454.521 457.011 452.571 458.771 448.211C459.671 445.981 459.711 442.311 454.731 437.491C454.711 437.471 454.691 437.451 454.671 437.431C440.911 426.261 423.731 422.661 407.121 419.181C402.841 418.281 398.421 417.361 394.151 416.321C388.221 414.861 382.041 414.121 375.791 414.121C349.911 414.121 322.961 426.781 303.711 448.001C303.351 448.401 303.371 449.011 303.751 449.391C305.701 451.301 307.641 452.221 309.681 452.221C311.721 452.221 313.591 451.271 315.351 450.361C316.191 449.931 316.981 449.521 317.791 449.211Z" fill="black"/>
<path d="M692.48 430.972C689.89 429.532 687.65 428.292 686.61 427.522C686.56 427.482 686.51 427.452 686.46 427.432C674.67 421.662 661.92 418.852 647.48 418.852C627.13 418.852 606.39 424.512 585.16 430.822C565.4 436.132 559.07 442.832 555.76 448.082C555.73 448.132 555.7 448.192 555.68 448.242C554.25 451.852 554.98 454.122 555.85 455.402C557.13 457.292 559.55 458.332 562.65 458.332C563.7 458.332 564.78 458.212 565.87 457.972C573.32 456.712 581.14 455.182 589.43 453.552C612.69 448.992 639.05 443.832 663.41 443.832C682.05 443.832 697.28 446.792 709.96 452.892C710.1 452.962 710.25 452.992 710.39 452.992C710.58 452.992 710.77 452.942 710.94 452.832C712.76 451.642 713.66 450.172 713.6 448.452C713.4 443.022 703.5 437.082 692.49 430.962L692.48 430.972Z" fill="black"/>
<path d="M425.841 525.221C432.201 524.851 438.771 524.471 445.101 524.221C445.181 524.221 445.261 524.201 445.341 524.181C449.211 523.071 449.531 520.571 449.381 519.181C448.711 513.241 437.441 504.571 432.621 501.111C426.481 496.711 418.941 492.191 414.331 490.581C415.161 489.741 415.491 488.861 415.281 487.951C414.161 483.001 395.441 481.211 394.311 481.111C389.301 480.461 384.231 480.131 379.231 480.131C365.221 480.131 344.911 482.701 327.771 494.961C327.491 495.161 327.341 495.481 327.351 495.821C327.371 496.161 327.551 496.471 327.841 496.641C328.851 497.231 330.031 497.531 331.341 497.531C334.661 497.531 338.531 495.641 342.271 493.801C345.251 492.341 348.341 490.831 350.851 490.461C350.901 490.461 350.951 490.441 351.001 490.431C361.081 487.321 371.121 485.751 380.821 485.751C386.421 485.751 391.811 486.281 396.931 487.331C394.591 487.141 392.211 487.031 389.771 487.031C369.791 487.031 350.011 493.561 330.881 499.881C324.891 501.861 319.241 503.721 313.591 505.391C313.221 505.501 312.951 505.811 312.891 506.191C312.831 506.571 312.991 506.951 313.311 507.171C338.181 524.391 367.431 526.601 390.141 526.601C402.041 526.601 414.141 525.901 425.841 525.221ZM426.071 503.171C431.041 506.991 441.311 515.121 440.521 517.601C440.011 519.201 433.631 519.461 427.451 519.721C423.761 519.871 419.671 520.041 415.261 520.441C421.171 515.501 424.621 510.911 426.061 503.171H426.071ZM380.551 520.751C364.401 520.751 349.581 515.201 333.891 509.321L333.671 509.241C343.821 500.221 355.891 497.731 368.641 495.101C372.261 494.351 375.981 493.591 379.661 492.651C376.721 497.861 375.851 504.031 377.331 509.611C378.551 514.211 381.261 518.021 385.091 520.591C383.581 520.691 382.061 520.741 380.551 520.741V520.751Z" fill="black"/>
<path d="M699.682 504.34C699.602 503.85 699.182 503.5 698.692 503.5C698.662 503.5 698.642 503.5 698.612 503.5C697.532 503.58 696.422 503.63 695.322 503.63C685.342 503.63 675.682 500.13 666.352 496.75C656.722 493.26 646.762 489.65 636.142 489.65C634.702 489.65 633.262 489.72 631.862 489.85C630.992 489.82 630.102 489.81 629.232 489.81C617.132 489.81 605.152 492.21 595.522 496.56C584.052 501.74 575.832 509.68 571.752 519.53C571.662 519.75 571.652 520 571.722 520.22C572.402 522.32 576.012 523.84 578.242 524.08C592.392 525.02 606.732 526.72 620.592 528.36L622.242 528.56C622.242 528.56 622.322 528.56 622.362 528.56H622.372C637.692 528.41 653.102 525.11 668.182 518.77C672.162 516.87 676.642 515.86 680.972 514.89C687.542 513.41 694.342 511.89 699.652 507.29C699.912 507.06 700.042 506.72 699.982 506.38L699.662 504.33L699.682 504.34ZM578.702 517.82C584.192 511.55 590.692 507.23 598.142 502.33C597.322 509.64 598.692 515.11 602.502 519.57L578.702 517.82ZM636.012 521.63C640.742 516.29 646.532 504.11 645.242 496.8C656.482 498.14 666.622 502.01 676.162 508.58C664.672 514.61 651.112 520.61 636.012 521.64V521.63Z" fill="black"/>
<path d="M430.69 535.461C430.6 535.001 430.21 534.661 429.74 534.641C425.75 534.531 421.65 534.441 417.68 534.351C389.04 533.731 359.42 533.091 332.29 522.681C332.17 522.641 332.05 522.611 331.93 522.611C331.62 522.611 331.31 522.761 331.12 523.021L331.01 523.181L329.66 525.051C329.5 525.271 329.44 525.551 329.49 525.821C329.54 526.091 329.7 526.331 329.92 526.481C341.91 534.361 378.59 539.851 404.01 539.851C412.32 539.851 423.59 539.281 430.11 536.571C430.55 536.391 430.8 535.931 430.71 535.471L430.69 535.461Z" fill="black"/>
<path d="M590.588 493.521C605.118 487.521 619.618 484.481 633.678 484.481C650.988 484.481 668.218 489.091 684.908 498.171C685.058 498.251 685.218 498.291 685.388 498.291C685.668 498.291 685.938 498.181 686.128 497.961C686.438 497.621 686.468 497.111 686.208 496.731C677.868 484.511 651.388 478.941 630.318 478.941C609.418 478.941 594.098 483.861 589.328 492.091C589.118 492.461 589.158 492.931 589.438 493.251C589.628 493.471 589.908 493.591 590.188 493.591C590.318 493.591 590.448 493.571 590.568 493.511L590.588 493.521Z" fill="black"/>
<path d="M452.172 601.892C452.222 602.312 452.532 602.642 452.942 602.742C453.012 602.762 453.092 602.772 453.162 602.772C453.492 602.772 453.812 602.602 454.002 602.322C463.002 588.502 469.612 571.902 473.122 554.322C476.682 536.482 476.872 518.452 473.672 502.162C473.582 501.692 473.172 501.352 472.692 501.352C472.682 501.352 472.662 501.352 472.652 501.352C472.162 501.372 471.752 501.742 471.692 502.232C470.762 510.032 470.652 517.842 470.542 525.392C470.302 542.262 470.072 558.202 461.392 573.872C461.362 573.932 461.332 574.002 461.312 574.072C460.392 577.142 458.892 580.202 457.302 583.442C454.372 589.422 451.352 595.592 452.172 601.912V601.892Z" fill="black"/>
<path d="M666.621 533.561C666.491 533.561 666.351 533.591 666.221 533.641C653.891 538.961 641.301 541.551 627.721 541.551C612.661 541.551 597.711 538.491 582.461 535.071C582.391 535.051 582.312 535.051 582.242 535.051C582.032 535.051 581.831 535.111 581.661 535.241C581.431 535.401 581.282 535.661 581.252 535.941C581.102 537.261 581.411 538.411 582.181 539.361C584.231 541.901 589.031 542.381 593.671 542.851C596.271 543.111 598.721 543.361 600.201 543.951C600.231 543.961 600.261 543.971 600.301 543.981C608.881 546.421 617.561 547.661 626.091 547.661C639.791 547.661 653.331 544.501 666.341 538.261C666.361 538.261 666.381 538.241 666.401 538.231C667.261 537.741 667.892 536.881 668.022 535.981C668.142 535.211 667.901 534.461 667.351 533.871C667.161 533.661 666.891 533.551 666.621 533.551V533.561Z" fill="black"/>
<path d="M485.802 603.69C485.912 603.73 486.022 603.75 486.132 603.75C486.452 603.75 486.762 603.59 486.952 603.32C493.302 594.09 497.412 581.74 499.172 566.62C500.602 554.29 500.412 540.15 498.622 525.72C498.572 525.33 498.302 525.01 497.932 524.89C497.832 524.86 497.732 524.84 497.622 524.84C497.352 524.84 497.082 524.95 496.882 525.16C492.932 529.45 493.402 539.92 493.902 551.01C494.242 558.56 494.592 566.37 493.282 571.08C493.262 571.14 493.252 571.2 493.252 571.25C492.782 576.34 491.002 581.4 489.282 586.29C487.432 591.55 485.522 596.99 485.112 602.67C485.082 603.12 485.352 603.54 485.782 603.69H485.802Z" fill="black"/>
<path d="M598.849 639.211C598.479 639.211 598.139 639.301 597.829 639.481C597.589 639.621 597.419 639.861 597.359 640.141C597.299 640.421 597.359 640.701 597.529 640.931C602.939 648.361 607.699 656.111 612.309 663.591C618.739 674.041 624.809 683.911 632.479 693.021C632.669 693.251 632.949 693.381 633.239 693.381C633.319 693.381 633.399 693.381 633.479 693.351C633.849 693.261 634.139 692.961 634.219 692.591C635.039 688.771 616.509 657.991 606.859 646.031C601.979 639.991 600.009 639.211 598.839 639.211H598.849Z" fill="black"/>
<path d="M569.4 656.892C569 657.032 568.73 657.412 568.73 657.842C568.73 658.272 569.01 658.642 569.41 658.782C570.59 659.172 571.75 659.372 572.86 659.372C578.05 659.372 582.24 655.232 584.64 647.712C586.41 642.152 586.96 635.442 586.12 629.302C585.21 622.592 582.781 617.532 579.281 615.042C579.111 614.922 578.9 614.852 578.7 614.852C578.43 614.852 578.16 614.962 577.96 615.172C574.47 618.972 576.4 622.002 577.82 624.212C578.13 624.692 578.42 625.152 578.65 625.592C581.82 632.802 582.1 641.192 579.37 647.482C577.41 652.022 573.95 655.272 569.38 656.882L569.4 656.892Z" fill="black"/>
<path d="M443.249 620.811C443.299 620.501 443.209 620.191 442.999 619.961C442.809 619.751 442.539 619.641 442.269 619.641C442.239 619.641 442.209 619.641 442.169 619.641C435.219 620.311 429.559 639.291 430.089 650.361C430.419 657.361 432.979 661.211 437.269 661.211H437.429C437.769 661.211 438.089 661.021 438.259 660.721C438.439 660.431 438.449 660.061 438.299 659.761C433.229 649.721 436.289 641.571 439.529 632.951C440.989 629.061 442.499 625.051 443.239 620.811H443.249Z" fill="black"/>
<path d="M470.05 655.641V655.141C462.47 655.141 454.22 659.141 453.54 665.831C453.51 666.141 453.63 666.451 453.86 666.671C454.55 667.301 455.34 667.621 456.22 667.621C457.92 667.621 459.61 666.441 461.58 665.081C463.91 663.461 466.55 661.631 469.51 661.631C472.71 661.631 475.87 663.771 479.17 668.171C479.36 668.421 479.66 668.571 479.97 668.571C480.02 668.571 480.07 668.571 480.11 668.561C480.47 668.511 480.78 668.261 480.9 667.921C482.47 663.681 481.5 660.921 480.42 659.361C478.56 656.681 474.78 655.151 470.06 655.151V655.651L470.05 655.641Z" fill="black"/>
<path d="M528.419 669.01C528.499 669.01 528.579 669.01 528.659 668.98C529.059 668.88 529.519 668.82 530.009 668.76C531.249 668.6 532.529 668.44 533.369 667.57C533.399 667.54 533.419 667.51 533.449 667.48C536.179 663.87 539.509 662.19 543.909 662.19C545.959 662.19 547.939 662.53 549.849 662.86C551.469 663.14 553.009 663.4 554.359 663.4C557.049 663.4 558.729 662.28 559.499 659.98C559.659 659.49 559.429 658.95 558.949 658.75C553.899 656.53 549.149 655.41 544.849 655.41C536.339 655.41 530.159 659.77 527.469 667.7C527.349 668.05 527.429 668.43 527.679 668.7C527.869 668.91 528.139 669.02 528.419 669.02V669.01Z" fill="black"/>
<path d="M554.328 527.83C554.408 527.85 554.488 527.86 554.558 527.86C554.898 527.86 555.228 527.68 555.408 527.39C555.638 527.02 555.598 526.55 555.318 526.22C546.358 515.59 548.378 506.36 550.938 494.67C551.258 493.19 551.598 491.66 551.918 490.1C551.988 489.76 551.878 489.42 551.628 489.18C551.438 489 551.188 488.9 550.938 488.9C550.858 488.9 550.778 488.9 550.698 488.93C545.998 490.09 543.209 495.77 543.239 504.13C543.279 514.26 547.528 526.21 554.328 527.84V527.83Z" fill="black"/>
<path d="M493.75 673.551C493.75 673.831 493.88 674.101 494.09 674.291C496.81 676.651 499.87 677.751 503.71 677.751C505.75 677.751 507.791 677.451 509.771 677.161C511.751 676.871 513.63 676.601 515.49 676.601C515.99 676.601 516.48 676.621 516.94 676.661C516.97 676.661 517.001 676.661 517.031 676.661C517.381 676.661 517.7 676.481 517.88 676.181C518.08 675.851 518.07 675.441 517.87 675.121C515.92 672.071 507.61 670.961 502.49 670.961C499.54 670.961 495.68 671.281 494.05 672.811C493.84 673.001 493.73 673.281 493.73 673.561L493.75 673.551Z" fill="black"/>
<path d="M787.212 553.51C787.152 553.51 787.102 553.51 787.042 553.52C782.532 554.29 781.652 560.53 780.622 567.75C779.222 577.61 777.492 589.87 766.362 592.95C766.332 592.95 766.292 592.97 766.262 592.98C765.232 593.38 764.772 594.52 764.232 595.85C763.982 596.46 763.702 597.15 763.342 597.83C763.172 598.15 763.192 598.55 763.392 598.85C763.582 599.13 763.892 599.29 764.222 599.29C764.252 599.29 764.282 599.29 764.322 599.29C783.582 597.46 785.562 578.51 787.152 563.29C787.472 560.22 787.772 557.33 788.192 554.66C788.242 554.34 788.132 554.02 787.902 553.79C787.712 553.6 787.462 553.5 787.202 553.5L787.212 553.51Z" fill="black"/>
<path d="M786.059 609.99C786.059 609.99 786.02 609.99 786 609.99C785.89 609.99 785.78 610.02 785.68 610.06C782.6 611.26 780.71 613.21 778.88 615.09C776.17 617.88 773.609 620.52 767.079 620.52C765.909 620.52 764.63 620.43 763.27 620.27C763.23 620.27 763.19 620.27 763.15 620.27C762.92 620.27 762.7 620.35 762.52 620.49C760.44 622.18 760.36 623.55 760.67 624.41C761.2 625.91 763.24 626.76 766.27 626.76C772.89 626.76 783.86 622.64 787.01 611.31C787.05 611.21 787.069 611.09 787.069 610.98C787.069 610.43 786.629 609.98 786.069 609.98L786.059 609.99Z" fill="black"/>
<path d="M773.42 634.151C773.24 633.831 772.9 633.641 772.55 633.641C772.43 633.641 772.31 633.661 772.2 633.711C768.78 635.011 765.65 638.091 766.38 642.051C766.77 644.171 768.22 645.601 769.99 645.601C771.31 645.601 773.83 644.761 775.83 639.121C775.93 638.851 775.9 638.551 775.76 638.291L773.42 634.151Z" fill="black"/>
<path d="M266.502 639.19C265.872 636.3 265.222 633.3 262.752 631.6C262.582 631.48 262.381 631.42 262.181 631.42C262.111 631.42 262.052 631.42 261.982 631.44C260.212 631.8 259.171 633.01 259.141 634.77C259.071 638.56 263.671 644.23 266.611 644.94C266.691 644.96 266.771 644.97 266.841 644.97C267.131 644.97 267.421 644.84 267.611 644.61C267.851 644.32 267.912 643.91 267.752 643.56C267.162 642.25 266.822 640.69 266.492 639.19H266.502Z" fill="black"/>
<path d="M543.98 728.381C543.89 728.381 543.8 728.391 543.71 728.421C538.72 729.801 539.38 736.151 539.95 741.741C540.22 744.381 540.48 746.881 540.14 748.551C540.12 748.631 540.12 748.711 540.12 748.791C540.17 749.921 541.21 750.721 542.21 751.501C542.59 751.791 542.97 752.091 543.27 752.371C543.46 752.561 543.71 752.651 543.97 752.651C544.1 752.651 544.23 752.621 544.36 752.571C544.73 752.411 544.97 752.051 544.97 751.651V729.371C544.97 729.061 544.82 728.761 544.58 728.571C544.4 728.441 544.19 728.371 543.97 728.371L543.98 728.381Z" fill="black"/>
<path d="M511.831 732.861C511.701 732.801 511.561 732.771 511.421 732.771C511.181 732.771 510.951 732.851 510.761 733.021C506.841 736.451 507.291 748.472 510.601 753.172C510.791 753.442 511.101 753.591 511.421 753.591C511.521 753.591 511.621 753.572 511.721 753.542C512.141 753.412 512.421 753.021 512.421 752.591V733.771C512.421 733.381 512.191 733.021 511.831 732.861Z" fill="black"/>
</g>
<defs>
<clipPath id="clip0_1745_276409">
<rect width="1000" height="1000" fill="white"/>
</clipPath>
</defs>
</svg>
