<svg width="1000" height="1000" viewBox="0 0 1000 1000" fill="none" xmlns="http://www.w3.org/2000/svg">
<path d="M712.639 577.159C708.039 559.189 703.279 540.609 701.109 521.779C696.929 487.479 690.839 447.679 677.349 412.489C662.179 372.929 640.079 344.739 609.789 326.319C574.669 303.369 523.869 287.939 483.399 287.939C474.409 287.939 465.969 288.689 458.289 290.169C417.929 297.079 388.179 310.169 364.679 331.369C342.449 351.419 325.489 379.229 311.279 418.869C292.979 466.269 281.019 513.529 275.719 559.319C269.859 609.959 272.239 658.529 282.779 703.699C292.409 747.219 304.529 783.909 319.829 815.859C319.849 815.899 319.869 815.929 319.889 815.969C322.399 819.899 325.519 822.929 328.549 825.869C333.459 830.649 338.099 835.159 339.639 842.969C339.639 842.999 339.649 843.019 339.659 843.049C353.039 890.429 365.219 945.949 354.059 998.389C353.979 998.759 354.119 999.14 354.409 999.37C354.589 999.52 354.819 999.599 355.039 999.599C355.169 999.599 355.309 999.569 355.439 999.519C361.339 996.949 364.899 988.869 366.009 975.479C366.909 964.609 366.249 949.999 364.039 932.049C360.199 900.939 352.549 866.789 349.009 851.159C349.609 851.929 350.189 852.689 350.769 853.429C368.799 876.689 377.839 888.359 390.169 897.279C402.299 906.059 416.789 911.759 448.409 923.819C464.649 930.379 481.959 933.699 499.839 933.699C519.609 933.699 540.079 929.669 560.689 921.709C578.599 914.799 596.219 905.099 613.109 892.869C607.749 908.419 604.279 925.059 602.549 943.609C601.019 959.999 600.849 977.999 602.049 998.639C602.079 999.169 602.519 999.579 603.049 999.579H607.049C607.319 999.579 607.579 999.469 607.769 999.269C607.959 999.069 608.059 998.809 608.049 998.529C606.249 958.659 607.179 917.319 625.959 884.979C636.679 879.569 643.459 869.689 650.029 860.129C653.169 855.549 656.419 850.819 660.039 846.679C660.059 846.659 660.069 846.639 660.079 846.629C660.159 846.519 660.469 846.359 661.419 846.239C661.629 846.209 661.759 846.199 661.899 846.149C662.239 846.039 662.499 845.749 662.569 845.399C663.359 841.599 665.419 838.899 667.599 836.039C668.689 834.609 669.819 833.129 670.819 831.469C690.069 800.529 704.519 773.469 712.409 741.989C713.589 736.959 714.859 731.829 716.099 726.869C723.279 697.959 730.709 668.059 724.779 638.009C722.919 617.169 717.699 596.799 712.659 577.109L712.639 577.159ZM715.269 703.679C711.309 730.629 703.649 756.709 692.509 781.179C680.999 806.459 665.669 830.229 646.959 851.839C646.919 851.879 646.889 851.929 646.859 851.969C635.469 870.659 624.879 877.119 610.229 886.059C605.569 888.899 600.279 892.129 594.559 896.039C594.549 896.049 594.529 896.059 594.519 896.069C567.749 916.589 537.369 926.999 504.239 926.999C469.059 926.999 430.909 914.989 393.909 892.269C378.899 879.709 366.999 863.579 355.499 847.979C347.519 837.169 339.279 825.989 330.029 816.029C300.409 769.959 289.709 713.219 281.999 663.659C273.779 611.829 282.599 527.369 303.449 458.269C315.609 417.969 330.949 384.649 349.049 359.239C369.709 330.239 393.279 312.729 419.109 307.209C419.139 307.209 419.169 307.199 419.199 307.189C443.199 299.689 464.859 293.489 486.919 293.489C498.199 293.489 508.539 295.109 518.519 298.449C518.559 298.459 518.599 298.469 518.649 298.479C571.679 308.809 594.069 321.469 610.369 333.609C661.919 368.269 679.689 428.599 689.149 478.189C675.179 465.529 663.679 460.549 648.859 460.549C641.339 460.549 633.149 461.799 623.669 463.239C620.689 463.689 617.619 464.159 614.349 464.629C596.979 467.229 567.919 471.589 558.199 494.169C558.069 494.479 558.099 494.829 558.279 495.109C560.629 498.729 563.689 500.489 567.619 500.489C571.129 500.489 574.819 499.049 578.079 497.779C579.329 497.289 580.499 496.839 581.619 496.469C613.819 488.729 643.259 484.959 671.609 484.959C677.999 484.959 684.399 485.159 690.669 485.549L696.799 535.209C677.699 518.559 654.089 509.059 631.629 509.059C617.449 509.059 604.029 512.899 592.839 520.159C580.609 528.099 571.069 539.859 564.499 555.119C564.369 555.429 564.399 555.779 564.579 556.059C564.759 556.339 565.079 556.509 565.409 556.509C574.609 556.569 584.129 557.009 593.329 557.439C603.379 557.909 613.779 558.389 623.959 558.389C638.879 558.389 650.979 557.359 662.059 555.139C675.139 552.519 686.619 548.249 697.119 542.089C706.759 568.649 713.219 595.709 716.319 622.529C719.489 650.019 719.139 677.319 715.269 703.679ZM654.689 551.309H639.149C639.709 550.919 640.239 550.379 640.739 549.699C644.519 544.509 645.769 530.709 644.909 524.719C649.439 525.989 653.299 528.429 657.349 530.989C659.909 532.609 662.559 534.289 665.409 535.649C665.179 536.249 664.999 536.869 664.819 537.469C664.119 539.849 663.519 541.899 660.389 542.969C660.329 542.989 660.269 543.019 660.219 543.049C658.649 543.949 655.429 546.829 654.769 549.729C654.639 550.279 654.619 550.809 654.679 551.309H654.689ZM592.659 549.719L573.529 550.969C574.989 549.039 576.319 547.019 577.619 545.049C581.209 539.619 584.609 534.469 590.129 531.419L592.659 549.729V549.719Z" fill="black"/>
<path d="M854.948 715.07C855.998 680.22 857.088 644.18 856.978 608.88C856.268 546.21 844.348 481.58 820.538 411.28C801.618 355.44 775.548 296.84 738.498 226.89C738.468 226.83 738.428 226.77 738.378 226.72C690.548 169.37 619.818 130.79 549.188 123.5C543.698 123.17 538.018 123 532.268 123C499.518 123 466.338 128.35 434.248 133.52C425.648 134.91 416.758 136.34 408.058 137.64C367.848 144.06 331.778 165.71 297.798 203.81C268.528 236.63 245.538 276.27 225.048 314.22C225.018 314.27 225.008 314.33 224.988 314.39C207.348 344.78 199.038 379.75 190.998 413.58C189.728 418.93 188.418 424.46 187.088 429.85C174.198 482.06 164.828 533.71 158.458 587.75C144.798 646.48 137.358 707.18 130.158 765.89C120.718 842.9 110.958 922.53 87.0476 998.34C86.9576 998.61 86.9976 998.91 87.1476 999.16C87.2976 999.41 87.5475 999.58 87.8275 999.63C88.0975 999.68 88.3576 999.7 88.6276 999.7C95.4176 999.7 98.2076 984.88 101.408 963.93C102.818 954.73 104.138 946.04 105.918 942.17C105.938 942.12 105.958 942.07 105.978 942.01C121.178 885.98 127.718 827.63 134.038 771.2C136.858 746.02 139.778 719.99 143.418 694.51C144.938 686.32 146.468 677.94 147.948 669.84C152.968 642.28 158.168 613.79 164.388 586.1C167.928 571.59 169.318 556.6 170.668 542.1C172.218 525.4 173.818 508.13 178.738 491.66C183.178 474.22 187.018 456.4 190.738 439.16C199.678 397.75 208.918 354.94 226.838 315.26C237.428 307.19 243.658 294.3 249.668 281.81C253.258 274.37 256.958 266.67 261.518 260.25C309.948 189.11 347.708 164.94 371.918 152.96C393.698 145.49 417.118 142.1 439.768 138.83C444.528 138.14 449.458 137.43 454.268 136.69C478.978 132.61 505.378 128.84 531.138 128.84C552.718 128.84 571.938 131.42 589.888 136.73C639.288 154.35 676.598 174.51 703.928 198.36C705.218 199.64 706.798 200.74 708.318 201.8C712.338 204.6 716.128 207.24 715.378 213.16C715.338 213.48 715.458 213.8 715.688 214.02C740.028 236.49 755.358 267.45 765.998 291.9C786.728 340.03 806.618 387.2 822.138 435.21C839.828 489.94 849.528 539.07 851.798 585.4C853.518 632.63 851.548 681.04 849.628 727.85C845.968 817.38 842.188 909.95 864.048 998.88C864.158 999.33 864.558 999.64 865.018 999.64H868.018C868.318 999.64 868.608 999.5 868.798 999.27C868.988 999.04 869.058 998.73 868.998 998.43C849.218 905.32 852.128 808.61 854.948 715.09V715.07Z" fill="black"/>
<path d="M744.006 450.88C744.006 450.81 743.996 450.75 743.976 450.68C742.796 446.07 741.616 441.18 740.356 436.01C735.576 416.28 730.166 393.92 721.786 373.71C712.016 350.15 700.146 334.35 685.486 325.4C685.326 325.3 685.146 325.25 684.966 325.25C684.856 325.25 684.746 325.27 684.636 325.31C684.356 325.41 684.126 325.63 684.026 325.91C682.346 330.56 686.816 333.88 691.146 337.1C693.866 339.12 696.676 341.21 697.566 343.41C697.586 343.45 697.606 343.49 697.626 343.53L698.186 344.53C706.156 358.61 714.386 373.16 720.826 388.17C729.466 414.14 738.066 441.74 740.106 468.48C740.136 468.94 740.476 469.31 740.936 469.39C741.546 469.5 742.116 469.55 742.636 469.55C744.256 469.55 745.466 469.03 746.236 467.99C748.106 465.47 746.686 460.79 745.316 456.27C744.676 454.15 744.066 452.15 744.006 450.9V450.88Z" fill="black"/>
<path d="M227.098 473.369C226.988 459.099 232.148 445.609 237.128 432.559C238.488 429.009 239.888 425.339 241.158 421.719C253.878 382.089 268.048 350.769 285.758 323.129C285.918 322.879 285.958 322.579 285.868 322.289L285.648 321.579C285.548 321.249 285.278 320.989 284.938 320.909C284.858 320.889 284.778 320.879 284.698 320.879C284.438 320.879 284.188 320.979 283.998 321.169C273.528 331.469 256.288 363.539 242.068 399.149C236.158 413.959 217.298 463.759 222.898 482.819C222.988 483.139 223.228 483.389 223.548 483.489C223.648 483.519 223.758 483.539 223.858 483.539C224.078 483.539 224.288 483.469 224.468 483.339L224.598 483.239C229.198 479.729 229.798 479.279 228.358 476.359C227.998 475.629 227.558 474.729 227.108 473.379L227.098 473.369Z" fill="black"/>
<path d="M804.008 644.68C804.008 644.68 803.998 644.68 803.988 644.68C803.598 644.68 803.238 644.91 803.078 645.27C800.258 651.47 802.298 658.26 804.268 664.83C805.628 669.37 807.038 674.07 806.768 678.44C806.768 678.49 806.768 678.54 806.768 678.58C808.408 698.54 806.728 718.86 805.108 738.5C803.628 756.47 802.088 775.06 803.088 793.34C803.098 793.61 803.228 793.87 803.438 794.05C803.618 794.21 803.848 794.29 804.088 794.29C804.118 794.29 804.158 794.29 804.188 794.29C808.898 793.8 809.518 781.02 809.978 760.02C810.188 750.3 810.388 741.12 811.498 737.49C811.518 737.43 811.528 737.37 811.538 737.3C814.668 707.34 816.328 672.99 804.918 645.31C804.768 644.94 804.408 644.7 804.008 644.69V644.68Z" fill="black"/>
<path d="M165.009 819.849C164.859 819.759 164.689 819.719 164.509 819.719C164.389 819.719 164.279 819.739 164.159 819.779C161.019 820.939 159.979 824.109 159.149 826.649C158.849 827.569 158.569 828.429 158.219 829.139C158.029 829.539 158.119 830.009 158.439 830.309C162.279 833.869 162.279 840.649 162.279 847.219C162.279 850.639 162.279 853.869 162.789 856.709C164.109 875.189 161.509 893.649 158.979 911.509C157.289 923.459 155.549 935.829 154.989 948.089C154.969 948.539 155.249 948.939 155.669 949.079C155.769 949.109 155.879 949.129 155.979 949.129C156.309 949.129 156.619 948.969 156.809 948.689C160.849 942.709 161.609 934.319 162.339 926.209C162.729 921.899 163.089 917.839 163.919 914.139C163.929 914.089 163.939 914.039 163.939 913.989C164.379 907.479 164.959 900.749 165.529 894.239C167.659 869.699 169.859 844.319 165.489 820.529C165.439 820.239 165.259 819.989 164.999 819.839L165.009 819.849Z" fill="black"/>
<path d="M251.048 515.199L249.028 514.739C248.958 514.719 248.878 514.709 248.808 514.709C248.388 514.709 248.008 514.969 247.868 515.379C245.398 522.329 224.158 583.789 237.338 601.969C237.528 602.229 237.828 602.379 238.148 602.379C238.238 602.379 238.338 602.369 238.438 602.339C238.848 602.219 239.128 601.849 239.148 601.429C239.268 599.049 239.378 596.669 239.488 594.289C239.858 586.349 240.238 578.319 240.858 570.289C240.858 570.289 240.858 570.309 240.878 570.319L241.018 568.449C242.468 550.929 245.188 533.379 251.758 516.549C251.868 516.279 251.848 515.979 251.708 515.719C251.568 515.459 251.328 515.279 251.048 515.209V515.199Z" fill="black"/>
<path d="M805.828 504.67C806.798 504.67 807.818 504.21 808.868 503.3C809.218 502.99 809.318 502.48 809.088 502.07C805.838 496.13 804.498 487.25 803.068 477.84C801.028 464.43 798.928 450.56 790.768 444.93C790.598 444.81 790.398 444.75 790.198 444.75C790.078 444.75 789.948 444.77 789.828 444.82C789.518 444.94 789.288 445.21 789.218 445.54C789.168 445.79 789.058 446.09 788.948 446.41C788.618 447.36 788.278 448.34 788.818 449.14C792.338 454.38 793.458 460.53 794.538 466.48C794.968 468.83 795.408 471.27 795.998 473.63C796.028 473.74 796.068 473.84 796.128 473.93C797.128 475.49 797.838 480.52 798.518 485.38C799.908 495.3 801.228 504.67 805.828 504.67Z" fill="black"/>
<path d="M411.289 214.36C411.409 214.41 411.529 214.43 411.649 214.43C411.829 214.43 412.019 214.38 412.179 214.28C423.109 207.52 433.389 204.64 446.559 204.64C450.879 204.64 455.729 204.94 461.829 205.59C461.869 205.59 461.899 205.59 461.939 205.59C462.289 205.59 462.609 205.41 462.799 205.11C462.999 204.78 462.989 204.36 462.769 204.04C459.459 199.13 450.349 198.4 445.209 198.4C431.999 198.4 415.349 203.16 410.329 211.13C410.179 211.37 410.139 211.66 410.209 211.93L410.699 213.7C410.779 214 411.009 214.25 411.299 214.36H411.289Z" fill="black"/>
<path d="M491.389 241.06C490.319 242.91 490.339 244.92 491.449 246.86C491.589 247.11 491.829 247.28 492.109 247.34C492.179 247.35 492.249 247.36 492.319 247.36C492.529 247.36 492.739 247.29 492.909 247.17C500.749 241.48 508.169 238.71 515.579 238.71C520.949 238.71 526.279 240.11 531.879 243C532.019 243.07 532.179 243.11 532.339 243.11C532.519 243.11 532.709 243.06 532.869 242.96C533.169 242.77 533.349 242.45 533.339 242.09C533.239 236.09 526.769 232.5 516.019 232.5C506.349 232.5 494.499 235.7 491.399 241.05L491.389 241.06Z" fill="black"/>
<path d="M500.088 182.47C500.258 182.47 500.418 182.43 500.568 182.35C509.618 177.38 517.178 175.26 525.818 175.26C528.008 175.26 530.258 175.39 532.718 175.66C532.758 175.66 532.788 175.66 532.828 175.66C533.168 175.66 533.498 175.48 533.678 175.18C533.878 174.85 533.878 174.44 533.668 174.11C531.688 171.06 526.578 169.24 520.008 169.24C514.978 169.24 509.918 170.31 506.128 172.19C501.528 174.46 499.098 177.67 499.098 181.47C499.098 181.82 499.288 182.15 499.588 182.33C499.748 182.42 499.918 182.47 500.098 182.47H500.088Z" fill="black"/>
<path d="M601.178 759.629C601.178 759.629 601.088 759.609 601.038 759.609C599.868 759.539 598.698 759.479 597.528 759.419C592.388 759.149 587.068 758.869 582.088 757.719C582.068 757.719 582.038 757.719 582.018 757.709C574.608 756.539 567.068 754.189 559.788 751.919C549.228 748.629 538.298 745.219 527.298 745.219C523.348 745.219 519.658 745.639 516.018 746.509C515.948 746.529 515.888 746.549 515.828 746.579C512.728 748.029 509.428 748.729 505.758 748.729C500.818 748.729 495.728 747.439 490.798 746.199C489.078 745.769 487.308 745.319 485.548 744.919C485.528 744.919 485.508 744.919 485.488 744.909C482.838 744.489 480.088 744.279 477.328 744.279C464.438 744.279 452.068 748.849 440.098 753.259C428.228 757.639 415.958 762.159 403.158 762.269C402.738 762.269 402.368 762.539 402.228 762.929C402.088 763.319 402.198 763.759 402.518 764.029C403.208 764.619 403.218 765.509 403.178 766.899C403.118 768.759 403.048 771.299 406.268 772.559C408.988 773.629 412.808 775.489 415.658 778.319C427.278 793.299 440.898 805.999 455.048 815.029C471.698 825.659 488.558 831.049 505.178 831.049C513.118 831.049 521.028 829.789 528.688 827.299C542.498 825.539 554.918 814.569 566.938 803.969C572.648 798.929 578.048 794.159 583.398 790.559C585.768 788.899 607.108 771.189 605.428 763.149C605.158 761.879 604.208 760.229 601.188 759.619L601.178 759.629ZM578.278 786.299C562.658 800.959 543.218 819.209 525.148 820.959C525.078 820.959 525.008 820.979 524.938 820.999C517.838 823.289 510.508 824.449 503.128 824.449C487.598 824.449 471.478 819.239 456.518 809.369C443.848 801.019 432.428 789.719 423.298 776.549C451.648 790.949 480.278 798.239 508.458 798.239C534.248 798.239 559.958 792.119 584.988 780.049C582.818 782.039 580.578 784.139 578.278 786.309V786.299ZM536.318 769.999C536.128 769.729 535.828 769.569 535.498 769.569C535.478 769.569 535.468 769.569 535.448 769.569C535.108 769.589 534.788 769.779 534.628 770.079C531.558 775.569 532.508 780.809 533.518 786.359C533.768 787.719 534.018 789.119 534.208 790.529C526.608 791.959 518.308 792.689 509.528 792.689C500.748 792.689 492.118 791.979 483.628 790.629C484.658 788.469 484.478 784.439 484.078 778.839C483.858 775.749 483.638 772.559 483.998 771.209C484.088 770.869 483.998 770.499 483.748 770.249C483.558 770.059 483.298 769.949 483.038 769.949C482.958 769.949 482.878 769.949 482.798 769.979C477.188 771.379 478.418 780.169 479.318 786.579C479.498 787.889 479.678 789.149 479.778 790.219C471.758 789.819 464.988 787.749 459.188 783.939C460.128 783.489 460.798 782.919 461.178 782.199C461.998 780.659 461.348 778.929 460.768 777.409C460.298 776.169 459.858 774.999 460.268 774.259C460.488 773.869 460.408 773.379 460.088 773.059C459.898 772.869 459.648 772.779 459.388 772.779C459.218 772.779 459.038 772.819 458.888 772.919C454.638 775.389 454.858 778.999 455.618 782.099L434.988 773.429C449.748 771.649 464.768 770.149 479.698 768.979C482.748 769.249 485.858 769.679 488.868 770.089C493.998 770.789 499.298 771.519 504.568 771.519C509.188 771.519 513.308 770.959 517.188 769.819C521.818 768.849 526.778 768.339 531.528 768.339C539.948 768.339 547.538 769.879 553.538 772.809C554.208 778.129 553.398 782.159 551.108 784.789C548.778 787.479 544.798 788.839 539.288 788.839C539.168 788.839 539.048 788.839 538.928 788.839C537.388 786.579 537.678 783.709 537.978 780.679C538.318 777.269 538.698 773.399 536.348 770.019L536.318 769.999ZM558.688 784.019V773.459C560.578 773.729 562.578 773.779 564.338 773.779C565.218 773.779 566.108 773.769 566.998 773.759C567.878 773.749 568.758 773.739 569.628 773.739C572.718 773.739 575.828 773.889 578.158 774.849L558.698 784.039L558.688 784.019ZM576.528 767.039C568.808 767.039 560.948 765.769 553.348 764.549C545.698 763.319 537.788 762.039 529.968 762.039C525.078 762.039 520.638 762.529 516.408 763.529C516.378 763.529 516.348 763.539 516.328 763.549C512.638 764.769 508.568 765.359 503.908 765.359C499.248 765.359 494.308 764.759 489.578 764.179C484.758 763.589 479.778 762.979 474.868 762.979C470.738 762.979 467.068 763.409 463.658 764.299C455.088 765.529 445.018 766.779 435.268 766.779C431.008 766.779 427.078 766.549 423.368 766.079C425.488 765.259 427.618 764.419 429.698 763.599C445.508 757.359 461.858 750.899 478.198 750.899C486.678 750.899 494.448 752.589 501.968 756.079C502.098 756.139 502.248 756.169 502.388 756.169C502.508 756.169 502.638 756.149 502.758 756.099C509.818 753.319 517.128 751.969 525.128 751.969C538.998 751.969 553.048 756.149 566.638 760.199C573.588 762.269 580.748 764.399 587.918 765.989C584.348 766.689 580.598 767.029 576.548 767.029L576.528 767.039Z" fill="black"/>
<path d="M383.846 557.299C383.946 557.329 384.057 557.349 384.167 557.349C384.277 557.349 384.376 557.329 384.476 557.299C388.826 555.899 396.467 555.569 404.567 555.219C419.587 554.569 436.617 553.829 440.317 545.859C442.157 541.899 440.596 536.789 435.536 530.249C435.516 530.219 435.486 530.189 435.456 530.159C421.966 516.539 406.536 509.629 389.616 509.629C374.746 509.629 351.147 515.079 323.187 541.039C322.877 541.329 322.776 541.789 322.956 542.179C326.746 550.679 346.096 552.569 363.156 554.239C371.556 555.059 379.486 555.829 383.866 557.309L383.846 557.299ZM420.797 530.579C433.067 537.099 435.326 540.569 435.016 542.349C434.366 546.069 421.636 548.069 413.386 549.199C417.066 542.459 418.786 538.409 420.786 530.579H420.797ZM356.456 538.839C356.856 538.149 357.236 537.449 357.606 536.769C359.926 532.539 362.126 528.519 367.146 526.899C365.686 535.179 369.286 542.039 373.076 549.279C373.106 549.339 373.137 549.389 373.167 549.449L368.986 548.949L364.446 548.399C364.606 544.669 361.976 541.529 356.456 538.839Z" fill="black"/>
<path d="M388.88 487.679C402.17 490.059 415.91 492.509 428.64 492.509C437.61 492.509 445.3 491.309 452.16 488.839C452.47 488.729 452.71 488.469 452.79 488.149C452.87 487.829 452.789 487.489 452.579 487.239C436.929 469.259 402.67 456.709 369.27 456.709C355.48 456.709 342.6 458.919 332.02 463.109C320.16 467.799 311.179 474.829 305.339 483.999C305.329 484.019 305.32 484.029 305.31 484.049C304.18 486.059 304.21 488.549 305.37 490.539C306.38 492.269 308.09 493.299 309.92 493.299C310.98 493.299 312.03 492.969 313.06 492.319C322.67 485.909 334.31 482.799 348.64 482.799C361.59 482.799 375.46 485.279 388.87 487.679H388.88Z" fill="black"/>
<path d="M424.896 564.94C424.896 564.39 424.466 563.95 423.916 563.94H423.896C423.866 563.94 423.846 563.94 423.816 563.94C423.776 563.94 423.736 563.94 423.696 563.96C420.756 564.49 417.976 565 415.316 565.49C400.766 568.17 390.256 570.1 379.996 570.1C365.516 570.1 351.536 566.01 330.106 555.51C329.966 555.44 329.816 555.41 329.666 555.41C329.556 555.41 329.436 555.43 329.326 555.47C329.076 555.56 328.866 555.75 328.756 555.99C327.936 557.77 327.806 559.34 328.356 560.65C329.146 562.52 331.146 563.43 332.606 563.95C349.206 571.65 366.546 575.71 382.746 575.71C397.636 575.71 411.616 572.39 424.316 565.83C424.656 565.67 424.886 565.33 424.886 564.93L424.896 564.94Z" fill="black"/>
<path d="M673.828 564.379C673.688 563.969 673.308 563.699 672.878 563.699C672.848 563.699 672.818 563.699 672.798 563.699C665.978 564.269 659.038 565.719 652.328 567.119C643.498 568.959 634.378 570.869 625.248 570.869C620.968 570.869 617.018 570.459 613.178 569.629C613.118 569.619 613.048 569.609 612.978 569.609C608.858 569.549 604.508 568.679 600.308 567.849C595.858 566.969 591.248 566.049 586.818 566.049C584.658 566.049 582.718 566.259 580.868 566.689C580.508 566.769 580.228 567.039 580.128 567.399C580.028 567.749 580.128 568.129 580.398 568.389C585.268 573.109 597.718 573.889 608.708 574.569C614.538 574.929 620.038 575.269 622.708 576.209C622.818 576.249 622.928 576.269 623.038 576.269C623.068 576.269 623.088 576.269 623.118 576.269C625.878 576.049 628.538 575.859 631.118 575.679C647.818 574.509 661.008 573.589 673.418 565.559C673.808 565.309 673.968 564.829 673.818 564.399L673.828 564.379Z" fill="black"/>
<path d="M562.089 659.44C562.989 660.3 563.839 661.1 564.509 661.97C564.539 662.01 564.579 662.05 564.609 662.08C574.099 671.15 569.419 684.3 565.659 694.86C565.529 695.21 565.619 695.61 565.869 695.88C566.059 696.08 566.329 696.2 566.599 696.2C566.689 696.2 566.789 696.19 566.879 696.16C572.469 694.55 573.789 689.33 575.069 684.29C575.659 681.98 576.209 679.8 577.149 677.98C577.299 677.7 577.299 677.36 577.149 677.08C576.999 676.8 576.739 676.59 576.429 676.54L575.899 676.44C577.619 665.52 568.149 652.73 559.019 650.44C558.939 650.42 558.859 650.41 558.779 650.41C558.579 650.41 558.379 650.47 558.209 650.59C557.969 650.75 557.819 651.01 557.779 651.29C557.329 654.93 559.859 657.33 562.089 659.45V659.44Z" fill="black"/>
<path d="M452.549 652.26C444.669 652.26 432.459 673.34 430.599 680.18C429.869 683.06 430.938 687.1 433.198 690.02C434.888 692.2 437.009 693.4 439.169 693.4C440.199 693.4 441.219 693.13 442.219 692.6C442.509 692.44 442.709 692.15 442.739 691.82C442.769 691.49 442.639 691.16 442.389 690.95C438.859 687.98 437.029 685.04 436.789 681.95C436.369 676.43 441.028 671.11 445.958 665.47C449.238 661.72 452.638 657.84 454.458 653.82C454.578 653.56 454.578 653.26 454.458 652.99C454.338 652.73 454.109 652.53 453.839 652.45C453.429 652.33 452.999 652.27 452.549 652.27V652.26Z" fill="black"/>
<path d="M474.327 617.03C474.517 617.2 474.757 617.28 474.987 617.28C475.177 617.28 475.367 617.23 475.527 617.12C479.907 614.29 484.907 596.93 487.697 582.01C488.767 576.31 491.977 557.34 488.597 552.68C488.407 552.42 488.107 552.27 487.787 552.27C487.717 552.27 487.637 552.269 487.567 552.289C487.177 552.379 486.877 552.69 486.807 553.08C485.557 559.9 484.757 566.75 483.987 573.37C482.237 588.38 480.587 602.55 474.087 615.83C473.887 616.23 473.987 616.72 474.317 617.02L474.327 617.03Z" fill="black"/>
<path d="M541.986 613.16C542.136 613.16 542.276 613.13 542.416 613.06C542.856 612.85 543.086 612.35 542.946 611.88C541.706 607.56 540.276 603.26 538.896 599.09C535.026 587.39 531.026 575.28 530.886 562.22C530.886 562.19 530.886 562.17 530.886 562.14C530.786 560.99 529.826 560.16 528.906 559.36C528.556 559.05 528.216 558.77 527.966 558.49C527.776 558.28 527.506 558.16 527.226 558.16C527.126 558.16 527.036 558.17 526.936 558.2C526.566 558.31 526.296 558.63 526.236 559.01C523.876 574.43 530.156 597.02 541.166 612.73C541.356 613 541.666 613.16 541.986 613.16Z" fill="black"/>
<path d="M458.969 701.209C459.089 701.259 459.209 701.279 459.329 701.279C459.539 701.279 459.749 701.209 459.929 701.079C464.879 697.379 468.769 695.719 472.539 695.719C476.549 695.719 480.629 697.579 485.769 701.739C485.949 701.889 486.169 701.959 486.399 701.959C486.519 701.959 486.639 701.939 486.749 701.899C487.079 701.779 487.319 701.489 487.379 701.139C487.869 698.369 487.219 695.819 485.509 693.779C482.929 690.709 478.069 688.879 472.489 688.879C466.909 688.879 462.419 690.619 460.009 693.539C458.419 695.459 457.839 697.859 458.339 700.469C458.399 700.809 458.639 701.089 458.959 701.209H458.969Z" fill="black"/>
<path d="M683.438 718.58C683.378 718.23 683.138 717.93 682.798 717.81C682.688 717.77 682.568 717.75 682.448 717.75C682.218 717.75 681.998 717.83 681.808 717.98C675.928 722.82 672.768 730.86 669.718 738.63C667.878 743.31 665.968 748.16 663.518 752.11C663.238 752.56 663.358 753.16 663.798 753.46L664.768 754.13L665.678 754.76C665.848 754.88 666.048 754.94 666.248 754.94C666.308 754.94 666.378 754.94 666.438 754.92C666.698 754.87 666.928 754.72 667.078 754.49C670.898 748.77 673.988 742.38 676.978 736.21C679.128 731.76 681.358 727.17 683.828 722.87C683.838 722.85 683.848 722.83 683.858 722.82C684.338 721.86 684.008 720.71 683.718 719.7C683.608 719.3 683.498 718.93 683.438 718.6V718.58Z" fill="black"/>
<path d="M525.048 702.68C525.208 702.77 525.378 702.82 525.558 702.82C525.698 702.82 525.828 702.79 525.958 702.74L527.688 701.98C533.958 699.21 536.068 698.28 539.498 698.28C541.478 698.28 543.968 698.6 547.748 699.08C548.568 699.18 549.438 699.3 550.388 699.41C550.428 699.41 550.468 699.41 550.508 699.41C550.798 699.41 551.068 699.29 551.268 699.06L551.558 698.72L552.408 697.74C552.578 697.54 552.668 697.28 552.648 697.01C552.628 696.74 552.498 696.5 552.298 696.32C551.818 695.91 551.318 695.37 550.798 694.81C549.518 693.43 548.188 692 546.598 692C546.548 692 546.488 692 546.438 692.01C544.948 692.25 542.968 692.29 540.878 692.34C535.418 692.47 529.238 692.61 526.228 695.99C524.898 697.49 524.338 699.47 524.558 701.9C524.588 702.22 524.768 702.51 525.048 702.67V702.68Z" fill="black"/>
<path d="M469.258 521.359C470.858 527.779 472.518 534.429 477.208 536.459C477.338 536.519 477.468 536.539 477.608 536.539C477.828 536.539 478.048 536.469 478.228 536.329C478.518 536.099 478.658 535.739 478.598 535.379C476.798 524.659 475.578 519.149 474.258 515.739C472.788 511.929 470.958 510.309 468.128 510.309C467.738 510.309 467.338 510.339 466.898 510.399C466.568 510.439 466.288 510.649 466.138 510.939C465.988 511.239 465.998 511.589 466.158 511.869C467.498 514.269 468.358 517.719 469.268 521.359H469.258Z" fill="black"/>
<path d="M333.336 728.229C333.196 727.929 332.916 727.709 332.586 727.649C332.526 727.649 332.476 727.639 332.416 727.639C332.146 727.639 331.876 727.749 331.686 727.949C327.676 732.199 333.176 741.679 338.496 750.849C341.096 755.339 343.566 759.579 344.286 762.299C344.366 762.609 344.586 762.849 344.886 762.969C345.006 763.019 345.136 763.039 345.256 763.039C345.436 763.039 345.616 762.989 345.776 762.889L347.496 761.849C347.926 761.589 348.096 761.049 347.886 760.589L333.326 728.229H333.336Z" fill="black"/>
<path d="M505.556 708.63C509.486 708.63 512.726 707.11 514.686 704.36C514.866 704.1 514.916 703.78 514.826 703.48C514.726 703.18 514.496 702.94 514.196 702.84C511.476 701.9 508.276 701.41 504.936 701.41C501.406 701.41 497.856 701.95 494.666 702.96C494.316 703.07 494.046 703.37 493.986 703.74C493.916 704.11 494.066 704.48 494.356 704.71C497.546 707.17 501.726 708.65 505.556 708.65V708.63Z" fill="black"/>
<path d="M507.339 772.68C507.169 772.68 506.989 772.72 506.839 772.82C504.329 774.29 503.629 779.29 504.039 783.32C504.239 785.26 505.009 789.87 507.879 790.85C507.979 790.89 508.089 790.9 508.199 790.9C508.409 790.9 508.619 790.83 508.799 790.7C509.059 790.5 509.209 790.19 509.199 789.86C509.109 787.89 509.329 785.98 509.529 784.12C509.949 780.29 510.349 776.68 508.199 773.16C508.009 772.85 507.679 772.68 507.349 772.68H507.339Z" fill="black"/>
</svg>
