<svg width="1000" height="1000" viewBox="0 0 1000 1000" fill="none" xmlns="http://www.w3.org/2000/svg">
<path d="M780.749 479.05C781.179 470.3 783.759 461.94 786.249 453.86C788.489 446.6 790.799 439.1 791.629 431.23C794.349 422.58 792.529 413.9 790.769 405.52C789.549 399.69 788.389 394.19 788.689 388.78C792.549 379.09 789.759 369.78 787.049 360.78C785.529 355.73 783.969 350.51 783.649 345.35C782.909 329.67 778.779 313.71 770.669 295.14C767.269 287.97 764.179 280.44 761.179 273.16C753.309 254.04 745.179 234.26 730.819 218.69C726.469 213.92 721.289 209.76 716.269 205.74C706.159 197.64 696.609 189.99 692.849 177.45C684.779 149.88 672.569 120.93 643.159 115.4C634.269 113.45 626.289 109.12 618.569 104.94C609.379 99.95 599.869 94.79 588.679 93.57C581.559 93.1 574.389 92 567.449 90.94C564.299 90.46 561.049 89.96 557.839 89.53C548.949 88.26 539.879 87.09 531.119 85.96C518.919 84.39 506.299 82.77 493.949 80.83C484.599 76.11 474.049 74 459.769 74C454.049 74 448.229 74.32 442.589 74.64C440.549 74.75 438.519 74.87 436.499 74.97C434.759 74.93 433.039 74.9 431.379 74.9C396.339 74.9 383.289 84.42 369.489 94.51C359.659 101.69 349.509 109.1 330.479 113.22C316.449 114.56 308.529 124.57 300.879 134.25C296.809 139.4 292.589 144.73 287.449 148.84C283.959 150.95 280.919 152.74 278.239 154.32C264.946 162.153 253.919 175.547 245.159 194.5L244.879 195.1C237.599 210.87 227.399 224.71 217.539 238.09C213.579 243.47 209.479 249.03 205.589 254.68C205.539 254.76 205.499 254.84 205.469 254.93C203.859 259.67 202.369 264.54 200.939 269.24C198.719 276.51 196.419 284.02 193.639 291.19C193.629 291.23 193.609 291.26 193.599 291.3C191.719 298.61 187.949 305.89 184.299 312.94C178.199 324.72 171.889 336.9 173.829 350.02C173.839 350.09 173.859 350.16 173.889 350.23C176.279 356.47 174.049 361.97 171.679 367.81C170.259 371.32 168.789 374.95 168.379 378.79C168.379 378.86 168.379 378.94 168.379 379.01C169.059 384.93 169.959 390.92 170.829 396.72C171.569 401.65 172.339 406.74 172.969 411.77C172.969 411.79 172.969 411.8 172.969 411.82C175.029 423.47 174.899 435.46 174.769 447.05C174.559 466.22 174.339 486.04 184.179 504.34C184.339 504.63 184.629 504.83 184.969 504.86C184.999 504.86 185.029 504.86 185.059 504.86C185.359 504.86 185.649 504.73 185.839 504.49C189.389 500.12 187.039 494.19 185.159 489.43C184.879 488.72 184.609 488.04 184.369 487.39C184.369 487.37 184.349 487.34 184.339 487.32C178.879 475.44 179.599 462.7 180.359 449.22C180.899 439.71 181.449 429.88 179.609 420.43C178.859 412.31 177.599 404.11 176.369 396.18C175.599 391.21 174.809 386.06 174.149 381C174.279 376.66 175.799 372.77 177.409 368.64C179.699 362.75 182.069 356.67 179.949 349.39C178.449 334.68 184.879 321.98 191.699 308.53C196.529 298.99 201.529 289.13 203.459 278.45C204.489 275.71 205.239 272.81 205.969 270C207.999 262.22 209.909 254.87 217.199 250.07C217.459 249.9 217.629 249.61 217.649 249.29C217.929 244.61 220.989 241.85 224.229 238.92C225.079 238.15 225.959 237.36 226.779 236.53C226.849 236.46 226.899 236.39 226.949 236.31C229.419 231.81 231.999 227.25 234.489 222.84C237.569 217.39 240.759 211.75 243.789 206.14C246.099 202.06 248.149 197.81 250.129 193.7C257.299 178.86 264.069 164.85 281.979 160.46C282.159 160.42 282.319 160.33 282.449 160.2C284.979 157.68 287.769 155.28 290.469 152.97C297.039 147.34 303.829 141.51 307.849 133.12C312.909 122.58 323.529 119.88 331.539 119.48C343.709 118.87 354.419 114.09 362.509 105.65C383.439 83.91 412.529 82.78 440.669 81.69C447.409 81.43 454.389 81.16 461.069 80.6C461.759 80.56 462.489 80.54 463.219 80.54C470.899 80.54 477.819 82.77 485.159 85.12C490.809 86.94 496.649 88.81 502.799 89.54C506.849 89.91 510.889 90.28 514.929 90.64C542.769 93.14 571.549 95.72 599.059 101.28C604.149 103.75 609.149 106.78 613.989 109.72C624.109 115.86 634.569 122.21 646.839 124.08C662.599 126.87 674.919 142.84 678.939 157.17C682.549 170.64 687.949 185.13 694.969 200.23C695.129 200.57 695.469 200.8 695.849 200.81C695.849 200.81 695.869 200.81 695.879 200.81C696.249 200.81 696.589 200.61 696.759 200.28L697.359 199.16C702.319 204.08 707.819 208.52 713.139 212.82C726.649 223.73 739.409 234.03 744.339 251.7C748.129 263.4 753.299 274.88 758.299 285.98C764.509 299.76 770.929 314.01 774.709 328.68C775.069 331.17 775.399 333.7 775.719 336.15C777.049 346.33 778.419 356.86 782.269 366.91C782.439 367.35 782.609 367.79 782.789 368.24C784.779 373.35 787.039 379.14 783.989 384.16C783.979 384.18 783.969 384.2 783.959 384.22C779.849 392.13 782.109 399.77 784.299 407.15C785.869 412.46 787.499 417.95 786.789 423.59C786.789 423.61 786.789 423.63 786.789 423.65C786.089 434.99 782.929 446.23 779.879 457.11C777.789 464.56 775.629 472.27 774.269 479.95C771.179 490.64 765.599 499.89 757.689 507.43C753.419 510.38 751.269 515.46 749.369 519.95C748.149 522.83 746.979 525.59 745.399 527.51C745.289 523.23 745.229 518.89 745.169 514.68C744.789 489.18 744.399 462.82 735.039 438.48C732.929 432.46 730.629 426.36 728.409 420.47C725.289 412.17 722.059 403.59 719.269 395.04C709.379 361.11 692.389 329.72 675.969 299.36C673.579 294.95 671.119 290.39 668.709 285.89L668.629 285.75C661.239 272.62 653.589 259.04 641.229 249.36C641.219 249.35 641.199 249.34 641.189 249.33C601.759 221.63 565.319 207.54 529.789 206.24C512.089 203.75 494.099 202.49 476.329 202.49C414.939 202.49 356.229 217.35 306.519 245.45C306.499 245.45 306.489 245.47 306.469 245.48C269.269 269.53 254.059 314.47 240.639 354.11C239.849 356.44 239.059 358.76 238.279 361.07C222.919 402.66 221.489 447.2 220.099 490.28C219.719 502.16 219.319 514.45 218.639 526.45C213.299 581.4 225.679 636.29 237.649 689.38C238.939 695.11 240.279 701.04 241.569 706.86C241.869 708.12 241.819 709.03 241.409 709.6C241.069 710.09 240.399 710.38 239.429 710.49C239.389 710.49 239.349 710.5 239.319 710.51C235.089 711.46 231.279 711.94 228.009 711.94C209.479 711.94 208.409 696.7 207.189 679.05C206.739 672.53 206.269 665.79 204.859 659.53C204.739 653.65 200.829 639.14 195.879 620.81C186.139 584.7 171.409 530.13 181.259 517.27C182.649 515.45 184.479 514.57 186.839 514.57C187.759 514.57 188.759 514.71 189.829 514.98C191.909 517.52 193.009 518.79 194.809 518.79C196.119 518.79 197.529 518.1 200.079 516.84C200.369 516.7 200.569 516.43 200.619 516.12C200.679 515.81 200.579 515.48 200.359 515.25C194.509 509.12 189.389 506.01 185.139 506.01C182.519 506.01 180.229 507.16 178.349 509.42C170.569 518.78 171.479 545.83 173.659 557.56C176.699 572.65 180.999 587.74 185.159 602.33C188.819 615.17 192.609 628.45 195.509 641.65C195.509 641.69 195.529 641.72 195.539 641.76C198.509 650.48 199.419 661.43 200.299 672.02C202.219 695.09 204.199 718.95 228.179 718.95C232.839 718.95 238.289 718.02 244.379 716.2L244.449 716.45C250.579 740.13 256.919 764.62 272.579 784.39C272.589 784.41 272.609 784.42 272.619 784.44C281.139 793.94 289.009 804.25 296.629 814.23C306.759 827.5 317.239 841.22 329.379 853.23C349.679 877.96 379.779 886.53 408.879 894.82C417.999 897.42 427.439 900.11 436.369 903.25C452.159 908.87 468.599 911.72 485.239 911.72C560.259 911.72 629.119 854.63 674.929 810.79C674.349 837.23 671.849 865.53 667.309 897.22C666.899 900.03 666.399 902.97 665.859 906.09C662.129 927.81 657.479 954.85 682.089 965C682.149 965.02 682.209 965.04 682.269 965.05C702.869 969.3 706.629 988.11 707.029 998.95C707.049 999.38 707.339 999.75 707.749 999.87C707.839 999.9 707.939 999.91 708.029 999.91C708.349 999.91 708.659 999.75 708.849 999.48C711.559 995.58 712.189 989.12 710.549 982.2C708.659 974.23 704.249 967.52 699.049 964.7C698.479 964.37 698.019 963.27 697.489 961.99C697.469 961.93 697.439 961.87 697.419 961.81C704.159 965.05 710.899 968.47 717.449 971.8C739.339 982.9 761.969 994.39 785.809 999.89C785.889 999.91 785.959 999.92 786.039 999.92C786.409 999.92 786.749 999.72 786.929 999.38C787.139 998.98 787.049 998.48 786.719 998.18C781.749 993.67 774.289 991.22 767.079 988.85C761.819 987.12 756.379 985.33 751.989 982.77C751.949 982.75 751.909 982.73 751.869 982.71C727.449 972.6 704.499 958.94 683.089 945.82C682.929 945.72 682.749 945.67 682.569 945.67C682.239 945.67 681.909 945.84 681.719 946.14C680.729 947.73 679.769 948.51 678.799 948.51C677.979 948.51 677.009 948 675.809 946.95C675.699 946.86 675.579 946.79 675.439 946.74C665.059 943.62 667.649 929.32 669.939 916.7C670.759 912.19 671.529 907.93 671.619 904.52C677.769 871.85 679.769 838.07 681.169 808.97C681.559 800.09 687.289 793.1 693.129 786.71C705.439 772.08 710.719 753.88 715.819 736.27C717.979 728.82 720.209 721.13 722.939 713.84C729.019 716.47 734.439 717.8 739.059 717.8C749.149 717.8 755.809 711.72 759.419 699.22C762.479 688.6 762.939 674.57 763.339 662.2C763.629 653.3 763.899 644.9 765.059 638.58C765.059 638.54 765.069 638.49 765.079 638.45C765.779 624.02 768.249 608.84 770.639 594.16C775.399 564.96 780.319 534.76 772.209 507.02C772.179 506.92 772.139 506.82 772.079 506.74C769.359 502.75 772.509 497.08 775.849 491.07C778.109 487 780.439 482.8 780.789 479.06L780.749 479.05ZM702.149 758.58C684.429 799.02 651.869 831.72 593.279 867.91C554.549 893.23 517.919 906.06 484.379 906.06C470.299 906.06 456.709 903.73 443.979 899.13C417.769 890.92 391.689 882.35 366.419 873.65C365.839 873.45 365.249 873.27 364.619 873.08C361.149 872.02 357.559 870.93 356.519 866.8C356.419 866.41 356.099 866.12 355.709 866.06C348.189 864.87 345.909 862.31 342.139 858.06C341.209 857.01 340.149 855.82 338.919 854.56C338.899 854.54 338.869 854.51 338.839 854.49C325.419 843.28 314.819 829.07 304.559 815.34C302.579 812.68 300.519 809.93 298.479 807.25C298.469 807.23 298.459 807.22 298.439 807.2C279.799 785.43 258.679 760.75 253.919 728.54C253.919 728.5 253.909 728.47 253.899 728.43C252.129 721.62 250.289 714.73 248.519 708.07C240.309 677.31 231.819 645.5 228.099 612.98C227.919 611.09 227.699 609.15 227.479 607.27C226.399 597.78 225.289 587.98 228.679 578.75C228.779 578.49 228.759 578.2 228.629 577.95C228.509 577.7 228.279 577.52 228.019 577.44C219.669 575 222.929 542.55 224.869 523.17C225.709 514.77 226.439 507.51 226.259 503.79C224.699 439.23 235.059 378.95 257.059 324.64C257.069 324.61 257.079 324.59 257.089 324.56C263.849 302.83 274.889 283.79 289.889 267.96C304.949 252.07 323.329 240.14 344.519 232.5C349.949 230.88 355.479 229.16 360.819 227.51C390.719 218.25 421.639 208.67 453.319 208.67C455.059 208.67 456.809 208.7 458.519 208.76C458.529 208.76 458.539 208.76 458.549 208.76C458.549 208.76 458.559 208.76 458.569 208.76C462.589 208.7 466.519 208.67 470.259 208.67C510.759 208.67 542.309 212.19 569.539 219.74C605.269 229.64 632.299 246.21 652.169 270.38C697.629 345.52 724.319 409.52 736.149 471.81C736.519 478.45 736.759 485.22 736.999 491.76C737.419 503.44 737.859 515.51 739.009 527.33C738.199 531.56 737.369 535.8 736.549 540.05C732.369 561.53 728.049 583.73 725.219 605.79C725.219 605.82 725.219 605.85 725.219 605.88C722.849 669.88 719.809 718.29 702.139 758.61L702.149 758.58ZM771.079 541.44C768.959 559.58 766.999 578.04 765.089 595.9C761.319 631.23 757.429 667.77 752.229 703.42C751.089 709.02 747.359 711.85 741.159 711.85C735.849 711.85 730.059 709.68 726.419 707.65C725.089 706.9 723.869 703.15 724.259 700.96C727.029 685.27 727.359 669.23 727.679 653.71C727.809 647.56 727.939 641.2 728.219 634.96C729.339 610.13 731.769 580.88 741.329 552.18C742.819 547.71 745.269 543.42 747.649 539.28C749.119 536.71 750.649 534.05 751.949 531.33C752.859 529.37 753.549 527.2 754.219 525.11C756.089 519.25 757.859 513.72 763.949 511.75C764.599 511.52 765.169 511.4 765.669 511.4C766.409 511.4 766.999 511.64 767.509 512.17C770.009 514.74 769.809 522.97 769.639 529.59C769.519 534.35 769.419 538.46 770.159 540.75C770.279 541.12 770.609 541.39 770.999 541.43H771.109L771.079 541.44Z" fill="black"/>
<path d="M277.299 792.54C277.299 792.54 277.199 792.54 277.149 792.55C276.709 792.62 276.359 792.97 276.299 793.41C274.359 808.76 274.529 825.6 274.699 841.9C274.839 855.54 274.979 869.64 273.909 882.95C273.909 882.98 273.909 883.01 273.909 883.04C274.059 901.65 271.479 914.99 265.769 925.01C259.169 936.61 247.949 944.35 231.489 948.67C231.459 948.67 231.419 948.69 231.389 948.7C230.079 949.19 228.759 949.89 227.479 950.56C225.039 951.85 222.509 953.18 219.919 953.18C218.289 953.18 216.749 952.66 215.209 951.59C215.039 951.47 214.839 951.41 214.639 951.41C214.489 951.41 214.339 951.44 214.199 951.51C193.449 961.71 173.709 974.77 154.629 987.41C149.329 990.92 143.859 994.54 138.459 998.04C138.119 998.26 137.939 998.67 138.019 999.08C138.099 999.49 138.419 999.79 138.819 999.87C139.259 999.95 139.739 999.99 140.229 999.99C147.629 999.99 160.199 991.15 173.499 981.79C186.199 972.86 199.319 963.62 206.359 963.62C207.259 963.62 208.019 963.77 208.649 964.08C206.899 977.52 208.689 989.06 214.109 999.34C214.279 999.67 214.619 999.87 214.989 999.87H222.989C223.459 999.87 223.859 999.55 223.959 999.09C224.059 998.64 223.839 998.17 223.419 997.97C214.029 993.43 214.559 983.19 215.079 973.28C215.249 970.04 215.409 966.97 215.239 964.1C221.479 959.29 229.349 955.86 237.659 952.23C255.289 944.54 273.519 936.58 275.569 914.5C277.309 902.18 277.739 889.37 278.169 876.99C278.519 866.78 278.879 856.23 279.969 845.98C279.969 845.93 279.969 845.88 279.969 845.83C279.709 840.11 280.239 833.85 280.749 827.79C281.759 815.81 282.809 803.42 278.199 793.1C278.039 792.74 277.679 792.51 277.289 792.51L277.299 792.54Z" fill="black"/>
<path d="M196.12 527.56C195.97 527.48 195.8 527.43 195.63 527.43C195.42 527.43 195.21 527.5 195.03 527.63C188.96 532.13 185.1 536.51 185.97 543.2C185.97 543.23 185.97 543.26 185.99 543.29C186.91 547.28 187.3 551.41 187.69 555.4C188.46 563.38 189.25 571.64 194.3 578.91C194.49 579.18 194.8 579.34 195.12 579.34C195.17 579.34 195.21 579.34 195.26 579.33C195.63 579.28 195.95 579.02 196.07 578.66C198.44 571.58 196.52 564.56 194.67 557.78C192.36 549.35 190.19 541.38 195.98 533.61C196.6 532.86 196.59 531.77 196.58 530.51C196.58 529.91 196.58 529.24 196.63 528.52C196.66 528.13 196.46 527.75 196.12 527.56Z" fill="black"/>
<path d="M212.296 619.081C212.616 616.491 213.316 613.871 213.996 611.341C215.026 607.501 216.096 603.531 215.956 599.361C215.936 598.871 215.566 598.461 215.076 598.401L212.316 598.061C212.316 598.061 212.236 598.061 212.196 598.061C211.776 598.061 211.396 598.331 211.256 598.731L211.126 599.121C207.956 608.271 204.016 619.671 208.396 627.321C210.496 631.001 214.356 633.421 219.876 634.521C219.946 634.531 220.006 634.541 220.076 634.541C220.416 634.541 220.746 634.361 220.926 634.061C221.866 632.511 222.166 631.151 221.826 629.901C221.256 627.811 219.046 626.621 216.906 625.471C213.466 623.631 211.446 622.281 212.276 619.231C212.286 619.181 212.296 619.141 212.306 619.091L212.296 619.081Z" fill="black"/>
<path d="M680.247 396.47C665.377 379.49 627.627 366.17 594.337 366.17C580.727 366.17 568.677 368.48 559.497 372.85C548.957 377.87 542.057 385.48 539.007 395.48C539.007 395.51 538.997 395.53 538.987 395.56C538.307 398.68 538.847 401.38 540.607 403.56C544.337 408.19 553.487 410.45 568.567 410.45C581.337 410.45 595.957 408.86 607.707 407.58C615.237 406.76 621.737 406.05 625.337 406.05C625.667 406.05 625.977 406.05 626.257 406.07C626.267 406.07 626.287 406.07 626.297 406.07C626.297 406.07 626.297 406.07 626.307 406.07C626.577 406.07 626.847 406.07 627.127 406.07C650.327 406.07 673.897 417.33 691.807 436.95C692.047 437.25 692.267 437.57 692.497 437.87C693.547 439.32 694.727 440.97 696.857 440.97C697.567 440.97 698.307 440.79 699.127 440.41C699.177 440.39 699.217 440.36 699.257 440.34C701.687 438.75 703.087 436.51 703.407 433.71C704.597 423.29 690.847 407.56 680.397 396.64L680.247 396.48V396.47Z" fill="black"/>
<path d="M356.54 408.7C356.54 408.7 356.6 408.7 356.64 408.7C377.75 408.63 395.55 406.34 408.1 402.08C419.37 398.25 425.57 393.13 425.56 387.64C425.55 378.44 408.05 372.26 382.02 372.26C373.76 372.26 364.69 372.85 355.05 374.01C314.45 375.72 280.92 394.42 263.06 425.32C260.58 429.45 259.45 431.34 260.12 433.05C260.8 434.79 263.14 435.48 267.38 436.72C267.47 436.75 267.57 436.76 267.66 436.76C268.02 436.76 268.35 436.57 268.53 436.25C279.1 417.26 301.76 407.64 335.89 407.64C342.34 407.64 349.29 407.99 356.53 408.69L356.54 408.7Z" fill="black"/>
<path d="M561.039 666.371C543.309 656.571 527.189 651.811 511.759 651.811C502.769 651.811 493.959 653.491 485.579 656.811C482.889 657.941 480.129 658.511 477.339 658.511C474.749 658.511 472.099 658.021 469.479 657.041C463.439 655.011 457.049 653.991 450.459 653.991C431.229 653.991 409.669 662.571 386.369 679.501C386.329 679.531 386.289 679.561 386.259 679.591C380.719 684.991 373.849 687.501 366.579 690.161C362.729 691.571 358.749 693.021 354.969 694.951C354.849 695.011 354.739 695.101 354.649 695.211C352.929 697.301 352.399 698.631 352.889 699.661C353.119 700.151 353.679 700.731 355.029 700.731C361.319 700.731 385.389 687.511 388.179 685.091C404.439 673.151 425.949 659.451 448.139 659.451C454.169 659.451 460.029 660.491 465.549 662.541C465.569 662.541 465.579 662.551 465.599 662.561C468.579 663.501 471.639 663.951 474.949 663.951C481.269 663.951 487.369 662.311 493.819 660.571C500.399 658.801 507.199 656.971 514.369 656.971C519.059 656.971 523.459 657.751 527.809 659.341C527.849 659.361 527.889 659.371 527.939 659.381C546.779 663.581 563.129 672.261 576.519 685.181C576.569 685.231 576.629 685.271 576.689 685.311C592.599 695.181 594.979 700.611 594.169 703.441C593.439 706.001 589.949 707.801 585.039 709.051C585.819 708.831 586.129 708.351 586.239 707.931C586.479 707.041 586.869 705.551 575.909 697.971C570.549 694.261 564.769 690.711 563.119 689.761C549.189 678.031 532.439 676.451 517.889 676.451C512.459 676.451 506.909 676.701 501.539 676.941C496.269 677.181 490.809 677.431 485.569 677.431C482.849 677.431 480.399 677.371 478.069 677.231C471.999 676.931 466.579 676.781 461.469 676.781C429.999 676.781 417.839 682.611 400.999 690.681C391.789 695.091 381.359 700.091 365.549 705.361C365.279 705.101 365.009 704.811 364.729 704.511C363.329 703.021 361.739 701.341 359.619 701.341C358.759 701.341 357.889 701.631 357.049 702.201C356.789 702.381 356.629 702.661 356.609 702.971C356.359 707.531 360.629 711.061 364.399 714.191C366.159 715.651 367.829 717.031 368.959 718.411C369.009 718.471 369.059 718.521 369.129 718.571C378.999 726.131 388.369 734.681 397.429 742.941C399.919 745.211 402.409 747.481 404.899 749.721C404.949 749.771 404.999 749.811 405.059 749.841C423.029 760.391 444.919 765.971 468.359 765.971C498.459 765.971 530.129 756.701 555.249 740.541C555.269 740.531 555.289 740.511 555.309 740.501C557.329 738.991 561.019 736.721 565.299 734.091C578.919 725.721 599.509 713.081 601.279 703.451C601.569 701.881 601.379 700.431 600.709 699.121L603.219 698.171C603.549 698.041 603.799 697.751 603.849 697.401C603.909 697.051 603.769 696.691 603.499 696.461C591.399 686.501 576.889 675.141 561.029 666.371H561.039ZM492.959 758.641C484.979 759.781 477.119 760.351 469.559 760.351C445.899 760.351 413.279 754.651 390.809 727.841C395.109 728.301 399.509 728.531 404.199 728.531C418.739 728.531 433.389 726.271 447.569 724.091C458.509 722.411 469.819 720.661 480.989 719.971C481.009 719.971 481.019 719.971 481.039 719.971C502.309 717.541 523.779 717.451 544.539 717.351C555.789 717.301 567.389 717.251 578.969 716.831C552.059 737.111 525.079 755.251 492.959 758.641ZM544.529 712.001C541.779 712.001 539.109 711.991 536.569 711.971C534.259 711.961 532.059 711.951 530.009 711.951C525.089 711.951 522.019 712.011 519.739 712.171C498.859 713.341 474.589 714.831 450.989 717.601C450.969 717.601 450.959 717.601 450.939 717.601C449.199 717.891 447.449 718.201 445.699 718.501C441.489 719.231 437.229 719.961 432.969 720.601C433.109 720.351 433.129 720.051 433.029 719.781C429.599 710.671 428.179 703.981 427.779 695.081C427.759 694.541 427.309 694.121 426.779 694.121C426.779 694.121 426.759 694.121 426.749 694.121C425.269 694.161 422.799 695.121 422.869 701.111C422.949 707.431 426.319 719.131 430.919 720.891C423.809 721.921 416.689 722.661 409.739 722.661C394.179 722.661 381.699 719.001 370.639 711.151C380.649 706.691 388.729 702.831 395.289 699.701C422.569 686.681 429.899 683.181 475.149 683.181C477.589 683.181 480.159 683.191 482.829 683.211C482.829 683.211 482.869 683.211 482.889 683.211C492.169 682.701 501.759 682.171 510.219 682.171C535.189 682.171 553.619 686.321 579.449 708.211C579.559 708.311 579.689 708.371 579.839 708.411C581.729 708.921 583.119 709.171 584.089 709.171C584.459 709.171 584.779 709.131 585.039 709.061C573.579 711.991 554.419 712.001 544.529 712.001Z" fill="black"/>
<path d="M671.407 471.721C670.587 470.451 669.777 469.121 669.007 467.821C665.277 461.621 661.417 455.211 653.597 452.441C637.037 441.281 618.077 439.211 603.397 438.661C600.997 438.351 598.497 438.191 595.967 438.191C585.787 438.191 575.397 440.691 566.707 445.231C557.027 450.291 549.997 457.551 546.397 466.241C543.507 471.841 542.737 475.391 543.977 477.431C544.667 478.571 545.917 479.151 547.677 479.151C549.767 479.151 552.657 478.351 556.507 476.691C556.547 476.671 556.587 476.651 556.627 476.631C559.337 474.991 562.237 472.891 565.047 470.851C570.137 467.161 575.407 463.341 578.257 463.341C578.887 463.341 579.307 463.531 579.627 463.941C580.517 465.091 581.057 468.471 578.647 477.981C578.177 478.021 577.677 478.041 577.147 478.041C575.167 478.041 573.067 477.751 570.857 477.451C568.637 477.151 566.337 476.831 564.147 476.831C560.317 476.831 557.537 477.801 555.387 479.891C555.117 480.151 555.017 480.541 555.127 480.891C555.237 481.251 555.527 481.521 555.897 481.591C566.757 483.661 578.727 484.671 592.487 484.671C613.127 484.671 634.047 482.411 654.277 480.231L656.537 479.991C656.947 479.961 657.477 479.941 658.187 479.941C658.787 479.941 659.437 479.951 660.117 479.961C660.877 479.971 661.667 479.991 662.467 479.991C666.547 479.991 670.517 479.661 671.977 477.231C672.817 475.841 672.637 474.011 671.457 471.781C671.447 471.751 671.427 471.731 671.417 471.711L671.407 471.721ZM646.037 475.131L623.937 477.801L628.757 461.791C637.187 463.591 645.187 466.101 650.947 474.531L646.037 475.121V475.131ZM604.327 452.211C584.887 452.211 567.267 457.941 553.117 468.811C560.037 452.911 579.357 444.371 595.147 444.371C597.557 444.371 599.927 444.561 602.187 444.931C606.097 445.511 610.267 445.761 614.297 446.001C626.337 446.721 638.797 447.471 647.017 456.801C647.117 456.911 647.237 457.001 647.377 457.061C654.067 459.921 658.327 463.451 661.717 469.121C644.437 458.191 624.207 452.211 604.327 452.211Z" fill="black"/>
<path d="M317.657 487.351C321.207 487.351 323.357 485.851 324.077 482.881C326.807 482.921 329.527 482.941 332.167 482.941C365.607 482.941 394.247 479.771 422.277 472.951C422.677 472.851 422.977 472.521 423.027 472.121C423.077 471.721 422.887 471.311 422.527 471.111C422.067 470.851 421.607 470.591 421.137 470.331C421.517 470.121 421.727 469.691 421.637 469.261C417.777 450.101 401.707 439.971 375.157 439.971C351.697 439.971 328.147 447.761 321.497 450.151C314.267 452.411 306.937 456.621 301.417 461.671C295.537 467.061 292.667 472.501 293.317 477.011C293.977 481.561 298.497 487.031 316.287 487.301C316.777 487.341 317.227 487.361 317.657 487.361V487.351ZM337.987 477.101C318.947 476.441 317.077 474.351 316.967 473.711C316.927 473.491 317.017 472.221 322.647 469.291C326.087 467.501 330.947 465.391 338.207 462.551C335.977 467.451 334.837 472.101 337.987 477.101ZM378.617 474.521L384.807 461.801C387.217 463.101 390.347 464.001 393.647 464.961C398.727 466.431 403.967 467.951 406.077 470.881L378.617 474.521ZM306.517 474.141C306.657 474.501 306.997 474.751 307.387 474.771C308.157 474.821 308.377 475.201 308.647 477.051C308.697 477.411 308.757 477.771 308.827 478.131C308.307 478.291 307.807 478.371 307.327 478.371C305.497 478.371 303.987 477.221 302.077 475.771C301.167 475.081 300.157 474.311 299.007 473.611C311.887 460.271 327.057 452.221 344.127 449.661C344.177 449.661 344.237 449.641 344.287 449.621C353.337 446.711 362.327 445.231 370.997 445.231C385.547 445.231 405.677 449.441 419.417 469.391C399.627 458.791 377.447 452.761 358.027 452.761C336.997 452.761 319.257 459.791 306.727 473.091C306.457 473.371 306.387 473.781 306.527 474.141H306.517Z" fill="black"/>
<path d="M503.959 593.941C501.869 596.571 501.219 599.701 502.039 603.241C502.119 603.571 502.359 603.841 502.679 603.961C502.789 604.001 502.899 604.021 503.019 604.021C503.239 604.021 503.449 603.951 503.629 603.811L505.939 602.021C506.719 604.251 508.659 605.371 511.729 605.371C514.319 605.371 517.559 604.621 520.999 603.821C525.029 602.891 529.199 601.921 533.039 601.921C536.149 601.921 538.579 602.571 540.459 603.901C540.629 604.021 540.829 604.081 541.039 604.081C541.139 604.081 541.229 604.071 541.329 604.041C541.619 603.951 541.859 603.741 541.969 603.451C543.289 600.121 543.049 596.971 541.279 594.361C538.939 590.911 532.759 587.221 522.469 587.221C514.229 587.221 507.309 589.731 503.959 593.951V593.941Z" fill="black"/>
<path d="M421.377 598.15C421.377 598.15 421.347 598.21 421.327 598.24C420.467 600.22 420.387 601.71 421.097 602.79C422.017 604.2 423.907 604.36 425.247 604.36C426.437 604.36 427.717 604.21 428.947 604.07C429.447 604.01 429.937 603.95 430.397 603.91C431.597 604.07 432.807 604.15 433.997 604.15C439.867 604.15 444.917 602.27 450.267 600.28C452.787 599.34 455.397 598.37 458.177 597.57C458.597 597.45 458.887 597.07 458.897 596.64C458.997 593.33 458.117 590.69 456.287 588.81C454.277 586.74 451.127 585.65 447.157 585.65C437.697 585.65 424.917 591.84 421.367 598.15H421.377Z" fill="black"/>
<path d="M360.819 505.76C369.169 505.37 377.809 504.97 386.229 504.97C392.699 504.97 398.449 505.2 403.809 505.68C403.839 505.68 403.869 505.68 403.899 505.68C404.309 505.68 404.689 505.42 404.839 505.03C404.999 504.61 404.849 504.13 404.479 503.87C400.069 500.71 393.719 499.24 384.479 499.24C379.929 499.24 375.169 499.58 370.559 499.91C366.099 500.23 361.889 500.53 357.999 500.53C356.999 500.53 356.049 500.51 355.179 500.47C355.159 500.47 355.149 500.47 355.129 500.47C355.069 500.47 355.019 500.47 354.959 500.48C352.559 500.89 349.849 501.09 346.669 501.09C342.139 501.09 337.249 500.68 332.519 500.28C327.839 499.89 323.009 499.48 318.569 499.48C312.239 499.48 307.629 500.31 304.049 502.09C303.669 502.28 303.449 502.7 303.499 503.12C303.549 503.54 303.879 503.89 304.299 503.97C313.379 505.73 323.249 506.54 335.349 506.54C343.799 506.54 352.439 506.14 360.799 505.75L360.819 505.76Z" fill="black"/>
<path d="M628.186 618.97C628.076 618.52 627.686 618.2 627.226 618.2C621.206 618.14 617.536 615.44 615.666 609.71C615.666 609.69 615.656 609.67 615.646 609.65C607.176 588.26 591.786 569.5 575.476 560.7C575.326 560.62 575.166 560.58 575.006 560.58C574.756 560.58 574.516 560.67 574.326 560.85C574.016 561.14 573.916 561.6 574.086 561.99C577.296 569.28 583.396 574.98 589.286 580.49C595.736 586.52 602.396 592.76 605.486 601.16C605.486 601.19 605.506 601.21 605.516 601.24C606.176 602.64 606.816 604.23 607.496 605.91C610.356 612.99 613.916 621.79 621.496 621.79C623.396 621.79 625.476 621.22 627.666 620.09C628.076 619.88 628.286 619.42 628.186 618.97Z" fill="black"/>
<path d="M638.956 499.7C635.676 499.7 631.866 500.33 628.186 500.94C624.826 501.5 621.656 502.02 619.186 502.02C618.296 502.02 617.546 501.95 616.936 501.81C616.866 501.79 616.786 501.78 616.706 501.78C616.636 501.78 616.576 501.78 616.506 501.8C614.686 502.17 612.546 502.35 610.146 502.35C602.756 502.35 593.846 500.65 585.226 499.01C577.316 497.5 569.836 496.08 564.106 496.08C560.446 496.08 557.786 496.67 555.986 497.89C555.686 498.09 555.516 498.45 555.546 498.81C555.576 499.17 555.816 499.49 556.146 499.63C570.046 505.55 584.696 506.31 595.896 506.31C601.626 506.31 607.486 506.08 613.146 505.87C618.786 505.65 624.626 505.43 630.316 505.43C636.506 505.43 641.886 505.7 646.756 506.26C646.796 506.26 646.836 506.26 646.866 506.26C647.136 506.26 647.406 506.15 647.596 505.94C647.816 505.71 647.906 505.39 647.856 505.08C646.896 499.68 640.906 499.68 638.936 499.68L638.956 499.7Z" fill="black"/>
<path d="M468.597 459.611C468.417 459.461 468.187 459.371 467.957 459.371C467.887 459.371 467.817 459.371 467.747 459.391C463.157 460.381 463.057 466.381 462.957 472.191C462.907 475.311 462.847 478.531 462.057 480.491C462.027 480.561 462.007 480.641 461.997 480.721C458.877 501.971 453.367 517.151 444.127 529.951C442.387 532.401 441.747 535.091 442.247 537.731C442.317 538.081 442.557 538.361 442.887 538.481C442.997 538.521 443.117 538.541 443.227 538.541C443.457 538.541 443.677 538.461 443.867 538.311C463.507 522.151 468.027 482.561 468.967 460.401C468.977 460.091 468.847 459.791 468.617 459.591L468.597 459.611Z" fill="black"/>
<path d="M412.527 559.44C412.697 559.19 412.747 558.88 412.657 558.59C412.567 558.3 412.357 558.07 412.077 557.95C410.817 557.43 409.667 557.17 408.657 557.17C404.527 557.17 403.517 561.26 403.097 563C402.867 563.88 402.597 564.9 402.307 566C399.257 577.43 394.147 596.56 400.177 604.41C401.917 606.67 404.437 607.82 407.687 607.82C409.927 607.82 412.557 607.26 415.507 606.17C415.877 606.03 416.127 605.7 416.157 605.31C416.237 604.3 415.997 603.48 415.437 602.88C414.577 601.95 413.207 601.84 412.257 601.84C411.717 601.84 411.187 601.88 410.677 601.91C410.457 601.93 410.247 601.94 410.037 601.95C406.947 601.79 404.837 600.5 403.597 598.01C401.607 594.01 401.957 586.85 404.587 577.83C406.837 570.11 410.287 562.73 412.537 559.43L412.527 559.44Z" fill="black"/>
<path d="M518.137 460.271C517.947 460.061 517.677 459.951 517.397 459.951C517.337 459.951 517.287 459.951 517.227 459.961C516.897 460.021 516.607 460.241 516.477 460.551C512.447 469.871 515.227 498.951 523.067 512.721C525.857 517.611 529.077 520.321 532.657 520.781C532.697 520.781 532.737 520.781 532.787 520.781C533.127 520.781 533.437 520.611 533.627 520.321C533.837 520.001 533.837 519.581 533.637 519.251C527.687 509.541 521.637 497.601 521.937 482.741C521.937 482.681 521.937 482.611 521.927 482.551C521.537 480.251 521.587 477.771 521.637 475.141C521.737 469.821 521.847 464.311 518.127 460.261L518.137 460.271Z" fill="black"/>
<path d="M416.118 290.05C418.118 290.09 420.188 290.11 422.278 290.11C435.788 290.11 449.528 289.22 462.818 288.36C476.338 287.48 490.308 286.58 504.278 286.58C509.058 286.58 513.708 286.69 518.098 286.9C518.118 286.9 518.128 286.9 518.148 286.9C518.648 286.9 519.078 286.53 519.138 286.03C519.208 285.51 518.858 285.03 518.348 284.93C512.308 283.69 505.778 283.08 498.378 283.08C491.928 283.08 485.408 283.53 479.088 283.96C472.708 284.4 466.118 284.85 459.538 284.85C459.128 284.85 458.708 284.85 458.298 284.85C458.298 284.85 458.208 284.85 458.158 284.85C455.508 285.21 452.568 285.38 448.888 285.38C446.548 285.38 444.138 285.31 441.808 285.25C439.458 285.18 437.028 285.12 434.658 285.12C428.768 285.12 421.928 285.48 415.758 288.15C415.328 288.34 415.078 288.8 415.178 289.26C415.268 289.72 415.668 290.06 416.138 290.07L416.118 290.05Z" fill="black"/>
<path d="M384.196 577.6C383.986 577.6 383.776 577.67 383.596 577.8C376.566 583.09 371.336 590.52 366.276 597.71C359.846 606.84 353.776 615.47 344.336 620.18C342.906 620.49 341.616 621.77 340.756 623.74C339.796 625.95 339.386 629.24 340.726 631.24C340.886 631.48 341.146 631.64 341.426 631.67C341.466 631.67 341.506 631.67 341.546 631.67C341.786 631.67 342.026 631.58 342.206 631.42C352.546 622.22 361.296 611 369.756 600.15C374.926 593.52 380.276 586.67 385.906 580.38C386.246 580 386.246 579.43 385.906 579.05L384.926 577.93C384.726 577.71 384.456 577.59 384.176 577.59L384.196 577.6Z" fill="black"/>
<path d="M520.007 774.521C517.937 773.231 515.537 772.611 512.667 772.611C510.427 772.611 508.147 772.981 505.937 773.331C504.497 773.561 503.127 773.781 501.777 773.911C501.737 773.911 501.697 773.911 501.657 773.931C495.877 775.151 489.557 775.551 483.457 775.931C473.167 776.571 462.537 777.241 453.627 781.831C453.267 782.021 453.047 782.411 453.087 782.821C453.127 783.231 453.417 783.571 453.807 783.681C454.397 783.851 455.017 784.171 455.667 784.501C456.767 785.071 457.897 785.651 459.157 785.651C459.937 785.651 460.677 785.421 461.357 784.951C471.347 782.221 481.247 781.281 491.737 780.291C500.867 779.431 510.297 778.531 519.697 776.341C520.087 776.251 520.387 775.931 520.457 775.531C520.527 775.131 520.347 774.731 519.997 774.521H520.007Z" fill="black"/>
<path d="M552.137 609.791L553.357 611.071C553.557 611.271 553.817 611.381 554.077 611.381C554.297 611.381 554.507 611.311 554.697 611.171C560.997 606.231 565.247 596.551 566.077 585.271C566.887 574.241 564.237 564.361 558.997 558.841C558.807 558.641 558.537 558.531 558.267 558.531C558.127 558.531 557.987 558.561 557.857 558.621C557.467 558.801 557.237 559.201 557.277 559.621C557.717 564.281 558.337 568.331 558.897 571.911C560.897 584.811 562.097 592.601 552.007 608.571C551.757 608.961 551.817 609.471 552.127 609.801L552.137 609.791Z" fill="black"/>
<path d="M346.009 645.941C345.869 645.941 345.739 645.971 345.609 646.031C337.299 649.711 329.489 659.121 326.179 669.441C323.529 677.681 324.009 685.501 327.509 691.451C327.689 691.761 328.019 691.941 328.369 691.941C328.439 691.941 328.499 691.941 328.569 691.921C328.989 691.831 329.309 691.491 329.359 691.071C329.569 689.451 329.749 687.901 329.929 686.431C331.979 669.641 332.909 661.981 346.729 647.641C347.059 647.301 347.099 646.761 346.829 646.371C346.639 646.101 346.329 645.941 346.009 645.941Z" fill="black"/>
<path d="M624.117 647.62C624.037 647.6 623.947 647.59 623.857 647.59C623.617 647.59 623.377 647.68 623.197 647.84C622.947 648.06 622.827 648.4 622.867 648.73C622.927 649.13 622.937 649.58 622.957 650.05C622.997 651.23 623.047 652.44 623.717 653.4C623.737 653.42 623.747 653.44 623.767 653.47C633.667 665.23 631.917 676.4 629.697 690.53C629.527 691.64 629.347 692.75 629.177 693.89C629.117 694.31 629.317 694.72 629.687 694.92C629.837 695 629.997 695.04 630.167 695.04C630.407 695.04 630.647 694.95 630.827 694.79C637.427 688.93 638.317 674.53 635.797 663.94C633.657 654.97 629.407 649.02 624.117 647.62Z" fill="black"/>
<path d="M498.289 316.49C498.719 316.49 499.099 316.22 499.239 315.8C499.389 315.35 499.199 314.86 498.789 314.62C493.219 311.4 481.369 310.25 472.129 310.25C461.469 310.25 448.449 311.76 443.889 315.99C443.569 316.29 443.479 316.77 443.669 317.16C443.839 317.51 444.189 317.72 444.569 317.72C444.619 317.72 444.679 317.72 444.729 317.71C454.679 316.06 465.009 315.23 475.429 315.23C482.829 315.23 490.479 315.65 498.169 316.48C498.209 316.48 498.239 316.48 498.279 316.48L498.289 316.49Z" fill="black"/>
<path d="M474.206 615.351C478.016 615.351 482.096 614.501 486.036 613.691C489.176 613.041 492.136 612.421 494.746 612.281C495.276 612.251 495.686 611.821 495.686 611.291L495.706 609.581C495.706 609.031 495.276 608.581 494.726 608.571C492.336 608.521 489.776 608.291 487.056 608.041C483.826 607.751 480.486 607.441 477.236 607.441C471.636 607.441 467.516 608.361 464.256 610.351C463.986 610.511 463.816 610.791 463.786 611.101C463.756 611.411 463.866 611.721 464.096 611.931C466.566 614.231 469.866 615.351 474.196 615.351H474.206Z" fill="black"/>
<path d="M407.409 712.051C406.509 708.161 405.669 704.481 402.299 702.131C402.129 702.011 401.929 701.951 401.729 701.951C401.519 701.951 401.309 702.021 401.129 702.151C398.789 703.911 399.909 710.541 401.169 714.321C401.969 716.731 403.729 720.781 406.479 720.781C407.429 720.781 408.329 720.291 409.129 719.341C409.379 719.051 409.429 718.641 409.279 718.291C408.379 716.271 407.889 714.131 407.409 712.061V712.051Z" fill="black"/>
<path d="M541.939 690.801C541.799 690.731 541.649 690.701 541.499 690.701C541.279 690.701 541.069 690.771 540.889 690.911C538.459 692.781 536.969 696.141 536.799 700.141C536.599 704.671 538.149 709.001 540.829 711.461C541.019 711.631 541.259 711.721 541.509 711.721C541.649 711.721 541.779 711.691 541.909 711.641C542.269 711.481 542.509 711.121 542.509 710.721V691.701C542.509 691.321 542.289 690.971 541.949 690.801H541.939Z" fill="black"/>
<path d="M448.307 691.71C448.227 691.69 448.147 691.68 448.057 691.68C447.727 691.68 447.417 691.84 447.227 692.12C443.627 697.45 445.077 711.56 449.547 714.65C449.717 714.77 449.917 714.83 450.117 714.83C450.287 714.83 450.467 714.78 450.627 714.69C450.967 714.49 451.157 714.12 451.117 713.73L449.057 692.58C449.017 692.16 448.717 691.81 448.307 691.71Z" fill="black"/>
<path d="M484.318 691.961C484.128 691.961 483.938 692.011 483.768 692.121C480.198 694.461 481.308 698.921 482.298 702.861C482.788 704.811 483.288 706.831 483.178 708.371C483.158 708.671 483.268 708.961 483.488 709.171C483.678 709.351 483.918 709.451 484.178 709.451C484.218 709.451 484.258 709.451 484.298 709.451L486.128 709.221C486.388 709.191 486.628 709.051 486.798 708.841C486.958 708.631 487.038 708.361 486.998 708.101C486.788 706.481 486.918 704.731 487.048 702.881C487.318 699.181 487.588 695.351 485.098 692.331C484.898 692.091 484.618 691.971 484.328 691.971L484.318 691.961Z" fill="black"/>
<path d="M519.196 690.55C519.086 690.51 518.966 690.49 518.846 690.49C518.566 690.49 518.286 690.61 518.086 690.83C513.846 695.71 513.846 704.56 518.086 709.39C518.276 709.61 518.556 709.73 518.836 709.73C518.956 709.73 519.076 709.71 519.186 709.67C519.576 709.52 519.836 709.15 519.836 708.73V691.48C519.836 691.06 519.576 690.69 519.186 690.54L519.196 690.55Z" fill="black"/>
<path d="M748.937 584.08C748.807 584.02 748.657 583.99 748.517 583.99C748.347 583.99 748.167 584.04 748.017 584.13C747.737 584.29 747.547 584.58 747.527 584.91C747.377 586.64 747.247 588.39 747.127 590.08C746.367 600.69 745.647 610.71 738.717 619.49C737.987 620.47 738.117 621.78 738.257 623.29C738.327 624 738.397 624.74 738.397 625.52C738.397 625.91 738.627 626.26 738.977 626.43C739.107 626.49 739.257 626.52 739.397 626.52C739.627 626.52 739.857 626.44 740.047 626.28C747.947 619.61 753.597 600.23 752.217 590.07C751.787 586.91 750.687 584.9 748.947 584.1L748.937 584.08Z" fill="black"/>
<path d="M748.639 656.6C748.639 656.6 748.639 656.6 748.629 656.6C748.249 656.6 747.899 656.83 747.739 657.18C746.659 659.51 746.039 662.63 745.399 665.94C744.179 672.16 742.919 678.59 738.529 678.59C736.989 678.59 735.049 677.86 732.769 676.41C732.609 676.31 732.419 676.25 732.229 676.25C732.039 676.25 731.849 676.3 731.689 676.41C731.359 676.62 731.189 677.01 731.239 677.39C731.309 677.88 731.349 678.53 731.389 679.15C731.519 681.21 731.609 682.6 732.619 682.98C734.719 684.09 736.779 684.65 738.729 684.65C742.439 684.65 745.779 682.57 748.129 678.78C751.909 672.68 752.539 663.18 749.549 657.15C749.379 656.81 749.029 656.59 748.649 656.59L748.639 656.6Z" fill="black"/>
</svg>
