<svg width="565" height="555" viewBox="0 0 565 555" fill="none" xmlns="http://www.w3.org/2000/svg">
<path d="M178.101 401.076C178.204 399.775 178.083 396.521 178.101 394.839C178.077 393.279 178.095 391.639 177.92 390.188C177.889 390.055 177.889 389.873 177.805 389.91C177.381 391.748 177.575 399.787 178.059 401.209C178.071 401.209 178.083 401.172 178.095 401.112V401.076H178.101Z" fill="#222222"/>
<path d="M178.41 394.718C178.367 394.615 178.325 394.476 178.271 394.567C178.198 394.87 178.64 397.682 178.694 398.057C178.634 397.095 178.646 395.698 178.428 394.797L178.404 394.718H178.41Z" fill="#222222"/>
<path d="M178.736 392.468C178.621 393.412 178.96 398.408 178.966 398.481C178.9 396.805 178.864 394.035 178.736 392.468Z" fill="#222222"/>
<path d="M177.756 414.607C177.889 413.953 177.998 412.756 178.162 411.976C178.325 410.941 178.682 410.125 178.706 409.169C178.64 407.288 178.283 404.487 177.98 402.866C177.926 402.769 177.926 402.848 177.901 402.945C177.762 406.386 177.399 410.76 177.46 414.159C177.514 414.927 177.647 415.091 177.75 414.661L177.762 414.613L177.756 414.607Z" fill="#222222"/>
<path d="M318.366 126.846C339.58 116.733 361.574 130.088 382.436 135.417C430.557 147.273 447.77 144.95 440.129 183.572C437.442 194.188 437.702 207.265 429.371 215.153C418.879 222.877 401.489 217.342 391.064 226.01C375.617 240.455 384.397 267.439 383.555 285.513C382.618 293.092 382.841 301.657 382.993 308.728C381.516 322.059 384.826 391.029 383.882 404.56C384.415 416.234 382.648 430.412 383.61 442.208C383.779 442.939 384.033 442.486 383.943 441.306C383.804 440.078 383.761 438.82 383.876 437.864C383.882 437.393 384.094 437.925 384.082 438.1C384.372 440.217 384.409 443.139 384.463 445.45C384.735 451.287 385.31 455.848 383.555 461.237C383.574 457.311 383.894 448.516 382.878 444.633C382.303 449.629 383.586 456.362 382.539 461.298C382.303 462.695 381.777 464.02 381.208 465.302C380.427 467.207 379.937 468.35 380.784 467.582C381.051 467.358 381.408 467.032 381.68 466.838C381.934 466.651 382.061 466.645 381.819 466.959C371.745 476.692 349.799 473.51 336.639 473.256C311.112 473.915 283.769 474.278 258.496 473.474C250.134 474.369 240.9 474.623 232.714 473.589C232.339 473.534 232.091 473.619 232.641 473.819C233.446 474.345 233.271 474.411 231.225 474.611C221.538 475.337 211.446 474.641 201.753 474.061C195.944 474.405 183.232 471.732 181.054 465.907C179.922 462.562 180.255 461.455 179.995 457.813C180.043 454.341 178.743 448.982 179.795 445.698C180.8 437.465 178.029 428.319 178.513 420.093C177.405 414.026 177.587 425.725 177.92 427.557C178.186 434.138 178.942 441.149 178.864 447.712C178.791 447.924 178.634 445.286 178.398 442.462C178.325 441.458 178.252 440.659 178.156 439.721C178.035 438.633 177.92 438.463 177.859 439.117C178.942 450.416 174.876 469.276 189.204 472.917C189.428 473.087 190.214 473.214 189.882 473.401C189.319 473.498 187.322 473.159 187.728 473.444C194.758 476.317 203.133 476.389 210.52 476.589C216.553 477.2 221.865 476.94 227.867 476.293C237.681 476.583 246.897 477.672 256.553 476.613C258.054 476.335 271.855 477.2 263.36 477.406C260.934 477.484 257.588 477.575 255.567 477.696C274.838 478.658 300.795 477.043 321.845 476.91C331.611 478.283 341.171 477.527 351.324 477.218C361.229 477.623 374.092 478.543 380.833 471.121C399.559 450.507 383.816 346.497 389.128 316.761C389.37 307.839 388.42 298.608 388.287 289.837C388.251 288.803 388.698 290.019 388.759 290.303C389.673 279.143 388.686 265.896 389.104 253.768C388.584 238.616 391.488 228.303 407.595 226.779C419.103 225.412 436.801 224.571 440.074 211.65C440.449 209.793 441.012 207.767 442.44 206.775C442.918 205.668 443.408 203.745 443.529 202.474C444.4 187.667 449.888 172.841 447.323 158.01C441.653 138.424 406.778 138.714 390.598 132.29C393.569 132.248 402.724 135.296 408.175 136.222C409.742 136.44 411.304 137.026 412.568 137.045C412.568 136.942 410.481 136.385 409.954 136.107C409.621 135.865 411.31 136.143 410.227 135.823C410.124 135.792 410.003 135.756 409.851 135.714C398.283 132.593 386.278 128.927 374.51 127.403C374.958 127.596 376.307 128.032 378.14 128.57C380.79 129.604 383.725 129.84 385.304 131.232C381.172 131.238 376.525 129.344 372.531 128.135C366.166 124.947 359.994 123.749 353.315 122.382C352.595 122.219 351.79 121.892 351.136 121.517C350.725 121.263 351.312 121.245 351.893 121.287C353.841 121.354 349.66 120.404 349.236 120.011C348.184 119.551 350.344 119.908 349.013 119.533C348.238 119.134 343.718 118.329 346.677 117.979C347.143 117.888 347.306 117.797 346.834 117.501C344.559 116.509 340.185 116.914 337.492 116.001C325.917 115.922 315.026 122.443 304.994 127.457C304.172 127.905 303.512 127.82 302.768 127.705C302.205 127.723 300.983 128.34 298.926 129.175C292.343 131.957 284.519 132.974 277.174 132.212C270.258 131.685 264.806 128.377 258.81 125.594C241.197 113.333 218.749 117.071 199.454 123.38C186.62 126.181 174.295 130.711 161.988 133.875C116.046 145.416 108.967 149.354 121.48 198.234C121.238 199.377 123.065 203.424 121.958 203.793C121.825 203.878 121.595 203.702 121.716 204.706C122.163 207.422 122.914 210.066 124.323 212.461C125.685 214.947 129.612 218.988 132.322 221.292C135.378 222.938 140.249 223.065 143.667 224.335C144.599 224.704 143.667 225.212 144.581 225.696C144.956 225.877 145.331 225.968 145.906 226.089C154.207 227.517 164.318 226.149 171.5 231.388C176.195 236.807 175.796 245.663 176.673 252.565C176.643 253.69 176.474 251.337 176.219 250.974C176.044 256.896 177.188 263.398 177.054 269.459C178.15 286.789 178.047 305.673 178.585 322.949C178.664 322.846 178.7 321.944 178.761 320.704C180.685 299.34 180.86 277.994 179.916 255.994C179.801 247.103 179.807 237.273 175.566 229.271C165.219 215.981 142.542 226.833 131.735 214.052C124.202 199.045 121.026 176.102 122.478 160.224C125.661 146.698 144.417 146.087 154.746 141.684C154.582 141.23 150.238 142.984 149.881 142.67C157.723 140.063 168.82 136.893 176.407 134.764C176.576 134.734 176.71 134.704 176.824 134.734C176.843 134.946 176.389 135.085 176.232 135.236C195.224 132.097 224.074 117.67 244.367 125.292C250.672 127.288 256.305 129 261.745 132.49C279.806 143.402 301.134 136.421 318.239 126.901L318.348 126.852L318.366 126.846ZM272.624 473.794C272.721 473.794 273.356 473.831 273.144 473.885C272.781 473.921 272.388 473.934 272.067 473.958C271.771 473.976 271.553 473.988 271.48 473.982C271.287 473.958 272.333 473.813 272.509 473.8H272.618L272.624 473.794ZM313.502 474.018C312.969 474.006 312.279 473.994 311.868 473.964C311.438 473.934 311.481 473.873 312.231 473.819C315.529 473.601 319.377 473.873 322.741 473.692C323.739 473.655 324.774 473.625 325.736 473.655C326.135 473.686 327.188 473.692 327.236 473.903C327.285 474.139 324.477 474.327 323.618 474.284C320.442 474.284 316.412 474.006 313.611 474.024H313.514L313.502 474.018ZM218.447 476.807C218.555 476.783 218.804 476.722 218.997 476.692C219.312 476.643 218.574 476.783 218.428 476.813H218.447V476.807ZM244.18 476.305C244.137 476.389 245.668 476.553 245.892 476.528C245.989 476.522 245.977 476.498 245.868 476.462C245.396 476.335 244.682 476.25 244.216 476.293L244.18 476.305ZM295.477 477.067C295.719 477.224 300.795 477.242 301.328 477.145C299.561 477.073 297.244 477 295.489 477.061H295.477V477.067ZM437.503 214.929C437.037 215.812 436.371 216.75 436.208 217.621C436.45 217.887 439.378 212.685 439.348 212.092C439.36 212.019 439.348 211.989 439.288 212.044C438.664 212.854 438.126 213.925 437.575 214.808L437.503 214.929ZM359.184 124.959C361.985 124.862 358.439 123.719 357.556 123.665C356.352 123.465 355.329 123.471 355.59 123.779C356.491 124.445 357.913 124.85 359.057 124.953H359.178L359.184 124.959Z" fill="#222222"/>
</svg>
