<svg width="565" height="555" viewBox="0 0 565 555" fill="none" xmlns="http://www.w3.org/2000/svg">
<path d="M290.777 236.173C301.91 225.173 314.691 203.472 302.421 190.985C299.373 187.682 295.53 186.54 291.371 186.764C289.487 186.835 287.212 186.84 285.699 187.278C285.094 187.431 284.67 187.803 284.191 188.174C283.848 188.431 283.407 188.677 283.015 188.415C282.688 188.174 282.492 187.852 282.106 188.164C281.768 188.371 280.592 189.093 279.76 189.345C278.132 189.798 276.336 189.58 274.604 189.591C272.465 189.612 270.364 189.421 268.306 189.077C264.801 188.475 260.914 187.185 257.474 188.486C256.417 188.841 255.4 189.306 254.376 189.744C253.674 190.022 252.977 190.279 252.34 190.684C251.306 191.335 250.615 192.384 249.847 193.308C248.682 194.735 247.218 196.217 247.191 198.169C247.18 198.792 247.392 199.569 247.778 198.59C248.045 197.945 248.285 197.289 248.617 196.665C249.27 195.791 250.081 194.845 250.696 193.904C251.518 192.663 252.912 192.045 254.289 191.679C255.302 191.4 256.27 191.045 257.31 190.854C258.965 190.58 260.669 190.099 262.09 190.996C264.191 192.193 267.092 192.018 269.433 192.483C272.634 193.079 275.416 193.39 278.878 192.98C283.107 192.789 288.203 191.176 292.59 191.767C295.965 192.199 298.366 193.959 299.667 197.147C300.886 199.678 301.969 202.773 301.937 205.528C301.969 206.671 301.561 207.715 301.18 208.732C300.777 209.727 300.478 210.782 300.211 211.832C299.738 214.38 298.752 216.95 297.582 219.295C297.059 220.329 296.52 221.772 295.829 222.324C295.709 222.297 295.644 221.756 295.459 221.564C294.991 221.225 294.392 222.773 294.223 223.166C294.038 223.729 293.799 224.271 293.984 224.878C294.196 225.43 294.604 225.736 294.185 226.376C293.978 226.726 293.788 227.054 293.505 227.393C293.004 228.005 292.487 228.459 291.986 228.743C291.561 229.044 291.077 229.115 290.581 228.967C290.13 228.891 289.645 228.929 289.313 229.257C288.491 230.033 287.696 231.816 286.477 233.051C285.737 233.899 284.795 234.539 283.908 235.178C282.835 235.9 281.85 236.835 280.799 237.579C279.297 238.628 277.56 239.35 275.671 239.432C271.975 239.536 269.411 236.786 266.804 234.38C265.672 233.308 264.599 232.188 263.494 231.089C261.11 228.776 260.163 227.119 258.132 225.315C256.368 223.877 255.269 221.92 254.131 219.94C252.765 217.699 251.567 216.162 250.37 214.101C249.749 213.019 249.052 212.007 248.617 210.793C247.632 207.71 246.374 206.775 246.793 210.93C247.011 213.123 247.817 215.468 248.551 217.425C249.733 220.673 251.028 223.352 253.228 226.255C255.813 229.645 258.638 233.724 261.834 236.704C263.26 238.054 265.046 238.973 266.221 240.17C267.37 241.4 268.508 242.74 270.054 243.516C274.937 245.938 279.498 244.96 283.439 241.477C285.9 239.809 288.524 238.371 290.723 236.234L290.799 236.168L290.777 236.173ZM264.267 188.492C264.365 188.634 264.153 188.59 264.066 188.617C263.989 188.606 263.989 188.595 264.218 188.486H264.267V188.492ZM270.32 190.11C270.266 190.072 269.972 190.006 270.075 189.913C270.348 189.798 271.104 190.083 271.415 190.104C271.757 190.132 272.03 190.061 272.296 190.263C272.536 190.886 270.642 190.137 270.391 190.132L270.32 190.11ZM256.292 191.603C256.303 191.559 256.309 191.504 256.336 191.46L256.292 191.603ZM259.705 190.438C259.727 190.487 259.945 190.662 259.967 190.602C259.918 190.498 259.836 190.422 259.716 190.405L259.705 190.438ZM266.989 192.231C267.038 192.39 267.724 192.57 267.865 192.527C267.795 192.434 267.234 192.27 266.994 192.209V192.231H266.989ZM302.383 207.715C302.301 207.179 302.013 207.207 301.937 207.71C301.806 208.322 302.193 208.174 302.372 207.797V207.715H302.383ZM293.031 228.743C293.009 228.339 292.421 227.896 292.263 228.475C292.133 229 292.813 229.388 293.02 228.842L293.031 228.743Z" fill="#222222"/>
<path d="M183.098 294.807C178.155 274.222 181.073 253.675 180.082 232.969C160.594 128.896 254.686 148.043 330.701 150.405C366.471 153.183 371.745 185.441 370.276 218.246C369.786 243.013 373.384 269.06 368.332 292.997C367.63 300.072 361.833 305.31 355.017 306.884C350.782 307.141 346.694 303.095 344.756 299.437C337.434 286.715 339.459 267.059 339.106 251.914C339.236 250.4 339.149 253.702 339.351 254.074C339.851 246.769 339.47 237.655 338.926 230.148C338.942 223.609 338.763 221.061 336.166 215.709C333.134 209.869 327.685 212.33 325.791 220.739C325.11 224.019 324.549 227.71 325.268 230.804C325.469 230.837 325.437 230.416 325.502 230.23C325.769 227.814 325.654 219.033 326.253 221.849C326.166 228.262 325.35 236.802 325.616 243.205C325.823 249.088 325.132 255.556 324.876 261.608C324.392 252.067 324.68 241.838 324.588 232.417C324.588 231.734 324.577 231.182 324.56 230.815C324.533 230.219 324.484 230.11 324.413 230.531C323.472 244.746 323.978 258.978 324.435 273.298C324.495 273.467 324.468 273.899 324.566 273.593C324.882 271.236 324.773 268.092 325.197 265.638C325.611 270.165 324.849 276.332 324.691 281.318C324.136 302.477 326.324 322.324 324.647 343.292C324.68 366.66 326.123 389.066 325.219 412.27C325.703 426.682 324.675 452.663 324.974 463.456C326.574 472.461 325.899 484.233 324.707 492.762C324.539 494.424 324.119 496.37 324.087 497.633C324.37 497.251 324.686 495.413 325.067 495.135C324.903 500.329 322.998 507.136 319.503 511.756C313.123 520.012 299.52 521.832 291.218 515.534C285.492 511.657 282.498 501.783 281.512 494.85C281.447 494.561 281.404 494.479 281.36 494.468C281.251 494.5 281.191 494.522 281.126 494.418C280.451 491.701 280.249 488.475 280.211 485.567C280.277 483.702 280.064 480.515 280.484 478.749C280.522 478.749 280.554 478.874 280.582 478.967C280.598 479.033 280.614 479.093 280.62 479.077C280.663 478.77 280.609 478.109 280.582 476.775C280.38 470.099 280.124 459.093 280.402 455.61C280.511 455.058 280.663 457.097 280.794 457.54C280.685 452.056 281.012 445.916 281.055 440.547C280.674 433.298 278.763 425.703 280.037 418.497C279.939 417.71 279.972 414.167 279.379 412.773C278.268 428.874 280.609 445.61 279.874 461.619C279.743 460.99 279.776 460.301 279.732 459.607C279.591 455.299 279.77 449.224 279.297 444.752C279.139 443.298 279.025 443.429 279.014 444.883C278.905 456.95 279.498 467.617 279.275 479.596C278.638 488.169 280.418 497.907 283.352 505.834C283.363 506.059 283.303 506.152 283.124 505.906C282.525 505.124 281.561 502.308 281.017 500.947C280.925 500.711 280.821 500.416 280.734 500.214C281.104 503.85 284.648 511.794 288.393 515.091C297.239 524.571 314.038 522.767 321.452 512.641C322.334 511.411 324.043 508.924 322.737 509.52C323.167 507.863 323.891 506.616 324.588 504.528C329.013 491.761 328.257 478.546 328.066 465.129C328.039 463.811 328.001 462.767 327.968 462.204C327.897 460.843 327.777 461.849 327.636 461.143C327.484 460.329 327.511 459.476 327.5 458.596C327.494 457.759 327.56 456.485 327.908 455.895C328.213 453.522 327.886 450.733 327.979 448.235C327.903 445.43 328.371 445.583 328.403 447.715C328.529 450.367 328.736 473.216 328.921 462.33C329.057 430.865 328.839 400.181 327.848 370.006C327.636 363.363 328.806 357.043 328.746 350.427C329.008 338.246 327.93 323.172 328.262 310.028C329.449 279.957 325.529 250.006 331.926 221.537C343.744 240.471 320.336 303.462 351.593 311.592C362.088 314.5 369.519 304.09 372.573 296.469C372.638 296.381 372.676 296.299 372.693 296.403C372.703 296.709 371.816 299.454 371.604 300.361C371.408 301.389 372.284 299.011 372.513 298.415C374.56 293.062 375.687 287.294 375.899 281.592C373.781 252.751 384.946 187.152 363.89 159.552C357.478 152.718 347.396 148.628 339.013 145.774C335.834 145.966 331.24 145.435 328.365 144.571C328.099 144.5 327.832 144.446 327.609 144.369C326.542 144.014 329.057 144.282 329.078 143.981C319.422 141.767 309.492 143.423 299.476 143.106C293.886 143.325 288.589 142.827 283.347 142.598C262.678 144.424 239.243 143.385 216.233 145.752C194.181 147.25 183.054 160.673 178.492 181.581C177.823 183.035 178.797 178.459 178.988 177.661C181.171 167.13 187.344 157.19 196.179 151.269C194.437 152.33 191.688 154.555 190.12 155.632C187.747 157.343 192.281 153.5 193.027 152.734C182.804 159.601 176.135 176.786 175.449 190.695C175.139 196.6 175.852 202.587 175.591 208.874C176.271 206.485 175.792 196.359 176.707 191.663C176.805 190.668 177.023 189.973 177.224 189.208C177.322 188.918 177.404 188.934 177.415 188.989C177.551 189.634 177.474 190.34 177.442 191.143C177.464 191.433 176.854 220.673 176.097 213.549C176.037 215.156 176.086 216.95 176.097 218.645C176.184 224.812 176.261 231.482 176.462 237.759C176.506 238.497 176.571 238.338 176.653 238.082C177.202 236.162 176.854 246.616 176.391 244.724C176.01 242.811 176.299 239.771 176.016 238.191C176.005 238.388 175.978 238.667 175.978 238.934C175.918 241.28 175.978 245.08 175.825 247.715C175.787 248.071 175.749 247.945 175.705 247.491C175.575 246.545 175.564 244.812 175.422 243.959C175.303 246.605 175.651 250.11 175.384 252.794C175.145 252.931 174.938 250.952 174.725 250.624C174.508 250.351 174.317 249.164 174.159 249.317C173.473 253.822 175.406 258.727 174.154 263.172C173.539 267.551 174.96 272.291 175.058 277.158C176.266 292.745 177.393 305.741 193.294 311.734C215.525 312.548 216.189 288.18 215.258 269.913C215.209 268.464 215.101 265.484 215.258 265.053C215.275 265.124 215.346 265.567 215.471 265.375C215.776 263.943 215.667 259.372 215.482 256.879C215.395 253.56 214.758 250.854 215.569 247.939C215.857 244.85 215.634 241.739 215.797 238.098C215.776 231.75 216.233 225.408 217.545 219.498C217.784 217.841 217.822 217.502 217.888 218.623C217.98 220.252 218.182 222.691 218.612 224.522C222.694 260.329 221.753 297.513 221.301 334.905C221.159 379.826 219.662 426.873 220.637 470.323C220.544 469.662 220.375 468.688 220.31 467.956C219.88 470.072 220.016 480.307 220.925 483.533C221.35 488.497 221.486 494.364 222.455 499.394C222.792 501.116 222.482 498.918 222.836 499.618C224.779 504.692 227.621 509.645 230.947 513.921C231.317 514.5 231.072 514.369 230.626 514.161C227.055 511.985 230.599 516.108 232.068 517.261C243.718 528.049 262.182 522.729 268.644 508.787C270.424 505.457 269.95 506.026 270.995 501.247C272.166 496.709 272.982 492.177 272.792 487.453C272.732 482.002 272.296 473.981 272.416 468.59C272.46 467.278 272.536 467.19 272.596 468.076C272.781 469.93 272.618 473.396 272.841 474.599C273.287 469.744 273.01 464.741 272.721 459.394C272.286 453.407 272.313 446.966 272.618 441.526C272.89 439.033 272.166 438.125 271.872 435.862C272.688 424.741 272.324 413.39 271.997 402.013C272.024 389.498 271.747 376.469 274.017 364.172C267.381 398.639 270.282 432.352 269.7 468.306C269.558 479.908 269.798 491.898 266.553 503.265C261.627 517.721 245.274 523.489 233.886 511.357C230.016 507.464 227.104 502.1 226.02 496.392C222.722 444.238 227.73 388.76 226.053 340.126C225.982 338.787 225.982 337.743 225.895 337.863C225.743 340.422 225.895 346.277 225.808 348.246C225.808 348.574 225.743 349.317 225.677 348.552C225.427 345.167 225.563 340.69 225.645 336.994C225.857 325.649 225.629 313.735 226.097 303.09C226.331 303.675 226.396 307.633 226.543 308.503C226.924 301.871 226.483 292.538 226.951 285.036C227.098 270.372 226.282 256.075 224.97 241.805C224.202 234.161 225.291 225.61 222.923 218.393C221.611 213.188 216.353 209.782 213.587 216.152C211.268 221.98 209.711 233.735 211.061 239.869C211.747 248.06 210.795 256.622 210.778 265.031C210.163 274.894 211.312 283.035 209.842 292.527C206.766 307.655 187.572 311.542 183.103 294.883L183.071 294.774L183.098 294.807ZM325.317 437.119C325.317 436.687 325.35 436.184 325.388 436.272C325.426 436.731 325.48 438.306 325.48 438.798C325.48 438.913 325.464 438.88 325.437 438.678C325.393 438.3 325.317 437.671 325.312 437.24V437.119H325.317ZM325.491 375.135C325.513 376.283 325.546 377.792 325.431 378.825C325.399 378.989 325.366 378.825 325.339 378.366C325.263 376.961 325.273 375.178 325.279 373.68C325.295 370.208 325.301 367.076 325.322 363.79C325.35 361.001 324.947 358.426 325.312 355.856C325.595 354.714 325.698 356.611 325.736 358.902C325.829 363.981 325.361 370.422 325.497 375.053V375.135H325.491ZM317.5 516.518C317.582 516.43 317.892 516.086 318.099 515.878C318.202 515.774 318.235 515.742 318.153 515.829C318.017 515.977 317.631 516.381 317.489 516.529L317.5 516.518ZM327.674 479.58C327.767 479.492 327.914 477.283 327.837 476.928C327.679 477.699 327.631 478.781 327.669 479.541V479.574L327.674 479.58ZM328.257 402.959C328.409 402.177 328.409 395.512 328.327 394.216C328.257 396.819 328.191 400.383 328.251 402.948V402.959H328.257ZM340.292 147.874C344.772 148.907 346.139 148.792 339.492 147.229C337.805 146.851 336.199 146.496 335.54 146.485C335.453 146.507 335.578 146.551 335.654 146.583C337.048 147.075 338.741 147.491 340.178 147.846L340.292 147.874ZM177.333 229.979C176.609 226.244 176.544 231.127 176.707 232.319C176.843 234.008 177.061 236.059 177.344 235.599C177.649 233.948 177.572 231.849 177.344 230.094L177.328 229.979H177.333Z" fill="#222222"/>
<path d="M245.525 60.6566C260.68 41.7556 295.034 45.3805 307.222 65.2931C308.698 67.409 310.304 69.4702 311.458 71.772C312.056 72.9967 312.138 74.3144 312.486 75.7797C312.835 76.988 312.933 78.2947 313.559 79.3445C314.065 79.9732 314.272 80.766 314.413 81.5314C314.457 81.8814 314.604 82.3078 314.43 82.5757C314.054 82.7343 313.232 81.6681 313.412 82.6085C313.613 83.6419 314.702 85.5719 314.637 86.9497C314.789 90.766 313.836 94.9759 312.993 98.6938C312.345 101.313 311.795 103.937 310.467 106.283C308.382 110.099 305.426 113.833 302.9 117.393C301.523 119.437 299.057 120.979 296.88 122.209C294.523 123.937 292.318 125.927 289.291 126.365C287.636 126.715 286.178 127.365 284.691 128.229C284.016 128.634 282.764 129.678 284.577 129.016C285.426 128.759 286.374 128.41 287.212 128.103C288.377 127.633 288.551 127.994 289.781 127.622C290.2 127.513 290.962 127.13 291.442 126.879C292.906 126.048 294.348 125.118 295.862 124.435C297.979 123.576 300.266 122.691 302.002 121.11C304.441 119.213 307.048 116.168 309.041 113.861C309.155 113.784 309.204 113.724 309.296 113.8C309.411 113.904 309.487 114.079 309.65 114.046C309.814 113.997 310.069 113.817 310.505 113.183C312.53 110.323 314.305 105.463 315.192 102.636C317.522 97.2395 317.75 92.5484 318.121 86.4139C318.6 78.8032 316.575 71.3838 313.069 64.8174C310.734 61.0558 308.311 57.6003 305.393 54.5057C300.549 49.6506 294.174 45.8999 287.528 44.0847C286.553 43.7895 285.519 43.5161 284.61 43.0951C283.597 42.5538 282.672 42.3789 281.458 42.2039C279.46 41.9251 277.168 41.9907 275.094 42.0618C273.864 42.0836 272.247 42.4992 270.914 42.7671C267.637 43.2701 264.289 43.7622 261.202 45.0579C260.457 45.3477 259.809 45.632 259.39 45.807C258.878 46.0202 258.736 46.0585 258.824 45.9054C259.096 45.4899 260.712 44.3034 260.544 44.123C260.321 43.9645 260.005 44.1558 259.504 44.2706C258.198 44.6588 256.837 45.4079 255.644 46.2608C252.019 48.9508 257.762 47.3816 252.182 50.2356C250.87 50.9464 250.081 51.4822 248.889 51.9579C248.236 52.1766 247.631 51.9196 247.005 51.7829C246.423 51.6681 245.792 51.8485 245.362 52.2805C244.055 53.6965 242.155 56.9388 240.457 58.7594C239.303 60.0333 238.067 60.9573 237.131 62.4718C231.464 71.5588 229.597 80.8371 229.967 91.4986C230.114 100.498 234.126 108.907 239.461 115.873C240.228 116.813 241.094 117.677 242.161 118.3C244.148 119.399 245.182 120.946 246.951 122.51C248.53 124.09 251.453 125.479 253.56 126.447C258.23 128.902 262.656 129.623 267.98 130.367C277.234 131.504 264.136 127.3 262.144 126.523C256.352 124.582 253.173 121.745 248.502 118.021C244.327 114.817 241.028 110.443 238.878 105.468C237.985 103.538 237.12 101.171 236.374 99.3117C235.715 97.5402 234.894 96.4084 234.6 94.5714C234.469 93.7294 234.474 92.4445 234.512 91.4002C234.981 87.4418 235.155 83.62 235.966 79.4647C236.581 76.567 236.842 73.877 237.8 71.1651C239.613 67.1137 242.373 64.38 245.465 60.7496L245.536 60.6676L245.525 60.6566ZM308.273 109.744C308.338 109.689 308.442 109.662 308.387 109.809C308.317 109.979 308.235 110.323 308.246 109.793L308.279 109.744H308.273ZM312.47 101.488C312.367 101.701 312.149 102.073 312.182 101.827C312.22 101.395 312.775 100.274 312.873 99.8037C312.993 99.3663 313.08 98.9344 313.336 98.6282C313.472 98.4806 313.624 98.5735 313.461 99.082C313.21 99.8365 312.797 100.722 312.508 101.4L312.465 101.488H312.47ZM301.937 120.968C301.948 120.908 301.953 120.837 301.986 120.782L301.937 120.968ZM306.063 116.376C306.161 116.387 306.401 116.31 306.504 116.223C306.444 116.157 306.145 116.266 306.058 116.354V116.381L306.063 116.376ZM313.401 106.534C313.657 106.419 314.032 105.556 314.071 105.299C313.951 105.37 313.493 106.277 313.396 106.512V106.534H313.401ZM285.018 44.8392C285.617 44.8611 286.161 44.6479 285.034 44.4018C284.022 44.1613 284.191 44.5659 284.926 44.8228L285.024 44.8392H285.018ZM251.034 52.3734C251.17 51.2581 250.097 51.6955 250.136 52.521C250.201 53.0186 250.778 52.7507 251.001 52.4554L251.034 52.3734Z" fill="#222222"/>
</svg>
