<svg width="565" height="555" viewBox="0 0 565 555" fill="none" xmlns="http://www.w3.org/2000/svg">
<path d="M325.102 119.88C300.632 90.227 244.11 96.7642 232.043 132.982C231.261 135.398 230.334 137.582 229.189 139.889C228.462 141.778 227.309 144.229 227.309 146.043C227.343 146.385 227.46 146.645 227.542 147.028C227.625 147.692 227.59 148.322 227.522 149C227.419 149.616 227.453 150.464 227.035 150.937C226.877 150.985 226.753 150.766 226.596 150.54C226.321 150.15 226.109 149.718 225.965 149.684C225.917 149.684 225.896 149.698 225.868 149.753C225.615 150.423 225.903 152.545 226.095 153.538C226.465 155.639 226.335 157.57 226.232 159.788C225.766 165.442 225.8 171.91 226.925 177.304C227.467 180.535 227.968 184.081 229.724 187.12C231.679 190.488 235.603 193.445 239.328 194.274C241.853 194.753 244.137 194.239 246.731 194.876C248.727 195.191 250.874 195.547 252.864 195.232C254.634 194.951 256.301 194.732 258.16 194.657C259.861 194.568 261.631 195.006 263.346 195.143C264.965 195.218 266.461 194.985 268.087 194.561C268.388 194.527 270.563 193.699 269.788 193.521C268.265 193.459 266.323 193.692 264.849 193.815C263.291 193.883 263.49 193.356 261.583 193.267C260.06 193.185 258.4 193.48 256.897 193.616C253.769 194.171 251.423 193.117 248.157 192.706C243.739 192.473 239.212 191.522 235.5 189.099C235.329 188.962 235.006 188.777 234.903 188.585C234.787 188.387 234.876 188.257 234.876 188.038C234.869 187.812 234.855 187.641 234.766 187.333C233.339 183.438 230.492 179.036 230.465 174.505C230.403 171.021 230.396 167.66 230.28 164.08C230.19 159.11 231.617 152.429 233.127 147.151C234.972 140.416 237.696 134.111 241.578 128.471C243.849 124.987 245.379 123.303 249.09 120.558C254.867 115.924 261.947 111.276 268.978 109.346C271.105 108.791 272.95 109.017 275.118 108.634C276.881 108.572 279.001 108.004 280.874 107.833C283.502 107.682 286.657 107.176 289.415 107.58C293.051 108.066 297.682 108.928 301.084 110.119C301.126 110.311 299.177 110.277 298.786 110.468C298.718 110.516 298.69 110.564 298.759 110.653C299.232 111.385 302.491 112.159 303.842 112.474C304.521 112.576 305.098 112.775 305.756 112.665C306.305 112.563 306.326 112.152 306.483 111.837C307.012 111.016 308.192 112.234 309.015 112.576C310.682 113.631 312.548 114.767 313.7 116.314C314.153 117.252 313.522 118.381 314.126 119.333C314.407 119.798 314.771 120.113 315.189 120.442C317.412 121.954 319.998 123.714 321.775 125.897C323.051 127.424 323.6 129.155 324.622 130.86C325.891 132.9 327.16 134.933 328.107 137.089C330.275 142.504 331.688 148.507 332.518 154.25C333.3 159.486 332.943 165.106 332.69 170.548C332.655 176.189 330.7 185.087 326.261 188.599C325.157 189.4 323.881 190.016 322.66 190.639C319.113 192.083 315.628 190.707 311.759 191.323C307.451 191.912 303.417 191.775 299.15 192.302C295.191 192.857 291.562 192.651 287.275 193C278.219 193.213 292.982 195.581 294.869 195.629C298.896 195.923 303.046 195.862 306.799 196.17C310.929 196.553 314.407 196.998 318.818 196.45C331.379 195.396 338.493 186.525 338.967 174.334C339.207 171.691 338.548 170.37 338.473 167.851C338.459 165.496 339.173 162.491 339.323 160.014C339.461 158.528 339.221 155.975 339.001 154.058C338.617 150.642 337.999 146.693 337.039 143.448C336.106 140.238 334.494 137.691 333.238 134.632C331.235 129.197 329.335 125.069 325.205 119.997L325.116 119.887L325.102 119.88ZM230.41 188.038C230.376 187.921 230.376 187.778 230.513 187.928C230.671 188.113 231.089 188.496 230.451 188.106L230.41 188.038ZM227.728 175.798C227.728 176.093 227.741 176.627 227.577 176.367C227.261 175.819 227.268 174.204 227.096 173.574C226.973 173.012 226.808 172.472 226.987 171.979C227.083 171.753 227.35 171.712 227.467 172.225C227.68 173.307 227.611 174.642 227.728 175.675V175.798ZM245.619 192.069C245.564 192.111 245.503 192.158 245.441 192.2H245.434L245.626 192.069H245.619ZM238.649 191.043C238.629 190.926 238.471 190.7 238.327 190.618C238.258 190.728 238.478 191.002 238.622 191.063L238.649 191.043ZM231.659 180.727C231.72 180.686 231.768 180.118 231.693 179.687C231.624 179.18 231.542 178.879 231.542 179.146C231.556 179.673 231.535 180.186 231.638 180.713L231.659 180.727ZM270.302 107.977C270.117 108.086 269.863 108.202 269.719 108.367C269.273 108.818 272.182 108.305 271.043 108.011C270.844 107.97 270.584 107.908 270.398 107.949L270.296 107.977H270.302ZM312.411 113.857C311.416 114.076 311.629 114.972 312.658 114.986C313.659 114.904 313.104 114.055 312.52 113.857H312.411Z" fill="#222222"/>
<path d="M177.812 197.47C194.291 197.785 219.399 199.229 221.423 178.619C215.461 121.995 276.36 75.9548 317.611 112.652C351.672 137.377 326.495 194.438 364.35 197.265C374.764 197.641 383.236 195.766 393.739 197.244C398.397 197.6 402.939 196.327 406.959 198.607C418.998 203.795 421.29 219.964 421.461 231.614C423.156 242.306 423.458 251.958 424.514 262.732C424.782 263.862 425.481 271.754 426.167 270.063C426.037 268.865 425.523 266.757 425.571 265.874C425.577 265.566 425.632 265.374 425.763 265.744C427.251 273.732 429.769 284.712 429.357 291.742C428.644 288.675 425.969 272.884 425.276 273.671C426.353 281.858 428.15 290.065 429.598 298.087C429.838 298.929 429.934 299.587 430.236 300.298C430.586 301.531 430.537 297.252 430.784 297.67C431.059 298.772 431.155 299.717 431.251 301.003C431.299 312.969 434.544 324.51 435.985 336.414C436.732 344.997 436.684 352.719 438.063 361.453C441.336 382.817 441.576 403.633 440.965 425.271C440.403 437.01 444.21 449.256 433.22 457.176C421.715 464.637 405.738 458.292 392.772 460.325C386.982 460.003 381.747 460.202 376.499 461.194C372.26 461.468 368.946 460.592 364.837 460.777C354.642 461.509 344.736 458.415 334.535 461.153C330.755 462.344 325.939 460.619 322.783 462.132C331.558 463.213 342.493 461.078 351.734 461.317C352.92 461.386 353.799 461.256 354.677 461.379C354.087 461.851 345.758 461.536 345.223 462.282C358.628 462.105 371.992 463.248 385.095 461.242C388.793 460.735 388.223 461.441 385.376 462.166C392.868 462.7 403.007 462.351 410.272 462.741C418.045 463.604 425.454 463.289 432.685 459.9C446.776 455.841 443.99 439.94 444.724 428.563C445.273 420.144 445.472 440.624 445.774 437.66C446.673 413.559 444.745 388.895 442.543 365.061C437.425 313.879 431.635 261.254 423.814 210.695C423.972 189.858 396.373 190.002 385.349 190.919C385.308 190.591 386.522 190.659 386.742 190.324C378.729 188.702 367.231 191.405 359.712 189.222C344.16 182.904 349.175 160.294 345.168 146.515C343.289 133.317 336.182 122.365 327.874 112.378C325.967 108.641 320.609 107.662 319.058 104.191C313.755 98.318 303.89 96.6067 296.625 93.9097C279.783 88.6253 261.295 94.8954 247.094 105.505C233.25 113.021 226.486 128.053 221.258 142.367C221.265 138.691 227.172 126.732 229.559 122.071C229.642 121.893 229.779 121.564 229.559 121.824C229.148 122.112 228.455 123.57 228.057 123.686C227.913 123.686 228.331 122.735 228.105 123.015C225.567 127.314 222.404 133.044 220.682 137.993C217.122 146.132 216.765 154.079 217.081 162.3C217.828 160.26 218.075 152.039 219.42 150.102C219.612 149.992 219.701 150.437 219.681 151.245C219.804 157.029 217.828 165.209 217.424 170.617C217.081 175.449 217.492 181.336 215.166 185.423C214.769 185.847 214.721 185.717 214.48 185.683C213.973 185.17 212.93 186.265 212.457 186.628C211.901 187.189 211.682 187.305 210.906 187.442C210.433 187.504 209.822 187.914 209.184 188.175C208.896 188.394 208.32 188.524 208.546 188.017C208.752 187.682 208.457 187.305 208.011 187.435C200.89 189.722 193.179 190.31 185.585 190.926C178.739 191.056 171.179 191.412 164.586 191.618C157.389 190.187 148.601 193.24 144.657 199.873C138.647 210.77 139.765 223.263 137.22 235.037C132.898 265.018 127.931 296.486 123.356 326.057C115.7 364.239 118.354 406.193 118.828 444.362C118.053 452.501 125.969 459.346 133.063 462.358C136.383 462.529 140.911 462.358 144.149 463.617C144.849 464.658 145.528 464.959 146.996 465C193.714 464.938 230.979 463.029 279.097 463.152C277.602 462.618 273.979 462.953 272.017 462.543C239.424 458.23 205.151 461.865 172.015 459.079C157.492 457.053 133.79 465.568 127.17 448.086C118.718 416.564 127.211 380.941 125.921 349.837C125.798 350.22 125.674 350.836 125.626 351.384C125.18 352.007 125.482 355.101 125.098 354.683C125.228 353.876 125.05 352.335 125.249 351.384C126.12 343.156 127.197 334.216 128.707 326.194C129.146 324.14 129.187 326.07 129.365 326.07C130.593 321.012 131.3 315.132 132.494 309.834C135.437 285.39 141.652 261.24 142.42 236.686C148.19 208.772 141.782 195.28 177.668 197.484H177.799L177.812 197.47ZM441.294 418.857C441.294 418.672 441.315 418.487 441.335 418.384C441.356 418.323 441.356 418.227 441.39 418.336C441.438 418.734 441.452 419.199 441.48 419.548C441.5 419.822 441.507 420.034 441.507 420.116C441.486 420.404 441.301 419.178 441.294 418.994V418.857ZM440.149 375.027C440.19 375.712 440.265 376.458 440.245 377.033C440.245 377.067 440.231 377.06 440.217 377.012C439.778 374.548 439.319 366.69 438.838 363.452C438.77 362.843 438.687 361.912 438.66 361.289C438.571 359.687 438.859 359.906 439.216 362.672C439.668 366.464 439.847 371.433 440.142 374.911V375.02L440.149 375.027ZM418.594 462.803C418.71 462.775 418.978 462.707 419.191 462.673C419.534 462.611 418.738 462.775 418.58 462.81H418.601L418.594 462.803ZM442.68 449.804C442.975 449.55 443.4 448.4 443.524 448.01C443.545 447.908 443.517 447.914 443.442 448.01C443.133 448.489 442.797 449.222 442.68 449.756V449.804ZM444.663 394.207C444.841 393.927 444.656 388.464 444.505 387.882C444.519 389.785 444.526 392.325 444.656 394.2V394.214L444.663 394.207ZM325.075 111.687C327.387 113.726 328.807 114.349 325.075 110.899C324.059 110.003 323.003 108.99 322.646 108.962C323.154 109.914 324.203 110.824 324.965 111.591L325.068 111.687H325.075ZM218.802 178.988C218.075 175.956 217.327 181.035 217.458 181.685C217.485 182.568 217.719 182.965 218.027 182.562C218.576 181.651 218.94 180.152 218.823 179.112L218.802 178.988Z" fill="#222222"/>
</svg>
