<svg width="2000" height="911" viewBox="0 0 2000 911" fill="none" xmlns="http://www.w3.org/2000/svg">
<path d="M257.994 80V136.392H162.712V398.494H95.7244V136.392H0V80H257.994Z" fill="#222222"/>
<path d="M483.96 260.211V398.494H421.093V255.232C421.093 242.566 418.936 232.333 414.621 224.561C409.007 213.609 398.331 208.133 382.649 208.133C366.967 208.133 354.023 213.582 345.587 224.451C337.151 235.32 332.947 250.835 332.947 271.024V398.494H271.574V81.0786H332.947V193.641C341.881 179.951 352.197 170.41 363.952 165.017C375.679 159.623 388.042 156.913 401.014 156.913C415.562 156.913 428.782 159.43 440.675 164.463C452.568 169.497 462.304 177.213 469.965 187.584C476.437 196.379 480.42 205.423 481.858 214.688C483.296 223.98 484.015 239.136 484.015 260.183L483.96 260.211Z" fill="#222222"/>
<path d="M723.119 329.352C721.542 343.319 714.268 357.507 701.297 371.916C681.134 394.816 652.895 406.265 616.608 406.265C586.654 406.265 560.213 396.613 537.312 377.309C514.411 358.005 502.961 326.614 502.961 283.11C502.961 242.345 513.305 211.092 533.966 189.327C554.626 167.589 581.454 156.692 614.45 156.692C634.032 156.692 651.678 160.37 667.388 167.699C683.098 175.056 696.042 186.644 706.275 202.491C715.485 216.458 721.459 232.665 724.197 251.112C725.774 261.925 726.438 277.468 726.134 297.796H564.943C565.8 321.415 573.212 337.981 587.207 347.495C595.698 353.414 605.932 356.345 617.88 356.345C630.547 356.345 640.864 352.75 648.774 345.531C653.089 341.632 656.906 336.239 660.225 329.325H723.091L723.119 329.352ZM662.188 257.168C661.165 240.906 656.242 228.544 647.391 220.109C638.541 211.673 627.56 207.469 614.45 207.469C600.179 207.469 589.143 211.95 581.288 220.855C573.434 229.788 568.511 241.874 566.492 257.141H662.216L662.188 257.168Z" fill="#222222"/>
<path d="M161.855 698.331H93.1522V823.228H28.1005V504.735H184.313C206.633 505.177 223.809 507.915 235.84 512.949C247.871 517.982 258.049 525.422 266.402 535.212C273.317 543.288 278.793 552.221 282.831 562.012C286.869 571.802 288.888 582.975 288.888 595.504C288.888 610.632 285.071 625.511 277.438 640.114C269.804 654.744 257.192 665.06 239.629 671.117C254.315 677.035 264.715 685.415 270.855 696.284C276.967 707.154 280.037 723.775 280.037 746.094V767.473C280.037 782.02 280.618 791.894 281.752 797.065C283.467 805.279 287.505 811.336 293.866 815.208V823.201H220.628C218.609 816.148 217.171 810.451 216.313 806.137C214.599 797.204 213.658 788.049 213.492 778.701L213.05 749.109C212.745 728.809 209.039 715.257 201.931 708.481C194.795 701.705 181.437 698.331 161.855 698.331ZM202.235 640.418C215.484 634.361 222.122 622.414 222.122 604.547C222.122 585.243 215.705 572.272 202.899 565.662C195.68 561.929 184.894 560.048 170.484 560.048H93.1245V645.618H168.548C183.539 645.618 194.768 643.903 202.263 640.418H202.235Z" fill="#222222"/>
<path d="M518.892 754.087C517.316 768.054 510.041 782.241 497.07 796.65C476.907 819.55 448.668 831 412.381 831C382.427 831 355.986 821.348 333.085 802.044C310.185 782.739 298.734 751.349 298.734 707.845C298.734 667.079 309.078 635.827 329.739 614.061C350.399 592.323 377.228 581.427 410.224 581.427C429.806 581.427 447.451 585.105 463.161 592.434C478.871 599.791 491.815 611.379 502.048 627.226C511.258 641.192 517.233 657.399 519.971 675.846C521.547 686.66 522.211 702.203 521.907 722.531H360.716C361.573 746.149 368.986 762.716 382.981 772.23C391.472 778.148 401.705 781.08 413.653 781.08C426.321 781.08 436.637 777.484 444.547 770.266C448.862 766.366 452.679 760.973 455.998 754.059H518.864L518.892 754.087ZM457.961 681.903C456.938 665.641 452.015 653.278 443.164 644.843C434.314 636.408 423.334 632.204 410.224 632.204C395.952 632.204 384.917 636.684 377.062 645.59C369.207 654.523 364.284 666.637 362.265 681.875H457.989L457.961 681.903Z" fill="#222222"/>
<path d="M558.554 613.204C574.817 592.462 602.779 582.09 642.385 582.09C668.162 582.09 691.063 587.207 711.088 597.44C731.112 607.673 741.124 626.977 741.124 655.353V763.38C741.124 770.875 741.262 779.946 741.567 790.594C742.009 798.669 743.226 804.145 745.245 807.022C747.264 809.898 750.279 812.277 754.317 814.157V823.229H687.329C685.449 818.472 684.149 814.019 683.43 809.843C682.711 805.667 682.13 800.91 681.715 795.572C673.224 804.782 663.405 812.636 652.342 819.135C639.094 826.769 624.103 830.585 607.398 830.585C586.073 830.585 568.455 824.501 554.571 812.332C540.659 800.163 533.717 782.905 533.717 760.586C533.717 731.63 544.891 710.666 567.211 697.723C579.463 690.67 597.468 685.609 621.227 682.594L642.192 679.995C653.559 678.557 661.718 676.759 666.614 674.602C675.409 670.868 679.806 665.032 679.806 657.095C679.806 647.443 676.46 640.778 669.767 637.099C663.073 633.421 653.227 631.596 640.283 631.596C625.735 631.596 615.446 635.191 609.389 642.409C605.074 647.747 602.17 654.938 600.76 664.009H541.35C542.65 643.405 548.403 626.479 558.637 613.232L558.554 613.204ZM604.355 778.701C610.108 783.458 617.161 785.837 625.541 785.837C638.79 785.837 651.014 781.937 662.161 774.166C673.334 766.394 679.115 752.206 679.557 731.602V708.702C675.658 711.164 671.73 713.127 667.775 714.649C663.82 716.17 658.371 717.552 651.457 718.852L637.628 721.452C624.656 723.748 615.363 726.569 609.749 729.887C600.234 735.502 595.477 744.214 595.477 756.023C595.477 766.532 598.437 774.11 604.328 778.701H604.355Z" fill="#222222"/>
<path d="M776.305 504.735H837.9V823.228H776.305V504.735Z" fill="#222222"/>
<path d="M1094.48 823.228H957.272V504.735H1094.48C1114.2 505.039 1130.63 507.334 1143.74 511.649C1166.06 519.005 1184.15 532.474 1197.98 552.055C1209.07 567.902 1216.62 585.049 1220.66 603.469C1224.7 621.916 1226.72 639.478 1226.72 656.182C1226.72 698.525 1218.22 734.395 1201.22 763.794C1178.18 803.399 1142.58 823.201 1094.48 823.201V823.228ZM1143.96 585.99C1133.73 568.704 1113.48 560.048 1083.25 560.048H1021.88V767.915H1083.25C1114.65 767.915 1136.55 752.427 1148.94 721.452C1155.72 704.471 1159.09 684.226 1159.09 660.746C1159.09 628.332 1154.06 603.414 1143.96 585.99Z" fill="#222222"/>
<path d="M1457.99 754.087C1456.42 768.054 1449.14 782.241 1436.17 796.65C1416.01 819.55 1387.77 831 1351.48 831C1321.53 831 1295.09 821.348 1272.19 802.044C1249.29 782.739 1237.83 751.349 1237.83 707.845C1237.83 667.079 1248.18 635.827 1268.84 614.061C1289.5 592.323 1316.33 581.427 1349.32 581.427C1368.91 581.427 1386.55 585.105 1402.26 592.434C1417.97 599.791 1430.92 611.379 1441.15 627.226C1450.36 641.192 1456.33 657.399 1459.07 675.846C1460.65 686.66 1461.31 702.203 1461.01 722.531H1299.82C1300.67 746.149 1308.09 762.716 1322.08 772.23C1330.57 778.148 1340.81 781.08 1352.75 781.08C1365.42 781.08 1375.74 777.484 1383.65 770.266C1387.96 766.366 1391.78 760.973 1395.1 754.059H1457.96L1457.99 754.087ZM1397.06 681.903C1396.04 665.641 1391.12 653.278 1382.26 644.843C1373.41 636.408 1362.41 632.204 1349.32 632.204C1335.05 632.204 1324.02 636.684 1316.16 645.59C1308.31 654.523 1303.38 666.637 1301.36 681.875H1397.09L1397.06 681.903Z" fill="#222222"/>
<path d="M1497.65 613.204C1513.92 592.462 1541.88 582.09 1581.49 582.09C1607.26 582.09 1630.16 587.207 1650.19 597.44C1670.21 607.673 1680.22 626.977 1680.22 655.353V763.38C1680.22 770.875 1680.36 779.946 1680.67 790.594C1681.11 798.669 1682.33 804.145 1684.35 807.022C1686.36 809.898 1689.38 812.277 1693.42 814.157V823.229H1626.43C1624.55 818.472 1623.25 814.019 1622.53 809.843C1621.81 805.667 1621.23 800.91 1620.82 795.572C1612.32 804.782 1602.51 812.636 1591.44 819.135C1578.19 826.769 1563.2 830.585 1546.5 830.585C1525.17 830.585 1507.56 824.501 1493.67 812.332C1479.76 800.163 1472.82 782.905 1472.82 760.586C1472.82 731.63 1483.99 710.666 1506.31 697.723C1518.56 690.67 1536.57 685.609 1560.33 682.594L1581.29 679.995C1592.66 678.557 1600.82 676.759 1605.71 674.602C1614.51 670.868 1618.91 665.032 1618.91 657.095C1618.91 647.443 1615.56 640.778 1608.87 637.099C1602.17 633.421 1592.33 631.596 1579.38 631.596C1564.84 631.596 1554.55 635.191 1548.49 642.409C1544.17 647.747 1541.27 654.938 1539.86 664.009H1480.45C1481.75 643.405 1487.5 626.479 1497.74 613.232L1497.65 613.204ZM1543.46 778.701C1549.21 783.458 1556.26 785.837 1564.64 785.837C1577.89 785.837 1590.11 781.937 1601.26 774.166C1612.43 766.394 1618.22 752.206 1618.66 731.602V708.702C1614.76 711.164 1610.83 713.127 1606.88 714.649C1602.92 716.17 1597.47 717.552 1590.56 718.852L1576.73 721.452C1563.76 723.748 1554.46 726.569 1548.85 729.887C1539.33 735.502 1534.58 744.214 1534.58 756.023C1534.58 766.532 1537.54 774.11 1543.43 778.701H1543.46Z" fill="#222222"/>
<path d="M1715.41 504.735H1777V823.228H1715.41V504.735Z" fill="#222222"/>
</svg>
