<svg width="2000" height="914" viewBox="0 0 2000 914" fill="none" xmlns="http://www.w3.org/2000/svg">
<path d="M1216 714.261C1216.03 714.346 1216.76 711.984 1216.69 711.887C1216.4 712.565 1216.13 713.583 1215.99 714.261H1216Z" fill="#202020"/>
<path d="M1221.39 646.99C1221.39 646.578 1221.22 644.446 1221.18 644.337C1221.2 645.064 1221.3 646.445 1221.38 647.062V646.99H1221.39Z" fill="#202020"/>
<path d="M1227.97 650.998C1227.96 650.889 1228.13 652.888 1228.18 652.851C1228.2 652.851 1228.03 651.022 1227.97 650.926V650.998Z" fill="#202020"/>
<path d="M1084.34 765.23C1069.3 765.847 1054.57 766.32 1039.78 766.768C1025.68 767.264 1034.59 768.609 1045.81 769.069C1077.61 771.346 1114.42 771.661 1137.15 745.172C1159.86 716.15 1163.81 676.701 1161.53 640.933L1161.51 640.703C1156.75 572.341 1123.18 555.214 1058.33 555.977C1045.41 556.995 1025.91 550.624 1019.68 565.413C1017.47 571.372 1018.26 578.615 1018.21 584.72C1018.21 588.414 1018.62 592.46 1018.55 596.033C1018.31 598.673 1018.11 600.054 1018.26 603.034C1019.81 637.081 1018.86 671.941 1019.95 705.867C1020.57 717.398 1019.3 730.237 1020.94 741.187C1022.15 718.73 1021.36 695.463 1022.85 672.91C1023.13 646.202 1022.45 618.162 1023.24 589.419C1023.53 564.262 1032.67 560.083 1056.41 562.542C1073.01 563.523 1091.02 563.414 1106.82 565.958C1121.09 567.629 1135.34 578.07 1143.43 590.425C1146.06 593.974 1145.4 597.087 1147.45 600.853C1150.46 605.904 1152.78 611.67 1153.71 617.568C1153.43 617.387 1153.19 617.568 1153.24 618.162C1153.2 618.513 1153.64 619.567 1154 619.906C1154.18 621.868 1154.22 623.843 1154.06 625.793C1154.55 633.23 1156.01 640.679 1156.51 648.2C1157.27 657.951 1156.87 667.52 1155.85 677.222C1151.7 718.076 1131.38 763.97 1084.37 765.23H1084.34ZM1020.18 668.852L1020.16 668.573C1020.22 667.725 1020.52 670.439 1020.18 668.852ZM1020.45 646.384C1020.4 646.517 1020.39 647.365 1020.27 647.256C1020.04 645.269 1019.87 640.897 1020.18 638.983C1020.28 638.729 1020.32 639.165 1020.38 639.758C1020.55 641.587 1020.61 644.325 1020.45 646.166V646.384Z" fill="#202020"/>
<path d="M1023.2 698.37C1023.07 698.006 1023.06 697.994 1023.2 698.37Z" fill="#202020"/>
<path d="M1022.66 684.247L1022.68 684.296C1023.08 683.533 1022.84 682.551 1022.66 684.247Z" fill="#202020"/>
<path d="M1023.43 656.146V656.194C1023.56 656.085 1023.61 653.287 1023.53 652.997C1023.38 654.014 1023.38 655.153 1023.43 656.158V656.146Z" fill="#202020"/>
<path d="M1168.64 522.123C1158.94 516.575 1145.27 510.955 1133.47 508.048C1124.75 505.577 1114.02 505.626 1109.65 504.148C1117.52 503.664 1114.33 503.264 1109.17 503.058C1102.62 503.3 1094.38 501.689 1088.49 504.596C1081.61 505.372 1071.36 504.645 1064.76 504.451C1060.89 504.633 1058.54 502.949 1055.2 502.574C1042.29 501.883 1028.54 503.543 1015.5 502.925C1006.56 502.646 998.116 502.416 989.286 502.44C979.657 502.767 969.943 500.514 962.457 507.37C951.677 519.022 954.051 538.317 953.797 553.385C953.7 575.853 953.07 598.963 953.167 621.759C952.864 679.946 954.245 737.831 955.178 796.067C955.396 800.645 954.778 808.155 955.856 810.759C958.775 784.948 957.467 755.733 958.448 730.249C959.029 673.817 957.745 617.095 959.296 560.701C957.418 489.202 969.095 510.689 1028.35 508.799H1028.59C1042.28 508.993 1056.17 508.642 1070.4 508.242C1157.91 499.691 1219.32 557.127 1221.61 641.962C1224.35 676.555 1220.11 709.706 1208.32 741.864C1207.85 742.979 1207.43 744.82 1206.58 745.425C1206.39 745.05 1206.52 743.839 1205.93 744.904C1196.5 773.223 1173.03 798.683 1145.68 811.195C1098.37 829.158 1045.68 819.734 996.481 823.683C1007.81 824.034 1023.49 824.289 1036.89 824.046C1055.3 824.059 1074.14 825.306 1092.65 824.398C1100.21 824.337 1107.62 823.259 1114.95 823.707C1125.1 821.89 1135.41 818.971 1145.24 814.877C1145.63 814.732 1146.1 814.55 1146.64 814.344C1148.04 813.775 1149.19 813.315 1149.4 813.145C1149.22 813.206 1149.01 813.278 1148.79 813.351C1163.17 806.859 1176.38 797.714 1186.43 785.517C1243.14 721.286 1247.06 570.705 1168.68 522.135L1168.64 522.123ZM1073.45 824.337H1073.47C1073.53 824.313 1074.06 824.192 1074.05 824.204C1074.1 824.204 1073.54 824.325 1073.45 824.337ZM1122.02 818.426C1122.02 818.317 1122.79 818.148 1122.97 818.075L1123.22 818.014C1123.47 817.966 1123.59 817.966 1123.54 818.002C1123.19 818.172 1122.32 818.378 1122.02 818.426ZM1168.23 798.332C1165.44 800.403 1161.22 803.14 1158.22 804.957L1158.01 805.078C1157.6 805.321 1157.08 805.623 1156.67 805.854C1156.41 805.999 1156.3 806.035 1156.33 805.999C1158.26 804.606 1163 801.493 1164.9 800.294C1167.47 798.659 1168.81 797.86 1168.23 798.32V798.332Z" fill="#202020"/>
<path d="M1215.48 712.178C1215.51 712.093 1215.62 711.354 1215.6 711.427C1215.6 711.367 1215.5 712.105 1215.48 712.178Z" fill="#202020"/>
<path d="M1219.87 690.982C1219.77 691.478 1219.53 693.198 1219.72 693.477C1219.89 693.138 1220.05 691.345 1220.01 690.933C1220.01 690.691 1219.96 690.642 1219.92 690.812L1219.88 690.97L1219.87 690.982Z" fill="#202020"/>
<path d="M330.498 162.436C331.018 168.529 328.111 193.989 337.583 192.378C345.723 189.532 351.476 181.634 361.251 175.808C366.834 172.284 372.854 169.51 379.165 167.511C408.791 158.149 445.201 165.864 464.835 190.864C491.313 226.05 479.346 307.469 480.969 347.779C480.835 357.844 481.344 369.484 481.114 379.017C481.15 398.663 461.226 396.361 446.824 397.137C430.666 397.9 427.759 393.563 426.088 378.108C425.894 373.723 426.136 369.327 425.385 365.148C425.119 359.831 424.61 352.587 425.143 347.064C425.252 347.137 425.361 347.803 425.397 347.997C425.918 350.662 426.391 356.536 426.379 352.285C425.991 337.701 424.574 327.018 424.925 310.885C423.811 285.352 430.024 240.391 412.304 221.629C396.001 204.781 365.163 209.141 349.041 223.519C344.075 228.012 341.653 234.25 339.86 240.609C336.154 251.559 333.295 267.608 333.707 279.175C334.955 302.2 331.915 326.376 334.87 349.232C335.355 341.432 334.252 329.683 334.919 321.992C336.166 302.6 333.114 281.04 337.087 261.224C338.564 250.796 340.018 240.319 346.268 231.67C353.232 222.55 364.255 214.531 375.458 212.799C376.536 212.642 376.561 212.787 375.858 213.247C375.047 213.72 377.045 213.78 377.554 213.877C385.463 214.822 394.087 215.646 402.747 220.745C417.537 229.708 421.631 246.229 420.989 262.363C421.146 283.765 421.485 304.32 421.061 326.122C420.904 339.191 420.795 352.127 420.734 365.318C420.589 377.624 421.049 393.467 433.949 399.111C442.367 402.878 451.972 402.236 461.02 402.357C475.966 402.999 486.795 398.651 487.4 382.166C488.115 342.062 487.836 298.724 487.4 258.681C487.449 250.941 487.207 242.862 487.509 235.801C488.176 227.54 487.11 219.679 484.469 211.782C479.951 194.607 469.68 182.301 454.249 172.695C437.183 160.729 417.912 156.574 397.927 158.1C396.522 158.015 394.596 158.306 393.639 158.173C395.698 157.822 405.691 156.586 407.823 155.944C396.376 155.859 382.714 158.185 371.607 163.078C370.492 163.623 370.395 163.866 370.456 164.011C370.553 164.277 372.031 163.829 372.006 164.193C369.16 166.555 363.722 168.347 360.197 170.818C354.032 174.403 348.545 178.836 343.409 183.221C340.72 185.438 339.049 187.291 337.862 183.039C334.313 158.863 337.595 133.815 336.747 109.566C336.202 101.281 337.91 93.0813 335.076 85.6928C331.249 80.0485 323 81.2112 316.786 80.6298C262.039 78.2558 271.196 95.0193 269.875 139.75C269.464 192.535 268.943 246.665 270.457 299.378C269.803 316.626 270.154 334.528 270.614 351.933C271.184 366.153 269.694 379.707 272.625 393.806C274.866 402.745 285.73 401.073 292.986 401.424C302.227 401.303 312.038 401.364 319.681 401.194C321.377 401.146 322.298 401.109 322.503 400.952C322.54 400.879 322.261 400.794 321.607 400.685C315.272 399.874 308.792 399.838 302.094 399.462C284.58 398.941 275.047 397.003 274.539 378.362C273.824 357.178 275.483 336.841 275.12 315.79C274.272 271.798 275.399 226.305 275.374 182.446C275.423 172.526 274.914 164.132 274.672 154.987C274.575 142.56 275.35 126.487 275.919 113.43C276.513 96.5091 283.756 86.8313 301.743 86.5285C309.725 86.359 317.937 85.4505 325.386 88.0668C329.977 89.9927 330.897 94.8739 331.152 99.4887C331.842 120.286 330.376 140.985 330.51 162.182V162.424L330.498 162.436ZM389.593 209.154C389.945 209.178 390.163 209.202 390.126 209.238C389.557 209.323 388.406 209.311 387.958 209.263C387.837 209.238 387.983 209.214 388.237 209.178C388.528 209.154 388.455 209.141 389.327 209.141H389.606L389.593 209.154ZM422.527 243.238C422.478 242.487 422.442 241.99 422.43 241.433C423.06 244.461 423.98 253.327 424.271 258.099C424.416 260.595 424.356 261.394 424.174 260.062C423.581 255.35 422.83 248.022 422.539 243.456V243.25L422.527 243.238ZM340.151 244.582C340.151 244.485 340.236 243.783 340.248 243.807C340.26 243.758 340.175 244.473 340.163 244.582H340.151ZM356.212 219.074C356.151 219.158 356.975 218.807 357.593 218.492C358.186 218.189 358.32 218.044 357.823 218.226C357.302 218.456 356.721 218.71 356.248 219.025L356.2 219.074H356.212ZM412.353 223.991C412.849 225.093 414.981 228.812 415.683 229.926C414.86 228.121 413.491 225.784 412.377 224.015L412.353 223.991ZM485.523 239.374C485.596 240.646 485.426 241.748 485.802 242.571C486.104 241.602 486.032 236.951 485.898 235.789C485.608 234.141 485.487 238.526 485.511 239.035V239.386L485.523 239.374ZM349.587 179.2C349.817 178.873 350.301 178.11 349.683 178.243C348.86 178.412 346.316 181.114 346.268 181.816C346.571 182.749 349.163 179.866 349.453 179.406L349.599 179.212L349.587 179.2Z" fill="#202020"/>
<path d="M594.146 746.662C589.265 762.819 598.87 780.915 614.604 786.753C627.213 791.998 641.687 789.975 652.515 784.367C656.791 782.03 660.885 780.164 664.325 776.664C672.416 768.452 678.811 756.364 680.846 745.208C681.488 741.696 681.876 738.098 682.106 734.61C682.287 731.848 682.312 728.929 682.324 726.204C682.324 725.174 682.154 723.031 681.985 723.309C681.221 725.296 681.1 728.905 680.713 731.279C680.325 734.513 679.792 737.783 679.15 740.993C676.316 756.993 666.699 769.941 652.007 777.596C639.664 784.307 623.058 785.796 610.728 779.547C605.12 776.337 600.687 770.971 597.768 765.278C596.411 762.504 595.442 759.319 595.575 756.218C595.793 753.856 596.569 751.446 597.501 749.242C600.505 742.059 605.689 735.761 612.751 732.151C622.307 726.894 633.511 724.024 643.903 721.311C652.709 719.033 661.442 716.659 669.945 714.14C670.926 713.777 675.577 712.335 673.47 711.693C661.963 711.221 645.938 715.521 634.831 717.943C618.516 721.456 599.221 728.542 594.219 746.468L594.158 746.662H594.146ZM678.375 752.427C678.351 752.306 678.145 752.015 678.387 752.185V752.427H678.375ZM674.596 760.99C674.669 760.954 674.814 760.7 674.875 760.772C674.463 761.632 673.688 763.074 672.937 763.776C673.106 763.001 673.93 761.838 674.463 761.16L674.596 761.003V760.99ZM677.612 739.636C677.612 739.636 677.697 739.733 677.721 739.794L677.612 739.636ZM677.273 745.402C676.788 745.959 677.164 745.802 677.333 745.402H677.273ZM673.567 756.024C673.348 755.988 672.416 758.132 673.361 756.521C673.409 756.412 673.506 756.206 673.567 756.097V756.024ZM614.301 781.86C614.907 781.908 614.785 781.799 614.846 781.69C614.87 781.376 613.441 780.988 613.744 781.521C613.829 781.581 613.986 781.715 614.071 781.775L614.313 781.86H614.301ZM595.382 755.964C595.709 756.509 596.447 756.218 596.169 755.588C595.866 754.886 595.26 755.116 595.309 755.794L595.382 755.964Z" fill="#202020"/>
<path d="M649.911 785.021C650.141 784.936 650.565 784.464 650.359 784.5C650.178 784.464 649.717 784.972 649.802 785.033H649.911V785.021Z" fill="#202020"/>
<path d="M538.853 752.597C538.853 752.597 538.684 753.699 538.696 753.699C538.696 753.844 538.841 752.803 538.853 752.633V752.597Z" fill="#202020"/>
<path d="M607.421 690.097C626.438 686.148 646.883 684.343 664.398 675.986C710.618 649.193 653.86 619.446 622.901 632.176C603.037 639.964 590.173 661.269 566.893 659.222C526.305 658.447 554.963 610.713 575.711 600.793C598.373 585.846 625.384 583.702 651.801 583.46C657.772 583.714 648.724 584.538 655.144 584.865C672.174 584.55 689.676 589.238 706.791 596.456C747.706 612.045 744.06 648.333 745.32 684.598C747.512 715.896 744.266 759.052 747.936 784.718C747.258 751.01 748.275 716.72 748.045 682.696C748.021 661.366 750.092 639.395 739.712 619.094C720.502 581.679 648.143 575.163 610.728 582.176C576.523 586.803 530.193 617.023 539.847 655.892C547.671 671.286 596.169 669.651 604.127 655.056C617.256 627.876 664.87 627.827 678.92 654.075C679.756 655.456 678.69 653.154 678.678 652.67C678.569 652.1 678.218 649.835 677.891 651.289C677.273 655.734 674.378 663.244 672.186 668.125C671.52 673.999 651.147 676.846 645.902 678.42C640.233 679.595 639.906 678.372 635.861 678.638C631.101 678.82 625.868 680.189 621.06 681.17C595.575 687.25 566.36 688.171 546.666 707.538C513.127 743.585 522.647 811.983 572.853 827.668C593.262 834.706 617.874 835.711 638.283 828.771C652.128 824.919 663.695 812.104 678.278 810.929C683.947 810.19 685.473 815.447 688.816 818.62C704.114 829.582 730.119 824.01 747.04 825.064C756.475 824.446 736.538 823.417 734.128 823.417C680.349 825.67 691.444 792.627 672.416 803.674C653.339 817.264 631.198 828.431 607.034 827.608C559.675 825.379 527.504 803.395 533.463 752.475C537.461 708.483 567.596 695.717 607.191 690.157L607.433 690.109L607.421 690.097ZM739.058 650.55C739.082 649.472 739.312 651.725 739.288 651.834C739.288 651.967 739.264 651.919 739.227 651.761C739.179 651.507 739.167 651.616 739.082 650.804V650.538L739.058 650.55ZM728.774 613.45C732.505 617.786 723.712 608.423 722.682 607.309C720.381 604.802 719.218 603.518 719.799 604.015C722.5 606.51 726.219 610.531 728.629 613.28L728.774 613.45ZM742.934 703.638C742.909 703.578 742.8 703.021 742.8 703.021C742.8 702.96 742.909 703.566 742.934 703.65V703.638ZM742.28 678.493C742.401 678.735 742.631 675.453 742.316 677.367C742.28 677.694 742.243 678.106 742.255 678.433L742.28 678.493ZM739.421 628.106C739.627 628.227 737.556 622.292 737.58 622.571C737.544 622.498 737.532 622.486 737.532 622.534C737.956 624.097 738.828 626.665 739.397 628.082L739.421 628.118V628.106ZM601.813 662.323C601.123 663.438 600.408 664.176 600.142 665.133C601.086 664.552 603.727 660.664 604.042 659.537C603.291 660.082 602.685 661.16 602.019 662.032L601.825 662.311L601.813 662.323ZM651.038 678.614C652.54 677.791 651.074 677.645 649.499 678.19C648.373 678.529 647.319 679.038 647.234 679.292C647.222 679.45 647.295 679.474 647.489 679.498C648.53 679.583 649.802 679.123 650.82 678.711L651.026 678.614H651.038Z" fill="#202020"/>
<path d="M1530.02 746.734C1524.76 766.634 1537.65 785.663 1557.81 788.994C1573.23 791.683 1585.47 786.741 1597.31 779.11C1605.33 772.836 1610.84 762.867 1614.21 753.299C1616.35 746.903 1617.03 740.75 1617.55 734.306C1617.76 731.521 1617.83 728.577 1617.87 725.828C1617.88 724.75 1617.76 722.691 1617.56 722.885C1616.78 724.847 1616.61 728.541 1616.19 730.915C1615.78 734.149 1615.23 737.419 1614.58 740.641C1612.85 749.084 1610.17 757.489 1604.26 764.381C1592.58 778.989 1570.94 786.704 1552.96 782.138C1544.15 780.382 1537.14 773.417 1533.69 765.556C1532.69 763.255 1532.07 760.76 1531.87 758.277C1531.71 753.262 1533.53 749.132 1535.78 744.432C1539.18 737.516 1544.71 733.144 1552.02 729.97C1562.08 725.586 1573.16 723.309 1583.59 720.499C1591.09 718.488 1598.2 716.344 1605.4 714.115C1606.3 713.764 1611.58 712.08 1609.36 711.439C1596.23 711.354 1580.31 716.114 1567.29 718.875C1551.82 722.049 1534.07 729.244 1530.08 746.528L1530.03 746.734H1530.02ZM1613.88 752.136C1613.86 752.015 1613.64 751.736 1613.88 751.894V752.136ZM1610.49 760.966C1610.82 760.602 1610.74 760.711 1610.8 760.663C1610.61 761.317 1610.01 762.262 1609.52 762.94C1609.31 763.231 1608.43 764.333 1608.78 763.558C1609.13 762.807 1609.78 761.777 1610.33 761.135L1610.48 760.966H1610.49ZM1613.06 739.345C1613.06 739.345 1613.14 739.442 1613.17 739.503L1613.06 739.345ZM1612.71 745.135C1612.22 745.692 1612.6 745.535 1612.77 745.135H1612.71ZM1609.29 755.975C1609.07 755.951 1608.27 758.119 1609.12 756.484C1609.17 756.375 1609.25 756.157 1609.29 756.048V755.975ZM1549.9 781.775C1550.82 781.835 1550.46 781.387 1549.94 781.23C1549.08 781 1549.14 781.448 1549.65 781.69L1549.89 781.763L1549.9 781.775ZM1531.7 755.891C1532.04 756.448 1532.78 756.169 1532.49 755.527C1532.17 754.825 1531.58 755.031 1531.63 755.721L1531.71 755.891H1531.7Z" fill="#202020"/>
<path d="M1495.02 620.366C1494.78 620.705 1493.62 622.558 1493.59 622.679C1494.01 622.062 1494.76 620.862 1495.06 620.305L1495.02 620.366Z" fill="#202020"/>
<path d="M1508.76 826.421C1508.56 826.288 1506.99 825.513 1507.21 825.67C1507.23 825.719 1508.84 826.518 1508.79 826.457L1508.76 826.421Z" fill="#202020"/>
<path d="M1492.61 612.917C1492.77 612.735 1493.92 611.136 1493.81 611.245C1493.65 611.427 1492.69 612.735 1492.58 612.953L1492.61 612.905V612.917Z" fill="#202020"/>
<path d="M1508.65 699.047C1508.9 698.527 1503.55 701.591 1503.54 701.833C1505.04 701.3 1507.31 699.944 1508.56 699.108L1508.65 699.035V699.047Z" fill="#202020"/>
<path d="M1474.44 752.729C1474.44 752.729 1474.27 753.832 1474.29 753.832C1474.29 753.977 1474.43 752.935 1474.44 752.766V752.729Z" fill="#202020"/>
<path d="M1542.94 690.036C1563.93 685.627 1586.18 684.234 1605.1 673.551C1627.76 661.415 1618.4 639.358 1598.03 632.503C1548.86 613.862 1537.92 666.332 1495.23 658.169C1476.03 654.571 1483.17 630.71 1491.29 619.24C1511.1 591.418 1547.75 585.265 1579.34 583.254C1582.1 583.411 1586.8 582.818 1589.12 583.69C1588.47 584.053 1586.57 584.332 1588.42 584.55C1596.55 584.901 1604.77 584.647 1612.83 586.645C1656.52 596.311 1682.47 615.509 1680.52 663.098C1682.19 702.524 1680.95 741.404 1682.5 780.721C1684.1 793.136 1682.92 770.68 1683.03 767.906C1683.14 738.752 1683.85 708.217 1683.77 678.687C1683.82 672.837 1683.73 667.059 1683.9 661.5C1684.98 658.605 1684.74 657.902 1684.31 652.512C1682.24 624.182 1668.83 600.175 1640.48 590.873C1597.15 575.151 1542.16 573.14 1502.86 599.739C1487.73 610.264 1477.61 623.854 1474.17 641.95C1468.98 671.71 1509.99 666.999 1528.43 664.14C1541.58 661.221 1542.1 646.299 1553.51 640.46C1572.34 629.596 1603.73 631.909 1613.95 653.396C1614.32 653.736 1614.62 654.838 1614.74 654.644C1614.34 653.748 1613.91 650.95 1613.7 650.974C1612.39 656.594 1609.56 664.297 1607.51 669.639C1607.12 672.485 1604.09 672.594 1601.43 673.757C1593.58 676.47 1584.22 679.135 1576.5 679.026C1572.46 678.251 1568.85 678.614 1564.58 679.426C1532.05 687.42 1489.27 687.505 1472.31 721.625C1454.05 754.558 1461.4 803.201 1496.34 821.951C1528.91 840.132 1571.43 835.989 1601.45 814.648C1626.11 802.463 1615.48 824.107 1644.99 825.088C1656.8 825.464 1673.61 825.161 1684.1 824.967C1685.42 824.882 1686.16 824.798 1686.22 824.628C1667.72 821.237 1641.96 826.833 1627.39 812.007C1614.39 792.337 1609.04 804.655 1593.54 813.049C1568.7 828.649 1535.62 832.319 1508.44 821.067C1494.72 815.386 1481.78 809.112 1475.58 795.316C1463.62 771.697 1466.97 738.449 1481.93 716.732C1496.48 697.788 1519.51 694.748 1542.71 690.085L1542.95 690.036H1542.94ZM1675.29 649.605C1675.31 648.539 1675.53 650.768 1675.51 650.877C1675.51 651.01 1675.48 650.962 1675.45 650.804C1675.4 650.55 1675.39 650.659 1675.3 649.86V649.605H1675.29ZM1663.67 613.087C1667.5 617.423 1658.32 607.83 1657.26 606.691C1655.08 604.342 1654.01 603.167 1654.57 603.663C1657.28 606.195 1661.08 610.192 1663.52 612.917L1663.66 613.087H1663.67ZM1678.52 702.718C1678.5 702.657 1678.39 702.1 1678.4 702.1C1678.4 702.039 1678.51 702.645 1678.54 702.73L1678.52 702.718ZM1677.93 677.573C1678.05 677.815 1678.31 674.532 1677.98 676.446C1677.94 676.773 1677.89 677.173 1677.91 677.512L1677.93 677.573ZM1674.75 627.246C1674.88 627.222 1672.7 621.577 1672.63 621.759C1673.12 623.297 1674.1 625.817 1674.72 627.21L1674.75 627.246ZM1538.71 662.408C1537.27 665.194 1536.85 668.198 1539.18 663.195C1540.81 659.986 1541.03 657.381 1538.86 662.081L1538.7 662.396L1538.71 662.408ZM1586.73 679.135C1588.28 678.396 1586.82 678.19 1585.22 678.638C1584.07 678.917 1582.99 679.353 1582.9 679.607C1582.9 679.959 1583.52 679.838 1583.88 679.85C1584.65 679.789 1585.77 679.535 1586.52 679.232L1586.74 679.147L1586.73 679.135Z" fill="#202020"/>
<path d="M1498.14 705.576C1498.49 705.128 1497.93 705.273 1497.22 705.988C1496.59 706.606 1496.31 707.054 1496.71 706.824C1497.19 706.545 1497.63 706.133 1498 705.734L1498.15 705.564L1498.14 705.576Z" fill="#202020"/>
<path d="M1490.69 711.536C1486.8 716.078 1494.58 708.265 1495.2 707.405C1496.89 705.552 1496.5 705.806 1495.07 707.078C1493.9 708.144 1491.96 710.118 1490.87 711.33L1490.69 711.536Z" fill="#202020"/>
<path d="M1477.53 788.437C1477.29 788.122 1477.22 787.928 1476.98 787.771C1476.98 788.231 1477.38 788.776 1477.59 789.297C1479.16 792.253 1482.51 797.848 1484.34 800.174C1484.72 800.453 1484.07 799.302 1483.88 798.926C1482.2 795.801 1479.48 791.477 1477.61 788.57L1477.52 788.449L1477.53 788.437Z" fill="#202020"/>
<path d="M599.221 208.233C582.264 214.071 568.068 229.672 565.149 247.634C563.369 260.328 572.09 263.877 583.233 262.763C588.126 262.508 591.881 262.484 596.569 262.266C610.897 261.697 625.977 261.345 640.161 260.825C642.935 260.728 646.544 260.498 649.051 260.316C649.826 260.243 651.135 260.134 651.546 259.989C651.934 259.892 651.982 259.807 651.776 259.747C646.326 258.862 640.137 259.153 634.553 258.608C619.461 257.409 604.115 258.015 588.841 257.482C579.2 257.264 569.025 253.933 572.538 242.16C574.754 234.262 579.575 227.249 584.965 221.254C586.733 219.292 588.611 217.463 590.827 216.009C592.62 214.822 594.752 214.168 596.799 213.599C603.267 211.964 610.013 210.668 616.711 211.285C629.332 212.69 643.056 219.703 651.377 228.812C656.064 233.863 659.056 240.052 661.285 246.508C661.66 247.332 663.647 253.097 664.07 250.057C663.768 236.176 653.727 221.448 642.244 213.78C629.877 205.726 613.55 203.279 599.403 208.172L599.197 208.245L599.221 208.233ZM623.191 260.558C623.3 260.51 623.494 260.267 623.434 260.522L623.191 260.558ZM614.446 260.28C615.827 260.51 612.484 260.788 612.193 260.691C610.122 260.486 613.817 260.062 614.253 260.255L614.458 260.28H614.446ZM635.134 257.518C635.134 257.518 635.049 257.603 635.001 257.651L635.146 257.518H635.134ZM629.538 258.002C628.908 257.627 629.126 257.954 629.538 258.063V258.002ZM618.359 257.276C618.419 257.215 617.511 257.118 617.22 257.155C616.602 257.227 618.032 257.336 618.298 257.3L618.371 257.264L618.359 257.276ZM573.531 240.197C573.507 240.803 573.616 240.682 573.713 240.73C574.028 240.73 574.343 239.289 573.834 239.604C573.773 239.689 573.652 239.858 573.604 239.943L573.531 240.185V240.197ZM592.753 214.326C592.475 214.846 593.044 215.44 593.444 214.871C593.843 214.301 593.431 213.805 592.85 214.18L592.753 214.326Z" fill="#202020"/>
<path d="M706.815 360.291C693.746 380.107 673.058 393.636 650.19 399.801C579.72 420.441 512.109 370.768 507.737 302.552C506.102 286.152 506.659 272.162 508.524 257.566C509.772 248.434 511.177 239.337 513.926 230.835C515.949 224.464 519.413 218.31 522.49 212.46C526.596 204.829 530.339 197.465 536.782 191.518C536.976 191.772 536.443 192.729 536.71 192.754C537.812 192.39 539.532 190.016 540.888 188.635C544.304 184.772 547.502 181.55 552.092 178.655C590.161 155.205 639.216 154.551 678.024 176.511C693.806 186.189 705.894 202.54 714.567 218.71C719.702 229.187 721.822 240.088 724.414 251.232C725.032 253.388 725.528 256.731 726.388 258.39C726.388 257.046 725.976 255.677 725.722 254.03C724.051 245.866 723.905 239.495 720.72 231.343C712.556 209.045 699.523 186.625 678.581 173.979C672.682 170.188 666.554 166.87 660.291 164.096C659.141 163.684 660.049 163.442 658.571 162.824C657.433 162.364 655.095 161.673 650.057 160.656C649.524 160.547 648.954 160.438 648.361 160.317C612.169 152.892 571.109 156.901 541.93 182.228C516.676 202.928 503.8 236.091 501.644 267.729C497.829 306.549 506.938 353.339 536.334 380.664C551.075 395.865 571.193 404.138 592.111 407.384C606.428 410.303 624.96 410.448 638.901 408.353C640.137 408.231 640.657 408.11 641.36 408.159C641.396 408.171 641.396 408.195 641.348 408.231C640.367 408.789 633.983 410.303 636.103 410.266C641.215 409.515 655.083 406.633 661.067 403.302C661.648 402.926 661.539 402.333 662.145 401.885C664.737 400.056 669.037 398.663 672.162 396.967C678.714 394.205 684.346 389.978 690.463 387.81C691.432 387.495 692.389 386.89 693.297 386.369C698.918 382.566 703.024 376.267 707.311 370.78C713.307 362.156 725.092 348.59 722.609 337.774C720.369 327.043 708.438 328.981 699.826 328.835C667.825 327.963 664.87 332.905 639.507 348.736C625.347 356.56 606.707 355.204 593.165 346.301C584.723 341.008 578 332.735 574.875 323.348C572.489 315.427 570.382 308.051 576.535 304.114C578.776 302.903 581.259 302.721 584.02 302.576C589.592 302.273 594.849 302.019 600.554 302.091C610.413 302.152 619.001 302.479 629.357 302.212C652.237 301.752 674.136 301.159 696.907 300.916C703.581 300.892 709.492 300.892 713.452 300.65C714.833 300.565 715.536 300.444 715.233 300.287C706.972 298.978 696.108 298.857 686.914 298.47C662.508 298.167 638.659 297.634 615.028 297.392C603.582 297.864 589.786 296.132 578.582 299.705C562.872 304.877 567.366 324.269 574.694 335.485C580.653 345.235 592.995 355.979 602.831 358.305C613.817 359.31 626.438 362.035 637.06 356.996C646.144 352.479 654.671 345.211 664.216 340.56C675.311 334.734 686.139 334.056 697.985 334.056C719.181 332.675 716.25 346.362 706.972 360.121L706.839 360.315L706.815 360.291ZM647.586 164.423C646.387 164.072 648.809 164.459 648.857 164.52C648.809 164.629 648.046 164.471 647.84 164.471L647.586 164.423ZM609.347 160.91C609.795 160.886 610.159 160.874 610.425 160.862C611.539 160.838 611.031 160.922 609.432 161.092C606.973 161.383 603.218 161.843 600.493 162.049C597.211 162.315 595.624 162.364 596.496 162.218C600.118 161.673 605.459 161.104 609.129 160.91H609.359H609.347ZM693.855 186.709C693.746 186.649 693.176 186.261 693.322 186.358C693.382 186.395 693.758 186.637 693.843 186.697L693.855 186.709ZM673.821 172.029C673.918 172.029 673.179 171.387 672.755 171.097C671.822 170.54 673.518 171.945 673.76 172.017H673.821V172.029ZM626.595 158.015C626.183 157.858 621.471 157.688 620.963 157.749C622.537 157.955 624.851 158.028 626.547 158.015H626.595ZM541.482 382.929C540.743 382.36 540.21 381.924 539.568 381.633C538.696 381.609 543.492 385.315 543.674 385.218C544.304 385.242 542.063 383.413 541.748 383.135L541.482 382.917V382.929ZM679.09 391.613C678.835 391.892 678.327 392.485 678.896 392.473C679.683 392.449 682.299 390.366 682.36 389.833C682.36 389.675 682.312 389.627 682.106 389.663C681.137 389.881 680.022 390.741 679.247 391.456L679.078 391.625L679.09 391.613Z" fill="#202020"/>
<path d="M369.911 678.918C370.395 678.736 370.299 678.772 369.875 678.918H369.911Z" fill="#202020"/>
<path d="M395.952 631.667C381.938 636.137 370.117 646.989 364.582 660.822C362.365 666.539 360.863 673.455 363.504 679.014C367.416 686.972 378.196 685.361 385.512 685.107C389.884 684.986 393.784 684.804 398.278 684.647C411.008 684.198 424.017 683.835 436.553 683.375C440.199 683.157 444.462 683.12 447.793 682.527C448.52 682.333 447.999 682.224 446.679 682.055C443.348 681.643 439.339 681.655 435.85 681.449C419.39 680.02 402.723 680.48 386.032 680.02C377.033 679.862 366.289 676.737 369.027 665.533C370.723 658.29 374.901 651.931 379.649 646.36C382.399 643.162 385.076 640.219 388.843 638.341C392.549 636.73 396.679 636.149 400.688 635.495C404.685 634.913 408.779 634.453 412.91 634.78C425.422 635.773 439.048 642.435 447.188 651.616C451.584 656.485 454.637 662.275 456.865 668.404C457.253 669.24 459.578 675.853 460.002 672.716C459.506 659.174 449.513 644.143 438.527 636.706C426.5 628.797 409.857 627.21 396.146 631.57L395.94 631.631L395.952 631.667ZM419.874 683.145C419.983 683.096 420.177 682.854 420.117 683.108L419.874 683.145ZM411.214 682.854C411.638 682.951 411.517 682.951 411.565 682.987C410.802 683.242 409.155 683.447 408.319 683.12C408.937 682.745 410.257 682.745 411.02 682.818L411.226 682.842L411.214 682.854ZM431.708 680.092C431.708 680.092 431.623 680.177 431.575 680.226L431.708 680.092ZM426.161 680.589C425.543 680.213 425.761 680.54 426.161 680.65V680.589ZM415.09 679.85C415.15 679.79 414.254 679.693 413.951 679.729C413.334 679.802 414.763 679.911 415.017 679.874L415.09 679.838V679.85ZM369.875 662.796C369.838 663.389 369.947 663.268 370.056 663.329C370.371 663.353 370.723 661.936 370.202 662.239C370.141 662.324 370.02 662.481 369.959 662.566L369.887 662.796H369.875ZM389.254 637.457C388.976 637.978 389.509 638.596 389.921 638.002C390.308 637.445 389.933 636.912 389.351 637.3L389.254 637.445V637.457Z" fill="#202020"/>
<path d="M379.383 685.119C379.589 685.143 380.061 684.864 379.892 684.816C379.758 684.719 379.25 684.986 379.286 685.082L379.371 685.119H379.383Z" fill="#202020"/>
<path d="M521.169 753.832C522.405 753.554 518.82 753.723 518.468 753.796C518.263 753.844 518.432 753.832 518.553 753.856C519.219 753.917 520.322 753.917 520.964 753.856L521.169 753.832Z" fill="#202020"/>
<path d="M518.275 753.82C518.275 753.82 517.209 753.772 516.736 753.76C515.804 753.76 518.032 753.844 518.25 753.82H518.275Z" fill="#202020"/>
<path d="M518.408 687.48C518.384 687.056 518.154 684.864 518.105 684.755C518.154 685.506 518.299 686.923 518.408 687.553V687.48Z" fill="#202020"/>
<path d="M525.033 691.477C525.009 691.356 525.263 693.415 525.312 693.391C525.336 693.391 525.094 691.501 525.033 691.417V691.477Z" fill="#202020"/>
<path d="M305.728 678.651C305.437 678.59 304.819 684.61 305.074 684.295C305.486 682.805 305.764 680.153 305.74 678.711V678.663L305.728 678.651Z" fill="#202020"/>
<path d="M307.981 746.104C307.981 746.104 308.114 747.195 308.114 747.182C308.138 747.316 308.017 746.298 307.981 746.129V746.092V746.104Z" fill="#202020"/>
<path d="M316.811 643.888C358.659 552.186 500.252 574.788 517.003 670.305C518.662 679.426 519.437 687.699 519.813 695.148C521.145 708.895 514.278 719.3 499.888 719.421C489.811 719.578 477.771 718.767 467.948 719.348C463.83 719.808 459.663 720.087 455.17 720.026C454.709 719.99 452.759 720.075 453.341 719.639C458.876 717.785 442.645 719.784 441.689 719.627C427.033 720.547 411.759 719.917 396.764 720.051C385.245 720.596 368.094 717.737 363.915 729.559C361.469 742.289 369.196 755.976 377.59 765.52C390.344 781.048 406.187 782.102 424.283 779.486C448.762 776.009 449.864 758.156 470.383 755.346C473.665 754.946 477.165 754.667 480.254 754.147C480.763 754.025 480.266 753.965 480.085 753.965C477.529 754.038 474.392 754.462 471.715 754.546C467.318 754.861 464.557 754.389 461.274 755.636C458.488 757.114 457.471 758.507 454.358 761.051C448.738 765.314 443.251 770.898 437.098 774.411C431.744 777.196 425.785 777.511 419.45 778.262C409.458 779.873 400.192 778.214 391.531 773.454C386.456 770.886 381.066 766.998 377.324 763.122C375.773 761.559 375.931 761.487 375.87 761.075C374.78 757.247 371.655 750.792 370.371 745.353C368.361 737.856 366.629 728.517 374.429 724.835C378.232 723.442 382.108 723.878 386.202 723.83C399.78 723.999 415.15 723.745 429.552 723.939C451.148 724.241 473.084 724.556 494.547 724.399C503.086 724.144 512.8 725.089 519.764 721.758C524.694 719.348 525.918 713.377 526.027 708.265C526.196 700.913 525.687 694.118 525.191 687.166C523.277 657.454 509.59 623.576 487.158 604.414C481.259 599.424 474.9 594.373 468.299 590.824C457.18 585.604 445.516 582.443 432.822 581.05C421.861 580.165 410.451 579.838 399.38 580.662C392.295 581.001 380.679 583.787 375.349 585.107C368.155 586.948 376.331 584.187 377.845 582.903C372.66 584.102 365.647 586.864 360.463 589.54C357.787 590.982 355.352 591.878 353.341 593.695C352.518 595.73 352.409 595.488 349.877 597.438C343.664 601.992 336.76 607.127 331.37 611.924C328.814 614.225 327.76 614.153 325.665 616.03C321.777 619.506 319.451 624.702 316.895 629.511C308.538 645.645 301.428 662.19 299.09 680.201C297.068 692.81 297.092 704.062 297.855 716.635C298.86 730.867 300.568 746.613 305.243 760.421C318.01 803.262 362.704 830.914 405.751 833.458C432.519 833.918 460.535 828.698 482.919 812.94C490.852 807.005 497.611 800.282 503.582 792.458C509.045 784.936 514.072 775.646 517.935 767.204C521.121 759.985 508.088 782.017 505.654 784.488C494.668 799.338 480.169 812.092 462.934 818.887C442.633 826.53 420.25 829.8 398.617 827.051C375.725 824.35 352.59 812.092 334.676 798.744C312.971 780.333 306.794 749.58 303.911 722.534C300.386 694.663 304.032 669.99 316.677 644.118L316.786 643.9L316.811 643.888ZM367.44 753.044C367.077 752.027 368.106 754.025 368.143 754.147C368.191 754.268 368.155 754.231 368.058 754.098C367.912 753.88 367.937 753.989 367.549 753.287L367.44 753.044ZM370.601 720.68C370.165 720.632 369.414 720.632 369.051 720.499C369.051 720.487 369.112 720.474 369.221 720.462C372.2 720.378 381.951 719.82 383.84 720.571C380.134 720.874 374.538 720.935 370.819 720.692H370.601V720.68ZM409.482 778.856C409.361 778.88 408.707 778.965 408.876 778.928C408.949 778.928 409.373 778.856 409.458 778.856H409.482ZM386.832 772.17C386.953 772.182 385.645 770.862 385.621 771.019C385.572 771.104 386.626 772.133 386.783 772.17H386.832ZM365.187 731.533C365.308 731.533 365.284 726.228 365.236 726.204C365.236 726.179 365.224 726.143 365.211 726.131C365.078 727.609 365.102 730.08 365.175 731.497V731.533H365.187ZM475.07 597.123C475.918 597.559 476.572 598.128 477.299 598.128C477.432 597.813 472.926 595.088 472.575 595.136C471.945 595.185 474.416 596.711 474.779 596.941L475.07 597.123ZM337.971 608.448C338.819 606.861 337.196 607.794 336.239 609.041C335.524 609.877 335.052 610.713 335.221 610.894C335.391 610.991 335.5 610.931 335.706 610.822C336.493 610.374 337.329 609.405 337.85 608.641L337.971 608.436V608.448Z" fill="#202020"/>
<path d="M511.867 718.439C511.346 718.427 509.505 718.464 509.251 718.706C509.626 718.839 511.504 718.682 511.94 718.573C512.194 718.524 512.231 718.476 512.049 718.452H511.879L511.867 718.439Z" fill="#202020"/>
<path d="M314.667 633.496C314.594 633.412 312.571 637.566 312.62 637.736C313.286 636.694 314.243 634.696 314.679 633.509L314.667 633.496Z" fill="#202020"/>
<path d="M311.59 639.129C311.59 639.129 313.274 635.592 313.371 635.301C312.862 636.367 312.038 638.111 311.59 639.129Z" fill="#202020"/>
<path d="M306.612 650.598C307.266 649.326 308.235 647.098 308.707 645.668C308.707 645.378 306.418 650.828 306.588 650.61H306.6L306.612 650.598Z" fill="#202020"/>
<path d="M304.698 690.957C304.614 690.376 304.347 690.945 304.359 691.999C304.371 692.907 304.492 693.416 304.614 692.944C304.747 692.386 304.759 691.757 304.723 691.187L304.698 690.957Z" fill="#202020"/>
<path d="M303.754 700.623C303.85 703.445 304.056 703.106 304.153 700.272C304.202 698.467 304.177 696.323 304.117 694.482C304.032 691.902 303.911 692.326 303.79 694.252C303.693 695.875 303.693 698.685 303.741 700.344V700.623H303.754Z" fill="#202020"/>
<path d="M512.219 778.396C512.63 778.251 513.333 777.112 513.514 776.567C513.551 776.204 512.194 778.105 512.206 778.347L512.231 778.384L512.219 778.396Z" fill="#202020"/>
<path d="M1331.8 631.764C1314.3 637.36 1295.68 656.231 1298.37 675.744C1300.75 686.5 1312.7 685.567 1321.1 685.034C1325.54 684.913 1329.38 684.731 1333.94 684.574C1349.46 683.944 1365.3 683.811 1380.57 682.805C1388.87 682.091 1376.77 681.57 1374.66 681.522C1369.73 681.376 1364.72 680.867 1359.74 680.601C1352.93 680.322 1345.96 680.262 1338.94 680.201C1330.56 679.898 1321.57 680.783 1313.34 678.784C1300.96 675.49 1303.52 664.843 1308.59 656.11C1311.07 651.774 1314.3 647.886 1317.64 644.276C1319.14 642.69 1320.58 641.236 1322.42 639.988C1324.47 638.462 1326.95 637.566 1329.46 636.96C1333.76 635.882 1338.16 635.216 1342.59 634.841C1359.41 633.738 1378.19 643.235 1387.44 657.345C1390.58 661.827 1392.07 667.072 1394.29 671.953C1396.59 676.289 1395.77 669.155 1394.88 666.163C1391.57 652.561 1381.45 639.964 1369.13 633.896C1357.55 628.881 1344.21 627.61 1332.03 631.692L1331.82 631.764H1331.8ZM1355.45 683.048C1355.56 682.999 1355.76 682.757 1355.7 683.011L1355.45 683.048ZM1346.79 682.757C1347.25 682.854 1347.12 682.854 1347.17 682.902C1346.6 683.157 1344.35 683.326 1343.93 683.036C1344.59 682.684 1345.81 682.648 1346.57 682.733L1346.79 682.769V682.757ZM1367.25 679.995C1367.25 679.995 1367.17 680.08 1367.12 680.129L1367.25 679.995ZM1361.73 680.492C1361.11 680.117 1361.33 680.444 1361.73 680.553V680.492ZM1350.68 679.753C1350.74 679.693 1349.84 679.596 1349.55 679.632C1348.95 679.705 1350.35 679.814 1350.62 679.777L1350.69 679.741L1350.68 679.753ZM1305.55 662.602C1305.51 663.196 1305.62 663.087 1305.73 663.135C1306.05 663.159 1306.39 661.754 1305.88 662.045C1305.82 662.13 1305.7 662.287 1305.64 662.372L1305.56 662.602H1305.55ZM1325.24 637.554C1324.98 638.075 1325.51 638.692 1325.92 638.099C1326.3 637.542 1325.92 636.997 1325.34 637.409L1325.24 637.566V637.554Z" fill="#202020"/>
<path d="M1456.34 753.832C1457.56 753.554 1454 753.723 1453.64 753.796C1453.43 753.844 1453.6 753.832 1453.72 753.856C1454.39 753.917 1455.49 753.917 1456.12 753.856L1456.32 753.832H1456.34Z" fill="#202020"/>
<path d="M1453.45 753.807C1453.45 753.807 1452.4 753.747 1451.93 753.747C1450.99 753.747 1453.21 753.831 1453.43 753.819H1453.45V753.807Z" fill="#202020"/>
<path d="M1436.67 753.371C1439.32 753.614 1444.03 753.468 1446.84 753.25C1447.29 753.202 1447.55 753.141 1447.06 753.069C1444.48 752.802 1439.23 753.008 1437.22 753.19C1437.03 753.214 1436.36 753.262 1436.59 753.359H1436.67V753.371Z" fill="#202020"/>
<path d="M1442.94 753.698C1443.84 753.371 1439.05 754.001 1439.77 754.05C1440.68 754.062 1441.94 753.904 1442.77 753.747L1442.94 753.71V753.698Z" fill="#202020"/>
<path d="M1445 754.062C1444.93 754.026 1439.5 754.22 1439.28 754.292C1440.84 754.268 1443.55 754.183 1445 754.074V754.062Z" fill="#202020"/>
<path d="M1454.08 686.318C1454.06 685.906 1453.83 683.726 1453.78 683.617C1453.83 684.368 1453.96 685.773 1454.08 686.391V686.318Z" fill="#202020"/>
<path d="M1460.68 690.363C1460.67 690.242 1460.87 692.325 1460.91 692.289C1460.94 692.301 1460.75 690.387 1460.68 690.291V690.363Z" fill="#202020"/>
<path d="M1252.64 644.542C1298.42 545.948 1448.8 579.136 1454.24 684.416C1455.8 698.491 1455.88 716.017 1438.82 719.009C1428.71 720.135 1416.87 718.742 1406.59 719.191C1400.85 719.421 1395.35 720.317 1389.33 719.99C1386.8 719.76 1392.49 718.827 1388.91 718.863C1378.04 719.53 1367.97 720.329 1356.47 720.147C1349.52 720.099 1341.39 720.002 1334.1 720.051C1322.2 720.789 1303.7 717.095 1299.64 730.225C1297.28 748.139 1312.26 768.173 1326.87 776.676C1341.08 783.519 1362.11 781.969 1375.5 773.987C1380.39 771.152 1384.13 767.143 1388.18 763.509C1396.07 756.218 1405.03 755.273 1415.11 754.147C1415.18 754.135 1415.24 754.11 1415.3 754.098C1415.6 754.001 1415.54 753.941 1415.35 753.916C1414.89 753.88 1414.45 753.892 1413.69 753.965C1408.24 754.849 1401.16 754.098 1396.49 755.697C1390.2 760.154 1383.34 766.574 1376.99 771.54C1369.81 777.693 1360.16 777.984 1350.92 779.025C1336.52 780.333 1323.29 772.824 1313.33 763.207C1312.67 762.48 1311.95 761.983 1311.84 761.063C1309.08 753.371 1304.63 743.96 1304.56 735.142C1304.63 723.914 1312.99 723.369 1322.06 723.805C1335.49 723.999 1350.52 723.611 1364.77 723.805C1386.3 724.084 1408.59 724.895 1429.79 724.471C1442.36 724.229 1458.65 725.029 1460.24 709.537C1464.17 671.904 1450.27 627.985 1421.22 603.579C1403.96 587.978 1382.25 580.456 1359.06 579.923C1351.32 579.681 1342.46 579.572 1334.5 580.42C1325.89 581.11 1314.22 584.49 1307.49 586.415C1306.98 586.512 1306.7 586.621 1307.04 586.379C1308.23 585.592 1313.88 583.23 1312.91 583.206C1305.01 585.543 1296.93 589.383 1289.85 593.852C1288.88 594.494 1288.86 594.967 1288.47 595.815C1286.29 598.395 1282.32 600.441 1279.33 602.985C1274.99 606.183 1271.31 609.271 1267.35 612.614C1265.26 614.468 1264.44 614.698 1262.81 615.739C1260.3 617.58 1258.52 619.797 1256.79 622.68C1239.39 652.755 1231.8 680.54 1233.99 715.29C1235.01 747.86 1244.73 782.853 1270.63 804.764C1290.26 822.181 1318.22 832.017 1343.66 833.821C1362.09 833.64 1380.34 831.435 1397.66 823.95C1425.03 812.685 1442.01 794.02 1453.22 767.204C1456.47 759.658 1443.57 782.308 1441.05 784.742C1429.79 799.955 1414.67 812.492 1396.97 819.311C1372.76 828.419 1346.13 831.241 1320.38 824.168C1302.03 819.396 1283.38 808.822 1269.1 797.424C1249.47 778.577 1242.74 749.605 1240.16 723.345C1236.84 695.705 1240.24 670.439 1252.56 644.773L1252.66 644.567L1252.64 644.542ZM1303.2 753.057C1302.81 752.051 1303.89 754.025 1303.92 754.147C1303.96 754.268 1303.93 754.231 1303.83 754.11C1303.69 753.904 1303.71 754.001 1303.32 753.299L1303.21 753.069L1303.2 753.057ZM1306.41 720.668C1305.97 720.62 1305.22 720.62 1304.86 720.487C1304.86 720.474 1304.92 720.462 1305.03 720.45C1308.01 720.365 1317.72 719.808 1319.61 720.559C1315.92 720.862 1310.33 720.923 1306.63 720.68H1306.41V720.668ZM1345.08 779.195C1344.96 779.219 1344.31 779.292 1344.48 779.268C1344.55 779.268 1344.98 779.207 1345.06 779.195H1345.08ZM1322.56 772.17C1322.67 772.17 1321.78 771.261 1321.49 771.068C1321.33 770.959 1321.31 770.983 1321.44 771.152C1321.66 771.419 1322.14 771.903 1322.5 772.158H1322.56V772.17ZM1300.81 731.666C1300.94 731.666 1301.03 726.422 1300.97 726.397C1300.97 726.373 1300.96 726.337 1300.96 726.325C1300.79 727.79 1300.77 730.225 1300.81 731.63V731.666ZM1409.79 596.784C1410.37 597.135 1410.9 597.413 1411.28 597.583C1414.1 598.673 1407.34 594.543 1407.29 594.809C1407.2 594.785 1407.15 594.797 1407.15 594.834C1407.66 595.536 1408.69 596.057 1409.5 596.602L1409.79 596.784ZM1273.46 609.344C1273.66 609.017 1274.05 608.339 1273.49 608.46C1272.73 608.629 1270.58 611.173 1270.62 611.73L1270.65 611.863C1271.7 611.754 1272.65 610.386 1273.33 609.55L1273.46 609.356V609.344Z" fill="#202020"/>
<path d="M1447.35 718.439C1446.83 718.427 1445 718.464 1444.73 718.706C1445.11 718.839 1446.99 718.682 1447.41 718.573C1447.66 718.524 1447.7 718.476 1447.52 718.452H1447.35V718.439Z" fill="#202020"/>
<path d="M1448.09 778.554C1448.49 778.396 1449.14 777.209 1449.29 776.664C1449.3 776.289 1448.04 778.263 1448.06 778.505L1448.09 778.541V778.554Z" fill="#202020"/>
<path d="M13.47 128.74C5.93612 121.121 5.47586 106.938 9.44869 98.011C12.4768 91.0949 19.5261 87.9941 26.8056 87.1705C98.0866 86.3226 175.327 86.3226 240.685 87.2068C248.509 87.7398 254.65 90.889 256.019 99.2343C257.242 106.465 257.327 114.908 256.734 122.042C255.631 136.916 243.81 135.268 232.824 135.559C227.204 135.559 223.146 136.504 217.235 136.443C204.602 136.77 221.874 134.748 210.016 135.365C188.626 137.509 163.469 132.386 163.626 162.642C163.99 189.762 163.784 215.888 163.893 243.177C164.789 269.049 164.329 294.424 164.946 320.236C164.777 332.36 163.905 345.223 165.637 357.251C165.661 357.384 165.819 358.05 165.867 357.602C166.024 353.569 165.782 347.5 165.782 342.813C166.158 332.905 166.158 319.63 165.855 308.692C166.376 289.119 166.993 268.371 166.739 248.446C166.8 241.13 166.739 235.922 166.909 230.931C166.981 229.987 167.09 230.144 167.224 230.084C167.369 229.962 167.49 229.793 167.587 229.03C168.035 223.422 167.781 214.531 167.732 208.003C167.635 186.77 166.23 174.428 167.914 155.581C169.828 138.684 187.015 140.259 200.048 140.525C212.33 140.549 225.254 141.094 237.378 140.453C252.046 139.823 261.772 132.289 262.463 117.354C263.117 108.21 262.729 96.3153 259.277 88.4302C255.438 80.3997 247.94 80.5329 239.219 80.3634C229.251 80.2544 219.246 80.2665 209.06 80.2059C180.535 80.1211 152.665 80.7994 124.867 80C97.6384 80.109 69.3925 81.2476 41.9339 81.296C38.6151 81.0901 32.6074 81.7078 30.6937 81.3929C31.6384 81.0053 36.1927 80.7873 37.6583 80.3391C34.4727 79.8304 23.7291 80.0363 18.436 80.5572C15.3837 80.9084 12.5494 81.0538 9.78784 81.5383C8.49182 81.7805 8.1769 81.9743 8.1769 82.1681C8.26169 82.4467 8.95209 82.4588 9.03687 82.9312C9.19433 83.3551 8.90364 83.8033 8.62506 84.1545C4.19195 89.1932 1.84216 96.0609 2.24187 102.589C2.26609 104.891 1.85428 108.04 1.33345 109.445C-0.931555 116.603 -0.519737 126.475 4.19195 132.737C9.48503 140.489 18.5329 141.337 27.0721 141.203C35.1268 141.482 43.5327 141.361 51.5026 141.373C58.5762 141.325 63.3606 141.361 70.2282 141.337C77.8106 141.373 86.7494 141.216 91.8003 147.914C97.1297 154.297 96.1365 164.386 96.3182 172.55C96.2939 182.943 96.2213 192.959 96.0153 203.945C95.6399 225.529 95.7125 247.186 95.6035 268.928C95.6278 282.263 95.4582 297.392 95.6883 309.892C95.7973 318.431 96.5846 326.267 96.4151 334.77C96.0154 351.958 96.197 372.113 96.8753 388.597C97.6021 399.886 111.592 402.418 121.027 401.909C129.034 401.776 139.813 401.812 147.444 401.679C148.764 401.751 154.978 401.509 153.646 401.037C149.467 400.068 143.011 400.419 138.166 399.983C119.392 399.002 100.061 398.808 100.775 375.056C100.933 362.701 101.236 350.008 101.006 337.253C100.4 306.5 101.442 275.178 101.442 244.291C101.321 227.237 100.255 211.346 101.478 194.34C101.95 183.597 102.12 173.01 101.902 161.698C101.72 152.952 99.54 143.202 91.8003 138.914C84.2422 134.711 75.1822 136.468 66.9095 136.286C57.7162 136.371 48.5472 135.947 39.3055 135.741C29.6157 135.511 20.3013 135.353 13.5911 128.861L13.47 128.74ZM163.772 218.274C163.772 217.923 163.796 217.765 163.832 217.887C163.941 218.383 163.965 219.11 163.965 219.522C163.965 219.667 163.929 219.619 163.905 219.485C163.869 219.255 163.856 219.352 163.796 218.553V218.286L163.772 218.274ZM164.038 177.807C163.99 178.255 163.99 179.042 163.868 179.43C163.784 179.285 163.82 179.042 163.784 178.631C163.663 174.694 163.408 169.34 163.699 165.089C163.82 163.199 163.941 163.357 164.014 165.053C164.196 168.565 164.292 174.125 164.05 177.589V177.807H164.038ZM166.812 272.828C166.788 272.755 166.679 272.186 166.691 272.198C166.691 272.138 166.8 272.755 166.824 272.84L166.812 272.828ZM166.291 247.004C166.4 247.259 166.679 243.88 166.339 245.854C166.303 246.193 166.255 246.605 166.267 246.944L166.291 247.004ZM167.054 195.418C167.187 195.37 167.211 189.519 167.127 189.544C166.993 191.312 166.981 193.577 167.042 195.37V195.418H167.054ZM141.194 82.0228C142.2 81.9622 143.023 82.0712 143.738 81.7684C143.689 81.4414 138.033 81.514 137.948 81.6836C137.863 81.7078 137.827 81.7442 137.863 81.7684C138.699 82.0591 139.85 81.9864 140.855 82.0228H141.206H141.194ZM3.81647 98.9315C3.7438 98.5803 3.57422 97.8657 3.31987 98.3501C2.89593 99.089 3.19874 102.48 3.59845 102.904C3.6469 102.977 3.69535 102.989 3.7438 102.965C4.32519 101.96 3.94971 100.349 3.85281 99.1617L3.80436 98.9315H3.81647Z" fill="#202020"/>
<path d="M774.208 772.812C773.893 768.634 773.433 772.776 773.614 774.181C774.062 776.495 774.28 773.903 774.22 773.079V772.812H774.208Z" fill="#202020"/>
<path d="M774.123 739.903C774.159 739.709 774.196 738.643 774.159 738.801C774.123 738.801 774.074 739.915 774.111 739.939L774.135 739.891L774.123 739.903Z" fill="#202020"/>
<path d="M773.747 775.125C773.747 775.125 773.784 775.125 773.796 775.137C773.796 775.089 773.796 775.065 773.784 775.016L773.747 775.125Z" fill="#202020"/>
<path d="M780.494 606.813C780.542 586.271 780.118 565.595 780.385 544.544C780.494 531.45 779.113 514.057 795.525 510.738C805.482 508.643 818.248 508.437 826.545 514.215C835.508 521.203 834.006 534.963 834.297 545.113C834.236 557.867 834.757 570.488 835.096 583.061C835.399 593.938 834.757 604.342 835.714 614.662C835.871 616.212 835.629 617.654 835.266 619.131C834.878 620.585 835.108 622.172 835.205 623.892C835.98 633.606 836.077 644.567 835.98 655.166C836.356 682.128 836.077 708.52 836.828 734.78C836.877 747.013 837.167 759.307 837.228 771.541C837.18 777.972 836.949 784.573 837.628 790.872C837.7 791.502 837.785 791.974 837.858 792.277C837.955 792.677 838.04 792.665 838.088 792.337C838.791 777.766 838.1 761.875 838.9 747.11C839.445 736.463 838.972 725.429 839.384 714.904C839.929 709.598 840.329 704.426 840.147 698.927C839.178 661.791 840.377 622.559 840.353 585.084C840.292 572.935 840.208 558.897 840.341 547.633C840.038 536.053 842.4 522.633 835.871 511.974C830.942 503.229 818.769 502.514 810.399 502.756C805.954 502.647 801.678 502.55 797.245 502.466C784.758 501.872 777.175 502.223 775.649 516.831C774.365 525.467 775.274 537.095 775.019 545.888C774.922 548.42 774.656 547.305 774.28 547.645C773.905 548.032 774.014 548.929 774.002 551.218C774.099 554.428 774.232 557.722 774.825 560.811C775.589 564.154 776.206 565.789 776.206 568.926C776.267 573.989 776.376 580.832 775.031 585.265C774.208 587.312 774.111 589.65 774.123 591.867C775.031 621.239 774.014 649.642 774.28 679.184C774.196 709.513 773.36 740.412 773.59 770.923C773.747 781.945 774.365 792.265 774.28 803.166C774.401 828.735 787.471 825.065 807.359 824.629C813.064 824.241 822.536 824.907 826.509 823.732C826.666 823.478 823.929 823.115 823.141 823.054C812.192 821.201 788.851 824.374 782.529 814.345C778.374 807.635 779.162 798.745 778.956 790.957C778.822 776.931 779.125 762.735 779.319 748.418C779.561 737.117 778.992 726.471 778.992 715.957C779.368 704.547 780.046 692.871 780.058 680.771C780.106 669.519 779.695 658.363 779.646 647.668C779.489 634.672 780.494 620.936 780.458 607.043V606.813H780.494ZM835.871 703.142C835.871 702.937 835.908 702.815 835.944 702.876C836.065 703.312 836.053 703.772 836.065 703.966C835.932 703.906 835.956 703.506 835.884 703.373V703.142H835.871ZM836.138 676.58C836.065 677.307 836.053 677.331 836.005 677.525C835.762 677.997 835.605 671.408 835.666 670.27C835.775 667.532 835.968 666.418 836.09 668.077C836.283 670.391 836.38 674.049 836.15 676.362L836.126 676.58H836.138ZM838.912 739.043C838.778 738.595 838.778 738.583 838.912 739.043ZM838.403 722.062C838.451 722.122 838.718 720.826 838.573 720.887C838.488 720.948 838.318 721.929 838.367 722.038L838.403 722.062ZM839.154 688.184C839.263 687.869 839.348 684.804 839.214 684.332C839.105 685.483 839.081 686.96 839.142 688.147V688.184H839.154ZM805.893 504.719C806.305 504.682 806.899 504.682 807.299 504.573C807.456 504.525 807.504 504.464 807.395 504.416C807.068 504.186 803.859 504.186 803.628 504.392C803.35 504.706 805.143 504.706 805.554 504.731H805.881L805.893 504.719ZM777.623 578.47C776.763 576.218 776.618 580.069 777.248 580.881C777.987 581.656 777.829 579.076 777.684 578.701L777.623 578.47Z" fill="#202020"/>
<path d="M773.808 506.983C773.796 506.693 773.747 506.16 773.711 505.869C773.687 505.675 773.663 505.385 773.663 505.699C773.687 506.148 773.711 506.693 773.747 507.141C773.784 507.395 773.808 507.407 773.808 507.189V506.983Z" fill="#202020"/>
<path d="M773.699 502.974C773.651 502.622 773.554 503.083 773.554 503.846C773.578 504.633 773.626 504.924 773.699 504.439C773.735 504.052 773.735 503.579 773.723 503.192L773.699 502.974Z" fill="#202020"/>
<path d="M774.159 531.498C774.087 531.595 774.002 532.733 774.014 533.387C774.014 533.957 774.087 533.957 774.147 533.363C774.183 532.854 774.244 531.922 774.183 531.486H774.159V531.498Z" fill="#202020"/>
<path d="M774.05 538.669C774.026 538.257 773.929 537.531 773.832 537.155C773.735 536.768 773.675 536.683 773.699 537.095C773.711 537.47 773.796 538.233 773.881 538.633C773.965 539.057 774.05 539.178 774.05 538.887V538.669Z" fill="#202020"/>
<path d="M773.626 548.904C773.59 549.255 773.735 550.042 773.881 550.273C773.965 550.382 774.038 550.091 774.099 549.667C774.159 549.207 774.184 548.662 774.159 548.201C774.123 548.056 774.026 548.141 773.929 548.201C773.76 548.407 773.747 548.419 773.638 548.771V548.892L773.626 548.904Z" fill="#202020"/>
<path d="M774.135 574.412C774.208 574.473 774.196 571.505 774.05 571.433C773.869 572.268 773.953 573.686 774.111 574.424H774.135V574.412Z" fill="#202020"/>
<path d="M1711.18 510.193C1711.18 510.193 1711.09 510.835 1711.07 511.453C1711.05 512.047 1711.07 512.349 1711.12 512.204C1711.2 511.562 1711.24 510.86 1711.2 510.205H1711.18V510.193Z" fill="#202020"/>
<path d="M1711.01 526V525.903C1710.94 526 1710.95 526.036 1711.01 526Z" fill="#202020"/>
<path d="M1710.96 535.992C1710.96 535.931 1710.96 535.871 1710.95 535.81C1710.9 535.919 1710.89 535.992 1710.96 535.992Z" fill="#202020"/>
<path d="M1710.94 512.179C1710.77 512.119 1710.76 512.361 1710.71 512.543C1710.53 513.681 1710.5 517.339 1711.14 518.817C1711.3 519.035 1711.34 518.805 1711.4 518.563C1711.6 516.843 1711.64 513.754 1710.99 512.228L1710.94 512.179Z" fill="#202020"/>
<path d="M1709.64 718.913C1709.64 718.707 1709.48 717.35 1709.48 717.604C1709.46 717.689 1709.62 719.046 1709.64 718.973V718.913Z" fill="#202020"/>
<path d="M1770 780.37C1769.39 792.107 1772.6 807.877 1761.49 815.459C1752.87 820.522 1740.62 820.244 1731.23 817.845C1713.53 813.34 1715.69 792.349 1715.5 777.608C1715.14 749.653 1715.65 722.449 1714.67 695.293C1714.01 683.605 1714.62 670.463 1714.11 659.295C1713.99 657.236 1713.75 654.886 1713.72 652.9C1713.74 651.362 1714.32 649.957 1714.44 648.443C1714.33 643.598 1713.77 638.801 1713.6 632.987C1713.2 603.542 1713.48 572.922 1712.85 544.047C1712.71 538.729 1712.57 533.582 1712.6 528.313C1712.67 522.753 1712.4 515.716 1715.15 510.932C1718.94 504.621 1727.91 505.747 1734.48 505.493C1736.82 505.311 1740.72 505.408 1742.49 504.706C1741.16 504.306 1739.53 504.536 1736.76 504.403C1729.64 504.149 1721.79 504.488 1715.65 508.63C1711.43 511.658 1710.76 517.509 1710.6 522.475C1709.76 534.672 1710.93 547.511 1709.56 559.55C1708.78 576.604 1710.08 594.834 1709.64 612.178C1709.12 664.504 1708.9 719.518 1708.84 771.915C1709 783.349 1708.79 792.519 1708.59 803.468C1707.47 821.818 1718.43 824.616 1735.97 825.052C1742.13 825.234 1748.55 824.87 1754.57 825.016C1758.25 825.125 1756.93 825.379 1757.32 825.779C1761.29 826.808 1766.64 824.858 1770.84 824.071C1771.29 823.998 1771.79 823.78 1772.23 823.635C1774.02 823.175 1772.79 820.45 1773.1 819.081C1773.44 814.187 1774.53 807.95 1775.13 803.08C1776.02 800.476 1776.53 798.066 1776.4 795.232C1776.28 786.39 1775.81 777.366 1775.94 768.463C1776.36 746.104 1776.21 724.762 1776.26 702.258C1776.36 679.874 1777.01 657.018 1776.94 634.38C1777.2 619.736 1776.55 605.408 1776.3 590.945C1776.42 570.149 1775.52 548.722 1775.02 528.083C1775.04 524.073 1774.68 509.078 1773.49 520.101C1771.4 548.879 1771.5 577.38 1771.55 606.364C1771.57 624.836 1770.71 644.882 1771.39 663.014C1771.8 678.796 1770.24 691.914 1770.41 708.835C1770.43 720.256 1770.83 731.121 1770.86 742.01C1770.88 754.207 1769.97 767.034 1770.01 780.128V780.358L1770 780.37ZM1713.87 566.382C1713.87 566.588 1713.83 566.709 1713.8 566.648C1713.67 566.212 1713.69 565.752 1713.67 565.57C1713.81 565.631 1713.78 566.03 1713.86 566.164V566.394L1713.87 566.382ZM1713.59 592.871C1713.66 592.145 1713.67 592.12 1713.72 591.927C1713.97 591.454 1714.12 598.019 1714.06 599.158C1713.95 601.883 1713.76 602.997 1713.64 601.35C1713.44 599.049 1713.35 595.403 1713.58 593.089L1713.6 592.883L1713.59 592.871ZM1710.83 530.59C1710.96 531.05 1710.96 531.026 1710.83 530.59ZM1711.34 547.523C1711.29 547.462 1711.02 548.746 1711.17 548.698C1711.25 548.637 1711.42 547.668 1711.37 547.559L1711.34 547.535V547.523ZM1710.59 581.292C1710.48 581.498 1710.42 584.756 1710.51 585.144C1710.66 583.957 1710.66 582.527 1710.61 581.316V581.292H1710.59ZM1710.85 793.899C1710.82 793.487 1710.82 792.894 1710.71 792.494C1710.66 792.337 1710.6 792.288 1710.55 792.397C1710.32 792.724 1710.32 795.922 1710.53 796.152C1710.84 796.419 1710.84 794.638 1710.86 794.226V793.899H1710.85ZM1772.58 808.458C1772.98 809.73 1773.52 808.81 1773.32 807.356C1773.22 806.387 1772.89 805.612 1772.65 805.842C1772.21 806.484 1772.37 807.477 1772.52 808.228L1772.58 808.458Z" fill="#202020"/>
<path d="M1709.65 516.285C1709.77 516.309 1710.15 513.245 1709.88 512.906C1709.59 513.838 1709.51 515.34 1709.63 516.261L1709.65 516.285Z" fill="#202020"/>
<path d="M1709.79 524.715C1709.64 525.66 1709.76 527.295 1709.82 528.276C1709.85 528.857 1710 528.094 1709.97 526.81C1709.92 525.66 1709.86 524.594 1709.81 524.667V524.703L1709.79 524.715Z" fill="#202020"/>
<path d="M1710.62 542.666C1711.47 541.333 1711.19 538.656 1711.13 536.912C1711.07 536.125 1710.97 535.81 1710.78 535.871C1709.71 536.67 1710.09 540.57 1710.13 541.915C1710.21 542.678 1710.37 542.823 1710.56 542.714L1710.61 542.666H1710.62Z" fill="#202020"/>
<path d="M1710.15 550.805C1710.31 548.976 1710.09 545.548 1709.84 543.598C1709.79 543.368 1709.74 543.114 1709.69 543.368C1709.6 544.785 1709.69 549.509 1710.14 550.853V550.805H1710.15Z" fill="#202020"/>
<path d="M1710.2 600.854C1710.43 600.103 1710.61 598.976 1710.37 599.57C1710.26 599.897 1710.11 600.648 1710.07 600.951C1710.04 601.169 1709.97 601.484 1710.13 601.072L1710.19 600.866L1710.2 600.854Z" fill="#202020"/>
<path d="M1709.01 808.555C1708.91 808.616 1708.94 810.19 1709.06 810.578C1709.13 810.929 1709.23 810.965 1709.28 810.723C1709.37 810.033 1709.27 808.979 1709.05 808.543H1709.02L1709.01 808.555Z" fill="#202020"/>
<path d="M1709.33 812.576C1709.25 812.625 1708.73 814.006 1708.82 813.933C1708.82 814.03 1709.36 812.673 1709.35 812.576H1709.33Z" fill="#202020"/>
<path d="M153.258 507.274C151.405 507.334 150.969 507.419 152.616 507.552C158.079 507.976 164.971 507.77 169.913 507.673C170.143 507.649 170.494 507.673 170.397 507.601C169.743 507.48 169.428 507.492 168.435 507.407H168.229C166.509 507.274 164.377 507.213 162.161 507.189C159.859 507.213 157.522 507.213 155.16 507.225C154.494 507.237 153.84 507.262 153.258 507.274Z" fill="#202020"/>
<path d="M294.524 809.67C290.394 798.611 288.141 787.964 287.014 775.901C285.561 755.031 287.123 736.536 282.836 716.03C280.013 702.985 269.258 689.564 259.204 679.571C258.454 678.857 256.455 676.919 256.394 677.113C256.54 677.391 260.319 682.054 261.348 683.254C283.732 708.714 282.811 739.673 282.242 771.516C282.266 775.973 282.363 780.334 282.932 784.73C283.926 793.015 287.414 801.542 287.971 809.718C288.88 821.552 277.022 820.922 267.489 821.479C257.254 821.6 242.211 821.903 234.931 819.263C222.105 814.963 222.65 795.607 220.481 783.047C219.294 772.655 218.301 768.452 218.216 758.762C217.756 749.023 218.774 739.709 216.678 730.177C208.878 697.558 180.886 694.906 152.374 695.414C139.959 695.681 127.992 696.02 115.613 695.741C107.607 695.499 99.1403 696.299 95.2523 703.372C90.8555 712.226 91.231 722.861 90.9403 732.805V733.047C90.8676 747.037 91.122 760.978 91.2795 774.944C91.2795 785.433 92.1879 797.945 89.0629 805.83C84.0726 819.045 67.1517 819.747 55.0758 818.584C41.8491 817.373 34.182 810.881 33.2615 796.697C31.8323 726.398 33.0435 656.195 32.3894 591.03C32.5348 572.583 31.5416 552.271 31.2266 534.284C31.2266 530.227 31.1419 525.915 32.1472 522.354C34.0609 515.946 38.8695 508.958 45.3859 507.286C50.134 506.547 55.5603 506.705 60.8533 506.608C62.0767 506.523 64.378 506.705 65.1048 506.729C65.3107 506.765 65.4681 506.753 65.5287 506.85C65.4681 506.911 65.3349 506.935 65.1048 506.995C64.0389 507.201 62.222 507.468 60.8655 507.649C59.5452 507.819 58.7095 507.952 59.7632 508.001C66.7763 508.497 77.8954 506.753 85.5261 506.886C107.001 506.608 132.328 507.274 155.148 507.238C157.292 507.189 159.762 507.177 162.149 507.201C165.649 507.165 169.077 507.116 172.408 507.032C202.252 506.038 236.748 509.321 261.227 528.592C277.724 542.836 289.158 565.91 291.859 587.409C293.216 603.821 288.48 620.463 283.611 635.943C283.562 636.222 283.175 637.566 283.55 636.742C284.81 633.617 286.07 629.487 287.232 625.926C288.868 619.785 291.896 613.341 292.162 609.223C293.385 595.875 292.804 581.583 289.34 568.901C285.815 557.879 278.1 540.861 268.483 532.128C259.277 523.359 246.789 514.941 234.774 510.278C233.805 509.842 233.32 509.721 232.436 509.321C232.097 509.176 231.855 509.067 231.697 508.994C231.274 508.788 231.588 508.812 231.879 508.788C232.109 508.788 232.497 508.812 232.654 508.788C232.788 508.788 232.775 508.727 232.594 508.655C232.473 508.594 232.255 508.521 231.879 508.425C214.631 503.931 188.469 503.059 169.586 503.749C157.788 503.761 146.233 503.192 134.399 503.253C117.067 503.374 103.077 503.943 84.5208 503.144C74.3828 502.792 63.8209 502.126 54.9789 501.981C41.3525 501.763 33.855 502.95 30.0517 509.926C26.842 516.346 26.7693 522.523 26.2727 531.123C25.9457 540.68 26.1395 550.684 26.1516 560.108C26.624 596.723 25.9457 630.395 25.9215 666.938C25.6913 694.93 26.9994 721.831 25.8246 749.023C25.5581 763.267 26.0062 777.403 26.1758 791.744C26.2606 802.124 28.3318 814.272 37.3434 820.68C44.2353 825.258 52.7018 824.701 62.5733 824.592C68.3872 824.459 80.766 824.12 82.5102 824.192C79.0097 824.859 73.0262 824.859 69.4167 825.464C77.968 825.852 96.1244 826.433 96.73 814.212C96.8269 813.485 96.7058 812.165 96.4514 811.692C96.0275 810.76 95.8216 812.867 95.4703 812.771C94.6346 805.019 95.4219 793.427 95.4582 785.154C95.4582 785.191 95.4582 785.215 95.4582 785.251L95.4945 785.481C95.5551 785.808 95.7247 786.874 95.9911 786.305C96.403 785.482 96.1244 781.424 95.7247 780.842C95.6762 780.77 95.6399 780.733 95.6036 780.733C95.5309 780.794 95.4824 780.879 95.4461 780.964C95.4703 778.808 95.5551 776.567 96.0396 774.653C96.4514 772.521 97.2145 770.426 97.4688 768.197C98.3894 758.701 96.9238 748.43 96.8996 738.667C96.7542 732.72 96.621 727.1 96.6937 721.395C96.4878 715.412 97.6505 709.162 103.174 705.831C108.394 702.088 114.911 700.804 121.27 700.913C141.824 701.168 163.069 699.629 183.527 703.784C203.742 707.648 210.973 724.569 212.366 743.658C213.662 760.288 213.795 777.185 216.109 793.875C217.417 804.147 220.469 816.174 229.735 821.685C236.651 826.046 246.16 826.591 254.36 826.651C262.039 826.736 270.166 826.651 277.203 826.433C288.322 825.331 302.518 825.077 294.476 809.682L294.524 809.67ZM273.267 539.347C273.182 539.275 272.576 538.73 272.673 538.814C272.722 538.851 273.194 539.287 273.267 539.347ZM218.204 509.369C218.386 509.406 218.265 509.418 218.011 509.418C217.732 509.418 217.817 509.442 217.005 509.345L216.739 509.309C216.4 509.26 216.206 509.2 216.23 509.176C216.811 509.176 217.696 509.285 218.204 509.369Z" fill="#202020"/>
<path d="M97.59 624.242L97.5537 624C97.2387 623.14 97.5537 624.787 97.59 624.242Z" fill="#202020"/>
<path d="M226.198 595.742C225.024 586.524 222.516 576.544 215.309 570.148C197.698 555.153 166.049 558.448 144.174 558.399C132.195 558.957 119.55 559.041 107.522 560.265C98.7649 561.924 125.242 563.196 127.338 563.111C141.727 563.402 157.195 563.547 171.402 563.644C192.526 563.365 216.569 567.69 219.052 593.477L219.076 593.695C224.878 648.188 174.2 642.253 136.725 643.513C130.887 643.67 125.376 644.106 119.683 643.888C112.343 644.397 102.508 643.949 99.2009 635.858C95.8458 628.881 96.5846 620.003 96.294 612.166C95.8942 602.585 95.979 594.167 95.5793 584.841C94.3923 566.418 94.1864 607.236 93.8109 609.465C93.823 619.385 89.7049 639.37 99.1888 645.087C108.467 650.09 123.886 648.249 134.908 648.854C148.425 648.939 161.64 649.145 175.157 648.757C185.707 648.236 194.44 648.842 203.706 644.893C211.216 641.599 217.078 633.823 221.596 627.44C224.878 623.006 224.745 618.755 224.745 613.728C224.357 609.271 225.98 605.686 226.271 601.216C226.368 599.436 226.332 597.498 226.174 595.73L226.198 595.742ZM94.5377 605.516C94.6709 605.746 94.6709 605.746 94.5377 605.516ZM97.6869 641.623C97.6263 642.059 97.6263 642.253 97.5052 642.495C97.0691 641.756 97.1782 639.37 97.2872 638.401L97.3114 638.183C97.4325 637.432 97.4688 637.578 97.5052 637.59C97.7111 638.559 97.8322 640.472 97.6748 641.623H97.6869Z" fill="#202020"/>
<path d="M575.784 251.716C572.986 245.139 576.801 238.078 580.52 232.337C586.394 223.87 594.594 217.002 603.993 213.538C610.159 211.285 617.329 210.086 623.555 211.019C628.121 211.734 632.93 213.793 637.121 216.046C646.932 221.048 655.592 228.933 659.867 239.204C660.958 241.494 661.805 244.17 662.92 246.351C664.131 248.204 661.927 240.028 661.587 239.338C659.662 234.166 657.76 228.788 654.441 224.355C644.642 212.133 627.867 206.574 612.448 206.441C601.05 206.465 589.81 211.782 581.186 218.795C577.334 221.896 574.27 225.905 572.162 230.399C569.57 235.825 566.324 241.808 565.912 247.477C565.731 249.863 565.597 252.395 564.931 254.72C564.58 255.992 564.011 257.373 564.41 258.681C566.058 262.92 578.497 262.533 582.615 262.69C587.496 262.763 591.736 262.872 597.138 262.957C609.129 263.187 621.193 263.477 632.906 263.041C639.64 262.714 646.217 262.472 652.903 261.757C653.593 261.636 654.381 261.515 655.095 261.273C659.238 259.262 640.209 258.318 638.501 258.221C624.887 257.724 614.253 257.797 601.644 257.397C594.824 256.864 579.539 258.766 575.869 251.874L575.808 251.765L575.784 251.716ZM648.119 224.052C648.3 224.052 648.47 224.003 648.276 224.197L648.119 224.052ZM641.626 218.626C641.953 218.953 641.844 218.868 641.869 218.928C640.984 218.565 639.773 217.766 639.083 217.002C639.01 216.893 639.131 216.918 639.349 217.027C640.028 217.354 640.912 217.947 641.469 218.48L641.626 218.626ZM657.554 231.888C657.554 231.888 657.433 231.852 657.372 231.828L657.554 231.888ZM654.114 227.213C654.078 226.474 653.932 226.862 654.066 227.249L654.114 227.213ZM646.629 218.371C646.701 218.165 644.763 216.675 646.168 218.044C646.265 218.117 646.459 218.274 646.556 218.359L646.629 218.383V218.371ZM580.58 222.477C580.847 221.92 580.677 221.993 580.58 221.908C580.265 221.763 579.284 222.986 579.999 222.901C580.096 222.841 580.302 222.732 580.399 222.683L580.58 222.489V222.477ZM568.94 253.642C568.698 253.073 567.899 253.206 568.105 253.872C568.311 254.575 568.94 254.502 569.001 253.812L568.94 253.642Z" fill="#202020"/>
<path d="M570.636 233.572C569.982 234.432 569.764 236.334 570.031 237.448C570.176 237.908 570.467 237.896 570.612 237.545C570.915 236.588 570.83 235.474 570.89 234.275C570.878 233.705 570.854 233.439 570.685 233.524L570.624 233.572H570.636Z" fill="#202020"/>
<path d="M568.504 239.664C568.541 239.289 568.395 238.804 568.335 239.119C568.25 239.458 568.359 239.979 568.456 239.834L568.504 239.664Z" fill="#202020"/>
</svg>
