<svg width="1464" height="87" viewBox="0 0 1464 87" fill="none" xmlns="http://www.w3.org/2000/svg">
<path d="M214.546 10.7334C211.318 10.7334 208.708 13.3426 208.708 16.5705V32.2256C208.708 32.2256 208.816 32.4408 208.951 32.4408C209.004 32.4408 209.058 32.4139 209.112 32.387L220.194 18.3727C220.194 18.3727 220.356 18.0768 220.356 17.8885V16.5705C220.356 13.3426 217.747 10.7334 214.546 10.7334Z" fill="#ED135D"/>
<path d="M230.066 10.7334C226.838 10.7334 224.229 13.3426 224.229 16.5705V32.2256C224.229 32.2256 224.337 32.4408 224.471 32.4408C224.525 32.4408 224.579 32.4139 224.632 32.387L235.742 18.3727C235.742 18.3727 235.903 18.0768 235.903 17.8885V16.5705C235.903 13.3426 233.294 10.7334 230.066 10.7334Z" fill="#ED135D"/>
<path d="M78.5986 38.7344C82.0148 38.7344 84.8123 35.9369 84.8123 32.5208C84.8123 29.1046 82.0148 26.3071 78.5986 26.3071C75.1824 26.3071 72.385 29.1046 72.385 32.5208C72.385 35.9369 75.1824 38.7344 78.5986 38.7344ZM217.962 51.888C216.052 47.369 212.878 43.5493 208.87 40.8325C204.862 38.1158 199.993 36.5287 194.802 36.5287C191.359 36.5287 188.023 37.255 185.038 38.5192C181.191 40.1601 177.856 42.6886 175.273 45.8626V45.9164C175.273 45.9164 175.085 46.1316 174.977 46.2392L152.167 75.048C152.167 75.048 152.06 75.1018 152.006 75.1018C151.871 75.1018 151.764 74.9942 151.764 74.8597V38.1964H162.711C165.912 38.1964 168.495 35.6142 168.495 32.4132C168.495 29.2122 165.886 26.6299 162.711 26.6299H151.764V3.44306C151.764 3.44306 151.656 3.22787 151.522 3.22787C151.468 3.22787 151.414 3.25477 151.36 3.30857L140.332 17.1884C140.224 17.3229 140.143 17.4843 140.143 17.6726V26.6299H117.898V3.44306C117.898 3.44306 117.79 3.22787 117.683 3.22787C117.602 3.22787 117.548 3.25477 117.521 3.30857L106.493 17.1884C106.385 17.3229 106.331 17.4843 106.331 17.6726V26.6299H95.3835C92.1826 26.6299 89.6003 29.2391 89.6003 32.4132C89.6003 35.5873 92.1826 38.1964 95.3835 38.1964H106.331V47.4228L84.4626 75.0211C84.4626 75.0211 84.355 75.0749 84.3012 75.0749C84.1667 75.0749 84.086 74.9673 84.086 74.8328V49.4402C84.086 46.9655 82.5259 44.7867 80.1856 43.9797C77.8454 43.1727 75.29 43.9259 73.7568 45.8626L50.6237 75.048C50.6237 75.048 50.5162 75.1018 50.4624 75.1018C50.3279 75.1018 50.2472 74.9942 50.2472 74.8597V5.78327C50.2472 2.5823 47.6649 0 44.4639 0C41.2629 0 38.6806 2.5823 38.6806 5.78327V40.5098C34.7803 38.0082 30.0999 36.5287 25.1236 36.5287C21.6805 36.5287 18.3451 37.255 15.3593 38.5192C10.8403 40.4291 7.02062 43.6031 4.30383 47.6111C1.58704 51.619 0 56.4877 0 61.6523C0 65.1223 0.699372 68.4308 1.96362 71.4435C3.87344 75.9625 7.04751 79.7822 11.0555 82.499C15.0634 85.2157 19.9052 86.7759 25.0967 86.7759C28.5666 86.7759 31.8752 86.0765 34.8879 84.8123C36.9322 83.9515 38.842 82.8217 40.5636 81.4768C41.4243 82.7948 42.5272 83.9246 43.8183 84.7854C45.6743 86.0496 47.9876 86.8028 50.3817 86.7759C52.2108 86.7759 53.9861 86.3455 55.5462 85.5923C57.1064 84.8123 58.4513 83.7363 59.5273 82.4183V82.3645L72.4926 66.0637V75.048C72.4926 76.6619 72.8154 78.222 73.4071 79.6208C74.2948 81.7458 75.7742 83.5211 77.6572 84.7854C79.5132 86.0496 81.7996 86.8028 84.2205 86.7759C86.0496 86.7759 87.8249 86.3455 89.3851 85.5923C90.9452 84.8123 92.2902 83.7363 93.3661 82.4183L93.4199 82.3645L106.331 66.0637V75.048C106.331 76.6619 106.654 78.222 107.246 79.6208C108.134 81.7458 109.613 83.5211 111.496 84.7854C113.379 86.0496 115.665 86.8028 118.059 86.7759C119.888 86.7759 121.664 86.3455 123.224 85.5923C124.784 84.8123 126.129 83.7363 127.205 82.4183L127.259 82.3645L140.17 66.0637V75.048C140.17 76.6619 140.493 78.222 141.085 79.6208C141.972 81.7458 143.452 83.5211 145.335 84.7854C147.191 86.0496 149.477 86.7759 151.898 86.7759C153.727 86.7759 155.503 86.3455 157.063 85.5923C158.623 84.8123 159.968 83.7363 161.044 82.4183L161.098 82.3645L171.023 69.8296C171.212 70.3675 171.427 70.9055 171.642 71.4435C173.552 75.9625 176.726 79.7822 180.734 82.499C184.742 85.2157 189.584 86.7759 194.775 86.7759C198.245 86.7759 201.554 86.0765 204.566 84.8123C209.085 82.9024 212.905 79.7284 215.622 75.7204C218.312 71.7125 219.925 66.8438 219.925 61.6523C219.925 58.2092 219.226 54.8738 217.935 51.8611M25.1505 75.2362C17.6726 75.2362 11.5934 69.1571 11.5934 61.6792C11.5934 54.2013 17.6726 48.1221 25.1505 48.1221C32.6284 48.1221 38.7075 54.1744 38.7075 61.6792C38.7075 69.184 32.6284 75.2362 25.1505 75.2362ZM140.197 47.4497L118.328 75.048C118.328 75.048 118.221 75.1018 118.194 75.1018C118.059 75.1018 117.952 74.9942 117.952 74.8597V38.1964H140.197V47.4497ZM195.152 75.2362C187.674 75.2362 181.595 69.1571 181.595 61.6792C181.595 54.2013 187.674 48.1221 195.152 48.1221C202.629 48.1221 208.709 54.1744 208.709 61.6792C208.709 69.184 202.629 75.2362 195.152 75.2362Z" fill="#3E1865"/>
</svg>
