<svg width="1464" height="88" viewBox="0 0 1464 88" fill="none" xmlns="http://www.w3.org/2000/svg">
<path d="M214.634 11.226C211.404 11.226 208.794 13.8418 208.794 17.0781V32.7737C208.794 32.7737 208.902 32.9894 209.036 32.9894C209.09 32.9894 209.144 32.9894 209.198 32.9355L220.285 18.885C220.285 18.885 220.446 18.5883 220.446 18.3996V17.0781C220.446 13.8688 217.836 11.226 214.634 11.226Z" fill="#A39161"/>
<path d="M230.161 11.226C226.931 11.226 224.321 13.8418 224.321 17.0781V32.7737C224.321 32.7737 224.429 32.9894 224.563 32.9894C224.617 32.9894 224.671 32.9894 224.725 32.9355L235.839 18.885C235.839 18.885 236 18.5883 236 18.3996V17.0781C236 13.8688 233.39 11.226 230.161 11.226Z" fill="#A39161"/>
<path d="M78.6309 39.2994C82.0484 39.2994 84.8471 36.4946 84.8471 33.0696C84.8471 29.6446 82.0484 26.8399 78.6309 26.8399C75.2133 26.8399 72.4147 29.6446 72.4147 33.0696C72.4147 36.4946 75.2133 39.2994 78.6309 39.2994ZM218.051 52.4869C216.141 47.9562 212.965 44.1267 208.956 41.4029C204.946 38.6791 200.076 37.0879 194.882 37.0879C191.437 37.0879 188.101 37.8161 185.114 39.0836C181.265 40.7017 177.929 43.2637 175.345 46.446V46.4999C175.345 46.4999 175.157 46.7156 175.049 46.8235L152.23 75.7067C152.23 75.7067 152.122 75.7606 152.068 75.7606C151.934 75.7606 151.826 75.6527 151.826 75.5179V38.76H162.778C165.981 38.76 168.564 36.1441 168.564 32.9618C168.564 29.7795 165.954 27.1636 162.778 27.1636H151.826V3.91679C151.826 3.91679 151.718 3.70108 151.584 3.70108C151.53 3.70108 151.476 3.72805 151.422 3.78198L140.389 17.7247C140.389 17.7247 140.201 18.0213 140.201 18.2101V27.1905H117.946V3.94379C117.946 3.94379 117.839 3.72808 117.731 3.72808C117.65 3.72808 117.596 3.75504 117.57 3.80898L106.537 17.7516C106.537 17.7516 106.375 18.0482 106.375 18.237V27.2175H95.4227C92.2204 27.2175 89.637 29.8334 89.637 33.0157C89.637 36.198 92.2204 38.8139 95.4227 38.8139H106.375V48.0641L84.4972 75.7336C84.4972 75.7336 84.3896 75.7876 84.3358 75.7876C84.2012 75.7876 84.1205 75.6796 84.1205 75.5448V50.0867C84.1205 47.6056 82.5597 45.4211 80.2186 44.6121C77.8774 43.803 75.321 44.5581 73.7871 46.4729L50.6445 75.7336C50.6445 75.7336 50.5369 75.7876 50.4831 75.7876C50.3485 75.7876 50.2678 75.6796 50.2678 75.5448V6.26311C50.2678 3.05387 47.6844 0.464844 44.4822 0.464844C41.2799 0.464844 38.6965 3.05387 38.6965 6.26311V41.0792C34.7946 38.5712 30.1122 37.0879 25.1339 37.0879C21.6894 37.0879 18.3526 37.8161 15.3656 39.0836C10.8447 40.9983 7.0235 44.1806 4.30559 48.1989C1.58769 52.2172 0 57.0985 0 62.2764C0 65.7284 0.699659 69.0724 1.96443 72.0928C3.87503 76.6235 7.05041 80.4531 11.06 83.1769C15.0696 85.9007 19.9134 87.4648 25.107 87.4648C28.5784 87.4648 31.8883 86.7637 34.9022 85.4692C36.9474 84.6062 38.858 83.4735 40.5802 82.1251C41.4413 83.4465 42.5446 84.5792 43.8363 85.4422C45.6931 86.7097 48.0074 87.4648 50.4023 87.4379C52.2322 87.4379 54.0083 87.0064 55.5691 86.2512C57.1298 85.4692 58.4753 84.3904 59.5517 83.069V83.0151L72.5223 66.6723V75.6797C72.5223 77.2978 72.8452 78.8619 73.4373 80.2643C74.3253 82.3948 75.8053 84.1747 77.689 85.4422C79.5458 86.7097 81.8332 87.4648 84.2551 87.4379C86.0849 87.4379 87.861 87.0064 89.4218 86.2512C90.9825 85.4692 92.328 84.3904 93.4044 83.069L93.4583 83.0151L106.375 66.6723V75.6797C106.375 77.2978 106.698 78.8619 107.29 80.2643C108.178 82.3948 109.658 84.1747 111.542 85.4422C113.425 86.7097 115.713 87.4648 118.108 87.4379C119.938 87.4379 121.714 87.0064 123.274 86.2512C124.835 85.4692 126.181 84.3904 127.257 83.069L127.311 83.0151L140.228 66.6723V75.6797C140.228 77.2978 140.551 78.8619 141.143 80.2643C142.031 82.3948 143.511 84.1747 145.394 85.4422C147.251 86.7097 149.539 87.4379 151.96 87.4379C153.79 87.4379 155.566 87.0064 157.127 86.2512C158.688 85.4692 160.033 84.3904 161.11 83.069L161.164 83.0151L171.093 70.4478C171.282 71.0142 171.497 71.5266 171.712 72.0659C173.623 76.5966 176.798 80.4261 180.808 83.1499C184.818 85.8737 189.661 87.4379 194.855 87.4379C198.326 87.4379 201.636 86.7367 204.65 85.4422C209.171 83.5275 212.992 80.3452 215.71 76.3269C218.401 72.3086 220.016 67.4274 220.016 62.2225C220.016 58.7705 219.316 55.4264 218.024 52.406M25.1608 75.8954C17.6798 75.8954 11.5982 69.8006 11.5982 62.3034C11.5982 54.8062 17.6798 48.7113 25.1608 48.7113C32.6418 48.7113 38.7234 54.7792 38.7234 62.3034C38.7234 69.8276 32.6418 75.8954 25.1608 75.8954ZM140.255 48.0371L118.377 75.7067C118.377 75.7067 118.269 75.7606 118.242 75.7606C118.108 75.7606 118 75.6527 118 75.5179V38.76H140.255V48.0371ZM195.232 75.8954C187.751 75.8954 181.669 69.8006 181.669 62.3034C181.669 54.8062 187.751 48.7113 195.232 48.7113C202.713 48.7113 208.794 54.7792 208.794 62.3034C208.794 69.8276 202.713 75.8954 195.232 75.8954Z" fill="#3E1865"/>
<path d="M521.634 11.226C518.405 11.226 515.794 13.8418 515.794 17.0781V32.7737C515.794 32.7737 515.902 32.9894 516.036 32.9894C516.09 32.9894 516.144 32.9894 516.198 32.9355L527.285 18.885C527.285 18.885 527.446 18.5883 527.446 18.3996V17.0781C527.446 13.8688 524.836 11.226 521.634 11.226Z" fill="#F49AC1"/>
<path d="M537.161 11.226C533.931 11.226 531.321 13.8418 531.321 17.0781V32.7737C531.321 32.7737 531.429 32.9894 531.563 32.9894C531.617 32.9894 531.671 32.9894 531.725 32.9355L542.839 18.885C542.839 18.885 543 18.5883 543 18.3996V17.0781C543 13.8688 540.39 11.226 537.161 11.226Z" fill="#F49AC1"/>
<path d="M385.657 39.2994C389.075 39.2994 391.874 36.4946 391.874 33.0696C391.874 29.6446 389.075 26.8399 385.657 26.8399C382.24 26.8399 379.441 29.6446 379.441 33.0696C379.441 36.4946 382.24 39.2994 385.657 39.2994ZM525.05 52.4869C523.14 47.9562 519.964 44.1267 515.955 41.4029C511.945 38.6791 507.075 37.0879 501.881 37.0879C498.437 37.0879 495.1 37.8161 492.113 39.0836C488.265 40.7017 484.928 43.2637 482.345 46.446V46.4999C482.345 46.4999 482.156 46.7156 482.049 46.8235L459.229 75.7067C459.229 75.7067 459.121 75.7606 459.068 75.7606C458.933 75.7606 458.825 75.6527 458.825 75.5179V38.76H469.778C472.98 38.76 475.563 36.1441 475.563 32.9618C475.563 29.7795 472.98 27.1636 469.778 27.1636H458.825V3.91679C458.825 3.91679 458.718 3.70108 458.583 3.70108C458.529 3.70108 458.476 3.72805 458.422 3.78198L447.389 17.7247C447.389 17.7247 447.2 18.0213 447.2 18.2101V27.1905H424.946V3.94379C424.946 3.94379 424.838 3.72808 424.731 3.72808C424.65 3.72808 424.596 3.75504 424.569 3.80898L413.536 17.7516C413.536 17.7516 413.375 18.0482 413.375 18.237V27.2175H402.422C399.22 27.2175 396.637 29.8334 396.637 33.0157C396.637 36.198 399.22 38.8139 402.422 38.8139H413.375V48.0641L391.497 75.7336C391.497 75.7336 391.389 75.7876 391.335 75.7876C391.201 75.7876 391.12 75.6796 391.12 75.5448V50.0867C391.12 47.6056 389.559 45.4211 387.218 44.6121C384.877 43.803 382.321 44.5581 380.787 46.4729L357.644 75.7336C357.644 75.7336 357.537 75.7876 357.483 75.7876C357.348 75.7876 357.268 75.6796 357.268 75.5448V6.26311C357.268 3.05387 354.684 0.464844 351.482 0.464844C348.28 0.464844 345.696 3.05387 345.696 6.26311V41.0792C341.794 38.5712 337.112 37.0879 332.134 37.0879C328.689 37.0879 325.353 37.8161 322.366 39.0836C317.845 40.9983 314.023 44.1806 311.306 48.1989C308.588 52.2172 307 57.0985 307 62.2764C307 65.7284 307.7 69.0724 308.964 72.0928C310.875 76.6235 314.05 80.4531 318.06 83.1769C322.07 85.9007 326.94 87.4648 332.107 87.4648C335.578 87.4648 338.888 86.7637 341.902 85.4692C343.947 84.6062 345.858 83.4735 347.58 82.1251C348.441 83.4465 349.544 84.5792 350.836 85.4422C352.693 86.7097 355.007 87.4648 357.402 87.4379C359.232 87.4379 361.008 87.0064 362.569 86.2512C364.13 85.4692 365.475 84.3904 366.551 83.069V83.0151L379.522 66.6723V75.6797C379.522 77.2978 379.845 78.8619 380.437 80.2643C381.325 82.3948 382.805 84.1747 384.689 85.4422C386.546 86.7097 388.833 87.4648 391.255 87.4379C393.085 87.4379 394.861 87.0064 396.421 86.2512C397.982 85.4692 399.328 84.3904 400.404 83.069L400.458 83.0151L413.375 66.6723V75.6797C413.375 77.2978 413.698 78.8619 414.29 80.2643C415.178 82.3948 416.685 84.1747 418.541 85.4422C420.425 86.7097 422.712 87.4648 425.107 87.4379C426.937 87.4379 428.713 87.0064 430.274 86.2512C431.835 85.4692 433.18 84.3904 434.257 83.069L434.31 83.0151L447.227 66.6723V75.6797C447.227 77.2978 447.55 78.8619 448.142 80.2643C449.03 82.3948 450.51 84.1747 452.394 85.4422C454.251 86.7097 456.538 87.4379 458.96 87.4379C460.79 87.4379 462.566 87.0064 464.127 86.2512C465.687 85.4692 467.033 84.3904 468.109 83.069L468.163 83.0151L478.093 70.4478C478.281 71.0142 478.496 71.5266 478.712 72.0659C480.622 76.5966 483.798 80.4261 487.807 83.1499C491.817 85.8737 496.661 87.4379 501.854 87.4379C505.326 87.4379 508.635 86.7367 511.649 85.4422C516.17 83.5275 519.991 80.3452 522.709 76.3269C525.4 72.3086 527.015 67.4274 527.015 62.2225C527.015 58.7705 526.315 55.4264 525.024 52.406M332.161 75.8954C324.68 75.8954 318.598 69.8006 318.598 62.3034C318.598 54.8062 324.68 48.7113 332.161 48.7113C339.642 48.7113 345.723 54.7792 345.723 62.3034C345.723 69.8276 339.642 75.8954 332.161 75.8954ZM447.254 48.0371L425.376 75.7067C425.376 75.7067 425.269 75.7606 425.242 75.7606C425.107 75.7606 425 75.6527 425 75.5179V38.76H447.254V48.0371ZM502.258 75.8954C494.777 75.8954 488.695 69.8006 488.695 62.3034C488.695 54.8062 494.777 48.7113 502.258 48.7113C509.739 48.7113 515.82 54.7792 515.82 62.3034C515.82 69.8276 509.739 75.8954 502.258 75.8954Z" fill="#3E1865"/>
</svg>
