<svg width="160" height="108" viewBox="0 0 160 108" fill="none" xmlns="http://www.w3.org/2000/svg">
<path d="M126.872 38.1669C125.305 38.1669 124.039 39.433 124.039 40.9993V48.5958C124.039 48.5958 124.091 48.7002 124.157 48.7002C124.183 48.7002 124.209 48.6872 124.235 48.6741L129.613 41.8738C129.613 41.8738 129.691 41.7302 129.691 41.6389V40.9993C129.691 39.433 128.425 38.1669 126.872 38.1669Z" fill="#3E1865"/>
<path d="M134.403 38.1669C132.836 38.1669 131.57 39.433 131.57 40.9993V48.5958C131.57 48.5958 131.623 48.7002 131.688 48.7002C131.714 48.7002 131.74 48.6872 131.766 48.6741L137.157 41.8738C137.157 41.8738 137.235 41.7302 137.235 41.6389V40.9993C137.235 39.433 135.969 38.1669 134.403 38.1669Z" fill="#3E1865"/>
<path d="M60.9044 51.7549C62.5621 51.7549 63.9196 50.3974 63.9196 48.7398C63.9196 47.0821 62.5621 45.7247 60.9044 45.7247C59.2468 45.7247 57.8893 47.0821 57.8893 48.7398C57.8893 50.3974 59.2468 51.7549 60.9044 51.7549ZM128.529 58.1376C127.603 55.9447 126.062 54.0913 124.118 52.773C122.173 51.4547 119.81 50.6846 117.291 50.6846C115.62 50.6846 114.002 51.037 112.553 51.6505C110.687 52.4467 109.068 53.6736 107.815 55.2138V55.2399C107.815 55.2399 107.724 55.3443 107.671 55.3965L96.6029 69.3757C96.6029 69.3757 96.5507 69.4018 96.5246 69.4018C96.4594 69.4018 96.4072 69.3496 96.4072 69.2844V51.4938H101.72C103.273 51.4938 104.526 50.2408 104.526 48.6876C104.526 47.1343 103.26 45.8813 101.72 45.8813H96.4072V34.6301C96.4072 34.6301 96.3549 34.5256 96.2897 34.5256C96.2636 34.5256 96.2375 34.5387 96.2114 34.5648L90.8599 41.2999C90.8076 41.3651 90.7685 41.4434 90.7685 41.5348V45.8813H79.9741V34.6301C79.9741 34.6301 79.9219 34.5256 79.8697 34.5256C79.8305 34.5256 79.8044 34.5387 79.7914 34.5648L74.4399 41.2999C74.3876 41.3651 74.3615 41.4434 74.3615 41.5348V45.8813H69.0492C67.4959 45.8813 66.2429 47.1474 66.2429 48.6876C66.2429 50.2278 67.4959 51.4938 69.0492 51.4938H74.3615V55.9708L63.7499 69.3627C63.7499 69.3627 63.6977 69.3888 63.6716 69.3888C63.6063 69.3888 63.5672 69.3366 63.5672 69.2713V56.9498C63.5672 55.7489 62.8101 54.6917 61.6745 54.3001C60.539 53.9086 59.299 54.274 58.555 55.2138L47.3299 69.3757C47.3299 69.3757 47.2777 69.4018 47.2516 69.4018C47.1863 69.4018 47.1471 69.3496 47.1471 69.2844V35.7526C47.1471 34.1993 45.8941 32.9463 44.3409 32.9463C42.7876 32.9463 41.5346 34.1993 41.5346 35.7526V52.6033C39.642 51.3894 37.3708 50.6715 34.9561 50.6715C33.2854 50.6715 31.6669 51.024 30.2181 51.6374C28.0253 52.5641 26.1718 54.1043 24.8535 56.0492C23.5352 57.994 22.7651 60.3565 22.7651 62.8625C22.7651 64.5463 23.1045 66.1518 23.718 67.6136C24.6447 69.8065 26.1849 71.6599 28.1297 72.9782C30.0745 74.2965 32.424 75.0536 34.9431 75.0536C36.6269 75.0536 38.2323 74.7142 39.6942 74.1007C40.6862 73.683 41.6129 73.1348 42.4483 72.4822C42.8659 73.1218 43.4011 73.67 44.0276 74.0877C44.9282 74.7011 46.0507 75.0666 47.2124 75.0536C48.1 75.0536 48.9614 74.8447 49.7185 74.4792C50.4755 74.1007 51.1281 73.5786 51.6502 72.939V72.9129L57.9415 65.0031V69.3627C57.9415 70.1458 58.0982 70.9029 58.3853 71.5816C58.8161 72.6127 59.5339 73.4742 60.4476 74.0877C61.3482 74.7011 62.4577 75.0666 63.6324 75.0536C64.52 75.0536 65.3814 74.8447 66.1385 74.4792C66.8955 74.1007 67.5482 73.5786 68.0703 72.939L68.0964 72.9129L74.3615 65.0031V69.3627C74.3615 70.1458 74.5182 70.9029 74.8053 71.5816C75.2361 72.6127 75.9539 73.4742 76.8676 74.0877C77.7813 74.7011 78.8907 75.0666 80.0524 75.0536C80.94 75.0536 81.8014 74.8447 82.5585 74.4792C83.3155 74.1007 83.9682 73.5786 84.4903 72.939L84.5164 72.9129L90.7815 65.0031V69.3627C90.7815 70.1458 90.9382 70.9029 91.2253 71.5816C91.6561 72.6127 92.3739 73.4742 93.2876 74.0877C94.1882 74.7011 95.2977 75.0536 96.4724 75.0536C97.36 75.0536 98.2215 74.8447 98.9785 74.4792C99.7355 74.1007 100.388 73.5786 100.91 72.939L100.936 72.9129L105.753 66.8305C105.844 67.0915 105.949 67.3526 106.053 67.6136C106.98 69.8065 108.52 71.6599 110.465 72.9782C112.409 74.2965 114.759 75.0536 117.278 75.0536C118.962 75.0536 120.567 74.7142 122.029 74.1007C124.222 73.174 126.075 71.6338 127.394 69.689C128.699 67.7442 129.482 65.3817 129.482 62.8625C129.482 61.1918 129.143 59.5733 128.516 58.1114M34.9692 69.4671C31.3406 69.4671 28.3908 66.5172 28.3908 62.8887C28.3908 59.2601 31.3406 56.3102 34.9692 56.3102C38.5978 56.3102 41.5476 59.247 41.5476 62.8887C41.5476 66.5303 38.5978 69.4671 34.9692 69.4671ZM90.7946 55.9969L80.1829 69.3888C80.1829 69.3888 80.1307 69.4149 80.1177 69.4149C80.0524 69.4149 80.0002 69.3627 80.0002 69.2974V51.5069H90.7946V55.9969ZM117.461 69.4671C113.832 69.4671 110.882 66.5172 110.882 62.8887C110.882 59.2601 113.832 56.3102 117.461 56.3102C121.089 56.3102 124.039 59.247 124.039 62.8887C124.039 66.5303 121.089 69.4671 117.461 69.4671Z" fill="#3E1865"/>
</svg>
