<svg width="160" height="108" viewBox="0 0 160 108" fill="none" xmlns="http://www.w3.org/2000/svg">
<path d="M126.872 38.1418C125.305 38.1418 124.039 39.4079 124.039 40.9742V48.5707C124.039 48.5707 124.091 48.6882 124.157 48.6882C124.183 48.6882 124.209 48.6882 124.235 48.6621L129.613 41.8748C129.613 41.8748 129.691 41.7312 129.691 41.6398V41.0003C129.691 39.447 128.425 38.1679 126.872 38.1679" fill="#F7B5CD"/>
<path d="M134.403 38.1418C132.836 38.1418 131.57 39.4079 131.57 40.9742V48.5707C131.57 48.5707 131.623 48.6882 131.688 48.6882C131.714 48.6882 131.74 48.6882 131.766 48.6621L137.157 41.8748C137.157 41.8748 137.235 41.7312 137.235 41.6398V41.0003C137.235 39.447 135.969 38.1679 134.403 38.1679" fill="#F7B5CD"/>
<path d="M60.9044 51.7288C62.5621 51.7288 63.9196 50.3713 63.9196 48.7137C63.9196 47.056 62.5621 45.6985 60.9044 45.6985C59.2468 45.6985 57.8893 47.056 57.8893 48.7137C57.8893 50.3713 59.2468 51.7288 60.9044 51.7288ZM128.529 58.1114C127.603 55.9186 126.062 54.0652 124.118 52.7469C122.173 51.4286 119.81 50.6585 117.291 50.6585C115.62 50.6585 114.002 51.0109 112.553 51.6244C110.687 52.4206 109.068 53.6475 107.815 55.1877V55.2138C107.815 55.2138 107.724 55.3182 107.671 55.3704L96.6029 69.3496C96.6029 69.3496 96.5507 69.3757 96.5246 69.3757C96.4594 69.3757 96.4072 69.3235 96.4072 69.2582V51.4677H101.72C103.273 51.4677 104.526 50.2147 104.526 48.6614C104.526 47.1082 103.26 45.8552 101.72 45.8552H96.4072V34.6039C96.4072 34.6039 96.3549 34.4995 96.2897 34.4995C96.2636 34.4995 96.2375 34.5126 96.2114 34.5387L90.8599 41.2868C90.8599 41.2868 90.7685 41.4304 90.7685 41.5217V45.8682H79.9741V34.617C79.9741 34.617 79.9219 34.5126 79.8697 34.5126C79.8305 34.5126 79.8044 34.5256 79.7914 34.5517L74.4399 41.2999C74.4399 41.2999 74.3615 41.4434 74.3615 41.5348V45.8813H69.0492C67.4959 45.8813 66.2429 47.1474 66.2429 48.6876C66.2429 50.2278 67.4959 51.4938 69.0492 51.4938H74.3615V55.9708L63.7499 69.3627C63.7499 69.3627 63.6977 69.3888 63.6716 69.3888C63.6063 69.3888 63.5672 69.3366 63.5672 69.2713V56.9498C63.5672 55.7489 62.8101 54.6917 61.6745 54.3001C60.539 53.9086 59.299 54.274 58.555 55.2138L47.3299 69.3757C47.3299 69.3757 47.2777 69.4018 47.2516 69.4018C47.1863 69.4018 47.1471 69.3496 47.1471 69.2844V35.7526C47.1471 34.1993 45.8941 32.9463 44.3409 32.9463C42.7876 32.9463 41.5346 34.1993 41.5346 35.7526V52.6033C39.642 51.3894 37.3708 50.6715 34.9561 50.6715C33.2854 50.6715 31.6669 51.0239 30.2181 51.6374C28.0253 52.5641 26.1718 54.1043 24.8535 56.0492C23.5352 57.994 22.7651 60.3565 22.7651 62.8625C22.7651 64.5333 23.1045 66.1518 23.718 67.6136C24.6447 69.8065 26.1849 71.6599 28.1297 72.9782C30.0745 74.2834 32.424 75.0535 34.9431 75.0535C36.6269 75.0535 38.2323 74.7142 39.6942 74.0876C40.6862 73.67 41.6129 73.1218 42.4483 72.4692C42.8659 73.1087 43.4011 73.6569 44.0276 74.0876C44.9282 74.7011 46.0507 75.0666 47.2124 75.0535C48.1 75.0535 48.9614 74.8447 49.7185 74.4792C50.4755 74.1007 51.1281 73.5786 51.6502 72.939V72.9129L57.9415 65.0162V69.3627C57.9415 70.1458 58.0982 70.9028 58.3853 71.5816C58.8161 72.6127 59.5339 73.4742 60.4476 74.0876C61.3482 74.7011 62.4577 75.0666 63.6324 75.0535C64.52 75.0535 65.3814 74.8447 66.1385 74.4792C66.8955 74.1007 67.5482 73.5786 68.0703 72.939L68.0964 72.9129L74.3615 65.0162V69.3627C74.3615 70.1458 74.5182 70.9028 74.8053 71.5816C75.2361 72.6127 75.9539 73.4742 76.8676 74.0876C77.7813 74.7011 78.8907 75.0666 80.0524 75.0535C80.94 75.0535 81.8014 74.8447 82.5585 74.4792C83.3155 74.1007 83.9682 73.5786 84.4903 72.939L84.5164 72.9129L90.7815 65.0162V69.3627C90.7815 70.1458 90.9382 70.9028 91.2253 71.5816C91.6561 72.6127 92.3739 73.4742 93.2876 74.0876C94.1882 74.7011 95.2977 75.0535 96.4724 75.0535C97.36 75.0535 98.2215 74.8447 98.9785 74.4792C99.7355 74.1007 100.388 73.5786 100.91 72.939L100.936 72.9129L105.753 66.8305C105.844 67.0915 105.949 67.3526 106.053 67.6136C106.98 69.8065 108.52 71.6599 110.465 72.9782C112.409 74.2834 114.759 75.0535 117.278 75.0535C118.962 75.0535 120.567 74.7142 122.029 74.0876C124.222 73.1609 126.075 71.6207 127.394 69.6759C128.699 67.7311 129.482 65.3686 129.482 62.8495C129.482 61.1788 129.143 59.5603 128.516 58.0984M34.9692 69.441C31.3406 69.441 28.3908 66.4911 28.3908 62.8625C28.3908 59.234 31.3406 56.2841 34.9692 56.2841C38.5978 56.2841 41.5476 59.2209 41.5476 62.8625C41.5476 66.5042 38.5978 69.441 34.9692 69.441ZM90.7946 55.9708L80.1829 69.3627C80.1829 69.3627 80.1307 69.3888 80.1177 69.3888C80.0524 69.3888 80.0002 69.3366 80.0002 69.2713V51.4808H90.7946V55.9708ZM117.461 69.441C113.832 69.441 110.882 66.4911 110.882 62.8625C110.882 59.234 113.832 56.2841 117.461 56.2841C121.089 56.2841 124.039 59.2209 124.039 62.8625C124.039 66.5042 121.089 69.441 117.461 69.441Z" fill="#3E1865"/>
</svg>
