<svg width="160" height="108" viewBox="0 0 160 108" fill="none" xmlns="http://www.w3.org/2000/svg">
<path d="M126.872 38.2067C125.305 38.2067 124.039 39.4728 124.039 41.0391V48.6356C124.039 48.6356 124.091 48.74 124.157 48.74C124.183 48.74 124.209 48.7401 124.235 48.7139L129.613 41.9136C129.613 41.9136 129.691 41.77 129.691 41.6787V41.0391C129.691 39.4858 128.425 38.2067 126.872 38.2067Z" fill="#00A4C4"/>
<path d="M134.403 38.2067C132.836 38.2067 131.57 39.4728 131.57 41.0391V48.6356C131.57 48.6356 131.623 48.74 131.688 48.74C131.714 48.74 131.74 48.7401 131.766 48.7139L137.157 41.9136C137.157 41.9136 137.235 41.77 137.235 41.6787V41.0391C137.235 39.4858 135.969 38.2067 134.403 38.2067Z" fill="#00A4C4"/>
<path d="M60.9044 51.794C62.5621 51.794 63.9196 50.4366 63.9196 48.7789C63.9196 47.1213 62.5621 45.7638 60.9044 45.7638C59.2468 45.7638 57.8893 47.1213 57.8893 48.7789C57.8893 50.4366 59.2468 51.794 60.9044 51.794ZM128.529 58.1767C127.603 55.9839 126.062 54.1304 124.118 52.8121C122.173 51.4938 119.81 50.7238 117.291 50.7238C115.62 50.7238 114.002 51.0762 112.553 51.6896C110.687 52.4858 109.068 53.7128 107.815 55.253V55.2791C107.815 55.2791 107.724 55.3835 107.671 55.4357L96.6029 69.4149C96.6029 69.4149 96.5507 69.441 96.5246 69.441C96.4594 69.441 96.4072 69.3888 96.4072 69.3235V51.533H101.72C103.273 51.533 104.526 50.28 104.526 48.7267C104.526 47.1735 103.26 45.9204 101.72 45.9204H96.4072V34.6692C96.4072 34.6692 96.3549 34.5517 96.2897 34.5517C96.2636 34.5517 96.2375 34.5648 96.2114 34.5909L90.8599 41.326C90.8076 41.3912 90.7685 41.4695 90.7685 41.5609V45.9074H79.9741V34.6562C79.9741 34.6562 79.9219 34.5387 79.8697 34.5387C79.8305 34.5387 79.8044 34.5517 79.7914 34.5778L74.4399 41.3129C74.3876 41.3782 74.3615 41.4565 74.3615 41.5479V45.8943H69.0492C67.4959 45.8943 66.2429 47.1604 66.2429 48.7006C66.2429 50.2408 67.4959 51.5069 69.0492 51.5069H74.3615V55.9839L63.7499 69.3757C63.7499 69.3757 63.6977 69.4018 63.6716 69.4018C63.6063 69.4018 63.5672 69.3496 63.5672 69.2844V56.9628C63.5672 55.762 62.8101 54.7048 61.6745 54.3132C60.539 53.9216 59.299 54.2871 58.555 55.2138L47.3299 69.3757C47.3299 69.3757 47.2777 69.4018 47.2516 69.4018C47.1863 69.4018 47.1471 69.3496 47.1471 69.2844V35.7526C47.1471 34.1993 45.8941 32.9463 44.3409 32.9463C42.7876 32.9463 41.5346 34.1993 41.5346 35.7526V52.6033C39.642 51.3894 37.3708 50.6715 34.9561 50.6715C33.2854 50.6715 31.6669 51.0239 30.2181 51.6374C28.0253 52.5641 26.1718 54.1043 24.8535 56.0492C23.5352 57.994 22.7651 60.3565 22.7651 62.8625C22.7651 64.5333 23.1045 66.1518 23.718 67.6137C24.6447 69.8065 26.1849 71.6599 28.1297 72.9782C30.0745 74.2835 32.424 75.0535 34.9431 75.0535C36.6269 75.0535 38.2323 74.7142 39.6942 74.0877C40.6862 73.67 41.6129 73.1218 42.4483 72.4691C42.8659 73.1087 43.4011 73.6569 44.0276 74.0746C44.9282 74.6881 46.0507 75.0535 47.2124 75.0405C48.1 75.0405 48.9614 74.8317 49.7185 74.4662C50.4755 74.0877 51.1281 73.5656 51.6502 72.926V72.8999L57.9415 64.9901V69.3496C57.9415 70.1328 58.0982 70.8898 58.3853 71.5686C58.8161 72.5997 59.5339 73.4611 60.4476 74.0746C61.3482 74.6881 62.4577 75.0535 63.6324 75.0405C64.52 75.0405 65.3814 74.8317 66.1385 74.4662C66.8955 74.0877 67.5482 73.5656 68.0703 72.926L68.0964 72.8999L74.3615 64.9901V69.3496C74.3615 70.1328 74.5182 70.8898 74.8053 71.5686C75.2361 72.5997 75.9539 73.4611 76.8676 74.0746C77.7813 74.6881 78.8907 75.0535 80.0524 75.0405C80.94 75.0405 81.8014 74.8317 82.5585 74.4662C83.3155 74.0877 83.9682 73.5656 84.4903 72.926L84.5164 72.8999L90.7815 64.9901V69.3496C90.7815 70.1328 90.9382 70.8898 91.2253 71.5686C91.6561 72.5997 92.3739 73.4611 93.2876 74.0746C94.1882 74.6881 95.2977 75.0405 96.4724 75.0405C97.36 75.0405 98.2215 74.8317 98.9785 74.4662C99.7355 74.0877 100.388 73.5656 100.91 72.926L100.936 72.8999L105.753 66.8174C105.844 67.0785 105.949 67.3395 106.053 67.6006C106.98 69.7934 108.52 71.6468 110.465 72.9651C112.409 74.2704 114.759 75.0405 117.278 75.0405C118.962 75.0405 120.567 74.7011 122.029 74.0746C124.222 73.1479 126.075 71.6077 127.394 69.6629C128.699 67.718 129.482 65.3556 129.482 62.8365C129.482 61.1657 129.143 59.5472 128.516 58.0853M34.9692 69.5062C31.3406 69.5062 28.3908 66.5564 28.3908 62.9278C28.3908 59.2992 31.3406 56.3494 34.9692 56.3494C38.5978 56.3494 41.5476 59.2862 41.5476 62.9278C41.5476 66.5694 38.5978 69.5062 34.9692 69.5062ZM90.7946 56.0361L80.1829 69.4279C80.1829 69.4279 80.1307 69.454 80.1177 69.454C80.0524 69.454 80.0002 69.4018 80.0002 69.3366V51.546H90.7946V56.0361ZM117.461 69.5062C113.832 69.5062 110.882 66.5564 110.882 62.9278C110.882 59.2992 113.832 56.3494 117.461 56.3494C121.089 56.3494 124.039 59.2862 124.039 62.9278C124.039 66.5694 121.089 69.5062 117.461 69.5062Z" fill="#3E1865"/>
</svg>
