<svg width="160" height="108" viewBox="0 0 160 108" fill="none" xmlns="http://www.w3.org/2000/svg">
<path d="M126.871 38.1418C125.305 38.1418 124.039 39.4078 124.039 40.9741V48.5706C124.039 48.5706 124.091 48.6881 124.156 48.6881C124.183 48.6881 124.209 48.6881 124.235 48.662L129.612 41.8748C129.612 41.8748 129.691 41.7312 129.691 41.6398V41.0002C129.691 39.447 128.425 38.1679 126.871 38.1679" fill="#F7B5CD"/>
<path d="M134.403 38.1418C132.836 38.1418 131.57 39.4078 131.57 40.9741V48.5706C131.57 48.5706 131.622 48.6881 131.688 48.6881C131.714 48.6881 131.74 48.6881 131.766 48.662L137.157 41.8748C137.157 41.8748 137.235 41.7312 137.235 41.6398V41.0002C137.235 39.447 135.969 38.1679 134.403 38.1679" fill="#F7B5CD"/>
<path d="M60.9171 51.7287C62.5748 51.7287 63.9322 50.3713 63.9322 48.7136C63.9322 47.056 62.5748 45.6985 60.9171 45.6985C59.2594 45.6985 57.902 47.056 57.902 48.7136C57.902 50.3713 59.2594 51.7287 60.9171 51.7287ZM128.529 58.1113C127.602 55.9185 126.062 54.0651 124.117 52.7468C122.172 51.4285 119.81 50.6584 117.29 50.6584C115.62 50.6584 114.001 51.0108 112.552 51.6243C110.686 52.4205 109.067 53.6474 107.814 55.1876V55.2137C107.814 55.2137 107.723 55.3181 107.671 55.3703L96.6024 69.3495C96.6024 69.3495 96.5502 69.3756 96.5241 69.3756C96.4588 69.3756 96.4066 69.3234 96.4066 69.2581V51.4677H101.719C103.272 51.4677 104.525 50.2146 104.525 48.6614C104.525 47.1081 103.272 45.8551 101.719 45.8551H96.4066V34.6039C96.4066 34.6039 96.3544 34.4995 96.2892 34.4995C96.2631 34.4995 96.2369 34.5126 96.2108 34.5387L90.8593 41.2868C90.8593 41.2868 90.768 41.4303 90.768 41.5217V45.8682H79.9736V34.617C79.9736 34.617 79.9214 34.5126 79.8692 34.5126C79.8301 34.5126 79.804 34.5256 79.7909 34.5517L74.4394 41.2998C74.4394 41.2998 74.3611 41.4434 74.3611 41.5348V45.8812H69.0488C67.4955 45.8812 66.2425 47.1473 66.2425 48.6875C66.2425 50.2277 67.4955 51.4938 69.0488 51.4938H74.3611V55.9707L63.7495 69.3625C63.7495 69.3625 63.6973 69.3886 63.6712 69.3886C63.6059 69.3886 63.5667 69.3364 63.5667 69.2712V56.9497C63.5667 55.7489 62.8097 54.6916 61.6741 54.3C60.5386 53.9085 59.2986 54.2739 58.5546 55.2137L47.3295 69.3756C47.3295 69.3756 47.2773 69.4017 47.2512 69.4017C47.186 69.4017 47.1468 69.3495 47.1468 69.2842V35.7525C47.1468 34.1993 45.8938 32.9463 44.3405 32.9463C42.7873 32.9463 41.5343 34.1993 41.5343 35.7525V52.6032C39.6417 51.3893 37.3705 50.6715 34.9559 50.6715C33.2851 50.6715 31.6666 51.0239 30.2178 51.6373C28.025 52.5641 26.1716 54.1042 24.8533 56.0491C23.535 57.9939 22.7649 60.3564 22.7649 62.8624C22.7649 64.5331 23.1043 66.1516 23.7177 67.6135C24.6444 69.8063 26.1846 71.6597 28.1294 72.978C30.0742 74.2833 32.4367 75.0534 34.9428 75.0534C36.6266 75.0534 38.232 74.714 39.6939 74.0875C40.6859 73.6698 41.6126 73.1216 42.4479 72.469C42.8656 73.1086 43.4008 73.6568 44.0273 74.0875C44.9279 74.7009 46.0504 75.0664 47.2121 75.0534C48.0996 75.0534 48.9611 74.8445 49.7181 74.4791C50.4752 74.1005 51.1278 73.5784 51.6499 72.9389V72.9128L57.9412 65.0161V69.3625C57.9412 70.1457 58.0978 70.9027 58.3849 71.5814C58.8157 72.6126 59.5335 73.474 60.4472 74.0875C61.3478 74.7009 62.4573 75.0664 63.632 75.0534C64.5196 75.0534 65.381 74.8445 66.1381 74.4791C66.8951 74.1005 67.5477 73.5784 68.0698 72.9389L68.0959 72.9128L74.3611 65.0161V69.3625C74.3611 70.1457 74.5177 70.9027 74.8049 71.5814C75.2356 72.6126 75.9665 73.474 76.8672 74.0875C77.7808 74.7009 78.8903 75.0664 80.0519 75.0534C80.9395 75.0534 81.801 74.8445 82.558 74.4791C83.3151 74.1005 83.9677 73.5784 84.4898 72.9389L84.5159 72.9128L90.781 65.0161V69.3625C90.781 70.1457 90.9377 70.9027 91.2248 71.5814C91.6555 72.6126 92.3734 73.474 93.2871 74.0875C94.1877 74.7009 95.2972 75.0534 96.4719 75.0534C97.3595 75.0534 98.2209 74.8445 98.978 74.4791C99.735 74.1005 100.388 73.5784 100.91 72.9389L100.936 72.9128L105.752 66.8303C105.844 67.0914 105.948 67.3524 106.052 67.6135C106.979 69.8063 108.519 71.6597 110.464 72.978C112.409 74.2833 114.758 75.0534 117.277 75.0534C118.961 75.0534 120.567 74.714 122.029 74.0875C124.221 73.1608 126.075 71.6206 127.393 69.6758C128.698 67.731 129.481 65.3685 129.481 62.8494C129.481 61.1786 129.142 59.5601 128.516 58.0983M34.9689 69.4408C31.3403 69.4408 28.3905 66.491 28.3905 62.8624C28.3905 59.2338 31.3403 56.284 34.9689 56.284C38.5975 56.284 41.5473 59.2208 41.5473 62.8624C41.5473 66.504 38.5975 69.4408 34.9689 69.4408ZM90.7941 55.9707L80.1825 69.3625C80.1825 69.3625 80.1303 69.3886 80.1172 69.3886C80.052 69.3886 79.9997 69.3364 79.9997 69.2712V51.4807H90.7941V55.9707ZM117.473 69.4408C113.845 69.4408 110.895 66.491 110.895 62.8624C110.895 59.2338 113.845 56.284 117.473 56.284C121.102 56.284 124.052 59.2208 124.052 62.8624C124.052 66.504 121.102 69.4408 117.473 69.4408Z" fill="#ED135D"/>
</svg>
