<svg width="160" height="108" viewBox="0 0 160 108" fill="none" xmlns="http://www.w3.org/2000/svg">
<path d="M126.871 38.2067C125.305 38.2067 124.039 39.4728 124.039 41.0391V48.6356C124.039 48.6356 124.091 48.74 124.156 48.74C124.183 48.74 124.209 48.74 124.235 48.7139L129.612 41.9136C129.612 41.9136 129.691 41.77 129.691 41.6786V41.0391C129.691 39.4858 128.425 38.2067 126.871 38.2067Z" fill="#00A4C4"/>
<path d="M134.403 38.2067C132.836 38.2067 131.57 39.4728 131.57 41.0391V48.6356C131.57 48.6356 131.622 48.74 131.688 48.74C131.714 48.74 131.74 48.74 131.766 48.7139L137.157 41.9136C137.157 41.9136 137.235 41.77 137.235 41.6786V41.0391C137.235 39.4858 135.969 38.2067 134.403 38.2067Z" fill="#00A4C4"/>
<path d="M60.9171 51.794C62.5748 51.794 63.9322 50.4365 63.9322 48.7789C63.9322 47.1212 62.5748 45.7638 60.9171 45.7638C59.2594 45.7638 57.902 47.1212 57.902 48.7789C57.902 50.4365 59.2594 51.794 60.9171 51.794ZM128.529 58.1766C127.602 55.9838 126.062 54.1303 124.117 52.812C122.172 51.4938 119.81 50.7237 117.29 50.7237C115.62 50.7237 114.001 51.0761 112.552 51.6896C110.686 52.4858 109.067 53.7127 107.814 55.2529V55.279C107.814 55.279 107.723 55.3834 107.671 55.4356L96.6024 69.4147C96.6024 69.4147 96.5502 69.4408 96.5241 69.4408C96.4588 69.4408 96.4066 69.3886 96.4066 69.3234V51.5329H101.719C103.272 51.5329 104.525 50.2799 104.525 48.7267C104.525 47.1734 103.272 45.9204 101.719 45.9204H96.4066V34.6692C96.4066 34.6692 96.3544 34.5517 96.2892 34.5517C96.2631 34.5517 96.2369 34.5648 96.2108 34.5909L90.8593 41.3259C90.8071 41.3912 90.768 41.4695 90.768 41.5609V45.9073H79.9736V34.6562C79.9736 34.6562 79.9214 34.5387 79.8692 34.5387C79.8301 34.5387 79.804 34.5517 79.7909 34.5778L74.4394 41.3129C74.3872 41.3782 74.3611 41.4565 74.3611 41.5478V45.8943H69.0488C67.4955 45.8943 66.2425 47.1604 66.2425 48.7005C66.2425 50.2407 67.4955 51.5068 69.0488 51.5068H74.3611V55.9838L63.7495 69.3756C63.7495 69.3756 63.6973 69.4017 63.6712 69.4017C63.6059 69.4017 63.5667 69.3495 63.5667 69.2842V56.9627C63.5667 55.7619 62.8097 54.7047 61.6741 54.3131C60.5386 53.9215 59.2986 54.287 58.5546 55.2137L47.3295 69.3756C47.3295 69.3756 47.2773 69.4017 47.2512 69.4017C47.186 69.4017 47.1468 69.3495 47.1468 69.2842V35.7526C47.1468 34.1993 45.8938 32.9463 44.3405 32.9463C42.7873 32.9463 41.5343 34.1993 41.5343 35.7526V52.6032C39.6417 51.3894 37.3705 50.6715 34.9559 50.6715C33.2851 50.6715 31.6666 51.0239 30.2178 51.6373C28.025 52.5641 26.1716 54.1042 24.8533 56.0491C23.535 57.9939 22.7649 60.3564 22.7649 62.8624C22.7649 64.5331 23.1043 66.1516 23.7177 67.6135C24.6444 69.8063 26.1846 71.6597 28.1294 72.978C30.0742 74.2833 32.4367 75.0534 34.9428 75.0534C36.6266 75.0534 38.232 74.714 39.6939 74.0875C40.6859 73.6698 41.6126 73.1216 42.4479 72.469C42.8656 73.1085 43.4008 73.6568 44.0273 74.0744C44.9279 74.6879 46.0504 75.0534 47.2121 75.0403C48.0996 75.0403 48.9611 74.8315 49.7181 74.466C50.4752 74.0875 51.1278 73.5654 51.6499 72.9258V72.8997L57.9412 64.99V69.3495C57.9412 70.1326 58.0978 70.8897 58.3849 71.5684C58.8157 72.5995 59.5335 73.461 60.4472 74.0744C61.3478 74.6879 62.4573 75.0534 63.632 75.0403C64.5196 75.0403 65.381 74.8315 66.1381 74.466C66.8951 74.0875 67.5477 73.5654 68.0698 72.9258L68.0959 72.8997L74.3611 64.99V69.3495C74.3611 70.1326 74.5177 70.8897 74.8049 71.5684C75.2356 72.5995 75.9665 73.461 76.8672 74.0744C77.7808 74.6879 78.8903 75.0534 80.0519 75.0403C80.9395 75.0403 81.801 74.8315 82.558 74.466C83.3151 74.0875 83.9677 73.5654 84.4898 72.9258L84.5159 72.8997L90.781 64.99V69.3495C90.781 70.1326 90.9377 70.8897 91.2248 71.5684C91.6555 72.5995 92.3734 73.461 93.2871 74.0744C94.1877 74.6879 95.2972 75.0403 96.4719 75.0403C97.3595 75.0403 98.2209 74.8315 98.978 74.466C99.735 74.0875 100.388 73.5654 100.91 72.9258L100.936 72.8997L105.752 66.8173C105.844 67.0783 105.948 67.3394 106.052 67.6005C106.979 69.7933 108.519 71.6467 110.464 72.965C112.409 74.2702 114.758 75.0403 117.277 75.0403C118.961 75.0403 120.567 74.701 122.029 74.0744C124.221 73.1477 126.075 71.6075 127.393 69.6627C128.698 67.7179 129.481 65.3554 129.481 62.8363C129.481 61.1656 129.142 59.5471 128.516 58.0852M34.9689 69.5061C31.3403 69.5061 28.3905 66.5562 28.3905 62.9277C28.3905 59.2991 31.3403 56.3493 34.9689 56.3493C38.5975 56.3493 41.5473 59.286 41.5473 62.9277C41.5473 66.5693 38.5975 69.5061 34.9689 69.5061ZM90.7941 56.036L80.1825 69.4278C80.1825 69.4278 80.1303 69.4539 80.1172 69.4539C80.052 69.4539 79.9997 69.4017 79.9997 69.3364V51.546H90.7941V56.036ZM117.473 69.5061C113.845 69.5061 110.895 66.5562 110.895 62.9277C110.895 59.2991 113.845 56.3493 117.473 56.3493C121.102 56.3493 124.052 59.286 124.052 62.9277C124.052 66.5693 121.102 69.5061 117.473 69.5061Z" fill="#ED135D"/>
</svg>
