<svg width="160" height="108" viewBox="0 0 160 108" fill="none" xmlns="http://www.w3.org/2000/svg">
<path d="M126.871 38.1418C125.305 38.1418 124.039 39.4079 124.039 40.9742V48.5707C124.039 48.5707 124.091 48.6881 124.156 48.6881C124.183 48.6881 124.209 48.6882 124.235 48.662L129.612 41.8617C129.612 41.8617 129.691 41.7181 129.691 41.6268V40.9872C129.691 39.4209 128.425 38.1548 126.871 38.1548" fill="#E3C800"/>
<path d="M134.403 38.1418C132.836 38.1418 131.57 39.4079 131.57 40.9742V48.5707C131.57 48.5707 131.622 48.6881 131.688 48.6881C131.714 48.6881 131.74 48.6882 131.766 48.662L137.157 41.8617C137.157 41.8617 137.235 41.7181 137.235 41.6268V40.9872C137.235 39.4209 135.969 38.1548 134.403 38.1548" fill="#E3C800"/>
<path d="M60.9171 51.7287C62.5748 51.7287 63.9322 50.3712 63.9322 48.7136C63.9322 47.0559 62.5748 45.6985 60.9171 45.6985C59.2594 45.6985 57.902 47.0559 57.902 48.7136C57.902 50.3712 59.2594 51.7287 60.9171 51.7287ZM128.529 58.1113C127.602 55.9185 126.062 54.0651 124.117 52.7468C122.172 51.4285 119.81 50.6584 117.29 50.6584C115.62 50.6584 114.001 50.9978 112.552 51.6243C110.686 52.4074 109.067 53.6474 107.814 55.1876V55.2137C107.814 55.2137 107.723 55.3181 107.671 55.3703L96.6024 69.3495C96.6024 69.3495 96.5502 69.3756 96.5241 69.3756C96.4588 69.3756 96.4066 69.3234 96.4066 69.2581V51.4677H101.719C103.272 51.4677 104.525 50.2146 104.525 48.6614C104.525 47.1082 103.272 45.8551 101.719 45.8551H96.4066V34.6039C96.4066 34.6039 96.3544 34.4995 96.2892 34.4995C96.2631 34.4995 96.2369 34.5126 96.2108 34.5387L90.8593 41.2868C90.8593 41.2868 90.768 41.4304 90.768 41.5217V45.8682H79.9736V34.617C79.9736 34.617 79.9214 34.5126 79.8692 34.5126C79.8301 34.5126 79.804 34.5256 79.7909 34.5517L74.4394 41.2998C74.4394 41.2998 74.3611 41.4434 74.3611 41.5348V45.8812H69.0488C67.4955 45.8812 66.2425 47.1473 66.2425 48.6875C66.2425 50.2277 67.4955 51.4938 69.0488 51.4938H74.3611V55.9707L63.7495 69.3625C63.7495 69.3625 63.6973 69.3886 63.6712 69.3886C63.6059 69.3886 63.5667 69.3364 63.5667 69.2711V56.9497C63.5667 55.7488 62.8097 54.6916 61.6741 54.3C60.5386 53.9084 59.2986 54.2739 58.5546 55.2137L47.3295 69.3756C47.3295 69.3756 47.2773 69.4017 47.2512 69.4017C47.186 69.4017 47.1468 69.3495 47.1468 69.2842V35.7526C47.1468 34.1993 45.8938 32.9463 44.3405 32.9463C42.7873 32.9463 41.5343 34.1993 41.5343 35.7526V52.6032C39.6417 51.3893 37.3705 50.6715 34.9559 50.6715C33.2851 50.6715 31.6666 51.0108 30.2178 51.6374C28.025 52.5641 26.1716 54.1042 24.8533 56.049C23.535 57.9938 22.7649 60.3563 22.7649 62.8624C22.7649 64.5331 23.1043 66.1516 23.7177 67.6135C24.6444 69.8063 26.1846 71.6597 28.1294 72.978C30.0742 74.2963 32.4367 75.0534 34.9428 75.0534C36.6266 75.0534 38.232 74.714 39.6939 74.0875C40.6859 73.6698 41.6126 73.1216 42.4479 72.469C42.8656 73.1086 43.4008 73.6437 44.0273 74.0745C44.9279 74.6879 46.0504 75.0534 47.2121 75.0403C48.0996 75.0403 48.9611 74.8315 49.7181 74.466C50.4752 74.0875 51.1278 73.5654 51.6499 72.9258V72.8997L57.9412 64.99V69.3364C57.9412 70.1196 58.0978 70.8766 58.3849 71.5553C58.8157 72.5865 59.5335 73.4479 60.4472 74.0614C61.3478 74.6749 62.4573 75.0403 63.632 75.0273C64.5196 75.0273 65.381 74.8184 66.1381 74.453C66.8951 74.0744 67.5477 73.5523 68.0698 72.9128L68.0959 72.8867L74.3611 64.9769V69.3234C74.3611 70.1065 74.5177 70.8636 74.8049 71.5423C75.2356 72.5734 75.9665 73.4349 76.8672 74.0483C77.7808 74.6618 78.8903 75.0272 80.0519 75.0142C80.9395 75.0142 81.801 74.8054 82.558 74.4399C83.3151 74.0614 83.9677 73.5393 84.4898 72.8997L84.5159 72.8736L90.781 64.9639V69.3103C90.781 70.0934 90.9377 70.8505 91.2248 71.5292C91.6555 72.5604 92.3734 73.4218 93.2871 74.0353C94.1877 74.6487 95.2972 75.0012 96.4719 75.0012C97.3595 75.0012 98.2209 74.7923 98.978 74.4269C99.735 74.0483 100.388 73.5263 100.91 72.8867L100.936 72.8606L105.752 66.7781C105.844 67.0392 105.948 67.3002 106.052 67.5613C106.979 69.7541 108.519 71.6075 110.464 72.9258C112.409 74.2441 114.758 75.0012 117.277 75.0012C118.961 75.0012 120.567 74.6618 122.029 74.0353C124.221 73.1085 126.075 71.5684 127.393 69.6236C128.698 67.6788 129.481 65.3163 129.481 62.7972C129.481 61.1264 129.142 59.5079 128.516 58.0461M34.9689 69.4408C31.3403 69.4408 28.3905 66.491 28.3905 62.8624C28.3905 59.2338 31.3403 56.284 34.9689 56.284C38.5975 56.284 41.5473 59.2338 41.5473 62.8624C41.5473 66.491 38.5975 69.4408 34.9689 69.4408ZM90.7941 55.9577L80.1825 69.3495C80.1825 69.3495 80.1303 69.3756 80.1172 69.3756C80.052 69.3756 79.9997 69.3234 79.9997 69.2581V51.4677H90.7941V55.9577ZM117.473 69.4408C113.845 69.4408 110.895 66.491 110.895 62.8624C110.895 59.2338 113.845 56.284 117.473 56.284C121.102 56.284 124.052 59.2338 124.052 62.8624C124.052 66.491 121.102 69.4408 117.473 69.4408Z" fill="#ED135D"/>
</svg>
