<svg width="160" height="108" viewBox="0 0 160 108" fill="none" xmlns="http://www.w3.org/2000/svg">
<path d="M126.858 38.1669C125.292 38.1669 124.025 39.433 124.025 40.9993V48.5958C124.025 48.5958 124.078 48.7002 124.143 48.7002C124.169 48.7002 124.195 48.6871 124.221 48.6741L129.599 41.8738C129.599 41.8738 129.677 41.7302 129.677 41.6388V40.9993C129.677 39.433 128.411 38.1669 126.858 38.1669Z" fill="#ED135D"/>
<path d="M134.403 38.1669C132.836 38.1669 131.57 39.433 131.57 40.9993V48.5958C131.57 48.5958 131.622 48.7002 131.688 48.7002C131.714 48.7002 131.74 48.6871 131.766 48.6741L137.157 41.8738C137.157 41.8738 137.235 41.7302 137.235 41.6388V40.9993C137.235 39.433 135.969 38.1669 134.403 38.1669Z" fill="#ED135D"/>
<path d="M60.9041 51.7548C62.5617 51.7548 63.9192 50.3974 63.9192 48.7397C63.9192 47.0821 62.5617 45.7246 60.9041 45.7246C59.2464 45.7246 57.8889 47.0821 57.8889 48.7397C57.8889 50.3974 59.2464 51.7548 60.9041 51.7548ZM128.529 58.1375C127.602 55.9446 126.062 54.0912 124.117 52.7729C122.172 51.4546 119.81 50.6845 117.29 50.6845C115.62 50.6845 114.001 51.0369 112.552 51.6504C110.686 52.4466 109.067 53.6735 107.814 55.2137V55.2398C107.814 55.2398 107.723 55.3442 107.671 55.3964L96.6024 69.3756C96.6024 69.3756 96.5502 69.4017 96.5241 69.4017C96.4588 69.4017 96.4066 69.3495 96.4066 69.2842V51.4938H101.719C103.272 51.4938 104.525 50.2407 104.525 48.6875C104.525 47.1343 103.272 45.8812 101.719 45.8812H96.4066V34.63C96.4066 34.63 96.3544 34.5256 96.2891 34.5256C96.263 34.5256 96.2369 34.5387 96.2108 34.5648L90.8594 41.2998C90.8072 41.3651 90.768 41.4434 90.768 41.5348V45.8812H79.9736V34.63C79.9736 34.63 79.9214 34.5256 79.8692 34.5256C79.83 34.5256 79.8039 34.5387 79.7909 34.5648L74.4394 41.2998C74.3872 41.3651 74.3611 41.4434 74.3611 41.5348V45.8812H69.0487C67.4955 45.8812 66.2425 47.1473 66.2425 48.6875C66.2425 50.2277 67.4955 51.4938 69.0487 51.4938H74.3611V55.9707L63.7495 69.3625C63.7495 69.3625 63.6973 69.3886 63.6712 69.3886C63.6059 69.3886 63.5668 69.3364 63.5668 69.2712V56.9497C63.5668 55.7489 62.8097 54.6916 61.6741 54.3C60.5386 53.9085 59.2986 54.2739 58.5546 55.2137L47.3295 69.3756C47.3295 69.3756 47.2773 69.4017 47.2512 69.4017C47.186 69.4017 47.1468 69.3495 47.1468 69.2842V35.7525C47.1468 34.1993 45.8938 32.9463 44.3405 32.9463C42.7873 32.9463 41.5343 34.1993 41.5343 35.7525V52.6032C39.6417 51.3893 37.3705 50.6715 34.9558 50.6715C33.2851 50.6715 31.6666 51.0239 30.2178 51.6373C28.025 52.5641 26.1716 54.1042 24.8533 56.0491C23.535 57.9939 22.7649 60.3564 22.7649 62.8624C22.7649 64.5462 23.1042 66.1516 23.7177 67.6135C24.6444 69.8063 26.1846 71.6597 28.1294 72.978C30.0742 74.2963 32.4367 75.0534 34.9428 75.0534C36.6266 75.0534 38.232 74.714 39.6939 74.1005C40.6859 73.6829 41.6126 73.1347 42.4479 72.482C42.8656 73.1216 43.4008 73.6698 44.0273 74.0875C44.9279 74.701 46.0504 75.0664 47.2121 75.0534C48.0996 75.0534 48.9611 74.8445 49.7181 74.4791C50.4752 74.1005 51.1278 73.5784 51.6499 72.9389V72.9128L57.9411 65.003V69.3625C57.9411 70.1457 58.0978 70.9027 58.3849 71.5814C58.8157 72.6126 59.5335 73.474 60.4472 74.0875C61.3478 74.701 62.4573 75.0664 63.632 75.0534C64.5196 75.0534 65.381 74.8445 66.1381 74.4791C66.8951 74.1005 67.5477 73.5784 68.0698 72.9389L68.0959 72.9128L74.3611 65.003V69.3625C74.3611 70.1457 74.5177 70.9027 74.8049 71.5814C75.2356 72.6126 75.9666 73.474 76.8672 74.0875C77.7808 74.701 78.8903 75.0664 80.052 75.0534C80.9395 75.0534 81.801 74.8445 82.558 74.4791C83.315 74.1005 83.9677 73.5784 84.4898 72.9389L84.5159 72.9128L90.781 65.003V69.3625C90.781 70.1457 90.9377 70.9027 91.2248 71.5814C91.6556 72.6126 92.3734 73.474 93.2871 74.0875C94.1877 74.701 95.2972 75.0534 96.4719 75.0534C97.3594 75.0534 98.2209 74.8445 98.978 74.4791C99.735 74.1005 100.388 73.5784 100.91 72.9389L100.936 72.9128L105.752 66.8304C105.843 67.0914 105.948 67.3524 106.052 67.6135C106.979 69.8063 108.519 71.6597 110.464 72.978C112.409 74.2963 114.758 75.0534 117.277 75.0534C118.961 75.0534 120.567 74.714 122.028 74.1005C124.221 73.1738 126.075 71.6336 127.393 69.6888C128.698 67.744 129.481 65.3815 129.481 62.8624C129.481 61.1917 129.142 59.5732 128.516 58.1113M34.9689 69.4669C31.3403 69.4669 28.3905 66.5171 28.3905 62.8885C28.3905 59.26 31.3403 56.3101 34.9689 56.3101C38.5975 56.3101 41.5473 59.2469 41.5473 62.8885C41.5473 66.5301 38.5975 69.4669 34.9689 69.4669ZM90.781 55.9969L80.1694 69.3886C80.1694 69.3886 80.1172 69.4147 80.1041 69.4147C80.0389 69.4147 79.9867 69.3625 79.9867 69.2973V51.5068H90.781V55.9969ZM117.46 69.4669C113.832 69.4669 110.882 66.5171 110.882 62.8885C110.882 59.26 113.832 56.3101 117.46 56.3101C121.089 56.3101 124.039 59.2469 124.039 62.8885C124.039 66.5301 121.089 69.4669 117.46 69.4669Z" fill="#F7B5CD"/>
</svg>
