<svg width="160" height="108" viewBox="0 0 160 108" fill="none" xmlns="http://www.w3.org/2000/svg">
<path d="M126.871 38.1669C125.305 38.1669 124.039 39.433 124.039 40.9993V48.5958C124.039 48.5958 124.091 48.7002 124.156 48.7002C124.182 48.7002 124.208 48.6872 124.234 48.6741L129.612 41.8738C129.612 41.8738 129.69 41.7302 129.69 41.6389V40.9993C129.69 39.433 128.424 38.1669 126.871 38.1669Z" fill="#3E1865"/>
<path d="M134.403 38.1669C132.836 38.1669 131.57 39.433 131.57 40.9993V48.5958C131.57 48.5958 131.622 48.7002 131.688 48.7002C131.714 48.7002 131.74 48.6872 131.766 48.6741L137.157 41.8738C137.157 41.8738 137.235 41.7302 137.235 41.6389V40.9993C137.235 39.433 135.969 38.1669 134.403 38.1669Z" fill="#3E1865"/>
<path d="M60.9042 51.7549C62.5619 51.7549 63.9193 50.3974 63.9193 48.7398C63.9193 47.0821 62.5619 45.7247 60.9042 45.7247C59.2465 45.7247 57.889 47.0821 57.889 48.7398C57.889 50.3974 59.2465 51.7549 60.9042 51.7549ZM128.529 58.1376C127.602 55.9447 126.062 54.0913 124.117 52.773C122.172 51.4547 119.81 50.6846 117.291 50.6846C115.62 50.6846 114.002 51.037 112.553 51.6505C110.686 52.4467 109.068 53.6736 107.815 55.2138V55.2399C107.815 55.2399 107.723 55.3443 107.671 55.3965L96.6027 69.3757C96.6027 69.3757 96.5505 69.4018 96.5244 69.4018C96.4591 69.4018 96.4069 69.3496 96.4069 69.2844V51.4938H101.719C103.273 51.4938 104.526 50.2408 104.526 48.6876C104.526 47.1343 103.273 45.8813 101.719 45.8813H96.4069V34.6301C96.4069 34.6301 96.3547 34.5256 96.2894 34.5256C96.2633 34.5256 96.2372 34.5387 96.2111 34.5648L90.8596 41.2999C90.8074 41.3651 90.7682 41.4434 90.7682 41.5348V45.8813H79.9738V34.6301C79.9738 34.6301 79.9217 34.5256 79.8694 34.5256C79.8303 34.5256 79.8041 34.5387 79.7911 34.5648L74.4396 41.2999C74.3874 41.3651 74.3613 41.4434 74.3613 41.5348V45.8813H69.0489C67.4957 45.8813 66.2427 47.1474 66.2427 48.6876C66.2427 50.2278 67.5087 51.4938 69.0489 51.4938H74.3613V55.9708L63.7496 69.3627C63.7496 69.3627 63.7105 69.3888 63.6713 69.3888C63.6061 69.3888 63.5669 69.3366 63.5669 69.2713V56.9498C63.5669 55.749 62.8099 54.6917 61.6743 54.3001C60.5387 53.9086 59.2987 54.274 58.5547 55.2138L47.3296 69.3757C47.3296 69.3757 47.2774 69.4018 47.2513 69.4018C47.186 69.4018 47.1469 69.3496 47.1469 69.2844V35.7526C47.1469 34.1993 45.8808 32.9463 44.3406 32.9463C42.8004 32.9463 41.5343 34.1993 41.5343 35.7526V52.6033C39.6417 51.3894 37.3706 50.6715 34.9559 50.6715C33.2852 50.6715 31.6667 51.024 30.2178 51.6374C28.025 52.5642 26.1716 54.1043 24.8533 56.0492C23.535 57.994 22.7649 60.3565 22.7649 62.8625C22.7649 64.5463 23.1042 66.1518 23.7177 67.6136C24.6444 69.8065 26.1846 71.6599 28.1294 72.9782C30.0743 74.2965 32.4368 75.0536 34.9428 75.0536C36.6266 75.0536 38.2321 74.7142 39.6939 74.1007C40.6859 73.683 41.6126 73.1348 42.448 72.4822C42.8657 73.1218 43.4008 73.67 44.0273 74.0877C44.928 74.7011 46.0505 75.0666 47.2121 75.0536C48.0997 75.0536 48.9612 74.8447 49.7182 74.4792C50.4753 74.1007 51.1279 73.5786 51.65 72.9391V72.913L57.9413 65.0032V69.3627C57.9413 70.1458 58.0979 70.9029 58.385 71.5816C58.8158 72.6127 59.5337 73.4742 60.4474 74.0877C61.348 74.7011 62.4574 75.0666 63.6322 75.0536C64.5197 75.0536 65.3812 74.8447 66.1382 74.4792C66.8953 74.1007 67.5479 73.5786 68.07 72.9391L68.0961 72.913L74.3613 65.0032V69.3627C74.3613 70.1458 74.5179 70.9029 74.8051 71.5816C75.2358 72.6127 75.9667 73.4742 76.8673 74.0877C77.781 74.7011 78.8774 75.0666 80.0522 75.0536C80.9397 75.0536 81.8012 74.8447 82.5582 74.4792C83.3153 74.1007 83.9679 73.5786 84.49 72.9391L84.5161 72.913L90.7813 65.0032V69.3627C90.7813 70.1458 90.9379 70.9029 91.2251 71.5816C91.6558 72.6127 92.3737 73.4742 93.2874 74.0877C94.188 74.7011 95.2975 75.0536 96.4722 75.0536C97.3598 75.0536 98.2212 74.8447 98.9782 74.4792C99.7353 74.1007 100.388 73.5786 100.91 72.9391L100.936 72.913L105.752 66.8305C105.844 67.0915 105.948 67.3526 106.053 67.6136C106.979 69.8065 108.52 71.6599 110.464 72.9782C112.409 74.2965 114.759 75.0536 117.278 75.0536C118.962 75.0536 120.567 74.7142 122.029 74.1007C124.222 73.174 126.075 71.6338 127.393 69.689C128.699 67.7442 129.482 65.3817 129.482 62.8625C129.482 61.1918 129.142 59.5733 128.516 58.1114M34.9689 69.4671C31.3403 69.4671 28.3905 66.5172 28.3905 62.8887C28.3905 59.2601 31.3403 56.3102 34.9689 56.3102C38.5975 56.3102 41.5474 59.247 41.5474 62.8887C41.5474 66.5303 38.5975 69.4671 34.9689 69.4671ZM90.7944 55.9969L80.1827 69.3888C80.1827 69.3888 80.1435 69.4149 80.1174 69.4149C80.0521 69.4149 79.9999 69.3627 79.9999 69.2974V51.5069H90.7944V55.9969ZM117.461 69.4671C113.832 69.4671 110.882 66.5172 110.882 62.8887C110.882 59.2601 113.832 56.3102 117.461 56.3102C121.089 56.3102 124.039 59.247 124.039 62.8887C124.039 66.5303 121.089 69.4671 117.461 69.4671Z" fill="#00A4C4"/>
</svg>
