<svg width="160" height="108" viewBox="0 0 160 108" fill="none" xmlns="http://www.w3.org/2000/svg">
<path d="M126.871 38.1418C125.305 38.1418 124.039 39.4079 124.039 40.9742V48.5707C124.039 48.5707 124.091 48.6882 124.156 48.6882C124.182 48.6882 124.208 48.6882 124.234 48.6621L129.612 41.8617C129.612 41.8617 129.69 41.7182 129.69 41.6268V40.9873C129.69 39.421 128.424 38.1549 126.871 38.1549" fill="#E3C800"/>
<path d="M134.403 38.1418C132.836 38.1418 131.57 39.4079 131.57 40.9742V48.5707C131.57 48.5707 131.622 48.6882 131.688 48.6882C131.714 48.6882 131.74 48.6882 131.766 48.6621L137.157 41.8617C137.157 41.8617 137.235 41.7182 137.235 41.6268V40.9873C137.235 39.421 135.969 38.1549 134.403 38.1549" fill="#E3C800"/>
<path d="M60.9042 51.7288C62.5619 51.7288 63.9193 50.3713 63.9193 48.7137C63.9193 47.056 62.5619 45.6985 60.9042 45.6985C59.2465 45.6985 57.889 47.056 57.889 48.7137C57.889 50.3713 59.2465 51.7288 60.9042 51.7288ZM128.529 58.1114C127.602 55.9186 126.062 54.0652 124.117 52.7469C122.172 51.4286 119.81 50.6585 117.291 50.6585C115.62 50.6585 114.002 50.9979 112.553 51.6244C110.686 52.4075 109.068 53.6475 107.815 55.1877V55.2138C107.815 55.2138 107.723 55.3182 107.671 55.3704L96.6027 69.3496C96.6027 69.3496 96.5505 69.3757 96.5244 69.3757C96.4591 69.3757 96.4069 69.3235 96.4069 69.2583V51.4677H101.719C103.273 51.4677 104.526 50.2147 104.526 48.6615C104.526 47.1082 103.273 45.8552 101.719 45.8552H96.4069V34.6039C96.4069 34.6039 96.3547 34.4995 96.2894 34.4995C96.2633 34.4995 96.2372 34.5126 96.2111 34.5387L90.8596 41.2868C90.8596 41.2868 90.7682 41.4304 90.7682 41.5218V45.8682H79.9738V34.617C79.9738 34.617 79.9217 34.5126 79.8694 34.5126C79.8303 34.5126 79.8041 34.5256 79.7911 34.5517L74.4396 41.2999C74.4396 41.2999 74.3613 41.4434 74.3613 41.5348V45.8813H69.0489C67.4957 45.8813 66.2427 47.1474 66.2427 48.6876C66.2427 50.2278 67.5087 51.4938 69.0489 51.4938H74.3613V55.9708L63.7496 69.3627C63.7496 69.3627 63.7105 69.3888 63.6713 69.3888C63.6061 69.3888 63.5669 69.3366 63.5669 69.2713V56.9498C63.5669 55.7489 62.8099 54.6917 61.6743 54.3001C60.5387 53.9085 59.2987 54.274 58.5547 55.2138L47.3296 69.3757C47.3296 69.3757 47.2774 69.4018 47.2513 69.4018C47.186 69.4018 47.1469 69.3496 47.1469 69.2844V35.7526C47.1469 34.1993 45.8808 32.9463 44.3406 32.9463C42.8004 32.9463 41.5343 34.1993 41.5343 35.7526V52.6033C39.6417 51.3894 37.3706 50.6715 34.9559 50.6715C33.2852 50.6715 31.6667 51.0109 30.2178 51.6374C28.025 52.5642 26.1716 54.1043 24.8533 56.0491C23.535 57.994 22.7649 60.3565 22.7649 62.8625C22.7649 64.5332 23.1042 66.1518 23.7177 67.6136C24.6444 69.8065 26.1846 71.6599 28.1294 72.9782C30.0743 74.2965 32.4368 75.0536 34.9428 75.0536C36.6266 75.0536 38.2321 74.7142 39.6939 74.0877C40.6859 73.67 41.6126 73.1218 42.448 72.4692C42.8657 73.1087 43.4008 73.6439 44.0273 74.0746C44.928 74.6881 46.0505 75.0536 47.2121 75.0405C48.0997 75.0405 48.9612 74.8317 49.7182 74.4662C50.4753 74.0877 51.1279 73.5656 51.65 72.926V72.8999L57.9413 64.9901V69.3366C57.9413 70.1197 58.0979 70.8767 58.385 71.5555C58.8158 72.5866 59.5337 73.4481 60.4474 74.0616C61.348 74.675 62.4574 75.0405 63.6322 75.0274C64.5197 75.0274 65.3812 74.8186 66.1382 74.4531C66.8953 74.0746 67.5479 73.5525 68.07 72.9129L68.0961 72.8869L74.3613 64.9771V69.3235C74.3613 70.1067 74.5179 70.8637 74.8051 71.5425C75.2358 72.5736 75.9667 73.435 76.8673 74.0485C77.781 74.662 78.8774 75.0274 80.0522 75.0144C80.9397 75.0144 81.8012 74.8056 82.5582 74.4401C83.3153 74.0616 83.9679 73.5394 84.49 72.8999L84.5161 72.8738L90.7813 64.964V69.3105C90.7813 70.0936 90.9379 70.8507 91.2251 71.5294C91.6558 72.5605 92.3737 73.422 93.2874 74.0354C94.188 74.6489 95.2975 75.0013 96.4722 75.0013C97.3598 75.0013 98.2212 74.7925 98.9782 74.427C99.7353 74.0485 100.388 73.5264 100.91 72.8869L100.936 72.8607L105.752 66.7783C105.844 67.0393 105.948 67.3004 106.053 67.5614C106.979 69.7542 108.52 71.6077 110.464 72.926C112.409 74.2443 114.759 75.0013 117.278 75.0013C118.962 75.0013 120.567 74.662 122.029 74.0354C124.222 73.1087 126.075 71.5686 127.393 69.6237C128.699 67.6789 129.482 65.3164 129.482 62.7973C129.482 61.1266 129.142 59.508 128.516 58.0462M34.9689 69.441C31.3403 69.441 28.3905 66.4911 28.3905 62.8625C28.3905 59.2339 31.3403 56.2841 34.9689 56.2841C38.5975 56.2841 41.5474 59.2339 41.5474 62.8625C41.5474 66.4911 38.5975 69.441 34.9689 69.441ZM90.7944 55.9578L80.1827 69.3496C80.1827 69.3496 80.1435 69.3757 80.1174 69.3757C80.0521 69.3757 79.9999 69.3235 79.9999 69.2583V51.4677H90.7944V55.9578ZM117.461 69.441C113.832 69.441 110.882 66.4911 110.882 62.8625C110.882 59.2339 113.832 56.2841 117.461 56.2841C121.089 56.2841 124.039 59.2339 124.039 62.8625C124.039 66.4911 121.089 69.441 117.461 69.441Z" fill="#00A4C4"/>
</svg>
