<svg width="160" height="108" viewBox="0 0 160 108" fill="none" xmlns="http://www.w3.org/2000/svg">
<path d="M126.871 38.2067C125.305 38.2067 124.039 39.4728 124.039 41.0391V48.6356C124.039 48.6356 124.091 48.74 124.156 48.74C124.182 48.74 124.208 48.7401 124.234 48.7139L129.612 41.9136C129.612 41.9136 129.69 41.77 129.69 41.6787V41.0391C129.69 39.4858 128.424 38.2067 126.871 38.2067Z" fill="#00A4C4"/>
<path d="M134.403 38.2067C132.836 38.2067 131.57 39.4728 131.57 41.0391V48.6356C131.57 48.6356 131.622 48.74 131.688 48.74C131.714 48.74 131.74 48.7401 131.766 48.7139L137.157 41.9136C137.157 41.9136 137.235 41.77 137.235 41.6787V41.0391C137.235 39.4858 135.969 38.2067 134.403 38.2067Z" fill="#00A4C4"/>
<path d="M60.9042 51.794C62.5619 51.794 63.9193 50.4366 63.9193 48.7789C63.9193 47.1213 62.5619 45.7638 60.9042 45.7638C59.2465 45.7638 57.889 47.1213 57.889 48.7789C57.889 50.4366 59.2465 51.794 60.9042 51.794ZM128.529 58.1767C127.602 55.9839 126.062 54.1304 124.117 52.8121C122.172 51.4938 119.81 50.7238 117.291 50.7238C115.62 50.7238 114.002 51.0762 112.553 51.6896C110.686 52.4858 109.068 53.7128 107.815 55.253V55.2791C107.815 55.2791 107.723 55.3835 107.671 55.4357L96.6027 69.4149C96.6027 69.4149 96.5505 69.441 96.5244 69.441C96.4591 69.441 96.4069 69.3888 96.4069 69.3235V51.533H101.719C103.273 51.533 104.526 50.28 104.526 48.7267C104.526 47.1735 103.273 45.9204 101.719 45.9204H96.4069V34.6692C96.4069 34.6692 96.3547 34.5517 96.2894 34.5517C96.2633 34.5517 96.2372 34.5648 96.2111 34.5909L90.8596 41.326C90.8074 41.3912 90.7682 41.4695 90.7682 41.5609V45.9074H79.9738V34.6562C79.9738 34.6562 79.9217 34.5387 79.8694 34.5387C79.8303 34.5387 79.8041 34.5517 79.7911 34.5778L74.4396 41.3129C74.3874 41.3782 74.3613 41.4565 74.3613 41.5479V45.8943H69.0489C67.4957 45.8943 66.2427 47.1604 66.2427 48.7006C66.2427 50.2408 67.5087 51.5069 69.0489 51.5069H74.3613V55.9839L63.7496 69.3757C63.7496 69.3757 63.7105 69.4018 63.6713 69.4018C63.6061 69.4018 63.5669 69.3496 63.5669 69.2844V56.9628C63.5669 55.762 62.8099 54.7048 61.6743 54.3132C60.5387 53.9216 59.2987 54.2871 58.5547 55.2138L47.3296 69.3757C47.3296 69.3757 47.2774 69.4018 47.2513 69.4018C47.186 69.4018 47.1469 69.3496 47.1469 69.2844V35.7526C47.1469 34.1993 45.8808 32.9463 44.3406 32.9463C42.8004 32.9463 41.5343 34.1993 41.5343 35.7526V52.6033C39.6417 51.3894 37.3706 50.6715 34.9559 50.6715C33.2852 50.6715 31.6667 51.0239 30.2178 51.6374C28.025 52.5641 26.1716 54.1043 24.8533 56.0492C23.535 57.994 22.7649 60.3565 22.7649 62.8625C22.7649 64.5333 23.1042 66.1518 23.7177 67.6137C24.6444 69.8065 26.1846 71.6599 28.1294 72.9782C30.0743 74.2835 32.4368 75.0535 34.9428 75.0535C36.6266 75.0535 38.2321 74.7142 39.6939 74.0877C40.6859 73.67 41.6126 73.1218 42.448 72.4691C42.8657 73.1087 43.4008 73.6569 44.0273 74.0746C44.928 74.6881 46.0505 75.0535 47.2121 75.0405C48.0997 75.0405 48.9612 74.8317 49.7182 74.4662C50.4753 74.0877 51.1279 73.5656 51.65 72.926V72.8999L57.9413 64.9901V69.3496C57.9413 70.1328 58.0979 70.8898 58.385 71.5686C58.8158 72.5997 59.5337 73.4611 60.4474 74.0746C61.348 74.6881 62.4574 75.0535 63.6322 75.0405C64.5197 75.0405 65.3812 74.8317 66.1382 74.4662C66.8953 74.0877 67.5479 73.5656 68.07 72.926L68.0961 72.8999L74.3613 64.9901V69.3496C74.3613 70.1328 74.5179 70.8898 74.8051 71.5686C75.2358 72.5997 75.9667 73.4611 76.8673 74.0746C77.781 74.6881 78.8774 75.0535 80.0522 75.0405C80.9397 75.0405 81.8012 74.8317 82.5582 74.4662C83.3153 74.0877 83.9679 73.5656 84.49 72.926L84.5161 72.8999L90.7813 64.9901V69.3496C90.7813 70.1328 90.9379 70.8898 91.2251 71.5686C91.6558 72.5997 92.3737 73.4611 93.2874 74.0746C94.188 74.6881 95.2975 75.0405 96.4722 75.0405C97.3598 75.0405 98.2212 74.8317 98.9782 74.4662C99.7353 74.0877 100.388 73.5656 100.91 72.926L100.936 72.8999L105.752 66.8174C105.844 67.0785 105.948 67.3395 106.053 67.6006C106.979 69.7934 108.52 71.6468 110.464 72.9651C112.409 74.2704 114.759 75.0405 117.278 75.0405C118.962 75.0405 120.567 74.7011 122.029 74.0746C124.222 73.1479 126.075 71.6077 127.393 69.6629C128.699 67.7181 129.482 65.3556 129.482 62.8365C129.482 61.1657 129.142 59.5472 128.516 58.0853M34.9689 69.5062C31.3403 69.5062 28.3905 66.5564 28.3905 62.9278C28.3905 59.2992 31.3403 56.3494 34.9689 56.3494C38.5975 56.3494 41.5474 59.2862 41.5474 62.9278C41.5474 66.5694 38.5975 69.5062 34.9689 69.5062ZM90.7944 56.0361L80.1827 69.4279C80.1827 69.4279 80.1435 69.454 80.1174 69.454C80.0521 69.454 79.9999 69.4018 79.9999 69.3366V51.546H90.7944V56.0361ZM117.461 69.5062C113.832 69.5062 110.882 66.5564 110.882 62.9278C110.882 59.2992 113.832 56.3494 117.461 56.3494C121.089 56.3494 124.039 59.2862 124.039 62.9278C124.039 66.5694 121.089 69.5062 117.461 69.5062Z" fill="#00A4C4"/>
</svg>
