<svg width="160" height="108" viewBox="0 0 160 108" fill="none" xmlns="http://www.w3.org/2000/svg">
<path d="M126.883 38.2054C125.317 38.2054 124.05 39.4716 124.05 41.0381V48.6355C124.05 48.6355 124.103 48.7399 124.168 48.7399C124.194 48.7399 124.22 48.7399 124.246 48.7138L129.624 41.9127C129.624 41.9127 129.703 41.7691 129.703 41.6777V41.0381C129.703 39.4846 128.437 38.2054 126.883 38.2054Z" fill="#00A4C4"/>
<path d="M134.415 38.2054C132.849 38.2054 131.583 39.4716 131.583 41.0381V48.6355C131.583 48.6355 131.635 48.7399 131.7 48.7399C131.726 48.7399 131.752 48.7399 131.778 48.7138L137.157 41.9127C137.157 41.9127 137.235 41.7691 137.235 41.6777V41.0381C137.235 39.4846 135.969 38.2054 134.402 38.2054" fill="#00A4C4"/>
<path d="M60.9216 51.7942C62.5795 51.7942 63.9371 50.4366 63.9371 48.7788C63.9371 47.1209 62.5795 45.7633 60.9216 45.7633C59.2638 45.7633 57.9062 47.1209 57.9062 48.7788C57.9062 50.4366 59.2638 51.7942 60.9216 51.7942ZM128.541 58.1776C127.614 55.9846 126.074 54.1309 124.129 52.8124C122.184 51.494 119.821 50.7238 117.302 50.7238C115.631 50.7238 114.012 51.0763 112.55 51.6898C110.683 52.4861 109.065 53.7132 107.811 55.2536V55.2797C107.811 55.2797 107.72 55.3841 107.668 55.4363L96.598 69.4171C96.598 69.4171 96.5458 69.4432 96.5197 69.4432C96.4545 69.4432 96.4022 69.391 96.4022 69.3257V51.5332H101.715C103.269 51.5332 104.522 50.28 104.522 48.7266C104.522 47.1732 103.269 45.92 101.715 45.92H96.4022V34.6674C96.4022 34.6674 96.35 34.55 96.2848 34.55C96.2587 34.55 96.2326 34.563 96.2195 34.5891L90.8674 41.325C90.8152 41.3902 90.776 41.4686 90.776 41.5599V45.9069H79.9804V34.6544C79.9804 34.6544 79.9282 34.5369 79.8759 34.5369C79.8368 34.5369 79.8107 34.55 79.7976 34.5761L74.4455 41.3119C74.3933 41.3772 74.3672 41.4555 74.3672 41.5469V45.8939H69.0542C67.5008 45.8939 66.2476 47.1601 66.2476 48.7004C66.2476 50.2408 67.5138 51.507 69.0542 51.507H74.3672V55.9846L63.7543 69.3779C63.7543 69.3779 63.7151 69.404 63.676 69.404C63.6107 69.404 63.5716 69.3518 63.5716 69.2866V56.9636C63.5716 55.7627 62.8144 54.7053 61.6787 54.3137C60.543 53.9221 59.3029 54.2876 58.5589 55.2144L47.3324 69.3779C47.3324 69.3779 47.2802 69.404 47.2541 69.404C47.1889 69.404 47.1497 69.3518 47.1497 69.2866V35.7509C47.1497 34.1975 45.8834 32.9443 44.3431 32.9443C42.8027 32.9443 41.5365 34.1975 41.5365 35.7509V52.6036C39.6437 51.3896 37.3723 50.6716 34.9573 50.6716C33.2864 50.6716 31.6677 51.0241 30.2187 51.6376C28.0256 52.5644 26.172 54.1048 24.8535 56.0498C23.5351 57.9949 22.7649 60.3576 22.7649 62.864C22.7649 64.5349 23.1043 66.1536 23.7178 67.6157C24.6447 69.8087 26.185 71.6624 28.1301 72.9808C30.0751 74.2862 32.4379 75.0564 34.9443 75.0564C36.6282 75.0564 38.2338 74.717 39.6959 74.0904C40.688 73.6727 41.6148 73.1244 42.4503 72.4717C42.868 73.1113 43.4032 73.6596 44.0298 74.0773C44.9305 74.6909 46.0532 75.0564 47.215 75.0433C48.1026 75.0433 48.9642 74.8345 49.7213 74.469C50.4784 74.0904 51.1311 73.5682 51.6533 72.9286V72.9025L57.9453 64.9918V69.3518C57.9453 70.1351 58.102 70.8922 58.3891 71.571C58.8199 72.6023 59.5379 73.4638 60.4517 74.0773C61.3524 74.6909 62.462 75.0564 63.6368 75.0433C64.5245 75.0433 65.3861 74.8345 66.1432 74.469C66.9003 74.0904 67.553 73.5682 68.0752 72.9286L68.1013 72.9025L74.3672 64.9918V69.3518C74.3672 70.1351 74.5238 70.8922 74.811 71.571C75.2418 72.6023 75.9728 73.4638 76.8735 74.0773C77.7873 74.6909 78.8839 75.0564 80.0587 75.0433C80.9464 75.0433 81.8079 74.8345 82.5651 74.469C83.3222 74.0904 83.9749 73.5682 84.4971 72.9286L84.5231 72.9025L90.7891 64.9918V69.3518C90.7891 70.1351 90.9457 70.8922 91.2329 71.571C91.6637 72.6023 92.3816 73.4638 93.2954 74.0773C94.1961 74.6909 95.3058 75.0433 96.4806 75.0433C97.3683 75.0433 98.2298 74.8345 98.9869 74.469C99.7441 74.0904 100.397 73.5682 100.919 72.9286L100.945 72.9025L105.762 66.8193C105.853 67.0804 105.958 67.3415 106.062 67.6026C106.989 69.7957 108.529 71.6493 110.474 72.9677C112.419 74.2731 114.782 75.0433 117.289 75.0433C118.972 75.0433 120.578 74.7039 122.04 74.0773C124.233 73.1505 126.087 71.6101 127.405 69.6651C128.711 67.7201 129.494 65.3573 129.494 62.8379C129.494 61.167 129.155 59.5483 128.528 58.0862M34.9703 69.5085C31.3413 69.5085 28.3911 66.5583 28.3911 62.9293C28.3911 59.3003 31.3413 56.3501 34.9703 56.3501C38.5993 56.3501 41.5496 59.2872 41.5496 62.9293C41.5496 66.5713 38.5993 69.5085 34.9703 69.5085ZM90.8021 56.0368L80.1892 69.4301C80.1892 69.4301 80.1501 69.4562 80.124 69.4562C80.0587 69.4562 80.0065 69.404 80.0065 69.3387V51.5462H90.8021V56.0368ZM117.471 69.5085C113.842 69.5085 110.892 66.5583 110.892 62.9293C110.892 59.3003 113.842 56.3501 117.471 56.3501C121.1 56.3501 124.051 59.2872 124.051 62.9293C124.051 66.5713 121.113 69.5085 117.471 69.5085Z" fill="#E3C800"/>
</svg>
