<svg width="160" height="108" viewBox="0 0 160 108" fill="none" xmlns="http://www.w3.org/2000/svg">
<path d="M126.883 38.1394C125.317 38.1394 124.05 39.4057 124.05 40.9722V48.5696C124.05 48.5696 124.103 48.687 124.168 48.687C124.194 48.687 124.22 48.687 124.246 48.6609L129.624 41.8729C129.624 41.8729 129.703 41.7293 129.703 41.6379V40.9983C129.703 39.4448 128.437 38.1656 126.883 38.1656" fill="#F7B5CD"/>
<path d="M134.415 38.1394C132.849 38.1394 131.583 39.4057 131.583 40.9722V48.5696C131.583 48.5696 131.635 48.687 131.7 48.687C131.726 48.687 131.752 48.687 131.778 48.6609L137.157 41.8729C137.157 41.8729 137.235 41.7293 137.235 41.6379V40.9983C137.235 39.4448 135.969 38.1656 134.402 38.1656" fill="#F7B5CD"/>
<path d="M60.9216 51.728C62.5795 51.728 63.9371 50.3704 63.9371 48.7125C63.9371 47.0547 62.5795 45.6971 60.9216 45.6971C59.2638 45.6971 57.9062 47.0547 57.9062 48.7125C57.9062 50.3704 59.2638 51.728 60.9216 51.728ZM128.541 58.1114C127.614 55.9183 126.074 54.0647 124.129 52.7462C122.184 51.4278 119.821 50.6576 117.302 50.6576C115.631 50.6576 114.012 51.01 112.55 51.6236C110.683 52.4199 109.065 53.6469 107.811 55.1873V55.2134C107.811 55.2134 107.72 55.3178 107.668 55.37L96.598 69.3508C96.598 69.3508 96.5458 69.3769 96.5197 69.3769C96.4545 69.3769 96.4022 69.3247 96.4022 69.2594V51.4669H101.715C103.269 51.4669 104.522 50.2137 104.522 48.6603C104.522 47.1069 103.269 45.8537 101.715 45.8537H96.4022V34.6012C96.4022 34.6012 96.35 34.4968 96.2848 34.4968C96.2587 34.4968 96.2326 34.5098 96.2195 34.5359L90.8674 41.2848C90.8674 41.2848 90.776 41.4284 90.776 41.5198V45.8668H79.9804V34.6143C79.9804 34.6143 79.9282 34.5098 79.8759 34.5098C79.8368 34.5098 79.8107 34.5229 79.7976 34.549L74.4455 41.2979C74.4455 41.2979 74.3672 41.4415 74.3672 41.5329V45.8798H69.0542C67.5008 45.8798 66.2476 47.1461 66.2476 48.6864C66.2476 50.2268 67.5138 51.493 69.0542 51.493H74.3672V55.9705L63.7543 69.3639C63.7543 69.3639 63.7151 69.39 63.676 69.39C63.6107 69.39 63.5716 69.3378 63.5716 69.2725V56.9496C63.5716 55.7486 62.8144 54.6912 61.6787 54.2996C60.543 53.908 59.3029 54.2735 58.5589 55.2134L47.3324 69.3769C47.3324 69.3769 47.2802 69.403 47.2541 69.403C47.1889 69.403 47.1497 69.3508 47.1497 69.2856V35.75C47.1497 34.1965 45.8834 32.9434 44.3431 32.9434C42.8027 32.9434 41.5365 34.1965 41.5365 35.75V52.6026C39.6437 51.3886 37.3723 50.6706 34.9573 50.6706C33.2864 50.6706 31.6677 51.0231 30.2187 51.6366C28.0256 52.5634 26.172 54.1038 24.8535 56.0489C23.5351 57.9939 22.7649 60.3567 22.7649 62.863C22.7649 64.5339 23.1043 66.1526 23.7178 67.6147C24.6447 69.8077 26.185 71.6614 28.1301 72.9798C30.0751 74.2852 32.4379 75.0554 34.9443 75.0554C36.6282 75.0554 38.2338 74.716 39.6959 74.0894C40.688 73.6717 41.6148 73.1234 42.4503 72.4707C42.868 73.1104 43.4032 73.6586 44.0298 74.0894C44.9305 74.7029 46.0532 75.0685 47.215 75.0554C48.1026 75.0554 48.9642 74.8465 49.7213 74.481C50.4784 74.1025 51.1311 73.5803 51.6533 72.9407V72.9146L57.9453 65.0169V69.3639C57.9453 70.1471 58.102 70.9042 58.3891 71.583C58.8199 72.6143 59.5379 73.4759 60.4517 74.0894C61.3524 74.7029 62.462 75.0685 63.6368 75.0554C64.5245 75.0554 65.3861 74.8465 66.1432 74.481C66.9003 74.1025 67.553 73.5803 68.0752 72.9407L68.1013 72.9146L74.3672 65.0169V69.3639C74.3672 70.1471 74.5238 70.9042 74.811 71.583C75.2418 72.6143 75.9728 73.4759 76.8735 74.0894C77.7873 74.7029 78.8839 75.0685 80.0587 75.0554C80.9464 75.0554 81.8079 74.8465 82.5651 74.481C83.3222 74.1025 83.9749 73.5803 84.4971 72.9407L84.5231 72.9146L90.7891 65.0169V69.3639C90.7891 70.1471 90.9457 70.9042 91.2329 71.583C91.6637 72.6143 92.3816 73.4759 93.2954 74.0894C94.1961 74.7029 95.3058 75.0554 96.4806 75.0554C97.3683 75.0554 98.2298 74.8465 98.9869 74.481C99.7441 74.1025 100.397 73.5803 100.919 72.9407L100.945 72.9146L105.762 66.8314C105.853 67.0925 105.958 67.3536 106.062 67.6147C106.989 69.8077 108.529 71.6614 110.474 72.9798C112.419 74.2852 114.782 75.0554 117.289 75.0554C118.972 75.0554 120.578 74.716 122.04 74.0894C124.233 73.1626 126.087 71.6222 127.405 69.6772C128.711 67.7321 129.494 65.3694 129.494 62.8499C129.494 61.179 129.155 59.5604 128.528 58.0983M34.9703 69.4422C31.3413 69.4422 28.3911 66.492 28.3911 62.863C28.3911 59.234 31.3413 56.2838 34.9703 56.2838C38.5993 56.2838 41.5496 59.221 41.5496 62.863C41.5496 66.5051 38.5993 69.4422 34.9703 69.4422ZM90.8021 55.9705L80.1892 69.3639C80.1892 69.3639 80.1501 69.39 80.124 69.39C80.0587 69.39 80.0065 69.3378 80.0065 69.2725V51.48H90.8021V55.9705ZM117.471 69.4422C113.842 69.4422 110.892 66.492 110.892 62.863C110.892 59.234 113.842 56.2838 117.471 56.2838C121.1 56.2838 124.051 59.221 124.051 62.863C124.051 66.5051 121.113 69.4422 117.471 69.4422Z" fill="#E3C800"/>
</svg>
