<svg width="160" height="108" viewBox="0 0 160 108" fill="none" xmlns="http://www.w3.org/2000/svg">
<path d="M126.883 38.1404C125.316 38.1404 124.05 39.4067 124.05 40.9731V48.5706C124.05 48.5706 124.102 48.688 124.168 48.688C124.194 48.688 124.22 48.6881 124.246 48.6619L129.624 41.8608C129.624 41.8608 129.703 41.7172 129.703 41.6258V40.9862C129.703 39.4197 128.436 38.1535 126.883 38.1535" fill="#E3C800"/>
<path d="M134.415 38.1404C132.849 38.1404 131.583 39.4067 131.583 40.9731V48.5706C131.583 48.5706 131.635 48.688 131.7 48.688C131.726 48.688 131.752 48.6881 131.778 48.6619L137.157 41.8608C137.157 41.8608 137.235 41.7172 137.235 41.6258V40.9862C137.235 39.4197 135.969 38.1535 134.402 38.1535" fill="#E3C800"/>
<path d="M60.9216 51.729C62.5795 51.729 63.9371 50.3713 63.9371 48.7135C63.9371 47.0556 62.5795 45.698 60.9216 45.698C59.2638 45.698 57.9062 47.0556 57.9062 48.7135C57.9062 50.3713 59.2638 51.729 60.9216 51.729ZM128.541 58.1124C127.614 55.9193 126.074 54.0656 124.129 52.7472C122.184 51.4287 119.821 50.6586 117.302 50.6586C115.631 50.6586 114.012 50.998 112.55 51.6245C110.683 52.4078 109.065 53.6479 107.811 55.1883V55.2144C107.811 55.2144 107.72 55.3188 107.668 55.371L96.598 69.3518C96.598 69.3518 96.5458 69.3779 96.5197 69.3779C96.4545 69.3779 96.4022 69.3257 96.4022 69.2604V51.4679H101.715C103.269 51.4679 104.522 50.2147 104.522 48.6613C104.522 47.1079 103.269 45.8547 101.715 45.8547H96.4022V34.6022C96.4022 34.6022 96.35 34.4978 96.2848 34.4978C96.2587 34.4978 96.2326 34.5108 96.2195 34.5369L90.8674 41.2858C90.8674 41.2858 90.776 41.4294 90.776 41.5208V45.8677H79.9804V34.6152C79.9804 34.6152 79.9282 34.5108 79.8759 34.5108C79.8368 34.5108 79.8107 34.5238 79.7976 34.5499L74.4455 41.2989C74.4455 41.2989 74.3672 41.4424 74.3672 41.5338V45.8808H69.0542C67.5008 45.8808 66.2476 47.147 66.2476 48.6874C66.2476 50.2278 67.5138 51.494 69.0542 51.494H74.3672V55.9715L63.7543 69.3649C63.7543 69.3649 63.7151 69.391 63.676 69.391C63.6107 69.391 63.5716 69.3387 63.5716 69.2735V56.9505C63.5716 55.7496 62.8144 54.6922 61.6787 54.3006C60.543 53.909 59.3029 54.2745 58.5589 55.2144L47.3324 69.3779C47.3324 69.3779 47.2802 69.404 47.2541 69.404C47.1889 69.404 47.1497 69.3518 47.1497 69.2865V35.7509C47.1497 34.1975 45.8834 32.9443 44.3431 32.9443C42.8027 32.9443 41.5365 34.1975 41.5365 35.7509V52.6036C39.6437 51.3896 37.3723 50.6716 34.9573 50.6716C33.2864 50.6716 31.6677 51.011 30.2187 51.6376C28.0256 52.5644 26.172 54.1048 24.8535 56.0498C23.5351 57.9949 22.7649 60.3576 22.7649 62.864C22.7649 64.5349 23.1043 66.1536 23.7178 67.6156C24.6447 69.8087 26.185 71.6623 28.1301 72.9808C30.0751 74.2992 32.4379 75.0564 34.9443 75.0564C36.6282 75.0564 38.2338 74.717 39.6959 74.0904C40.688 73.6727 41.6148 73.1244 42.4503 72.4717C42.868 73.1114 43.4032 73.6466 44.0298 74.0774C44.9305 74.6909 46.0532 75.0564 47.215 75.0433C48.1026 75.0433 48.9642 74.8345 49.7213 74.469C50.4784 74.0904 51.1311 73.5683 51.6533 72.9286V72.9025L57.9453 64.9918V69.3388C57.9453 70.122 58.102 70.8791 58.3891 71.5579C58.8199 72.5892 59.5379 73.4508 60.4517 74.0643C61.3524 74.6778 62.462 75.0433 63.6368 75.0303C64.5245 75.0303 65.3861 74.8214 66.1432 74.4559C66.9003 74.0773 67.553 73.5552 68.0752 72.9155L68.1013 72.8894L74.3672 64.9788V69.3257C74.3672 70.1089 74.5238 70.8661 74.811 71.5449C75.2418 72.5762 75.9728 73.4377 76.8735 74.0512C77.7873 74.6648 78.8839 75.0303 80.0587 75.0172C80.9464 75.0172 81.8079 74.8084 82.5651 74.4429C83.3222 74.0643 83.9749 73.5421 84.4971 72.9025L84.5231 72.8764L90.7891 64.9657V69.3126C90.7891 70.0959 90.9457 70.853 91.2329 71.5318C91.6637 72.5631 92.3816 73.4246 93.2954 74.0382C94.1961 74.6517 95.3058 75.0042 96.4806 75.0042C97.3683 75.0042 98.2298 74.7953 98.9869 74.4298C99.7441 74.0512 100.397 73.5291 100.919 72.8894L100.945 72.8633L105.762 66.7802C105.853 67.0412 105.958 67.3023 106.062 67.5634C106.989 69.7565 108.529 71.6102 110.474 72.9286C112.419 74.2471 114.782 75.0042 117.289 75.0042C118.972 75.0042 120.578 74.6647 122.04 74.0382C124.233 73.1113 126.087 71.571 127.405 69.626C128.711 67.6809 129.494 65.3181 129.494 62.7987C129.494 61.1278 129.155 59.5091 128.528 58.0471M34.9703 69.4432C31.3413 69.4432 28.3911 66.493 28.3911 62.864C28.3911 59.235 31.3413 56.2848 34.9703 56.2848C38.5993 56.2848 41.5496 59.235 41.5496 62.864C41.5496 66.493 38.5993 69.4432 34.9703 69.4432ZM90.8021 55.9585L80.1892 69.3518C80.1892 69.3518 80.1501 69.3779 80.124 69.3779C80.0587 69.3779 80.0065 69.3257 80.0065 69.2604V51.4679H90.8021V55.9585ZM117.471 69.4432C113.842 69.4432 110.892 66.493 110.892 62.864C110.892 59.235 113.842 56.2848 117.471 56.2848C121.1 56.2848 124.051 59.235 124.051 62.864C124.051 66.493 121.113 69.4432 117.471 69.4432Z" fill="#E3C800"/>
</svg>
