<svg width="160" height="108" viewBox="0 0 160 108" fill="none" xmlns="http://www.w3.org/2000/svg">
<path d="M126.883 38.1646C125.317 38.1646 124.05 39.4308 124.05 40.9973V48.5947C124.05 48.5947 124.103 48.6991 124.168 48.6991C124.194 48.6991 124.22 48.6861 124.246 48.673L129.624 41.8719C129.624 41.8719 129.703 41.7283 129.703 41.6369V40.9973C129.703 39.4308 128.437 38.1646 126.883 38.1646Z" fill="#ED135D"/>
<path d="M134.415 38.1646C132.849 38.1646 131.583 39.4308 131.583 40.9973V48.5947C131.583 48.5947 131.635 48.6991 131.7 48.6991C131.726 48.6991 131.752 48.6861 131.778 48.673L137.157 41.8719C137.157 41.8719 137.235 41.7283 137.235 41.6369V40.9973C137.235 39.4308 135.969 38.1646 134.402 38.1646" fill="#ED135D"/>
<path d="M60.9216 51.7541C62.5795 51.7541 63.9371 50.3965 63.9371 48.7386C63.9371 47.0808 62.5795 45.7232 60.9216 45.7232C59.2638 45.7232 57.9062 47.0808 57.9062 48.7386C57.9062 50.3965 59.2638 51.7541 60.9216 51.7541ZM128.541 58.1375C127.614 55.9444 126.074 54.0908 124.129 52.7723C122.184 51.4539 119.821 50.6837 117.302 50.6837C115.631 50.6837 114.012 51.0361 112.55 51.6497C110.683 52.446 109.065 53.673 107.811 55.2134V55.2395C107.811 55.2395 107.72 55.3439 107.668 55.3962L96.598 69.3769C96.598 69.3769 96.5458 69.403 96.5197 69.403C96.4545 69.403 96.4022 69.3508 96.4022 69.2856V51.493H101.715C103.269 51.493 104.522 50.2398 104.522 48.6864C104.522 47.133 103.269 45.8798 101.715 45.8798H96.4022V34.6273C96.4022 34.6273 96.35 34.5229 96.2848 34.5229C96.2587 34.5229 96.2326 34.5359 96.2195 34.5621L90.8674 41.2979C90.8152 41.3632 90.776 41.4415 90.776 41.5329V45.8798H79.9804V34.6273C79.9804 34.6273 79.9282 34.5229 79.8759 34.5229C79.8368 34.5229 79.8107 34.5359 79.7976 34.5621L74.4455 41.2979C74.3933 41.3632 74.3672 41.4415 74.3672 41.5329V45.8798H69.0542C67.5008 45.8798 66.2476 47.1461 66.2476 48.6864C66.2476 50.2268 67.5138 51.493 69.0542 51.493H74.3672V55.9705L63.7543 69.3639C63.7543 69.3639 63.7151 69.39 63.676 69.39C63.6107 69.39 63.5716 69.3378 63.5716 69.2725V56.9496C63.5716 55.7486 62.8144 54.6912 61.6787 54.2996C60.543 53.908 59.3029 54.2735 58.5589 55.2134L47.3324 69.3769C47.3324 69.3769 47.2802 69.403 47.2541 69.403C47.1889 69.403 47.1497 69.3508 47.1497 69.2856V35.75C47.1497 34.1965 45.8834 32.9434 44.3431 32.9434C42.8027 32.9434 41.5365 34.1965 41.5365 35.75V52.6026C39.6437 51.3886 37.3723 50.6706 34.9573 50.6706C33.2864 50.6706 31.6677 51.0231 30.2187 51.6366C28.0256 52.5634 26.172 54.1038 24.8535 56.0489C23.5351 57.9939 22.7649 60.3567 22.7649 62.863C22.7649 64.547 23.1043 66.1526 23.7178 67.6147C24.6447 69.8077 26.185 71.6614 28.1301 72.9798C30.0751 74.2983 32.4379 75.0554 34.9443 75.0554C36.6282 75.0554 38.2338 74.716 39.6959 74.1025C40.688 73.6847 41.6148 73.1365 42.4503 72.4838C42.868 73.1234 43.4032 73.6717 44.0298 74.0894C44.9305 74.703 46.0532 75.0685 47.215 75.0554C48.1026 75.0554 48.9642 74.8465 49.7213 74.481C50.4784 74.1025 51.1311 73.5803 51.6533 72.9407V72.9146L57.9453 65.0039V69.3639C57.9453 70.1471 58.102 70.9043 58.3891 71.5831C58.8199 72.6143 59.5379 73.4759 60.4517 74.0894C61.3524 74.703 62.462 75.0685 63.6368 75.0554C64.5245 75.0554 65.3861 74.8465 66.1432 74.481C66.9003 74.1025 67.553 73.5803 68.0752 72.9407L68.1013 72.9146L74.3672 65.0039V69.3639C74.3672 70.1471 74.5238 70.9043 74.811 71.5831C75.2418 72.6143 75.9728 73.4759 76.8735 74.0894C77.7873 74.703 78.8839 75.0685 80.0587 75.0554C80.9464 75.0554 81.8079 74.8465 82.5651 74.481C83.3222 74.1025 83.9749 73.5803 84.4971 72.9407L84.5231 72.9146L90.7891 65.0039V69.3639C90.7891 70.1471 90.9457 70.9043 91.2329 71.5831C91.6637 72.6143 92.3816 73.4759 93.2954 74.0894C94.1961 74.703 95.3058 75.0554 96.4806 75.0554C97.3683 75.0554 98.2298 74.8465 98.9869 74.481C99.7441 74.1025 100.397 73.5803 100.919 72.9407L100.945 72.9146L105.762 66.8314C105.853 67.0925 105.958 67.3536 106.062 67.6147C106.989 69.8077 108.529 71.6614 110.474 72.9798C112.419 74.2983 114.782 75.0554 117.289 75.0554C118.972 75.0554 120.578 74.716 122.04 74.1025C124.233 73.1756 126.087 71.6353 127.405 69.6902C128.711 67.7452 129.494 65.3824 129.494 62.863C129.494 61.1921 129.155 59.5734 128.528 58.1114M34.9703 69.4683C31.3413 69.4683 28.3911 66.5181 28.3911 62.8891C28.3911 59.2601 31.3413 56.3099 34.9703 56.3099C38.5993 56.3099 41.5496 59.2471 41.5496 62.8891C41.5496 66.5312 38.5993 69.4683 34.9703 69.4683ZM90.8021 55.9966L80.1892 69.39C80.1892 69.39 80.1501 69.4161 80.124 69.4161C80.0587 69.4161 80.0065 69.3639 80.0065 69.2986V51.5061H90.8021V55.9966ZM117.471 69.4683C113.842 69.4683 110.892 66.5181 110.892 62.8891C110.892 59.2601 113.842 56.3099 117.471 56.3099C121.1 56.3099 124.051 59.2471 124.051 62.8891C124.051 66.5312 121.113 69.4683 117.471 69.4683Z" fill="#E3C800"/>
</svg>
