<svg width="160" height="108" viewBox="0 0 160 108" fill="none" xmlns="http://www.w3.org/2000/svg">
<path d="M126.872 38.1546C125.305 38.1546 124.039 39.4207 124.039 40.987V48.5835C124.039 48.5835 124.091 48.6879 124.157 48.6879C124.183 48.6879 124.209 48.6749 124.235 48.6618L129.613 41.8615C129.613 41.8615 129.691 41.7179 129.691 41.6265V40.987C129.691 39.4207 128.425 38.1546 126.872 38.1546Z" fill="#ED135D"/>
<path d="M134.403 38.1546C132.836 38.1546 131.57 39.4207 131.57 40.987V48.5835C131.57 48.5835 131.623 48.6879 131.688 48.6879C131.714 48.6879 131.74 48.6749 131.766 48.6618L137.157 41.8615C137.157 41.8615 137.235 41.7179 137.235 41.6265V40.987C137.235 39.4207 135.969 38.1546 134.403 38.1546Z" fill="#ED135D"/>
<path d="M60.9044 51.7418C62.5621 51.7418 63.9196 50.3844 63.9196 48.7267C63.9196 47.0691 62.5621 45.7116 60.9044 45.7116C59.2468 45.7116 57.8893 47.0691 57.8893 48.7267C57.8893 50.3844 59.2468 51.7418 60.9044 51.7418ZM128.529 58.1245C127.603 55.9317 126.062 54.0782 124.118 52.7599C122.173 51.4416 119.81 50.6715 117.291 50.6715C115.62 50.6715 114.002 51.024 112.553 51.6374C110.687 52.4336 109.068 53.6606 107.815 55.2007V55.2269C107.815 55.2269 107.724 55.3313 107.671 55.3835L96.6029 69.3627C96.6029 69.3627 96.5507 69.3888 96.5246 69.3888C96.4594 69.3888 96.4072 69.3366 96.4072 69.2713V51.4808H101.72C103.273 51.4808 104.526 50.2278 104.526 48.6745C104.526 47.1213 103.26 45.8682 101.72 45.8682H96.4072V34.617C96.4072 34.617 96.3549 34.5126 96.2897 34.5126C96.2636 34.5126 96.2375 34.5256 96.2114 34.5517L90.8599 41.2868C90.8076 41.3521 90.7685 41.4304 90.7685 41.5218V45.8682H79.9741V34.617C79.9741 34.617 79.9219 34.5126 79.8697 34.5126C79.8305 34.5126 79.8044 34.5256 79.7914 34.5517L74.4399 41.2868C74.3876 41.3521 74.3615 41.4304 74.3615 41.5218V45.8682H69.0492C67.4959 45.8682 66.2429 47.1343 66.2429 48.6745C66.2429 50.2147 67.4959 51.4808 69.0492 51.4808H74.3615V55.9578L63.7499 69.3496C63.7499 69.3496 63.6977 69.3757 63.6716 69.3757C63.6063 69.3757 63.5672 69.3235 63.5672 69.2583V56.9367C63.5672 55.7359 62.8101 54.6786 61.6745 54.2871C60.539 53.8955 59.299 54.261 58.555 55.2007L47.3299 69.3627C47.3299 69.3627 47.2777 69.3888 47.2516 69.3888C47.1863 69.3888 47.1471 69.3366 47.1471 69.2713V35.7526C47.1471 34.1993 45.8941 32.9463 44.3409 32.9463C42.7876 32.9463 41.5346 34.1993 41.5346 35.7526V52.6033C39.642 51.3894 37.3708 50.6715 34.9561 50.6715C33.2854 50.6715 31.6669 51.024 30.2181 51.6374C28.0253 52.5641 26.1718 54.1043 24.8535 56.0492C23.5352 57.994 22.7651 60.3565 22.7651 62.8625C22.7651 64.5463 23.1045 66.1518 23.718 67.6136C24.6447 69.8065 26.1849 71.6599 28.1297 72.9782C30.0745 74.2965 32.424 75.0535 34.9431 75.0535C36.6269 75.0535 38.2323 74.7142 39.6942 74.1007C40.6862 73.683 41.6129 73.1348 42.4483 72.4822C42.8659 73.1218 43.4011 73.67 44.0276 74.0877C44.9282 74.7011 46.0507 75.0666 47.2124 75.0535C48.1 75.0535 48.9614 74.8447 49.7185 74.4792C50.4755 74.1007 51.1281 73.5786 51.6502 72.939V72.9129L57.9415 65.0032V69.3627C57.9415 70.1458 58.0982 70.9029 58.3853 71.5816C58.8161 72.6127 59.5339 73.4742 60.4476 74.0877C61.3482 74.7011 62.4577 75.0666 63.6324 75.0535C64.52 75.0535 65.3814 74.8447 66.1385 74.4792C66.8955 74.1007 67.5482 73.5786 68.0703 72.939L68.0964 72.9129L74.3615 65.0032V69.3627C74.3615 70.1458 74.5182 70.9029 74.8053 71.5816C75.2361 72.6127 75.9539 73.4742 76.8676 74.0877C77.7813 74.7011 78.8907 75.0666 80.0524 75.0535C80.94 75.0535 81.8014 74.8447 82.5585 74.4792C83.3155 74.1007 83.9682 73.5786 84.4903 72.939L84.5164 72.9129L90.7815 65.0032V69.3627C90.7815 70.1458 90.9382 70.9029 91.2253 71.5816C91.6561 72.6127 92.3739 73.4742 93.2876 74.0877C94.1882 74.7011 95.2977 75.0535 96.4724 75.0535C97.36 75.0535 98.2215 74.8447 98.9785 74.4792C99.7355 74.1007 100.388 73.5786 100.91 72.939L100.936 72.9129L105.753 66.8305C105.844 67.0915 105.949 67.3526 106.053 67.6136C106.98 69.8065 108.52 71.6599 110.465 72.9782C112.409 74.2965 114.759 75.0535 117.278 75.0535C118.962 75.0535 120.567 74.7142 122.029 74.1007C124.222 73.174 126.075 71.6338 127.394 69.689C128.699 67.7442 129.482 65.3817 129.482 62.8625C129.482 61.1918 129.143 59.5733 128.516 58.1114M34.9692 69.454C31.3406 69.454 28.3908 66.5042 28.3908 62.8756C28.3908 59.247 31.3406 56.2972 34.9692 56.2972C38.5978 56.2972 41.5476 59.234 41.5476 62.8756C41.5476 66.5172 38.5978 69.454 34.9692 69.454ZM90.7946 55.9708L80.1829 69.3627C80.1829 69.3627 80.1307 69.3888 80.1177 69.3888C80.0524 69.3888 80.0002 69.3366 80.0002 69.2713V51.4808H90.7946V55.9708ZM117.461 69.454C113.832 69.454 110.882 66.5042 110.882 62.8756C110.882 59.247 113.832 56.2972 117.461 56.2972C121.089 56.2972 124.039 59.234 124.039 62.8756C124.039 66.5172 121.089 69.454 117.461 69.454Z" fill="#3E1865"/>
</svg>
