<svg width="160" height="108" viewBox="0 0 160 108" fill="none" xmlns="http://www.w3.org/2000/svg">
<path d="M126.872 38.12C125.305 38.12 124.039 39.3888 124.039 40.9585V48.5715C124.039 48.5715 124.091 48.6762 124.157 48.6762C124.183 48.6762 124.209 48.6762 124.235 48.65L129.613 41.8349C129.613 41.8349 129.691 41.6911 129.691 41.5995V40.9585C129.691 39.4019 128.425 38.12 126.872 38.12Z" fill="#A39161"/>
<path d="M134.403 38.12C132.836 38.12 131.57 39.3888 131.57 40.9585V48.5715C131.57 48.5715 131.623 48.6762 131.688 48.6762C131.714 48.6762 131.74 48.6762 131.766 48.65L137.157 41.8349C137.157 41.8349 137.235 41.6911 137.235 41.5995V40.9585C137.235 39.4019 135.969 38.12 134.403 38.12Z" fill="#A39161"/>
<path d="M60.9044 51.7368C62.5621 51.7368 63.9196 50.3763 63.9196 48.7151C63.9196 47.0538 62.5621 45.6934 60.9044 45.6934C59.2468 45.6934 57.8893 47.0538 57.8893 48.7151C57.8893 50.3763 59.2468 51.7368 60.9044 51.7368ZM128.529 58.1333C127.603 55.9357 126.062 54.0782 124.118 52.7571C122.173 51.4359 119.81 50.6641 117.291 50.6641C115.62 50.6641 114.002 51.0173 112.553 51.6321C110.687 52.417 109.068 53.6597 107.815 55.2032V55.2293C107.815 55.2293 107.724 55.334 107.671 55.3863L96.6029 69.3959C96.6029 69.3959 96.5507 69.422 96.5246 69.422C96.4594 69.422 96.4072 69.3697 96.4072 69.3043V51.4751H101.72C103.273 51.4751 104.526 50.2063 104.526 48.6628C104.526 47.1192 103.26 45.8504 101.72 45.8504H96.4072V34.5747C96.4072 34.5747 96.3549 34.4701 96.2897 34.4701C96.2636 34.4701 96.2375 34.4832 96.2114 34.5093L90.8599 41.2721C90.8599 41.2721 90.7685 41.416 90.7685 41.5076V45.8635H79.9741V34.5878C79.9741 34.5878 79.9219 34.4832 79.8697 34.4832C79.8305 34.4832 79.8044 34.4963 79.7914 34.5224L74.4399 41.2852C74.4399 41.2852 74.3615 41.4291 74.3615 41.5206V45.8766H69.0492C67.4959 45.8766 66.2429 47.1454 66.2429 48.6889C66.2429 50.2325 67.4959 51.5013 69.0492 51.5013H74.3615V55.988L63.7499 69.4089C63.7499 69.4089 63.6977 69.4351 63.6716 69.4351C63.6063 69.4351 63.5672 69.3827 63.5672 69.3173V56.9691C63.5672 55.7657 62.8101 54.7061 61.6745 54.3137C60.539 53.9212 59.299 54.2875 58.555 55.2162L47.3299 69.4089C47.3299 69.4089 47.2777 69.4351 47.2516 69.4351C47.1863 69.4351 47.1471 69.3827 47.1471 69.3173V35.7128C47.1471 34.1562 45.8941 32.9004 44.3409 32.9004C42.7876 32.9004 41.5346 34.1562 41.5346 35.7128V52.6001C39.642 51.3836 37.3708 50.6641 34.9561 50.6641C33.2854 50.6641 31.6669 51.0173 30.2181 51.6321C28.0253 52.5608 26.1718 54.1044 24.8535 56.0534C23.5352 58.0025 22.7651 60.3701 22.7651 62.8816C22.7651 64.556 23.1045 66.178 23.718 67.643C24.6447 69.8406 26.1849 71.6981 28.1297 73.0192C30.0745 74.3404 32.424 75.0991 34.9431 75.0991C36.6269 75.0991 38.2323 74.759 39.6942 74.1311C40.6862 73.7125 41.6129 73.1631 42.4483 72.5091C42.8659 73.15 43.4011 73.6994 44.0276 74.118C44.9282 74.7328 46.0507 75.0991 47.2124 75.086C48.1 75.086 48.9614 74.8767 49.7185 74.5104C50.4755 74.1311 51.1281 73.6079 51.6502 72.9669V72.9408L57.9415 65.0138V69.3828C57.9415 70.1676 58.0982 70.9263 58.3853 71.6065C58.8161 72.6399 59.5339 73.5032 60.4476 74.118C61.3482 74.7328 62.4577 75.0991 63.6324 75.086C64.52 75.086 65.3814 74.8767 66.1385 74.5104C66.8955 74.1311 67.5482 73.6079 68.0703 72.9669L68.0964 72.9408L74.3615 65.0138V69.3828C74.3615 70.1676 74.5182 70.9263 74.8053 71.6065C75.2361 72.6399 75.9539 73.5032 76.8676 74.118C77.7813 74.7328 78.8907 75.0991 80.0524 75.086C80.94 75.086 81.8014 74.8767 82.5585 74.5104C83.3155 74.1311 83.9682 73.6079 84.4903 72.9669L84.5164 72.9408L90.7815 65.0138V69.3828C90.7815 70.1676 90.9382 70.9263 91.2253 71.6065C91.6561 72.6399 92.3739 73.5032 93.2876 74.118C94.1882 74.7328 95.2977 75.086 96.4724 75.086C97.36 75.086 98.2215 74.8767 98.9785 74.5104C99.7355 74.1311 100.388 73.6079 100.91 72.9669L100.936 72.9408L105.753 66.8451C105.844 67.1198 105.949 67.3683 106.053 67.6299C106.98 69.8275 108.52 71.685 110.465 73.0061C112.409 74.3273 114.759 75.086 117.278 75.086C118.962 75.086 120.567 74.7459 122.029 74.118C124.222 73.1893 126.075 71.6457 127.394 69.6967C128.699 67.7477 129.482 65.3801 129.482 62.8555C129.482 61.1811 129.143 59.5591 128.516 58.094M34.9692 69.4874C31.3406 69.4874 28.3908 66.5312 28.3908 62.8947C28.3908 59.2582 31.3406 56.302 34.9692 56.302C38.5978 56.302 41.5476 59.2452 41.5476 62.8947C41.5476 66.5442 38.5978 69.4874 34.9692 69.4874ZM90.7946 55.9749L80.1829 69.3959C80.1829 69.3959 80.1307 69.422 80.1177 69.422C80.0524 69.422 80.0002 69.3697 80.0002 69.3043V51.4751H90.7946V55.9749ZM117.461 69.4874C113.832 69.4874 110.882 66.5312 110.882 62.8947C110.882 59.2582 113.832 56.302 117.461 56.302C121.089 56.302 124.039 59.2452 124.039 62.8947C124.039 66.5442 121.089 69.4874 117.461 69.4874Z" fill="#3E1865"/>
</svg>
