<svg width="160" height="108" viewBox="0 0 160 108" fill="none" xmlns="http://www.w3.org/2000/svg">
<path d="M126.871 38.12C125.305 38.12 124.039 39.3888 124.039 40.9585V48.5715C124.039 48.5715 124.091 48.6762 124.156 48.6762C124.183 48.6762 124.209 48.6762 124.235 48.65L129.612 41.8349C129.612 41.8349 129.691 41.6911 129.691 41.5995V40.9585C129.691 39.4019 128.425 38.12 126.871 38.12Z" fill="#F49AC1"/>
<path d="M134.403 38.12C132.836 38.12 131.57 39.3888 131.57 40.9585V48.5715C131.57 48.5715 131.622 48.6762 131.688 48.6762C131.714 48.6762 131.74 48.6762 131.766 48.65L137.157 41.8349C137.157 41.8349 137.235 41.6911 137.235 41.5995V40.9585C137.235 39.4019 135.969 38.12 134.403 38.12Z" fill="#F49AC1"/>
<path d="M60.9171 51.7368C62.5748 51.7368 63.9322 50.3763 63.9322 48.7151C63.9322 47.0538 62.5748 45.6934 60.9171 45.6934C59.2594 45.6934 57.902 47.0538 57.902 48.7151C57.902 50.3763 59.2594 51.7368 60.9171 51.7368ZM128.529 58.1333C127.602 55.9357 126.062 54.0782 124.117 52.7571C122.172 51.4359 119.81 50.6641 117.29 50.6641C115.62 50.6641 114.001 51.0173 112.552 51.6321C110.686 52.417 109.067 53.6597 107.814 55.2032V55.2293C107.814 55.2293 107.723 55.334 107.671 55.3863L96.6024 69.3959C96.6024 69.3959 96.5502 69.422 96.5241 69.422C96.4588 69.422 96.4066 69.3697 96.4066 69.3043V51.4751H101.719C103.272 51.4751 104.525 50.2063 104.525 48.6628C104.525 47.1192 103.272 45.8504 101.719 45.8504H96.4066V34.5747C96.4066 34.5747 96.3544 34.4701 96.2892 34.4701C96.2631 34.4701 96.2369 34.4832 96.2108 34.5093L90.8593 41.2721C90.8593 41.2721 90.768 41.416 90.768 41.5076V45.8635H79.9736V34.5878C79.9736 34.5878 79.9214 34.4832 79.8692 34.4832C79.8301 34.4832 79.804 34.4963 79.7909 34.5224L74.4394 41.2852C74.4394 41.2852 74.3611 41.4291 74.3611 41.5206V45.8766H69.0488C67.4955 45.8766 66.2425 47.1454 66.2425 48.6889C66.2425 50.2325 67.4955 51.5013 69.0488 51.5013H74.3611V55.988L63.7495 69.4089C63.7495 69.4089 63.6973 69.4351 63.6712 69.4351C63.6059 69.4351 63.5667 69.3827 63.5667 69.3173V56.9691C63.5667 55.7657 62.8097 54.7061 61.6741 54.3137C60.5386 53.9212 59.2986 54.2875 58.5546 55.2162L47.3295 69.4089C47.3295 69.4089 47.2773 69.4351 47.2512 69.4351C47.186 69.4351 47.1468 69.3827 47.1468 69.3173V35.7128C47.1468 34.1562 45.8938 32.9004 44.3405 32.9004C42.7873 32.9004 41.5343 34.1562 41.5343 35.7128V52.6001C39.6417 51.3836 37.3705 50.6641 34.9559 50.6641C33.2851 50.6641 31.6666 51.0173 30.2178 51.6321C28.025 52.5608 26.1716 54.1044 24.8533 56.0534C23.535 58.0025 22.7649 60.3701 22.7649 62.8816C22.7649 64.556 23.1043 66.178 23.7177 67.643C24.6444 69.8406 26.1846 71.6981 28.1294 73.0192C30.0742 74.3404 32.4367 75.0991 34.9428 75.0991C36.6266 75.0991 38.232 74.759 39.6939 74.1311C40.6859 73.7125 41.6126 73.1631 42.4479 72.5091C42.8656 73.15 43.4008 73.6994 44.0273 74.118C44.9279 74.7328 46.0504 75.0991 47.2121 75.086C48.0996 75.086 48.9611 74.8767 49.7181 74.5104C50.4752 74.1311 51.1278 73.6079 51.6499 72.9669V72.9408L57.9412 65.0138V69.3828C57.9412 70.1676 58.0978 70.9263 58.3849 71.6065C58.8157 72.6399 59.5335 73.5032 60.4472 74.118C61.3478 74.7328 62.4573 75.0991 63.632 75.086C64.5196 75.086 65.381 74.8767 66.1381 74.5104C66.8951 74.1311 67.5477 73.6079 68.0698 72.9669L68.0959 72.9408L74.3611 65.0138V69.3828C74.3611 70.1676 74.5177 70.9263 74.8049 71.6065C75.2356 72.6399 75.9665 73.5032 76.8672 74.118C77.7808 74.7328 78.8903 75.0991 80.0519 75.086C80.9395 75.086 81.801 74.8767 82.558 74.5104C83.3151 74.1311 83.9677 73.6079 84.4898 72.9669L84.5159 72.9408L90.781 65.0138V69.3828C90.781 70.1676 90.9377 70.9263 91.2248 71.6065C91.6555 72.6399 92.3734 73.5032 93.2871 74.118C94.1877 74.7328 95.2972 75.086 96.4719 75.086C97.3595 75.086 98.2209 74.8767 98.978 74.5104C99.735 74.1311 100.388 73.6079 100.91 72.9669L100.936 72.9408L105.752 66.8451C105.844 67.1198 105.948 67.3683 106.052 67.6299C106.979 69.8275 108.519 71.685 110.464 73.0061C112.409 74.3273 114.758 75.086 117.277 75.086C118.961 75.086 120.567 74.7459 122.029 74.118C124.221 73.1893 126.075 71.6457 127.393 69.6967C128.698 67.7477 129.481 65.3801 129.481 62.8555C129.481 61.1811 129.142 59.5591 128.516 58.094M34.9689 69.4874C31.3403 69.4874 28.3905 66.5312 28.3905 62.8947C28.3905 59.2582 31.3403 56.302 34.9689 56.302C38.5975 56.302 41.5473 59.2452 41.5473 62.8947C41.5473 66.5442 38.5975 69.4874 34.9689 69.4874ZM90.7941 55.9749L80.1825 69.3959C80.1825 69.3959 80.1303 69.422 80.1172 69.422C80.052 69.422 79.9997 69.3697 79.9997 69.3043V51.4751H90.7941V55.9749ZM117.473 69.4874C113.845 69.4874 110.895 66.5312 110.895 62.8947C110.895 59.2582 113.845 56.302 117.473 56.302C121.102 56.302 124.052 59.2452 124.052 62.8947C124.052 66.5442 121.102 69.4874 117.473 69.4874Z" fill="#3E1865"/>
</svg>
