<svg width="147" height="82" viewBox="0 0 147 82" fill="none" xmlns="http://www.w3.org/2000/svg">
<path fill-rule="evenodd" clip-rule="evenodd" d="M41.001 28.7285V30.48H53.4584V28.7285H41.001ZM55.2235 28.7285V30.48H72.976C72.976 30.48 71.1627 28.7285 68.761 28.7285H55.2235ZM76.4585 28.7285V30.48H87.1985L86.5611 28.7285H76.4585ZM94.8984 28.7285L94.261 30.48H104.903V28.7285H94.8984ZM41.001 32.1347V33.8862H53.4584V32.1347H41.001ZM55.2235 32.1373V33.8863H75.0359C75.0359 33.8863 74.8046 32.5382 74.4009 32.1373H55.2235ZM76.4585 32.1373V33.8863H88.3759L87.7859 32.1373H76.4585ZM93.6235 32.1373L93.0334 33.8863H104.903V32.1373H93.6235ZM44.581 35.5409V37.2949H49.9759V35.5409H44.581ZM58.8035 35.5409V37.2949H64.1985V35.5409H58.8035ZM69.4459 35.5409V37.2949H74.841C74.841 37.2949 75.1835 36.3686 75.1835 35.5409H69.4459ZM80.0385 35.5409V37.2949H89.6035L88.9659 35.5409H80.0385ZM92.4484 35.5409L91.8084 37.2949H101.421V35.5409H92.4484ZM44.581 38.9498V40.7012H49.9759V38.9498H44.581ZM58.8035 38.9498V40.7012H72.5835C72.5835 40.7012 73.7362 39.8025 74.1035 38.9498H58.8035ZM80.0385 38.9498V40.7012H85.4334V39.7262L85.776 40.7012H95.6585L96.026 39.7262V40.7012H101.421V38.9498H91.2934L90.7559 40.4332L90.2159 38.9498H80.0385ZM44.581 42.3559V44.1074H49.9759V42.3559H44.581ZM58.8035 42.3559V44.1074H74.1035C73.7362 43.2574 72.5835 42.3559 72.5835 42.3559H58.8035ZM80.0385 42.3559V44.1074H85.4334V42.3559H80.0385ZM86.4134 42.3559L87.0659 44.1074H94.4759L95.0959 42.3559H86.4134ZM96.0259 42.3559V44.1074H101.421V42.3559H96.0259ZM44.581 45.7621V47.5136H49.9759V45.7621H44.581ZM58.8035 45.7621V47.5136H64.1985V45.7621H58.8035ZM69.4459 45.7621V47.5136H75.1834C75.1834 46.6869 74.841 45.7621 74.841 45.7621H69.4459ZM80.0385 45.7621V47.5136H85.4334V45.7621H80.0385ZM87.6385 45.7621L88.2709 47.5136H93.2385L93.876 45.7621H87.6385ZM96.0259 45.7621V47.5136H101.421V45.7621H96.0259ZM41.0985 49.1683V50.9223H53.5559V49.1683H41.0985ZM55.2235 49.1683V50.9223H74.4009C74.8046 50.5207 75.0359 49.1683 75.0359 49.1683H55.2235ZM76.556 49.1683V50.9223H85.4334V49.1683H76.556ZM88.866 49.1683L89.5159 50.9223H92.0434L92.6534 49.1683H88.866ZM96.0259 49.1683V50.9223H105.001V49.1683H96.0259ZM41.0985 52.5771V54.3285H53.5559V52.5771H41.0985ZM55.2235 52.5771V54.3261H68.761C71.1627 54.3261 72.976 52.5771 72.976 52.5771H55.2235ZM76.556 52.5771V54.3285H85.4334V52.5771H76.556ZM90.0984 52.5771L90.7235 54.3236L90.8309 54.3261L91.466 52.5771H90.0984ZM96.0259 52.5771V54.3285H105.001V52.5771H96.0259Z" fill="#B9B4AD"/>
</svg>
