<svg width="1334" height="1046" viewBox="0 0 1334 1046" fill="none" xmlns="http://www.w3.org/2000/svg">
<mask id="path-1-inside-1_1693_59002" fill="white">
<path d="M40 40H430V82H40V40Z"/>
</mask>
<path d="M40 83H40.9949V81H40V83ZM42.9847 83H44.9745V81H42.9847V83ZM46.9643 83H48.9541V81H46.9643V83ZM50.9439 83H52.9337V81H50.9439V83ZM54.9235 83H56.9133V81H54.9235V83ZM58.9031 83H60.8929V81H58.9031V83ZM62.8827 83H64.8724V81H62.8827V83ZM66.8622 83H68.852V81H66.8622V83ZM70.8418 83H72.8316V81H70.8418V83ZM74.8214 83H76.8112V81H74.8214V83ZM78.801 83H80.7908V81H78.801V83ZM82.7806 83H84.7704V81H82.7806V83ZM86.7602 83H88.75V81H86.7602V83ZM90.7398 83H92.7296V81H90.7398V83ZM94.7194 83H96.7092V81H94.7194V83ZM98.699 83H100.689V81H98.699V83ZM102.679 83H104.668V81H102.679V83ZM106.658 83H108.648V81H106.658V83ZM110.638 83H112.628V81H110.638V83ZM114.617 83H116.607V81H114.617V83ZM118.597 83H120.587V81H118.597V83ZM122.577 83H124.566V81H122.577V83ZM126.556 83H128.546V81H126.556V83ZM130.536 83H132.526V81H130.536V83ZM134.515 83H136.505V81H134.515V83ZM138.495 83H140.485V81H138.495V83ZM142.475 83H144.464V81H142.475V83ZM146.454 83H148.444V81H146.454V83ZM150.434 83H152.424V81H150.434V83ZM154.413 83H156.403V81H154.413V83ZM158.393 83H160.383V81H158.393V83ZM162.373 83H164.362V81H162.373V83ZM166.352 83H168.342V81H166.352V83ZM170.332 83H172.322V81H170.332V83ZM174.311 83H176.301V81H174.311V83ZM178.291 83H180.281V81H178.291V83ZM182.27 83H184.26V81H182.27V83ZM186.25 83H188.24V81H186.25V83ZM190.23 83H192.219V81H190.23V83ZM194.209 83H196.199V81H194.209V83ZM198.189 83H200.179V81H198.189V83ZM202.168 83H204.158V81H202.168V83ZM206.148 83H208.138V81H206.148V83ZM210.128 83H212.117V81H210.128V83ZM214.107 83H216.097V81H214.107V83ZM218.087 83H220.077V81H218.087V83ZM222.066 83H224.056V81H222.066V83ZM226.046 83H228.036V81H226.046V83ZM230.026 83H232.015V81H230.026V83ZM234.005 83H235.995V81H234.005V83ZM237.985 83H239.974V81H237.985V83ZM241.964 83H243.954V81H241.964V83ZM245.944 83H247.934V81H245.944V83ZM249.923 83H251.913V81H249.923V83ZM253.903 83H255.893V81H253.903V83ZM257.883 83H259.872V81H257.883V83ZM261.862 83H263.852V81H261.862V83ZM265.842 83H267.832V81H265.842V83ZM269.821 83H271.811V81H269.821V83ZM273.801 83H275.791V81H273.801V83ZM277.78 83H279.77V81H277.78V83ZM281.76 83H283.75V81H281.76V83ZM285.74 83H287.729V81H285.74V83ZM289.719 83H291.709V81H289.719V83ZM293.699 83H295.689V81H293.699V83ZM297.678 83H299.668V81H297.678V83ZM301.658 83H303.648V81H301.658V83ZM305.638 83H307.627V81H305.638V83ZM309.617 83H311.607V81H309.617V83ZM313.597 83H315.587V81H313.597V83ZM317.577 83H319.566V81H317.577V83ZM321.556 83H323.546V81H321.556V83ZM325.536 83H327.526V81H325.536V83ZM329.515 83H331.505V81H329.515V83ZM333.495 83H335.485V81H333.495V83ZM337.475 83H339.464V81H337.475V83ZM341.454 83H343.444V81H341.454V83ZM345.434 83H347.424V81H345.434V83ZM349.413 83H351.403V81H349.413V83ZM353.393 83H355.383V81H353.393V83ZM357.373 83H359.362V81H357.373V83ZM361.352 83H363.342V81H361.352V83ZM365.332 83H367.322V81H365.332V83ZM369.311 83H371.301V81H369.311V83ZM373.291 83H375.281V81H373.291V83ZM377.271 83H379.261V81H377.271V83ZM381.25 83H383.24V81H381.25V83ZM385.23 83H387.22V81H385.23V83ZM389.21 83H391.199V81H389.21V83ZM393.189 83H395.179V81H393.189V83ZM397.169 83H399.159V81H397.169V83ZM401.148 83H403.138V81H401.148V83ZM405.128 83H407.118V81H405.128V83ZM409.108 83H411.097V81H409.108V83ZM413.087 83H415.077V81H413.087V83ZM417.067 83H419.057V81H417.067V83ZM421.046 83H423.036V81H421.046V83ZM425.026 83H427.016V81H425.026V83ZM429.006 83H430V81H429.006V83ZM40 84H40.9949V80H40V84ZM42.9847 84H44.9745V80H42.9847V84ZM46.9643 84H48.9541V80H46.9643V84ZM50.9439 84H52.9337V80H50.9439V84ZM54.9235 84H56.9133V80H54.9235V84ZM58.9031 84H60.8929V80H58.9031V84ZM62.8827 84H64.8724V80H62.8827V84ZM66.8622 84H68.852V80H66.8622V84ZM70.8418 84H72.8316V80H70.8418V84ZM74.8214 84H76.8112V80H74.8214V84ZM78.801 84H80.7908V80H78.801V84ZM82.7806 84H84.7704V80H82.7806V84ZM86.7602 84H88.75V80H86.7602V84ZM90.7398 84H92.7296V80H90.7398V84ZM94.7194 84H96.7092V80H94.7194V84ZM98.699 84H100.689V80H98.699V84ZM102.679 84H104.668V80H102.679V84ZM106.658 84H108.648V80H106.658V84ZM110.638 84H112.628V80H110.638V84ZM114.617 84H116.607V80H114.617V84ZM118.597 84H120.587V80H118.597V84ZM122.577 84H124.566V80H122.577V84ZM126.556 84H128.546V80H126.556V84ZM130.536 84H132.526V80H130.536V84ZM134.515 84H136.505V80H134.515V84ZM138.495 84H140.485V80H138.495V84ZM142.475 84H144.464V80H142.475V84ZM146.454 84H148.444V80H146.454V84ZM150.434 84H152.424V80H150.434V84ZM154.413 84H156.403V80H154.413V84ZM158.393 84H160.383V80H158.393V84ZM162.373 84H164.362V80H162.373V84ZM166.352 84H168.342V80H166.352V84ZM170.332 84H172.322V80H170.332V84ZM174.311 84H176.301V80H174.311V84ZM178.291 84H180.281V80H178.291V84ZM182.27 84H184.26V80H182.27V84ZM186.25 84H188.24V80H186.25V84ZM190.23 84H192.219V80H190.23V84ZM194.209 84H196.199V80H194.209V84ZM198.189 84H200.179V80H198.189V84ZM202.168 84H204.158V80H202.168V84ZM206.148 84H208.138V80H206.148V84ZM210.128 84H212.117V80H210.128V84ZM214.107 84H216.097V80H214.107V84ZM218.087 84H220.077V80H218.087V84ZM222.066 84H224.056V80H222.066V84ZM226.046 84H228.036V80H226.046V84ZM230.026 84H232.015V80H230.026V84ZM234.005 84H235.995V80H234.005V84ZM237.985 84H239.974V80H237.985V84ZM241.964 84H243.954V80H241.964V84ZM245.944 84H247.934V80H245.944V84ZM249.923 84H251.913V80H249.923V84ZM253.903 84H255.893V80H253.903V84ZM257.883 84H259.872V80H257.883V84ZM261.862 84H263.852V80H261.862V84ZM265.842 84H267.832V80H265.842V84ZM269.821 84H271.811V80H269.821V84ZM273.801 84H275.791V80H273.801V84ZM277.78 84H279.77V80H277.78V84ZM281.76 84H283.75V80H281.76V84ZM285.74 84H287.729V80H285.74V84ZM289.719 84H291.709V80H289.719V84ZM293.699 84H295.689V80H293.699V84ZM297.678 84H299.668V80H297.678V84ZM301.658 84H303.648V80H301.658V84ZM305.638 84H307.627V80H305.638V84ZM309.617 84H311.607V80H309.617V84ZM313.597 84H315.587V80H313.597V84ZM317.577 84H319.566V80H317.577V84ZM321.556 84H323.546V80H321.556V84ZM325.536 84H327.526V80H325.536V84ZM329.515 84H331.505V80H329.515V84ZM333.495 84H335.485V80H333.495V84ZM337.475 84H339.464V80H337.475V84ZM341.454 84H343.444V80H341.454V84ZM345.434 84H347.424V80H345.434V84ZM349.413 84H351.403V80H349.413V84ZM353.393 84H355.383V80H353.393V84ZM357.373 84H359.362V80H357.373V84ZM361.352 84H363.342V80H361.352V84ZM365.332 84H367.322V80H365.332V84ZM369.311 84H371.301V80H369.311V84ZM373.291 84H375.281V80H373.291V84ZM377.271 84H379.261V80H377.271V84ZM381.25 84H383.24V80H381.25V84ZM385.23 84H387.22V80H385.23V84ZM389.21 84H391.199V80H389.21V84ZM393.189 84H395.179V80H393.189V84ZM397.169 84H399.159V80H397.169V84ZM401.148 84H403.138V80H401.148V84ZM405.128 84H407.118V80H405.128V84ZM409.108 84H411.097V80H409.108V84ZM413.087 84H415.077V80H413.087V84ZM417.067 84H419.057V80H417.067V84ZM421.046 84H423.036V80H421.046V84ZM425.026 84H427.016V80H425.026V84ZM429.006 84H430V80H429.006V84Z" fill="#222222" mask="url(#path-1-inside-1_1693_59002)"/>
<path d="M45.216 53.328H43.152V58H41.664V45.76H45.344C47.712 45.76 49.552 46.88 49.552 49.52C49.552 52.112 47.728 53.328 45.216 53.328ZM43.152 52.128H45.216C46.992 52.128 48.016 51.264 48.016 49.52C48.016 47.696 46.992 46.96 45.264 46.96H43.152V52.128ZM54.3708 51.584H57.1868C58.6268 51.584 59.6988 50.896 59.6988 49.216C59.6988 47.712 58.6588 46.976 57.2508 46.976H54.3708V51.584ZM59.6188 58L57.0908 52.816H54.3708V58H52.8828V45.76H57.3148C58.2108 45.76 59.0108 45.952 59.6828 46.304C60.6588 46.848 61.2668 47.792 61.2668 49.2C61.2668 51.504 59.7628 52.288 58.6428 52.576V52.608L61.3468 58H59.6188ZM64.3068 51.92C64.3068 47.536 66.8668 45.584 69.7788 45.584C72.7548 45.584 75.2988 47.536 75.2988 51.92C75.2988 56.288 72.7708 58.256 69.7788 58.256C66.7708 58.256 64.3068 56.288 64.3068 51.92ZM69.7788 57.056C72.0828 57.056 73.7308 55.232 73.7308 51.936C73.7308 48.576 72.1308 46.768 69.7788 46.768C67.4908 46.768 65.8748 48.48 65.8748 51.936C65.8748 55.28 67.4427 57.056 69.7788 57.056ZM80.5426 52.8V58H79.0546V45.76H86.3666V47.088H80.5426V51.504H85.8706V52.8H80.5426ZM89.8828 58V45.76H91.3708V58H89.8828ZM95.7109 58V45.76H97.1989V56.672H103.279V58H95.7109ZM106.352 58V45.76H114.176V47.088H107.84V51.168H113.664V52.464H107.84V56.672H114.256V58H106.352ZM122.308 46.576L118.052 58H116.676L120.932 46.576H122.308ZM129.213 58H127.565L124.061 45.76H125.581L127.981 54.432C128.317 55.664 128.413 56.384 128.413 56.384H128.445C128.445 56.384 128.541 55.664 128.861 54.448L131.213 45.76H132.941L135.309 54.432C135.661 55.664 135.757 56.384 135.757 56.384H135.789C135.789 56.384 135.869 55.664 136.205 54.448L138.589 45.76H140.045L136.541 58H134.877L132.477 49.472C132.125 48.24 132.045 47.504 132.045 47.504H132.013C132.013 47.504 131.917 48.24 131.581 49.456L129.213 58ZM146.902 47.248C146.87 47.328 146.646 48.08 146.406 48.768L144.886 53.152H148.95L147.414 48.768C147.158 48.032 146.934 47.248 146.934 47.248H146.902ZM150.646 58L149.366 54.352H144.47L143.206 58H141.718L146.07 45.76H147.83L152.23 58H150.646ZM155.523 58V45.76H157.011V56.672H163.091V58H155.523ZM166.164 58V45.76H167.652V56.672H173.732V58H166.164ZM176.805 58V45.76H184.629V47.088H178.293V51.168H184.117V52.464H178.293V56.672H184.709V58H176.805ZM197.177 45.76V47.056H192.937V58H191.449V47.056H187.209V45.76H197.177Z" fill="#222222"/>
<g filter="url(#filter0_d_1693_59002)">
<g clip-path="url(#clip0_1693_59002)">
<rect width="390" height="1011" transform="translate(40 122)" fill="white"/>
<mask id="path-6-inside-2_1693_59002" fill="white">
<path d="M40 146H430V1077H40V146Z"/>
</mask>
<path d="M430 1073H40V1081H430V1073Z" fill="#222222" mask="url(#path-6-inside-2_1693_59002)"/>
<g clip-path="url(#clip1_1693_59002)">
<rect x="60" y="146" width="88" height="88" rx="44" fill="white"/>
<path d="M104 164.334C114.415 164.334 122.857 172.777 122.857 183.191C122.857 189.8 119.457 195.615 114.311 198.982C127.488 203.309 137 215.71 137 230.334H132.286C132.286 214.712 119.622 202.048 104 202.048C88.3782 202.048 75.7143 214.712 75.7143 230.334H71C71 215.71 80.5119 203.309 93.6861 198.978C88.5428 195.615 85.1429 189.8 85.1429 183.191C85.1429 172.777 93.5855 164.334 104 164.334ZM104 169.048C96.1891 169.048 89.8571 175.38 89.8571 183.191C89.8571 191.002 96.1891 197.334 104 197.334C111.811 197.334 118.143 191.002 118.143 183.191C118.143 175.38 111.811 169.048 104 169.048Z" fill="#222222"/>
</g>
<rect x="62.2" y="148.2" width="83.6" height="83.6" rx="41.8" stroke="#222222" stroke-width="4.4"/>
<path d="M179.458 179.33C175.388 179.33 172.77 176.162 172.77 171.3C172.77 166.46 175.41 163.27 179.458 163.27C182.692 163.27 185.09 165.448 185.486 168.726L182.78 169.166C182.406 166.988 181.24 165.8 179.458 165.8C176.994 165.8 175.52 167.89 175.52 171.3C175.52 174.732 176.994 176.8 179.458 176.8C181.328 176.8 182.494 175.546 182.802 173.148L185.53 173.588C185.178 177.108 182.824 179.33 179.458 179.33ZM191.746 179.33C189.436 179.33 187.918 177.988 187.918 175.898C187.918 173.94 189.084 172.884 192.076 172.18C194.034 171.696 194.65 171.322 194.65 170.596C194.65 169.76 193.946 169.276 192.78 169.276C191.46 169.276 190.558 170.046 190.316 171.344L187.83 170.816C188.204 168.528 190.184 167.01 192.78 167.01C195.596 167.01 197.356 168.616 197.356 171.234V179H194.958V177.988H194.914C194.21 178.846 193.088 179.33 191.746 179.33ZM192.186 177.042C193.704 177.042 194.76 176.228 194.76 175.062V173.06H194.716C194.496 173.478 193.924 173.786 192.692 174.138C191.064 174.556 190.47 174.996 190.47 175.722C190.47 176.602 191.064 177.042 192.186 177.042ZM206.768 167.34V169.694H203.886V175.48C203.886 176.228 204.172 176.47 205.118 176.47H206.284V179H204.876C202.258 179 201.246 178.076 201.246 175.612V169.694H199.332V167.34H201.246V164.502H203.886V167.34H206.768ZM212.006 179H209.366V162.94H212.006V168.374H212.05C212.71 167.538 213.898 167.01 215.152 167.01C217.77 167.01 219.508 168.77 219.508 171.366V179H216.868V171.938C216.868 170.376 215.988 169.474 214.47 169.474C212.952 169.474 212.006 170.442 212.006 171.938V179ZM227.745 179.33C224.489 179.33 222.267 176.844 222.267 173.17C222.267 169.518 224.489 167.01 227.701 167.01C230.935 167.01 233.091 169.452 233.091 173.038V173.94H224.929C225.017 175.788 226.073 177.042 227.745 177.042C229.043 177.042 229.923 176.492 230.803 175.128L232.739 176.536C231.683 178.384 229.967 179.33 227.745 179.33ZM224.951 172.004H230.473C230.385 170.376 229.373 169.298 227.723 169.298C226.183 169.298 225.039 170.464 224.951 172.004ZM238.58 179H235.94V167.34H238.426V168.352H238.47C238.954 167.604 239.812 167.12 240.934 167.12C241.462 167.12 241.924 167.186 242.342 167.318L241.88 169.892C241.396 169.76 241.022 169.694 240.626 169.694C239.284 169.694 238.58 170.596 238.58 172.466V179ZM247.368 165.36H244.596V162.698H247.368V165.36ZM247.302 179H244.662V167.34H247.302V179ZM253.252 179H250.612V167.34H253.142V168.374H253.186C253.868 167.538 255.144 167.01 256.398 167.01C259.016 167.01 260.754 168.77 260.754 171.52V179H258.114V171.938C258.114 170.376 257.234 169.474 255.716 169.474C254.198 169.474 253.252 170.442 253.252 171.938V179ZM268.991 179.33C265.735 179.33 263.513 176.844 263.513 173.17C263.513 169.518 265.735 167.01 268.947 167.01C272.181 167.01 274.337 169.452 274.337 173.038V173.94H266.175C266.263 175.788 267.319 177.042 268.991 177.042C270.289 177.042 271.169 176.492 272.049 175.128L273.985 176.536C272.929 178.384 271.213 179.33 268.991 179.33ZM266.197 172.004H271.719C271.631 170.376 270.619 169.298 268.969 169.298C267.429 169.298 266.285 170.464 266.197 172.004ZM286.971 179H284.221V163.6H287.147L292.955 174.358H292.999V163.6H295.749V179H292.823L287.015 168.242H286.971V179ZM303.204 183.95H300.498L302.896 178.34L298.342 167.34H301.114L304.194 175.194H304.238L307.274 167.34H310.002L303.204 183.95ZM316.841 184.28C314.619 184.28 312.705 183.202 311.737 181.398L313.827 179.99C314.685 181.376 315.499 181.904 316.863 181.904C318.535 181.904 319.525 180.804 319.525 179.044V177.988H319.481C318.887 178.802 317.633 179.33 316.269 179.33C313.233 179.33 311.055 176.756 311.055 173.17C311.055 169.65 313.233 167.076 316.291 167.076C317.589 167.076 318.755 167.538 319.481 168.352H319.525V167.34H322.099V179.154C322.099 182.278 320.053 184.28 316.841 184.28ZM316.709 176.91C318.271 176.91 319.459 175.678 319.459 174.094V172.312C319.459 170.706 318.271 169.518 316.665 169.518C314.817 169.518 313.695 170.926 313.695 173.17C313.695 175.48 314.839 176.91 316.709 176.91ZM328.763 179.33C326.453 179.33 324.935 177.988 324.935 175.898C324.935 173.94 326.101 172.884 329.093 172.18C331.051 171.696 331.667 171.322 331.667 170.596C331.667 169.76 330.963 169.276 329.797 169.276C328.477 169.276 327.575 170.046 327.333 171.344L324.847 170.816C325.221 168.528 327.201 167.01 329.797 167.01C332.613 167.01 334.373 168.616 334.373 171.234V179H331.975V177.988H331.931C331.227 178.846 330.105 179.33 328.763 179.33ZM329.203 177.042C330.721 177.042 331.777 176.228 331.777 175.062V173.06H331.733C331.513 173.478 330.941 173.786 329.709 174.138C328.081 174.556 327.487 174.996 327.487 175.722C327.487 176.602 328.081 177.042 329.203 177.042ZM341.029 179.33C338.719 179.33 337.201 177.988 337.201 175.898C337.201 173.94 338.367 172.884 341.359 172.18C343.317 171.696 343.933 171.322 343.933 170.596C343.933 169.76 343.229 169.276 342.063 169.276C340.743 169.276 339.841 170.046 339.599 171.344L337.113 170.816C337.487 168.528 339.467 167.01 342.063 167.01C344.879 167.01 346.639 168.616 346.639 171.234V179H344.241V177.988H344.197C343.493 178.846 342.371 179.33 341.029 179.33ZM341.469 177.042C342.987 177.042 344.043 176.228 344.043 175.062V173.06H343.999C343.779 173.478 343.207 173.786 341.975 174.138C340.347 174.556 339.753 174.996 339.753 175.722C339.753 176.602 340.347 177.042 341.469 177.042ZM352.46 179H349.82V167.34H352.306V168.352H352.35C352.834 167.604 353.692 167.12 354.814 167.12C355.342 167.12 355.804 167.186 356.222 167.318L355.76 169.892C355.276 169.76 354.902 169.694 354.506 169.694C353.164 169.694 352.46 170.596 352.46 172.466V179ZM362.65 179.33C359.614 179.33 357.436 176.778 357.436 173.17C357.436 169.562 359.614 167.01 362.672 167.01C363.948 167.01 365.048 167.45 365.796 168.198H365.84V162.94H368.48V179H366.016V177.922H365.972C365.29 178.758 364.08 179.33 362.65 179.33ZM363.09 176.91C364.652 176.91 365.84 175.7 365.84 174.094V172.224C365.84 170.64 364.652 169.43 363.046 169.43C361.198 169.43 360.076 170.838 360.076 173.17C360.076 175.48 361.22 176.91 363.09 176.91ZM178.71 215H176.07V203.01L172.616 205.166V202.482L176.268 200.216H178.71V215ZM188.666 215.33C184.926 215.33 182.33 212.316 182.33 207.3C182.33 202.284 184.926 199.27 188.666 199.27C192.406 199.27 194.98 202.284 194.98 207.3C194.98 212.316 192.406 215.33 188.666 215.33ZM188.666 212.8C190.866 212.8 192.23 210.93 192.23 207.3C192.23 203.67 190.866 201.8 188.666 201.8C186.444 201.8 185.08 203.67 185.08 207.3C185.08 210.93 186.444 212.8 188.666 212.8ZM203.725 215.33C199.985 215.33 197.389 212.316 197.389 207.3C197.389 202.284 199.985 199.27 203.725 199.27C207.465 199.27 210.039 202.284 210.039 207.3C210.039 212.316 207.465 215.33 203.725 215.33ZM203.725 212.8C205.925 212.8 207.289 210.93 207.289 207.3C207.289 203.67 205.925 201.8 203.725 201.8C201.503 201.8 200.139 203.67 200.139 207.3C200.139 210.93 201.503 212.8 203.725 212.8ZM216.079 215H213.329V199.6H216.079V206.574H216.123L221.821 199.6H225.011L219.357 206.398L225.517 215H222.239L217.663 208.4H217.619L216.079 210.336V215ZM237.347 215H234.597V199.6H244.277V202.13H237.347V206.486H243.771V208.928H237.347V215ZM251.895 215.33C248.529 215.33 246.241 212.844 246.241 209.17C246.241 205.496 248.529 203.01 251.895 203.01C255.283 203.01 257.571 205.496 257.571 209.17C257.571 212.844 255.283 215.33 251.895 215.33ZM251.895 212.91C253.787 212.91 254.931 211.502 254.931 209.17C254.931 206.838 253.787 205.43 251.895 205.43C250.003 205.43 248.881 206.838 248.881 209.17C248.881 211.502 250.003 212.91 251.895 212.91ZM263.071 215H260.431V198.94H263.071V215ZM269.021 215H266.381V198.94H269.021V215ZM277.545 215.33C274.179 215.33 271.891 212.844 271.891 209.17C271.891 205.496 274.179 203.01 277.545 203.01C280.933 203.01 283.221 205.496 283.221 209.17C283.221 212.844 280.933 215.33 277.545 215.33ZM277.545 212.91C279.437 212.91 280.581 211.502 280.581 209.17C280.581 206.838 279.437 205.43 277.545 205.43C275.653 205.43 274.531 206.838 274.531 209.17C274.531 211.502 275.653 212.91 277.545 212.91ZM290.117 215H287.521L284.837 203.34H287.455L289.149 211.348H289.193L291.877 203.34H294.209L296.893 211.348H296.937L298.631 203.34H301.249L298.565 215H295.969L293.065 206.464H293.021L290.117 215ZM308.348 215.33C305.092 215.33 302.87 212.844 302.87 209.17C302.87 205.518 305.092 203.01 308.304 203.01C311.538 203.01 313.694 205.452 313.694 209.038V209.94H305.532C305.62 211.788 306.676 213.042 308.348 213.042C309.646 213.042 310.526 212.492 311.406 211.128L313.342 212.536C312.286 214.384 310.57 215.33 308.348 215.33ZM305.554 208.004H311.076C310.988 206.376 309.976 205.298 308.326 205.298C306.786 205.298 305.642 206.464 305.554 208.004ZM319.183 215H316.543V203.34H319.029V204.352H319.073C319.557 203.604 320.415 203.12 321.537 203.12C322.065 203.12 322.527 203.186 322.945 203.318L322.483 205.892C321.999 205.76 321.625 205.694 321.229 205.694C319.887 205.694 319.183 206.596 319.183 208.466V215ZM329.353 215.33C326.229 215.33 324.315 213.834 323.875 211.172L326.273 210.556C326.647 212.338 327.527 213.086 329.353 213.086C330.497 213.086 331.267 212.58 331.267 211.832C331.267 211.084 330.673 210.71 328.319 209.984C325.591 209.126 324.469 208.202 324.469 206.442C324.469 204.528 326.339 203.01 328.759 203.01C331.157 203.01 333.137 204.374 333.665 206.442L331.267 207.124C330.871 205.892 329.991 205.254 328.759 205.254C327.747 205.254 327.109 205.804 327.109 206.42C327.109 206.992 327.527 207.234 329.573 207.916C332.565 208.884 333.907 209.852 333.907 211.832C333.907 213.878 331.971 215.33 329.353 215.33Z" fill="#222222"/>
<rect x="60" y="266" width="350" height="4" fill="#222222"/>
<rect x="60" y="290" width="350" height="4" fill="#222222"/>
<rect x="62" y="328" width="104.667" height="43" rx="2" fill="white"/>
<rect x="62" y="328" width="104.667" height="43" rx="2" stroke="#222222" stroke-width="4"/>
<path d="M85.0174 354H83.2954V344.2H85.3114L88.2094 351.2H88.2374L91.1494 344.2H93.1654V354H91.4434V347.308H91.4154L88.6014 354H87.8594L85.0454 347.308H85.0174V354ZM99.206 354H97.456V349.982L94.124 344.2H96.028L98.31 348.414H98.352L100.62 344.2H102.524L99.206 349.982V354ZM108.876 354H107.126V344.2H108.876V354ZM114.985 354H113.235V345.81H110.323V344.2H117.897V345.81H114.985V354ZM125.495 354H119.335V344.2H125.495V345.81H121.085V348.204H125.103V349.758H121.085V352.39H125.495V354ZM128.89 354H127.168V344.2H129.184L132.082 351.2H132.11L135.022 344.2H137.038V354H135.316V347.308H135.288L132.474 354H131.732L128.918 347.308H128.89V354ZM142.547 354.21C140.181 354.21 138.753 353.006 138.445 350.766L140.167 350.416C140.405 351.97 141.105 352.614 142.575 352.614C143.667 352.614 144.325 352.166 144.325 351.438C144.325 350.654 143.793 350.234 142.043 349.66C139.733 348.89 138.907 348.022 138.907 346.692C138.907 345.096 140.237 343.99 142.155 343.99C144.045 343.99 145.487 345.124 145.809 346.86L144.101 347.224C143.807 346.118 143.177 345.586 142.155 345.586C141.231 345.586 140.643 346.02 140.643 346.692C140.643 347.28 141.105 347.602 142.645 348.106C145.137 348.946 146.075 349.898 146.075 351.424C146.075 353.09 144.647 354.21 142.547 354.21Z" fill="#222222"/>
<path d="M82.2454 355.68H146.425V357.08H82.2454V355.68Z" fill="#222222"/>
<rect x="182.667" y="328" width="104.667" height="43" rx="2" fill="white"/>
<rect x="182.667" y="328" width="104.667" height="43" rx="2" stroke="#222222" stroke-width="4"/>
<path d="M223.927 354H217.935V344.2H219.685V352.39H223.927V354ZM227.123 354H225.373V344.2H227.123V354ZM230.978 354H229.228V344.2H230.978V348.638H231.006L234.632 344.2H236.662L233.064 348.526L236.984 354H234.898L231.986 349.8H231.958L230.978 351.032V354ZM244.165 354H238.005V344.2H244.165V345.81H239.755V348.204H243.773V349.758H239.755V352.39H244.165V354ZM249.241 354.21C246.875 354.21 245.447 353.006 245.139 350.766L246.861 350.416C247.099 351.97 247.799 352.614 249.269 352.614C250.361 352.614 251.019 352.166 251.019 351.438C251.019 350.654 250.487 350.234 248.737 349.66C246.427 348.89 245.601 348.022 245.601 346.692C245.601 345.096 246.931 343.99 248.849 343.99C250.739 343.99 252.181 345.124 252.503 346.86L250.795 347.224C250.501 346.118 249.871 345.586 248.849 345.586C247.925 345.586 247.337 346.02 247.337 346.692C247.337 347.28 247.799 347.602 249.339 348.106C251.831 348.946 252.769 349.898 252.769 351.424C252.769 353.09 251.341 354.21 249.241 354.21Z" fill="#222222"/>
<rect x="303.333" y="328" width="104.667" height="43" rx="2" fill="white"/>
<rect x="303.333" y="328" width="104.667" height="43" rx="2" stroke="#222222" stroke-width="4"/>
<path d="M339.802 354.21C337.436 354.21 336.008 353.006 335.7 350.766L337.422 350.416C337.66 351.97 338.36 352.614 339.83 352.614C340.922 352.614 341.58 352.166 341.58 351.438C341.58 350.654 341.048 350.234 339.298 349.66C336.988 348.89 336.162 348.022 336.162 346.692C336.162 345.096 337.492 343.99 339.41 343.99C341.3 343.99 342.742 345.124 343.064 346.86L341.356 347.224C341.062 346.118 340.432 345.586 339.41 345.586C338.486 345.586 337.898 346.02 337.898 346.692C337.898 347.28 338.36 347.602 339.9 348.106C342.392 348.946 343.33 349.898 343.33 351.424C343.33 353.09 341.902 354.21 339.802 354.21ZM352.027 354H350.263L349.689 352.32H345.713L345.139 354H343.375L346.889 344.2H348.513L352.027 354ZM347.687 346.622L346.245 350.78H349.157L347.715 346.622H347.687ZM356.31 354H354.532L350.99 344.2H352.852L355.414 351.564H355.442L358.004 344.2H359.852L356.31 354ZM367.033 354H360.873V344.2H367.033V345.81H362.623V348.204H366.641V349.758H362.623V352.39H367.033V354ZM372.109 354.21C369.743 354.21 368.315 353.006 368.007 350.766L369.729 350.416C369.967 351.97 370.667 352.614 372.137 352.614C373.229 352.614 373.887 352.166 373.887 351.438C373.887 350.654 373.355 350.234 371.605 349.66C369.295 348.89 368.469 348.022 368.469 346.692C368.469 345.096 369.799 343.99 371.717 343.99C373.607 343.99 375.049 345.124 375.371 346.86L373.663 347.224C373.369 346.118 372.739 345.586 371.717 345.586C370.793 345.586 370.205 346.02 370.205 346.692C370.205 347.28 370.667 347.602 372.207 348.106C374.699 348.946 375.637 349.898 375.637 351.424C375.637 353.09 374.209 354.21 372.109 354.21Z" fill="#222222"/>
<rect x="62" y="407" width="104.667" height="104" rx="2" fill="white"/>
<rect x="62" y="407" width="104.667" height="104" rx="2" stroke="#222222" stroke-width="4"/>
<rect x="182.667" y="407" width="104.667" height="104" rx="2" fill="white"/>
<rect x="182.667" y="407" width="104.667" height="104" rx="2" stroke="#222222" stroke-width="4"/>
<rect x="303.333" y="407" width="104.667" height="104" rx="2" fill="white"/>
<rect x="303.333" y="407" width="104.667" height="104" rx="2" stroke="#222222" stroke-width="4"/>
<rect x="62" y="527" width="104.667" height="104" rx="2" fill="white"/>
<rect x="62" y="527" width="104.667" height="104" rx="2" stroke="#222222" stroke-width="4"/>
<rect x="182.667" y="527" width="104.667" height="104" rx="2" fill="white"/>
<rect x="182.667" y="527" width="104.667" height="104" rx="2" stroke="#222222" stroke-width="4"/>
<rect x="303.333" y="527" width="104.667" height="104" rx="2" fill="white"/>
<rect x="303.333" y="527" width="104.667" height="104" rx="2" stroke="#222222" stroke-width="4"/>
<rect x="62" y="647" width="104.667" height="104" rx="2" fill="white"/>
<rect x="62" y="647" width="104.667" height="104" rx="2" stroke="#222222" stroke-width="4"/>
<rect x="182.667" y="647" width="104.667" height="104" rx="2" fill="white"/>
<rect x="182.667" y="647" width="104.667" height="104" rx="2" stroke="#222222" stroke-width="4"/>
<rect x="303.333" y="647" width="104.667" height="104" rx="2" fill="white"/>
<rect x="303.333" y="647" width="104.667" height="104" rx="2" stroke="#222222" stroke-width="4"/>
<rect x="62" y="767" width="104.667" height="104" rx="2" fill="white"/>
<rect x="62" y="767" width="104.667" height="104" rx="2" stroke="#222222" stroke-width="4"/>
<rect x="182.667" y="767" width="104.667" height="104" rx="2" fill="white"/>
<rect x="182.667" y="767" width="104.667" height="104" rx="2" stroke="#222222" stroke-width="4"/>
<rect x="303.333" y="767" width="104.667" height="104" rx="2" fill="white"/>
<rect x="303.333" y="767" width="104.667" height="104" rx="2" stroke="#222222" stroke-width="4"/>
<rect x="62" y="887" width="104.667" height="104" rx="2" fill="white"/>
<rect x="62" y="887" width="104.667" height="104" rx="2" stroke="#222222" stroke-width="4"/>
<rect x="182.667" y="887" width="104.667" height="104" rx="2" fill="white"/>
<rect x="182.667" y="887" width="104.667" height="104" rx="2" stroke="#222222" stroke-width="4"/>
<rect x="303.333" y="887" width="104.667" height="104" rx="2" fill="white"/>
<rect x="303.333" y="887" width="104.667" height="104" rx="2" stroke="#222222" stroke-width="4"/>
<rect width="390" height="72" transform="translate(40 930)" fill="#222222"/>
<rect width="189" height="64" transform="translate(44 934)" fill="white"/>
<path d="M100.33 973H91.5305V959H100.33V961.3H94.0305V964.72H99.7705V966.94H94.0305V970.7H100.33V973ZM106.522 973H103.682L108.062 965.9L103.802 959H106.642L109.522 964.04H109.562L112.442 959H115.282L111.002 965.9L115.382 973H112.562L109.562 967.76H109.522L106.522 973ZM121.858 973H119.358V959H124.978C127.938 959 129.778 960.72 129.778 963.5C129.778 966.32 127.978 967.98 124.958 967.98H121.858V973ZM121.858 961.3V965.68H124.918C126.418 965.68 127.278 964.9 127.278 963.5C127.278 962.02 126.478 961.3 124.918 961.3H121.858ZM142.603 973H134.043V959H136.543V970.7H142.603V973ZM151.879 973.3C148.199 973.3 145.799 970.4 145.799 966C145.799 961.6 148.199 958.7 151.879 958.7C155.539 958.7 157.939 961.6 157.939 966C157.939 970.4 155.539 973.3 151.879 973.3ZM151.879 971C154.099 971 155.439 969.1 155.439 966C155.439 962.9 154.079 961 151.879 961C149.659 961 148.299 962.9 148.299 966C148.299 969.1 149.639 971 151.879 971ZM169.734 967.56V967.58L172.674 973H169.934L167.154 967.8H165.034V973H162.534V959H168.014C170.954 959 172.754 960.66 172.754 963.38C172.754 965.5 171.634 967 169.734 967.56ZM165.034 961.3V965.5H167.734C169.374 965.5 170.254 964.76 170.254 963.38C170.254 962 169.394 961.3 167.734 961.3H165.034ZM186.078 973H177.278V959H186.078V961.3H179.778V964.72H185.518V966.94H179.778V970.7H186.078V973Z" fill="#222222"/>
<path d="M90.0305 975.4H186.978V977.4H90.0305V975.4Z" fill="#222222"/>
<rect width="189" height="64" transform="translate(237 934)" fill="white"/>
<path d="M290.029 973H287.529V959H293.149C296.109 959 297.949 960.72 297.949 963.5C297.949 966.32 296.149 967.98 293.129 967.98H290.029V973ZM290.029 961.3V965.68H293.089C294.589 965.68 295.449 964.9 295.449 963.5C295.449 962.02 294.649 961.3 293.089 961.3H290.029ZM309.414 967.56V967.58L312.354 973H309.614L306.834 967.8H304.714V973H302.214V959H307.694C310.634 959 312.434 960.66 312.434 963.38C312.434 965.5 311.314 967 309.414 967.56ZM304.714 961.3V965.5H307.414C309.054 965.5 309.934 964.76 309.934 963.38C309.934 962 309.074 961.3 307.414 961.3H304.714ZM322.237 973.3C318.557 973.3 316.157 970.4 316.157 966C316.157 961.6 318.557 958.7 322.237 958.7C325.897 958.7 328.297 961.6 328.297 966C328.297 970.4 325.897 973.3 322.237 973.3ZM322.237 971C324.457 971 325.797 969.1 325.797 966C325.797 962.9 324.437 961 322.237 961C320.017 961 318.657 962.9 318.657 966C318.657 969.1 319.997 971 322.237 971ZM335.393 973H332.893V959H341.693V961.3H335.393V965.26H341.233V967.48H335.393V973ZM348.847 973H346.347V959H348.847V973ZM362.815 973H354.255V959H356.755V970.7H362.815V973ZM376.08 973H367.28V959H376.08V961.3H369.78V964.72H375.52V966.94H369.78V970.7H376.08V973Z" fill="#222222"/>
</g>
<rect x="42" y="124" width="386" height="876" stroke="#222222" stroke-width="4" shape-rendering="crispEdges"/>
</g>
<mask id="path-37-inside-3_1693_59002" fill="white">
<path d="M474 40H1294V82H474V40Z"/>
</mask>
<path d="M474 83H475V81H474V83ZM477 83H479V81H477V83ZM481 83H483V81H481V83ZM485 83H487V81H485V83ZM489 83H491V81H489V83ZM493 83H495V81H493V83ZM497 83H499V81H497V83ZM501 83H503V81H501V83ZM505 83H507V81H505V83ZM509 83H511V81H509V83ZM513 83H515V81H513V83ZM517 83H519V81H517V83ZM521 83H523V81H521V83ZM525 83H527V81H525V83ZM529 83H531V81H529V83ZM533 83H535V81H533V83ZM537 83H539V81H537V83ZM541 83H543V81H541V83ZM545 83H547V81H545V83ZM549 83H551V81H549V83ZM553 83H555V81H553V83ZM557 83H559V81H557V83ZM561 83H563V81H561V83ZM565 83H567V81H565V83ZM569 83H571V81H569V83ZM573 83H575V81H573V83ZM577 83H579V81H577V83ZM581 83H583V81H581V83ZM585 83H587V81H585V83ZM589 83H591V81H589V83ZM593 83H595V81H593V83ZM597 83H599V81H597V83ZM601 83H603V81H601V83ZM605 83H607V81H605V83ZM609 83H611V81H609V83ZM613 83H615V81H613V83ZM617 83H619V81H617V83ZM621 83H623V81H621V83ZM625 83H627V81H625V83ZM629 83H631V81H629V83ZM633 83H635V81H633V83ZM637 83H639V81H637V83ZM641 83H643V81H641V83ZM645 83H647V81H645V83ZM649 83H651V81H649V83ZM653 83H655V81H653V83ZM657 83H659V81H657V83ZM661 83H663V81H661V83ZM665 83H667V81H665V83ZM669 83H671V81H669V83ZM673 83H675V81H673V83ZM677 83H679V81H677V83ZM681 83H683V81H681V83ZM685 83H687V81H685V83ZM689 83H691V81H689V83ZM693 83H695V81H693V83ZM697 83H699V81H697V83ZM701 83H703V81H701V83ZM705 83H707V81H705V83ZM709 83H711V81H709V83ZM713 83H715V81H713V83ZM717 83H719V81H717V83ZM721 83H723V81H721V83ZM725 83H727V81H725V83ZM729 83H731V81H729V83ZM733 83H735V81H733V83ZM737 83H739V81H737V83ZM741 83H743V81H741V83ZM745 83H747V81H745V83ZM749 83H751V81H749V83ZM753 83H755V81H753V83ZM757 83H759V81H757V83ZM761 83H763V81H761V83ZM765 83H767V81H765V83ZM769 83H771V81H769V83ZM773 83H775V81H773V83ZM777 83H779V81H777V83ZM781 83H783V81H781V83ZM785 83H787V81H785V83ZM789 83H791V81H789V83ZM793 83H795V81H793V83ZM797 83H799V81H797V83ZM801 83H803V81H801V83ZM805 83H807V81H805V83ZM809 83H811V81H809V83ZM813 83H815V81H813V83ZM817 83H819V81H817V83ZM821 83H823V81H821V83ZM825 83H827V81H825V83ZM829 83H831V81H829V83ZM833 83H835V81H833V83ZM837 83H839V81H837V83ZM841 83H843V81H841V83ZM845 83H847V81H845V83ZM849 83H851V81H849V83ZM853 83H855V81H853V83ZM857 83H859V81H857V83ZM861 83H863V81H861V83ZM865 83H867V81H865V83ZM869 83H871V81H869V83ZM873 83H875V81H873V83ZM877 83H879V81H877V83ZM881 83H883V81H881V83ZM885 83H887V81H885V83ZM889 83H891V81H889V83ZM893 83H895V81H893V83ZM897 83H899V81H897V83ZM901 83H903V81H901V83ZM905 83H907V81H905V83ZM909 83H911V81H909V83ZM913 83H915V81H913V83ZM917 83H919V81H917V83ZM921 83H923V81H921V83ZM925 83H927V81H925V83ZM929 83H931V81H929V83ZM933 83H935V81H933V83ZM937 83H939V81H937V83ZM941 83H943V81H941V83ZM945 83H947V81H945V83ZM949 83H951V81H949V83ZM953 83H955V81H953V83ZM957 83H959V81H957V83ZM961 83H963V81H961V83ZM965 83H967V81H965V83ZM969 83H971V81H969V83ZM973 83H975V81H973V83ZM977 83H979V81H977V83ZM981 83H983V81H981V83ZM985 83H987V81H985V83ZM989 83H991V81H989V83ZM993 83H995V81H993V83ZM997 83H999V81H997V83ZM1001 83H1003V81H1001V83ZM1005 83H1007V81H1005V83ZM1009 83H1011V81H1009V83ZM1013 83H1015V81H1013V83ZM1017 83H1019V81H1017V83ZM1021 83H1023V81H1021V83ZM1025 83H1027V81H1025V83ZM1029 83H1031V81H1029V83ZM1033 83H1035V81H1033V83ZM1037 83H1039V81H1037V83ZM1041 83H1043V81H1041V83ZM1045 83H1047V81H1045V83ZM1049 83H1051V81H1049V83ZM1053 83H1055V81H1053V83ZM1057 83H1059V81H1057V83ZM1061 83H1063V81H1061V83ZM1065 83H1067V81H1065V83ZM1069 83H1071V81H1069V83ZM1073 83H1075V81H1073V83ZM1077 83H1079V81H1077V83ZM1081 83H1083V81H1081V83ZM1085 83H1087V81H1085V83ZM1089 83H1091V81H1089V83ZM1093 83H1095V81H1093V83ZM1097 83H1099V81H1097V83ZM1101 83H1103V81H1101V83ZM1105 83H1107V81H1105V83ZM1109 83H1111V81H1109V83ZM1113 83H1115V81H1113V83ZM1117 83H1119V81H1117V83ZM1121 83H1123V81H1121V83ZM1125 83H1127V81H1125V83ZM1129 83H1131V81H1129V83ZM1133 83H1135V81H1133V83ZM1137 83H1139V81H1137V83ZM1141 83H1143V81H1141V83ZM1145 83H1147V81H1145V83ZM1149 83H1151V81H1149V83ZM1153 83H1155V81H1153V83ZM1157 83H1159V81H1157V83ZM1161 83H1163V81H1161V83ZM1165 83H1167V81H1165V83ZM1169 83H1171V81H1169V83ZM1173 83H1175V81H1173V83ZM1177 83H1179V81H1177V83ZM1181 83H1183V81H1181V83ZM1185 83H1187V81H1185V83ZM1189 83H1191V81H1189V83ZM1193 83H1195V81H1193V83ZM1197 83H1199V81H1197V83ZM1201 83H1203V81H1201V83ZM1205 83H1207V81H1205V83ZM1209 83H1211V81H1209V83ZM1213 83H1215V81H1213V83ZM1217 83H1219V81H1217V83ZM1221 83H1223V81H1221V83ZM1225 83H1227V81H1225V83ZM1229 83H1231V81H1229V83ZM1233 83H1235V81H1233V83ZM1237 83H1239V81H1237V83ZM1241 83H1243V81H1241V83ZM1245 83H1247V81H1245V83ZM1249 83H1251V81H1249V83ZM1253 83H1255V81H1253V83ZM1257 83H1259V81H1257V83ZM1261 83H1263V81H1261V83ZM1265 83H1267V81H1265V83ZM1269 83H1271V81H1269V83ZM1273 83H1275V81H1273V83ZM1277 83H1279V81H1277V83ZM1281 83H1283V81H1281V83ZM1285 83H1287V81H1285V83ZM1289 83H1291V81H1289V83ZM1293 83H1294V81H1293V83ZM474 84H475V80H474V84ZM477 84H479V80H477V84ZM481 84H483V80H481V84ZM485 84H487V80H485V84ZM489 84H491V80H489V84ZM493 84H495V80H493V84ZM497 84H499V80H497V84ZM501 84H503V80H501V84ZM505 84H507V80H505V84ZM509 84H511V80H509V84ZM513 84H515V80H513V84ZM517 84H519V80H517V84ZM521 84H523V80H521V84ZM525 84H527V80H525V84ZM529 84H531V80H529V84ZM533 84H535V80H533V84ZM537 84H539V80H537V84ZM541 84H543V80H541V84ZM545 84H547V80H545V84ZM549 84H551V80H549V84ZM553 84H555V80H553V84ZM557 84H559V80H557V84ZM561 84H563V80H561V84ZM565 84H567V80H565V84ZM569 84H571V80H569V84ZM573 84H575V80H573V84ZM577 84H579V80H577V84ZM581 84H583V80H581V84ZM585 84H587V80H585V84ZM589 84H591V80H589V84ZM593 84H595V80H593V84ZM597 84H599V80H597V84ZM601 84H603V80H601V84ZM605 84H607V80H605V84ZM609 84H611V80H609V84ZM613 84H615V80H613V84ZM617 84H619V80H617V84ZM621 84H623V80H621V84ZM625 84H627V80H625V84ZM629 84H631V80H629V84ZM633 84H635V80H633V84ZM637 84H639V80H637V84ZM641 84H643V80H641V84ZM645 84H647V80H645V84ZM649 84H651V80H649V84ZM653 84H655V80H653V84ZM657 84H659V80H657V84ZM661 84H663V80H661V84ZM665 84H667V80H665V84ZM669 84H671V80H669V84ZM673 84H675V80H673V84ZM677 84H679V80H677V84ZM681 84H683V80H681V84ZM685 84H687V80H685V84ZM689 84H691V80H689V84ZM693 84H695V80H693V84ZM697 84H699V80H697V84ZM701 84H703V80H701V84ZM705 84H707V80H705V84ZM709 84H711V80H709V84ZM713 84H715V80H713V84ZM717 84H719V80H717V84ZM721 84H723V80H721V84ZM725 84H727V80H725V84ZM729 84H731V80H729V84ZM733 84H735V80H733V84ZM737 84H739V80H737V84ZM741 84H743V80H741V84ZM745 84H747V80H745V84ZM749 84H751V80H749V84ZM753 84H755V80H753V84ZM757 84H759V80H757V84ZM761 84H763V80H761V84ZM765 84H767V80H765V84ZM769 84H771V80H769V84ZM773 84H775V80H773V84ZM777 84H779V80H777V84ZM781 84H783V80H781V84ZM785 84H787V80H785V84ZM789 84H791V80H789V84ZM793 84H795V80H793V84ZM797 84H799V80H797V84ZM801 84H803V80H801V84ZM805 84H807V80H805V84ZM809 84H811V80H809V84ZM813 84H815V80H813V84ZM817 84H819V80H817V84ZM821 84H823V80H821V84ZM825 84H827V80H825V84ZM829 84H831V80H829V84ZM833 84H835V80H833V84ZM837 84H839V80H837V84ZM841 84H843V80H841V84ZM845 84H847V80H845V84ZM849 84H851V80H849V84ZM853 84H855V80H853V84ZM857 84H859V80H857V84ZM861 84H863V80H861V84ZM865 84H867V80H865V84ZM869 84H871V80H869V84ZM873 84H875V80H873V84ZM877 84H879V80H877V84ZM881 84H883V80H881V84ZM885 84H887V80H885V84ZM889 84H891V80H889V84ZM893 84H895V80H893V84ZM897 84H899V80H897V84ZM901 84H903V80H901V84ZM905 84H907V80H905V84ZM909 84H911V80H909V84ZM913 84H915V80H913V84ZM917 84H919V80H917V84ZM921 84H923V80H921V84ZM925 84H927V80H925V84ZM929 84H931V80H929V84ZM933 84H935V80H933V84ZM937 84H939V80H937V84ZM941 84H943V80H941V84ZM945 84H947V80H945V84ZM949 84H951V80H949V84ZM953 84H955V80H953V84ZM957 84H959V80H957V84ZM961 84H963V80H961V84ZM965 84H967V80H965V84ZM969 84H971V80H969V84ZM973 84H975V80H973V84ZM977 84H979V80H977V84ZM981 84H983V80H981V84ZM985 84H987V80H985V84ZM989 84H991V80H989V84ZM993 84H995V80H993V84ZM997 84H999V80H997V84ZM1001 84H1003V80H1001V84ZM1005 84H1007V80H1005V84ZM1009 84H1011V80H1009V84ZM1013 84H1015V80H1013V84ZM1017 84H1019V80H1017V84ZM1021 84H1023V80H1021V84ZM1025 84H1027V80H1025V84ZM1029 84H1031V80H1029V84ZM1033 84H1035V80H1033V84ZM1037 84H1039V80H1037V84ZM1041 84H1043V80H1041V84ZM1045 84H1047V80H1045V84ZM1049 84H1051V80H1049V84ZM1053 84H1055V80H1053V84ZM1057 84H1059V80H1057V84ZM1061 84H1063V80H1061V84ZM1065 84H1067V80H1065V84ZM1069 84H1071V80H1069V84ZM1073 84H1075V80H1073V84ZM1077 84H1079V80H1077V84ZM1081 84H1083V80H1081V84ZM1085 84H1087V80H1085V84ZM1089 84H1091V80H1089V84ZM1093 84H1095V80H1093V84ZM1097 84H1099V80H1097V84ZM1101 84H1103V80H1101V84ZM1105 84H1107V80H1105V84ZM1109 84H1111V80H1109V84ZM1113 84H1115V80H1113V84ZM1117 84H1119V80H1117V84ZM1121 84H1123V80H1121V84ZM1125 84H1127V80H1125V84ZM1129 84H1131V80H1129V84ZM1133 84H1135V80H1133V84ZM1137 84H1139V80H1137V84ZM1141 84H1143V80H1141V84ZM1145 84H1147V80H1145V84ZM1149 84H1151V80H1149V84ZM1153 84H1155V80H1153V84ZM1157 84H1159V80H1157V84ZM1161 84H1163V80H1161V84ZM1165 84H1167V80H1165V84ZM1169 84H1171V80H1169V84ZM1173 84H1175V80H1173V84ZM1177 84H1179V80H1177V84ZM1181 84H1183V80H1181V84ZM1185 84H1187V80H1185V84ZM1189 84H1191V80H1189V84ZM1193 84H1195V80H1193V84ZM1197 84H1199V80H1197V84ZM1201 84H1203V80H1201V84ZM1205 84H1207V80H1205V84ZM1209 84H1211V80H1209V84ZM1213 84H1215V80H1213V84ZM1217 84H1219V80H1217V84ZM1221 84H1223V80H1221V84ZM1225 84H1227V80H1225V84ZM1229 84H1231V80H1229V84ZM1233 84H1235V80H1233V84ZM1237 84H1239V80H1237V84ZM1241 84H1243V80H1241V84ZM1245 84H1247V80H1245V84ZM1249 84H1251V80H1249V84ZM1253 84H1255V80H1253V84ZM1257 84H1259V80H1257V84ZM1261 84H1263V80H1261V84ZM1265 84H1267V80H1265V84ZM1269 84H1271V80H1269V84ZM1273 84H1275V80H1273V84ZM1277 84H1279V80H1277V84ZM1281 84H1283V80H1281V84ZM1285 84H1287V80H1285V84ZM1289 84H1291V80H1289V84ZM1293 84H1294V80H1293V84Z" fill="#222222" mask="url(#path-37-inside-3_1693_59002)"/>
<path d="M475.664 58V45.76H483.488V47.088H477.152V51.168H482.976V52.464H477.152V56.672H483.568V58H475.664ZM486.332 58L490.524 51.664L486.636 45.76H488.412L491.372 50.4H491.404L494.524 45.76H496.124L492.22 51.584L496.508 58H494.7L491.372 52.864H491.34L487.932 58H486.332ZM503.544 53.328H501.48V58H499.992V45.76H503.672C506.04 45.76 507.88 46.88 507.88 49.52C507.88 52.112 506.056 53.328 503.544 53.328ZM501.48 52.128H503.544C505.32 52.128 506.344 51.264 506.344 49.52C506.344 47.696 505.32 46.96 503.592 46.96H501.48V52.128ZM511.211 58V45.76H512.699V56.672H518.779V58H511.211ZM520.869 51.92C520.869 47.536 523.429 45.584 526.341 45.584C529.317 45.584 531.861 47.536 531.861 51.92C531.861 56.288 529.333 58.256 526.341 58.256C523.333 58.256 520.869 56.288 520.869 51.92ZM526.341 57.056C528.645 57.056 530.293 55.232 530.293 51.936C530.293 48.576 528.693 46.768 526.341 46.768C524.053 46.768 522.437 48.48 522.437 51.936C522.437 55.28 524.005 57.056 526.341 57.056ZM537.105 51.584H539.921C541.361 51.584 542.433 50.896 542.433 49.216C542.433 47.712 541.393 46.976 539.985 46.976H537.105V51.584ZM542.353 58L539.825 52.816H537.105V58H535.617V45.76H540.049C540.945 45.76 541.745 45.952 542.417 46.304C543.393 46.848 544.001 47.792 544.001 49.2C544.001 51.504 542.497 52.288 541.377 52.576V52.608L544.081 58H542.353ZM547.695 58V45.76H555.519V47.088H549.183V51.168H555.007V52.464H549.183V56.672H555.599V58H547.695ZM559.011 57.136C559.011 56.7413 559.107 56.464 559.299 56.304C559.491 56.144 559.721 56.064 559.987 56.064C560.265 56.064 560.499 56.144 560.691 56.304C560.894 56.464 560.995 56.7413 560.995 57.136C560.995 57.52 560.894 57.7973 560.691 57.968C560.499 58.1387 560.265 58.224 559.987 58.224C559.721 58.224 559.491 58.1387 559.299 57.968C559.107 57.7973 559.011 57.52 559.011 57.136ZM559.011 50.288C559.011 49.8827 559.107 49.6 559.299 49.44C559.491 49.28 559.721 49.2 559.987 49.2C560.265 49.2 560.499 49.28 560.691 49.44C560.894 49.6 560.995 49.8827 560.995 50.288C560.995 50.672 560.894 50.9493 560.691 51.12C560.499 51.2907 560.265 51.376 559.987 51.376C559.721 51.376 559.491 51.2907 559.299 51.12C559.107 50.9493 559.011 50.672 559.011 50.288ZM571.652 52.8V58H570.164V45.76H577.476V47.088H571.652V51.504H576.98V52.8H571.652ZM580.8 53.92V45.76H582.288V52.8C582.288 53.92 582.304 55.232 582.912 55.984C583.488 56.704 584.352 57.024 585.472 57.024C586.592 57.024 587.472 56.704 588.032 55.984C588.64 55.232 588.608 53.92 588.608 52.8V45.76H590.08V53.92C590.08 56.992 588.208 58.24 585.44 58.24C582.64 58.24 580.8 57.024 580.8 53.92ZM594.211 58V45.76H595.699V56.672H601.779V58H594.211ZM604.852 58V45.76H606.34V56.672H612.42V58H604.852ZM624.404 53.328H622.34V58H620.852V45.76H624.532C626.9 45.76 628.74 46.88 628.74 49.52C628.74 52.112 626.916 53.328 624.404 53.328ZM622.34 52.128H624.404C626.18 52.128 627.204 51.264 627.204 49.52C627.204 47.696 626.18 46.96 624.452 46.96H622.34V52.128ZM635.59 47.248C635.558 47.328 635.334 48.08 635.094 48.768L633.574 53.152H637.638L636.102 48.768C635.846 48.032 635.622 47.248 635.622 47.248H635.59ZM639.334 58L638.054 54.352H633.158L631.894 58H630.406L634.758 45.76H636.518L640.918 58H639.334ZM648.813 46.768C646.157 46.768 644.797 48.848 644.797 51.984C644.797 55.232 646.173 57.04 648.653 57.04C650.973 57.04 652.349 55.712 652.349 53.312V53.136H648.813V51.824H653.805V58H652.509V56.24H652.445C651.869 57.312 650.605 58.256 648.621 58.256C645.533 58.256 643.229 56.24 643.229 51.936C643.229 47.936 645.645 45.584 648.813 45.584C651.325 45.584 653.133 46.848 653.437 49.008H651.885C651.677 47.616 650.413 46.768 648.813 46.768ZM658.055 58V45.76H665.879V47.088H659.543V51.168H665.367V52.464H659.543V56.672H665.959V58H658.055ZM678.618 58L674.218 45.76H675.802L678.954 54.768C679.37 56.016 679.482 56.672 679.482 56.672H679.514C679.514 56.672 679.642 56.016 680.058 54.8L683.194 45.76H684.698L680.346 58H678.618ZM688.008 58V45.76H689.496V58H688.008ZM693.836 58V45.76H701.66V47.088H695.324V51.168H701.148V52.464H695.324V56.672H701.74V58H693.836ZM709.666 58H708.018L704.514 45.76H706.034L708.434 54.432C708.77 55.664 708.866 56.384 708.866 56.384H708.898C708.898 56.384 708.994 55.664 709.314 54.448L711.666 45.76H713.394L715.762 54.432C716.114 55.664 716.21 56.384 716.21 56.384H716.242C716.242 56.384 716.322 55.664 716.658 54.448L719.042 45.76H720.498L716.994 58H715.33L712.93 49.472C712.578 48.24 712.498 47.504 712.498 47.504H712.466C712.466 47.504 712.37 48.24 712.034 49.456L709.666 58ZM731.56 49.04H730.04C729.896 47.84 729.208 46.768 727.496 46.768C725.832 46.768 724.936 47.712 724.936 48.88C724.936 50 725.544 50.64 726.984 50.912L728.712 51.216C731.095 51.648 731.928 52.816 731.928 54.56C731.928 56.8 730.408 58.24 727.48 58.24C724.648 58.24 723.032 56.72 722.904 54.56H724.456C724.632 55.872 725.544 57.04 727.512 57.04C729.688 57.04 730.408 55.984 730.408 54.688C730.408 53.632 729.832 52.896 728.328 52.64L726.616 52.336C724.216 51.888 723.368 50.608 723.368 49.008C723.368 47.024 725 45.584 727.512 45.584C730.104 45.584 731.448 46.96 731.56 49.04ZM740.557 51.92C740.557 47.536 743.117 45.584 746.029 45.584C749.005 45.584 751.549 47.536 751.549 51.92C751.549 56.288 749.021 58.256 746.029 58.256C743.021 58.256 740.557 56.288 740.557 51.92ZM746.029 57.056C748.333 57.056 749.981 55.232 749.981 51.936C749.981 48.576 748.381 46.768 746.029 46.768C743.741 46.768 742.125 48.48 742.125 51.936C742.125 55.28 743.693 57.056 746.029 57.056ZM756.793 52.8V58H755.305V45.76H762.617V47.088H756.793V51.504H762.121V52.8H756.793ZM775.572 58H773.924L770.42 45.76H771.94L774.34 54.432C774.676 55.664 774.772 56.384 774.772 56.384H774.804C774.804 56.384 774.9 55.664 775.22 54.448L777.572 45.76H779.3L781.668 54.432C782.02 55.664 782.116 56.384 782.116 56.384H782.148C782.148 56.384 782.228 55.664 782.564 54.448L784.948 45.76H786.404L782.9 58H781.236L778.836 49.472C778.484 48.24 778.404 47.504 778.404 47.504H778.372C778.372 47.504 778.276 48.24 777.94 49.456L775.572 58ZM791.152 52.48V58H789.664V45.76H791.152V51.152H797.568V45.76H799.056V58H797.568V52.48H791.152ZM807.543 47.248C807.511 47.328 807.287 48.08 807.047 48.768L805.527 53.152H809.591L808.055 48.768C807.799 48.032 807.575 47.248 807.575 47.248H807.543ZM811.287 58L810.007 54.352H805.111L803.847 58H802.359L806.711 45.76H808.471L812.871 58H811.287ZM823.911 45.76V47.056H819.671V58H818.183V47.056H813.943V45.76H823.911ZM832.18 58V45.76H833.668V58H832.18ZM846.216 49.04H844.696C844.552 47.84 843.864 46.768 842.152 46.768C840.488 46.768 839.592 47.712 839.592 48.88C839.592 50 840.2 50.64 841.64 50.912L843.368 51.216C845.752 51.648 846.584 52.816 846.584 54.56C846.584 56.8 845.064 58.24 842.136 58.24C839.304 58.24 837.688 56.72 837.56 54.56H839.112C839.288 55.872 840.2 57.04 842.168 57.04C844.344 57.04 845.064 55.984 845.064 54.688C845.064 53.632 844.488 52.896 842.984 52.64L841.272 52.336C838.872 51.888 838.024 50.608 838.024 49.008C838.024 47.024 839.656 45.584 842.168 45.584C844.76 45.584 846.104 46.96 846.216 49.04ZM860.685 46.784C858.173 46.784 856.797 48.848 856.797 51.904C856.797 55.072 858.205 57.024 860.653 57.024C862.813 57.024 863.709 55.568 863.869 54.176H865.389C865.197 56.48 863.421 58.24 860.653 58.24C857.469 58.24 855.213 56.176 855.213 51.904C855.213 47.92 857.501 45.568 860.685 45.568C862.765 45.568 865.117 46.672 865.389 49.408H863.821C863.613 48.16 862.653 46.784 860.685 46.784ZM868.894 53.92V45.76H870.382V52.8C870.382 53.92 870.398 55.232 871.006 55.984C871.582 56.704 872.446 57.024 873.566 57.024C874.686 57.024 875.566 56.704 876.126 55.984C876.734 55.232 876.702 53.92 876.702 52.8V45.76H878.174V53.92C878.174 56.992 876.302 58.24 873.534 58.24C870.734 58.24 868.894 57.024 868.894 53.92ZM883.793 51.584H886.609C888.049 51.584 889.121 50.896 889.121 49.216C889.121 47.712 888.081 46.976 886.673 46.976H883.793V51.584ZM889.041 58L886.513 52.816H883.793V58H882.305V45.76H886.737C887.633 45.76 888.433 45.952 889.105 46.304C890.081 46.848 890.689 47.792 890.689 49.2C890.689 51.504 889.185 52.288 888.065 52.576V52.608L890.769 58H889.041ZM895.871 51.584H898.687C900.127 51.584 901.199 50.896 901.199 49.216C901.199 47.712 900.159 46.976 898.751 46.976H895.871V51.584ZM901.119 58L898.591 52.816H895.871V58H894.383V45.76H898.815C899.711 45.76 900.511 45.952 901.183 46.304C902.159 46.848 902.767 47.792 902.767 49.2C902.767 51.504 901.263 52.288 900.143 52.576V52.608L902.847 58H901.119ZM906.461 58V45.76H914.285V47.088H907.949V51.168H913.773V52.464H907.949V56.672H914.365V58H906.461ZM918.289 58V45.76H920.193L925.633 54.864C926.049 55.536 926.257 56.064 926.257 56.064H926.305V45.76H927.713V58H925.809L920.385 48.912C919.905 48.112 919.745 47.728 919.745 47.728H919.713V58H918.289ZM940.552 45.76V47.056H936.312V58H934.824V47.056H930.584V45.76H940.552ZM943.617 58V45.76H945.105V56.672H951.185V58H943.617ZM955.809 58V52.768L951.489 45.76H953.217L956.529 51.408H956.561L960.001 45.76H961.585L957.281 52.672V58H955.809ZM971.277 52.48V58H969.789V45.76H971.277V51.152H977.693V45.76H979.181V58H977.693V52.48H971.277ZM987.668 47.248C987.636 47.328 987.412 48.08 987.172 48.768L985.652 53.152H989.716L988.18 48.768C987.924 48.032 987.7 47.248 987.7 47.248H987.668ZM991.412 58L990.132 54.352H985.236L983.972 58H982.484L986.836 45.76H988.596L992.996 58H991.412ZM999.841 53.328H997.777V58H996.289V45.76H999.969C1002.34 45.76 1004.18 46.88 1004.18 49.52C1004.18 52.112 1002.35 53.328 999.841 53.328ZM997.777 52.128H999.841C1001.62 52.128 1002.64 51.264 1002.64 49.52C1002.64 47.696 1001.62 46.96 999.889 46.96H997.777V52.128ZM1011.06 53.328H1009V58H1007.51V45.76H1011.19C1013.56 45.76 1015.4 46.88 1015.4 49.52C1015.4 52.112 1013.57 53.328 1011.06 53.328ZM1009 52.128H1011.06C1012.84 52.128 1013.86 51.264 1013.86 49.52C1013.86 47.696 1012.84 46.96 1011.11 46.96H1009V52.128ZM1018.73 58V45.76H1026.55V47.088H1020.21V51.168H1026.04V52.464H1020.21V56.672H1026.63V58H1018.73ZM1030.55 58V45.76H1032.46L1037.9 54.864C1038.31 55.536 1038.52 56.064 1038.52 56.064H1038.57V45.76H1039.98V58H1038.07L1032.65 48.912C1032.17 48.112 1032.01 47.728 1032.01 47.728H1031.98V58H1030.55ZM1044.27 58V45.76H1045.76V58H1044.27ZM1050.1 58V45.76H1052.01L1057.45 54.864C1057.86 55.536 1058.07 56.064 1058.07 56.064H1058.12V45.76H1059.53V58H1057.62L1052.2 48.912C1051.72 48.112 1051.56 47.728 1051.56 47.728H1051.53V58H1050.1ZM1068.83 46.768C1066.17 46.768 1064.81 48.848 1064.81 51.984C1064.81 55.232 1066.19 57.04 1068.67 57.04C1070.99 57.04 1072.36 55.712 1072.36 53.312V53.136H1068.83V51.824H1073.82V58H1072.52V56.24H1072.46C1071.88 57.312 1070.62 58.256 1068.64 58.256C1065.55 58.256 1063.24 56.24 1063.24 51.936C1063.24 47.936 1065.66 45.584 1068.83 45.584C1071.34 45.584 1073.15 46.848 1073.45 49.008H1071.9C1071.69 47.616 1070.43 46.768 1068.83 46.768ZM1082.85 51.92C1082.85 47.536 1085.41 45.584 1088.33 45.584C1091.3 45.584 1093.85 47.536 1093.85 51.92C1093.85 56.288 1091.32 58.256 1088.33 58.256C1085.32 58.256 1082.85 56.288 1082.85 51.92ZM1088.33 57.056C1090.63 57.056 1092.28 55.232 1092.28 51.936C1092.28 48.576 1090.68 46.768 1088.33 46.768C1086.04 46.768 1084.42 48.48 1084.42 51.936C1084.42 55.28 1085.99 57.056 1088.33 57.056ZM1097.6 58V45.76H1099.51L1104.95 54.864C1105.36 55.536 1105.57 56.064 1105.57 56.064H1105.62V45.76H1107.03V58H1105.12L1099.7 48.912C1099.22 48.112 1099.06 47.728 1099.06 47.728H1099.03V58H1097.6ZM1120.84 47.248C1120.81 47.328 1120.58 48.08 1120.34 48.768L1118.82 53.152H1122.89L1121.35 48.768C1121.1 48.032 1120.87 47.248 1120.87 47.248H1120.84ZM1124.58 58L1123.3 54.352H1118.41L1117.14 58H1115.66L1120.01 45.76H1121.77L1126.17 58H1124.58ZM1133.01 53.328H1130.95V58H1129.46V45.76H1133.14C1135.51 45.76 1137.35 46.88 1137.35 49.52C1137.35 52.112 1135.52 53.328 1133.01 53.328ZM1130.95 52.128H1133.01C1134.79 52.128 1135.81 51.264 1135.81 49.52C1135.81 47.696 1134.79 46.96 1133.06 46.96H1130.95V52.128ZM1144.23 53.328H1142.17V58H1140.68V45.76H1144.36C1146.73 45.76 1148.57 46.88 1148.57 49.52C1148.57 52.112 1146.74 53.328 1144.23 53.328ZM1142.17 52.128H1144.23C1146.01 52.128 1147.03 51.264 1147.03 49.52C1147.03 47.696 1146.01 46.96 1144.28 46.96H1142.17V52.128ZM1153.39 51.584H1156.2C1157.64 51.584 1158.71 50.896 1158.71 49.216C1158.71 47.712 1157.67 46.976 1156.27 46.976H1153.39V51.584ZM1158.63 58L1156.11 52.816H1153.39V58H1151.9V45.76H1156.33C1157.23 45.76 1158.03 45.952 1158.7 46.304C1159.67 46.848 1160.28 47.792 1160.28 49.2C1160.28 51.504 1158.78 52.288 1157.66 52.576V52.608L1160.36 58H1158.63ZM1163.98 58V45.76H1171.8V47.088H1165.46V51.168H1171.29V52.464H1165.46V56.672H1171.88V58H1163.98ZM1180.54 46.784C1178.03 46.784 1176.66 48.848 1176.66 51.904C1176.66 55.072 1178.06 57.024 1180.51 57.024C1182.67 57.024 1183.57 55.568 1183.73 54.176H1185.25C1185.06 56.48 1183.28 58.24 1180.51 58.24C1177.33 58.24 1175.07 56.176 1175.07 51.904C1175.07 47.92 1177.36 45.568 1180.54 45.568C1182.62 45.568 1184.98 46.672 1185.25 49.408H1183.68C1183.47 48.16 1182.51 46.784 1180.54 46.784ZM1188.95 58V45.76H1190.43V58H1188.95ZM1198.93 47.248C1198.9 47.328 1198.68 48.08 1198.44 48.768L1196.92 53.152H1200.98L1199.45 48.768C1199.19 48.032 1198.97 47.248 1198.97 47.248H1198.93ZM1202.68 58L1201.4 54.352H1196.5L1195.24 58H1193.75L1198.1 45.76H1199.86L1204.26 58H1202.68ZM1215.3 45.76V47.056H1211.06V58H1209.57V47.056H1205.33V45.76H1215.3ZM1218.37 58V45.76H1226.19V47.088H1219.86V51.168H1225.68V52.464H1219.86V56.672H1226.27V58H1218.37Z" fill="#222222"/>
<g filter="url(#filter1_d_1693_59002)">
<g clip-path="url(#clip2_1693_59002)">
<g clip-path="url(#clip3_1693_59002)">
<rect width="390" height="1011" transform="translate(474 122)" fill="white"/>
<mask id="path-42-inside-4_1693_59002" fill="white">
<path d="M474 162H864V665H474V162Z"/>
</mask>
<path d="M864 661H474V669H864V661Z" fill="#222222" mask="url(#path-42-inside-4_1693_59002)"/>
<rect x="496" y="164" width="346" height="43" rx="2" fill="white"/>
<rect x="496" y="164" width="346" height="43" rx="2" stroke="#222222" stroke-width="4"/>
<path d="M625.793 190.21C623.217 190.21 621.537 188.18 621.537 185.1C621.537 182.02 623.217 179.99 625.793 179.99C628.355 179.99 630.035 182.02 630.035 185.1C630.035 188.18 628.355 190.21 625.793 190.21ZM625.793 188.6C627.347 188.6 628.285 187.27 628.285 185.1C628.285 182.93 627.333 181.6 625.793 181.6C624.239 181.6 623.287 182.93 623.287 185.1C623.287 187.27 624.225 188.6 625.793 188.6ZM635.002 190H633.252V180.2H635.114L638.81 187.046H638.838V180.2H640.588V190H638.726L635.03 183.154H635.002V190ZM652.565 190H650.815V181.81H647.903V180.2H655.477V181.81H652.565V190ZM660.345 190H658.595V180.2H660.345V184.176H663.943V180.2H665.693V190H663.943V185.772H660.345V190ZM675.636 190H669.476V180.2H675.636V181.81H671.226V184.204H675.244V185.758H671.226V188.39H675.636V190ZM689.346 186.192V186.206L691.404 190H689.486L687.54 186.36H686.056V190H684.306V180.2H688.142C690.2 180.2 691.46 181.362 691.46 183.266C691.46 184.75 690.676 185.8 689.346 186.192ZM686.056 181.81V184.75H687.946C689.094 184.75 689.71 184.232 689.71 183.266C689.71 182.3 689.108 181.81 687.946 181.81H686.056ZM696.377 190H694.627V180.2H696.377V190ZM703.565 190.21C701.199 190.21 699.771 189.006 699.463 186.766L701.185 186.416C701.423 187.97 702.123 188.614 703.593 188.614C704.685 188.614 705.343 188.166 705.343 187.438C705.343 186.654 704.811 186.234 703.061 185.66C700.751 184.89 699.925 184.022 699.925 182.692C699.925 181.096 701.255 179.99 703.173 179.99C705.063 179.99 706.505 181.124 706.827 182.86L705.119 183.224C704.825 182.118 704.195 181.586 703.173 181.586C702.249 181.586 701.661 182.02 701.661 182.692C701.661 183.28 702.123 183.602 703.663 184.106C706.155 184.946 707.093 185.898 707.093 187.424C707.093 189.09 705.665 190.21 703.565 190.21ZM716.329 190H710.169V180.2H716.329V181.81H711.919V184.204H715.937V185.758H711.919V188.39H716.329V190Z" fill="#222222"/>
<rect x="496" y="227" width="346" height="396" rx="2" fill="white"/>
<rect x="496" y="227" width="346" height="396" rx="2" stroke="#222222" stroke-width="4"/>
<rect x="627" y="391" width="84" height="68" rx="2" fill="white"/>
<rect x="627" y="391" width="84" height="68" rx="2" stroke="#222222" stroke-width="4"/>
<path d="M656.638 408.004L656.638 408.004C656.181 408.032 655.763 408.228 655.463 408.536L656.638 408.004ZM656.638 408.004L656.645 408.004M656.638 408.004L656.645 408.004M656.645 408.004C657.012 407.98 657.368 408.064 657.669 408.236C657.67 408.236 657.671 408.237 657.671 408.237L685.163 424.084C685.164 424.085 685.165 424.085 685.165 424.085C685.699 424.396 686 424.939 686 425.499C686 426.058 685.699 426.601 685.165 426.912C685.164 426.913 685.163 426.913 685.162 426.913L657.67 442.761C657.67 442.761 657.669 442.762 657.668 442.762C657.363 442.936 657.007 443.02 656.645 442.996L656.639 442.996C656.179 442.967 655.757 442.769 655.457 442.457L655.457 442.457C655.157 442.145 654.999 441.744 655 441.337V441.334M656.645 408.004L655 441.334M653 441.334C652.998 442.265 653.361 443.162 654.015 443.843L653 441.334ZM653 441.334V409.627V441.334ZM655 441.334V409.639M655 441.334V409.639M655 409.639C655.006 409.236 655.166 408.842 655.463 408.536L655 409.639Z" fill="white" stroke="#222222" stroke-width="4"/>
<g clip-path="url(#clip4_1693_59002)">
<rect x="518" y="560" width="40" height="40" rx="20" fill="white"/>
<path d="M538 568.332C542.734 568.332 546.571 572.17 546.571 576.903C546.571 579.908 545.026 582.551 542.687 584.081C548.676 586.048 553 591.685 553 598.332H550.857C550.857 591.231 545.101 585.475 538 585.475C530.899 585.475 525.143 591.231 525.143 598.332H523C523 591.685 527.324 586.048 533.312 584.079C530.974 582.551 529.429 579.908 529.429 576.903C529.429 572.17 533.266 568.332 538 568.332ZM538 570.475C534.45 570.475 531.571 573.353 531.571 576.903C531.571 580.454 534.45 583.332 538 583.332C541.55 583.332 544.429 580.454 544.429 576.903C544.429 573.353 541.55 570.475 538 570.475Z" fill="#222222"/>
</g>
<rect x="519" y="561" width="38" height="38" rx="19" stroke="#222222" stroke-width="2"/>
<path d="M572.151 585.772C568.867 585.772 566.744 583.177 566.744 579.149C566.744 575.157 568.885 572.526 572.151 572.526C574.8 572.526 576.724 574.286 577.069 576.99L575.236 577.298C574.891 575.321 573.839 574.268 572.151 574.268C569.956 574.268 568.613 576.119 568.613 579.149C568.613 582.198 569.938 584.03 572.151 584.03C573.929 584.03 574.982 582.905 575.236 580.728L577.105 581C576.851 583.94 574.964 585.772 572.151 585.772ZM582.429 585.772C580.506 585.772 579.272 584.683 579.272 582.996C579.272 581.381 580.216 580.528 582.665 579.948C584.407 579.512 584.951 579.149 584.951 578.46C584.951 577.679 584.28 577.171 583.191 577.171C582.012 577.171 581.195 577.879 580.96 579.077L579.236 578.714C579.562 576.827 581.123 575.611 583.191 575.611C585.423 575.611 586.802 576.863 586.802 578.895V585.5H585.169V584.575H585.133C584.534 585.337 583.554 585.772 582.429 585.772ZM582.647 584.175C584.044 584.175 585.042 583.377 585.042 582.252V580.347H585.006C584.824 580.764 584.262 581.054 583.119 581.363C581.595 581.744 581.014 582.161 581.014 582.887C581.014 583.722 581.595 584.175 582.647 584.175ZM594.295 575.883V577.48H591.936V582.96C591.936 583.577 592.172 583.813 592.97 583.813H593.841V585.5H592.825C590.865 585.5 590.157 584.829 590.157 582.996V577.48H588.651V575.883H590.157V573.633H591.936V575.883H594.295ZM598.387 585.5H596.608V572.254H598.387V576.736H598.423C598.967 576.065 600.001 575.611 601.018 575.611C603.213 575.611 604.647 577.044 604.647 579.24V585.5H602.868V579.567C602.868 578.133 602.052 577.262 600.673 577.262C599.294 577.262 598.387 578.187 598.387 579.567V585.5ZM611.607 585.772C608.921 585.772 607.125 583.722 607.125 580.692C607.125 577.679 608.939 575.611 611.588 575.611C614.219 575.611 615.943 577.571 615.943 580.474V581.218H608.921C608.976 582.887 609.992 584.194 611.588 584.194C612.804 584.194 613.53 583.722 614.328 582.433L615.707 583.359C614.855 584.956 613.439 585.772 611.607 585.772ZM608.957 579.857H614.183C614.111 578.315 613.131 577.19 611.588 577.19C610.119 577.19 608.994 578.405 608.957 579.857ZM620.305 585.5H618.526V575.883H620.196V576.681H620.232C620.613 576.083 621.339 575.72 622.246 575.72C622.645 575.72 622.972 575.774 623.317 575.865L622.972 577.643C622.591 577.534 622.301 577.48 621.974 577.48C620.867 577.48 620.305 578.224 620.305 579.911V585.5ZM627.27 574.214H625.328V572.345H627.27V574.214ZM627.197 585.5H625.419V575.883H627.197V585.5ZM631.892 585.5H630.114V575.883H631.819V576.736H631.856C632.436 576.065 633.507 575.611 634.523 575.611C636.719 575.611 638.152 577.044 638.152 579.294V585.5H636.374V579.567C636.374 578.133 635.557 577.262 634.178 577.262C632.799 577.262 631.892 578.187 631.892 579.567V585.5ZM645.112 585.772C642.427 585.772 640.63 583.722 640.63 580.692C640.63 577.679 642.445 575.611 645.094 575.611C647.725 575.611 649.449 577.571 649.449 580.474V581.218H642.427C642.481 582.887 643.497 584.194 645.094 584.194C646.31 584.194 647.035 583.722 647.834 582.433L649.213 583.359C648.36 584.956 646.945 585.772 645.112 585.772ZM642.463 579.857H647.689C647.616 578.315 646.636 577.19 645.094 577.19C643.624 577.19 642.499 578.405 642.463 579.857ZM659.809 585.5H657.94V572.798H660.009L665.307 582.452H665.344V572.798H667.213V585.5H665.144L659.846 575.847H659.809V585.5ZM673.071 589.583H671.238L673.27 584.829L669.532 575.883H671.42L674.159 582.724H674.196L676.918 575.883H678.786L673.071 589.583ZM684.577 589.855C682.727 589.855 681.22 588.911 680.531 587.333L682.037 586.48C682.672 587.75 683.362 588.24 684.577 588.24C686.047 588.24 686.936 587.242 686.936 585.627V584.575H686.9C686.356 585.337 685.339 585.772 684.142 585.772C681.62 585.772 679.841 583.667 679.841 580.692C679.841 577.734 681.62 575.629 684.16 575.629C685.249 575.629 686.265 576.065 686.9 576.808H686.936V575.883H688.678V585.718C688.678 588.204 687.063 589.855 684.577 589.855ZM684.36 584.121C685.793 584.121 686.9 582.978 686.9 581.526V579.875C686.9 578.423 685.775 577.28 684.305 577.28C682.672 577.28 681.62 578.623 681.62 580.692C681.62 582.796 682.69 584.121 684.36 584.121ZM694.357 585.772C692.434 585.772 691.2 584.683 691.2 582.996C691.2 581.381 692.144 580.528 694.593 579.948C696.335 579.512 696.879 579.149 696.879 578.46C696.879 577.679 696.208 577.171 695.119 577.171C693.94 577.171 693.123 577.879 692.888 579.077L691.164 578.714C691.49 576.827 693.051 575.611 695.119 575.611C697.351 575.611 698.73 576.863 698.73 578.895V585.5H697.097V584.575H697.061C696.462 585.337 695.482 585.772 694.357 585.772ZM694.575 584.175C695.972 584.175 696.97 583.377 696.97 582.252V580.347H696.934C696.752 580.764 696.19 581.054 695.047 581.363C693.523 581.744 692.942 582.161 692.942 582.887C692.942 583.722 693.523 584.175 694.575 584.175ZM704.404 585.772C702.48 585.772 701.247 584.683 701.247 582.996C701.247 581.381 702.19 580.528 704.64 579.948C706.382 579.512 706.926 579.149 706.926 578.46C706.926 577.679 706.255 577.171 705.166 577.171C703.986 577.171 703.17 577.879 702.934 579.077L701.21 578.714C701.537 576.827 703.097 575.611 705.166 575.611C707.398 575.611 708.777 576.863 708.777 578.895V585.5H707.144V584.575H707.107C706.509 585.337 705.529 585.772 704.404 585.772ZM704.622 584.175C706.019 584.175 707.017 583.377 707.017 582.252V580.347H706.98C706.799 580.764 706.236 581.054 705.093 581.363C703.569 581.744 702.988 582.161 702.988 582.887C702.988 583.722 703.569 584.175 704.622 584.175ZM713.398 585.5H711.62V575.883H713.289V576.681H713.325C713.706 576.083 714.432 575.72 715.339 575.72C715.739 575.72 716.065 575.774 716.41 575.865L716.065 577.643C715.684 577.534 715.394 577.48 715.067 577.48C713.96 577.48 713.398 578.224 713.398 579.911V585.5ZM721.9 585.772C719.396 585.772 717.6 583.685 717.6 580.692C717.6 577.698 719.396 575.611 721.918 575.611C723.043 575.611 724.005 576.065 724.622 576.754H724.658V572.254H726.436V585.5H724.749V584.575H724.713C724.114 585.319 723.08 585.772 721.9 585.772ZM722.118 584.121C723.533 584.121 724.658 582.978 724.658 581.526V579.839C724.658 578.387 723.533 577.262 722.063 577.262C720.43 577.262 719.378 578.587 719.378 580.692C719.378 582.796 720.448 584.121 722.118 584.121Z" fill="#222222"/>
<mask id="path-53-inside-5_1693_59002" fill="white">
<path d="M474 704H864V1144H474V704Z"/>
</mask>
<path d="M864 1140H474V1148H864V1140Z" fill="#222222" mask="url(#path-53-inside-5_1693_59002)"/>
<rect x="496" y="706" width="346" height="396" rx="2" fill="white"/>
<rect x="496" y="706" width="346" height="396" rx="2" stroke="#222222" stroke-width="4"/>
<rect x="627" y="870" width="84" height="68" rx="2" fill="white"/>
<rect x="627" y="870" width="84" height="68" rx="2" stroke="#222222" stroke-width="4"/>
<path d="M656.638 887.004L656.638 887.004C656.181 887.032 655.763 887.228 655.463 887.536L656.638 887.004ZM656.638 887.004L656.645 887.004M656.638 887.004L656.645 887.004M656.645 887.004C657.012 886.98 657.368 887.064 657.669 887.236C657.67 887.236 657.671 887.237 657.671 887.237L685.163 903.084C685.164 903.085 685.165 903.085 685.165 903.085C685.699 903.396 686 903.939 686 904.499C686 905.058 685.699 905.601 685.165 905.912C685.164 905.913 685.163 905.913 685.162 905.913L657.67 921.761C657.67 921.761 657.669 921.762 657.668 921.762C657.363 921.936 657.007 922.02 656.645 921.996L656.639 921.996C656.179 921.967 655.757 921.769 655.457 921.457L655.457 921.457C655.157 921.145 654.999 920.744 655 920.337V920.334M656.645 887.004L655 920.334M653 920.334C652.998 921.265 653.361 922.162 654.015 922.843L653 920.334ZM653 920.334V888.627V920.334ZM655 920.334V888.639M655 920.334V888.639M655 888.639C655.006 888.236 655.166 887.842 655.463 887.536L655 888.639Z" fill="white" stroke="#222222" stroke-width="4"/>
</g>
<rect width="390" height="72" transform="translate(474 930)" fill="#222222"/>
<rect width="189" height="64" transform="translate(478 934)" fill="white"/>
<path d="M534.33 973H525.53V959H534.33V961.3H528.03V964.72H533.77V966.94H528.03V970.7H534.33V973ZM540.522 973H537.682L542.062 965.9L537.802 959H540.642L543.522 964.04H543.562L546.442 959H549.282L545.002 965.9L549.382 973H546.562L543.562 967.76H543.522L540.522 973ZM555.858 973H553.358V959H558.978C561.938 959 563.778 960.72 563.778 963.5C563.778 966.32 561.978 967.98 558.958 967.98H555.858V973ZM555.858 961.3V965.68H558.918C560.418 965.68 561.278 964.9 561.278 963.5C561.278 962.02 560.478 961.3 558.918 961.3H555.858ZM576.603 973H568.043V959H570.543V970.7H576.603V973ZM585.879 973.3C582.199 973.3 579.799 970.4 579.799 966C579.799 961.6 582.199 958.7 585.879 958.7C589.539 958.7 591.939 961.6 591.939 966C591.939 970.4 589.539 973.3 585.879 973.3ZM585.879 971C588.099 971 589.439 969.1 589.439 966C589.439 962.9 588.079 961 585.879 961C583.659 961 582.299 962.9 582.299 966C582.299 969.1 583.639 971 585.879 971ZM603.734 967.56V967.58L606.674 973H603.934L601.154 967.8H599.034V973H596.534V959H602.014C604.954 959 606.754 960.66 606.754 963.38C606.754 965.5 605.634 967 603.734 967.56ZM599.034 961.3V965.5H601.734C603.374 965.5 604.254 964.76 604.254 963.38C604.254 962 603.394 961.3 601.734 961.3H599.034ZM620.078 973H611.278V959H620.078V961.3H613.778V964.72H619.518V966.94H613.778V970.7H620.078V973Z" fill="#222222"/>
<path d="M524.03 975.4H620.978V977.4H524.03V975.4Z" fill="#222222"/>
<rect width="189" height="64" transform="translate(671 934)" fill="white"/>
<path d="M724.029 973H721.529V959H727.149C730.109 959 731.949 960.72 731.949 963.5C731.949 966.32 730.149 967.98 727.129 967.98H724.029V973ZM724.029 961.3V965.68H727.089C728.589 965.68 729.449 964.9 729.449 963.5C729.449 962.02 728.649 961.3 727.089 961.3H724.029ZM743.414 967.56V967.58L746.354 973H743.614L740.834 967.8H738.714V973H736.214V959H741.694C744.634 959 746.434 960.66 746.434 963.38C746.434 965.5 745.314 967 743.414 967.56ZM738.714 961.3V965.5H741.414C743.054 965.5 743.934 964.76 743.934 963.38C743.934 962 743.074 961.3 741.414 961.3H738.714ZM756.237 973.3C752.557 973.3 750.157 970.4 750.157 966C750.157 961.6 752.557 958.7 756.237 958.7C759.897 958.7 762.297 961.6 762.297 966C762.297 970.4 759.897 973.3 756.237 973.3ZM756.237 971C758.457 971 759.797 969.1 759.797 966C759.797 962.9 758.437 961 756.237 961C754.017 961 752.657 962.9 752.657 966C752.657 969.1 753.997 971 756.237 971ZM769.393 973H766.893V959H775.693V961.3H769.393V965.26H775.233V967.48H769.393V973ZM782.847 973H780.347V959H782.847V973ZM796.815 973H788.255V959H790.755V970.7H796.815V973ZM810.08 973H801.28V959H810.08V961.3H803.78V964.72H809.52V966.94H803.78V970.7H810.08V973Z" fill="#222222"/>
</g>
<rect x="476" y="124" width="386" height="876" stroke="#222222" stroke-width="4" shape-rendering="crispEdges"/>
</g>
<g filter="url(#filter2_d_1693_59002)">
<g clip-path="url(#clip5_1693_59002)">
<g clip-path="url(#clip6_1693_59002)">
<rect width="390" height="1011" transform="translate(904 122)" fill="white"/>
<mask id="path-62-inside-6_1693_59002" fill="white">
<path d="M904 162H1294V810H904V162Z"/>
</mask>
<path d="M1294 806H904V814H1294V806Z" fill="#222222" mask="url(#path-62-inside-6_1693_59002)"/>
<rect x="926" y="164" width="346" height="541" rx="2" fill="white"/>
<rect x="926" y="164" width="346" height="541" rx="2" stroke="#222222" stroke-width="4"/>
<g clip-path="url(#clip7_1693_59002)">
<rect x="948" y="642" width="40" height="40" rx="20" fill="white"/>
<path fill-rule="evenodd" clip-rule="evenodd" d="M956 681.966H980V653H956V681.966Z" stroke="#222222" stroke-width="2" stroke-linecap="round" stroke-linejoin="round"/>
<path fill-rule="evenodd" clip-rule="evenodd" d="M965.932 660.448H970.07V656.311H965.932V660.448Z" fill="#222222" stroke="#222222" stroke-linecap="round" stroke-linejoin="round"/>
<path fill-rule="evenodd" clip-rule="evenodd" d="M972.552 660.448H976.69V656.311H972.552V660.448Z" fill="#222222" stroke="#222222" stroke-linecap="round" stroke-linejoin="round"/>
<path fill-rule="evenodd" clip-rule="evenodd" d="M959.311 660.448H963.448V656.311H959.311V660.448Z" fill="#222222" stroke="#222222" stroke-linecap="round" stroke-linejoin="round"/>
<path fill-rule="evenodd" clip-rule="evenodd" d="M965.932 667.896H970.07V663.758H965.932V667.896Z" fill="#222222" stroke="#222222" stroke-linecap="round" stroke-linejoin="round"/>
<path fill-rule="evenodd" clip-rule="evenodd" d="M962.62 681.966H973.379V671.207H962.62V681.966Z" fill="white" stroke="#222222" stroke-width="2" stroke-linecap="round" stroke-linejoin="round"/>
<path fill-rule="evenodd" clip-rule="evenodd" d="M972.552 667.896H976.69V663.758H972.552V667.896Z" fill="#222222" stroke="#222222" stroke-linecap="round" stroke-linejoin="round"/>
<path fill-rule="evenodd" clip-rule="evenodd" d="M959.311 667.896H963.448V663.758H959.311V667.896Z" fill="#222222" stroke="#222222" stroke-linecap="round" stroke-linejoin="round"/>
</g>
<rect x="949" y="643" width="38" height="38" rx="19" stroke="#222222" stroke-width="2"/>
<path d="M1004.93 667.5H997.47V654.798H999.339V665.758H1004.93V667.5ZM1011.45 667.772C1008.69 667.772 1006.86 665.722 1006.86 662.692C1006.86 659.661 1008.69 657.611 1011.45 657.611C1014.19 657.611 1016.04 659.661 1016.04 662.692C1016.04 665.722 1014.19 667.772 1011.45 667.772ZM1011.45 666.121C1013.19 666.121 1014.26 664.796 1014.26 662.692C1014.26 660.587 1013.19 659.262 1011.45 659.262C1009.71 659.262 1008.64 660.587 1008.64 662.692C1008.64 664.796 1009.71 666.121 1011.45 666.121ZM1020.4 667.5H1018.62V657.883H1020.32V658.736H1020.36C1020.94 658.065 1022.01 657.611 1023.03 657.611C1025.22 657.611 1026.66 659.044 1026.66 661.294V667.5H1024.88V661.567C1024.88 660.133 1024.06 659.262 1022.68 659.262C1021.3 659.262 1020.4 660.187 1020.4 661.567V667.5ZM1033.87 671.855C1032.02 671.855 1030.51 670.911 1029.82 669.333L1031.33 668.48C1031.96 669.75 1032.65 670.24 1033.87 670.24C1035.34 670.24 1036.23 669.242 1036.23 667.627V666.575H1036.19C1035.65 667.337 1034.63 667.772 1033.43 667.772C1030.91 667.772 1029.13 665.667 1029.13 662.692C1029.13 659.734 1030.91 657.629 1033.45 657.629C1034.54 657.629 1035.56 658.065 1036.19 658.808H1036.23V657.883H1037.97V667.718C1037.97 670.204 1036.36 671.855 1033.87 671.855ZM1033.65 666.121C1035.09 666.121 1036.19 664.978 1036.19 663.526V661.875C1036.19 660.423 1035.07 659.28 1033.6 659.28C1031.96 659.28 1030.91 660.623 1030.91 662.692C1030.91 664.796 1031.98 666.121 1033.65 666.121ZM1044.97 667.772C1042.31 667.772 1040.46 665.722 1040.46 662.692C1040.46 659.661 1042.31 657.611 1044.97 657.611C1047.21 657.611 1048.88 658.972 1049.22 661.149L1047.51 661.494C1047.26 660.06 1046.32 659.262 1044.97 659.262C1043.32 659.262 1042.23 660.587 1042.23 662.692C1042.23 664.796 1043.32 666.121 1044.97 666.121C1046.34 666.121 1047.26 665.323 1047.51 663.889L1049.22 664.234C1048.88 666.411 1047.21 667.772 1044.97 667.772ZM1053.48 667.5H1051.7V654.254H1053.48V658.736H1053.51C1054.06 658.065 1055.09 657.611 1056.11 657.611C1058.3 657.611 1059.74 659.044 1059.74 661.24V667.5H1057.96V661.567C1057.96 660.133 1057.14 659.262 1055.76 659.262C1054.38 659.262 1053.48 660.187 1053.48 661.567V667.5ZM1065.41 667.772C1063.48 667.772 1062.25 666.683 1062.25 664.996C1062.25 663.381 1063.19 662.528 1065.64 661.948C1067.39 661.512 1067.93 661.149 1067.93 660.46C1067.93 659.679 1067.26 659.171 1066.17 659.171C1064.99 659.171 1064.17 659.879 1063.94 661.077L1062.21 660.714C1062.54 658.827 1064.1 657.611 1066.17 657.611C1068.4 657.611 1069.78 658.863 1069.78 660.895V667.5H1068.15V666.575H1068.11C1067.51 667.337 1066.53 667.772 1065.41 667.772ZM1065.63 666.175C1067.02 666.175 1068.02 665.377 1068.02 664.252V662.347H1067.98C1067.8 662.764 1067.24 663.054 1066.1 663.363C1064.57 663.744 1063.99 664.161 1063.99 664.887C1063.99 665.722 1064.57 666.175 1065.63 666.175ZM1074.37 667.5H1072.62V657.883H1074.33V658.645H1074.37C1074.87 658.01 1075.82 657.611 1076.76 657.611C1077.78 657.611 1078.74 658.083 1079.25 658.808H1079.28C1079.94 658.065 1080.84 657.611 1081.91 657.611C1083.87 657.611 1085.34 658.954 1085.34 660.895V667.5H1083.6V661.185C1083.6 660.006 1082.84 659.262 1081.71 659.262C1080.57 659.262 1079.83 660.079 1079.83 661.294V667.5H1078.14V661.185C1078.14 660.006 1077.36 659.262 1076.27 659.262C1075.11 659.262 1074.37 660.079 1074.37 661.294V667.5ZM1089.98 671.583H1088.2V657.883H1089.94V658.772H1089.98C1090.59 658.083 1091.57 657.611 1092.72 657.611C1095.24 657.611 1097.04 659.698 1097.04 662.692C1097.04 665.685 1095.24 667.772 1092.74 667.772C1091.61 667.772 1090.58 667.3 1090.01 666.629H1089.98V671.583ZM1092.52 666.121C1094.19 666.121 1095.26 664.796 1095.26 662.692C1095.26 660.587 1094.21 659.262 1092.57 659.262C1091.1 659.262 1089.98 660.387 1089.98 661.839V663.526C1089.98 664.978 1091.1 666.121 1092.52 666.121Z" fill="#222222"/>
<rect x="1057" y="400" width="84" height="68" rx="2" fill="white"/>
<rect x="1057" y="400" width="84" height="68" rx="2" stroke="#222222" stroke-width="4"/>
<path d="M1086.64 417.004L1086.64 417.004C1086.18 417.032 1085.76 417.228 1085.46 417.536L1086.64 417.004ZM1086.64 417.004L1086.64 417.004M1086.64 417.004L1086.64 417.004M1086.64 417.004C1087.01 416.98 1087.37 417.064 1087.67 417.236C1087.67 417.236 1087.67 417.237 1087.67 417.237L1115.16 433.084C1115.16 433.085 1115.16 433.085 1115.17 433.085C1115.7 433.396 1116 433.939 1116 434.499C1116 435.058 1115.7 435.601 1115.16 435.912C1115.16 435.913 1115.16 435.913 1115.16 435.913L1087.67 451.761C1087.67 451.761 1087.67 451.762 1087.67 451.762C1087.36 451.936 1087.01 452.02 1086.64 451.996L1086.64 451.996C1086.18 451.967 1085.76 451.769 1085.46 451.457L1085.46 451.457C1085.16 451.145 1085 450.744 1085 450.337V450.334M1086.64 417.004L1085 450.334M1083 450.334C1083 451.265 1083.36 452.162 1084.02 452.843L1083 450.334ZM1083 450.334V418.627V450.334ZM1085 450.334V418.639M1085 450.334V418.639M1085 418.639C1085.01 418.236 1085.17 417.842 1085.46 417.536L1085 418.639Z" fill="white" stroke="#222222" stroke-width="4"/>
<rect x="926" y="725" width="346" height="43" rx="2" fill="white"/>
<rect x="926" y="725" width="346" height="43" rx="2" stroke="#222222" stroke-width="4"/>
<path d="M954.152 751.21C951.576 751.21 949.896 749.18 949.896 746.1C949.896 743.02 951.576 740.99 954.152 740.99C956.714 740.99 958.394 743.02 958.394 746.1C958.394 749.18 956.714 751.21 954.152 751.21ZM954.152 749.6C955.706 749.6 956.644 748.27 956.644 746.1C956.644 743.93 955.692 742.6 954.152 742.6C952.598 742.6 951.646 743.93 951.646 746.1C951.646 748.27 952.584 749.6 954.152 749.6ZM964.074 751.21C961.75 751.21 960.42 749.95 960.42 747.78V741.2H962.17V747.668C962.17 748.97 962.8 749.6 964.074 749.6C965.362 749.6 966.006 748.956 966.006 747.696V741.2H967.756V747.78C967.756 749.95 966.398 751.21 964.074 751.21ZM975.387 747.192V747.206L977.445 751H975.527L973.581 747.36H972.097V751H970.347V741.2H974.183C976.241 741.2 977.501 742.362 977.501 744.266C977.501 745.75 976.717 746.8 975.387 747.192ZM972.097 742.81V745.75H973.987C975.135 745.75 975.751 745.232 975.751 744.266C975.751 743.3 975.149 742.81 973.987 742.81H972.097ZM985.466 751H983.744V741.2H985.76L988.658 748.2H988.686L991.598 741.2H993.614V751H991.892V744.308H991.864L989.05 751H988.308L985.494 744.308H985.466V751ZM999.977 751.21C997.401 751.21 995.721 749.18 995.721 746.1C995.721 743.02 997.401 740.99 999.977 740.99C1002.54 740.99 1004.22 743.02 1004.22 746.1C1004.22 749.18 1002.54 751.21 999.977 751.21ZM999.977 749.6C1001.53 749.6 1002.47 748.27 1002.47 746.1C1002.47 743.93 1001.52 742.6 999.977 742.6C998.423 742.6 997.471 743.93 997.471 746.1C997.471 748.27 998.409 749.6 999.977 749.6ZM1009.72 751.21C1007.35 751.21 1005.92 750.006 1005.62 747.766L1007.34 747.416C1007.58 748.97 1008.28 749.614 1009.75 749.614C1010.84 749.614 1011.5 749.166 1011.5 748.438C1011.5 747.654 1010.96 747.234 1009.21 746.66C1006.9 745.89 1006.08 745.022 1006.08 743.692C1006.08 742.096 1007.41 740.99 1009.33 740.99C1011.22 740.99 1012.66 742.124 1012.98 743.86L1011.27 744.224C1010.98 743.118 1010.35 742.586 1009.33 742.586C1008.4 742.586 1007.81 743.02 1007.81 743.692C1007.81 744.28 1008.28 744.602 1009.82 745.106C1012.31 745.946 1013.25 746.898 1013.25 748.424C1013.25 750.09 1011.82 751.21 1009.72 751.21ZM1018.74 751H1016.99V742.81H1014.08V741.2H1021.65V742.81H1018.74V751ZM1029.6 751H1027.85V741.2H1031.78C1033.85 741.2 1035.14 742.404 1035.14 744.35C1035.14 746.324 1033.88 747.486 1031.77 747.486H1029.6V751ZM1029.6 742.81V745.876H1031.74C1032.79 745.876 1033.39 745.33 1033.39 744.35C1033.39 743.314 1032.83 742.81 1031.74 742.81H1029.6ZM1040.7 751.21C1038.13 751.21 1036.45 749.18 1036.45 746.1C1036.45 743.02 1038.13 740.99 1040.7 740.99C1043.26 740.99 1044.94 743.02 1044.94 746.1C1044.94 749.18 1043.26 751.21 1040.7 751.21ZM1040.7 749.6C1042.26 749.6 1043.19 748.27 1043.19 746.1C1043.19 743.93 1042.24 742.6 1040.7 742.6C1039.15 742.6 1038.2 743.93 1038.2 746.1C1038.2 748.27 1039.13 749.6 1040.7 749.6ZM1048.79 751H1047.04V741.2H1050.98C1053.05 741.2 1054.34 742.404 1054.34 744.35C1054.34 746.324 1053.08 747.486 1050.96 747.486H1048.79V751ZM1048.79 742.81V745.876H1050.93C1051.98 745.876 1052.59 745.33 1052.59 744.35C1052.59 743.314 1052.03 742.81 1050.93 742.81H1048.79ZM1059.79 751.21C1057.46 751.21 1056.13 749.95 1056.13 747.78V741.2H1057.88V747.668C1057.88 748.97 1058.51 749.6 1059.79 749.6C1061.07 749.6 1061.72 748.956 1061.72 747.696V741.2H1063.47V747.78C1063.47 749.95 1062.11 751.21 1059.79 751.21ZM1072.05 751H1066.06V741.2H1067.81V749.39H1072.05V751ZM1081.9 751H1080.14L1079.56 749.32H1075.59L1075.01 751H1073.25L1076.76 741.2H1078.39L1081.9 751ZM1077.56 743.622L1076.12 747.78H1079.03L1077.59 743.622H1077.56ZM1088.53 747.192V747.206L1090.59 751H1088.67L1086.72 747.36H1085.24V751H1083.49V741.2H1087.32C1089.38 741.2 1090.64 742.362 1090.64 744.266C1090.64 745.75 1089.86 746.8 1088.53 747.192ZM1085.24 742.81V745.75H1087.13C1088.28 745.75 1088.89 745.232 1088.89 744.266C1088.89 743.3 1088.29 742.81 1087.13 742.81H1085.24ZM1098.64 751H1096.89V741.2H1098.64V751ZM1105.31 751H1103.56V742.81H1100.64V741.2H1108.22V742.81H1105.31V751ZM1116.37 751H1110.21V741.2H1116.37V742.81H1111.96V745.204H1115.98V746.758H1111.96V749.39H1116.37V751ZM1120.33 751H1118.61V741.2H1120.62L1123.52 748.2H1123.55L1126.46 741.2H1128.48V751H1126.76V744.308H1126.73L1123.91 751H1123.17L1120.36 744.308H1120.33V751ZM1137.09 751H1135.34V741.2H1137.09V751ZM1143.16 751.21C1140.79 751.21 1139.37 750.006 1139.06 747.766L1140.78 747.416C1141.02 748.97 1141.72 749.614 1143.19 749.614C1144.28 749.614 1144.94 749.166 1144.94 748.438C1144.94 747.654 1144.41 747.234 1142.66 746.66C1140.35 745.89 1139.52 745.022 1139.52 743.692C1139.52 742.096 1140.85 740.99 1142.77 740.99C1144.66 740.99 1146.1 742.124 1146.42 743.86L1144.71 744.224C1144.42 743.118 1143.79 742.586 1142.77 742.586C1141.84 742.586 1141.26 743.02 1141.26 743.692C1141.26 744.28 1141.72 744.602 1143.26 745.106C1145.75 745.946 1146.69 746.898 1146.69 748.424C1146.69 750.09 1145.26 751.21 1143.16 751.21ZM1154.59 751H1152.84V741.2H1154.7L1158.4 748.046H1158.43V741.2H1160.18V751H1158.31L1154.62 744.154H1154.59V751ZM1166.53 751.21C1163.95 751.21 1162.27 749.18 1162.27 746.1C1162.27 743.02 1163.95 740.99 1166.53 740.99C1169.09 740.99 1170.77 743.02 1170.77 746.1C1170.77 749.18 1169.09 751.21 1166.53 751.21ZM1166.53 749.6C1168.08 749.6 1169.02 748.27 1169.02 746.1C1169.02 743.93 1168.07 742.6 1166.53 742.6C1164.98 742.6 1164.02 743.93 1164.02 746.1C1164.02 748.27 1164.96 749.6 1166.53 749.6ZM1175.82 751H1173.91L1171.9 741.2H1173.71L1175.07 748.186H1175.1L1177.1 741.2H1178.74L1180.74 748.186H1180.77L1182.14 741.2H1183.92L1181.94 751H1180.01L1177.92 743.846H1177.9L1175.82 751ZM1193.63 751H1189.92V741.2H1194C1195.7 741.2 1196.89 742.278 1196.89 743.804C1196.89 744.63 1196.5 745.316 1195.82 745.694V745.722C1196.72 746.114 1197.25 746.954 1197.25 748.004C1197.25 749.992 1196.05 751 1193.63 751ZM1191.67 742.782V745.19H1193.74C1194.66 745.19 1195.14 744.77 1195.14 743.986C1195.14 743.202 1194.66 742.782 1193.74 742.782H1191.67ZM1191.67 746.618V749.418H1193.84C1195 749.418 1195.5 748.97 1195.5 747.99C1195.5 747.066 1194.98 746.618 1193.85 746.618H1191.67ZM1206.65 751H1204.89L1204.31 749.32H1200.34L1199.76 751H1198L1201.51 741.2H1203.14L1206.65 751ZM1202.31 743.622L1200.87 747.78H1203.78L1202.34 743.622H1202.31ZM1211.66 751.21C1209.07 751.21 1207.4 749.194 1207.4 746.1C1207.4 743.02 1209.08 740.99 1211.66 740.99C1213.72 740.99 1215.24 742.376 1215.49 744.462L1213.77 744.742C1213.53 743.356 1212.79 742.6 1211.66 742.6C1210.09 742.6 1209.15 743.93 1209.15 746.1C1209.15 748.284 1210.09 749.6 1211.66 749.6C1212.85 749.6 1213.59 748.802 1213.79 747.276L1215.52 747.556C1215.3 749.796 1213.8 751.21 1211.66 751.21ZM1219.3 751H1217.55V741.2H1219.3V745.638H1219.32L1222.95 741.2H1224.98L1221.38 745.526L1225.3 751H1223.22L1220.3 746.8H1220.28L1219.3 748.032V751ZM1229.47 747.808H1227.72V741.2H1229.47V747.808ZM1229.61 751H1227.58V749.026H1229.61V751ZM1247.3 746.632L1241.85 749.908L1241.05 748.648L1245.41 746.086L1241.05 743.524L1241.85 742.278L1247.3 745.554V746.632Z" fill="#222222"/>
<mask id="path-80-inside-7_1693_59002" fill="white">
<path d="M904 849H1294V1289H904V849Z"/>
</mask>
<path d="M1294 1285H904V1293H1294V1285Z" fill="#222222" mask="url(#path-80-inside-7_1693_59002)"/>
<rect x="926" y="851" width="346" height="396" rx="2" fill="white"/>
<rect x="926" y="851" width="346" height="396" rx="2" stroke="#222222" stroke-width="4"/>
</g>
<rect width="390" height="72" transform="translate(904 930)" fill="#222222"/>
<rect width="189" height="64" transform="translate(908 934)" fill="white"/>
<path d="M964.33 973H955.53V959H964.33V961.3H958.03V964.72H963.77V966.94H958.03V970.7H964.33V973ZM970.522 973H967.682L972.062 965.9L967.802 959H970.642L973.522 964.04H973.562L976.442 959H979.282L975.002 965.9L979.382 973H976.562L973.562 967.76H973.522L970.522 973ZM985.858 973H983.358V959H988.978C991.938 959 993.778 960.72 993.778 963.5C993.778 966.32 991.978 967.98 988.958 967.98H985.858V973ZM985.858 961.3V965.68H988.918C990.418 965.68 991.278 964.9 991.278 963.5C991.278 962.02 990.478 961.3 988.918 961.3H985.858ZM1006.6 973H998.043V959H1000.54V970.7H1006.6V973ZM1015.88 973.3C1012.2 973.3 1009.8 970.4 1009.8 966C1009.8 961.6 1012.2 958.7 1015.88 958.7C1019.54 958.7 1021.94 961.6 1021.94 966C1021.94 970.4 1019.54 973.3 1015.88 973.3ZM1015.88 971C1018.1 971 1019.44 969.1 1019.44 966C1019.44 962.9 1018.08 961 1015.88 961C1013.66 961 1012.3 962.9 1012.3 966C1012.3 969.1 1013.64 971 1015.88 971ZM1033.73 967.56V967.58L1036.67 973H1033.93L1031.15 967.8H1029.03V973H1026.53V959H1032.01C1034.95 959 1036.75 960.66 1036.75 963.38C1036.75 965.5 1035.63 967 1033.73 967.56ZM1029.03 961.3V965.5H1031.73C1033.37 965.5 1034.25 964.76 1034.25 963.38C1034.25 962 1033.39 961.3 1031.73 961.3H1029.03ZM1050.08 973H1041.28V959H1050.08V961.3H1043.78V964.72H1049.52V966.94H1043.78V970.7H1050.08V973Z" fill="#222222"/>
<path d="M954.03 975.4H1050.98V977.4H954.03V975.4Z" fill="#222222"/>
<rect width="189" height="64" transform="translate(1101 934)" fill="white"/>
<path d="M1154.03 973H1151.53V959H1157.15C1160.11 959 1161.95 960.72 1161.95 963.5C1161.95 966.32 1160.15 967.98 1157.13 967.98H1154.03V973ZM1154.03 961.3V965.68H1157.09C1158.59 965.68 1159.45 964.9 1159.45 963.5C1159.45 962.02 1158.65 961.3 1157.09 961.3H1154.03ZM1173.41 967.56V967.58L1176.35 973H1173.61L1170.83 967.8H1168.71V973H1166.21V959H1171.69C1174.63 959 1176.43 960.66 1176.43 963.38C1176.43 965.5 1175.31 967 1173.41 967.56ZM1168.71 961.3V965.5H1171.41C1173.05 965.5 1173.93 964.76 1173.93 963.38C1173.93 962 1173.07 961.3 1171.41 961.3H1168.71ZM1186.24 973.3C1182.56 973.3 1180.16 970.4 1180.16 966C1180.16 961.6 1182.56 958.7 1186.24 958.7C1189.9 958.7 1192.3 961.6 1192.3 966C1192.3 970.4 1189.9 973.3 1186.24 973.3ZM1186.24 971C1188.46 971 1189.8 969.1 1189.8 966C1189.8 962.9 1188.44 961 1186.24 961C1184.02 961 1182.66 962.9 1182.66 966C1182.66 969.1 1184 971 1186.24 971ZM1199.39 973H1196.89V959H1205.69V961.3H1199.39V965.26H1205.23V967.48H1199.39V973ZM1212.85 973H1210.35V959H1212.85V973ZM1226.82 973H1218.26V959H1220.76V970.7H1226.82V973ZM1240.08 973H1231.28V959H1240.08V961.3H1233.78V964.72H1239.52V966.94H1233.78V970.7H1240.08V973Z" fill="#222222"/>
</g>
<rect x="906" y="124" width="386" height="876" stroke="#222222" stroke-width="4" shape-rendering="crispEdges"/>
</g>
<defs>
<filter id="filter0_d_1693_59002" x="40" y="122" width="394" height="884" filterUnits="userSpaceOnUse" color-interpolation-filters="sRGB">
<feFlood flood-opacity="0" result="BackgroundImageFix"/>
<feColorMatrix in="SourceAlpha" type="matrix" values="0 0 0 0 0 0 0 0 0 0 0 0 0 0 0 0 0 0 127 0" result="hardAlpha"/>
<feOffset dx="4" dy="4"/>
<feComposite in2="hardAlpha" operator="out"/>
<feColorMatrix type="matrix" values="0 0 0 0 0.133333 0 0 0 0 0.133333 0 0 0 0 0.133333 0 0 0 1 0"/>
<feBlend mode="normal" in2="BackgroundImageFix" result="effect1_dropShadow_1693_59002"/>
<feBlend mode="normal" in="SourceGraphic" in2="effect1_dropShadow_1693_59002" result="shape"/>
</filter>
<filter id="filter1_d_1693_59002" x="474" y="122" width="394" height="884" filterUnits="userSpaceOnUse" color-interpolation-filters="sRGB">
<feFlood flood-opacity="0" result="BackgroundImageFix"/>
<feColorMatrix in="SourceAlpha" type="matrix" values="0 0 0 0 0 0 0 0 0 0 0 0 0 0 0 0 0 0 127 0" result="hardAlpha"/>
<feOffset dx="4" dy="4"/>
<feComposite in2="hardAlpha" operator="out"/>
<feColorMatrix type="matrix" values="0 0 0 0 0.133333 0 0 0 0 0.133333 0 0 0 0 0.133333 0 0 0 1 0"/>
<feBlend mode="normal" in2="BackgroundImageFix" result="effect1_dropShadow_1693_59002"/>
<feBlend mode="normal" in="SourceGraphic" in2="effect1_dropShadow_1693_59002" result="shape"/>
</filter>
<filter id="filter2_d_1693_59002" x="904" y="122" width="394" height="884" filterUnits="userSpaceOnUse" color-interpolation-filters="sRGB">
<feFlood flood-opacity="0" result="BackgroundImageFix"/>
<feColorMatrix in="SourceAlpha" type="matrix" values="0 0 0 0 0 0 0 0 0 0 0 0 0 0 0 0 0 0 127 0" result="hardAlpha"/>
<feOffset dx="4" dy="4"/>
<feComposite in2="hardAlpha" operator="out"/>
<feColorMatrix type="matrix" values="0 0 0 0 0.133333 0 0 0 0 0.133333 0 0 0 0 0.133333 0 0 0 1 0"/>
<feBlend mode="normal" in2="BackgroundImageFix" result="effect1_dropShadow_1693_59002"/>
<feBlend mode="normal" in="SourceGraphic" in2="effect1_dropShadow_1693_59002" result="shape"/>
</filter>
<clipPath id="clip0_1693_59002">
<rect x="40" y="122" width="390" height="880" fill="white"/>
</clipPath>
<clipPath id="clip1_1693_59002">
<rect x="60" y="146" width="88" height="88" rx="44" fill="white"/>
</clipPath>
<clipPath id="clip2_1693_59002">
<rect x="474" y="122" width="390" height="880" fill="white"/>
</clipPath>
<clipPath id="clip3_1693_59002">
<rect width="390" height="1011" fill="white" transform="translate(474 122)"/>
</clipPath>
<clipPath id="clip4_1693_59002">
<rect x="518" y="560" width="40" height="40" rx="20" fill="white"/>
</clipPath>
<clipPath id="clip5_1693_59002">
<rect x="904" y="122" width="390" height="880" fill="white"/>
</clipPath>
<clipPath id="clip6_1693_59002">
<rect width="390" height="1011" fill="white" transform="translate(904 122)"/>
</clipPath>
<clipPath id="clip7_1693_59002">
<rect x="948" y="642" width="40" height="40" rx="20" fill="white"/>
</clipPath>
</defs>
</svg>
