<svg width="1249" height="466" viewBox="0 0 1249 466" fill="none" xmlns="http://www.w3.org/2000/svg">
<path d="M72.716 46.424H78.238C79.25 46.424 80.2693 46.556 81.296 46.82C82.3227 47.084 83.2467 47.524 84.068 48.14C84.8893 48.7413 85.5567 49.5407 86.07 50.538C86.5833 51.5207 86.84 52.7453 86.84 54.212C86.84 55.576 86.5833 56.7493 86.07 57.732C85.5567 58.7147 84.8893 59.5213 84.068 60.152C83.2467 60.7827 82.3227 61.252 81.296 61.56C80.2693 61.8533 79.25 62 78.238 62H72.716V46.424ZM77.798 59.58C78.5167 59.58 79.2353 59.4993 79.954 59.338C80.6727 59.162 81.318 58.876 81.89 58.48C82.4767 58.0693 82.9533 57.5193 83.32 56.83C83.6867 56.1407 83.87 55.268 83.87 54.212C83.87 53.0973 83.6867 52.188 83.32 51.484C82.9533 50.78 82.4767 50.23 81.89 49.834C81.318 49.438 80.6727 49.1667 79.954 49.02C79.2353 48.8733 78.5167 48.8 77.798 48.8H75.488V59.58H77.798ZM96.8208 55.664C96.8208 55.3267 96.7694 55.004 96.6668 54.696C96.5788 54.388 96.4321 54.1167 96.2268 53.882C96.0214 53.6473 95.7574 53.464 95.4348 53.332C95.1268 53.1853 94.7601 53.112 94.3348 53.112C93.5428 53.112 92.8681 53.354 92.3108 53.838C91.7681 54.3073 91.4674 54.916 91.4088 55.664H96.8208ZM99.4608 56.852C99.4608 56.9693 99.4608 57.0867 99.4608 57.204C99.4608 57.3213 99.4534 57.4387 99.4388 57.556H91.4088C91.4381 57.9373 91.5334 58.2893 91.6948 58.612C91.8708 58.92 92.0981 59.1913 92.3768 59.426C92.6554 59.646 92.9708 59.822 93.3228 59.954C93.6748 60.086 94.0414 60.152 94.4228 60.152C95.0828 60.152 95.6401 60.0347 96.0948 59.8C96.5494 59.5507 96.9234 59.2133 97.2168 58.788L98.9768 60.196C97.9354 61.604 96.4248 62.308 94.4448 62.308C93.6234 62.308 92.8681 62.1833 92.1788 61.934C91.4894 61.67 90.8881 61.3033 90.3748 60.834C89.8761 60.3647 89.4801 59.7927 89.1868 59.118C88.9081 58.4287 88.7688 57.6513 88.7688 56.786C88.7688 55.9353 88.9081 55.1653 89.1868 54.476C89.4801 53.772 89.8761 53.178 90.3748 52.694C90.8734 52.1953 91.4601 51.814 92.1348 51.55C92.8241 51.2713 93.5648 51.132 94.3568 51.132C95.0901 51.132 95.7648 51.2567 96.3808 51.506C97.0114 51.7407 97.5541 52.1 98.0088 52.584C98.4634 53.0533 98.8154 53.6473 99.0648 54.366C99.3288 55.07 99.4608 55.8987 99.4608 56.852ZM107.804 54.256C107.569 53.948 107.246 53.684 106.836 53.464C106.425 53.2293 105.978 53.112 105.494 53.112C105.068 53.112 104.68 53.2 104.328 53.376C103.976 53.552 103.8 53.8453 103.8 54.256C103.8 54.6667 103.99 54.96 104.372 55.136C104.768 55.2973 105.34 55.466 106.088 55.642C106.484 55.73 106.88 55.8473 107.276 55.994C107.686 56.1407 108.053 56.3387 108.376 56.588C108.713 56.8227 108.984 57.1233 109.19 57.49C109.395 57.842 109.498 58.2747 109.498 58.788C109.498 59.4333 109.373 59.9833 109.124 60.438C108.889 60.878 108.566 61.2373 108.156 61.516C107.76 61.7947 107.29 61.9927 106.748 62.11C106.22 62.242 105.67 62.308 105.098 62.308C104.276 62.308 103.477 62.1613 102.7 61.868C101.922 61.56 101.277 61.1273 100.764 60.57L102.502 58.942C102.795 59.3233 103.176 59.6387 103.646 59.888C104.115 60.1373 104.636 60.262 105.208 60.262C105.398 60.262 105.589 60.24 105.78 60.196C105.985 60.152 106.168 60.086 106.33 59.998C106.506 59.8953 106.645 59.7633 106.748 59.602C106.85 59.4407 106.902 59.2427 106.902 59.008C106.902 58.568 106.696 58.2527 106.286 58.062C105.89 57.8713 105.288 57.6807 104.482 57.49C104.086 57.402 103.697 57.292 103.316 57.16C102.949 57.0133 102.619 56.83 102.326 56.61C102.032 56.3753 101.798 56.0893 101.622 55.752C101.446 55.4147 101.358 54.9967 101.358 54.498C101.358 53.9113 101.475 53.4053 101.71 52.98C101.959 52.5547 102.282 52.21 102.678 51.946C103.074 51.6673 103.521 51.462 104.02 51.33C104.518 51.198 105.032 51.132 105.56 51.132C106.322 51.132 107.063 51.264 107.782 51.528C108.515 51.792 109.094 52.1953 109.52 52.738L107.804 54.256ZM111.837 51.44H114.477V62H111.837V51.44ZM111.463 47.854C111.463 47.4287 111.617 47.062 111.925 46.754C112.248 46.4313 112.651 46.27 113.135 46.27C113.619 46.27 114.022 46.424 114.345 46.732C114.682 47.0253 114.851 47.3993 114.851 47.854C114.851 48.3087 114.682 48.69 114.345 48.998C114.022 49.2913 113.619 49.438 113.135 49.438C112.651 49.438 112.248 49.284 111.925 48.976C111.617 48.6533 111.463 48.2793 111.463 47.854ZM128.416 51.44V61.054C128.416 62.0073 128.298 62.8653 128.064 63.628C127.829 64.4053 127.462 65.058 126.964 65.586C126.48 66.1287 125.864 66.5467 125.116 66.84C124.368 67.1333 123.48 67.28 122.454 67.28C122.028 67.28 121.574 67.2433 121.09 67.17C120.62 67.0967 120.151 66.9867 119.682 66.84C119.227 66.6933 118.787 66.51 118.362 66.29C117.936 66.07 117.555 65.8207 117.218 65.542L118.736 63.496C119.249 63.98 119.828 64.3467 120.474 64.596C121.119 64.86 121.772 64.992 122.432 64.992C123.062 64.992 123.59 64.8967 124.016 64.706C124.456 64.53 124.8 64.2807 125.05 63.958C125.314 63.6353 125.497 63.254 125.6 62.814C125.717 62.374 125.776 61.89 125.776 61.362V60.592H125.732C125.35 61.1053 124.859 61.5013 124.258 61.78C123.671 62.044 123.011 62.176 122.278 62.176C121.486 62.176 120.767 62.0293 120.122 61.736C119.476 61.4427 118.926 61.0467 118.472 60.548C118.032 60.0493 117.687 59.47 117.438 58.81C117.188 58.1353 117.064 57.424 117.064 56.676C117.064 55.9133 117.181 55.1947 117.416 54.52C117.665 53.8453 118.01 53.2587 118.45 52.76C118.904 52.2613 119.447 51.8653 120.078 51.572C120.723 51.2787 121.442 51.132 122.234 51.132C122.982 51.132 123.678 51.286 124.324 51.594C124.969 51.902 125.482 52.3787 125.864 53.024H125.908V51.44H128.416ZM122.784 53.288C122.3 53.288 121.867 53.376 121.486 53.552C121.119 53.728 120.804 53.97 120.54 54.278C120.29 54.5713 120.092 54.9233 119.946 55.334C119.814 55.7447 119.748 56.1847 119.748 56.654C119.748 57.0793 119.814 57.49 119.946 57.886C120.092 58.282 120.29 58.6413 120.54 58.964C120.804 59.272 121.119 59.5213 121.486 59.712C121.867 59.9027 122.292 59.998 122.762 59.998C123.246 59.998 123.678 59.91 124.06 59.734C124.456 59.5433 124.786 59.294 125.05 58.986C125.328 58.678 125.541 58.326 125.688 57.93C125.834 57.5193 125.908 57.094 125.908 56.654C125.908 56.1993 125.834 55.7667 125.688 55.356C125.541 54.9453 125.328 54.586 125.05 54.278C124.786 53.97 124.463 53.728 124.082 53.552C123.7 53.376 123.268 53.288 122.784 53.288ZM131.58 51.44H134.088V53.134H134.132C134.367 52.606 134.77 52.144 135.342 51.748C135.929 51.3373 136.618 51.132 137.41 51.132C138.099 51.132 138.686 51.2567 139.17 51.506C139.669 51.7407 140.072 52.056 140.38 52.452C140.703 52.848 140.937 53.3027 141.084 53.816C141.231 54.3293 141.304 54.8573 141.304 55.4V62H138.664V56.148C138.664 55.84 138.642 55.5173 138.598 55.18C138.554 54.8427 138.459 54.542 138.312 54.278C138.165 53.9993 137.96 53.772 137.696 53.596C137.447 53.42 137.109 53.332 136.684 53.332C136.259 53.332 135.892 53.42 135.584 53.596C135.276 53.7573 135.019 53.97 134.814 54.234C134.623 54.498 134.477 54.806 134.374 55.158C134.271 55.4953 134.22 55.84 134.22 56.192V62H131.58V51.44ZM151.821 55.664C151.821 55.3267 151.769 55.004 151.667 54.696C151.579 54.388 151.432 54.1167 151.227 53.882C151.021 53.6473 150.757 53.464 150.435 53.332C150.127 53.1853 149.76 53.112 149.335 53.112C148.543 53.112 147.868 53.354 147.311 53.838C146.768 54.3073 146.467 54.916 146.409 55.664H151.821ZM154.461 56.852C154.461 56.9693 154.461 57.0867 154.461 57.204C154.461 57.3213 154.453 57.4387 154.439 57.556H146.409C146.438 57.9373 146.533 58.2893 146.695 58.612C146.871 58.92 147.098 59.1913 147.377 59.426C147.655 59.646 147.971 59.822 148.323 59.954C148.675 60.086 149.041 60.152 149.423 60.152C150.083 60.152 150.64 60.0347 151.095 59.8C151.549 59.5507 151.923 59.2133 152.217 58.788L153.977 60.196C152.935 61.604 151.425 62.308 149.445 62.308C148.623 62.308 147.868 62.1833 147.179 61.934C146.489 61.67 145.888 61.3033 145.375 60.834C144.876 60.3647 144.48 59.7927 144.187 59.118C143.908 58.4287 143.769 57.6513 143.769 56.786C143.769 55.9353 143.908 55.1653 144.187 54.476C144.48 53.772 144.876 53.178 145.375 52.694C145.873 52.1953 146.46 51.814 147.135 51.55C147.824 51.2713 148.565 51.132 149.357 51.132C150.09 51.132 150.765 51.2567 151.381 51.506C152.011 51.7407 152.554 52.1 153.009 52.584C153.463 53.0533 153.815 53.6473 154.065 54.366C154.329 55.07 154.461 55.8987 154.461 56.852ZM157.018 51.44H159.548V53.2H159.592C159.885 52.584 160.296 52.0853 160.824 51.704C161.352 51.3227 161.968 51.132 162.672 51.132C162.774 51.132 162.884 51.1393 163.002 51.154C163.119 51.154 163.222 51.1687 163.31 51.198V53.618C163.134 53.574 162.98 53.5447 162.848 53.53C162.73 53.5153 162.613 53.508 162.496 53.508C161.894 53.508 161.41 53.618 161.044 53.838C160.677 54.058 160.391 54.322 160.186 54.63C159.98 54.938 159.841 55.2533 159.768 55.576C159.694 55.8987 159.658 56.1553 159.658 56.346V62H157.018V51.44Z" fill="#444444"/>
<path d="M298 134.5L288 128.726V140.274L298 134.5ZM289 133.5H234V135.5H289V133.5Z" fill="#888888"/>
<rect width="233" height="80" transform="translate(1 94)" fill="#DCDFD8"/>
<path d="M84.467 119.82V120.552H81.479V129H80.627V120.552H77.639V119.82H84.467ZM87.1148 124.44C87.1148 120.912 88.4468 119.688 90.3068 119.688C92.2868 119.688 93.4748 120.912 93.4748 124.44C93.4748 127.956 92.1788 129.192 90.2828 129.192C88.2668 129.192 87.1148 127.956 87.1148 124.44ZM90.2948 128.508C91.8548 128.508 92.5748 127.332 92.5748 124.44C92.5748 121.452 91.8788 120.372 90.2948 120.372C88.7708 120.372 88.0148 121.536 88.0148 124.44C88.0148 127.296 88.7108 128.508 90.2948 128.508ZM99.5425 125.352H97.7305V129H96.8785V119.82H99.5905C101.487 119.82 102.663 120.78 102.663 122.544C102.663 124.308 101.499 125.352 99.5425 125.352ZM97.7305 124.656H99.5665C100.851 124.656 101.787 124.02 101.787 122.556C101.787 121.2 100.971 120.516 99.5905 120.516H97.7305V124.656ZM106.978 125.412V124.608H110.554V125.412H106.978ZM115.71 129V119.82H116.574V128.256H121.242V129H115.71ZM124.67 129V119.82H130.022V120.564H125.522V123.96H129.482V124.68H125.522V128.256H130.07V129H124.67ZM139.762 119.82L137.05 129H135.898L133.186 119.82H134.074L136.138 126.948C136.306 127.512 136.438 128.16 136.438 128.16H136.546C136.546 128.16 136.69 127.5 136.858 126.936L138.922 119.82H139.762ZM143.141 129V119.82H148.493V120.564H143.993V123.96H147.953V124.68H143.993V128.256H148.541V129H143.141ZM152.653 129V119.82H153.517V128.256H158.185V129H152.653ZM78.767 147V137.82H79.631V146.256H84.299V147H78.767ZM90.7148 138.516V146.304H92.8628V147H87.7268V146.304H89.8748V138.516H87.7268V137.82H92.8628V138.516H90.7148ZM102.531 140.268H101.679C101.595 139.248 101.043 138.396 99.6385 138.396C98.4025 138.396 97.6105 139.032 97.6105 140.112C97.6105 141.144 98.1025 141.54 99.1825 141.792L100.479 142.092C102.039 142.452 102.663 143.22 102.663 144.54C102.663 146.1 101.571 147.18 99.5305 147.18C97.5625 147.18 96.5665 146.016 96.4345 144.456H97.2625C97.3825 145.536 98.0185 146.472 99.5785 146.472C101.199 146.472 101.787 145.596 101.787 144.612C101.787 143.664 101.403 143.148 100.251 142.884L99.0625 142.608C97.3585 142.212 96.7705 141.504 96.7705 140.136C96.7705 138.636 97.9705 137.688 99.6505 137.688C101.499 137.688 102.411 138.72 102.531 140.268ZM112.174 137.82V138.552H109.186V147H108.334V138.552H105.346V137.82H112.174ZM127.658 138.516V146.304H129.806V147H124.67V146.304H126.818V138.516H124.67V137.82H129.806V138.516H127.658ZM139.882 137.82V138.552H136.894V147H136.042V138.552H133.054V137.82H139.882ZM143.141 147V137.82H148.493V138.564H143.993V141.96H147.953V142.68H143.993V146.256H148.541V147H143.141ZM152.077 147V137.82H153.289L154.657 142.608C154.849 143.292 154.909 143.868 154.909 143.868H155.005C155.005 143.868 155.053 143.292 155.245 142.62L156.601 137.82H157.813V147H156.997V138.9H156.889C156.889 138.9 156.781 139.62 156.565 140.388L155.317 144.78H154.537L153.289 140.4C153.073 139.62 152.965 138.9 152.965 138.9H152.869V147H152.077Z" fill="#444444"/>
<rect x="1.5" y="190.5" width="232" height="59" fill="#FAFAFA"/>
<rect x="1.5" y="190.5" width="232" height="59" stroke="#E5E5E5"/>
<path d="M18.9 222.244C20.148 222.244 21 221.08 21 218.776C21 216.532 20.16 215.368 18.9 215.368C17.64 215.368 16.8 216.484 16.8 218.728C16.8 221.032 17.64 222.244 18.9 222.244ZM18.9 223.18C18.048 223.18 17.316 222.844 16.704 222.172C16.092 221.488 15.72 220.276 15.72 218.728C15.72 217.36 16.032 216.304 16.656 215.548C17.292 214.792 18.036 214.42 18.9 214.42C19.764 214.42 20.508 214.804 21.132 215.572C21.768 216.34 22.08 217.408 22.08 218.776C22.08 220.324 21.696 221.524 21.084 222.196C20.472 222.856 19.728 223.18 18.9 223.18ZM26.7767 223H25.7567V214.6H28.6487C30.3407 214.6 31.4807 215.548 31.4807 217.192C31.4807 218.824 30.3887 219.76 28.6727 219.76H26.7767V223ZM26.7767 215.512V218.848H28.6127C29.6687 218.848 30.4487 218.284 30.4487 217.192C30.4487 216.052 29.6567 215.512 28.5887 215.512H26.7767ZM38.1334 223H37.1254V215.512H34.2934V214.6H40.9534V215.512H38.1334V223ZM46.4781 215.5H44.4741V214.6H49.5141V215.5H47.4981V222.1H49.5141V223H44.4741V222.1H46.4781V215.5ZM56.3587 222.244C57.6067 222.244 58.4587 221.08 58.4587 218.776C58.4587 216.532 57.6187 215.368 56.3587 215.368C55.0987 215.368 54.2587 216.484 54.2587 218.728C54.2587 221.032 55.0987 222.244 56.3587 222.244ZM56.3587 223.18C55.5067 223.18 54.7747 222.844 54.1627 222.172C53.5507 221.488 53.1787 220.276 53.1787 218.728C53.1787 217.36 53.4907 216.304 54.1147 215.548C54.7507 214.792 55.4947 214.42 56.3587 214.42C57.2227 214.42 57.9667 214.804 58.5907 215.572C59.2267 216.34 59.5387 217.408 59.5387 218.776C59.5387 220.324 59.1547 221.524 58.5427 222.196C57.9307 222.856 57.1867 223.18 56.3587 223.18ZM63.9954 223H63.0354V214.6H64.0794L67.4274 221.296H67.4514V214.6H68.4114V223H67.3914L64.0194 216.304H63.9954V223ZM86.7234 223H80.9634V222.1H83.4354V215.74L81.1314 217.192V216.112L83.5554 214.6H84.3594V222.1H86.7234V223Z" fill="#444444"/>
<rect x="1.5" y="258.5" width="232" height="59" fill="#FAFAFA"/>
<rect x="1.5" y="258.5" width="232" height="59" stroke="#E5E5E5"/>
<path d="M15.66 287.44C15.66 283.912 16.992 282.688 18.852 282.688C20.832 282.688 22.02 283.912 22.02 287.44C22.02 290.956 20.724 292.192 18.828 292.192C16.812 292.192 15.66 290.956 15.66 287.44ZM18.84 291.508C20.4 291.508 21.12 290.332 21.12 287.44C21.12 284.452 20.424 283.372 18.84 283.372C17.316 283.372 16.56 284.536 16.56 287.44C16.56 290.296 17.256 291.508 18.84 291.508ZM27.5278 288.352H25.7158V292H24.8638V282.82H27.5758C29.4718 282.82 30.6478 283.78 30.6478 285.544C30.6478 287.308 29.4838 288.352 27.5278 288.352ZM25.7158 287.656H27.5518C28.8358 287.656 29.7718 287.02 29.7718 285.556C29.7718 284.2 28.9558 283.516 27.5758 283.516H25.7158V287.656ZM39.5996 282.82V283.552H36.6116V292H35.7596V283.552H32.7716V282.82H39.5996ZM45.2873 283.516V291.304H47.4353V292H42.2993V291.304H44.4473V283.516H42.2993V282.82H47.4353V283.516H45.2873ZM50.3631 287.44C50.3631 283.912 51.6951 282.688 53.5551 282.688C55.5351 282.688 56.7231 283.912 56.7231 287.44C56.7231 290.956 55.4271 292.192 53.5311 292.192C51.5151 292.192 50.3631 290.956 50.3631 287.44ZM53.5431 291.508C55.1031 291.508 55.8231 290.332 55.8231 287.44C55.8231 284.452 55.1271 283.372 53.5431 283.372C52.0191 283.372 51.2631 284.536 51.2631 287.44C51.2631 290.296 51.9591 291.508 53.5431 291.508ZM59.3389 292V282.82H60.5029L63.8149 289.9C64.1149 290.536 64.2469 291.028 64.2469 291.028H64.3189V282.82H65.0989V292H63.9349L60.6829 285.064C60.3709 284.392 60.1789 283.792 60.1789 283.792H60.1189V292H59.3389ZM77.7465 285.976H76.9425C76.8945 284.056 78.1425 282.976 79.7385 282.976C81.5865 282.976 82.4385 284.152 82.4385 285.388C82.4385 286.564 81.9465 287.332 80.6505 288.568L79.0185 290.128C78.1905 290.908 77.8305 291.244 77.8305 291.244V291.28H82.6065V292H76.7625V291.304L79.9185 288.232C81.0465 287.14 81.5985 286.54 81.5985 285.424C81.5985 284.38 80.8785 283.672 79.7625 283.672C78.5865 283.672 77.7345 284.404 77.7465 285.976Z" fill="#111111"/>
<rect x="1.5" y="326.5" width="232" height="59" fill="#FAFAFA"/>
<rect x="1.5" y="326.5" width="232" height="59" stroke="#E5E5E5"/>
<path d="M15.66 355.44C15.66 351.912 16.992 350.688 18.852 350.688C20.832 350.688 22.02 351.912 22.02 355.44C22.02 358.956 20.724 360.192 18.828 360.192C16.812 360.192 15.66 358.956 15.66 355.44ZM18.84 359.508C20.4 359.508 21.12 358.332 21.12 355.44C21.12 352.452 20.424 351.372 18.84 351.372C17.316 351.372 16.56 352.536 16.56 355.44C16.56 358.296 17.256 359.508 18.84 359.508ZM27.5278 356.352H25.7158V360H24.8638V350.82H27.5758C29.4718 350.82 30.6478 351.78 30.6478 353.544C30.6478 355.308 29.4838 356.352 27.5278 356.352ZM25.7158 355.656H27.5518C28.8358 355.656 29.7718 355.02 29.7718 353.556C29.7718 352.2 28.9558 351.516 27.5758 351.516H25.7158V355.656ZM39.5996 350.82V351.552H36.6116V360H35.7596V351.552H32.7716V350.82H39.5996ZM45.2873 351.516V359.304H47.4353V360H42.2993V359.304H44.4473V351.516H42.2993V350.82H47.4353V351.516H45.2873ZM50.3631 355.44C50.3631 351.912 51.6951 350.688 53.5551 350.688C55.5351 350.688 56.7231 351.912 56.7231 355.44C56.7231 358.956 55.4271 360.192 53.5311 360.192C51.5151 360.192 50.3631 358.956 50.3631 355.44ZM53.5431 359.508C55.1031 359.508 55.8231 358.332 55.8231 355.44C55.8231 352.452 55.1271 351.372 53.5431 351.372C52.0191 351.372 51.2631 352.536 51.2631 355.44C51.2631 358.296 51.9591 359.508 53.5431 359.508ZM59.3389 360V350.82H60.5029L63.8149 357.9C64.1149 358.536 64.2469 359.028 64.2469 359.028H64.3189V350.82H65.0989V360H63.9349L60.6829 353.064C60.3709 352.392 60.1789 351.792 60.1789 351.792H60.1189V360H59.3389ZM79.6905 355.836H78.8745V355.116H79.6545C80.8665 355.116 81.4425 354.276 81.4425 353.352C81.4425 352.332 80.7345 351.684 79.6185 351.684C78.4665 351.684 77.7465 352.248 77.6985 353.616H76.8945C76.8825 352.176 77.7945 350.976 79.6425 350.976C81.2145 350.976 82.2705 351.876 82.2705 353.256C82.2705 354.348 81.6705 355.08 80.7105 355.404V355.428C81.7425 355.656 82.5105 356.352 82.5105 357.624C82.5105 359.04 81.3705 360.18 79.5825 360.18C77.5305 360.18 76.7505 358.92 76.6785 357.54H77.4825C77.6025 358.824 78.3345 359.484 79.6425 359.484C80.7945 359.484 81.6705 358.776 81.6705 357.612C81.6705 356.388 80.8425 355.836 79.6905 355.836Z" fill="#111111"/>
<path d="M437.958 50.076C437.547 49.5187 437.012 49.1153 436.352 48.866C435.692 48.602 435.047 48.47 434.416 48.47C433.609 48.47 432.876 48.6167 432.216 48.91C431.556 49.2033 430.984 49.6067 430.5 50.12C430.031 50.6333 429.664 51.2347 429.4 51.924C429.151 52.6133 429.026 53.3613 429.026 54.168C429.026 55.0187 429.151 55.796 429.4 56.5C429.649 57.204 430.001 57.8127 430.456 58.326C430.925 58.8247 431.483 59.2133 432.128 59.492C432.773 59.7707 433.499 59.91 434.306 59.91C435.142 59.91 435.883 59.7487 436.528 59.426C437.173 59.0887 437.694 58.6487 438.09 58.106L440.312 59.668C439.623 60.5333 438.779 61.208 437.782 61.692C436.785 62.1613 435.619 62.396 434.284 62.396C433.067 62.396 431.945 62.198 430.918 61.802C429.906 61.3913 429.033 60.8267 428.3 60.108C427.567 59.3747 426.995 58.5093 426.584 57.512C426.173 56.5 425.968 55.3853 425.968 54.168C425.968 52.9213 426.181 51.7993 426.606 50.802C427.046 49.79 427.64 48.932 428.388 48.228C429.151 47.524 430.045 46.9813 431.072 46.6C432.099 46.2187 433.213 46.028 434.416 46.028C434.915 46.028 435.435 46.0793 435.978 46.182C436.521 46.27 437.041 46.4167 437.54 46.622C438.039 46.8127 438.508 47.0547 438.948 47.348C439.388 47.6413 439.762 47.9933 440.07 48.404L437.958 50.076ZM441.946 45.368H444.586V62H441.946V45.368ZM447.833 51.44H450.473V62H447.833V51.44ZM447.459 47.854C447.459 47.4287 447.613 47.062 447.921 46.754C448.244 46.4313 448.647 46.27 449.131 46.27C449.615 46.27 450.018 46.424 450.341 46.732C450.678 47.0253 450.847 47.3993 450.847 47.854C450.847 48.3087 450.678 48.69 450.341 48.998C450.018 49.2913 449.615 49.438 449.131 49.438C448.647 49.438 448.244 49.284 447.921 48.976C447.613 48.6533 447.459 48.2793 447.459 47.854ZM461.112 55.664C461.112 55.3267 461.06 55.004 460.958 54.696C460.87 54.388 460.723 54.1167 460.518 53.882C460.312 53.6473 460.048 53.464 459.726 53.332C459.418 53.1853 459.051 53.112 458.626 53.112C457.834 53.112 457.159 53.354 456.602 53.838C456.059 54.3073 455.758 54.916 455.7 55.664H461.112ZM463.752 56.852C463.752 56.9693 463.752 57.0867 463.752 57.204C463.752 57.3213 463.744 57.4387 463.73 57.556H455.7C455.729 57.9373 455.824 58.2893 455.986 58.612C456.162 58.92 456.389 59.1913 456.668 59.426C456.946 59.646 457.262 59.822 457.614 59.954C457.966 60.086 458.332 60.152 458.714 60.152C459.374 60.152 459.931 60.0347 460.386 59.8C460.84 59.5507 461.214 59.2133 461.508 58.788L463.268 60.196C462.226 61.604 460.716 62.308 458.736 62.308C457.914 62.308 457.159 62.1833 456.47 61.934C455.78 61.67 455.179 61.3033 454.666 60.834C454.167 60.3647 453.771 59.7927 453.478 59.118C453.199 58.4287 453.06 57.6513 453.06 56.786C453.06 55.9353 453.199 55.1653 453.478 54.476C453.771 53.772 454.167 53.178 454.666 52.694C455.164 52.1953 455.751 51.814 456.426 51.55C457.115 51.2713 457.856 51.132 458.648 51.132C459.381 51.132 460.056 51.2567 460.672 51.506C461.302 51.7407 461.845 52.1 462.3 52.584C462.754 53.0533 463.106 53.6473 463.356 54.366C463.62 55.07 463.752 55.8987 463.752 56.852ZM466.309 51.44H468.817V53.134H468.861C469.095 52.606 469.499 52.144 470.071 51.748C470.657 51.3373 471.347 51.132 472.139 51.132C472.828 51.132 473.415 51.2567 473.899 51.506C474.397 51.7407 474.801 52.056 475.109 52.452C475.431 52.848 475.666 53.3027 475.813 53.816C475.959 54.3293 476.033 54.8573 476.033 55.4V62H473.393V56.148C473.393 55.84 473.371 55.5173 473.327 55.18C473.283 54.8427 473.187 54.542 473.041 54.278C472.894 53.9993 472.689 53.772 472.425 53.596C472.175 53.42 471.838 53.332 471.413 53.332C470.987 53.332 470.621 53.42 470.313 53.596C470.005 53.7573 469.748 53.97 469.543 54.234C469.352 54.498 469.205 54.806 469.103 55.158C469 55.4953 468.949 55.84 468.949 56.192V62H466.309V51.44ZM477.595 53.552V51.44H479.443V48.382H482.039V51.44H484.679V53.552H482.039V58.458C482.039 58.9273 482.12 59.316 482.281 59.624C482.457 59.932 482.839 60.086 483.425 60.086C483.601 60.086 483.792 60.0713 483.997 60.042C484.203 59.998 484.386 59.9393 484.547 59.866L484.635 61.934C484.401 62.022 484.122 62.088 483.799 62.132C483.477 62.1907 483.169 62.22 482.875 62.22C482.171 62.22 481.599 62.1247 481.159 61.934C480.719 61.7287 480.367 61.4573 480.103 61.12C479.854 60.768 479.678 60.372 479.575 59.932C479.487 59.4773 479.443 58.9933 479.443 58.48V53.552H477.595Z" fill="#444444"/>
<path d="M636 134.5L626 128.726V140.274L636 134.5ZM627 133.5H572V135.5H627V133.5Z" fill="#888888"/>
<rect width="233" height="80" transform="translate(339 94)" fill="#F1EBA1"/>
<path d="M421.935 129L421.071 126H417.963L417.087 129H416.235L418.983 119.82H420.099L422.847 129H421.935ZM419.571 120.66H419.463C419.451 120.72 419.319 121.368 419.163 121.908L418.167 125.304H420.867L419.871 121.896C419.703 121.332 419.571 120.66 419.571 120.66ZM426.503 129V119.82H427.367V128.256H432.035V129H426.503ZM435.463 129V119.82H440.815V120.564H436.315V123.96H440.275V124.68H436.315V128.256H440.863V129H435.463ZM449.534 129L447.518 125.088H445.37V129H444.506V119.82H447.422C448.094 119.82 448.718 119.94 449.234 120.216C449.942 120.612 450.398 121.308 450.398 122.364C450.398 123.9 449.438 124.68 448.382 124.944V124.968L450.494 129H449.534ZM445.37 124.38H447.446C448.586 124.38 449.51 123.804 449.51 122.376C449.51 121.176 448.742 120.54 447.434 120.54H445.37V124.38ZM459.91 119.82V120.552H456.922V129H456.07V120.552H453.082V119.82H459.91ZM473.486 124.992V129H472.634V119.82H478.058V120.564H473.486V124.272H477.59V124.992H473.486ZM481.029 124.44C481.029 120.912 482.361 119.688 484.221 119.688C486.201 119.688 487.389 120.912 487.389 124.44C487.389 127.956 486.093 129.192 484.197 129.192C482.181 129.192 481.029 127.956 481.029 124.44ZM484.209 128.508C485.769 128.508 486.489 127.332 486.489 124.44C486.489 121.452 485.793 120.372 484.209 120.372C482.685 120.372 481.929 121.536 481.929 124.44C481.929 127.296 482.625 128.508 484.209 128.508ZM495.713 129L493.697 125.088H491.549V129H490.685V119.82H493.601C494.273 119.82 494.897 119.94 495.413 120.216C496.121 120.612 496.577 121.308 496.577 122.364C496.577 123.9 495.617 124.68 494.561 124.944V124.968L496.673 129H495.713ZM491.549 124.38H493.625C494.765 124.38 495.689 123.804 495.689 122.376C495.689 121.176 494.921 120.54 493.613 120.54H491.549V124.38ZM384.054 142.44C384.054 138.912 385.386 137.688 387.246 137.688C389.226 137.688 390.414 138.912 390.414 142.44C390.414 145.956 389.118 147.192 387.222 147.192C385.206 147.192 384.054 145.956 384.054 142.44ZM387.234 146.508C388.794 146.508 389.514 145.332 389.514 142.44C389.514 139.452 388.818 138.372 387.234 138.372C385.71 138.372 384.954 139.536 384.954 142.44C384.954 145.296 385.65 146.508 387.234 146.508ZM396.482 143.352H394.67V147H393.818V137.82H396.53C398.426 137.82 399.602 138.78 399.602 140.544C399.602 142.308 398.438 143.352 396.482 143.352ZM394.67 142.656H396.506C397.79 142.656 398.726 142.02 398.726 140.556C398.726 139.2 397.91 138.516 396.53 138.516H394.67V142.656ZM409.113 137.82V138.552H406.125V147H405.273V138.552H402.285V137.82H409.113ZM415.361 138.516V146.304H417.509V147H412.373V146.304H414.521V138.516H412.373V137.82H417.509V138.516H415.361ZM420.997 142.44C420.997 138.912 422.329 137.688 424.189 137.688C426.169 137.688 427.357 138.912 427.357 142.44C427.357 145.956 426.061 147.192 424.165 147.192C422.149 147.192 420.997 145.956 420.997 142.44ZM424.177 146.508C425.737 146.508 426.457 145.332 426.457 142.44C426.457 139.452 425.761 138.372 424.177 138.372C422.653 138.372 421.897 139.536 421.897 142.44C421.897 145.296 422.593 146.508 424.177 146.508ZM430.533 147V137.82H431.697L435.009 144.9C435.309 145.536 435.441 146.028 435.441 146.028H435.513V137.82H436.293V147H435.129L431.877 140.064C431.565 139.392 431.373 138.792 431.373 138.792H431.313V147H430.533ZM445.648 140.268H444.796C444.712 139.248 444.16 138.396 442.756 138.396C441.52 138.396 440.728 139.032 440.728 140.112C440.728 141.144 441.22 141.54 442.3 141.792L443.596 142.092C445.156 142.452 445.78 143.22 445.78 144.54C445.78 146.1 444.688 147.18 442.648 147.18C440.68 147.18 439.684 146.016 439.552 144.456H440.38C440.5 145.536 441.136 146.472 442.696 146.472C444.316 146.472 444.904 145.596 444.904 144.612C444.904 143.664 444.52 143.148 443.368 142.884L442.18 142.608C440.476 142.212 439.888 141.504 439.888 140.136C439.888 138.636 441.088 137.688 442.768 137.688C444.616 137.688 445.528 138.72 445.648 140.268ZM463.388 147L461.372 143.088H459.224V147H458.36V137.82H461.276C461.948 137.82 462.572 137.94 463.088 138.216C463.796 138.612 464.252 139.308 464.252 140.364C464.252 141.9 463.292 142.68 462.236 142.944V142.968L464.348 147H463.388ZM459.224 142.38H461.3C462.44 142.38 463.364 141.804 463.364 140.376C463.364 139.176 462.596 138.54 461.288 138.54H459.224V142.38ZM467.788 147V137.82H473.14V138.564H468.64V141.96H472.6V142.68H468.64V146.256H473.188V147H467.788ZM482.712 140.46H481.848C481.74 139.464 481.2 138.372 479.796 138.372C477.948 138.372 477.396 139.872 477.396 142.452C477.396 145.104 478.116 146.496 479.82 146.496C481.188 146.496 481.752 145.392 481.848 144.336H482.688C482.544 146.04 481.44 147.192 479.772 147.192C477.72 147.192 476.496 145.86 476.496 142.452C476.496 139.26 477.624 137.676 479.808 137.676C481.344 137.676 482.556 138.636 482.712 140.46ZM486.259 147V137.82H491.611V138.564H487.111V141.96H491.071V142.68H487.111V146.256H491.659V147H486.259ZM498.483 138.516V146.304H500.631V147H495.495V146.304H497.643V138.516H495.495V137.82H500.631V138.516H498.483ZM510.587 137.82L507.875 147H506.723L504.011 137.82H504.899L506.963 144.948C507.131 145.512 507.263 146.16 507.263 146.16H507.371C507.371 146.16 507.515 145.5 507.683 144.936L509.747 137.82H510.587ZM513.967 147V137.82H519.319V138.564H514.819V141.96H518.779V142.68H514.819V146.256H519.367V147H513.967ZM522.866 147V137.82H525.002C527.21 137.82 529.034 139.068 529.034 142.344C529.034 145.656 527.282 147 525.086 147H522.866ZM523.718 146.256H525.002C526.766 146.256 528.134 145.332 528.134 142.38C528.134 139.62 526.754 138.552 525.05 138.552H523.718V146.256Z" fill="#444444"/>
<rect x="339.5" y="190.5" width="232" height="59" fill="#FAFAFA"/>
<rect x="339.5" y="190.5" width="232" height="59" stroke="#E5E5E5"/>
<path d="M356.9 222.244C358.148 222.244 359 221.08 359 218.776C359 216.532 358.16 215.368 356.9 215.368C355.64 215.368 354.8 216.484 354.8 218.728C354.8 221.032 355.64 222.244 356.9 222.244ZM356.9 223.18C356.048 223.18 355.316 222.844 354.704 222.172C354.092 221.488 353.72 220.276 353.72 218.728C353.72 217.36 354.032 216.304 354.656 215.548C355.292 214.792 356.036 214.42 356.9 214.42C357.764 214.42 358.508 214.804 359.132 215.572C359.768 216.34 360.08 217.408 360.08 218.776C360.08 220.324 359.696 221.524 359.084 222.196C358.472 222.856 357.728 223.18 356.9 223.18ZM364.777 223H363.757V214.6H366.649C368.341 214.6 369.481 215.548 369.481 217.192C369.481 218.824 368.389 219.76 366.673 219.76H364.777V223ZM364.777 215.512V218.848H366.613C367.669 218.848 368.449 218.284 368.449 217.192C368.449 216.052 367.657 215.512 366.589 215.512H364.777ZM376.133 223H375.125V215.512H372.293V214.6H378.953V215.512H376.133V223ZM384.478 215.5H382.474V214.6H387.514V215.5H385.498V222.1H387.514V223H382.474V222.1H384.478V215.5ZM394.359 222.244C395.607 222.244 396.459 221.08 396.459 218.776C396.459 216.532 395.619 215.368 394.359 215.368C393.099 215.368 392.259 216.484 392.259 218.728C392.259 221.032 393.099 222.244 394.359 222.244ZM394.359 223.18C393.507 223.18 392.775 222.844 392.163 222.172C391.551 221.488 391.179 220.276 391.179 218.728C391.179 217.36 391.491 216.304 392.115 215.548C392.751 214.792 393.495 214.42 394.359 214.42C395.223 214.42 395.967 214.804 396.591 215.572C397.227 216.34 397.539 217.408 397.539 218.776C397.539 220.324 397.155 221.524 396.543 222.196C395.931 222.856 395.187 223.18 394.359 223.18ZM401.995 223H401.035V214.6H402.079L405.427 221.296H405.451V214.6H406.411V223H405.391L402.019 216.304H401.995V223ZM424.723 223H418.963V222.1H421.435V215.74L419.131 217.192V216.112L421.555 214.6H422.359V222.1H424.723V223Z" fill="#444444"/>
<rect x="339.5" y="258.5" width="232" height="59" fill="#FAFAFA"/>
<rect x="339.5" y="258.5" width="232" height="59" stroke="#E5E5E5"/>
<path d="M353.66 287.44C353.66 283.912 354.992 282.688 356.852 282.688C358.832 282.688 360.02 283.912 360.02 287.44C360.02 290.956 358.724 292.192 356.828 292.192C354.812 292.192 353.66 290.956 353.66 287.44ZM356.84 291.508C358.4 291.508 359.12 290.332 359.12 287.44C359.12 284.452 358.424 283.372 356.84 283.372C355.316 283.372 354.56 284.536 354.56 287.44C354.56 290.296 355.256 291.508 356.84 291.508ZM365.528 288.352H363.716V292H362.864V282.82H365.576C367.472 282.82 368.648 283.78 368.648 285.544C368.648 287.308 367.484 288.352 365.528 288.352ZM363.716 287.656H365.552C366.836 287.656 367.772 287.02 367.772 285.556C367.772 284.2 366.956 283.516 365.576 283.516H363.716V287.656ZM377.6 282.82V283.552H374.612V292H373.76V283.552H370.772V282.82H377.6ZM383.287 283.516V291.304H385.435V292H380.299V291.304H382.447V283.516H380.299V282.82H385.435V283.516H383.287ZM388.363 287.44C388.363 283.912 389.695 282.688 391.555 282.688C393.535 282.688 394.723 283.912 394.723 287.44C394.723 290.956 393.427 292.192 391.531 292.192C389.515 292.192 388.363 290.956 388.363 287.44ZM391.543 291.508C393.103 291.508 393.823 290.332 393.823 287.44C393.823 284.452 393.127 283.372 391.543 283.372C390.019 283.372 389.263 284.536 389.263 287.44C389.263 290.296 389.959 291.508 391.543 291.508ZM397.339 292V282.82H398.503L401.815 289.9C402.115 290.536 402.247 291.028 402.247 291.028H402.319V282.82H403.099V292H401.935L398.683 285.064C398.371 284.392 398.179 283.792 398.179 283.792H398.119V292H397.339ZM415.746 285.976H414.942C414.894 284.056 416.142 282.976 417.738 282.976C419.586 282.976 420.438 284.152 420.438 285.388C420.438 286.564 419.946 287.332 418.65 288.568L417.018 290.128C416.19 290.908 415.83 291.244 415.83 291.244V291.28H420.606V292H414.762V291.304L417.918 288.232C419.046 287.14 419.598 286.54 419.598 285.424C419.598 284.38 418.878 283.672 417.762 283.672C416.586 283.672 415.734 284.404 415.746 285.976Z" fill="#444444"/>
<rect x="339.5" y="326.5" width="232" height="59" fill="#FAFAFA"/>
<rect x="339.5" y="326.5" width="232" height="59" stroke="#E5E5E5"/>
<path d="M353.66 355.44C353.66 351.912 354.992 350.688 356.852 350.688C358.832 350.688 360.02 351.912 360.02 355.44C360.02 358.956 358.724 360.192 356.828 360.192C354.812 360.192 353.66 358.956 353.66 355.44ZM356.84 359.508C358.4 359.508 359.12 358.332 359.12 355.44C359.12 352.452 358.424 351.372 356.84 351.372C355.316 351.372 354.56 352.536 354.56 355.44C354.56 358.296 355.256 359.508 356.84 359.508ZM365.528 356.352H363.716V360H362.864V350.82H365.576C367.472 350.82 368.648 351.78 368.648 353.544C368.648 355.308 367.484 356.352 365.528 356.352ZM363.716 355.656H365.552C366.836 355.656 367.772 355.02 367.772 353.556C367.772 352.2 366.956 351.516 365.576 351.516H363.716V355.656ZM377.6 350.82V351.552H374.612V360H373.76V351.552H370.772V350.82H377.6ZM383.287 351.516V359.304H385.435V360H380.299V359.304H382.447V351.516H380.299V350.82H385.435V351.516H383.287ZM388.363 355.44C388.363 351.912 389.695 350.688 391.555 350.688C393.535 350.688 394.723 351.912 394.723 355.44C394.723 358.956 393.427 360.192 391.531 360.192C389.515 360.192 388.363 358.956 388.363 355.44ZM391.543 359.508C393.103 359.508 393.823 358.332 393.823 355.44C393.823 352.452 393.127 351.372 391.543 351.372C390.019 351.372 389.263 352.536 389.263 355.44C389.263 358.296 389.959 359.508 391.543 359.508ZM397.339 360V350.82H398.503L401.815 357.9C402.115 358.536 402.247 359.028 402.247 359.028H402.319V350.82H403.099V360H401.935L398.683 353.064C398.371 352.392 398.179 351.792 398.179 351.792H398.119V360H397.339ZM417.69 355.836H416.874V355.116H417.654C418.866 355.116 419.442 354.276 419.442 353.352C419.442 352.332 418.734 351.684 417.618 351.684C416.466 351.684 415.746 352.248 415.698 353.616H414.894C414.882 352.176 415.794 350.976 417.642 350.976C419.214 350.976 420.27 351.876 420.27 353.256C420.27 354.348 419.67 355.08 418.71 355.404V355.428C419.742 355.656 420.51 356.352 420.51 357.624C420.51 359.04 419.37 360.18 417.582 360.18C415.53 360.18 414.75 358.92 414.678 357.54H415.482C415.602 358.824 416.334 359.484 417.642 359.484C418.794 359.484 419.67 358.776 419.67 357.612C419.67 356.388 418.842 355.836 417.69 355.836Z" fill="#444444"/>
<path d="M748.716 46.424H754.238C755.25 46.424 756.269 46.556 757.296 46.82C758.323 47.084 759.247 47.524 760.068 48.14C760.889 48.7413 761.557 49.5407 762.07 50.538C762.583 51.5207 762.84 52.7453 762.84 54.212C762.84 55.576 762.583 56.7493 762.07 57.732C761.557 58.7147 760.889 59.5213 760.068 60.152C759.247 60.7827 758.323 61.252 757.296 61.56C756.269 61.8533 755.25 62 754.238 62H748.716V46.424ZM753.798 59.58C754.517 59.58 755.235 59.4993 755.954 59.338C756.673 59.162 757.318 58.876 757.89 58.48C758.477 58.0693 758.953 57.5193 759.32 56.83C759.687 56.1407 759.87 55.268 759.87 54.212C759.87 53.0973 759.687 52.188 759.32 51.484C758.953 50.78 758.477 50.23 757.89 49.834C757.318 49.438 756.673 49.1667 755.954 49.02C755.235 48.8733 754.517 48.8 753.798 48.8H751.488V59.58H753.798ZM772.821 55.664C772.821 55.3267 772.769 55.004 772.667 54.696C772.579 54.388 772.432 54.1167 772.227 53.882C772.021 53.6473 771.757 53.464 771.435 53.332C771.127 53.1853 770.76 53.112 770.335 53.112C769.543 53.112 768.868 53.354 768.311 53.838C767.768 54.3073 767.467 54.916 767.409 55.664H772.821ZM775.461 56.852C775.461 56.9693 775.461 57.0867 775.461 57.204C775.461 57.3213 775.453 57.4387 775.439 57.556H767.409C767.438 57.9373 767.533 58.2893 767.695 58.612C767.871 58.92 768.098 59.1913 768.377 59.426C768.655 59.646 768.971 59.822 769.323 59.954C769.675 60.086 770.041 60.152 770.423 60.152C771.083 60.152 771.64 60.0347 772.095 59.8C772.549 59.5507 772.923 59.2133 773.217 58.788L774.977 60.196C773.935 61.604 772.425 62.308 770.445 62.308C769.623 62.308 768.868 62.1833 768.179 61.934C767.489 61.67 766.888 61.3033 766.375 60.834C765.876 60.3647 765.48 59.7927 765.187 59.118C764.908 58.4287 764.769 57.6513 764.769 56.786C764.769 55.9353 764.908 55.1653 765.187 54.476C765.48 53.772 765.876 53.178 766.375 52.694C766.873 52.1953 767.46 51.814 768.135 51.55C768.824 51.2713 769.565 51.132 770.357 51.132C771.09 51.132 771.765 51.2567 772.381 51.506C773.011 51.7407 773.554 52.1 774.009 52.584C774.463 53.0533 774.815 53.6473 775.065 54.366C775.329 55.07 775.461 55.8987 775.461 56.852ZM783.804 54.256C783.569 53.948 783.246 53.684 782.836 53.464C782.425 53.2293 781.978 53.112 781.494 53.112C781.068 53.112 780.68 53.2 780.328 53.376C779.976 53.552 779.8 53.8453 779.8 54.256C779.8 54.6667 779.99 54.96 780.372 55.136C780.768 55.2973 781.34 55.466 782.088 55.642C782.484 55.73 782.88 55.8473 783.276 55.994C783.686 56.1407 784.053 56.3387 784.376 56.588C784.713 56.8227 784.984 57.1233 785.19 57.49C785.395 57.842 785.498 58.2747 785.498 58.788C785.498 59.4333 785.373 59.9833 785.124 60.438C784.889 60.878 784.566 61.2373 784.156 61.516C783.76 61.7947 783.29 61.9927 782.748 62.11C782.22 62.242 781.67 62.308 781.098 62.308C780.276 62.308 779.477 62.1613 778.7 61.868C777.922 61.56 777.277 61.1273 776.764 60.57L778.502 58.942C778.795 59.3233 779.176 59.6387 779.646 59.888C780.115 60.1373 780.636 60.262 781.208 60.262C781.398 60.262 781.589 60.24 781.78 60.196C781.985 60.152 782.168 60.086 782.33 59.998C782.506 59.8953 782.645 59.7633 782.748 59.602C782.85 59.4407 782.902 59.2427 782.902 59.008C782.902 58.568 782.696 58.2527 782.286 58.062C781.89 57.8713 781.288 57.6807 780.482 57.49C780.086 57.402 779.697 57.292 779.316 57.16C778.949 57.0133 778.619 56.83 778.326 56.61C778.032 56.3753 777.798 56.0893 777.622 55.752C777.446 55.4147 777.358 54.9967 777.358 54.498C777.358 53.9113 777.475 53.4053 777.71 52.98C777.959 52.5547 778.282 52.21 778.678 51.946C779.074 51.6673 779.521 51.462 780.02 51.33C780.518 51.198 781.032 51.132 781.56 51.132C782.322 51.132 783.063 51.264 783.782 51.528C784.515 51.792 785.094 52.1953 785.52 52.738L783.804 54.256ZM787.837 51.44H790.477V62H787.837V51.44ZM787.463 47.854C787.463 47.4287 787.617 47.062 787.925 46.754C788.248 46.4313 788.651 46.27 789.135 46.27C789.619 46.27 790.022 46.424 790.345 46.732C790.682 47.0253 790.851 47.3993 790.851 47.854C790.851 48.3087 790.682 48.69 790.345 48.998C790.022 49.2913 789.619 49.438 789.135 49.438C788.651 49.438 788.248 49.284 787.925 48.976C787.617 48.6533 787.463 48.2793 787.463 47.854ZM804.416 51.44V61.054C804.416 62.0073 804.298 62.8653 804.064 63.628C803.829 64.4053 803.462 65.058 802.964 65.586C802.48 66.1287 801.864 66.5467 801.116 66.84C800.368 67.1333 799.48 67.28 798.454 67.28C798.028 67.28 797.574 67.2433 797.09 67.17C796.62 67.0967 796.151 66.9867 795.682 66.84C795.227 66.6933 794.787 66.51 794.362 66.29C793.936 66.07 793.555 65.8207 793.218 65.542L794.736 63.496C795.249 63.98 795.828 64.3467 796.474 64.596C797.119 64.86 797.772 64.992 798.432 64.992C799.062 64.992 799.59 64.8967 800.016 64.706C800.456 64.53 800.8 64.2807 801.05 63.958C801.314 63.6353 801.497 63.254 801.6 62.814C801.717 62.374 801.776 61.89 801.776 61.362V60.592H801.732C801.35 61.1053 800.859 61.5013 800.258 61.78C799.671 62.044 799.011 62.176 798.278 62.176C797.486 62.176 796.767 62.0293 796.122 61.736C795.476 61.4427 794.926 61.0467 794.472 60.548C794.032 60.0493 793.687 59.47 793.438 58.81C793.188 58.1353 793.064 57.424 793.064 56.676C793.064 55.9133 793.181 55.1947 793.416 54.52C793.665 53.8453 794.01 53.2587 794.45 52.76C794.904 52.2613 795.447 51.8653 796.078 51.572C796.723 51.2787 797.442 51.132 798.234 51.132C798.982 51.132 799.678 51.286 800.324 51.594C800.969 51.902 801.482 52.3787 801.864 53.024H801.908V51.44H804.416ZM798.784 53.288C798.3 53.288 797.867 53.376 797.486 53.552C797.119 53.728 796.804 53.97 796.54 54.278C796.29 54.5713 796.092 54.9233 795.946 55.334C795.814 55.7447 795.748 56.1847 795.748 56.654C795.748 57.0793 795.814 57.49 795.946 57.886C796.092 58.282 796.29 58.6413 796.54 58.964C796.804 59.272 797.119 59.5213 797.486 59.712C797.867 59.9027 798.292 59.998 798.762 59.998C799.246 59.998 799.678 59.91 800.06 59.734C800.456 59.5433 800.786 59.294 801.05 58.986C801.328 58.678 801.541 58.326 801.688 57.93C801.834 57.5193 801.908 57.094 801.908 56.654C801.908 56.1993 801.834 55.7667 801.688 55.356C801.541 54.9453 801.328 54.586 801.05 54.278C800.786 53.97 800.463 53.728 800.082 53.552C799.7 53.376 799.268 53.288 798.784 53.288ZM807.58 51.44H810.088V53.134H810.132C810.367 52.606 810.77 52.144 811.342 51.748C811.929 51.3373 812.618 51.132 813.41 51.132C814.099 51.132 814.686 51.2567 815.17 51.506C815.669 51.7407 816.072 52.056 816.38 52.452C816.703 52.848 816.937 53.3027 817.084 53.816C817.231 54.3293 817.304 54.8573 817.304 55.4V62H814.664V56.148C814.664 55.84 814.642 55.5173 814.598 55.18C814.554 54.8427 814.459 54.542 814.312 54.278C814.165 53.9993 813.96 53.772 813.696 53.596C813.447 53.42 813.109 53.332 812.684 53.332C812.259 53.332 811.892 53.42 811.584 53.596C811.276 53.7573 811.019 53.97 810.814 54.234C810.623 54.498 810.477 54.806 810.374 55.158C810.271 55.4953 810.22 55.84 810.22 56.192V62H807.58V51.44ZM827.821 55.664C827.821 55.3267 827.769 55.004 827.667 54.696C827.579 54.388 827.432 54.1167 827.227 53.882C827.021 53.6473 826.757 53.464 826.435 53.332C826.127 53.1853 825.76 53.112 825.335 53.112C824.543 53.112 823.868 53.354 823.311 53.838C822.768 54.3073 822.467 54.916 822.409 55.664H827.821ZM830.461 56.852C830.461 56.9693 830.461 57.0867 830.461 57.204C830.461 57.3213 830.453 57.4387 830.439 57.556H822.409C822.438 57.9373 822.533 58.2893 822.695 58.612C822.871 58.92 823.098 59.1913 823.377 59.426C823.655 59.646 823.971 59.822 824.323 59.954C824.675 60.086 825.041 60.152 825.423 60.152C826.083 60.152 826.64 60.0347 827.095 59.8C827.549 59.5507 827.923 59.2133 828.217 58.788L829.977 60.196C828.935 61.604 827.425 62.308 825.445 62.308C824.623 62.308 823.868 62.1833 823.179 61.934C822.489 61.67 821.888 61.3033 821.375 60.834C820.876 60.3647 820.48 59.7927 820.187 59.118C819.908 58.4287 819.769 57.6513 819.769 56.786C819.769 55.9353 819.908 55.1653 820.187 54.476C820.48 53.772 820.876 53.178 821.375 52.694C821.873 52.1953 822.46 51.814 823.135 51.55C823.824 51.2713 824.565 51.132 825.357 51.132C826.09 51.132 826.765 51.2567 827.381 51.506C828.011 51.7407 828.554 52.1 829.009 52.584C829.463 53.0533 829.815 53.6473 830.065 54.366C830.329 55.07 830.461 55.8987 830.461 56.852ZM833.018 51.44H835.548V53.2H835.592C835.885 52.584 836.296 52.0853 836.824 51.704C837.352 51.3227 837.968 51.132 838.672 51.132C838.774 51.132 838.884 51.1393 839.002 51.154C839.119 51.154 839.222 51.1687 839.31 51.198V53.618C839.134 53.574 838.98 53.5447 838.848 53.53C838.73 53.5153 838.613 53.508 838.496 53.508C837.894 53.508 837.41 53.618 837.044 53.838C836.677 54.058 836.391 54.322 836.186 54.63C835.98 54.938 835.841 55.2533 835.768 55.576C835.694 55.8987 835.658 56.1553 835.658 56.346V62H833.018V51.44Z" fill="#444444"/>
<path d="M974 134.5L964 128.726V140.274L974 134.5ZM965 133.5H910V135.5H965V133.5Z" fill="#888888"/>
<rect width="233" height="80" transform="translate(677 94)" fill="#F1EBA1"/>
<path d="M759.935 129L759.071 126H755.963L755.087 129H754.235L756.983 119.82H758.099L760.847 129H759.935ZM757.571 120.66H757.463C757.451 120.72 757.319 121.368 757.163 121.908L756.167 125.304H758.867L757.871 121.896C757.703 121.332 757.571 120.66 757.571 120.66ZM764.503 129V119.82H765.367V128.256H770.035V129H764.503ZM773.463 129V119.82H778.815V120.564H774.315V123.96H778.275V124.68H774.315V128.256H778.863V129H773.463ZM787.534 129L785.518 125.088H783.37V129H782.506V119.82H785.422C786.094 119.82 786.718 119.94 787.234 120.216C787.942 120.612 788.398 121.308 788.398 122.364C788.398 123.9 787.438 124.68 786.382 124.944V124.968L788.494 129H787.534ZM783.37 124.38H785.446C786.586 124.38 787.51 123.804 787.51 122.376C787.51 121.176 786.742 120.54 785.434 120.54H783.37V124.38ZM797.91 119.82V120.552H794.922V129H794.07V120.552H791.082V119.82H797.91ZM811.486 124.992V129H810.634V119.82H816.058V120.564H811.486V124.272H815.59V124.992H811.486ZM819.029 124.44C819.029 120.912 820.361 119.688 822.221 119.688C824.201 119.688 825.389 120.912 825.389 124.44C825.389 127.956 824.093 129.192 822.197 129.192C820.181 129.192 819.029 127.956 819.029 124.44ZM822.209 128.508C823.769 128.508 824.489 127.332 824.489 124.44C824.489 121.452 823.793 120.372 822.209 120.372C820.685 120.372 819.929 121.536 819.929 124.44C819.929 127.296 820.625 128.508 822.209 128.508ZM833.713 129L831.697 125.088H829.549V129H828.685V119.82H831.601C832.273 119.82 832.897 119.94 833.413 120.216C834.121 120.612 834.577 121.308 834.577 122.364C834.577 123.9 833.617 124.68 832.561 124.944V124.968L834.673 129H833.713ZM829.549 124.38H831.625C832.765 124.38 833.689 123.804 833.689 122.376C833.689 121.176 832.921 120.54 831.613 120.54H829.549V124.38ZM722.054 142.44C722.054 138.912 723.386 137.688 725.246 137.688C727.226 137.688 728.414 138.912 728.414 142.44C728.414 145.956 727.118 147.192 725.222 147.192C723.206 147.192 722.054 145.956 722.054 142.44ZM725.234 146.508C726.794 146.508 727.514 145.332 727.514 142.44C727.514 139.452 726.818 138.372 725.234 138.372C723.71 138.372 722.954 139.536 722.954 142.44C722.954 145.296 723.65 146.508 725.234 146.508ZM734.482 143.352H732.67V147H731.818V137.82H734.53C736.426 137.82 737.602 138.78 737.602 140.544C737.602 142.308 736.438 143.352 734.482 143.352ZM732.67 142.656H734.506C735.79 142.656 736.726 142.02 736.726 140.556C736.726 139.2 735.91 138.516 734.53 138.516H732.67V142.656ZM747.113 137.82V138.552H744.125V147H743.273V138.552H740.285V137.82H747.113ZM753.361 138.516V146.304H755.509V147H750.373V146.304H752.521V138.516H750.373V137.82H755.509V138.516H753.361ZM758.997 142.44C758.997 138.912 760.329 137.688 762.189 137.688C764.169 137.688 765.357 138.912 765.357 142.44C765.357 145.956 764.061 147.192 762.165 147.192C760.149 147.192 758.997 145.956 758.997 142.44ZM762.177 146.508C763.737 146.508 764.457 145.332 764.457 142.44C764.457 139.452 763.761 138.372 762.177 138.372C760.653 138.372 759.897 139.536 759.897 142.44C759.897 145.296 760.593 146.508 762.177 146.508ZM768.533 147V137.82H769.697L773.009 144.9C773.309 145.536 773.441 146.028 773.441 146.028H773.513V137.82H774.293V147H773.129L769.877 140.064C769.565 139.392 769.373 138.792 769.373 138.792H769.313V147H768.533ZM783.648 140.268H782.796C782.712 139.248 782.16 138.396 780.756 138.396C779.52 138.396 778.728 139.032 778.728 140.112C778.728 141.144 779.22 141.54 780.3 141.792L781.596 142.092C783.156 142.452 783.78 143.22 783.78 144.54C783.78 146.1 782.688 147.18 780.648 147.18C778.68 147.18 777.684 146.016 777.552 144.456H778.38C778.5 145.536 779.136 146.472 780.696 146.472C782.316 146.472 782.904 145.596 782.904 144.612C782.904 143.664 782.52 143.148 781.368 142.884L780.18 142.608C778.476 142.212 777.888 141.504 777.888 140.136C777.888 138.636 779.088 137.688 780.768 137.688C782.616 137.688 783.528 138.72 783.648 140.268ZM801.388 147L799.372 143.088H797.224V147H796.36V137.82H799.276C799.948 137.82 800.572 137.94 801.088 138.216C801.796 138.612 802.252 139.308 802.252 140.364C802.252 141.9 801.292 142.68 800.236 142.944V142.968L802.348 147H801.388ZM797.224 142.38H799.3C800.44 142.38 801.364 141.804 801.364 140.376C801.364 139.176 800.596 138.54 799.288 138.54H797.224V142.38ZM805.788 147V137.82H811.14V138.564H806.64V141.96H810.6V142.68H806.64V146.256H811.188V147H805.788ZM820.712 140.46H819.848C819.74 139.464 819.2 138.372 817.796 138.372C815.948 138.372 815.396 139.872 815.396 142.452C815.396 145.104 816.116 146.496 817.82 146.496C819.188 146.496 819.752 145.392 819.848 144.336H820.688C820.544 146.04 819.44 147.192 817.772 147.192C815.72 147.192 814.496 145.86 814.496 142.452C814.496 139.26 815.624 137.676 817.808 137.676C819.344 137.676 820.556 138.636 820.712 140.46ZM824.259 147V137.82H829.611V138.564H825.111V141.96H829.071V142.68H825.111V146.256H829.659V147H824.259ZM836.483 138.516V146.304H838.631V147H833.495V146.304H835.643V138.516H833.495V137.82H838.631V138.516H836.483ZM848.587 137.82L845.875 147H844.723L842.011 137.82H842.899L844.963 144.948C845.131 145.512 845.263 146.16 845.263 146.16H845.371C845.371 146.16 845.515 145.5 845.683 144.936L847.747 137.82H848.587ZM851.967 147V137.82H857.319V138.564H852.819V141.96H856.779V142.68H852.819V146.256H857.367V147H851.967ZM860.866 147V137.82H863.002C865.21 137.82 867.034 139.068 867.034 142.344C867.034 145.656 865.282 147 863.086 147H860.866ZM861.718 146.256H863.002C864.766 146.256 866.134 145.332 866.134 142.38C866.134 139.62 864.754 138.552 863.05 138.552H861.718V146.256Z" fill="#444444"/>
<g opacity="0.5">
<rect x="677.5" y="190.5" width="232" height="59" fill="#FAFAFA"/>
<rect x="677.5" y="190.5" width="232" height="59" stroke="#E5E5E5"/>
<rect x="677.5" y="190.5" width="232" height="59" fill="#FAFAFA"/>
<rect x="677.5" y="190.5" width="232" height="59" stroke="#E5E5E5"/>
<path d="M691.66 219.44C691.66 215.912 692.992 214.688 694.852 214.688C696.832 214.688 698.02 215.912 698.02 219.44C698.02 222.956 696.724 224.192 694.828 224.192C692.812 224.192 691.66 222.956 691.66 219.44ZM694.84 223.508C696.4 223.508 697.12 222.332 697.12 219.44C697.12 216.452 696.424 215.372 694.84 215.372C693.316 215.372 692.56 216.536 692.56 219.44C692.56 222.296 693.256 223.508 694.84 223.508ZM703.528 220.352H701.716V224H700.864V214.82H703.576C705.472 214.82 706.648 215.78 706.648 217.544C706.648 219.308 705.484 220.352 703.528 220.352ZM701.716 219.656H703.552C704.836 219.656 705.772 219.02 705.772 217.556C705.772 216.2 704.956 215.516 703.576 215.516H701.716V219.656ZM715.6 214.82V215.552H712.612V224H711.76V215.552H708.772V214.82H715.6ZM721.287 215.516V223.304H723.435V224H718.299V223.304H720.447V215.516H718.299V214.82H723.435V215.516H721.287ZM726.363 219.44C726.363 215.912 727.695 214.688 729.555 214.688C731.535 214.688 732.723 215.912 732.723 219.44C732.723 222.956 731.427 224.192 729.531 224.192C727.515 224.192 726.363 222.956 726.363 219.44ZM729.543 223.508C731.103 223.508 731.823 222.332 731.823 219.44C731.823 216.452 731.127 215.372 729.543 215.372C728.019 215.372 727.263 216.536 727.263 219.44C727.263 222.296 727.959 223.508 729.543 223.508ZM735.339 224V214.82H736.503L739.815 221.9C740.115 222.536 740.247 223.028 740.247 223.028H740.319V214.82H741.099V224H739.935L736.683 217.064C736.371 216.392 736.179 215.792 736.179 215.792H736.119V224H735.339ZM758.342 224H753.086V223.316H755.318V217.28H753.218V216.608H753.974C754.514 216.608 754.874 216.548 755.102 216.308C755.354 216.056 755.426 215.708 755.438 215.072H756.134V223.316H758.342V224Z" fill="#444444"/>
<path fill-rule="evenodd" clip-rule="evenodd" d="M877.788 212.025C879.089 212.104 880.092 213.101 880.092 214.321C880.092 214.37 880.092 214.408 880.092 214.441C880.783 214.847 881.215 215.571 881.215 216.385C881.215 216.56 881.197 216.726 881.159 216.887C881.678 217.309 881.985 217.935 881.985 218.614C881.985 219.092 881.827 219.55 881.544 219.943C881.731 220.268 881.831 220.628 881.831 221.008C881.831 221.613 881.583 222.173 881.134 222.621C880.62 223.078 879.994 223.324 879.35 223.324H875.801L875.97 224.353C876.009 224.708 876.021 224.858 876.021 225.053C876.021 227.006 874.589 229 872.88 229C872.357 229 871.833 228.823 871.413 228.508L871.246 228.374L871.039 228.207L871.281 225.28C871.29 225.22 871.285 225.176 871.268 225.096C871.259 225.053 871.239 225.006 871.204 224.951L868.973 221.072L868 220.3V213.198L868.925 212.827C868.916 212.83 868.922 212.825 868.933 212.815C868.938 212.811 868.944 212.806 868.95 212.8C869.16 212.625 869.366 212.493 869.587 212.385C870.176 212.096 870.745 212.004 871.187 212.004L877.767 212.025L877.788 212.025ZM877.757 213.024L877.766 213.025L871.184 213.004C871.103 213.004 870.98 213.013 870.814 213.039C870.543 213.083 870.274 213.162 870.027 213.283C869.875 213.357 869.736 213.446 869.612 213.549C869.538 213.62 869.429 213.694 869.329 213.741L869 213.874V219.817L869.669 220.348L869.792 220.49L872.059 224.432C872.144 224.564 872.211 224.723 872.246 224.887C872.292 225.099 872.306 225.249 872.268 225.426L872.079 227.756C872.307 227.909 872.597 228 872.88 228C873.952 228 875.021 226.511 875.021 225.053C875.021 224.905 875.011 224.779 874.98 224.487L874.719 222.905L874.624 222.324H879.35C879.745 222.324 880.136 222.17 880.449 221.893C880.694 221.647 880.831 221.338 880.831 221.008C880.831 220.729 880.73 220.47 880.533 220.238L880.232 219.886L880.56 219.56C880.835 219.286 880.985 218.954 880.985 218.614C880.985 218.16 880.736 217.75 880.323 217.526L879.902 217.299L880.111 216.868C880.183 216.72 880.215 216.57 880.215 216.385C880.215 215.857 879.888 215.398 879.37 215.201L878.934 215.034L879.07 214.588C879.08 214.556 879.085 214.525 879.089 214.486C879.092 214.448 879.092 214.413 879.092 214.321C879.092 213.645 878.514 213.07 877.757 213.024Z" fill="#222222"/>
<path fill-rule="evenodd" clip-rule="evenodd" d="M862 222V212H869V222H862ZM868 221V213H863V221H868Z" fill="#222222"/>
</g>
<g opacity="0.5">
<rect x="677.5" y="258.5" width="232" height="59" fill="#FAFAFA"/>
<rect x="677.5" y="258.5" width="232" height="59" stroke="#E5E5E5"/>
<rect x="677.5" y="258.5" width="232" height="59" fill="#FAFAFA"/>
<rect x="677.5" y="258.5" width="232" height="59" stroke="#E5E5E5"/>
<path d="M691.66 287.44C691.66 283.912 692.992 282.688 694.852 282.688C696.832 282.688 698.02 283.912 698.02 287.44C698.02 290.956 696.724 292.192 694.828 292.192C692.812 292.192 691.66 290.956 691.66 287.44ZM694.84 291.508C696.4 291.508 697.12 290.332 697.12 287.44C697.12 284.452 696.424 283.372 694.84 283.372C693.316 283.372 692.56 284.536 692.56 287.44C692.56 290.296 693.256 291.508 694.84 291.508ZM703.528 288.352H701.716V292H700.864V282.82H703.576C705.472 282.82 706.648 283.78 706.648 285.544C706.648 287.308 705.484 288.352 703.528 288.352ZM701.716 287.656H703.552C704.836 287.656 705.772 287.02 705.772 285.556C705.772 284.2 704.956 283.516 703.576 283.516H701.716V287.656ZM715.6 282.82V283.552H712.612V292H711.76V283.552H708.772V282.82H715.6ZM721.287 283.516V291.304H723.435V292H718.299V291.304H720.447V283.516H718.299V282.82H723.435V283.516H721.287ZM726.363 287.44C726.363 283.912 727.695 282.688 729.555 282.688C731.535 282.688 732.723 283.912 732.723 287.44C732.723 290.956 731.427 292.192 729.531 292.192C727.515 292.192 726.363 290.956 726.363 287.44ZM729.543 291.508C731.103 291.508 731.823 290.332 731.823 287.44C731.823 284.452 731.127 283.372 729.543 283.372C728.019 283.372 727.263 284.536 727.263 287.44C727.263 290.296 727.959 291.508 729.543 291.508ZM735.339 292V282.82H736.503L739.815 289.9C740.115 290.536 740.247 291.028 740.247 291.028H740.319V282.82H741.099V292H739.935L736.683 285.064C736.371 284.392 736.179 283.792 736.179 283.792H736.119V292H735.339ZM753.746 285.976H752.942C752.894 284.056 754.142 282.976 755.738 282.976C757.586 282.976 758.438 284.152 758.438 285.388C758.438 286.564 757.946 287.332 756.65 288.568L755.018 290.128C754.19 290.908 753.83 291.244 753.83 291.244V291.28H758.606V292H752.762V291.304L755.918 288.232C757.046 287.14 757.598 286.54 757.598 285.424C757.598 284.38 756.878 283.672 755.762 283.672C754.586 283.672 753.734 284.404 753.746 285.976Z" fill="#444444"/>
<path fill-rule="evenodd" clip-rule="evenodd" d="M877.788 280.025C879.089 280.104 880.092 281.101 880.092 282.321C880.092 282.37 880.092 282.408 880.092 282.441C880.783 282.847 881.215 283.571 881.215 284.385C881.215 284.56 881.197 284.726 881.159 284.887C881.678 285.309 881.985 285.935 881.985 286.614C881.985 287.092 881.827 287.55 881.544 287.943C881.731 288.268 881.831 288.628 881.831 289.008C881.831 289.613 881.583 290.173 881.134 290.621C880.62 291.078 879.994 291.324 879.35 291.324H875.801L875.97 292.353C876.009 292.708 876.021 292.858 876.021 293.053C876.021 295.006 874.589 297 872.88 297C872.357 297 871.833 296.823 871.413 296.508L871.246 296.374L871.039 296.207L871.281 293.28C871.29 293.22 871.285 293.176 871.268 293.096C871.259 293.053 871.239 293.006 871.204 292.951L868.973 289.072L868 288.3V281.198L868.925 280.827C868.916 280.83 868.922 280.825 868.933 280.815C868.938 280.811 868.944 280.806 868.95 280.8C869.16 280.625 869.366 280.493 869.587 280.385C870.176 280.096 870.745 280.004 871.187 280.004L877.767 280.025L877.788 280.025ZM877.757 281.024L877.766 281.025L871.184 281.004C871.103 281.004 870.98 281.013 870.814 281.039C870.543 281.083 870.274 281.162 870.027 281.283C869.875 281.357 869.736 281.446 869.612 281.549C869.538 281.62 869.429 281.694 869.329 281.741L869 281.874V287.817L869.669 288.348L869.792 288.49L872.059 292.432C872.144 292.564 872.211 292.723 872.246 292.887C872.292 293.099 872.306 293.249 872.268 293.426L872.079 295.756C872.307 295.909 872.597 296 872.88 296C873.952 296 875.021 294.511 875.021 293.053C875.021 292.905 875.011 292.779 874.98 292.487L874.719 290.905L874.624 290.324H879.35C879.745 290.324 880.136 290.17 880.449 289.893C880.694 289.647 880.831 289.338 880.831 289.008C880.831 288.729 880.73 288.47 880.533 288.238L880.232 287.886L880.56 287.56C880.835 287.286 880.985 286.954 880.985 286.614C880.985 286.16 880.736 285.75 880.323 285.526L879.902 285.299L880.111 284.868C880.183 284.72 880.215 284.57 880.215 284.385C880.215 283.857 879.888 283.398 879.37 283.201L878.934 283.034L879.07 282.588C879.08 282.556 879.085 282.525 879.089 282.486C879.092 282.448 879.092 282.413 879.092 282.321C879.092 281.645 878.514 281.07 877.757 281.024Z" fill="#222222"/>
<path fill-rule="evenodd" clip-rule="evenodd" d="M862 290V280H869V290H862ZM868 289V281H863V289H868Z" fill="#222222"/>
</g>
<rect x="677.5" y="326.5" width="232" height="59" fill="#FAFAFA"/>
<rect x="677.5" y="326.5" width="232" height="59" stroke="#E5E5E5"/>
<rect x="677.5" y="326.5" width="232" height="59" fill="#FAFAFA"/>
<rect x="677.5" y="326.5" width="232" height="59" stroke="#E5E5E5"/>
<path d="M693.352 355.992V360H692.5V350.82H697.924V351.564H693.352V355.272H697.456V355.992H693.352ZM703.936 351.516V359.304H706.084V360H700.948V359.304H703.096V351.516H700.948V350.82H706.084V351.516H703.936ZM709.312 360V350.82H710.476L713.788 357.9C714.088 358.536 714.22 359.028 714.22 359.028H714.292V350.82H715.072V360H713.908L710.656 353.064C710.344 352.392 710.152 351.792 710.152 351.792H710.092V360H709.312ZM723.243 360L722.379 357H719.271L718.395 360H717.543L720.291 350.82H721.407L724.155 360H723.243ZM720.879 351.66H720.771C720.759 351.72 720.627 352.368 720.471 352.908L719.475 356.304H722.175L721.179 352.896C721.011 352.332 720.879 351.66 720.879 351.66ZM727.251 360V350.82H728.115V359.256H732.783V360H727.251ZM738.639 351.516V359.304H740.787V360H735.651V359.304H737.799V351.516H735.651V350.82H740.787V351.516H738.639ZM743.979 351.552V350.82H750.015V351.48L744.807 359.268H750.087V360H743.799V359.34L749.007 351.552H743.979ZM753.002 360V350.82H758.354V351.564H753.854V354.96H757.814V355.68H753.854V359.256H758.402V360H753.002ZM761.342 360V350.82H763.478C765.686 350.82 767.51 352.068 767.51 355.344C767.51 358.656 765.758 360 763.562 360H761.342ZM762.194 359.256H763.478C765.242 359.256 766.61 358.332 766.61 355.38C766.61 352.62 765.23 351.552 763.526 351.552H762.194V359.256ZM778.418 355.44C778.418 351.912 779.75 350.688 781.61 350.688C783.59 350.688 784.778 351.912 784.778 355.44C784.778 358.956 783.482 360.192 781.586 360.192C779.57 360.192 778.418 358.956 778.418 355.44ZM781.598 359.508C783.158 359.508 783.878 358.332 783.878 355.44C783.878 352.452 783.182 351.372 781.598 351.372C780.074 351.372 779.318 352.536 779.318 355.44C779.318 358.296 780.014 359.508 781.598 359.508ZM790.286 356.352H788.474V360H787.622V350.82H790.334C792.23 350.82 793.406 351.78 793.406 353.544C793.406 355.308 792.242 356.352 790.286 356.352ZM788.474 355.656H790.31C791.594 355.656 792.53 355.02 792.53 353.556C792.53 352.2 791.714 351.516 790.334 351.516H788.474V355.656ZM802.357 350.82V351.552H799.369V360H798.517V351.552H795.529V350.82H802.357ZM808.045 351.516V359.304H810.193V360H805.057V359.304H807.205V351.516H805.057V350.82H810.193V351.516H808.045ZM813.121 355.44C813.121 351.912 814.453 350.688 816.313 350.688C818.293 350.688 819.481 351.912 819.481 355.44C819.481 358.956 818.185 360.192 816.289 360.192C814.273 360.192 813.121 358.956 813.121 355.44ZM816.301 359.508C817.861 359.508 818.581 358.332 818.581 355.44C818.581 352.452 817.885 351.372 816.301 351.372C814.777 351.372 814.021 352.536 814.021 355.44C814.021 358.296 814.717 359.508 816.301 359.508ZM822.097 360V350.82H823.261L826.573 357.9C826.873 358.536 827.005 359.028 827.005 359.028H827.077V350.82H827.857V360H826.693L823.441 353.064C823.129 352.392 822.937 351.792 822.937 351.792H822.877V360H822.097Z" fill="#444444"/>
<path fill-rule="evenodd" clip-rule="evenodd" d="M877.788 363.975C879.089 363.896 880.092 362.899 880.092 361.679C880.092 361.63 880.092 361.592 880.092 361.559C880.783 361.153 881.215 360.429 881.215 359.615C881.215 359.44 881.197 359.274 881.159 359.113C881.678 358.691 881.985 358.065 881.985 357.386C881.985 356.908 881.827 356.45 881.544 356.057C881.731 355.732 881.831 355.372 881.831 354.992C881.831 354.387 881.583 353.827 881.134 353.379C880.62 352.922 879.994 352.676 879.35 352.676H875.801L875.97 351.647C876.009 351.292 876.021 351.142 876.021 350.947C876.021 348.994 874.589 347 872.88 347C872.357 347 871.833 347.177 871.413 347.492L871.246 347.626L871.039 347.793L871.281 350.72C871.29 350.78 871.285 350.824 871.268 350.904C871.259 350.947 871.239 350.994 871.204 351.049L868.973 354.928L868 355.7V362.802L868.925 363.173C868.916 363.17 868.922 363.175 868.933 363.185C868.938 363.189 868.944 363.194 868.95 363.2C869.16 363.375 869.366 363.507 869.587 363.615C870.176 363.904 870.745 363.996 871.187 363.996L877.767 363.975L877.788 363.975ZM877.757 362.976L877.766 362.975L871.184 362.996C871.103 362.996 870.98 362.987 870.814 362.961C870.543 362.917 870.274 362.838 870.027 362.717C869.875 362.643 869.736 362.554 869.612 362.451C869.538 362.38 869.429 362.306 869.329 362.259L869 362.126V356.183L869.669 355.652L869.792 355.51L872.059 351.568C872.144 351.436 872.211 351.277 872.246 351.113C872.292 350.901 872.306 350.751 872.268 350.574L872.079 348.244C872.307 348.091 872.597 348 872.88 348C873.952 348 875.021 349.489 875.021 350.947C875.021 351.095 875.011 351.221 874.98 351.513L874.719 353.095L874.624 353.676H879.35C879.745 353.676 880.136 353.83 880.449 354.107C880.694 354.353 880.831 354.662 880.831 354.992C880.831 355.271 880.73 355.53 880.533 355.762L880.232 356.114L880.56 356.44C880.835 356.714 880.985 357.046 880.985 357.386C880.985 357.84 880.736 358.25 880.323 358.474L879.902 358.701L880.111 359.132C880.183 359.28 880.215 359.43 880.215 359.615C880.215 360.143 879.888 360.602 879.37 360.799L878.934 360.966L879.07 361.412C879.08 361.444 879.085 361.475 879.089 361.514C879.092 361.552 879.092 361.587 879.092 361.679C879.092 362.355 878.514 362.93 877.757 362.976Z" fill="#222222"/>
<path fill-rule="evenodd" clip-rule="evenodd" d="M862 354V364H869V354H862ZM868 355V363H863V355H868Z" fill="#222222"/>
<path d="M1086.72 46.424H1092.24C1093.25 46.424 1094.27 46.556 1095.3 46.82C1096.32 47.084 1097.25 47.524 1098.07 48.14C1098.89 48.7413 1099.56 49.5407 1100.07 50.538C1100.58 51.5207 1100.84 52.7453 1100.84 54.212C1100.84 55.576 1100.58 56.7493 1100.07 57.732C1099.56 58.7147 1098.89 59.5213 1098.07 60.152C1097.25 60.7827 1096.32 61.252 1095.3 61.56C1094.27 61.8533 1093.25 62 1092.24 62H1086.72V46.424ZM1091.8 59.58C1092.52 59.58 1093.24 59.4993 1093.95 59.338C1094.67 59.162 1095.32 58.876 1095.89 58.48C1096.48 58.0693 1096.95 57.5193 1097.32 56.83C1097.69 56.1407 1097.87 55.268 1097.87 54.212C1097.87 53.0973 1097.69 52.188 1097.32 51.484C1096.95 50.78 1096.48 50.23 1095.89 49.834C1095.32 49.438 1094.67 49.1667 1093.95 49.02C1093.24 48.8733 1092.52 48.8 1091.8 48.8H1089.49V59.58H1091.8ZM1110.82 55.664C1110.82 55.3267 1110.77 55.004 1110.67 54.696C1110.58 54.388 1110.43 54.1167 1110.23 53.882C1110.02 53.6473 1109.76 53.464 1109.43 53.332C1109.13 53.1853 1108.76 53.112 1108.33 53.112C1107.54 53.112 1106.87 53.354 1106.31 53.838C1105.77 54.3073 1105.47 54.916 1105.41 55.664H1110.82ZM1113.46 56.852C1113.46 56.9693 1113.46 57.0867 1113.46 57.204C1113.46 57.3213 1113.45 57.4387 1113.44 57.556H1105.41C1105.44 57.9373 1105.53 58.2893 1105.69 58.612C1105.87 58.92 1106.1 59.1913 1106.38 59.426C1106.66 59.646 1106.97 59.822 1107.32 59.954C1107.67 60.086 1108.04 60.152 1108.42 60.152C1109.08 60.152 1109.64 60.0347 1110.09 59.8C1110.55 59.5507 1110.92 59.2133 1111.22 58.788L1112.98 60.196C1111.94 61.604 1110.42 62.308 1108.44 62.308C1107.62 62.308 1106.87 62.1833 1106.18 61.934C1105.49 61.67 1104.89 61.3033 1104.37 60.834C1103.88 60.3647 1103.48 59.7927 1103.19 59.118C1102.91 58.4287 1102.77 57.6513 1102.77 56.786C1102.77 55.9353 1102.91 55.1653 1103.19 54.476C1103.48 53.772 1103.88 53.178 1104.37 52.694C1104.87 52.1953 1105.46 51.814 1106.13 51.55C1106.82 51.2713 1107.56 51.132 1108.36 51.132C1109.09 51.132 1109.76 51.2567 1110.38 51.506C1111.01 51.7407 1111.55 52.1 1112.01 52.584C1112.46 53.0533 1112.82 53.6473 1113.06 54.366C1113.33 55.07 1113.46 55.8987 1113.46 56.852ZM1121.8 54.256C1121.57 53.948 1121.25 53.684 1120.84 53.464C1120.42 53.2293 1119.98 53.112 1119.49 53.112C1119.07 53.112 1118.68 53.2 1118.33 53.376C1117.98 53.552 1117.8 53.8453 1117.8 54.256C1117.8 54.6667 1117.99 54.96 1118.37 55.136C1118.77 55.2973 1119.34 55.466 1120.09 55.642C1120.48 55.73 1120.88 55.8473 1121.28 55.994C1121.69 56.1407 1122.05 56.3387 1122.38 56.588C1122.71 56.8227 1122.98 57.1233 1123.19 57.49C1123.39 57.842 1123.5 58.2747 1123.5 58.788C1123.5 59.4333 1123.37 59.9833 1123.12 60.438C1122.89 60.878 1122.57 61.2373 1122.16 61.516C1121.76 61.7947 1121.29 61.9927 1120.75 62.11C1120.22 62.242 1119.67 62.308 1119.1 62.308C1118.28 62.308 1117.48 62.1613 1116.7 61.868C1115.92 61.56 1115.28 61.1273 1114.76 60.57L1116.5 58.942C1116.79 59.3233 1117.18 59.6387 1117.65 59.888C1118.11 60.1373 1118.64 60.262 1119.21 60.262C1119.4 60.262 1119.59 60.24 1119.78 60.196C1119.98 60.152 1120.17 60.086 1120.33 59.998C1120.51 59.8953 1120.64 59.7633 1120.75 59.602C1120.85 59.4407 1120.9 59.2427 1120.9 59.008C1120.9 58.568 1120.7 58.2527 1120.29 58.062C1119.89 57.8713 1119.29 57.6807 1118.48 57.49C1118.09 57.402 1117.7 57.292 1117.32 57.16C1116.95 57.0133 1116.62 56.83 1116.33 56.61C1116.03 56.3753 1115.8 56.0893 1115.62 55.752C1115.45 55.4147 1115.36 54.9967 1115.36 54.498C1115.36 53.9113 1115.47 53.4053 1115.71 52.98C1115.96 52.5547 1116.28 52.21 1116.68 51.946C1117.07 51.6673 1117.52 51.462 1118.02 51.33C1118.52 51.198 1119.03 51.132 1119.56 51.132C1120.32 51.132 1121.06 51.264 1121.78 51.528C1122.51 51.792 1123.09 52.1953 1123.52 52.738L1121.8 54.256ZM1125.84 51.44H1128.48V62H1125.84V51.44ZM1125.46 47.854C1125.46 47.4287 1125.62 47.062 1125.92 46.754C1126.25 46.4313 1126.65 46.27 1127.13 46.27C1127.62 46.27 1128.02 46.424 1128.34 46.732C1128.68 47.0253 1128.85 47.3993 1128.85 47.854C1128.85 48.3087 1128.68 48.69 1128.34 48.998C1128.02 49.2913 1127.62 49.438 1127.13 49.438C1126.65 49.438 1126.25 49.284 1125.92 48.976C1125.62 48.6533 1125.46 48.2793 1125.46 47.854ZM1142.42 51.44V61.054C1142.42 62.0073 1142.3 62.8653 1142.06 63.628C1141.83 64.4053 1141.46 65.058 1140.96 65.586C1140.48 66.1287 1139.86 66.5467 1139.12 66.84C1138.37 67.1333 1137.48 67.28 1136.45 67.28C1136.03 67.28 1135.57 67.2433 1135.09 67.17C1134.62 67.0967 1134.15 66.9867 1133.68 66.84C1133.23 66.6933 1132.79 66.51 1132.36 66.29C1131.94 66.07 1131.56 65.8207 1131.22 65.542L1132.74 63.496C1133.25 63.98 1133.83 64.3467 1134.47 64.596C1135.12 64.86 1135.77 64.992 1136.43 64.992C1137.06 64.992 1137.59 64.8967 1138.02 64.706C1138.46 64.53 1138.8 64.2807 1139.05 63.958C1139.31 63.6353 1139.5 63.254 1139.6 62.814C1139.72 62.374 1139.78 61.89 1139.78 61.362V60.592H1139.73C1139.35 61.1053 1138.86 61.5013 1138.26 61.78C1137.67 62.044 1137.01 62.176 1136.28 62.176C1135.49 62.176 1134.77 62.0293 1134.12 61.736C1133.48 61.4427 1132.93 61.0467 1132.47 60.548C1132.03 60.0493 1131.69 59.47 1131.44 58.81C1131.19 58.1353 1131.06 57.424 1131.06 56.676C1131.06 55.9133 1131.18 55.1947 1131.42 54.52C1131.67 53.8453 1132.01 53.2587 1132.45 52.76C1132.9 52.2613 1133.45 51.8653 1134.08 51.572C1134.72 51.2787 1135.44 51.132 1136.23 51.132C1136.98 51.132 1137.68 51.286 1138.32 51.594C1138.97 51.902 1139.48 52.3787 1139.86 53.024H1139.91V51.44H1142.42ZM1136.78 53.288C1136.3 53.288 1135.87 53.376 1135.49 53.552C1135.12 53.728 1134.8 53.97 1134.54 54.278C1134.29 54.5713 1134.09 54.9233 1133.95 55.334C1133.81 55.7447 1133.75 56.1847 1133.75 56.654C1133.75 57.0793 1133.81 57.49 1133.95 57.886C1134.09 58.282 1134.29 58.6413 1134.54 58.964C1134.8 59.272 1135.12 59.5213 1135.49 59.712C1135.87 59.9027 1136.29 59.998 1136.76 59.998C1137.25 59.998 1137.68 59.91 1138.06 59.734C1138.46 59.5433 1138.79 59.294 1139.05 58.986C1139.33 58.678 1139.54 58.326 1139.69 57.93C1139.83 57.5193 1139.91 57.094 1139.91 56.654C1139.91 56.1993 1139.83 55.7667 1139.69 55.356C1139.54 54.9453 1139.33 54.586 1139.05 54.278C1138.79 53.97 1138.46 53.728 1138.08 53.552C1137.7 53.376 1137.27 53.288 1136.78 53.288ZM1145.58 51.44H1148.09V53.134H1148.13C1148.37 52.606 1148.77 52.144 1149.34 51.748C1149.93 51.3373 1150.62 51.132 1151.41 51.132C1152.1 51.132 1152.69 51.2567 1153.17 51.506C1153.67 51.7407 1154.07 52.056 1154.38 52.452C1154.7 52.848 1154.94 53.3027 1155.08 53.816C1155.23 54.3293 1155.3 54.8573 1155.3 55.4V62H1152.66V56.148C1152.66 55.84 1152.64 55.5173 1152.6 55.18C1152.55 54.8427 1152.46 54.542 1152.31 54.278C1152.17 53.9993 1151.96 53.772 1151.7 53.596C1151.45 53.42 1151.11 53.332 1150.68 53.332C1150.26 53.332 1149.89 53.42 1149.58 53.596C1149.28 53.7573 1149.02 53.97 1148.81 54.234C1148.62 54.498 1148.48 54.806 1148.37 55.158C1148.27 55.4953 1148.22 55.84 1148.22 56.192V62H1145.58V51.44ZM1165.82 55.664C1165.82 55.3267 1165.77 55.004 1165.67 54.696C1165.58 54.388 1165.43 54.1167 1165.23 53.882C1165.02 53.6473 1164.76 53.464 1164.43 53.332C1164.13 53.1853 1163.76 53.112 1163.33 53.112C1162.54 53.112 1161.87 53.354 1161.31 53.838C1160.77 54.3073 1160.47 54.916 1160.41 55.664H1165.82ZM1168.46 56.852C1168.46 56.9693 1168.46 57.0867 1168.46 57.204C1168.46 57.3213 1168.45 57.4387 1168.44 57.556H1160.41C1160.44 57.9373 1160.53 58.2893 1160.69 58.612C1160.87 58.92 1161.1 59.1913 1161.38 59.426C1161.66 59.646 1161.97 59.822 1162.32 59.954C1162.67 60.086 1163.04 60.152 1163.42 60.152C1164.08 60.152 1164.64 60.0347 1165.09 59.8C1165.55 59.5507 1165.92 59.2133 1166.22 58.788L1167.98 60.196C1166.94 61.604 1165.42 62.308 1163.44 62.308C1162.62 62.308 1161.87 62.1833 1161.18 61.934C1160.49 61.67 1159.89 61.3033 1159.37 60.834C1158.88 60.3647 1158.48 59.7927 1158.19 59.118C1157.91 58.4287 1157.77 57.6513 1157.77 56.786C1157.77 55.9353 1157.91 55.1653 1158.19 54.476C1158.48 53.772 1158.88 53.178 1159.37 52.694C1159.87 52.1953 1160.46 51.814 1161.13 51.55C1161.82 51.2713 1162.56 51.132 1163.36 51.132C1164.09 51.132 1164.76 51.2567 1165.38 51.506C1166.01 51.7407 1166.55 52.1 1167.01 52.584C1167.46 53.0533 1167.82 53.6473 1168.06 54.366C1168.33 55.07 1168.46 55.8987 1168.46 56.852ZM1171.02 51.44H1173.55V53.2H1173.59C1173.88 52.584 1174.3 52.0853 1174.82 51.704C1175.35 51.3227 1175.97 51.132 1176.67 51.132C1176.77 51.132 1176.88 51.1393 1177 51.154C1177.12 51.154 1177.22 51.1687 1177.31 51.198V53.618C1177.13 53.574 1176.98 53.5447 1176.85 53.53C1176.73 53.5153 1176.61 53.508 1176.5 53.508C1175.89 53.508 1175.41 53.618 1175.04 53.838C1174.68 54.058 1174.39 54.322 1174.19 54.63C1173.98 54.938 1173.84 55.2533 1173.77 55.576C1173.69 55.8987 1173.66 56.1553 1173.66 56.346V62H1171.02V51.44Z" fill="#444444"/>
<rect width="233" height="80" transform="translate(1015 94)" fill="#DCDFD8"/>
<path d="M1098.47 119.82V120.552H1095.48V129H1094.63V120.552H1091.64V119.82H1098.47ZM1101.11 124.44C1101.11 120.912 1102.45 119.688 1104.31 119.688C1106.29 119.688 1107.47 120.912 1107.47 124.44C1107.47 127.956 1106.18 129.192 1104.28 129.192C1102.27 129.192 1101.11 127.956 1101.11 124.44ZM1104.29 128.508C1105.85 128.508 1106.57 127.332 1106.57 124.44C1106.57 121.452 1105.88 120.372 1104.29 120.372C1102.77 120.372 1102.01 121.536 1102.01 124.44C1102.01 127.296 1102.71 128.508 1104.29 128.508ZM1113.54 125.352H1111.73V129H1110.88V119.82H1113.59C1115.49 119.82 1116.66 120.78 1116.66 122.544C1116.66 124.308 1115.5 125.352 1113.54 125.352ZM1111.73 124.656H1113.57C1114.85 124.656 1115.79 124.02 1115.79 122.556C1115.79 121.2 1114.97 120.516 1113.59 120.516H1111.73V124.656ZM1120.98 125.412V124.608H1124.55V125.412H1120.98ZM1129.71 129V119.82H1130.57V128.256H1135.24V129H1129.71ZM1138.67 129V119.82H1144.02V120.564H1139.52V123.96H1143.48V124.68H1139.52V128.256H1144.07V129H1138.67ZM1153.76 119.82L1151.05 129H1149.9L1147.19 119.82H1148.07L1150.14 126.948C1150.31 127.512 1150.44 128.16 1150.44 128.16H1150.55C1150.55 128.16 1150.69 127.5 1150.86 126.936L1152.92 119.82H1153.76ZM1157.14 129V119.82H1162.49V120.564H1157.99V123.96H1161.95V124.68H1157.99V128.256H1162.54V129H1157.14ZM1166.65 129V119.82H1167.52V128.256H1172.19V129H1166.65ZM1092.77 147V137.82H1093.63V146.256H1098.3V147H1092.77ZM1104.71 138.516V146.304H1106.86V147H1101.73V146.304H1103.87V138.516H1101.73V137.82H1106.86V138.516H1104.71ZM1116.53 140.268H1115.68C1115.59 139.248 1115.04 138.396 1113.64 138.396C1112.4 138.396 1111.61 139.032 1111.61 140.112C1111.61 141.144 1112.1 141.54 1113.18 141.792L1114.48 142.092C1116.04 142.452 1116.66 143.22 1116.66 144.54C1116.66 146.1 1115.57 147.18 1113.53 147.18C1111.56 147.18 1110.57 146.016 1110.43 144.456H1111.26C1111.38 145.536 1112.02 146.472 1113.58 146.472C1115.2 146.472 1115.79 145.596 1115.79 144.612C1115.79 143.664 1115.4 143.148 1114.25 142.884L1113.06 142.608C1111.36 142.212 1110.77 141.504 1110.77 140.136C1110.77 138.636 1111.97 137.688 1113.65 137.688C1115.5 137.688 1116.41 138.72 1116.53 140.268ZM1126.17 137.82V138.552H1123.19V147H1122.33V138.552H1119.35V137.82H1126.17ZM1141.66 138.516V146.304H1143.81V147H1138.67V146.304H1140.82V138.516H1138.67V137.82H1143.81V138.516H1141.66ZM1153.88 137.82V138.552H1150.89V147H1150.04V138.552H1147.05V137.82H1153.88ZM1157.14 147V137.82H1162.49V138.564H1157.99V141.96H1161.95V142.68H1157.99V146.256H1162.54V147H1157.14ZM1166.08 147V137.82H1167.29L1168.66 142.608C1168.85 143.292 1168.91 143.868 1168.91 143.868H1169.01C1169.01 143.868 1169.05 143.292 1169.25 142.62L1170.6 137.82H1171.81V147H1171V138.9H1170.89C1170.89 138.9 1170.78 139.62 1170.57 140.388L1169.32 144.78H1168.54L1167.29 140.4C1167.07 139.62 1166.97 138.9 1166.97 138.9H1166.87V147H1166.08Z" fill="#444444"/>
<g opacity="0.5">
<rect x="1015.5" y="190.5" width="232" height="59" fill="#FAFAFA"/>
<rect x="1015.5" y="190.5" width="232" height="59" stroke="#E5E5E5"/>
<path d="M1035.22 224L1034.35 221H1031.24L1030.37 224H1029.52L1032.26 214.82H1033.38L1036.13 224H1035.22ZM1032.85 215.66H1032.74C1032.73 215.72 1032.6 216.368 1032.44 216.908L1031.45 220.304H1034.15L1033.15 216.896C1032.98 216.332 1032.85 215.66 1032.85 215.66ZM1043.78 224L1041.77 220.088H1039.62V224H1038.76V214.82H1041.67C1042.34 214.82 1042.97 214.94 1043.48 215.216C1044.19 215.612 1044.65 216.308 1044.65 217.364C1044.65 218.9 1043.69 219.68 1042.63 219.944V219.968L1044.74 224H1043.78ZM1039.62 219.38H1041.7C1042.84 219.38 1043.76 218.804 1043.76 217.376C1043.76 216.176 1042.99 215.54 1041.68 215.54H1039.62V219.38ZM1053.31 217.46H1052.45C1052.34 216.464 1051.8 215.372 1050.4 215.372C1048.55 215.372 1048 216.872 1048 219.452C1048 222.104 1048.72 223.496 1050.42 223.496C1051.79 223.496 1052.35 222.392 1052.45 221.336H1053.29C1053.14 223.04 1052.04 224.192 1050.37 224.192C1048.32 224.192 1047.1 222.86 1047.1 219.452C1047.1 216.26 1048.22 214.676 1050.41 214.676C1051.94 214.676 1053.16 215.636 1053.31 217.46ZM1056.85 219.692V224H1056V214.82H1056.85V218.96H1060.88V214.82H1061.74V224H1060.88V219.692H1056.85ZM1067.96 215.516V223.304H1070.11V224H1064.98V223.304H1067.12V215.516H1064.98V214.82H1070.11V215.516H1067.96ZM1079.51 214.82L1076.79 224H1075.64L1072.93 214.82H1073.82L1075.88 221.948C1076.05 222.512 1076.18 223.16 1076.18 223.16H1076.29C1076.29 223.16 1076.43 222.5 1076.6 221.936L1078.67 214.82H1079.51ZM1082.33 224V214.82H1087.68V215.564H1083.18V218.96H1087.14V219.68H1083.18V223.256H1087.73V224H1082.33ZM1090.67 224V214.82H1092.8C1095.01 214.82 1096.83 216.068 1096.83 219.344C1096.83 222.656 1095.08 224 1092.89 224H1090.67ZM1091.52 223.256H1092.8C1094.57 223.256 1095.93 222.332 1095.93 219.38C1095.93 216.62 1094.55 215.552 1092.85 215.552H1091.52V223.256ZM1107.74 219.44C1107.74 215.912 1109.07 214.688 1110.93 214.688C1112.91 214.688 1114.1 215.912 1114.1 219.44C1114.1 222.956 1112.81 224.192 1110.91 224.192C1108.89 224.192 1107.74 222.956 1107.74 219.44ZM1110.92 223.508C1112.48 223.508 1113.2 222.332 1113.2 219.44C1113.2 216.452 1112.51 215.372 1110.92 215.372C1109.4 215.372 1108.64 216.536 1108.64 219.44C1108.64 222.296 1109.34 223.508 1110.92 223.508ZM1119.61 220.352H1117.8V224H1116.95V214.82H1119.66C1121.55 214.82 1122.73 215.78 1122.73 217.544C1122.73 219.308 1121.57 220.352 1119.61 220.352ZM1117.8 219.656H1119.63C1120.92 219.656 1121.85 219.02 1121.85 217.556C1121.85 216.2 1121.04 215.516 1119.66 215.516H1117.8V219.656ZM1131.68 214.82V215.552H1128.69V224H1127.84V215.552H1124.85V214.82H1131.68ZM1137.37 215.516V223.304H1139.52V224H1134.38V223.304H1136.53V215.516H1134.38V214.82H1139.52V215.516H1137.37ZM1142.45 219.44C1142.45 215.912 1143.78 214.688 1145.64 214.688C1147.62 214.688 1148.81 215.912 1148.81 219.44C1148.81 222.956 1147.51 224.192 1145.61 224.192C1143.6 224.192 1142.45 222.956 1142.45 219.44ZM1145.63 223.508C1147.19 223.508 1147.91 222.332 1147.91 219.44C1147.91 216.452 1147.21 215.372 1145.63 215.372C1144.1 215.372 1143.35 216.536 1143.35 219.44C1143.35 222.296 1144.04 223.508 1145.63 223.508ZM1151.42 224V214.82H1152.58L1155.9 221.9C1156.2 222.536 1156.33 223.028 1156.33 223.028H1156.4V214.82H1157.18V224H1156.02L1152.76 217.064C1152.45 216.392 1152.26 215.792 1152.26 215.792H1152.2V224H1151.42Z" fill="#444444"/>
<path fill-rule="evenodd" clip-rule="evenodd" d="M1215.79 212.025C1217.09 212.104 1218.09 213.101 1218.09 214.321C1218.09 214.37 1218.09 214.408 1218.09 214.441C1218.78 214.847 1219.21 215.571 1219.21 216.385C1219.21 216.56 1219.2 216.726 1219.16 216.887C1219.68 217.309 1219.99 217.935 1219.99 218.614C1219.99 219.092 1219.83 219.55 1219.54 219.943C1219.73 220.268 1219.83 220.628 1219.83 221.008C1219.83 221.613 1219.58 222.173 1219.13 222.621C1218.62 223.078 1217.99 223.324 1217.35 223.324H1213.8L1213.97 224.353C1214.01 224.708 1214.02 224.858 1214.02 225.053C1214.02 227.006 1212.59 229 1210.88 229C1210.36 229 1209.83 228.823 1209.41 228.508L1209.25 228.374L1209.04 228.207L1209.28 225.28C1209.29 225.22 1209.29 225.176 1209.27 225.096C1209.26 225.053 1209.24 225.006 1209.2 224.951L1206.97 221.072L1206 220.3V213.198L1206.93 212.827C1206.92 212.83 1206.92 212.825 1206.93 212.815C1206.94 212.811 1206.94 212.806 1206.95 212.8C1207.16 212.625 1207.37 212.493 1207.59 212.385C1208.18 212.096 1208.74 212.004 1209.19 212.004L1215.77 212.025L1215.79 212.025ZM1215.76 213.024L1215.77 213.025L1209.18 213.004C1209.1 213.004 1208.98 213.013 1208.81 213.039C1208.54 213.083 1208.27 213.162 1208.03 213.283C1207.88 213.357 1207.74 213.446 1207.61 213.549C1207.54 213.62 1207.43 213.694 1207.33 213.741L1207 213.874V219.817L1207.67 220.348L1207.79 220.49L1210.06 224.432C1210.14 224.564 1210.21 224.723 1210.25 224.887C1210.29 225.099 1210.31 225.249 1210.27 225.426L1210.08 227.756C1210.31 227.909 1210.6 228 1210.88 228C1211.95 228 1213.02 226.511 1213.02 225.053C1213.02 224.905 1213.01 224.779 1212.98 224.487L1212.72 222.905L1212.62 222.324H1217.35C1217.75 222.324 1218.14 222.17 1218.45 221.893C1218.69 221.647 1218.83 221.338 1218.83 221.008C1218.83 220.729 1218.73 220.47 1218.53 220.238L1218.23 219.886L1218.56 219.56C1218.84 219.286 1218.99 218.954 1218.99 218.614C1218.99 218.16 1218.74 217.75 1218.32 217.526L1217.9 217.299L1218.11 216.868C1218.18 216.72 1218.21 216.57 1218.21 216.385C1218.21 215.857 1217.89 215.398 1217.37 215.201L1216.93 215.034L1217.07 214.588C1217.08 214.556 1217.09 214.525 1217.09 214.486C1217.09 214.448 1217.09 214.413 1217.09 214.321C1217.09 213.645 1216.51 213.07 1215.76 213.024Z" fill="#222222"/>
<path fill-rule="evenodd" clip-rule="evenodd" d="M1200 222V212H1207V222H1200ZM1206 221V213H1201V221H1206Z" fill="#222222"/>
</g>
<g opacity="0.5">
<rect x="1015.5" y="258.5" width="232" height="59" fill="#FAFAFA"/>
<rect x="1015.5" y="258.5" width="232" height="59" stroke="#E5E5E5"/>
<rect x="1015.5" y="258.5" width="232" height="59" fill="#FAFAFA"/>
<rect x="1015.5" y="258.5" width="232" height="59" stroke="#E5E5E5"/>
<path d="M1035.22 292L1034.35 289H1031.24L1030.37 292H1029.52L1032.26 282.82H1033.38L1036.13 292H1035.22ZM1032.85 283.66H1032.74C1032.73 283.72 1032.6 284.368 1032.44 284.908L1031.45 288.304H1034.15L1033.15 284.896C1032.98 284.332 1032.85 283.66 1032.85 283.66ZM1043.78 292L1041.77 288.088H1039.62V292H1038.76V282.82H1041.67C1042.34 282.82 1042.97 282.94 1043.48 283.216C1044.19 283.612 1044.65 284.308 1044.65 285.364C1044.65 286.9 1043.69 287.68 1042.63 287.944V287.968L1044.74 292H1043.78ZM1039.62 287.38H1041.7C1042.84 287.38 1043.76 286.804 1043.76 285.376C1043.76 284.176 1042.99 283.54 1041.68 283.54H1039.62V287.38ZM1053.31 285.46H1052.45C1052.34 284.464 1051.8 283.372 1050.4 283.372C1048.55 283.372 1048 284.872 1048 287.452C1048 290.104 1048.72 291.496 1050.42 291.496C1051.79 291.496 1052.35 290.392 1052.45 289.336H1053.29C1053.14 291.04 1052.04 292.192 1050.37 292.192C1048.32 292.192 1047.1 290.86 1047.1 287.452C1047.1 284.26 1048.22 282.676 1050.41 282.676C1051.94 282.676 1053.16 283.636 1053.31 285.46ZM1056.85 287.692V292H1056V282.82H1056.85V286.96H1060.88V282.82H1061.74V292H1060.88V287.692H1056.85ZM1067.96 283.516V291.304H1070.11V292H1064.98V291.304H1067.12V283.516H1064.98V282.82H1070.11V283.516H1067.96ZM1079.51 282.82L1076.79 292H1075.64L1072.93 282.82H1073.82L1075.88 289.948C1076.05 290.512 1076.18 291.16 1076.18 291.16H1076.29C1076.29 291.16 1076.43 290.5 1076.6 289.936L1078.67 282.82H1079.51ZM1082.33 292V282.82H1087.68V283.564H1083.18V286.96H1087.14V287.68H1083.18V291.256H1087.73V292H1082.33ZM1090.67 292V282.82H1092.8C1095.01 282.82 1096.83 284.068 1096.83 287.344C1096.83 290.656 1095.08 292 1092.89 292H1090.67ZM1091.52 291.256H1092.8C1094.57 291.256 1095.93 290.332 1095.93 287.38C1095.93 284.62 1094.55 283.552 1092.85 283.552H1091.52V291.256ZM1107.74 287.44C1107.74 283.912 1109.07 282.688 1110.93 282.688C1112.91 282.688 1114.1 283.912 1114.1 287.44C1114.1 290.956 1112.81 292.192 1110.91 292.192C1108.89 292.192 1107.74 290.956 1107.74 287.44ZM1110.92 291.508C1112.48 291.508 1113.2 290.332 1113.2 287.44C1113.2 284.452 1112.51 283.372 1110.92 283.372C1109.4 283.372 1108.64 284.536 1108.64 287.44C1108.64 290.296 1109.34 291.508 1110.92 291.508ZM1119.61 288.352H1117.8V292H1116.95V282.82H1119.66C1121.55 282.82 1122.73 283.78 1122.73 285.544C1122.73 287.308 1121.57 288.352 1119.61 288.352ZM1117.8 287.656H1119.63C1120.92 287.656 1121.85 287.02 1121.85 285.556C1121.85 284.2 1121.04 283.516 1119.66 283.516H1117.8V287.656ZM1131.68 282.82V283.552H1128.69V292H1127.84V283.552H1124.85V282.82H1131.68ZM1137.37 283.516V291.304H1139.52V292H1134.38V291.304H1136.53V283.516H1134.38V282.82H1139.52V283.516H1137.37ZM1142.45 287.44C1142.45 283.912 1143.78 282.688 1145.64 282.688C1147.62 282.688 1148.81 283.912 1148.81 287.44C1148.81 290.956 1147.51 292.192 1145.61 292.192C1143.6 292.192 1142.45 290.956 1142.45 287.44ZM1145.63 291.508C1147.19 291.508 1147.91 290.332 1147.91 287.44C1147.91 284.452 1147.21 283.372 1145.63 283.372C1144.1 283.372 1143.35 284.536 1143.35 287.44C1143.35 290.296 1144.04 291.508 1145.63 291.508ZM1151.42 292V282.82H1152.58L1155.9 289.9C1156.2 290.536 1156.33 291.028 1156.33 291.028H1156.4V282.82H1157.18V292H1156.02L1152.76 285.064C1152.45 284.392 1152.26 283.792 1152.26 283.792H1152.2V292H1151.42Z" fill="#444444"/>
<path fill-rule="evenodd" clip-rule="evenodd" d="M1215.79 280.025C1217.09 280.104 1218.09 281.101 1218.09 282.321C1218.09 282.37 1218.09 282.408 1218.09 282.441C1218.78 282.847 1219.21 283.571 1219.21 284.385C1219.21 284.56 1219.2 284.726 1219.16 284.887C1219.68 285.309 1219.99 285.935 1219.99 286.614C1219.99 287.092 1219.83 287.55 1219.54 287.943C1219.73 288.268 1219.83 288.628 1219.83 289.008C1219.83 289.613 1219.58 290.173 1219.13 290.621C1218.62 291.078 1217.99 291.324 1217.35 291.324H1213.8L1213.97 292.353C1214.01 292.708 1214.02 292.858 1214.02 293.053C1214.02 295.006 1212.59 297 1210.88 297C1210.36 297 1209.83 296.823 1209.41 296.508L1209.25 296.374L1209.04 296.207L1209.28 293.28C1209.29 293.22 1209.29 293.176 1209.27 293.096C1209.26 293.053 1209.24 293.006 1209.2 292.951L1206.97 289.072L1206 288.3V281.198L1206.93 280.827C1206.92 280.83 1206.92 280.825 1206.93 280.815C1206.94 280.811 1206.94 280.806 1206.95 280.8C1207.16 280.625 1207.37 280.493 1207.59 280.385C1208.18 280.096 1208.74 280.004 1209.19 280.004L1215.77 280.025L1215.79 280.025ZM1215.76 281.024L1215.77 281.025L1209.18 281.004C1209.1 281.004 1208.98 281.013 1208.81 281.039C1208.54 281.083 1208.27 281.162 1208.03 281.283C1207.88 281.357 1207.74 281.446 1207.61 281.549C1207.54 281.62 1207.43 281.694 1207.33 281.741L1207 281.874V287.817L1207.67 288.348L1207.79 288.49L1210.06 292.432C1210.14 292.564 1210.21 292.723 1210.25 292.887C1210.29 293.099 1210.31 293.249 1210.27 293.426L1210.08 295.756C1210.31 295.909 1210.6 296 1210.88 296C1211.95 296 1213.02 294.511 1213.02 293.053C1213.02 292.905 1213.01 292.779 1212.98 292.487L1212.72 290.905L1212.62 290.324H1217.35C1217.75 290.324 1218.14 290.17 1218.45 289.893C1218.69 289.647 1218.83 289.338 1218.83 289.008C1218.83 288.729 1218.73 288.47 1218.53 288.238L1218.23 287.886L1218.56 287.56C1218.84 287.286 1218.99 286.954 1218.99 286.614C1218.99 286.16 1218.74 285.75 1218.32 285.526L1217.9 285.299L1218.11 284.868C1218.18 284.72 1218.21 284.57 1218.21 284.385C1218.21 283.857 1217.89 283.398 1217.37 283.201L1216.93 283.034L1217.07 282.588C1217.08 282.556 1217.09 282.525 1217.09 282.486C1217.09 282.448 1217.09 282.413 1217.09 282.321C1217.09 281.645 1216.51 281.07 1215.76 281.024Z" fill="#222222"/>
<path fill-rule="evenodd" clip-rule="evenodd" d="M1200 290V280H1207V290H1200ZM1206 289V281H1201V289H1206Z" fill="#222222"/>
</g>
</svg>
