<svg width="371" height="240" viewBox="0 0 371 240" fill="none" xmlns="http://www.w3.org/2000/svg">
<path d="M370.107 212.1C370.107 216.5 368.507 220.4 365.307 223.8C362.307 227 358.507 228.6 353.907 228.6C349.507 228.6 345.707 227.2 342.507 224.4C339.507 221.6 338.007 217.8 338.007 213C338.007 208.2 339.607 204.2 342.807 201C346.207 197.8 350.107 196.2 354.507 196.2C358.907 196.2 362.607 197.6 365.607 200.4C368.607 203.2 370.107 207.1 370.107 212.1Z" fill="#A8A18F"/>
<path d="M226.083 106.5H235.383C253.383 106.5 267.383 102.7 277.383 95.1C287.583 87.3 292.683 75.5 292.683 59.7C292.683 49.3 289.183 41.3 282.183 35.7C275.183 30.1 266.683 27.3 256.683 27.3C247.283 27.3 238.683 29.5 230.883 33.9C223.283 38.3 217.183 44.8 212.583 53.4L195.183 43.5C210.183 20.5 230.983 9 257.583 9C265.183 9 272.383 10.1 279.183 12.3C285.983 14.3 291.983 17.5 297.183 21.9C302.383 26.1 306.483 31.4 309.483 37.8C312.683 44 314.283 51.3 314.283 59.7C314.283 65.9 313.383 71.9 311.583 77.7C309.783 83.5 306.983 88.9 303.183 93.9C299.383 98.7 294.483 103 288.483 106.8C282.683 110.4 275.783 113.3 267.783 115.5V116.1C272.583 117.3 277.083 119.2 281.283 121.8C285.483 124.4 289.183 127.7 292.383 131.7C295.583 135.5 298.083 139.9 299.883 144.9C301.683 149.9 302.583 155.2 302.583 160.8C302.583 171 300.783 180.5 297.183 189.3C293.783 198.1 288.783 205.7 282.183 212.1C275.783 218.3 267.983 223.2 258.783 226.8C249.583 230.4 239.283 232.2 227.883 232.2C220.083 232.2 212.683 231.2 205.683 229.2C198.883 227.2 192.683 224.4 187.083 220.8C181.483 217 176.583 212.4 172.383 207C168.383 201.6 165.383 195.5 163.383 188.7L184.683 181.2C185.683 186.4 187.583 191 190.383 195C193.183 199 196.583 202.4 200.583 205.2C204.583 208 209.083 210.1 214.083 211.5C219.083 212.9 224.283 213.6 229.683 213.6C237.083 213.6 243.883 212.4 250.083 210C256.283 207.6 261.583 204.2 265.983 199.8C270.583 195.4 274.083 190.1 276.483 183.9C279.083 177.7 280.383 170.7 280.383 162.9C280.383 149.5 275.883 139.8 266.883 133.8C258.083 127.6 246.483 124.5 232.083 124.5H222.783L226.083 106.5Z" fill="#A8A18F"/>
<path d="M50.4 198.899H51L159 14.3994H182.7L56.4 226.799H34.2L0 14.3994H22.8L50.4 198.899Z" fill="#A8A18F"/>
</svg>
