<svg width="1583" height="280" viewBox="0 0 1583 280" fill="none" xmlns="http://www.w3.org/2000/svg">
<path d="M26.56 121H15.04V7.72H26.56V121ZM112.603 101.48H112.763L150.683 7.72H168.283V121H156.763V22.6H156.443L115.483 121H109.403L68.4425 22.6H68.1225V121H56.6025V7.72H74.2025L112.603 101.48ZM198.321 7.72H230.321C236.081 7.72 241.308 8.36 246.001 9.63999C250.695 10.8133 254.695 12.68 258.001 15.24C261.415 17.6933 264.028 20.84 265.841 24.68C267.655 28.4133 268.561 32.84 268.561 37.96C268.561 43.08 267.601 47.56 265.681 51.4C263.868 55.1333 261.255 58.28 257.841 60.84C254.535 63.2933 250.481 65.16 245.681 66.44C240.988 67.72 235.761 68.36 230.001 68.36H209.841V121H198.321V7.72ZM209.841 58.6H229.361C238.428 58.6 245.308 56.84 250.001 53.32C254.695 49.8 257.041 44.68 257.041 37.96C257.041 30.92 254.588 25.8 249.681 22.6C244.881 19.2933 238.108 17.64 229.361 17.64H209.841V58.6ZM302.654 110.76H355.454V121H291.134V7.72H302.654V110.76ZM384.216 110.76H444.856V121H372.696V7.72H442.936V17.96H384.216V57H439.096V67.08H384.216V110.76ZM523.384 101.48H523.544L561.464 7.72H579.064V121H567.544V22.6H567.224L526.264 121H520.184L479.224 22.6H478.904V121H467.384V7.72H484.984L523.384 101.48ZM620.623 110.76H681.263V121H609.103V7.72H679.343V17.96H620.623V57H675.503V67.08H620.623V110.76ZM784.11 104.2H784.43V7.72H795.95V121H781.55L715.63 23.56H715.31V121H703.79V7.72H718.19L784.11 104.2ZM862.298 121H850.778V17.96H812.858V7.72H900.218V17.96H862.298V121ZM906.896 121H894.256L943.216 7.72H954.416L1003.06 121H990.256L977.776 91.24H919.216L906.896 121ZM923.536 80.68H973.456L948.496 20.52L923.536 80.68ZM1046.52 121H1035V17.96H997.076V7.72H1084.44V17.96H1046.52V121ZM1112.97 121H1101.45V7.72H1112.97V121ZM1255.01 64.36C1255.01 73 1253.52 80.9467 1250.53 88.2C1247.54 95.4533 1243.38 101.747 1238.05 107.08C1232.82 112.307 1226.58 116.413 1219.33 119.4C1212.18 122.387 1204.4 123.88 1195.97 123.88C1187.54 123.88 1179.7 122.387 1172.45 119.4C1165.3 116.413 1159.06 112.307 1153.73 107.08C1148.5 101.747 1144.4 95.4533 1141.41 88.2C1138.42 80.9467 1136.93 73 1136.93 64.36C1136.93 55.72 1138.42 47.7733 1141.41 40.52C1144.4 33.2667 1148.5 27.0267 1153.73 21.8C1159.06 16.4667 1165.3 12.3067 1172.45 9.32C1179.7 6.33333 1187.54 4.84 1195.97 4.84C1204.4 4.84 1212.18 6.33333 1219.33 9.32C1226.58 12.3067 1232.82 16.4667 1238.05 21.8C1243.38 27.0267 1247.54 33.2667 1250.53 40.52C1253.52 47.7733 1255.01 55.72 1255.01 64.36ZM1242.85 64.36C1242.85 57.7467 1241.78 51.4533 1239.65 45.48C1237.52 39.5067 1234.42 34.28 1230.37 29.8C1226.32 25.2133 1221.36 21.5867 1215.49 18.92C1209.73 16.2533 1203.22 14.92 1195.97 14.92C1188.72 14.92 1182.16 16.2533 1176.29 18.92C1170.53 21.5867 1165.62 25.2133 1161.57 29.8C1157.52 34.28 1154.42 39.5067 1152.29 45.48C1150.16 51.4533 1149.09 57.7467 1149.09 64.36C1149.09 70.9733 1150.16 77.2667 1152.29 83.24C1154.42 89.2133 1157.52 94.44 1161.57 98.92C1165.62 103.4 1170.53 106.973 1176.29 109.64C1182.16 112.307 1188.72 113.64 1195.97 113.64C1203.22 113.64 1209.73 112.307 1215.49 109.64C1221.36 106.973 1226.32 103.4 1230.37 98.92C1234.42 94.44 1237.52 89.2133 1239.65 83.24C1241.78 77.2667 1242.85 70.9733 1242.85 64.36ZM1359.27 104.2H1359.59V7.72H1371.11V121H1356.71L1290.79 23.56H1290.47V121H1278.95V7.72H1293.35L1359.27 104.2ZM127.04 204.36C127.04 213 125.547 220.947 122.56 228.2C119.573 235.453 115.413 241.747 110.08 247.08C104.853 252.307 98.6133 256.413 91.36 259.4C84.2133 262.387 76.4267 263.88 68 263.88C59.5733 263.88 51.7333 262.387 44.48 259.4C37.3333 256.413 31.0933 252.307 25.76 247.08C20.5333 241.747 16.4267 235.453 13.44 228.2C10.4533 220.947 8.96 213 8.96 204.36C8.96 195.72 10.4533 187.773 13.44 180.52C16.4267 173.267 20.5333 167.027 25.76 161.8C31.0933 156.467 37.3333 152.307 44.48 149.32C51.7333 146.333 59.5733 144.84 68 144.84C76.4267 144.84 84.2133 146.333 91.36 149.32C98.6133 152.307 104.853 156.467 110.08 161.8C115.413 167.027 119.573 173.267 122.56 180.52C125.547 187.773 127.04 195.72 127.04 204.36ZM114.88 204.36C114.88 197.747 113.813 191.453 111.68 185.48C109.547 179.507 106.453 174.28 102.4 169.8C98.3467 165.213 93.3867 161.587 87.52 158.92C81.76 156.253 75.2533 154.92 68 154.92C60.7467 154.92 54.1867 156.253 48.32 158.92C42.56 161.587 37.6533 165.213 33.6 169.8C29.5467 174.28 26.4533 179.507 24.32 185.48C22.1867 191.453 21.12 197.747 21.12 204.36C21.12 210.973 22.1867 217.267 24.32 223.24C26.4533 229.213 29.5467 234.44 33.6 238.92C37.6533 243.4 42.56 246.973 48.32 249.64C54.1867 252.307 60.7467 253.64 68 253.64C75.2533 253.64 81.76 252.307 87.52 249.64C93.3867 246.973 98.3467 243.4 102.4 238.92C106.453 234.44 109.547 229.213 111.68 223.24C113.813 217.267 114.88 210.973 114.88 204.36ZM183.823 246.12H184.143L220.943 147.72H233.263L189.903 261H177.743L134.543 147.72H147.023L183.823 246.12ZM260.31 250.76H320.95V261H248.79V147.72H319.03V157.96H260.31V197H315.19V207.08H260.31V250.76ZM354.998 261H343.478V147.72H376.758C382.304 147.72 387.424 148.253 392.118 149.32C396.918 150.387 401.024 152.147 404.438 154.6C407.958 156.947 410.678 160.04 412.598 163.88C414.518 167.72 415.478 172.413 415.478 177.96C415.478 182.12 414.731 185.907 413.238 189.32C411.744 192.733 409.718 195.72 407.158 198.28C404.598 200.733 401.558 202.707 398.038 204.2C394.518 205.693 390.678 206.653 386.518 207.08L419.638 261H405.558L374.198 208.04H354.998V261ZM354.998 198.12H374.998C384.278 198.12 391.424 196.467 396.438 193.16C401.451 189.747 403.958 184.68 403.958 177.96C403.958 174.227 403.264 171.08 401.878 168.52C400.491 165.96 398.571 163.88 396.118 162.28C393.664 160.68 390.678 159.507 387.158 158.76C383.638 158.013 379.744 157.64 375.477 157.64H354.998V198.12ZM472.104 246.12H472.424L509.224 147.72H521.544L478.184 261H466.024L422.824 147.72H435.304L472.104 246.12ZM548.591 261H537.071V147.72H548.591V261ZM590.154 250.76H650.794V261H578.634V147.72H648.874V157.96H590.154V197H645.034V207.08H590.154V250.76ZM700.681 245.16H701.001L729.321 147.72H743.081L771.401 245.16H771.721L799.401 147.72H811.561L778.121 261H764.681L736.201 163.72H735.881L707.401 261H693.961L660.521 147.72H672.681L700.681 245.16ZM842.484 193.8C842.484 196.04 841.684 198.067 840.084 199.88C838.484 201.587 836.404 202.44 833.844 202.44C831.284 202.44 829.204 201.587 827.604 199.88C826.004 198.067 825.204 196.04 825.204 193.8C825.204 191.56 826.004 189.587 827.604 187.88C829.204 186.067 831.284 185.16 833.844 185.16C836.404 185.16 838.484 186.067 840.084 187.88C841.684 189.587 842.484 191.56 842.484 193.8ZM842.484 253.32C842.484 255.56 841.684 257.587 840.084 259.4C838.484 261.107 836.404 261.96 833.844 261.96C831.284 261.96 829.204 261.107 827.604 259.4C826.004 257.587 825.204 255.56 825.204 253.32C825.204 251.08 826.004 249.107 827.604 247.4C829.204 245.587 831.284 244.68 833.844 244.68C836.404 244.68 838.484 245.587 840.084 247.4C841.684 249.107 842.484 251.08 842.484 253.32Z" fill="#A8A18F"/>
</svg>
