<svg width="1583" height="280" viewBox="0 0 1583 280" fill="none" xmlns="http://www.w3.org/2000/svg">
<path d="M15.04 7.72H47.04C52.8 7.72 58.0267 8.36 62.72 9.63999C67.4133 10.8133 71.4133 12.68 74.72 15.24C78.1333 17.6933 80.7467 20.84 82.56 24.68C84.3733 28.4133 85.28 32.84 85.28 37.96C85.28 43.08 84.32 47.56 82.4 51.4C80.5867 55.1333 77.9733 58.28 74.56 60.84C71.2533 63.2933 67.2 65.16 62.4 66.44C57.7067 67.72 52.48 68.36 46.72 68.36H26.56V121H15.04V7.72ZM26.56 58.6H46.08C55.1467 58.6 62.0267 56.84 66.72 53.32C71.4133 49.8 73.76 44.68 73.76 37.96C73.76 30.92 71.3067 25.8 66.4 22.6C61.6 19.2933 54.8267 17.64 46.08 17.64H26.56V58.6ZM119.373 121H107.853V7.72H141.133C146.679 7.72 151.799 8.25333 156.493 9.32C161.293 10.3867 165.399 12.1467 168.813 14.6C172.333 16.9467 175.053 20.04 176.973 23.88C178.893 27.72 179.853 32.4133 179.853 37.96C179.853 42.12 179.106 45.9067 177.613 49.32C176.119 52.7333 174.093 55.72 171.533 58.28C168.973 60.7333 165.933 62.7067 162.413 64.2C158.893 65.6933 155.053 66.6533 150.893 67.08L184.013 121H169.933L138.573 68.04H119.373V121ZM119.373 58.12H139.373C148.653 58.12 155.799 56.4667 160.813 53.16C165.826 49.7467 168.333 44.68 168.333 37.96C168.333 34.2267 167.639 31.08 166.253 28.52C164.866 25.96 162.946 23.88 160.493 22.28C158.039 20.68 155.053 19.5067 151.533 18.76C148.013 18.0133 144.119 17.64 139.852 17.64H119.373V58.12ZM215.154 121H203.634V7.72H215.154V121ZM301.196 101.48H301.356L339.276 7.72H356.876V121H345.356V22.6H345.036L304.076 121H297.996L257.036 22.6H256.716V121H245.196V7.72H262.796L301.196 101.48ZM386.115 121H373.475L422.435 7.72H433.635L482.275 121H469.475L456.995 91.24H398.435L386.115 121ZM402.755 80.68H452.675L427.715 20.52L402.755 80.68ZM510.466 121H498.946V7.72H532.226C537.773 7.72 542.893 8.25333 547.586 9.32C552.386 10.3867 556.493 12.1467 559.906 14.6C563.426 16.9467 566.146 20.04 568.066 23.88C569.986 27.72 570.946 32.4133 570.946 37.96C570.946 42.12 570.2 45.9067 568.706 49.32C567.213 52.7333 565.186 55.72 562.626 58.28C560.066 60.7333 557.026 62.7067 553.506 64.2C549.986 65.6933 546.146 66.6533 541.986 67.08L575.106 121H561.026L529.666 68.04H510.466V121ZM510.466 58.12H530.466C539.746 58.12 546.893 56.4667 551.906 53.16C556.92 49.7467 559.426 44.68 559.426 37.96C559.426 34.2267 558.733 31.08 557.346 28.52C555.96 25.96 554.04 23.88 551.586 22.28C549.133 20.68 546.146 19.5067 542.626 18.76C539.106 18.0133 535.213 17.64 530.946 17.64H510.466V58.12ZM632.67 121H621.15V72.2L578.75 7.72H593.15L627.23 62.6L661.63 7.72H675.07L632.67 72.2V121ZM726.134 7.72H758.134C763.894 7.72 769.12 8.36 773.814 9.63999C778.507 10.8133 782.507 12.68 785.814 15.24C789.227 17.6933 791.84 20.84 793.654 24.68C795.467 28.4133 796.374 32.84 796.374 37.96C796.374 43.08 795.414 47.56 793.494 51.4C791.68 55.1333 789.067 58.28 785.654 60.84C782.347 63.2933 778.294 65.16 773.494 66.44C768.8 67.72 763.574 68.36 757.814 68.36H737.654V121H726.134V7.72ZM737.654 58.6H757.174C766.24 58.6 773.12 56.84 777.814 53.32C782.507 49.8 784.854 44.68 784.854 37.96C784.854 30.92 782.4 25.8 777.494 22.6C772.694 19.2933 765.92 17.64 757.174 17.64H737.654V58.6ZM830.466 121H818.946V7.72H852.226C857.773 7.72 862.893 8.25333 867.586 9.32C872.386 10.3867 876.493 12.1467 879.906 14.6C883.426 16.9467 886.146 20.04 888.066 23.88C889.986 27.72 890.946 32.4133 890.946 37.96C890.946 42.12 890.2 45.9067 888.706 49.32C887.213 52.7333 885.186 55.72 882.626 58.28C880.066 60.7333 877.026 62.7067 873.506 64.2C869.986 65.6933 866.146 66.6533 861.986 67.08L895.106 121H881.026L849.666 68.04H830.466V121ZM830.466 58.12H850.466C859.746 58.12 866.893 56.4667 871.906 53.16C876.92 49.7467 879.426 44.68 879.426 37.96C879.426 34.2267 878.733 31.08 877.346 28.52C875.96 25.96 874.04 23.88 871.586 22.28C869.133 20.68 866.146 19.5067 862.626 18.76C859.106 18.0133 855.213 17.64 850.946 17.64H830.466V58.12ZM1026.73 64.36C1026.73 73 1025.23 80.9467 1022.25 88.2C1019.26 95.4533 1015.1 101.747 1009.77 107.08C1004.54 112.307 998.301 116.413 991.048 119.4C983.901 122.387 976.114 123.88 967.688 123.88C959.261 123.88 951.421 122.387 944.168 119.4C937.021 116.413 930.781 112.307 925.448 107.08C920.221 101.747 916.114 95.4533 913.128 88.2C910.141 80.9467 908.648 73 908.648 64.36C908.648 55.72 910.141 47.7733 913.128 40.52C916.114 33.2667 920.221 27.0267 925.448 21.8C930.781 16.4667 937.021 12.3067 944.168 9.32C951.421 6.33333 959.261 4.84 967.688 4.84C976.114 4.84 983.901 6.33333 991.048 9.32C998.301 12.3067 1004.54 16.4667 1009.77 21.8C1015.1 27.0267 1019.26 33.2667 1022.25 40.52C1025.23 47.7733 1026.73 55.72 1026.73 64.36ZM1014.57 64.36C1014.57 57.7467 1013.5 51.4533 1011.37 45.48C1009.23 39.5067 1006.14 34.28 1002.09 29.8C998.034 25.2133 993.074 21.5867 987.208 18.92C981.448 16.2533 974.941 14.92 967.688 14.92C960.434 14.92 953.874 16.2533 948.008 18.92C942.248 21.5867 937.341 25.2133 933.288 29.8C929.234 34.28 926.141 39.5067 924.008 45.48C921.874 51.4533 920.807 57.7467 920.807 64.36C920.807 70.9733 921.874 77.2667 924.008 83.24C926.141 89.2133 929.234 94.44 933.288 98.92C937.341 103.4 942.248 106.973 948.008 109.64C953.874 112.307 960.434 113.64 967.688 113.64C974.941 113.64 981.448 112.307 987.208 109.64C993.074 106.973 998.034 103.4 1002.09 98.92C1006.14 94.44 1009.23 89.2133 1011.37 83.24C1013.5 77.2667 1014.57 70.9733 1014.57 64.36ZM1050.67 7.72H1088.27C1095.31 7.72 1102.35 8.89333 1109.39 11.24C1116.53 13.5867 1122.93 17.16 1128.59 21.96C1134.35 26.6533 1138.99 32.5733 1142.51 39.72C1146.03 46.76 1147.79 54.9733 1147.79 64.36C1147.79 73.8533 1146.03 82.12 1142.51 89.16C1138.99 96.2 1134.35 102.12 1128.59 106.92C1122.93 111.613 1116.53 115.133 1109.39 117.48C1102.35 119.827 1095.31 121 1088.27 121H1050.67V7.72ZM1062.19 110.76H1085.07C1093.6 110.76 1101.01 109.427 1107.31 106.76C1113.71 104.093 1118.99 100.627 1123.15 96.36C1127.31 91.9867 1130.4 87.0267 1132.43 81.48C1134.56 75.9333 1135.62 70.2267 1135.62 64.36C1135.62 58.4933 1134.56 52.7867 1132.43 47.24C1130.4 41.6933 1127.31 36.7867 1123.15 32.52C1118.99 28.1467 1113.71 24.6267 1107.31 21.96C1101.01 19.2933 1093.6 17.96 1085.07 17.96H1062.19V110.76ZM1213.52 123.88C1204.99 123.88 1198 122.44 1192.56 119.56C1187.12 116.573 1182.8 112.84 1179.6 108.36C1176.4 103.88 1174.16 99.0267 1172.88 93.8C1171.71 88.4667 1171.12 83.4533 1171.12 78.76V7.72H1182.64V77.48C1182.64 82.0667 1183.17 86.5467 1184.24 90.92C1185.31 95.1867 1187.01 99.0267 1189.36 102.44C1191.81 105.747 1195.01 108.467 1198.96 110.6C1202.91 112.627 1207.76 113.64 1213.52 113.64C1219.28 113.64 1224.13 112.627 1228.08 110.6C1232.03 108.467 1235.17 105.747 1237.52 102.44C1239.97 99.0267 1241.73 95.1867 1242.8 90.92C1243.87 86.5467 1244.4 82.0667 1244.4 77.48V7.72H1255.92V78.76C1255.92 83.4533 1255.28 88.4667 1254 93.8C1252.83 99.0267 1250.64 103.88 1247.44 108.36C1244.24 112.84 1239.87 116.573 1234.32 119.56C1228.88 122.44 1221.95 123.88 1213.52 123.88ZM1380.71 102.76C1378.79 105.64 1376.45 108.36 1373.67 110.92C1371.01 113.48 1367.86 115.72 1364.23 117.64C1360.71 119.56 1356.77 121.053 1352.39 122.12C1348.13 123.293 1343.43 123.88 1338.31 123.88C1329.78 123.88 1321.89 122.387 1314.63 119.4C1307.38 116.413 1301.14 112.307 1295.91 107.08C1290.69 101.747 1286.58 95.4533 1283.59 88.2C1280.71 80.9467 1279.27 73 1279.27 64.36C1279.27 55.72 1280.77 47.7733 1283.75 40.52C1286.74 33.2667 1290.85 27.0267 1296.07 21.8C1301.41 16.4667 1307.65 12.3067 1314.79 9.32C1322.05 6.33333 1329.89 4.84 1338.31 4.84C1342.47 4.84 1346.53 5.26666 1350.47 6.11999C1354.53 6.97333 1358.31 8.19999 1361.83 9.79999C1365.35 11.2933 1368.55 13.16 1371.43 15.4C1374.31 17.5333 1376.71 19.9867 1378.63 22.76L1369.03 29.8C1367.86 27.9867 1366.26 26.1733 1364.23 24.36C1362.31 22.5467 1360.02 20.9467 1357.35 19.56C1354.69 18.1733 1351.75 17.0533 1348.55 16.2C1345.46 15.3467 1342.1 14.92 1338.47 14.92C1331.11 14.92 1324.5 16.2533 1318.63 18.92C1312.87 21.5867 1307.97 25.2133 1303.91 29.8C1299.86 34.28 1296.77 39.5067 1294.63 45.48C1292.5 51.4533 1291.43 57.7467 1291.43 64.36C1291.43 70.9733 1292.5 77.2667 1294.63 83.24C1296.87 89.2133 1300.02 94.4933 1304.07 99.08C1308.13 103.56 1313.03 107.133 1318.79 109.8C1324.66 112.467 1331.22 113.8 1338.47 113.8C1344.98 113.8 1351.17 112.467 1357.03 109.8C1362.9 107.133 1367.81 102.867 1371.75 97L1380.71 102.76ZM1435.89 121H1424.37V17.96H1386.45V7.72H1473.81V17.96H1435.89V121ZM127.04 204.36C127.04 213 125.547 220.947 122.56 228.2C119.573 235.453 115.413 241.747 110.08 247.08C104.853 252.307 98.6133 256.413 91.36 259.4C84.2133 262.387 76.4267 263.88 68 263.88C59.5733 263.88 51.7333 262.387 44.48 259.4C37.3333 256.413 31.0933 252.307 25.76 247.08C20.5333 241.747 16.4267 235.453 13.44 228.2C10.4533 220.947 8.96 213 8.96 204.36C8.96 195.72 10.4533 187.773 13.44 180.52C16.4267 173.267 20.5333 167.027 25.76 161.8C31.0933 156.467 37.3333 152.307 44.48 149.32C51.7333 146.333 59.5733 144.84 68 144.84C76.4267 144.84 84.2133 146.333 91.36 149.32C98.6133 152.307 104.853 156.467 110.08 161.8C115.413 167.027 119.573 173.267 122.56 180.52C125.547 187.773 127.04 195.72 127.04 204.36ZM114.88 204.36C114.88 197.747 113.813 191.453 111.68 185.48C109.547 179.507 106.453 174.28 102.4 169.8C98.3467 165.213 93.3867 161.587 87.52 158.92C81.76 156.253 75.2533 154.92 68 154.92C60.7467 154.92 54.1867 156.253 48.32 158.92C42.56 161.587 37.6533 165.213 33.6 169.8C29.5467 174.28 26.4533 179.507 24.32 185.48C22.1867 191.453 21.12 197.747 21.12 204.36C21.12 210.973 22.1867 217.267 24.32 223.24C26.4533 229.213 29.5467 234.44 33.6 238.92C37.6533 243.4 42.56 246.973 48.32 249.64C54.1867 252.307 60.7467 253.64 68 253.64C75.2533 253.64 81.76 252.307 87.52 249.64C93.3867 246.973 98.3467 243.4 102.4 238.92C106.453 234.44 109.547 229.213 111.68 223.24C113.813 217.267 114.88 210.973 114.88 204.36ZM150.978 147.72H184.738C189.004 147.72 193.324 148.2 197.698 149.16C202.071 150.013 205.964 151.56 209.378 153.8C212.898 155.933 215.724 158.867 217.858 162.6C220.098 166.333 221.218 171.027 221.218 176.68C221.218 182.653 219.404 187.88 215.778 192.36C212.151 196.733 207.298 199.613 201.218 201V201.32C208.578 202.173 214.658 205.053 219.458 209.96C224.364 214.76 226.818 221.32 226.818 229.64C226.818 234.333 225.804 238.653 223.778 242.6C221.858 246.44 219.084 249.747 215.458 252.52C211.831 255.187 207.404 257.267 202.178 258.76C196.951 260.253 191.084 261 184.578 261H150.978V147.72ZM162.498 197.32H185.698C188.471 197.32 191.244 197 194.018 196.36C196.898 195.72 199.511 194.653 201.858 193.16C204.204 191.56 206.071 189.48 207.458 186.92C208.951 184.36 209.698 181.213 209.698 177.48C209.698 173.853 208.951 170.813 207.458 168.36C206.071 165.8 204.151 163.72 201.698 162.12C199.244 160.52 196.364 159.4 193.058 158.76C189.751 158.013 186.231 157.64 182.498 157.64H162.498V197.32ZM162.498 251.08H183.938C188.098 251.08 192.044 250.707 195.778 249.96C199.618 249.107 202.924 247.827 205.698 246.12C208.578 244.307 210.871 242.013 212.578 239.24C214.284 236.36 215.138 232.947 215.138 229C215.138 221.533 212.578 215.987 207.458 212.36C202.444 208.627 195.298 206.76 186.018 206.76H162.498V251.08ZM252.376 237.96C253.23 242.44 255.203 246.227 258.296 249.32C261.496 252.307 265.656 253.8 270.776 253.8C274.723 253.8 277.976 253.107 280.536 251.72C283.096 250.227 285.123 248.253 286.616 245.8C288.216 243.347 289.283 240.573 289.816 237.48C290.456 234.28 290.776 230.973 290.776 227.56V147.72H302.296V228.36C302.296 232.093 301.87 236.04 301.016 240.2C300.27 244.36 298.776 248.2 296.536 251.72C294.296 255.24 291.203 258.173 287.256 260.52C283.31 262.76 278.243 263.88 272.056 263.88C263.843 263.88 257.07 261.747 251.736 257.48C246.403 253.107 243.043 247.56 241.656 240.84L252.376 237.96ZM342.966 250.76H403.606V261H331.446V147.72H401.686V157.96H342.966V197H397.846V207.08H342.966V250.76ZM521.494 242.76C519.574 245.64 517.227 248.36 514.454 250.92C511.787 253.48 508.64 255.72 505.014 257.64C501.494 259.56 497.547 261.053 493.174 262.12C488.907 263.293 484.214 263.88 479.094 263.88C470.56 263.88 462.667 262.387 455.414 259.4C448.16 256.413 441.92 252.307 436.694 247.08C431.467 241.747 427.36 235.453 424.374 228.2C421.494 220.947 420.054 213 420.054 204.36C420.054 195.72 421.547 187.773 424.534 180.52C427.52 173.267 431.627 167.027 436.854 161.8C442.187 156.467 448.427 152.307 455.574 149.32C462.827 146.333 470.667 144.84 479.094 144.84C483.254 144.84 487.307 145.267 491.254 146.12C495.307 146.973 499.094 148.2 502.614 149.8C506.134 151.293 509.334 153.16 512.214 155.4C515.094 157.533 517.494 159.987 519.414 162.76L509.814 169.8C508.64 167.987 507.04 166.173 505.014 164.36C503.094 162.547 500.8 160.947 498.134 159.56C495.467 158.173 492.534 157.053 489.334 156.2C486.24 155.347 482.88 154.92 479.254 154.92C471.894 154.92 465.28 156.253 459.414 158.92C453.654 161.587 448.747 165.213 444.694 169.8C440.64 174.28 437.547 179.507 435.414 185.48C433.28 191.453 432.214 197.747 432.214 204.36C432.214 210.973 433.28 217.267 435.414 223.24C437.654 229.213 440.8 234.493 444.854 239.08C448.907 243.56 453.814 247.133 459.574 249.8C465.44 252.467 472 253.8 479.254 253.8C485.76 253.8 491.947 252.467 497.814 249.8C503.68 247.133 508.587 242.867 512.534 237L521.494 242.76ZM576.673 261H565.153V157.96H527.233V147.72H614.593V157.96H576.673V261ZM643.123 261H631.603V147.72H643.123V261ZM707.885 246.12H708.205L745.005 147.72H757.325L713.965 261H701.805L658.605 147.72H671.085L707.885 246.12ZM784.373 250.76H845.013V261H772.853V147.72H843.093V157.96H784.373V197H839.253V207.08H784.373V250.76ZM885.14 193.8C885.14 196.04 884.34 198.067 882.74 199.88C881.14 201.587 879.06 202.44 876.5 202.44C873.94 202.44 871.86 201.587 870.26 199.88C868.66 198.067 867.86 196.04 867.86 193.8C867.86 191.56 868.66 189.587 870.26 187.88C871.86 186.067 873.94 185.16 876.5 185.16C879.06 185.16 881.14 186.067 882.74 187.88C884.34 189.587 885.14 191.56 885.14 193.8ZM885.14 253.32C885.14 255.56 884.34 257.587 882.74 259.4C881.14 261.107 879.06 261.96 876.5 261.96C873.94 261.96 871.86 261.107 870.26 259.4C868.66 257.587 867.86 255.56 867.86 253.32C867.86 251.08 868.66 249.107 870.26 247.4C871.86 245.587 873.94 244.68 876.5 244.68C879.06 244.68 881.14 245.587 882.74 247.4C884.34 249.107 885.14 251.08 885.14 253.32Z" fill="#A8A18F"/>
</svg>
