<svg width="371" height="240" viewBox="0 0 371 240" fill="none" xmlns="http://www.w3.org/2000/svg">
<path d="M370.107 213.701C370.107 218.101 368.507 222.001 365.307 225.401C362.307 228.601 358.507 230.201 353.907 230.201C349.507 230.201 345.707 228.801 342.507 226.001C339.507 223.201 338.007 219.401 338.007 214.601C338.007 209.801 339.607 205.801 342.807 202.601C346.207 199.401 350.107 197.801 354.507 197.801C358.907 197.801 362.607 199.201 365.607 202.001C368.607 204.801 370.107 208.701 370.107 213.701Z" fill="#A8A18F"/>
<path d="M247.983 228.4H226.983L259.683 42.1L214.983 75.4L204.483 59.8L266.283 16H285.483L247.983 228.4Z" fill="#A8A18F"/>
<path d="M50.4 200.5H51L159 16H182.7L56.4 228.4H34.2L0 16H22.8L50.4 200.5Z" fill="#A8A18F"/>
</svg>
