<svg width="371" height="240" viewBox="0 0 371 240" fill="none" xmlns="http://www.w3.org/2000/svg">
<path d="M370.206 213.3C370.206 217.7 368.606 221.6 365.406 225C362.406 228.2 358.606 229.8 354.006 229.8C349.606 229.8 345.806 228.4 342.606 225.6C339.606 222.8 338.106 219 338.106 214.2C338.106 209.4 339.706 205.4 342.906 202.2C346.306 199 350.206 197.4 354.606 197.4C359.006 197.4 362.706 198.8 365.706 201.6C368.706 204.4 370.206 208.3 370.206 213.3Z" fill="#A8A18F"/>
<path d="M293.083 228H157.183L161.083 205.5L262.783 117.6C267.983 113.2 272.583 109 276.583 105C280.783 100.8 284.283 96.6002 287.083 92.4002C290.083 88.0002 292.383 83.4002 293.983 78.6002C295.583 73.8002 296.383 68.5002 296.383 62.7002C296.383 57.3002 295.283 52.5002 293.083 48.3002C291.083 44.1002 288.283 40.5002 284.683 37.5002C281.283 34.5002 277.283 32.3002 272.683 30.9002C268.083 29.3002 263.183 28.5002 257.983 28.5002C244.983 28.5002 234.483 32.1002 226.483 39.3002C218.483 46.5002 212.983 55.3002 209.983 65.7002L189.583 61.5002C191.783 54.3002 194.883 47.6002 198.883 41.4002C203.083 35.0002 208.083 29.5002 213.883 24.9002C219.883 20.3002 226.583 16.7002 233.983 14.1002C241.583 11.5002 249.883 10.2002 258.883 10.2002C266.483 10.2002 273.783 11.3002 280.783 13.5002C287.983 15.5002 294.283 18.7002 299.683 23.1002C305.283 27.3002 309.683 32.6002 312.883 39.0002C316.283 45.2002 317.983 52.5002 317.983 60.9002C317.983 69.5002 316.983 77.0002 314.983 83.4002C312.983 89.6002 310.083 95.4002 306.283 100.8C302.683 106.2 298.183 111.4 292.783 116.4C287.583 121.4 281.583 126.8 274.783 132.6L185.083 209.1H296.383L293.083 228Z" fill="#A8A18F"/>
<path d="M50.4996 200.1H51.0996L159.1 15.5996H182.8L56.4996 228H34.2996L0.0996094 15.5996H22.8996L50.4996 200.1Z" fill="#A8A18F"/>
</svg>
