<svg width="2000" height="1452" viewBox="0 0 2000 1452" fill="none" xmlns="http://www.w3.org/2000/svg">
<path d="M1576.72 213.489C1557.1 213.489 1541.17 229.423 1541.17 249.014V344.429C1541.17 345.175 1541.8 345.847 1542.58 345.847C1542.99 345.847 1543.29 345.698 1543.52 345.474L1611.15 260.059C1611.79 259.238 1612.2 258.268 1612.2 257.111V249.014C1612.2 229.423 1596.27 213.489 1576.68 213.489" fill="#ED135D"/>
<path d="M1671.44 213.489C1651.81 213.489 1635.92 229.423 1635.92 249.014V344.429C1635.92 345.175 1636.52 345.847 1637.34 345.847C1637.68 345.847 1638.05 345.698 1638.27 345.474L1705.94 260.059C1706.58 259.238 1706.95 258.268 1706.95 257.111V249.014C1706.95 229.423 1691.1 213.489 1671.44 213.489Z" fill="#ED135D"/>
<path d="M747.899 384.209C768.79 384.209 785.802 367.156 785.802 346.259C785.802 325.362 768.753 308.346 747.899 308.346C727.045 308.346 709.959 325.362 709.959 346.259C709.959 367.156 726.971 384.209 747.899 384.209ZM1597.57 464.474C1585.93 436.898 1566.57 413.613 1542.1 397.083C1517.67 380.552 1488.04 370.85 1456.37 370.85C1435.37 370.85 1415.11 375.216 1396.76 382.94C1373.33 392.866 1353 408.352 1337.22 427.793L1336.99 428.092C1336.47 428.726 1335.99 429.36 1335.43 430.032L1196.28 605.75C1196.02 606.012 1195.68 606.124 1195.31 606.124C1194.52 606.124 1193.89 605.489 1193.89 604.706V381.111H1260.59C1280.07 381.111 1295.88 365.29 1295.88 345.811C1295.88 326.332 1280.07 310.473 1260.59 310.473H1193.89V169.048C1193.89 168.302 1193.25 167.667 1192.47 167.667C1192.14 167.667 1191.76 167.854 1191.54 168.115L1124.35 252.858C1123.68 253.679 1123.27 254.724 1123.27 255.806V310.473H987.551V169.048C987.551 168.302 986.954 167.667 986.208 167.667C985.76 167.667 985.462 167.854 985.238 168.115L918.05 252.858C917.342 253.679 917.043 254.724 917.043 255.806V310.473H850.303C830.792 310.473 814.975 326.332 814.975 345.811C814.975 365.29 830.83 381.111 850.303 381.111H917.043V437.458L783.675 605.75C783.451 606.012 783.078 606.124 782.743 606.124C781.959 606.124 781.362 605.489 781.362 604.706V449.772C781.362 434.734 771.849 421.338 757.636 416.412C743.423 411.449 727.717 416.039 718.428 427.83L577.412 605.75C577.412 605.75 576.815 606.124 576.479 606.124C575.733 606.124 575.099 605.489 575.099 604.706V183.228C575.099 163.749 559.282 148.002 539.808 148.002C520.334 148.002 504.517 163.749 504.517 183.228V395.067C480.678 379.768 452.14 370.85 421.847 370.85C400.807 370.85 380.587 375.216 362.233 382.94C334.627 394.62 311.311 413.986 294.821 438.428C278.295 462.87 268.633 492.498 268.633 524.104C268.633 545.187 272.923 565.45 280.645 583.772C292.359 611.348 311.721 634.67 336.156 651.201C360.554 667.694 390.212 677.359 421.81 677.359C442.888 677.359 463.107 673.068 481.462 665.306C493.959 660.082 505.636 653.141 516.082 644.932C521.304 652.917 528.094 659.821 535.965 665.194C547.344 672.918 561.333 677.433 575.995 677.396C587.186 677.396 597.968 674.784 607.443 670.194C616.919 665.492 625.201 658.888 631.729 650.753L631.953 650.454L710.705 551.121V605.862C710.705 615.639 712.683 625.154 716.339 633.737C721.748 646.648 730.813 657.507 742.229 665.231C753.607 672.956 767.559 677.471 782.258 677.433C793.412 677.433 804.231 674.821 813.706 670.232C823.182 665.53 831.464 658.925 837.992 650.79L838.254 650.492L916.969 551.158V605.9C916.969 615.676 918.946 625.192 922.565 633.774C928.011 646.685 937.076 657.544 948.455 665.269C959.87 672.993 973.785 677.508 988.521 677.471C999.675 677.471 1010.42 674.859 1019.93 670.269C1029.45 665.567 1037.69 658.962 1044.18 650.827L1044.44 650.529L1123.16 551.195V605.937C1123.16 615.714 1125.13 625.229 1128.79 633.812C1134.24 646.723 1143.27 657.582 1154.68 665.306C1166.02 672.993 1179.97 677.508 1194.67 677.508C1205.86 677.508 1216.65 674.896 1226.12 670.306C1235.6 665.604 1243.88 659 1250.41 650.865L1250.67 650.566L1311.25 574.07C1312.37 577.428 1313.68 580.712 1315.02 583.921C1326.7 611.497 1346.06 634.819 1370.46 651.35C1394.89 667.843 1424.51 677.508 1456.11 677.508C1477.19 677.508 1497.45 673.217 1515.8 665.455C1543.37 653.813 1566.68 634.446 1583.21 610.004C1599.66 585.6 1609.4 555.897 1609.4 524.254C1609.4 503.208 1605.11 482.945 1597.31 464.586M421.959 606.833C376.334 606.833 339.327 569.816 339.327 524.179C339.327 478.542 376.334 441.562 421.959 441.562C467.584 441.562 504.629 478.542 504.629 524.179C504.629 569.816 467.584 606.833 421.959 606.833ZM1123.38 437.458L990.013 605.75C989.789 606.012 989.454 606.124 989.118 606.124C988.334 606.124 987.663 605.489 987.663 604.706V381.111H1123.38V437.458ZM1458.54 606.833C1412.91 606.833 1375.87 569.816 1375.87 524.179C1375.87 478.542 1412.91 441.562 1458.54 441.562C1504.16 441.562 1541.17 478.542 1541.17 524.179C1541.17 569.816 1504.2 606.833 1458.54 606.833Z" fill="#3E1865"/>
<path d="M929.505 1027.3C919.581 1027.3 911.561 1035.36 911.561 1045.25V1093.46C911.561 1093.84 911.896 1094.17 912.269 1094.17C912.493 1094.17 912.642 1094.1 912.754 1093.98L946.926 1050.85C947.262 1050.44 947.449 1049.95 947.449 1049.36V1045.25C947.449 1035.36 939.428 1027.3 929.505 1027.3Z" fill="#ED135D"/>
<path d="M977.331 1027.3C967.407 1027.3 959.387 1035.36 959.387 1045.25V1093.46C959.387 1093.84 959.685 1094.17 960.096 1094.17C960.282 1094.17 960.469 1094.1 960.58 1093.98L994.753 1050.85C995.051 1050.44 995.275 1049.95 995.275 1049.36V1045.25C995.275 1035.36 987.254 1027.3 977.331 1027.3Z" fill="#ED135D"/>
<path d="M510.789 1113.54C521.347 1113.54 529.927 1104.92 529.927 1094.36C529.927 1083.8 521.309 1075.21 510.789 1075.21C500.269 1075.21 491.614 1083.8 491.614 1094.36C491.614 1104.92 500.194 1113.54 510.789 1113.54ZM940.029 1154.1C934.172 1140.18 924.36 1128.39 912.012 1120.07C899.664 1111.71 884.704 1106.82 868.7 1106.82C858.068 1106.82 847.846 1109.02 838.594 1112.94C826.768 1117.94 816.472 1125.78 808.526 1135.59L808.414 1135.74C808.153 1136.08 807.929 1136.37 807.631 1136.71L737.347 1225.48C737.347 1225.48 737.048 1225.67 736.862 1225.67C736.451 1225.67 736.153 1225.33 736.153 1224.96V1112.01H769.84C779.689 1112.01 787.672 1104.02 787.672 1094.17C787.672 1084.32 779.689 1076.33 769.84 1076.33H736.153V1004.87C736.153 1004.5 735.817 1004.17 735.444 1004.17C735.258 1004.17 735.071 1004.28 734.996 1004.39L701.048 1047.19C700.712 1047.6 700.526 1048.12 700.526 1048.68V1076.3H631.958V1004.84C631.958 1004.46 631.66 1004.13 631.287 1004.13C631.063 1004.13 630.914 1004.24 630.802 1004.35L596.853 1047.15C596.48 1047.56 596.331 1048.09 596.331 1048.65V1076.26H562.607C552.758 1076.26 544.737 1084.28 544.737 1094.1C544.737 1103.91 552.721 1111.93 562.607 1111.93H596.331V1140.4L528.957 1225.41C528.957 1225.41 528.659 1225.6 528.472 1225.6C528.062 1225.6 527.763 1225.26 527.763 1224.89V1146.6C527.763 1139.02 522.951 1132.23 515.788 1129.77C508.625 1127.27 500.679 1129.58 495.979 1135.55L424.725 1225.45C424.725 1225.45 424.426 1225.63 424.24 1225.63C423.867 1225.63 423.568 1225.3 423.568 1224.92V1012C423.568 1002.15 415.585 994.202 405.736 994.202C395.888 994.202 387.904 1002.15 387.904 1012V1119.02C375.854 1111.3 361.454 1106.78 346.159 1106.78C335.527 1106.78 325.305 1108.98 316.053 1112.9C302.101 1118.8 290.35 1128.58 281.993 1140.93C273.637 1153.28 268.787 1168.24 268.787 1184.21C268.787 1194.85 270.951 1205.11 274.868 1214.36C280.8 1228.28 290.574 1240.07 302.885 1248.43C315.233 1256.75 330.192 1261.64 346.159 1261.64C356.791 1261.64 367.013 1259.48 376.302 1255.56C382.607 1252.91 388.501 1249.4 393.799 1245.26C396.447 1249.29 399.879 1252.76 403.834 1255.48C409.579 1259.37 416.667 1261.68 424.053 1261.64C429.687 1261.64 435.171 1260.34 439.946 1257.98C444.721 1255.6 448.899 1252.28 452.219 1248.17L452.331 1248.02L492.099 1197.83V1225.48C492.099 1230.41 493.106 1235.22 494.934 1239.55C497.658 1246.08 502.246 1251.57 507.991 1255.45C513.736 1259.33 520.787 1261.64 528.211 1261.6C533.844 1261.6 539.291 1260.3 544.103 1257.95C548.878 1255.56 553.057 1252.24 556.377 1248.13L556.526 1247.98L596.294 1197.8V1225.45C596.294 1230.37 597.301 1235.19 599.129 1239.51C601.89 1246.04 606.478 1251.53 612.223 1255.41C618.006 1259.29 625.019 1261.6 632.443 1261.57C638.076 1261.57 643.523 1260.26 648.298 1257.91C653.11 1255.52 657.289 1252.2 660.572 1248.1L660.721 1247.95L700.489 1197.76V1225.41C700.489 1230.33 701.496 1235.15 703.324 1239.48C706.047 1246.01 710.636 1251.49 716.381 1255.37C722.126 1259.25 729.177 1261.53 736.563 1261.53C742.196 1261.53 747.643 1260.22 752.455 1257.87C757.231 1255.48 761.409 1252.16 764.729 1248.06L764.878 1247.91L795.469 1209.25C796.029 1210.97 796.7 1212.61 797.372 1214.21C803.266 1228.13 813.04 1239.92 825.388 1248.28C837.736 1256.6 852.696 1261.49 868.663 1261.49C879.332 1261.49 889.554 1259.33 898.806 1255.41C912.721 1249.55 924.509 1239.74 932.866 1227.39C941.185 1215.07 946.109 1200.03 946.109 1184.06C946.109 1173.43 943.946 1163.2 939.991 1153.91M346.159 1226.01C323.104 1226.01 304.414 1207.31 304.414 1184.25C304.414 1161.19 323.104 1142.49 346.159 1142.49C369.214 1142.49 387.904 1161.19 387.904 1184.25C387.904 1207.31 369.214 1226.01 346.159 1226.01ZM700.489 1140.44L633.115 1225.45C633.115 1225.45 632.816 1225.63 632.667 1225.63C632.257 1225.63 631.921 1225.3 631.921 1224.92V1111.97H700.489V1140.44ZM869.782 1226.01C846.727 1226.01 828.037 1207.31 828.037 1184.25C828.037 1161.19 846.764 1142.49 869.782 1142.49C892.799 1142.49 911.527 1161.19 911.527 1184.25C911.527 1207.31 892.837 1226.01 869.782 1226.01Z" fill="#3E1865"/>
<path d="M911.297 1004.8V1302.99" stroke="#80848A" stroke-width="0.906736" stroke-miterlimit="10"/>
<path d="M267.178 1094.88H992.624" stroke="#80848A" stroke-width="0.906736" stroke-miterlimit="10"/>
<path d="M256.774 1095.22C256.774 1089.77 252.372 1085.37 246.925 1085.37C241.478 1085.37 237.076 1089.77 237.076 1095.22C237.076 1100.67 241.478 1105.07 246.925 1105.07C252.372 1105.07 256.774 1100.67 256.774 1095.22Z" stroke="#80848A" stroke-width="0.906736"/>
<path d="M230.695 1095.22H262.144" stroke="#80848A" stroke-width="0.906736"/>
</svg>
