<svg width="2000" height="1452" viewBox="0 0 2000 1452" fill="none" xmlns="http://www.w3.org/2000/svg">
<g clip-path="url(#clip0_160_926)">
<path d="M1577.6 213.554C1557.95 213.554 1542 229.503 1542 249.114V344.626C1542 345.373 1542.64 346.045 1543.42 346.045C1543.83 346.045 1544.13 345.896 1544.36 345.672L1612.08 260.17C1612.71 259.349 1613.12 258.377 1613.12 257.22V249.114C1613.12 229.503 1597.17 213.554 1577.56 213.554" fill="#ED135D"/>
<path d="M1672.44 213.554C1652.79 213.554 1636.88 229.503 1636.88 249.114V344.626C1636.88 345.373 1637.48 346.045 1638.3 346.045C1638.64 346.045 1639.01 345.896 1639.23 345.672L1706.99 260.17C1707.63 259.349 1708 258.377 1708 257.22V249.114C1708 229.503 1692.13 213.554 1672.44 213.554Z" fill="#ED135D"/>
<path d="M747.729 384.445C768.646 384.445 785.68 367.375 785.68 346.457C785.68 325.539 768.609 308.506 747.729 308.506C726.848 308.506 709.741 325.539 709.741 346.457C709.741 367.375 726.774 384.445 747.729 384.445ZM1598.52 464.792C1586.87 437.188 1567.48 413.879 1542.98 397.332C1518.51 380.785 1488.85 371.073 1457.14 371.073C1436.11 371.073 1415.83 375.443 1397.45 383.175C1373.99 393.111 1353.63 408.613 1337.83 428.074L1337.61 428.372C1337.09 429.008 1336.6 429.643 1336.04 430.315L1196.71 606.211C1196.45 606.472 1196.12 606.584 1195.74 606.584C1194.96 606.584 1194.32 605.949 1194.32 605.165V381.345H1261.11C1280.61 381.345 1296.45 365.507 1296.45 346.009C1296.45 326.511 1280.61 310.635 1261.11 310.635H1194.32V169.067C1194.32 168.32 1193.69 167.685 1192.9 167.685C1192.57 167.685 1192.19 167.872 1191.97 168.133L1124.7 252.962C1124.02 253.784 1123.61 254.83 1123.61 255.913V310.635H987.722V169.067C987.722 168.32 987.125 167.685 986.378 167.685C985.93 167.685 985.631 167.872 985.407 168.133L918.134 252.962C917.424 253.784 917.125 254.83 917.125 255.913V310.635H850.3C830.765 310.635 814.927 326.511 814.927 346.009C814.927 365.507 830.802 381.345 850.3 381.345H917.125V437.748L783.588 606.211C783.364 606.472 782.99 606.584 782.654 606.584C781.87 606.584 781.272 605.949 781.272 605.165V450.075C781.272 435.021 771.747 421.612 757.515 416.681C743.284 411.713 727.558 416.307 718.257 428.111L577.062 606.211C577.062 606.211 576.465 606.584 576.129 606.584C575.381 606.584 574.746 605.949 574.746 605.165V183.261C574.746 163.763 558.909 148 539.41 148C519.912 148 504.074 163.763 504.074 183.261V395.315C480.206 380 451.631 371.073 421.3 371.073C400.233 371.073 379.987 375.443 361.61 383.175C333.968 394.867 310.623 414.253 294.113 438.719C277.565 463.186 267.891 492.844 267.891 524.482C267.891 545.587 272.186 565.869 279.918 584.21C291.647 611.814 311.033 635.159 335.5 651.707C359.929 668.217 389.624 677.891 421.263 677.891C442.367 677.891 462.612 673.596 480.99 665.826C493.503 660.597 505.195 653.649 515.654 645.431C520.883 653.425 527.682 660.335 535.563 665.714C546.956 673.446 560.963 677.966 575.643 677.929C586.849 677.929 597.644 675.314 607.132 670.72C616.619 666.013 624.912 659.402 631.448 651.259L631.673 650.96L710.525 551.526V606.323C710.525 616.109 712.505 625.634 716.165 634.226C721.582 647.15 730.658 658.019 742.088 665.752C753.481 673.484 767.451 678.003 782.168 677.966C793.337 677.966 804.169 675.351 813.657 670.757C823.145 666.05 831.437 659.439 837.974 651.296L838.235 650.997L917.05 551.563V606.36C917.05 616.147 919.03 625.672 922.653 634.263C928.107 647.187 937.184 658.057 948.576 665.789C960.006 673.521 973.939 678.041 988.694 678.003C999.862 678.003 1010.62 675.389 1020.15 670.794C1029.67 666.088 1037.93 659.476 1044.42 651.333L1044.69 651.034L1123.5 551.6V606.397C1123.5 616.184 1125.48 625.709 1129.14 634.3C1134.59 647.224 1143.63 658.094 1155.06 665.826C1166.42 673.521 1180.39 678.041 1195.11 678.041C1206.31 678.041 1217.11 675.426 1226.6 670.832C1236.08 666.125 1244.38 659.514 1250.91 651.371L1251.17 651.072L1311.84 574.498C1312.96 577.86 1314.26 581.147 1315.61 584.359C1327.3 611.963 1346.69 635.309 1371.11 651.856C1395.58 668.366 1425.24 678.041 1456.88 678.041C1477.98 678.041 1498.26 673.745 1516.64 665.976C1544.25 654.322 1567.59 634.935 1584.14 610.469C1600.61 586.04 1610.36 556.27 1610.36 524.632C1610.36 503.564 1606.07 483.282 1598.26 464.904M421.412 607.294C375.729 607.294 338.675 570.24 338.675 524.557C338.675 478.874 375.729 441.857 421.412 441.857C467.095 441.857 504.186 478.874 504.186 524.557C504.186 570.24 467.095 607.294 421.412 607.294ZM1123.73 437.748L990.188 606.211C989.964 606.472 989.628 606.584 989.291 606.584C988.507 606.584 987.835 605.949 987.835 605.165V381.345H1123.73V437.748ZM1459.31 607.294C1413.62 607.294 1376.53 570.24 1376.53 524.557C1376.53 478.874 1413.62 441.857 1459.31 441.857C1504.99 441.857 1542.04 478.874 1542.04 524.557C1542.04 570.24 1505.03 607.294 1459.31 607.294Z" fill="#3E1865"/>
<path d="M798.971 756.296V808.964L808.795 813.895V817.817H769.611V813.895L781.564 808.964V756.296H771.031V749.274H781.564V747.294C781.564 728.618 783.507 718.532 805.694 718.532C813.987 718.532 830.982 719.952 836.324 722.305C840.246 724.135 841.666 726.376 841.666 730.859C841.666 735.752 838.005 738.703 832.103 738.703C824.931 738.703 822.989 736.873 817.909 725.368C816.49 725.218 815.929 725.218 815.257 725.218C803.752 725.218 798.971 730.149 798.971 742.065V749.236H830.273L840.246 748.116V808.889L852.759 813.82V817.742H813.725V813.82L823.4 808.889V756.222H798.971V756.296Z" fill="#ED135D"/>
<path d="M862.139 756.294H851.605V751.513L853.137 750.953C864.642 747.031 865.501 746.47 869.983 739.299C871.926 736.198 872.785 734.816 874.055 731.865H879.546V749.272H901.173V756.294H879.546V798.13C879.546 807.543 882.347 810.344 892.022 810.344C893.553 810.344 894.972 810.344 896.242 810.083L900.015 809.522L901.136 809.373L902.406 814.864L900.874 815.275L893.553 817.105C888.51 818.375 882.758 819.085 878.686 819.085C867.294 819.085 862.139 813.743 862.139 802.238V756.332V756.294Z" fill="#ED135D"/>
<path d="M961.275 818.229L936.435 756.895L928.143 753.235V749.312H964.525V753.235L954.85 756.895L965.795 786.516C965.944 787.077 966.654 789.056 967.625 792.119C968.484 794.51 969.044 796.041 969.156 796.751C969.306 797.162 969.455 797.872 969.717 798.731L984.471 757.754L975.058 753.272V749.35H1003V753.272L994.295 758.165L966.093 828.09C961.051 840.716 959.781 842.546 954.589 845.796C950.667 848.186 946.296 849.307 940.843 849.307C936.51 849.307 932.55 848.896 929.599 848.037V834.552H940.955L943.495 842.957C949.658 842.135 953.468 838.176 957.241 828.651L961.312 818.266L961.275 818.229Z" fill="#ED135D"/>
<path d="M998.742 785.655C998.742 763.467 1013.5 748.601 1035.39 748.601C1057.27 748.601 1070.61 762.234 1070.61 783.152C1070.61 804.07 1055.86 819.945 1033.97 819.945C1012.08 819.945 998.742 806.199 998.742 785.692M1017.57 782.704C1017.57 801.642 1024.03 812.885 1034.83 812.885C1045.62 812.885 1051.82 802.763 1051.82 785.393C1051.82 766.567 1045.21 754.913 1034.56 754.913C1023.92 754.913 1017.57 765.148 1017.57 782.704Z" fill="#ED135D"/>
<path d="M1125.81 820.019V811.726L1124.54 812.286C1111.21 817.628 1105.87 819.159 1100.97 819.159C1095.78 819.159 1090.59 816.918 1087.64 813.258C1084.28 809.037 1083.31 804.965 1083.31 795.44V760.067L1071.39 756.556V752.783L1100.71 747.74V791.107C1100.71 804.741 1103.93 808.663 1114.91 808.663C1118.68 808.663 1120.4 808.514 1124.73 807.692L1125.85 807.543V760.067L1114.05 756.556V752.783L1142.7 747.74V807.244L1154.5 810.493V814.416L1125.85 820.019H1125.81Z" fill="#ED135D"/>
<path d="M1186.78 760.256V808.965L1201.53 813.895V817.817H1158.13V813.895L1170.08 808.965V760.256L1158.13 756.596V752.823L1186.78 747.78V756.483L1188.31 755.624C1199.1 749.723 1203.77 747.892 1208.11 747.892C1210.76 747.892 1213.6 748.714 1216.81 750.395V767.54H1202.5L1198.69 758.687C1197.27 758.538 1196.19 758.389 1195.48 758.389C1193.39 758.389 1189.73 759.21 1186.78 760.219" fill="#ED135D"/>
<path d="M1254.09 808.964V731.456L1241.57 728.095V724.135L1270.93 718.532V808.964L1283.41 813.857V817.779H1242.28V813.857L1254.09 808.964Z" fill="#ED135D"/>
<path d="M1300.66 808.962V760.216L1288.75 756.705V752.932L1318.07 747.74V808.962L1330.02 813.855V817.777H1288.75V813.855L1300.66 808.962Z" fill="#ED135D"/>
<path d="M1363.86 756.296V808.964L1378.62 813.895V817.817H1334.54V813.895L1346.49 808.964V756.296H1335.96V749.274H1346.49V746.323C1346.49 729.215 1358.71 718.532 1378.5 718.532C1384.26 718.682 1389.86 719.354 1395.35 721.072V733.996H1384.67L1379.18 724.733C1368.53 724.882 1363.86 729.775 1363.86 741.318V749.311H1381.42V756.334H1363.86V756.296Z" fill="#ED135D"/>
<path d="M1444.03 782.144H1400.21C1400.21 799.7 1409.89 810.084 1426.06 810.084C1430.13 810.084 1435.47 809.374 1441.94 807.992L1442.91 813.184C1431.51 817.106 1421.69 819.198 1414.97 819.198C1395.17 819.198 1382.54 806.124 1382.54 785.505C1382.54 764.887 1396.59 748.601 1415.53 748.601C1427.44 748.601 1435.47 752.523 1439.7 760.554C1442.91 766.605 1443.77 770.788 1444.03 782.181M1425.5 774.972C1425.2 760.105 1421.99 754.204 1413.85 754.204C1405.14 754.204 1400.36 762.197 1400.36 777.363L1425.5 774.972Z" fill="#ED135D"/>
<path d="M1468.64 809.747C1468.64 814.939 1464.42 819.198 1459.19 819.198C1453.96 819.198 1449.74 814.977 1449.74 809.747C1449.74 804.518 1453.96 800.297 1459.19 800.297C1464.42 800.297 1468.64 804.518 1468.64 809.747Z" fill="#ED135D"/>
<path d="M1319.23 726.638C1319.23 732.167 1314.75 736.649 1309.22 736.649C1303.69 736.649 1299.21 732.167 1299.21 726.638C1299.21 721.11 1303.69 716.665 1309.22 716.665C1314.75 716.665 1319.23 721.147 1319.23 726.638Z" fill="#ED135D"/>
<path d="M929.563 1026.51C919.627 1026.51 911.596 1034.58 911.596 1044.48V1092.74C911.596 1093.11 911.932 1093.45 912.305 1093.45C912.53 1093.45 912.679 1093.37 912.791 1093.26L947.006 1050.08C947.343 1049.67 947.529 1049.18 947.529 1048.59V1044.48C947.529 1034.58 939.498 1026.51 929.563 1026.51Z" fill="#ED135D"/>
<path d="M977.488 1026.51C967.552 1026.51 959.521 1034.58 959.521 1044.48V1092.74C959.521 1093.11 959.82 1093.45 960.231 1093.45C960.418 1093.45 960.605 1093.37 960.717 1093.26L994.932 1050.08C995.231 1049.67 995.455 1049.18 995.455 1048.59V1044.48C995.455 1034.58 987.424 1026.51 977.488 1026.51Z" fill="#ED135D"/>
<path d="M510.347 1112.87C520.918 1112.87 529.509 1104.24 529.509 1093.67C529.509 1083.1 520.881 1074.51 510.347 1074.51C499.813 1074.51 491.148 1083.1 491.148 1093.67C491.148 1104.24 499.739 1112.87 510.347 1112.87ZM940.132 1153.44C934.268 1139.5 924.444 1127.7 912.08 1119.37C899.716 1111 884.737 1106.11 868.713 1106.11C858.067 1106.11 847.832 1108.31 838.569 1112.23C826.728 1117.24 816.418 1125.08 808.462 1134.91L808.35 1135.06C808.089 1135.39 807.865 1135.69 807.566 1136.03L737.192 1224.89C737.192 1224.89 736.894 1225.08 736.707 1225.08C736.296 1225.08 735.997 1224.74 735.997 1224.37V1111.3H769.727C779.588 1111.3 787.582 1103.31 787.582 1093.45C787.582 1083.58 779.588 1075.59 769.727 1075.59H735.997V1004.06C735.997 1003.69 735.661 1003.35 735.287 1003.35C735.101 1003.35 734.914 1003.46 734.839 1003.57L700.848 1046.42C700.512 1046.83 700.325 1047.35 700.325 1047.91V1075.55H631.67V1004.02C631.67 1003.65 631.371 1003.31 630.998 1003.31C630.773 1003.31 630.624 1003.42 630.512 1003.54L596.521 1046.38C596.147 1046.79 595.998 1047.31 595.998 1047.88V1075.52H562.23C552.369 1075.52 544.338 1083.55 544.338 1093.37C544.338 1103.2 552.332 1111.23 562.23 1111.23H595.998V1139.73L528.538 1224.82C528.538 1224.82 528.239 1225 528.052 1225C527.642 1225 527.343 1224.67 527.343 1224.29V1145.93C527.343 1138.34 522.524 1131.55 515.352 1129.08C508.181 1126.58 500.224 1128.89 495.518 1134.87L424.173 1224.85C424.173 1224.85 423.875 1225.04 423.688 1225.04C423.314 1225.04 423.015 1224.7 423.015 1224.33V1011.19C423.015 1001.33 415.022 993.377 405.161 993.377C395.299 993.377 387.306 1001.33 387.306 1011.19V1118.32C375.241 1110.59 360.822 1106.07 345.508 1106.07C334.862 1106.07 324.627 1108.28 315.364 1112.2C301.394 1118.1 289.627 1127.89 281.26 1140.25C272.893 1152.61 268 1167.63 268 1183.62C268 1194.26 270.166 1204.53 274.089 1213.8C280.028 1227.73 289.814 1239.53 302.141 1247.9C314.505 1256.23 329.483 1261.12 345.47 1261.12C356.116 1261.12 366.351 1258.96 375.652 1255.04C381.964 1252.38 387.866 1248.87 393.17 1244.73C395.822 1248.76 399.259 1252.23 403.218 1254.96C408.971 1258.85 416.068 1261.16 423.464 1261.12C429.104 1261.12 434.595 1259.82 439.376 1257.46C444.157 1255.07 448.341 1251.75 451.665 1247.64L451.777 1247.49L491.596 1197.25V1224.93C491.596 1229.86 492.604 1234.68 494.435 1239.01C497.161 1245.55 501.756 1251.04 507.508 1254.92C513.261 1258.81 520.32 1261.12 527.754 1261.09C533.394 1261.09 538.847 1259.78 543.666 1257.43C548.447 1255.04 552.631 1251.71 555.955 1247.6L556.105 1247.45L595.923 1197.21V1224.89C595.923 1229.82 596.932 1234.64 598.762 1238.97C601.526 1245.51 606.12 1251 611.873 1254.89C617.663 1258.77 624.685 1261.09 632.118 1261.05C637.758 1261.05 643.212 1259.74 647.993 1257.39C652.812 1255 656.995 1251.67 660.282 1247.56L660.432 1247.42L700.25 1197.18V1224.85C700.25 1229.78 701.259 1234.6 703.089 1238.94C705.816 1245.47 710.41 1250.96 716.163 1254.85C721.915 1258.73 728.975 1261.01 736.371 1261.01C742.011 1261.01 747.465 1259.7 752.283 1257.35C757.064 1254.96 761.248 1251.64 764.572 1247.53L764.722 1247.38L795.351 1208.68C795.912 1210.4 796.584 1212.04 797.256 1213.65C803.158 1227.58 812.945 1239.38 825.308 1247.75C837.672 1256.08 852.651 1260.97 868.638 1260.97C879.321 1260.97 889.556 1258.81 898.819 1254.89C912.752 1249.02 924.556 1239.2 932.923 1226.83C941.253 1214.51 946.183 1199.45 946.183 1183.47C946.183 1172.82 944.017 1162.59 940.057 1153.29M345.508 1225.41C322.423 1225.41 303.71 1206.7 303.71 1183.62C303.71 1160.53 322.423 1141.82 345.508 1141.82C368.592 1141.82 387.306 1160.53 387.306 1183.62C387.306 1206.7 368.592 1225.41 345.508 1225.41ZM700.288 1139.76L632.828 1224.85C632.828 1224.85 632.529 1225.04 632.38 1225.04C631.969 1225.04 631.633 1224.7 631.633 1224.33V1111.26H700.288V1139.76ZM869.796 1225.41C846.712 1225.41 827.998 1206.7 827.998 1183.62C827.998 1160.53 846.749 1141.82 869.796 1141.82C892.843 1141.82 911.594 1160.53 911.594 1183.62C911.594 1206.7 892.88 1225.41 869.796 1225.41Z" fill="#3E1865"/>
<path d="M536.232 1300.68V1327.28L541.2 1329.78V1331.76H521.402V1329.78L527.416 1327.28V1300.68H522.075V1297.13H527.416V1296.12C527.416 1286.67 528.387 1281.59 539.593 1281.59C543.777 1281.59 552.368 1282.3 555.058 1283.5C557.037 1284.43 557.747 1285.55 557.747 1287.83C557.747 1290.3 555.917 1291.79 552.928 1291.79C549.305 1291.79 548.334 1290.86 545.757 1285.07C545.047 1284.99 544.748 1284.99 544.412 1284.99C538.585 1284.99 536.194 1287.5 536.194 1293.51V1297.13H551.995L557.037 1296.57V1327.28L563.35 1329.78V1331.76H543.627V1329.78L548.521 1327.28V1300.68H536.194H536.232Z" fill="#ED135D"/>
<path d="M568.13 1300.68H562.826V1298.25L563.611 1297.95C569.438 1295.97 569.849 1295.67 572.127 1292.05C573.136 1290.48 573.547 1289.77 574.182 1288.28H576.946V1297.06H587.853V1300.6H576.946V1321.75C576.946 1326.49 578.365 1327.91 583.258 1327.91C584.043 1327.91 584.752 1327.91 585.387 1327.76L587.292 1327.46L587.853 1327.39L588.488 1330.15L587.703 1330.37L584.005 1331.31C581.465 1331.94 578.552 1332.32 576.497 1332.32C570.745 1332.32 568.13 1329.63 568.13 1323.8V1300.6V1300.68Z" fill="#ED135D"/>
<path d="M618.219 1331.98L605.668 1300.98L601.484 1299.15V1297.17H619.862V1299.15L614.969 1300.98L620.497 1315.96C620.572 1316.26 620.908 1317.23 621.431 1318.8C621.842 1319.99 622.141 1320.78 622.215 1321.15C622.29 1321.37 622.365 1321.71 622.514 1322.16L629.947 1301.47L625.204 1299.19V1297.21H639.323V1299.19L634.915 1301.65L620.647 1336.99C618.107 1343.38 617.434 1344.31 614.819 1345.92C612.84 1347.11 610.636 1347.67 607.872 1347.67C605.668 1347.67 603.688 1347.45 602.194 1347.04V1340.24H607.946L609.216 1344.5C612.317 1344.09 614.259 1342.07 616.164 1337.25L618.219 1331.98Z" fill="#ED135D"/>
<path d="M637.123 1315.51C637.123 1304.3 644.556 1296.79 655.65 1296.79C666.744 1296.79 673.468 1303.67 673.468 1314.24C673.468 1324.81 666.034 1332.8 654.94 1332.8C643.847 1332.8 637.123 1325.86 637.123 1315.51ZM646.648 1314.01C646.648 1323.58 649.898 1329.25 655.351 1329.25C660.805 1329.25 663.943 1324.14 663.943 1315.36C663.943 1305.87 660.618 1299.97 655.239 1299.97C649.86 1299.97 646.648 1305.16 646.648 1314.01Z" fill="#ED135D"/>
<path d="M701.334 1332.88V1328.69L700.699 1328.99C693.975 1331.68 691.286 1332.47 688.783 1332.47C686.168 1332.47 683.516 1331.35 682.059 1329.48C680.341 1327.35 679.856 1325.3 679.856 1320.48V1302.62L673.842 1300.87V1298.96L688.671 1296.42V1318.35C688.671 1325.22 690.315 1327.2 695.843 1327.2C697.748 1327.2 698.607 1327.13 700.811 1326.72L701.371 1326.64V1302.66L695.395 1300.9V1299L709.85 1296.46V1326.53L715.827 1328.17V1330.15L701.371 1332.99L701.334 1332.88Z" fill="#ED135D"/>
<path d="M732.151 1302.7V1327.31L739.584 1329.78V1331.76H717.658V1329.78L723.709 1327.31V1302.7L717.658 1300.87V1298.96L732.114 1296.42V1300.83L732.898 1300.42C738.352 1297.43 740.705 1296.53 742.909 1296.53C744.254 1296.53 745.673 1296.94 747.317 1297.8V1306.47H740.07L738.165 1302.02C737.455 1301.95 736.895 1301.88 736.522 1301.88C735.476 1301.88 733.608 1302.29 732.114 1302.81" fill="#ED135D"/>
<path d="M766.141 1327.28V1288.13L759.828 1286.45V1284.47L774.62 1281.63V1327.28L780.933 1329.78V1331.76H760.164V1329.78L766.141 1327.28Z" fill="#ED135D"/>
<path d="M789.668 1327.28V1302.7L783.617 1300.91V1299L798.446 1296.39V1327.28L804.498 1329.78V1331.76H783.617V1329.78L789.668 1327.28Z" fill="#ED135D"/>
<path d="M821.573 1300.68V1327.28L829.007 1329.78V1331.76H806.744V1329.78L812.795 1327.28V1300.68H807.491V1297.13H812.795V1295.64C812.795 1286.97 818.959 1281.59 828.969 1281.59C831.883 1281.67 834.722 1282 837.486 1282.86V1289.4H832.107L829.343 1284.73C823.964 1284.81 821.611 1287.27 821.611 1293.1V1297.13H830.463V1300.68H821.611H821.573Z" fill="#ED135D"/>
<path d="M862.066 1313.75H839.953C839.953 1322.6 844.847 1327.87 852.989 1327.87C855.044 1327.87 857.733 1327.5 860.983 1326.83L861.469 1329.44C855.716 1331.42 850.748 1332.5 847.349 1332.5C837.339 1332.5 830.951 1325.89 830.951 1315.47C830.951 1305.05 838.048 1296.83 847.611 1296.83C853.624 1296.83 857.696 1298.81 859.825 1302.84C861.469 1305.91 861.88 1308.04 862.029 1313.75M852.728 1310.13C852.579 1302.62 850.935 1299.63 846.826 1299.63C842.419 1299.63 840.028 1303.67 840.028 1311.32L852.728 1310.13Z" fill="#ED135D"/>
<path d="M874.504 1327.69C874.504 1330.3 872.375 1332.47 869.723 1332.47C867.071 1332.47 864.941 1330.34 864.941 1327.69C864.941 1325.03 867.071 1322.91 869.723 1322.91C872.375 1322.91 874.504 1325.03 874.504 1327.69Z" fill="#ED135D"/>
<path d="M799.05 1285.7C799.05 1288.5 796.772 1290.75 794.008 1290.75C791.243 1290.75 788.965 1288.47 788.965 1285.7C788.965 1282.94 791.206 1280.66 794.008 1280.66C796.809 1280.66 799.05 1282.94 799.05 1285.7Z" fill="#ED135D"/>
<path d="M596.182 972.497V1261.24" stroke="#80848A" stroke-width="1.30736" stroke-miterlimit="10"/>
<path d="M869.945 1013.59V1354.21" stroke="#80848A" stroke-width="1.30736" stroke-miterlimit="10"/>
<path d="M527.158 972.497V1347.26" stroke="#80848A" stroke-width="1.30736" stroke-miterlimit="10"/>
<path d="M631.484 970.702V1261.23" stroke="#80848A" stroke-width="1.30736" stroke-miterlimit="10"/>
<path d="M606.907 975.148L608.251 974.85L614.377 983.777L620.316 974.962H621.848L615.162 984.823L622.445 995.431L621.101 995.73L614.377 985.794L607.803 995.581H606.271L613.593 984.786L606.907 975.148Z" fill="#80848A"/>
<path d="M268 1297.17H946.706" stroke="#80848A" stroke-width="1.30736" stroke-miterlimit="10"/>
<path d="M268 1261.87H946.706" stroke="#80848A" stroke-width="1.30736" stroke-miterlimit="10"/>
<path d="M270.014 1269.34L271.359 1269.04L277.447 1277.97L283.387 1269.15H284.918L278.232 1279.02L285.516 1289.62L284.171 1289.92L277.447 1280.02L270.911 1289.77H269.342L276.663 1278.98L270.014 1269.34Z" fill="#80848A"/>
<path d="M869.871 997.334C875.325 997.334 879.732 992.926 879.732 987.473C879.732 982.019 875.325 977.611 869.871 977.611C864.417 977.611 860.01 982.019 860.01 987.473C860.01 992.926 864.417 997.334 869.871 997.334Z" stroke="#80848A" stroke-width="1.30736"/>
<path d="M869.873 971.265V1002.75" stroke="#80848A" stroke-width="1.30736"/>
</g>
<defs>
<clipPath id="clip0_160_926">
<rect width="1440" height="1224" fill="white" transform="translate(268 148)"/>
</clipPath>
</defs>
</svg>
