<svg width="2000" height="1279" viewBox="0 0 2000 1279" fill="none" xmlns="http://www.w3.org/2000/svg">
<g clip-path="url(#clip0_163_2240)">
<path d="M1571.54 444.698C1552.45 444.698 1536.95 460.206 1536.95 479.293V572.133C1536.95 572.859 1537.57 573.481 1538.35 573.481C1538.76 573.481 1539.07 573.326 1539.28 573.118L1605.1 490.029C1605.72 489.251 1606.13 488.266 1606.13 487.176V479.293C1606.13 460.206 1590.63 444.698 1571.59 444.698" fill="#ED135D"/>
<path d="M1663.7 444.698C1644.62 444.698 1629.11 460.206 1629.11 479.293V572.133C1629.11 572.859 1629.68 573.481 1630.51 573.481C1630.82 573.481 1631.18 573.326 1631.44 573.118L1697.31 490.029C1697.94 489.251 1698.3 488.266 1698.3 487.176V479.293C1698.3 460.206 1682.84 444.698 1663.7 444.698Z" fill="#ED135D"/>
<path d="M764.763 610.826C785.094 610.826 801.639 594.229 801.639 573.897C801.639 553.566 785.042 537.021 764.763 537.021C744.483 537.021 727.834 553.566 727.834 573.897C727.834 594.229 744.379 610.826 764.763 610.826ZM1591.82 688.936C1580.51 662.121 1561.63 639.456 1537.82 623.377C1514.07 607.299 1485.18 597.859 1454.37 597.859C1433.88 597.859 1414.23 602.112 1396.39 609.633C1373.56 619.28 1353.75 634.321 1338.45 653.252L1338.24 653.563C1337.73 654.186 1337.26 654.808 1336.74 655.43L1201.32 826.432C1201.32 826.432 1200.75 826.795 1200.38 826.795C1199.61 826.795 1199.04 826.173 1199.04 825.395V607.817H1263.97C1282.95 607.817 1298.36 592.413 1298.36 573.482C1298.36 554.551 1282.95 539.095 1263.97 539.095H1199.04V401.443C1199.04 400.717 1198.41 400.095 1197.64 400.095C1197.27 400.095 1196.96 400.302 1196.75 400.509L1131.35 482.976C1130.73 483.754 1130.31 484.792 1130.31 485.881V539.095H998.211V401.443C998.211 400.717 997.641 400.095 996.914 400.095C996.5 400.095 996.188 400.302 995.981 400.509L930.578 482.976C929.904 483.754 929.592 484.792 929.592 485.881V539.095H864.605C845.622 539.095 830.218 554.499 830.218 573.482C830.218 592.465 845.622 607.817 864.605 607.817H929.592V662.64L799.772 826.432C799.772 826.432 799.202 826.795 798.89 826.795C798.113 826.795 797.542 826.173 797.542 825.395V674.621C797.542 659.994 788.258 646.976 774.462 642.153C760.614 637.329 745.313 641.79 736.288 653.252L598.999 826.38C598.999 826.38 598.429 826.743 598.066 826.743C597.34 826.743 596.717 826.121 596.717 825.343V415.239C596.717 396.256 581.313 380.956 562.33 380.956C543.347 380.956 527.995 396.256 527.995 415.239V621.406C504.811 606.521 477.011 597.807 447.499 597.807C427.012 597.807 407.303 602.06 389.461 609.581C362.595 620.939 339.929 639.767 323.851 663.573C307.772 687.328 298.385 716.217 298.385 746.974C298.385 767.461 302.586 787.221 310.106 805.063C321.517 831.878 340.344 854.595 364.099 870.674C387.853 886.7 416.691 896.14 447.499 896.14C467.986 896.14 487.695 891.991 505.537 884.418C517.726 879.335 529.084 872.593 539.25 864.605C544.333 872.385 550.92 879.076 558.596 884.314C569.643 891.835 583.284 896.244 597.547 896.192C608.439 896.192 618.916 893.65 628.148 889.19C637.38 884.626 645.419 878.194 651.799 870.311L652.006 869.999L728.664 773.321V826.588C728.664 836.079 730.583 845.363 734.162 853.714C739.452 866.265 748.269 876.846 759.369 884.366C770.468 891.887 784.005 896.295 798.32 896.244C809.16 896.244 819.689 893.702 828.921 889.242C838.153 884.677 846.192 878.246 852.572 870.362L852.831 870.051L929.437 773.373V826.64C929.437 836.131 931.356 845.415 934.883 853.765C940.173 866.317 948.99 876.898 960.09 884.418C971.189 891.939 984.778 896.347 999.093 896.295C1009.98 896.295 1020.41 893.754 1029.69 889.293C1038.93 884.729 1046.96 878.298 1053.29 870.414L1053.55 870.103L1130.16 773.425V826.691C1130.16 836.183 1132.08 845.467 1135.66 853.817C1140.95 866.369 1149.76 876.949 1160.86 884.47C1171.91 891.939 1185.5 896.347 1199.76 896.347C1210.65 896.347 1221.13 893.806 1230.36 889.345C1239.59 884.781 1247.63 878.35 1254.01 870.466L1254.27 870.155L1313.24 795.727C1314.33 798.995 1315.58 802.159 1316.93 805.323C1328.29 832.137 1347.16 854.855 1370.92 870.933C1394.67 886.96 1423.51 896.399 1454.32 896.399C1474.86 896.399 1494.57 892.25 1512.41 884.677C1539.22 873.371 1561.94 854.492 1578.02 830.737C1594.05 806.982 1603.54 778.041 1603.54 747.285C1603.54 726.798 1599.34 707.089 1591.76 689.195M447.499 827.469C403.102 827.469 367.055 791.474 367.055 747.025C367.055 702.576 403.05 666.581 447.499 666.581C491.948 666.581 527.995 702.576 527.995 747.025C527.995 791.474 491.948 827.469 447.499 827.469ZM1130.26 662.64L1000.44 826.432C1000.44 826.432 999.923 826.795 999.56 826.795C998.782 826.795 998.159 826.173 998.159 825.395V607.817H1130.26V662.64ZM1456.5 827.469C1412.1 827.469 1376.05 791.474 1376.05 747.025C1376.05 702.576 1412.1 666.581 1456.5 666.581C1500.9 666.581 1536.94 702.576 1536.94 747.025C1536.94 791.474 1500.95 827.469 1456.5 827.469Z" fill="#3E1865"/>
<path d="M151.402 330.44C195.658 330.44 231.535 294.564 231.535 250.308C231.535 206.051 195.658 170.175 151.402 170.175C107.146 170.175 71.2695 206.051 71.2695 250.308C71.2695 294.564 107.146 330.44 151.402 330.44Z" stroke="#80848A" stroke-width="2" stroke-dasharray="5.19 5.19"/>
<path d="M151.407 399.318C233.703 399.318 300.418 332.604 300.418 250.308C300.418 168.011 233.703 101.297 151.407 101.297C69.1108 101.297 2.39648 168.011 2.39648 250.308C2.39648 332.604 69.1108 399.318 151.407 399.318Z" stroke="#80848A" stroke-width="2" stroke-dasharray="5.19 5.19"/>
<path d="M1849.7 330.44C1893.95 330.44 1929.83 294.564 1929.83 250.308C1929.83 206.051 1893.95 170.175 1849.7 170.175C1805.44 170.175 1769.56 206.051 1769.56 250.308C1769.56 294.564 1805.44 330.44 1849.7 330.44Z" stroke="#80848A" stroke-width="2" stroke-dasharray="5.19 5.19"/>
<path d="M1849.7 399.318C1931.99 399.318 1998.71 332.604 1998.71 250.308C1998.71 168.011 1931.99 101.297 1849.7 101.297C1767.4 101.297 1700.69 168.011 1700.69 250.308C1700.69 332.604 1767.4 399.318 1849.7 399.318Z" stroke="#80848A" stroke-width="2" stroke-dasharray="5.19 5.19"/>
<path d="M151.402 1128.34C195.658 1128.34 231.535 1092.47 231.535 1048.21C231.535 1003.95 195.658 968.078 151.402 968.078C107.146 968.078 71.2695 1003.95 71.2695 1048.21C71.2695 1092.47 107.146 1128.34 151.402 1128.34Z" stroke="#80848A" stroke-width="2" stroke-dasharray="5.19 5.19"/>
<path d="M151.407 1197.22C233.703 1197.22 300.418 1130.51 300.418 1048.21C300.418 965.914 233.703 899.199 151.407 899.199C69.1108 899.199 2.39648 965.914 2.39648 1048.21C2.39648 1130.51 69.1108 1197.22 151.407 1197.22Z" stroke="#80848A" stroke-width="2" stroke-dasharray="5.19 5.19"/>
<path d="M1849.7 1128.34C1893.95 1128.34 1929.83 1092.47 1929.83 1048.21C1929.83 1003.95 1893.95 968.078 1849.7 968.078C1805.44 968.078 1769.56 1003.95 1769.56 1048.21C1769.56 1092.47 1805.44 1128.34 1849.7 1128.34Z" stroke="#80848A" stroke-width="2" stroke-dasharray="5.19 5.19"/>
<path d="M1849.7 1197.22C1931.99 1197.22 1998.71 1130.51 1998.71 1048.21C1998.71 965.914 1931.99 899.199 1849.7 899.199C1767.4 899.199 1700.69 965.914 1700.69 1048.21C1700.69 1130.51 1767.4 1197.22 1849.7 1197.22Z" stroke="#80848A" stroke-width="2" stroke-dasharray="5.19 5.19"/>
<path d="M1998.71 101.297H1.30078V1197.22H1998.71V101.297Z" stroke="#80848A" stroke-width="2"/>
<path d="M1700.69 399.367H300.412V899.199H1700.69V399.367Z" stroke="#80848A" stroke-width="2"/>
<path d="M2.39648 399.37H300.418V101.297" stroke="#80848A" stroke-width="2" stroke-dasharray="5.19 5.19"/>
<path d="M1998.71 399.37H1700.69V101.297" stroke="#80848A" stroke-width="2" stroke-dasharray="5.19 5.19"/>
<path d="M2.39648 899.199H300.418V1197.22" stroke="#80848A" stroke-width="2" stroke-dasharray="5.19 5.19"/>
<path d="M1998.71 899.199H1700.69V1197.22" stroke="#80848A" stroke-width="2" stroke-dasharray="5.19 5.19"/>
</g>
<defs>
<clipPath id="clip0_163_2240">
<rect width="2000" height="1098.52" fill="white" transform="translate(0 100)"/>
</clipPath>
</defs>
</svg>
