<svg width="2000" height="287" viewBox="0 0 2000 287" fill="none" xmlns="http://www.w3.org/2000/svg">
<path d="M482.634 10.7611C479.404 10.7611 476.794 13.377 476.794 16.6132V32.3088C476.794 32.3088 476.902 32.5245 477.036 32.5245C477.09 32.5245 477.144 32.5246 477.198 32.4706L488.285 18.4201C488.285 18.4201 488.446 18.1235 488.446 17.9347V16.6132C488.446 13.404 485.836 10.7611 482.634 10.7611Z" fill="#A39161"/>
<path d="M498.161 10.7611C494.931 10.7611 492.321 13.377 492.321 16.6132V32.3088C492.321 32.3088 492.429 32.5245 492.563 32.5245C492.617 32.5245 492.671 32.5246 492.725 32.4706L503.839 18.4201C503.839 18.4201 504 18.1235 504 17.9347V16.6132C504 13.404 501.39 10.7611 498.161 10.7611Z" fill="#A39161"/>
<path d="M346.631 38.8345C350.048 38.8345 352.847 36.0297 352.847 32.6048C352.847 29.1798 350.048 26.3751 346.631 26.3751C343.213 26.3751 340.415 29.1798 340.415 32.6048C340.415 36.0297 343.213 38.8345 346.631 38.8345ZM486.051 52.022C484.141 47.4913 480.965 43.6619 476.956 40.9381C472.946 38.2143 468.076 36.6231 462.882 36.6231C459.437 36.6231 456.101 37.3512 453.114 38.6187C449.265 40.2368 445.929 42.7989 443.345 45.9811V46.035C443.345 46.035 443.157 46.2508 443.049 46.3586L420.23 75.2418C420.23 75.2418 420.122 75.2957 420.068 75.2957C419.934 75.2957 419.826 75.1879 419.826 75.053V38.2951H430.778C433.981 38.2951 436.564 35.6792 436.564 32.4969C436.564 29.3147 433.954 26.6988 430.778 26.6988H419.826V3.45195C419.826 3.45195 419.718 3.23624 419.584 3.23624C419.53 3.23624 419.476 3.2632 419.422 3.31714L408.389 17.2598C408.389 17.2598 408.201 17.5565 408.201 17.7452V26.7257H385.946V3.47894C385.946 3.47894 385.839 3.26323 385.731 3.26323C385.65 3.26323 385.596 3.2902 385.57 3.34413L374.537 17.2867C374.537 17.2867 374.375 17.5834 374.375 17.7722V26.7527H363.423C360.22 26.7527 357.637 29.3686 357.637 32.5508C357.637 35.7331 360.22 38.349 363.423 38.349H374.375V47.5993L352.497 75.2688C352.497 75.2688 352.39 75.3227 352.336 75.3227C352.201 75.3227 352.121 75.2148 352.121 75.0799V49.6219C352.121 47.1408 350.56 44.9563 348.219 44.1472C345.877 43.3382 343.321 44.0933 341.787 46.008L318.645 75.2688C318.645 75.2688 318.537 75.3227 318.483 75.3227C318.349 75.3227 318.268 75.2148 318.268 75.0799V5.79827C318.268 2.58903 315.684 0 312.482 0C309.28 0 306.697 2.58903 306.697 5.79827V40.6144C302.795 38.1063 298.112 36.6231 293.134 36.6231C289.689 36.6231 286.353 37.3512 283.366 38.6187C278.845 40.5335 275.023 43.7158 272.306 47.7341C269.588 51.7523 268 56.6336 268 61.8116C268 65.2635 268.7 68.6075 269.964 71.628C271.875 76.1587 275.05 79.9882 279.06 82.712C283.07 85.4359 287.913 87 293.107 87C296.578 87 299.888 86.2989 302.902 85.0044C304.947 84.1414 306.858 83.0087 308.58 81.6602C309.441 82.9817 310.545 84.1144 311.836 84.9774C313.693 86.2449 316.007 87 318.402 86.973C320.232 86.973 322.008 86.5415 323.569 85.7864C325.13 85.0043 326.475 83.9256 327.552 82.6041V82.5502L340.522 66.2074V75.2148C340.522 76.8329 340.845 78.3971 341.437 79.7994C342.325 81.9299 343.805 83.7099 345.689 84.9774C347.546 86.2449 349.833 87 352.255 86.973C354.085 86.973 355.861 86.5415 357.422 85.7864C358.983 85.0043 360.328 83.9256 361.404 82.6041L361.458 82.5502L374.375 66.2074V75.2148C374.375 76.8329 374.698 78.3971 375.29 79.7994C376.178 81.9299 377.658 83.7099 379.542 84.9774C381.425 86.2449 383.713 87 386.108 86.973C387.938 86.973 389.714 86.5415 391.274 85.7864C392.835 85.0043 394.181 83.9256 395.257 82.6041L395.311 82.5502L408.228 66.2074V75.2148C408.228 76.8329 408.551 78.3971 409.143 79.7994C410.031 81.9299 411.511 83.7099 413.394 84.9774C415.251 86.2449 417.539 86.973 419.96 86.973C421.79 86.973 423.566 86.5415 425.127 85.7864C426.688 85.0043 428.033 83.9256 429.11 82.6041L429.164 82.5502L439.093 69.983C439.282 70.5493 439.497 71.0617 439.712 71.6011C441.623 76.1318 444.798 79.9612 448.808 82.6851C452.818 85.4089 457.661 86.973 462.855 86.973C466.326 86.973 469.636 86.2719 472.65 84.9774C477.171 83.0626 480.992 79.8803 483.71 75.8621C486.401 71.8438 488.016 66.9625 488.016 61.7576C488.016 58.3057 487.316 54.9616 486.024 51.9411M293.161 75.4305C285.68 75.4305 279.598 69.3358 279.598 61.8386C279.598 54.3413 285.68 48.2465 293.161 48.2465C300.642 48.2465 306.723 54.3144 306.723 61.8386C306.723 69.3627 300.642 75.4305 293.161 75.4305ZM408.255 47.5723L386.377 75.2418C386.377 75.2418 386.269 75.2957 386.242 75.2957C386.108 75.2957 386 75.1879 386 75.053V38.2951H408.255V47.5723ZM463.232 75.4305C455.751 75.4305 449.669 69.3358 449.669 61.8386C449.669 54.3413 455.751 48.2465 463.232 48.2465C470.713 48.2465 476.794 54.3144 476.794 61.8386C476.794 69.3627 470.713 75.4305 463.232 75.4305Z" fill="#3E1865"/>
<path d="M789.634 10.7611C786.405 10.7611 783.794 13.377 783.794 16.6132V32.3088C783.794 32.3088 783.902 32.5245 784.036 32.5245C784.09 32.5245 784.144 32.5246 784.198 32.4706L795.285 18.4201C795.285 18.4201 795.446 18.1235 795.446 17.9347V16.6132C795.446 13.404 792.836 10.7611 789.634 10.7611Z" fill="#F49AC1"/>
<path d="M805.161 10.7611C801.931 10.7611 799.321 13.377 799.321 16.6132V32.3088C799.321 32.3088 799.429 32.5245 799.563 32.5245C799.617 32.5245 799.671 32.5246 799.725 32.4706L810.839 18.4201C810.839 18.4201 811 18.1235 811 17.9347V16.6132C811 13.404 808.39 10.7611 805.161 10.7611Z" fill="#F49AC1"/>
<path d="M653.657 38.8345C657.075 38.8345 659.874 36.0297 659.874 32.6048C659.874 29.1798 657.075 26.3751 653.657 26.3751C650.24 26.3751 647.441 29.1798 647.441 32.6048C647.441 36.0297 650.24 38.8345 653.657 38.8345ZM793.05 52.022C791.14 47.4913 787.964 43.6619 783.955 40.9381C779.945 38.2143 775.075 36.6231 769.881 36.6231C766.437 36.6231 763.1 37.3512 760.113 38.6187C756.265 40.2368 752.928 42.7989 750.345 45.9811V46.035C750.345 46.035 750.156 46.2508 750.049 46.3586L727.229 75.2418C727.229 75.2418 727.121 75.2957 727.068 75.2957C726.933 75.2957 726.825 75.1879 726.825 75.053V38.2951H737.778C740.98 38.2951 743.563 35.6792 743.563 32.4969C743.563 29.3147 740.98 26.6988 737.778 26.6988H726.825V3.45195C726.825 3.45195 726.718 3.23624 726.583 3.23624C726.529 3.23624 726.475 3.2632 726.422 3.31714L715.389 17.2598C715.389 17.2598 715.2 17.5565 715.2 17.7452V26.7257H692.946V3.47894C692.946 3.47894 692.838 3.26323 692.731 3.26323C692.65 3.26323 692.596 3.2902 692.569 3.34413L681.536 17.2867C681.536 17.2867 681.375 17.5834 681.375 17.7722V26.7527H670.422C667.22 26.7527 664.637 29.3686 664.637 32.5508C664.637 35.7331 667.22 38.349 670.422 38.349H681.375V47.5993L659.497 75.2688C659.497 75.2688 659.389 75.3227 659.335 75.3227C659.201 75.3227 659.12 75.2148 659.12 75.0799V49.6219C659.12 47.1408 657.559 44.9563 655.218 44.1472C652.877 43.3382 650.321 44.0933 648.787 46.008L625.644 75.2688C625.644 75.2688 625.537 75.3227 625.483 75.3227C625.348 75.3227 625.268 75.2148 625.268 75.0799V5.79827C625.268 2.58903 622.684 0 619.482 0C616.28 0 613.696 2.58903 613.696 5.79827V40.6144C609.794 38.1063 605.112 36.6231 600.134 36.6231C596.689 36.6231 593.353 37.3512 590.366 38.6187C585.845 40.5335 582.023 43.7158 579.306 47.7341C576.588 51.7523 575 56.6336 575 61.8116C575 65.2635 575.7 68.6075 576.964 71.628C578.875 76.1587 582.05 79.9882 586.06 82.712C590.07 85.4359 594.94 87 600.107 87C603.578 87 606.888 86.2989 609.902 85.0044C611.947 84.1414 613.858 83.0087 615.58 81.6602C616.441 82.9817 617.544 84.1144 618.836 84.9774C620.693 86.2449 623.007 87 625.402 86.973C627.232 86.973 629.008 86.5415 630.569 85.7864C632.13 85.0043 633.475 83.9256 634.551 82.6041V82.5502L647.522 66.2074V75.2148C647.522 76.8329 647.845 78.3971 648.437 79.7994C649.325 81.9299 650.805 83.7099 652.689 84.9774C654.546 86.2449 656.833 87 659.255 86.973C661.085 86.973 662.861 86.5415 664.421 85.7864C665.982 85.0043 667.328 83.9256 668.404 82.6041L668.458 82.5502L681.375 66.2074V75.2148C681.375 76.8329 681.698 78.3971 682.29 79.7994C683.178 81.9299 684.685 83.7099 686.541 84.9774C688.425 86.2449 690.712 87 693.107 86.973C694.937 86.973 696.713 86.5415 698.274 85.7864C699.835 85.0043 701.18 83.9256 702.257 82.6041L702.31 82.5502L715.227 66.2074V75.2148C715.227 76.8329 715.55 78.3971 716.142 79.7994C717.03 81.9299 718.51 83.7099 720.394 84.9774C722.251 86.2449 724.538 86.973 726.96 86.973C728.79 86.973 730.566 86.5415 732.127 85.7864C733.687 85.0043 735.033 83.9256 736.109 82.6041L736.163 82.5502L746.093 69.983C746.281 70.5493 746.496 71.0617 746.712 71.6011C748.622 76.1318 751.798 79.9612 755.807 82.6851C759.817 85.4089 764.661 86.973 769.854 86.973C773.326 86.973 776.635 86.2719 779.649 84.9774C784.17 83.0626 787.991 79.8803 790.709 75.8621C793.4 71.8438 795.015 66.9625 795.015 61.7576C795.015 58.3057 794.315 54.9616 793.024 51.9411M600.161 75.4305C592.68 75.4305 586.598 69.3358 586.598 61.8386C586.598 54.3413 592.68 48.2465 600.161 48.2465C607.642 48.2465 613.723 54.3144 613.723 61.8386C613.723 69.3627 607.642 75.4305 600.161 75.4305ZM715.254 47.5723L693.376 75.2418C693.376 75.2418 693.269 75.2957 693.242 75.2957C693.107 75.2957 693 75.1879 693 75.053V38.2951H715.254V47.5723ZM770.258 75.4305C762.777 75.4305 756.695 69.3358 756.695 61.8386C756.695 54.3413 762.777 48.2465 770.258 48.2465C777.739 48.2465 783.82 54.3144 783.82 61.8386C783.82 69.3627 777.739 75.4305 770.258 75.4305Z" fill="#3E1865"/>
</svg>
