<svg width="2000" height="347" viewBox="0 0 2000 347" fill="none" xmlns="http://www.w3.org/2000/svg">
<path d="M482.546 110.733C479.318 110.733 476.708 113.343 476.708 116.57V132.226C476.708 132.226 476.816 132.441 476.951 132.441C477.004 132.441 477.058 132.414 477.112 132.387L488.194 118.373C488.194 118.373 488.356 118.077 488.356 117.889V116.57C488.356 113.343 485.747 110.733 482.546 110.733Z" fill="#ED135D"/>
<path d="M498.066 110.733C494.838 110.733 492.229 113.343 492.229 116.57V132.226C492.229 132.226 492.337 132.441 492.471 132.441C492.525 132.441 492.579 132.414 492.632 132.387L503.742 118.373C503.742 118.373 503.903 118.077 503.903 117.889V116.57C503.903 113.343 501.294 110.733 498.066 110.733Z" fill="#ED135D"/>
<path d="M346.599 138.734C350.015 138.734 352.812 135.937 352.812 132.521C352.812 129.105 350.015 126.307 346.599 126.307C343.182 126.307 340.385 129.105 340.385 132.521C340.385 135.937 343.182 138.734 346.599 138.734ZM485.962 151.888C484.052 147.369 480.878 143.549 476.87 140.833C472.862 138.116 467.993 136.529 462.802 136.529C459.359 136.529 456.023 137.255 453.038 138.519C449.191 140.16 445.856 142.689 443.273 145.863V145.916C443.273 145.916 443.085 146.132 442.977 146.239L420.167 175.048C420.167 175.048 420.06 175.102 420.006 175.102C419.871 175.102 419.764 174.994 419.764 174.86V138.196H430.711C433.912 138.196 436.495 135.614 436.495 132.413C436.495 129.212 433.886 126.63 430.711 126.63H419.764V103.443C419.764 103.443 419.656 103.228 419.522 103.228C419.468 103.228 419.414 103.255 419.36 103.309L408.332 117.188C408.224 117.323 408.143 117.484 408.143 117.673V126.63H385.898V103.443C385.898 103.443 385.79 103.228 385.683 103.228C385.602 103.228 385.548 103.255 385.521 103.309L374.493 117.188C374.385 117.323 374.331 117.484 374.331 117.673V126.63H363.384C360.183 126.63 357.6 129.239 357.6 132.413C357.6 135.587 360.183 138.196 363.384 138.196H374.331V147.423L352.463 175.021C352.463 175.021 352.355 175.075 352.301 175.075C352.167 175.075 352.086 174.967 352.086 174.833V149.44C352.086 146.965 350.526 144.787 348.186 143.98C345.845 143.173 343.29 143.926 341.757 145.863L318.624 175.048C318.624 175.048 318.516 175.102 318.462 175.102C318.328 175.102 318.247 174.994 318.247 174.86V105.783C318.247 102.582 315.665 100 312.464 100C309.263 100 306.681 102.582 306.681 105.783V140.51C302.78 138.008 298.1 136.529 293.124 136.529C289.681 136.529 286.345 137.255 283.359 138.519C278.84 140.429 275.021 143.603 272.304 147.611C269.587 151.619 268 156.488 268 161.652C268 165.122 268.699 168.431 269.964 171.443C271.873 175.963 275.048 179.782 279.055 182.499C283.063 185.216 287.905 186.776 293.097 186.776C296.567 186.776 299.875 186.077 302.888 184.812C304.932 183.951 306.842 182.822 308.564 181.477C309.424 182.795 310.527 183.925 311.818 184.785C313.674 186.05 315.988 186.803 318.382 186.776C320.211 186.776 321.986 186.345 323.546 185.592C325.106 184.812 326.451 183.736 327.527 182.418V182.364L340.493 166.064V175.048C340.493 176.662 340.815 178.222 341.407 179.621C342.295 181.746 343.774 183.521 345.657 184.785C347.513 186.05 349.8 186.803 352.22 186.776C354.05 186.776 355.825 186.345 357.385 185.592C358.945 184.812 360.29 183.736 361.366 182.418L361.42 182.364L374.331 166.064V175.048C374.331 176.662 374.654 178.222 375.246 179.621C376.134 181.746 377.613 183.521 379.496 184.785C381.379 186.05 383.665 186.803 386.059 186.776C387.888 186.776 389.664 186.345 391.224 185.592C392.784 184.812 394.129 183.736 395.205 182.418L395.259 182.364L408.17 166.064V175.048C408.17 176.662 408.493 178.222 409.085 179.621C409.972 181.746 411.452 183.521 413.335 184.785C415.191 186.05 417.477 186.776 419.898 186.776C421.727 186.776 423.503 186.345 425.063 185.592C426.623 184.812 427.968 183.736 429.044 182.418L429.098 182.364L439.023 169.83C439.212 170.368 439.427 170.906 439.642 171.443C441.552 175.963 444.726 179.782 448.734 182.499C452.742 185.216 457.584 186.776 462.775 186.776C466.245 186.776 469.554 186.077 472.566 184.812C477.085 182.902 480.905 179.728 483.622 175.72C486.312 171.712 487.925 166.844 487.925 161.652C487.925 158.209 487.226 154.874 485.935 151.861M293.15 175.236C285.673 175.236 279.593 169.157 279.593 161.679C279.593 154.201 285.673 148.122 293.15 148.122C300.628 148.122 306.708 154.174 306.708 161.679C306.708 169.184 300.628 175.236 293.15 175.236ZM408.197 147.45L386.328 175.048C386.328 175.048 386.221 175.102 386.194 175.102C386.059 175.102 385.952 174.994 385.952 174.86V138.196H408.197V147.45ZM463.152 175.236C455.674 175.236 449.595 169.157 449.595 161.679C449.595 154.201 455.674 148.122 463.152 148.122C470.629 148.122 476.709 154.174 476.709 161.679C476.709 169.184 470.629 175.236 463.152 175.236Z" fill="#3E1865"/>
</svg>
