<svg width="2000" height="1180" viewBox="0 0 2000 1180" fill="none" xmlns="http://www.w3.org/2000/svg">
<path d="M7.12857 129.595V128.663L11.5494 127.191V116.585L3.76035 103.966L0.452275 102.434V101.502H10.9479V102.434L7.97062 103.936L14.1958 114.001L20.3609 103.936L17.3836 102.434V101.502H25.9846V102.434L22.9171 103.936L15.1281 115.984V127.191L19.7594 128.663V129.595H7.12857ZM23.278 119.95C23.278 113.581 27.2477 109.254 33.0819 109.254C38.7658 109.284 42.555 113.28 42.555 119.259C42.555 125.238 38.3447 129.775 32.6007 129.775C26.8567 129.775 23.2479 125.899 23.2479 119.92L23.278 119.95ZM27.0071 119.62C27.0071 124.787 29.4129 128.303 32.9917 128.303C36.5704 128.303 38.856 124.968 38.856 120.04C38.856 114.572 36.3599 110.816 32.7511 110.816C29.1423 110.816 27.0071 114.061 27.0071 119.62ZM45.4721 119.95C45.4721 113.581 49.4418 109.254 55.276 109.254C60.9599 109.284 64.7492 113.28 64.7492 119.259C64.7492 125.238 60.5389 129.775 54.7949 129.775C49.0509 129.775 45.4421 125.899 45.4421 119.92L45.4721 119.95ZM49.1712 119.62C49.1712 124.787 51.577 128.303 55.1558 128.303C58.7345 128.303 61.0201 124.968 61.0201 120.04C61.0201 114.572 58.524 110.816 54.9152 110.816C51.3064 110.816 49.1712 114.061 49.1712 119.62ZM66.4333 128.663L70.012 127.191V112.559L66.4333 111.477V110.636L73.3502 109.074V111.177L74.2223 110.937C74.8538 110.726 75.5154 110.516 76.2973 110.276C78.5228 109.524 79.425 109.314 80.5076 109.314C82.1917 109.314 83.5751 109.945 84.6878 111.117C85.7705 112.379 86.1614 113.52 86.1614 115.864V127.221L89.7101 128.693V129.625H79.425V128.693L82.7932 127.221V116.645C82.7932 113.28 81.1091 111.808 77.3198 111.808C75.9665 111.808 74.5832 111.928 73.3502 112.198V127.221L76.5079 128.693V129.625H66.4333V128.663ZM102.191 129.595V128.663L105.739 127.191V103.966L102.191 102.464V101.532H112.836V102.464L109.288 103.966V128.122H117.077L119.723 122.684H120.806L120.174 129.595H102.13H102.191ZM122.851 129.595V128.663L126.43 127.191V112.499L122.851 111.417V110.606L129.768 109.044V127.191L133.347 128.663V129.595H122.851ZM125.798 102.193C125.798 100.721 126.46 100.06 128.024 100.06C129.708 100.06 130.369 100.661 130.369 102.073C130.369 103.575 129.708 104.266 128.054 104.266C126.4 104.266 125.768 103.605 125.768 102.193H125.798ZM154.909 109.044V112.409L148.203 110.967C150.338 112.409 151.33 114.031 151.33 116.315C151.33 120.1 148.143 122.895 143.782 122.895C143.03 122.895 142.549 122.804 141.466 122.594C140.384 123.826 139.782 124.727 139.782 125.358C139.782 126.41 141.045 127.041 143.15 127.041H148.804C152.082 127.041 153.646 128.303 153.646 130.947C153.646 135.363 149.105 138.789 143.241 138.789C138.218 138.789 134.128 136.595 134.128 133.861C134.128 132.299 135.572 130.827 138.459 129.444C137.316 128.693 136.865 127.972 136.865 127.101C136.865 126.139 137.406 125.298 139.151 123.646L139.993 122.804L140.444 122.384C137.286 121.362 135.602 119.229 135.602 116.285C135.602 112.409 139 109.254 143.181 109.254C144.895 109.254 146.218 109.645 147.782 110.426L154.909 109.044ZM139.241 129.925C138.098 130.736 137.106 132.359 137.106 133.38C137.106 135.604 139.872 137.346 143.511 137.346C147.601 137.346 150.939 135.213 150.939 132.539C150.939 130.887 149.797 130.226 147.06 130.226H141.075C140.233 130.226 139.993 130.196 139.271 129.925H139.241ZM139.151 115.624C139.151 119.169 141.045 121.633 143.752 121.633C146.158 121.633 147.752 119.65 147.752 116.675C147.752 113.19 145.857 110.516 143.331 110.516C140.805 110.516 139.151 112.649 139.151 115.594V115.624ZM156.413 129.595V128.663L160.202 127.191V103.485L156.413 102.404V101.592L163.54 100V111.147L164.352 110.846L166.066 110.306C168.382 109.494 169.525 109.254 170.607 109.254C174.096 109.254 176.351 111.688 176.351 115.624V127.191L179.9 128.663V129.595H169.615V128.663L172.983 127.191V116.585C172.983 113.1 171.329 111.567 167.6 111.567C166.157 111.567 164.623 111.778 163.57 112.108V127.161L166.728 128.633V129.565H156.443L156.413 129.595ZM183.629 110.937H180.502V110.065C182.065 109.404 183.569 108.503 184.11 107.962C184.291 107.782 184.531 107.361 184.952 106.7C185.373 105.979 185.704 105.318 185.975 104.687C186.005 104.597 186.065 104.447 186.155 104.266H186.997V109.494H193.704V110.967H186.997V124.217C186.997 126.981 187.93 127.912 190.696 127.912C191.869 127.912 192.772 127.822 193.854 127.522L194.155 128.753C191.629 129.354 188.862 129.805 187.659 129.805C185.043 129.805 183.629 128.303 183.629 125.388V110.937Z" fill="#80848A"/>
<path d="M6.94578 490.199V489.148L11.4568 487.675V477.31L3.48734 464.631L0.299559 463.158V462.107H11.2162V463.158L8.269 464.631L14.2235 474.275L20.1179 464.631L17.1707 463.158V462.107H26.1927V463.158L23.0651 464.631L15.4265 476.198V487.645L19.9375 489.118V490.169H6.94578V490.199ZM23.1253 480.615C23.1253 474.095 27.1551 469.678 33.1998 469.678C39.2446 469.678 42.7932 473.794 42.7932 479.864C42.7932 485.933 38.5529 490.86 32.5984 490.86C27.0348 490.86 23.1253 486.654 23.1253 480.645V480.615ZM27.2754 479.984C27.2754 485.632 29.4707 488.937 33.1397 488.937C36.5981 488.937 38.613 485.963 38.613 480.825C38.613 474.966 36.4778 471.571 32.7487 471.571C29.2903 471.571 27.2754 474.636 27.2754 479.984ZM45.3796 480.615C45.3796 474.095 49.4094 469.678 55.4541 469.678C61.4989 469.678 65.0475 473.794 65.0475 479.864C65.0475 485.933 60.8072 490.86 54.8527 490.86C49.2891 490.86 45.3796 486.654 45.3796 480.645V480.615ZM49.5598 479.984C49.5598 485.632 51.7551 488.937 55.4241 488.937C58.8825 488.937 60.8974 485.963 60.8974 480.825C60.8974 474.966 58.7622 471.571 55.0331 471.571C51.5747 471.571 49.5598 474.636 49.5598 479.984ZM66.5211 490.199V489.148L70.0698 487.675V473.254L66.5211 472.172V471.241L73.859 469.588V471.932C74.0996 471.842 74.3102 471.751 74.4605 471.721C74.671 471.631 75.3928 471.391 76.5356 470.97C78.4603 470.219 79.7234 469.889 80.9263 469.889C82.5803 469.889 83.9938 470.52 85.1065 471.661C86.2794 472.923 86.6703 474.095 86.6703 476.469V487.705L90.249 489.178V490.229H79.5429V489.178L82.9111 487.705V477.28C82.9111 474.035 81.3172 472.653 77.6182 472.653C76.3852 472.653 75.0018 472.773 73.9192 472.953V487.736L77.0769 489.208V490.259H66.5813L66.5211 490.199ZM116.984 483.199L125.525 462.107H133.495V463.158L129.946 464.631V487.645L133.495 489.118V490.169H122.428V489.118L125.976 487.645V466.884L116.443 490.38H115.601L106.218 466.884V487.645L109.767 489.118V490.169H100.324V489.118L103.902 487.645V464.631L100.324 463.158V462.107H108.624L117.014 483.199H116.984ZM152.381 479.503H139.118C139.148 482.958 139.87 484.881 141.644 486.414C142.938 487.495 144.802 488.096 146.998 488.096C148.14 488.096 150.065 487.886 151.839 487.585L152.05 488.937C149.524 489.899 146.095 490.62 144.171 490.62C138.667 490.62 134.908 486.624 134.908 480.735C134.908 474.516 138.998 469.889 144.562 469.889C148.14 469.889 151.087 471.962 151.93 475.026C152.23 476.258 152.32 476.949 152.381 479.533V479.503ZM148.17 477.49C148.08 473.314 146.907 471.541 144.171 471.541C141.193 471.541 139.539 473.764 139.148 478.331L148.17 477.49ZM169.162 490.8V488.246C165.463 490.139 164.019 490.65 162.515 490.65C158.215 490.65 154.937 486.564 154.937 481.186C154.937 474.576 159.568 469.919 166.154 469.919C167.538 469.919 168.35 470.099 169.192 470.459V464.3L165.432 463.219V462.287L172.981 460.605V487.195L176.319 488.246V489.118L169.192 490.8H169.162ZM169.162 471.962C168.44 471.781 167.688 471.721 166.515 471.721C161.854 471.721 158.877 474.906 158.877 480.014C158.877 485.122 161.523 487.886 165.823 487.886C166.876 487.886 167.748 487.766 169.162 487.345V471.962ZM178.635 490.199V489.148L182.183 487.675V473.194L178.635 472.112V471.181L185.973 469.588V487.675L189.521 489.148V490.199H178.635ZM181.552 462.828C181.552 461.386 182.394 460.635 184.048 460.635C185.822 460.635 186.604 461.296 186.604 462.768C186.604 464.33 185.792 465.051 184.078 465.051C182.364 465.051 181.552 464.33 181.552 462.828ZM206.152 490.8V488.306L205.731 488.487L203.626 489.358C201.731 490.169 200.017 490.62 198.814 490.62C195.476 490.62 193.371 488.096 193.371 484.13V473.103L189.792 472.052V471.12L197.13 469.468V483.229C197.13 486.624 198.423 487.856 201.972 487.856C203.355 487.856 204.829 487.736 206.152 487.435V473.073L202.603 472.022V471.09L209.941 469.438V487.075L213.279 488.126V489.058L206.152 490.74V490.8ZM215.595 490.199V489.148L219.144 487.675V473.164L215.595 472.142V471.12L222.933 469.468V471.872L223.474 471.631L225.669 470.79C228.226 469.829 228.647 469.708 229.91 469.708C231.835 469.708 233.037 470.369 234.15 472.142C234.391 472.052 234.601 471.962 234.752 471.932C235.143 471.812 236.045 471.481 237.609 470.85C239.804 470.009 241.097 469.678 242.24 469.678C243.834 469.678 245.307 470.309 246.36 471.391C247.623 472.653 248.044 473.915 248.044 476.408V487.675L251.593 489.148V490.199H240.947V489.148L244.285 487.675V477.19C244.285 473.794 242.721 472.382 238.812 472.382C237.248 472.382 235.834 472.593 234.691 472.983C235.143 474.035 235.293 474.876 235.293 476.889V487.675L238.661 489.148V490.199H228.376V489.148L231.534 487.675V477.19C231.534 473.704 230.09 472.382 226.301 472.382C225.068 472.382 224.376 472.473 222.933 472.803V487.645L226.271 489.118V490.169H215.625L215.595 490.199Z" fill="#80848A"/>
<path d="M15.1269 834.609L21.2017 825.295L18.2545 823.913V822.741H27.6976V823.913L24.4196 825.295L16.5704 836.833V848.16L21.2017 849.632V850.804H6.49585V849.662L11.1272 848.16V837.884L3.1577 825.295L0 823.913V822.741H12.3902V823.913L9.35282 825.295L15.1269 834.609ZM23.9685 841.159C23.9685 834.519 28.3893 830.042 34.9753 830.042C41.5614 830.042 45.5612 834.128 45.5612 840.408C45.5612 846.687 41.1404 851.435 34.5543 851.435C27.9682 851.435 23.9685 847.318 23.9685 841.159ZM29.5922 840.288C29.5922 845.966 31.5169 849.331 34.7648 849.331C38.0128 849.331 39.8472 846.297 39.8472 841.069C39.8472 835.42 37.8624 831.935 34.6746 831.935C31.4868 831.935 29.5922 835 29.5922 840.258V840.288ZM47.6964 841.159C47.6964 834.519 52.1172 830.042 58.7032 830.042C65.2893 830.042 69.2891 834.128 69.2891 840.408C69.2891 846.687 64.8683 851.435 58.2822 851.435C51.6961 851.435 47.6964 847.318 47.6964 841.159ZM53.3502 840.288C53.3502 845.966 55.2749 849.331 58.5228 849.331C61.7707 849.331 63.6052 846.297 63.6052 841.069C63.6052 835.42 61.6204 831.935 58.4326 831.935C55.2448 831.935 53.3502 835 53.3502 840.258V840.288ZM79.0328 833.558V848.16L82.1906 849.632V850.804H70.4319V849.632L74.0106 848.16V833.558L70.4319 832.536V831.394L79.0328 829.832V832.176L79.4539 831.995L81.5289 831.244C82.7619 830.793 83.5438 830.493 83.8747 830.403C84.5363 830.193 85.3483 830.072 86.2805 830.072C88.0849 830.072 89.2277 830.613 90.2502 831.845C91.3329 833.227 91.6336 834.279 91.6336 837.103V848.13L95.1823 849.602V850.774H83.9047V849.602L86.6113 848.13V838.395C86.6113 834.369 85.649 833.167 82.4011 833.167C81.1681 833.167 80.5064 833.257 79.0629 833.498L79.0328 833.558ZM108.174 848.16V825.385L104.625 823.913V822.741H117.557C120.745 822.741 122.609 823.282 124.263 824.724C125.707 825.986 126.398 827.549 126.398 829.441C126.398 833.257 123.692 835.661 118.549 836.292C124.444 836.502 127.661 838.996 127.661 843.352C127.661 845.666 126.519 847.859 124.714 849.091C122.82 850.353 120.715 850.804 116.835 850.804H104.625V849.632L108.174 848.16ZM115.361 835.541C118.73 835.541 120.745 833.437 120.745 829.982C120.745 826.527 118.82 824.634 115.392 824.634H113.617V835.541H115.361ZM113.647 848.911H115.542C117.948 848.911 119.091 848.58 120.263 847.559C121.436 846.507 122.038 845.125 122.038 843.322C122.038 839.567 119.692 837.433 115.602 837.433H113.677V848.911H113.647ZM129.857 841.159C129.857 834.519 134.278 830.042 140.864 830.042C147.45 830.042 151.45 834.128 151.45 840.408C151.45 846.687 147.029 851.435 140.443 851.435C133.857 851.435 129.857 847.318 129.857 841.159ZM135.481 840.288C135.481 845.966 137.405 849.331 140.653 849.331C143.901 849.331 145.736 846.297 145.736 841.069C145.736 835.42 143.751 831.935 140.563 831.935C137.375 831.935 135.481 835 135.481 840.258V840.288ZM155.75 848.16V824.935L151.991 823.913V822.741L160.802 821.059V848.16L164.562 849.632V850.804H152.231V849.632L155.78 848.16H155.75ZM184.831 847.649L188.169 848.61V849.782L179.568 851.435V848.701L179.177 848.911C175.839 850.683 174.305 851.224 172.681 851.224C168.441 851.224 165.103 846.988 165.103 841.49C165.103 834.97 169.854 830.042 176.17 830.042C177.403 830.042 178.275 830.223 179.538 830.583V824.905L175.779 823.883V822.711L184.801 821.029V847.619L184.831 847.649ZM179.568 832.236C178.756 831.995 178.425 831.935 177.583 831.935C173.373 831.935 170.546 835.3 170.546 840.318C170.546 845.335 172.982 848.07 176.922 848.07C177.764 848.07 178.636 847.949 179.568 847.649V832.236Z" fill="#80848A"/>
<path d="M26.0439 877.454V905.036H18.2248V884.364H4.87224V877.484H26.0439V877.454ZM37.0808 877.454V883.884H40.7498V890.764H37.0808V919.728H29.2618V877.454H37.0808Z" fill="#80848A"/>
<path d="M43.6974 905.036V877.454H51.5165V898.125H66.7036V877.454H74.5227V883.884H78.1916V890.764H74.5227V919.728H66.7036V905.006H43.6974V905.036Z" fill="#80848A"/>
<path d="M112.894 883.884H116.563V890.764H112.894V919.728H105.075V905.006H81.6181V877.424H101.857V884.304H89.4372V898.095H105.075V877.424H112.894V883.884Z" fill="#80848A"/>
<path d="M131.422 887.549V884.334H119.001V877.454H139.241V894.46H126.82V898.125H142.459V877.454H150.278V883.884H153.947V890.764H150.278V919.728H142.459V905.006H119.001V887.549H131.422Z" fill="#80848A"/>
<path d="M177.373 905.036H156.863V877.454H177.373V905.036ZM169.554 898.125V884.334H164.682V898.125H169.554ZM188.17 877.454V883.884H191.839V890.764H188.17V919.728H180.351V877.454H188.17Z" fill="#80848A"/>
<path d="M202.365 877.454V882.952H207.417V877.454H215.236V905.036H194.546V877.454H202.365ZM207.447 898.125V889.863H202.395V898.125H207.447ZM225.852 877.454V883.884H229.642V890.764H225.852V919.728H218.033V877.454H225.852Z" fill="#80848A"/>
<path d="M256.467 877.394H264.286V883.824H267.955V890.704H264.286V919.668H256.467V902.302L251.054 905.126L244.047 892.116L237.1 905.126L230.393 901.641L244.047 876.012L256.467 899.447V877.394Z" fill="#80848A"/>
<path d="M293.788 890.103C293.788 897.104 288.074 902.782 281.067 902.782C274.059 902.782 268.376 897.104 268.376 890.103C268.376 883.102 274.059 877.454 281.067 877.454C288.074 877.454 293.788 883.163 293.788 890.103ZM281.067 895.211C283.923 895.211 286.269 892.927 286.269 890.043C286.269 887.159 283.923 884.875 281.067 884.875C278.21 884.875 275.894 887.219 275.894 890.043C275.894 892.867 278.179 895.211 281.067 895.211ZM303.14 877.454V884.815H306.809V891.695H303.14V919.728H295.321V877.454H303.14Z" fill="#80848A"/>
<path d="M329.967 877.454V884.334H324.132L332.042 902.482L325.245 905.486L319.351 891.846L313.486 905.486L306.69 902.482L314.569 884.334H308.344V877.454H329.967ZM340.101 877.454V883.884H343.77V890.764H340.101V919.728H332.282V877.454H340.101Z" fill="#80848A"/>
<path d="M352.612 879.227V876.462H360.882V879.227H367.317V886.107H362.295L369.393 902.391L362.596 905.396L356.702 891.755L350.837 905.396L344.041 902.391L351.138 886.107H346.116V879.227H352.612ZM377.482 883.823H381.151V890.704H377.482V919.668H369.663V877.364H377.482V883.823Z" fill="#80848A"/>
<path d="M385.09 888.03H396.608V884.364H384.187V877.484H404.427V905.066H396.608V894.94H385.09V888.03ZM415.464 877.454V883.884H419.133V890.764H415.464V919.728H407.645V877.454H415.464Z" fill="#80848A"/>
<path d="M452.876 883.884H456.545V890.764H452.876V919.728H445.057V905.006H422.502V877.424H441.809V884.304H430.321V887.729H441.809V894.61H430.321V898.095H445.057V877.424H452.876V883.884Z" fill="#80848A"/>
<path d="M481.566 877.454V884.334H479.28V898.125H483.43V877.454H491.249V883.884H494.918V890.764H491.249V919.728H483.43V905.006H459.973V898.125H462.259V884.334H459.973V877.454H481.596H481.566ZM471.702 898.125V884.334H469.867V898.125H471.702Z" fill="#80848A"/>
<path d="M496.482 886.137V879.256H504.301V876.492H512.572V879.256H520.391V886.137H517.624C519.007 888.09 519.91 890.463 519.91 893.017C519.91 899.357 514.737 904.525 508.421 904.525C502.106 904.525 496.903 899.357 496.903 893.017C496.903 890.463 497.776 888.06 499.189 886.137H496.422H496.482ZM508.452 896.713C510.557 896.713 512.271 894.94 512.271 892.777C512.271 890.614 510.527 888.901 508.391 888.901C506.256 888.901 504.452 890.644 504.452 892.777C504.452 894.91 506.226 896.713 508.452 896.713ZM530.074 884.755H533.743V891.635H530.074V919.668H522.255V877.364H530.074V884.755Z" fill="#80848A"/>
<path d="M28.5985 950.194C28.5985 957.194 22.8846 962.873 15.8775 962.873C8.87036 962.873 3.18649 957.194 3.18649 950.194C3.18649 943.193 8.87036 937.545 15.8775 937.545C22.8846 937.545 28.5985 943.253 28.5985 950.194ZM15.8775 955.302C18.7344 955.302 21.0801 953.018 21.0801 950.134C21.0801 947.249 18.7344 944.966 15.8775 944.966C13.0205 944.966 10.7048 947.309 10.7048 950.134C10.7048 952.958 12.9904 955.302 15.8775 955.302ZM37.9513 937.545V944.906H41.6203V951.786H37.9513V979.818H30.1322V937.545H37.9513Z" fill="#80848A"/>
<path d="M66.4927 950.194C66.4927 957.194 60.7788 962.873 53.7717 962.873C46.7646 962.873 41.0807 957.194 41.0807 950.194C41.0807 943.193 46.7646 937.545 53.7717 937.545C60.7788 937.545 66.4927 943.253 66.4927 950.194ZM53.7416 955.302C56.5986 955.302 58.9443 953.018 58.9443 950.134C58.9443 947.249 56.5986 944.966 53.7416 944.966C50.8846 944.966 48.569 947.309 48.569 950.134C48.569 952.958 50.8546 955.302 53.7416 955.302ZM75.8455 979.818H68.0265V937.545H75.8455V943.043H79.5145V949.923H75.8455V953.589H79.5145V960.469H75.8455V979.818Z" fill="#80848A"/>
<path d="M106.4 946.739V937.545H114.219V979.818H106.4V953.619H103.843C102.37 958.937 97.4678 962.873 91.6637 962.873C84.6566 962.873 78.9426 957.194 78.9426 950.194C78.9426 943.193 84.6566 937.545 91.6637 937.545C97.4378 937.545 102.34 941.421 103.843 946.799L106.4 946.739ZM91.6937 955.302C94.5507 955.302 96.8664 953.018 96.8664 950.134C96.8664 947.249 94.5808 944.966 91.6937 944.966C88.8067 944.966 86.491 947.309 86.491 950.134C86.491 952.958 88.8368 955.302 91.6937 955.302Z" fill="#80848A"/>
<path d="M140.624 958.667L140.564 956.473C138.429 960.259 134.279 962.843 129.587 962.843C122.58 962.843 116.866 957.164 116.866 950.164C116.866 943.163 122.58 937.515 129.587 937.515C134.279 937.515 138.429 940.129 140.624 944.004V941.661H144.293V937.515H152.112V979.789H144.293V958.637H140.624V958.667ZM129.557 955.302C132.414 955.302 134.73 953.018 134.73 950.134C134.73 947.249 132.444 944.966 129.557 944.966C126.67 944.966 124.354 947.309 124.354 950.134C124.354 952.958 126.7 955.302 129.557 955.302ZM142.248 950.194C142.248 950.765 142.158 951.275 142.158 951.786H144.293V948.571H142.158C142.158 949.142 142.248 949.683 142.248 950.194Z" fill="#80848A"/>
<path d="M189.131 976.874H156.922V970.023H169.132V964.495H176.891V970.023H189.1V976.874H189.131ZM186.364 949.743C186.364 957.104 180.379 963.083 173.011 963.083C165.643 963.083 159.659 957.104 159.659 949.743C159.659 942.382 165.643 936.403 173.011 936.403C180.379 936.403 186.364 942.382 186.364 949.743ZM173.011 955.572C176.229 955.572 178.845 953.018 178.845 949.803C178.845 946.588 176.229 943.974 173.011 943.974C169.793 943.974 167.177 946.588 167.177 949.803C167.177 953.018 169.793 955.572 173.011 955.572Z" fill="#80848A"/>
<path d="M213.221 963.984H221.04V970.023H227.025V976.874H194.816V970.023H200.801V963.984H208.62V970.023H213.221V963.984ZM224.258 949.743C224.258 957.104 218.273 963.083 210.905 963.083C203.537 963.083 197.553 957.104 197.553 949.743C197.553 942.382 203.537 936.403 210.905 936.403C218.273 936.403 224.258 942.382 224.258 949.743ZM210.905 955.572C214.123 955.572 216.74 953.018 216.74 949.803C216.74 946.588 214.123 943.974 210.905 943.974C207.688 943.974 205.071 946.588 205.071 949.803C205.071 953.018 207.688 955.572 210.905 955.572Z" fill="#80848A"/>
<path d="M265.82 961.401V968.281H252.677V979.788H244.919V968.281H231.776V961.401H265.82ZM260.767 948.511C260.767 955.151 255.444 960.469 248.798 960.469C242.152 960.469 236.829 955.151 236.829 948.511C236.829 941.871 242.152 936.553 248.798 936.553C255.444 936.553 260.767 941.871 260.767 948.511ZM248.798 952.958C251.264 952.958 253.189 951.005 253.189 948.571C253.189 946.137 251.234 944.125 248.798 944.125C246.362 944.125 244.407 946.107 244.407 948.571C244.407 951.035 246.362 952.958 248.798 952.958Z" fill="#80848A"/>
<path d="M297.246 979.788H289.427V968.281H283.893V979.788H276.074V968.281H269.638V961.401H303.681V968.281H297.246V979.788ZM298.629 948.511C298.629 955.151 293.306 960.469 286.66 960.469C280.014 960.469 274.691 955.151 274.691 948.511C274.691 941.871 280.014 936.553 286.66 936.553C293.306 936.553 298.629 941.871 298.629 948.511ZM286.66 952.958C289.126 952.958 291.051 951.005 291.051 948.571C291.051 946.137 289.096 944.125 286.66 944.125C284.224 944.125 282.269 946.107 282.269 948.571C282.269 951.035 284.224 952.958 286.66 952.958Z" fill="#80848A"/>
<path d="M340.672 970.023V976.874H308.464V970.023H340.672ZM337.905 949.743C337.905 957.104 331.921 963.083 324.553 963.083C317.185 963.083 311.2 957.104 311.2 949.743C311.2 942.382 317.185 936.403 324.553 936.403C331.921 936.403 337.905 942.382 337.905 949.743ZM324.553 955.572C327.771 955.572 330.387 953.018 330.387 949.803C330.387 946.588 327.771 943.974 324.553 943.974C321.335 943.974 318.719 946.588 318.719 949.803C318.719 953.018 321.335 955.572 324.553 955.572Z" fill="#80848A"/>
<path d="M369.541 950.194C369.541 957.194 363.857 962.873 356.85 962.873C349.843 962.873 344.129 957.194 344.129 950.194C344.129 943.193 349.843 937.545 356.85 937.545C363.857 937.545 369.541 943.253 369.541 950.194ZM356.88 955.302C359.737 955.302 362.052 953.018 362.052 950.134C362.052 947.249 359.767 944.966 356.88 944.966C353.993 944.966 351.677 947.309 351.677 950.134C351.677 952.958 354.023 955.302 356.88 955.302ZM379.405 937.545V979.818H371.586V937.545H379.405Z" fill="#80848A"/>
<path d="M6.76663 1013.83V997.756H36.2085V1004.64H14.5857V1007.4H36.2085V1013.83H25.4121V1015.66H37.5618V1022.09H5.38325V1015.66H17.593V1013.83H6.76663ZM21.5026 1041.86C16.2999 1041.86 12.0896 1037.63 12.0896 1032.43C12.0896 1027.23 16.2698 1023.02 21.5026 1023.02C26.7354 1023.02 30.9757 1027.26 30.9757 1032.43C30.9757 1037.6 26.7354 1041.86 21.5026 1041.86ZM21.7432 1030.05C20.3598 1030.05 19.3373 1031.08 19.3373 1032.4C19.3373 1033.72 20.3598 1034.8 21.7432 1034.8C23.1265 1034.8 24.0889 1033.78 24.0889 1032.4C24.0889 1031.02 23.0664 1030.05 21.7432 1030.05Z" fill="#80848A"/>
<path d="M41.6522 1006.32V999.438H47.8774V996.674H55.6965V999.438H61.8916V1006.32H59.3955C61.23 1008.27 62.3728 1010.83 62.3728 1013.68C62.3728 1019.51 57.6212 1024.26 51.7869 1024.26C45.9527 1024.26 41.2011 1019.51 41.2011 1013.68C41.2011 1010.83 42.3138 1008.27 44.1784 1006.32H41.6522ZM51.7569 1017.13C53.7116 1017.13 55.2454 1015.6 55.2454 1013.65C55.2454 1011.7 53.7116 1010.16 51.7569 1010.16C49.8021 1010.16 48.2684 1011.7 48.2684 1013.65C48.2684 1015.6 49.8021 1017.13 51.7569 1017.13ZM69.5002 1010.95V1039.85H63.275V997.545H69.5002V1003.97H70.8835V997.545H77.0787V1039.85H70.8835V1010.95H69.5002Z" fill="#80848A"/>
<path d="M111.512 1021.52V1033.21H91.2729V1034.38H111.512V1039.91H83.4539V1028.16H103.693V1027.05H83.4539V1021.52H93.3781V1019.69H80.6871V1013.26H113.798V1019.69H101.167V1021.52H111.512ZM83.0028 1011.88V997.635H111.542V1011.88H83.0028ZM90.8218 1004.07V1005.9H103.693V1004.07H90.8218Z" fill="#80848A"/>
<path d="M142.97 1021.07V997.635H150.338V1004.07H154.006V1010.95H150.338V1039.91H142.97V1027.95H119.512V1021.07H123.181V1011.43H130.549V1021.07H133.316V1004.52H119.512V997.635H140.684V1021.07H143H142.97Z" fill="#80848A"/>
<path d="M178.996 997.635V1001.78H181.282V997.635H188.168V1020.62H172.079V997.635H178.996ZM204.769 1022.45V1039.91H196.95V1029.33H177.161V1022.45H204.769ZM181.312 1013.71V1008.66H179.026V1013.71H181.312ZM196.679 1010.49V1020.62H190.033V997.635H196.679V1003.61H198.062V997.635H204.769V1020.62H198.062V1010.49H196.679Z" fill="#80848A"/>
<path d="M230.243 1027.5V1039.91H222.424V1027.5H210.214V1020.62H242.423V1027.5H230.243ZM241.009 1004.52H219.386V1010.49H241.009V1017.38H211.567V997.605H241.009V1004.52Z" fill="#80848A"/>
<path d="M266.481 1020.8L258.451 1009.11L250.422 1020.86L244.437 1016.62L258.331 996.193L272.135 1016.62L266.451 1020.8H266.481ZM261.218 1024.23V1032.97H280.525V1039.85H253.369V1024.23H261.218ZM272.255 997.575H280.074V1003.1H283.743V1009.98H280.074V1027.92H272.255V997.575Z" fill="#80848A"/>
<path d="M309.185 1010.28C309.185 1017.29 303.502 1022.96 296.495 1022.96C289.487 1022.96 283.773 1017.29 283.773 1010.28C283.773 1003.28 289.487 997.635 296.495 997.635C303.502 997.635 309.185 1003.34 309.185 1010.28ZM296.495 1015.39C299.351 1015.39 301.667 1013.11 301.667 1010.22C301.667 1007.34 299.382 1005.06 296.495 1005.06C293.607 1005.06 291.292 1007.4 291.292 1010.22C291.292 1013.05 293.638 1015.39 296.495 1015.39ZM319.05 997.635V1039.91H311.23V997.635H319.05Z" fill="#80848A"/>
<path d="M359.678 1025.22H339.168V997.635H359.678V1025.22ZM351.859 1018.31V1004.52H346.987V1018.31H351.859ZM370.475 997.635V1004.07H374.144V1010.95H370.475V1039.91H362.656V997.635H370.475Z" fill="#80848A"/>
<path d="M408.847 1036.99H377.571V1030.11H408.847V1036.99ZM378.954 1007.13H399.645V1004.37H378.954V997.485H407.494V1014.04H386.803V1017.26H407.494V1024.14H378.954V1007.13Z" fill="#80848A"/>
<path d="M444.454 997.485V1030.11H446.288V1036.99H415.914V1030.11H422.35V1015.87H430.169V1030.11H436.605V1004.37H415.914V997.485H444.454Z" fill="#80848A"/>
<path d="M468.725 1017.5V997.726H489.896V1004.61H476.544V1010.59H492.182V997.726H500.001V1003.25H503.67V1010.13H500.001V1018.4H492.182V1017.47H468.725V1017.5ZM478.859 1032.67V1033.78H485.806V1040H472.424V1026.87H479.371V1025.76H472.424V1019.99H485.806V1032.67H478.859ZM486.679 1028.07V1022.09H489.686V1019.81H496.904V1022.09H500.031V1028.07H498.197C499.941 1029.45 501.054 1031.59 501.054 1033.99C501.054 1038.17 497.685 1041.5 493.475 1041.5C489.265 1041.5 485.957 1038.17 485.957 1033.99C485.957 1031.59 487.039 1029.45 488.754 1028.07H486.649H486.679ZM493.535 1031.86C492.423 1031.86 491.43 1032.79 491.43 1033.96C491.43 1035.13 492.393 1036.06 493.535 1036.06C494.678 1036.06 495.671 1035.1 495.671 1033.96C495.671 1032.82 494.708 1031.86 493.535 1031.86Z" fill="#80848A"/>
<path d="M518.376 1022.3H508.452V997.485H536.059V1004.37H516.271V1015.39H536.059V1022.27H526.195V1030.08H537.442V1036.96H507.068V1030.08H518.376V1022.27V1022.3Z" fill="#80848A"/>
<path d="M545.411 1016.53V1004.34H567.034V1003.16H545.411V997.666H574.853V1009.86H553.23V1011.04H574.853V1016.56H564.056V1018.46H576.687V1024.83H543.576V1018.46H556.267V1016.56H545.441L545.411 1016.53ZM574.853 1026.24V1039.94H567.034V1032.64H545.862V1026.27H574.853V1026.24Z" fill="#80848A"/>
<path d="M3.99847 1066.41V1059.53H11.8175V1056.76H20.0877V1059.53H27.9068V1066.41H25.1401C26.5234 1068.36 27.4256 1070.74 27.4256 1073.29C27.4256 1079.63 22.253 1084.8 15.9376 1084.8C9.62219 1084.8 4.4195 1079.63 4.4195 1073.29C4.4195 1070.74 5.29162 1068.33 6.70507 1066.41H3.93832H3.99847ZM15.9677 1076.99C18.0728 1076.99 19.787 1075.21 19.787 1073.05C19.787 1070.89 18.0427 1069.17 15.9075 1069.17C13.7723 1069.17 11.9679 1070.92 11.9679 1073.05C11.9679 1075.18 13.7422 1076.99 15.9677 1076.99ZM37.5904 1065.03H41.2594V1071.91H37.5904V1099.94H29.7714V1057.64H37.5904V1065.03Z" fill="#80848A"/>
<path d="M75.0325 1097.09H43.7562V1090.24H75.0325V1097.09ZM44.6584 1057.58H52.4775V1075.51H74.1002V1082.39H44.6584V1057.58Z" fill="#80848A"/>
<path d="M82.0704 1078.4V1057.73H89.8895V1071.52H104.625V1057.73H112.444V1079.78H104.625V1078.4H82.0704ZM86.6716 1081.61H112.444V1100H86.6716V1081.61ZM104.625 1093.12V1088.52H94.4907V1093.12H104.625Z" fill="#80848A"/>
<path d="M142.246 1070.38C142.246 1077.38 136.562 1083.05 129.555 1083.05C122.548 1083.05 116.834 1077.38 116.834 1070.38C116.834 1063.37 122.548 1057.73 129.555 1057.73C136.562 1057.73 142.246 1063.43 142.246 1070.38ZM129.555 1075.48C132.412 1075.48 134.728 1073.2 134.728 1070.32C134.728 1067.43 132.442 1065.15 129.555 1065.15C126.668 1065.15 124.352 1067.49 124.352 1070.32C124.352 1073.14 126.698 1075.48 129.555 1075.48ZM152.11 1057.73V1100H144.291V1057.73H152.11Z" fill="#80848A"/>
<path d="M194.395 1057.58H202.214V1083.32H192.35V1090.21H204.048V1097.09H172.772V1090.21H184.531V1083.32H174.607V1057.58H182.426V1062.62H194.395V1057.58ZM194.395 1076.41V1070.44H182.426V1076.41H194.395Z" fill="#80848A"/>
<path d="M243.323 1081.58V1088.46H230.181V1099.97H222.422V1088.46H209.28V1081.58H243.323ZM238.271 1068.69C238.271 1075.33 232.948 1080.65 226.302 1080.65C219.656 1080.65 214.333 1075.33 214.333 1068.69C214.333 1062.05 219.656 1056.73 226.302 1056.73C232.948 1056.73 238.271 1062.05 238.271 1068.69ZM226.302 1073.14C228.768 1073.14 230.692 1071.19 230.692 1068.75C230.692 1066.32 228.738 1064.31 226.302 1064.31C223.866 1064.31 221.911 1066.29 221.911 1068.75C221.911 1071.22 223.866 1073.14 226.302 1073.14Z" fill="#80848A"/>
<path d="M271.291 1070.38C271.291 1077.38 265.577 1083.05 258.57 1083.05C251.563 1083.05 245.879 1077.38 245.879 1070.38C245.879 1063.37 251.563 1057.73 258.57 1057.73C265.577 1057.73 271.291 1063.43 271.291 1070.38ZM258.57 1075.48C261.427 1075.48 263.773 1073.2 263.773 1070.32C263.773 1067.43 261.427 1065.15 258.57 1065.15C255.713 1065.15 253.398 1067.49 253.398 1070.32C253.398 1073.14 255.683 1075.48 258.57 1075.48ZM280.644 1057.73V1065.09H284.313V1071.97H280.644V1100H272.825V1057.73H280.644Z" fill="#80848A"/>
<path d="M309.727 1057.67H317.546V1064.1H321.215V1070.98H317.546V1099.94H309.727V1082.57L304.313 1085.4L297.306 1072.39L290.359 1085.4L283.653 1081.91L297.306 1056.28L309.727 1079.72V1057.67Z" fill="#80848A"/>
<path d="M372.369 1081.58V1088.46H359.227V1099.97H351.468V1088.46H338.326V1081.58H372.369ZM367.286 1068.69C367.286 1075.33 361.963 1080.65 355.317 1080.65C348.671 1080.65 343.348 1075.33 343.348 1068.69C343.348 1062.05 348.671 1056.73 355.317 1056.73C361.963 1056.73 367.286 1062.05 367.286 1068.69ZM355.317 1073.14C357.783 1073.14 359.708 1071.19 359.708 1068.75C359.708 1066.32 357.753 1064.31 355.317 1064.31C352.881 1064.31 350.926 1066.29 350.926 1068.75C350.926 1071.22 352.881 1073.14 355.317 1073.14Z" fill="#80848A"/>
<path d="M401.028 1100V1085.28H377.571V1067.82H389.991V1064.61H377.571V1057.73H397.81V1074.73H385.39V1078.4H401.028V1057.73H408.847V1100H401.028Z" fill="#80848A"/>
<path d="M415.403 1085.31V1057.73H423.222V1078.4H438.409V1057.73H446.228V1064.16H449.897V1071.04H446.228V1100H438.409V1085.28H415.403V1085.31Z" fill="#80848A"/>
<path d="M465.266 1067.82V1064.61H452.845V1057.73H473.085V1074.73H460.664V1078.4H476.302V1057.73H484.121V1064.16H487.79V1071.04H484.121V1100H476.302V1085.28H452.845V1067.82H465.266Z" fill="#80848A"/>
<path d="M526.585 1080.71H506.346V1057.73H526.585V1080.71ZM517.864 1084.38V1093.12H537.652V1100H510.045V1084.38H517.864ZM518.766 1073.8V1064.61H514.165V1073.8H518.766ZM537.171 1063.22H540.84V1070.1H537.171V1088.04H529.352V1057.7H537.171V1063.22Z" fill="#80848A"/>
<path d="M562.523 1064.52V1057.64H569.41V1099.91H562.523V1084.86L558.222 1086.81L552.388 1073.74L546.614 1086.81L540.058 1083.9L552.388 1056.25L558.824 1070.71V1064.52H562.523ZM562.553 1071.4H559.185L562.553 1078.91V1071.4ZM577.71 1057.61V1099.88H570.823V1057.61H577.71Z" fill="#80848A"/>
<path d="M19.6082 525.352H4.87224V519.854H26.0439V547.436H19.6082V525.352ZM37.0808 531.782V562.128H30.6451V519.854H37.0808V526.284H40.7498V531.812H37.0808V531.782Z" fill="#80848A"/>
<path d="M74.0393 531.782V562.128H67.6035V547.406H43.6651V519.824H50.1008V541.877H67.5735V519.824H74.0092V526.254H77.6781V531.782H74.0092H74.0393Z" fill="#80848A"/>
<path d="M112.443 531.782V562.128H106.008V547.406H81.6181V519.824H101.406V525.322H88.0538V541.877H106.008V519.824H112.443V526.254H116.112V531.782H112.443Z" fill="#80848A"/>
<path d="M150.278 531.782V562.128H143.842V547.406H119.001V530.851H132.805V525.322H119.001V519.824H139.241V536.379H125.437V541.907H143.842V519.854H150.278V526.284H153.947V531.812H150.278V531.782Z" fill="#80848A"/>
<path d="M177.583 547.406H156.893V519.824H177.583V547.406ZM171.147 541.877V525.322H163.328V541.877H171.147ZM188.169 519.824V526.254H191.838V531.782H188.169V562.128H181.733V519.854H188.169V519.824Z" fill="#80848A"/>
<path d="M201.19 519.824V526.254H209.009V519.824H215.445V547.406H194.755V519.824H201.19ZM209.009 541.877V531.752H201.19V541.877H209.009ZM226.031 519.824V526.254H229.82V531.782H226.031V562.128H219.595V519.854H226.031V519.824Z" fill="#80848A"/>
<path d="M251.864 547.766L244.045 532.383L236.225 547.766L230.602 544.852L244.045 518.352L257.547 544.852L251.864 547.766ZM264.284 519.704V526.133H267.953V531.662H264.284V562.008H257.848V519.734H264.284V519.704Z" fill="#80848A"/>
<path d="M281.517 545.092C274.57 545.092 268.887 539.413 268.887 532.413C268.887 525.412 274.57 519.794 281.517 519.794C288.464 519.794 294.208 525.472 294.208 532.413C294.208 539.353 288.524 545.092 281.517 545.092ZM281.517 526.013C277.999 526.013 275.082 528.928 275.082 532.443C275.082 535.958 277.999 538.873 281.517 538.873C285.036 538.873 287.953 536.018 287.953 532.443C287.953 528.867 285.096 526.013 281.517 526.013ZM302.689 532.653V561.136H296.253V519.764H302.689V527.125H306.478V532.653H302.689Z" fill="#80848A"/>
<path d="M326.508 547.796L319.351 531.662L312.554 547.856L306.569 545.212L315.261 525.352H308.374V519.854H329.996V525.352H323.621L332.312 545.332L326.538 547.826L326.508 547.796ZM340.101 531.782V562.128H333.665V519.854H340.101V526.284H343.77V531.812H340.101V531.782Z" fill="#80848A"/>
<path d="M364.069 547.796L356.972 531.601L350.115 547.796L344.19 545.152L352.01 527.125H346.175V521.596H353.754V518.832H360.189V521.596H367.798V527.125H361.964L369.843 545.242L364.069 547.796ZM377.482 532.653V562.007H371.046V519.764H377.482V527.125H381.151V532.653H377.482Z" fill="#80848A"/>
<path d="M397.962 547.406V535.447H385.09V529.919H397.962V525.322H384.158V519.824H404.397V547.406H397.962ZM415.464 531.782V562.128H409.029V519.854H415.464V526.284H419.133V531.812H415.464V531.782Z" fill="#80848A"/>
<path d="M452.876 531.782V562.128H446.44V547.406H422.502V519.824H443.192V525.322H428.937V530.37H443.192V535.898H428.937V541.877H446.41V519.824H452.846V526.254H456.515V531.782H452.846H452.876Z" fill="#80848A"/>
<path d="M491.22 531.782V562.128H484.844V547.406H459.944V541.877H462.71V525.322H459.944V519.824H482.017V525.322H479.251V541.877H484.754V519.824H491.19V526.254H494.859V531.782H491.19H491.22ZM472.815 525.322H469.146V541.877H472.815V525.322Z" fill="#80848A"/>
<path d="M496.904 527.125V521.596H505.655V518.832H512.091V521.596H520.842V527.125H516.963C519.248 529.228 520.632 532.292 520.632 535.597C520.632 542.087 515.369 547.345 508.873 547.345C502.377 547.345 497.175 542.087 497.175 535.597C497.175 532.292 498.558 529.228 500.813 527.125H496.904ZM508.873 541.126C511.88 541.126 514.346 538.662 514.346 535.597C514.346 532.533 511.88 530.129 508.873 530.129C505.866 530.129 503.4 532.593 503.4 535.597C503.4 538.602 505.866 541.126 508.873 541.126ZM530.015 519.764V527.125H533.684V532.653H530.015V562.067H523.579V519.764H530.015Z" fill="#80848A"/>
<path d="M16.3313 605.183C9.3843 605.183 3.70044 599.504 3.70044 592.504C3.70044 585.503 9.3843 579.884 16.3313 579.884C23.2782 579.884 29.0222 585.563 29.0222 592.504C29.0222 599.444 23.3384 605.183 16.3313 605.183ZM16.3313 586.104C12.8127 586.104 9.89555 589.018 9.89555 592.534C9.89555 596.049 12.8127 598.963 16.3313 598.963C19.8498 598.963 22.767 596.109 22.767 592.534C22.767 588.958 19.91 586.104 16.3313 586.104ZM37.5029 592.744V621.227H31.0672V579.854H37.5029V587.216H41.2922V592.744H37.5029Z" fill="#80848A"/>
<path d="M54.2225 605.183C47.2756 605.183 41.5917 599.504 41.5917 592.504C41.5917 585.503 47.2756 579.884 54.2225 579.884C61.1695 579.884 66.9135 585.563 66.9135 592.504C66.9135 599.444 61.2296 605.183 54.2225 605.183ZM54.2225 586.104C50.704 586.104 47.7868 589.018 47.7868 592.534C47.7868 596.049 50.704 598.963 54.2225 598.963C57.7411 598.963 60.6582 596.109 60.6582 592.534C60.6582 588.958 57.8013 586.104 54.2225 586.104ZM75.3942 601.006V621.227H68.9585V579.854H75.3942V585.383H79.1834V590.911H75.3942V595.508H79.1834V601.036H75.3942V601.006Z" fill="#80848A"/>
<path d="M107.331 621.227V595.027H105.045C103.932 600.796 98.8199 605.183 92.6248 605.183C85.6177 605.183 79.994 599.504 79.994 592.504C79.994 585.503 85.6177 579.884 92.6248 579.884C98.5493 579.884 103.572 583.971 104.955 589.499H107.361V579.854H113.796V621.227H107.331ZM92.5948 586.104C89.0762 586.104 86.1591 589.018 86.1591 592.534C86.1591 596.049 89.0762 598.963 92.5948 598.963C96.1133 598.963 99.0305 596.109 99.0305 592.534C99.0305 588.958 96.1735 586.104 92.5948 586.104Z" fill="#80848A"/>
<path d="M145.223 621.227V599.624H142.006V597.882C140.021 602.208 135.63 605.243 130.487 605.243C123.48 605.243 117.827 599.564 117.827 592.564C117.827 585.563 123.51 579.915 130.487 579.915C135.54 579.915 139.991 582.889 142.006 587.216V584.902H145.223V579.854H151.659V621.227H145.223ZM130.427 586.104C126.909 586.104 123.992 589.018 123.992 592.534C123.992 596.049 126.909 598.963 130.427 598.963C133.946 598.963 136.863 596.109 136.863 592.534C136.863 588.958 134.006 586.104 130.427 586.104ZM145.223 590.43H142.968C142.968 591.091 143.178 591.812 143.178 592.534C143.178 593.104 143.088 593.615 143.088 594.126H145.223V590.43Z" fill="#80848A"/>
<path d="M156.923 619.244V613.746H169.794V606.866H176.23V613.746H189.101V619.244H156.893H156.923ZM173.012 605.484C165.644 605.484 159.629 599.505 159.629 592.143C159.629 584.782 165.674 578.773 173.012 578.773C180.35 578.773 186.395 584.812 186.395 592.143C186.395 599.474 180.35 605.484 173.012 605.484ZM173.012 585.173C169.193 585.173 166.065 588.298 166.065 592.113C166.065 595.929 169.193 599.054 173.012 599.054C176.831 599.054 179.959 595.929 179.959 592.113C179.959 588.298 176.831 585.173 173.012 585.173Z" fill="#80848A"/>
<path d="M194.814 619.244V613.746H201.25V607.316H207.685V613.746H214.121V607.316H220.557V613.746H226.992V619.244H194.784H194.814ZM210.903 605.484C203.535 605.484 197.521 599.505 197.521 592.143C197.521 584.782 203.565 578.773 210.903 578.773C218.241 578.773 224.286 584.812 224.286 592.143C224.286 599.474 218.241 605.484 210.903 605.484ZM210.903 585.173C207.084 585.173 203.956 588.298 203.956 592.113C203.956 595.929 207.084 599.054 210.903 599.054C214.723 599.054 217.85 595.929 217.85 592.113C217.85 588.298 214.723 585.173 210.903 585.173Z" fill="#80848A"/>
<path d="M252.016 609.269V622.128H245.58V609.269H231.776V603.74H265.82V609.269H252.016ZM248.798 602.839C242.152 602.839 236.829 597.521 236.829 590.881C236.829 584.241 242.152 578.923 248.798 578.923C255.444 578.923 260.767 584.241 260.767 590.881C260.767 597.521 255.444 602.839 248.798 602.839ZM248.798 585.172C245.64 585.172 243.084 587.786 243.084 590.941C243.084 594.096 245.64 596.62 248.798 596.62C251.956 596.62 254.572 594.126 254.572 590.941C254.572 587.756 251.956 585.172 248.798 585.172Z" fill="#80848A"/>
<path d="M295.832 609.269V622.128H289.396V609.269H283.862V622.128H277.427V609.269H269.668V603.74H303.711V609.269H295.832ZM286.659 602.839C280.013 602.839 274.69 597.521 274.69 590.881C274.69 584.241 280.013 578.923 286.659 578.923C293.305 578.923 298.628 584.241 298.628 590.881C298.628 597.521 293.305 602.839 286.659 602.839ZM286.659 585.172C283.502 585.172 280.945 587.786 280.945 590.941C280.945 594.096 283.502 596.62 286.659 596.62C289.817 596.62 292.433 594.126 292.433 590.941C292.433 587.756 289.817 585.172 286.659 585.172Z" fill="#80848A"/>
<path d="M308.464 619.244V613.746H340.672V619.244H308.464ZM324.553 605.453C317.185 605.453 311.2 599.474 311.2 592.113C311.2 584.752 317.185 578.773 324.553 578.773C331.921 578.773 337.905 584.752 337.905 592.113C337.905 599.474 331.921 605.453 324.553 605.453ZM324.553 585.233C320.734 585.233 317.666 588.298 317.666 592.113C317.666 595.929 320.734 598.994 324.553 598.994C328.372 598.994 331.44 595.929 331.44 592.113C331.44 588.298 328.372 585.233 324.553 585.233Z" fill="#80848A"/>
<path d="M357.782 605.183C350.775 605.183 345.151 599.504 345.151 592.504C345.151 585.503 350.775 579.884 357.782 579.884C364.789 579.884 370.473 585.563 370.473 592.504C370.473 599.444 364.789 605.183 357.782 605.183ZM357.782 586.104C354.263 586.104 351.346 589.018 351.346 592.534C351.346 596.049 354.263 598.963 357.782 598.963C361.3 598.963 364.217 596.109 364.217 592.534C364.217 588.958 361.36 586.104 357.782 586.104ZM372.518 621.227V579.854H378.953V621.227H372.518Z" fill="#80848A"/>
<path d="M5.38325 657.762H18.2547V654.998H6.28545V640.096H36.6596V645.624H12.7212V649.5H36.6596V655.028H24.6904V657.792H37.5618V663.321H5.38325V657.762ZM21.5026 684.232C16.0292 684.232 11.6385 679.846 11.6385 674.317C11.6385 668.789 16.0292 664.462 21.5026 664.462C26.9759 664.462 31.4268 668.849 31.4268 674.317C31.4268 679.786 26.9759 684.232 21.5026 684.232ZM21.5026 670.441C19.3674 670.441 17.6231 672.184 17.6231 674.317C17.6231 676.451 19.3674 678.193 21.5026 678.193C23.6378 678.193 25.4422 676.511 25.4422 674.317C25.4422 672.124 23.6378 670.441 21.5026 670.441Z" fill="#80848A"/>
<path d="M41.6505 647.306V641.778H48.5373V639.014H54.973V641.778H61.8598V647.306H57.7698C60.6268 649.259 62.5214 652.564 62.5214 656.23C62.5214 662.209 57.7096 667.046 51.725 667.046C45.7404 667.046 40.8986 662.179 40.8986 656.23C40.8986 652.564 42.7932 649.229 45.7104 647.306H41.6204H41.6505ZM51.7551 660.827C54.2512 660.827 56.3563 658.723 56.3563 656.23C56.3563 653.736 54.2512 651.633 51.7551 651.633C49.259 651.633 47.1539 653.676 47.1539 656.23C47.1539 658.784 49.1989 660.827 51.7551 660.827ZM69.7089 651.963V682.249H64.2055V639.945H69.7089V646.375H71.5434V639.945H77.0769V682.249H71.5434V651.963H69.7089Z" fill="#80848A"/>
<path d="M94.0397 661.608H80.6871V656.11H113.798V661.608H100.445V663.922H111.031V675.609H89.8595V677.232H111.031V682.279H83.4238V670.592H104.595V668.969H83.4238V663.922H94.0096V661.608H94.0397ZM83.0028 654.007V640.005H111.542V654.007H83.0028ZM105.077 645.504H89.4385V648.478H105.077V645.504Z" fill="#80848A"/>
<path d="M150.517 651.963V682.309H144.082V670.351H118.79V664.823H123.391V653.796H129.827V664.823H134.428V645.504H118.79V640.005H140.864V664.823H144.082V640.005H150.517V646.435H154.186V651.963H150.517Z" fill="#80848A"/>
<path d="M186.334 640.005V645.504H192.319V640.005H197.852V662.99H180.831V640.005H186.364H186.334ZM207.025 671.253H185.853V665.724H213.461V682.279H207.025V671.253ZM192.289 657.462V651.032H186.304V657.462H192.289ZM207.957 640.005H213.461V662.99H207.957V651.032H206.123V662.99H200.589V640.005H206.123V645.504H207.957V640.005Z" fill="#80848A"/>
<path d="M238.211 669.87V682.279H231.776V669.87H218.904V664.342H251.113V669.87H238.211ZM220.258 659.775V640.005H249.699V645.504H226.693V654.247H249.699V659.775H220.258Z" fill="#80848A"/>
<path d="M276.764 663.351L268.163 649.56L259.532 663.441L254.42 660.376L268.163 638.503L281.816 660.196L276.764 663.321V663.351ZM268.614 666.565V676.691H289.305V682.219H262.148V666.596H268.584L268.614 666.565ZM288.884 670.231H282.448V639.885H288.884V645.414H292.553V650.942H288.884V670.231Z" fill="#80848A"/>
<path d="M306.087 665.273C299.08 665.273 293.456 659.595 293.456 652.594C293.456 645.594 299.08 639.975 306.087 639.975C313.094 639.975 318.778 645.654 318.778 652.594C318.778 659.535 313.094 665.273 306.087 665.273ZM306.087 646.195C302.569 646.195 299.651 649.109 299.651 652.624C299.651 656.14 302.569 659.054 306.087 659.054C309.606 659.054 312.523 656.2 312.523 652.624C312.523 649.049 309.666 646.195 306.087 646.195ZM320.823 681.318V639.945H327.259V681.318H320.823Z" fill="#80848A"/>
<path d="M377.271 667.587H356.581V640.005H377.271V667.587ZM370.836 662.059V645.504H363.017V662.059H370.836ZM387.857 640.005V646.435H391.526V651.963H387.857V682.309H381.422V640.035H387.857V640.005Z" fill="#80848A"/>
<path d="M426.23 679.365H394.954V673.836H426.23V679.365ZM396.337 650.431H418.411V645.383H396.337V639.855H424.877V655.929H402.803V660.977H424.877V666.475H396.337V650.401V650.431Z" fill="#80848A"/>
<path d="M433.298 679.365V673.836H441.117V658.213H447.553V673.836H455.372V645.323H433.298V639.795H461.808V673.806H463.642V679.335H433.268L433.298 679.365Z" fill="#80848A"/>
<path d="M525.623 651.092V660.286H519.188V658.904H494.798V640.065H515.489V645.594H501.234V653.406H519.188V640.065H525.623V645.594H529.292V651.122H525.623V651.092ZM498.497 669.48H505.053V667.196H498.497V662.149H511.038V674.558H504.662V676.841H511.038V682.369H498.497V669.48ZM512.301 669.931V664.462H515.609V661.668H522.165V664.462H525.653V669.931H523.368C525.323 671.313 526.586 673.596 526.586 676.12C526.586 680.296 523.218 683.721 519.007 683.721C514.797 683.721 511.399 680.296 511.399 676.12C511.399 673.626 512.722 671.313 514.617 669.931H512.301ZM518.977 673.356C517.443 673.356 516.18 674.588 516.18 676.12C516.18 677.652 517.443 678.914 518.977 678.914C520.511 678.914 521.804 677.652 521.804 676.12C521.804 674.588 520.511 673.356 518.977 673.356Z" fill="#80848A"/>
<path d="M533.142 673.836H545.111V664.192H534.525V639.825H562.132V645.353H540.961V658.693H562.132V664.222H551.547V673.866H563.516V679.395H533.142V673.836Z" fill="#80848A"/>
<path d="M571.484 658.393V646.706H594.49V645.083H571.484V640.035H600.925V651.573H577.919V653.105H600.925V658.423H589.437V660.526H602.79V665.995H569.679V660.526H583.032V658.423H571.514L571.484 658.393ZM600.925 667.797V682.309H594.49V673.326H571.935V667.827H600.925V667.797Z" fill="#80848A"/>
<path d="M4.41996 707.397V701.869H13.1713V699.104H19.607V701.869H28.3584V707.397H24.4789C26.7645 709.5 28.1479 712.565 28.1479 715.87C28.1479 722.359 22.885 727.617 16.3892 727.617C9.89332 727.617 4.69062 722.359 4.69062 715.87C4.69062 712.565 6.074 709.5 8.3295 707.397H4.41996ZM16.3892 721.398C19.3965 721.398 21.8625 718.934 21.8625 715.87C21.8625 712.805 19.3965 710.401 16.3892 710.401C13.3818 710.401 10.9158 712.865 10.9158 715.87C10.9158 718.874 13.3818 721.398 16.3892 721.398ZM37.5308 700.036V707.397H41.1997V712.925H37.5308V742.34H31.0951V700.036H37.5308Z" fill="#80848A"/>
<path d="M43.997 739.455V733.927H74.8222V739.455H43.997ZM44.8992 725.214V699.946H51.3349V719.716H73.8899V725.214H44.8992Z" fill="#80848A"/>
<path d="M106.009 722.149V720.317H82.0704V700.096H88.5061V714.818H105.979V700.096H112.414V722.149H105.979H106.009ZM86.6716 742.37V724.193H112.444V742.37H86.6716ZM106.009 729.721H93.1374V736.872H106.009V729.721Z" fill="#80848A"/>
<path d="M130.49 725.364C123.483 725.364 117.859 719.686 117.859 712.685C117.859 705.684 123.483 700.066 130.49 700.066C137.497 700.066 143.181 705.745 143.181 712.685C143.181 719.625 137.497 725.364 130.49 725.364ZM130.49 706.285C126.971 706.285 124.054 709.2 124.054 712.715C124.054 716.23 126.971 719.145 130.49 719.145C134.008 719.145 136.925 716.29 136.925 712.715C136.925 709.14 134.068 706.285 130.49 706.285ZM145.226 741.408V700.036H151.661V741.408H145.226Z" fill="#80848A"/>
<path d="M204.468 699.946H210.904V725.695H200.318V733.957H212.739V739.485H181.462V733.957H193.883V725.695H183.297V699.946H189.732V706.375H204.468V699.946ZM204.468 720.166V712.805H189.732V720.166H204.468Z" fill="#80848A"/>
<path d="M238.213 729.45V742.31H231.777V729.45H217.973V723.922H252.016V729.45H238.213ZM234.995 723.021C228.349 723.021 223.026 717.702 223.026 711.062C223.026 704.422 228.349 699.104 234.995 699.104C241.641 699.104 246.964 704.422 246.964 711.062C246.964 717.702 241.641 723.021 234.995 723.021ZM234.995 705.354C231.837 705.354 229.281 707.968 229.281 711.122C229.281 714.277 231.837 716.801 234.995 716.801C238.152 716.801 240.769 714.307 240.769 711.122C240.769 707.938 238.152 705.354 234.995 705.354Z" fill="#80848A"/>
<path d="M267.714 725.364C260.767 725.364 255.083 719.686 255.083 712.685C255.083 705.684 260.767 700.066 267.714 700.066C274.661 700.066 280.405 705.745 280.405 712.685C280.405 719.625 274.721 725.364 267.714 725.364ZM267.714 706.285C264.196 706.285 261.278 709.2 261.278 712.715C261.278 716.23 264.196 719.145 267.714 719.145C271.233 719.145 274.15 716.29 274.15 712.715C274.15 709.14 271.293 706.285 267.714 706.285ZM288.886 712.925V741.408H282.45V700.036H288.886V707.397H292.675V712.925H288.886Z" fill="#80848A"/>
<path d="M313.817 728.038L305.997 712.655L298.178 728.038L292.555 725.124L305.997 698.624L319.5 725.124L313.817 728.038ZM326.237 699.976V706.406H329.906V711.934H326.237V742.28H319.801V700.006H326.237V699.976Z" fill="#80848A"/>
<path d="M375.948 729.45V742.31H369.512V729.45H355.709V723.922H389.752V729.45H375.948ZM372.73 723.021C366.084 723.021 360.761 717.702 360.761 711.062C360.761 704.422 366.084 699.104 372.73 699.104C379.377 699.104 384.699 704.422 384.699 711.062C384.699 717.702 379.377 723.021 372.73 723.021ZM372.73 705.354C369.573 705.354 367.016 707.968 367.016 711.122C367.016 714.277 369.573 716.801 372.73 716.801C375.888 716.801 378.504 714.307 378.504 711.122C378.504 707.938 375.888 705.354 372.73 705.354Z" fill="#80848A"/>
<path d="M408.758 711.123V705.594H394.954V700.096H415.193V716.651H401.39V722.179H419.795V700.126H426.23V742.4H419.795V727.678H394.954V711.123H408.758Z" fill="#80848A"/>
<path d="M463.161 712.054V742.4H456.725V727.678H432.786V700.096H439.222V722.149H456.695V700.096H463.131V706.526H466.799V712.054H463.131H463.161Z" fill="#80848A"/>
<path d="M501.505 712.054V742.4H495.069V727.678H470.228V711.123H484.032V705.594H470.228V700.096H490.468V716.651H476.664V722.179H495.069V700.126H501.505V706.556H505.174V712.084H501.505V712.054Z" fill="#80848A"/>
<path d="M552.688 723.081H532.449V700.096H552.688V723.081ZM543.004 726.746V736.872H563.695V742.4H536.539V726.776H542.974L543.004 726.746ZM546.222 717.552V705.594H538.854V717.552H546.222ZM563.244 700.096V705.594H566.913V711.123H563.244V729.511H556.808V700.096H563.244Z" fill="#80848A"/>
<path d="M585.228 707.397H589.829V700.036H595.813V742.34H589.829V725.995L585.739 728.099L579.243 713.376L572.747 728.038L567.274 725.545L579.243 698.684L585.228 712.114V707.397ZM589.829 712.926H585.589L589.829 722.48V712.926ZM603.633 700.036V742.34H597.648V700.036H603.633Z" fill="#80848A"/>
<path d="M26.8551 153.781V181.363H21.8027V157.927H4.7812V153.781H26.8551ZM36.9898 153.781V160.211H40.9294V164.357H36.9898V196.085H31.9375V153.811H36.9898V153.781Z" fill="#80848A"/>
<path d="M43.577 181.363V153.781H48.6294V177.216H68.8687V153.781H73.9211V160.211H77.8607V164.357H73.9211V196.085H68.8687V181.363H43.577Z" fill="#80848A"/>
<path d="M112.082 153.781V160.211H115.962V164.357H112.082V196.085H107.03V181.363H81.2569V153.781H101.045V157.927H86.3092V177.246H107V153.811H112.052L112.082 153.781Z" fill="#80848A"/>
<path d="M134.068 165.288V157.927H118.881V153.781H139.12V169.405H123.933V177.216H145.105V153.781H150.157V160.211H154.097V164.357H150.157V196.085H145.105V181.363H118.881V165.288H134.068Z" fill="#80848A"/>
<path d="M178.395 181.363H156.772V153.781H178.395V181.363ZM173.343 177.216V157.897H161.825V177.216H173.343ZM188.048 153.781V160.211H191.988V164.357H188.048V196.085H182.996V153.811H188.048V153.781Z" fill="#80848A"/>
<path d="M199.719 153.781V161.593H211.237V153.781H216.289V181.363H194.666V153.781H199.719ZM211.207 177.216V165.739H199.689V177.216H211.207ZM225.943 153.781V161.593H229.882V165.739H225.943V196.085H220.89V153.811H225.943V153.781Z" fill="#80848A"/>
<path d="M254.27 181.783L244.496 162.584L234.632 181.783L230.602 179.68L244.496 152.399L258.359 179.68L254.27 181.783ZM265.216 153.721V160.151H269.096V164.297H265.216V196.025H260.164V153.721H265.216Z" fill="#80848A"/>
<path d="M281.006 178.959C274.059 178.959 268.376 173.28 268.376 166.4C268.376 159.52 274.059 153.781 281.006 153.781C287.953 153.781 293.577 159.459 293.577 166.4C293.577 173.34 287.893 178.959 281.006 178.959ZM280.946 158.588C276.646 158.588 273.187 162.073 273.187 166.34C273.187 170.606 276.676 174.092 280.946 174.092C285.217 174.092 288.705 170.576 288.705 166.34C288.705 162.103 285.187 158.588 280.946 158.588ZM303.08 165.288V196.085H298.028V153.811H303.08V161.172H306.96V165.318H303.08V165.288Z" fill="#80848A"/>
<path d="M331.349 153.781V157.927H322.598L333.755 179.74L329.665 181.843L319.861 162.674L309.997 181.873L305.967 179.74L317.125 157.927H308.373V153.781H331.379H331.349ZM339.95 153.781V160.211H343.89V164.357H339.95V196.085H334.898V153.811H339.95V153.781Z" fill="#80848A"/>
<path d="M369.843 159.67H362.084L372.218 179.68L368.128 181.723L358.355 162.524L348.49 181.783L344.461 179.68L354.686 159.67H346.866V155.524H355.858V152.309H360.911V155.524H369.843V159.67ZM378.143 153.691V160.121H382.022V164.267H378.143V195.995H373.09V153.721H378.143V153.691Z" fill="#80848A"/>
<path d="M384.999 168.022V163.876H400.186V157.897H384.096V153.751H405.268V181.332H400.216V167.992H385.029L384.999 168.022ZM415.343 153.781V160.211H419.282V164.357H415.343V196.085H410.29V153.811H415.343V153.781Z" fill="#80848A"/>
<path d="M427.463 168.954V177.216H447.702V153.781H452.755V160.211H456.694V164.357H452.755V196.085H447.702V181.363H422.411V153.781H443.101V157.927H427.463V164.808H443.101V168.954H427.463Z" fill="#80848A"/>
<path d="M481.927 153.781V157.927H478.709V177.246H486.077V153.811H491.13V160.241H495.069V164.387H491.13V196.115H486.107V181.393H459.823V177.246H463.041V157.927H459.823V153.781H481.927ZM473.627 177.216V157.897H468.093V177.216H473.627Z" fill="#80848A"/>
<path d="M496.602 159.67V155.524H506.556V152.309H511.579V155.524H521.894V159.67H515.548C518.616 161.773 520.601 165.288 520.601 169.284C520.601 175.654 515.428 180.822 509.052 180.822C502.677 180.822 497.444 175.654 497.444 169.284C497.444 165.288 499.429 161.773 502.496 159.67H496.572H496.602ZM509.113 162.013C505.173 162.013 502.045 165.168 502.045 169.104C502.045 173.04 505.173 176.165 509.113 176.165C513.052 176.165 516.12 173.01 516.12 169.104C516.12 165.198 512.992 162.013 509.113 162.013ZM530.164 165.168V195.965H525.112V153.691H530.164V161.052H534.043V165.198H530.164V165.168Z" fill="#80848A"/>
<path d="M15.8173 239.05C8.87036 239.05 3.18649 233.371 3.18649 226.491C3.18649 219.61 8.87036 213.872 15.8173 213.872C22.7643 213.872 28.388 219.55 28.388 226.491C28.388 233.431 22.7041 239.05 15.8173 239.05ZM15.7572 218.679C11.4567 218.679 7.99823 222.164 7.99823 226.431C7.99823 230.697 11.4867 234.182 15.7572 234.182C20.0276 234.182 23.5161 230.667 23.5161 226.431C23.5161 222.194 19.9975 218.679 15.7572 218.679ZM37.8912 225.379V256.176H32.8388V213.902H37.8912V221.263H41.7706V225.409H37.8912V225.379Z" fill="#80848A"/>
<path d="M53.7115 239.05C46.7646 239.05 41.0807 233.371 41.0807 226.491C41.0807 219.61 46.7646 213.872 53.7115 213.872C60.6585 213.872 66.2822 219.55 66.2822 226.491C66.2822 233.431 60.5983 239.05 53.7115 239.05ZM53.6514 218.679C49.3509 218.679 45.8924 222.164 45.8924 226.431C45.8924 230.697 49.381 234.182 53.6514 234.182C57.9218 234.182 61.4103 230.667 61.4103 226.431C61.4103 222.194 57.8917 218.679 53.6514 218.679ZM75.7854 233.641V256.176H70.7331V213.902H75.7854V220.331H79.6649V224.478H75.7854V229.525H79.6649V233.672H75.7854V233.641Z" fill="#80848A"/>
<path d="M109.166 223.997V213.872H114.219V256.145H109.166V228.113H104.655C103.843 234.303 98.5203 239.05 92.1447 239.05C85.1978 239.05 79.5741 233.371 79.5741 226.491C79.5741 219.61 85.1978 213.872 92.1447 213.872C98.2195 213.872 103.332 218.198 104.505 223.997H109.166ZM92.0846 218.679C87.8442 218.679 84.3256 222.164 84.3256 226.431C84.3256 230.697 87.8442 234.182 92.0846 234.182C96.3249 234.182 99.9037 230.667 99.9037 226.431C99.9037 222.194 96.3851 218.679 92.0846 218.679Z" fill="#80848A"/>
<path d="M142.007 219.851H147.06V213.872H152.112V256.145H147.06V233.161H142.007V230.246C140.413 235.354 135.632 239.14 129.948 239.14C123.061 239.14 117.377 233.461 117.377 226.521C117.377 219.58 123.061 213.962 129.948 213.962C135.632 213.962 140.474 217.747 142.007 222.855V219.851ZM129.918 218.679C125.677 218.679 122.159 222.164 122.159 226.431C122.159 230.697 125.677 234.182 129.918 234.182C134.158 234.182 137.737 230.667 137.737 226.431C137.737 222.194 134.218 218.679 129.918 218.679ZM147.06 229.045V223.997H142.308C142.458 224.808 142.549 225.679 142.549 226.551C142.549 227.422 142.458 228.293 142.338 229.045H147.06Z" fill="#80848A"/>
<path d="M189.131 253.201H156.922V249.055H170.515V240.793H175.567V249.055H189.1V253.201H189.131ZM185.973 225.68C185.973 232.771 180.199 238.599 173.041 238.599C165.884 238.599 160.11 232.771 160.11 225.68C160.11 218.589 165.944 212.76 173.041 212.76C180.139 212.76 185.973 218.529 185.973 225.68ZM173.132 233.852C177.673 233.852 181.251 230.187 181.251 225.62C181.251 221.053 177.582 217.508 173.011 217.508C168.44 217.508 164.831 221.173 164.831 225.74C164.831 230.307 168.56 233.852 173.101 233.852H173.132Z" fill="#80848A"/>
<path d="M194.816 253.201V249.055H202.184V240.793H207.236V249.055H214.604V240.793H219.657V249.055H227.025V253.201H194.816ZM210.905 238.659C203.748 238.659 197.884 232.831 197.884 225.68C197.884 218.529 203.778 212.67 210.905 212.67C218.033 212.67 223.927 218.499 223.927 225.68C223.927 232.861 218.033 238.659 210.905 238.659ZM210.815 217.447C206.304 217.447 202.635 221.113 202.635 225.62C202.635 230.126 206.304 233.792 210.815 233.792C215.326 233.792 218.995 230.126 218.995 225.62C218.995 221.113 215.326 217.447 210.815 217.447Z" fill="#80848A"/>
<path d="M251.354 243.227V256.086H246.302V243.227H231.776V239.08H265.82V243.227H251.354ZM248.798 236.917C242.152 236.917 236.799 231.509 236.799 224.899C236.799 218.289 242.182 212.911 248.798 212.911C255.414 212.911 260.827 218.289 260.827 224.899C260.827 231.509 255.444 236.917 248.798 236.917ZM248.798 217.598C244.798 217.598 241.55 220.873 241.55 224.839C241.55 228.805 244.828 232.08 248.798 232.08C252.768 232.08 256.046 228.805 256.046 224.839C256.046 220.873 252.768 217.598 248.798 217.598Z" fill="#80848A"/>
<path d="M283.442 243.227V256.086H278.39V243.227H269.638V239.08H303.681V243.227H294.93V256.086H289.878V243.227H283.442ZM298.629 224.869C298.629 231.509 293.306 236.827 286.66 236.827C280.014 236.827 274.691 231.509 274.691 224.869C274.691 218.229 280.014 212.911 286.66 212.911C293.306 212.911 298.629 218.229 298.629 224.869ZM286.66 232.11C290.66 232.11 293.878 228.895 293.878 224.899C293.878 220.903 290.66 217.688 286.66 217.688C282.66 217.688 279.442 220.903 279.442 224.899C279.442 228.895 282.66 232.11 286.66 232.11Z" fill="#80848A"/>
<path d="M340.672 253.201H308.464V249.055H340.672V253.201ZM337.484 225.68C337.484 232.771 331.71 238.599 324.553 238.599C317.395 238.599 311.621 232.771 311.621 225.68C311.621 218.589 317.456 212.76 324.553 212.76C331.65 212.76 337.484 218.529 337.484 225.68ZM324.673 233.852C329.214 233.852 332.793 230.187 332.793 225.62C332.793 221.053 329.124 217.508 324.553 217.508C319.982 217.508 316.373 221.173 316.373 225.74C316.373 230.307 320.102 233.852 324.643 233.852H324.673Z" fill="#80848A"/>
<path d="M369.962 226.491C369.962 233.371 364.278 239.05 357.331 239.05C350.384 239.05 344.76 233.371 344.76 226.491C344.76 219.61 350.384 213.872 357.331 213.872C364.278 213.872 369.962 219.55 369.962 226.491ZM357.331 234.212C361.631 234.212 365.09 230.637 365.09 226.401C365.09 222.164 361.511 218.679 357.271 218.679C353.03 218.679 349.512 222.194 349.512 226.491C349.512 230.787 353.091 234.212 357.331 234.212ZM374.352 256.176V213.902H379.405V256.176H374.352Z" fill="#80848A"/>
<path d="M5.38325 297.037V292.891H18.9764V289.406H6.31553V274.023H36.6896V278.169H11.3679V285.26H36.6596V289.406H24.0287V292.891H37.5618V297.037H5.38325ZM21.5026 318.189C16.0894 318.189 11.6385 313.803 11.6385 308.334C11.6385 302.866 16.0894 298.479 21.5026 298.479C26.9158 298.479 31.3667 302.926 31.3667 308.334C31.3667 313.743 26.9158 318.189 21.5026 318.189ZM21.5026 303.016C18.5855 303.016 16.2397 305.42 16.2397 308.274C16.2397 311.129 18.5855 313.592 21.5026 313.592C24.4197 313.592 26.8256 311.189 26.8256 308.274C26.8256 305.36 24.4197 303.016 21.5026 303.016Z" fill="#80848A"/>
<path d="M41.6522 279.881V275.735H49.772V272.52H54.7943V275.735H62.884V279.881H58.5234C61.4405 281.834 63.3953 285.199 63.3953 289.015C63.3953 295.084 58.4332 300.102 52.2982 300.102C46.1632 300.102 41.2011 295.084 41.2011 289.015C41.2011 285.199 43.1559 281.804 46.0429 279.881H41.6522ZM52.2681 282.135C48.5992 282.135 45.5618 285.139 45.5618 288.835C45.5618 292.53 48.5691 295.535 52.2681 295.535C55.9671 295.535 58.9745 292.53 58.9745 288.835C58.9745 285.139 55.9671 282.135 52.2681 282.135ZM72.2068 316.206V284.478H69.7107V316.206H64.8689V273.902H69.7107V280.332H72.2068V273.902H77.0787V316.206H72.2068Z" fill="#80848A"/>
<path d="M111.122 298.329V309.356H88.5672V312.12H111.122V316.266H83.5148V305.24H106.07V302.475H83.5148V298.329H94.8224V295.114H80.7782V290.968H113.889V295.114H99.8747V298.329H111.122ZM83.0637 287.964V273.962H111.603V287.964H83.0637ZM88.1161 278.109V283.817H106.521V278.109H88.1161Z" fill="#80848A"/>
<path d="M144.953 300.162V273.962H150.006V280.392H153.885V284.538H150.006V316.266H144.953V304.308H119.18V300.162H125.105V287.753H130.157V300.162H136.142V278.109H119.18V273.962H141.224V300.162H144.953Z" fill="#80848A"/>
<path d="M177.222 273.962V279.941H184.59V273.962H189.643V296.677H172.17V273.962H177.222ZM184.59 292.56V284.088H177.222V292.56H184.59ZM177.704 304.038V299.892H204.86V316.236H199.808V304.038H177.704ZM199.928 273.962H204.83V296.677H199.928V284.058H197.943V296.677H193.041V273.962H197.943V279.941H199.928V273.962Z" fill="#80848A"/>
<path d="M228.918 304.308V316.266H223.866V304.308H210.273V300.162H242.481V304.308H228.918ZM241.068 273.962V278.109H216.678V290.067H241.068V294.213H211.626V273.992H241.068V273.962Z" fill="#80848A"/>
<path d="M269.337 297.368L259.413 281.173L249.549 297.368L245.609 295.024L259.413 272.55L273.156 295.024L269.307 297.368H269.337ZM258.962 300.583V312.09H281.035V316.236H253.879V300.613H258.932L258.962 300.583ZM280.584 304.248H275.532V273.902H280.584V279.431H284.524V283.577H280.584V304.248Z" fill="#80848A"/>
<path d="M309.636 286.581C309.636 293.462 303.952 299.14 297.005 299.14C290.058 299.14 284.434 293.462 284.434 286.581C284.434 279.701 290.058 273.962 297.005 273.962C303.952 273.962 309.636 279.641 309.636 286.581ZM297.005 294.303C301.305 294.303 304.764 290.728 304.764 286.491C304.764 282.255 301.185 278.77 296.945 278.77C292.704 278.77 289.186 282.285 289.186 286.581C289.186 290.878 292.765 294.303 297.005 294.303ZM314.026 316.266V273.992H319.079V316.266H314.026Z" fill="#80848A"/>
<path d="M360.759 301.544H339.136V273.962H360.759V301.544ZM355.707 297.398V278.079H344.188V297.398H355.707ZM370.412 273.962V280.392H374.352V284.538H370.412V316.266H365.36V273.992H370.412V273.962Z" fill="#80848A"/>
<path d="M408.847 313.352H377.571V309.206H408.847V313.352ZM378.954 284.599H402.411L402.471 277.959H379.014V273.813H407.554L407.494 288.715H384.036V295.415H407.494V299.562H378.984V284.599H378.954Z" fill="#80848A"/>
<path d="M444.275 273.813V309.206H446.11V313.352H416.217V309.176H424.968V291.299H430.02V309.236H439.223V277.989H416.217V273.843H444.275V273.813Z" fill="#80848A"/>
<path d="M499.458 283.667V294.694H494.405V293.312H468.181V273.992H489.353V278.139H473.264V289.165H494.436V273.992H499.488V279.521H503.427V283.667H499.458ZM471.85 316.296V304.609H479.94V301.123H471.85V296.977H484.541V308.665H476.452V312.15H484.541V316.296H471.85ZM486.105 303.497V299.351H490.255V296.286H495.308V299.351H499.458V303.497H496.45C498.706 304.729 500.24 307.133 500.24 309.867C500.24 313.893 496.932 317.228 492.872 317.228C488.812 317.228 485.504 313.893 485.504 309.867C485.504 307.102 486.977 304.699 489.233 303.497H486.105ZM492.842 306.712C491.158 306.712 489.774 308.094 489.774 309.716C489.774 311.339 491.158 312.781 492.842 312.781C494.526 312.781 495.849 311.399 495.849 309.716C495.849 308.034 494.466 306.712 492.842 306.712Z" fill="#80848A"/>
<path d="M519.789 298.18H508.481V273.813H536.088V277.959H513.533V294.033H536.088V298.18H524.841V309.206H537.472V313.352H507.098V309.206H519.759V298.18H519.789Z" fill="#80848A"/>
<path d="M545.472 292.35V281.053H569.861V278.079H545.472V273.932H574.914V285.169H550.524V288.174H574.914V292.32H562.764V295.295H576.778V299.441H543.667V295.295H557.712V292.32H545.502L545.472 292.35ZM574.914 316.236H569.861V306.321H545.923V302.175H574.914V316.236Z" fill="#80848A"/>
<path d="M4.12041 339.942V335.796H14.1048V332.581H19.127V335.796H29.4422V339.942H23.0967C26.1642 342.045 28.149 345.561 28.149 349.557C28.149 355.926 22.9764 361.094 16.6009 361.094C10.2253 361.094 4.99253 355.926 4.99253 349.557C4.99253 345.561 6.97738 342.045 10.0449 339.942H4.12041ZM16.6309 342.286C12.6913 342.286 9.56369 345.44 9.56369 349.376C9.56369 353.312 12.6913 356.437 16.6309 356.437C20.5705 356.437 23.638 353.282 23.638 349.376C23.638 345.47 20.5104 342.286 16.6309 342.286ZM37.7124 345.44V376.237H32.66V333.963H37.7124V341.324H41.5918V345.47H37.7124V345.44Z" fill="#80848A"/>
<path d="M74.9738 373.443H43.6974V369.297H74.9738V373.443ZM44.5996 333.903H49.652V355.506H74.0415V359.652H44.5996V333.903Z" fill="#80848A"/>
<path d="M82.041 354.033V334.053H87.0933V349.887H107.333V334.053H112.385V355.866H107.333V354.033H82.041ZM86.6422 358.15H112.415V376.327H86.6422V358.15ZM107.333 372.211V362.296H91.6946V372.211H107.333Z" fill="#80848A"/>
<path d="M142.608 346.672C142.608 353.553 136.924 359.231 129.977 359.231C123.03 359.231 117.407 353.553 117.407 346.672C117.407 339.792 123.03 334.053 129.977 334.053C136.924 334.053 142.608 339.732 142.608 346.672ZM129.977 354.394C134.278 354.394 137.736 350.818 137.736 346.582C137.736 342.346 134.157 338.86 129.917 338.86C125.677 338.86 122.158 342.376 122.158 346.672C122.158 350.969 125.737 354.394 129.977 354.394ZM146.999 376.357V334.083H152.051V376.357H146.999Z" fill="#80848A"/>
<path d="M202.603 333.903V358.721H190.935V369.297H204.438V373.443H172.349V369.297H185.882V358.721H174.063V333.903H179.116V341.265H197.521V333.903H202.603ZM197.551 354.575V345.381H179.146V354.575H197.551Z" fill="#80848A"/>
<path d="M228.799 363.408V376.267H223.747V363.408H209.221V359.262H243.265V363.408H228.799ZM226.243 357.098C219.597 357.098 214.244 351.69 214.244 345.08C214.244 338.47 219.627 333.092 226.243 333.092C232.859 333.092 238.272 338.47 238.272 345.08C238.272 351.69 232.889 357.098 226.243 357.098ZM226.243 337.779C222.243 337.779 218.995 341.054 218.995 345.02C218.995 348.986 222.273 352.261 226.243 352.261C230.213 352.261 233.491 348.986 233.491 345.02C233.491 341.054 230.213 337.779 226.243 337.779Z" fill="#80848A"/>
<path d="M258.451 359.231C251.504 359.231 245.821 353.553 245.821 346.672C245.821 339.792 251.504 334.053 258.451 334.053C265.398 334.053 271.022 339.732 271.022 346.672C271.022 353.613 265.338 359.231 258.451 359.231ZM258.391 338.86C254.091 338.86 250.632 342.346 250.632 346.612C250.632 350.879 254.121 354.364 258.391 354.364C262.662 354.364 266.15 350.848 266.15 346.612C266.15 342.376 262.632 338.86 258.391 338.86ZM280.525 345.561V376.357H275.473V334.083H280.525V341.444H284.405V345.591H280.525V345.561Z" fill="#80848A"/>
<path d="M307.471 362.056L297.697 342.857L287.833 362.056L283.803 359.952L297.697 332.671L311.561 359.952L307.471 362.056ZM318.417 333.993V340.423H322.297V344.569H318.417V376.297H313.365V333.993H318.417Z" fill="#80848A"/>
<path d="M357.845 363.408V376.267H352.792V363.408H338.267V359.262H372.31V363.408H357.845ZM355.288 357.098C348.642 357.098 343.289 351.69 343.289 345.08C343.289 338.47 348.672 333.092 355.288 333.092C361.904 333.092 367.318 338.47 367.318 345.08C367.318 351.69 361.935 357.098 355.288 357.098ZM355.288 337.779C351.289 337.779 348.041 341.054 348.041 345.02C348.041 348.986 351.319 352.261 355.288 352.261C359.258 352.261 362.536 348.986 362.536 345.02C362.536 341.054 359.258 337.779 355.288 337.779Z" fill="#80848A"/>
<path d="M403.736 376.357V361.635H377.512V344.178H392.699V338.199H377.512V334.053H397.751V348.295H382.564V357.488H403.736V334.053H408.788V376.327H403.736V376.357Z" fill="#80848A"/>
<path d="M415.253 361.635V334.053H420.306V357.488H440.545V334.053H445.598V340.483H449.537V344.629H445.598V376.357H440.545V361.635H415.253Z" fill="#80848A"/>
<path d="M467.85 345.561V338.199H452.663V334.053H472.902V349.677H457.715V357.488H478.887V334.053H483.939V340.483H487.879V344.629H483.939V376.357H478.887V361.635H452.663V345.561H467.85Z" fill="#80848A"/>
<path d="M526.916 357.488H506.225V334.053H526.916V357.488ZM515.849 361.184V372.211H537.472V376.357H510.797V361.184H515.849ZM521.834 353.372V338.199H511.248V353.372H521.834ZM537.021 339.551H540.9V343.698H537.021V364.369H531.968V334.023H537.021V339.551Z" fill="#80848A"/>
<path d="M564.747 361.124L560.506 362.957L552.627 344.479L544.808 362.927L540.628 360.974L552.627 332.641L564.747 361.154V361.124ZM564.897 334.023H569.649V376.327H564.897V346.462H559.995V342.316H564.897V334.023ZM577.919 333.993V376.297H573.167V333.993H577.919Z" fill="#80848A"/>
</svg>
