<svg width="1000" height="600" viewBox="0 0 1000 600" fill="none" xmlns="http://www.w3.org/2000/svg">
<rect width="1000" height="600" fill="#F7F7F2"/>
<path d="M745.097 290.245C747.99 281.091 749.216 271.829 751.863 262.653C754.113 254.351 756.933 246.161 758.818 237.799C757.975 236.052 757.635 234.011 755.927 232.764C751.403 230.341 756.979 229.127 759.466 229.712C762.839 230.153 766.252 230.138 769.645 230.057C771.058 230.255 779.507 228.501 777.252 231.365C774.199 234.141 769.845 235.396 767.128 238.46C765.367 243.056 764.007 247.857 762.456 252.539C757.211 273.018 752.037 293.591 747.243 314.166C744.839 319.601 738.815 317.322 736.87 312.67C733.855 305.023 730.613 297.413 728.845 289.34C724.955 276.483 721.408 263.507 717.621 250.64C713.782 261.728 711.678 273.213 707.873 284.278C705.845 290.995 703.678 297.738 702.818 304.724C701.768 307.674 703.605 310.455 705.62 312.493C710.888 317.585 704.16 315.395 701.006 315.104C694.543 314.66 688.09 314.014 681.626 313.968C675.067 314.559 682.656 310.688 684.331 309.355C687.487 307.461 690.33 305.081 693.514 303.248C697.162 299.347 697.858 291.872 699.533 286.764C702.765 274.364 705.641 261.74 709.092 249.616C709.465 246.607 713.335 242.851 710.161 240.486C708.665 238.415 697.242 231.971 702.833 230.25C709.172 229.685 715.507 230.993 721.859 231.104C723.545 231.525 726.771 230.105 727.263 232.306C729.299 234.199 729.41 239.867 730.636 242.678C735.777 258.412 738.817 274.914 745.094 290.245H745.097ZM726.214 274.062C725.515 272.351 727.42 272.371 728.335 271.601C731.017 269.72 733.353 267.573 736.189 265.892C735.997 265.34 735.772 264.693 735.548 264.047C731.897 266.12 728.863 269.327 725.139 271.264C724.576 269.702 726.428 269.674 727.258 268.861C730.293 267.314 732.157 264.506 735.339 263.2C735.18 262.645 734.955 261.857 734.698 260.957C732.301 262.939 729.758 264.534 727.293 266.409C726.209 267.038 725.48 268.559 724.067 268.191C725.283 266.085 728.643 265.089 730.459 263.21C731.928 262.554 732.876 260.242 734.549 260.539C734.582 258.668 733.744 256.947 733.416 255.122C733.179 254.204 732.543 254.863 732.051 255.205C730.747 255.702 722.399 263.586 722.462 261.289C722.768 260.222 724.145 260.049 724.899 259.378C727.372 257.215 730.997 255.687 732.818 253.084C732.652 252.534 732.558 250.807 731.658 251.548C729.892 253.55 721.249 258.384 721.453 260.333C723.542 267.804 726.088 275.208 727.876 282.752C732.074 280.853 735.104 277.555 738.691 274.926C738.31 272.871 737.503 270.612 736.86 268.572C736.953 264.541 727.901 273.568 726.214 274.067V274.062ZM720.179 252.161C717.498 250.863 724.877 247.829 725.802 246.752C727.031 245.545 729.349 244.61 729.793 242.965C729.153 240.415 728.474 237.986 727.8 235.393C724.309 237.276 721.418 240.067 718.219 242.402C715.608 245.068 710.928 246.222 710.295 250.318C715.156 246.807 719.824 243.254 724.458 239.469C725.573 238.853 726.597 237.307 727.957 237.674C726.244 239.951 722.992 241.107 720.928 243.294C717.137 247.307 710.043 249.233 708.993 255.172C711.645 253.292 715 251.52 716.718 248.658C721.04 246.79 724.909 243.652 728.857 240.96C728.323 243.634 721.665 246.318 719.344 248.453C718.042 249.69 720.467 256.47 721.065 258.313C724.753 255.613 728.32 253.003 731.862 250.409C731.587 249.53 731.36 248.81 731.098 247.968C729.549 248.141 719.644 258.278 720.585 254.683C723.676 252.024 727.167 249.743 730.404 247.233C731.191 246.435 730.212 245.439 730.076 244.204C726.963 247.34 723.035 249.033 720.182 252.161H720.179ZM731.625 287.545C734.698 285.763 737.256 283.798 740.099 281.765C741.103 280.257 739.877 278.838 738.424 280.417C736.267 281.449 730.545 286.754 728.895 286.278C731.022 291.847 731.496 297.722 734.36 302.873C737.15 299.535 752.874 292.774 752.213 288.767C750.911 289.88 745.457 291.568 746.416 293.411C746.651 294.072 746.088 294.597 745.402 294.498C741.83 294.675 737.46 300.427 734.012 301.005C733.8 299.34 742.743 295.104 744.66 293.081C743.876 291.996 743.56 287.431 741.888 289.142C740.452 289.623 732.223 297.048 732.074 294.777C734.072 293.01 736.713 291.694 738.86 289.978C740.533 288.503 743.444 287.938 741.925 285.251C740.967 285.568 729.508 295.537 731.794 291.421C735.046 289.456 738.013 287.099 740.972 284.716C741.968 283.88 741.012 281.722 739.985 283.274C738.315 283.634 732.119 290.103 731.627 287.545H731.625ZM735.296 306.113C738.212 312.609 743.913 322.729 746.777 309.732C745.664 309.94 739.738 315.667 740.026 313.271C741.353 312.064 743.098 311.236 744.572 310.179C745.326 309.689 745.74 308.516 746.971 308.962C747.546 308.26 747.493 306.995 747.826 306.103C744.875 306.901 742.142 310.498 739.042 311.228C738.593 309.694 744.415 307.441 745.636 306.163C748.52 304.049 748.177 305.094 749.1 301.334C747.445 301.481 736.774 310.244 737.213 307.791C740.457 305.223 744.569 303.416 747.819 300.637C748.245 300.333 749.171 300.528 749.481 300.029C749.65 298.845 750.42 297.438 750.187 296.341C745.286 299.555 740.386 302.769 735.291 306.11L735.296 306.113ZM703.075 298.315C700.232 299.986 697.807 302.392 695.02 304.153C691.927 304.417 689.414 307.058 686.808 308.655C685.239 310.105 682.252 311.109 681.43 312.827C690.66 313.18 689.634 313.187 697.323 308.128C699.422 306.412 702.114 305.355 702.02 302.234C698.09 304.777 694.359 307.451 690.474 310.047C689.094 310.711 688.004 312.627 686.362 312.199C686.563 311.185 687.419 310.947 688.208 310.503C690.517 309.015 692.838 307.547 695.108 306.004C697.739 303.618 702.833 302.234 703.072 298.313L703.075 298.315ZM757.622 246.726C759.529 246.665 761.394 244.389 763.381 243.946C765.248 243.063 764.862 240.927 765.801 239.139C763.853 240.014 762.075 240.79 760.485 241.951C759.509 242.759 759.073 241.474 759.875 240.916C765.748 238.493 770.428 235.01 775.559 231.129C774.888 230.818 774.204 230.437 774.06 231.081C773.901 231.804 773.42 231.903 772.981 232.138C770.493 233.079 768.207 234.493 765.851 235.723C758.568 239.55 759.383 238.833 757.622 246.726ZM749.375 277.897C751.504 277.416 753.601 275.951 755.715 275.127C756.182 274.295 756.194 273.233 756.56 272.065C754.443 273.076 752.887 274.916 750.659 275.383C750.377 273.89 752.228 273.933 753.121 273.21C754.257 271.989 757.627 271.307 756.789 269.433C755.667 269.748 751.487 273.342 751.096 271.918C752.276 269.7 758.091 269.266 757.551 266.229C756.444 266.549 752.496 270.417 752.155 268.592C753.676 266.807 758.142 266.227 758.432 263.555C756.82 264.412 755.165 264.959 753.699 265.895C753.179 266.425 752.766 266.526 752.1 265.727C751.156 269.938 750.266 273.923 749.375 277.9V277.897ZM696.1 302.011C698.463 301.428 700.557 298.531 702.772 297.119C703.539 296.495 703.817 295.644 703.539 294.734C702.361 295.16 698.224 300.082 697.664 298.356C699.329 296.463 702.033 295.198 703.986 293.428C704.753 292.625 704.715 291.319 705.174 290.227C703.257 291.117 702.081 293.215 700.164 294.168C699.238 293.162 700.827 292.48 701.506 291.943C702.845 291.058 703.648 289.446 705.366 289.068C705.916 288.384 705.792 287.388 706.125 286.354C704.011 287.705 702.424 289.859 700.237 290.49C699.629 290.257 699.611 290.536 699.505 291.018C698.617 294.751 697.242 298.354 696.097 302.011H696.1ZM706.15 264.442C708.59 263.821 710.666 260.602 712.909 259.051C714.49 257.241 714.165 258.361 714.879 255.897C713.446 255.935 708.958 261.847 708.055 260.328C709.634 258.146 712.397 256.577 714.485 254.752C715.8 253.824 715.709 252.445 716.15 251.193C713.751 252.422 711.824 254.521 709.632 256.105C706.983 257.875 707.258 261.679 706.15 264.442ZM753.972 281.867C752.286 282.714 751.103 284.032 749.521 284.749C747.483 283.71 753.623 281.233 754.37 280.348C754.408 280.402 754.448 280.458 754.486 280.511C754.539 280.1 754.595 279.687 754.665 279.137C753.162 279.21 749.88 283.129 749.204 281.426C750.129 279.542 756.26 278.579 755.2 276.072C747.594 279.469 748.888 280.376 747.221 288.057C749.685 285.882 754.014 285.611 753.969 281.864L753.972 281.867ZM709.122 276.967C706.97 277.441 705.535 280.006 703.322 280.478C703.118 278.569 707.734 277.043 709.122 275.659C708.981 275.411 708.877 275.231 708.736 274.985C710.217 274.802 709.685 273.568 710.174 272.706C707.729 273.743 705.772 275.776 703.595 277.317C701.894 279.198 702.091 281.951 701.349 284.392C703.41 283.231 704.954 281.727 706.899 280.437C708.332 279.626 708.855 278.577 709.122 276.964V276.967ZM711.148 268.252C709.896 268.901 705.595 273.456 704.717 272.359C704.384 271.829 704.821 271.715 705.116 271.535C707.384 270.29 709.261 268.541 711.198 266.883C712.412 266.412 712.243 265.253 712.646 264.163C710.971 264.468 706.004 270.376 705.333 267.981C704.634 270.807 704.001 273.375 703.368 275.943C706.392 274.105 710.855 272.278 711.148 268.252ZM711.632 246.085C716.63 242.774 721.219 238.79 726.065 235.228C726.869 234.61 727.099 233.782 726.756 232.744C722.949 236.1 712.674 241.477 711.632 246.088V246.085ZM751.262 292.708C745.737 295.654 740.281 300.194 734.665 303.745C734.897 304.404 735.011 305.167 735.883 304.592C737.909 303.304 739.925 301.999 741.93 300.68C744.627 298.909 747.261 297.035 750.023 295.375C751.209 294.663 750.964 293.641 751.26 292.711L751.262 292.708ZM738.989 275.867C735.798 278.331 732.705 280.802 729.397 283.071C727.793 283.829 728.398 284.333 728.837 285.847C731.824 283.71 734.72 281.765 737.735 279.72C739.109 278.792 739.528 277.507 738.991 275.864L738.989 275.867ZM716.945 232.275C713.602 230.577 711.246 235.654 708.378 236.655C707.255 235.477 712.149 233.221 713.032 232.176C710.015 230.747 708.453 233.88 706.125 235.271C707.303 236.275 708.332 237.152 709.354 238.024C711.9 236.095 714.42 234.184 716.943 232.275H716.945ZM725.293 232.797C723.282 231.74 721.246 233.238 719.725 234.627C718.532 236.199 710.373 239.984 713.116 241.763C717.17 238.78 721.231 235.788 725.293 232.797ZM710.007 238.66C710.805 239.69 711.693 239.842 712.608 238.972C715.5 236.851 718.388 234.721 721.405 232.501C720.146 232.161 719.231 231.814 718.002 232.47C715.424 234.572 712.75 236.554 710.007 238.66ZM708.085 281.094C705.802 281.641 703.678 284.371 701.491 285.682C700.194 286.468 700.509 288.115 699.98 289.542C703.506 287.616 707.144 285.086 708.088 281.094H708.085ZM694.914 313.568C695.756 311.514 703.4 308.688 701.072 306.995C700.164 305.885 692.964 312.376 691.067 313.073C692.058 313.644 693.796 313.324 694.914 313.57V313.568ZM759.65 236.63C760.089 237.048 760.099 237.887 760.864 237.517C764.814 235.553 768.677 233.408 772.547 231.289C772.532 231.218 772.516 231.147 772.501 231.076C770.639 231.218 768.626 230.468 767.819 232.141C765.094 233.697 762.082 234.582 759.65 236.63ZM702.005 308.969C699.934 310.478 697.901 311.955 695.87 313.436C697.106 314.138 699.235 313.443 700.769 313.715C702.351 313.77 703.852 314.64 705.784 314.267C704.838 313.2 704.044 312.3 703.209 311.36C701.904 312.009 700.905 313.225 699.425 313.149C699.962 311.294 704.415 311.096 702.005 308.972V308.969ZM760.871 254.12C755.601 257.101 754.393 255.641 753.243 262.169C754.809 260.99 760.304 259.215 759.789 257.284C758.084 257.705 756.623 259.598 754.945 259.583C753.656 257.515 761.131 257.753 760.871 254.123V254.12ZM758.994 235.824C761.785 234.311 764.507 232.833 767.229 231.355C767.208 231.276 767.186 231.198 767.166 231.119C765.041 230.665 756.719 232.759 758.992 235.824H758.994ZM713.438 260.022C711.385 261.687 709.309 263.157 707.568 265.061C707.162 265.834 706.637 265.991 705.85 265.885C705.689 266.541 705.537 267.155 705.323 268.016C707.162 266.627 708.759 265.471 710.61 264.179C712.482 263.335 713.29 262.643 713.438 260.022ZM759.31 259.918C757.15 261.684 752.155 262.364 752.38 265.517C754.294 264.323 756.421 263.522 758.391 262.422C759.461 262.016 759.055 260.99 759.31 259.918ZM762.786 247.908C760.606 249.292 755.889 250.047 755.889 253.008C758.18 251.312 761.956 251.21 762.786 247.908ZM763.78 244.805C761.79 246.217 756.8 247.142 756.706 249.735C758.745 249.127 760.601 247.687 762.604 246.856C763.432 246.458 763.523 245.778 763.778 244.805H763.78ZM755.299 255.913C757.158 255.043 758.906 253.875 760.659 253.139C761.502 253.383 761.626 251.717 761.497 251.248C759.812 252.635 754.88 252.952 755.299 255.913ZM746.532 290.589C747.798 290.414 748.225 289.276 749.539 289.284C750.886 288.077 753.298 288.098 753.056 285.715C750.697 286.232 748.086 289.689 746.792 288.972C746.703 289.522 746.628 289.988 746.532 290.589ZM704.735 234.062C705.752 235.641 707.916 232.323 709.109 231.819C707.439 230.506 705.853 233.117 704.735 234.062ZM761.441 231.314C760.266 230.366 757.751 231.657 757.39 232.998C758.866 233.494 760.145 231.859 761.441 231.314ZM703.844 233.284C704.591 232.726 705.353 232.159 706.112 231.591C705.252 230.856 703.577 231.707 702.53 231.968C703.022 232.46 703.458 232.899 703.842 233.284H703.844ZM755.526 231.213C756.358 232.184 757.577 231.925 758.323 230.638C757.337 230.84 756.474 231.018 755.526 231.213Z" fill="#F9D445"/>
<path d="M810.703 302.83C808.271 297.57 814.104 293.332 817.868 290.627C814.021 288.531 808.579 287.479 807.969 282.141C804.664 274.179 808.062 267.472 812.305 260.749C818.963 250.338 833.499 248.288 844.072 252.584C844.12 252.554 844.382 252.706 844.397 252.797C844.594 254.126 845.954 254.257 846.675 255.041C846.769 255.142 847.044 255.208 847.147 255.145C850.755 254.521 854.614 255.107 858.325 254.627C859.226 254.658 860.505 253.963 861.222 254.622C860.83 257.084 856.678 258.404 854.887 260.082C853.356 261.347 850.081 261.819 850.876 264.318C851.701 273.418 846.648 282.366 839.66 287.864C834.094 291.213 826.019 288.838 821.46 293.882C818.362 301.801 838.542 303.16 839.024 312.366C840.477 320.549 832.689 325.565 826.594 329.035C819.477 331.923 810.676 331.507 803.632 328.579C798.365 326.483 796.414 318.777 798.362 313.684C800.403 308.062 805.953 305.687 810.706 302.833L810.703 302.83ZM803.932 327.53C805.897 328.848 807.933 328.389 809.899 327.385C811.251 326.759 813.037 326.66 814.162 325.763C810.544 325.383 807.227 326.432 803.92 327.54C803.889 327.263 803.859 326.99 803.816 326.602C805.302 325.988 807.636 326.044 808.665 325.058C806.402 323.04 802.439 326.65 802.333 324.627C803.622 324.31 804.919 323.991 806.331 323.644C804.646 321.36 802.406 323.492 800.325 323.862C801.036 325.778 802.118 327.03 803.935 327.525L803.932 327.53ZM840.777 263.175C839.528 243.043 817.444 262.311 818.403 273.509C817.389 278.924 821.362 284.67 827.046 284.364C836.953 283.575 840.454 271.662 840.777 263.175ZM815.08 324.539C818.574 324.244 821.057 323.9 824.059 322.513C827.729 320.635 829.717 314.863 826.645 311.649C824.283 309.411 820.933 308.675 818.014 307.418C811.599 305.251 803.044 311.697 803.879 318.63C804.371 320.985 806.932 322.024 808.561 323.54C810.398 324.615 813.362 324.247 815.083 324.539H815.08ZM828.269 311.687C828.711 312.465 828.771 313.474 829.798 313.127C831.773 312.688 833.779 311.694 835.769 311.58C836.584 313.167 830.82 313.563 829.72 314.239C828.981 314.648 829.667 315.765 829.609 316.468C832.386 315.679 835.114 314.906 837.823 314.135C837.919 311.122 835.459 307.327 832.835 306.272C831.09 308.082 828.38 308.29 826.143 309.537C827.101 310.191 827.51 311.119 828.708 310.579C830.842 309.935 832.936 309.299 835.048 308.528C836.38 310.237 829.417 310.782 828.269 311.689V311.687ZM816.935 276.599C814.73 277.887 812.235 278.602 810.396 280.293C810.196 280.419 809.805 280.496 809.646 280.384C808.297 279 815.713 276.549 816.773 275.497C817.273 274.861 816.927 273.966 817.02 273.101C814.091 274.863 811.447 276.812 808.266 278.25C808.66 280.673 809.21 283.162 810.925 285.053C813.461 283.715 815.847 282.452 818.226 281.195C817.84 279.651 817.669 279.565 816.427 280.265C814.614 281.205 812.805 282.082 810.908 283.043C808.642 281.114 819.384 280.262 816.935 276.597V276.599ZM814.195 294.767L814.361 295.051C821.281 291.796 827.997 288.174 834.649 284.402C837.876 282.171 845.997 279.804 847.172 276.483C841.181 279.134 834.669 281.636 829.707 285.892C824.25 288.364 819.059 291.259 814.195 294.767ZM834.73 322.189C834.995 321.119 837.896 318.272 836.171 318.057C833.237 318.777 830.161 319.781 827.482 321.195C829.624 321.623 831.761 319.423 833.845 320.321C831.824 322.217 828.204 321.606 825.805 322.98C820.388 326.092 813.902 325.852 808.334 328.843C809.361 329.18 810.441 329.831 811.291 329.494C814.836 327.565 819.268 327.17 823.087 325.613C826.71 324.374 830.197 322.751 833.726 321.269C834.296 321.17 834.48 321.649 834.73 322.189ZM836.642 251.743C835.073 251.583 833.133 250.739 831.955 251.92C831.16 253.297 829.286 253.717 828.009 254.622C823.849 256.645 820.055 259.294 816.046 261.578C813.859 263.188 811.006 263.786 810.229 266.592C819.336 261.93 827.187 255.692 836.642 251.743ZM812.994 329.687C812.994 329.743 812.994 329.796 812.994 329.852C822.84 330.597 826.763 328.724 834.359 322.546C834.337 322.506 834.311 322.465 834.289 322.424C827.19 324.845 820.093 327.266 812.994 329.689V329.687ZM856.05 255.953C850.987 255.563 846.804 258.506 842.23 260.293C840.992 260.805 841.746 261.984 841.796 263.068C846.532 260.508 851.706 259.185 856.05 255.953ZM841.158 269.943C842.505 270.209 849.1 265.826 848.921 268.019C846.506 269.788 839.934 269.456 840.295 273.575C843.514 272.653 846.408 271.018 849.569 269.294C849.445 268.407 850.27 266.564 849.584 265.697C846.88 266.655 844.163 267.578 841.506 268.663C841.466 268.584 841.428 268.506 841.388 268.43C841.312 268.921 841.239 269.411 841.158 269.943ZM831.541 251.586C830.073 252.055 828.489 251.193 827.053 252.478C823.514 255.345 818.668 256.318 815.431 259.71C815.227 259.53 815.037 259.365 814.757 259.117C813.968 260.194 813.196 261.246 812.426 262.298C819.134 259.218 825.121 255.043 831.541 251.583V251.586ZM820.078 283.418C819.546 282.64 819.379 281.578 818.272 282.29C814.023 284.81 808.319 285.689 816.284 288.219C818.847 288.027 820.817 285.994 823.463 285.246C822.366 284.866 821.627 284.222 820.709 284.181C818.711 284.932 816.665 287.335 814.598 287.089C814.53 285.395 818.756 284.485 820.078 283.416V283.418ZM856.978 255.905C857.929 257.583 852.914 258.44 851.726 259.35C849.486 260.906 840.255 262.698 841.791 265.857C847.922 263.074 853.52 260.133 859.012 255.905H856.978ZM822.85 260.285C818.577 262.361 814.467 265.854 809.929 267.801C809.873 267.722 809.82 267.646 809.765 267.568C809.331 268.45 808.9 269.335 808.466 270.217C811.483 268.825 814.545 267.337 817.336 265.446C818.067 264.894 818.915 264.232 819.959 264.536C820.931 263.109 821.892 261.697 822.853 260.283L822.85 260.285ZM821.513 299.433C820.133 297.015 815.302 301.38 813.168 301.963C812.189 302.199 812.532 303.365 811.894 303.892C808.637 305.502 805.509 307.307 802.545 309.418C802.628 309.558 802.714 309.694 802.797 309.834C809 306.386 815.204 302.939 821.513 299.433ZM828.226 288.914C828.267 289.046 828.307 289.177 828.35 289.309C830.179 289.644 846.9 281.667 845.321 279.621C839.624 282.719 833.925 285.816 828.229 288.911L828.226 288.914ZM817.79 269.332C814.81 270.99 811.483 273.028 808.274 274.645C807.575 274.81 807.754 277.771 808.612 277.137C811.084 275.945 813.355 274.399 815.668 272.927C817.209 272.242 817.575 270.942 817.79 269.335V269.332ZM823.668 301.418C822.951 300.934 822.608 299.857 821.274 300.701C817.366 303.084 813.14 304.949 809.278 307.436C814.265 306.255 819.379 304.531 823.668 301.418ZM807.901 273.788C811.019 272.204 813.713 270.85 816.491 268.901C818.325 268.278 818.753 267.408 819.432 265.517C816.329 266.835 813.574 268.683 810.618 270.293C809.896 271.132 809.248 271.347 808.228 270.843C808.14 271.646 808.037 272.569 807.901 273.788ZM803.877 321.821C802.721 318.07 800.077 322.026 799.313 320.561C799.868 319.542 801.596 319.585 802.575 319.116C802.497 318.265 802.429 317.499 802.373 316.873C798.395 317.684 797.706 318.838 799.55 322.653C800.796 323.365 802.474 322.014 803.877 321.824V321.821ZM848.482 273.631C845.891 274.214 843.88 275.507 841.483 276.483C838.769 277.824 838.121 276.98 836.637 280.207C839.046 279.588 841.314 278.047 843.656 277.071C844.96 276.549 845.989 274.754 847.467 275.885C847.79 275.165 848.111 274.452 848.482 273.631ZM819.371 296.326C816.793 297.251 814.195 298.075 811.897 299.603C811.339 299.93 811.256 300.47 811.579 300.975C812.53 302.072 814.008 300.407 815.068 300.123C816.296 299.081 820.968 298.495 819.371 296.326ZM832.106 305.953C829.276 303.692 826.145 306.975 823.337 308.032C826.254 310.848 829.253 307.033 832.106 305.953ZM837.836 315.279C834.874 316.239 829.157 315.844 828.501 319.616C830.691 319.722 835.936 315.692 837.331 317.454C837.515 316.665 837.664 316.019 837.836 315.279ZM848.711 272.84C848.913 272.075 849.079 271.439 849.307 270.572C846.07 271.946 843.423 273.395 840.245 274.554C839.218 274.871 839.173 275.601 838.777 276.463C841.549 275.745 843.714 274.445 846.309 273.421C847.046 273.124 847.644 272.229 848.709 272.84H848.711ZM818.123 288.899C818.171 289.061 818.221 289.221 818.269 289.383C821.763 289.76 824.737 287.291 827.742 285.831C826.132 286.039 824.959 285.023 823.526 286.131C821.861 287.218 819.727 287.621 818.12 288.899H818.123ZM808.597 307.821C807.593 308.323 805.996 309.497 804.687 309.892C803.322 310.333 802.524 312.024 800.819 311.593C800.34 312.483 799.863 313.37 799.305 314.407C803.385 313.525 806.099 310.858 808.597 307.824V307.821ZM820.161 306.782C821.463 307.147 822.245 308.181 823.426 307.261C825.308 306.07 826.93 305.261 829.069 304.31C828.204 303.847 827.558 303.502 826.915 303.157C826.932 303.271 826.95 303.383 826.968 303.497C824.755 304.564 822.54 305.631 820.161 306.779V306.782ZM826.324 302.853C825.54 302.417 824.831 302.021 824.142 301.641C822.722 303.887 819.556 304.227 817.391 305.852C820.363 307.507 823.36 303.753 826.324 302.853ZM841.489 259.76C843.91 258.64 846.229 257.565 848.547 256.493C848.131 256.417 847.735 256.435 847.389 256.577C846.34 257.241 846.007 255.763 844.995 256.047C843.164 257.091 840.063 256.947 841.491 259.76H841.489ZM811.871 298.191C814.036 297.877 816.67 296.07 819.038 295.357C819.843 295.015 819.828 294.245 820.002 293.494C818.395 293.286 814.182 297.829 813.877 295.035C813.153 296.176 812.512 297.182 811.874 298.191H811.871ZM849.405 263.35C846.759 264.779 843.154 264.886 841.425 267.568C844.044 267.215 846.928 265.565 849.624 264.777C849.554 264.326 849.486 263.877 849.402 263.347L849.405 263.35ZM839.733 255.226C840.199 255.875 840.404 256.84 841.211 256.848C842.321 256.255 843.842 256.062 844.607 255.02C842.979 253.337 841.496 254.453 839.735 255.226H839.733ZM798.687 317.231C801.119 316.592 803.09 316.579 803.317 313.705C801.329 314.741 798.697 314.29 798.687 317.231ZM833.91 288.354C837.046 288.303 839.907 286.843 841.819 284.158C839.188 285.555 836.557 286.949 833.91 288.354ZM817.209 256.889C817.247 256.959 817.285 257.03 817.326 257.101C819.942 255.74 822.558 254.376 825.174 253.015C822.643 252.113 819.346 255.304 817.209 256.889ZM842.313 253.238C840.356 252.052 839.122 253.281 837.238 254.044C839.271 255.421 840.383 254.229 842.313 253.238ZM839.223 252.475C837.397 251.996 836.085 252.625 834.844 253.631C835.492 253.712 836.39 253.925 836.705 253.591C837.49 252.851 838.189 253.025 839.223 252.475Z" fill="#F9D445"/>
<path d="M877.751 259.312C884.964 255.144 904.124 245.555 907.58 257.953C906.99 271.441 901.695 284.364 898.337 297.352C897.704 300.767 893.677 308.675 899.396 309.309C901.851 309.056 904.399 308.625 905.872 306.407C907.038 305.628 909.054 300.693 910.411 302.604C912.394 305.02 909.407 306.726 908.201 308.67C903.042 316.703 886.684 319.687 886.091 306.853C885.536 300.082 888.584 293.677 890.095 287.195C891.715 281.803 893.332 276.394 895.415 271.162C898.032 264.252 899.714 256.039 889.202 260.062C881.999 261.854 874.852 266.057 872.602 273.57C870.556 278.366 869.683 283.474 868.518 288.523C867.582 291.874 866.626 295.22 865.614 298.549C864.971 301.857 862.584 305.119 862.912 308.46C867.625 316.422 868.097 315.527 858.707 315.02C845.596 312.584 842.372 318.903 852.496 306.957C855.508 303.413 855.902 298.12 857.493 293.786C860.46 284.25 863.402 274.698 865.962 265.048C868.195 255.766 871.364 246.734 872.887 237.286C873.013 236.633 873.056 235.918 872.211 235.535C871.684 235.233 871.114 234.757 870.697 234.326C870.599 233.063 869.63 232.293 869.022 231.325C867.181 228.255 881.225 231.608 883.173 230.612C885.996 230.896 889.3 230.496 891.932 231.112C891.2 233.946 886.742 235.395 884.646 237.426C881.2 244.219 879.562 251.961 877.756 259.314L877.751 259.312ZM895.373 274.419C898.249 273.337 901.099 271.9 903.998 270.774C905.103 270.384 904.818 269.509 905.002 268.46C902.883 268.179 897.514 272.954 896.702 270.909C895.534 274.987 891.944 279.444 898.544 276.016C900.045 275.38 901.47 274.483 903.027 274.11C904.275 273.735 903.958 272.901 904.308 271.786C902.353 271.819 896.167 276.171 895.373 274.417V274.419ZM903.43 254.275C898.365 250.463 892.121 255.291 887.461 257.928C884.431 259.575 881.349 261.124 878.296 262.726C874.26 265.079 869.946 266.828 866.038 269.34C864.58 272.465 864.08 275.872 862.872 279.291C865.932 277.601 870.788 276.617 871.661 272.822C869.048 273.34 867.221 275.983 864.766 276.186C863.937 274.881 870.819 272.516 871.956 271.479C872.701 270.817 872.668 269.996 873.145 268.911C870.534 270.057 868.316 272.166 865.523 272.384C867.304 270.024 870.897 269.484 873.384 267.882C876.851 265.099 879.807 261.608 884.313 260.409C886.134 259.264 889.817 259.469 890.748 257.565C893.544 256.158 896.626 254.022 899.636 253.395C899.974 253.788 899.767 254.356 899.187 254.455C896.697 255.266 894.53 256.44 892.265 257.854C896.589 258.488 899.77 256.082 903.428 254.275H903.43ZM870.284 276.43C867.837 277.591 865.768 279.18 863.407 280.402C862.66 280.272 862.488 280.762 862.324 281.309C860.902 286.384 859.131 291.375 857.937 296.508C860.427 295.94 863.122 293.727 865.695 292.645C866.384 292.288 866.636 291.801 866.598 290.952C864.603 292.026 862.436 292.234 860.776 293.776C860.415 294.085 859.272 294.179 859.055 293.461C860.945 290.982 868.099 291.623 867.327 287.261C865.132 288.146 862.998 290.252 860.74 290.404C859.572 289.165 869.741 286.757 868.061 284.384C867.274 284.686 859.274 289.175 862.08 286.351C864.961 284.549 869.171 284.404 869.204 280.229C867.022 281.583 864.885 283.269 862.438 283.75C862.314 283.056 862.597 282.769 863.228 282.566C865.364 281.598 867.12 280.11 869.456 279.618C869.678 278.757 869.948 277.71 870.281 276.424L870.284 276.43ZM876.888 257.013C873.972 258.49 871.568 260.866 868.654 261.601C869.207 258.584 877.89 257.821 877.852 253.91C875.41 255.066 872.731 256.483 870.579 258.047C870.201 258.691 869.734 258.746 869.257 258.602C868.699 258.432 868.626 258.627 868.543 259.073C867.998 262.181 866.987 264.823 866.056 267.996C874.85 263.335 884.093 259.428 892.504 254.118C887.534 255.056 882.295 257.281 878.319 260.508C877.812 260.982 877.547 261.302 876.851 260.843C874.837 259.999 868.664 266.125 867.499 264.929C869.812 261.606 876.104 261.973 876.888 257.015V257.013ZM896.77 309.829C895.135 306.123 891.604 310.032 888.998 310.244C888.97 309.669 889.225 309.342 889.765 309.18C894.583 307.005 895.653 308.214 895.6 302.138C892.91 303.149 888.929 303.355 887.058 305.484C887.557 308.914 888.4 312.716 892.143 313.915C895.398 314.767 898.423 312.006 901.46 311.073C904.505 309.578 909.225 308.293 909.53 304.303C906.773 306.65 904.53 310.66 900.133 310.374C896.702 310.163 893.748 312.511 890.478 312.584C891.727 310.663 894.732 310.873 896.765 309.829H896.77ZM873.286 241.025C877.421 238.764 881.576 236.493 885.958 234.098C883.213 237.497 878.122 238.445 874.832 241.431C874.441 241.786 873.886 242.237 873.175 241.497C872.998 242.278 872.854 242.921 872.65 243.834C875.657 242.219 878.455 240.716 881.255 239.213C881.134 238.815 880.559 239.081 880.226 239.008C880.226 238.937 880.226 238.863 880.226 238.792C883.13 239.454 882.971 237.177 884.843 235.961C886.545 234.777 888.216 233.553 889.79 232.194C888.117 232.11 885.307 230.896 884.346 232.602C881.217 234.001 878.46 237.139 875.196 237.801C876.878 235.398 880.584 234.792 882.761 232.665C882.723 232.605 882.686 232.544 882.648 232.48C882.141 232.658 881.634 232.838 880.935 233.084C881.77 231.537 883.271 232.871 884.038 231.821C880.97 231.352 878.268 232.47 875.839 234.394C873.637 235.74 873.995 238.84 873.286 241.025ZM889.315 293.955C891.182 293.616 897.303 289.732 898.18 291C896.483 292.997 891.689 293.692 889.167 295.058C888.677 295.296 887.766 297.2 888.927 297.01C898.425 293.208 898.766 295.296 900.35 284.724C897.6 285.035 895.103 286.698 892.449 287.507C890.875 287.373 890.771 288.227 890.433 289.788C893.521 289.667 896.356 286.787 899.412 287.111C899.301 288.452 898.145 288.201 897.166 288.293C894.457 289.71 889.068 289.963 889.318 293.953L889.315 293.955ZM879.921 245.956C877.239 248.349 874.065 250.394 870.685 251.565C870.185 253.416 869.63 255.474 869.05 257.621C872.685 255.613 877.9 254.488 879.023 250.019C876.268 251.188 874.128 253.702 871.253 254.452C873.059 250.873 879.873 250.792 879.921 245.956ZM893.1 281.203C895.378 279.892 897.966 279.72 900.176 278.255C900.643 278.103 901.084 278.566 900.711 279.053C898.637 281.16 892.577 280.138 892.469 284.075C895.516 282.878 899.26 281.826 901.96 280.12C902.489 278.267 904.83 273.966 901.23 275.791C898.491 277.492 893.372 277.256 893.1 281.203ZM865.006 296.523C858.793 299.821 856.366 298.833 854.776 306.356C857.748 304.668 862.965 304.457 863.79 300.523C861.822 301.677 859.269 301.831 857.713 303.507C857.667 303.598 856.989 303.367 856.605 303.286C856.822 302.784 856.893 302.196 857.559 302.166C860.448 301.033 864.744 300.25 865.006 296.523ZM872.61 247.603C872.257 245.971 877.231 244.432 878.574 243.2C878.054 243.147 877.749 243.114 877.163 243.053C878.306 242.141 879.467 243.193 880.665 242.283C881.858 242.052 881.725 240.709 882.292 239.672C878.886 241.129 875.819 243.264 872.574 245.066C871.649 246.587 871.659 248.516 871.033 250.432C873.624 249.198 876.021 247.877 878.165 246.095C877.696 246.146 877.224 246.196 876.755 246.247C876.724 246.158 876.694 246.07 876.664 245.981C878.801 244.693 880.708 246.807 880.927 242.982C878.611 244.417 876.278 245.279 874.315 246.939C873.823 247.542 873.387 247.798 872.61 247.601V247.603ZM898.594 264.24C900.486 262.873 907.04 261.928 906.336 259.375C903.831 260.087 901.677 260.977 899.422 262.229C898.715 260.556 904.51 259.251 905.759 258.331C906.465 258.037 906.329 257.591 906.183 257.203C905.973 256.653 905.635 256.97 905.355 257.233C903.496 257.826 901.657 258.632 899.835 259.37C897.749 260.133 898.806 262.49 898.592 264.24H898.594ZM850.48 311.187C850.5 311.266 850.518 311.347 850.538 311.426C854.012 309.841 857.582 308.48 861.091 306.98C862.06 306.336 862.148 304.982 862.524 303.933C859.968 305.033 857.572 305.854 855.294 307.337C854.499 307.884 854.418 307.963 853.984 307.038C852.804 308.437 851.643 309.813 850.483 311.19L850.48 311.187ZM887.121 303.791C890.188 302.825 893.14 301.895 896.109 300.959C896.359 300.057 896.631 299.071 896.977 297.826C894 299.651 886.551 300.212 887.121 303.791ZM848.878 312.967C853.359 313.943 855.473 312.351 859.348 310.594C861.043 310.009 860.932 309.575 860.682 308.029C858.008 308.68 851.557 313.073 849.572 311.91C849.337 312.267 849.143 312.566 848.881 312.969L848.878 312.967ZM887.552 300.516C890.322 299.92 893.057 298.141 895.822 297.157C897.012 296.982 897.507 296.85 897.782 295.193C894.515 294.746 891.641 297.132 888.579 298.039C887.671 298.485 887.797 299.644 887.552 300.518V300.516ZM898.271 265.271C898.125 265.963 897.966 266.721 897.797 267.525C900.678 266.795 903.059 264.926 906.049 264.262C907.699 259.302 900.663 264.916 898.269 265.271H898.271ZM901.465 282.014C898.256 281.509 895.625 284.478 892.593 285.152C892.529 284.792 892.484 284.531 892.441 284.272C892.378 284.267 892.315 284.262 892.252 284.255C891.977 285.038 891.702 285.821 891.394 286.693C894.21 286.174 896.637 285.167 899 283.956C899.54 283.679 900.09 283.043 900.88 283.765C901.069 283.2 901.236 282.703 901.465 282.014ZM905.774 265.367C903.266 266.622 897.045 267.479 896.922 270.663C899.207 269.94 901.334 268.64 903.569 267.72C904.871 267.276 905.562 267.089 905.774 265.365V265.367ZM865.897 293.575C863.644 294.807 861.646 295.623 859.542 296.959C858.813 297.443 858.371 297.801 857.768 296.67C857.491 297.707 857.271 298.521 856.999 299.547C859.514 298.288 861.78 297.142 864.06 296.024C865.47 295.915 865.508 295.124 865.899 293.575H865.897ZM897.416 258.255C897.61 259.058 898.052 259.124 898.614 258.891C900.62 258.057 902.638 257.248 904.626 256.376C905.741 255.887 905.729 255.74 904.79 254.906C902.121 255.54 899.82 256.962 897.416 258.255ZM863.281 311.484C862.93 310.691 862.685 309.786 861.674 310.533C859.774 311.38 857.837 312.219 855.96 313.139C856.931 313.4 858.187 313.601 859.05 313.644C859.555 312.698 860.682 312.98 861.378 312.379C861.886 311.94 862.627 311.775 863.281 311.484ZM872.31 233.958C873.107 234.83 873.808 235.018 874.517 234.28C875.016 233.761 876.106 233.946 876.134 233.129C876.962 232.703 877.688 232.328 878.442 231.94C875.978 230.658 873.846 232.445 872.312 233.961L872.31 233.958ZM896.291 314.085C896.326 314.166 896.359 314.247 896.394 314.328C899.422 313.461 902.61 312.982 905.174 310.44C902.078 311.71 899.185 312.896 896.291 314.085ZM873.922 231.611C873.321 230.856 871.593 231.363 870.4 231.076C871.278 233.892 872.166 232.927 873.922 231.611ZM860.851 313.748C861.916 314.201 863.684 314.135 864.575 313.595C864.103 311.116 862.196 313.22 860.851 313.748Z" fill="#F9D445"/>
<path d="M939.967 229.375C952.059 230.016 950.802 226.235 948.393 235.39C945.57 240.1 945.27 245.76 943.045 250.762C942.578 252.607 947.952 252.054 949.145 252.034C950.316 252.075 955.881 251.786 953.345 253.862C949.821 254.64 946.819 256.909 943.416 258.158C941.67 258.734 939.892 259.342 939.425 261.327C937.709 264.686 936.509 268.244 935.038 271.689C932.444 277.973 919.826 318.696 937.566 305.172C939.7 302.964 941.837 300.756 943.875 298.46C944.533 297.573 946.398 300.414 945.966 301.061C935.759 319.306 912.467 318.794 917.454 293.745C920.08 280.47 925.469 267.857 929.203 254.853C931.41 249.994 936.022 230.115 939.844 229L939.967 229.378V229.375ZM926.693 265.644C924.924 271.264 923.201 276.751 921.405 282.457C924.904 281.466 927.573 278.81 931.191 278.353C930.974 278.792 930.931 279.058 930.792 279.127C927.56 280.44 924.445 282.784 921.105 283.484C920.872 284.244 920.653 284.969 920.383 285.867C923.708 285.035 926.609 283.137 929.818 281.94C931.753 280.746 931.372 278.057 932.258 276.047C930.61 275.786 923.244 280.65 923.438 278.957C926.407 275.882 932.931 277.066 933.807 271.933C931.72 272.921 929.866 273.743 927.815 274.724C926.841 275.007 925.411 276.822 924.644 275.497C927.22 273.545 930.618 272.784 933.401 271.094C934.677 270.866 934.546 269.725 935.189 268.648C931.738 270.229 928.547 271.692 925.3 273.177C924.455 271.917 926.778 271.682 927.533 271.182C934.422 267.583 935.305 269.611 938.075 261.649C935.416 262.11 932.949 263.7 930.386 264.653C929.142 265.294 928.35 266.992 926.693 265.646V265.644ZM929.851 256.498C933.113 254.369 942.856 253.152 942.374 248.719C938.918 250.113 935.391 251.286 932.19 253.218C930.401 251.806 940.078 249.16 941.289 248.176C943.045 247.715 943.562 246.744 943.973 244.944C940.308 246.506 936.973 247.994 933.549 249.943C933.163 250.283 932.553 250.298 932.48 249.748C934.99 247.494 938.822 246.663 941.806 244.962C943.827 244.399 944.72 243.431 944.967 241.084C942.646 241.887 940.449 243.324 938.219 244.437C937.417 244.883 936.274 244.853 935.865 245.953C935.845 246.009 935.383 246.014 935.325 245.92C934.291 244.409 936.68 244.465 937.52 244.024C939.48 243.013 941.398 241.918 943.35 240.888C944.597 240.518 945.313 240.371 945.351 238.556C942.094 239.963 938.708 240.888 935.762 242.932C935.378 243.117 934.485 243.527 934.152 243.119C932.74 247.509 931.329 251.897 929.848 256.498H929.851ZM918.756 305.755C919.276 306.67 919.344 307.552 920.499 306.997C922.507 306.034 924.568 305.18 926.622 304.318C927.921 303.935 927.195 303.268 927.227 302.272C926.95 301.418 927.951 297.887 926.448 298.556C923.93 299.317 921.793 301.441 919.263 301.915C917.323 299.846 928.592 299.18 927.54 294.701C924.904 295.608 922.429 297.012 920.063 298.495C919.556 298.997 918.973 298.827 918.953 298.156C921.011 295.743 928.736 295.127 928.158 291.005C925.807 292.166 923.095 292.888 920.958 294.282C920.759 295 920.295 295.228 919.568 295.258C916.533 295.537 918.274 302.647 918.731 304.807C921.407 303.575 923.912 301.56 926.468 300.85C926.254 302.698 920.497 304.366 918.758 305.75L918.756 305.755ZM929.576 257.078C929.104 258.579 928.643 260.047 928.178 261.514C934.089 259.565 940.108 255.912 946.234 253.312C942.061 252.103 938.363 253.651 934.604 255.347C932.775 255.659 931.435 258.085 929.576 257.078ZM950.131 253.588C948.126 252.412 937.679 258.607 934.907 259.687C932.881 260.285 929.798 263.512 927.873 262.447C927.596 263.34 927.336 264.166 927.033 265.132C930.454 263.839 933.696 262.044 937.112 260.673C937.992 260.48 938.693 260.648 938.862 259.443C940.371 256.293 947.197 256.047 950.131 253.588ZM927.583 304.903C925.038 306.024 922.555 307.116 919.962 308.26C923.425 313.74 925.169 311.327 929.707 309.334C928.968 308.571 928.902 306.696 927.762 307.286C926.642 307.486 922.5 310.888 922.245 309.301C923.065 307.494 929.124 307.372 927.583 304.906V304.903ZM919.154 290.252C922.295 289.596 925.444 287.111 928.625 285.94C930.02 285.324 930.065 284.168 930.275 282.833C927.919 283.4 925.847 284.673 923.597 285.555C921.238 286.582 919.384 287.208 919.154 290.252ZM944.089 302.011C944.034 301.93 943.978 301.849 943.923 301.77C941.478 302.84 939.627 304.592 937.785 306.442C934.178 309.258 929.349 309.19 925.779 312.209C926.935 312.538 929.175 312.916 930 311.958C930.948 310.597 932.861 310.44 934.21 309.563C937.868 307.497 942.117 305.958 944.092 302.009L944.089 302.011ZM929.114 286.893C925.888 287.983 922.85 289.968 919.684 291.357C918.264 291.674 918.849 293.19 918.607 294.338C921.783 292.893 924.821 291.54 927.823 290.115C928.958 289.471 928.912 288.123 929.114 286.893ZM935.691 239.132C939.107 237.859 942.359 235.869 945.77 234.442C947.112 233.821 947.962 232.861 948.186 231.246C943.976 233.664 938.345 234.873 935.691 239.132ZM934.574 242.376C937.46 240.308 946.736 238.676 946.579 235.023C944.649 235.362 936.001 241.433 935.605 239.302C935.25 240.364 934.949 241.256 934.574 242.376ZM947.031 230.891L946.965 230.574H943.391C943.643 233.51 936.38 232.042 937.036 236.161C940.373 234.402 943.701 232.645 947.029 230.891H947.031ZM938.088 232.554C939.473 232.605 941.067 231.276 942.508 230.843C940.119 230.432 938.792 229.722 938.088 232.554ZM940.242 306.926C940.197 306.855 940.151 306.784 940.109 306.711C937.81 308.196 935.515 309.682 933.216 311.167C936.155 310.706 938.126 308.698 940.242 306.926Z" fill="#F9D445"/>
<path d="M783.476 257.39C777.618 255.788 773.175 261.499 768.788 264.323C768.531 264.43 768.006 263.847 767.592 263.598C766.856 263.043 765.582 263.233 766.071 261.933C767.237 258.3 770.38 255.545 773.64 253.753C779.697 250.721 789.846 248.944 795.113 254.199C797.422 259.096 792.416 269.864 791.415 275.393C788.789 284.594 786.526 293.928 784.467 303.241C783.7 304.49 782.739 306.465 783.524 307.791C786.205 307.591 788.183 305.015 790.237 303.504C792.225 301.139 792.323 300.511 795.64 300.777C796.579 300.566 798.645 299.989 797.921 301.743C792.762 311.139 778.302 321.395 768.763 312.318C766.028 306.392 772.406 295.791 774.003 289.573C778.231 279.167 780.017 268.062 783.476 257.388V257.39ZM777.076 313.91C783.097 315.411 789.773 310.425 793.357 305.786C787.636 308.343 782.89 311.872 777.048 313.94C781.876 310.404 787.79 308.052 793.034 305.018C794.586 305.079 795.623 303.912 795.951 302.351C792.202 303.9 788.771 305.951 785.537 308.404C784.462 309.078 783.226 309.844 781.937 308.653C778.819 309.76 776.034 311.679 773.029 313.35C774.472 314.204 775.731 314.354 777.076 313.91ZM783.445 266.131C780.471 264.151 797.028 259.758 794.402 256.589C790.408 258.597 786.554 261.218 782.891 263.461C779.717 274.313 777.315 285.299 772.895 295.771C775.385 294.982 777.625 293.482 780.007 292.376C782.416 290.521 787.588 289.999 787.174 286.118C783.009 287.976 779.283 291.408 775.166 292.843C775.108 290.894 784.006 287.221 785.986 285.537C786.493 285.233 786.972 284.815 787.616 285.722C790.159 280.011 783.004 286.265 780.645 286.909C779.22 287.307 776.735 290.777 775.756 288.455C779.192 286.909 782.399 284.881 785.761 283.188C786.601 282.762 787.255 281.563 788.499 282.361C788.721 281.573 788.922 280.858 789.197 279.89C785.418 281.433 782.121 283.21 779.081 285.548C777.444 284.128 780.887 283.631 781.687 282.888C783.546 282.278 787.939 277.994 789.424 279.36C789.634 278.475 789.808 277.74 790.032 276.792C786.627 278.412 782.409 279.677 780.141 282.511C776.528 281.271 783.249 279.55 784.245 278.574C785.895 278.12 788.809 275.122 790.229 276.171C790.403 275.19 790.552 274.344 790.739 273.284C787.214 275.327 784.142 276.919 780.948 279.119C780.509 279.606 779.893 279.502 779.757 278.906C781.394 276.024 791.624 273.892 791.539 270.313C788.645 271.669 785.678 273.063 782.979 274.79C782.189 275.507 781.253 276.551 780.131 275.7C782.721 272.967 786.998 271.793 790.239 269.748C791.682 269.251 792.381 268.696 792.679 266.787C789.528 268.151 786.548 269.867 783.766 271.885C783.208 272.28 782.943 271.631 782.858 271.203C784.432 268.97 794.372 266.584 793.251 263.332C790.048 265.053 786.566 266.351 783.784 268.736C783.488 269.127 782.643 269.041 782.386 268.818C782.096 267.39 785.724 266.653 786.743 265.791C789.016 264.686 791.014 263.023 793.529 262.407C794.069 261.776 793.978 260.79 794.296 259.885C790.474 261.705 786.907 263.603 783.438 266.133L783.445 266.131ZM784.78 297.035C781.107 298.67 777.449 300.191 774.01 302.26C773.281 302.752 772.237 303.76 771.377 303.119C770.595 302.052 780.095 298.432 781.41 297.441C785.875 296.184 785.469 294.534 786.316 290.153C781.662 291.902 777.545 295.056 772.948 296.937C772.499 297.046 772.355 297.231 772.234 297.613C771.139 301.616 769.149 305.489 769.283 309.73C768.801 312.49 775.433 307.302 776.677 307.079C779.525 305.213 782.868 305.205 783.627 301.264C781.178 302.3 778.882 303.583 776.513 304.787C774.374 305.656 772.588 307.872 770.161 307.591C771.397 305.231 775.438 304.853 777.681 303.388C780.368 301.654 784.596 300.784 784.778 297.033L784.78 297.035ZM770.032 311.309C770.726 312.45 772.302 313.679 773.412 312.158C774.369 311.555 775.63 311.223 776.609 310.602C778.254 309.634 779.707 308.318 781.652 307.912C782.27 307.289 781.97 306.181 782.174 305.261C778.145 307.266 774.167 309.248 770.029 311.307L770.032 311.309ZM783.642 261.771C787.066 259.55 791.662 258.371 794.175 255.193C793.403 254.308 792.598 254.197 791.662 254.932C788.675 256.967 784.076 257.454 783.642 261.771ZM785.143 252.488C781.382 251.325 778.254 255.659 774.999 257.178C774.071 258.25 768.17 260.293 769.82 261.748C774.303 257.619 780.012 255.646 785.143 252.488ZM780.353 252.823C775.837 253.935 771.649 255.591 768.904 259.806C772.777 257.444 776.563 255.134 780.353 252.823ZM784.429 256.105C785.118 256.835 785.219 257.702 786.221 256.937C787.949 255.563 790.741 255.089 792.043 253.449C789.207 252.217 787.048 255.076 784.429 256.105ZM788.938 252.769C786.052 251.517 784.27 254.63 781.659 255.35C781.672 255.421 781.685 255.492 781.697 255.563C784.422 256.047 786.508 253.725 788.935 252.767L788.938 252.769ZM768.47 262.463C769.565 261.646 768.349 261.124 768.38 260.382C767.323 261.811 767.333 261.941 768.47 262.463ZM792.517 302.612C792.56 302.721 792.603 302.828 792.649 302.937C793.201 302.714 793.756 302.49 794.309 302.267C794.263 302.153 794.215 302.037 794.17 301.923C793.62 302.153 793.07 302.384 792.52 302.612H792.517Z" fill="#F9D445"/>
<path d="M801.751 233.527C802.114 240.597 791.836 245.57 789.243 237.578C787.724 230.747 801.165 224.612 801.751 233.527ZM800.04 231.393C798.559 232.808 789.094 236.257 790.754 238.268C793.804 236.607 796.768 234.775 799.783 233.051C800.767 232.478 800.767 232.453 800.04 231.393ZM790.961 233.859C790.721 234.534 790.504 235.145 790.229 235.92C793.272 234.704 795.615 232.917 798.426 231.396C799.092 230.815 799.084 230.61 798.363 230.09C796.102 229.391 793.827 231.064 792.136 232.412C792.197 232.503 792.257 232.592 792.321 232.683C793.993 232.08 795.618 230.496 797.374 230.513C796.198 232.427 792.951 232.278 791.589 234.379C791.412 234.232 791.236 234.085 790.961 233.857V233.859ZM800.472 233.9C798.39 235.279 791.98 237.266 791.662 239.494C794.47 239.75 796.872 236.567 799.488 235.644C800.391 235.254 800.653 234.82 800.472 233.9ZM799.806 236.607C797.621 237.806 795.454 238.998 793.211 240.227C795.938 241.413 799.198 238.706 799.806 236.607Z" fill="#F9D445"/>
<path d="M736.277 269.385C738.323 270.427 731.991 273.274 731.292 274.43C730.013 275.22 728.888 277.583 727.251 277.243C726.181 276.607 735.215 270.442 736.277 269.385Z" fill="#F9D445"/>
<path d="M728.371 280.498C727.162 279.043 730.081 278.181 730.876 277.291C733.002 276.077 735.283 272.62 737.634 272.615C737.536 272.896 737.523 273.304 737.326 273.441C734.125 275.537 731.204 277.94 728.371 280.498Z" fill="#F9D445"/>
<path d="M724.317 265.076C722.622 263.806 726.981 262.516 727.695 261.58C729.567 260.627 731.32 257.456 733.334 257.53C733.306 259.428 726.05 263.324 724.317 265.073V265.076Z" fill="#F9D445"/>
<path d="M733.427 298.077C732.741 297.765 732.796 296.99 733.442 296.681C736.666 295.089 739.419 292.706 742.337 290.632C743.183 289.864 743.667 291.023 742.913 291.553C739.666 293.613 736.548 295.839 733.425 298.077H733.427Z" fill="#F9D445"/>
<path d="M745.531 312.435C745.347 313.525 742.587 316.313 741.84 314.696C743.029 313.859 744.194 313.04 745.357 312.219C745.415 312.29 745.473 312.361 745.531 312.432V312.435Z" fill="#F9D445"/>
<path d="M759.204 245.264C758.462 244.579 758.535 244.212 759.542 243.662C761.093 243.063 762.463 241.287 764.196 241.616C763.283 243.502 760.71 243.768 759.204 245.264Z" fill="#F9D445"/>
<path d="M818.375 329.613C818.231 329.479 818.065 329.324 817.898 329.17C818.494 328.191 819.702 328.417 820.651 328.07C823.252 327.499 825.774 326.062 828.413 325.943C826.998 327.816 820.921 328.653 818.375 329.613Z" fill="#F9D445"/>
<path d="M887.721 307.01C888.289 306.052 893.91 303.717 894.674 304.812C894.424 305.046 894.182 305.464 893.92 305.476C891.765 305.243 889.512 307.613 887.719 307.01H887.721Z" fill="#F9D445"/>
<path d="M936.375 264.795C933.986 266.891 930.336 267.033 927.863 269.036C927.518 269.254 926.827 269.395 926.736 268.861C928.603 266.529 932.629 266.787 934.788 264.612C935.157 264.164 936.388 263.994 936.375 264.795Z" fill="#F9D445"/>
<path d="M773.902 299.682C772.419 298.12 775.512 297.735 776.412 297.051C779.301 295.94 781.998 293.165 785.05 293.056C782.189 296.115 777.063 296.68 773.905 299.682H773.902Z" fill="#F9D445"/>
<path d="M863.194 196.307C850.116 192.501 853.868 176.733 852.641 166.184C852.52 147.202 854.839 128.286 855.091 109.309C857.359 86.8948 855.448 64.1973 856.082 41.677C856.414 37.1314 862.525 34.7827 863.194 30.4244C860.82 27.7517 855.971 29.1943 852.696 28.3743C846.373 27.6302 840.035 26.9418 833.672 26.6837C830.734 27.2607 818.606 24.831 818.697 28.268C818.893 32.0999 820.774 31.5785 822.444 34.236C829.889 32.5149 824.899 52.6916 825.981 57.2524C826.207 67.442 826.328 77.5657 825.981 87.7502C825.478 91.1113 827.49 95.8847 825.367 98.5776C815.824 100.132 806.368 99.8582 796.81 99.0281C790.054 98.8458 783.158 97.8386 776.427 98.041C774.073 98.3296 765.135 99.7621 765.039 96.8313C766.055 77.1456 765.014 56.9487 767.277 37.511C768.48 33.4868 776.251 32.1303 776.035 28.84C775.774 28.2731 774.752 27.7517 774.063 27.7416C764.838 27.9795 755.446 28.7337 746.311 27.0329C741.03 29.0779 755.894 33.8968 753.751 38.1235C753.645 68.1354 755.371 98.3144 755.346 128.428C755.446 147.521 756.981 166.65 756.105 185.809C755.834 194.075 749.883 193.852 747.071 199.228C744.304 204.472 757.614 200.671 760.17 201.258C765.522 199.911 771.488 201.886 776.468 200.084C775.125 195.634 766.543 197.922 766.805 192.379C765.854 173.007 765.2 153.545 765.109 134.218C766.246 127.182 765.527 120.05 765.668 112.953C765.668 112.174 765.331 110.954 766.694 110.837C777.71 110.114 788.706 108.894 799.748 109.354C804.315 110.691 825.11 108.205 825.603 112.042C827.776 136.248 826.303 160.565 826.041 184.842C827.475 191.251 804.215 201.901 822.238 200.18C828.923 199.385 835.593 198.317 842.329 199.188C844.779 199.83 870.262 201.314 863.22 196.292L863.194 196.307Z" fill="#E40E62"/>
<path d="M568.753 28.116C561.062 28.7234 553.385 29.3714 545.664 29.0981C544.024 29.3511 536.806 27.3314 538.848 30.728C545.297 35.0457 547.691 42.431 546.338 49.8922C546.182 61.5548 546.464 73.2174 546.65 84.88C545.935 107.279 547.978 130.933 547.817 152.805C529.859 125.324 511.247 98.2231 494.375 69.9829C487.026 58.0976 480.089 45.9339 472.484 34.2156C471.644 32.9552 470.381 31.4467 468.369 31.5125C457.68 32.0997 446.291 29.1689 436.014 30.4698C435.486 32.1301 432.397 33.269 435.084 34.3674C438.469 36.4782 442.468 38.093 445.692 40.3151C450.803 46.9614 447.408 55.9057 448.776 63.6049C449.556 80.6179 449.702 97.6561 450.481 114.684C450.854 138.171 450.335 161.785 451.17 185.308C452.755 189.995 432.392 196.57 437.403 199.506C440.038 199.279 481.151 204.097 471.447 197.239C462.373 192.46 456.548 188.633 457.393 177.457C456.477 164.098 456.613 150.71 456.699 137.326C456.633 121.391 458.233 105.522 459.063 89.6229C459.465 80.2027 457.398 69.4513 458.967 60.6234C475.522 82.3085 486.236 107.653 500.668 130.741C515.764 155.2 529.371 181.329 549.074 202.407C551.776 204.862 555.86 199.036 556.972 196.965C558.079 182.544 558.179 168.092 557.747 153.631C557.299 130.908 557.938 108.139 556.71 85.4419C555.744 71.1471 556.544 56.8625 555.996 42.5576C555.729 40.9935 555.443 39.075 557.007 38.1588C559.487 36.868 574.326 30.981 568.748 28.1059L568.753 28.116Z" fill="#E40E62"/>
<path d="M736.653 74.7058C731.125 73.3087 732 67.3357 731.703 63.0635C729.399 53.0308 728.061 42.2389 721.527 33.9171C708.498 19.4148 680.651 19.5566 666.954 33.1781C634.111 65.6096 641.903 117.732 648.497 159.285C651.395 173.797 655.711 191.463 671.099 197.127C684.072 202.741 699.625 199.942 712.145 194.242C725.445 187.51 733.574 172.208 735.29 157.761C736.94 154.167 740.657 112.913 735.159 115.166C727.87 115.004 720.46 114.335 713.172 114.28C708.745 114.295 704.63 112.862 700.254 113.738C694.036 112.28 699.067 126.261 698.212 129.911C696.743 145.36 704.575 127.618 707.055 123.442C710.038 119.038 718.826 121.65 723.72 120.637C726.376 137.929 729.213 170.072 713.73 182.159C705.143 189.843 686.038 199.471 678.503 186.422C672.623 159.229 656.471 31.0471 698.639 32.2822L698.704 31.8114C720.657 32.9453 723.906 48.1107 723.997 67.0472C724.625 71.5118 715.385 72.428 712.578 76.0422C709.535 80.3245 719.751 77.667 721.758 78.1681C725.113 77.6012 750.149 81.6304 736.648 74.7108L736.653 74.7058Z" fill="#E40E62"/>
<path d="M972.994 27.9949C973.241 24.401 965.509 28.7795 963.271 27.9544C937.325 26.6383 911.409 28.6985 885.543 29.0326C871.348 31.0827 864.743 20.8222 867.434 39.779C867.917 45.3015 865.789 51.2289 867.369 56.5237C870.659 54.7115 872.298 45.8684 875.025 42.1834C877.429 36.5242 879.512 36.3268 885.241 36.7368C891.192 36.9747 897.656 36.1648 903.466 37.1873C904.658 78.3353 903.451 118.957 903.823 160.08C903.888 169.328 904.291 178.571 904.231 187.819C902.535 190.907 899.039 193.033 896.69 195.731C894.935 197.006 892.757 199.77 896.625 199.552C910.543 199.8 924.553 198.322 938.386 199.537C939.764 199.684 940.101 198.747 939.709 197.816C937.843 195.3 934.075 194.668 931.872 192.364C927.455 187.788 930.353 179.239 929.437 173.246C930.066 155.732 930.252 138.202 929.779 120.678C930.353 96.7758 929.331 72.666 931.132 48.7486C931.067 33.9578 931.324 35.5574 945.418 35.6789C950.876 35.2587 956.324 36.8684 961.837 36.7874C967.305 36.9291 968.381 46.3037 969.221 50.6822C968.89 53.8358 973.034 52.9196 971.908 50.2925C970.373 42.8971 972.622 35.4257 972.984 27.9949H972.994Z" fill="#E40E62"/>
<path d="M622.596 198.185C619.93 196.08 614.834 195.725 614.155 191.904C612.48 182.549 611.117 173.134 610.388 163.658C609.281 141.649 607.686 119.519 608.934 97.5044C608.466 81.8177 609.009 66.0803 608.924 50.348C608.396 37.2174 608.054 39.3687 618.049 31.9581C622.148 26.0205 596.559 28.4047 593.214 27.6656C589.769 26.9519 586.202 28.0099 582.792 27.5746C580.89 27.3012 579.321 26.6836 578.209 28.8147C577.138 29.169 575.714 30.1207 577.022 31.2343C589.663 37.0909 586.021 42.2084 587.505 54.1798C589.255 74.8778 589.678 95.6265 590.609 116.375C591.59 134.152 589.98 151.869 590.609 169.626C590.055 195.199 594.577 183.455 578.883 199.188C581.977 201.435 586.106 199.466 589.658 199.922C599.723 200.681 609.804 200.423 619.875 201.066C619.87 201.126 619.865 201.182 619.86 201.243C622.113 200.974 625.79 201.076 622.606 198.19L622.596 198.185Z" fill="#E40E62"/>
<path d="M245.089 361.368C245.466 357.112 240.653 358.742 238.021 358.128C226.611 357.358 214.63 357.405 205.287 365.154C201.322 366.934 197.398 360.332 193.218 359.786C187.119 357.63 180.462 357.126 174.013 357.521C167.78 357.508 172.25 375.849 170.062 380.808C168.898 387.083 183.888 382.854 188.122 385.473C191.474 403.576 188.735 424.005 189.044 442.823C188.714 470.973 190.808 500.289 188.095 527.853C159.905 493.98 138.499 455.278 114.785 418.207C107.374 405.083 96.3212 394.225 89.9938 380.603C95.5135 374.082 102.245 387.185 100.878 371.866C100.252 367.173 103.786 359.554 99.155 356.682C83.175 353.729 72.028 357.371 57.7577 362.616C49.8216 357.992 30.651 350.141 25.5285 361.136C25.3535 366.989 25.1786 372.848 25.0709 378.7C23.7381 389.177 41.6432 379.867 42.1749 387.922C41.1652 445.736 44.8202 503.55 43.4471 561.275C39.9132 562.244 28.7729 559.222 28.2815 562.871C27.5209 571.479 26.7267 580.101 26.4978 588.743C26.4709 590.325 28.2209 591.307 29.1229 590.271C30.7788 588.381 32.8252 589.439 34.6292 589.234C44.6319 589.984 54.0219 586.703 62.4561 581.369C63.9572 580.449 64.7718 580.646 65.768 581.792C74.2562 590.639 87.6379 591.178 98.9464 589.302C103.766 588.961 100.373 582.679 101.053 579.63C100.959 556.828 106.162 562.257 84.7973 560.934C82.8722 541.931 83.7203 523.249 84.2992 504.191C84.2656 487.985 82.4751 471.84 83.2963 455.66C101.76 478.381 117.444 503.386 133.471 527.955C144.443 542.797 151.571 560.491 164.798 573.478C179.001 585.101 169.746 588.675 190.249 584.282C192.928 583.811 195.533 583.157 197.627 581.151C203.732 575.381 209.905 589.084 217.376 588.484C225.144 590.469 232.71 588.293 240.491 587.304C243.655 587.058 244.591 585.898 244.052 582.747C240.929 564.631 250.359 562.476 227.904 562.244C225.763 523.208 227.446 484.185 226.571 445.129C226.807 428.022 227.17 410.908 227.002 393.795C227.763 390.732 224.929 383.986 229.452 383.748C253.011 381.463 243.891 392.246 245.096 361.382L245.089 361.368ZM242.181 380.003C236.54 380.801 225.117 377.138 224.296 385.371C224.087 396.4 223.616 407.443 224.181 418.473C223.434 465.326 224.491 512.137 224.235 559.011C222.741 569.133 231.714 565.702 238.25 566.841C241.252 570.265 239.414 576.95 240.384 581.485C230.098 589.35 212.442 586.165 204.378 575.306C201.443 570.62 195.856 581.704 179.964 582.468C154.479 562.837 141.091 530.308 121.826 504.6C109.939 486.921 97.9839 468.975 85.8205 451.691C85.7061 449.194 83.7876 449.583 82.5558 449.685C76.5986 447.932 81.7547 474.37 80.644 479.015C82.9529 502.22 79.2978 525.486 81.0547 548.609C81.0547 566.084 80.9134 564.74 97.7752 564.829C96.2068 583.218 105.031 589.309 81.3913 585.899C68.9586 583.579 66.2863 571.861 62.5505 576.22C54.1633 583.934 42.9625 586.492 31.9232 584.882C30.6779 584.8 30.0586 584.207 30.1326 582.788C31.1827 569.303 27.0565 561.302 44.4635 565.19C50.3735 565.797 45.453 548.002 46.3752 543.718C46.3954 531.106 46.6041 518.494 45.5675 505.917C45.5002 464.978 45.0021 424.046 45.4127 383.147C44.7934 377.288 27.8036 383.516 28.6181 377.125C29.4729 371.75 25.5621 364.178 29.1633 359.902C38.6746 358.04 47.9503 360.529 55.9201 366.006C60.8609 369.553 69.0529 359.008 78.1804 359.533C96.4289 360.557 98.6368 354.813 96.8866 372.861C96.4222 378.168 81.4114 371.381 84.8713 379.355C98.9127 402.491 116.003 423.404 129.176 447.175C146.785 476.075 165.229 504.6 185.901 531.297C194.019 537.375 192.08 522.205 191.818 517.778C191.696 507.308 191.71 496.818 192.221 486.382C190.774 453.348 191.972 420.267 192.282 387.206C192.396 385.03 194.301 381.79 190.66 381.858C185.073 381.531 179.486 381.156 173.508 380.781C174.633 377.2 172.707 360.747 175.205 361.211C184.629 360.331 195.695 361.921 201.915 369.813C203.92 373.346 211.634 363.646 216.817 363.21C224.242 360.175 232.65 361.587 240.31 361.839C242.073 365.72 242.625 371.34 242.188 379.989L242.181 380.003Z" fill="#49176D"/>
<path d="M496.557 435.177C505.933 436.746 516.535 435.784 522.741 427.463C522.903 427.224 524.04 427.306 524.397 427.627C532.602 435.436 545.648 441.63 556.599 436.159C556.337 432.121 556.041 428.227 555.859 424.325C556.095 414.933 556.519 414.626 547.216 416.208C541.71 400.725 535.934 383.659 523.219 372.937C487.119 343.839 427.696 340.012 394.524 375.529C376.787 398.529 367.161 428.09 367.72 457.202C365.223 490.508 362.544 527.478 382.637 556.221C395.924 576.083 419.854 586.362 443.157 584.48C472.169 588.095 496.139 581.738 520.109 565.688C520.715 570.449 515.263 582.74 520.897 583.941C525.891 583.245 531.034 581.335 534.258 577.475C539.011 579.589 552.985 586.935 553.624 578.477C551.208 563.076 551.867 547.415 550.777 531.904C549.047 524.285 554.93 472.262 546.583 475.659C531.929 475.209 517.37 478.231 502.763 476.164C498.435 474.868 483.303 479.261 484.063 472.774C485.686 465.687 478.174 466.744 473.657 466.751C469.261 466.983 469.706 474.295 469.309 477.61C469.012 482.903 476.37 490.038 473.778 492.009C468.514 496.934 468.958 503.4 469.854 509.982C470.984 513.836 475.521 508.577 478.254 509.907C491.562 512.178 482.744 506.251 486.547 501.524C490.047 501.156 513.903 500.283 512.772 504.573C512.436 521.468 503.645 539.817 487.395 546.092C473.044 551.392 456.795 556.63 442.128 549.571C402.743 534.858 402.979 426.801 428.955 399.729C442.922 385.76 465.909 381.06 484.292 388.229C495.325 390.412 499.66 401.605 505.341 410.11C505.583 409.995 505.832 409.879 506.075 409.769C496.981 374.696 444.921 375.747 424.815 400.261C399.862 430.894 403.847 511.578 426.403 542.763C449.848 570.865 510.066 552.251 514.583 515.65C516.811 493.462 517.632 507.486 507.744 494.71C506.526 495.399 507.953 497.391 507.953 498.973C500.198 499.246 492.471 498.748 484.716 498.612C476.874 499.382 490.384 507.984 472.91 506.974C472.587 501.435 472.149 496.838 476.807 493.544C484.508 488.919 468.393 484.642 472.782 473.136C473.3 469.486 480.779 467.863 481.27 471.942C481.243 473.981 480.402 477.562 482.3 478.824C493.225 480.182 504.19 478.394 515.128 479.82C525.077 480.018 535.12 477.862 544.981 479.363C548.704 480.011 547.176 486.32 547.93 489.219C546.792 518.958 549.781 548.711 549.411 578.416C542.349 580.053 536.197 569.01 531.357 574.781C529.371 576.609 527.285 578.143 524.491 578.546C522.459 579.044 523.374 577.447 523.367 576.281C522.741 569.433 521.153 559.297 528.234 556.282C523.69 553.609 511.816 570.845 501.295 573.137C485.08 581.301 466.905 583.218 448.98 581.915C386.77 585.019 365.499 533.828 369.248 478.449C371.51 462.931 370.433 447.107 372.937 431.719C380.846 399.108 395.648 364.683 431.034 356.321C464.206 345.36 514.549 357.46 532.804 389.177C536.682 398.344 542.847 406.939 542.922 417.3C542.598 421.154 548.058 419.789 550.447 419.707C552.117 419.264 552.103 420.035 552.15 421.174C551.564 425.335 555.415 434.679 548.966 434.836C539.616 435.17 531.303 430.505 525.602 423.234C522.061 417.013 517.074 437.756 500.138 431.583C497.56 429.864 499.088 425.191 498.435 422.333C498.361 420.274 499.411 419.53 501.437 419.973C503.47 419.96 508.101 422.599 508.148 419.066C507.899 415.888 507.953 412.709 505.213 410.561C504.553 412.675 505.826 417.341 503.052 417.463C500.568 418.125 494.544 415.724 494.921 419.905C496.664 424.257 494.456 433.486 496.563 435.198L496.557 435.177Z" fill="#49176D"/>
<path d="M772.539 572.536C771.812 567.155 773.75 549.488 764.71 552.265C761.533 554.215 758.686 553.192 755.737 552.592C749.417 553.226 753.125 537.791 751.914 533.275C749.255 494.717 752.311 456.035 754.041 417.477C754.438 405.636 755.778 393.802 755.078 381.981C755.125 374.655 764.306 377.574 769.018 376.565C773.434 375.658 771.165 357.821 769.624 354.295C768.917 352.528 767.389 353.756 766.211 353.708C758.484 353.422 750.177 352.071 743.217 356.43C739.151 358.299 735.166 363.708 730.556 362.889C723.017 356.559 712.677 357.562 703.509 356.116C700.803 356.921 697.108 355.038 696.731 358.49C696.906 364.506 696.569 370.658 696.233 376.708C696.751 383.331 710.342 375.917 709.191 384.702C708.686 405.827 705.145 426.821 705.791 447.946C676.773 447.925 648.427 448.403 619.496 446.125C618.265 446.063 617.45 445.934 617.417 444.372C616.515 427.203 617.659 410.015 617.908 392.84C618.743 383.707 615.04 375.719 627.722 376.238C635.086 375.651 629.223 363.251 630.482 358.08C629.25 349.739 602.029 355.632 597.586 360.42C595.695 361.764 593.655 362.364 591.629 360.365C585.605 355.666 569.8 350.005 566.064 359.301C567.343 374.007 560.611 379.791 576.558 378.666C579.977 381.906 578.012 389.04 578.974 393.624C579.526 408.255 579.708 422.906 579.042 437.523C579.17 468.258 579.513 499.082 580.839 529.844C579.809 534.946 584.063 558.758 579.055 558.669C576.497 559.563 571.072 558.39 571.577 562.434C571.906 568.157 572.169 573.88 572.566 579.596C574.215 582.979 579.87 581.99 583.094 582.965C596.469 583.313 591.932 574.746 606.377 582.038C615.04 584.664 623.582 582.058 632.118 581.062C632.777 581.028 633.827 580.114 633.935 579.473C631.438 561.35 639.596 556.746 620.217 559.317C618.561 535.594 618.52 512.069 619.288 488.298C619.544 485.092 625.057 487.677 627.291 486.893C653.9 486.695 680.751 485.181 707.185 487.336C714.003 488.1 709.857 501.292 710.564 506.299C709.85 521.38 712.004 536.638 710.012 551.603C703.812 556.698 693.89 544.646 696.704 561.527C698.542 567.312 694.732 574.828 697.296 579.876C709.345 582.733 722.936 580.721 733.989 575.101C734.682 574.678 736.243 574.726 736.782 575.237C741.002 579.923 747.424 582.952 753.402 584.241C759.291 584.657 765.248 584.18 771.165 583.859C775.918 583.034 772.121 575.851 772.539 572.529V572.536ZM766.366 581.021C755.67 583.184 743.688 580.517 736.809 571.349C735.745 570.033 734.709 570.244 733.665 571.124C726.719 577.372 717.16 577.004 708.47 578.232C705.845 577.904 701.126 578.593 699.565 576.172C699.619 570.647 699.787 565.122 699.875 559.59C698.959 550.866 713.539 562.312 713.788 554.004C713.155 539.83 713.445 525.568 712.879 511.36C711.681 503.379 716.81 489.621 710.025 484.219C684.406 481.6 658.309 484.028 632.488 484.028C608.363 480.447 618.628 488.141 616.488 510.5C615.626 526.229 616.037 542.02 616.494 557.762C616.003 564.372 622.458 562.059 626.672 561.923C633.154 560.763 630.334 572.134 630.32 576.37C622.781 581.322 610.463 581.274 602.291 576.758C600.777 575.94 600.71 572.536 597.829 574.153C591.912 578.252 585.699 581.41 578.591 578.32C573.724 577.154 575.979 569.596 574.868 565.729C575.164 556.903 585.228 567.803 584.44 557.223C581.916 522.935 582.03 488.332 581.337 453.921C581.956 428.765 581.768 403.59 581.768 378.42C582.845 371.409 571.738 377.684 569.315 373.134C570.062 368.632 567.316 361.048 570.897 358.121C588.23 355.85 591.919 369.778 596.334 365.904C603.893 358.19 614.717 357.685 624.801 358.476C628.759 359.472 626.504 365.079 627.554 368.087C629.674 377.902 615.168 369.956 614.664 377.186C615.02 400.247 614.307 423.425 614.192 446.534C614.118 451.377 631.673 449.665 635.773 450.388C658.181 453.068 681.175 449.078 703.294 451.909C704.122 453.266 705.118 453.437 706.377 452.85C711.351 451.295 708.302 444.392 709.144 440.375C709.063 440.375 708.975 440.361 708.894 440.361C710.14 419.816 710.369 398.03 711.769 378.223C697.922 373.257 699.854 382.588 699.498 362.65C700.79 355.598 717.228 361.648 722.357 361.805C728.078 361.47 730.576 371.306 733.564 368.1C741.11 358.919 756.7 353.251 766.999 358.524C769.274 373.182 769.381 374.225 754.768 374.88C751.436 376.183 752.405 381.612 751.833 384.607C752.304 399.19 752.217 413.718 750.85 428.261C748.252 469.827 748.434 511.339 749.12 552.906C750.911 557.523 758.08 555.811 762.085 557.155C764.084 556.657 766.777 554.127 767.497 557.708C769.254 563.942 769.341 570.47 769.799 576.895C770.028 580.912 769.388 580.585 766.359 580.994L766.366 581.021Z" fill="#49176D"/>
<path d="M962.01 374.164C961.297 368.271 961.607 362.869 963 356.935C945.68 352.221 925.904 356.853 907.817 354.697C880.239 355.604 852.6 352.201 825.097 353.667C813.835 354.315 801.463 357.112 790.673 353.831C788.532 354.349 781.936 353.429 783.928 357.405C787.132 374.532 781.801 392.867 784.601 410.39C784.204 416.092 782.872 425.444 791.515 424.571C805.186 425.573 818.985 424.714 832.595 426.856C837.731 428.581 835.274 405.274 836.984 400.929C837.657 396.578 832.824 397.396 829.984 397.075C827.54 397.526 823.219 395.432 822.195 398.446C819.833 406.031 823.885 409.162 814.313 407.32C808.867 409.333 812.59 393.426 811.459 390.07C810.584 384.552 831.283 389.17 835.449 388.529C840.006 388.754 844.032 391.244 848.683 390.991C853.388 444.14 847.687 497.199 848.622 550.314C848.192 557.032 837.408 551.337 834.749 555.968C835.456 563.492 832.252 574.432 838.209 579.951C848.575 583.204 860.16 579.739 867.954 572.113C877.607 579.03 888.842 582.89 900.783 582.106C905.421 583.245 901.685 564.924 903.536 560.907C905.273 545.082 890.215 568.641 891.191 540.539C887.441 488.953 892.335 437.36 894.516 385.998C900.426 386.858 928.253 385.78 929.128 391.107C928.65 396.114 931.074 402.826 928.502 407.075C926.2 407.443 923.844 407.518 921.529 407.696C921.36 396.557 918.56 400.172 909.816 399.62C903.94 400.997 910.86 415.246 910.597 419.987C910.9 423.984 914.993 421.378 917.389 421.433C927.439 421.092 937.495 421.522 947.336 419.96C951.106 419.046 960.684 420.962 962.017 416.952C963.579 402.675 962.064 388.447 962.017 374.157L962.01 374.164ZM960.099 408.473C961.795 422.913 927.344 417.791 917.833 418.916C914.676 419.619 913.243 418.882 913.088 415.458C913.243 412.572 908.558 404.081 912.145 403.446C916.305 403.289 919.348 402.88 917.591 408.241C917.039 415.049 926.503 410.322 930.367 410.977C936.257 410.369 929.573 393.358 931.922 388.12C931.929 382.84 912.96 386.353 908.335 384.593C903.792 384.177 899.322 382.902 894.806 382.11C886.19 384.088 893.789 399.026 889.905 405.527C889.077 427.115 889.555 448.778 887.893 470.352C884.83 492.738 887.771 515.241 888.384 537.702C890.686 553.192 882.245 560.422 900.487 558.635C899.167 562.653 901.597 578.859 897.579 578.811C889.508 578.859 881.976 576.902 875.137 572.543C872.586 571.172 870.398 567.011 867.12 568.785C859.366 575.756 849.47 579.644 839.077 576.902C839.441 574.965 842.147 571.656 838.95 571.22C836.533 568.294 838.451 562.714 837.98 558.929C839.912 556.125 844.954 557.36 848.017 556.8C852.156 556.753 851.941 555.573 851.853 552.196C851.221 539.543 851.173 526.87 851.362 514.197C852.425 471.744 855.582 429.052 850.985 386.844C850.096 387.322 849.538 387.622 848.979 387.922C849.013 387.71 849.046 387.499 849.08 387.281C844.287 386.633 805.657 379.334 808.652 387.049C809.655 391.694 805.199 410.417 810.214 410.833C813.337 409.79 816.232 410.86 819.16 411.536C825.352 413.834 823.313 404.817 825.386 401.264C826.578 398.44 830.744 401.311 833.087 401.311C833.524 407.716 832.111 414.653 831.882 421.181C831.801 425.403 814.609 420.71 810.039 422.238C803.186 421.89 795.163 422.292 788.788 420.055C787.725 419.066 787.657 416.767 787.516 415.008C788.223 409.019 783.821 353.606 791.003 357.917C809.655 358.708 827.931 355.168 846.617 356.518C871.455 357.93 896.253 356.716 921.024 358.224C928.509 358.858 957.191 354.499 959.103 362.33C960.031 377.684 959.479 393.106 960.099 408.453V408.473Z" fill="#49176D"/>
<path d="M346.919 359.677C346.65 355.837 327.728 358.347 324.403 358.92C317.321 360.891 309.937 362.003 303.657 366.3C302.681 366.969 301.813 367.057 300.87 365.98C293.971 355.966 282.366 355.353 271.387 355.714C264.703 355.509 262.569 361.723 263.7 367.555C265.121 371.873 260.961 382.206 267.564 381.886C272.505 382.725 279.472 380.549 283.389 383.802C284.783 392.615 282.918 401.762 283.066 410.677C282.898 434.154 284.453 457.53 283.524 481.048C283.685 506.313 282.965 531.584 282.137 556.794C282.817 566.316 266.723 557.121 265.921 564.468C266.238 579.603 260.112 591.328 281.296 589.882C286.613 588.757 291.817 587.092 296.36 583.921C297.929 582.829 298.811 583.355 300.015 584.432C303.59 587.624 307.77 589.903 312.495 590.421C321.32 591.417 330.212 591.226 338.882 589.077C344.139 586.724 340.511 576.329 341.877 571.336C341.318 568.308 344.677 561.33 339.992 560.996C335.698 561.616 328.078 560.095 324.786 557.449C323.568 543.261 325.298 528.856 325.17 514.6C324.295 476.144 331.423 436.753 327.29 398.542C327.762 378.932 327.553 387.52 343.169 383.782C351.321 383.359 345.404 365.85 346.919 359.67V359.677ZM344.098 377.623C342.894 384.205 324.329 378.639 325.163 382.888C324.672 419.107 326.348 455.19 322.572 491.279C323.595 514.47 320.196 538.487 322.047 561.425C340.215 567.885 339.757 560.266 337.643 583.525C331.477 589.241 315.491 587.979 307.824 584.78C303.899 584.118 300.763 576.356 296.905 578.573C289.851 584.173 280.38 586.97 271.704 584.903C266.211 582.693 270.425 572.243 269.603 567.339C270.997 562.36 285.186 569.174 285.711 560.525C285.799 530.09 285.732 499.567 286.708 469.139C287.105 448.062 285.274 426.972 286.284 405.895C285.563 380.863 296.004 375.767 266.534 377.998C265.356 355.666 267.463 360.223 286.667 360.761C294.866 359.868 299.14 373.742 302.25 369.622C305.986 370.993 305.636 369.567 308.436 367.985C317.086 364.663 325.702 361.321 335.186 361.723C347.828 359.868 343.069 368.892 344.085 377.623H344.098Z" fill="#49176D"/>
<path d="M231.814 259.721C231.133 241.014 232.622 222.274 231.249 203.58C231.478 187.603 225.243 168.864 209.339 162.41C206.349 161.188 203.184 159.61 199.94 161.971C197.534 162.46 194.954 162.977 192.726 163.967C167.855 175.893 162.678 239.647 176.172 260.483C183.879 270.557 199.94 271.729 211.152 267.433C217.171 265.756 219.569 259.737 223.659 255.466C223.393 258.399 225.401 261.614 223.053 263.536C218.631 266.497 214.317 269.737 210.011 272.889C199.965 281.53 188.728 289.284 180.191 299.47C170.348 313.504 169.709 336.908 185.169 347.172C203.437 356.89 226.28 339.923 229.561 321.163C233.091 300.833 232.44 280.262 231.818 259.725L231.814 259.721ZM217.175 169.8C218.457 171.187 219.743 172.575 221.141 174.087C218.54 175.288 218.312 171.511 216.876 170.069C216.976 169.978 217.076 169.891 217.175 169.8ZM213.351 167.306C209.298 166.055 205.088 164.755 201.043 163.508C203.756 161.871 210.352 164.949 213.351 167.306ZM221.796 226.379C219.855 238.284 221.269 257.231 207.324 261.758C202.545 263.917 197.451 264.186 192.859 261.22C181.896 254.476 182.336 225.021 181.925 212.88C183.219 199.048 183.609 183.589 192.449 172.153C194.875 170.081 197.551 167.016 200.977 167.012C209.174 166.179 217.847 170.036 218.946 178.996C223.654 194.5 223.099 210.063 221.796 226.379ZM225.243 286.314C224.783 303.616 223.061 322.936 210.849 336.266C205.83 342.508 193.668 346.505 188.898 337.894C182.701 327.049 178.793 312.932 186.936 302.158C190.271 296.081 195.746 292.109 201.354 288.294C209.211 282.578 216.491 277.321 224.903 272.127C226.098 276.886 225.231 281.513 225.243 286.318V286.314Z" fill="#F8B5CB"/>
<path d="M323.374 294.425C319.01 287.925 322.229 275.304 321.673 267.359C321.362 253.503 320.582 239.663 320.545 225.799C320.006 212.614 319.558 199.429 319.13 186.22C318.935 181.709 317.691 177.268 315.472 173.341C311.444 157.286 288.962 165.181 277.816 168.28C270.121 171.544 264.04 177.136 258.685 183.42C257.988 164.05 261.049 159.167 263.206 139.503C263.783 137.196 273.116 136.388 268.723 133.808C266.214 133.915 241.678 131.48 246.83 136.649C249.061 138.799 253.143 139.317 253.118 143.202C253.886 152.999 252.6 162.791 250.327 156.673C248.916 169.386 251.438 182.239 250.903 195.01C250.318 208.866 249.526 222.717 249.219 236.586C248.854 249.804 248.228 263.026 248.896 276.24C247.788 282.404 250.891 290.096 245.967 294.95C238.38 300.799 244.606 301.181 250.671 301.288C252.567 300.659 268.96 303.554 264.438 299.366C255.163 297.262 256.781 287.755 256.627 280.341C256.532 270.503 256.86 260.681 257.304 250.852C257.387 238.574 257.88 226.247 259.042 214.019C260.058 203.878 260.755 193.187 268.109 185.366C274.365 177.115 285.859 173.312 295.964 174.812C311.349 178.312 306.628 220.721 307.703 233.848C307.425 252.463 308.462 271.137 306.425 289.698C307.006 298.72 296.897 295.038 298.49 300.398C299.008 300.671 300.443 300.298 301.07 299.888C309.117 299.093 317.214 302.079 325.427 300.994C329.326 300.53 324.187 296.081 323.374 294.429V294.425Z" fill="#F8B5CB"/>
<path d="M121.485 303.546C119.324 301.86 115.64 300.97 114.889 298.054C113.964 290.8 113.848 283.489 113.678 276.191C112.791 254.721 114.097 233.194 112.82 211.695C111.09 194.869 112.143 172.671 93.9542 164.539C88.0971 161.901 81.9787 161.246 75.7152 162.576C64.7353 162.303 54.8505 166.259 46.0774 172.907C45.3515 170.434 48.6367 161.917 44.808 162.82C38.5403 164.912 32.2146 166.917 25.951 168.968C22.4003 170.318 29.8502 174.158 31.0324 174.937C33.8821 175.301 31.5425 185.243 32.0942 187.823C32.0444 191.444 32.1108 195.068 32.0611 198.688C31.7832 200.834 30.3437 203.295 32.0983 205.237C33.0151 206.464 31.3476 207.565 32.3514 208.758C32.8243 229.615 34.1807 250.641 34.5458 271.588C34.0107 278.817 34.4296 286.012 34.33 293.244C34.1434 297.635 30.2151 300.526 28.0623 304.068C25.4075 308.115 38.4947 304.789 40.3696 305.153C43.1613 304.014 50.2917 307.49 51.2665 304.93C51.3328 303.165 46.824 301.69 45.5256 300.29C43.7793 296.972 44.6131 292.432 44.0904 288.7C43.4226 265.358 43.6549 242.017 44.9117 218.7C45.2602 191.734 42.7216 173.69 75.2921 168.591C103.644 164.709 106.187 199.662 105.54 220.158C105.357 236.806 105.755 253.404 105.967 270.031C105.17 281.72 108.891 295.63 98.4133 303.956C97.7123 304.776 98.0815 306.065 99.3799 306.019C102.835 305.704 106.353 306.193 109.833 306.131C111.911 305.572 125.073 307.365 121.489 303.55L121.485 303.546Z" fill="#F8B5CB"/>
<path d="M399.868 270.022C398.524 270.006 398.665 271.157 398.748 272.023C398.84 283.51 392.273 298.07 379.729 299.781C373.777 300.294 365.763 298.198 364.029 291.699C361.005 286.297 356.326 281.878 355.165 275.49C351.336 261.609 353.003 246.855 353.908 232.713C353.941 222.676 354.182 212.631 354.518 202.594C354.866 194.007 355.148 185.362 355.418 176.796C356.957 172.55 351.962 170.703 360.117 170.343C369.753 170.471 379.427 169.945 388.967 168.594C390.937 167.783 395.861 169.713 395.878 166.764C395.525 165.417 395.728 163.454 393.729 163.723C388.602 164.229 383.454 164.278 378.327 164.568C370.687 164.705 363.025 162.087 355.414 163.267C354.501 156.056 355.708 149.275 356.446 142.171C357.587 138.294 355.903 121.87 358.919 121.256C360.603 120.834 370.981 118.738 364.888 117.309C357.94 117.566 349.478 114.003 343.289 117.661C345.487 122.772 344.471 128.443 344.197 133.915C342.177 168.648 340.663 203.526 340.804 238.313C342.355 256.39 337.693 285.038 350.399 298.985C357.073 305.364 371.649 304.519 380.36 303.281C387.777 303.061 393.833 298.492 397.608 292.358C401.847 286.476 402.34 279.173 402.983 272.189C403.124 270.553 402.39 270.06 399.868 270.031V270.022ZM376.992 301.599H372.226C372.234 301.458 372.242 301.317 372.246 301.176H377.071C377.046 301.317 377.017 301.458 376.992 301.599ZM395.874 291.007C394.907 292.851 393.526 294.387 392.145 295.928C391.734 295.046 394.816 290.962 395.828 290.485C395.849 290.663 395.948 290.887 395.874 291.007ZM397.778 286.057C398.437 284.027 399.018 282.238 399.69 280.171C400.237 282.312 399.371 285.055 397.778 286.057Z" fill="#F8B5CB"/>
<path d="M147.841 163.794C143.739 163.541 139.437 164.767 135.405 164.154C131.734 163.69 128.043 163.781 124.421 163.466C122.642 164.075 121.111 165.484 123.48 166.544C129.913 169.92 130.432 170.405 130.195 177.712C129.868 185.889 131.174 194.078 131.071 202.3C131.12 227.27 131.738 252.169 131.66 277.122C130.598 283.253 134.331 298.501 129.693 301.723C128.528 302.564 128.395 304.532 130.245 304.432C134.285 303.645 157.701 307.315 144.125 300.145C140.96 298.028 143.166 293.107 142.494 289.847C142.134 279.703 142.262 269.554 142.192 259.406C140.843 233.703 142.233 208 142.204 182.285C142.204 180.18 141.69 178.018 141.972 175.926C142.324 174.224 140.595 171.892 143.436 170.918C144.448 169.129 151.433 165.243 147.837 163.798L147.841 163.794Z" fill="#F8B5CB"/>
<path d="M134.418 33.4149C126.017 52.6514 123.366 74.4002 117.553 94.6623C115.828 101.117 114.4 107.691 112.041 113.945C103.401 127.619 91.1372 70.7998 89.075 65.3246C87.1491 58.3517 85.012 51.425 83.605 44.3219C83.4231 43.4319 82.7331 43.6138 82.1633 43.6735C80.7725 44.0072 81.4946 46.1804 80.9463 47.2222C76.4366 62.5924 72.8337 78.1661 68.118 93.4956C67.2514 97.701 66.5265 102.11 65.0286 106.052C66.3366 108.917 68.0591 111.72 69.894 114.265C61.5005 113.88 52.8503 112.87 44.3284 112.523C48.4931 109.061 52.976 106.321 57.5686 103.61C58.9462 103.019 59.786 102.43 60.1712 100.867C62.2923 93.7696 64.3519 86.6394 66.0637 79.4169C68.7733 68.32 71.4481 57.2068 74.6472 46.2428C75.2115 44.2649 75.7893 42.2897 76.4018 40.3254C77.6028 38.3203 77.9211 35.9435 75.6716 34.5354C72.8176 31.749 68.7519 29.1416 66.6388 26.0866C75.0511 24.7571 83.6853 27.2342 92.1644 26.678C98.4769 47.5723 103.3 68.9114 110.444 89.5642C111.19 90.6196 110.939 93.0262 112.332 93.1917C113.124 93.1511 112.996 92.4131 113.004 91.8243C112.798 88.6038 114.042 85.6002 114.654 82.4909C116.518 71.7331 119.306 61.1599 122.478 50.725C124.441 45.0572 125.142 38.9335 127.349 33.3904C128.37 31.8304 126.407 30.8346 126 29.4645C125.332 27.7959 124.235 26.3199 122.464 25.8017C125.551 23.9866 128.009 25.5195 131.034 25.5358C135.071 25.4246 139.511 25.0176 143.488 24.966C141.464 28.1838 137.847 29.9257 134.648 31.711C134.712 32.1777 134.605 33.0649 135.317 32.6552C138.478 29.8606 142.59 28.2246 145.877 25.4897C148.838 21.9761 132.198 24.947 130.315 24.2335C128.737 24.0273 118.982 22.6897 121.916 26.2331C123.743 26.7649 127.37 32.2971 125.714 33.7812C124.861 38.3556 123.689 42.8812 122.213 47.2982C117.655 60.742 115.665 74.8479 111.688 88.4301C103.88 69.1231 99.6805 47.613 93.4135 27.473C91.9129 25.1831 92.3703 25.2618 89.2756 25.5331C81.8236 25.1587 74.3369 23.878 66.8929 24.4478C61.6931 26.347 70.3942 31.0571 71.9483 32.9075C73.382 34.4486 77.0277 36.2393 75.9979 38.6188C73.4863 44.7261 72.3121 51.2785 70.4397 57.6002C66.9652 71.4293 63.6538 85.3045 59.6363 98.9871C58.561 103.206 53.5644 104.457 50.558 107.062C47.843 108.727 45.302 110.648 42.7262 112.523C41.5305 112.906 41.9211 114.108 43.1007 114.105C51.2829 113.709 59.5828 114.715 67.7329 115.627C77.7393 117.578 67.1123 111.188 66.7004 107.165C67.1176 97.7038 70.6831 87.5103 73.7752 78.2611C76.3617 67.4545 78.8867 56.8839 82.4629 46.3242C86.8014 59.8739 90.1208 73.8739 94.3925 87.4778C95.9011 94.0627 98.0329 100.395 100.499 106.663C102.077 110.03 102.88 114.062 105.966 116.379C111.658 120.69 114.764 113.668 115.039 108.689C116.583 102.205 118.268 95.7584 119.99 89.32C123.315 76.1611 126.145 62.8665 129.761 49.7835C130.863 46.1045 132.016 42.4389 133.177 38.7761C133.501 36.9882 135.057 35.211 134.418 33.4122V33.4149Z" fill="#49176D"/>
<path d="M286.734 101.798C285.461 99.2667 281.754 107.843 279.261 108.009C267.487 112.827 273.318 98.7159 275.016 92.9097C276.766 87.5566 277.766 81.981 279.529 76.6415C280.58 69.3756 287.213 55.5681 281.607 49.7321C273.248 43.934 259.912 51.2949 252.058 55.4759C254.038 47.7325 255.552 38.6162 259.834 31.6732C260.982 30.6558 270.509 25.2321 265.999 24.9418C261.843 24.6026 257.635 24.9662 253.495 24.6379C251.748 25.129 241.496 22.3236 242.78 25.2782C243.86 26.8736 244.885 28.6561 246.3 29.9557C248.1 32.0178 245.125 39.0802 244.903 41.986C242.18 51.9705 239.781 62.0581 236.694 71.9368C234.753 78.812 232.722 85.6601 230.609 92.4837C228.132 101.285 227.718 104.837 221.052 111.571C214.579 116.49 225.388 113.592 228.049 114.523C229.764 114.406 241.421 116.94 239.671 113.573C238.666 111.308 236.502 109.295 236.149 106.85C237.853 101.329 239.885 95.9159 241.172 90.2644C245.184 75.2496 246.067 60.319 263.774 56.4038C278.015 50.7007 272.309 64.3426 269.52 71.9938C266.476 80.8767 263.525 89.8574 261.594 99.0659C258.416 111.026 265.598 119.724 277.539 113.788C280.291 113.134 282.091 111.267 283.64 108.985C285.204 107.919 286.02 106.212 287.178 104.804C288.176 103.754 287.267 102.816 286.734 101.801V101.798ZM285.566 105.062C281.543 112.339 267.39 119.708 262.974 109.208C259.636 98.4935 269.19 77.7132 272.582 66.6434C274.987 59.8224 276.204 51.2895 266.024 54.3093C259.781 56.0186 253.473 58.257 249.138 63.3523C245.299 67.8236 244.355 74.0694 242.75 79.6097C241.054 88.3027 238.511 96.7733 235.298 105.01C234.948 106.714 233.621 107.827 234.627 109.699C234.64 109.75 235.033 109.677 235.247 109.704C236.809 109.867 237.438 112.358 238.16 113.633C232.591 114.539 227.081 112.789 221.467 112.803C228.847 104.343 228.638 103.806 231.618 93.0345C234.025 84.1814 236.831 75.4503 239.316 66.6189C242.82 54.8193 245.513 42.8434 248.568 30.9244C248.771 28.8786 245.385 29.0441 244.31 25.3189C251.261 25.6336 258.087 25.9918 265.082 26.2142C260.08 30.9705 257.421 30.1402 255.664 37.6286C254.53 41.4488 253.621 45.3449 252.478 49.1651C252.198 50.8337 248.094 59.2933 252.628 56.7104C259.888 50.8933 285.812 40.8057 282.302 58.9841C279.927 74.3515 274.12 88.8725 270.849 104.02C269.546 110.844 277.279 111.359 281.377 108.163C282.995 106.988 284.212 103.942 286.06 103.646C285.903 104.123 285.868 104.701 285.571 105.062H285.566Z" fill="#49176D"/>
<path d="M223.414 66.6406C223.703 64.7197 223.963 62.8286 223.618 60.8805C223.286 59.0003 223.35 58.9813 224.966 57.9828C227.587 56.0131 233.49 53.3758 234.576 50.4972C230.599 49.8134 226.057 51.1998 221.89 50.6138C218.838 50.6789 219.651 51.5309 216.885 49.1921C209.34 43.7087 196.506 45.5347 189.145 50.6056C184.512 53.4464 181.722 58.6747 179.395 63.5014C176.389 68.2251 176.434 74.7367 178.296 79.8864C178.9 85.5569 184.836 86.6557 188.781 88.8805C174.602 99.2856 184.622 101.396 178.791 103.458C168.046 107.854 162.959 119.93 171.994 128.702C176.453 130.626 181.206 132.576 186.088 131.692C190.14 132.495 194.369 131.662 198.089 129.961C204.314 126.314 211.723 121.604 211.134 113.218C210.591 101.955 192.424 102.376 192.063 93.5662C192.371 90.8964 196.934 90.5329 196.426 88.5414C179.588 96.5019 202.706 102.634 207.879 108.576C214.649 118.004 202.725 127.405 194.722 130.468C188.396 131.733 181.351 131.198 175.268 129.047C170.306 127.725 167.656 121.577 168.568 116.672C169.571 109.669 176.255 106.15 181.92 103.369C183.902 102.65 181.631 101.795 182.57 100.659C182.49 100.672 182.413 100.686 182.332 100.696C180.43 95.6364 186.574 91.9763 190.22 89.8111C191.464 89.1464 191.48 88.867 191.055 87.8712C189.41 87.8658 189.514 87.6433 188.388 86.5988C181.385 85.4321 178.414 80.1468 178.283 73.353C177.975 61.9224 187.211 49.6398 198.504 47.7433C200.989 47.3255 207.146 46.2022 209.029 47.7921C212.587 48.0661 216.12 49.0374 218.413 52.1142C218.854 52.6378 219.349 52.741 219.956 52.4805C223.907 51.6394 227.935 51.9134 232.027 51.8537C230.521 53.8262 221.192 57.7115 222.114 59.4316C223.858 70.7755 216.631 85.2965 204.656 86.9488C202.875 88.0639 197.498 86.8348 196.929 88.4926C197.033 90.0282 202.476 88.205 203.795 88.3433C214.711 87.353 221.4 76.7363 223.404 66.6379L223.414 66.6406Z" fill="#49176D"/>
<path d="M331.465 47.7355C329.975 47.5429 320.707 48.4437 321.287 46.4549C323.628 39.0669 325.599 31.6219 328.712 24.5133C329.397 21.8924 325.358 23.7537 323.997 23.3114C322.076 23.3006 320.158 23.211 318.238 23.135C314.892 21.4637 308.908 45.3587 307.394 48.7095C304.308 57.8122 301.483 67.0045 298.685 76.2049C295.804 85.5111 292.046 95.36 294.397 105.195C299.102 121.067 317.874 111.815 323.665 101.516C324.909 99.891 324.837 99.796 323.606 98.0921C323.103 97.1317 322.632 96.5918 321.798 97.6771C313.578 107.743 304.011 114.436 306.049 95.1049C307.314 85.0499 310.532 75.296 313.974 65.8107C315.675 62.3704 316.328 57.937 319.022 55.2374C322.983 53.6828 326.738 51.6561 330.595 49.8572C331.494 49.4258 332.794 49.9467 333 48.6119C332.767 47.844 332.211 47.7138 331.462 47.7382L331.465 47.7355ZM327.739 49.8138C319.228 55.0041 318.101 50.1746 314.651 61.4723C308.074 74.9378 292.185 130.976 322.702 99.0961C323.336 101.457 320.236 103.044 319.324 105.092C315.031 110.641 306.051 114.74 299.651 110.771C289.061 100.17 298.308 82.7898 301.44 70.5995C305.669 58.032 309.192 45.2095 313.942 32.8428C317.532 21.9846 315.911 24.4022 327.038 24.7603C323.954 32.265 322.659 39.8727 319.69 47.3448C318.824 49.8003 327.3 47.9824 328.886 49.2386C328.381 49.4909 328.046 49.6266 327.741 49.8138H327.739Z" fill="#49176D"/>
<path d="M167.609 99.9018C167.048 99.039 162.455 99.8204 161.532 100.33C160.393 101.608 153.083 109.612 152.219 106.858C153.473 101.535 155.177 96.3828 155.945 90.9048C158.451 80.1715 161.72 69.6308 164.483 58.9653C165.702 54.5835 166.433 48.3947 160.652 47.3908C152.751 45.2393 143.4 46.8129 137.574 52.923C135.718 54.4722 131.708 58.9626 135.662 60.1672C138.115 61.9064 140.153 57.6087 142.199 56.5749C143.67 55.5575 152.058 50.7009 152.195 54.0083C149.646 63.3443 147.174 72.7157 144.633 82.0518C141.76 90.6227 137.783 98.8599 136.092 107.775C134.824 115.535 145.513 116.751 150.865 115.199C157.1 113.126 165.938 106.356 167.612 99.8991L167.609 99.9018ZM163.447 104.701C159.104 109.979 152.558 115.101 145.395 114.151C142.469 113.972 138.995 113.356 137.59 110.377C136.646 103.991 140.372 97.7014 142.199 91.708C144.344 85.2642 146.997 79.032 148.343 72.3358C149.934 66.0195 151.887 59.8199 153.976 53.661C153.495 49.0703 145.27 52.3967 143.194 54.2498C140.99 55.2727 139.607 57.6602 137.125 58.0075C136.443 59.0304 136.494 59.0277 135.416 58.1975C139.925 48.8641 154.364 45.0439 163.027 50.2044C166.866 51.7211 157.619 79.0781 156.744 84.0839C155.45 89.0599 154.407 94.1091 152.997 99.0553C152.443 101.245 148.391 109.886 153.101 108.714C154.805 107.708 156.485 106.644 158.066 105.453C160.652 103.803 162.276 99.8367 165.954 101.581C165.09 102.658 164.266 103.679 163.447 104.704V104.701Z" fill="#49176D"/>
<path d="M200.299 83.4871C209.955 80.7549 214.076 68.6975 213.833 59.4076C213.504 40.0354 193.545 52.5758 189.838 63.4773C185.293 72.1487 188.54 85.7254 200.299 83.4871ZM189.685 76.0448C187.428 66.5025 193.459 56.1897 201.668 51.6478C218.035 43.9424 213.608 72.1432 206.298 78.5301C201.837 84.0433 191.729 83.5169 189.682 76.0448H189.685Z" fill="#49176D"/>
<path d="M185.194 105.355C179.414 106.359 173.182 111.14 172.59 117.242C172.756 125.785 182.91 127.614 189.49 126.111C195.701 126.244 202.217 120.804 200.802 114.1C199.991 108.836 189.838 104.831 185.197 105.355H185.194ZM187.575 106.636C192.044 107.922 199.119 109.379 199.649 115.039C200.229 124.182 189.519 125.56 182.704 125.148C178.919 125.164 174.803 122.087 173.944 118.343C173.599 111.745 181.348 105.198 187.575 106.633V106.636Z" fill="#49176D"/>
<path d="M160.524 35.3741C166.387 40.2307 174.979 30.1241 170.539 24.4834C165.162 19.0055 153.698 30.0752 160.524 35.3741ZM159.757 29.812C159.545 26.4341 170.065 20.6741 168.458 26.1818C168.875 26.0869 169.132 26.0977 169.29 25.9784C171.135 24.7303 170.266 28.5423 170.317 29.4783C170.022 32.045 168.321 33.6295 166.358 34.9698C163.298 36.8745 158.232 33.4396 159.757 29.812Z" fill="#49176D"/>
<path d="M505.126 274.299C509.269 266.814 512.706 258.895 516.953 251.423C520.258 245.783 522.608 239.427 526.76 234.354C526.851 234.405 526.941 234.457 527.032 234.508C525.639 238.623 523.594 242.462 521.787 246.403C521.465 247.096 521.751 247.569 522.516 247.612C525.892 248.462 525.823 245.16 527.055 243.023C528.935 239.673 531.289 235.937 530.471 231.951C528.785 227.398 522.983 230.477 520.745 233.039C512.419 245.32 505.388 258.572 498.736 271.858C494.321 279.79 491.343 288.533 486.247 296.054C484.778 293.633 489.192 284.297 489.883 281.001C493.775 268.605 498.759 256.504 504.478 244.847C513.551 227.9 504.695 222.197 495.345 239.492C488.094 251.162 481.973 263.58 475.162 275.816C473.351 278.888 463.948 304.155 460.297 299.834C458.446 297.704 458.879 293.995 459.879 291.599C460.38 290.849 460.049 290.442 459.85 289.649C456.702 292.159 457.064 287.561 455.599 293.857C454.453 297.63 453.592 301.759 454.202 305.692C456.042 311.636 461.855 311.558 464.8 306.395C469.343 300.382 471.795 293.234 475.404 286.686C484.322 270.072 492.382 252.96 502.468 237.002C500 244.856 495.749 252.85 492.329 260.597C487.164 272.747 482.505 285.139 478.903 297.845C475.221 308.881 483.129 314.323 489.872 303.593C496.125 294.471 500.105 284.105 505.135 274.299H505.126Z" fill="#009FC2"/>
<path d="M613.177 250.244C608.875 250.325 604.752 250.894 600.449 251.22C603.19 245.776 607.346 241.12 610.228 235.83C608.511 235.921 604.721 234.916 603.608 235.857C600.256 241.611 597.361 247.623 594.441 253.603C590.305 261.064 586.5 268.685 582.518 276.226C579.325 281.769 572.694 299.955 565.935 299.977C562.21 299.544 569.944 285.63 570.605 283.182C572.522 277.736 576.021 272.613 576.181 266.716C576.079 264.429 574.413 263.248 572.229 263.426C567.225 262.875 563.574 267.254 559.961 270.034C561.705 266.584 562.673 262.576 565.427 259.78C571.591 254.856 577.87 249.771 582.583 243.4C585.746 239.128 582.654 232.663 576.953 235.097C568.636 241.093 565.425 251.785 560.408 260.371C552.69 276.052 545.797 292.141 537.863 307.702C537.308 310.404 541.138 309.01 542.649 309.182C544.217 308.171 544.286 305.542 545.245 303.946C550.381 293.077 553.71 280.206 563.52 272.486C565.15 271.615 570.923 266.622 569.883 271.454C567.051 279.203 563.27 286.552 560.343 294.263C553.602 310.893 559.364 313.807 572.157 301.918C571.406 313.307 582.384 311.35 587.405 304.327C588.282 303.133 596.444 294.986 593.726 294.459C593.102 294.33 592.304 293.977 591.776 294.482C589.813 296.842 587.7 299.057 585.489 301.19C580.599 306.871 575.77 307.36 577.458 298.392C581.943 286.036 588.261 274.397 594.738 262.989C596.453 260.688 597.247 255.628 600.015 254.751C604.294 254.262 609.11 254.726 613.143 253.406C613.456 252.471 614.883 250.385 613.179 250.247L613.177 250.244ZM577.751 240.662C578.706 242.705 571.12 249.76 569.666 251.926C569.613 251.883 569.559 251.843 569.505 251.801C571.88 247.884 574.574 244.202 577.751 240.662Z" fill="#009FC2"/>
<path d="M544.035 285.337C547.141 279.614 553.647 267.682 546.969 262.645C546.066 261.999 546.325 261.854 545.147 261.794C542.665 259.938 537.433 262.678 535.121 264.15C527.283 271.372 522.767 281.921 521.094 292.316C520.947 293.115 520.513 293.894 521.061 294.716C519.675 297.065 516.811 298.568 514.561 300.113C508.726 303.727 505.587 305.352 508.415 296.688C511.503 287.07 516.408 278.133 520.589 268.966C520.842 267.595 525.794 262.048 523.379 261.921C521.577 262.039 518.948 261.122 517.881 263.058C512.516 275.809 504.898 287.597 500.874 300.897C499.991 303.282 500.103 305.547 501.574 307.679C506.917 314.258 516.846 302.563 520.672 298.64C520.368 302.239 523.448 305.658 527.117 304.26C525.993 309.321 520.582 309.294 517.021 311.857C505.768 318.829 500.418 333.603 504.315 346.16C506.606 352.727 512.16 346.347 513.687 342.634C520.345 331.12 523.925 318.092 530.63 306.659C535.227 299.64 540.474 292.974 544.038 285.335L544.035 285.337ZM522.36 314.492C520.285 320.372 517.249 325.839 514.584 331.462C513.153 334.724 511.807 337.998 509.564 340.818C508.677 341.895 508.283 339.67 508.198 339.081C507.545 328.757 514.161 319.271 522.534 313.796C522.438 314.18 522.416 314.343 522.357 314.495L522.36 314.492ZM534.232 291.527C530.402 297.733 525.445 299.321 526.634 290.12C527.685 283.544 530.607 277.573 534.149 271.995C535.522 268.987 543.861 260.4 545.388 266.937C544.065 275.849 539.475 284.274 534.232 291.53V291.527Z" fill="#009FC2"/>
</svg>
