<svg width="1000" height="600" viewBox="0 0 1000 600" fill="none" xmlns="http://www.w3.org/2000/svg">
<rect width="1000" height="600" fill="#F7F7F2"/>
<path d="M134.697 295.856C134.735 297.275 136.743 298.464 135.694 299.743C130.732 304.103 124.568 284.297 121.461 281.023C117.202 275.397 114.427 268.428 110.578 262.777C104.733 264.95 84.4763 260.948 81.9698 265.066C82.8266 278.325 82.2512 291.559 81.3304 304.794C81.3176 305.753 81.0746 306.673 79.9109 306.507C75.6779 307.198 77.6729 301.559 77.3915 298.976C77.302 292.071 78.6064 284.527 77.2253 277.929C76.8161 286.585 76.9823 295.421 76.215 304.129C76.215 305.024 76.458 306.072 75.128 306.277C73.8108 306.481 72.4296 305.599 72.1994 304.461C71.2019 299.206 71.7774 308.105 67.9409 304.653C66.5086 301.571 67.7235 297.518 67.6212 294.155C67.7874 285.473 67.0073 276.919 67.5956 268.237C66.3935 249.658 67.2375 231.066 67.2631 212.474C67.5572 205.019 67.5061 197.565 67.148 190.11C65.7157 179.062 72.0715 188.026 74.5269 192.361C76.0488 190.954 69.4755 185.788 71.6623 184.356C75.9209 181.978 76.3301 190.698 79.2714 190.724C77.9159 188.346 76.5475 185.98 75.128 183.499C75.6012 183.295 76.0615 183.103 76.5219 182.911C80.6526 167.9 88.1978 152.006 94.5536 137.173C90.001 141.521 86.2539 155.573 82.2767 163.271C79.6167 168.884 78.4018 175.099 75.6395 180.597C75.0001 181.735 74.0154 181.786 72.1483 180.827C70.2044 179.587 74.3607 171.94 74.8083 169.677C74.6292 169.6 74.4374 169.536 74.2584 169.46C72.3145 172.452 72.3657 181.057 67.5061 179.357C66.6748 179.152 66.6492 178.423 66.9306 177.592C68.7721 172.26 70.4218 166.864 72.3785 161.583C85.0902 129.604 100.283 98.5065 113.327 66.8084C124.913 94.8496 138.111 122.06 150.81 149.576C152.971 153.63 153.432 159.985 156.309 162.938C156.053 152.62 155.235 142.25 155.414 131.88C154.813 117.955 154.288 104.043 154.506 90.1057C155.593 83.9553 151.629 63.5734 158.355 61.9751C159.66 61.86 160.043 62.1669 159.979 63.4327C159.8 76.3728 157.332 89.9139 159.314 102.585C160.337 90.2208 159.724 77.2423 160.734 64.8137C160.619 63.356 162.23 61.8983 163.598 62.2819C165.018 64.1488 163.969 67.3327 164.263 69.6215C166.105 69.0333 163.56 64.0081 166.438 63.6629C171.732 61.8472 167.78 76.5519 169.737 78.5338C168.727 71.1942 184.316 83.2265 186.068 85.5025C203.14 106.127 190.147 132.557 164.519 135.204C166.284 136.982 169.136 135.089 171.336 135.025C180.3 133.184 187.065 126.803 191.592 119.131C201.529 102.509 189.572 80.3367 171.949 75.1325C167.998 73.8155 170.466 68.6625 169.916 65.5425C170.645 61.7449 180.671 68.1638 183.063 68.9566C189.828 72.3962 195.416 77.3702 199.342 83.853C200.173 76.6925 212.489 81.82 216.735 83.3799C225.802 87.2159 232.643 97.4836 229.792 107.393C227.234 118.978 221.121 124.284 210.609 128.926C208.332 130.026 205.8 130.051 204.47 127.571C203.076 125.819 207.015 125.064 207.757 123.325C203.511 123.978 204.509 122.916 202.424 119.745C197.322 132.711 186.068 143.273 172.384 146.29C171.169 146.674 169.34 146.367 169.711 148.298C169.622 153.259 173.995 181.581 170.133 182.374C164.046 183.576 168.995 166.174 166.207 167.925C165.811 170.342 168.138 186.939 162.742 181.108C161.565 175.201 161.616 169.204 161.552 163.22C160.184 163.961 161.118 167.733 160.798 169.498C160.12 172.452 163.586 182.617 159.34 182.387C157.972 182.477 157.601 181.85 157.371 180.533C156.373 176.953 155.503 171.403 153.086 169.127C153.854 172.49 155.26 175.674 156.13 178.999C156.475 180.443 154.902 180.328 154.084 180.75C151.475 181.709 150.414 173.487 148.981 171.646C144.94 162.018 140.976 152.351 136.461 142.94C135.848 139.935 131.627 140.319 130.246 141.508C132.344 141.751 134.952 140.575 135.809 143.413C139.147 150.599 142.293 157.99 145.516 165.253C147.383 170.214 149.339 175.163 151.232 180.111C151.015 182.707 150.951 182.911 153.994 183.077C203.243 186.21 211.734 252.125 163.381 266.638C182.18 270.73 198.767 287.301 198.843 307.236C195.864 307.53 194.623 306.302 194.764 303.272C194.444 301.098 193.217 294.257 191.03 294.257C191.95 297.109 195.915 305.919 192.795 307.581C189.227 307.671 188.766 307.492 188.446 303.873C186.324 292.518 176.387 282.673 165.389 279.578C164.941 281.126 167.742 281.79 168.893 282.264C173.011 283.402 176.106 286.087 178.996 288.977C183.907 293.644 186.81 299.717 187.986 306.341C188.165 306.98 188.383 307.658 187.423 307.786C178.766 310.023 183.203 302.658 178.778 297.889C176.4 294.321 173.241 291.496 169.826 288.977C168.944 288.03 163.535 286.304 166.54 288.849C173.65 292.084 181.924 300.446 179.75 308.425C174.929 308.578 175.441 308.131 174.29 303.63C172.307 299.014 171.86 301.507 173.548 304.858C174.903 307.351 173.637 309.307 170.236 308.783C166.233 308.336 169.149 304.129 165.657 303.183C167.55 309.384 167.026 309.41 160.836 309.243C158.892 303.643 160.273 296.354 159.724 290.23C159.212 286.279 161.207 281.432 158.88 278.07C158.342 288.452 160.312 299.219 158.662 309.358C151.283 311.801 155.248 304.973 153.086 302.3C152.485 304.73 154.864 310.624 150.746 309.832C149.582 309.653 147.779 309.601 147.677 308.08C147.383 273.633 146.82 239.262 147.792 204.828C147.792 199.137 147.242 193.422 147.459 187.745C146.577 173.334 137.178 161.02 132.957 147.441C132.011 145.74 129.684 146.687 128.098 146.469C120.783 146.367 113.468 146.597 106.153 146.776C102.534 147.313 97.9042 146.226 94.7838 147.991C90.2311 159.064 85.2948 169.92 81.3176 181.223C79.7958 182.694 79.783 183.64 80.9723 185.302C85.1286 192.245 89.2209 199.24 93.262 206.26C101.204 221.348 110.948 235.311 119.926 249.798C117.995 245.809 139.019 249.376 142.037 248.737C143.943 248.814 144.134 249.069 143.406 250.898C142.485 253.238 142.293 253.276 139.786 253.148C131.896 253.161 137.165 254.657 141.423 254.401C143.06 254.529 143.316 254.926 142.958 256.575C143.329 260.859 128.993 257.432 125.502 258.301C129.632 260.987 144.326 255.616 142.216 264.17C141.96 264.426 141.449 264.528 141.052 264.541C137.305 264.094 132.523 266.012 129.441 263.442C126.103 258.826 128.405 263.71 130.042 265.858C136.308 274.988 140.707 285.141 145.989 294.833C147.434 296.84 142.216 298.541 141.654 296.227C131.244 275.614 118.34 256.422 106.242 236.794C104.439 234.199 93.2748 214.852 97.0218 223.611C111.217 246.729 126.678 269.196 138.827 293.503C139.262 295.204 142.024 296.751 140.72 298.503C139.965 299.27 138.175 299.295 137.382 298.579C136.385 298.017 135.771 295.523 134.684 295.92L134.697 295.856ZM126.538 279.77C126.653 282.366 129.159 284.322 129.978 286.803C129.543 281.918 123.967 277.008 121.64 271.894C120.808 272.52 125.617 279.642 126.538 279.77ZM71.9309 195.378C70.4346 196.363 73.6189 198.332 74.0026 199.585C76.1127 203.421 77.9798 207.398 80.1666 211.195C81.7524 213.484 80.3329 216.144 80.4352 218.663C80.7037 227.613 81.1002 236.564 81.2537 245.515C80.2562 248.916 98.3646 246.589 101.562 247.676C90.9729 230.721 82.5964 212.269 71.9309 195.378ZM100.961 134.181C101.101 134.258 101.229 134.348 101.37 134.424C102.47 132.199 103.851 130.077 106.652 130.563C112.048 130.384 117.458 130.205 122.854 130.038C126.218 130.179 122.394 126.688 122.202 125.192C119.376 118.646 117.317 111.485 113.506 105.501C108.608 114.631 105.692 124.885 100.961 134.181ZM164.916 260.117C186.272 256.128 199.457 227.907 187.743 208.51C180.863 196.58 167.959 188.039 153.943 188.41C150.426 187.911 153.406 196.376 152.882 198.639C155.158 196.414 151.002 189.522 154.89 189.445C163.202 189.957 171.361 192.309 177.576 197.884C201.248 216.297 191.669 250.578 164.916 260.117ZM158.521 199.137C159.647 198.242 158.573 195.557 161.156 196.734C168.215 198.588 174.635 201.925 178.906 207.999C187.475 217.934 185.838 232.792 178.74 243.034C175.249 247.548 170.862 251.026 165.555 253.263C164.801 253.481 164.315 253.877 164.34 254.721C181.912 249.939 192.603 225.568 181.579 210.147C177.231 202.027 168.982 196.861 160.056 195.186C157.268 194.189 158.675 197.629 158.521 199.137ZM168.586 127.775C168.573 130.396 176.221 125.563 177.589 125.039C180.543 123.223 182.666 120.448 184.853 117.725C193.754 104.708 184.329 85.0933 169.865 80.9888V82.5488C192.257 89.3129 193.204 121.842 168.586 127.775ZM108.774 91.1798C98.3902 113.313 86.7271 137.659 77.1997 161.059C82.7243 153.246 85.9214 140.869 91.1391 131.752C96.6765 118.108 104.362 105.232 108.787 91.1798H108.774ZM164.148 247.816C174.2 245.374 180.236 231.206 179.175 220.964C177.704 214.213 171.706 205.505 164.686 204.163C165.76 206.324 168.381 206.989 170.146 208.497C175.965 212.832 178.65 220.734 177.743 227.78C175.799 238.687 171.834 241.167 164.148 247.829V247.816ZM202.91 119.298C221.965 115.104 225.392 91.3972 202.974 92.3689C205.148 94.1974 208.601 93.443 211.146 94.6066C217.566 96.2305 217.873 104.286 215.903 109.439C214.637 115.551 202.846 115.551 202.91 119.298ZM160.516 138.158C159.519 138.375 159.378 142.595 161.066 142.646C164.992 142.403 168.867 142.045 172.742 141.073C181.49 138.989 194.534 129.987 196.068 121.842C191.516 129.105 185.16 135.37 177.09 138.618C172.231 140.498 167.103 141.342 161.885 141.61C160.082 141.751 160.913 139.296 160.529 138.171L160.516 138.158ZM190.301 292.672C186.093 282.212 173.215 273.543 161.399 271.97C159.263 272.188 151.769 269.311 152.741 273.172C155.401 271.178 158.841 273.223 161.872 273.211C174.085 274.617 183.433 283.069 190.301 292.672ZM200.34 98.8646C200.493 86.2569 182.845 70.849 170.99 69.532C188.152 76.7181 193.37 81.6026 200.34 98.8646ZM118.327 91.0775C118.174 91.1158 118.02 91.1542 117.867 91.1926C122.701 104.286 129.108 117.559 135.886 129.501C131.231 116.536 123.762 103.979 118.315 91.0775H118.327ZM222.63 94.3892C226.3 108.16 223.18 116.996 208.78 123.121C208.87 123.313 208.972 123.504 209.061 123.709C222.31 119.106 229.894 107.726 222.63 94.402V94.3892ZM169.865 85.6432C166.604 91.6912 187.053 91.0903 179.315 113.991C183.855 109.759 182.807 99.0052 178.753 94.044C176.886 91.346 169.686 88.4818 169.878 85.6432H169.865ZM168.701 116.612C175.99 112.099 177.5 102.918 171.668 96.4479C169.916 95.6168 171.169 91.7808 169.174 92.2155C169.2 95.783 170.913 97.3813 172.666 100.13C174.098 104.657 174.84 110.858 169.98 113.569C168.548 114.4 168.42 115.449 168.688 116.612H168.701ZM104.465 258.416C100.014 255.949 92.6737 259.26 87.2898 258.097C82.0337 257.304 76.8288 258.57 71.4705 258.161C71.3682 259.171 71.982 259.631 73.0946 259.567C83.53 258.698 94.0293 259.043 104.477 258.429L104.465 258.416ZM170.466 216.029C172.077 227.511 173.74 231.168 164.084 240.924C173.522 237.485 175.3 223.956 170.466 216.029ZM158.598 238.111C155.312 240.234 158.496 247.765 157.69 251.691C157.856 256.217 156.782 262.035 158.125 265.986C160.146 257.291 157.933 247.241 158.598 238.111ZM221.505 93.8266C217.77 86.1546 206.823 86.8579 199.47 84.3773C200.186 85.5792 200.225 86.73 201.081 87.2799C208.396 85.7071 215.737 89.5175 221.505 93.8266ZM150.158 160.931C150.912 158.003 147.306 153.681 146.385 150.42C143.457 145.561 141.973 139.104 138.303 135.076C141.692 143.643 146.168 152.428 150.171 160.944L150.158 160.931ZM204.189 112.201C211.926 112.649 217.067 97.8161 205.199 98.481C213.333 102.33 212.169 107.854 204.189 112.201ZM164.558 82.2163H163.893C163.279 116.855 165.581 116.625 164.558 82.2163ZM117.176 89.4152C118.455 86.7172 114.222 81.1934 113.557 77.5876C112.394 77.2679 107.93 89.8372 109.273 89.8883C110.552 86.6405 111.831 83.3927 113.25 79.7869C114.657 83.2393 115.91 86.3209 117.164 89.4152H117.176ZM104.644 114.937C104.503 114.873 104.362 114.81 104.222 114.746C101.344 121.101 98.4669 127.456 95.5767 133.823C99.6179 129.795 102.38 121.088 104.644 114.937ZM108.851 103.02C111.025 102.355 111.626 97.2151 113.365 94.6322C114.644 96.1794 117.228 104.746 117.765 102.215C112.713 90.029 113.289 91.9981 108.851 103.033V103.02ZM163.624 231.897C166.808 230.951 167.103 221.182 164.289 218.765C164.865 223.266 164.954 227.511 163.624 231.897ZM129.632 129.616C128.111 124.489 124.734 119.362 122.586 114.234C121.55 115.219 128.098 129.808 129.632 129.616ZM168.458 123.696L168.867 123.824C168.253 121.024 177.129 119.707 179.085 114.963C176.195 117.495 167.243 119.809 168.458 123.696ZM158.534 219.468C157.294 221.028 157.255 234.454 158.406 235.669C158.867 230.388 158.56 225.107 158.534 219.468ZM108.787 259.491C104.324 249.146 102.892 252.292 93.6073 252.279C96.8811 254.312 107.329 249.99 106.332 257.931C107.048 258.391 107.751 258.826 108.787 259.491ZM107.444 248.916C107.623 248.814 107.802 248.699 107.982 248.596C105.053 243.827 102.112 239.07 99.1831 234.301C100.871 239.812 104.311 244.274 107.444 248.916ZM166.003 147.339C163.957 148.413 166.642 161.826 166.207 165.304C166.425 165.291 166.642 165.278 166.86 165.266C166.578 159.461 166.31 153.655 166.003 147.339ZM155.376 265.5C155.593 265.168 155.145 264.912 154.902 264.899C151.143 265.168 153.598 258.122 152.946 255.616C150.759 257.752 151.935 261.677 151.999 264.465C152.37 265.999 154.225 265.436 155.388 265.5H155.376ZM71.2659 256.562C73.0818 254.453 71.381 243.111 70.5497 242.714C70.7927 247.509 71.0357 252.036 71.2659 256.562ZM77.0207 276.599C78.2356 276.343 77.6857 265.603 76.9184 264.311C75.5372 267.93 77.2253 272.622 77.0207 276.599ZM75.6907 249.005C76.6498 248.021 76.5219 238.866 75.6907 237.702V249.005ZM94.6559 218.356L95.2442 217.985C93.1341 214.648 91.024 211.31 88.9139 207.96C88.8116 210.94 92.8784 215.261 94.6687 218.343L94.6559 218.356ZM200.033 110.795C199.189 113.735 198.345 116.689 197.437 119.899C199.534 118.582 201.248 111.715 200.033 110.795ZM76.215 213.574C76.0615 213.574 75.8953 213.574 75.7418 213.574V225.299C75.8953 225.299 76.0615 225.299 76.215 225.299V213.574ZM164.749 111.702C164.583 111.702 164.417 111.702 164.251 111.702C164.34 115.027 163.637 118.377 164.749 121.676V111.69V111.702ZM171.681 299.999C172.141 298.835 167.627 295.293 166.207 295.101C167.013 297.531 169.878 298.375 171.681 299.999ZM161.284 151.763C159.621 152.351 160.836 160.189 161.284 160.905V151.763ZM108.391 105.82C108.25 105.757 108.097 105.693 107.956 105.641C106.895 108.16 105.846 110.692 104.669 113.505C106.293 112.572 108.621 107.406 108.391 105.833V105.82ZM121.64 113.211C121.844 113.122 122.049 113.019 122.266 112.93C121.128 110.475 120.003 108.007 118.864 105.552C117.419 107.662 120.911 110.961 121.64 113.211ZM169.494 215.645C169.635 215.479 169.788 215.313 169.929 215.146C168.1 214.021 166.655 211.119 164.455 211.234C165.133 213.369 167.921 214.136 169.494 215.645ZM76.1255 227.908C74.6804 228.457 74.9745 234.096 76.1255 235.106V227.908ZM124.236 141.968C124.236 141.828 124.236 141.687 124.236 141.546H116.46C116.46 141.687 116.46 141.828 116.46 141.968H124.236ZM200.416 104.082C200.212 105.884 200.007 107.687 199.79 109.631C201.209 108.889 201.465 106.933 200.416 104.082ZM124.517 256.972C125.259 256.064 123.468 254.056 123.161 252.509C123.072 252.509 122.573 252.547 121.576 252.624C122.701 254.286 123.622 255.629 124.53 256.972H124.517ZM96.3184 143.797C98.0705 142.774 99.5411 139.654 99.0935 138.49C98.1728 140.242 97.252 142.02 96.3184 143.797ZM152.971 242.267C152.754 242.28 152.524 242.292 152.306 242.305C152.396 244.121 152.485 245.937 152.575 247.752C152.818 247.752 153.061 247.727 153.291 247.714C153.189 245.898 153.074 244.07 152.971 242.254V242.267ZM76.0615 250.31C74.6292 252.701 77.5834 253.826 79.3993 252.662C77.7113 252.356 76.8416 251.998 76.0615 250.31ZM123.724 135.537C123.724 135.652 123.724 135.78 123.724 135.895H130.003C130.003 135.78 130.003 135.652 130.003 135.537H123.724ZM119.107 136.304C118.199 135.255 115.092 135.217 113.749 136.048C115.719 136.138 117.419 136.214 119.107 136.304ZM159.429 123.453C159.545 123.466 159.66 123.492 159.775 123.504C159.493 121.919 160.35 119.016 159.429 118.083V123.453ZM153.47 274.4C153.253 274.4 153.048 274.425 152.831 274.425C152.907 276.024 152.997 277.635 153.074 279.233C153.291 279.233 153.496 279.208 153.713 279.208C153.636 277.609 153.547 275.998 153.47 274.4ZM84.4124 252.867C84.4124 252.611 84.3868 252.368 84.3868 252.113C83.2614 252.164 82.1361 252.215 81.0107 252.266C80.9851 253.532 83.4405 252.599 84.4124 252.867ZM131.742 253.813C131.781 253.583 131.806 253.353 131.845 253.123C130.54 252.995 129.249 252.854 127.944 252.726C127.919 252.944 127.906 253.161 127.88 253.379C129.172 253.519 130.451 253.673 131.742 253.813ZM94.17 225.286C92.84 226.143 95.6279 228.125 96.0371 229.365C96.9962 228.496 94.5409 226.514 94.17 225.286ZM105.616 136.048C106.434 136.803 108.608 136.112 109.887 136.342C109.887 136.176 109.874 136.023 109.861 135.856C108.442 135.92 107.022 135.984 105.616 136.048ZM153.521 281.138C153.342 281.164 153.163 281.189 152.971 281.215C153.176 282.686 153.393 284.156 153.598 285.639C154.365 284.821 153.381 282.481 153.521 281.151V281.138ZM159.915 126.867C159.199 127.519 159.864 129.629 159.647 130.78C160.363 130.115 159.698 128.018 159.915 126.867ZM112.099 255.22C111.319 255.91 113.263 257.394 113.583 258.327C113.762 258.199 113.954 258.071 114.133 257.931C113.455 257.023 112.777 256.115 112.099 255.207V255.22ZM169.174 108.672C169.059 108.659 168.944 108.646 168.816 108.621V111.255C168.931 111.255 169.046 111.255 169.174 111.255V108.672ZM164.903 72.6519C164.673 72.6519 164.43 72.6519 164.2 72.6519C164.327 76.3089 164.762 76.3217 164.903 72.6519Z" fill="#49176D"/>
<path d="M205.89 535.452C206.875 503.537 204.496 471.698 204.675 439.77C205.327 436.113 190.8 438.478 187.858 437.698C185.531 436.982 177.397 439.846 178.19 435.985C178.983 432.149 183.971 434.476 186.771 433.133C184.329 431.855 177.231 434.821 179.648 430.077C180.901 425.41 203.204 429.745 208.051 427.968C197.782 426.612 187.475 426.868 177.167 427.52C176.502 418.633 200.391 424.323 206.235 423.058C219.254 423.288 232.145 422.201 245.138 422.597C247.107 423.224 252.389 421.216 252.542 423.953C252.338 428.287 252.056 432.609 251.954 436.944C251.941 448.234 252.593 459.538 252.926 470.816C253.322 472.171 252.082 475.163 254.077 475.278C262.351 475.278 270.599 474.153 278.861 474.524C280.127 474.575 280.498 473.987 280.485 472.746C280.268 463.54 280.37 454.346 280.741 445.153C280.651 437.225 280.933 429.31 281.534 421.395C281.879 419.196 286.572 420.078 287.698 420.999C290.255 420.078 293.862 419.285 295.102 422.418C295.409 420.155 297.468 419.426 299.489 419.976C303.952 418.838 300 433.926 300.614 436.854C300.128 448.644 300.23 460.446 300.704 472.235C300.64 487.438 300.333 502.654 300.64 517.858C300.652 526.003 300.601 533.943 300.064 542.101C300.678 544.544 295.256 544.94 295.409 542.753C295.358 542.293 295.141 541.347 294.616 541.769C293.632 543.828 292.161 544.556 289.936 543.853C288.618 543.495 288.861 537.664 288.196 541.692C288.618 544.083 283.797 544.275 283.145 542.6C281.662 531.949 282.352 521.195 281.457 510.505C281.329 507.258 282.876 492.042 279.577 491.326C271.111 491.568 262.172 490.75 253.859 491.53C253.962 504.649 254.486 518.28 253.642 531.552C252.798 534.391 254.627 545.183 250.458 544.288C248.322 544.058 247.951 543.815 248.015 542.127C248.22 536.795 248.539 531.463 248.667 526.118C248.667 519.405 248.514 512.666 248.539 505.953C247.874 501.734 248.987 495.341 247.427 492.208C246.647 502.795 247.926 513.613 247.657 524.277C247.593 529.801 246.621 535.324 246.711 540.848C247.018 544.007 246.212 544.659 243.271 543.406C241.762 542.766 242.593 539.544 241.276 539.391C240.943 540.708 241.646 542.971 239.715 543.06C233.436 544.16 237.567 526.847 236.838 522.883C236.071 501.938 236.096 480.943 235.572 459.973C235.086 456.61 238.539 436.701 234.421 437.724C230.904 438.299 222.732 436.688 220.482 438.708C220.047 464.154 221.134 489.638 221.083 515.121C220.98 523.573 220.609 532.013 220.891 540.465C220.852 544.71 215.967 541.603 216.798 538.777C216.197 535.797 217.553 530.913 215.903 528.803C215.903 532.946 215.903 537.089 215.903 541.168C212.911 541.679 211.21 540.196 211.21 537.473C211.517 509.815 211.798 482.183 210.238 454.538C209.483 451.559 209.177 455.753 209.253 456.904C209.164 468.284 210.212 479.626 210.673 490.98C211.159 508.511 209.42 526.054 210.391 543.559C205.903 542.996 205.621 539.825 206.095 535.9C204.662 536.948 203.754 537.613 202.77 538.342C201.772 536.705 198.511 526.195 198.805 531.054C198.933 533.317 203.319 538.559 200.199 539.454C197.398 540.286 197.948 540.567 196.682 537.818C195.595 535.465 194.828 532.972 193.869 530.568C191.695 526.668 182.014 497.68 178.369 499.867C177.129 499.969 173.024 500.084 176.413 500.519C179.584 500.378 179.84 500.519 181.08 503.345C185.966 514.648 191.234 525.811 195.263 537.447C198.588 541.257 193.703 542.907 192.066 540.119C187.27 529.263 182.756 518.254 178.101 507.296C176.745 503.767 166.169 506.363 162.524 505.647C157.332 505.723 152.127 505.864 146.935 506.03C144.595 506.503 141.052 505.378 139.492 507.475C136.871 514.725 133.699 521.732 130.528 528.752C128.533 532.396 128.277 541.5 123.545 542.025C119.005 542.204 125.31 532.358 125.54 529.685C129.53 518.42 136.538 506.081 139.237 495.417C133.917 507.066 128.417 518.702 124.082 530.76C122.394 533.381 122.19 542.677 117.829 540.171C115.22 539.084 119.657 532.447 119.785 530.107C120.258 526.681 118.225 531.041 117.841 532.256C116.563 534.672 116.818 540.605 112.739 538.329C110.526 536.999 114.785 530.657 114.99 528.266C116.729 523.241 118.302 518.152 120.233 513.203C132.945 484.178 146.257 455.446 157.972 426.05C172.793 462.683 193.178 498.806 205.864 535.376L205.89 535.452ZM146.232 493.103L146.539 493.346C147.792 488.858 152.498 489.791 156.168 489.459C157.997 488.781 170.798 490.597 168.88 487.86C164.647 480.265 162.32 472.005 158.24 464.307C154.122 474.166 150.171 483.641 146.219 493.116L146.232 493.103ZM153.751 450.178C143.265 472.465 131.602 497.105 122.19 520.684C128.724 509.956 133.149 495.826 139.249 484.101C143.623 472.606 150.414 462.006 153.739 450.178H153.751ZM283.286 479.587C284.795 481.39 289.309 480.265 291.828 480.227C294.233 479.92 292.66 483.59 293.593 484.983C294.808 480.252 294.258 472.772 293.44 467.274C291.368 471.634 297.008 481.275 288.542 479.344C284.577 475.636 289.002 465.381 286.368 461.175C285.69 466.634 286.406 472.312 286.329 477.836C286.623 479.933 284.667 479.165 283.298 479.575L283.286 479.587ZM163.317 450.626C162.652 450.485 162.857 451.585 162.934 451.955C165.453 457.824 168.202 463.591 171.093 469.281C174.251 475.585 176.31 483.359 180.761 488.602C180.39 483.769 176.042 479.191 174.341 474.46C170.658 466.519 167.205 458.464 163.317 450.626ZM221.159 433.709C221.031 432.187 217.847 433.312 216.555 433.031C214.701 433.121 214.458 433.453 214.535 435.371C215.648 443.887 213.614 454.474 215.775 462.006C216.095 453.119 215.366 444.156 215.673 435.23C216.006 433.146 219.561 434.335 221.147 433.709H221.159ZM194.866 519.891C194.828 514.521 189.316 507.462 187.385 501.593C185.825 498.985 185.428 495.724 182.781 493.947C186.95 502.897 190.915 511.401 194.866 519.891ZM158.138 439.207C164.391 455.165 162.742 446.892 158.394 436.816C157.281 437.609 153.739 447.749 154.199 449.155C155.542 445.767 156.757 442.685 158.125 439.207H158.138ZM209.189 452.058C210.877 451.828 209.343 448.145 209.726 446.649C209.292 442.378 210.711 437.443 209.177 433.53C207.834 439.386 208.729 446.01 209.189 452.07V452.058ZM246.775 480.201C247.056 480.188 247.337 480.163 247.606 480.15C247.312 473.897 247.018 467.657 246.723 461.405C244.588 466.468 246.775 474.281 246.762 480.201H246.775ZM149.595 473.961C145.989 479.178 143.572 487.093 140.375 493.205C140.605 493.307 140.835 493.41 141.078 493.512C143.789 486.94 147.843 480.956 149.608 473.961H149.595ZM158.611 452.633C156.654 454.589 153.585 460.1 154.327 462.735C155.58 459.947 156.846 457.147 158.253 454.027C164.238 466.929 163.228 461.699 158.611 452.62V452.633ZM241.429 481.096V464.589C239.05 468.642 240.598 476.02 241.429 481.096ZM216.185 483.449C218.371 478.782 215.891 470.956 216.389 465.279L215.545 465.305C215.75 471.353 215.967 477.401 216.172 483.449H216.185ZM167.614 473.718C167.166 475.802 172.282 487.195 174.52 488.986C173.113 483.96 169.699 478.795 167.614 473.718ZM229.242 428.441C226.94 427.328 215.392 426.855 213.896 428.939C219.011 428.773 224.126 428.607 229.242 428.441ZM246.455 446.189C247.99 441.585 246.391 436.995 246.468 432.405C245.713 437.008 246.122 441.598 246.455 446.189ZM216.722 498.78C214.855 501.35 216.517 506.938 216.722 510.454V498.78ZM249.78 485.405C252.107 486.556 258.924 486.518 260.433 485.405H249.78ZM246.647 458.285V448.618C245.406 450.383 245.406 456.367 246.647 458.285ZM231.812 427.533V427.929H243.884V427.533H231.812ZM286.866 487.272C288.849 483.168 281.086 485.226 278.989 484.996C281.815 486.71 285.779 484.613 286.866 487.272ZM167.128 472.12C165.645 469.358 164.903 466.596 163.279 464.256C162.908 465.982 165.504 471.481 167.128 472.12ZM293.938 432.545C295.256 431.484 296.023 425.142 294.552 423.94C294.348 426.804 294.143 429.681 293.938 432.545ZM216.338 488.167V496.133C217.425 494.791 217.451 491.044 216.338 488.167ZM272.096 485.699C267.594 484.229 265.305 484.306 264.704 485.699H272.096ZM149.813 472.018C151.718 470.892 153.764 466.2 153.202 464.41C151.987 467.146 150.9 469.575 149.813 472.018ZM241.122 439.501C241.57 437.903 242.158 432.379 239.639 433.555C242.068 435.115 239.549 437.724 241.122 439.501ZM242.273 513.689C241.467 516.119 242.26 519.904 241.992 522.781C242.797 520.453 241.992 516.541 242.273 513.689ZM164.813 494.701H158.649C159.788 495.724 163.419 495.762 164.813 494.701ZM146.564 495.225C147.754 495.916 153.956 495.75 154.57 495.225H146.564ZM286.866 496.53C287.685 496.402 287.723 490.072 286.662 489.996C286.01 492.093 286.764 494.343 286.866 496.53ZM294.322 434.936C294.169 437.008 293.082 439.028 293.657 441.521C295.268 439.233 294.066 437.021 294.322 434.936ZM241.301 456.853C241.455 456.84 241.608 456.827 241.762 456.802C241.621 455.305 241.467 453.809 241.327 452.313C239.971 452.863 240.879 456.456 241.301 456.84V456.853ZM230.239 433.453H225.469C226.108 435.103 228.909 433.901 230.239 433.453ZM169.11 501.056C167.461 499.854 166.706 499.905 166.079 501.056H169.11ZM171.975 495.161C171.975 495.046 171.975 494.919 171.975 494.803H168.637C168.637 494.919 168.637 495.046 168.637 495.161H171.975Z" fill="#49176D"/>
<path d="M413.524 506.042C414.176 514.75 412.769 523.368 412.437 532.051C411.503 537.331 413.23 548.571 404.828 546.845C403.127 538.354 406.273 528.815 406.401 520.031C407.552 498.294 409.009 476.429 406.644 454.717C405.8 443.439 405.633 432.123 404.521 420.871C404.559 419.797 403.792 417.482 405.621 417.917C407.219 418.595 410.109 418.262 410.531 420.334C411.145 435.256 412.155 450.203 413.882 464.997C422.808 438.158 439.612 423.07 468.271 420.385C475.829 421.241 483.72 420.755 490.702 424.106C495.293 425.295 494.283 431.803 489.513 429.898C458.475 417.533 423.115 438.861 419.24 471.953C417.501 490.737 416.644 506.516 429.816 521.834C440.456 533.879 455.777 543.571 472.376 541.551C494.385 539.185 515.78 522.435 517.903 499.521C516.305 497.59 514.911 508.83 513.9 510.3C506.227 529.391 484.359 541.589 464.14 540.068C441.837 537.856 423.115 517.487 419.79 495.788C419.483 485.635 420.238 475.239 422.182 465.291C424.688 455.024 431.568 446.751 438.474 439.092C443.589 433.414 451.595 431.113 458.718 429.054C468.501 426.804 479.602 427.392 489.001 431.266C490.37 431.918 491.866 435.499 491.214 436.854C488.861 438.439 485.523 435.767 482.952 435.422C430.686 419.988 404.022 498.025 445.763 525.849C451.199 529.877 459.728 534.48 465.969 533.662C454.703 530.9 444.971 524.762 436.799 516.63C417.68 493.345 425.801 449.564 454.83 438.145C459.255 436.419 463.565 434.028 468.476 434.872C475.727 436.368 490.331 434.45 490.267 444.82C484.142 443.503 478.054 441.253 471.481 441.534C465.854 439.82 460.713 442.186 455.764 444.551C438.679 451.686 431.798 472.158 432.796 489.445C433.947 504.201 444.651 518.74 458.36 524.34C462.158 525.555 468.527 527.818 471.673 525.632C444.715 525.977 428.064 496.094 435.43 471.749C440.559 451.827 457.248 439.974 477.786 442.71C480.753 443.477 490.318 444.884 488.106 449.244C487.825 450.702 487.543 450.842 486.149 450.216C445.648 432.864 422.13 492.565 455.508 514.635C460.598 518.676 467.069 519.532 473.438 518.893C476.712 520.453 485.152 516.796 486.52 513.523C473.962 523.202 454.843 517.346 446.659 504.585C434.74 485.75 441.492 455.893 464.358 449.398C469.064 447.492 490.012 447.224 485.855 455.701C485.663 456.673 485.088 456.545 484.333 456.392C474 453.246 461.979 453.796 454.524 462.542C445.955 472.989 443.014 490.762 451.902 501.759C457.618 509.61 467.913 513.318 477.389 511.95C483.809 509.955 486.674 503.792 489.142 498.038C489.807 496.465 492.902 494.867 493.605 496.798C492.275 501.874 490.255 506.886 488.375 511.554C490.728 511.272 497.595 493.563 494.36 494.24C489.104 495.724 489.999 493.908 489.666 489.586C489.807 487.054 498.58 488.128 500.741 488.013C502.672 490.571 501.79 495.135 502.25 498.358C501.854 502.68 499.513 506.477 498.477 510.774C503.849 504.24 504.411 494.982 502.263 487.118C502.135 486.262 501.675 486.121 500.818 486.223C497.723 486.044 491.431 488.333 489.283 486.364C488.822 483.755 488.413 482.247 491.405 481.351C487.403 481.646 488.426 479.996 487.876 476.761C489.96 474.127 497.352 475.099 500.805 474.037C506.035 473.462 501.406 472.529 498.772 473.053C495.101 473.5 491.457 474.127 487.786 474.6C485.83 474.229 486.047 471.327 485.561 469.78C491.022 466.506 499.066 467.44 505.422 466.084C510.639 466.212 521.446 460.675 521.382 469.46C524.758 485.136 527.917 499.291 520.307 514.494C509.782 539.249 480.957 552.496 455.061 546.615C439.996 543.034 427.412 531.13 419.368 518.254C416.759 514.878 416.529 508.28 413.524 506.042ZM482.019 523.803C488.49 523.496 492.978 518.509 496.367 513.574C492.633 515.185 490.101 521.054 485.19 522.243C481.341 524.302 476.839 524.775 472.645 525.67C475.471 526.719 479.64 525.811 482.006 523.79L482.019 523.803ZM500.639 480.034C501.534 482.042 506.099 479.267 507.25 481.249C510 487.937 510.422 494.956 508.657 501.951C506.918 513.05 497.966 522.269 488.758 527.933C484.679 531.552 475.126 531.015 474.742 533.38C493.285 531.616 508.056 515.824 511.253 497.949C510.844 492.169 510.614 486.3 509.655 480.584C509.284 478.372 502.288 479.51 500.639 480.022V480.034ZM516.343 476.991C516.1 477.017 515.857 477.055 515.614 477.081C516.356 482.541 517.11 488.013 517.852 493.473C519.924 489.381 516.854 482.004 516.343 476.978V476.991ZM508.874 472.657C511.266 473.807 513.99 472.567 515.652 474.945C516.317 470.278 511.854 472.26 508.874 472.657ZM473.041 533.738C472.197 532.434 469.972 533.278 469.384 534.211C470.778 534.032 471.916 533.879 473.041 533.738Z" fill="#49176D"/>
<path d="M67.877 543.393C68.2223 511.49 65.0891 479.728 66.2657 447.851C66.3808 440.204 65.7158 432.187 66.2017 424.656C68.5676 423.326 72.4297 423.633 75.2048 423.07C75.435 423.045 75.6907 423.134 75.9209 423.109C79.3866 422.009 77.43 426.817 77.852 428.722C78.5042 434.744 79.6168 426.254 79.0925 423.991C79.0413 422.84 79.3866 422.354 80.5631 422.546C96.2802 423.339 110.168 432.507 117.829 446.188C124.172 458.131 123.302 472.299 119.325 484.587C124.325 502.91 116.882 522.947 101.242 533.713C91.7275 541.73 79.3994 541.001 67.877 543.38V543.393ZM86.2156 518.881C83.4789 510.275 93.9782 510.863 95.5896 502.079C97.1242 496.734 96.3569 490.008 93.5306 485.328C90.8451 482.886 87.7503 478.973 84.2718 478.142C96.1139 486.019 100.897 504.112 85.5123 511.515C84.3102 504.777 88.4025 504.265 88.8756 498.793C88.8756 494.484 88.2746 489.97 85.0135 486.812C84.2718 485.865 83.3638 486.185 84.1055 487.298C89.3488 492.783 86.6504 500.302 84.502 506.362C84.6554 510.646 84.8984 514.929 85.1286 519.2C85.2054 520.556 85.589 520.709 86.8934 520.134C110.667 510.186 106.613 478.577 84.1439 470.7C88.428 474.907 94.9757 476.787 97.559 482.784C105.513 496.606 101.856 512.973 86.2029 518.868L86.2156 518.881ZM79.4505 523.778C77.7753 523.97 78.9902 527.448 78.8495 528.79C84.2079 530.695 94.9502 524.916 98.9657 520.811C113.263 508.613 113.583 487.95 101.626 474.114C98.0833 467.823 72.5831 458.336 91.4205 467.798C109.67 476.876 115.706 504.342 99.8865 518.497C95.0525 523.803 87.8398 526.54 80.7933 527.818C78.517 528.24 79.7319 525.069 79.4378 523.778H79.4505ZM84.9752 457.632C92.4436 462.568 103.94 465.202 108.723 474.524C117.1 487.221 117.624 498.268 112.905 512.398C117.151 506.682 116.575 498.013 116.908 490.942C116.205 486.697 113.851 482.758 112.368 478.718C107.687 467.453 96.229 460.88 84.9752 457.645V457.632ZM73.5679 528.164C71.5217 528.688 73.2098 533.278 72.6855 535.299C72.6087 538.546 82.4558 534.941 84.8345 535.171C95.4233 533.368 104.401 526.246 110.424 517.589C116.026 508.063 106.473 521.297 103.749 524.008C96.05 531.782 85.6018 534.583 75.0002 535.567C72.046 535.503 74.1817 530.222 73.5551 528.189L73.5679 528.164ZM111.601 468.859C117.368 455.893 99.3494 434.693 84.7322 435.473C86.8551 437.493 90.3207 437.353 92.9424 438.759C105.194 443.12 112.509 456.226 111.601 468.859ZM105.999 462.389C103.454 452.735 94.9757 442.889 84.6043 442.429C92.3797 446.329 102.073 450.229 103.659 460.177C103.902 461.289 104.605 461.839 105.999 462.389ZM114.12 449.308C114.286 449.193 114.44 449.078 114.606 448.963C108.352 438.99 97.6485 429.157 85.3844 429.182C97.6997 431.944 106.971 438.862 114.12 449.321V449.308ZM116.857 477.273C120.86 470.649 118.686 458.208 115.821 451.29C115.552 450.894 115.169 450.28 114.657 450.702C118.174 459.346 119.082 468.169 116.857 477.273ZM78.1078 446.841C77.9543 446.841 77.8008 446.841 77.6474 446.841C78.0566 454.845 75.5117 465.087 78.1078 472.056V446.841ZM71.6368 468.846C71.7647 468.846 71.8926 468.846 72.0205 468.846V444.807C71.8542 444.807 71.7007 444.807 71.5345 444.807C71.4322 452.825 69.9871 460.829 71.6368 468.846ZM95.3082 455.74C94.2724 452.505 88.4153 449.334 84.7194 449.257C87.8014 451.942 91.753 453.694 95.3082 455.74ZM77.7881 502.603H78.4147C77.8648 497.987 79.8214 491.555 77.7881 487.796V502.603ZM78.1589 474.728C76.5859 476.851 76.7266 484.267 78.1589 485.188V474.728ZM79.1308 513.216C78.8751 513.216 78.6321 513.216 78.3763 513.216C78.76 521.885 79.2715 521.924 79.1308 513.216ZM78.4658 436.675C78.2484 436.675 78.0438 436.675 77.8264 436.662C77.9031 441.534 78.6577 441.598 78.4658 436.675ZM72.4425 476.723C72.1995 476.723 71.9437 476.723 71.7007 476.71C71.445 481.07 72.4041 481.07 72.4425 476.723ZM72.3657 510.71C72.5448 510.71 72.7238 510.71 72.9157 510.71C72.8645 509.943 72.8133 509.163 72.775 508.395C71.9309 508.395 72.5576 510.032 72.3785 510.697L72.3657 510.71Z" fill="#49176D"/>
<path d="M399.276 262.892C400.517 254.338 403.842 243.929 412.768 240.694C411.298 246.346 414.316 251.346 413.97 256.997C435.289 244.377 461.492 265.705 460.098 288.695C457.387 302.531 456.569 316.979 449.177 329.293C444.33 339.011 438.46 347.616 427.871 351.427C444.675 349.931 461.595 351.043 478.399 352.335C482.708 352.654 487.044 352.705 491.328 353.396C496.277 354.189 506.15 353.153 504.525 360.799C503.336 362.602 500.51 361.656 498.668 361.694C487.785 360.429 476.902 359.457 465.955 359.048C429.112 355.071 392.217 361.694 355.387 362.129C348.11 362.385 340.846 362.155 333.569 362.027C329.362 361.567 322.674 364.213 320.333 359.661C318.901 356.043 319.681 355.135 323.492 355.212C333.122 354.636 342.764 354.214 352.407 354.917C374.467 355.761 397.013 353.792 418.715 351.452C405.402 346.645 411.758 342.77 401.783 350.48C374.838 362.679 354.466 325.176 352.01 302.889C350.361 288.695 352.202 267.994 367.868 262.496C377.728 259.388 388.163 261.37 396.207 267.597C395.785 260.718 383.841 251.627 384.723 245.962C391.041 249.453 395.542 256.55 399.276 262.892ZM450.29 284.105C450.405 284.092 450.52 284.079 450.635 284.067C452.067 266.536 427.091 256.422 415.173 268.671C408.395 273.825 406.042 288.133 403.266 285.601C394.251 280.154 388.368 265.756 375.746 268.953C364.735 269.426 361.423 278.99 361.602 288.491C359.325 302.94 364.3 318.258 371.832 330.546C377.178 337.297 382.818 344.982 391.91 346.414C400.363 349.483 404.776 335.405 412.743 340.034C428.703 349.956 441.542 330.009 446.018 316.826C447.885 312.555 447.86 307.824 448.729 303.311C449.765 296.917 451.799 290.588 450.29 284.105Z" fill="#49176D"/>
<path d="M171.732 329.293C171.067 323.181 171.323 316.979 171.106 310.829C171.899 308.783 175.045 309.908 176.797 309.448C180.032 309.333 177.628 326.582 178.523 329.996C180.275 347.399 179.776 364.942 179.508 382.396C179.38 401.064 201.414 403.57 208.665 387.792C213.295 377.626 211.325 366.272 212.067 355.454C212.502 340.34 212.361 325.316 211.722 310.228C212.425 308.284 215.149 309.345 216.722 309.167C219.075 309.243 217.336 319.166 219.05 321.787C220.316 318.539 216.556 309.512 220.968 309.013C224.216 308.476 224.638 308.757 224.715 311.826C225.482 319.984 223.858 329.139 225.572 336.811C226.237 328.628 225.879 320.393 225.687 312.197C225.163 308.463 227.516 309.282 230.265 309.103C235.099 308.502 231.953 318.961 232.746 322.068C232.567 329.664 232.516 337.272 232.273 344.867C230.956 356.477 232.49 368.139 231.876 379.762C231.186 400.169 215.916 419.605 194.739 420.935C179.495 421.523 165.466 410.782 160.747 396.512C156.808 384.045 157.665 370.939 157.077 358.063C157.614 349.713 157.55 341.338 157.281 332.962C157.857 327.515 154.545 313.923 157.537 310.432C165.325 309.077 161.911 314.192 162.857 319.332C164.328 326.927 162.793 335.724 164.903 342.757C165.044 334.318 164.034 325.776 164.047 317.286C164.507 315.33 162.052 309.499 165.402 309.972C167.09 310.586 170.095 308.476 169.686 311.468C169.929 317.465 169.597 323.539 171.029 329.408C171.259 329.369 171.489 329.331 171.72 329.293H171.732ZM164.763 356.17C162.256 359.827 164.43 367.18 164.047 372.026C163.458 382.319 164.788 393.175 170.722 401.87C186.887 424.886 220.508 411.741 224.817 386.487C220.687 391.717 219.28 398.967 214.254 403.788C204.062 413.672 185.685 416.14 175.415 405.028C162.729 392.267 165.338 372.473 164.763 356.183V356.17ZM182.973 403.506C178.472 395.604 173.037 392.037 173.037 380.26C172.615 364.597 172.794 348.933 172.039 333.282C171.425 326.94 170.722 336.492 170.978 338.857C171.745 351.209 171.259 363.587 171.694 375.951C171.195 386.283 174.226 397.241 182.973 403.506ZM218.5 373.905C216.901 390.196 209.356 409.018 187.961 404.363C182.782 402.726 184.662 404.849 188.524 405.757C201.952 409.606 214.484 399.632 217.042 386.487C218.615 379.161 220.149 383.61 218.487 373.905H218.5ZM224.549 348.69C224.05 354.674 224.945 360.633 224.485 366.937C225.943 365.607 225.943 350.646 224.549 348.69ZM225.06 381.245V369.826C223.679 371.195 223.769 379.621 225.06 381.245ZM218.052 368.65C218.18 368.65 218.321 368.65 218.449 368.65V364.2C218.321 364.2 218.18 364.2 218.052 364.2V368.65ZM218.487 339.714C217.553 339.893 218.321 342.079 218.091 343C218.218 343 218.359 343 218.487 343V339.714Z" fill="#49176D"/>
<path d="M353.955 110.155C353.776 113.902 351.717 116.804 347.714 116.293C337.688 116.114 327.662 116.139 317.649 115.769C309.733 118.019 346.052 117.546 350.208 117.252C351.538 117.469 354.428 115.833 354.492 118.006C354.722 121.28 353.239 122.814 349.914 122.686C346.845 122.584 343.712 122.328 340.732 122.852C331.243 123.62 320.181 120.845 311.446 123.39C323.889 124.502 336.691 123.031 349.198 123.748C352.305 123.709 350.502 126.369 349.837 128.018C346.691 130.819 340.962 128.824 336.921 129.617C330.655 129.067 324.324 129.45 318.032 129.348C315.385 129.514 317.201 134.642 316.6 136.585C317.048 146.866 316.05 157.121 315.846 167.388C315.846 167.721 316.472 168.36 316.817 168.36C323.659 168.411 330.501 168.411 337.343 168.36C340.016 169.089 353.162 165.624 349.927 171.045C349.236 172.426 348.354 173.181 346.538 173.078C341.678 173.002 336.767 173.488 331.882 173.385C335.514 175.265 355.976 171.186 348.047 178.73C333.136 179.05 317.917 177.72 303.236 179.83C317.495 180.853 332.905 178.41 347.484 179.945C349.07 180.277 350.848 185.226 348.085 185.085C340.719 185.494 333.379 185.98 326.012 185.366C317.342 185.098 308.684 184.97 300.039 185.763C297.251 185.763 299.348 180.098 298.875 178.206C300.921 150.574 298.236 122.916 297.929 95.2845C297.162 87.4335 297.584 79.6464 298.313 71.8082C298.53 68.1128 298.645 64.4047 298.76 60.7093C299.233 58.1904 303.044 60.3769 304.809 59.9166C314.298 59.7376 323.8 59.8782 333.302 59.8271C337.036 60.428 344.978 57.7556 347.228 60.9139C346.589 62.8191 346.014 65.7984 343.417 65.1847C338.289 65.7729 330.859 64.149 326.831 66.0286C333.123 66.4506 339.415 66.6168 345.707 66.962C346.014 66.9748 346.308 67.5886 346.576 67.9594C346.576 70.977 346.461 71.7954 343.302 71.6675C339.798 71.6675 336.294 71.8593 332.803 71.8593C325.181 71.7826 317.559 71.6036 309.925 71.7187C308.825 71.7187 307.968 71.936 308.032 73.2786C308.505 76.5776 307.597 80.1578 308.965 83.1755C310.167 80.81 307.405 72.6777 310.564 72.8695C318.467 73.1252 326.383 73.0485 334.286 73.074C337.765 73.2658 342.931 71.8465 345.476 74.5317C346.87 79.0198 346.819 79.0198 342.535 79.0966C333.596 79.2884 324.606 80.1834 315.679 79.3267C311.702 78.112 314.554 85.6817 314.106 87.8426C314.375 93.4176 314.759 98.9798 315.296 104.529C315.807 106.179 314.119 109.861 316.754 109.874C319.836 109.797 322.905 109.759 325.987 109.772C335.31 110.079 344.76 109.644 354.019 110.155H353.955ZM303.901 65.6706C301.343 64.0339 303.147 81.9224 302.827 83.8788C302.661 94.6451 302.673 106.076 304.182 116.51C305.244 99.6703 302.75 82.6385 303.901 65.6706ZM303.722 171.928C306.906 160.739 305.18 145.408 305.154 132.839C305.653 129.553 303.223 125.525 305.679 122.852C301.676 120.397 304.796 135.345 304.195 137.608C305.001 149.052 304.157 160.509 303.722 171.928ZM310.871 151.942C312.751 148.387 310.449 141.547 310.871 136.918C310.193 134.923 311.766 121.932 309.873 122.865C308.748 132.174 310.487 142.378 310.871 151.929V151.942ZM309.515 101.882C310.283 100.412 309.426 87.101 308.39 85.963C308.172 91.5635 308.479 96.7421 309.515 101.882ZM307.699 65.4532C310.04 67.3968 322.879 65.8624 323.263 65.4532H307.699ZM310.41 160.714C309.464 164.665 310.487 168.987 309.221 173.027C309.451 174.408 311.191 173.986 312.226 173.82C310.116 172.644 310.001 172.426 310.321 169.971C310.564 166.966 310.334 163.949 310.41 160.714ZM316.562 173.334C321.472 174.268 325.181 174.101 325.821 173.334H316.562ZM310.948 116.178C310.41 114.503 311.05 111.626 309.49 111.191C309.899 112.879 308.3 116.446 310.948 116.178Z" fill="#49176D"/>
<path d="M236.965 188.192C241.339 188.742 246.787 187.77 250.777 189.445C250.585 190.878 250.47 192.489 249.69 193.588C241.659 194.061 232.63 193.895 224.394 193.588C221.645 194.24 212.885 191.862 212.54 195.276C213.371 204.649 211.644 216.374 214.445 224.532C214.381 215.53 213 206.58 213.69 197.565C213.729 194.701 213.69 194.701 216.542 194.701C226.095 194.739 235.661 194.688 245.214 194.701C248.334 194.509 250.572 196.299 250.585 199.509C250.739 202.756 239.894 200.877 237.272 201.542C208.46 201.235 220.392 196.286 219.739 230.721C219.855 233.253 231.837 231.194 234.446 231.833C242.452 231.884 250.15 231.59 258.194 232.089C257.811 240.375 250.751 238.086 244.907 238.239C238.807 238.137 232.707 237.996 226.607 237.945C222.63 237.37 213.921 240.656 214.931 233.905C213.806 229.839 213.742 236.13 213.754 237.638C219.893 239.262 227.093 239.032 233.577 239.492C237.119 240.4 260.01 237.472 258.898 240.515C258.949 243.137 257.197 245.055 254.524 244.735C252.299 244.876 239.677 244.466 245.188 245.604C247.247 246.257 256.724 244.006 255.061 247.599C254.447 249.453 253.872 251.346 251.391 251.243C241.569 251.154 231.722 250.949 221.913 251.371C221.619 251.384 221.121 252.023 221.121 252.369C221.287 263.416 221.261 274.438 220.456 285.46C220.762 286.931 219.292 290.281 221.402 290.46C231.991 290.064 242.592 290.128 253.181 290.204C254.69 290.204 254.972 290.626 254.473 292.046C253.322 297.314 246.02 294.373 242.055 295.345C240.853 295.677 238.155 294.347 237.797 295.703C240.789 296.125 243.807 296.099 246.825 296.24C249.332 296.93 255.752 294.539 253.821 299.155C253.309 302.94 243.104 299.436 240.712 301.495C245.073 302.991 254.255 298.72 253.68 306.162C253.642 306.533 253.117 307.134 252.785 307.159C236.569 308.208 220.366 306.52 204.163 307.812C201.695 307.211 203.754 303.042 203.319 301.137C203.447 296.022 203.562 290.92 204.137 285.831C204.47 272.252 203.562 258.698 203.306 245.131C202.795 229.839 201.644 214.495 202.526 199.202C203.562 196.363 201.401 180.597 204.534 181.594C219.714 182.605 235.009 181.262 250.214 181.658C252.542 181.748 251.071 184.19 250.611 185.443C247.861 189.484 240.968 186.031 236.786 187.77C236.838 187.924 236.876 188.065 236.927 188.218L236.965 188.192ZM209.342 238.431C207.028 221.655 209.547 204.035 207.872 187.476C206.005 192.438 207.463 198.473 207.373 203.779C207.066 210.556 207.066 217.308 207.539 224.085C208.243 226.284 206.337 239.876 209.342 238.418V238.431ZM208.128 293.12C212.514 279.221 208.294 260.22 209.598 244.556C206.452 244.172 209.227 253.507 208.639 255.719C208.869 268.224 208.908 280.614 208.115 293.107L208.128 293.12ZM215.008 244.85C212.309 244.211 214.816 256.844 214.522 258.992C215.033 263.749 214.279 268.825 215.519 273.415C216.836 264.554 214.573 254.299 215.02 244.85H215.008ZM241.838 245.553C241.838 245.336 241.863 245.131 241.863 244.914C233.653 245.31 223.346 242.561 216.095 245.553H241.838ZM210.813 301.738C210.787 301.866 210.775 302.006 210.749 302.134C220.366 301.904 229.945 301.418 239.574 301.712C231.94 299.219 219.842 300.741 210.8 301.725L210.813 301.738ZM225.942 187.937C225.942 187.77 225.955 187.617 225.967 187.451H212.322C212.322 187.617 212.322 187.77 212.322 187.937H225.942ZM231.812 295.703C229.139 294.526 224.164 295.677 220.724 295.281C220.724 295.421 220.724 295.562 220.724 295.703H231.812ZM216.734 295.843C214.292 293.618 215.391 294.015 214.765 290.434C213.601 292.877 212.834 296.917 216.734 295.843ZM215.2 283.172C214.343 284.169 214.189 288.299 215.2 289.45V283.172ZM236.211 188.423C236.364 186.863 233.679 187.042 232.323 188.001C233.819 188.167 235.022 188.295 236.211 188.423Z" fill="#49176D"/>
<path d="M347.382 446.125C356.628 466.762 369.838 485.418 379.417 505.941C384.494 515.633 392.244 527.397 388.343 538.201C383.957 532.115 382.064 524.801 378.867 518.101C373.202 508.281 367.843 498.269 363.188 487.911C359.211 480.316 354.352 473.181 350.605 465.471C348.776 470.611 351.385 478.603 351.078 484.689C351.679 502.488 352.101 520.211 352.088 537.971C352.088 538.79 351.666 539.787 351.103 540.414C345.783 546.679 347.65 538.777 347.356 534.57C347.126 534.57 346.896 534.57 346.666 534.57C346.052 537.485 348.431 543.022 344.479 543.828C342.97 543.776 340.719 546.334 340.515 543.636C338.916 543.137 333.685 549.492 333.276 543.904C333.481 510.697 331.051 478.027 330.207 444.961C330.207 439.501 330.45 434.029 330.233 428.569C330.706 425.743 328.621 421.152 331.32 419.413C333.762 419.068 339.862 419.656 341.755 421.216C344.773 426.791 347.74 432.405 351.001 437.865C358.828 451.828 366.309 465.982 374.25 479.882C378.803 487.298 382.819 495.008 386.706 502.782C391.464 509.112 390.85 516.362 389.482 523.855C379.775 502.846 368.329 482.874 356.82 462.798C353.418 457.428 351.155 451.175 347.344 446.189C347.344 444.565 344.364 439.169 343.123 438.913C343.75 441.253 342.51 443.644 343.967 445.882V441.713C345.732 442.749 346.205 444.641 347.369 446.163L347.382 446.125ZM336.563 430.065C336.115 433.249 335.578 436.317 336.397 439.655C337.496 437.788 337.535 431.267 336.563 430.065ZM339.798 511.477C339.85 509.47 340.156 507.45 339.261 505.57C339.21 507.565 338.545 509.623 339.798 511.477ZM338.366 470.394C337.918 468.412 338.775 466.251 337.586 464.371C337.586 466.417 337.369 468.489 338.366 470.394ZM338.699 474.281C338.532 475.956 337.369 479.69 339.428 480.112L338.699 474.281ZM346.384 515.441C347.842 515.339 346.691 512.168 347.037 510.902C345.988 511.413 346.742 514.163 346.384 515.441Z" fill="#49176D"/>
<path d="M392.23 127.686C402.205 131.164 393.65 123.402 403.241 125.141C399.622 122.673 395.133 121.689 401.553 118.479C410.249 120.896 419.802 126.138 422.756 135.23C428.843 147.441 422.245 162.312 409.29 166.365C405.441 167.452 401.387 169.025 397.333 168.731C394.839 168.769 395.108 166.838 393.969 164.882C401.195 161.813 412.679 162.811 416.247 154.845C410.697 159.345 404.481 161.455 397.358 161.954C395.632 161.494 394.532 156.647 397.256 156.942C404.29 156.162 414.431 153.924 413.05 144.73C412.73 139.961 410.786 135.562 406.528 133.222C403.829 131.688 400.402 129.297 397.294 130.026C399.072 132.429 402.806 132.289 405.249 133.887C411.144 136.304 412.717 143.707 410.991 149.474C408.561 154.678 402.039 155.343 396.949 155.612C394.212 155.663 394.468 149.525 397.665 150.599C411.86 150.753 408.344 138.478 397.665 135.179C394.532 133.376 398.637 131.087 391.079 132.864C392.537 133.721 395.824 133.465 394.737 135.626C390.529 142.863 374.978 132.736 369.85 129.54C353.059 117.891 348.775 92.3306 358.648 74.9279C366.487 60.5941 382.076 52.0398 398.279 52.0014C399.98 51.9503 400.069 53.2673 400.415 54.2647C403.318 59.2898 381.437 56.7197 373.406 64.852C368.763 68.688 363.009 73.3168 361.499 79.2242C366.167 73.1761 370.618 67.0386 377.638 63.4711C380.938 61.3101 404.558 53.6637 399.532 62.9085C396.284 65.3507 391.22 64.2638 387.319 65.3507C382.46 66.0923 378.367 68.6241 374.659 71.5906C352.727 88.9932 364.697 123.261 391.015 127.622C383.47 123.287 372.651 119.809 368.482 110.436C357.164 90.8217 370.656 66.7956 393.138 65.6704C395.657 65.8494 400.926 63.9698 401.604 67.3199C401.694 68.3684 400.734 69.5064 399.366 69.7749C397.051 70.2352 394.698 70.4654 392.422 71.0408C373.393 74.1479 363.597 93.0338 374.531 109.631C379.365 117.533 388.099 120.806 396.527 123.377C397.051 123.568 397.793 124.387 397.716 124.783C397.742 129.297 393.049 125.64 392.23 127.686ZM387.076 132.366C384.736 129.527 378.406 128.67 375.017 126.023C361.781 118.057 354.722 100.667 359.351 85.8094C359.517 84.3133 361.742 81.577 360.246 80.6691C349.798 101.307 364.837 127.967 387.076 132.366ZM416.758 154.435C425.16 146.137 417.257 126.573 404.673 125.729C417.104 131.892 422.334 140.792 416.758 154.435Z" fill="#49176D"/>
<path d="M243.987 416.153C242.388 417.534 238.539 420.948 238.168 417.201C237.618 406.69 237.657 396.154 237.542 385.631C237.58 367.269 235.853 349.035 235.419 330.648C235.291 323.82 235.227 317.005 235.188 310.177C235.483 306.929 240.163 309.499 242.12 309.141C244.588 309.141 245.56 310.394 246.532 312.184C251.826 322.004 257.223 331.761 262.645 341.504C269.027 353.268 276.137 364.648 281.802 376.782C287.186 385.887 288.35 388.048 286.675 398.852C279.424 385.107 272.288 368.228 263.668 356.81C268.183 366.131 273.925 374.801 277.979 384.352C282.813 392.881 288.171 401.627 285.92 411.792C281.534 407.215 280.664 400.911 277.761 395.528C268.809 380.107 262.019 363.651 252.645 348.46C253.399 368.778 254.614 389.365 253.732 409.785C254.921 412.866 253.067 414.388 250.701 416.153C249.473 414.631 250.611 410.859 250.24 408.57C247.657 409.567 251.468 415.999 247.734 416.754C246.25 416.971 244.639 418.71 244 416.14L243.987 416.153ZM252.172 334.868C251.609 336.837 261.354 354.304 263.566 355.505C259.768 348.626 255.97 341.747 252.172 334.868ZM240.265 325.086C240.56 325.112 240.854 325.124 241.148 325.15C240.93 322.963 242.823 318.731 240.624 317.542C240.508 320.061 240.381 322.567 240.265 325.086ZM247.043 325.099C246.314 327.209 247.082 328.462 249.358 329.485C248.604 328.065 247.913 326.748 247.043 325.099ZM243.092 385.772C243.258 385.772 243.424 385.746 243.59 385.733C243.488 384.889 244.371 382.6 242.798 382.843C242.9 383.815 243.002 384.8 243.092 385.772ZM246.826 332.694C246.941 332.694 247.056 332.694 247.171 332.694V328.666C247.056 328.666 246.941 328.666 246.826 328.666V332.694ZM249.946 388.15H249.499V390.503C249.652 390.503 249.793 390.503 249.946 390.503V388.15ZM242.542 361.004C242.734 361.004 242.925 360.978 243.105 360.965C242.977 359.955 242.862 358.932 242.734 357.922C241.711 358.05 242.695 360.121 242.542 361.004Z" fill="#49176D"/>
<path d="M479.217 368.854C486.046 370.031 493.016 369.992 499.922 370.466C500.791 370.504 501.175 370.772 501.124 371.642C501.431 374.608 501.136 376.616 497.773 376.565C480.368 377.076 463.001 373.522 445.545 374.864C414.687 375.67 383.79 376.386 352.957 376.846C348.609 375.772 316.433 379.02 318.671 375.056C319.413 373.355 319.86 370.772 322.124 370.657C329.861 370.159 337.585 370.171 345.309 370.632C349.35 370.555 370.349 370.657 357.701 369.494C346.997 370.031 336.383 369.225 325.692 369.328C323.722 368.918 320.269 369.865 319.361 367.729C319.528 366.233 319.464 363.676 321.254 363.254C359.658 364.507 397.742 360.377 436.056 359.443C451.99 359.034 467.912 360.096 483.795 361.336C486.916 362.346 504.039 361.477 501.904 365.734C500.791 369.813 501.379 369.417 497.441 369.136C494.09 368.893 490.714 369.046 487.351 368.88C485.061 369.276 480.368 366.885 479.217 368.854ZM453.845 367.154C441.44 365.837 426.605 368.062 413.382 367.64C372.881 369.008 444.062 369.507 453.845 367.154ZM388.726 368.42C380.631 368.343 372.561 369.328 364.479 369.724C369.697 371.028 384.084 370.248 388.726 368.42ZM467.03 367.537C467.03 367.755 467.03 367.959 467.03 368.177H477.555C474.076 367.052 470.547 367.55 467.042 367.537H467.03ZM462.387 367.422C462.413 368.471 464.625 367.652 465.508 367.895C465.508 367.742 465.508 367.576 465.508 367.422H462.387Z" fill="#49176D"/>
<path d="M311.689 428.645C312.29 426.458 310.052 418.454 313.556 419.502C317.176 420.231 317.393 420.615 317.227 424.464C317.176 425.96 316.741 435.064 318.275 430.524C319.004 427.225 315.794 417.712 321.958 420.896C323.787 420.704 323.851 421.881 323.889 423.198C324.427 453.157 326.294 483.078 326.639 513.011C326.511 522.691 325.744 532.345 325.168 541.999C325.028 544.364 325.002 544.466 322.559 544.441C321.102 544.351 319.286 544.479 319.324 542.472C319.132 535.285 320.181 528.163 320.373 520.99C320.066 506.707 320.181 492.335 319.055 478.129C317.112 489.381 319.938 504.061 318.966 516.438C319.631 525.018 317.789 533.521 318.096 542.037C318.429 543.712 317.431 544.454 315.807 544.07C311.306 544.044 313.441 539.301 311.664 537.357C311.191 539.198 311.958 541.692 310.385 543.034C309.08 543.827 306.075 542.28 306.062 540.745C305.998 531.334 306.766 521.923 306.024 512.538C306.024 481.748 304.246 451.073 305.73 420.231C305.96 419.247 307.226 419.208 308.096 419.323C313.134 418.761 309.029 427.353 311.702 428.632L311.689 428.645ZM318.416 476.582C319.273 463.258 318.007 447.697 317.751 433.708C315.372 438.248 317.61 443.081 317.482 447.838C316.907 457.351 316.958 467.158 318.403 476.582H318.416ZM311.472 451.776C309.924 454.423 311.012 485.699 312.968 488.41C312.469 476.262 311.983 464.128 311.472 451.776ZM312.751 500.391C310.474 501.644 312.162 507.423 311.664 510.224C311.907 516.169 311.996 522.128 312.38 528.074C314.797 520.005 311.856 509.316 312.751 500.391ZM311.063 437.928C310.679 440.588 310.794 443.209 311.664 445.984C312.469 444.628 312.086 438.951 311.063 437.928ZM311.101 433.708C312.252 433.67 311.971 431.177 311.101 430.32V433.708Z" fill="#49176D"/>
<path d="M118.583 370.952C117.074 369.418 111.114 368.382 112.713 365.978C114.912 363.344 114.976 363.101 118.058 364.38C136.998 369.072 148.124 396.091 129.619 408.379C126.639 411.256 105.232 418.787 109.043 409.811C110.539 408.647 112.329 408.609 114.107 408.391C120.143 407.65 127.803 405.553 130.706 399.786C126.192 402.88 121.793 406.371 116.166 406.857C113.544 407.292 109.349 408.711 109.912 404.517C109.516 402.573 109.81 402.343 111.894 402.254C124.849 402.228 132.011 392.165 123.698 381.233C120.348 378.419 115.424 373.995 110.884 375.657C120.053 378.905 126.716 381.846 125.514 392.932C124.082 399.901 116.613 400.259 110.91 401.001C110.475 401.052 109.695 400.655 109.554 400.285C108.736 398.149 108.672 396.41 111.255 395.541C110.628 395.311 110.347 395.157 110.066 395.132C107.163 395.144 106.868 390.452 110.296 390.81C112.585 390.886 113.02 390.682 113.16 388.981C113.16 386.833 110.513 386.245 109.337 384.851C108.122 383.47 109.477 381.386 111.063 381.514C117.457 382.038 123.532 391.308 115.386 394.416C114.772 394.837 113.135 394.94 113.646 395.886C125.552 394.531 121.409 383.266 112.342 380.862C110.436 379.954 110.245 379.673 110.206 377.87C109.222 378.061 104.196 377.294 106.536 378.701C107.354 379.11 108.876 379.545 108.863 379.928C105.475 390.669 81.266 374.187 76.7517 368.983C66.3035 357.526 65.1014 340.622 69.0786 326.224C75.3833 310.151 91.6374 298.132 109.017 297.569C112.009 297.045 114.657 297.211 114.401 300.996C113.263 304.091 108.198 302.249 105.602 303.323C102.086 304.052 98.6327 305.062 95.1543 305.945C86.8801 309.052 78.2607 316.161 75.1531 324.319C82.6344 313.297 93.5429 304.781 107.342 304.257C109.528 304.423 114.733 302.249 114.222 306.06C112.125 314.55 93.1721 302.569 79.1559 328.615C73.286 341.543 78.5293 358.114 89.9238 366.298C95.7042 370.926 102.712 372.691 109.797 373.957C110.628 374.174 111.204 374.098 111.447 373.139C112.188 368.868 115.437 370.581 118.583 370.939V370.952ZM92.6989 374.187C95.1671 376.195 98.0061 377.179 101.126 377.396C87.3149 372.435 77.276 364.226 72.3397 349.828C69.7053 342.361 72.2885 333.449 74.1045 326.148C69.8331 331.045 71.0736 338.896 70.6388 345.097C71.8793 357.373 80.7289 370.21 92.6989 374.187ZM119.145 371.31C130.936 376.911 135.655 386.155 131.384 398.789C139.262 389.007 130.131 371.949 119.145 371.31Z" fill="#49176D"/>
<path d="M148.904 406.371C141.5 417.892 129.811 426.753 115.654 426.74C113.659 426.599 109.324 428.21 109.976 424.707C111.396 416.933 131.333 427.187 143.584 404.018C149.991 395.336 147.702 382.933 142.779 374.046C137.51 364.251 126.205 358.625 115.514 357.359C111.332 355.275 113.161 361.886 109.171 360.415C108.838 360.352 108.48 360.415 108.007 360.722C111.639 363.356 114.286 364.034 108.928 367.116C103.723 366.31 99.4514 362.922 94.9755 360.364C82.5323 351.874 81.2023 329.894 95.1034 322.094C100.411 318.424 106.818 317.222 113.148 316.839C122.624 321.429 106.587 322.938 103.275 323.948C100.897 323.667 90.5251 331.518 95.2952 329.868C97.9168 328.283 100.385 326.25 103.211 325.214C105.309 324.881 114.312 321.582 114.299 324.945C114.184 326.403 115.565 328.398 113.276 328.564C110.245 329.075 107.188 329.485 104.234 330.277C97.6994 331.697 96.2543 338.985 97.8657 344.65C99.3875 350.864 106.894 355.736 113.007 355.493C103.736 350.186 96.7147 350.685 99.2085 336.377C101.306 330.38 108.467 331.019 113.57 329.804C113.954 329.74 114.708 330.162 114.81 330.508C115.578 333.679 115.795 333.806 112.918 335.456C115.974 334.893 118.442 339.803 114.44 340.11C113.225 339.982 111.69 340.251 111.012 341.325C109.567 344.394 116.396 344.637 115.386 347.872C110.616 353.357 97.06 339.215 111.14 335.507C101.331 333.717 101.255 345.89 108.915 348.665C110.756 349.726 114.874 350.135 114.043 353.05C123.839 353.05 115.833 352.756 115.501 350.902C115.552 348.805 117.547 347.041 119.734 347.424C148.329 350.378 165.082 381.552 153.636 407.445C146.423 422.955 130.847 432.66 113.928 433.581C110.974 433.888 110.539 434.003 109.887 430.896C109.465 425.998 118.007 429.003 121.026 427.328C132.522 425.308 145.157 417.124 148.943 406.384L148.904 406.371ZM153.137 387.037C153.495 371.54 137.97 355.147 123.289 353.754C138.917 358.216 150.362 371.041 153.137 387.037ZM106.063 360.607C106.242 360.377 106.421 360.147 106.6 359.904C93.1979 354.674 88.1976 345.481 92.891 331.505C88.4022 336.773 89.8217 344.419 92.1237 350.34C94.7964 355.748 100.845 358.216 106.063 360.607ZM149.467 404.888C152.485 404.529 154.378 389.403 152.728 387.549C152.242 393.699 152.191 399.338 149.467 404.888Z" fill="#49176D"/>
<path d="M397.985 89.6579C387.269 89.952 386.617 98.7492 395.07 103.506C397.052 104.721 400.466 104.9 399.98 107.841C402.397 107.802 407.244 107.802 402.372 106.434C401.464 106.229 401.323 105.692 401.451 104.938C405.07 96.7161 423.268 108.262 428.077 111.958C438.909 120.001 444.433 134.501 443.026 147.76C442.195 170.738 420.608 188.384 398.19 188.141C396.169 188.281 396.336 186.555 395.875 185.392C395.095 183.026 398.471 182.706 400.044 182.527C413.971 182.259 429.253 174.791 434.637 161.608C430.954 165.802 428.473 170.163 423.972 173.474C416.35 179.28 407.295 181.453 397.832 181.568C394.763 181.722 396.285 175.687 398.945 176.211C440.226 175.827 445.84 123.261 406.49 112.559C403.881 113.441 400.965 110.602 398.842 112.06C397.129 117.252 397.666 114.605 393.637 115.218C394.737 116.663 399.392 117.635 397.436 119.758C394.827 122.596 395.684 122.456 391.527 120.819C372.984 115.934 362.856 88.8907 380.862 77.1142C383.701 74.1988 405.441 66.7698 401.119 75.7716C396.208 78.1243 390.146 76.9608 385.478 80.2981C383.79 81.8325 380.606 82.8554 380.248 85.2593C384.992 81.7174 389.826 78.9171 395.824 78.3161C399.29 78.086 400.761 77.7152 400.671 81.743C400.326 84.7478 388.854 82.5613 385.107 88.4943C378.828 98.0332 388.752 110.59 399.085 110.296C397.858 107.943 394.354 108.365 392.269 106.984C385.734 104.733 383.087 96.7673 385.542 90.5402C387.819 85.1314 394.443 85.7068 399.277 84.5688C401.374 84.0574 401.451 87.1645 401.272 88.4304C401.042 89.0825 400.032 89.4405 399.213 90.0543C402.423 90.2461 404.009 94.4018 400.172 94.7598C399.085 94.7726 397.742 94.9899 397.193 96.0129C395.76 99.0433 402.717 99.4908 401.362 102.777C396.783 107.393 382.473 94.6959 398.024 89.6835L397.985 89.6579ZM435.315 160.355C447.963 140.741 432.233 112.444 409.776 108.122C418.639 112.878 428.703 116.753 433.435 126.407C439.906 137.621 439.957 148.413 435.328 160.355H435.315ZM391.041 114.234C387.077 110.986 381.297 109.298 379.378 104.056C376.565 98.34 377.498 92.5605 379.122 86.7298C372.05 94.568 378.47 112.226 391.041 114.234Z" fill="#49176D"/>
<path d="M261.929 71.9102C262.71 69.826 260.817 63.6244 263.515 63.5861C264.628 63.7907 266.137 63.4071 266.214 65.2483C266.457 70.6571 265.932 76.0147 265.51 81.4107C264.436 103.493 266.29 125.64 266.38 147.722C267.16 150.983 264.768 172.746 268.17 171.352C272.94 171.493 277.71 171.723 282.48 171.748C285.805 172.618 294.527 169.089 295.064 173.705C294.591 178.5 268.963 174.677 266.137 177.119C274.078 177.694 282.135 177.771 290.026 176.697C292.66 176.658 297.034 176.607 294.195 180.226C293.619 181.044 291.535 180.699 291.445 181.722C293.12 182.016 296.011 180.712 295.563 183.448C295.819 186.044 295.819 186.018 293.095 186.031C280.306 186.133 267.531 186.095 254.742 186.44C249.154 189.036 253.553 155.318 252.044 150.523C251.277 126.867 247.363 103.365 250.202 79.6845C251.405 75.1963 249.167 61.7064 254.909 61.3356C256.175 61.2205 256.622 61.7831 256.52 62.9212C254.052 87.804 252.965 112.738 255.369 137.685C255.829 145.28 256.418 152.875 256.686 160.471C257.645 166.71 254.87 177.132 257.927 182.106C258.067 157.721 256.379 133.67 254.985 109.362C254.921 97.752 255.701 86.1289 256.584 74.557C257.453 71.4499 256.021 64.9287 258.847 63.2536C263.694 62.7805 259.819 70.1328 261.891 71.9358L261.929 71.9102ZM260.152 94.9389C258.477 101.729 260.689 111.562 260.638 119.323C261.264 151.162 261.968 104.516 260.152 94.9389ZM262.543 157.478C259.934 162.043 263.029 170.112 261.52 175.84C261.38 176.799 261.878 177.247 263.132 177.068C261.814 175.572 262.594 174.05 262.684 172.554C262.518 167.542 263.042 162.452 262.53 157.478H262.543ZM261.52 139.922C260.804 140.626 261.456 152.556 262.3 153.476C262.3 148.988 262.262 144.5 261.52 139.922ZM261.789 73.6364C260.216 73.6492 260.369 77.255 261.405 78.4825L261.789 73.6364ZM260.356 86.3591C260.459 86.3591 260.561 86.3591 260.676 86.3591C260.408 84.7991 261.213 82.0372 260.356 81.0782V86.3591ZM289.284 181.773C289.284 180.354 286.649 181.556 285.562 181.313C285.588 181.569 285.601 181.837 285.626 182.093C286.841 181.99 288.069 181.875 289.284 181.773ZM260.638 87.8424C260.484 87.8424 260.318 87.8424 260.165 87.8424V90.1184C260.318 90.1184 260.484 90.1184 260.638 90.1184V87.8296V87.8424Z" fill="#49176D"/>
<path d="M288.439 375.171C288.503 353.651 287.953 331.952 286.815 310.42C286.534 307.018 286.713 306.724 289.974 307.402C292.238 307.875 292.02 307.875 292.033 310.215C292.954 326.85 294.373 320.636 293.222 308.412C294.041 307.108 296.394 307.747 297.749 307.683C299.668 310.087 298.248 314.307 298.888 317.299C300.154 327.899 299.629 338.64 300.844 349.265C302.251 371.463 300.704 393.788 298.184 415.871C298.095 418.16 295.639 417.316 294.309 416.766C291.956 413.748 293.67 408.621 293.273 404.887C293.58 401.051 295.588 396.729 294.13 392.996C292.877 400.22 292.263 407.7 292.212 415.065C292.493 417.175 290.127 416.741 288.797 416.561C284.283 413.122 289.91 388.751 288.951 381.501C288.311 378.56 287.685 383.598 287.301 384.889C274.372 359.533 259.908 335.226 246.647 310.074C246.11 309.09 246.276 308.591 247.35 308.514C248.936 308.629 251.212 307.747 252.35 309.128C254.524 312.887 256.698 316.634 258.796 320.431C268.72 338.691 278.503 356.95 288.465 375.171H288.439ZM293.9 331.211C291.7 345.583 294.284 362.742 294.987 377.984C296.394 369.622 294.45 360.505 294.731 351.899C294.233 345.033 295.204 337.962 293.9 331.211ZM293.849 391.858C295.55 390.899 294.322 386.423 294.898 384.25L294.207 384.224C294.092 386.769 293.964 389.326 293.849 391.87V391.858ZM288.286 379.659C288.439 379.659 288.593 379.659 288.746 379.659V375.619C288.593 375.619 288.439 375.619 288.286 375.619V379.659Z" fill="#49176D"/>
<path d="M398.216 510.377C397.333 519.814 396.413 529.327 396.182 538.866C396.067 541.283 396.182 544.671 392.755 543.674C390.44 543.418 390.236 543.264 390.223 540.976C390.198 536.27 390.146 531.552 390.338 526.846C391.195 515.696 392.461 504.444 391.796 493.281C390.901 477.17 390.926 460.995 390.351 444.871C391.54 441.265 387.64 415.117 391.029 417.444C392.448 417.994 395.428 416.894 395.569 419.004C396.182 424.323 395.402 430.358 397.423 435.268C398.638 430.819 394.622 420.103 398.075 417.648C399.623 417.725 402.385 416.817 403.05 418.684C404.035 439.386 406.042 460.011 406.285 480.725C406.643 497.399 405.39 514.034 403.919 530.631C402.986 533.93 404.866 544.927 400.134 544.326C396.95 543.559 397.09 543.571 397.308 540.324C396.605 530.925 400.032 518.535 398.216 510.364V510.377ZM399.341 499.291C399.571 481.901 398.203 464.55 398.216 447.16C394.673 455.228 398.497 484.305 399.341 499.291ZM398.881 505.659C398.702 505.659 398.523 505.659 398.344 505.659V509.393C398.523 509.393 398.702 509.393 398.881 509.393V505.659Z" fill="#49176D"/>
<path d="M210.583 140.281C208.512 140.651 205.877 140.958 205.212 138.388C204.624 135.741 209.356 135.78 211.082 135.422C219.714 134.117 227.49 128.773 232.618 121.829C244.511 105.399 236.557 80.8227 217.105 74.8385C212.655 72.6904 205.161 74.4677 201.593 71.8337C200.864 70.4911 200.033 67.5885 202.463 67.6013C221.3 66.962 229.254 75.0559 240.291 86.9603C223.039 57.8323 195.058 72.716 202.002 61.1952C255.407 58.9959 266.251 136.393 212.028 145.728C209.624 146.099 208.678 145.549 207.668 143.439C206.261 140.767 210.622 141.764 210.583 140.268V140.281ZM240.905 88.4691C239.958 88.4563 240.393 89.6455 240.598 90.1953C243.36 95.6936 243.347 101.997 243.488 107.994C241.327 123.415 229.587 134.731 215.225 139.705C237.759 135.69 251.276 109.235 240.905 88.4819V88.4691Z" fill="#49176D"/>
<path d="M299.54 414.119C304.208 380.836 302.852 346.542 299.872 313.079C299.898 311.494 299.246 309.563 299.821 308.131C301.56 308.374 305.154 307.3 305 310.036C305.205 333.666 310.448 357.296 308.338 380.913C307.66 390.541 307.315 400.08 306.228 409.67C305.435 412.572 307.187 418.365 302.75 418.25C298.657 418.377 299.604 418.429 299.54 414.132V414.119Z" fill="#49176D"/>
<path d="M390.516 507.5C375.234 478.257 358.635 449.769 343.071 420.679C341.882 417.943 346.613 419.439 348.007 419.004C351.818 419.63 355.949 432.225 358.775 435.793C367.075 451.265 375.976 466.417 383.917 482.068C390.235 492.732 392.192 494.995 390.516 507.5Z" fill="#49176D"/>
<path d="M112.228 310.382C124.351 315.138 101.537 316.506 98.6719 318.68C72.1359 330.61 84.3616 364.533 109.811 368.395C110.757 368.612 111.959 368.561 111.857 370.07C110.987 374.724 104.26 371.86 101.217 370.99C65.0511 357.475 73.0566 310.382 112.228 310.382Z" fill="#49176D"/>
<path d="M112.968 420.372C110.219 420.577 107.188 418.416 109.976 416.178C115.347 414.375 121.307 414.695 126.32 411.792C152.357 398.072 139.172 366.566 113.8 362.282C113.211 362.078 112.457 361.477 112.367 360.953C113.058 356.107 120.705 359.047 123.698 360.173C158.713 373.151 150.643 420.232 112.968 420.372Z" fill="#49176D"/>
<path d="M398.778 175.06C395.35 175.341 392.588 172.055 396.975 170.457C398.906 170.06 400.862 169.792 402.819 169.459C410.978 168.373 418.395 164.242 422.935 157.235C432.386 142.441 421.196 123.287 405.747 118.479C403.983 117.098 397.742 118.044 398.612 115.014C399.456 113.16 400.197 112.904 401.911 113.057C443.051 118.722 441.683 174.37 398.791 175.06H398.778Z" fill="#49176D"/>
<path d="M203.627 73.9558C243.846 74.0837 249.499 123.721 211.594 134.577C209.458 134.795 205.596 136.393 204.586 133.695C204.061 132.212 204.355 131.7 205.877 131.291C217.169 128.683 227.822 121.612 230.559 109.746C233.309 99.4269 229.689 90.6424 221.07 84.313C215.609 80.3747 208.883 79.8121 202.463 78.7892C201.197 78.7892 199.905 77.1397 199.713 76.2063C199.585 74.0453 202.578 74.5312 203.639 73.9558H203.627Z" fill="#49176D"/>
<path d="M397.986 149.96C394.38 150.267 392.589 147.48 395.07 145.741C396.387 144.846 398.83 146.099 399.29 144.155C400.556 140.971 390.415 139.296 396.809 136.215C405.774 137.046 409.534 148.899 397.986 149.96Z" fill="#49176D"/>
<path d="M392.653 303.285C397.947 301.942 399.431 307.914 399.392 312.044C399.725 313.911 398.216 313.987 396.924 313.233C394.469 310.982 383.701 303.95 392.64 303.285H392.653Z" fill="#49176D"/>
<path d="M414.444 304.435C413.063 307.517 410.441 310.535 407.538 312.337C404.507 313.527 407.423 303.144 408.728 302.159C410.569 299.346 414.687 300.983 414.444 304.423V304.435Z" fill="#49176D"/>
<path d="M720.605 47.8014V62.9734C720.762 63.0381 720.919 63.0936 721.076 63.1584C723.387 60.6143 724.782 57.2746 726.566 54.3327C727.666 52.9543 729.274 46.6912 730.633 46.7467C732.287 70.4484 730.956 95.1306 731.585 119.147C731.585 120.331 732.13 120.645 733.165 120.645C752.647 120.793 772.13 120.396 791.612 120.692C792.62 120.71 792.952 120.266 792.934 119.286C792.777 107.379 791.982 95.4636 792.509 83.5573C792.555 82.4657 792.213 82.0309 791.104 81.8736C787.5 81.374 783.904 80.7912 780.318 80.1806C778.063 79.9771 778.766 78.3489 779.33 76.7854C779.949 74.1211 779.986 74.0748 782.768 74.0841C785.457 74.0933 788.147 74.0841 790.836 74.1766C792.111 74.2228 792.675 73.862 792.647 72.4836C792.574 68.9774 792.61 65.4712 792.601 61.965C792.601 60.5681 792.925 59.4672 794.172 58.4958C797.398 55.1653 799.662 50.8265 802.509 47.1445C802.749 46.8115 803.239 46.645 803.609 46.4044C804.921 58.431 803.424 71.0034 803.331 83.1965C803.137 93.2803 803.23 103.364 803.184 113.439C803.544 115.132 802.084 120.895 804.625 120.525C822.814 120.682 841.002 121.034 859.191 121.302C862.694 121.358 862.805 121.386 863.036 117.787C863.396 112.227 863.59 106.658 863.867 101.098C863.914 100.219 863.479 99.8857 862.666 99.8487C850.309 98.8681 837.306 99.3121 825.254 97.2399C830.531 88.9323 838.683 81.8644 844.967 74.0378C854.57 63.8985 863.119 52.3715 873.331 43C874.431 49.4851 872.731 56.4328 872.842 63.0751C872.038 78.9965 871.677 94.9363 871.409 110.885C871.659 112.634 870.503 117.324 872.518 117.87C880.383 118.046 888.257 118.101 896.132 118.259C905.67 118.555 915.208 119.128 924.745 119.535C926.428 119.693 928.193 119.323 929.745 120.137C922.629 129.517 913.091 137.344 905.115 146.16C898.849 152.59 892.574 159.01 886.335 165.458C885.004 166.837 883.368 167.235 881.603 167.124C868.581 166.245 855.586 164.996 842.574 163.95C837.352 164.071 825.411 161.258 821.779 164.126C820.688 164.931 819.154 165.403 817.777 165.486C811.788 165.847 805.799 166.06 799.801 166.245C791.086 166.411 782.315 166.809 773.618 166.078C770.614 165.782 769.893 164.589 770.3 162.026C770.882 157.937 771.492 154.533 771.354 150.259C766.686 154.042 763.1 158.363 759.163 162.794C757.195 165.172 754.847 165.902 751.964 165.856C739.958 165.69 727.962 165.542 715.956 165.449C696.243 165.643 701.899 167.864 702.49 150.453C698.026 153.108 689.662 165.236 685.466 165.125C681.917 165.014 678.368 164.866 674.829 164.57C672.13 164.348 671.612 163.71 671.695 160.999C671.853 155.384 672.028 149.768 672.296 144.153C672.361 142.821 672 142.367 670.651 142.33C663.941 142.127 665.254 142.303 661.557 146.743C657.472 151.637 653.738 156.818 649.884 161.887C648.673 163.488 647.241 164.32 645.124 164.293C638.202 163.923 631.132 164.922 624.293 163.867C622.564 163.368 622.074 162.646 622.056 160.823C621.908 153.247 622.139 145.994 621.742 138.389C616.058 145.688 611.529 153.691 606.4 161.388C605.226 163.238 603.951 164.172 601.76 164.034C599.08 163.858 596.39 163.876 593.701 163.728C592.139 163.479 589.533 163.312 589.644 161.203C589.644 156.882 589.671 152.553 589.718 148.233C589.662 135.494 590.466 122.792 590.882 110.062C591.03 102.43 590.707 94.779 590.78 87.1375C590.78 85.6018 590.605 85.3706 589.024 85.5556C568.553 87.2208 572.158 92.1702 572.379 72.0026C572.915 68.4871 571.4 56.6733 573.812 55.2949C576.594 53.0098 579.366 50.7155 582.111 48.4027C583.22 47.4591 584.034 46.1454 585.586 45.8864C586.834 51.5759 586.122 57.7187 586.612 63.5654C586.649 64.7033 587.315 64.8606 588.257 64.8236C594.108 64.6016 599.967 64.4258 605.817 64.2038C607.999 64.1205 608.267 64.324 608.285 66.4611C608.442 83.8996 608.766 101.338 609.043 118.777C609.061 119.878 609.385 120.405 610.66 120.359C616.797 120.127 622.943 119.97 629.08 119.831C630.938 119.794 631.113 119.748 631.095 117.935C630.873 100.839 630.568 83.7331 630.171 66.6369C630.134 64.9346 630.605 64.4813 632.305 64.5276C636.816 64.6386 641.326 64.7496 645.836 64.9254C648.969 65.2029 646.501 60.8826 647.453 58.9768H647.962C648.22 60.6328 648.535 61.8632 649.939 59.939C652.629 56.1922 655.328 52.4547 658.008 48.708C658.553 47.8199 658.914 46.8393 659.949 46.4044C660.134 46.8022 660.476 47.1908 660.476 47.5886C660.494 52.538 660.466 57.4874 660.439 62.4368C660.3 80.9762 660.291 99.5157 659.949 118.046C659.93 118.962 660.281 119.323 661.215 119.341C667.213 119.508 673.211 119.72 679.209 119.933C680.873 119.989 681.095 119.785 681.224 118.129C681.575 113.735 681.899 109.331 682.398 104.946C682.657 102.717 683.424 102.347 685.716 102.291C689.903 102.189 694.061 102.236 698.183 103.124C699.967 103.512 700.161 103.78 700.078 105.603C699.93 108.721 699.93 111.848 699.829 114.965C700.18 116.547 698.35 120.414 700.873 120.359C706.298 120.442 711.714 120.544 717.139 120.673C718.183 120.701 718.729 120.46 718.72 119.239C718.655 95.4174 718.701 71.54 720.097 47.7644C720.272 47.7644 720.439 47.7736 720.614 47.7829L720.605 47.8014Z" fill="#E40E62"/>
<path d="M711.206 399.681C705.735 405.666 702.13 413.363 697.047 419.765C696.456 420.514 695.199 421.116 694.237 421.125C686.178 421.273 678.11 421.208 670.051 421.319C663.729 421.301 657.389 422.198 651.077 421.634C649.755 421.514 649.053 420.838 649.062 419.358C649.108 414.705 649.053 410.051 649.053 405.389C649.025 395.712 649.108 386.026 649.182 376.349C648.988 359.281 649.043 342.203 649.062 325.125C649.311 321.406 659.006 314.829 661.871 311.396C664.043 309.592 665.587 306.919 668.202 305.744C669.006 328.197 667.546 351.103 666.631 373.666C666.483 376.303 666.252 378.93 666.04 381.558C665.966 382.455 666.261 382.88 667.25 382.862C684.82 382.927 702.361 381.937 719.921 381.632C720.984 381.632 721.529 381.262 721.585 380.151C721.733 377.08 721.908 374.009 722.093 370.946C722.149 370.058 721.594 369.929 720.91 369.892C718.184 369.716 715.457 369.485 712.731 369.346C711.428 369.281 710.864 368.809 710.929 367.403C711.234 357.708 712.149 347.976 711.918 338.29C711.76 338.197 711.613 338.114 711.456 338.021C704.395 345.321 697.334 352.61 690.273 359.91C690.162 359.854 690.051 359.799 689.94 359.743C690.004 349.354 691.003 338.983 691.483 328.604C691.622 326.208 691.797 323.811 692.019 321.415C692.176 319.704 692.546 319.445 694.2 319.491C704.228 319.787 714.256 319.917 724.265 320.444C726.936 320.583 727.934 318.77 729.117 317.428C732.149 313.968 734.764 310.157 737.592 306.521C737.907 306.123 738.498 305.947 738.96 305.661C739.644 310.434 738.054 315.393 737.953 320.24C737.62 324.117 737.407 328.002 737.232 331.888C736.955 348.05 736.576 364.239 735.457 380.364C735.337 381.558 735.753 382.048 736.964 382.02C756.197 381.502 775.439 381.419 794.681 381.086C796.4 381.067 796.705 380.799 796.742 379.124C797.093 359.151 797.722 339.178 798.369 319.214C798.6 314.588 797.648 309.907 799.034 305.383C799.478 309.389 799.746 313.395 799.395 317.437C799.515 317.493 799.635 317.558 799.755 317.613C803.138 314.607 805.679 310.693 808.711 307.326C809.071 306.743 809.681 306.197 810.383 306.345C811.308 320.527 810.088 335.301 809.986 349.659C809.773 359.586 809.607 369.512 809.237 379.43C809.182 380.919 809.533 381.243 811.086 381.178C816.021 380.984 820.966 380.808 825.91 380.688C826.945 380.66 827.352 380.373 827.361 379.272C827.98 363.573 826.908 347.504 828.369 331.98C837.629 346.597 843.803 363.453 851.668 378.967C853.794 381.41 865.42 378.542 869.57 380.281C863.822 390.929 856.419 400.708 849.256 410.449C846.576 413.234 844.108 419.71 840.041 419.719C835.541 419.941 831.03 420.033 826.529 420.006C824.487 419.996 823.609 418.932 823.091 416.971C821.65 411.55 820.134 406.138 818.627 400.726C818.276 399.449 817.722 399.32 816.89 400.337C812.223 406.129 808.295 412.466 804.071 418.581C803.184 419.904 801.945 420.561 800.439 420.57C779.395 420.006 784.598 423.549 782.907 407.267C779.385 410.819 776.871 414.399 773.932 418.322C772.916 419.737 771.631 420.561 769.977 420.579C754.284 420.81 738.59 420.773 722.897 420.681C720.494 420.672 718.091 420.681 715.698 420.561C713.082 420.422 712.278 419.46 712.176 416.842C711.788 411.078 712.019 405.342 711.206 399.625V399.681Z" fill="#E40E62"/>
<path d="M646.631 539.291C629.477 552.409 639.903 550.595 616.603 549.735C607.472 549.291 598.322 548.449 589.172 548.569C586.187 548.634 583.775 547.681 581.52 545.84C579.348 543.454 573.997 542.057 574.025 538.504C574.496 528.245 575.041 517.994 576.049 507.781C577.786 491.85 579.385 475.873 580.281 459.887C580.392 459.166 580.845 458.315 581.418 457.88C586.483 454.013 591.612 450.22 596.723 446.408C602.768 442.162 608.22 437.333 614.57 433.521C612.49 458.49 611.575 483.348 609.542 508.308C609.459 509.307 609.875 509.687 610.864 509.696C627.361 509.899 643.858 510.094 660.355 510.547C675.771 510.371 669.93 513.063 672.25 494.82C672.352 493.58 671.714 493.423 670.836 493.367C660.956 492.988 651.123 492.045 641.27 491.314C625.531 490.722 629.893 491.221 629.838 476.743C629.94 474.569 630.355 474.227 632.463 474.328C642.001 474.791 651.538 475.217 661.076 475.753C664.524 475.947 667.952 476.392 671.381 476.808C672.611 476.956 673.128 476.697 673.184 475.355C673.729 462.357 674.57 449.369 674.635 436.352C674.653 435.612 674.283 434.382 675.494 434.447C676.714 434.511 676.335 435.695 676.289 436.528C676.289 441.468 675.309 446.667 675.836 451.478C681.076 447.028 684.579 440.534 690.004 436.362C689.45 461.469 686.529 486.753 684.57 511.861C684.496 512.721 684.856 513.137 685.697 513.137C691.261 513.137 696.825 513.137 702.389 513.119C703.415 513.119 703.784 512.545 703.84 511.555C705.106 496.004 705.06 479.999 707.537 464.716C709.533 466.086 709.736 468.648 710.716 470.702C714.662 480.962 718.941 491.082 723.294 501.176C724.607 504.321 725.818 507.513 726.964 510.723C727.518 512.286 728.387 512.804 730.069 512.74C735.291 512.536 740.522 512.508 745.753 512.471C746.973 512.499 747.574 513.341 746.575 514.349C734.524 526.043 724.514 539.651 712.934 551.789C710.559 554.259 695.476 551.419 690.947 551.706C689.607 551.632 688.821 551.021 688.461 549.744C687.315 545.729 686.16 541.724 684.995 537.709C684.45 536.737 684.339 533.24 682.638 534.693C679.542 537.496 676.446 540.29 673.396 543.139C670.891 545.026 667.158 550.244 664.45 550.799C641.381 549.504 645.734 554.231 646.612 539.253L646.631 539.291Z" fill="#E40E62"/>
<path d="M753.119 437.999C753.322 441.995 752.703 445.955 752.342 450.099C756.557 447.056 759.246 441.921 763.729 439.34C764.135 443.318 763.165 447.38 763.026 451.376C763.248 452.847 761.741 456.057 764.043 456.131C770.466 456.437 776.88 456.779 783.303 457.066C784.588 457.121 785.096 457.667 785.041 458.944C784.727 466.382 784.523 473.829 784.126 481.258C783.544 492.424 782.629 503.581 782.13 514.747C782.083 515.626 782.499 515.931 783.359 515.885C807.056 514.192 799.616 520.224 801.215 496.772C801.714 483.811 802.462 470.859 803.045 457.907C803.119 456.409 803.516 456.002 804.995 456.131C831.242 457.88 820.632 461.377 824.163 445.252C824.32 445.252 824.486 445.252 824.643 445.252C824.764 446.575 824.875 447.888 825.022 449.618C827.924 447.583 829.44 444.641 832.536 443.115C832.749 454.29 830.984 465.66 830.743 476.919C830.623 479.121 830.586 481.332 830.466 483.533C830.42 484.375 830.817 484.671 831.547 484.699C841.233 485.106 850.919 485.532 860.595 486.031C862.444 486.494 866.594 485.023 866.289 488.076C865.817 492.553 865.401 497.049 864.985 501.536C864.893 502.498 864.477 503.081 863.46 503.063C853.054 502.896 842.647 502.757 832.25 502.517C829.44 502.452 829.431 502.304 829.237 505.144C828.987 508.789 828.784 512.425 828.525 516.07C828.451 517.134 828.608 517.846 829.939 517.818C850.115 517.717 870.642 516.375 890.651 517.124C883.839 525.145 875.013 531.788 867.61 539.42C862.268 543.962 858.211 550.355 851.815 553.445C849.237 554.583 846.538 555.452 843.987 556.655C842.25 557.469 840.577 558.052 838.627 557.996C832.157 557.793 825.679 557.71 819.209 557.534C811.732 557.33 804.265 557.09 796.788 556.859C793.96 556.775 793.22 555.795 793.488 552.991C794.191 546.312 794.338 539.559 795.3 532.916C796.27 529.466 800.115 528.18 802.028 525.303C800.697 525.247 799.865 525.395 798.627 525.432C796.483 525.432 796.39 525.34 795.817 522.583C784.274 532.565 773.618 543.37 762.324 553.611C758.765 556.627 751.464 554.203 746.982 554.268C745.475 554.129 745.106 553.537 745.216 552.048C746.298 533.434 749.117 515.015 751.316 496.522C751.667 493.71 752.074 490.907 752.462 488.103C752.703 486.346 752 485.689 750.355 486.364C749.052 486.901 748.923 486.253 748.978 485.282C749.773 472.83 750.216 460.359 751.159 447.916C751.603 444.567 751.159 440.978 752.472 437.823C752.684 437.879 752.897 437.925 753.109 437.98L753.119 437.999Z" fill="#E40E62"/>
<path d="M822.241 287.371C812.592 287.371 802.944 287.362 793.304 287.371C789.607 287.371 785.91 287.473 782.213 287.445C780.152 287.251 776.714 287.306 777.139 284.383C777.639 271.376 777.509 258.359 777.759 245.352C777.971 227.201 778.101 209.05 778.683 190.909C778.72 190.159 779.016 189.262 779.515 188.735C785.993 182.555 791.493 174.885 798.674 169.659C798.683 198.772 797.491 228.034 798.008 257.212C798.008 258.859 798.212 258.905 799.866 258.905C818.729 258.997 837.592 259.025 856.456 259.062C857.417 259.062 857.842 258.748 857.87 257.739C858.415 240.023 858.812 222.307 859.127 204.582C859.265 199.447 859.552 194.313 859.82 189.179C859.847 188.651 860.088 188.013 860.448 187.643C865.762 182.111 871.197 176.708 876.446 171.12C876.751 170.824 877.26 170.732 877.666 170.547C878.359 187.273 876.197 204.443 875.762 221.308C875.624 233.594 874.82 245.842 873.905 258.1C873.84 259.136 874.552 259.432 875.393 259.451C880.189 259.571 884.986 259.673 889.783 259.775C890.615 259.59 891.261 260.034 891.973 260.385C888.895 264.9 883.794 267.99 880.106 272.097C876.04 276.103 872.084 280.22 868.212 284.411C866.696 286.048 865.051 286.955 862.833 286.955C849.302 287.001 835.772 287.112 822.232 287.066C822.232 287.167 822.232 287.26 822.232 287.362L822.241 287.371Z" fill="#E40E62"/>
<path d="M871.65 317.076C875.855 313.764 878.498 308.454 883.073 305.697C883.341 311.156 882.223 316.669 881.973 322.146C881.899 322.942 881.955 323.432 882.953 323.46C890.005 323.672 897.047 324.052 904.09 324.311C906.271 324.385 906.705 324.82 906.539 327.003C905.088 344.849 903.822 362.713 902.787 380.595C902.713 381.826 903.239 381.974 904.358 381.9C909.718 381.53 915.079 381.252 920.439 380.993C920.883 380.975 921.336 381.326 921.788 381.502C919.986 384.407 916.576 386.044 914.154 388.459C909.57 392.4 904.949 396.294 900.476 400.347C894.616 405.666 888.886 411.124 883.101 416.527C880.873 418.608 875.485 419.571 872.814 418.192C872.334 417.942 871.982 416.934 872.001 416.296C872.5 405.851 873.092 395.397 873.591 384.953C873.979 377.33 874.358 369.697 874.811 362.084C874.894 360.724 874.607 360.196 873.156 360.169C869.875 360.095 869.718 359.761 869.737 356.348C869.653 339.686 869.857 323.034 870.504 306.391C870.319 305.512 870.947 304.93 871.428 304.273C872.814 305.929 871.16 314.107 871.225 316.901C871.363 316.965 871.511 317.03 871.65 317.095V317.076Z" fill="#E40E62"/>
<path d="M836.03 198.948C835.707 208.68 835.383 218.422 835.069 228.154C834.986 230.55 834.893 232.955 834.847 235.351C834.819 236.73 834.08 237.257 832.805 237.1C827.915 236.508 823.036 235.897 818.146 235.296C817.148 235.176 816.779 234.537 816.806 233.584C817.074 223.898 817.324 214.212 817.601 204.526C817.721 200.308 817.851 196.089 818.036 191.871C818.11 190.187 818.572 189.854 820.189 189.974C825.078 190.437 830.097 190.279 834.884 191.436C836.853 192.648 835.633 196.876 835.938 198.948C835.965 198.948 836.002 198.948 836.03 198.948Z" fill="#E40E62"/>
<path d="M893.554 235.731C893.969 229.782 894.404 223.51 894.866 217.247C895.014 215.184 895.531 214.814 897.62 214.971C910.217 216.201 923.221 216.127 935.559 218.644C927.99 226.137 918.507 231.919 910.254 238.774C908.322 240.264 906.289 241.281 903.701 241.337C893.969 241.272 892.592 246.009 893.563 235.731H893.554Z" fill="#E40E62"/>
<path d="M773.46 341.675C773.47 346.81 773.433 351.953 773.479 357.097C773.414 359.502 773.202 359.715 770.826 359.66C766.668 359.558 762.509 359.456 758.35 359.308C755.558 359.206 755.124 358.457 755.374 355.691C755.614 353.073 755.512 350.427 755.531 347.79C755.568 341.796 755.568 335.792 755.605 329.797C756.039 327.854 754.542 323.053 757.592 323.256C779.015 324.755 772.638 320.388 773.627 341.694C773.571 341.694 773.507 341.694 773.451 341.694L773.46 341.675Z" fill="#E40E62"/>
<path d="M853.175 469.629C853.553 465.475 853.905 461.608 854.247 457.741C854.348 456.594 854.967 456.196 856.086 456.242C867.823 456.807 879.579 456.982 891.298 457.908C891.76 457.945 892.195 458.333 892.638 458.555C892.389 458.981 892.241 459.517 891.89 459.804C888.147 462.811 884.339 465.725 880.624 468.759C877.786 470.85 875.772 474.763 871.724 474.079C866.511 473.783 861.289 473.45 856.077 473.024C854.031 472.703 853.067 471.569 853.184 469.62L853.175 469.629Z" fill="#E40E62"/>
<path d="M896.049 83.3539C906.169 84.3068 916.308 85.0469 926.391 86.3513C930.504 87.0266 925.115 90.8844 924.053 92.2628C921.659 94.1871 917.204 100.237 914.515 100.441C907.389 100.052 900.282 99.4788 893.147 99.2105C890.818 99.0717 890.328 98.2576 890.615 95.9541C891.03 92.5774 891.289 89.1822 891.52 85.787C891.298 82.6693 893.868 83.5574 896.03 83.4372C896.03 83.4094 896.03 83.3817 896.04 83.3632L896.049 83.3539Z" fill="#E40E62"/>
<path d="M919.551 199.438C911.547 199.438 903.544 199.484 895.549 199.345C894.301 199.345 893.83 198.809 893.969 197.56C894.292 194.553 894.542 191.537 894.847 188.531C895.022 186.828 895.447 186.523 897.185 186.597C909.459 187.069 921.732 187.365 933.913 189.086C935.207 189.206 938.71 189.151 937.111 191.204C933.941 193.906 930.789 196.635 927.481 199.17C925.198 200.15 922.065 199.512 919.551 199.678C919.551 199.595 919.551 199.512 919.551 199.429V199.438Z" fill="#E40E62"/>
<path d="M890.799 63.1214C890.799 60.531 890.799 57.9499 890.799 55.3596C890.799 54.1014 891.659 53.8331 892.638 53.8331C899.644 53.8516 906.631 54.3697 913.627 54.7213C915.337 54.8138 915.725 55.2763 915.753 56.923C915.808 60.6143 915.965 64.3055 915.975 67.9967C915.975 72.0488 915.891 72.1043 912.269 71.6602C905.808 70.8924 899.32 70.2263 892.842 69.6712C889.736 69.3289 891.28 65.2584 890.919 63.1214C890.882 63.1214 890.845 63.1214 890.817 63.1214H890.799Z" fill="#E40E62"/>
<path d="M692 63.8338C694.348 63.8338 696.695 63.8245 699.052 63.8338C700.614 63.8338 700.974 64.2871 700.836 65.8691C700.364 71.318 699.893 76.767 699.449 82.216C699.237 84.8526 698.969 85.1301 696.409 84.8988C676.825 82.734 683.017 87.3411 682.416 66.1003C682.453 64.4999 682.989 63.9911 684.662 63.9541C687.111 63.9078 689.551 63.9448 692 63.9448C692 63.9078 692 63.8708 692 63.8338Z" fill="#E40E62"/>
<path d="M771.372 97.1287C771.345 99.6728 773.396 104.206 769.635 104.77C763.276 105.871 756.871 106.713 750.513 107.832C748.858 108.147 747.481 107.055 747.343 105.196C747.121 102.226 746.89 99.2658 746.668 96.3054C746.539 94.6124 746.834 94.2609 748.544 94.1961C755.3 93.9093 762.066 93.8168 768.803 93.3265C771.52 92.9657 771.382 94.964 771.483 97.1102C771.446 97.1102 771.4 97.1102 771.363 97.1195L771.372 97.1287Z" fill="#E40E62"/>
<path d="M733.849 439.063C732.989 449.388 733.46 459.851 731.621 470.046C730.984 473.468 731.557 477.206 730.253 480.444C728.137 478.862 727.259 472.395 725.984 469.629C724.089 464.041 722.12 458.481 720.263 452.875C719.514 450.655 725.346 446.917 726.714 444.891C729.135 442.671 730.595 439.267 733.553 437.768C733.728 438.175 733.904 438.591 734.089 438.998C734.015 439.017 733.941 439.035 733.858 439.054L733.849 439.063Z" fill="#E40E62"/>
<path d="M852.804 316.179C853.008 324.773 854.588 333.58 854.024 342.073C853.636 341.87 853.072 341.777 852.878 341.453C848.655 334.367 845.124 326.892 841.104 319.694C838.618 314.514 834.607 309.851 832.814 304.448C834.791 304.8 838.035 312.182 839.468 314.245C840.817 316.697 840.9 316.799 842.656 314.727C845.827 311.442 848.1 307.076 851.852 304.467C853.026 308.195 852.509 312.293 852.952 316.17C852.906 316.17 852.86 316.17 852.814 316.17L852.804 316.179Z" fill="#E40E62"/>
<path d="M761.04 68.0521C758.175 67.8948 755.3 67.7098 752.435 67.5988C751.15 67.5433 750.411 66.9234 750.365 65.693C750.254 62.6309 750.189 59.5687 750.189 56.5158C750.189 55.2854 751.178 55.2576 752.075 55.3317C758.082 55.9792 764.108 56.3123 770.143 56.6083C771.631 56.6823 772.158 57.552 772.149 58.8749C772.38 70.9847 771.659 68.1446 761.058 67.9041C761.058 67.9503 761.058 68.0058 761.058 68.0521H761.04Z" fill="#E40E62"/>
<path d="M646.751 448.074C650.346 448.074 653.941 448.055 657.536 448.074C661.862 447.546 660.004 452.089 660.42 454.762C660.697 458.278 654.431 456.613 652.204 457.038C646.621 456.816 641.03 456.751 635.438 456.742C632.878 457.168 634.255 451.099 633.867 449.387C633.849 448.148 634.505 447.713 635.679 447.722C639.366 447.75 643.063 447.731 646.751 447.731C646.751 447.842 646.751 447.963 646.751 448.074Z" fill="#E40E62"/>
<path d="M924.043 336.643C924.468 333.266 924.902 329.889 925.3 326.513C925.42 325.523 925.984 325.227 926.88 325.301C931.797 325.698 936.723 326.041 941.621 326.688C942.12 326.753 942.887 327.086 942.98 327.438C943.627 330.398 928.479 336.698 925.595 338.798C923.969 339.797 923.997 337.762 924.154 336.661C924.117 336.661 924.08 336.661 924.043 336.652V336.643Z" fill="#E40E62"/>
<path d="M823.331 94.807C822.712 83.613 824.283 72.123 824.939 60.8643C825.318 56.0352 825.744 51.206 826.196 46.3862C826.224 46.0809 826.649 45.8126 826.89 45.535C827.019 45.8588 827.269 46.1919 827.25 46.5064C827.074 50.2902 826.899 54.0739 826.64 57.8484C825.568 70.1525 825.3 82.6324 823.793 94.8533L823.322 94.8163L823.331 94.807Z" fill="#E40E62"/>
<path d="M860.309 180.889C859.625 177.577 860.281 174.062 860.235 170.685C860.254 170.232 860.753 169.797 861.021 169.362C861.224 169.834 861.621 170.315 861.603 170.787C861.316 174.154 861.788 177.707 860.734 180.935L860.309 180.889Z" fill="#E40E62"/>
<path d="M647.333 56.6271C647.444 53.3892 645.614 45.7292 647.592 44.0362C647.897 44.4525 648.47 44.8874 648.452 45.2852C648.285 48.8284 648.017 52.3623 647.777 55.8963C647.777 56.0073 647.648 56.1183 647.333 56.6271Z" fill="#E40E62"/>
<path d="M699.709 368.263C696.557 368.522 693.47 368.189 690.328 368.115C689.459 368.272 688.516 367.005 689.727 366.783C692.999 367.125 696.261 367.495 699.524 367.875C699.57 367.875 699.598 368.023 699.709 368.263Z" fill="#E40E62"/>
<path d="M796.076 475.809C795.457 474.893 795.106 474.236 796.132 473.903C797.268 474.375 796.926 474.883 796.076 475.809Z" fill="#E40E62"/>
<path d="M716.113 436.87C716.381 437.712 716.649 438.563 716.917 439.405C716.714 439.47 716.51 439.526 716.307 439.59C716.039 438.73 715.78 437.879 715.512 437.018C715.716 436.972 715.91 436.917 716.113 436.87Z" fill="#E40E62"/>
</svg>
