<svg width="2000" height="444" viewBox="0 0 2000 444" fill="none" xmlns="http://www.w3.org/2000/svg">
<rect width="2000" height="444" fill="#F7F7F2"/>
<path d="M1559.56 310.802C1557.07 303.319 1554.96 297.303 1553.09 291.22C1550.31 282.148 1550.64 273.057 1554.52 264.43C1558.96 254.545 1563.99 244.924 1568.73 235.171C1569.75 233.081 1570.64 230.914 1571.59 228.786C1571.3 228.407 1571.01 228.029 1570.72 227.66C1566.14 230.11 1561.08 231.955 1557.07 235.133C1548.02 242.313 1538.56 249.181 1533.37 260.202C1530.94 265.348 1529.76 265.13 1525.49 260.57C1523.87 261.299 1522.19 262.084 1520.49 262.822C1515.95 264.79 1512.45 263.276 1512.83 258.404C1513.38 251.489 1515.3 244.631 1517.08 237.867C1517.99 234.443 1519.89 231.274 1521.89 226.771C1519.46 227.414 1518.12 227.509 1517.03 228.086C1500.62 236.836 1483.73 236.458 1466.53 230.886C1463.16 229.798 1461.95 228.341 1463.36 224.311C1469.79 205.997 1484.9 199.858 1501.91 197.994C1512.9 196.793 1524.23 198.628 1535.4 199.063C1537.98 199.167 1540.57 199.082 1543.16 199.082C1543.35 198.477 1543.54 197.881 1543.73 197.275C1540.77 195.194 1538.01 192.716 1534.81 191.108C1527.99 187.674 1522.66 182.698 1518.35 176.568C1517.26 175.007 1516.87 172.945 1515.56 169.615C1519.73 170.987 1522.49 171.895 1526.63 173.257C1524.34 170.164 1522.96 168.13 1521.41 166.248C1515.51 159.162 1512.46 150.771 1510.42 142.002C1508.66 134.463 1511.05 132.221 1518.55 134.207C1528.47 136.837 1535.12 144.273 1542.26 150.866C1550.83 158.765 1553.76 169.644 1557.92 180.03C1560.64 186.851 1565.47 192.952 1570.04 198.846C1571.52 200.747 1575.17 200.993 1577.81 201.986C1579.05 198.59 1582.29 195.667 1580.17 191.496C1577.91 187.002 1576.04 182.282 1573.45 177.987C1566.3 166.144 1558.74 154.546 1551.65 142.664C1550.13 140.101 1549.51 136.809 1549.19 133.772C1548.83 130.357 1549.23 126.857 1549.36 123.395C1549.56 118.438 1550.9 117.029 1555.42 118.684C1559.42 120.15 1563.38 122.383 1566.55 125.183C1570.99 129.099 1574.69 133.857 1579.42 139.032C1581.68 134.945 1583.69 131.53 1585.5 128.011C1590.76 117.766 1599.67 111.741 1609.83 107.304C1614.32 105.346 1616.23 106.85 1617.52 111.741C1621 124.909 1615.12 136.137 1610.13 147.479C1607.48 153.496 1603.82 159.068 1601.11 165.065C1599.72 168.139 1598.81 171.696 1598.74 175.045C1598.58 183.228 1598.55 191.467 1599.46 199.574C1599.85 203.008 1602.72 206.158 1604.46 209.441C1605 209.318 1605.55 209.195 1606.09 209.081C1606.4 207.719 1607.12 206.31 1606.97 205.014C1605.55 193.198 1612.34 185.829 1620.81 179.397C1623.32 177.495 1625.98 175.773 1628.66 174.109C1631.97 172.046 1634.88 172.614 1636.46 176.246C1638.33 180.57 1639.73 185.082 1641.36 189.5C1642.87 193.586 1644.64 194.22 1647.85 191.136C1652.83 186.349 1657.97 181.572 1662.09 176.086C1668.69 167.335 1678.31 163.287 1687.46 158.547C1690.04 157.214 1693.63 157.384 1696.72 157.526C1704.56 157.885 1715.01 151.878 1718.7 144.831C1720.36 141.662 1722.43 138.663 1724.6 135.806C1726.11 133.829 1728.03 133.744 1729.62 136.014C1738.18 148.274 1744.59 160.799 1738.08 176.426C1736.59 180.011 1736.81 184.912 1737.81 188.8C1740.38 198.638 1741.38 208.183 1737.81 218.002C1736.82 220.745 1737.18 223.98 1737.96 227.111C1739.84 223.999 1741.6 220.811 1743.61 217.794C1751.19 206.451 1759.12 195.346 1766.37 183.805C1770.89 176.625 1777.25 173.087 1785.22 171.819C1789.79 171.091 1790.83 172.51 1790.16 177.041C1787.7 193.444 1777.25 204.465 1764.35 213.102C1756.61 218.286 1751.6 225.125 1747.28 232.787C1744.85 237.11 1743 241.802 1741.26 246.466C1739.71 250.6 1740.9 254.488 1743.33 258.092C1749.66 267.476 1755.94 276.898 1762.23 286.31C1762.93 287.351 1763.72 288.382 1764.19 289.527C1767.26 296.877 1768.45 297.757 1776.54 297.208C1782.37 296.82 1788.2 295.42 1793.98 295.638C1802.12 295.94 1810.23 297.265 1818.33 298.305C1819.57 298.466 1820.71 299.422 1821.9 300.018C1821.93 300.5 1821.96 300.973 1822 301.455C1818.42 302.714 1814.93 304.596 1811.25 305.135C1788.6 308.475 1765.9 311.36 1742.92 310.821C1733.29 310.594 1724.95 306.318 1716.5 302.477C1711.92 300.396 1707.67 297.482 1702.97 295.817C1697.99 294.048 1692.69 292.478 1687.47 292.289C1672.41 291.731 1657.69 294.436 1643.22 298.542C1640 299.459 1638.46 301.37 1638.51 304.672C1638.56 308.039 1638.39 311.691 1642.72 312.542C1646.22 313.233 1649.83 313.299 1653.39 313.706C1656.8 314.094 1660.2 314.519 1663.59 315.011C1664.51 315.144 1665.37 315.711 1666.29 315.872C1678.86 318.105 1691.5 320.063 1703.99 322.655C1707.83 323.449 1711.82 325.351 1714.87 327.82C1720.86 332.673 1726.5 338.027 1731.75 343.655C1734.7 346.815 1736.73 350.864 1738.94 354.648C1741.01 358.204 1740.04 360.56 1735.64 361.468C1729.47 362.745 1723.17 363.369 1716.94 364.315C1713.2 364.883 1709.47 365.961 1705.74 365.999C1702.74 366.028 1699.52 365.309 1696.76 364.107C1687.38 360.011 1677.94 355.934 1668.91 351.119C1660.4 346.569 1653.42 339.928 1647.12 332.587C1640.68 325.086 1634.11 317.679 1627.4 310.414C1626.66 309.629 1624.19 309.392 1623.26 309.998C1615.08 315.361 1615.19 315.333 1623.11 320.356C1629.96 324.707 1636.67 329.295 1643.37 333.874C1644.65 334.744 1645.65 336.04 1646.74 337.166C1649.24 339.748 1648.59 341.669 1645.76 343.646C1636.81 349.908 1627.21 351.772 1616.64 348.593C1609.72 346.512 1603.28 343.892 1599.53 337.138C1598.25 334.829 1596.43 334.196 1594 335.662C1591.84 336.958 1589.56 338.036 1587.39 339.304C1584.2 341.167 1581.95 340.146 1582.4 336.475C1582.79 333.316 1584.35 330.279 1585.47 327.224C1586.05 325.625 1586.82 324.102 1587.86 321.699C1578.41 323.099 1570.22 324.67 1561.97 325.474C1542.94 327.318 1523.86 328.293 1504.85 325.294C1502.23 324.878 1499.88 322.759 1497.39 321.434C1499.4 318.417 1500.7 314.122 1503.51 312.58C1517.62 304.889 1532.62 304.057 1548.03 308.579C1551.55 309.61 1555.26 309.988 1559.57 310.802H1559.56ZM1593.94 288.458C1593.69 288.496 1593.44 288.533 1593.19 288.571C1593.05 291.4 1592.98 294.228 1592.73 297.047C1592.43 300.377 1593.93 301.739 1597.17 301.37C1601.4 300.897 1605.64 300.519 1609.84 299.895C1618.87 298.542 1628 297.558 1635.99 292.497C1640.02 289.943 1640.45 288.174 1637.55 284.646C1628.92 274.155 1621.98 262.746 1616.67 250.174C1614.12 244.111 1609.87 238.652 1605.79 233.374C1603.61 230.545 1600.22 228.691 1600.92 224.349C1601.02 223.772 1600.34 222.542 1599.94 222.505C1596.74 222.24 1593.17 221.256 1590.41 222.315C1587.26 223.517 1584.22 226.052 1585.26 230.725C1586.31 235.464 1586.87 240.317 1587.58 245.132C1589.72 259.577 1591.82 274.022 1593.92 288.467L1593.94 288.458ZM1721.44 254.204C1717.99 255.122 1714.39 255.708 1711.1 257.033C1707.04 258.669 1703.21 260.92 1699.3 262.916C1694.15 265.556 1694.01 268.734 1698.62 272.367C1703.04 275.857 1707.57 279.301 1711.5 283.302C1721.73 293.708 1734.47 298.513 1748.54 300.443C1750.66 300.737 1752.95 300.254 1755.11 299.866C1758.21 299.308 1759.21 297.445 1757.35 294.777C1749.45 283.435 1741.34 272.234 1733.54 260.826C1730.56 256.474 1726.95 254.166 1721.43 254.204H1721.44ZM1702.91 228.634C1703.16 228.37 1703.39 228.105 1703.64 227.849C1702.43 225.891 1700.95 224.046 1700.07 221.946C1699.44 220.442 1699.6 218.607 1699.41 216.923C1701.35 217.387 1703.71 217.321 1705.18 218.418C1708.35 220.783 1711.06 223.734 1713.96 226.449C1714.32 226.213 1714.68 225.986 1715.04 225.749C1714.48 224.075 1714.22 222.23 1713.32 220.773C1709.84 215.126 1709.6 209.11 1709.78 202.649C1709.94 196.727 1708.48 190.758 1707.65 184.24C1693.55 194.239 1680.56 203.462 1666.99 213.083C1679.06 218.314 1690.98 223.469 1702.91 228.634ZM1646.66 284.04C1647.44 283.406 1648.02 283.179 1648.11 282.829C1650.56 272.963 1653.13 263.106 1655.3 253.173C1656.02 249.89 1650.28 244.404 1646.78 244.716C1645.92 244.792 1644.63 246.04 1644.45 246.93C1642.88 255.406 1641.32 263.9 1640.15 272.433C1639.41 277.778 1643.24 280.795 1646.65 284.04H1646.66ZM1702.98 284.873C1703.21 284.4 1703.46 283.927 1703.7 283.454C1699.47 280.105 1695.33 276.643 1690.96 273.483C1689.83 272.66 1687.66 272.121 1686.5 272.632C1678.9 276.037 1671.44 279.764 1663.93 283.397C1664.08 283.889 1664.22 284.381 1664.36 284.873H1702.98ZM1578.73 213.612C1578.5 212.969 1578.26 212.326 1578.01 211.683C1572.39 211.219 1566.77 210.784 1561.16 210.264C1557.82 209.961 1555.83 211.56 1554.55 214.454C1552.77 218.465 1550.88 222.429 1549.15 226.468C1548.83 227.225 1548.68 228.483 1549.1 229.022C1549.49 229.533 1550.8 229.703 1551.57 229.505C1552.91 229.145 1554.2 228.483 1555.41 227.783C1560.82 224.642 1566.22 221.464 1571.58 218.238C1574.02 216.772 1576.36 215.164 1578.75 213.612H1578.73ZM1719.77 245.955C1720.02 245.501 1720.25 245.057 1720.5 244.602C1717.87 243.269 1715.32 241.736 1712.59 240.648C1706.08 238.066 1699.38 238.123 1692.75 240.128C1691.49 240.506 1690.23 241.944 1689.7 243.193C1689.5 243.666 1691.32 245.804 1692.25 245.823C1701.42 246.031 1710.59 245.946 1719.77 245.946V245.955ZM1652.28 237.375C1660.45 243.335 1662.21 243.24 1663.34 237.375H1652.28Z" fill="#009FC2"/>
<path d="M976.313 298.561C974.264 298.173 973.059 297.747 971.854 297.747C958.893 297.7 945.942 297.587 932.982 297.776C925.828 297.88 922.138 304.208 916.767 307.538C912.261 310.338 908.257 314.359 903.409 316.109C895.316 319.032 886.957 316.345 879.442 313.413C874.167 311.35 869.793 306.791 865.325 302.998C862.763 300.822 864.869 298.816 866.833 297.804C870.752 295.789 875.088 294.541 878.864 292.327C882.706 290.076 886.577 287.474 889.471 284.182C890.866 282.593 891.217 277.608 890.031 276.662C880.619 269.16 878.124 257.6 872.222 248.093C869.983 244.489 868.323 240.317 865.382 237.442C862.734 234.859 858.873 232.986 855.22 232.087C848.958 230.536 845.239 227.613 844.584 220.84C844.309 218.03 842.013 215.476 841.32 212.638C840.799 210.51 840.533 207.539 841.615 205.941C845.637 200.019 850.884 194.882 854.556 188.781C861.302 177.562 870.913 171.517 883.617 168.991C890.818 167.553 897.763 164.687 904.68 162.085C906.578 161.367 908.219 159.484 909.538 157.791C915.714 149.835 921.578 141.624 927.906 133.791C930.24 130.906 933.438 128.645 936.445 126.375C947.888 117.776 958.732 108.127 972.954 104.145C976.275 103.208 979.899 103.35 983.391 103C983.268 106.642 983.334 110.312 982.935 113.926C982.679 116.225 981.731 118.438 981.085 120.69C981.503 120.973 981.92 121.248 982.347 121.532C984.567 120.491 986.74 119.327 989.017 118.429C991.19 117.577 993.429 116.594 995.697 116.376C998.97 116.073 1000.78 117.899 1000.26 121.314C1000 123.007 999.71 124.88 998.809 126.261C990.44 139.042 982.509 152.323 969.396 160.988C961.408 166.267 952.717 170.476 944.462 175.357C939.576 178.252 937.982 180.674 936.521 186.813C940.62 185.29 944.405 184.628 947.337 182.689C964.036 171.611 982.727 171.082 1001.17 174.307C1019.2 177.467 1035.22 186.444 1049.08 198.524C1054.77 203.481 1060.34 208.892 1064.63 215.022C1069 221.265 1072.11 228.493 1075.1 235.578C1080.19 247.668 1078.79 259.88 1074.72 272.017C1071.67 281.079 1068.73 290.18 1066.04 299.346C1065.47 301.285 1065.8 303.726 1066.4 305.722C1067.51 309.421 1066.11 311.682 1062.81 312.703C1060.29 313.479 1057.54 313.895 1054.89 313.838C1034.52 313.394 1014.15 312.722 993.78 312.287C988.287 312.173 982.755 313.072 977.281 312.76C969.842 312.325 968.799 309.742 972.897 303.433C973.818 302.014 974.833 300.652 976.294 298.57L976.313 298.561ZM891.112 189.651C891.084 186.586 888.124 184.108 884.623 184.231C881.179 184.344 878.446 188.043 878.465 192.508C878.484 196.311 881.169 197.295 884.139 197.418C887.441 197.559 891.15 193.17 891.112 189.651Z" fill="#009FC2"/>
<path d="M1249.64 317.281C1239.05 317.281 1228.47 317.31 1217.88 317.281C1208.1 317.243 1199.82 312.182 1190.91 309.203C1176.32 304.321 1162.94 297.132 1150.25 288.543C1142.26 283.132 1142.73 276.462 1151.39 272.073C1154.19 270.654 1156.7 268.526 1159.6 267.447C1165.29 265.347 1171.1 263.484 1176.98 262.027C1187.7 259.369 1198.49 257.013 1209.29 254.677C1213.44 253.778 1212.71 250.713 1212.56 248.008C1211.41 227.622 1210 207.246 1209.07 186.841C1208.73 179.462 1211.96 176.274 1219.56 175.65C1239.39 174.023 1259.23 172.453 1279.08 171.204C1296.55 170.097 1314.03 169.255 1331.52 168.735C1336.48 168.584 1341.56 169.69 1346.46 170.741C1351.95 171.914 1354.38 175.016 1355.02 180.645C1355.35 183.615 1355.46 186.605 1355.69 189.584C1356.04 193.709 1358.05 195.847 1362.46 195.572C1369.87 195.118 1377.39 195.516 1384.67 194.361C1396.53 192.47 1403.93 202.308 1404.91 211.361C1406.09 222.353 1405.9 233.459 1400.12 243.543C1398.54 246.286 1399.34 248.131 1402.07 249.105C1405.03 250.164 1408.07 251.432 1411.14 251.669C1417.49 252.142 1421.84 255.925 1426.36 259.605C1429.45 262.131 1429.45 264.997 1426.88 267.712C1424.62 270.096 1421.92 272.054 1419.58 274.372C1408.72 285.08 1395.6 292.449 1381.62 297.804C1370.54 302.042 1358.78 304.709 1347.12 307.178C1331.75 310.432 1316.28 313.611 1300.69 315.342C1283.78 317.224 1266.67 317.395 1249.65 318.322C1249.64 317.972 1249.63 317.622 1249.61 317.281H1249.64ZM1393.05 222.807L1391.78 222.372C1391.88 211.228 1388.04 207.038 1376.94 208.788C1370.49 209.809 1364.24 213.13 1358.42 216.346C1356.47 217.415 1355.05 221.435 1355.23 223.97C1355.81 231.794 1357.16 239.569 1358.5 247.317C1358.75 248.745 1360.01 250.581 1361.29 251.167C1368.49 254.478 1382.63 250.391 1385.87 243.457C1388.94 236.892 1390.7 229.722 1393.05 222.807Z" fill="#009FC2"/>
<path d="M518.745 262.878C519.627 276.86 520.538 290.832 521.373 304.813C521.487 306.667 521.809 309.013 520.879 310.319C519.57 312.163 517.283 314.141 515.244 314.339C513.934 314.462 511.496 311.709 510.993 309.865C508.033 299.1 506.401 287.89 502.568 277.475C498.365 266.066 493.213 254.752 486.714 244.498C480.205 234.234 471.049 225.664 463.934 215.731C457.653 206.962 451.448 197.786 447.377 187.91C444.778 181.61 445.081 173.569 445.945 166.54C447.624 152.833 449.967 139.136 455.689 126.299C459.74 117.217 463.288 115.392 472.235 119.611C481.211 123.839 489.921 128.664 498.649 133.412C513.166 141.321 527.73 149.163 542.037 157.431C562.037 168.981 581.772 180.985 601.716 192.63C608.234 196.433 614.96 199.895 621.735 203.225C627.522 206.073 633.338 209.09 639.477 210.954C646.337 213.035 653.528 214.586 660.663 215.116C668.329 215.684 676.109 214.482 683.823 214.662C691.84 214.842 699.895 215.362 707.837 216.412C725.835 218.786 743.833 221.265 761.718 224.33C772.183 226.127 781.917 229.921 786.111 241.159C788.255 246.901 787.563 250.174 782.411 253.324C776.253 257.089 769.792 260.438 763.255 263.503C748.852 270.247 734.754 278.042 719.725 282.923C701.812 288.732 683.045 291.957 664.648 296.262C662.656 296.725 660.587 296.914 658.595 297.368C639.553 301.692 623.803 294.417 609.571 282.971C595.349 271.534 581.848 259.208 567.559 247.847C559.76 241.641 551.231 236.249 542.568 231.283C538.783 229.107 533.897 228.331 529.428 227.991C523.944 227.584 519.665 231.879 519.285 238.302C518.802 246.456 519.172 254.658 519.172 262.84C519.039 262.85 518.906 262.859 518.773 262.869L518.745 262.878Z" fill="#009FC2"/>
<path d="M276 249.729C273.523 248.528 271.009 247.393 268.58 246.106C264.576 243.997 260.202 242.313 256.749 239.503C248.494 232.787 239.244 226.865 234.633 216.649C230.126 206.65 225.6 196.651 221.454 186.501C217.023 175.66 211.103 165.737 201.482 159.03C197.592 156.315 191.71 156.343 186.691 155.359C184.034 154.839 181.273 154.839 178.569 154.602C178.38 153.997 178.19 153.392 178 152.786C180.362 151.273 182.649 149.636 185.106 148.283C187.564 146.931 190.524 146.287 192.649 144.585C194.67 142.957 196.729 140.564 197.317 138.152C200.201 126.488 213.532 117.17 225.354 116.026C239.566 114.645 249.623 120.964 259.937 128.995C272.204 138.54 285.582 146.685 297.708 156.39C308.714 165.197 318.619 175.367 329.15 184.788C336.997 191.808 345.175 198.458 352.984 205.505C356.817 208.967 360.678 212.619 363.563 216.838C367.016 221.899 372.007 224.008 377.102 226.572C385.09 230.592 392.927 234.972 400.48 239.749C403.316 241.547 405.176 244.867 407.643 247.677C401.798 251.934 396.922 246.75 391.523 247.989C394.142 251.65 396.533 254.989 398.914 258.319C398.611 258.782 398.307 259.246 397.994 259.709C395.707 258.593 393.307 257.666 391.153 256.323C383.667 251.669 376.352 246.74 368.8 242.199C366.532 240.837 363.705 240.383 361.134 239.513C360.688 240.005 360.251 240.497 359.805 240.979C362.471 245.075 364.938 249.304 367.832 253.23C375.489 263.616 383.079 274.069 391.144 284.134C400.271 295.533 409.92 306.507 419.284 317.726C421.391 320.252 423.459 322.872 425.148 325.691C426.818 328.482 426.163 330.78 422.415 330.676C415.015 330.468 408.26 332.701 401.286 334.848C395.897 336.504 389.701 336.674 384.047 336.002C378.772 335.387 377.272 329.721 375.327 325.578C369.189 312.485 363.439 299.213 357.538 286.017C356.703 284.153 355.45 282.375 355.052 280.426C353.6 273.445 348.619 269.339 343.145 265.82C336.408 261.497 329.406 257.553 322.461 253.561C320.706 252.548 318.771 251.659 316.807 251.252C313.543 250.581 310.905 251.186 310.26 255.311C310.023 256.786 308.609 258.073 307.736 259.445C306.323 258.385 304.852 257.401 303.533 256.238C302.973 255.746 302.755 254.885 302.376 254.194C298.353 247.024 295.535 246.229 288.315 250.798C284.463 253.239 280.829 256.048 277.309 258.953C273.779 261.857 273.647 267.192 276.616 272.338C277.926 274.615 277.717 276.942 275.99 279.319C272.271 276.198 268.333 273.322 264.937 269.916C261.331 266.312 261.929 262.661 266.028 259.511C269.453 256.881 272.888 254.27 276.313 251.65C276.208 251.006 276.104 250.354 276 249.711V249.729ZM222.223 139.959C220.173 138.701 219.044 137.49 218.399 137.707C217.042 138.161 215.932 139.372 214.718 140.261C215.6 140.886 216.502 142.04 217.346 142.002C218.598 141.945 219.813 141.028 222.223 139.959Z" fill="#009FC2"/>
</svg>
