<svg width="2000" height="444" viewBox="0 0 2000 444" fill="none" xmlns="http://www.w3.org/2000/svg">
<rect width="2000" height="444" fill="#F7F7F2"/>
<path d="M243.533 277.703C230.969 277.703 218.415 277.628 205.852 277.74C201.592 277.778 198.666 276.545 197.818 271.932C196.774 266.282 198.507 261.137 202.319 259.307C213.764 253.807 212.506 256.188 212.003 243.133C211.528 230.872 211.444 218.592 211.276 206.322C211.118 194.826 210.279 183.256 211.239 171.845C212.105 161.582 207.259 155.942 199.29 151.628C195.898 149.779 193.745 147.622 194.024 143.28C194.267 139.442 195.478 137.723 199.533 137.574C210.232 137.182 220.904 136.304 231.603 135.865C243.822 135.361 256.097 134.334 268.269 134.978C281.848 135.697 295.4 137.723 308.867 139.768C318.318 141.197 324.124 148.817 330.975 154.532C339.848 161.937 342.858 172.433 344.2 183.004C345.803 195.602 345.598 208.432 346.185 221.16C346.511 228.36 342.97 234.056 339.764 240.191C333.715 251.733 323.686 259.634 313.621 266.096C302.716 273.099 290.255 278.964 276.135 278.338C265.296 277.852 254.41 278.245 243.542 278.245C243.542 278.067 243.542 277.89 243.542 277.703H243.533Z" fill="#009FC2"/>
<path d="M1337.91 148.332C1345.83 148.332 1353.76 147.958 1361.64 148.444C1368.69 148.873 1375.69 150.237 1382.71 151.199C1388.53 152.002 1394.36 153.514 1400.17 153.449C1407.48 153.356 1413.51 155.746 1419.05 160.051C1424.69 164.431 1430.44 168.689 1435.71 173.48C1437.71 175.291 1439.52 178.373 1439.66 180.978C1440.22 191.194 1440.3 201.447 1440.05 211.682C1439.99 214.428 1438.75 217.631 1437 219.75C1430.78 227.268 1423.63 234.047 1417.76 241.807C1412.07 249.334 1404.22 250.286 1396.04 251.379C1387.16 252.565 1378.22 253.499 1369.45 255.31C1363.95 256.45 1363.02 258.905 1363.5 264.611C1364.11 272.035 1364.55 279.478 1365.07 286.911C1365.46 292.28 1368.28 295.343 1373.61 296.342C1379.41 297.426 1383.03 300.638 1383.35 306.969C1383.53 310.527 1384 314.085 1384.52 317.615C1385.1 321.518 1383.4 323.115 1379.64 322.994C1369.88 322.685 1360.12 322.387 1350.35 322.116C1335.45 321.705 1320.57 321.313 1305.68 320.939C1297.49 320.734 1292.48 311.358 1296.81 304.14C1297.76 302.562 1298.91 300.946 1300.35 299.854C1305.92 295.595 1307.77 290.114 1307.43 283.175C1306.63 266.899 1306.27 250.594 1305.8 234.309C1305.31 217.687 1304.84 201.074 1304.47 184.452C1304.39 180.661 1303.43 177.775 1300.21 175.226C1298.31 173.732 1297.13 170.65 1296.75 168.119C1296.19 164.478 1296.82 160.677 1296.62 156.96C1296.35 152.263 1298.44 149.91 1303.02 149.76C1312.47 149.452 1321.93 149.2 1331.39 148.957C1333.56 148.901 1335.73 148.957 1337.91 148.957C1337.91 148.761 1337.91 148.565 1337.91 148.36L1337.91 148.332Z" fill="#009FC2"/>
<path d="M1056.27 168.063C1060.87 165.887 1064.22 163.945 1067.81 162.722C1071.22 161.564 1074.89 160.49 1078.43 160.565C1083.67 160.667 1088.88 161.919 1094.13 162.498C1099.83 163.123 1104.44 165.57 1108.07 170.015C1110.61 173.134 1113.8 175.851 1115.79 179.278C1117.56 182.332 1118.94 186.105 1119 189.588C1119.29 206.527 1119.2 223.467 1118.96 240.406C1118.89 244.963 1120.43 247.466 1124.71 249.194C1134 252.929 1135.55 255.936 1134.86 265.433C1134.54 269.822 1132.65 271.904 1128.13 271.773C1112.47 271.344 1096.8 271.036 1081.14 270.69C1056.32 270.149 1031.5 269.579 1006.68 269.103C997.85 268.935 993.647 262.136 997.552 253.853C998.139 252.602 999.556 251.584 1000.82 250.846C1002.42 249.922 1004.23 249.38 1005.98 248.717C1010.36 247.055 1012.5 244.226 1012.4 239.22C1011.87 213.587 1011.61 187.954 1011.14 162.32C1011.09 159.706 1010.59 157.025 1009.81 154.541C1009.36 153.141 1008.12 151.693 1006.84 150.928C1005.3 149.994 1003.35 149.695 1001.55 149.247C993.889 147.314 992.659 145.549 993.302 137.891C993.6 134.334 995.222 132.074 998.652 131.168C1007.65 128.796 1016.61 126.331 1025.64 124.108C1033.27 122.222 1040.9 120.242 1048.65 119.01C1054.98 118.001 1055.88 119.168 1055.84 125.77C1055.77 136.649 1055.53 147.529 1055.49 158.408C1055.48 161.134 1055.91 163.861 1056.28 168.073L1056.27 168.063Z" fill="#009FC2"/>
<path d="M1729.82 221.263C1727.41 229.826 1732.51 233.459 1737.33 237.185C1741.73 240.584 1744.22 252.014 1741.09 256.375C1740.19 257.626 1737.97 258.56 1736.36 258.551C1717.6 258.42 1698.84 258.084 1680.08 257.775C1676.51 257.719 1672.95 257.626 1669.39 257.43C1668.35 257.374 1667.09 257.196 1666.38 256.571C1663.23 253.844 1664.93 239.874 1668.65 237.969C1671.54 236.484 1674.9 235.691 1677.44 233.776C1679.55 232.198 1682.09 229.509 1682.2 227.211C1683.45 199.897 1684.34 172.564 1685.19 145.231C1685.4 138.723 1682.97 135.959 1676.64 134.651C1667.67 132.793 1663.27 122.754 1668.23 114.957C1669.09 113.603 1671.17 112.613 1672.85 112.277C1687.28 109.373 1701.76 106.655 1716.22 103.891C1716.83 103.779 1717.45 103.742 1718.07 103.648C1728.35 102.061 1729.2 102.733 1729.07 113.257C1728.84 130.963 1728.41 148.668 1728.23 166.382C1728.19 170.51 1728.8 174.637 1729.16 179.353C1734.68 177.57 1738.16 174.479 1740.46 170.136C1740.95 169.231 1740.58 167.316 1739.89 166.429C1735.69 161.05 1736.28 154.924 1737.6 149.06C1738 147.295 1741.37 145.045 1743.42 144.998C1762.03 144.596 1780.66 144.522 1799.28 144.718C1801.18 144.736 1804.22 146.838 1804.69 148.537C1805.61 151.88 1805.98 155.933 1804.87 159.089C1804.05 161.424 1800.78 163.46 1798.15 164.477C1787.88 168.465 1780.37 176.197 1772.12 182.948C1769.97 184.713 1767.91 186.6 1765.86 188.495C1764.02 190.195 1763.76 191.745 1765.39 194.117C1772.7 204.716 1779.22 215.903 1787.11 226.026C1791.03 231.059 1797.05 234.682 1802.64 238.091C1805.42 239.79 1806.65 241.181 1806.79 244.384C1807.44 259.167 1807.53 259.12 1792.8 259.036C1783.96 258.98 1775.11 258.924 1766.26 259.148C1761.26 259.279 1757.97 257.374 1755.05 253.218C1748.29 243.6 1741.03 234.327 1733.89 224.97C1732.94 223.728 1731.55 222.813 1729.83 221.272L1729.82 221.263Z" fill="#009FC2"/>
<path d="M737.417 212.541C737.417 219.844 737.501 227.155 737.389 234.458C737.324 238.455 738.825 241.004 742.87 241.854C743.913 242.078 744.873 242.834 745.917 242.965C753.933 243.983 756.104 249.362 755.536 256.337C755.359 258.476 754.203 261.707 752.628 262.37C740.251 267.553 727.435 271.279 713.791 270.121C710.594 269.85 707.276 269.093 704.387 267.749C699.484 265.47 694.815 265.657 689.978 267.543C678.02 272.203 665.792 272.623 653.377 269.756C652.473 269.551 651.551 269.355 650.693 269.009C642.286 265.61 632.752 250.818 633.125 241.779C633.181 240.378 633.265 238.987 633.367 237.586C634.607 219.377 642.93 209.796 660.889 206.322C669.874 204.585 678.915 203.166 687.965 201.812C691.749 201.242 693.575 199.43 693.184 195.611C692.867 192.52 692.783 189.336 691.888 186.413C691.385 184.769 689.568 182.659 688.086 182.425C686.725 182.211 684.535 183.91 683.556 185.339C681.198 188.785 679.567 192.744 677.162 196.143C676.1 197.637 673.91 199.047 672.13 199.178C664.394 199.767 656.63 199.981 648.876 200.121C642.669 200.233 641.55 198.982 641.718 192.8C641.895 186.123 642.212 179.447 642.342 172.76C642.426 168.502 644.337 166.308 648.391 164.561C671.822 154.495 696.082 156.885 720.305 159.491C728.237 160.341 732.394 167.092 733.987 173.76C736.196 183.004 736.485 192.735 737.389 202.269C737.716 205.659 737.445 209.105 737.445 212.522L737.417 212.541Z" fill="#009FC2"/>
<path d="M498.709 289.908C508.29 282.914 510.592 270.279 504.469 259.811C494.31 242.461 487.599 223.607 480.246 205.024C478.26 200.009 476.387 194.892 473.694 190.26C472.37 187.973 469.527 186.217 466.983 185.078C463.236 183.406 461.615 181.109 461.466 176.944C460.981 163.908 460.841 164.011 474.02 164.029C506.594 164.067 539.158 163.992 571.732 163.992C581.052 163.992 586.123 172.116 580.372 179.587C570.53 192.389 567.892 208.106 561.107 222.085C553.157 238.483 545.095 254.834 537.024 271.176C532.569 280.206 527.415 288.937 523.64 298.238C519.866 307.558 512.866 312.516 503.863 313.973C493.685 315.616 483.237 315.785 472.901 316.158C468.8 316.307 466.442 313.702 466.396 309.285C466.331 302.608 466.116 295.932 465.958 289.255C465.865 285.678 467.598 283.792 471.13 283.381C477.263 282.662 483.396 281.906 489.519 281.074C493.117 280.589 495.493 281.765 496.556 285.435C496.975 286.873 497.861 288.181 498.709 289.918V289.908Z" fill="#009FC2"/>
<path d="M386.989 277.928C378.535 275.64 369.56 273.371 360.724 270.662C358.898 270.102 357.108 268.132 356.139 266.348C353.706 261.885 351.87 257.085 349.568 252.537C344.395 242.321 349.326 233.777 356.679 227.034C365.934 218.565 376.606 212.345 389.831 211.804C394.1 211.626 398.303 210.029 402.544 209.077C402.693 209.04 402.954 209.04 402.982 208.956C403.97 206.079 405.713 203.194 405.713 200.318C405.713 197.012 404.175 193.706 403.308 190.401C401.398 191.316 398.825 191.745 397.735 193.249C396.066 195.565 395.899 198.982 394.193 201.261C392.599 203.39 389.98 205.781 387.576 206.079C378.656 207.172 369.644 207.433 360.659 208.04C357.49 208.255 356.083 207.191 356.577 203.707C357.723 195.565 358.683 187.403 359.559 179.223C359.951 175.59 361.498 173.041 365.021 171.892C373.707 169.044 382.375 166.093 391.136 163.506C393.242 162.881 395.722 163.506 398.033 163.591C405.48 163.843 412.917 164.403 420.355 164.31C428.967 164.198 437.103 167.307 442.322 172.947C448.492 179.606 451.596 188.729 451.055 198.693C450.291 212.784 450.291 226.922 450.086 241.042C450.03 244.786 452.174 247.093 455.781 247.98C459.49 248.895 461.13 251.276 461.186 255.058C461.233 257.85 461.699 260.633 461.774 263.425C461.941 269.094 460.935 270.252 455.585 271.363C448.455 272.838 441.353 274.426 434.223 275.882C428.37 277.087 422.703 276.219 417.549 273.314C413.728 271.157 410.205 271.914 406.375 273.006C400.298 274.743 394.128 276.144 386.989 277.937V277.928Z" fill="#009FC2"/>
<path d="M1505.72 143.523C1517.47 143.074 1527.88 146.782 1537.28 153.346C1539.94 155.195 1542.5 158.025 1543.69 160.976C1548.59 173.218 1550.95 185.909 1549.59 199.262C1548.84 206.649 1549.28 214.166 1549.26 221.618C1549.25 224.915 1550.63 227.258 1554.03 228.155C1555.21 228.472 1556.32 229.098 1557.46 229.593C1563.3 232.152 1564.57 234.468 1564.07 241.322C1563.7 246.364 1561.02 248.895 1556.12 250.193C1545.92 252.882 1535.93 256.683 1525.11 254.815C1522.26 254.321 1519.5 252.649 1516.69 252.621C1511.32 252.556 1505.95 253.405 1500.57 253.658C1483.42 254.47 1466.65 253.639 1453 241.191C1451.62 239.93 1450.08 237.895 1450.08 236.214C1450.05 227.1 1450.22 217.958 1450.83 208.871C1451.17 203.717 1454.94 201.027 1459.48 198.861C1467.34 195.107 1475.71 193.968 1484.13 192.604C1489.94 191.67 1495.68 190.279 1501.35 188.738C1502.66 188.383 1504.58 186.553 1504.52 185.507C1504.21 180.315 1503.71 175.067 1502.51 170.015C1501.86 167.279 1498.49 167.727 1496.59 171.005C1494.89 173.947 1493.6 177.14 1492.25 180.269C1490.57 184.135 1487.9 185.75 1483.52 185.685C1475.47 185.573 1467.4 186.002 1459.34 186.357C1455.33 186.534 1453.56 184.629 1453.63 180.829C1453.74 174.301 1453.6 167.737 1454.3 161.265C1454.52 159.202 1456.68 156.568 1458.64 155.625C1463.22 153.421 1468.22 152.123 1473.03 150.377C1477.94 148.593 1482.69 146.081 1487.75 145.064C1493.61 143.878 1499.72 143.971 1505.72 143.513L1505.72 143.523Z" fill="#009FC2"/>
<path d="M1179.49 222.151C1179.52 235.177 1188.11 242.695 1202.16 242.48C1204.93 242.433 1207.69 241.845 1210.46 241.509C1216.31 240.808 1222.15 240.043 1228 239.426C1231.64 239.043 1233.86 240.593 1234.56 244.394C1235.17 247.747 1235.96 251.09 1237.02 254.33C1238.2 257.991 1236.64 260.138 1233.47 261.231C1228.65 262.884 1223.74 264.35 1218.8 265.648C1210.86 267.73 1202.89 269.71 1194.89 271.55C1182.19 274.463 1170.26 270.98 1158.53 266.675C1153.88 264.966 1148.78 264.369 1145.67 259.251C1139.24 248.699 1131.31 239.025 1130.73 225.774C1130.06 210.496 1132.02 195.518 1137.77 181.511C1139.93 176.225 1145.99 172.537 1150.29 168.129C1162.71 155.429 1178.6 154.682 1194.76 155.578C1198.92 155.812 1203.29 157.334 1207.05 159.248C1217.17 164.394 1229.61 166.448 1234.7 178.756C1235.46 180.605 1236.3 182.547 1236.45 184.499C1237.26 195.182 1238.08 205.883 1238.45 216.585C1238.67 223.122 1237.11 224.186 1230.75 223.803C1216.51 222.954 1202.27 222.122 1188.02 221.441C1185.29 221.31 1182.52 221.87 1179.48 222.141L1179.49 222.151Z" fill="#009FC2"/>
<path d="M1632.43 178.513C1632.1 180.259 1631.49 182.006 1631.48 183.752C1631.42 197.89 1631.42 212.037 1631.52 226.175C1631.54 229.145 1632.79 231.255 1635.94 232.525C1639.92 234.132 1643.83 236.205 1647.3 238.717C1651.88 242.041 1650.22 247.093 1649.67 251.603C1649.2 255.479 1645.91 255.283 1643.19 255.348C1633.41 255.572 1623.63 255.609 1613.86 255.759C1600.83 255.964 1587.8 256.188 1574.78 256.45C1571.75 256.515 1568.43 255.918 1568.22 252.724C1568.03 250.044 1569.31 246.645 1571.1 244.581C1574.2 241.004 1578.55 238.511 1581.71 234.972C1583.65 232.806 1584.93 229.64 1585.49 226.726C1588.49 211.122 1586.76 195.453 1585.58 179.811C1585.36 176.982 1584.13 175.123 1581.12 174.787C1580.67 174.731 1580.24 174.516 1579.78 174.395C1568.44 171.173 1568.1 170.622 1568.05 159.062C1568.03 154.822 1569.6 152.133 1573.89 151.507C1583.71 150.088 1593.55 148.827 1603.36 147.37C1610.86 146.259 1618.3 144.69 1625.83 143.887C1627.85 143.672 1630.89 144.97 1632.04 146.586C1633.96 149.285 1636.37 149.191 1638.01 147.921C1646.38 141.431 1654.64 145.185 1662.79 147.903C1672.55 151.152 1672.51 151.376 1672.61 161.854C1672.69 169.315 1672.54 176.776 1672.75 184.228C1672.85 187.851 1671.11 189.598 1667.89 189.644C1659.82 189.766 1651.74 189.766 1643.69 189.373C1642.16 189.299 1640.46 187.412 1639.33 185.974C1637.37 183.49 1635.81 180.708 1634.08 178.046C1633.54 178.205 1632.99 178.354 1632.45 178.513H1632.43Z" fill="#009FC2"/>
<path d="M962.248 219.947C962.248 223.15 962.295 229.518 962.23 235.887C962.192 240.266 964.112 243.124 968.493 243.731C972.156 244.235 975.884 244.31 979.593 244.515C986.993 244.926 989.118 246.822 990.255 254.143C991.616 262.865 991.467 262.473 983.424 265.685C968.232 271.755 952.732 272.978 936.842 269.701C921.053 266.441 913.606 256.319 914.566 239.417C915.48 223.299 916.71 207.191 917.735 191.082C918.127 184.975 917.465 184.05 911.463 183.089C907.455 182.444 905.442 180.231 904.967 176.356C904.78 174.815 904.585 173.265 904.529 171.715C904.23 163.217 904.929 162.853 912.73 159.678C919.133 157.072 925.396 153.832 931.156 150.022C933.999 148.136 936.059 144.541 937.559 141.3C939.274 137.602 941.502 135.548 945.593 135.482C950.552 135.408 955.51 135.212 960.468 135.062C964.802 134.932 967.3 136.958 967.356 141.366C967.412 145.708 967.225 150.059 967.058 154.402C966.806 160.985 967.803 162.087 974.234 162.096C978.577 162.096 982.93 162.283 987.264 162.031C991.169 161.798 992.707 163.712 992.763 167.214C992.828 171.565 992.679 175.908 992.669 180.259C992.66 184.265 990.693 186.366 986.695 186.329C981.271 186.282 975.828 186.329 970.422 185.946C966.07 185.638 964.019 187.496 963.777 191.642C963.283 200.019 962.854 208.395 962.23 219.947H962.248Z" fill="#009FC2"/>
<path d="M760.364 216.836C760.364 207.834 760.345 198.823 760.382 189.821C760.392 186.702 759.199 184.704 756.17 183.378C750.251 180.782 751.025 175.169 750.81 170.099C750.596 165.056 754.119 162.432 758.024 161.629C767.95 159.603 772.247 152.151 776.832 144.447C778.128 142.262 781.129 140.441 783.683 139.806C788.771 138.554 794.084 138.143 799.322 137.583C802.379 137.256 804.569 138.694 804.877 141.879C805.296 146.193 805.585 150.545 805.566 154.877C805.548 159.313 807.058 161.918 811.839 162.311C818.326 162.834 824.794 163.739 831.281 164.328C834.748 164.645 836.192 166.223 835.95 169.772C835.717 173.171 835.894 176.598 835.978 180.007C836.071 183.536 834.244 185.199 830.917 185.273C825.81 185.395 820.693 185.423 815.585 185.395C807.393 185.339 806.265 185.983 806.088 194.07C805.79 208.04 805.753 222.038 806.107 236.008C806.321 244.263 809.611 246.14 817.561 243.534C820.805 242.47 823.955 241.144 827.189 240.07C830.293 239.043 832.408 239.902 832.725 243.497C832.94 245.972 833.34 248.456 833.275 250.93C833.163 255.095 831.644 258.886 827.357 260.044C813.013 263.91 798.744 268.43 784.139 270.783C773.766 272.455 760.233 260.268 760.009 246.635C759.926 241.676 760.28 236.708 760.345 231.74C760.41 226.772 760.364 221.795 760.364 216.818V216.836Z" fill="#009FC2"/>
</svg>
