<svg width="962" height="940" viewBox="0 0 962 940" fill="none" xmlns="http://www.w3.org/2000/svg">
<rect width="962" height="940" fill="#F7F7F2"/>
<path d="M222.23 269.056C217.081 269.056 212.894 273.245 212.894 278.396V303.445C212.894 303.643 213.063 303.813 213.261 303.813C213.375 303.813 213.459 303.785 213.516 303.7L231.284 281.283C231.454 281.085 231.567 280.802 231.567 280.519V278.396C231.567 273.245 227.408 269.056 222.23 269.056ZM82.9145 269.056C77.7651 269.056 73.5777 273.245 73.5777 278.396V303.445C73.5777 303.643 73.7475 303.813 73.9456 303.813C74.0304 303.813 74.1436 303.785 74.2002 303.7L91.9683 281.283C92.1381 281.085 92.2513 280.802 92.2513 280.519V278.396C92.2513 273.245 88.0922 269.056 82.9145 269.056ZM222.23 418.586C217.081 418.586 212.894 422.775 212.894 427.926V452.975C212.894 453.173 213.063 453.343 213.261 453.343C213.375 453.343 213.459 453.315 213.516 453.23L231.284 430.813C231.454 430.615 231.567 430.332 231.567 430.049V427.926C231.567 422.775 227.408 418.586 222.23 418.586ZM82.9145 418.586C77.7651 418.586 73.5777 422.775 73.5777 427.926V452.975C73.5777 453.173 73.7475 453.343 73.9456 453.343C74.0304 453.343 74.1436 453.315 74.2002 453.23L91.9683 430.813C92.1381 430.615 92.2513 430.332 92.2513 430.049V427.926C92.2513 422.775 88.0922 418.586 82.9145 418.586ZM140.123 343.835C134.974 343.835 130.787 348.024 130.787 353.175V378.224C130.787 378.422 130.956 378.592 131.154 378.592C131.268 378.592 131.352 378.564 131.409 378.479L149.177 356.062C149.347 355.836 149.46 355.581 149.46 355.298V353.175C149.46 348.024 145.301 343.835 140.123 343.835ZM140.123 44.7754C134.974 44.7754 130.787 48.9644 130.787 54.1157V79.1647C130.787 79.3628 130.956 79.5326 131.154 79.5326C131.268 79.5326 131.352 79.5043 131.409 79.4194L149.177 57.0027C149.347 56.7763 149.46 56.5215 149.46 56.2385V54.1157C149.46 48.9644 145.301 44.7754 140.123 44.7754ZM140.123 194.305C134.974 194.305 130.787 198.494 130.787 203.645V228.694C130.787 228.893 130.956 229.062 131.154 229.062C131.268 229.062 131.352 229.006 131.409 228.949L149.177 206.532C149.347 206.334 149.46 206.051 149.46 205.768V203.645C149.46 198.494 145.301 194.305 140.123 194.305ZM58.0448 418.586C52.8954 418.586 48.708 422.775 48.708 427.926V452.975C48.708 453.173 48.8778 453.343 49.0758 453.343C49.189 453.343 49.2739 453.315 49.3305 453.23L67.0986 430.813C67.2684 430.615 67.3815 430.332 67.3815 430.049V427.926C67.3815 422.775 63.2224 418.586 58.0448 418.586ZM222.23 119.526C217.081 119.526 212.894 123.715 212.894 128.866V153.915C212.894 154.114 213.063 154.283 213.261 154.283C213.375 154.283 213.459 154.227 213.516 154.17L231.284 131.753C231.454 131.527 231.567 131.272 231.567 130.989V128.866C231.567 123.715 227.408 119.526 222.23 119.526ZM165.021 194.305C159.872 194.305 155.685 198.494 155.685 203.645V228.694C155.685 228.893 155.854 229.062 156.052 229.062C156.137 229.062 156.251 229.006 156.307 228.949L174.075 206.532C174.245 206.334 174.358 206.051 174.358 205.768V203.645C174.358 198.494 170.199 194.305 165.021 194.305ZM58.0448 119.526C52.8954 119.526 48.708 123.715 48.708 128.866V153.915C48.708 154.114 48.8778 154.283 49.0758 154.283C49.189 154.283 49.2739 154.227 49.3305 154.17L67.0986 131.753C67.2684 131.527 67.3815 131.272 67.3815 130.989V128.866C67.3815 123.715 63.2224 119.526 58.0448 119.526ZM165.021 343.835C159.872 343.835 155.685 348.024 155.685 353.175V378.224C155.685 378.422 155.854 378.592 156.052 378.592C156.137 378.592 156.251 378.564 156.307 378.479L174.075 356.062C174.245 355.836 174.358 355.581 174.358 355.298V353.175C174.358 348.024 170.199 343.835 165.021 343.835ZM58.0448 269.056C52.8954 269.056 48.708 273.245 48.708 278.396V303.445C48.708 303.643 48.8778 303.813 49.0758 303.813C49.189 303.813 49.2739 303.785 49.3305 303.7L67.0986 281.283C67.2684 281.085 67.3815 280.802 67.3815 280.519V278.396C67.3815 273.245 63.2224 269.056 58.0448 269.056ZM165.021 44.7754C159.872 44.7754 155.685 48.9644 155.685 54.1157V79.1647C155.685 79.3628 155.854 79.5326 156.052 79.5326C156.137 79.5326 156.251 79.5043 156.307 79.4194L174.075 57.0027C174.245 56.7763 174.358 56.5215 174.358 56.2385V54.1157C174.33 48.9644 170.171 44.7754 165.021 44.7754ZM82.9145 119.526C77.7651 119.526 73.5777 123.715 73.5777 128.866V153.915C73.5777 154.114 73.7475 154.283 73.9456 154.283C74.0304 154.283 74.1436 154.227 74.2002 154.17L91.9683 131.753C92.1381 131.527 92.2513 131.272 92.2513 130.989V128.866C92.2513 123.715 88.0922 119.526 82.9145 119.526ZM247.128 119.526C241.979 119.526 237.792 123.715 237.792 128.866V153.915C237.792 154.114 237.961 154.283 238.159 154.283C238.273 154.283 238.357 154.227 238.414 154.17L256.182 131.753C256.352 131.527 256.465 131.272 256.465 130.989V128.866C256.465 123.715 252.278 119.526 247.128 119.526ZM247.128 269.056C241.979 269.056 237.792 273.245 237.792 278.396V303.445C237.792 303.643 237.961 303.813 238.159 303.813C238.273 303.813 238.357 303.785 238.414 303.7L256.182 281.283C256.352 281.085 256.465 280.802 256.465 280.519V278.396C256.465 273.245 252.278 269.056 247.128 269.056ZM247.128 418.586C241.979 418.586 237.792 422.775 237.792 427.926V452.975C237.792 453.173 237.961 453.343 238.159 453.343C238.273 453.343 238.357 453.315 238.414 453.23L256.182 430.813C256.352 430.615 256.465 430.332 256.465 430.049V427.926C256.465 422.775 252.278 418.586 247.128 418.586ZM796.95 44.7754C791.801 44.7754 787.642 48.9644 787.642 54.1157V79.1647C787.642 79.3628 787.812 79.5326 788.01 79.5326C788.095 79.5326 788.208 79.5043 788.264 79.4194L806.033 57.0027C806.202 56.7763 806.315 56.5215 806.315 56.2385V54.1157C806.315 48.9644 802.128 44.7754 796.979 44.7754M632.765 44.7754C627.616 44.7754 623.428 48.9644 623.428 54.1157V79.1647C623.428 79.3628 623.598 79.5326 623.796 79.5326C623.909 79.5326 623.994 79.5043 624.051 79.4194L641.819 57.0027C641.988 56.7763 642.102 56.5215 642.102 56.2385V54.1157C642.102 48.9644 637.914 44.7754 632.765 44.7754ZM632.765 194.305C627.616 194.305 623.428 198.494 623.428 203.645V228.694C623.428 228.893 623.598 229.062 623.796 229.062C623.909 229.062 623.994 229.006 624.051 228.949L641.819 206.532C641.988 206.334 642.102 206.051 642.102 205.768V203.645C642.102 198.494 637.914 194.305 632.765 194.305ZM632.765 343.835C627.616 343.835 623.428 348.024 623.428 353.175V378.224C623.428 378.422 623.598 378.592 623.796 378.592C623.909 378.592 623.994 378.564 624.051 378.479L641.819 356.062C641.988 355.836 642.102 355.581 642.102 355.298V353.175C642.102 348.024 637.914 343.835 632.765 343.835ZM903.955 119.526C898.806 119.526 894.619 123.715 894.619 128.866V153.915C894.619 154.114 894.788 154.283 894.986 154.283C895.1 154.283 895.185 154.227 895.241 154.17L913.009 131.753C913.179 131.527 913.292 131.272 913.292 130.989V128.866C913.292 123.715 909.105 119.526 903.955 119.526ZM657.635 44.7754C652.485 44.7754 648.298 48.9644 648.298 54.1157V79.1647C648.298 79.3628 648.468 79.5326 648.666 79.5326C648.779 79.5326 648.864 79.5043 648.92 79.4194L666.688 57.0027C666.858 56.7763 666.971 56.5215 666.971 56.2385V54.1157C666.971 48.9644 662.784 44.7754 657.635 44.7754ZM879.057 119.526C873.908 119.526 869.721 123.715 869.721 128.866V153.915C869.721 154.114 869.89 154.283 870.088 154.283C870.202 154.283 870.286 154.227 870.343 154.17L888.111 131.753C888.281 131.527 888.394 131.272 888.394 130.989V128.866C888.394 123.715 884.207 119.526 879.057 119.526ZM657.635 194.305C652.485 194.305 648.298 198.494 648.298 203.645V228.694C648.298 228.893 648.468 229.062 648.666 229.062C648.779 229.062 648.864 229.006 648.92 228.949L666.688 206.532C666.858 206.334 666.971 206.051 666.971 205.768V203.645C666.971 198.494 662.784 194.305 657.635 194.305ZM657.635 343.835C652.485 343.835 648.298 348.024 648.298 353.175V378.224C648.298 378.422 648.468 378.592 648.666 378.592C648.779 378.592 648.864 378.564 648.92 378.479L666.688 356.062C666.858 355.836 666.971 355.581 666.971 355.298V353.175C666.971 348.024 662.784 343.835 657.635 343.835ZM879.057 269.056C873.908 269.056 869.721 273.245 869.721 278.396V303.445C869.721 303.643 869.89 303.813 870.088 303.813C870.202 303.813 870.286 303.785 870.343 303.7L888.111 281.283C888.281 281.085 888.394 280.802 888.394 280.519V278.396C888.394 273.245 884.207 269.056 879.057 269.056ZM903.955 269.056C898.806 269.056 894.619 273.245 894.619 278.396V303.445C894.619 303.643 894.788 303.813 894.986 303.813C895.1 303.813 895.185 303.785 895.241 303.7L913.009 281.283C913.179 281.085 913.292 280.802 913.292 280.519V278.396C913.292 273.245 909.105 269.056 903.955 269.056ZM903.955 418.586C898.806 418.586 894.619 422.775 894.619 427.926V452.975C894.619 453.173 894.788 453.343 894.986 453.343C895.1 453.343 895.185 453.315 895.241 453.23L913.009 430.813C913.179 430.615 913.292 430.332 913.292 430.049V427.926C913.292 422.775 909.105 418.586 903.955 418.586ZM575.528 119.526C570.378 119.526 566.191 123.715 566.191 128.866V153.915C566.191 154.114 566.361 154.283 566.559 154.283C566.672 154.283 566.757 154.227 566.813 154.17L584.582 131.753C584.751 131.527 584.865 131.272 584.865 130.989V128.866C584.865 123.715 580.705 119.526 575.528 119.526ZM575.528 418.586C570.378 418.586 566.191 422.775 566.191 427.926V452.975C566.191 453.173 566.361 453.343 566.559 453.343C566.672 453.343 566.757 453.315 566.813 453.23L584.582 430.813C584.751 430.615 584.865 430.332 584.865 430.049V427.926C584.865 422.775 580.705 418.586 575.528 418.586ZM575.528 269.056C570.378 269.056 566.191 273.245 566.191 278.396V303.445C566.191 303.643 566.361 303.813 566.559 303.813C566.672 303.813 566.757 303.785 566.813 303.7L584.582 281.283C584.751 281.085 584.865 280.802 584.865 280.519V278.396C584.865 273.245 580.705 269.056 575.528 269.056ZM821.848 343.835C816.699 343.835 812.512 348.024 812.512 353.175V378.224C812.512 378.422 812.681 378.592 812.88 378.592C812.993 378.592 813.078 378.564 813.134 378.479L830.902 356.062C831.072 355.836 831.185 355.581 831.185 355.298V353.175C831.185 348.024 826.998 343.835 821.848 343.835ZM821.848 194.305C816.699 194.305 812.512 198.494 812.512 203.645V228.694C812.512 228.893 812.681 229.062 812.88 229.062C812.993 229.062 813.078 229.006 813.134 228.949L830.902 206.532C831.072 206.334 831.185 206.051 831.185 205.768V203.645C831.185 198.494 826.998 194.305 821.848 194.305ZM821.848 44.7754C816.699 44.7754 812.512 48.9644 812.512 54.1157V79.1647C812.512 79.3628 812.681 79.5326 812.88 79.5326C812.993 79.5326 813.078 79.5043 813.134 79.4194L830.902 57.0027C831.072 56.7763 831.185 56.5215 831.185 56.2385V54.1157C831.185 48.9644 826.998 44.7754 821.848 44.7754ZM796.95 194.305C791.801 194.305 787.642 198.494 787.642 203.645V228.694C787.642 228.893 787.812 229.062 788.01 229.062C788.095 229.062 788.208 229.006 788.264 228.949L806.033 206.532C806.202 206.334 806.315 206.051 806.315 205.768V203.645C806.315 198.494 802.128 194.305 796.979 194.305M739.742 119.526C734.592 119.526 730.405 123.715 730.405 128.866V153.915C730.405 154.114 730.575 154.283 730.773 154.283C730.886 154.283 730.971 154.227 731.027 154.17L748.795 131.753C748.965 131.527 749.078 131.272 749.078 130.989V128.866C749.078 123.715 744.919 119.526 739.742 119.526ZM714.872 418.586C709.722 418.586 705.535 422.775 705.535 427.926V452.975C705.535 453.173 705.705 453.343 705.903 453.343C706.016 453.343 706.101 453.315 706.157 453.23L723.926 430.813C724.095 430.615 724.209 430.332 724.209 430.049V427.926C724.209 422.775 720.021 418.586 714.872 418.586ZM879.057 418.586C873.908 418.586 869.721 422.775 869.721 427.926V452.975C869.721 453.173 869.89 453.343 870.088 453.343C870.202 453.343 870.286 453.315 870.343 453.23L888.111 430.813C888.281 430.615 888.394 430.332 888.394 430.049V427.926C888.394 422.775 884.207 418.586 879.057 418.586ZM714.872 269.056C709.722 269.056 705.535 273.245 705.535 278.396V303.445C705.535 303.643 705.705 303.813 705.903 303.813C706.016 303.813 706.101 303.785 706.157 303.7L723.926 281.283C724.095 281.085 724.209 280.802 724.209 280.519V278.396C724.209 273.245 720.021 269.056 714.872 269.056ZM739.742 269.056C734.592 269.056 730.405 273.245 730.405 278.396V303.445C730.405 303.643 730.575 303.813 730.773 303.813C730.886 303.813 730.971 303.785 731.027 303.7L748.795 281.283C748.965 281.085 749.078 280.802 749.078 280.519V278.396C749.078 273.245 744.919 269.056 739.742 269.056ZM739.742 418.586C734.592 418.586 730.405 422.775 730.405 427.926V452.975C730.405 453.173 730.575 453.343 730.773 453.343C730.886 453.343 730.971 453.315 731.027 453.23L748.795 430.813C748.965 430.615 749.078 430.332 749.078 430.049V427.926C749.078 422.775 744.919 418.586 739.742 418.586ZM714.872 119.526C709.722 119.526 705.535 123.715 705.535 128.866V153.915C705.535 154.114 705.705 154.283 705.903 154.283C706.016 154.283 706.101 154.227 706.157 154.17L723.926 131.753C724.095 131.527 724.209 131.272 724.209 130.989V128.866C724.209 123.715 720.021 119.526 714.872 119.526ZM796.95 343.835C791.801 343.835 787.642 348.024 787.642 353.175V378.224C787.642 378.422 787.812 378.592 788.01 378.592C788.095 378.592 788.208 378.564 788.264 378.479L806.033 356.062C806.202 355.836 806.315 355.581 806.315 355.298V353.175C806.315 348.024 802.128 343.835 796.979 343.835M386.444 418.586C381.295 418.586 377.107 422.775 377.107 427.926V452.975C377.107 453.173 377.277 453.343 377.475 453.343C377.588 453.343 377.673 453.315 377.73 453.23L395.498 430.813C395.668 430.615 395.781 430.332 395.781 430.049V427.926C395.781 422.775 391.622 418.586 386.444 418.586ZM386.444 119.526C381.295 119.526 377.107 123.715 377.107 128.866V153.915C377.107 154.114 377.277 154.283 377.475 154.283C377.588 154.283 377.673 154.227 377.73 154.17L395.498 131.753C395.668 131.527 395.781 131.272 395.781 130.989V128.866C395.781 123.715 391.622 119.526 386.444 119.526ZM550.658 119.526C545.509 119.526 541.321 123.715 541.321 128.866V153.915C541.321 154.114 541.491 154.283 541.689 154.283C541.802 154.283 541.887 154.227 541.944 154.17L559.712 131.753C559.882 131.527 559.995 131.272 559.995 130.989V128.866C559.995 123.715 555.807 119.526 550.658 119.526ZM386.444 269.056C381.295 269.056 377.107 273.245 377.107 278.396V303.445C377.107 303.643 377.277 303.813 377.475 303.813C377.588 303.813 377.673 303.785 377.73 303.7L395.498 281.283C395.668 281.085 395.781 280.802 395.781 280.519V278.396C395.781 273.245 391.622 269.056 386.444 269.056ZM304.337 194.305C299.188 194.305 295 198.494 295 203.645V228.694C295 228.893 295.17 229.062 295.368 229.062C295.481 229.062 295.566 229.006 295.623 228.949L313.391 206.532C313.561 206.334 313.674 206.051 313.674 205.768V203.645C313.674 198.494 309.487 194.305 304.337 194.305ZM304.337 44.7754C299.188 44.7754 295 48.9644 295 54.1157V79.1647C295 79.3628 295.17 79.5326 295.368 79.5326C295.481 79.5326 295.566 79.5043 295.623 79.4194L313.391 57.0027C313.561 56.7763 313.674 56.5215 313.674 56.2385V54.1157C313.674 48.9644 309.487 44.7754 304.337 44.7754ZM304.337 343.835C299.188 343.835 295 348.024 295 353.175V378.224C295 378.422 295.17 378.592 295.368 378.592C295.481 378.592 295.566 378.564 295.623 378.479L313.391 356.062C313.561 355.836 313.674 355.581 313.674 355.298V353.175C313.674 348.024 309.487 343.835 304.337 343.835ZM329.235 194.305C324.086 194.305 319.898 198.494 319.898 203.645V228.694C319.898 228.893 320.068 229.062 320.266 229.062C320.379 229.062 320.464 229.006 320.521 228.949L338.289 206.532C338.459 206.334 338.572 206.051 338.572 205.768V203.645C338.572 198.494 334.385 194.305 329.235 194.305ZM329.235 44.7754C324.086 44.7754 319.898 48.9644 319.898 54.1157V79.1647C319.898 79.3628 320.068 79.5326 320.266 79.5326C320.379 79.5326 320.464 79.5043 320.521 79.4194L338.289 57.0027C338.459 56.7763 338.572 56.5215 338.572 56.2385V54.1157C338.544 48.9644 334.385 44.7754 329.235 44.7754ZM329.235 343.835C324.086 343.835 319.898 348.024 319.898 353.175V378.224C319.898 378.422 320.068 378.592 320.266 378.592C320.379 378.592 320.464 378.564 320.521 378.479L338.289 356.062C338.459 355.836 338.572 355.581 338.572 355.298V353.175C338.572 348.024 334.385 343.835 329.235 343.835ZM468.551 194.305C463.402 194.305 459.214 198.494 459.214 203.645V228.694C459.214 228.893 459.384 229.062 459.582 229.062C459.695 229.062 459.78 229.006 459.837 228.949L477.605 206.532C477.775 206.334 477.888 206.051 477.888 205.768V203.645C477.888 198.494 473.7 194.305 468.551 194.305ZM493.421 343.835C488.271 343.835 484.084 348.024 484.084 353.175V378.224C484.084 378.422 484.254 378.592 484.452 378.592C484.537 378.592 484.65 378.564 484.706 378.479L502.475 356.062C502.644 355.836 502.758 355.581 502.758 355.298V353.175C502.758 348.024 498.598 343.835 493.421 343.835ZM493.421 194.305C488.271 194.305 484.084 198.494 484.084 203.645V228.694C484.084 228.893 484.254 229.062 484.452 229.062C484.537 229.062 484.65 229.006 484.706 228.949L502.475 206.532C502.644 206.334 502.758 206.051 502.758 205.768V203.645C502.758 198.494 498.598 194.305 493.421 194.305ZM468.551 44.7754C463.402 44.7754 459.214 48.9644 459.214 54.1157V79.1647C459.214 79.3628 459.384 79.5326 459.582 79.5326C459.695 79.5326 459.78 79.5043 459.837 79.4194L477.605 57.0027C477.775 56.7763 477.888 56.5215 477.888 56.2385V54.1157C477.888 48.9644 473.7 44.7754 468.551 44.7754ZM493.421 44.7754C488.271 44.7754 484.084 48.9644 484.084 54.1157V79.1647C484.084 79.3628 484.254 79.5326 484.452 79.5326C484.537 79.5326 484.65 79.5043 484.706 79.4194L502.475 57.0027C502.644 56.7763 502.758 56.5215 502.758 56.2385V54.1157C502.758 48.9644 498.598 44.7754 493.421 44.7754ZM550.658 269.056C545.509 269.056 541.321 273.245 541.321 278.396V303.445C541.321 303.643 541.491 303.813 541.689 303.813C541.802 303.813 541.887 303.785 541.944 303.7L559.712 281.283C559.882 281.085 559.995 280.802 559.995 280.519V278.396C559.995 273.245 555.807 269.056 550.658 269.056ZM550.658 418.586C545.509 418.586 541.321 422.775 541.321 427.926V452.975C541.321 453.173 541.491 453.343 541.689 453.343C541.802 453.343 541.887 453.315 541.944 453.23L559.712 430.813C559.882 430.615 559.995 430.332 559.995 430.049V427.926C559.995 422.775 555.807 418.586 550.658 418.586ZM411.314 269.056C406.165 269.056 401.977 273.245 401.977 278.396V303.445C401.977 303.643 402.147 303.813 402.345 303.813C402.458 303.813 402.543 303.785 402.6 303.7L420.368 281.283C420.537 281.085 420.651 280.802 420.651 280.519V278.396C420.651 273.245 416.463 269.056 411.314 269.056ZM468.551 343.835C463.402 343.835 459.214 348.024 459.214 353.175V378.224C459.214 378.422 459.384 378.592 459.582 378.592C459.695 378.592 459.78 378.564 459.837 378.479L477.605 356.062C477.775 355.836 477.888 355.581 477.888 355.298V353.175C477.888 348.024 473.7 343.835 468.551 343.835ZM411.314 119.526C406.165 119.526 401.977 123.715 401.977 128.866V153.915C401.977 154.114 402.147 154.283 402.345 154.283C402.458 154.283 402.543 154.227 402.6 154.17L420.368 131.753C420.537 131.527 420.651 131.272 420.651 130.989V128.866C420.651 123.715 416.463 119.526 411.314 119.526ZM411.314 418.586C406.165 418.586 401.977 422.775 401.977 427.926V452.975C401.977 453.173 402.147 453.343 402.345 453.343C402.458 453.343 402.543 453.315 402.6 453.23L420.368 430.813C420.537 430.615 420.651 430.332 420.651 430.049V427.926C420.651 422.775 416.463 418.586 411.314 418.586Z" fill="#E8CF00"/>
<path d="M903.955 44.7754C898.806 44.7754 894.619 48.9644 894.619 54.1157V79.1647C894.619 79.3628 894.788 79.5326 894.986 79.5326C895.1 79.5326 895.185 79.476 895.241 79.4194L913.009 57.0027C913.179 56.8046 913.292 56.5215 913.292 56.2385V54.1157C913.292 48.9644 909.133 44.7754 903.955 44.7754ZM165.021 119.526C159.872 119.526 155.685 123.715 155.685 128.866V153.915C155.685 154.114 155.854 154.283 156.052 154.283C156.166 154.283 156.251 154.227 156.307 154.17L174.075 131.753C174.245 131.527 174.358 131.272 174.358 130.989V128.866C174.358 123.715 170.199 119.526 165.021 119.526ZM165.021 418.586C159.872 418.586 155.685 422.775 155.685 427.926V452.975C155.685 453.173 155.854 453.343 156.052 453.343C156.166 453.343 156.251 453.315 156.307 453.23L174.075 430.813C174.245 430.615 174.358 430.332 174.358 430.049V427.926C174.358 422.775 170.199 418.586 165.021 418.586ZM165.021 269.056C159.872 269.056 155.685 273.245 155.685 278.396V303.445C155.685 303.643 155.854 303.813 156.052 303.813C156.166 303.813 156.251 303.785 156.307 303.7L174.075 281.283C174.245 281.085 174.358 280.802 174.358 280.519V278.396C174.358 273.245 170.199 269.056 165.021 269.056ZM903.955 194.305C898.806 194.305 894.619 198.494 894.619 203.645V228.694C894.619 228.893 894.788 229.062 894.986 229.062C895.1 229.062 895.185 229.006 895.241 228.949L913.009 206.532C913.179 206.334 913.292 206.051 913.292 205.768V203.645C913.292 198.494 909.133 194.305 903.955 194.305ZM903.955 343.835C898.806 343.835 894.619 348.024 894.619 353.175V378.224C894.619 378.422 894.788 378.592 894.986 378.592C895.1 378.592 895.185 378.564 895.241 378.479L913.009 356.062C913.179 355.836 913.292 355.581 913.292 355.298V353.175C913.292 348.024 909.133 343.835 903.955 343.835ZM58.0448 343.835C52.8954 343.835 48.708 347.996 48.708 353.147V378.196C48.708 378.394 48.8778 378.564 49.0758 378.564C49.189 378.564 49.2739 378.536 49.3305 378.451L67.0986 356.034C67.2684 355.808 67.3815 355.553 67.3815 355.27V353.147C67.3815 347.996 63.2224 343.807 58.0448 343.807M796.979 269.056C791.829 269.056 787.642 273.245 787.642 278.396V303.445C787.642 303.643 787.812 303.813 788.01 303.813C788.123 303.813 788.208 303.785 788.264 303.7L806.033 281.283C806.202 281.085 806.315 280.802 806.315 280.519V278.396C806.315 273.245 802.156 269.056 796.979 269.056ZM796.979 119.526C791.829 119.526 787.642 123.715 787.642 128.866V153.915C787.642 154.114 787.812 154.283 788.01 154.283C788.123 154.283 788.208 154.227 788.264 154.17L806.033 131.753C806.202 131.527 806.315 131.272 806.315 130.989V128.866C806.315 123.715 802.156 119.526 796.979 119.526ZM58.0448 44.7754C52.8954 44.7754 48.708 48.9644 48.708 54.1157V79.1647C48.708 79.3628 48.8778 79.5326 49.0758 79.5326C49.189 79.5326 49.2739 79.476 49.3305 79.4194L67.0986 57.0027C67.2684 56.8046 67.3815 56.5215 67.3815 56.2385V54.1157C67.3815 48.9644 63.2224 44.7754 58.0448 44.7754ZM58.0448 194.305C52.8954 194.305 48.708 198.466 48.708 203.617V228.666C48.708 228.864 48.8778 229.034 49.0758 229.034C49.189 229.034 49.2739 228.978 49.3305 228.921L67.0986 206.504C67.2684 206.306 67.3815 206.023 67.3815 205.74V203.617C67.3815 198.466 63.2224 194.277 58.0448 194.277M739.742 343.835C734.592 343.835 730.405 348.024 730.405 353.175V378.224C730.405 378.422 730.575 378.592 730.773 378.592C730.886 378.592 730.971 378.564 731.027 378.479L748.795 356.062C748.965 355.836 749.078 355.581 749.078 355.298V353.175C749.078 348.024 744.891 343.835 739.742 343.835ZM739.742 194.305C734.592 194.305 730.405 198.494 730.405 203.645V228.694C730.405 228.893 730.575 229.062 730.773 229.062C730.886 229.062 730.971 229.006 731.027 228.949L748.795 206.532C748.965 206.334 749.078 206.051 749.078 205.768V203.645C749.078 198.494 744.891 194.305 739.742 194.305ZM796.979 418.586C791.829 418.586 787.642 422.775 787.642 427.926V452.975C787.642 453.173 787.812 453.343 788.01 453.343C788.123 453.343 788.208 453.315 788.264 453.23L806.033 430.813C806.202 430.615 806.315 430.332 806.315 430.049V427.926C806.315 422.775 802.156 418.586 796.979 418.586ZM879.057 343.835C873.908 343.835 869.749 348.024 869.749 353.175V378.224C869.749 378.422 869.919 378.592 870.117 378.592C870.23 378.592 870.315 378.564 870.371 378.479L888.139 356.062C888.309 355.836 888.422 355.581 888.422 355.298V353.175C888.422 348.024 884.235 343.835 879.086 343.835M879.057 194.305C873.908 194.305 869.749 198.494 869.749 203.645V228.694C869.749 228.893 869.919 229.062 870.117 229.062C870.23 229.062 870.315 229.006 870.371 228.949L888.139 206.532C888.309 206.334 888.422 206.051 888.422 205.768V203.645C888.422 198.494 884.235 194.305 879.086 194.305M879.057 44.7754C873.908 44.7754 869.749 48.9644 869.749 54.1157V79.1647C869.749 79.3628 869.919 79.5326 870.117 79.5326C870.23 79.5326 870.315 79.476 870.371 79.4194L888.139 57.0027C888.309 56.8046 888.422 56.5215 888.422 56.2385V54.1157C888.422 48.9644 884.235 44.7754 879.086 44.7754M714.872 343.835C709.722 343.835 705.535 348.024 705.535 353.175V378.224C705.535 378.422 705.705 378.592 705.903 378.592C706.016 378.592 706.101 378.564 706.157 378.479L723.926 356.062C724.095 355.836 724.209 355.581 724.209 355.298V353.175C724.209 348.024 720.049 343.835 714.872 343.835ZM714.872 44.7754C709.722 44.7754 705.535 48.9644 705.535 54.1157V79.1647C705.535 79.3628 705.705 79.5326 705.903 79.5326C706.016 79.5326 706.101 79.476 706.157 79.4194L723.926 57.0027C724.095 56.8046 724.209 56.5215 724.209 56.2385V54.1157C724.209 48.9644 720.049 44.7754 714.872 44.7754ZM140.152 119.526C135.002 119.526 130.815 123.715 130.815 128.866V153.915C130.815 154.114 130.985 154.283 131.183 154.283C131.296 154.283 131.381 154.227 131.437 154.17L149.206 131.753C149.375 131.527 149.488 131.272 149.488 130.989V128.866C149.488 123.715 145.329 119.526 140.152 119.526ZM714.872 194.305C709.722 194.305 705.535 198.494 705.535 203.645V228.694C705.535 228.893 705.705 229.062 705.903 229.062C706.016 229.062 706.101 229.006 706.157 228.949L723.926 206.532C724.095 206.334 724.209 206.051 724.209 205.768V203.645C724.209 198.494 720.049 194.305 714.872 194.305ZM140.152 418.586C135.002 418.586 130.815 422.775 130.815 427.926V452.975C130.815 453.173 130.985 453.343 131.183 453.343C131.296 453.343 131.381 453.315 131.437 453.23L149.206 430.813C149.375 430.615 149.488 430.332 149.488 430.049V427.926C149.488 422.775 145.329 418.586 140.152 418.586ZM140.152 269.056C135.002 269.056 130.815 273.245 130.815 278.396V303.445C130.815 303.643 130.985 303.813 131.183 303.813C131.296 303.813 131.381 303.785 131.437 303.7L149.206 281.283C149.375 281.085 149.488 280.802 149.488 280.519V278.396C149.488 273.245 145.329 269.056 140.152 269.056ZM82.9145 343.835C77.7651 343.835 73.5777 348.024 73.5777 353.175V378.224C73.5777 378.422 73.7475 378.592 73.9456 378.592C74.0304 378.592 74.1436 378.564 74.2002 378.479L91.9683 356.062C92.1381 355.836 92.2513 355.581 92.2513 355.298V353.175C92.2513 348.024 88.0922 343.835 82.9145 343.835ZM82.9145 44.7754C77.7651 44.7754 73.5777 48.9644 73.5777 54.1157V79.1647C73.5777 79.3628 73.7475 79.5326 73.9456 79.5326C74.0304 79.5326 74.1436 79.476 74.2002 79.4194L91.9683 57.0027C92.1381 56.8046 92.2513 56.5215 92.2513 56.2385V54.1157C92.2513 48.9644 88.0922 44.7754 82.9145 44.7754ZM82.9145 194.305C77.7651 194.305 73.5777 198.494 73.5777 203.645V228.694C73.5777 228.893 73.7475 229.062 73.9456 229.062C74.0304 229.062 74.1436 229.006 74.2002 228.949L91.9683 206.532C92.1381 206.334 92.2513 206.051 92.2513 205.768V203.645C92.2513 198.494 88.0922 194.305 82.9145 194.305ZM821.848 418.586C816.699 418.586 812.512 422.775 812.512 427.926V452.975C812.512 453.173 812.681 453.343 812.88 453.343C812.993 453.343 813.078 453.315 813.134 453.23L830.902 430.813C831.072 430.615 831.185 430.332 831.185 430.049V427.926C831.185 422.775 827.026 418.586 821.848 418.586ZM821.848 269.056C816.699 269.056 812.512 273.245 812.512 278.396V303.445C812.512 303.643 812.681 303.813 812.88 303.813C812.993 303.813 813.078 303.785 813.134 303.7L830.902 281.283C831.072 281.085 831.185 280.802 831.185 280.519V278.396C831.185 273.245 827.026 269.056 821.848 269.056ZM821.848 119.526C816.699 119.526 812.512 123.715 812.512 128.866V153.915C812.512 154.114 812.681 154.283 812.88 154.283C812.993 154.283 813.078 154.227 813.134 154.17L830.902 131.753C831.072 131.527 831.185 131.272 831.185 130.989V128.866C831.185 123.715 827.026 119.526 821.848 119.526ZM411.342 44.7754C406.193 44.7754 402.005 48.9644 402.005 54.1157V79.1647C402.005 79.3628 402.175 79.5326 402.373 79.5326C402.486 79.5326 402.571 79.476 402.628 79.4194L420.396 57.0027C420.566 56.8046 420.679 56.5215 420.679 56.2385V54.1157C420.679 48.9644 416.492 44.7754 411.342 44.7754ZM411.342 194.305C406.193 194.305 402.005 198.494 402.005 203.645V228.694C402.005 228.893 402.175 229.062 402.373 229.062C402.486 229.062 402.571 229.006 402.628 228.949L420.396 206.532C420.566 206.334 420.679 206.051 420.679 205.768V203.645C420.679 198.494 416.492 194.305 411.342 194.305ZM411.342 343.835C406.193 343.835 402.005 348.024 402.005 353.175V378.224C402.005 378.422 402.175 378.592 402.373 378.592C402.486 378.592 402.571 378.564 402.628 378.479L420.396 356.062C420.566 355.836 420.679 355.581 420.679 355.298V353.175C420.679 348.024 416.492 343.835 411.342 343.835ZM575.528 44.7754C570.378 44.7754 566.191 48.9644 566.191 54.1157V79.1647C566.191 79.3628 566.361 79.5326 566.559 79.5326C566.672 79.5326 566.757 79.476 566.813 79.4194L584.582 57.0027C584.751 56.8046 584.865 56.5215 584.865 56.2385V54.1157C584.865 48.9644 580.705 44.7754 575.528 44.7754ZM386.444 194.305C381.295 194.305 377.107 198.494 377.107 203.645V228.694C377.107 228.893 377.277 229.062 377.475 229.062C377.56 229.062 377.673 229.006 377.73 228.949L395.498 206.532C395.668 206.334 395.781 206.051 395.781 205.768V203.645C395.781 198.494 391.622 194.305 386.444 194.305ZM386.444 343.835C381.295 343.835 377.107 348.024 377.107 353.175V378.224C377.107 378.422 377.277 378.592 377.475 378.592C377.56 378.592 377.673 378.564 377.73 378.479L395.498 356.062C395.668 355.836 395.781 355.581 395.781 355.298V353.175C395.781 348.024 391.622 343.835 386.444 343.835ZM386.444 44.7754C381.295 44.7754 377.107 48.9644 377.107 54.1157V79.1647C377.107 79.3628 377.277 79.5326 377.475 79.5326C377.56 79.5326 377.673 79.476 377.73 79.4194L395.498 57.0027C395.668 56.8046 395.781 56.5215 395.781 56.2385V54.1157C395.781 48.9644 391.622 44.7754 386.444 44.7754ZM493.421 418.586C488.271 418.586 484.084 422.775 484.084 427.926V452.975C484.084 453.173 484.254 453.343 484.452 453.343C484.537 453.343 484.622 453.315 484.706 453.23L502.475 430.813C502.644 430.615 502.758 430.332 502.758 430.049V427.926C502.758 422.775 498.57 418.586 493.421 418.586ZM493.421 269.056C488.271 269.056 484.084 273.245 484.084 278.396V303.445C484.084 303.643 484.254 303.813 484.452 303.813C484.537 303.813 484.622 303.785 484.706 303.7L502.475 281.283C502.644 281.085 502.758 280.802 502.758 280.519V278.396C502.758 273.245 498.57 269.056 493.421 269.056ZM493.421 119.526C488.271 119.526 484.084 123.715 484.084 128.866V153.915C484.084 154.114 484.254 154.283 484.452 154.283C484.537 154.283 484.622 154.227 484.706 154.17L502.475 131.753C502.644 131.527 502.758 131.272 502.758 130.989V128.866C502.758 123.715 498.57 119.526 493.421 119.526ZM575.528 194.305C570.378 194.305 566.191 198.494 566.191 203.645V228.694C566.191 228.893 566.361 229.062 566.559 229.062C566.672 229.062 566.757 229.006 566.813 228.949L584.582 206.532C584.751 206.334 584.865 206.051 584.865 205.768V203.645C584.865 198.494 580.705 194.305 575.528 194.305ZM575.528 343.835C570.378 343.835 566.191 348.024 566.191 353.175V378.224C566.191 378.422 566.361 378.592 566.559 378.592C566.672 378.592 566.757 378.564 566.813 378.479L584.582 356.062C584.751 355.836 584.865 355.581 584.865 355.298V353.175C584.865 348.024 580.705 343.835 575.528 343.835ZM550.658 44.7754C545.509 44.7754 541.321 48.9644 541.321 54.1157V79.1647C541.321 79.3628 541.491 79.5326 541.689 79.5326C541.802 79.5326 541.887 79.476 541.944 79.4194L559.712 57.0027C559.882 56.8046 559.995 56.5215 559.995 56.2385V54.1157C559.995 48.9644 555.807 44.7754 550.658 44.7754ZM550.658 343.835C545.509 343.835 541.321 348.024 541.321 353.175V378.224C541.321 378.422 541.491 378.592 541.689 378.592C541.802 378.592 541.887 378.564 541.944 378.479L559.712 356.062C559.882 355.836 559.995 355.581 559.995 355.298V353.175C559.995 348.024 555.807 343.835 550.658 343.835ZM550.658 194.305C545.509 194.305 541.321 198.494 541.321 203.645V228.694C541.321 228.893 541.491 229.062 541.689 229.062C541.802 229.062 541.887 229.006 541.944 228.949L559.712 206.532C559.882 206.334 559.995 206.051 559.995 205.768V203.645C559.995 198.494 555.807 194.305 550.658 194.305ZM468.551 119.526C463.402 119.526 459.214 123.715 459.214 128.866V153.915C459.214 154.114 459.384 154.283 459.582 154.283C459.695 154.283 459.78 154.227 459.837 154.17L477.605 131.753C477.775 131.527 477.888 131.272 477.888 130.989V128.866C477.888 123.715 473.7 119.526 468.551 119.526ZM468.551 269.056C463.402 269.056 459.214 273.245 459.214 278.396V303.445C459.214 303.643 459.384 303.813 459.582 303.813C459.695 303.813 459.78 303.785 459.837 303.7L477.605 281.283C477.775 281.085 477.888 280.802 477.888 280.519V278.396C477.888 273.245 473.7 269.056 468.551 269.056ZM468.551 418.586C463.402 418.586 459.214 422.775 459.214 427.926V452.975C459.214 453.173 459.384 453.343 459.582 453.343C459.695 453.343 459.78 453.315 459.837 453.23L477.605 430.813C477.775 430.615 477.888 430.332 477.888 430.049V427.926C477.888 422.775 473.7 418.586 468.551 418.586ZM657.635 119.526C652.485 119.526 648.298 123.715 648.298 128.866V153.915C648.298 154.114 648.468 154.283 648.666 154.283C648.779 154.283 648.864 154.227 648.92 154.17L666.688 131.753C666.858 131.527 666.971 131.272 666.971 130.989V128.866C666.971 123.715 662.784 119.526 657.635 119.526ZM657.635 418.586C652.485 418.586 648.298 422.775 648.298 427.926V452.975C648.298 453.173 648.468 453.343 648.666 453.343C648.779 453.343 648.864 453.315 648.92 453.23L666.688 430.813C666.858 430.615 666.971 430.332 666.971 430.049V427.926C666.971 422.775 662.784 418.586 657.635 418.586ZM657.635 269.056C652.485 269.056 648.298 273.245 648.298 278.396V303.445C648.298 303.643 648.468 303.813 648.666 303.813C648.779 303.813 648.864 303.785 648.92 303.7L666.688 281.283C666.858 281.085 666.971 280.802 666.971 280.519V278.396C666.971 273.245 662.784 269.056 657.635 269.056ZM222.23 194.305C217.081 194.305 212.894 198.494 212.894 203.645V228.694C212.894 228.893 213.063 229.062 213.261 229.062C213.375 229.062 213.459 229.006 213.516 228.949L231.284 206.532C231.454 206.334 231.567 206.051 231.567 205.768V203.645C231.567 198.494 227.38 194.305 222.23 194.305ZM222.23 343.835C217.081 343.835 212.894 348.024 212.894 353.175V378.224C212.894 378.422 213.063 378.592 213.261 378.592C213.375 378.592 213.459 378.564 213.516 378.479L231.284 356.062C231.454 355.836 231.567 355.581 231.567 355.298V353.175C231.567 348.024 227.38 343.835 222.23 343.835ZM222.23 44.7754C217.081 44.7754 212.894 48.9644 212.894 54.1157V79.1647C212.894 79.3628 213.063 79.5326 213.261 79.5326C213.375 79.5326 213.459 79.476 213.516 79.4194L231.284 57.0027C231.454 56.8046 231.567 56.5215 231.567 56.2385V54.1157C231.567 48.9644 227.38 44.7754 222.23 44.7754ZM247.128 194.305C241.979 194.305 237.792 198.494 237.792 203.645V228.694C237.792 228.893 237.961 229.062 238.159 229.062C238.273 229.062 238.357 229.006 238.414 228.949L256.182 206.532C256.352 206.334 256.465 206.051 256.465 205.768V203.645C256.465 198.494 252.278 194.305 247.128 194.305ZM247.128 343.835C241.979 343.835 237.792 348.024 237.792 353.175V378.224C237.792 378.422 237.961 378.592 238.159 378.592C238.273 378.592 238.357 378.564 238.414 378.479L256.182 356.062C256.352 355.836 256.465 355.581 256.465 355.298V353.175C256.465 348.024 252.278 343.835 247.128 343.835ZM247.128 44.7754C241.979 44.7754 237.792 48.9644 237.792 54.1157V79.1647C237.792 79.3628 237.961 79.5326 238.159 79.5326C238.273 79.5326 238.357 79.476 238.414 79.4194L256.182 57.0027C256.352 56.8046 256.465 56.5215 256.465 56.2385V54.1157C256.465 48.9644 252.278 44.7754 247.128 44.7754ZM329.235 418.586C324.086 418.586 319.898 422.775 319.898 427.926V452.975C319.898 453.173 320.068 453.343 320.266 453.343C320.351 453.343 320.436 453.315 320.521 453.23L338.289 430.813C338.459 430.615 338.572 430.332 338.572 430.049V427.926C338.572 422.775 334.385 418.586 329.235 418.586ZM329.235 269.056C324.086 269.056 319.898 273.245 319.898 278.396V303.445C319.898 303.643 320.068 303.813 320.266 303.813C320.351 303.813 320.436 303.785 320.521 303.7L338.289 281.283C338.459 281.085 338.572 280.802 338.572 280.519V278.396C338.572 273.245 334.385 269.056 329.235 269.056ZM329.235 119.526C324.086 119.526 319.898 123.715 319.898 128.866V153.915C319.898 154.114 320.068 154.283 320.266 154.283C320.351 154.283 320.436 154.227 320.521 154.17L338.289 131.753C338.459 131.527 338.572 131.272 338.572 130.989V128.866C338.572 123.715 334.385 119.526 329.235 119.526ZM632.765 119.526C627.616 119.526 623.428 123.715 623.428 128.866V153.915C623.428 154.114 623.598 154.283 623.796 154.283C623.881 154.283 623.994 154.227 624.051 154.17L641.819 131.753C641.988 131.527 642.102 131.272 642.102 130.989V128.866C642.102 123.715 637.943 119.526 632.765 119.526ZM739.742 44.7754C734.592 44.7754 730.405 48.9644 730.405 54.1157V79.1647C730.405 79.3628 730.575 79.5326 730.773 79.5326C730.886 79.5326 730.971 79.476 731.027 79.4194L748.795 57.0027C748.965 56.8046 749.078 56.5215 749.078 56.2385V54.1157C749.078 48.9644 744.891 44.7754 739.742 44.7754ZM632.765 269.056C627.616 269.056 623.428 273.245 623.428 278.396V303.445C623.428 303.643 623.598 303.813 623.796 303.813C623.881 303.813 623.994 303.785 624.051 303.7L641.819 281.283C641.988 281.085 642.102 280.802 642.102 280.519V278.396C642.102 273.245 637.943 269.056 632.765 269.056ZM632.765 418.586C627.616 418.586 623.428 422.775 623.428 427.926V452.975C623.428 453.173 623.598 453.343 623.796 453.343C623.881 453.343 623.994 453.315 624.051 453.23L641.819 430.813C641.988 430.615 642.102 430.332 642.102 430.049V427.926C642.102 422.775 637.943 418.586 632.765 418.586ZM304.337 269.056C299.188 269.056 295 273.245 295 278.396V303.445C295 303.643 295.17 303.813 295.368 303.813C295.453 303.813 295.566 303.785 295.623 303.7L313.391 281.283C313.561 281.085 313.674 280.802 313.674 280.519V278.396C313.674 273.245 309.487 269.056 304.337 269.056ZM304.337 418.586C299.188 418.586 295 422.775 295 427.926V452.975C295 453.173 295.17 453.343 295.368 453.343C295.453 453.343 295.566 453.315 295.623 453.23L313.391 430.813C313.561 430.615 313.674 430.332 313.674 430.049V427.926C313.674 422.775 309.487 418.586 304.337 418.586ZM304.337 119.526C299.188 119.526 295 123.715 295 128.866V153.915C295 154.114 295.17 154.283 295.368 154.283C295.453 154.283 295.566 154.227 295.623 154.17L313.391 131.753C313.561 131.527 313.674 131.272 313.674 130.989V128.866C313.674 123.715 309.487 119.526 304.337 119.526Z" fill="#49176D"/>
<path d="M903.955 486.657C898.806 486.657 894.619 490.846 894.619 495.997V521.046C894.619 521.244 894.788 521.414 894.986 521.414C895.1 521.414 895.185 521.386 895.241 521.301L913.009 498.884C913.179 498.686 913.292 498.403 913.292 498.12V495.997C913.292 490.846 909.133 486.657 903.955 486.657ZM165.021 561.436C159.872 561.436 155.685 565.625 155.685 570.776V595.825C155.685 596.023 155.854 596.193 156.052 596.193C156.166 596.193 156.251 596.165 156.307 596.08L174.075 573.663C174.245 573.437 174.358 573.182 174.358 572.899V570.776C174.358 565.625 170.199 561.436 165.021 561.436ZM165.021 860.467C159.872 860.467 155.685 864.656 155.685 869.807V894.856C155.685 895.054 155.854 895.224 156.052 895.224C156.166 895.224 156.251 895.196 156.307 895.111L174.075 872.694C174.245 872.496 174.358 872.213 174.358 871.93V869.807C174.358 864.656 170.199 860.467 165.021 860.467ZM165.021 710.966C159.872 710.966 155.685 715.155 155.685 720.306V745.355C155.685 745.553 155.854 745.723 156.052 745.723C156.166 745.723 156.251 745.694 156.307 745.61L174.075 723.193C174.245 722.995 174.358 722.712 174.358 722.429V720.306C174.358 715.155 170.199 710.966 165.021 710.966ZM903.955 636.186C898.806 636.186 894.619 640.375 894.619 645.527V670.576C894.619 670.774 894.788 670.944 894.986 670.944C895.1 670.944 895.185 670.915 895.241 670.831L913.009 648.414C913.179 648.216 913.292 647.933 913.292 647.65V645.527C913.292 640.375 909.133 636.186 903.955 636.186ZM903.955 785.716C898.806 785.716 894.619 789.905 894.619 795.057V820.106C894.619 820.304 894.788 820.474 894.986 820.474C895.1 820.474 895.185 820.445 895.241 820.36L913.009 797.944C913.179 797.717 913.292 797.462 913.292 797.179V795.057C913.292 789.905 909.133 785.716 903.955 785.716ZM58.0448 785.716C52.8954 785.716 48.708 789.905 48.708 795.057V820.106C48.708 820.304 48.8778 820.474 49.0758 820.474C49.189 820.474 49.2739 820.445 49.3305 820.36L67.0986 797.944C67.2684 797.717 67.3815 797.462 67.3815 797.179V795.057C67.3815 789.905 63.2224 785.716 58.0448 785.716ZM796.979 710.966C791.829 710.966 787.642 715.155 787.642 720.306V745.355C787.642 745.553 787.812 745.723 788.01 745.723C788.123 745.723 788.208 745.694 788.264 745.61L806.033 723.193C806.202 722.995 806.315 722.712 806.315 722.429V720.306C806.315 715.155 802.156 710.966 796.979 710.966ZM796.979 561.436C791.829 561.436 787.642 565.625 787.642 570.776V595.825C787.642 596.023 787.812 596.193 788.01 596.193C788.123 596.193 788.208 596.165 788.264 596.08L806.033 573.663C806.202 573.437 806.315 573.182 806.315 572.899V570.776C806.315 565.625 802.156 561.436 796.979 561.436ZM58.0448 486.657C52.8954 486.657 48.708 490.846 48.708 495.997V521.046C48.708 521.244 48.8778 521.414 49.0758 521.414C49.189 521.414 49.2739 521.386 49.3305 521.301L67.0986 498.884C67.2684 498.686 67.3815 498.403 67.3815 498.12V495.997C67.3815 490.846 63.2224 486.657 58.0448 486.657ZM58.0448 636.186C52.8954 636.186 48.708 640.375 48.708 645.527V670.576C48.708 670.774 48.8778 670.944 49.0758 670.944C49.189 670.944 49.2739 670.915 49.3305 670.831L67.0986 648.414C67.2684 648.216 67.3815 647.933 67.3815 647.65V645.527C67.3815 640.375 63.2224 636.186 58.0448 636.186ZM739.742 785.716C734.592 785.716 730.405 789.905 730.405 795.057V820.106C730.405 820.304 730.575 820.474 730.773 820.474C730.886 820.474 730.971 820.445 731.027 820.36L748.795 797.944C748.965 797.717 749.078 797.462 749.078 797.179V795.057C749.078 789.905 744.891 785.716 739.742 785.716ZM739.742 636.186C734.592 636.186 730.405 640.375 730.405 645.527V670.576C730.405 670.774 730.575 670.944 730.773 670.944C730.886 670.944 730.971 670.915 731.027 670.831L748.795 648.414C748.965 648.216 749.078 647.933 749.078 647.65V645.527C749.078 640.375 744.891 636.186 739.742 636.186ZM796.979 860.467C791.829 860.467 787.642 864.656 787.642 869.807V894.856C787.642 895.054 787.812 895.224 788.01 895.224C788.123 895.224 788.208 895.196 788.264 895.111L806.033 872.694C806.202 872.496 806.315 872.213 806.315 871.93V869.807C806.315 864.656 802.156 860.467 796.979 860.467ZM879.057 785.716C873.908 785.716 869.749 789.905 869.749 795.057V820.106C869.749 820.304 869.919 820.474 870.117 820.474C870.23 820.474 870.315 820.445 870.371 820.36L888.139 797.944C888.309 797.717 888.422 797.462 888.422 797.179V795.057C888.422 789.905 884.235 785.716 879.086 785.716M879.057 636.186C873.908 636.186 869.749 640.375 869.749 645.527V670.576C869.749 670.774 869.919 670.944 870.117 670.944C870.23 670.944 870.315 670.915 870.371 670.831L888.139 648.414C888.309 648.216 888.422 647.933 888.422 647.65V645.527C888.422 640.375 884.235 636.186 879.086 636.186M879.057 486.657C873.908 486.657 869.749 490.846 869.749 495.997V521.046C869.749 521.244 869.919 521.414 870.117 521.414C870.23 521.414 870.315 521.386 870.371 521.301L888.139 498.884C888.309 498.686 888.422 498.403 888.422 498.12V495.997C888.422 490.846 884.235 486.657 879.086 486.657M714.872 785.716C709.722 785.716 705.535 789.905 705.535 795.057V820.106C705.535 820.304 705.705 820.474 705.903 820.474C706.016 820.474 706.101 820.445 706.157 820.36L723.926 797.944C724.095 797.717 724.209 797.462 724.209 797.179V795.057C724.209 789.905 720.049 785.716 714.872 785.716ZM714.872 486.657C709.722 486.657 705.535 490.846 705.535 495.997V521.046C705.535 521.244 705.705 521.414 705.903 521.414C706.016 521.414 706.101 521.386 706.157 521.301L723.926 498.884C724.095 498.686 724.209 498.403 724.209 498.12V495.997C724.209 490.846 720.049 486.657 714.872 486.657ZM140.152 561.436C135.002 561.436 130.815 565.625 130.815 570.776V595.825C130.815 596.023 130.985 596.193 131.183 596.193C131.296 596.193 131.381 596.165 131.437 596.08L149.206 573.663C149.375 573.437 149.488 573.182 149.488 572.899V570.776C149.488 565.625 145.329 561.436 140.152 561.436ZM714.872 636.186C709.722 636.186 705.535 640.375 705.535 645.527V670.576C705.535 670.774 705.705 670.944 705.903 670.944C706.016 670.944 706.101 670.915 706.157 670.831L723.926 648.414C724.095 648.216 724.209 647.933 724.209 647.65V645.527C724.209 640.375 720.049 636.186 714.872 636.186ZM140.152 860.467C135.002 860.467 130.815 864.656 130.815 869.807V894.856C130.815 895.054 130.985 895.224 131.183 895.224C131.296 895.224 131.381 895.196 131.437 895.111L149.206 872.694C149.375 872.496 149.488 872.213 149.488 871.93V869.807C149.488 864.656 145.329 860.467 140.152 860.467ZM140.152 710.966C135.002 710.966 130.815 715.155 130.815 720.306V745.355C130.815 745.553 130.985 745.723 131.183 745.723C131.296 745.723 131.381 745.694 131.437 745.61L149.206 723.193C149.375 722.995 149.488 722.712 149.488 722.429V720.306C149.488 715.155 145.329 710.966 140.152 710.966ZM82.9145 785.716C77.7651 785.716 73.5777 789.905 73.5777 795.057V820.106C73.5777 820.304 73.7475 820.474 73.9456 820.474C74.0304 820.474 74.1436 820.445 74.2002 820.36L91.9683 797.944C92.1381 797.717 92.2513 797.462 92.2513 797.179V795.057C92.2513 789.905 88.0922 785.716 82.9145 785.716ZM82.9145 486.657C77.7651 486.657 73.5777 490.846 73.5777 495.997V521.046C73.5777 521.244 73.7475 521.414 73.9456 521.414C74.0304 521.414 74.1436 521.386 74.2002 521.301L91.9683 498.884C92.1381 498.686 92.2513 498.403 92.2513 498.12V495.997C92.2513 490.846 88.0922 486.657 82.9145 486.657ZM82.9145 636.186C77.7651 636.186 73.5777 640.375 73.5777 645.527V670.576C73.5777 670.774 73.7475 670.944 73.9456 670.944C74.0304 670.944 74.1436 670.915 74.2002 670.831L91.9683 648.414C92.1381 648.216 92.2513 647.933 92.2513 647.65V645.527C92.2513 640.375 88.0922 636.186 82.9145 636.186ZM821.848 860.467C816.699 860.467 812.512 864.656 812.512 869.807V894.856C812.512 895.054 812.681 895.224 812.88 895.224C812.993 895.224 813.078 895.196 813.134 895.111L830.902 872.694C831.072 872.496 831.185 872.213 831.185 871.93V869.807C831.185 864.656 827.026 860.467 821.848 860.467ZM821.848 710.966C816.699 710.966 812.512 715.155 812.512 720.306V745.355C812.512 745.553 812.681 745.723 812.88 745.723C812.993 745.723 813.078 745.694 813.134 745.61L830.902 723.193C831.072 722.995 831.185 722.712 831.185 722.429V720.306C831.185 715.155 827.026 710.966 821.848 710.966ZM821.848 561.436C816.699 561.436 812.512 565.625 812.512 570.776V595.825C812.512 596.023 812.681 596.193 812.88 596.193C812.993 596.193 813.078 596.165 813.134 596.08L830.902 573.663C831.072 573.437 831.185 573.182 831.185 572.899V570.776C831.185 565.625 827.026 561.436 821.848 561.436ZM411.342 486.657C406.193 486.657 402.005 490.846 402.005 495.997V521.046C402.005 521.244 402.175 521.414 402.373 521.414C402.486 521.414 402.571 521.386 402.628 521.301L420.396 498.884C420.566 498.686 420.679 498.403 420.679 498.12V495.997C420.679 490.846 416.492 486.657 411.342 486.657ZM411.342 636.186C406.193 636.186 402.005 640.375 402.005 645.527V670.576C402.005 670.774 402.175 670.944 402.373 670.944C402.486 670.944 402.571 670.915 402.628 670.831L420.396 648.414C420.566 648.216 420.679 647.933 420.679 647.65V645.527C420.679 640.375 416.492 636.186 411.342 636.186ZM411.342 785.716C406.193 785.716 402.005 789.905 402.005 795.057V820.106C402.005 820.304 402.175 820.474 402.373 820.474C402.486 820.474 402.571 820.445 402.628 820.36L420.396 797.944C420.566 797.717 420.679 797.462 420.679 797.179V795.057C420.679 789.905 416.492 785.716 411.342 785.716ZM575.528 486.657C570.378 486.657 566.191 490.846 566.191 495.997V521.046C566.191 521.244 566.361 521.414 566.559 521.414C566.672 521.414 566.757 521.386 566.813 521.301L584.582 498.884C584.751 498.686 584.865 498.403 584.865 498.12V495.997C584.865 490.846 580.705 486.657 575.528 486.657ZM386.444 636.186C381.295 636.186 377.107 640.375 377.107 645.527V670.576C377.107 670.774 377.277 670.944 377.475 670.944C377.56 670.944 377.673 670.915 377.73 670.831L395.498 648.414C395.668 648.216 395.781 647.933 395.781 647.65V645.527C395.781 640.375 391.622 636.186 386.444 636.186ZM386.444 785.716C381.295 785.716 377.107 789.905 377.107 795.057V820.106C377.107 820.304 377.277 820.474 377.475 820.474C377.56 820.474 377.673 820.445 377.73 820.36L395.498 797.944C395.668 797.717 395.781 797.462 395.781 797.179V795.057C395.781 789.905 391.622 785.716 386.444 785.716ZM386.444 486.657C381.295 486.657 377.107 490.846 377.107 495.997V521.046C377.107 521.244 377.277 521.414 377.475 521.414C377.56 521.414 377.673 521.386 377.73 521.301L395.498 498.884C395.668 498.686 395.781 498.403 395.781 498.12V495.997C395.781 490.846 391.622 486.657 386.444 486.657ZM493.421 860.467C488.271 860.467 484.084 864.656 484.084 869.807V894.856C484.084 895.054 484.254 895.224 484.452 895.224C484.537 895.224 484.622 895.196 484.706 895.111L502.475 872.694C502.644 872.496 502.758 872.213 502.758 871.93V869.807C502.758 864.656 498.57 860.467 493.421 860.467ZM493.421 710.966C488.271 710.966 484.084 715.155 484.084 720.306V745.355C484.084 745.553 484.254 745.723 484.452 745.723C484.537 745.723 484.622 745.694 484.706 745.61L502.475 723.193C502.644 722.995 502.758 722.712 502.758 722.429V720.306C502.758 715.155 498.57 710.966 493.421 710.966ZM493.421 561.436C488.271 561.436 484.084 565.625 484.084 570.776V595.825C484.084 596.023 484.254 596.193 484.452 596.193C484.537 596.193 484.622 596.165 484.706 596.08L502.475 573.663C502.644 573.437 502.758 573.182 502.758 572.899V570.776C502.758 565.625 498.57 561.436 493.421 561.436ZM575.528 636.186C570.378 636.186 566.191 640.375 566.191 645.527V670.576C566.191 670.774 566.361 670.944 566.559 670.944C566.672 670.944 566.757 670.915 566.813 670.831L584.582 648.414C584.751 648.216 584.865 647.933 584.865 647.65V645.527C584.865 640.375 580.705 636.186 575.528 636.186ZM575.528 785.716C570.378 785.716 566.191 789.905 566.191 795.057V820.106C566.191 820.304 566.361 820.474 566.559 820.474C566.672 820.474 566.757 820.445 566.813 820.36L584.582 797.944C584.751 797.717 584.865 797.462 584.865 797.179V795.057C584.865 789.905 580.705 785.716 575.528 785.716ZM550.658 486.657C545.509 486.657 541.321 490.846 541.321 495.997V521.046C541.321 521.244 541.491 521.414 541.689 521.414C541.802 521.414 541.887 521.386 541.944 521.301L559.712 498.884C559.882 498.686 559.995 498.403 559.995 498.12V495.997C559.995 490.846 555.807 486.657 550.658 486.657ZM550.658 785.716C545.509 785.716 541.321 789.905 541.321 795.057V820.106C541.321 820.304 541.491 820.474 541.689 820.474C541.802 820.474 541.887 820.445 541.944 820.36L559.712 797.944C559.882 797.717 559.995 797.462 559.995 797.179V795.057C559.995 789.905 555.807 785.716 550.658 785.716ZM550.658 636.186C545.509 636.186 541.321 640.375 541.321 645.527V670.576C541.321 670.774 541.491 670.944 541.689 670.944C541.802 670.944 541.887 670.915 541.944 670.831L559.712 648.414C559.882 648.216 559.995 647.933 559.995 647.65V645.527C559.995 640.375 555.807 636.186 550.658 636.186ZM468.551 561.436C463.402 561.436 459.214 565.625 459.214 570.776V595.825C459.214 596.023 459.384 596.193 459.582 596.193C459.695 596.193 459.78 596.165 459.837 596.08L477.605 573.663C477.775 573.437 477.888 573.182 477.888 572.899V570.776C477.888 565.625 473.7 561.436 468.551 561.436ZM468.551 710.966C463.402 710.966 459.214 715.155 459.214 720.306V745.355C459.214 745.553 459.384 745.723 459.582 745.723C459.695 745.723 459.78 745.694 459.837 745.61L477.605 723.193C477.775 722.995 477.888 722.712 477.888 722.429V720.306C477.888 715.155 473.7 710.966 468.551 710.966ZM468.551 860.467C463.402 860.467 459.214 864.656 459.214 869.807V894.856C459.214 895.054 459.384 895.224 459.582 895.224C459.695 895.224 459.78 895.196 459.837 895.111L477.605 872.694C477.775 872.496 477.888 872.213 477.888 871.93V869.807C477.888 864.656 473.7 860.467 468.551 860.467ZM657.635 561.436C652.485 561.436 648.298 565.625 648.298 570.776V595.825C648.298 596.023 648.468 596.193 648.666 596.193C648.779 596.193 648.864 596.165 648.92 596.08L666.688 573.663C666.858 573.437 666.971 573.182 666.971 572.899V570.776C666.971 565.625 662.784 561.436 657.635 561.436ZM657.635 860.467C652.485 860.467 648.298 864.656 648.298 869.807V894.856C648.298 895.054 648.468 895.224 648.666 895.224C648.779 895.224 648.864 895.196 648.92 895.111L666.688 872.694C666.858 872.496 666.971 872.213 666.971 871.93V869.807C666.971 864.656 662.784 860.467 657.635 860.467ZM657.635 710.966C652.485 710.966 648.298 715.155 648.298 720.306V745.355C648.298 745.553 648.468 745.723 648.666 745.723C648.779 745.723 648.864 745.694 648.92 745.61L666.688 723.193C666.858 722.995 666.971 722.712 666.971 722.429V720.306C666.971 715.155 662.784 710.966 657.635 710.966ZM222.23 636.186C217.081 636.186 212.894 640.375 212.894 645.527V670.576C212.894 670.774 213.063 670.944 213.261 670.944C213.375 670.944 213.459 670.915 213.516 670.831L231.284 648.414C231.454 648.216 231.567 647.933 231.567 647.65V645.527C231.567 640.375 227.38 636.186 222.23 636.186ZM222.23 785.716C217.081 785.716 212.894 789.905 212.894 795.057V820.106C212.894 820.304 213.063 820.474 213.261 820.474C213.375 820.474 213.459 820.445 213.516 820.36L231.284 797.944C231.454 797.717 231.567 797.462 231.567 797.179V795.057C231.567 789.905 227.38 785.716 222.23 785.716ZM222.23 486.657C217.081 486.657 212.894 490.846 212.894 495.997V521.046C212.894 521.244 213.063 521.414 213.261 521.414C213.375 521.414 213.459 521.386 213.516 521.301L231.284 498.884C231.454 498.686 231.567 498.403 231.567 498.12V495.997C231.567 490.846 227.38 486.657 222.23 486.657ZM247.128 636.186C241.979 636.186 237.792 640.375 237.792 645.527V670.576C237.792 670.774 237.961 670.944 238.159 670.944C238.273 670.944 238.357 670.915 238.414 670.831L256.182 648.414C256.352 648.216 256.465 647.933 256.465 647.65V645.527C256.465 640.375 252.278 636.186 247.128 636.186ZM247.128 785.716C241.979 785.716 237.792 789.905 237.792 795.057V820.106C237.792 820.304 237.961 820.474 238.159 820.474C238.273 820.474 238.357 820.445 238.414 820.36L256.182 797.944C256.352 797.717 256.465 797.462 256.465 797.179V795.057C256.465 789.905 252.278 785.716 247.128 785.716ZM247.128 486.657C241.979 486.657 237.792 490.846 237.792 495.997V521.046C237.792 521.244 237.961 521.414 238.159 521.414C238.273 521.414 238.357 521.386 238.414 521.301L256.182 498.884C256.352 498.686 256.465 498.403 256.465 498.12V495.997C256.465 490.846 252.278 486.657 247.128 486.657ZM329.235 860.467C324.086 860.467 319.898 864.656 319.898 869.807V894.856C319.898 895.054 320.068 895.224 320.266 895.224C320.351 895.224 320.436 895.196 320.521 895.111L338.289 872.694C338.459 872.496 338.572 872.213 338.572 871.93V869.807C338.572 864.656 334.385 860.467 329.235 860.467ZM329.235 710.966C324.086 710.966 319.898 715.155 319.898 720.306V745.355C319.898 745.553 320.068 745.723 320.266 745.723C320.351 745.723 320.436 745.694 320.521 745.61L338.289 723.193C338.459 722.995 338.572 722.712 338.572 722.429V720.306C338.572 715.155 334.385 710.966 329.235 710.966ZM329.235 561.436C324.086 561.436 319.898 565.625 319.898 570.776V595.825C319.898 596.023 320.068 596.193 320.266 596.193C320.351 596.193 320.436 596.165 320.521 596.08L338.289 573.663C338.459 573.437 338.572 573.182 338.572 572.899V570.776C338.572 565.625 334.385 561.436 329.235 561.436ZM632.765 561.436C627.616 561.436 623.428 565.625 623.428 570.776V595.825C623.428 596.023 623.598 596.193 623.796 596.193C623.881 596.193 623.994 596.165 624.051 596.08L641.819 573.663C641.988 573.437 642.102 573.182 642.102 572.899V570.776C642.102 565.625 637.943 561.436 632.765 561.436ZM739.742 486.657C734.592 486.657 730.405 490.846 730.405 495.997V521.046C730.405 521.244 730.575 521.414 730.773 521.414C730.886 521.414 730.971 521.386 731.027 521.301L748.795 498.884C748.965 498.686 749.078 498.403 749.078 498.12V495.997C749.078 490.846 744.891 486.657 739.742 486.657ZM632.765 710.966C627.616 710.966 623.428 715.155 623.428 720.306V745.355C623.428 745.553 623.598 745.723 623.796 745.723C623.881 745.723 623.994 745.694 624.051 745.61L641.819 723.193C641.988 722.995 642.102 722.712 642.102 722.429V720.306C642.102 715.155 637.943 710.966 632.765 710.966ZM632.765 860.467C627.616 860.467 623.428 864.656 623.428 869.807V894.856C623.428 895.054 623.598 895.224 623.796 895.224C623.881 895.224 623.994 895.196 624.051 895.111L641.819 872.694C641.988 872.496 642.102 872.213 642.102 871.93V869.807C642.102 864.656 637.943 860.467 632.765 860.467ZM304.337 710.966C299.188 710.966 295 715.155 295 720.306V745.355C295 745.553 295.17 745.723 295.368 745.723C295.453 745.723 295.566 745.694 295.623 745.61L313.391 723.193C313.561 722.995 313.674 722.712 313.674 722.429V720.306C313.674 715.155 309.487 710.966 304.337 710.966ZM304.337 860.467C299.188 860.467 295 864.656 295 869.807V894.856C295 895.054 295.17 895.224 295.368 895.224C295.453 895.224 295.566 895.196 295.623 895.111L313.391 872.694C313.561 872.496 313.674 872.213 313.674 871.93V869.807C313.674 864.656 309.487 860.467 304.337 860.467ZM304.337 561.436C299.188 561.436 295 565.625 295 570.776V595.825C295 596.023 295.17 596.193 295.368 596.193C295.453 596.193 295.566 596.165 295.623 596.08L313.391 573.663C313.561 573.437 313.674 573.182 313.674 572.899V570.776C313.674 565.625 309.487 561.436 304.337 561.436Z" fill="#49176D"/>
<path d="M222.23 710.966C217.081 710.966 212.894 715.155 212.894 720.306V745.355C212.894 745.553 213.063 745.723 213.261 745.723C213.375 745.723 213.459 745.694 213.516 745.61L231.284 723.193C231.454 722.995 231.567 722.712 231.567 722.429V720.306C231.567 715.155 227.408 710.966 222.23 710.966ZM82.9145 710.966C77.7651 710.966 73.5777 715.155 73.5777 720.306V745.355C73.5777 745.553 73.7475 745.723 73.9456 745.723C74.0304 745.723 74.1436 745.694 74.2002 745.61L91.9683 723.193C92.1381 722.995 92.2513 722.712 92.2513 722.429V720.306C92.2513 715.155 88.0922 710.966 82.9145 710.966ZM222.23 860.467C217.081 860.467 212.894 864.656 212.894 869.807V894.856C212.894 895.054 213.063 895.224 213.261 895.224C213.375 895.224 213.459 895.168 213.516 895.111L231.284 872.694C231.454 872.496 231.567 872.213 231.567 871.93V869.807C231.567 864.656 227.408 860.467 222.23 860.467ZM82.9145 860.467C77.7651 860.467 73.5777 864.656 73.5777 869.807V894.856C73.5777 895.054 73.7475 895.224 73.9456 895.224C74.0304 895.224 74.1436 895.168 74.2002 895.111L91.9683 872.694C92.1381 872.496 92.2513 872.213 92.2513 871.93V869.807C92.2513 864.656 88.0922 860.467 82.9145 860.467ZM140.123 785.716C134.974 785.716 130.787 789.905 130.787 795.057V820.106C130.787 820.304 130.956 820.474 131.154 820.474C131.268 820.474 131.352 820.445 131.409 820.36L149.177 797.944C149.347 797.717 149.46 797.462 149.46 797.179V795.057C149.46 789.905 145.301 785.716 140.123 785.716ZM140.123 486.657C134.974 486.657 130.787 490.846 130.787 495.997V521.046C130.787 521.244 130.956 521.414 131.154 521.414C131.268 521.414 131.352 521.386 131.409 521.301L149.177 498.884C149.347 498.686 149.46 498.403 149.46 498.12V495.997C149.46 490.846 145.301 486.657 140.123 486.657ZM140.123 636.186C134.974 636.186 130.787 640.375 130.787 645.527V670.576C130.787 670.774 130.956 670.944 131.154 670.944C131.268 670.944 131.352 670.915 131.409 670.831L149.177 648.414C149.347 648.216 149.46 647.933 149.46 647.65V645.527C149.46 640.375 145.301 636.186 140.123 636.186ZM58.0448 860.467C52.8954 860.467 48.708 864.656 48.708 869.807V894.856C48.708 895.054 48.8778 895.224 49.0758 895.224C49.189 895.224 49.2739 895.168 49.3305 895.111L67.0986 872.694C67.2684 872.496 67.3815 872.213 67.3815 871.93V869.807C67.3815 864.656 63.2224 860.467 58.0448 860.467ZM222.23 561.436C217.081 561.436 212.894 565.625 212.894 570.776V595.825C212.894 596.023 213.063 596.193 213.261 596.193C213.375 596.193 213.459 596.136 213.516 596.08L231.284 573.663C231.454 573.465 231.567 573.182 231.567 572.899V570.776C231.567 565.625 227.408 561.436 222.23 561.436ZM165.021 636.186C159.872 636.186 155.685 640.375 155.685 645.527V670.576C155.685 670.774 155.854 670.944 156.052 670.944C156.137 670.944 156.251 670.915 156.307 670.831L174.075 648.414C174.245 648.216 174.358 647.933 174.358 647.65V645.527C174.358 640.375 170.199 636.186 165.021 636.186ZM58.0448 561.436C52.8954 561.436 48.708 565.625 48.708 570.776V595.825C48.708 596.023 48.8778 596.193 49.0758 596.193C49.189 596.193 49.2739 596.136 49.3305 596.08L67.0986 573.663C67.2684 573.465 67.3815 573.182 67.3815 572.899V570.776C67.3815 565.625 63.2224 561.436 58.0448 561.436ZM165.021 785.716C159.872 785.716 155.685 789.905 155.685 795.057V820.106C155.685 820.304 155.854 820.474 156.052 820.474C156.137 820.474 156.251 820.445 156.307 820.36L174.075 797.944C174.245 797.717 174.358 797.462 174.358 797.179V795.057C174.358 789.905 170.199 785.716 165.021 785.716ZM58.0448 710.966C52.8954 710.966 48.708 715.155 48.708 720.306V745.355C48.708 745.553 48.8778 745.723 49.0758 745.723C49.189 745.723 49.2739 745.694 49.3305 745.61L67.0986 723.193C67.2684 722.995 67.3815 722.712 67.3815 722.429V720.306C67.3815 715.155 63.2224 710.966 58.0448 710.966ZM165.021 486.657C159.872 486.657 155.685 490.846 155.685 495.997V521.046C155.685 521.244 155.854 521.414 156.052 521.414C156.137 521.414 156.251 521.386 156.307 521.301L174.075 498.884C174.245 498.686 174.358 498.403 174.358 498.12V495.997C174.358 490.846 170.199 486.657 165.021 486.657ZM82.9145 561.436C77.7651 561.436 73.5777 565.625 73.5777 570.776V595.825C73.5777 596.023 73.7475 596.193 73.9456 596.193C74.0304 596.193 74.1436 596.136 74.2002 596.08L91.9683 573.663C92.1381 573.465 92.2513 573.182 92.2513 572.899V570.776C92.2513 565.625 88.0922 561.436 82.9145 561.436ZM247.128 561.436C241.979 561.436 237.792 565.625 237.792 570.776V595.825C237.792 596.023 237.961 596.193 238.159 596.193C238.273 596.193 238.357 596.136 238.414 596.08L256.182 573.663C256.352 573.465 256.465 573.182 256.465 572.899V570.776C256.465 565.625 252.278 561.436 247.128 561.436ZM247.128 710.966C241.979 710.966 237.792 715.155 237.792 720.306V745.355C237.792 745.553 237.961 745.723 238.159 745.723C238.273 745.723 238.357 745.694 238.414 745.61L256.182 723.193C256.352 722.995 256.465 722.712 256.465 722.429V720.306C256.465 715.155 252.278 710.966 247.128 710.966ZM247.128 860.467C241.979 860.467 237.792 864.656 237.792 869.807V894.856C237.792 895.054 237.961 895.224 238.159 895.224C238.273 895.224 238.357 895.168 238.414 895.111L256.182 872.694C256.352 872.496 256.465 872.213 256.465 871.93V869.807C256.465 864.656 252.278 860.467 247.128 860.467ZM796.95 486.657C791.801 486.657 787.642 490.846 787.642 495.997V521.046C787.642 521.244 787.812 521.414 788.01 521.414C788.095 521.414 788.208 521.386 788.264 521.301L806.033 498.884C806.202 498.686 806.315 498.403 806.315 498.12V495.997C806.315 490.846 802.128 486.657 796.979 486.657M632.765 486.657C627.616 486.657 623.428 490.846 623.428 495.997V521.046C623.428 521.244 623.598 521.414 623.796 521.414C623.909 521.414 623.994 521.386 624.051 521.301L641.819 498.884C641.988 498.686 642.102 498.403 642.102 498.12V495.997C642.102 490.846 637.914 486.657 632.765 486.657ZM632.765 636.186C627.616 636.186 623.428 640.375 623.428 645.527V670.576C623.428 670.774 623.598 670.944 623.796 670.944C623.909 670.944 623.994 670.915 624.051 670.831L641.819 648.414C641.988 648.216 642.102 647.933 642.102 647.65V645.527C642.102 640.375 637.914 636.186 632.765 636.186ZM632.765 785.716C627.616 785.716 623.428 789.905 623.428 795.057V820.106C623.428 820.304 623.598 820.474 623.796 820.474C623.909 820.474 623.994 820.445 624.051 820.36L641.819 797.944C641.988 797.717 642.102 797.462 642.102 797.179V795.057C642.102 789.905 637.914 785.716 632.765 785.716ZM903.955 561.436C898.806 561.436 894.619 565.625 894.619 570.776V595.825C894.619 596.023 894.788 596.193 894.986 596.193C895.1 596.193 895.185 596.136 895.241 596.08L913.009 573.663C913.179 573.465 913.292 573.182 913.292 572.899V570.776C913.292 565.625 909.105 561.436 903.955 561.436ZM657.635 486.657C652.485 486.657 648.298 490.846 648.298 495.997V521.046C648.298 521.244 648.468 521.414 648.666 521.414C648.779 521.414 648.864 521.386 648.92 521.301L666.688 498.884C666.858 498.686 666.971 498.403 666.971 498.12V495.997C666.971 490.846 662.784 486.657 657.635 486.657ZM879.057 561.436C873.908 561.436 869.721 565.625 869.721 570.776V595.825C869.721 596.023 869.89 596.193 870.088 596.193C870.202 596.193 870.286 596.136 870.343 596.08L888.111 573.663C888.281 573.465 888.394 573.182 888.394 572.899V570.776C888.394 565.625 884.207 561.436 879.057 561.436ZM657.635 636.186C652.485 636.186 648.298 640.375 648.298 645.527V670.576C648.298 670.774 648.468 670.944 648.666 670.944C648.779 670.944 648.864 670.915 648.92 670.831L666.688 648.414C666.858 648.216 666.971 647.933 666.971 647.65V645.527C666.971 640.375 662.784 636.186 657.635 636.186ZM657.635 785.716C652.485 785.716 648.298 789.905 648.298 795.057V820.106C648.298 820.304 648.468 820.474 648.666 820.474C648.779 820.474 648.864 820.445 648.92 820.36L666.688 797.944C666.858 797.717 666.971 797.462 666.971 797.179V795.057C666.971 789.905 662.784 785.716 657.635 785.716ZM879.057 710.966C873.908 710.966 869.721 715.155 869.721 720.306V745.355C869.721 745.553 869.89 745.723 870.088 745.723C870.202 745.723 870.286 745.694 870.343 745.61L888.111 723.193C888.281 722.995 888.394 722.712 888.394 722.429V720.306C888.394 715.155 884.207 710.966 879.057 710.966ZM903.955 710.966C898.806 710.966 894.619 715.155 894.619 720.306V745.355C894.619 745.553 894.788 745.723 894.986 745.723C895.1 745.723 895.185 745.694 895.241 745.61L913.009 723.193C913.179 722.995 913.292 722.712 913.292 722.429V720.306C913.292 715.155 909.105 710.966 903.955 710.966ZM903.955 860.467C898.806 860.467 894.619 864.656 894.619 869.807V894.856C894.619 895.054 894.788 895.224 894.986 895.224C895.1 895.224 895.185 895.168 895.241 895.111L913.009 872.694C913.179 872.496 913.292 872.213 913.292 871.93V869.807C913.292 864.656 909.105 860.467 903.955 860.467ZM575.528 561.436C570.378 561.436 566.191 565.625 566.191 570.776V595.825C566.191 596.023 566.361 596.193 566.559 596.193C566.672 596.193 566.757 596.136 566.813 596.08L584.582 573.663C584.751 573.465 584.865 573.182 584.865 572.899V570.776C584.865 565.625 580.705 561.436 575.528 561.436ZM575.528 860.467C570.378 860.467 566.191 864.656 566.191 869.807V894.856C566.191 895.054 566.361 895.224 566.559 895.224C566.672 895.224 566.757 895.168 566.813 895.111L584.582 872.694C584.751 872.496 584.865 872.213 584.865 871.93V869.807C584.865 864.656 580.705 860.467 575.528 860.467ZM575.528 710.966C570.378 710.966 566.191 715.155 566.191 720.306V745.355C566.191 745.553 566.361 745.723 566.559 745.723C566.672 745.723 566.757 745.694 566.813 745.61L584.582 723.193C584.751 722.995 584.865 722.712 584.865 722.429V720.306C584.865 715.155 580.705 710.966 575.528 710.966ZM821.848 785.716C816.699 785.716 812.512 789.905 812.512 795.057V820.106C812.512 820.304 812.681 820.474 812.88 820.474C812.993 820.474 813.078 820.445 813.134 820.36L830.902 797.944C831.072 797.717 831.185 797.462 831.185 797.179V795.057C831.185 789.905 826.998 785.716 821.848 785.716ZM821.848 636.186C816.699 636.186 812.512 640.375 812.512 645.527V670.576C812.512 670.774 812.681 670.944 812.88 670.944C812.993 670.944 813.078 670.915 813.134 670.831L830.902 648.414C831.072 648.216 831.185 647.933 831.185 647.65V645.527C831.185 640.375 826.998 636.186 821.848 636.186ZM821.848 486.657C816.699 486.657 812.512 490.846 812.512 495.997V521.046C812.512 521.244 812.681 521.414 812.88 521.414C812.993 521.414 813.078 521.386 813.134 521.301L830.902 498.884C831.072 498.686 831.185 498.403 831.185 498.12V495.997C831.185 490.846 826.998 486.657 821.848 486.657ZM796.95 636.186C791.801 636.186 787.642 640.375 787.642 645.527V670.576C787.642 670.774 787.812 670.944 788.01 670.944C788.095 670.944 788.208 670.915 788.264 670.831L806.033 648.414C806.202 648.216 806.315 647.933 806.315 647.65V645.527C806.315 640.375 802.128 636.186 796.979 636.186M739.742 561.436C734.592 561.436 730.405 565.625 730.405 570.776V595.825C730.405 596.023 730.575 596.193 730.773 596.193C730.886 596.193 730.971 596.136 731.027 596.08L748.795 573.663C748.965 573.465 749.078 573.182 749.078 572.899V570.776C749.078 565.625 744.919 561.436 739.742 561.436ZM714.872 860.467C709.722 860.467 705.535 864.656 705.535 869.807V894.856C705.535 895.054 705.705 895.224 705.903 895.224C706.016 895.224 706.101 895.168 706.157 895.111L723.926 872.694C724.095 872.496 724.209 872.213 724.209 871.93V869.807C724.209 864.656 720.021 860.467 714.872 860.467ZM879.057 860.467C873.908 860.467 869.721 864.656 869.721 869.807V894.856C869.721 895.054 869.89 895.224 870.088 895.224C870.202 895.224 870.286 895.168 870.343 895.111L888.111 872.694C888.281 872.496 888.394 872.213 888.394 871.93V869.807C888.394 864.656 884.207 860.467 879.057 860.467ZM714.872 710.966C709.722 710.966 705.535 715.155 705.535 720.306V745.355C705.535 745.553 705.705 745.723 705.903 745.723C706.016 745.723 706.101 745.694 706.157 745.61L723.926 723.193C724.095 722.995 724.209 722.712 724.209 722.429V720.306C724.209 715.155 720.021 710.966 714.872 710.966ZM739.742 710.966C734.592 710.966 730.405 715.155 730.405 720.306V745.355C730.405 745.553 730.575 745.723 730.773 745.723C730.886 745.723 730.971 745.694 731.027 745.61L748.795 723.193C748.965 722.995 749.078 722.712 749.078 722.429V720.306C749.078 715.155 744.919 710.966 739.742 710.966ZM739.742 860.467C734.592 860.467 730.405 864.656 730.405 869.807V894.856C730.405 895.054 730.575 895.224 730.773 895.224C730.886 895.224 730.971 895.168 731.027 895.111L748.795 872.694C748.965 872.496 749.078 872.213 749.078 871.93V869.807C749.078 864.656 744.919 860.467 739.742 860.467ZM714.872 561.436C709.722 561.436 705.535 565.625 705.535 570.776V595.825C705.535 596.023 705.705 596.193 705.903 596.193C706.016 596.193 706.101 596.136 706.157 596.08L723.926 573.663C724.095 573.465 724.209 573.182 724.209 572.899V570.776C724.209 565.625 720.021 561.436 714.872 561.436ZM796.95 785.716C791.801 785.716 787.642 789.905 787.642 795.057V820.106C787.642 820.304 787.812 820.474 788.01 820.474C788.095 820.474 788.208 820.445 788.264 820.36L806.033 797.944C806.202 797.717 806.315 797.462 806.315 797.179V795.057C806.315 789.905 802.128 785.716 796.979 785.716M386.444 860.467C381.295 860.467 377.107 864.656 377.107 869.807V894.856C377.107 895.054 377.277 895.224 377.475 895.224C377.588 895.224 377.673 895.168 377.73 895.111L395.498 872.694C395.668 872.496 395.781 872.213 395.781 871.93V869.807C395.781 864.656 391.622 860.467 386.444 860.467ZM386.444 561.436C381.295 561.436 377.107 565.625 377.107 570.776V595.825C377.107 596.023 377.277 596.193 377.475 596.193C377.588 596.193 377.673 596.136 377.73 596.08L395.498 573.663C395.668 573.465 395.781 573.182 395.781 572.899V570.776C395.781 565.625 391.622 561.436 386.444 561.436ZM550.658 561.436C545.509 561.436 541.321 565.625 541.321 570.776V595.825C541.321 596.023 541.491 596.193 541.689 596.193C541.802 596.193 541.887 596.136 541.944 596.08L559.712 573.663C559.882 573.465 559.995 573.182 559.995 572.899V570.776C559.995 565.625 555.807 561.436 550.658 561.436ZM386.444 710.966C381.295 710.966 377.107 715.155 377.107 720.306V745.355C377.107 745.553 377.277 745.723 377.475 745.723C377.588 745.723 377.673 745.694 377.73 745.61L395.498 723.193C395.668 722.995 395.781 722.712 395.781 722.429V720.306C395.781 715.155 391.622 710.966 386.444 710.966ZM304.337 636.186C299.188 636.186 295 640.375 295 645.527V670.576C295 670.774 295.17 670.944 295.368 670.944C295.481 670.944 295.566 670.915 295.623 670.831L313.391 648.414C313.561 648.216 313.674 647.933 313.674 647.65V645.527C313.674 640.375 309.487 636.186 304.337 636.186ZM304.337 486.657C299.188 486.657 295 490.846 295 495.997V521.046C295 521.244 295.17 521.414 295.368 521.414C295.481 521.414 295.566 521.386 295.623 521.301L313.391 498.884C313.561 498.686 313.674 498.403 313.674 498.12V495.997C313.674 490.846 309.487 486.657 304.337 486.657ZM304.337 785.716C299.188 785.716 295 789.905 295 795.057V820.106C295 820.304 295.17 820.474 295.368 820.474C295.481 820.474 295.566 820.445 295.623 820.36L313.391 797.944C313.561 797.717 313.674 797.462 313.674 797.179V795.057C313.674 789.905 309.487 785.716 304.337 785.716ZM329.235 636.186C324.086 636.186 319.898 640.375 319.898 645.527V670.576C319.898 670.774 320.068 670.944 320.266 670.944C320.379 670.944 320.464 670.915 320.521 670.831L338.289 648.414C338.459 648.216 338.572 647.933 338.572 647.65V645.527C338.572 640.375 334.385 636.186 329.235 636.186ZM329.235 486.657C324.086 486.657 319.898 490.846 319.898 495.997V521.046C319.898 521.244 320.068 521.414 320.266 521.414C320.379 521.414 320.464 521.386 320.521 521.301L338.289 498.884C338.459 498.686 338.572 498.403 338.572 498.12V495.997C338.572 490.846 334.385 486.657 329.235 486.657ZM329.235 785.716C324.086 785.716 319.898 789.905 319.898 795.057V820.106C319.898 820.304 320.068 820.474 320.266 820.474C320.379 820.474 320.464 820.445 320.521 820.36L338.289 797.944C338.459 797.717 338.572 797.462 338.572 797.179V795.057C338.572 789.905 334.385 785.716 329.235 785.716ZM468.551 636.186C463.402 636.186 459.214 640.375 459.214 645.527V670.576C459.214 670.774 459.384 670.944 459.582 670.944C459.695 670.944 459.78 670.915 459.837 670.831L477.605 648.414C477.775 648.216 477.888 647.933 477.888 647.65V645.527C477.888 640.375 473.7 636.186 468.551 636.186ZM493.421 785.716C488.271 785.716 484.084 789.905 484.084 795.057V820.106C484.084 820.304 484.254 820.474 484.452 820.474C484.537 820.474 484.65 820.445 484.706 820.36L502.475 797.944C502.644 797.717 502.758 797.462 502.758 797.179V795.057C502.758 789.905 498.598 785.716 493.421 785.716ZM493.421 636.186C488.271 636.186 484.084 640.375 484.084 645.527V670.576C484.084 670.774 484.254 670.944 484.452 670.944C484.537 670.944 484.65 670.915 484.706 670.831L502.475 648.414C502.644 648.216 502.758 647.933 502.758 647.65V645.527C502.758 640.375 498.598 636.186 493.421 636.186ZM468.551 486.657C463.402 486.657 459.214 490.846 459.214 495.997V521.046C459.214 521.244 459.384 521.414 459.582 521.414C459.695 521.414 459.78 521.386 459.837 521.301L477.605 498.884C477.775 498.686 477.888 498.403 477.888 498.12V495.997C477.888 490.846 473.7 486.657 468.551 486.657ZM493.421 486.657C488.271 486.657 484.084 490.846 484.084 495.997V521.046C484.084 521.244 484.254 521.414 484.452 521.414C484.537 521.414 484.65 521.386 484.706 521.301L502.475 498.884C502.644 498.686 502.758 498.403 502.758 498.12V495.997C502.758 490.846 498.598 486.657 493.421 486.657ZM550.658 710.966C545.509 710.966 541.321 715.155 541.321 720.306V745.355C541.321 745.553 541.491 745.723 541.689 745.723C541.802 745.723 541.887 745.694 541.944 745.61L559.712 723.193C559.882 722.995 559.995 722.712 559.995 722.429V720.306C559.995 715.155 555.807 710.966 550.658 710.966ZM550.658 860.467C545.509 860.467 541.321 864.656 541.321 869.807V894.856C541.321 895.054 541.491 895.224 541.689 895.224C541.802 895.224 541.887 895.168 541.944 895.111L559.712 872.694C559.882 872.496 559.995 872.213 559.995 871.93V869.807C559.995 864.656 555.807 860.467 550.658 860.467ZM411.314 710.966C406.165 710.966 401.977 715.155 401.977 720.306V745.355C401.977 745.553 402.147 745.723 402.345 745.723C402.458 745.723 402.543 745.694 402.6 745.61L420.368 723.193C420.537 722.995 420.651 722.712 420.651 722.429V720.306C420.651 715.155 416.463 710.966 411.314 710.966ZM468.551 785.716C463.402 785.716 459.214 789.905 459.214 795.057V820.106C459.214 820.304 459.384 820.474 459.582 820.474C459.695 820.474 459.78 820.445 459.837 820.36L477.605 797.944C477.775 797.717 477.888 797.462 477.888 797.179V795.057C477.888 789.905 473.7 785.716 468.551 785.716ZM411.314 561.436C406.165 561.436 401.977 565.625 401.977 570.776V595.825C401.977 596.023 402.147 596.193 402.345 596.193C402.458 596.193 402.543 596.136 402.6 596.08L420.368 573.663C420.537 573.465 420.651 573.182 420.651 572.899V570.776C420.651 565.625 416.463 561.436 411.314 561.436ZM411.314 860.467C406.165 860.467 401.977 864.656 401.977 869.807V894.856C401.977 895.054 402.147 895.224 402.345 895.224C402.458 895.224 402.543 895.168 402.6 895.111L420.368 872.694C420.537 872.496 420.651 872.213 420.651 871.93V869.807C420.651 864.656 416.463 860.467 411.314 860.467Z" fill="#E8CF00"/>
</svg>
