<svg width="2000" height="1042" viewBox="0 0 2000 1042" fill="none" xmlns="http://www.w3.org/2000/svg">
<path d="M254.607 69C158.176 69 80 147.198 80 243.473V712.127C80 715.832 83.169 719.001 86.9629 719.001C88.9937 719.001 90.5112 718.175 91.6271 717.127L423.903 297.703C427.027 293.753 429.036 288.866 429.036 283.197V243.473C429.013 147.198 350.882 69 254.607 69Z" fill="#E40E62"/>
<path d="M719.868 69C623.526 69 545.328 147.198 545.328 243.473V712.127C545.328 715.832 548.296 719.001 552.313 719.001C554.009 719.001 555.75 718.175 556.978 717.127L889.343 297.703C892.378 293.753 894.364 288.866 894.364 283.197V243.473C894.364 147.198 816.411 69 719.868 69Z" fill="#E40E62"/>
<path d="M557.047 718.087L966 203.372" stroke="#222222" stroke-width="2.99434" stroke-dasharray="2.99 2.99"/>
<path d="M91.5381 718.086L501.12 203.838" stroke="#222222" stroke-width="2.99434" stroke-dasharray="2.99 2.99"/>
<path d="M81.5166 718.399H898.202" stroke="#222222" stroke-width="1.49717"/>
<path d="M736.027 715.877C736.027 659.214 711.233 608.332 671.911 573.54" stroke="#222222" stroke-width="1.49717"/>
<path d="M671.91 573.541C638.412 543.882 594.381 525.895 546.132 525.895" stroke="white" stroke-width="1.49717"/>
<path d="M594.091 465.883V463.182H595.631C599.737 463.182 601.924 460.192 601.924 456.978C601.924 453.385 599.536 450.975 595.542 450.975C591.547 450.975 588.78 453.207 588.601 458.072H585.722C585.678 452.805 589.114 448.476 595.609 448.476C601.21 448.476 604.892 451.779 604.892 456.733C604.892 460.839 602.013 463.316 599.447 464.298V464.343C602.326 465.079 605.785 467.177 605.785 472.31C605.785 477.443 601.723 481.304 595.296 481.304C587.887 481.304 585.03 476.773 584.896 471.886H587.798C588.222 476.461 591.145 478.827 595.542 478.827C599.648 478.827 602.772 476.171 602.772 472.355C602.772 467.981 599.648 465.838 595.586 465.838H594.046L594.091 465.883Z" fill="white"/>
<path d="M621.697 448.52C627.701 448.52 631.338 452.246 631.338 457.045C631.338 460.972 628.683 463.561 625.781 464.365V464.454C628.727 465.012 632.298 467.578 632.298 472.466C632.298 477.353 628.236 481.415 621.72 481.415C615.203 481.415 611.142 477.598 611.142 472.466C611.142 467.333 614.913 465.012 617.658 464.454V464.365C614.757 463.516 612.101 460.95 612.101 457.045C612.101 452.246 615.739 448.52 621.742 448.52H621.697ZM629.263 472.443C629.263 467.913 625.581 465.637 621.697 465.637C617.814 465.637 614.154 467.913 614.154 472.443C614.154 476.974 617.703 479.027 621.697 479.027C625.692 479.027 629.263 476.929 629.263 472.443ZM615.069 457.067C615.069 461.352 618.283 463.226 621.697 463.226C625.112 463.226 628.281 461.352 628.281 457.067C628.281 452.782 625.023 450.907 621.697 450.907C618.194 450.907 615.069 452.76 615.069 457.067Z" fill="white"/>
<path d="M637.407 476.64H641.469V480.701H637.407V476.64Z" fill="white"/>
<path d="M657.292 462.647C654.547 462.647 652.204 463.718 650.775 465.682H648.254L649.704 448.989H666.107V451.6H652.271L651.289 462.692H651.378C652.449 461.375 654.792 460.081 657.805 460.081C662.603 460.081 667.647 462.692 667.647 470.614C667.647 477.421 663.362 481.349 657.024 481.349C650.262 481.349 647.272 476.885 647.004 472.199H649.905C650.329 476.618 653.208 478.872 657.091 478.872C660.461 478.872 664.59 476.729 664.59 470.659C664.59 465.147 661.197 462.647 657.27 462.647H657.292Z" fill="white"/>
<path d="M683.134 456.955C683.134 460.414 680.345 462.691 677.399 462.691C674.051 462.691 671.797 460.169 671.797 457.178C671.753 453.876 674.319 451.398 677.488 451.398C680.992 451.398 683.134 454.054 683.134 456.955ZM674.096 457.156C674.096 459.12 675.547 460.66 677.444 460.66C679.341 460.66 680.836 459.075 680.836 456.978C680.836 455.393 679.898 453.385 677.444 453.385C675.212 453.385 674.096 455.304 674.096 457.156Z" fill="white"/>
<path d="M778.763 602.394C776.018 602.394 773.674 603.465 772.246 605.429H769.724L771.175 588.736H787.578V591.347H773.741L772.759 602.439H772.849C773.92 601.122 776.263 599.828 779.276 599.828C784.074 599.828 789.118 602.439 789.118 610.361C789.118 617.168 784.833 621.096 778.495 621.096C771.733 621.096 768.742 616.632 768.475 611.946H771.376C771.8 616.342 774.679 618.619 778.562 618.619C781.932 618.619 786.06 616.476 786.06 610.406C786.06 604.894 782.668 602.394 778.74 602.394H778.763Z" fill="black"/>
<path d="M800.453 596.102H793.981V593.825H795.276C797.463 593.825 798.824 593.535 799.739 592.71C800.632 591.861 800.855 590.656 800.944 588.559H803.466V620.449H800.476V596.102H800.453Z" fill="black"/>
<path d="M811.993 616.389H816.055V620.45H811.993V616.389Z" fill="black"/>
<path d="M831.898 602.394C829.153 602.394 826.81 603.465 825.382 605.429H822.86L824.311 588.736H840.714V591.347H826.877L825.895 602.439H825.984C827.056 601.122 829.399 599.828 832.412 599.828C837.21 599.828 842.253 602.439 842.253 610.361C842.253 617.168 837.969 621.096 831.631 621.096C824.869 621.096 821.878 616.632 821.61 611.946H824.512C824.936 616.342 827.814 618.619 831.698 618.619C835.067 618.619 839.196 616.476 839.196 610.406C839.196 604.894 835.804 602.394 831.876 602.394H831.898Z" fill="black"/>
<path d="M857.742 596.683C857.742 600.142 854.952 602.418 852.006 602.418C848.659 602.418 846.405 599.896 846.405 596.906C846.36 593.603 848.927 591.126 852.096 591.126C855.599 591.126 857.742 593.782 857.742 596.683ZM848.704 596.906C848.704 598.87 850.154 600.41 852.051 600.41C853.948 600.41 855.443 598.825 855.443 596.727C855.443 595.143 854.506 593.134 852.051 593.134C849.819 593.134 848.704 595.054 848.704 596.906Z" fill="black"/>
<path d="M1562.14 69H1247V498.711H1562.14V69Z" fill="#F8B5CB"/>
<path d="M1267.57 498.993H1561.54V127.982L1267.57 498.993Z" fill="#E40E62"/>
<path d="M1919.67 68H1603.61V498.992H1919.67V68Z" fill="#F8B5CB"/>
<path d="M1834.12 498.992H1919.68V391.013L1834.12 498.992Z" fill="#E40E62"/>
<path d="M1919.68 547.587H1247.15V936.306H1919.68V547.587Z" fill="#F8B5CB"/>
<path d="M1247.15 547.587V936.306H1305.94L1610.65 547.587H1247.15Z" fill="#E40E62"/>
<path d="M1453.83 843.052L1445.96 852.95L1471.51 873.252L1468.74 876.74L1443.19 856.438L1435.32 866.336L1432.31 863.921L1450.82 840.638L1453.83 843.052Z" fill="#E40E62"/>
<path d="M1458.9 848.718L1461.59 845.35L1477.18 851.044C1479.56 851.908 1481.02 852.504 1481.02 852.504L1481.11 852.385C1481.11 852.385 1480.19 851.103 1478.79 848.957L1469.69 835.154L1472.38 831.785L1487.58 855.575C1490.86 860.733 1491.49 863.386 1488.12 867.649C1487.52 868.394 1486.81 869.05 1486.3 869.497L1483.53 867.291C1484.18 866.784 1484.81 866.069 1485.08 865.711C1487.07 863.207 1486.78 861.657 1484.81 858.676L1484.06 857.483L1458.9 848.718Z" fill="#E40E62"/>
<path d="M1475.98 827.223L1478.58 823.974L1481.86 826.597L1481.92 826.538C1480.75 823.705 1480.75 820.247 1483.14 817.266C1486.48 813.092 1492.02 811.393 1499.48 817.326C1506.66 823.02 1507.14 829.459 1503.62 833.901C1501.32 836.763 1497.9 837.807 1495.54 837.181L1495.48 837.27L1505.38 845.14L1502.7 848.509L1475.98 827.283V827.223ZM1500.58 832.261C1503.38 828.744 1501.92 824.809 1496.79 820.694C1492.62 817.355 1488.45 816.074 1485.26 820.098C1482.48 823.556 1483.77 828.058 1487.07 830.682L1489.16 832.351C1493.04 835.451 1497.63 835.958 1500.58 832.232V832.261Z" fill="#E40E62"/>
<path d="M1502.85 813.599C1496.76 808.769 1495.21 802.032 1499.57 796.546C1504.22 790.673 1510.78 791.12 1516.86 795.95C1523.03 800.839 1524.55 807.487 1520.17 813.032C1515.58 818.816 1509.02 818.488 1502.85 813.599ZM1505.62 810.111C1510.45 813.956 1514.62 814.642 1517.66 810.856C1520.58 807.189 1518.94 803.284 1514.11 799.438C1509.34 795.652 1505.14 794.847 1502.13 798.633C1499.27 802.21 1500.85 806.324 1505.62 810.111Z" fill="#E40E62"/>
<path d="M1532.21 800.987L1534.81 797.737C1536.77 798.691 1538.89 798.274 1541.42 795.084C1544.4 791.358 1544.49 788.376 1540.17 784.948L1537.25 782.623C1538.38 785.216 1538.23 788.853 1535.88 791.805C1532.6 795.919 1527.02 797.648 1519.75 791.835C1513.25 786.677 1512.42 780.417 1516.29 775.557C1518.83 772.367 1522.08 771.861 1524.58 772.516L1524.64 772.457L1521.54 769.982L1524.1 766.763L1543.3 782.026C1548.82 786.409 1548.34 791.954 1544.11 797.29C1541.13 801.017 1536.68 803.789 1532.27 800.987H1532.21ZM1530.27 776.929C1526.34 773.828 1521.93 773.888 1519.21 777.286C1516.38 780.834 1517.99 784.859 1522.46 788.406C1526.79 791.835 1530.78 792.997 1534.06 788.853C1536.59 785.693 1535.64 781.192 1532.27 778.538L1530.3 776.958L1530.27 776.929Z" fill="#E40E62"/>
<path d="M1529.62 759.727L1532.15 756.567L1535.85 759.519L1535.91 759.429C1534.57 756.895 1534.51 752.841 1536.8 749.949L1537.07 749.621L1540.59 752.423L1540.08 753.049C1537.28 756.567 1537.46 760.473 1541.27 763.514L1552.01 772.04L1549.32 775.408L1529.65 759.757L1529.62 759.727Z" fill="#E40E62"/>
<path d="M1545.71 750.547C1542.32 747.715 1542.02 743.154 1545.77 738.443C1549.65 733.554 1553.61 732.779 1558.89 736.983L1566.91 743.362C1568.49 744.615 1569.39 744.793 1570.58 743.362L1573.29 745.539L1572.96 745.956C1570.46 749.086 1568.52 749.265 1565.9 747.715L1565.84 747.804C1567.33 750.696 1566.79 754.125 1564.47 757.016C1561.37 760.952 1557.37 761.578 1553.85 758.775C1551.68 757.046 1550.63 754.691 1551.23 751.889C1551.77 748.967 1553.85 745.598 1557.19 741.097L1556.33 740.411C1552.78 737.579 1550.34 737.847 1548.13 740.59C1545.8 743.511 1546.64 745.926 1548.22 747.357L1545.65 750.577L1545.71 750.547ZM1560.17 743.392L1559.73 743.034C1556.54 747.447 1554.93 750.13 1554.87 752.157C1554.84 753.349 1555.4 754.333 1556.45 755.168C1558.47 756.778 1560.59 756.331 1562.29 754.184C1564.29 751.68 1565.06 747.238 1560.2 743.392H1560.17Z" fill="#E40E62"/>
<path d="M1557.34 724.849L1559.94 721.6L1563.21 724.223L1563.27 724.164C1562.11 721.331 1562.11 717.873 1564.5 714.892C1567.84 710.718 1573.38 709.019 1580.83 714.952C1588.02 720.646 1588.5 727.085 1584.98 731.527C1582.68 734.389 1579.25 735.433 1576.9 734.807L1576.84 734.896L1586.74 742.766L1584.05 746.135L1557.34 724.909V724.849ZM1581.94 729.888C1584.74 726.37 1583.28 722.435 1578.12 718.32C1573.95 714.982 1569.77 713.7 1566.58 717.724C1563.81 721.212 1565.09 725.684 1568.4 728.307L1570.49 729.977C1574.36 733.077 1578.96 733.584 1581.91 729.858L1581.94 729.888Z" fill="#E40E62"/>
<path d="M1592.94 695.513C1591.51 694.38 1589.99 693.157 1588.49 693.128C1587.03 693.068 1585.75 693.873 1584.74 695.185C1581.82 698.852 1582.86 702.399 1586.05 704.963L1597.86 714.354L1595.17 717.723L1565.75 694.32L1568.43 690.951L1581.43 701.296L1581.49 701.207C1580.27 698.822 1580.09 695.274 1582.65 692.084C1585.66 688.298 1589.42 687.225 1594.1 690.951L1607.81 701.833L1605.13 705.202L1592.97 695.513H1592.94Z" fill="#E40E62"/>
<path d="M1591.71 681.623L1594.4 678.254L1609.99 683.948C1612.37 684.813 1613.84 685.409 1613.84 685.409L1613.92 685.29C1613.92 685.29 1613 684.008 1611.6 681.861L1602.51 668.058L1605.19 664.689L1620.42 688.479C1623.7 693.637 1624.33 696.29 1620.96 700.553C1620.36 701.299 1619.65 701.955 1619.14 702.402L1616.37 700.196C1617.03 699.689 1617.65 698.973 1617.92 698.616C1619.92 696.111 1619.62 694.561 1617.65 691.58L1616.91 690.358L1591.74 681.593L1591.71 681.623Z" fill="#E40E62"/>
<path d="M1535.79 856.169C1533.58 854.798 1530.63 854.768 1528.36 857.6C1525.53 861.148 1527.17 865.471 1531.76 869.138C1536.32 872.745 1540.59 873.908 1543.75 869.943C1546.73 866.216 1544.73 863.026 1543.33 861.744L1545.83 858.614C1550.01 862.728 1549.74 867.796 1546.34 872.059C1541.84 877.753 1535.43 877.664 1529.2 872.685C1523.18 867.915 1521.39 861.118 1525.77 855.573C1528.9 851.638 1533.49 849.521 1538.41 852.86L1535.79 856.14V856.169Z" fill="#E40E62"/>
<path d="M1541.48 847.853C1538.08 845.021 1537.79 840.459 1541.54 835.749C1545.42 830.86 1549.38 830.085 1554.66 834.288L1562.68 840.668C1564.26 841.92 1565.15 842.069 1566.35 840.668L1569.09 842.844L1568.76 843.262C1566.26 846.392 1564.32 846.541 1561.69 845.021L1561.64 845.11C1563.13 848.002 1562.59 851.43 1560.26 854.322C1557.16 858.257 1553.17 858.853 1549.68 856.081C1547.5 854.352 1546.46 851.997 1547.06 849.194C1547.59 846.273 1549.68 842.904 1553.02 838.402L1552.15 837.717C1548.61 834.885 1546.16 835.153 1543.96 837.896C1541.63 840.817 1542.47 843.232 1544.05 844.663L1541.48 847.883V847.853ZM1555.97 840.698L1555.52 840.34C1552.33 844.752 1550.72 847.435 1550.66 849.463C1550.63 850.655 1551.2 851.639 1552.24 852.474C1554.27 854.084 1556.39 853.636 1558.09 851.49C1560.08 848.986 1560.86 844.544 1556 840.698H1555.97Z" fill="#E40E62"/>
<path d="M1570.61 815.655C1569.18 814.522 1567.63 813.27 1566.13 813.24C1564.67 813.18 1563.39 813.985 1562.38 815.297C1559.46 818.964 1560.47 822.511 1563.69 825.075L1575.5 834.466L1572.81 837.835L1553.14 822.184L1555.67 819.023L1559.01 821.677L1559.07 821.587C1557.79 819.053 1557.82 815.357 1560.29 812.197C1563.3 808.41 1567.09 807.337 1571.74 811.064L1585.45 821.975L1582.77 825.344L1570.64 815.685L1570.61 815.655Z" fill="#E40E62"/>
<path d="M1569.5 781.55L1572.19 778.182L1585.19 788.497C1583.9 785.694 1584.02 782.236 1586.38 779.285C1589.72 775.111 1595.23 773.412 1602.71 779.344C1609.9 785.038 1610.41 791.448 1606.89 795.89C1604.41 798.99 1601.08 799.676 1598.36 799.169L1598.3 799.259L1601.43 801.763L1598.9 804.923L1569.47 781.521L1569.5 781.55ZM1600.03 782.802C1595.86 779.464 1591.68 778.182 1588.49 782.206C1585.66 785.754 1587 790.166 1590.31 792.789L1592.4 794.459C1596.28 797.559 1600.87 798.066 1603.82 794.34C1606.62 790.822 1605.19 786.887 1600.03 782.802Z" fill="#E40E62"/>
<path d="M1623.52 775.021C1618.75 781.043 1612.08 780.447 1606.23 775.766C1600.42 771.145 1598.3 764.348 1602.78 758.714C1607.46 752.811 1613.87 754.123 1618.84 758.058L1620.57 759.429L1609.78 772.994C1614.04 776.005 1618.1 776.571 1621.05 772.874C1623.67 769.595 1622.45 767.21 1621.56 765.958L1624.15 762.708C1626.98 766.107 1626.92 770.817 1623.55 775.021H1623.52ZM1614.94 760.592C1611.6 758.058 1608.02 757.342 1605.28 760.771C1602.78 763.901 1603.88 767.598 1607.16 770.847L1615.18 760.771L1614.97 760.592H1614.94Z" fill="#E40E62"/>
<path d="M1636.76 741.81C1638.19 742.943 1639.83 744.255 1641.32 744.284C1642.75 744.314 1644 743.599 1645.02 742.287C1647.94 738.62 1646.87 734.983 1642.54 731.525L1631.9 723.058L1634.58 719.689L1654.26 735.341L1651.69 738.56L1648.33 735.877L1648.27 735.967C1649.58 738.471 1649.67 742.078 1647.19 745.238C1644.18 749.024 1640.34 750.098 1635.72 746.401L1622 735.52L1624.66 732.181L1636.76 741.81Z" fill="#E40E62"/>
<path d="M1652.77 706.932C1650.86 705.739 1648.63 706.246 1646.78 708.571C1644.93 710.897 1645.08 713.49 1646.9 714.951C1648.51 716.233 1650.03 715.845 1651.94 714.146L1654.8 711.463C1658.7 707.856 1661.57 707.707 1664.96 710.39C1668.93 713.55 1668.51 718.439 1664.96 722.941C1661.71 727.025 1657.21 728.933 1652.8 725.832L1655.42 722.553C1657.06 723.626 1659.69 724.312 1662.46 720.824C1664.61 718.141 1664.67 715.458 1662.61 713.818C1661.03 712.566 1659.87 712.298 1657.27 714.623L1654.41 717.306C1651.07 720.377 1648.12 721.092 1644.69 718.35C1641.2 715.577 1640.82 710.956 1644.39 706.455C1647.79 702.192 1651.7 701.327 1655.39 703.742L1652.83 706.961L1652.77 706.932Z" fill="#E40E62"/>
<path d="M1681.03 702.669C1676.26 708.691 1669.58 708.095 1663.74 703.415C1657.9 698.794 1655.81 691.997 1660.31 686.362C1664.99 680.459 1671.4 681.771 1676.38 685.706L1678.11 687.078L1667.32 700.642C1671.58 703.653 1675.64 704.219 1678.59 700.523C1681.21 697.243 1679.99 694.859 1679.09 693.606L1681.69 690.357C1684.52 693.785 1684.46 698.466 1681.09 702.699L1681.03 702.669ZM1672.45 688.21C1669.11 685.676 1665.53 684.961 1662.79 688.389C1660.28 691.52 1661.39 695.216 1664.64 698.466L1672.66 688.389L1672.42 688.21H1672.45Z" fill="#E40E62"/>
<path d="M1703.9 672.886L1701.33 676.106L1698.08 673.512L1697.99 673.632C1699.1 676.225 1699.22 679.773 1696.8 682.814C1693.46 686.987 1687.8 688.776 1680.23 682.724C1673.46 677.358 1672.56 670.889 1676.5 665.94C1678.85 662.989 1682.01 662.393 1684.46 663.048L1684.52 662.959L1671.79 652.823L1674.47 649.454L1703.9 672.857V672.886ZM1690.69 667.729C1686.52 664.39 1682.07 664.479 1679.57 667.61C1676.56 671.396 1678.2 675.48 1682.82 679.177C1687.26 682.695 1691.55 683.976 1694.68 680.071C1697.46 676.583 1696.38 672.26 1692.78 669.428L1690.69 667.759V667.729Z" fill="#E40E62"/>
<path d="M1602.54 863.027C1599.11 860.194 1598.84 855.633 1602.57 850.923C1606.44 846.034 1610.41 845.259 1615.68 849.462L1623.7 855.842C1625.28 857.094 1626.18 857.273 1627.37 855.842L1630.11 858.018L1629.78 858.436C1627.28 861.566 1625.34 861.715 1622.72 860.195L1622.66 860.284C1624.15 863.176 1623.61 866.604 1621.29 869.496C1618.19 873.431 1614.19 874.057 1610.7 871.255C1608.53 869.526 1607.48 867.17 1608.08 864.338C1608.62 861.417 1610.7 858.078 1614.04 853.546L1613.18 852.861C1609.63 850.029 1607.19 850.297 1604.98 853.04C1602.66 855.961 1603.49 858.376 1605.07 859.837L1602.51 863.056L1602.54 863.027ZM1617 855.872L1616.55 855.514C1613.36 859.926 1611.75 862.609 1611.69 864.636C1611.66 865.829 1612.2 866.813 1613.27 867.648C1615.3 869.257 1617.41 868.81 1619.11 866.664C1621.11 864.159 1621.88 859.717 1617.02 855.872H1617Z" fill="#E40E62"/>
<path d="M1611.75 828.683L1617.47 833.215L1621.32 828.355L1623.88 830.413L1620.04 835.272L1631.66 844.514C1633.75 846.183 1635.27 845.974 1636.97 843.828C1637.77 842.814 1638.49 841.503 1638.49 841.503L1641.32 843.768C1641.32 843.768 1640.46 845.319 1639.09 847.048C1636.01 850.893 1632.94 850.953 1629.58 848.27L1617.38 838.581L1614.52 842.158L1612.05 840.191L1612.52 839.595C1614.64 836.941 1614.46 835.838 1610.7 832.827L1609.27 831.694L1611.72 828.624L1611.75 828.683Z" fill="#E40E62"/>
<path d="M1643.59 809.246C1641.77 811.512 1641.17 813.986 1641.95 816.282L1639.62 819.203L1625.82 806.294L1637.5 791.567L1640.43 793.893L1630.98 805.758L1639.23 813.479L1639.29 813.39C1638.91 811.512 1639.29 808.739 1641.29 806.205C1644.72 801.882 1650.83 799.795 1657.42 805.013C1663.17 809.574 1664.01 816.222 1659.33 822.065C1654.41 828.266 1648.54 827.431 1644.54 824.718L1647.25 821.32C1650.95 823.824 1654.08 822.84 1656.64 819.65C1658.91 816.818 1659.3 812.257 1654.71 808.59C1650.47 805.221 1646.15 805.996 1643.59 809.246Z" fill="#E40E62"/>
<path d="M1654.05 785.724L1649.67 791.239L1647.28 789.331L1647.94 788.497C1649.43 786.648 1650 784.889 1649.82 783.369C1649.64 781.908 1648.83 780.626 1647.13 779.225L1649.37 776.423L1677.16 798.514L1674.44 801.912L1654.05 785.694V785.724Z" fill="#E40E62"/>
<path d="M1677.78 788.379L1681.39 783.817L1685.95 787.425L1682.34 791.986L1677.78 788.379Z" fill="#E40E62"/>
<path d="M1681.36 761.724C1679.54 763.99 1678.94 766.435 1679.72 768.76L1677.39 771.682L1663.59 758.773L1675.28 744.046L1678.2 746.371L1668.75 758.266L1677.01 765.988L1677.06 765.928C1676.68 764.05 1677.06 761.277 1679.06 758.743C1682.52 754.42 1688.63 752.304 1695.19 757.551C1700.94 762.112 1701.78 768.76 1697.1 774.603C1692.18 780.804 1686.31 779.969 1682.31 777.256L1685.02 773.858C1688.69 776.362 1691.85 775.378 1694.42 772.188C1696.68 769.356 1697.07 764.795 1692.48 761.128C1688.24 757.789 1683.92 758.535 1681.36 761.784V761.724Z" fill="#E40E62"/>
<path d="M1729.56 732.569L1727 735.789L1723.75 733.195L1723.66 733.314C1724.76 735.908 1724.88 739.456 1722.47 742.496C1719.13 746.67 1713.47 748.459 1705.89 742.407C1699.13 737.041 1698.23 730.572 1702.17 725.623C1704.52 722.671 1707.68 722.075 1710.13 722.731L1710.19 722.642L1697.46 712.505L1700.14 709.137L1729.56 732.539V732.569ZM1716.36 727.441C1712.18 724.102 1707.74 724.192 1705.24 727.322C1702.23 731.108 1703.87 735.192 1708.49 738.889C1712.93 742.437 1717.22 743.689 1720.35 739.783C1723.13 736.295 1722.05 731.973 1718.44 729.141L1716.36 727.471V727.441Z" fill="#E40E62"/>
<path d="M1741.31 718.826C1736.54 724.849 1729.86 724.252 1724.02 719.572C1718.18 714.951 1716.09 708.154 1720.56 702.519C1725.24 696.617 1731.65 697.928 1736.63 701.863L1738.36 703.235L1727.57 716.799C1731.83 719.81 1735.89 720.377 1738.84 716.68C1741.46 713.401 1740.24 711.016 1739.34 709.764L1741.94 706.514C1744.77 709.913 1744.71 714.623 1741.34 718.856L1741.31 718.826ZM1732.73 704.368C1729.39 701.834 1725.81 701.118 1723.07 704.547C1720.56 707.677 1721.67 711.373 1724.91 714.623L1732.93 704.547L1732.73 704.368Z" fill="#E40E62"/>
<path d="M1752.58 707.677L1755.17 704.427C1757.14 705.381 1759.26 704.994 1761.79 701.774C1764.77 698.048 1764.86 695.066 1760.54 691.638L1757.62 689.313C1758.75 691.906 1758.6 695.543 1756.25 698.495C1752.97 702.609 1747.39 704.338 1740.12 698.525C1733.62 693.367 1732.79 687.107 1736.66 682.247C1739.2 679.087 1742.44 678.551 1744.95 679.206L1745.01 679.117L1741.91 676.643L1744.47 673.423L1763.67 688.687C1769.19 693.069 1768.71 698.614 1764.48 703.95C1761.49 707.677 1757.08 710.42 1752.64 707.647L1752.58 707.677ZM1750.64 683.648C1746.71 680.548 1742.3 680.608 1739.58 684.006C1736.75 687.554 1738.36 691.578 1742.83 695.126C1747.15 698.584 1751.15 699.717 1754.43 695.573C1756.96 692.413 1756.01 687.912 1752.64 685.258L1750.67 683.678L1750.64 683.648Z" fill="#E40E62"/>
<path d="M1750.02 666.445L1752.55 663.285L1756.25 666.236L1756.31 666.147C1754.96 663.613 1754.9 659.559 1757.2 656.667L1757.47 656.339L1760.99 659.141L1760.48 659.767C1757.68 663.285 1757.86 667.19 1761.67 670.231L1772.4 678.757L1769.72 682.126L1750.05 666.475L1750.02 666.445Z" fill="#E40E62"/>
<path d="M1787.16 661.139C1782.39 667.161 1775.71 666.565 1769.87 661.884C1764.03 657.263 1761.94 650.466 1766.41 644.832C1771.09 638.929 1777.5 640.241 1782.48 644.176L1784.21 645.547L1773.42 659.112C1777.68 662.123 1781.73 662.689 1784.68 658.993C1787.31 655.713 1786.09 653.328 1785.19 652.076L1787.79 648.827C1790.62 652.225 1790.56 656.935 1787.19 661.169L1787.16 661.139ZM1778.57 646.68C1775.23 644.146 1771.66 643.431 1768.91 646.859C1766.41 649.989 1767.51 653.686 1770.76 656.935L1778.78 646.859L1778.57 646.68Z" fill="#E40E62"/>
<path d="M1803.62 640.421C1798.85 646.443 1792.17 645.847 1786.33 641.166C1780.48 636.546 1778.4 629.748 1782.87 624.114C1787.55 618.211 1793.96 619.523 1798.94 623.458L1800.67 624.83L1789.87 638.394C1794.14 641.405 1798.19 641.971 1801.14 638.245C1803.77 634.966 1802.55 632.581 1801.65 631.329L1804.24 628.079C1807.08 631.478 1807.02 636.188 1803.65 640.391L1803.62 640.421ZM1795.06 625.962C1791.72 623.428 1788.15 622.713 1785.4 626.141C1782.9 629.272 1784 632.968 1787.25 636.218L1795.27 626.141L1795.06 625.962Z" fill="#E40E62"/>
<path d="M1806.75 605.184C1804.84 603.961 1802.6 604.498 1800.75 606.823C1798.91 609.149 1799.06 611.742 1800.87 613.203C1802.48 614.485 1804 614.097 1805.91 612.398L1808.77 609.715C1812.68 606.108 1815.54 605.959 1818.94 608.672C1822.91 611.832 1822.49 616.721 1818.94 621.193C1815.69 625.277 1811.19 627.185 1806.78 624.084L1809.4 620.805C1811.04 621.878 1813.66 622.564 1816.44 619.076C1818.58 616.393 1818.64 613.68 1816.59 612.07C1815.01 610.818 1813.84 610.55 1811.25 612.875L1808.39 615.558C1805.05 618.629 1802.1 619.344 1798.67 616.602C1795.18 613.829 1794.79 609.208 1798.37 604.707C1801.77 600.444 1805.67 599.579 1809.37 601.994L1806.81 605.213L1806.75 605.184Z" fill="#E40E62"/>
<path d="M1823.23 605.361L1826.84 600.8L1831.4 604.407L1827.79 608.968L1823.23 605.361Z" fill="#E40E62"/>
</svg>
