<svg width="2000" height="694" viewBox="0 0 2000 694" fill="none" xmlns="http://www.w3.org/2000/svg">
<path d="M216.694 293.967V422.743L240.716 434.754V444.377H144.924V434.754L174.124 422.743V293.967H148.34V276.814H174.088V272.003C174.124 226.311 178.899 201.591 233.15 201.591C253.425 201.591 294.966 205.007 308.005 210.884C317.629 215.328 321.045 220.838 321.045 231.82C321.045 243.831 312.119 251.03 297.684 251.03C280.164 251.03 275.352 246.586 263.011 218.414C259.595 218.046 258.199 218.046 256.473 218.046C228.301 218.046 216.658 230.094 216.658 259.257V276.778H293.24L317.629 274.023V422.706L348.188 434.717V444.34H252.727V434.717L276.418 422.706V293.967H216.694Z" fill="#ED135D"/>
<path d="M371.181 293.967H345.433V282.287L349.216 280.928C377.388 271.305 379.445 269.946 390.427 252.425C395.239 244.859 397.296 241.443 400.381 234.207H413.788V276.777H466.679V293.93H413.788V396.26C413.788 419.29 420.656 426.122 444.347 426.122C448.13 426.122 451.546 426.122 454.631 425.424L463.887 424.028L466.642 423.698L469.727 437.104L465.944 438.133L448.093 442.614C435.715 445.699 421.648 447.425 411.694 447.425C383.889 447.425 371.181 434.386 371.181 406.214V293.93V293.967Z" fill="#ED135D"/>
<path d="M613.6 445.369L552.848 295.326L532.573 286.401V276.778H621.497V286.401L597.806 295.326L624.582 367.758C624.913 369.154 626.639 373.929 629.027 381.495C631.083 387.335 632.479 391.118 632.81 392.808C633.14 393.836 633.508 395.526 634.169 397.62L670.238 297.346L647.245 286.364V276.741H715.563V286.364L694.259 298.375L625.243 469.39C612.865 500.28 609.78 504.761 597.071 512.658C587.448 518.498 576.796 521.253 563.427 521.253C552.775 521.253 543.152 520.225 535.953 518.168V485.221H563.757L569.928 505.827C585.024 503.77 594.317 494.146 603.573 470.823L613.527 445.405L613.6 445.369Z" fill="#ED135D"/>
<path d="M751.299 358.501C751.299 404.855 767.093 432.329 793.539 432.329C819.985 432.329 835.081 407.609 835.081 365.039C835.081 319.016 818.956 290.514 792.841 290.514C766.726 290.514 751.299 315.564 751.299 358.501ZM705.277 365.737C705.277 311.487 741.346 275.087 794.898 275.087C848.45 275.087 881.104 308.402 881.104 359.53C881.104 410.658 845.035 449.482 791.482 449.482C737.93 449.482 705.277 415.837 705.277 365.7" fill="#ED135D"/>
<path d="M1016.09 429.575L1013 430.971C980.387 444.01 967.348 447.793 955.337 447.793C942.629 447.793 929.92 442.283 922.721 433.395C914.493 423.11 912.069 413.12 912.069 389.796V303.26L882.869 294.665V285.409L954.639 273.068V379.144C954.639 412.459 962.536 422.082 989.313 422.082C998.569 422.082 1002.72 421.751 1013.33 419.694L1016.09 419.364V303.297L987.256 294.702V285.446L1057.3 273.105V418.703L1086.13 426.6V436.223L1016.09 449.96V429.575Z" fill="#ED135D"/>
<path d="M1165.18 303.591V422.744L1201.25 434.755V444.378H1095.13V434.755L1124.33 422.744V303.591L1095.13 294.629V285.373L1165.18 273.032V294.299L1168.96 292.242C1195.41 277.844 1206.75 273.363 1217.37 273.363C1223.87 273.363 1230.78 275.419 1238.67 279.533V321.406H1203.63L1194.38 299.772C1190.96 299.404 1188.21 299.074 1186.48 299.074C1181.34 299.074 1172.41 301.131 1165.18 303.555" fill="#ED135D"/>
<path d="M1329.73 422.706V233.179L1299.17 224.952V215.328L1370.94 201.591V422.706L1401.5 434.754V444.377H1300.89V434.754L1329.73 422.706Z" fill="#ED135D"/>
<path d="M1443.74 422.707V303.591L1414.54 294.997V285.704L1486.31 273.032V422.707L1515.51 434.755V444.378H1414.54V434.755L1443.74 422.707Z" fill="#ED135D"/>
<path d="M1598.26 293.967V422.742L1634.29 434.753V444.376H1526.45V434.753L1555.65 422.742V293.967H1529.87V276.814H1555.65V269.615C1555.65 227.742 1585.51 201.627 1633.92 201.627C1648.03 201.994 1661.73 203.684 1675.14 207.798V239.386H1649.06L1635.65 216.723C1609.57 217.054 1598.22 229.101 1598.22 257.236V276.814H1641.12V293.967H1598.22H1598.26Z" fill="#ED135D"/>
<path d="M1748.96 339.621C1748.27 303.222 1740.37 288.823 1720.46 288.823C1699.2 288.823 1687.52 308.401 1687.52 345.461L1749 339.621H1748.96ZM1794.29 357.141H1687.15C1687.15 400.079 1710.84 425.496 1750.32 425.496C1760.28 425.496 1773.35 423.77 1789.15 420.354L1791.54 433.063C1763.73 442.649 1739.67 447.828 1723.22 447.828C1674.81 447.828 1643.92 415.873 1643.92 365.406C1643.92 314.939 1678.26 275.123 1724.61 275.123C1753.78 275.123 1773.35 284.71 1783.67 304.324C1791.57 319.089 1793.63 329.374 1794.33 357.178" fill="#ED135D"/>
<path d="M1854.52 424.726C1854.52 437.471 1844.2 447.792 1831.46 447.792C1818.71 447.792 1808.39 437.471 1808.39 424.726C1808.39 411.98 1818.71 401.659 1831.46 401.659C1844.2 401.659 1854.52 412.017 1854.52 424.726Z" fill="#ED135D"/>
<path d="M1489.14 221.426C1489.14 234.942 1478.19 245.888 1464.67 245.888C1451.16 245.888 1440.21 234.942 1440.21 221.426C1440.21 207.909 1451.16 197 1464.67 197C1478.19 197 1489.14 207.946 1489.14 221.426Z" fill="#ED135D"/>
</svg>
