<svg width="2000" height="823" viewBox="0 0 2000 823" fill="none" xmlns="http://www.w3.org/2000/svg">
<rect y="100" width="8" height="643" fill="#E7AEC6"/>
<path d="M141.564 182.666L143.747 164.16L131.288 162.554L131.609 160.369L152.16 156.257L143.169 229.7C143.169 229.7 143.041 230.15 143.041 230.407C143.041 231.306 143.298 231.692 144.325 232.463L152.995 222.889L154.858 224.367C148.371 234.455 143.554 238.824 138.995 238.824C136.361 238.824 135.205 237.539 135.205 234.648C135.205 234.069 135.334 233.491 135.334 232.784L136.939 220.512L134.37 223.146C131.48 226.295 130.067 227.772 130.003 227.772C128.141 229.764 126.407 231.499 124.673 233.105C120.305 236.897 116.709 238.76 113.369 238.76C106.754 238.76 103.222 232.656 103.222 221.283C103.222 198.601 116.645 181.702 134.692 181.702C137.582 181.702 139.316 181.959 141.628 182.537L141.564 182.666ZM140.857 187.87C136.939 186.392 135.077 185.878 132.187 185.878C119.214 185.878 112.085 198.729 112.085 221.861C112.085 229.636 113.241 232.527 116.131 232.527C118.7 232.527 121.783 230.535 129.297 224.11C132.444 221.54 133.792 220.319 137.261 216.913L140.857 187.87ZM168.216 188.192L159.097 198.472L157.234 196.866C162.565 187.356 168.538 181.83 173.419 181.83C176.052 181.83 177.208 183.244 177.208 186.135C177.208 186.971 177.208 187.613 177.079 188.577L171.299 229.507C171.171 229.829 171.171 230.086 171.171 230.343C171.171 231.242 171.428 231.756 172.455 232.527L181.254 223.018L182.988 224.495C176.309 234.583 171.428 238.824 166.932 238.824C164.491 238.824 163.335 237.539 163.335 234.905C163.335 234.005 163.335 233.041 163.592 231.885L169.244 191.597C169.244 191.147 169.373 190.697 169.373 190.312C169.373 189.605 169.244 189.155 168.794 188.834L168.216 188.127V188.192ZM177.015 161.14C179.648 161.14 180.933 162.618 180.933 165.638C180.933 170.522 178.942 173.284 175.474 173.284C172.841 173.284 171.428 171.807 171.428 168.787C171.428 164.16 173.611 161.14 176.951 161.14H177.015ZM203.283 186.457L198.916 224.495C198.787 225.331 198.787 226.23 198.787 227.066C198.787 229.636 199.686 230.792 201.42 230.792C203.861 230.792 208.228 227.323 214.843 219.933L215.421 219.227L217.605 220.961C208.613 233.234 201.998 238.888 197.053 238.888C193.264 238.888 190.823 235.74 190.823 230.535C190.823 229.379 190.952 228.351 191.08 227.194L195.704 186.457H186.007L186.456 182.409H196.154L197.759 168.658H205.274L203.797 182.409H220.302L219.853 186.457H203.283ZM240.725 186.457L236.358 224.495C236.23 225.331 236.23 226.23 236.23 227.066C236.23 229.636 237.129 230.792 238.863 230.792C241.303 230.792 245.671 227.323 252.286 219.933L252.864 219.227L255.047 220.961C246.056 233.234 239.441 238.888 234.496 238.888C230.706 238.888 228.266 235.74 228.266 230.535C228.266 229.379 228.394 228.351 228.523 227.194L233.147 186.457H223.449L223.899 182.409H233.596L235.202 168.658H242.716L241.239 182.409H257.745L257.295 186.457H240.725ZM260.506 210.745C262.497 193.974 273.223 181.83 286.196 181.83C296.921 181.83 303.536 190.376 303.536 204.512C303.536 223.467 291.719 238.888 277.397 238.888C266.672 238.888 260.185 230.214 260.185 215.5C260.185 214.022 260.314 212.351 260.506 210.745ZM268.92 223.853C269.626 231.371 272.966 235.419 278.617 235.419C284.976 235.419 289.279 230.921 292.169 221.283C294.031 215.178 295.059 208.11 295.059 201.942C295.059 190.826 291.719 185.3 284.976 185.3C275.149 185.3 268.663 198.601 268.663 218.712C268.663 220.447 268.791 222.054 268.92 223.789V223.853ZM346.952 263.626H343.227C339.759 258.55 338.346 255.53 336.869 249.876C334.878 242.487 333.979 234.969 333.979 226.487C333.979 206.568 339.181 184.979 347.722 169.236C350.613 163.775 352.347 161.462 356.971 156.514H360.31C354.851 164.353 350.934 173.863 347.722 186.392C343.933 200.978 341.364 219.805 341.364 233.105C341.364 246.406 343.227 256.687 346.888 263.626H346.952ZM372.641 204.512L368.595 237.732H361.081L366.733 191.597V190.697C366.733 189.798 366.604 189.284 365.577 188.256L356.457 198.665L354.723 197.187C360.953 186.778 365.962 181.895 370.65 181.895C373.412 181.895 374.696 183.372 374.696 186.392C374.696 186.971 374.696 187.549 374.568 188.127L373.091 200.85L375.531 198.087L381.183 191.147C386.128 185.236 391.459 181.895 396.34 181.895C400.643 181.895 402.827 184.079 402.827 188.256C402.827 188.706 402.698 189.155 402.698 189.669L397.496 229.7C397.496 229.7 397.368 230.021 397.368 230.278C397.368 231.306 397.496 231.563 398.395 232.27L398.973 232.591L407.643 223.082L409.506 224.495L408.799 225.523C402.441 235.033 398.074 238.953 393.514 238.953C390.881 238.953 389.211 237.539 389.211 235.162C389.211 234.455 389.34 233.684 389.468 232.72L394.799 191.983C394.799 191.983 394.927 191.404 394.927 191.083C394.927 189.22 394.092 188.32 392.358 188.32C390.367 188.32 387.606 189.798 384.972 192.111C380.798 195.838 375.467 201.235 372.577 204.576L372.641 204.512ZM422.993 226.744C426.589 226.744 427.938 228.158 427.938 231.82C427.938 236.575 425.947 238.888 421.901 238.888C418.176 238.888 416.827 237.603 416.827 234.134C416.827 229.057 418.69 226.744 422.929 226.744H422.993ZM440.59 156.514H444.315C447.912 161.719 449.196 164.61 450.673 170.393C452.664 177.654 453.563 185.172 453.563 193.782C453.563 213.701 448.361 235.226 439.82 250.904C436.93 256.366 435.324 258.679 430.7 263.626H427.232C432.691 255.852 436.608 246.406 439.82 233.877C443.609 219.162 446.178 200.464 446.178 187.035C446.178 173.606 444.315 163.454 440.654 156.514H440.59ZM464.546 226.744C468.142 226.873 469.491 228.158 469.491 231.82C469.491 236.575 467.5 238.888 463.454 238.888C459.729 238.888 458.38 237.603 458.38 234.134C458.38 229.057 460.243 226.744 464.482 226.744H464.546ZM469.491 181.252C472.959 181.252 474.436 182.73 474.436 186.457C474.436 191.083 472.381 193.396 468.335 193.396C464.867 193.396 463.39 191.983 463.39 188.641C463.39 183.565 465.381 181.252 469.491 181.252ZM520.806 231.82L527.871 174.57L506.612 179.196L506.934 176.433C510.723 175.405 516.182 173.284 522.219 170.393C529.412 167.052 531.788 165.51 534.678 162.875H537.312L528.77 231.82L540.009 235.29L539.688 237.732H508.603L508.925 235.29L520.806 231.82ZM558.505 226.744C562.102 226.744 563.451 228.158 563.451 231.82C563.451 236.575 561.46 238.888 557.414 238.888C553.689 238.888 552.34 237.603 552.34 234.134C552.34 229.057 554.202 226.744 558.441 226.744H558.505ZM627.546 164.61L620.289 231.82L631.4 235.29L631.078 237.732H600.636L600.893 235.29L612.454 231.82L619.839 164.61H603.783L596.719 179.517H594.15L596.141 160.562H652.08L649.768 179.517H647.134L643.41 164.61H627.546ZM656.319 237.732L665.31 164.16L652.85 162.554L653.172 160.369L673.723 156.321L668.2 200.85L670.833 197.83L676.613 191.019C681.559 185.107 687.274 181.895 692.669 181.895C696.715 181.895 698.706 183.886 698.706 187.806C698.706 188.384 698.706 188.963 698.578 189.541L693.376 229.122V229.829C693.376 230.857 693.504 230.985 694.211 232.013L694.789 232.591L703.587 223.082L705.321 224.495L704.743 225.331C698.064 235.29 693.889 238.953 689.394 238.953C686.825 238.953 685.476 237.475 685.476 234.455C685.476 233.748 685.605 233.041 685.733 232.27L691.064 191.918V191.34C691.064 189.348 690.165 188.32 688.495 188.32C685.284 188.32 681.109 191.212 674.879 197.444L667.815 204.512L663.768 237.86H656.383L656.319 237.732ZM743.149 225.266L744.755 227.001C737.947 235.097 731.717 238.888 725.424 238.888C716.432 238.888 711.102 231.242 711.102 218.648C711.102 198.729 723.561 181.83 738.268 181.83C744.755 181.83 748.416 185.3 748.416 191.34C748.416 196.994 745.397 202.328 740.645 204.898C735.699 207.661 730.24 208.946 719.836 209.845C719.579 212.608 719.579 213.765 719.579 215.307C719.579 226.873 722.598 232.527 728.827 232.527C732.617 232.527 736.085 230.792 743.021 225.266H743.149ZM720.029 207.275C726.066 206.568 731.139 205.219 734.608 203.356C738.076 201.364 740.388 197.251 740.388 192.689C740.388 188.127 738.333 185.878 734.351 185.878C729.983 185.878 726.002 188.898 723.24 194.231C721.377 197.958 720.671 200.593 720.029 207.275ZM797.932 185.814H797.033C790.803 185.814 786.757 188.963 786.757 193.782C786.757 196.095 788.042 198.151 791.253 201.171L800.052 209.524C804.355 213.701 806.089 217.17 806.089 221.54C806.089 231.692 798.253 238.888 787.014 238.888C779.628 238.888 774.426 236.254 774.426 232.27C774.426 229.7 776.61 227.515 778.922 227.515C781.555 227.515 782.711 228.415 786.886 234.712C787.464 234.84 787.913 234.84 788.491 234.84C795.556 234.84 799.923 231.114 799.923 225.266C799.923 222.118 798.896 220.383 794.721 216.335L785.023 206.954C781.555 203.741 780.078 200.464 780.078 196.802C780.078 188.449 788.299 181.895 798.896 181.895C805.575 181.895 809.75 184.208 809.75 187.935C809.75 190.697 807.566 193.268 804.869 193.268C802.813 193.268 801.529 192.368 800.116 189.669L798.51 187.035L797.932 185.878V185.814ZM857.789 183.372L851.752 229.764C851.624 230.086 851.624 230.343 851.624 230.664C851.624 231.499 851.752 231.563 852.651 232.399L852.908 232.656L861.707 223.082L863.441 224.495C857.918 233.748 852.009 238.953 847.256 238.953C844.944 238.953 843.66 237.539 843.66 235.033C843.66 234.455 843.66 233.748 843.788 233.041L845.522 220.576C839.421 227.837 836.274 231.242 832.934 234.198C829.466 237.346 825.998 238.953 822.98 238.953C817.071 238.953 813.41 232.463 813.41 221.861C813.41 198.729 827.411 181.959 846.743 181.959C850.339 181.959 853.422 182.409 857.853 183.437L857.789 183.372ZM849.825 187.549C847.385 186.392 845.201 185.943 841.99 185.943C834.347 185.943 828.375 191.147 825.484 200.4C823.493 206.633 822.337 215.178 822.337 222.632C822.337 230.086 823.493 232.591 826.512 232.591C827.989 232.591 829.402 231.885 831.457 230.278C834.797 227.515 838.971 223.789 844.045 218.841L846.036 216.978L849.825 187.613V187.549ZM883.736 204.769L879.689 237.732H872.175L877.827 191.083V190.248C877.827 189.541 877.698 189.22 876.992 188.641L876.414 188.192L867.423 198.601L865.689 196.994C868.129 192.368 871.726 187.742 874.937 184.722C876.928 182.858 879.304 181.83 881.616 181.83C884.378 181.83 885.791 183.565 885.791 186.778C885.791 187.228 885.791 187.678 885.662 188.256L884.185 201.107C885.341 199.693 886.176 198.665 886.754 197.958C889.901 194.231 891.699 191.918 892.534 191.019C894.397 188.834 896.452 186.971 898.764 185.236C901.975 182.794 904.544 181.766 908.141 181.766C912.444 181.766 914.178 183.501 914.178 187.678C914.178 188.256 914.178 188.963 914.049 189.541L912.636 201.107L915.269 197.958L920.921 190.89C925.545 185.107 931.069 181.766 936.207 181.766C940.51 181.766 942.693 183.822 942.693 187.806C942.693 188.384 942.565 188.963 942.565 189.541L937.234 229.443V230.021C937.234 231.178 937.491 231.628 938.711 232.463L947.51 222.953L949.372 224.431C943.143 234.134 938.069 238.76 933.638 238.76C930.747 238.76 929.142 237.282 929.142 234.455C929.142 234.005 929.27 233.427 929.27 232.848L934.729 191.918V191.019C934.729 189.155 933.83 188.127 932.16 188.127C930.298 188.127 928.243 189.284 924.903 192.175C920.729 195.774 919.958 196.545 913.792 202.906L912.187 204.641L908.141 237.603H900.626L906.278 191.918V191.083C906.278 189.091 905.379 188.063 903.709 188.063C902.039 188.063 899.085 189.669 896.323 192.111C892.984 195.131 886.754 201.107 883.736 204.576V204.769ZM987.265 225.266L988.87 227.001C982.062 235.097 975.833 238.888 969.539 238.888C960.547 238.888 955.217 231.242 955.217 218.648C955.217 198.729 967.676 181.83 982.384 181.83C988.87 181.83 992.531 185.3 992.531 191.34C992.531 196.994 989.512 202.328 984.76 204.898C979.815 207.661 974.356 208.946 963.951 209.845C963.694 212.608 963.694 213.765 963.694 215.307C963.694 226.873 966.713 232.527 972.943 232.527C976.732 232.527 980.2 230.792 987.136 225.266H987.265ZM964.144 207.275C970.181 206.568 975.255 205.219 978.723 203.356C982.191 201.364 984.503 197.251 984.503 192.689C984.503 188.127 982.448 185.878 978.466 185.878C974.099 185.878 970.117 188.898 967.355 194.231C965.493 197.958 964.786 200.593 964.144 207.275ZM1065.81 183.372L1059.77 229.764C1059.65 230.086 1059.64 230.343 1059.64 230.664C1059.64 231.499 1059.77 231.563 1060.67 232.399L1060.93 232.656L1069.73 223.082L1071.46 224.495C1065.94 233.748 1060.03 238.953 1055.28 238.953C1052.97 238.953 1051.68 237.539 1051.68 235.033C1051.68 234.455 1051.68 233.748 1051.81 233.041L1053.54 220.576C1047.44 227.837 1044.3 231.242 1040.96 234.198C1037.49 237.346 1034.02 238.953 1031 238.953C1025.09 238.953 1021.43 232.463 1021.43 221.861C1021.43 198.729 1035.43 181.959 1054.76 181.959C1058.36 181.959 1061.44 182.409 1065.87 183.437L1065.81 183.372ZM1057.78 187.549C1055.34 186.392 1053.16 185.943 1049.95 185.943C1042.3 185.943 1036.33 191.147 1033.44 200.4C1031.45 206.633 1030.29 215.178 1030.29 222.632C1030.29 230.086 1031.45 232.591 1034.47 232.591C1035.95 232.591 1037.36 231.885 1039.41 230.278C1042.75 227.515 1046.93 223.789 1052 218.841L1053.99 216.978L1057.78 187.613V187.549ZM1098.18 185.814H1097.28C1091.05 185.814 1087 188.963 1087 193.782C1087 196.095 1088.29 198.151 1091.5 201.171L1100.3 209.524C1104.6 213.701 1106.34 217.17 1106.34 221.54C1106.34 231.692 1098.5 238.888 1087.26 238.888C1079.88 238.888 1074.67 236.254 1074.67 232.27C1074.67 229.7 1076.86 227.515 1079.17 227.515C1081.8 227.515 1082.96 228.415 1087.13 234.712C1087.71 234.84 1088.16 234.84 1088.74 234.84C1095.8 234.84 1100.17 231.114 1100.17 225.266C1100.17 222.118 1099.14 220.383 1094.97 216.335L1085.27 206.954C1081.8 203.741 1080.33 200.464 1080.33 196.802C1080.33 188.449 1088.55 181.895 1099.14 181.895C1105.82 181.895 1110 184.208 1110 187.935C1110 190.697 1107.81 193.268 1105.12 193.268C1103.06 193.268 1101.78 192.368 1100.36 189.669L1098.76 187.035L1098.18 185.878V185.814ZM1158.94 185.814H1158.04C1151.81 185.814 1147.76 188.963 1147.76 193.782C1147.76 196.095 1149.04 198.151 1152.26 201.171L1161.05 209.524C1165.36 213.701 1167.09 217.17 1167.09 221.54C1167.09 231.692 1159.26 238.888 1148.02 238.888C1140.63 238.888 1135.43 236.254 1135.43 232.27C1135.43 229.7 1137.61 227.515 1139.92 227.515C1142.56 227.515 1143.71 228.415 1147.89 234.712C1148.47 234.84 1148.92 234.84 1149.49 234.84C1156.56 234.84 1160.93 231.114 1160.93 225.266C1160.93 222.118 1159.9 220.383 1155.72 216.335L1146.03 206.954C1142.56 203.741 1141.08 200.464 1141.08 196.802C1141.08 188.449 1149.3 181.895 1159.9 181.895C1166.58 181.895 1170.75 184.208 1170.75 187.935C1170.75 190.697 1168.57 193.268 1165.87 193.268C1163.82 193.268 1162.53 192.368 1161.12 189.669L1159.51 187.035L1158.94 185.878V185.814ZM1192.97 186.457L1188.61 224.495C1188.48 225.331 1188.48 226.23 1188.48 227.066C1188.48 229.636 1189.38 230.792 1191.11 230.792C1193.55 230.792 1197.92 227.323 1204.53 219.933L1205.11 219.227L1207.3 220.961C1198.3 233.234 1191.69 238.888 1186.74 238.888C1182.96 238.888 1180.51 235.74 1180.51 230.535C1180.51 229.379 1180.64 228.351 1180.77 227.194L1185.4 186.457H1175.7L1176.15 182.409H1185.85L1187.45 168.658H1194.96L1193.49 182.409H1209.99L1209.54 186.457H1192.97ZM1256.75 183.372L1250.71 229.764C1250.58 230.086 1250.58 230.343 1250.58 230.664C1250.58 231.499 1250.71 231.563 1251.61 232.399L1251.87 232.656L1260.67 223.082L1262.4 224.495C1256.88 233.748 1250.97 238.953 1246.22 238.953C1243.9 238.953 1242.62 237.539 1242.62 235.033C1242.62 234.455 1242.62 233.748 1242.75 233.041L1244.48 220.576C1238.38 227.837 1235.23 231.242 1231.89 234.198C1228.43 237.346 1224.96 238.953 1221.94 238.953C1216.03 238.953 1212.37 232.463 1212.37 221.861C1212.37 198.729 1226.37 181.959 1245.7 181.959C1249.3 181.959 1252.38 182.409 1256.81 183.437L1256.75 183.372ZM1248.78 187.549C1246.34 186.392 1244.16 185.943 1240.95 185.943C1233.31 185.943 1227.33 191.147 1224.44 200.4C1222.45 206.633 1221.3 215.178 1221.3 222.632C1221.3 230.086 1222.45 232.591 1225.47 232.591C1226.95 232.591 1228.36 231.885 1230.42 230.278C1233.76 227.515 1237.93 223.789 1243 218.841L1245 216.978L1248.78 187.613V187.549ZM1282.44 186.457L1278.07 224.495C1277.94 225.331 1277.94 226.23 1277.94 227.066C1277.94 229.636 1278.84 230.792 1280.58 230.792C1283.02 230.792 1287.38 227.323 1294 219.933L1294.58 219.227L1296.76 220.961C1287.77 233.234 1281.15 238.888 1276.21 238.888C1272.42 238.888 1269.98 235.74 1269.98 230.535C1269.98 229.379 1270.11 228.351 1270.24 227.194L1274.86 186.457H1265.16L1265.61 182.409H1275.31L1276.91 168.658H1284.43L1282.95 182.409H1299.46L1299.01 186.457H1282.44ZM1333.88 225.266L1335.49 227.001C1328.68 235.097 1322.45 238.888 1316.16 238.888C1307.16 238.888 1301.83 231.242 1301.83 218.648C1301.83 198.729 1314.29 181.83 1329 181.83C1335.49 181.83 1339.15 185.3 1339.15 191.34C1339.15 196.994 1336.13 202.328 1331.38 204.898C1326.43 207.661 1320.97 208.946 1310.57 209.845C1310.31 212.608 1310.31 213.765 1310.31 215.307C1310.31 226.873 1313.33 232.527 1319.56 232.527C1323.35 232.527 1326.82 230.792 1333.75 225.266H1333.88ZM1310.76 207.275C1316.8 206.568 1321.87 205.219 1325.34 203.356C1328.81 201.364 1331.12 197.251 1331.12 192.689C1331.12 188.127 1329.06 185.878 1325.08 185.878C1320.72 185.878 1316.73 188.898 1313.97 194.231C1312.11 197.958 1311.4 200.593 1310.76 207.275ZM1381.6 182.666L1383.78 164.16L1371.32 162.554L1371.64 160.369L1392.2 156.321L1383.21 229.764C1383.21 229.764 1383.08 230.214 1383.08 230.471C1383.08 231.371 1383.33 231.756 1384.36 232.527L1393.03 222.953L1394.89 224.431C1388.41 234.519 1383.59 238.888 1379.03 238.888C1376.4 238.888 1375.24 237.603 1375.24 234.712C1375.24 234.134 1375.37 233.555 1375.37 232.848L1376.98 220.576L1374.41 223.21C1371.52 226.359 1370.1 227.837 1370.04 227.837C1368.18 229.829 1366.44 231.563 1364.71 233.17C1360.34 236.961 1356.75 238.824 1353.41 238.824C1346.79 238.824 1343.26 232.72 1343.26 221.347C1343.26 198.665 1356.68 181.766 1374.73 181.766C1377.62 181.766 1379.35 182.023 1381.66 182.601L1381.6 182.666ZM1380.89 187.87C1376.98 186.392 1375.11 185.878 1372.22 185.878C1359.25 185.878 1352.12 198.729 1352.12 221.861C1352.12 229.636 1353.28 232.527 1356.17 232.527C1358.74 232.527 1361.82 230.535 1369.33 224.11C1372.48 221.54 1373.83 220.319 1377.3 216.913L1380.89 187.87ZM1424.37 237.154L1433.3 164.16L1420.84 162.554L1421.1 160.369L1441.65 156.321L1436.19 201.428C1437.22 200.271 1438.05 199.372 1438.63 198.794C1438.95 198.344 1440.62 196.609 1443.25 193.589C1450.77 185.043 1455.26 181.895 1460.02 181.895C1466.25 181.895 1469.71 188.384 1469.71 199.5C1469.71 222.761 1456.16 238.953 1436.64 238.953C1432.85 238.953 1428.68 238.374 1424.37 237.218V237.154ZM1432.21 233.105C1435.55 234.391 1437.99 234.84 1441.14 234.84C1448.97 234.84 1454.56 230.471 1457.58 221.668C1459.63 215.178 1460.92 206.761 1460.92 198.28C1460.92 191.019 1459.76 188.192 1456.74 188.192C1454.88 188.192 1453.27 189.091 1449.93 192.111L1443.7 197.573L1437.67 203.099L1435.68 204.962L1432.21 233.105ZM1507.86 225.266L1509.47 227.001C1502.66 235.097 1496.43 238.888 1490.14 238.888C1481.15 238.888 1475.82 231.242 1475.82 218.648C1475.82 198.729 1488.28 181.83 1502.98 181.83C1509.47 181.83 1513.13 185.3 1513.13 191.34C1513.13 196.994 1510.11 202.328 1505.36 204.898C1500.41 207.661 1494.95 208.946 1484.55 209.845C1484.29 212.608 1484.29 213.765 1484.29 215.307C1484.29 226.873 1487.31 232.527 1493.54 232.527C1497.33 232.527 1500.8 230.792 1507.74 225.266H1507.86ZM1484.74 207.275C1490.78 206.568 1495.85 205.219 1499.32 203.356C1502.79 201.364 1505.1 197.251 1505.1 192.689C1505.1 188.127 1503.05 185.878 1499.07 185.878C1494.7 185.878 1490.72 188.898 1487.95 194.231C1486.09 197.958 1485.39 200.593 1484.74 207.275ZM1535.93 186.457L1532.01 227.901C1530.6 241.908 1528.99 247.884 1524.82 253.603C1520.45 259.514 1514.09 262.855 1507.22 262.855C1502.92 262.855 1500.86 261.12 1500.86 257.908C1500.86 254.888 1502.92 252.253 1505.49 252.253C1508.06 252.253 1509.85 254.245 1512.17 258.872C1518.85 256.687 1522.31 250.647 1523.47 239.788L1528.54 186.585H1518.59L1519.04 182.537H1528.87L1529.7 174.762C1530.28 167.951 1532.33 163.646 1536.38 160.626C1540.43 157.735 1545.95 156 1551.73 156C1558.22 156 1561.68 157.863 1561.68 161.462C1561.68 164.482 1559.5 166.923 1556.74 166.923C1554.68 166.923 1553.01 165.895 1551.79 163.775L1549.8 160.755L1548.97 159.598C1541 160.048 1537.99 163.775 1537.09 174.313L1536.25 182.537H1550.57L1550.25 186.585H1535.8L1535.93 186.457ZM1547.81 210.745C1549.8 193.974 1560.53 181.83 1573.5 181.83C1584.23 181.83 1590.84 190.376 1590.84 204.512C1590.84 223.467 1579.02 238.888 1564.7 238.888C1553.98 238.888 1547.49 230.214 1547.49 215.5C1547.49 214.022 1547.62 212.351 1547.81 210.745ZM1556.29 223.853C1557 231.371 1560.34 235.419 1565.99 235.419C1572.34 235.419 1576.65 230.921 1579.54 221.283C1581.4 215.178 1582.43 208.11 1582.43 201.942C1582.43 190.826 1579.09 185.3 1572.34 185.3C1562.52 185.3 1556.03 198.601 1556.03 218.712C1556.03 220.447 1556.16 222.054 1556.29 223.789V223.853ZM1613.7 208.817L1610.37 237.732H1602.85L1608.18 191.597V190.762C1608.18 189.926 1608.05 189.477 1607.73 189.155L1606.9 188.256L1597.78 198.408L1596.04 196.93C1603.24 185.814 1607.35 181.895 1611.97 181.895C1614.73 181.895 1616.15 183.372 1616.15 186.392C1616.15 186.971 1616.15 187.678 1616.02 188.384L1614.03 205.283C1621.8 193.011 1624.17 189.412 1627.58 185.943C1630.02 183.308 1632.78 181.895 1635.8 181.895C1638.82 181.895 1640.42 183.308 1640.42 185.814C1640.42 187.292 1639.72 188.963 1638.43 190.89C1637.15 192.625 1636.12 193.332 1634.51 193.332C1632.78 193.332 1631.62 192.754 1628.99 190.569C1628.67 191.019 1628.28 191.404 1628.09 191.597C1627.51 192.175 1626.36 193.589 1624.49 195.645C1622.44 198.087 1621.03 199.822 1620.19 200.721L1616.02 206.054L1613.7 208.817ZM1670.41 225.266L1672.02 227.001C1665.21 235.097 1658.98 238.888 1652.69 238.888C1643.7 238.888 1638.37 231.242 1638.37 218.648C1638.37 198.729 1650.83 181.83 1665.53 181.83C1672.02 181.83 1675.68 185.3 1675.68 191.34C1675.68 196.994 1672.66 202.328 1667.91 204.898C1662.96 207.661 1657.51 208.946 1647.1 209.845C1646.84 212.608 1646.84 213.765 1646.84 215.307C1646.84 226.873 1649.86 232.527 1656.09 232.527C1659.88 232.527 1663.35 230.792 1670.29 225.266H1670.41ZM1647.23 207.275C1653.27 206.568 1658.34 205.219 1661.81 203.356C1665.28 201.364 1667.59 197.251 1667.59 192.689C1667.59 188.127 1665.53 185.878 1661.55 185.878C1657.18 185.878 1653.2 188.898 1650.44 194.231C1648.58 197.958 1647.87 200.593 1647.23 207.275ZM1687.24 226.744C1690.84 226.744 1692.19 228.158 1692.19 231.82C1692.19 236.575 1690.2 238.888 1686.15 238.888C1682.42 238.888 1681.08 237.603 1681.08 234.134C1681.08 229.057 1682.94 226.744 1687.18 226.744H1687.24Z" fill="#E7AEC6"/>
<path d="M96.9914 370.996H123.387L130.452 358.402H133.021L129.424 379.092H88L88.7065 374.337C89.5414 373.63 89.9909 373.309 90.1194 373.18C93.459 370.418 98.3401 365.663 104.891 359.301C110.992 353.262 116.002 348.185 119.598 344.009C125.699 337.069 129.553 328.267 129.553 321.07C129.553 312.074 125.186 308.219 114.524 308.219H111.763L110.928 309.633L109.643 312.074C107.203 316.444 105.34 317.986 102.579 317.986C99.5603 317.986 97.3767 315.673 97.3767 312.524C97.3767 307.577 105.726 304.171 118.057 304.171C131.094 304.171 138.737 310.275 138.737 320.684C138.737 330.258 131.094 341.246 114.203 355.96L100.203 367.976L96.9914 370.867V370.996ZM150.747 368.104C154.343 368.104 155.692 369.518 155.692 373.18C155.692 377.935 153.701 380.248 149.655 380.248C145.93 380.248 144.581 378.963 144.581 375.494C144.581 370.418 146.444 368.104 150.683 368.104H150.747ZM204.566 347.928L193.135 373.18L200.328 376.65L200.007 379.092H177.592L177.914 376.65L186.841 373.18L223.063 301.344H227.43L241.752 373.18L250.422 376.65L250.101 379.092H225.375L225.696 376.65L233.531 373.18L229.036 347.928H204.566ZM206.493 343.88H227.88L224.091 322.355L223.256 317.279L222.806 314.645L222.549 312.588L222.292 311.175L206.429 343.945L206.493 343.88ZM290.177 378.257L287.993 398.368L300.838 402.159L300.71 404.344H268.469L268.726 402.159L280.608 398.368L287.544 332.507V331.351C287.544 330.644 287.287 330.323 286.645 329.487L277.718 339.897L275.984 338.29L276.562 337.262C282.599 327.431 287.094 323.126 291.333 323.126C293.966 323.126 295.379 324.861 295.379 328.202C295.379 328.652 295.251 329.102 295.251 329.616L293.838 342.66C296.599 339.64 297.177 338.933 300.902 334.82C308.738 326.018 312.784 323.126 317.665 323.126C323.895 323.126 327.748 330.323 327.748 341.889C327.748 362.707 314.133 379.606 297.306 379.606C294.544 379.606 292.553 379.285 290.113 378.192L290.177 378.257ZM290.627 373.502C293.517 374.98 296.086 375.558 299.297 375.558C312.334 375.558 318.821 363.735 318.821 340.411C318.821 332.636 317.665 329.552 314.518 329.552C312.527 329.552 310.343 330.708 307.453 333.15C304.82 335.463 299.618 340.346 295.186 344.587L293.452 346.322L290.562 373.502H290.627ZM378.164 324.668L372.127 371.06C371.998 371.381 371.998 371.638 371.998 371.96C371.998 372.795 372.127 372.859 373.026 373.695L373.283 373.952L382.082 364.378L383.816 365.791C378.292 375.044 372.384 380.248 367.631 380.248C365.319 380.248 364.035 378.835 364.035 376.329C364.035 375.751 364.035 375.044 364.163 374.337L365.897 361.872C359.796 369.132 356.649 372.538 353.309 375.494C349.841 378.642 346.373 380.248 343.354 380.248C337.446 380.248 333.785 373.759 333.785 363.157C333.785 340.025 347.786 323.255 367.117 323.255C370.714 323.255 373.797 323.704 378.228 324.733L378.164 324.668ZM370.2 328.845C367.76 327.688 365.576 327.238 362.365 327.238C354.722 327.238 348.749 332.443 345.859 341.696C343.868 347.928 342.712 356.474 342.712 363.928C342.712 371.381 343.868 373.887 346.887 373.887C348.364 373.887 349.777 373.18 351.832 371.574C355.172 368.811 359.346 365.084 364.42 360.137L366.411 358.273L370.2 328.909V328.845ZM397.11 329.552L387.99 339.832L386.128 338.226C391.458 328.716 397.431 323.19 402.312 323.19C404.945 323.19 406.101 324.604 406.101 327.495C406.101 328.331 406.101 328.973 405.973 329.937L400.193 370.867C400.064 371.189 400.064 371.446 400.064 371.703C400.064 372.602 400.321 373.116 401.349 373.887L410.147 364.378L411.881 365.855C405.202 375.943 400.321 380.184 395.825 380.184C393.385 380.184 392.229 378.899 392.229 376.265C392.229 375.365 392.229 374.401 392.486 373.245L398.137 332.957C398.137 332.507 398.266 332.058 398.266 331.672C398.266 330.965 398.138 330.515 397.688 330.194L397.11 329.487V329.552ZM405.909 302.5C408.542 302.5 409.826 303.978 409.826 306.998C409.826 311.882 407.835 314.645 404.367 314.645C401.734 314.645 400.321 313.167 400.321 310.147C400.321 305.52 402.505 302.5 405.844 302.5H405.909ZM431.727 350.113L428.387 379.028H420.873L426.203 332.893V332.058C426.203 331.222 426.075 330.772 425.754 330.451L424.919 329.552L415.799 339.704L414.065 338.226C421.258 327.11 425.368 323.19 429.993 323.19C432.754 323.19 434.167 324.668 434.167 327.688C434.167 328.267 434.167 328.973 434.039 329.68L432.048 346.579C439.819 334.306 442.195 330.708 445.599 327.238C448.04 324.604 450.801 323.19 453.82 323.19C456.838 323.19 458.444 324.604 458.444 327.11C458.444 328.588 457.737 330.258 456.453 332.186C455.168 333.921 454.141 334.628 452.535 334.628C450.801 334.628 449.645 334.049 447.012 331.865C446.691 332.315 446.305 332.7 446.113 332.893C445.535 333.471 444.379 334.885 442.516 336.941C440.461 339.383 439.048 341.117 438.213 342.017L434.039 347.35L431.727 350.113ZM481.629 352.105C483.62 335.335 494.345 323.19 507.318 323.19C518.044 323.19 524.659 331.736 524.659 345.872C524.659 364.827 512.841 380.248 498.52 380.248C487.794 380.248 481.308 371.574 481.308 356.86C481.308 355.382 481.436 353.711 481.629 352.105ZM490.042 365.213C490.748 372.731 494.088 376.779 499.74 376.779C506.098 376.779 510.401 372.281 513.291 362.643C515.154 356.539 516.181 349.471 516.181 343.302C516.181 332.186 512.841 326.66 506.098 326.66C496.272 326.66 489.785 339.961 489.785 360.073C489.785 361.807 489.914 363.414 490.042 365.149V365.213ZM546.238 327.817L542.32 369.261C540.907 383.268 539.302 389.244 535.127 394.963C530.76 400.874 524.402 404.215 517.53 404.215C513.227 404.215 511.172 402.481 511.172 399.268C511.172 396.248 513.227 393.613 515.796 393.613C518.365 393.613 520.163 395.605 522.475 400.232C529.154 398.047 532.623 392.007 533.779 381.148L538.852 327.945H528.897L529.347 323.897H539.173L540.008 316.122C540.586 309.311 542.641 305.006 546.688 301.986C550.734 299.095 556.257 297.36 562.037 297.36C568.524 297.36 571.992 299.223 571.992 302.822C571.992 305.842 569.808 308.283 567.046 308.283C564.991 308.283 563.322 307.255 562.101 305.135L560.11 302.115L559.275 300.958C551.312 301.408 548.293 305.135 547.394 315.673L546.559 323.897H560.881L560.56 327.945H546.11L546.238 327.817ZM603.59 327.11H602.691C596.461 327.11 592.415 330.258 592.415 335.078C592.415 337.391 593.699 339.447 596.911 342.467L605.709 350.82C610.012 354.996 611.746 358.466 611.746 362.835C611.746 372.988 603.911 380.184 592.672 380.184C585.286 380.184 580.084 377.55 580.084 373.566C580.084 370.996 582.268 368.811 584.58 368.811C587.213 368.811 588.369 369.711 592.543 376.008C593.121 376.136 593.571 376.136 594.149 376.136C601.214 376.136 605.581 372.409 605.581 366.562C605.581 363.414 604.553 361.679 600.379 357.631L590.681 348.25C587.213 345.037 585.736 341.76 585.736 338.097C585.736 329.744 593.956 323.19 604.553 323.19C611.233 323.19 615.407 325.504 615.407 329.23C615.407 331.993 613.224 334.563 610.526 334.563C608.471 334.563 607.187 333.664 605.774 330.965L604.168 328.331L603.59 327.174V327.11ZM636.408 346.065L632.362 379.028H624.848L630.5 332.379V331.544C630.5 330.837 630.371 330.515 629.665 329.937L629.087 329.487L620.096 339.897L618.361 338.29C620.802 333.664 624.398 329.038 627.61 326.018C629.601 324.154 631.977 323.126 634.289 323.126C637.051 323.126 638.464 324.861 638.464 328.074C638.464 328.524 638.464 328.973 638.335 329.552L636.858 342.403C638.014 340.989 638.849 339.961 639.427 339.254C642.574 335.527 644.372 333.214 645.207 332.315C647.07 330.13 649.125 328.267 651.437 326.532C654.648 324.09 657.217 323.062 660.814 323.062C665.117 323.062 666.851 324.797 666.851 328.973C666.851 329.552 666.851 330.258 666.722 330.837L665.309 342.403L667.942 339.254L673.594 332.186C678.218 326.403 683.741 323.062 688.879 323.062C693.182 323.062 695.366 325.118 695.366 329.102C695.366 329.68 695.238 330.258 695.238 330.837L689.907 370.739V371.317C689.907 372.474 690.164 372.923 691.384 373.759L700.183 364.249L702.045 365.727C695.816 375.429 690.742 380.056 686.31 380.056C683.42 380.056 681.815 378.578 681.815 375.751C681.815 375.301 681.943 374.723 681.943 374.144L687.402 333.214V332.315C687.402 330.451 686.503 329.423 684.833 329.423C682.971 329.423 680.916 330.58 677.576 333.471C673.401 337.069 672.631 337.84 666.465 344.202L664.86 345.937L660.814 378.899H653.299L658.951 333.214V332.379C658.951 330.387 658.052 329.359 656.382 329.359C654.712 329.359 651.758 330.965 648.996 333.407C645.657 336.427 639.427 342.403 636.408 345.872V346.065ZM752.525 324.668L746.488 371.06C746.36 371.381 746.36 371.638 746.36 371.96C746.36 372.795 746.488 372.859 747.387 373.695L747.644 373.952L756.443 364.378L758.177 365.791C752.654 375.044 746.745 380.248 741.993 380.248C739.681 380.248 738.396 378.835 738.396 376.329C738.396 375.751 738.396 375.044 738.524 374.337L740.259 361.872C734.157 369.132 731.01 372.538 727.671 375.494C724.203 378.642 720.734 380.248 717.716 380.248C711.807 380.248 708.147 373.759 708.147 363.157C708.147 340.025 722.147 323.255 741.479 323.255C745.075 323.255 748.158 323.704 752.59 324.733L752.525 324.668ZM744.497 328.845C742.057 327.688 739.873 327.238 736.662 327.238C729.019 327.238 723.047 332.443 720.156 341.696C718.165 347.928 717.009 356.474 717.009 363.928C717.009 371.381 718.165 373.887 721.184 373.887C722.661 373.887 724.074 373.18 726.129 371.574C729.469 368.811 733.643 365.084 738.717 360.137L740.708 358.273L744.497 328.909V328.845ZM773.912 373.887L782.711 364.378L784.573 365.855C777.38 376.136 773.013 380.184 769.095 380.184C766.462 380.184 764.921 378.706 764.921 375.879C764.921 375.172 765.049 374.466 765.177 373.695L773.591 305.456L761.131 303.85L761.388 301.665L782.068 297.617L773.077 371.06V371.767C773.077 372.602 773.205 372.923 773.655 373.502L773.976 373.823L773.912 373.887ZM801.271 373.887L810.07 364.378L811.932 365.855C804.739 376.136 800.372 380.184 796.454 380.184C793.821 380.184 792.28 378.706 792.28 375.879C792.28 375.172 792.408 374.466 792.537 373.695L800.95 305.456L788.491 303.85L788.748 301.665L809.428 297.617L800.436 371.06V371.767C800.436 372.602 800.565 372.923 801.014 373.502L801.336 373.823L801.271 373.887ZM857.724 346.065L853.678 379.028H846.164L851.816 332.379V331.544C851.816 330.837 851.687 330.515 850.981 329.937L850.403 329.487L841.411 339.897L839.677 338.29C842.118 333.664 845.714 329.038 848.925 326.018C850.916 324.154 853.293 323.126 855.605 323.126C858.366 323.126 859.779 324.861 859.779 328.074C859.779 328.524 859.779 328.973 859.651 329.552L858.174 342.403C859.33 340.989 860.165 339.961 860.743 339.254C863.89 335.527 865.688 333.214 866.523 332.315C868.385 330.13 870.441 328.267 872.753 326.532C875.964 324.09 878.533 323.062 882.129 323.062C886.432 323.062 888.166 324.797 888.166 328.973C888.166 329.552 888.166 330.258 888.038 330.837L886.625 342.403L889.258 339.254L894.91 332.186C899.534 326.403 905.057 323.062 910.195 323.062C914.498 323.062 916.682 325.118 916.682 329.102C916.682 329.68 916.553 330.258 916.553 330.837L911.223 370.739V371.317C911.223 372.474 911.48 372.923 912.7 373.759L921.499 364.249L923.361 365.727C917.131 375.429 912.058 380.056 907.626 380.056C904.736 380.056 903.13 378.578 903.13 375.751C903.13 375.301 903.259 374.723 903.259 374.144L908.718 333.214V332.315C908.718 330.451 907.819 329.423 906.149 329.423C904.287 329.423 902.231 330.58 898.892 333.471C894.717 337.069 893.946 337.84 887.781 344.202L886.175 345.937L882.129 378.899H874.615L880.267 333.214V332.379C880.267 330.387 879.368 329.359 877.698 329.359C876.028 329.359 873.074 330.965 870.312 333.407C866.972 336.427 860.743 342.403 857.724 345.872V346.065ZM973.777 324.668L967.74 371.06C967.611 371.381 967.611 371.638 967.611 371.96C967.611 372.795 967.74 372.859 968.639 373.695L968.896 373.952L977.694 364.378L979.429 365.791C973.905 375.044 967.997 380.248 963.244 380.248C960.932 380.248 959.648 378.835 959.648 376.329C959.648 375.751 959.648 375.044 959.776 374.337L961.51 361.872C955.409 369.132 952.262 372.538 948.922 375.494C945.454 378.642 941.986 380.248 938.967 380.248C933.059 380.248 929.398 373.759 929.398 363.157C929.398 340.025 943.399 323.255 962.73 323.255C966.327 323.255 969.41 323.704 973.841 324.733L973.777 324.668ZM965.813 328.845C963.373 327.688 961.189 327.238 957.978 327.238C950.335 327.238 944.362 332.443 941.472 341.696C939.481 347.928 938.325 356.474 938.325 363.928C938.325 371.381 939.481 373.887 942.5 373.887C943.977 373.887 945.39 373.18 947.445 371.574C950.785 368.811 954.959 365.084 960.033 360.137L962.024 358.273L965.813 328.909V328.845ZM998.953 350.113L995.613 379.028H988.099L993.429 332.893V332.058C993.429 331.222 993.301 330.772 992.98 330.451L992.145 329.552L983.025 339.704L981.291 338.226C988.484 327.11 992.594 323.19 997.219 323.19C999.98 323.19 1001.39 324.668 1001.39 327.688C1001.39 328.267 1001.39 328.973 1001.26 329.68L999.274 346.579C1007.04 334.306 1009.42 330.708 1012.83 327.238C1015.27 324.604 1018.03 323.19 1021.05 323.19C1024.06 323.19 1025.67 324.604 1025.67 327.11C1025.67 328.588 1024.96 330.258 1023.68 332.186C1022.39 333.921 1021.37 334.628 1019.76 334.628C1018.03 334.628 1016.87 334.049 1014.24 331.865C1013.92 332.315 1013.53 332.7 1013.34 332.893C1012.76 333.471 1011.6 334.885 1009.74 336.941C1007.69 339.383 1006.27 341.117 1005.44 342.017L1001.26 347.35L998.953 350.113ZM1025.86 379.092L1034.85 305.52L1022.39 303.914L1022.72 301.729L1043.27 297.681L1033.18 379.156H1025.8L1025.86 379.092ZM1038.71 348.764L1045.19 343.88L1048.98 340.86C1051.3 338.997 1052.71 337.969 1053.16 337.648C1054.44 336.62 1055.92 335.463 1057.78 333.857L1059.52 332.443C1058.62 330.708 1058.23 329.68 1058.23 328.267C1058.23 324.925 1060.54 323.19 1065.17 323.19C1068.31 323.19 1070.11 324.797 1070.11 327.367C1070.11 329.937 1066.64 333.471 1059.58 338.033L1045.39 347.029C1046.8 350.242 1047.25 351.334 1049.56 355.446L1054.51 364.442C1058.81 372.409 1059.13 372.859 1059.97 373.373C1060.22 373.63 1060.67 373.695 1061.38 373.823L1070.05 364.313L1072.1 365.727C1066 375.301 1060.86 380.184 1057.08 380.184C1055.34 380.184 1053.93 379.285 1052.77 377.293C1051.17 374.723 1049.43 371.381 1047.25 367.141C1044.81 362.193 1043.33 359.301 1042.95 358.338L1039.35 350.242L1038.64 348.764H1038.71ZM1098.05 327.11H1097.15C1090.92 327.11 1086.88 330.258 1086.88 335.078C1086.88 337.391 1088.16 339.447 1091.37 342.467L1100.17 350.82C1104.47 354.996 1106.21 358.466 1106.21 362.835C1106.21 372.988 1098.37 380.184 1087.13 380.184C1079.75 380.184 1074.54 377.55 1074.54 373.566C1074.54 370.996 1076.73 368.811 1079.04 368.811C1081.67 368.811 1082.83 369.711 1087 376.008C1087.58 376.136 1088.03 376.136 1088.61 376.136C1095.67 376.136 1100.04 372.409 1100.04 366.562C1100.04 363.414 1099.01 361.679 1094.84 357.631L1085.14 348.25C1081.67 345.037 1080.2 341.76 1080.2 338.097C1080.2 329.744 1088.42 323.19 1099.01 323.19C1105.69 323.19 1109.87 325.504 1109.87 329.23C1109.87 331.993 1107.68 334.563 1104.99 334.563C1102.93 334.563 1101.65 333.664 1100.23 330.965L1098.63 328.331L1098.05 327.174V327.11ZM1173.38 357.31L1177.75 323.769H1185.27L1179.04 371.317C1179.04 371.317 1178.91 371.895 1178.91 372.152C1178.91 373.052 1179.17 373.309 1180.06 373.887L1188.99 364.378L1190.85 365.663C1184.05 375.815 1179.17 380.248 1174.93 380.248C1172.36 380.248 1171.01 378.835 1171.01 376.457C1171.01 375.879 1171.14 375.044 1171.27 374.273L1173 360.972C1165.61 370.096 1162.34 373.695 1158.29 376.843C1155.15 379.156 1152.19 380.313 1148.79 380.313C1144.48 380.313 1142.43 378.449 1142.43 374.53C1142.43 373.952 1142.56 373.245 1142.69 372.474L1148.21 332.764V331.929C1148.21 331.222 1147.95 330.644 1147.18 329.616L1138.19 340.025L1136.33 338.547C1141.98 328.716 1147.76 323.255 1152.51 323.255C1155.08 323.255 1156.3 324.668 1156.3 327.174C1156.3 328.01 1156.3 328.781 1156.17 329.744L1150.52 370.096C1150.39 370.418 1150.39 370.803 1150.39 371.124C1150.39 373.116 1151.23 373.887 1153.03 373.887C1155.34 373.887 1157.52 372.859 1160.41 370.289C1164.71 366.562 1169.08 362.193 1173.38 357.31ZM1217.7 327.11H1216.8C1210.57 327.11 1206.52 330.258 1206.52 335.078C1206.52 337.391 1207.81 339.447 1211.02 342.467L1219.82 350.82C1224.12 354.996 1225.86 358.466 1225.86 362.835C1225.86 372.988 1218.02 380.184 1206.78 380.184C1199.4 380.184 1194.19 377.55 1194.19 373.566C1194.19 370.996 1196.38 368.811 1198.69 368.811C1201.32 368.811 1202.48 369.711 1206.65 376.008C1207.23 376.136 1207.68 376.136 1208.26 376.136C1215.32 376.136 1219.69 372.409 1219.69 366.562C1219.69 363.414 1218.66 361.679 1214.49 357.631L1204.79 348.25C1201.32 345.037 1199.85 341.76 1199.85 338.097C1199.85 329.744 1208.07 323.19 1218.66 323.19C1225.34 323.19 1229.52 325.504 1229.52 329.23C1229.52 331.993 1227.33 334.563 1224.64 334.563C1222.58 334.563 1221.3 333.664 1219.88 330.965L1218.28 328.331L1217.7 327.174V327.11ZM1265.1 366.562L1266.7 368.297C1259.89 376.393 1253.66 380.184 1247.37 380.184C1238.38 380.184 1233.05 372.538 1233.05 359.944C1233.05 340.025 1245.51 323.126 1260.22 323.126C1266.7 323.126 1270.36 326.596 1270.36 332.636C1270.36 338.29 1267.34 343.623 1262.59 346.194C1257.65 348.957 1252.19 350.242 1241.78 351.141C1241.53 353.904 1241.53 355.061 1241.53 356.603C1241.53 368.169 1244.55 373.823 1250.77 373.823C1254.56 373.823 1258.03 372.088 1264.97 366.562H1265.1ZM1241.98 348.635C1248.01 347.928 1253.09 346.579 1256.55 344.716C1260.02 342.724 1262.34 338.612 1262.34 334.049C1262.34 329.487 1260.28 327.238 1256.3 327.238C1251.93 327.238 1247.95 330.258 1245.19 335.592C1243.32 339.318 1242.62 341.953 1241.98 348.635ZM1312.82 324.026L1315 305.52L1302.54 303.914L1302.86 301.729L1323.41 297.681L1314.42 371.124C1314.42 371.124 1314.29 371.574 1314.29 371.831C1314.29 372.731 1314.55 373.116 1315.58 373.887L1324.25 364.313L1326.11 365.791C1319.62 375.879 1314.81 380.248 1310.25 380.248C1307.61 380.248 1306.46 378.963 1306.46 376.072C1306.46 375.494 1306.59 374.915 1306.59 374.209L1308.19 361.936L1305.62 364.57C1302.73 367.719 1301.32 369.197 1301.25 369.197C1299.39 371.189 1297.66 372.923 1295.92 374.53C1291.56 378.321 1287.96 380.184 1284.62 380.184C1278.01 380.184 1274.47 374.08 1274.47 362.707C1274.47 340.025 1287.9 323.126 1305.94 323.126C1308.83 323.126 1310.57 323.383 1312.88 323.961L1312.82 324.026ZM1312.11 329.23C1308.19 327.752 1306.33 327.238 1303.44 327.238C1290.47 327.238 1283.34 340.089 1283.34 363.221C1283.34 370.996 1284.49 373.887 1287.38 373.887C1289.95 373.887 1293.03 371.895 1300.55 365.47C1303.7 362.9 1305.04 361.679 1308.51 358.273L1312.11 329.23ZM1371.32 327.817L1366.96 365.855C1366.83 366.691 1366.83 367.59 1366.83 368.426C1366.83 370.996 1367.73 372.152 1369.46 372.152C1371.9 372.152 1376.27 368.683 1382.88 361.293L1383.46 360.587L1385.65 362.321C1376.65 374.594 1370.04 380.248 1365.09 380.248C1361.3 380.248 1358.86 377.1 1358.86 371.895C1358.86 370.739 1358.99 369.711 1359.12 368.554L1363.74 327.817H1354.05L1354.5 323.769H1364.19L1365.8 310.018H1373.31L1371.84 323.769H1388.34L1387.89 327.817H1371.32ZM1391.1 352.105C1393.1 335.335 1403.82 323.19 1416.79 323.19C1427.52 323.19 1434.13 331.736 1434.13 345.872C1434.13 364.827 1422.32 380.248 1407.99 380.248C1397.27 380.248 1390.78 371.574 1390.78 356.86C1390.78 355.382 1390.91 353.711 1391.1 352.105ZM1399.52 365.213C1400.22 372.731 1403.56 376.779 1409.22 376.779C1415.57 376.779 1419.88 372.281 1422.77 362.643C1424.63 356.539 1425.66 349.471 1425.66 343.302C1425.66 332.186 1422.32 326.66 1415.57 326.66C1405.75 326.66 1399.26 339.961 1399.26 360.073C1399.26 361.807 1399.39 363.414 1399.52 365.149V365.213ZM1473.38 329.552L1464.26 339.832L1462.39 338.226C1467.72 328.716 1473.7 323.19 1478.58 323.19C1481.21 323.19 1482.37 324.604 1482.37 327.495C1482.37 328.331 1482.37 328.973 1482.24 329.937L1476.46 370.867C1476.33 371.189 1476.33 371.446 1476.33 371.703C1476.33 372.602 1476.59 373.116 1477.61 373.887L1486.41 364.378L1488.15 365.855C1481.47 375.943 1476.59 380.184 1472.09 380.184C1469.65 380.184 1468.49 378.899 1468.49 376.265C1468.49 375.365 1468.49 374.401 1468.75 373.245L1474.4 332.957C1474.4 332.507 1474.53 332.058 1474.53 331.672C1474.53 330.965 1474.4 330.515 1473.95 330.194L1473.38 329.487V329.552ZM1482.17 302.5C1484.81 302.5 1486.09 303.978 1486.09 306.998C1486.09 311.882 1484.1 314.645 1480.63 314.645C1478 314.645 1476.59 313.167 1476.59 310.147C1476.59 305.52 1478.77 302.5 1482.11 302.5H1482.17ZM1508.57 345.872L1504.52 379.092H1497.01L1502.66 332.957V332.058C1502.66 331.158 1502.53 330.644 1501.51 329.616L1492.39 340.025L1490.65 338.547C1496.88 328.138 1501.89 323.255 1506.58 323.255C1509.34 323.255 1510.62 324.733 1510.62 327.752C1510.62 328.331 1510.63 328.909 1510.5 329.487L1509.02 342.21L1511.46 339.447L1517.11 332.507C1522.06 326.596 1527.39 323.255 1532.27 323.255C1536.57 323.255 1538.76 325.439 1538.76 329.616C1538.76 330.066 1538.63 330.515 1538.63 331.029L1533.42 371.06C1533.42 371.06 1533.3 371.381 1533.3 371.638C1533.3 372.666 1533.42 372.923 1534.32 373.63L1534.9 373.952L1543.57 364.442L1545.43 365.855L1544.73 366.884C1538.37 376.393 1534 380.313 1529.44 380.313C1526.81 380.313 1525.14 378.899 1525.14 376.522C1525.14 375.815 1525.27 375.044 1525.4 374.08L1530.73 333.343C1530.73 333.343 1530.86 332.764 1530.86 332.443C1530.86 330.58 1530.02 329.68 1528.29 329.68C1526.3 329.68 1523.53 331.158 1520.9 333.471C1516.73 337.198 1511.4 342.595 1508.51 345.937L1508.57 345.872ZM1589.94 324.026L1592.13 305.52L1579.67 303.914L1579.99 301.729L1600.54 297.681L1591.55 371.124C1591.55 371.124 1591.42 371.574 1591.42 371.831C1591.42 372.731 1591.68 373.116 1592.7 373.887L1601.37 364.313L1603.24 365.791C1596.75 375.879 1591.93 380.248 1587.37 380.248C1584.74 380.248 1583.58 378.963 1583.58 376.072C1583.58 375.494 1583.71 374.915 1583.71 374.209L1585.32 361.936L1582.75 364.57C1579.86 367.719 1578.45 369.197 1578.38 369.197C1576.52 371.189 1574.78 372.923 1573.05 374.53C1568.68 378.321 1565.09 380.184 1561.75 380.184C1555.13 380.184 1551.6 374.08 1551.6 362.707C1551.6 340.025 1565.02 323.126 1583.07 323.126C1585.96 323.126 1587.69 323.383 1590.01 323.961L1589.94 324.026ZM1589.24 329.23C1585.32 327.752 1583.45 327.238 1580.56 327.238C1567.59 327.238 1560.46 340.089 1560.46 363.221C1560.46 370.996 1561.62 373.887 1564.51 373.887C1567.08 373.887 1570.16 371.895 1577.67 365.47C1580.82 362.9 1582.17 361.679 1585.64 358.273L1589.24 329.23ZM1616.59 329.552L1607.47 339.832L1605.61 338.226C1610.94 328.716 1616.92 323.19 1621.8 323.19C1624.43 323.19 1625.59 324.604 1625.59 327.495C1625.59 328.331 1625.59 328.973 1625.46 329.937L1619.68 370.867C1619.55 371.189 1619.55 371.446 1619.55 371.703C1619.55 372.602 1619.81 373.116 1620.83 373.887L1629.63 364.378L1631.37 365.855C1624.69 375.943 1619.81 380.184 1615.31 380.184C1612.87 380.184 1611.71 378.899 1611.71 376.265C1611.71 375.365 1611.71 374.401 1611.97 373.245L1617.62 332.957C1617.62 332.507 1617.75 332.058 1617.75 331.672C1617.75 330.965 1617.62 330.515 1617.17 330.194L1616.59 329.487V329.552ZM1625.39 302.5C1628.03 302.5 1629.31 303.978 1629.31 306.998C1629.31 311.882 1627.32 314.645 1623.85 314.645C1621.22 314.645 1619.81 313.167 1619.81 310.147C1619.81 305.52 1621.99 302.5 1625.33 302.5H1625.39ZM1668.87 366.562L1670.48 368.426C1663.8 376.265 1657.44 380.248 1651.4 380.248C1642.86 380.248 1637.66 372.988 1637.66 361.036C1637.66 339.897 1650.12 323.19 1665.98 323.19C1672.21 323.19 1675.81 325.182 1675.81 328.524C1675.81 331.415 1673.5 334.049 1670.86 334.049C1668.55 334.049 1666.5 332.186 1663.35 326.853C1652.95 328.01 1646.27 340.025 1646.27 357.631C1646.27 368.94 1648.9 373.823 1655.06 373.823C1658.79 373.823 1663.03 371.51 1668.94 366.562H1668.87ZM1721.6 324.668L1715.56 371.06C1715.44 371.381 1715.44 371.638 1715.44 371.96C1715.44 372.795 1715.56 372.859 1716.46 373.695L1716.72 373.952L1725.52 364.378L1727.25 365.791C1721.73 375.044 1715.82 380.248 1711.07 380.248C1708.76 380.248 1707.47 378.835 1707.47 376.329C1707.47 375.751 1707.47 375.044 1707.6 374.337L1709.33 361.872C1703.23 369.132 1700.09 372.538 1696.75 375.494C1693.28 378.642 1689.81 380.248 1686.79 380.248C1680.88 380.248 1677.22 373.759 1677.22 363.157C1677.22 340.025 1691.22 323.255 1710.55 323.255C1714.15 323.255 1717.23 323.704 1721.66 324.733L1721.6 324.668ZM1713.64 328.845C1711.2 327.688 1709.01 327.238 1705.8 327.238C1698.16 327.238 1692.19 332.443 1689.3 341.696C1687.31 347.928 1686.15 356.474 1686.15 363.928C1686.15 371.381 1687.31 373.887 1690.32 373.887C1691.8 373.887 1693.21 373.18 1695.27 371.574C1698.61 368.811 1702.78 365.084 1707.86 360.137L1709.85 358.273L1713.64 328.909V328.845ZM1747.29 327.817L1742.92 365.855C1742.79 366.691 1742.79 367.59 1742.79 368.426C1742.79 370.996 1743.69 372.152 1745.43 372.152C1747.87 372.152 1752.24 368.683 1758.85 361.293L1759.43 360.587L1761.61 362.321C1752.62 374.594 1746.01 380.248 1741.06 380.248C1737.27 380.248 1734.83 377.1 1734.83 371.895C1734.83 370.739 1734.96 369.711 1735.09 368.554L1739.71 327.817H1730.01L1730.46 323.769H1740.16L1741.77 310.018H1749.28L1747.8 323.769H1764.31L1763.86 327.817H1747.29ZM1798.73 366.562L1800.34 368.297C1793.53 376.393 1787.3 380.184 1781.01 380.184C1772.02 380.184 1766.69 372.538 1766.69 359.944C1766.69 340.025 1779.15 323.126 1793.85 323.126C1800.34 323.126 1804 326.596 1804 332.636C1804 338.29 1800.98 343.623 1796.23 346.194C1791.28 348.957 1785.82 350.242 1775.42 351.141C1775.16 353.904 1775.16 355.061 1775.16 356.603C1775.16 368.169 1778.18 373.823 1784.41 373.823C1788.2 373.823 1791.67 372.088 1798.61 366.562H1798.73ZM1775.55 348.635C1781.59 347.928 1786.66 346.579 1790.13 344.716C1793.6 342.724 1795.91 338.612 1795.91 334.049C1795.91 329.487 1793.85 327.238 1789.87 327.238C1785.5 327.238 1781.52 330.258 1778.76 335.592C1776.9 339.318 1776.19 341.953 1775.55 348.635Z" fill="#E7AEC6"/>
<path d="M115.744 469.177L111.377 507.216C111.248 508.051 111.248 508.951 111.248 509.786C111.248 512.356 112.147 513.513 113.882 513.513C116.322 513.513 120.689 510.043 127.304 502.654L127.882 501.947L130.066 503.682C121.075 515.954 114.46 521.609 109.514 521.609C105.725 521.609 103.285 518.46 103.285 513.256C103.285 512.099 103.413 511.071 103.541 509.915L108.166 469.177H98.4677L98.9173 465.129H108.615L110.221 451.379H117.735L116.258 465.129H132.763L132.314 469.177H115.744ZM134.69 520.388L143.681 446.817L131.222 445.21L131.543 443.025L152.095 438.977L146.571 483.506L149.205 480.486L154.985 473.675C159.93 467.764 165.646 464.551 171.041 464.551C175.087 464.551 177.078 466.543 177.078 470.462C177.078 471.04 177.078 471.619 176.949 472.197L171.747 511.778V512.485C171.747 513.513 171.876 513.641 172.582 514.669L173.16 515.248L181.959 505.738L183.693 507.152L183.115 507.987C176.436 517.946 172.261 521.609 167.765 521.609C165.196 521.609 163.848 520.131 163.848 517.111C163.848 516.404 163.976 515.697 164.105 514.926L169.435 474.574V473.996C169.435 472.004 168.536 470.976 166.866 470.976C163.655 470.976 159.481 473.868 153.251 480.1L146.186 487.168L142.14 520.517H134.754L134.69 520.388ZM234.109 466.029L228.072 512.42C227.943 512.742 227.943 512.999 227.943 513.32C227.943 514.155 228.072 514.22 228.971 515.055L229.228 515.312L238.026 505.738L239.76 507.152C234.237 516.404 228.329 521.609 223.576 521.609C221.264 521.609 219.979 520.195 219.979 517.689C219.979 517.111 219.979 516.404 220.108 515.697L221.842 503.232C215.741 510.493 212.594 513.898 209.254 516.854C205.786 520.002 202.318 521.609 199.299 521.609C193.391 521.609 189.73 515.119 189.73 504.517C189.73 481.385 203.731 464.615 223.062 464.615C226.659 464.615 229.742 465.065 234.173 466.093L234.109 466.029ZM226.145 470.205C223.704 469.049 221.521 468.599 218.31 468.599C210.667 468.599 204.694 473.803 201.804 483.056C199.813 489.289 198.657 497.835 198.657 505.288C198.657 512.742 199.813 515.248 202.832 515.248C204.309 515.248 205.722 514.541 207.777 512.934C211.117 510.172 215.291 506.445 220.365 501.497L222.356 499.634L226.145 470.269V470.205ZM259.798 469.177L255.431 507.216C255.303 508.051 255.303 508.951 255.303 509.786C255.303 512.356 256.202 513.513 257.936 513.513C260.376 513.513 264.744 510.043 271.359 502.654L271.937 501.947L274.12 503.682C265.129 515.954 258.514 521.609 253.569 521.609C249.779 521.609 247.339 518.46 247.339 513.256C247.339 512.099 247.467 511.071 247.596 509.915L252.22 469.177H242.522L242.972 465.129H252.669L254.275 451.379H261.789L260.312 465.129H276.818L276.368 469.177H259.798ZM317.6 469.177L313.233 507.216C313.104 508.051 313.104 508.951 313.104 509.786C313.104 512.356 314.003 513.513 315.737 513.513C318.178 513.513 322.545 510.043 329.16 502.654L329.738 501.947L331.922 503.682C322.93 515.954 316.315 521.609 311.37 521.609C307.581 521.609 305.14 518.46 305.14 513.256C305.14 512.099 305.269 511.071 305.397 509.915L310.021 469.177H300.324L300.773 465.129H310.471L312.077 451.379H319.591L318.114 465.129H334.619L334.17 469.177H317.6ZM336.546 520.388L345.537 446.817L333.078 445.21L333.399 443.025L353.951 438.977L348.427 483.506L351.061 480.486L356.841 473.675C361.786 467.764 367.502 464.551 372.897 464.551C376.943 464.551 378.934 466.543 378.934 470.462C378.934 471.04 378.934 471.619 378.805 472.197L373.603 511.778V512.485C373.603 513.513 373.732 513.641 374.438 514.669L375.016 515.248L383.815 505.738L385.549 507.152L384.971 507.987C378.292 517.946 374.117 521.609 369.621 521.609C367.052 521.609 365.704 520.131 365.704 517.111C365.704 516.404 365.832 515.697 365.961 514.926L371.291 474.574V473.996C371.291 472.004 370.392 470.976 368.722 470.976C365.511 470.976 361.336 473.868 355.107 480.1L348.042 487.168L343.996 520.517H336.61L336.546 520.388ZM423.377 507.923L424.982 509.657C418.175 517.754 411.945 521.545 405.651 521.545C396.66 521.545 391.329 513.898 391.329 501.304C391.329 481.385 403.788 464.487 418.496 464.487C424.982 464.487 428.643 467.956 428.643 473.996C428.643 479.651 425.625 484.984 420.872 487.554C415.927 490.317 410.468 491.602 400.063 492.502C399.807 495.264 399.807 496.421 399.807 497.963C399.807 509.529 402.825 515.183 409.055 515.183C412.844 515.183 416.312 513.448 423.248 507.923H423.377ZM400.256 489.996C406.293 489.289 411.367 487.939 414.835 486.076C418.303 484.084 420.615 479.972 420.615 475.41C420.615 470.848 418.56 468.599 414.578 468.599C410.211 468.599 406.229 471.619 403.467 476.952C401.605 480.679 400.898 483.313 400.256 489.996ZM494.922 477.337L477.903 520.517L472.123 521.545L464.609 473.868C464.352 472.004 464.159 471.812 463.003 470.848L456.324 481.257L454.14 480.1C459.599 468.535 462.81 464.487 466.728 464.487C469.746 464.487 470.774 465.9 471.802 471.747C473.279 480.293 473.664 483.185 475.398 495.843C476.426 502.911 476.683 505.095 477.71 511.457L495.757 465.065H500.51L507.767 511.714L509.501 508.244C513.804 500.148 516.694 494.365 519.648 487.425C521.639 483.056 522.41 481.193 524.273 476.566C521.832 473.675 521.061 471.683 521.061 469.498C521.061 466.607 523.373 464.551 526.713 464.551C529.732 464.551 531.337 466.157 531.337 469.177C531.337 470.334 531.016 472.197 530.181 473.932C528.768 477.851 525.814 484.47 522.41 491.024C517.658 500.855 510.85 513.384 506.483 520.517L501.602 521.545L494.922 477.337ZM532.493 493.465C534.484 476.695 545.21 464.551 558.183 464.551C568.908 464.551 575.523 473.097 575.523 487.233C575.523 506.188 563.706 521.609 549.384 521.609C538.659 521.609 532.172 512.934 532.172 498.22C532.172 496.742 532.301 495.072 532.493 493.465ZM540.907 506.509C541.613 514.027 544.953 518.075 550.604 518.075C556.963 518.075 561.266 513.577 564.156 503.939C566.018 497.835 567.046 490.767 567.046 484.598C567.046 473.482 563.706 467.956 556.963 467.956C547.136 467.956 540.65 481.257 540.65 501.369C540.65 503.104 540.778 504.71 540.907 506.445V506.509ZM598.387 491.473L595.047 520.388H587.533L592.864 474.253V473.418C592.864 472.583 592.735 472.133 592.414 471.812L591.579 470.912L582.46 481.064L580.725 479.586C587.919 468.47 592.029 464.551 596.653 464.551C599.415 464.551 600.828 466.029 600.828 469.049C600.828 469.627 600.828 470.334 600.699 471.04L598.708 487.939C606.479 475.667 608.856 472.069 612.259 468.599C614.7 465.964 617.462 464.551 620.48 464.551C623.499 464.551 625.104 465.964 625.104 468.47C625.104 469.948 624.398 471.619 623.113 473.546C621.829 475.281 620.801 475.988 619.196 475.988C617.462 475.988 616.306 475.41 613.672 473.225C613.351 473.675 612.966 474.06 612.773 474.253C612.195 474.832 611.039 476.245 609.177 478.301C607.122 480.743 605.709 482.478 604.874 483.377L600.699 488.711L598.387 491.473ZM660.941 465.322L663.125 446.817L650.665 445.21L650.986 443.025L671.538 438.977L662.547 512.42C662.547 512.42 662.418 512.87 662.418 513.127C662.418 514.027 662.675 514.412 663.703 515.183L672.373 505.609L674.236 507.087C667.749 517.175 662.932 521.545 658.372 521.545C655.739 521.545 654.583 520.259 654.583 517.368C654.583 516.79 654.711 516.211 654.711 515.505L656.317 503.232L653.748 505.866C650.858 509.015 649.445 510.493 649.381 510.493C647.518 512.485 645.784 514.22 644.05 515.826C639.683 519.617 636.087 521.48 632.747 521.48C626.132 521.48 622.6 515.376 622.6 504.003C622.6 481.321 636.022 464.422 654.069 464.422C656.959 464.422 658.693 464.679 661.005 465.258L660.941 465.322ZM660.235 470.526C656.317 469.049 654.455 468.535 651.565 468.535C638.591 468.535 631.462 481.385 631.462 504.517C631.462 512.292 632.618 515.183 635.509 515.183C638.077 515.183 641.16 513.191 648.674 506.766C651.821 504.196 653.17 502.975 656.638 499.57L660.235 470.526ZM703.843 493.465C705.834 476.695 716.559 464.551 729.532 464.551C740.258 464.551 746.873 473.097 746.873 487.233C746.873 506.188 735.056 521.609 720.734 521.609C710.008 521.609 703.522 512.934 703.522 498.22C703.522 496.742 703.65 495.072 703.843 493.465ZM712.256 506.509C712.963 514.027 716.302 518.075 721.954 518.075C728.312 518.075 732.615 513.577 735.505 503.939C737.368 497.835 738.395 490.767 738.395 484.598C738.395 473.482 735.056 467.956 728.312 467.956C718.486 467.956 711.999 481.257 711.999 501.369C711.999 503.104 712.128 504.71 712.256 506.445V506.509ZM769.737 491.473L766.397 520.388H758.883L764.213 474.253V473.418C764.213 472.583 764.085 472.133 763.764 471.812L762.929 470.912L753.809 481.064L752.075 479.586C759.268 468.47 763.378 464.551 768.003 464.551C770.764 464.551 772.177 466.029 772.177 469.049C772.177 469.627 772.177 470.334 772.049 471.04L770.058 487.939C777.829 475.667 780.205 472.069 783.609 468.599C786.049 465.964 788.811 464.551 791.83 464.551C794.848 464.551 796.454 465.964 796.454 468.47C796.454 469.948 795.747 471.619 794.463 473.546C793.178 475.281 792.151 475.988 790.545 475.988C788.811 475.988 787.655 475.41 785.022 473.225C784.701 473.675 784.315 474.06 784.123 474.253C783.545 474.832 782.389 476.245 780.526 478.301C778.471 480.743 777.058 482.478 776.223 483.377L772.049 488.711L769.737 491.473ZM831.905 519.617L829.722 539.729L842.567 543.52L842.438 545.704H810.198L810.455 543.52L822.336 539.729L829.272 473.868V472.711C829.272 472.004 829.015 471.683 828.373 470.848L819.446 481.257L817.712 479.651L818.29 478.623C824.327 468.792 828.823 464.487 833.061 464.487C835.695 464.487 837.108 466.221 837.108 469.563C837.108 470.012 836.979 470.462 836.979 470.976L835.566 484.02C838.328 481 838.906 480.293 842.631 476.181C850.466 467.378 854.512 464.487 859.393 464.487C865.623 464.487 869.476 471.683 869.476 483.249C869.476 504.067 855.861 520.966 839.034 520.966C836.273 520.966 834.282 520.645 831.841 519.553L831.905 519.617ZM832.355 514.862C835.245 516.34 837.814 516.918 841.025 516.918C854.063 516.918 860.549 505.095 860.549 481.771C860.549 473.996 859.393 470.912 856.246 470.912C854.255 470.912 852.072 472.069 849.182 474.51C846.548 476.823 841.346 481.707 836.915 485.948L835.181 487.682L832.291 514.862H832.355ZM876.091 520.388L885.083 446.817L872.623 445.21L872.945 443.025L893.496 438.977L887.973 483.506L890.606 480.486L896.386 473.675C901.332 467.764 907.047 464.551 912.442 464.551C916.488 464.551 918.479 466.543 918.479 470.462C918.479 471.04 918.479 471.619 918.351 472.197L913.149 511.778V512.485C913.149 513.513 913.277 513.641 913.984 514.669L914.562 515.248L923.36 505.738L925.094 507.152L924.516 507.987C917.837 517.946 913.662 521.609 909.167 521.609C906.598 521.609 905.249 520.131 905.249 517.111C905.249 516.404 905.378 515.697 905.506 514.926L910.837 474.574V473.996C910.837 472.004 909.938 470.976 908.268 470.976C905.056 470.976 900.882 473.868 894.652 480.1L887.588 487.168L883.541 520.517H876.156L876.091 520.388ZM944.618 491.473L941.279 520.388H933.765L939.095 474.253V473.418C939.095 472.583 938.967 472.133 938.646 471.812L937.811 470.912L928.691 481.064L926.957 479.586C934.15 468.47 938.26 464.551 942.884 464.551C945.646 464.551 947.059 466.029 947.059 469.049C947.059 469.627 947.059 470.334 946.93 471.04L944.939 487.939C952.711 475.667 955.087 472.069 958.491 468.599C960.931 465.964 963.693 464.551 966.711 464.551C969.73 464.551 971.335 465.964 971.335 468.47C971.335 469.948 970.629 471.619 969.345 473.546C968.06 475.281 967.033 475.988 965.427 475.988C963.693 475.988 962.537 475.41 959.904 473.225C959.583 473.675 959.197 474.06 959.005 474.253C958.427 474.832 957.271 476.245 955.408 478.301C953.353 480.743 951.94 482.478 951.105 483.377L946.93 488.711L944.618 491.473ZM1012.82 466.029L1006.79 512.42C1006.66 512.742 1006.66 512.999 1006.66 513.32C1006.66 514.155 1006.79 514.22 1007.69 515.055L1007.94 515.312L1016.74 505.738L1018.48 507.152C1012.95 516.404 1007.04 521.609 1002.29 521.609C999.979 521.609 998.695 520.195 998.695 517.689C998.695 517.111 998.695 516.404 998.823 515.697L1000.56 503.232C994.456 510.493 991.309 513.898 987.97 516.854C984.502 520.002 981.033 521.609 978.015 521.609C972.106 521.609 968.445 515.119 968.445 504.517C968.445 481.385 982.446 464.615 1001.78 464.615C1005.37 464.615 1008.46 465.065 1012.89 466.093L1012.82 466.029ZM1004.86 470.205C1002.42 469.049 1000.24 468.599 997.025 468.599C989.382 468.599 983.41 473.803 980.52 483.056C978.529 489.289 977.373 497.835 977.373 505.288C977.373 512.742 978.529 515.248 981.547 515.248C983.024 515.248 984.437 514.541 986.492 512.934C989.832 510.172 994.007 506.445 999.08 501.497L1001.07 499.634L1004.86 470.269V470.205ZM1045.19 468.47H1044.29C1038.06 468.47 1034.02 471.619 1034.02 476.438C1034.02 478.751 1035.3 480.807 1038.51 483.827L1047.31 492.18C1051.62 496.357 1053.35 499.827 1053.35 504.196C1053.35 514.348 1045.51 521.545 1034.27 521.545C1026.89 521.545 1021.69 518.91 1021.69 514.926C1021.69 512.356 1023.87 510.172 1026.18 510.172C1028.82 510.172 1029.97 511.071 1034.15 517.368C1034.72 517.497 1035.17 517.497 1035.75 517.497C1042.82 517.497 1047.18 513.77 1047.18 507.923C1047.18 504.774 1046.16 503.039 1041.98 498.991L1032.28 489.61C1028.82 486.397 1027.34 483.12 1027.34 479.458C1027.34 471.105 1035.56 464.551 1046.16 464.551C1052.84 464.551 1057.01 466.864 1057.01 470.591C1057.01 473.354 1054.83 475.924 1052.13 475.924C1050.07 475.924 1048.79 475.024 1047.38 472.326L1045.77 469.691L1045.19 468.535V468.47ZM1092.59 507.923L1094.2 509.657C1087.39 517.754 1081.16 521.545 1074.86 521.545C1065.87 521.545 1060.54 513.898 1060.54 501.304C1060.54 481.385 1073 464.487 1087.71 464.487C1094.2 464.487 1097.86 467.956 1097.86 473.996C1097.86 479.651 1094.84 484.984 1090.09 487.554C1085.14 490.317 1079.68 491.602 1069.28 492.502C1069.02 495.264 1069.02 496.421 1069.02 497.963C1069.02 509.529 1072.04 515.183 1078.27 515.183C1082.06 515.183 1085.53 513.448 1092.46 507.923H1092.59ZM1069.47 489.996C1075.51 489.289 1080.58 487.939 1084.05 486.076C1087.52 484.084 1089.83 479.972 1089.83 475.41C1089.83 470.848 1087.77 468.599 1083.79 468.599C1079.42 468.599 1075.44 471.619 1072.68 476.952C1070.82 480.679 1070.11 483.313 1069.47 489.996ZM1180 463.972L1178.97 472.647L1163.24 469.177C1166.83 473.097 1167.99 475.988 1167.99 480.743C1167.99 491.409 1158.74 500.405 1147.76 500.405H1145.58C1141.79 504.132 1140.63 505.609 1140.63 507.216C1140.63 508.822 1142.11 509.786 1146.15 510.557L1163.94 514.155C1172.16 515.89 1174.35 517.754 1174.35 523.151C1174.35 535.424 1159.19 545.704 1140.95 545.704C1129.13 545.704 1120.59 541.078 1120.59 534.588C1120.59 531.954 1122.07 529.641 1126.24 525.914C1128.23 524.179 1129.71 522.765 1130.87 521.866C1131.32 521.545 1132.92 520.26 1135.75 518.075L1137.48 516.79C1133.69 515.505 1132.28 514.155 1132.28 511.328C1132.28 508.308 1134.91 505.417 1142.94 499.891C1133.69 497.578 1129.33 492.694 1129.33 484.534C1129.33 473.546 1139.02 464.551 1150.84 464.551C1155.21 464.551 1158.61 465.579 1161.95 467.764L1180.13 463.972H1180ZM1139.99 517.497C1132.02 524.886 1127.85 530.54 1127.85 533.689C1127.85 538.636 1133.5 541.785 1142.62 541.785C1155.08 541.785 1166.9 534.717 1166.9 527.199C1166.9 524.436 1165.16 523.151 1159.96 521.994L1139.99 517.497ZM1138.13 481.771C1138 482.799 1137.87 483.827 1137.87 484.791C1137.87 492.887 1141.34 497.385 1147.37 497.385C1154.44 497.385 1159.38 490.317 1159.38 480.165C1159.38 472.069 1156.04 467.442 1150.26 467.442C1144.03 467.442 1139.15 473.225 1138.13 481.771ZM1192.14 470.912L1183.02 481.193L1181.16 479.586C1186.49 470.077 1192.46 464.551 1197.34 464.551C1199.97 464.551 1201.13 465.964 1201.13 468.856C1201.13 469.691 1201.13 470.334 1201 471.298L1195.22 512.228C1195.09 512.549 1195.09 512.806 1195.09 513.063C1195.09 513.963 1195.35 514.477 1196.38 515.248L1205.17 505.738L1206.91 507.216C1200.23 517.304 1195.35 521.545 1190.85 521.545C1188.41 521.545 1187.26 520.26 1187.26 517.625C1187.26 516.726 1187.26 515.762 1187.51 514.605L1193.17 474.317C1193.17 473.868 1193.29 473.418 1193.29 473.032C1193.29 472.326 1193.17 471.876 1192.72 471.555L1192.14 470.848V470.912ZM1200.94 443.797C1203.57 443.797 1204.85 445.274 1204.85 448.294C1204.85 453.178 1202.86 455.941 1199.39 455.941C1196.76 455.941 1195.35 454.463 1195.35 451.443C1195.35 446.817 1197.53 443.797 1200.87 443.797H1200.94ZM1226.11 521.545L1218.73 473.739C1218.41 471.876 1218.28 471.683 1216.99 470.848L1210.31 481.257L1208.13 479.972L1208.96 478.494L1211.4 473.611C1214.55 467.571 1217.63 464.487 1220.91 464.487C1224.19 464.487 1224.96 465.9 1225.86 471.298C1226.11 472.583 1226.75 477.402 1228.04 485.755C1229.07 492.245 1229.64 496.293 1229.9 498.027L1231.38 509.915L1231.83 513.063L1233.56 509.336L1239.02 498.477L1244.22 487.168L1247.82 478.944L1248.98 476.181C1246.66 473.739 1245.76 472.004 1245.76 469.498C1245.76 466.478 1248.08 464.551 1251.67 464.551C1254.88 464.551 1256.75 466.286 1256.75 469.177C1256.75 471.04 1255.72 473.932 1253.15 479.586C1251.87 482.221 1250 485.948 1247.63 490.831C1244.48 496.871 1242.1 501.497 1240.37 504.71L1232.28 518.846L1231.44 520.452L1226.24 521.609L1226.11 521.545ZM1289.12 507.923L1290.72 509.657C1283.91 517.754 1277.68 521.545 1271.39 521.545C1262.4 521.545 1257.07 513.898 1257.07 501.304C1257.07 481.385 1269.53 464.487 1284.23 464.487C1290.72 464.487 1294.38 467.956 1294.38 473.996C1294.38 479.651 1291.36 484.984 1286.61 487.554C1281.67 490.317 1276.21 491.602 1265.8 492.502C1265.55 495.264 1265.55 496.421 1265.55 497.963C1265.55 509.529 1268.56 515.183 1274.79 515.183C1278.58 515.183 1282.05 513.448 1288.99 507.923H1289.12ZM1266 489.996C1272.03 489.289 1277.11 487.939 1280.57 486.076C1284.04 484.084 1286.35 479.972 1286.35 475.41C1286.35 470.848 1284.3 468.599 1280.32 468.599C1275.95 468.599 1271.97 471.619 1269.21 476.952C1267.34 480.679 1266.64 483.313 1266 489.996ZM1316.99 487.168L1312.94 520.388H1305.43L1311.08 474.253V473.354C1311.08 472.454 1310.95 471.94 1309.92 470.912L1300.8 481.321L1299.07 479.843C1305.3 469.434 1310.31 464.551 1315 464.551C1317.76 464.551 1319.04 466.029 1319.04 469.049C1319.04 469.627 1319.04 470.205 1318.92 470.783L1317.44 483.506L1319.88 480.743L1325.53 473.803C1330.48 467.892 1335.81 464.551 1340.69 464.551C1344.99 464.551 1347.17 466.735 1347.17 470.912C1347.17 471.362 1347.05 471.812 1347.05 472.326L1341.84 512.356C1341.84 512.356 1341.72 512.677 1341.72 512.934C1341.72 513.963 1341.84 514.22 1342.74 514.926L1343.32 515.248L1351.99 505.738L1353.85 507.152L1353.15 508.18C1346.79 517.689 1342.42 521.609 1337.86 521.609C1335.23 521.609 1333.56 520.195 1333.56 517.818C1333.56 517.111 1333.69 516.34 1333.82 515.376L1339.15 474.639C1339.15 474.639 1339.27 474.06 1339.27 473.739C1339.27 471.876 1338.44 470.976 1336.71 470.976C1334.71 470.976 1331.95 472.454 1329.32 474.767C1325.15 478.494 1319.81 483.891 1316.92 487.233L1316.99 487.168ZM1427.52 466.029L1421.48 512.42C1421.35 512.742 1421.35 512.999 1421.35 513.32C1421.35 514.155 1421.48 514.22 1422.38 515.055L1422.64 515.312L1431.44 505.738L1433.17 507.152C1427.65 516.404 1421.74 521.609 1416.99 521.609C1414.67 521.609 1413.39 520.195 1413.39 517.689C1413.39 517.111 1413.39 516.404 1413.52 515.697L1415.25 503.232C1409.15 510.493 1406 513.898 1402.66 516.854C1399.2 520.002 1395.73 521.609 1392.71 521.609C1386.8 521.609 1383.14 515.119 1383.14 504.517C1383.14 481.385 1397.14 464.615 1416.47 464.615C1420.07 464.615 1423.15 465.065 1427.58 466.093L1427.52 466.029ZM1419.55 470.205C1417.11 469.049 1414.93 468.599 1411.72 468.599C1404.08 468.599 1398.1 473.803 1395.21 483.056C1393.22 489.289 1392.07 497.835 1392.07 505.288C1392.07 512.742 1393.22 515.248 1396.24 515.248C1397.72 515.248 1399.13 514.541 1401.19 512.934C1404.53 510.172 1408.7 506.445 1413.77 501.497L1415.77 499.634L1419.55 470.269V470.205ZM1438.56 519.81L1447.49 446.817L1435.03 445.21L1435.29 443.025L1455.84 438.977L1450.38 484.084C1451.41 482.928 1452.24 482.028 1452.82 481.45C1453.14 481 1454.81 479.265 1457.45 476.245C1464.96 467.699 1469.46 464.551 1474.21 464.551C1480.44 464.551 1483.91 471.04 1483.91 482.157C1483.91 505.417 1470.36 521.609 1450.83 521.609C1447.04 521.609 1442.87 521.031 1438.56 519.874V519.81ZM1446.46 515.762C1449.8 517.047 1452.24 517.497 1455.39 517.497C1463.23 517.497 1468.81 513.127 1471.83 504.324C1473.89 497.835 1475.17 489.417 1475.17 480.936C1475.17 473.675 1474.02 470.848 1471 470.848C1469.14 470.848 1467.53 471.747 1464.19 474.767L1457.96 480.229L1451.92 485.755L1449.93 487.618L1446.46 515.762ZM1490.52 493.465C1492.51 476.695 1503.24 464.551 1516.21 464.551C1526.94 464.551 1533.55 473.097 1533.55 487.233C1533.55 506.188 1521.73 521.609 1507.41 521.609C1496.69 521.609 1490.2 512.934 1490.2 498.22C1490.2 496.742 1490.33 495.072 1490.52 493.465ZM1498.94 506.509C1499.64 514.027 1502.98 518.075 1508.63 518.075C1514.99 518.075 1519.29 513.577 1522.18 503.939C1524.05 497.835 1525.07 490.767 1525.07 484.598C1525.07 473.482 1521.73 467.956 1514.99 467.956C1505.17 467.956 1498.68 481.257 1498.68 501.369C1498.68 503.104 1498.81 504.71 1498.94 506.445V506.509ZM1555.9 521.545L1548.52 473.739C1548.2 471.876 1548.07 471.683 1546.78 470.848L1540.1 481.257L1537.92 479.972L1538.75 478.494L1541.19 473.611C1544.34 467.571 1547.42 464.487 1550.7 464.487C1553.98 464.487 1554.75 465.9 1555.65 471.298C1555.9 472.583 1556.54 477.402 1557.83 485.755C1558.86 492.245 1559.43 496.293 1559.69 498.027L1561.17 509.915L1561.62 513.063L1563.35 509.336L1568.81 498.477L1574.01 487.168L1577.61 478.944L1578.77 476.181C1576.45 473.739 1575.55 472.004 1575.55 469.498C1575.55 466.478 1577.87 464.551 1581.46 464.551C1584.67 464.551 1586.54 466.286 1586.54 469.177C1586.54 471.04 1585.51 473.932 1582.94 479.586C1581.66 482.221 1579.79 485.948 1577.42 490.831C1574.27 496.871 1571.89 501.497 1570.16 504.71L1562.07 518.846L1561.23 520.452L1556.03 521.609L1555.9 521.545ZM1618.97 507.923L1620.58 509.657C1613.77 517.754 1607.54 521.545 1601.24 521.545C1592.25 521.545 1586.92 513.898 1586.92 501.304C1586.92 481.385 1599.38 464.487 1614.09 464.487C1620.58 464.487 1624.24 467.956 1624.24 473.996C1624.24 479.651 1621.22 484.984 1616.47 487.554C1611.52 490.317 1606.06 491.602 1595.66 492.502C1595.4 495.264 1595.4 496.421 1595.4 497.963C1595.4 509.529 1598.42 515.183 1604.65 515.183C1608.44 515.183 1611.91 513.448 1618.84 507.923H1618.97ZM1595.79 489.996C1601.82 489.289 1606.9 487.939 1610.36 486.076C1613.83 484.084 1616.14 479.972 1616.14 475.41C1616.14 470.848 1614.09 468.599 1610.11 468.599C1605.74 468.599 1601.76 471.619 1599 476.952C1597.13 480.679 1596.43 483.313 1595.79 489.996ZM1662.51 470.912L1653.39 481.193L1651.53 479.586C1656.86 470.077 1662.83 464.551 1667.72 464.551C1670.35 464.551 1671.51 465.964 1671.51 468.856C1671.51 469.691 1671.51 470.334 1671.38 471.298L1665.6 512.228C1665.47 512.549 1665.47 512.806 1665.47 513.063C1665.47 513.963 1665.73 514.477 1666.75 515.248L1675.55 505.738L1677.29 507.216C1670.61 517.304 1665.72 521.545 1661.23 521.545C1658.79 521.545 1657.63 520.26 1657.63 517.625C1657.63 516.726 1657.63 515.762 1657.89 514.605L1663.54 474.317C1663.54 473.868 1663.67 473.418 1663.67 473.032C1663.67 472.326 1663.54 471.876 1663.09 471.555L1662.51 470.848V470.912ZM1671.31 443.797C1673.95 443.797 1675.23 445.274 1675.23 448.294C1675.23 453.178 1673.24 455.941 1669.77 455.941C1667.14 455.941 1665.73 454.463 1665.73 451.443C1665.73 446.817 1667.91 443.797 1671.25 443.797H1671.31ZM1704.26 468.47H1703.36C1697.13 468.47 1693.08 471.619 1693.08 476.438C1693.08 478.751 1694.37 480.807 1697.58 483.827L1706.38 492.18C1710.68 496.357 1712.42 499.827 1712.42 504.196C1712.42 514.348 1704.58 521.545 1693.34 521.545C1685.96 521.545 1680.75 518.91 1680.75 514.926C1680.75 512.356 1682.94 510.172 1685.25 510.172C1687.88 510.172 1689.04 511.071 1693.21 517.368C1693.79 517.497 1694.24 517.497 1694.82 517.497C1701.88 517.497 1706.25 513.77 1706.25 507.923C1706.25 504.774 1705.22 503.039 1701.05 498.991L1691.35 489.61C1687.88 486.397 1686.41 483.12 1686.41 479.458C1686.41 471.105 1694.63 464.551 1705.22 464.551C1711.9 464.551 1716.08 466.864 1716.08 470.591C1716.08 473.354 1713.89 475.924 1711.2 475.924C1709.14 475.924 1707.86 475.024 1706.44 472.326L1704.84 469.691L1704.26 468.535V468.47Z" fill="#E7AEC6"/>
<path d="M115.744 610.473L111.377 648.512C111.248 649.347 111.248 650.246 111.248 651.082C111.248 653.652 112.147 654.808 113.881 654.808C116.322 654.808 120.689 651.339 127.304 643.949L127.882 643.243L130.066 644.978C121.075 657.25 114.46 662.905 109.514 662.905C105.725 662.905 103.285 659.756 103.285 654.551C103.285 653.395 103.413 652.367 103.541 651.21L108.166 610.473H98.4677L98.9173 606.425H108.615L110.221 592.674H117.735L116.258 606.425H132.763L132.314 610.473H115.744ZM135.525 634.761C137.516 617.991 148.241 605.846 161.215 605.846C171.94 605.846 178.555 614.392 178.555 628.528C178.555 647.483 166.738 662.905 152.416 662.905C141.69 662.905 135.204 654.23 135.204 639.516C135.204 638.038 135.332 636.367 135.525 634.761ZM143.938 647.869C144.645 655.387 147.984 659.435 153.636 659.435C159.994 659.435 164.297 654.937 167.187 645.299C169.05 639.195 170.077 632.127 170.077 625.958C170.077 614.842 166.738 609.316 159.994 609.316C150.168 609.316 143.681 622.617 143.681 642.729C143.681 644.463 143.81 646.07 143.938 647.805V647.869ZM208.548 661.17L217.475 588.176L205.015 586.57L205.272 584.385L225.824 580.337L220.365 625.444C221.392 624.288 222.227 623.388 222.805 622.81C223.126 622.36 224.796 620.625 227.429 617.605C234.944 609.059 239.439 605.911 244.192 605.911C250.422 605.911 253.89 612.4 253.89 623.516C253.89 646.777 240.338 662.969 220.814 662.969C217.025 662.969 212.851 662.391 208.548 661.234V661.17ZM216.447 657.122C219.787 658.407 222.227 658.857 225.374 658.857C233.21 658.857 238.797 654.487 241.816 645.684C243.871 639.195 245.155 630.777 245.155 622.296C245.155 615.035 243.999 612.208 240.981 612.208C239.118 612.208 237.513 613.107 234.173 616.127L227.943 621.589L221.906 627.115L219.915 628.978L216.447 657.122ZM292.039 649.218L293.644 650.953C286.837 659.049 280.607 662.84 274.313 662.84C265.322 662.84 259.991 655.194 259.991 642.6C259.991 622.681 272.45 605.782 287.158 605.782C293.644 605.782 297.305 609.252 297.305 615.292C297.305 620.946 294.287 626.279 289.534 628.85C284.589 631.613 279.13 632.898 268.725 633.797C268.469 636.56 268.469 637.717 268.469 639.259C268.469 650.825 271.487 656.479 277.717 656.479C281.506 656.479 284.974 654.744 291.91 649.218H292.039ZM268.918 631.291C274.955 630.585 280.029 629.235 283.497 627.372C286.965 625.38 289.277 621.268 289.277 616.706C289.277 612.143 287.222 609.895 283.24 609.895C278.873 609.895 274.891 612.914 272.129 618.248C270.267 621.974 269.56 624.609 268.918 631.291ZM342.005 632.833L338.665 661.748H331.151L336.482 615.613V614.778C336.482 613.943 336.353 613.493 336.032 613.172L335.197 612.272L326.077 622.424L324.343 620.946C331.536 609.83 335.647 605.911 340.271 605.911C343.033 605.911 344.445 607.389 344.445 610.409C344.445 610.987 344.445 611.694 344.317 612.4L342.326 629.299C350.097 617.027 352.473 613.429 355.877 609.959C358.318 607.324 361.079 605.911 364.098 605.911C367.117 605.911 368.722 607.324 368.722 609.83C368.722 611.308 368.016 612.979 366.731 614.906C365.447 616.641 364.419 617.348 362.814 617.348C361.08 617.348 359.923 616.77 357.29 614.585C356.969 615.035 356.584 615.42 356.391 615.613C355.813 616.191 354.657 617.605 352.795 619.661C350.739 622.103 349.327 623.838 348.492 624.737L344.317 630.07L342.005 632.833ZM398.65 649.218L400.256 650.953C393.448 659.049 387.219 662.84 380.925 662.84C371.933 662.84 366.603 655.194 366.603 642.6C366.603 622.681 379.062 605.782 393.77 605.782C400.256 605.782 403.917 609.252 403.917 615.292C403.917 620.946 400.898 626.279 396.146 628.85C391.201 631.613 385.741 632.898 375.337 633.797C375.08 636.56 375.08 637.717 375.08 639.259C375.08 650.825 378.099 656.479 384.329 656.479C388.118 656.479 391.586 654.744 398.522 649.218H398.65ZM375.53 631.291C381.567 630.585 386.641 629.235 390.109 627.372C393.577 625.38 395.889 621.268 395.889 616.706C395.889 612.143 393.834 609.895 389.852 609.895C385.485 609.895 381.503 612.914 378.741 618.248C376.879 621.974 376.172 624.609 375.53 631.291ZM422.927 660.913L420.744 681.024L433.588 684.815L433.46 687H401.219L401.476 684.815L413.358 681.024L420.294 615.163V614.007C420.294 613.3 420.037 612.979 419.395 612.143L410.468 622.553L408.734 620.946L409.312 619.918C415.349 610.087 419.844 605.782 424.083 605.782C426.716 605.782 428.129 607.517 428.129 610.858C428.129 611.308 428.001 611.758 428.001 612.272L426.588 625.316C429.35 622.296 429.928 621.589 433.653 617.477C441.488 608.674 445.534 605.782 450.415 605.782C456.645 605.782 460.498 612.979 460.498 624.545C460.498 645.363 446.883 662.262 430.056 662.262C427.294 662.262 425.303 661.941 422.863 660.848L422.927 660.913ZM423.377 656.158C426.267 657.636 428.836 658.214 432.047 658.214C445.084 658.214 451.571 646.391 451.571 623.067C451.571 615.292 450.415 612.208 447.268 612.208C445.277 612.208 443.093 613.364 440.203 615.806C437.57 618.119 432.368 623.002 427.937 627.243L426.203 628.978L423.312 656.158H423.377ZM498.776 649.218L500.381 650.953C493.573 659.049 487.344 662.84 481.05 662.84C472.058 662.84 466.728 655.194 466.728 642.6C466.728 622.681 479.187 605.782 493.895 605.782C500.381 605.782 504.042 609.252 504.042 615.292C504.042 620.946 501.023 626.279 496.271 628.85C491.326 631.613 485.867 632.898 475.462 633.797C475.205 636.56 475.205 637.717 475.205 639.259C475.205 650.825 478.224 656.479 484.454 656.479C488.243 656.479 491.711 654.744 498.647 649.218H498.776ZM475.591 631.291C481.628 630.585 486.702 629.235 490.17 627.372C493.638 625.38 495.95 621.268 495.95 616.706C495.95 612.143 493.895 609.895 489.913 609.895C485.546 609.895 481.564 612.914 478.802 618.248C476.939 621.974 476.233 624.609 475.591 631.291ZM552.403 607.389L546.366 653.78C546.237 654.102 546.237 654.359 546.237 654.68C546.237 655.515 546.366 655.58 547.265 656.415L547.522 656.672L556.32 647.098L558.054 648.512C552.531 657.764 546.623 662.969 541.87 662.969C539.558 662.969 538.273 661.555 538.273 659.049C538.273 658.471 538.273 657.764 538.402 657.057L540.136 644.592C534.035 651.853 530.888 655.258 527.548 658.214C524.08 661.362 520.612 662.969 517.593 662.969C511.685 662.969 508.024 656.479 508.024 645.877C508.024 622.745 522.025 605.975 541.356 605.975C544.953 605.975 548.035 606.425 552.467 607.453L552.403 607.389ZM544.439 611.501C541.998 610.344 539.815 609.895 536.604 609.895C528.961 609.895 522.988 615.099 520.098 624.352C518.107 630.585 516.951 639.13 516.951 646.584C516.951 654.037 518.107 656.543 521.126 656.543C522.603 656.543 524.016 655.837 526.071 654.23C529.41 651.467 533.585 647.74 538.659 642.793L540.65 640.93L544.439 611.565V611.501ZM578.028 610.473L573.661 648.512C573.532 649.347 573.532 650.246 573.532 651.082C573.532 653.652 574.432 654.808 576.166 654.808C578.606 654.808 582.973 651.339 589.588 643.949L590.166 643.243L592.35 644.978C583.359 657.25 576.744 662.905 571.798 662.905C568.009 662.905 565.569 659.756 565.569 654.551C565.569 653.395 565.697 652.367 565.825 651.21L570.45 610.473H560.752L561.201 606.425H570.899L572.505 592.674H580.019L578.542 606.425H595.047L594.598 610.473H578.028ZM629.471 649.218L631.077 650.953C624.269 659.049 618.04 662.84 611.746 662.84C602.754 662.84 597.424 655.194 597.424 642.6C597.424 622.681 609.883 605.782 624.59 605.782C631.077 605.782 634.738 609.252 634.738 615.292C634.738 620.946 631.719 626.279 626.967 628.85C622.021 631.613 616.562 632.898 606.158 633.797C605.901 636.56 605.901 637.717 605.901 639.259C605.901 650.825 608.92 656.479 615.149 656.479C618.939 656.479 622.407 654.744 629.343 649.218H629.471ZM606.351 631.291C612.388 630.585 617.462 629.235 620.93 627.372C624.398 625.38 626.71 621.268 626.71 616.706C626.71 612.143 624.655 609.895 620.673 609.895C616.306 609.895 612.324 612.914 609.562 618.248C607.699 621.974 606.993 624.609 606.351 631.291ZM677.254 606.682L679.438 588.176L666.978 586.57L667.299 584.385L687.851 580.337L678.86 653.78C678.86 653.78 678.731 654.23 678.731 654.487C678.731 655.387 678.988 655.772 680.016 656.543L688.686 646.969L690.548 648.447C684.062 658.535 679.245 662.905 674.685 662.905C672.052 662.905 670.896 661.619 670.896 658.728C670.896 658.15 671.024 657.571 671.024 656.865L672.63 644.592L670.061 647.226C667.171 650.375 665.758 651.853 665.694 651.853C663.831 653.845 662.097 655.58 660.363 657.186C655.996 660.977 652.399 662.84 649.06 662.84C642.445 662.84 638.912 656.736 638.912 645.363C638.912 622.681 652.335 605.782 670.382 605.782C673.272 605.782 675.006 606.039 677.318 606.618L677.254 606.682ZM676.548 611.886C672.63 610.409 670.767 609.895 667.877 609.895C654.904 609.895 647.775 622.745 647.775 645.877C647.775 653.652 648.931 656.543 651.821 656.543C654.39 656.543 657.473 654.551 664.987 648.126C668.134 645.556 669.483 644.335 672.951 640.93L676.548 611.886ZM704.035 650.76C707.632 650.76 708.981 652.174 708.981 655.837C708.981 660.591 706.99 662.905 702.944 662.905C699.219 662.905 697.87 661.619 697.87 658.15C697.87 653.074 699.732 650.76 703.971 650.76H704.035Z" fill="#E7AEC6"/>
</svg>
