<svg width="2000" height="1330" viewBox="0 0 2000 1330" fill="none" xmlns="http://www.w3.org/2000/svg">
<path d="M43.281 263.713V331.413L64.6463 340.321V345.92H0.296103V340.321L21.6614 331.413V190.924L0.296103 181.762V176.162H67.9528C88.8094 176.162 95.6768 177.944 104.833 185.834C113.736 193.214 118.568 203.649 118.568 216.375C118.568 239.79 103.307 255.569 76.855 259.387L126.707 331.413L148.836 340.321V345.92H110.683L53.9636 263.713H43.281ZM43.281 254.806H61.8484C81.942 254.806 95.6768 240.299 95.6768 218.92C95.6768 197.541 83.4681 185.07 62.3571 185.07H43.281V254.806ZM249.049 281.275H168.929C169.184 302.908 173.507 314.87 184.953 324.287C193.092 330.904 204.538 334.467 218.018 334.467C223.868 334.467 235.568 333.449 244.216 331.922L245.742 331.667L247.014 338.539C232.771 343.375 211.914 347.192 201.231 347.192C168.929 347.192 147.31 324.032 147.31 288.91C147.31 251.242 171.218 222.992 203.266 222.992C224.377 222.992 241.419 235.717 246.251 254.297C248.032 261.932 248.54 266.004 249.049 281.275ZM227.684 271.349C227.429 243.862 219.29 231.9 200.977 231.9C181.392 231.9 170.964 245.898 168.929 274.912L227.684 271.349ZM270.923 253.533V231.391L272.703 230.882C290.253 225.283 302.462 222.992 313.653 222.992C337.817 222.992 349.262 232.409 349.262 252.515V320.723C349.262 327.595 350.025 328.613 357.656 330.904L370.882 334.721V339.557L353.586 345.411C350.534 346.429 345.193 347.192 342.141 347.192C334.51 347.192 331.204 343.884 329.423 335.485L324.845 337.521L316.197 341.084C309.584 343.884 306.023 345.411 305.006 345.665C301.699 346.683 297.63 347.192 293.051 347.192C273.975 347.192 260.749 334.721 260.749 316.906C260.749 301.381 269.397 291.2 285.93 287.128C295.34 284.838 311.619 282.547 329.169 281.02V253.533C329.169 237.499 322.301 231.9 302.462 231.9C299.41 231.9 298.138 232.154 294.577 232.409L283.895 253.533H270.923ZM329.169 287.637C318.232 288.91 310.601 290.437 300.936 292.727C287.964 296.036 282.114 302.144 282.114 313.088C282.114 326.068 292.288 334.467 307.803 334.467C313.399 334.467 316.96 333.958 325.608 331.413L329.169 330.649V287.637ZM381.819 345.92V340.321L404.456 331.413V188.124L381.819 181.507V176.671L424.804 167V331.413L446.169 340.321V345.92H381.819ZM553.25 345.411V388.168L579.702 396.058V401.657H511.537V396.058L532.902 388.168V242.589L511.537 235.972V230.627L553.25 221.465V235.208C569.782 227.573 585.043 222.992 593.437 222.992C619.38 222.992 639.22 247.17 639.22 278.984C639.22 318.687 610.478 347.192 570.291 347.192C563.678 347.192 559.354 346.683 553.25 345.411ZM553.25 335.994C559.1 336.758 563.424 337.012 569.274 337.012C599.541 337.012 617.854 317.924 617.854 286.11C617.854 254.297 602.085 236.99 575.124 236.99C567.493 236.99 561.643 238.263 553.25 241.571V335.994ZM755.203 281.275H675.083C675.337 302.908 679.661 314.87 691.107 324.287C699.246 330.904 710.692 334.467 724.172 334.467C730.022 334.467 741.722 333.449 750.37 331.922L751.896 331.667L753.168 338.539C738.924 343.375 718.068 347.192 707.385 347.192C675.083 347.192 653.463 324.032 653.463 288.91C653.463 251.242 677.372 222.992 709.42 222.992C730.531 222.992 747.572 235.717 752.405 254.297C754.185 261.932 754.694 266.004 755.203 281.275ZM733.837 271.349C733.583 243.862 725.444 231.9 707.131 231.9C687.546 231.9 677.118 245.898 675.083 274.912L733.837 271.349ZM769.192 287.637C769.192 249.206 793.1 222.992 828.455 222.992C862.792 223.246 885.683 247.425 885.683 283.565C885.683 319.705 860.249 347.192 825.657 347.192C791.066 347.192 769.192 323.778 769.192 287.637ZM791.574 285.601C791.574 316.906 806.072 338.03 827.692 338.03C849.311 338.03 863.046 317.924 863.046 288.146C863.046 255.06 848.04 232.409 826.166 232.409C804.292 232.409 791.574 252.006 791.574 285.601ZM932.738 345.411V388.168L959.19 396.058V401.657H891.025V396.058L912.39 388.168V242.589L891.025 235.972V230.627L932.738 221.465V235.208C949.27 227.573 964.531 222.992 972.925 222.992C998.868 222.992 1018.71 247.17 1018.71 278.984C1018.71 318.687 989.966 347.192 949.779 347.192C943.166 347.192 938.842 346.683 932.738 345.411ZM932.738 335.994C938.588 336.758 942.912 337.012 948.762 337.012C979.029 337.012 997.342 317.924 997.342 286.11C997.342 254.297 981.573 236.99 954.612 236.99C946.981 236.99 941.131 238.263 932.738 241.571V335.994ZM1022.52 345.92V340.321L1045.16 331.413V188.124L1022.52 181.507V176.671L1065.51 167V331.413L1086.87 340.321V345.92H1022.52ZM1193.19 281.275H1113.07C1113.33 302.908 1117.65 314.87 1129.09 324.287C1137.23 330.904 1148.68 334.467 1162.16 334.467C1168.01 334.467 1179.71 333.449 1188.36 331.922L1189.88 331.667L1191.16 338.539C1176.91 343.375 1156.06 347.192 1145.37 347.192C1113.07 347.192 1091.45 324.032 1091.45 288.91C1091.45 251.242 1115.36 222.992 1147.41 222.992C1168.52 222.992 1185.56 235.717 1190.39 254.297C1192.17 261.932 1192.68 266.004 1193.19 281.275ZM1171.83 271.349C1171.57 243.862 1163.43 231.9 1145.12 231.9C1125.53 231.9 1115.11 245.898 1113.07 274.912L1171.83 271.349ZM1211.25 334.467C1211.25 324.541 1215.06 320.469 1224.73 320.469C1235.41 320.469 1239.23 324.287 1239.23 334.976C1239.23 344.647 1235.41 348.465 1226 348.465C1215.06 348.465 1211.25 344.902 1211.25 334.467Z" fill="#49176D"/>
<path d="M43.281 541.892V609.591L64.6463 618.499V624.098H0.296103V618.499L21.6614 609.591V469.102L0.296103 459.94V454.34H67.9528C88.8094 454.34 95.6768 456.122 104.833 464.012C113.736 471.393 118.568 481.827 118.568 494.553C118.568 517.968 103.307 533.747 76.855 537.565L126.707 609.591L148.836 618.499V624.098H110.683L53.9636 541.892H43.281ZM43.281 532.984H61.8484C81.942 532.984 95.6768 518.477 95.6768 497.098C95.6768 475.719 83.4681 463.248 62.3571 463.248H43.281V532.984ZM249.049 559.453H168.929C169.184 581.086 173.507 593.048 184.953 602.465C193.092 609.082 204.538 612.645 218.018 612.645C223.868 612.645 235.568 611.627 244.216 610.1L245.742 609.845L247.014 616.717C232.771 621.553 211.914 625.37 201.231 625.37C168.929 625.37 147.31 602.21 147.31 567.088C147.31 529.421 171.218 501.17 203.266 501.17C224.377 501.17 241.419 513.896 246.251 532.475C248.032 540.11 248.54 544.182 249.049 559.453ZM227.684 549.527C227.429 522.04 219.29 510.078 200.977 510.078C181.392 510.078 170.964 524.076 168.929 553.09L227.684 549.527ZM270.923 531.711V509.569L272.703 509.06C290.253 503.461 302.462 501.17 313.653 501.17C337.817 501.17 349.262 510.587 349.262 530.693V598.902C349.262 605.773 350.025 606.791 357.656 609.082L370.882 612.9V617.735L353.586 623.589C350.534 624.607 345.193 625.37 342.141 625.37C334.51 625.37 331.204 622.062 329.423 613.663L324.845 615.699L316.197 619.262C309.584 622.062 306.023 623.589 305.006 623.843C301.699 624.861 297.63 625.37 293.051 625.37C273.975 625.37 260.749 612.9 260.749 595.084C260.749 579.559 269.397 569.379 285.93 565.306C295.34 563.016 311.619 560.725 329.169 559.198V531.711C329.169 515.677 322.301 510.078 302.462 510.078C299.41 510.078 298.138 510.332 294.577 510.587L283.895 531.711H270.923ZM329.169 565.815C318.232 567.088 310.601 568.615 300.936 570.906C287.964 574.214 282.114 580.322 282.114 591.266C282.114 604.246 292.288 612.645 307.803 612.645C313.399 612.645 316.96 612.136 325.608 609.591L329.169 608.827V565.815ZM381.819 624.098V618.499L404.456 609.591V466.302L381.819 459.685V454.849L424.804 445.178V609.591L446.169 618.499V624.098H381.819ZM514.334 619.771V592.539H523.491L535.191 615.19C539.769 616.208 541.295 616.463 545.619 616.463C562.915 616.463 572.58 609.591 572.58 597.375C572.58 589.23 569.528 584.904 559.1 578.032L535.954 563.016C520.184 552.835 515.352 546.218 515.352 534.256C515.352 513.641 529.595 501.17 553.25 501.17C561.643 501.17 571.817 502.697 585.552 505.497L586.315 505.751V530.439H577.413L567.493 509.823C562.915 509.06 561.389 508.805 556.556 508.805C541.295 508.805 531.885 515.168 531.885 525.348C531.885 532.22 536.972 538.328 548.417 545.709L568.511 558.18C584.789 568.36 590.385 575.996 590.385 588.721C590.385 610.609 574.615 625.37 551.469 625.37C543.839 625.37 529.087 623.08 516.369 620.28L514.334 619.771ZM621.67 511.35H602.848V506.006C612.259 501.934 621.415 496.589 624.722 493.28C625.739 492.262 627.265 489.717 629.809 485.645C632.352 481.318 634.387 477.246 635.913 473.429C636.167 472.92 636.422 471.902 636.93 470.884H642.017V502.443H682.459V511.35H642.017V591.521C642.017 608.318 647.613 613.918 664.4 613.918C671.522 613.918 676.863 613.409 683.476 611.627L685.257 619.008C669.996 622.571 653.209 625.37 646.087 625.37C630.317 625.37 621.67 616.208 621.67 598.647V511.35ZM686.529 565.815C686.529 527.384 710.437 501.17 745.792 501.17C780.129 501.425 803.02 525.603 803.02 561.743C803.02 597.884 777.585 625.37 742.994 625.37C708.402 625.37 686.529 601.956 686.529 565.815ZM708.911 563.779C708.911 595.084 723.409 616.208 745.029 616.208C766.648 616.208 780.383 596.102 780.383 566.324C780.383 533.238 765.376 510.587 743.503 510.587C721.629 510.587 708.911 530.184 708.911 563.779ZM809.124 624.098V618.499L830.744 609.591V520.513L809.124 514.405V509.06L850.838 499.898V514.405L854.907 512.623C872.203 504.733 883.394 501.17 890.262 501.17C894.331 501.17 898.146 502.443 901.707 504.479V531.711H886.701L879.07 517.204C875.509 516.695 872.712 516.441 870.931 516.441C865.081 516.441 857.959 517.968 850.838 520.513V609.591L877.544 618.499V624.098H809.124ZM912.39 624.098V618.499L934.01 609.591V520.767L912.39 514.15V509.314L954.103 499.898V609.591L975.723 618.499V624.098H912.39ZM930.194 458.413C930.194 449.505 934.264 445.433 943.675 445.433C953.849 445.433 957.918 448.996 957.918 457.649C957.918 466.811 953.849 470.884 943.929 470.884C934.009 470.884 930.194 466.811 930.194 458.413ZM1081.79 559.453H1001.67C1001.92 581.086 1006.24 593.048 1017.69 602.465C1025.83 609.082 1037.28 612.645 1050.76 612.645C1056.61 612.645 1068.31 611.627 1076.95 610.1L1078.48 609.845L1079.75 616.717C1065.51 621.553 1044.65 625.37 1033.97 625.37C1001.67 625.37 980.047 602.21 980.047 567.088C980.047 529.421 1003.96 501.17 1036 501.17C1057.11 501.17 1074.16 513.896 1078.99 532.475C1080.77 540.11 1081.28 544.182 1081.79 559.453ZM1060.42 549.527C1060.17 522.04 1052.03 510.078 1033.71 510.078C1014.13 510.078 1003.7 524.076 1001.67 553.09L1060.42 549.527ZM1095.52 619.771V592.539H1104.68L1116.38 615.19C1120.96 616.208 1122.48 616.463 1126.81 616.463C1144.1 616.463 1153.77 609.591 1153.77 597.375C1153.77 589.23 1150.71 584.904 1140.29 578.032L1117.14 563.016C1101.37 552.835 1096.54 546.218 1096.54 534.256C1096.54 513.641 1110.78 501.17 1134.44 501.17C1142.83 501.17 1153 502.697 1166.74 505.497L1167.5 505.751V530.439H1158.6L1148.68 509.823C1144.1 509.06 1142.58 508.805 1137.74 508.805C1122.48 508.805 1113.07 515.168 1113.07 525.348C1113.07 532.22 1118.16 538.328 1129.6 545.709L1149.7 558.18C1165.98 568.36 1171.57 575.996 1171.57 588.721C1171.57 610.609 1155.8 625.37 1132.66 625.37C1125.03 625.37 1110.27 623.08 1097.56 620.28L1095.52 619.771ZM1193.95 612.645C1193.95 602.719 1197.77 598.647 1207.43 598.647C1218.12 598.647 1221.93 602.465 1221.93 613.154C1221.93 622.825 1218.12 626.643 1208.71 626.643C1197.77 626.643 1193.95 623.08 1193.95 612.645Z" fill="#49176D"/>
<path d="M43.281 820.071V887.77L64.6463 896.678V902.277H0.296103V896.678L21.6614 887.77V747.281L0.296103 738.119V732.52H67.9528C88.8094 732.52 95.6768 734.301 104.833 742.191C113.736 749.572 118.568 760.007 118.568 772.732C118.568 796.147 103.307 811.927 76.855 815.744L126.707 887.77L148.836 896.678V902.277H110.683L53.9636 820.071H43.281ZM43.281 811.163H61.8484C81.942 811.163 95.6768 796.656 95.6768 775.277C95.6768 753.899 83.4681 741.428 62.3571 741.428H43.281V811.163ZM249.049 837.632H168.929C169.184 859.265 173.507 871.227 184.953 880.644C193.092 887.261 204.538 890.824 218.018 890.824C223.868 890.824 235.568 889.806 244.216 888.279L245.742 888.025L247.014 894.897C232.771 899.732 211.914 903.55 201.231 903.55C168.929 903.55 147.31 880.39 147.31 845.267C147.31 807.6 171.218 779.35 203.266 779.35C224.377 779.35 241.419 792.075 246.251 810.654C248.032 818.289 248.54 822.362 249.049 837.632ZM227.684 827.706C227.429 800.219 219.29 788.257 200.977 788.257C181.392 788.257 170.964 802.255 168.929 831.269L227.684 827.706ZM270.923 809.891V787.748L272.703 787.239C290.253 781.64 302.462 779.35 313.653 779.35C337.817 779.35 349.262 788.766 349.262 808.873V877.081C349.262 883.953 350.025 884.971 357.656 887.261L370.882 891.079V895.915L353.586 901.768C350.534 902.786 345.193 903.55 342.141 903.55C334.51 903.55 331.204 900.241 329.423 891.843L324.845 893.879L316.197 897.442C309.584 900.241 306.023 901.768 305.006 902.023C301.699 903.041 297.63 903.55 293.051 903.55C273.975 903.55 260.749 891.079 260.749 873.263C260.749 857.738 269.397 847.558 285.93 843.486C295.34 841.195 311.619 838.905 329.169 837.378V809.891C329.169 793.857 322.301 788.257 302.462 788.257C299.41 788.257 298.138 788.512 294.577 788.766L283.895 809.891H270.923ZM329.169 843.995C318.232 845.267 310.601 846.794 300.936 849.085C287.964 852.394 282.114 858.502 282.114 869.446C282.114 882.426 292.288 890.824 307.803 890.824C313.399 890.824 316.96 890.315 325.608 887.77L329.169 887.007V843.995ZM381.819 902.277V896.678L404.456 887.77V744.482L381.819 737.865V733.029L424.804 723.358V887.77L446.169 896.678V902.277H381.819ZM557.574 904.822L514.589 793.093L499.328 786.221V780.622H554.776V786.221L536.971 793.348L558.082 851.885C562.406 863.847 563.424 867.41 566.476 879.372L598.778 794.62L581.482 786.221V780.622H628.283V786.221L613.53 794.62L565.713 904.822H557.574ZM641.509 809.891V787.748L643.289 787.239C660.839 781.64 673.048 779.35 684.239 779.35C708.402 779.35 719.848 788.766 719.848 808.873V877.081C719.848 883.953 720.611 884.971 728.242 887.261L741.468 891.079V895.915L724.172 901.768C721.12 902.786 715.779 903.55 712.726 903.55C705.096 903.55 701.789 900.241 700.009 891.843L695.431 893.879L686.783 897.442C680.17 900.241 676.609 901.768 675.591 902.023C672.285 903.041 668.215 903.55 663.637 903.55C644.561 903.55 631.335 891.079 631.335 873.263C631.335 857.738 639.983 847.558 656.515 843.486C665.926 841.195 682.205 838.905 699.755 837.378V809.891C699.755 793.857 692.887 788.257 673.048 788.257C669.996 788.257 668.724 788.512 665.163 788.766L654.481 809.891H641.509ZM699.755 843.995C688.818 845.267 681.187 846.794 671.522 849.085C658.55 852.394 652.7 858.502 652.7 869.446C652.7 882.426 662.874 890.824 678.389 890.824C683.985 890.824 687.546 890.315 696.194 887.77L699.755 887.007V843.995ZM752.405 902.277V896.678L775.042 887.77V744.482L752.405 737.865V733.029L795.39 723.358V887.77L816.755 896.678V902.277H752.405ZM914.933 904.314V892.606L910.61 893.879L897.892 897.696C885.175 901.768 876.018 903.55 869.659 903.55C850.075 903.55 837.611 888.788 837.611 865.883V798.438L816.246 792.075V786.985L857.959 777.568V860.538C857.959 881.662 866.098 889.552 888.227 889.552C896.875 889.552 905.777 888.534 914.933 886.752V798.438L893.314 792.075V786.985L935.027 777.568V884.462L955.375 890.824V895.915L914.933 904.314ZM1063.22 837.632H983.099C983.353 859.265 987.677 871.227 999.123 880.644C1007.26 887.261 1018.71 890.824 1032.19 890.824C1038.04 890.824 1049.74 889.806 1058.39 888.279L1059.91 888.025L1061.18 894.897C1046.94 899.732 1026.08 903.55 1015.4 903.55C983.099 903.55 961.479 880.39 961.479 845.267C961.479 807.6 985.388 779.35 1017.44 779.35C1038.55 779.35 1055.59 792.075 1060.42 810.654C1062.2 818.289 1062.71 822.362 1063.22 837.632ZM1041.85 827.706C1041.6 800.219 1033.46 788.257 1015.15 788.257C995.562 788.257 985.134 802.255 983.099 831.269L1041.85 827.706ZM1081.28 890.824C1081.28 880.899 1085.09 876.826 1094.76 876.826C1105.44 876.826 1109.26 880.644 1109.26 891.334C1109.26 901.005 1105.44 904.822 1096.03 904.822C1085.09 904.822 1081.28 901.259 1081.28 890.824Z" fill="#49176D"/>
<path d="M87.2415 1023.42V1164.42L115.22 1173.33V1180.46H26.4522V1173.33L54.4306 1164.42V1023.42H22.8914L10.4283 1058.8H0V1010.7H141.672V1058.8H130.989L118.272 1023.42H87.2415ZM199.918 1075.34V1164.42L218.74 1173.33V1180.46H148.031V1173.33L169.396 1164.42V1023.93L146.759 1017.82V1010.7L199.918 1000.52V1067.71L202.716 1066.69C222.809 1058.8 236.544 1054.98 244.938 1054.98C253.84 1054.98 262.742 1059.05 268.083 1065.67C274.951 1073.82 276.986 1081.45 276.986 1097.23V1164.42L298.605 1173.33V1180.46H228.914V1173.33L246.718 1164.42V1104.61C246.718 1081.71 239.342 1072.8 220.775 1072.8C213.653 1072.8 204.751 1073.82 199.918 1075.34ZM410.01 1115.81H330.653C330.653 1147.62 348.203 1166.46 377.453 1166.46C384.829 1166.46 394.495 1165.18 406.195 1162.64L407.975 1172.06C387.373 1179.18 369.568 1183 357.36 1183C321.497 1183 298.605 1159.33 298.605 1121.92C298.605 1084.51 324.04 1054.98 358.377 1054.98C379.997 1054.98 394.495 1062.11 402.125 1076.62C407.975 1087.56 409.501 1095.19 410.01 1115.81ZM376.436 1102.83C375.927 1075.85 370.077 1065.16 355.325 1065.16C339.555 1065.16 330.907 1079.67 330.907 1107.16L376.436 1102.83ZM526.756 1100.54V1164.42L548.121 1173.33V1180.46H472.325V1173.33L493.691 1164.42V1026.73L472.325 1017.82V1010.7H548.121C568.723 1010.7 578.897 1013.5 588.562 1021.64C597.973 1029.02 602.552 1039.46 602.552 1051.93C602.552 1074.83 588.308 1091.38 564.399 1096.21L611.2 1164.93L631.802 1173.33V1180.46H582.713L532.097 1100.54H526.756ZM526.756 1089.34H538.456C556.26 1089.34 568.469 1075.09 568.469 1054.73C568.469 1034.37 556.769 1022.15 537.947 1022.15H526.756V1089.34ZM737.102 1115.81H657.745C657.745 1147.62 675.295 1166.46 704.545 1166.46C711.922 1166.46 721.587 1165.18 733.287 1162.64L735.067 1172.06C714.465 1179.18 696.661 1183 684.452 1183C648.589 1183 625.697 1159.33 625.697 1121.92C625.697 1084.51 651.132 1054.98 685.469 1054.98C707.089 1054.98 721.587 1062.11 729.217 1076.62C735.067 1087.56 736.593 1095.19 737.102 1115.81ZM703.528 1102.83C703.019 1075.85 697.169 1065.16 682.417 1065.16C666.648 1065.16 658 1079.67 658 1107.16L703.528 1102.83ZM789.243 1065.93L777.544 1089.34H754.906V1064.91C777.035 1058.29 793.567 1054.98 805.776 1054.98C816.968 1054.98 825.361 1056.76 832.228 1060.58C841.894 1066.18 844.691 1071.53 844.691 1085.78V1157.55C844.691 1160.35 847.235 1162.38 852.831 1163.91L866.311 1167.22V1174.35L863.768 1175.11L852.576 1178.42C846.726 1180.2 842.911 1181.22 841.385 1181.47C837.824 1182.49 834.263 1183 830.702 1183C822.309 1183 818.239 1179.44 815.187 1169.26C800.689 1177.91 787.209 1183 778.052 1183C758.722 1183 744.732 1169.51 744.732 1151.19C744.732 1135.66 753.126 1125.23 768.896 1121.15C780.087 1118.35 793.567 1116.32 814.424 1114.54V1084.76C814.424 1070.51 809.846 1065.42 796.874 1065.42C795.857 1065.42 794.839 1065.42 791.024 1065.67C790.515 1065.67 790.007 1065.93 789.243 1065.93ZM814.424 1122.94L811.117 1123.44L799.672 1125.99C781.104 1129.81 776.272 1134.13 776.272 1145.84C776.272 1157.55 784.665 1165.18 797.637 1165.18C802.724 1165.18 808.574 1164.17 814.424 1162.38V1122.94ZM894.289 1164.42V1023.93L871.652 1017.82V1010.7L924.811 1000.52V1164.42L947.448 1173.33V1180.46H872.924V1173.33L894.289 1164.42ZM1026.55 1164.42V1026.73L1005.19 1017.82V1010.7H1085.56C1114.56 1010.7 1130.83 1015.79 1146.6 1029.28C1164.41 1044.55 1173.31 1065.93 1173.31 1093.16C1173.31 1120.39 1164.41 1143.04 1147.37 1158.82C1130.83 1173.84 1110.23 1180.46 1080.47 1180.46H1005.19V1173.33L1026.55 1164.42ZM1059.62 1167.73H1075.39C1095.22 1167.73 1109.72 1162.38 1119.9 1151.44C1132.61 1137.44 1139.23 1118.1 1139.23 1094.69C1139.23 1071.27 1132.87 1053.2 1120.91 1040.48C1109.47 1028.26 1096.24 1023.42 1073.61 1023.42H1059.62V1167.73ZM1294.89 1115.81H1215.53C1215.53 1147.62 1233.08 1166.46 1262.33 1166.46C1269.71 1166.46 1279.37 1165.18 1291.07 1162.64L1292.85 1172.06C1272.25 1179.18 1254.45 1183 1242.24 1183C1206.38 1183 1183.48 1159.33 1183.48 1121.92C1183.48 1084.51 1208.92 1054.98 1243.26 1054.98C1264.88 1054.98 1279.37 1062.11 1287 1076.62C1292.85 1087.56 1294.38 1095.19 1294.89 1115.81ZM1261.31 1102.83C1260.81 1075.85 1254.96 1065.16 1240.2 1065.16C1224.43 1065.16 1215.79 1079.67 1215.79 1107.16L1261.31 1102.83ZM1347.03 1065.93L1335.33 1089.34H1312.69V1064.91C1334.82 1058.29 1351.35 1054.98 1363.56 1054.98C1374.75 1054.98 1383.15 1056.76 1390.01 1060.58C1399.68 1066.18 1402.48 1071.53 1402.48 1085.78V1157.55C1402.48 1160.35 1405.02 1162.38 1410.62 1163.91L1424.1 1167.22V1174.35L1421.55 1175.11L1410.36 1178.42C1404.51 1180.2 1400.7 1181.22 1399.17 1181.47C1395.61 1182.49 1392.05 1183 1388.49 1183C1380.1 1183 1376.03 1179.44 1372.97 1169.26C1358.48 1177.91 1345 1183 1335.84 1183C1316.51 1183 1302.52 1169.51 1302.52 1151.19C1302.52 1135.66 1310.91 1125.23 1326.68 1121.15C1337.87 1118.35 1351.35 1116.32 1372.21 1114.54V1084.76C1372.21 1070.51 1367.63 1065.42 1354.66 1065.42C1353.64 1065.42 1352.63 1065.42 1348.81 1065.67C1348.3 1065.67 1347.79 1065.93 1347.03 1065.93ZM1372.21 1122.94L1368.9 1123.44L1357.46 1125.99C1338.89 1129.81 1334.06 1134.13 1334.06 1145.84C1334.06 1157.55 1342.45 1165.18 1355.42 1165.18C1360.51 1165.18 1366.36 1164.17 1372.21 1162.38V1122.94ZM1452.08 1164.42V1023.93L1429.44 1017.82V1010.7L1482.6 1000.52V1164.42L1505.23 1173.33V1180.46H1430.71V1173.33L1452.08 1164.42ZM1515.66 1167.22C1515.66 1156.53 1521.26 1151.44 1532.45 1151.44C1544.66 1151.44 1550 1156.28 1550 1167.48C1550 1177.91 1544.66 1183 1533.21 1183C1520.75 1183 1515.66 1178.42 1515.66 1167.22Z" fill="#49176D"/>
</svg>
