<svg width="2000" height="1330" viewBox="0 0 2000 1330" fill="none" xmlns="http://www.w3.org/2000/svg">
<path d="M60.281 263.713V331.413L81.6463 340.321V345.92H17.2961V340.321L38.6614 331.413V190.924L17.2961 181.762V176.162H84.9528C105.809 176.162 112.677 177.944 121.833 185.834C130.736 193.214 135.568 203.649 135.568 216.375C135.568 239.79 120.307 255.569 93.855 259.387L143.707 331.413L165.836 340.321V345.92H127.683L70.9636 263.713H60.281ZM60.281 254.806H78.8484C98.942 254.806 112.677 240.299 112.677 218.92C112.677 197.541 100.468 185.07 79.3571 185.07H60.281V254.806ZM266.049 281.275H185.929C186.184 302.908 190.507 314.87 201.953 324.287C210.092 330.904 221.538 334.467 235.018 334.467C240.868 334.467 252.568 333.449 261.216 331.922L262.742 331.667L264.014 338.539C249.771 343.375 228.914 347.192 218.231 347.192C185.929 347.192 164.31 324.032 164.31 288.91C164.31 251.242 188.218 222.992 220.266 222.992C241.377 222.992 258.419 235.717 263.251 254.297C265.032 261.932 265.54 266.004 266.049 281.275ZM244.684 271.349C244.429 243.862 236.29 231.9 217.977 231.9C198.392 231.9 187.964 245.898 185.929 274.912L244.684 271.349ZM287.923 253.533V231.391L289.703 230.882C307.253 225.283 319.462 222.992 330.653 222.992C354.817 222.992 366.262 232.409 366.262 252.515V320.723C366.262 327.595 367.025 328.613 374.656 330.904L387.882 334.721V339.557L370.586 345.411C367.534 346.429 362.193 347.192 359.141 347.192C351.51 347.192 348.204 343.884 346.423 335.485L341.845 337.521L333.197 341.084C326.584 343.884 323.023 345.411 322.006 345.665C318.699 346.683 314.63 347.192 310.051 347.192C290.975 347.192 277.749 334.721 277.749 316.906C277.749 301.381 286.397 291.2 302.929 287.128C312.34 284.838 328.619 282.547 346.169 281.02V253.533C346.169 237.499 339.301 231.9 319.462 231.9C316.41 231.9 315.138 232.154 311.577 232.409L300.895 253.533H287.923ZM346.169 287.637C335.232 288.91 327.601 290.437 317.936 292.727C304.964 296.036 299.114 302.144 299.114 313.088C299.114 326.068 309.288 334.467 324.803 334.467C330.399 334.467 333.96 333.958 342.608 331.413L346.169 330.649V287.637ZM398.819 345.92V340.321L421.456 331.413V188.124L398.819 181.507V176.671L441.804 167V331.413L463.169 340.321V345.92H398.819ZM570.25 345.411V388.168L596.702 396.058V401.657H528.537V396.058L549.902 388.168V242.589L528.537 235.972V230.627L570.25 221.465V235.208C586.782 227.573 602.043 222.992 610.437 222.992C636.38 222.992 656.22 247.17 656.22 278.984C656.22 318.687 627.478 347.192 587.291 347.192C580.678 347.192 576.354 346.683 570.25 345.411ZM570.25 335.994C576.1 336.757 580.424 337.012 586.274 337.012C616.541 337.012 634.854 317.924 634.854 286.11C634.854 254.297 619.085 236.99 592.124 236.99C584.493 236.99 578.643 238.263 570.25 241.571V335.994ZM772.203 281.275H692.083C692.337 302.908 696.661 314.87 708.107 324.287C716.246 330.904 727.692 334.467 741.172 334.467C747.022 334.467 758.722 333.449 767.37 331.922L768.896 331.667L770.168 338.539C755.924 343.375 735.068 347.192 724.385 347.192C692.083 347.192 670.463 324.032 670.463 288.91C670.463 251.242 694.372 222.992 726.42 222.992C747.531 222.992 764.572 235.717 769.405 254.297C771.185 261.932 771.694 266.004 772.203 281.275ZM750.837 271.349C750.583 243.862 742.444 231.9 724.131 231.9C704.546 231.9 694.118 245.898 692.083 274.912L750.837 271.349ZM786.192 287.637C786.192 249.206 810.1 222.992 845.455 222.992C879.792 223.246 902.683 247.425 902.683 283.565C902.683 319.705 877.249 347.192 842.657 347.192C808.066 347.192 786.192 323.778 786.192 287.637ZM808.574 285.601C808.574 316.906 823.072 338.03 844.692 338.03C866.311 338.03 880.046 317.924 880.046 288.146C880.046 255.06 865.04 232.409 843.166 232.409C821.292 232.409 808.574 252.006 808.574 285.601ZM949.738 345.411V388.168L976.19 396.058V401.657H908.025V396.058L929.39 388.168V242.589L908.025 235.972V230.627L949.738 221.465V235.208C966.27 227.573 981.531 222.992 989.925 222.992C1015.87 222.992 1035.71 247.17 1035.71 278.984C1035.71 318.687 1006.97 347.192 966.779 347.192C960.166 347.192 955.842 346.683 949.738 345.411ZM949.738 335.994C955.588 336.757 959.912 337.012 965.762 337.012C996.029 337.012 1014.34 317.924 1014.34 286.11C1014.34 254.297 998.573 236.99 971.612 236.99C963.981 236.99 958.131 238.263 949.738 241.571V335.994ZM1039.52 345.92V340.321L1062.16 331.413V188.124L1039.52 181.507V176.671L1082.51 167V331.413L1103.87 340.321V345.92H1039.52ZM1210.19 281.275H1130.07C1130.33 302.908 1134.65 314.87 1146.09 324.287C1154.23 330.904 1165.68 334.467 1179.16 334.467C1185.01 334.467 1196.71 333.449 1205.36 331.922L1206.88 331.667L1208.16 338.539C1193.91 343.375 1173.06 347.192 1162.37 347.192C1130.07 347.192 1108.45 324.032 1108.45 288.91C1108.45 251.242 1132.36 222.992 1164.41 222.992C1185.52 222.992 1202.56 235.717 1207.39 254.297C1209.17 261.932 1209.68 266.004 1210.19 281.275ZM1188.83 271.349C1188.57 243.862 1180.43 231.9 1162.12 231.9C1142.53 231.9 1132.11 245.898 1130.07 274.912L1188.83 271.349ZM1228.25 334.467C1228.25 324.541 1232.06 320.469 1241.73 320.469C1252.41 320.469 1256.23 324.287 1256.23 334.976C1256.23 344.647 1252.41 348.465 1243 348.465C1232.06 348.465 1228.25 344.902 1228.25 334.467Z" fill="#49176D"/>
<path d="M60.281 541.891V609.591L81.6463 618.499V624.098H17.2961V618.499L38.6614 609.591V469.102L17.2961 459.94V454.34H84.9528C105.809 454.34 112.677 456.122 121.833 464.012C130.736 471.392 135.568 481.827 135.568 494.553C135.568 517.968 120.307 533.747 93.855 537.565L143.707 609.591L165.836 618.499V624.098H127.683L70.9636 541.891H60.281ZM60.281 532.984H78.8484C98.942 532.984 112.677 518.477 112.677 497.098C112.677 475.719 100.468 463.248 79.3571 463.248H60.281V532.984ZM266.049 559.453H185.929C186.184 581.086 190.507 593.048 201.953 602.465C210.092 609.082 221.538 612.645 235.018 612.645C240.868 612.645 252.568 611.627 261.216 610.1L262.742 609.845L264.014 616.717C249.771 621.553 228.914 625.37 218.231 625.37C185.929 625.37 164.31 602.21 164.31 567.088C164.31 529.421 188.218 501.17 220.266 501.17C241.377 501.17 258.419 513.896 263.251 532.475C265.032 540.11 265.54 544.182 266.049 559.453ZM244.684 549.527C244.429 522.04 236.29 510.078 217.977 510.078C198.392 510.078 187.964 524.076 185.929 553.09L244.684 549.527ZM287.923 531.711V509.569L289.703 509.06C307.253 503.461 319.462 501.17 330.653 501.17C354.817 501.17 366.262 510.587 366.262 530.693V598.902C366.262 605.773 367.025 606.791 374.656 609.082L387.882 612.9V617.735L370.586 623.589C367.534 624.607 362.193 625.37 359.141 625.37C351.51 625.37 348.204 622.062 346.423 613.663L341.845 615.699L333.197 619.262C326.584 622.062 323.023 623.589 322.006 623.843C318.699 624.861 314.63 625.37 310.051 625.37C290.975 625.37 277.749 612.899 277.749 595.084C277.749 579.559 286.397 569.378 302.929 565.306C312.34 563.016 328.619 560.725 346.169 559.198V531.711C346.169 515.677 339.301 510.078 319.462 510.078C316.41 510.078 315.138 510.332 311.577 510.587L300.895 531.711H287.923ZM346.169 565.815C335.232 567.088 327.601 568.615 317.936 570.906C304.964 574.214 299.114 580.322 299.114 591.266C299.114 604.246 309.288 612.645 324.803 612.645C330.399 612.645 333.96 612.136 342.608 609.591L346.169 608.827V565.815ZM398.819 624.098V618.499L421.456 609.591V466.302L398.819 459.685V454.849L441.804 445.178V609.591L463.169 618.499V624.098H398.819ZM531.334 619.771V592.539H540.491L552.191 615.19C556.769 616.208 558.295 616.463 562.619 616.463C579.915 616.463 589.58 609.591 589.58 597.374C589.58 589.23 586.528 584.904 576.1 578.032L552.954 563.016C537.185 552.835 532.352 546.218 532.352 534.256C532.352 513.641 546.595 501.17 570.25 501.17C578.643 501.17 588.817 502.697 602.552 505.497L603.315 505.751V530.439H594.413L584.493 509.823C579.915 509.06 578.389 508.805 573.556 508.805C558.295 508.805 548.885 515.168 548.885 525.348C548.885 532.22 553.972 538.328 565.417 545.709L585.511 558.18C601.789 568.36 607.385 575.996 607.385 588.721C607.385 610.609 591.615 625.37 568.469 625.37C560.839 625.37 546.087 623.08 533.369 620.28L531.334 619.771ZM638.67 511.35H619.848V506.006C629.259 501.934 638.415 496.589 641.722 493.28C642.739 492.262 644.265 489.717 646.809 485.645C649.352 481.318 651.387 477.246 652.913 473.429C653.167 472.92 653.422 471.902 653.93 470.883H659.017V502.443H699.459V511.35H659.017V591.521C659.017 608.318 664.613 613.918 681.4 613.918C688.522 613.918 693.863 613.409 700.476 611.627L702.257 619.008C686.996 622.571 670.209 625.37 663.087 625.37C647.317 625.37 638.67 616.208 638.67 598.647V511.35ZM703.529 565.815C703.529 527.384 727.437 501.17 762.792 501.17C797.129 501.425 820.02 525.603 820.02 561.743C820.02 597.883 794.585 625.37 759.994 625.37C725.402 625.37 703.529 601.956 703.529 565.815ZM725.911 563.779C725.911 595.084 740.409 616.208 762.029 616.208C783.648 616.208 797.383 596.102 797.383 566.324C797.383 533.238 782.376 510.587 760.503 510.587C738.629 510.587 725.911 530.184 725.911 563.779ZM826.124 624.098V618.499L847.744 609.591V520.513L826.124 514.405V509.06L867.838 499.898V514.405L871.907 512.623C889.203 504.733 900.394 501.17 907.262 501.17C911.331 501.17 915.146 502.443 918.707 504.479V531.711H903.701L896.07 517.204C892.509 516.695 889.712 516.441 887.931 516.441C882.081 516.441 874.959 517.968 867.838 520.513V609.591L894.544 618.499V624.098H826.124ZM929.39 624.098V618.499L951.01 609.591V520.767L929.39 514.15V509.314L971.103 499.898V609.591L992.723 618.499V624.098H929.39ZM947.194 458.413C947.194 449.505 951.264 445.433 960.675 445.433C970.849 445.433 974.918 448.996 974.918 457.649C974.918 466.811 970.849 470.883 960.929 470.883C951.01 470.883 947.194 466.811 947.194 458.413ZM1098.79 559.453H1018.67C1018.92 581.086 1023.24 593.048 1034.69 602.465C1042.83 609.082 1054.28 612.645 1067.76 612.645C1073.61 612.645 1085.31 611.627 1093.95 610.1L1095.48 609.845L1096.75 616.717C1082.51 621.553 1061.65 625.37 1050.97 625.37C1018.67 625.37 997.047 602.21 997.047 567.088C997.047 529.421 1020.96 501.17 1053 501.17C1074.11 501.17 1091.16 513.896 1095.99 532.475C1097.77 540.11 1098.28 544.182 1098.79 559.453ZM1077.42 549.527C1077.17 522.04 1069.03 510.078 1050.71 510.078C1031.13 510.078 1020.7 524.076 1018.67 553.09L1077.42 549.527ZM1112.52 619.771V592.539H1121.68L1133.38 615.19C1137.96 616.208 1139.48 616.463 1143.81 616.463C1161.1 616.463 1170.77 609.591 1170.77 597.374C1170.77 589.23 1167.71 584.904 1157.29 578.032L1134.14 563.016C1118.37 552.835 1113.54 546.218 1113.54 534.256C1113.54 513.641 1127.78 501.17 1151.44 501.17C1159.83 501.17 1170 502.697 1183.74 505.497L1184.5 505.751V530.439H1175.6L1165.68 509.823C1161.1 509.06 1159.58 508.805 1154.74 508.805C1139.48 508.805 1130.07 515.168 1130.07 525.348C1130.07 532.22 1135.16 538.328 1146.6 545.709L1166.7 558.18C1182.98 568.36 1188.57 575.996 1188.57 588.721C1188.57 610.609 1172.8 625.37 1149.66 625.37C1142.03 625.37 1127.27 623.08 1114.56 620.28L1112.52 619.771ZM1210.95 612.645C1210.95 602.719 1214.77 598.647 1224.43 598.647C1235.12 598.647 1238.93 602.465 1238.93 613.154C1238.93 622.825 1235.12 626.643 1225.71 626.643C1214.77 626.643 1210.95 623.08 1210.95 612.645Z" fill="#49176D"/>
<path d="M60.281 820.071V887.77L81.6463 896.678V902.277H17.2961V896.678L38.6614 887.77V747.281L17.2961 738.119V732.52H84.9528C105.809 732.52 112.677 734.301 121.833 742.191C130.736 749.572 135.568 760.007 135.568 772.732C135.568 796.147 120.307 811.927 93.855 815.744L143.707 887.77L165.836 896.678V902.277H127.683L70.9636 820.071H60.281ZM60.281 811.163H78.8484C98.942 811.163 112.677 796.656 112.677 775.277C112.677 753.899 100.468 741.428 79.3571 741.428H60.281V811.163ZM266.049 837.632H185.929C186.184 859.265 190.507 871.227 201.953 880.644C210.092 887.261 221.538 890.824 235.018 890.824C240.868 890.824 252.568 889.806 261.216 888.279L262.742 888.025L264.014 894.897C249.771 899.732 228.914 903.55 218.231 903.55C185.929 903.55 164.31 880.389 164.31 845.267C164.31 807.6 188.218 779.349 220.266 779.349C241.377 779.349 258.419 792.075 263.251 810.654C265.032 818.289 265.54 822.361 266.049 837.632ZM244.684 827.706C244.429 800.219 236.29 788.257 217.977 788.257C198.392 788.257 187.964 802.255 185.929 831.269L244.684 827.706ZM287.923 809.891V787.748L289.703 787.239C307.253 781.64 319.462 779.349 330.653 779.349C354.817 779.349 366.262 788.766 366.262 808.873V877.081C366.262 883.953 367.025 884.971 374.656 887.261L387.882 891.079V895.915L370.586 901.768C367.534 902.786 362.193 903.55 359.141 903.55C351.51 903.55 348.204 900.241 346.423 891.842L341.845 893.879L333.197 897.442C326.584 900.241 323.023 901.768 322.006 902.023C318.699 903.041 314.63 903.55 310.051 903.55C290.975 903.55 277.749 891.079 277.749 873.263C277.749 857.738 286.397 847.558 302.929 843.486C312.34 841.195 328.619 838.905 346.169 837.377V809.891C346.169 793.856 339.301 788.257 319.462 788.257C316.41 788.257 315.138 788.512 311.577 788.766L300.895 809.891H287.923ZM346.169 843.995C335.232 845.267 327.601 846.794 317.936 849.085C304.964 852.394 299.114 858.502 299.114 869.446C299.114 882.426 309.288 890.824 324.803 890.824C330.399 890.824 333.96 890.315 342.608 887.77L346.169 887.007V843.995ZM398.819 902.277V896.678L421.456 887.77V744.482L398.819 737.865V733.029L441.804 723.357V887.77L463.169 896.678V902.277H398.819ZM574.574 904.822L531.589 793.093L516.328 786.221V780.622H571.776V786.221L553.971 793.347L575.082 851.885C579.406 863.846 580.424 867.41 583.476 879.372L615.778 794.62L598.482 786.221V780.622H645.283V786.221L630.53 794.62L582.713 904.822H574.574ZM658.509 809.891V787.748L660.289 787.239C677.839 781.64 690.048 779.349 701.239 779.349C725.402 779.349 736.848 788.766 736.848 808.873V877.081C736.848 883.953 737.611 884.971 745.242 887.261L758.468 891.079V895.915L741.172 901.768C738.12 902.786 732.778 903.55 729.726 903.55C722.096 903.55 718.789 900.241 717.009 891.842L712.431 893.879L703.783 897.442C697.17 900.241 693.609 901.768 692.591 902.023C689.285 903.041 685.215 903.55 680.637 903.55C661.561 903.55 648.335 891.079 648.335 873.263C648.335 857.738 656.983 847.558 673.515 843.486C682.926 841.195 699.205 838.905 716.755 837.377V809.891C716.755 793.856 709.887 788.257 690.048 788.257C686.996 788.257 685.724 788.512 682.163 788.766L671.481 809.891H658.509ZM716.755 843.995C705.818 845.267 698.187 846.794 688.522 849.085C675.55 852.394 669.7 858.502 669.7 869.446C669.7 882.426 679.874 890.824 695.389 890.824C700.985 890.824 704.546 890.315 713.194 887.77L716.755 887.007V843.995ZM769.405 902.277V896.678L792.042 887.77V744.482L769.405 737.865V733.029L812.39 723.357V887.77L833.755 896.678V902.277H769.405ZM931.933 904.313V892.606L927.61 893.879L914.892 897.696C902.175 901.768 893.018 903.55 886.659 903.55C867.075 903.55 854.611 888.788 854.611 865.882V798.438L833.246 792.075V786.985L874.959 777.568V860.538C874.959 881.662 883.098 889.552 905.227 889.552C913.875 889.552 922.777 888.534 931.933 886.752V798.438L910.314 792.075V786.985L952.027 777.568V884.462L972.375 890.824V895.915L931.933 904.313ZM1080.22 837.632H1000.1C1000.35 859.265 1004.68 871.227 1016.12 880.644C1024.26 887.261 1035.71 890.824 1049.19 890.824C1055.04 890.824 1066.74 889.806 1075.39 888.279L1076.91 888.025L1078.18 894.897C1063.94 899.732 1043.08 903.55 1032.4 903.55C1000.1 903.55 978.479 880.389 978.479 845.267C978.479 807.6 1002.39 779.349 1034.44 779.349C1055.55 779.349 1072.59 792.075 1077.42 810.654C1079.2 818.289 1079.71 822.361 1080.22 837.632ZM1058.85 827.706C1058.6 800.219 1050.46 788.257 1032.15 788.257C1012.56 788.257 1002.13 802.255 1000.1 831.269L1058.85 827.706ZM1098.28 890.824C1098.28 880.899 1102.09 876.826 1111.76 876.826C1122.44 876.826 1126.26 880.644 1126.26 891.333C1126.26 901.005 1122.44 904.822 1113.03 904.822C1102.09 904.822 1098.28 901.259 1098.28 890.824Z" fill="#49176D"/>
<path d="M87.2415 1023.42V1164.42L115.22 1173.33V1180.45H26.4522V1173.33L54.4306 1164.42V1023.42H22.8914L10.4283 1058.8H0V1010.7H141.672V1058.8H130.989L118.272 1023.42H87.2415ZM199.918 1075.34V1164.42L218.74 1173.33V1180.45H148.031V1173.33L169.396 1164.42V1023.93L146.759 1017.82V1010.7L199.918 1000.52V1067.71L202.716 1066.69C222.809 1058.8 236.544 1054.98 244.938 1054.98C253.84 1054.98 262.742 1059.05 268.083 1065.67C274.951 1073.82 276.986 1081.45 276.986 1097.23V1164.42L298.605 1173.33V1180.45H228.914V1173.33L246.718 1164.42V1104.61C246.718 1081.71 239.342 1072.8 220.775 1072.8C213.653 1072.8 204.751 1073.82 199.918 1075.34ZM410.01 1115.81H330.653C330.653 1147.62 348.203 1166.46 377.453 1166.46C384.829 1166.46 394.495 1165.18 406.195 1162.64L407.975 1172.06C387.373 1179.18 369.568 1183 357.36 1183C321.497 1183 298.605 1159.33 298.605 1121.92C298.605 1084.5 324.04 1054.98 358.377 1054.98C379.997 1054.98 394.495 1062.11 402.125 1076.62C407.975 1087.56 409.501 1095.19 410.01 1115.81ZM376.436 1102.83C375.927 1075.85 370.077 1065.16 355.325 1065.16C339.555 1065.16 330.907 1079.67 330.907 1107.16L376.436 1102.83ZM526.756 1100.54V1164.42L548.121 1173.33V1180.45H472.325V1173.33L493.691 1164.42V1026.73L472.325 1017.82V1010.7H548.121C568.723 1010.7 578.897 1013.5 588.563 1021.64C597.973 1029.02 602.552 1039.46 602.552 1051.93C602.552 1074.83 588.308 1091.38 564.399 1096.21L611.199 1164.93L631.802 1173.33V1180.45H582.713L532.097 1100.54H526.756ZM526.756 1089.34H538.456C556.26 1089.34 568.469 1075.09 568.469 1054.73C568.469 1034.37 556.769 1022.15 537.947 1022.15H526.756V1089.34ZM737.102 1115.81H657.745C657.745 1147.62 675.295 1166.46 704.545 1166.46C711.922 1166.46 721.587 1165.18 733.287 1162.64L735.067 1172.06C714.465 1179.18 696.661 1183 684.452 1183C648.589 1183 625.697 1159.33 625.697 1121.92C625.697 1084.5 651.132 1054.98 685.469 1054.98C707.089 1054.98 721.587 1062.11 729.217 1076.62C735.067 1087.56 736.593 1095.19 737.102 1115.81ZM703.528 1102.83C703.019 1075.85 697.169 1065.16 682.417 1065.16C666.648 1065.16 658 1079.67 658 1107.16L703.528 1102.83ZM789.243 1065.93L777.543 1089.34H754.906V1064.91C777.035 1058.29 793.567 1054.98 805.776 1054.98C816.967 1054.98 825.361 1056.76 832.228 1060.58C841.894 1066.18 844.691 1071.53 844.691 1085.78V1157.55C844.691 1160.35 847.235 1162.38 852.831 1163.91L866.311 1167.22V1174.35L863.768 1175.11L852.576 1178.42C846.726 1180.2 842.911 1181.22 841.385 1181.47C837.824 1182.49 834.263 1183 830.702 1183C822.309 1183 818.239 1179.44 815.187 1169.26C800.689 1177.91 787.209 1183 778.052 1183C758.722 1183 744.733 1169.51 744.733 1151.19C744.733 1135.66 753.126 1125.23 768.896 1121.15C780.087 1118.35 793.567 1116.32 814.424 1114.54V1084.76C814.424 1070.51 809.846 1065.42 796.874 1065.42C795.857 1065.42 794.839 1065.42 791.024 1065.67C790.515 1065.67 790.007 1065.93 789.243 1065.93ZM814.424 1122.94L811.117 1123.44L799.672 1125.99C781.104 1129.81 776.272 1134.13 776.272 1145.84C776.272 1157.55 784.665 1165.18 797.637 1165.18C802.724 1165.18 808.574 1164.17 814.424 1162.38V1122.94ZM894.289 1164.42V1023.93L871.652 1017.82V1010.7L924.811 1000.52V1164.42L947.448 1173.33V1180.45H872.924V1173.33L894.289 1164.42ZM1026.55 1164.42V1026.73L1005.19 1017.82V1010.7H1085.56C1114.56 1010.7 1130.83 1015.79 1146.6 1029.28C1164.41 1044.55 1173.31 1065.93 1173.31 1093.16C1173.31 1120.39 1164.41 1143.04 1147.37 1158.82C1130.83 1173.84 1110.23 1180.45 1080.47 1180.45H1005.19V1173.33L1026.55 1164.42ZM1059.62 1167.73H1075.39C1095.22 1167.73 1109.72 1162.38 1119.9 1151.44C1132.61 1137.44 1139.23 1118.1 1139.23 1094.69C1139.23 1071.27 1132.87 1053.2 1120.91 1040.47C1109.47 1028.26 1096.24 1023.42 1073.61 1023.42H1059.62V1167.73ZM1294.89 1115.81H1215.53C1215.53 1147.62 1233.08 1166.46 1262.33 1166.46C1269.71 1166.46 1279.37 1165.18 1291.07 1162.64L1292.85 1172.06C1272.25 1179.18 1254.45 1183 1242.24 1183C1206.38 1183 1183.48 1159.33 1183.48 1121.92C1183.48 1084.5 1208.92 1054.98 1243.26 1054.98C1264.88 1054.98 1279.37 1062.11 1287 1076.62C1292.85 1087.56 1294.38 1095.19 1294.89 1115.81ZM1261.31 1102.83C1260.81 1075.85 1254.96 1065.16 1240.2 1065.16C1224.43 1065.16 1215.79 1079.67 1215.79 1107.16L1261.31 1102.83ZM1347.03 1065.93L1335.33 1089.34H1312.69V1064.91C1334.82 1058.29 1351.35 1054.98 1363.56 1054.98C1374.75 1054.98 1383.15 1056.76 1390.01 1060.58C1399.68 1066.18 1402.48 1071.53 1402.48 1085.78V1157.55C1402.48 1160.35 1405.02 1162.38 1410.62 1163.91L1424.1 1167.22V1174.35L1421.55 1175.11L1410.36 1178.42C1404.51 1180.2 1400.7 1181.22 1399.17 1181.47C1395.61 1182.49 1392.05 1183 1388.49 1183C1380.1 1183 1376.03 1179.44 1372.97 1169.26C1358.48 1177.91 1345 1183 1335.84 1183C1316.51 1183 1302.52 1169.51 1302.52 1151.19C1302.52 1135.66 1310.91 1125.23 1326.68 1121.15C1337.87 1118.35 1351.35 1116.32 1372.21 1114.54V1084.76C1372.21 1070.51 1367.63 1065.42 1354.66 1065.42C1353.64 1065.42 1352.63 1065.42 1348.81 1065.67C1348.3 1065.67 1347.79 1065.93 1347.03 1065.93ZM1372.21 1122.94L1368.9 1123.44L1357.46 1125.99C1338.89 1129.81 1334.06 1134.13 1334.06 1145.84C1334.06 1157.55 1342.45 1165.18 1355.42 1165.18C1360.51 1165.18 1366.36 1164.17 1372.21 1162.38V1122.94ZM1452.08 1164.42V1023.93L1429.44 1017.82V1010.7L1482.6 1000.52V1164.42L1505.23 1173.33V1180.45H1430.71V1173.33L1452.08 1164.42ZM1515.66 1167.22C1515.66 1156.53 1521.26 1151.44 1532.45 1151.44C1544.66 1151.44 1550 1156.28 1550 1167.47C1550 1177.91 1544.66 1183 1533.21 1183C1520.75 1183 1515.66 1178.42 1515.66 1167.22Z" fill="#49176D"/>
</svg>
