<svg width="36" height="36" viewBox="0 0 36 36" fill="none" xmlns="http://www.w3.org/2000/svg">
<g clip-path="url(#clip0_195_57)">
<path d="M18 0C8.06205 0 0 8.06206 0 18C0 27.9379 8.05151 36 18 36C27.9485 36 36 27.9379 36 18C36 8.06206 27.9485 0 18 0ZM27.3688 27.2318C26.3782 28.2962 24.7026 28.3595 23.6382 27.3688L17.0831 20.8138C15.1967 22.7108 12.541 25.356 12.541 25.356C12.267 25.63 11.9297 25.9145 11.5293 25.9883C10.8443 26.1042 9.93794 25.4824 9.85363 24.7763L9.25292 19.9813L7.92505 9.47424C7.92505 9.38993 7.92505 9.31615 7.92505 9.23184C7.92505 9.18969 7.92505 9.14753 7.92505 9.11592C7.92505 9.03161 7.95667 8.9473 7.96721 8.87353C7.96721 8.85246 7.96722 8.82085 7.97776 8.79977C7.99884 8.73654 8.03044 8.68383 8.06205 8.6206C8.07259 8.58898 8.09368 8.54684 8.10422 8.51522C8.13583 8.47307 8.16744 8.43092 8.19906 8.38876C8.23068 8.35715 8.25174 8.31499 8.28336 8.28337C8.32551 8.24122 8.36768 8.22014 8.3993 8.18853C8.44145 8.15691 8.47306 8.12528 8.52576 8.09367C8.55737 8.07259 8.58899 8.06206 8.63115 8.04099C8.69438 8.00937 8.74706 7.97775 8.81029 7.96721C8.83136 7.96721 8.86299 7.96722 8.88407 7.95668C8.96837 7.9356 9.04216 7.91451 9.12647 7.91451C9.15808 7.91451 9.20022 7.91451 9.24238 7.91451C9.31615 7.91451 9.38992 7.91451 9.47423 7.91451L19.9813 9.24239L24.7764 9.85363C25.4824 9.93794 26.1042 10.8443 25.9777 11.5293C25.9145 11.9297 25.63 12.2564 25.3454 12.541C25.3454 12.541 22.6897 15.1967 20.8033 17.0831L27.2213 23.5012C28.2857 24.4918 28.3489 26.1674 27.3583 27.2318H27.3688Z" fill="#ED135D"/>
</g>
<defs>
<clipPath id="clip0_195_57">
<rect width="36" height="36" rx="18" fill="white"/>
</clipPath>
</defs>
</svg>
