<svg width="36" height="36" viewBox="0 0 36 36" fill="none" xmlns="http://www.w3.org/2000/svg">
<g clip-path="url(#clip0_195_60)">
<path d="M18 0C8.06206 0 0 8.06206 0 18C0 27.9379 8.05152 36 18 36C27.9485 36 36 27.9379 36 18C36 8.06206 27.9379 0 18 0ZM27.9801 18.137C27.9801 18.137 27.9801 18.2424 27.959 18.2951C27.959 18.3267 27.9274 18.3689 27.9168 18.4005C27.8958 18.4637 27.8747 18.5269 27.8431 18.5796C27.8325 18.6007 27.8115 18.6218 27.8009 18.6429C27.7588 18.7166 27.7166 18.7799 27.6639 18.8431C27.6429 18.8747 27.6112 18.8958 27.5796 18.9274C27.5269 18.9801 27.4742 19.0433 27.411 19.0855L19.0433 25.5773L15.2283 28.5386C14.6698 28.9707 13.5843 28.7705 13.1838 28.2119C12.952 27.8852 12.9204 27.4426 12.9204 27.0527V17.9895C12.9204 17.9368 12.9204 8.92623 12.9204 8.92623C12.9204 8.5363 12.9625 8.09367 13.1838 7.76697C13.5843 7.19789 14.6592 6.99765 15.2283 7.44028L19.0433 10.4016L27.411 16.8934C27.4742 16.9461 27.5269 16.9988 27.5796 17.0621C27.6112 17.0937 27.6429 17.1148 27.6639 17.1464C27.7166 17.2096 27.7588 17.2834 27.8009 17.3466C27.8115 17.3677 27.8325 17.3888 27.8431 17.4098C27.8747 17.4731 27.8958 17.5363 27.9168 17.589C27.9274 17.6206 27.9485 17.6628 27.959 17.6944C27.9695 17.7471 27.9696 17.7998 27.9801 17.8525C27.9801 17.8946 28.0012 17.9473 28.0012 17.9895C28.0012 18.0421 27.9906 18.0949 27.9801 18.137Z" fill="#ED135D"/>
</g>
<defs>
<clipPath id="clip0_195_60">
<rect width="36" height="36" rx="18" fill="white"/>
</clipPath>
</defs>
</svg>
