<svg width="36" height="36" viewBox="0 0 36 36" fill="none" xmlns="http://www.w3.org/2000/svg">
<g clip-path="url(#clip0_195_61)">
<path d="M18.0053 0C8.05388 0 0 8.06443 0 18.0053C0 27.9461 8.05388 36 18.0053 36C27.9567 36 36 27.9356 36 18.0053C36 8.07497 27.9461 0 18.0053 0ZM17.689 32.2155C16.2343 32.1628 15.0958 30.94 15.1485 29.4747C15.2012 28.0199 16.424 26.8814 17.8788 26.9341C19.3441 26.9868 20.4826 28.2097 20.4299 29.6644C20.3772 31.1297 19.1543 32.2682 17.689 32.2155ZM23.5081 18.1001L23.0548 18.5324L20.7777 20.5458C20.3139 21.0835 20.0187 21.7687 19.9977 22.4539C19.9871 22.5277 20.1136 23.487 19.4073 24.3725C18.5429 25.3739 17.0144 25.511 15.9813 24.6255C15.4753 24.1933 15.1906 23.5924 15.1485 23.0231L15.1168 22.8018C15.1063 22.3063 15.1379 21.7898 15.2117 21.2943C15.3488 20.3982 15.665 19.5233 16.0867 18.7327C16.5189 17.8999 17.1936 17.2673 17.8577 16.6138C18.5956 15.8758 19.3441 15.1485 20.082 14.4105C20.8305 13.6726 21.1678 12.6712 21.0835 11.7013C21.0202 10.9739 20.725 10.2571 20.1769 9.69839C19.4389 8.9183 18.4269 8.57043 17.436 8.65477C16.6981 8.71802 15.9918 9.02373 15.4753 9.50864C15.4226 9.55081 14.8217 10.3625 13.6621 10.4996C12.2917 10.6155 11.0583 9.61405 10.9318 8.212C10.8685 7.52679 11.0899 6.88376 11.4694 6.43046L11.6064 6.2407C12.9663 4.76486 14.8638 3.7634 17.0249 3.57365C20.0609 3.3101 22.8334 4.76485 24.499 7.04187C24.5833 7.15783 24.6466 7.25271 24.7204 7.34759C24.8574 7.56896 25.005 7.80087 25.1315 8.03279C25.1526 8.07496 25.2053 8.14875 25.2685 8.26471C25.4161 8.57042 25.5426 8.87614 25.6586 9.18185C25.7007 9.30835 25.7324 9.41376 25.7534 9.48756C25.8378 9.73002 25.901 9.98302 25.9537 10.2255C26.0275 10.5734 26.0802 10.9107 26.1013 11.2586C26.3227 13.7253 25.4583 16.2659 23.5186 18.1001" fill="#ED135D"/>
</g>
<defs>
<clipPath id="clip0_195_61">
<rect width="36" height="36" rx="18" fill="white"/>
</clipPath>
</defs>
</svg>
