<svg width="36" height="36" viewBox="0 0 36 36" fill="none" xmlns="http://www.w3.org/2000/svg">
<g clip-path="url(#clip0_195_56)">
<path d="M25.3372 14.5605C24.4372 14.5605 23.5472 14.9005 22.8572 15.5905L20.3672 18.0605L22.8672 20.5605C23.5472 21.2405 24.4372 21.5806 25.3372 21.5806C26.2472 21.5806 27.1272 21.2405 27.8172 20.5605C28.5072 19.8705 28.8472 18.9806 28.8472 18.0806C28.8472 17.1806 28.5072 16.2906 27.8172 15.6006C27.1272 14.9106 26.2372 14.5806 25.3372 14.5706V14.5605Z" fill="#ED135D"/>
<path d="M13.1971 15.5905C12.5071 14.9005 11.617 14.5605 10.717 14.5605C9.81704 14.5605 8.92703 14.9005 8.23703 15.5905C7.54703 16.2805 7.20703 17.1606 7.20703 18.0706C7.20703 18.9806 7.54703 19.8606 8.23703 20.5506C8.92703 21.2406 9.81704 21.5706 10.717 21.5806C11.617 21.5806 12.5071 21.2406 13.1971 20.5506L15.687 18.0605L13.207 15.6006L13.1971 15.5905Z" fill="#ED135D"/>
<path d="M18 0C8.06 0 0 8.06 0 18C0 27.94 8.06 36 18 36C27.94 36 36 27.94 36 18C36 8.06 27.94 0 18 0ZM30.34 23.08C28.97 24.46 27.15 25.15 25.35 25.15H25.34C23.54 25.15 21.71 24.46 20.34 23.08L18.04 20.78L15.73 23.08C14.35 24.46 12.53 25.15 10.73 25.15C8.93001 25.15 7.1 24.46 5.72 23.08C4.34 21.7 3.63999 19.88 3.64999 18.07C3.64999 16.26 4.35 14.44 5.72 13.07C7.09 11.69 8.92001 10.99 10.73 10.99C12.53 10.99 14.35 11.68 15.73 13.06L18.04 15.34L20.35 13.05C21.73 11.67 23.55 10.98 25.35 10.98C27.15 10.98 28.97 11.68 30.36 13.05C31.74 14.43 32.43 16.25 32.43 18.06C32.43 19.87 31.73 21.68 30.35 23.06L30.34 23.08Z" fill="#ED135D"/>
</g>
<defs>
<clipPath id="clip0_195_56">
<rect width="36" height="36" rx="18" fill="white"/>
</clipPath>
</defs>
</svg>
