<svg width="36" height="36" viewBox="0 0 36 36" fill="none" xmlns="http://www.w3.org/2000/svg">
<g clip-path="url(#clip0_195_58)">
<path d="M18 0C8.06 0 0 8.06 0 18C0 27.94 8.06 36 18 36C27.94 36 36 27.94 36 18C36 8.06 27.94 0 18 0ZM17.94 28.86C11.9 28.86 7.00999 23.97 7.00999 17.93C7.00999 11.89 11.9 7 17.94 7C23.98 7 28.87 11.89 28.87 17.93C28.87 23.97 23.98 28.86 17.94 28.86Z" fill="#ED135D"/>
<path d="M21.0302 11.9299V17.6799C21.0302 19.2899 19.7302 20.5899 18.1102 20.5899C16.4902 20.5899 15.1902 19.2799 15.1902 17.6799V17.0199C15.1902 16.9299 15.2202 16.8399 15.2702 16.7799L19.5502 11.3799C19.0302 11.2499 18.4802 11.1699 17.9202 11.1699C14.1902 11.1699 11.1602 14.1999 11.1602 17.9299C11.1602 21.6599 14.1902 24.6899 17.9202 24.6899C21.6502 24.6899 24.6802 21.6599 24.6802 17.9299C24.6802 15.3099 23.1902 13.0499 21.0202 11.9299H21.0302Z" fill="#ED135D"/>
</g>
<defs>
<clipPath id="clip0_195_58">
<rect width="36" height="36" rx="18" fill="white"/>
</clipPath>
</defs>
</svg>
