<svg width="36" height="36" viewBox="0 0 36 36" fill="none" xmlns="http://www.w3.org/2000/svg">
<g clip-path="url(#clip0_195_62)">
<path d="M18 0C8.06 0 0 8.04999 0 18C0 27.95 8.06 36 18 36C27.94 36 36 27.94 36 18C36 8.05999 27.94 0 18 0ZM17.01 15.65L7.19 28.04C7.19 28.04 7.11 28.1 7.05 28.1C6.94 28.1 6.85 28.01 6.85 27.9V14.27C6.85 11.47 9.12 9.18999 11.93 9.18999C14.74 9.18999 17.01 11.46 17.01 14.27V15.66V15.65ZM30.55 15.65L20.73 28.04C20.73 28.04 20.65 28.1 20.59 28.1C20.48 28.1 20.39 28.01 20.39 27.9V14.27C20.39 11.47 22.66 9.18999 25.47 9.18999C28.28 9.18999 30.55 11.46 30.55 14.27V15.66V15.65Z" fill="#ED135D"/>
</g>
<defs>
<clipPath id="clip0_195_62">
<rect width="36" height="36" rx="18" fill="white"/>
</clipPath>
</defs>
</svg>
