<svg width="36" height="36" viewBox="0 0 36 36" fill="none" xmlns="http://www.w3.org/2000/svg">
<g clip-path="url(#clip0_195_55)">
<path d="M23.93 21.3198V9.45984L23.94 9.44984H13.77V20.6998C13.3 20.3998 12.74 20.2298 12.15 20.2298C10.47 20.2298 9.12 21.5898 9.12 23.2598C9.12 24.9298 10.48 26.2898 12.15 26.2898C13.82 26.2898 15.18 24.9298 15.18 23.2598V13.1798H22.53V18.7698C22.06 18.4698 21.5 18.2898 20.9 18.2898C19.23 18.2898 17.87 19.6498 17.87 21.3198C17.87 22.9898 19.22 24.3498 20.9 24.3498C22.58 24.3498 23.93 22.9898 23.93 21.3198Z" fill="#ED135D"/>
<path fill-rule="evenodd" clip-rule="evenodd" d="M0 18C0 8.06 8.06 0 18 0C27.94 0 36 8.06 36 18C36 27.94 27.94 36 18 36C8.06 36 0 27.94 0 18ZM13.76 6.83984H23.94C25.38 6.83984 26.55 8.00984 26.55 9.45984V21.3198C26.55 24.4398 24.02 26.9698 20.9 26.9698C19.52 26.9698 18.25 26.4698 17.27 25.6398C16.37 27.5698 14.41 28.9098 12.15 28.9098C9.03 28.9098 6.5 26.3698 6.5 23.2598C6.5 20.4898 8.49997 18.1798 11.14 17.6998V9.45984C11.14 8.00984 12.31 6.83984 13.76 6.83984Z" fill="#ED135D"/>
</g>
<defs>
<clipPath id="clip0_195_55">
<rect width="36" height="36" rx="18" fill="white"/>
</clipPath>
</defs>
</svg>
