<svg width="36" height="36" viewBox="0 0 36 36" fill="none" xmlns="http://www.w3.org/2000/svg">
<g clip-path="url(#clip0_195_54)">
<path d="M18 0C8.06 0 0 8.06 0 18C0 27.94 8.06 36 18 36C27.94 36 36 27.94 36 18C36 8.06 27.94 0 18 0ZM29.69 23.27C29.69 23.75 29.44 24.19 29.02 24.43C28.61 24.67 28.1 24.67 27.69 24.43L23.49 22.01V22.94C23.49 24.25 22.43 25.3 21.12 25.31H9.95001C8.64001 25.31 7.58002 24.25 7.58002 22.94V13.1C7.58002 11.79 8.64001 10.73 9.95001 10.73H21.12C22.43 10.73 23.48 11.79 23.49 13.1V14.03L27.69 11.61C28.1 11.37 28.61 11.37 29.02 11.61C29.44 11.84 29.69 12.29 29.69 12.76V23.28V23.27Z" fill="#ED135D"/>
<path d="M22.82 17.4904C22.41 17.7304 21.9 17.7304 21.48 17.4904C21.07 17.2504 20.81 16.8104 20.81 16.3404V13.4004H10.25V22.6404H20.81V19.7004C20.81 19.2204 21.06 18.7804 21.48 18.5404C21.89 18.3004 22.4 18.3004 22.82 18.5404L27.02 20.9604V15.0704L22.82 17.4904Z" fill="#ED135D"/>
</g>
<defs>
<clipPath id="clip0_195_54">
<rect width="36" height="36" rx="18" fill="white"/>
</clipPath>
</defs>
</svg>
