<svg width="36" height="36" viewBox="0 0 36 36" fill="none" xmlns="http://www.w3.org/2000/svg">
<g clip-path="url(#clip0_195_59)">
<path d="M18 0C8.06 0 0 8.06 0 18C0 27.94 8.06 36 18 36C27.94 36 36 27.94 36 18C36 8.06 27.94 0 18 0ZM17.28 28.4C17.28 28.45 17.25 28.5 17.2 28.54C17.11 28.61 16.98 28.6 16.91 28.51L8.08 17.32C6.26 15.02 6.66001 11.68 8.96001 9.87C11.26 8.05 14.6 8.45 16.41 10.75L17.16 11.7C17.26 11.83 17.31 11.99 17.31 12.14L17.28 28.41V28.4ZM28.11 17.31L19.28 28.5C19.21 28.59 19.08 28.61 18.99 28.53C18.94 28.5 18.92 28.45 18.91 28.39L18.88 12.12C18.88 11.97 18.93 11.81 19.03 11.68L19.78 10.73C21.6 8.43 24.93 8.04 27.24 9.85C29.54 11.67 29.93 15 28.12 17.3L28.11 17.31Z" fill="#ED135D"/>
</g>
<defs>
<clipPath id="clip0_195_59">
<rect width="36" height="36" rx="18" fill="white"/>
</clipPath>
</defs>
</svg>
