<svg width="36" height="36" viewBox="0 0 36 36" fill="none" xmlns="http://www.w3.org/2000/svg">
<g clip-path="url(#clip0_195_52)">
<path d="M11.5897 21.7109L10.4297 23.9709H25.8997L24.6297 21.7109H11.5897Z" fill="#ED135D"/>
<path d="M18 0C8.06 0 0 8.06 0 18C0 27.94 8.06 36 18 36C27.94 36 36 27.94 36 18C36 8.06 27.94 0 18 0ZM28.03 27.02H8.4C7.61 27.02 6.6 26.47 6.55 25.23C6.55 24.99 6.61 24.75 6.72 24.54L8.95 20.18C8.95 20.12 8.93 20.06 8.93 19.99V9.79C8.93 8.83 9.7 8.07 10.65 8.06H25.51C26.47 8.06 27.23 8.83 27.24 9.79V19.99C27.24 19.99 27.24 20.08 27.22 20.12L29.68 24.48C29.81 24.71 29.88 24.96 29.88 25.23C29.83 26.46 28.82 27.02 28.03 27.02Z" fill="#ED135D"/>
<path d="M24.1905 11.0996H11.9805V18.6596H24.1905V11.0996Z" fill="#ED135D"/>
</g>
<defs>
<clipPath id="clip0_195_52">
<rect width="36" height="36" rx="18" fill="white"/>
</clipPath>
</defs>
</svg>
