<svg width="36" height="36" viewBox="0 0 36 36" fill="none" xmlns="http://www.w3.org/2000/svg">
<g clip-path="url(#clip0_195_53)">
<path d="M18 0C8.06 0 0 8.06 0 18C0 27.94 8.06 36 18 36C27.94 36 36 27.94 36 18C36 8.06 27.95 0 18 0ZM25.34 24.03C25.25 24.03 25.16 23.99 25.09 23.94L19.26 19.32L23.67 23.73C24.84 24.9 24.84 26.79 23.67 27.96C22.5 29.13 20.6 29.13 19.44 27.96L18.96 27.48C18.89 27.41 18.85 27.33 18.85 27.24L17.99 19.85V26.08C17.99 27.73 16.65 29.07 15 29.07C13.35 29.07 12 27.73 12 26.08V25.4C12 25.31 12.04 25.22 12.09 25.15L16.71 19.32L12.3 23.73C11.13 24.9 9.22999 24.9 8.06999 23.73C6.89999 22.56 6.89999 20.66 8.06999 19.49L8.55 19.01C8.62 18.94 8.69999 18.9 8.78999 18.9L16.18 18.04H9.95C8.3 18.04 6.95999 16.7 6.95999 15.05C6.95999 13.4 8.3 12.06 9.95 12.06H10.63C10.72 12.06 10.81 12.09 10.88 12.15L16.71 16.77L12.3 12.36C11.13 11.19 11.13 9.3 12.3 8.12C13.47 6.95 15.37 6.95 16.53 8.12L17.01 8.6C17.08 8.67 17.11 8.75 17.12 8.84L17.98 16.23V10C17.98 8.34 19.32 7.01 20.97 7.01C22.62 7.01 23.97 8.35 23.97 10V10.68C23.97 10.77 23.94 10.86 23.88 10.93L19.26 16.76L23.67 12.35C24.84 11.18 26.74 11.18 27.91 12.35C29.08 13.52 29.08 15.42 27.91 16.58L27.43 17.06C27.36 17.13 27.28 17.17 27.19 17.17L19.8 18.03H26.03C27.68 18.03 29.02 19.37 29.02 21.03C29.02 22.69 27.68 24.03 26.03 24.03H25.34Z" fill="#ED135D"/>
</g>
<defs>
<clipPath id="clip0_195_53">
<rect width="36" height="36" rx="18" fill="white"/>
</clipPath>
</defs>
</svg>
