<svg width="1268" height="97" viewBox="0 0 1268 97" fill="none" xmlns="http://www.w3.org/2000/svg">
<g clip-path="url(#clip0_309_16155)">
<mask id="path-1-inside-1_309_16155" fill="white">
<path d="M0 0H1268V37H0V0Z"/>
</mask>
<path d="M0 0H1268V37H0V0Z" fill="white"/>
<path d="M1.85 20.5H0.86V13.42H1.85V20.5ZM8.43484 18.86H8.45484L10.5448 13.42H12.0848V20.5H11.0948V14.58H11.0748L8.72484 20.5H8.09484L5.75484 14.58H5.73484V20.5H4.77484V13.42H6.31484L8.43484 18.86ZM15.298 20.5H14.198L17.268 13.42H18.168L21.208 20.5H20.088L19.368 18.76H16.008L15.298 20.5ZM16.358 17.89H19.008L17.688 14.57L16.358 17.89ZM28.4816 14.88C28.2683 14.6467 27.995 14.46 27.6616 14.32C27.335 14.18 26.9683 14.11 26.5616 14.11C26.1483 14.11 25.775 14.1867 25.4416 14.34C25.1083 14.4867 24.825 14.69 24.5916 14.95C24.3583 15.21 24.1783 15.5133 24.0516 15.86C23.925 16.2 23.8616 16.5633 23.8616 16.95C23.8616 17.3433 23.925 17.7133 24.0516 18.06C24.1783 18.4067 24.3583 18.71 24.5916 18.97C24.825 19.2233 25.1116 19.4233 25.4516 19.57C25.7916 19.7167 26.1716 19.79 26.5916 19.79C26.925 19.79 27.2316 19.76 27.5116 19.7C27.7916 19.64 28.035 19.5533 28.2416 19.44V17.47H26.6716V16.63H29.2216V20.06C28.8483 20.26 28.4416 20.4133 28.0016 20.52C27.5616 20.6267 27.0816 20.68 26.5616 20.68C26.0083 20.68 25.4983 20.59 25.0316 20.41C24.5716 20.2233 24.175 19.9667 23.8416 19.64C23.5083 19.3067 23.2483 18.9133 23.0616 18.46C22.875 18 22.7816 17.4967 22.7816 16.95C22.7816 16.3967 22.875 15.8933 23.0616 15.44C23.255 14.98 23.5183 14.59 23.8516 14.27C24.1916 13.9433 24.5916 13.69 25.0516 13.51C25.5116 13.33 26.0116 13.24 26.5516 13.24C27.1183 13.24 27.6216 13.3233 28.0616 13.49C28.5083 13.6567 28.8783 13.88 29.1716 14.16L28.4816 14.88ZM33.1148 19.62H36.8148V20.5H32.1248V13.42H36.6648V14.29H33.1148V16.41H36.4548V17.26H33.1148V19.62Z" fill="#111111"/>
<path d="M59.34 20.5H58.35V14.29H56.08V13.42H61.61V14.29H59.34V20.5ZM66.3962 20.5H65.3962V17.44L62.7462 13.42H63.9662L65.9262 16.62L67.8962 13.42H69.0462L66.3962 17.44V20.5ZM71.0764 13.42H73.2364C73.6164 13.42 73.9631 13.46 74.2764 13.54C74.5897 13.6133 74.8564 13.73 75.0764 13.89C75.2964 14.05 75.4664 14.2533 75.5864 14.5C75.7064 14.7467 75.7664 15.0433 75.7664 15.39C75.7664 15.7433 75.6997 16.0467 75.5664 16.3C75.4397 16.5533 75.2597 16.76 75.0264 16.92C74.7997 17.08 74.5264 17.2 74.2064 17.28C73.8931 17.3533 73.5531 17.39 73.1864 17.39H72.0664V20.5H71.0764V13.42ZM72.0664 16.55H73.1164C73.3564 16.55 73.5764 16.53 73.7764 16.49C73.9831 16.4433 74.1597 16.3767 74.3064 16.29C74.4531 16.1967 74.5664 16.0767 74.6464 15.93C74.7264 15.7833 74.7664 15.6033 74.7664 15.39C74.7664 15.1767 74.7231 15 74.6364 14.86C74.5564 14.7133 74.4431 14.5967 74.2964 14.51C74.1564 14.4167 73.9864 14.3533 73.7864 14.32C73.5864 14.28 73.3697 14.26 73.1364 14.26H72.0664V16.55ZM79.2137 19.62H82.9137V20.5H78.2237V13.42H82.7637V14.29H79.2137V16.41H82.5537V17.26H79.2137V19.62Z" fill="#111111"/>
<path d="M119.85 20.5H118.86V13.42H119.85V20.5ZM125.255 20.5H124.265V14.29H121.995V13.42H127.525V14.29H125.255V20.5ZM130.658 19.62H134.358V20.5H129.668V13.42H134.208V14.29H130.658V16.41H133.998V17.26H130.658V19.62ZM140.534 18.86H140.554L142.644 13.42H144.184V20.5H143.194V14.58H143.174L140.824 20.5H140.194L137.854 14.58H137.834V20.5H136.874V13.42H138.414L140.534 18.86ZM155.797 19.08H155.817V13.42H156.807V20.5H155.557L151.817 14.72H151.797V20.5H150.807V13.42H152.097L155.797 19.08ZM160.022 20.5H158.922L161.992 13.42H162.892L165.932 20.5H164.812L164.092 18.76H160.732L160.022 20.5ZM161.082 17.89H163.732L162.412 14.57L161.082 17.89ZM171.701 18.86H171.721L173.811 13.42H175.351V20.5H174.361V14.58H174.341L171.991 20.5H171.361L169.021 14.58H169.001V20.5H168.041V13.42H169.581L171.701 18.86ZM179.264 19.62H182.964V20.5H178.274V13.42H182.814V14.29H179.264V16.41H182.604V17.26H179.264V19.62Z" fill="#111111"/>
<path d="M258.85 20.5H257.86V13.42H258.85V20.5ZM264.255 20.5H263.265V14.29H260.995V13.42H266.525V14.29H264.255V20.5ZM269.658 19.62H273.358V20.5H268.668V13.42H273.208V14.29H269.658V16.41H272.998V17.26H269.658V19.62ZM279.534 18.86H279.554L281.644 13.42H283.184V20.5H282.194V14.58H282.174L279.824 20.5H279.194L276.854 14.58H276.834V20.5H275.874V13.42H277.414L279.534 18.86ZM289.807 13.42H292.237C292.691 13.42 293.144 13.4867 293.597 13.62C294.051 13.7533 294.461 13.9633 294.827 14.25C295.194 14.5367 295.491 14.9033 295.717 15.35C295.944 15.7967 296.057 16.3333 296.057 16.96C296.057 17.5667 295.944 18.0933 295.717 18.54C295.491 18.98 295.194 19.3467 294.827 19.64C294.461 19.9267 294.051 20.1433 293.597 20.29C293.144 20.43 292.691 20.5 292.237 20.5H289.807V13.42ZM290.797 19.63H292.037C292.464 19.63 292.857 19.57 293.217 19.45C293.584 19.33 293.897 19.1567 294.157 18.93C294.424 18.7033 294.631 18.4233 294.777 18.09C294.924 17.7567 294.997 17.38 294.997 16.96C294.997 16.52 294.924 16.1333 294.777 15.8C294.631 15.4667 294.424 15.19 294.157 14.97C293.897 14.7433 293.584 14.5733 293.217 14.46C292.857 14.34 292.464 14.28 292.037 14.28H290.797V19.63ZM299.605 19.62H303.305V20.5H298.615V13.42H303.155V14.29H299.605V16.41H302.945V17.26H299.605V19.62ZM308.301 20.5H307.311V14.29H305.041V13.42H310.571V14.29H308.301V20.5ZM312.408 20.5H311.308L314.378 13.42H315.278L318.318 20.5H317.198L316.478 18.76H313.118L312.408 20.5ZM313.468 17.89H316.118L314.798 14.57L313.468 17.89ZM321.418 20.5H320.428V13.42H321.418V20.5ZM325.332 19.62H328.492V20.5H324.342V13.42H325.332V19.62ZM334.17 14.73C334.03 14.5367 333.84 14.38 333.6 14.26C333.36 14.1333 333.09 14.07 332.79 14.07C332.63 14.07 332.467 14.0933 332.3 14.14C332.14 14.18 331.993 14.25 331.86 14.35C331.727 14.4433 331.617 14.5633 331.53 14.71C331.45 14.85 331.41 15.02 331.41 15.22C331.41 15.4133 331.447 15.5767 331.52 15.71C331.6 15.8367 331.703 15.9467 331.83 16.04C331.963 16.1267 332.117 16.2033 332.29 16.27C332.47 16.33 332.66 16.3933 332.86 16.46C333.1 16.5333 333.343 16.6167 333.59 16.71C333.837 16.8033 334.06 16.9267 334.26 17.08C334.46 17.2333 334.623 17.4267 334.75 17.66C334.877 17.8867 334.94 18.1767 334.94 18.53C334.94 18.8967 334.87 19.2167 334.73 19.49C334.597 19.7567 334.417 19.98 334.19 20.16C333.963 20.3333 333.7 20.4633 333.4 20.55C333.107 20.6367 332.803 20.68 332.49 20.68C332.043 20.68 331.61 20.5933 331.19 20.42C330.777 20.2467 330.433 19.99 330.16 19.65L330.93 19C331.097 19.2467 331.32 19.4467 331.6 19.6C331.88 19.7533 332.183 19.83 332.51 19.83C332.677 19.83 332.843 19.8067 333.01 19.76C333.177 19.7133 333.327 19.64 333.46 19.54C333.6 19.44 333.713 19.3167 333.8 19.17C333.887 19.0167 333.93 18.8333 333.93 18.62C333.93 18.4067 333.883 18.23 333.79 18.09C333.703 17.9433 333.583 17.82 333.43 17.72C333.277 17.62 333.097 17.5367 332.89 17.47C332.69 17.3967 332.477 17.3233 332.25 17.25C332.023 17.1833 331.8 17.1033 331.58 17.01C331.36 16.91 331.163 16.7867 330.99 16.64C330.817 16.4867 330.677 16.3 330.57 16.08C330.463 15.86 330.41 15.5867 330.41 15.26C330.41 14.9067 330.48 14.6033 330.62 14.35C330.767 14.0967 330.953 13.8867 331.18 13.72C331.413 13.5533 331.673 13.4333 331.96 13.36C332.253 13.28 332.547 13.24 332.84 13.24C333.253 13.24 333.64 13.3133 334 13.46C334.36 13.6067 334.65 13.8033 334.87 14.05L334.17 14.73Z" fill="#111111"/>
<path d="M601.21 19.72H601.24L603.37 13.92H604.44L601.66 21H600.74L597.98 13.92H599.08L601.21 19.72ZM607.466 20.12H611.166V21H606.476V13.92H611.016V14.79H607.466V16.91H610.806V17.76H607.466V20.12ZM618.672 19.58H618.692V13.92H619.682V21H618.432L614.692 15.22H614.672V21H613.682V13.92H614.972L618.672 19.58ZM622.606 13.92H625.036C625.49 13.92 625.943 13.9867 626.396 14.12C626.85 14.2533 627.26 14.4633 627.626 14.75C627.993 15.0367 628.29 15.4033 628.516 15.85C628.743 16.2967 628.856 16.8333 628.856 17.46C628.856 18.0667 628.743 18.5933 628.516 19.04C628.29 19.48 627.993 19.8467 627.626 20.14C627.26 20.4267 626.85 20.6433 626.396 20.79C625.943 20.93 625.49 21 625.036 21H622.606V13.92ZM623.596 20.13H624.836C625.263 20.13 625.656 20.07 626.016 19.95C626.383 19.83 626.696 19.6567 626.956 19.43C627.223 19.2033 627.43 18.9233 627.576 18.59C627.723 18.2567 627.796 17.88 627.796 17.46C627.796 17.02 627.723 16.6333 627.576 16.3C627.43 15.9667 627.223 15.69 626.956 15.47C626.696 15.2433 626.383 15.0733 626.016 14.96C625.656 14.84 625.263 14.78 624.836 14.78H623.596V20.13ZM638.554 17.45C638.554 17.9967 638.457 18.5 638.264 18.96C638.077 19.4133 637.817 19.8067 637.484 20.14C637.151 20.4667 636.754 20.7233 636.294 20.91C635.834 21.09 635.334 21.18 634.794 21.18C634.254 21.18 633.754 21.09 633.294 20.91C632.841 20.7233 632.447 20.4667 632.114 20.14C631.781 19.8067 631.521 19.4133 631.334 18.96C631.147 18.5 631.054 17.9967 631.054 17.45C631.054 16.8967 631.147 16.3933 631.334 15.94C631.521 15.48 631.781 15.09 632.114 14.77C632.447 14.4433 632.841 14.19 633.294 14.01C633.754 13.83 634.254 13.74 634.794 13.74C635.334 13.74 635.834 13.83 636.294 14.01C636.754 14.19 637.151 14.4433 637.484 14.77C637.817 15.09 638.077 15.48 638.264 15.94C638.457 16.3933 638.554 16.8967 638.554 17.45ZM637.484 17.45C637.484 17.0633 637.421 16.7 637.294 16.36C637.167 16.0133 636.987 15.71 636.754 15.45C636.521 15.19 636.237 14.9867 635.904 14.84C635.577 14.6867 635.207 14.61 634.794 14.61C634.387 14.61 634.017 14.6867 633.684 14.84C633.357 14.9867 633.077 15.19 632.844 15.45C632.617 15.71 632.441 16.0133 632.314 16.36C632.187 16.7 632.124 17.0633 632.124 17.45C632.124 17.8433 632.187 18.2133 632.314 18.56C632.441 18.9067 632.621 19.21 632.854 19.47C633.087 19.7233 633.367 19.9233 633.694 20.07C634.021 20.2167 634.387 20.29 634.794 20.29C635.201 20.29 635.571 20.2167 635.904 20.07C636.237 19.9233 636.521 19.7233 636.754 19.47C636.987 19.21 637.167 18.9067 637.294 18.56C637.421 18.2133 637.484 17.8433 637.484 17.45ZM642.09 21H641.1V13.92H643.37C643.71 13.92 644.034 13.9567 644.34 14.03C644.647 14.0967 644.914 14.2067 645.14 14.36C645.374 14.5133 645.557 14.7167 645.69 14.97C645.824 15.2167 645.89 15.52 645.89 15.88C645.89 16.4 645.73 16.82 645.41 17.14C645.09 17.46 644.677 17.6633 644.17 17.75L646.15 21H644.95L643.15 17.85H642.09V21ZM642.09 17.02H643.23C643.464 17.02 643.68 17 643.88 16.96C644.08 16.92 644.254 16.8567 644.4 16.77C644.554 16.6767 644.674 16.56 644.76 16.42C644.847 16.2733 644.89 16.0933 644.89 15.88C644.89 15.6667 644.847 15.49 644.76 15.35C644.674 15.2033 644.557 15.0867 644.41 15C644.27 14.9133 644.104 14.8533 643.91 14.82C643.717 14.78 643.514 14.76 643.3 14.76H642.09V17.02Z" fill="#111111"/>
<path d="M736.672 21H735.682V13.92H737.952C738.292 13.92 738.616 13.9567 738.922 14.03C739.229 14.0967 739.496 14.2067 739.722 14.36C739.956 14.5133 740.139 14.7167 740.272 14.97C740.406 15.2167 740.472 15.52 740.472 15.88C740.472 16.4 740.312 16.82 739.992 17.14C739.672 17.46 739.259 17.6633 738.752 17.75L740.732 21H739.532L737.732 17.85H736.672V21ZM736.672 17.02H737.812C738.046 17.02 738.262 17 738.462 16.96C738.662 16.92 738.836 16.8567 738.982 16.77C739.136 16.6767 739.256 16.56 739.342 16.42C739.429 16.2733 739.472 16.0933 739.472 15.88C739.472 15.6667 739.429 15.49 739.342 15.35C739.256 15.2033 739.139 15.0867 738.992 15C738.852 14.9133 738.686 14.8533 738.492 14.82C738.299 14.78 738.096 14.76 737.882 14.76H736.672V17.02ZM744.015 20.12H747.715V21H743.025V13.92H747.565V14.79H744.015V16.91H747.355V17.76H744.015V20.12ZM752.711 21H751.721V14.79H749.451V13.92H754.981V14.79H752.711V21ZM756.818 21H755.718L758.788 13.92H759.688L762.728 21H761.608L760.888 19.26H757.528L756.818 21ZM757.878 18.39H760.528L759.208 15.07L757.878 18.39ZM765.828 21H764.838V13.92H765.828V21ZM769.743 20.12H772.903V21H768.753V13.92H769.743V20.12Z" fill="#111111"/>
<path d="M801.837 13.92H802.827V16.88H806.407V13.92H807.407V21H806.407V17.76H802.827V21H801.837V13.92ZM810.322 13.92H812.482C812.862 13.92 813.209 13.96 813.522 14.04C813.835 14.1133 814.102 14.23 814.322 14.39C814.542 14.55 814.712 14.7533 814.832 15C814.952 15.2467 815.012 15.5433 815.012 15.89C815.012 16.2433 814.945 16.5467 814.812 16.8C814.685 17.0533 814.505 17.26 814.272 17.42C814.045 17.58 813.772 17.7 813.452 17.78C813.139 17.8533 812.799 17.89 812.432 17.89H811.312V21H810.322V13.92ZM811.312 17.05H812.362C812.602 17.05 812.822 17.03 813.022 16.99C813.229 16.9433 813.405 16.8767 813.552 16.79C813.699 16.6967 813.812 16.5767 813.892 16.43C813.972 16.2833 814.012 16.1033 814.012 15.89C814.012 15.6767 813.969 15.5 813.882 15.36C813.802 15.2133 813.689 15.0967 813.542 15.01C813.402 14.9167 813.232 14.8533 813.032 14.82C812.832 14.78 812.615 14.76 812.382 14.76H811.312V17.05ZM821.169 13.92H823.329C823.709 13.92 824.056 13.96 824.369 14.04C824.683 14.1133 824.949 14.23 825.169 14.39C825.389 14.55 825.559 14.7533 825.679 15C825.799 15.2467 825.859 15.5433 825.859 15.89C825.859 16.2433 825.793 16.5467 825.659 16.8C825.533 17.0533 825.353 17.26 825.119 17.42C824.893 17.58 824.619 17.7 824.299 17.78C823.986 17.8533 823.646 17.89 823.279 17.89H822.159V21H821.169V13.92ZM822.159 17.05H823.209C823.449 17.05 823.669 17.03 823.869 16.99C824.076 16.9433 824.253 16.8767 824.399 16.79C824.546 16.6967 824.659 16.5767 824.739 16.43C824.819 16.2833 824.859 16.1033 824.859 15.89C824.859 15.6767 824.816 15.5 824.729 15.36C824.649 15.2133 824.536 15.0967 824.389 15.01C824.249 14.9167 824.079 14.8533 823.879 14.82C823.679 14.78 823.463 14.76 823.229 14.76H822.159V17.05ZM829.307 21H828.317V13.92H830.587C830.927 13.92 831.25 13.9567 831.557 14.03C831.863 14.0967 832.13 14.2067 832.357 14.36C832.59 14.5133 832.773 14.7167 832.907 14.97C833.04 15.2167 833.107 15.52 833.107 15.88C833.107 16.4 832.947 16.82 832.627 17.14C832.307 17.46 831.893 17.6633 831.387 17.75L833.367 21H832.167L830.367 17.85H829.307V21ZM829.307 17.02H830.447C830.68 17.02 830.897 17 831.097 16.96C831.297 16.92 831.47 16.8567 831.617 16.77C831.77 16.6767 831.89 16.56 831.977 16.42C832.063 16.2733 832.107 16.0933 832.107 15.88C832.107 15.6667 832.063 15.49 831.977 15.35C831.89 15.2033 831.773 15.0867 831.627 15C831.487 14.9133 831.32 14.8533 831.127 14.82C830.933 14.78 830.73 14.76 830.517 14.76H829.307V17.02ZM836.649 21H835.659V13.92H836.649V21ZM845.644 19.9C845.364 20.28 845.001 20.59 844.554 20.83C844.107 21.0633 843.571 21.18 842.944 21.18C842.404 21.18 841.904 21.09 841.444 20.91C840.991 20.7233 840.597 20.4667 840.264 20.14C839.937 19.8067 839.681 19.4133 839.494 18.96C839.307 18.5 839.214 17.9967 839.214 17.45C839.214 16.8967 839.307 16.3933 839.494 15.94C839.687 15.48 839.951 15.09 840.284 14.77C840.624 14.4433 841.024 14.19 841.484 14.01C841.944 13.83 842.444 13.74 842.984 13.74C843.224 13.74 843.467 13.7633 843.714 13.81C843.961 13.8567 844.197 13.9267 844.424 14.02C844.651 14.1133 844.857 14.23 845.044 14.37C845.231 14.5033 845.391 14.66 845.524 14.84L844.744 15.44C844.571 15.2 844.324 15.0033 844.004 14.85C843.691 14.69 843.351 14.61 842.984 14.61C842.571 14.61 842.197 14.6867 841.864 14.84C841.537 14.9867 841.257 15.19 841.024 15.45C840.791 15.71 840.611 16.0133 840.484 16.36C840.357 16.7 840.294 17.0633 840.294 17.45C840.294 17.85 840.354 18.2233 840.474 18.57C840.601 18.9167 840.777 19.22 841.004 19.48C841.237 19.7333 841.517 19.9333 841.844 20.08C842.177 20.2267 842.547 20.3 842.954 20.3C843.354 20.3 843.717 20.22 844.044 20.06C844.371 19.9 844.641 19.6667 844.854 19.36L845.644 19.9ZM848.844 20.12H852.544V21H847.854V13.92H852.394V14.79H848.844V16.91H852.184V17.76H848.844V20.12Z" fill="#111111"/>
<path d="M899.65 21H895.49C894.95 21 894.453 20.9133 894 20.74C893.553 20.5667 893.167 20.3233 892.84 20.01C892.513 19.6967 892.26 19.3167 892.08 18.87C891.9 18.4233 891.81 17.9233 891.81 17.37C891.81 16.8367 891.903 16.35 892.09 15.91C892.277 15.4633 892.533 15.08 892.86 14.76C893.187 14.44 893.573 14.19 894.02 14.01C894.473 13.83 894.967 13.74 895.5 13.74C896.027 13.74 896.513 13.83 896.96 14.01C897.407 14.19 897.793 14.44 898.12 14.76C898.447 15.08 898.7 15.4633 898.88 15.91C899.067 16.35 899.16 16.8367 899.16 17.37C899.16 18.0033 899.027 18.5567 898.76 19.03C898.493 19.5033 898.14 19.8767 897.7 20.15V20.17H899.65V21ZM892.88 17.37C892.88 17.7567 892.94 18.12 893.06 18.46C893.187 18.7933 893.363 19.0833 893.59 19.33C893.817 19.5767 894.09 19.7733 894.41 19.92C894.73 20.06 895.09 20.13 895.49 20.13C895.877 20.13 896.23 20.06 896.55 19.92C896.877 19.7733 897.153 19.5767 897.38 19.33C897.607 19.0833 897.783 18.7933 897.91 18.46C898.037 18.12 898.1 17.7567 898.1 17.37C898.1 16.99 898.04 16.6333 897.92 16.3C897.8 15.9667 897.627 15.6767 897.4 15.43C897.173 15.1767 896.9 14.9767 896.58 14.83C896.26 14.6833 895.9 14.61 895.5 14.61C895.1 14.61 894.74 14.6833 894.42 14.83C894.1 14.9767 893.823 15.1767 893.59 15.43C893.363 15.6767 893.187 15.9667 893.06 16.3C892.94 16.6333 892.88 16.99 892.88 17.37ZM904.307 21H903.317V14.79H901.047V13.92H906.577V14.79H904.307V21ZM911.363 21H910.363V17.94L907.713 13.92H908.933L910.893 17.12L912.863 13.92H914.013L911.363 17.94V21ZM916.372 20.4C916.372 20.5733 916.309 20.7267 916.182 20.86C916.056 20.9933 915.896 21.06 915.702 21.06C915.516 21.06 915.356 20.9967 915.222 20.87C915.096 20.7367 915.032 20.5833 915.032 20.41C915.032 20.23 915.096 20.0767 915.222 19.95C915.349 19.8167 915.509 19.75 915.702 19.75C915.896 19.75 916.056 19.8133 916.182 19.94C916.309 20.0667 916.372 20.22 916.372 20.4Z" fill="#111111"/>
<path d="M964.651 21H963.661V14.79H961.391V13.92H966.921V14.79H964.651V21ZM975.902 17.45C975.902 17.9967 975.805 18.5 975.612 18.96C975.425 19.4133 975.165 19.8067 974.832 20.14C974.499 20.4667 974.102 20.7233 973.642 20.91C973.182 21.09 972.682 21.18 972.142 21.18C971.602 21.18 971.102 21.09 970.642 20.91C970.189 20.7233 969.795 20.4667 969.462 20.14C969.129 19.8067 968.869 19.4133 968.682 18.96C968.495 18.5 968.402 17.9967 968.402 17.45C968.402 16.8967 968.495 16.3933 968.682 15.94C968.869 15.48 969.129 15.09 969.462 14.77C969.795 14.4433 970.189 14.19 970.642 14.01C971.102 13.83 971.602 13.74 972.142 13.74C972.682 13.74 973.182 13.83 973.642 14.01C974.102 14.19 974.499 14.4433 974.832 14.77C975.165 15.09 975.425 15.48 975.612 15.94C975.805 16.3933 975.902 16.8967 975.902 17.45ZM974.832 17.45C974.832 17.0633 974.769 16.7 974.642 16.36C974.515 16.0133 974.335 15.71 974.102 15.45C973.869 15.19 973.585 14.9867 973.252 14.84C972.925 14.6867 972.555 14.61 972.142 14.61C971.735 14.61 971.365 14.6867 971.032 14.84C970.705 14.9867 970.425 15.19 970.192 15.45C969.965 15.71 969.789 16.0133 969.662 16.36C969.535 16.7 969.472 17.0633 969.472 17.45C969.472 17.8433 969.535 18.2133 969.662 18.56C969.789 18.9067 969.969 19.21 970.202 19.47C970.435 19.7233 970.715 19.9233 971.042 20.07C971.369 20.2167 971.735 20.29 972.142 20.29C972.549 20.29 972.919 20.2167 973.252 20.07C973.585 19.9233 973.869 19.7233 974.102 19.47C974.335 19.21 974.515 18.9067 974.642 18.56C974.769 18.2133 974.832 17.8433 974.832 17.45ZM980.626 21H979.636V14.79H977.366V13.92H982.896V14.79H980.626V21ZM984.733 21H983.633L986.703 13.92H987.603L990.643 21H989.523L988.803 19.26H985.443L984.733 21ZM985.793 18.39H988.443L987.123 15.07L985.793 18.39ZM993.743 20.12H996.903V21H992.753V13.92H993.743V20.12Z" fill="#111111"/>
<path d="M1031.24 13.92H1033.68C1033.94 13.92 1034.21 13.95 1034.48 14.01C1034.74 14.07 1034.98 14.17 1035.19 14.31C1035.4 14.45 1035.57 14.6333 1035.7 14.86C1035.83 15.0867 1035.9 15.37 1035.9 15.71C1035.9 16.1033 1035.78 16.4333 1035.56 16.7C1035.33 16.9667 1035.03 17.15 1034.66 17.25V17.27C1034.88 17.2967 1035.09 17.3567 1035.29 17.45C1035.48 17.5367 1035.65 17.6533 1035.79 17.8C1035.93 17.9467 1036.03 18.12 1036.11 18.32C1036.19 18.52 1036.23 18.7433 1036.23 18.99C1036.23 19.33 1036.16 19.6267 1036.02 19.88C1035.88 20.1333 1035.69 20.3433 1035.45 20.51C1035.21 20.67 1034.92 20.7933 1034.6 20.88C1034.28 20.96 1033.93 21 1033.57 21H1031.24V13.92ZM1032.23 16.91H1033.52C1033.7 16.91 1033.88 16.89 1034.05 16.85C1034.22 16.8033 1034.37 16.7367 1034.5 16.65C1034.62 16.5567 1034.72 16.4433 1034.8 16.31C1034.87 16.17 1034.91 16.0033 1034.91 15.81C1034.91 15.43 1034.77 15.16 1034.49 15C1034.21 14.8333 1033.83 14.75 1033.36 14.75H1032.23V16.91ZM1032.23 20.16H1033.47C1033.67 20.16 1033.88 20.1433 1034.09 20.11C1034.3 20.07 1034.49 20.0033 1034.66 19.91C1034.83 19.8167 1034.97 19.6933 1035.07 19.54C1035.17 19.38 1035.23 19.18 1035.23 18.94C1035.23 18.52 1035.08 18.2167 1034.8 18.03C1034.51 17.8433 1034.1 17.75 1033.56 17.75H1032.23V20.16ZM1041.55 21.18C1041.08 21.18 1040.68 21.1033 1040.33 20.95C1039.98 20.79 1039.7 20.58 1039.47 20.32C1039.24 20.06 1039.07 19.7633 1038.96 19.43C1038.85 19.09 1038.8 18.74 1038.8 18.38V13.92H1039.79V18.32C1039.79 18.56 1039.82 18.8 1039.88 19.04C1039.94 19.2733 1040.04 19.4833 1040.17 19.67C1040.31 19.8567 1040.49 20.0067 1040.71 20.12C1040.94 20.2333 1041.22 20.29 1041.55 20.29C1041.88 20.29 1042.15 20.2333 1042.38 20.12C1042.61 20.0067 1042.79 19.8567 1042.92 19.67C1043.06 19.4833 1043.16 19.2733 1043.22 19.04C1043.28 18.8 1043.31 18.56 1043.31 18.32V13.92H1044.3V18.38C1044.3 18.74 1044.24 19.09 1044.13 19.43C1044.02 19.7633 1043.86 20.06 1043.63 20.32C1043.4 20.58 1043.12 20.79 1042.77 20.95C1042.42 21.1033 1042.02 21.18 1041.55 21.18ZM1047.17 13.92H1049.6C1050.05 13.92 1050.51 13.9867 1050.96 14.12C1051.41 14.2533 1051.82 14.4633 1052.19 14.75C1052.56 15.0367 1052.85 15.4033 1053.08 15.85C1053.31 16.2967 1053.42 16.8333 1053.42 17.46C1053.42 18.0667 1053.31 18.5933 1053.08 19.04C1052.85 19.48 1052.56 19.8467 1052.19 20.14C1051.82 20.4267 1051.41 20.6433 1050.96 20.79C1050.51 20.93 1050.05 21 1049.6 21H1047.17V13.92ZM1048.16 20.13H1049.4C1049.83 20.13 1050.22 20.07 1050.58 19.95C1050.95 19.83 1051.26 19.6567 1051.52 19.43C1051.79 19.2033 1051.99 18.9233 1052.14 18.59C1052.29 18.2567 1052.36 17.88 1052.36 17.46C1052.36 17.02 1052.29 16.6333 1052.14 16.3C1051.99 15.9667 1051.79 15.69 1051.52 15.47C1051.26 15.2433 1050.95 15.0733 1050.58 14.96C1050.22 14.84 1049.83 14.78 1049.4 14.78H1048.16V20.13ZM1061.32 15.38C1061.1 15.1467 1060.83 14.96 1060.5 14.82C1060.17 14.68 1059.8 14.61 1059.4 14.61C1058.98 14.61 1058.61 14.6867 1058.28 14.84C1057.94 14.9867 1057.66 15.19 1057.43 15.45C1057.19 15.71 1057.01 16.0133 1056.89 16.36C1056.76 16.7 1056.7 17.0633 1056.7 17.45C1056.7 17.8433 1056.76 18.2133 1056.89 18.56C1057.01 18.9067 1057.19 19.21 1057.43 19.47C1057.66 19.7233 1057.95 19.9233 1058.29 20.07C1058.63 20.2167 1059.01 20.29 1059.43 20.29C1059.76 20.29 1060.07 20.26 1060.35 20.2C1060.63 20.14 1060.87 20.0533 1061.08 19.94V17.97H1059.51V17.13H1062.06V20.56C1061.68 20.76 1061.28 20.9133 1060.84 21.02C1060.4 21.1267 1059.92 21.18 1059.4 21.18C1058.84 21.18 1058.33 21.09 1057.87 20.91C1057.41 20.7233 1057.01 20.4667 1056.68 20.14C1056.34 19.8067 1056.08 19.4133 1055.9 18.96C1055.71 18.5 1055.62 17.9967 1055.62 17.45C1055.62 16.8967 1055.71 16.3933 1055.9 15.94C1056.09 15.48 1056.35 15.09 1056.69 14.77C1057.03 14.4433 1057.43 14.19 1057.89 14.01C1058.35 13.83 1058.85 13.74 1059.39 13.74C1059.95 13.74 1060.46 13.8233 1060.9 13.99C1061.34 14.1567 1061.71 14.38 1062.01 14.66L1061.32 15.38ZM1065.95 20.12H1069.65V21H1064.96V13.92H1069.5V14.79H1065.95V16.91H1069.29V17.76H1065.95V20.12ZM1074.65 21H1073.66V14.79H1071.39V13.92H1076.92V14.79H1074.65V21Z" fill="#111111"/>
<path d="M1142.73 15.23C1142.59 15.0367 1142.4 14.88 1142.16 14.76C1141.92 14.6333 1141.65 14.57 1141.35 14.57C1141.19 14.57 1141.02 14.5933 1140.86 14.64C1140.7 14.68 1140.55 14.75 1140.42 14.85C1140.28 14.9433 1140.17 15.0633 1140.09 15.21C1140.01 15.35 1139.97 15.52 1139.97 15.72C1139.97 15.9133 1140 16.0767 1140.08 16.21C1140.16 16.3367 1140.26 16.4467 1140.39 16.54C1140.52 16.6267 1140.67 16.7033 1140.85 16.77C1141.03 16.83 1141.22 16.8933 1141.42 16.96C1141.66 17.0333 1141.9 17.1167 1142.15 17.21C1142.39 17.3033 1142.62 17.4267 1142.82 17.58C1143.02 17.7333 1143.18 17.9267 1143.31 18.16C1143.43 18.3867 1143.5 18.6767 1143.5 19.03C1143.5 19.3967 1143.43 19.7167 1143.29 19.99C1143.15 20.2567 1142.97 20.48 1142.75 20.66C1142.52 20.8333 1142.26 20.9633 1141.96 21.05C1141.66 21.1367 1141.36 21.18 1141.05 21.18C1140.6 21.18 1140.17 21.0933 1139.75 20.92C1139.33 20.7467 1138.99 20.49 1138.72 20.15L1139.49 19.5C1139.65 19.7467 1139.88 19.9467 1140.16 20.1C1140.44 20.2533 1140.74 20.33 1141.07 20.33C1141.23 20.33 1141.4 20.3067 1141.57 20.26C1141.73 20.2133 1141.88 20.14 1142.02 20.04C1142.16 19.94 1142.27 19.8167 1142.36 19.67C1142.44 19.5167 1142.49 19.3333 1142.49 19.12C1142.49 18.9067 1142.44 18.73 1142.35 18.59C1142.26 18.4433 1142.14 18.32 1141.99 18.22C1141.83 18.12 1141.65 18.0367 1141.45 17.97C1141.25 17.8967 1141.03 17.8233 1140.81 17.75C1140.58 17.6833 1140.36 17.6033 1140.14 17.51C1139.92 17.41 1139.72 17.2867 1139.55 17.14C1139.37 16.9867 1139.23 16.8 1139.13 16.58C1139.02 16.36 1138.97 16.0867 1138.97 15.76C1138.97 15.4067 1139.04 15.1033 1139.18 14.85C1139.32 14.5967 1139.51 14.3867 1139.74 14.22C1139.97 14.0533 1140.23 13.9333 1140.52 13.86C1140.81 13.78 1141.1 13.74 1141.4 13.74C1141.81 13.74 1142.2 13.8133 1142.56 13.96C1142.92 14.1067 1143.21 14.3033 1143.43 14.55L1142.73 15.23ZM1148.42 21H1147.43V14.79H1145.16V13.92H1150.69V14.79H1148.42V21ZM1152.53 21H1151.43L1154.5 13.92H1155.4L1158.44 21H1157.32L1156.6 19.26H1153.24L1152.53 21ZM1153.59 18.39H1156.24L1154.92 15.07L1153.59 18.39ZM1162.43 21H1161.44V14.79H1159.17V13.92H1164.7V14.79H1162.43V21ZM1169.55 21.18C1169.08 21.18 1168.67 21.1033 1168.33 20.95C1167.98 20.79 1167.69 20.58 1167.47 20.32C1167.24 20.06 1167.07 19.7633 1166.96 19.43C1166.85 19.09 1166.8 18.74 1166.8 18.38V13.92H1167.79V18.32C1167.79 18.56 1167.82 18.8 1167.88 19.04C1167.94 19.2733 1168.03 19.4833 1168.17 19.67C1168.31 19.8567 1168.49 20.0067 1168.71 20.12C1168.93 20.2333 1169.21 20.29 1169.55 20.29C1169.87 20.29 1170.15 20.2333 1170.38 20.12C1170.6 20.0067 1170.78 19.8567 1170.92 19.67C1171.06 19.4833 1171.16 19.2733 1171.22 19.04C1171.28 18.8 1171.31 18.56 1171.31 18.32V13.92H1172.3V18.38C1172.3 18.74 1172.24 19.09 1172.13 19.43C1172.02 19.7633 1171.85 20.06 1171.63 20.32C1171.4 20.58 1171.11 20.79 1170.77 20.95C1170.42 21.1033 1170.01 21.18 1169.55 21.18ZM1178.69 15.23C1178.55 15.0367 1178.36 14.88 1178.12 14.76C1177.88 14.6333 1177.61 14.57 1177.31 14.57C1177.15 14.57 1176.98 14.5933 1176.82 14.64C1176.66 14.68 1176.51 14.75 1176.38 14.85C1176.24 14.9433 1176.13 15.0633 1176.05 15.21C1175.97 15.35 1175.93 15.52 1175.93 15.72C1175.93 15.9133 1175.96 16.0767 1176.04 16.21C1176.12 16.3367 1176.22 16.4467 1176.35 16.54C1176.48 16.6267 1176.63 16.7033 1176.81 16.77C1176.99 16.83 1177.18 16.8933 1177.38 16.96C1177.62 17.0333 1177.86 17.1167 1178.11 17.21C1178.35 17.3033 1178.58 17.4267 1178.78 17.58C1178.98 17.7333 1179.14 17.9267 1179.27 18.16C1179.39 18.3867 1179.46 18.6767 1179.46 19.03C1179.46 19.3967 1179.39 19.7167 1179.25 19.99C1179.11 20.2567 1178.93 20.48 1178.71 20.66C1178.48 20.8333 1178.22 20.9633 1177.92 21.05C1177.62 21.1367 1177.32 21.18 1177.01 21.18C1176.56 21.18 1176.13 21.0933 1175.71 20.92C1175.29 20.7467 1174.95 20.49 1174.68 20.15L1175.45 19.5C1175.61 19.7467 1175.84 19.9467 1176.12 20.1C1176.4 20.2533 1176.7 20.33 1177.03 20.33C1177.19 20.33 1177.36 20.3067 1177.53 20.26C1177.69 20.2133 1177.84 20.14 1177.98 20.04C1178.12 19.94 1178.23 19.8167 1178.32 19.67C1178.4 19.5167 1178.45 19.3333 1178.45 19.12C1178.45 18.9067 1178.4 18.73 1178.31 18.59C1178.22 18.4433 1178.1 18.32 1177.95 18.22C1177.79 18.12 1177.61 18.0367 1177.41 17.97C1177.21 17.8967 1176.99 17.8233 1176.77 17.75C1176.54 17.6833 1176.32 17.6033 1176.1 17.51C1175.88 17.41 1175.68 17.2867 1175.51 17.14C1175.33 16.9867 1175.19 16.8 1175.09 16.58C1174.98 16.36 1174.93 16.0867 1174.93 15.76C1174.93 15.4067 1175 15.1033 1175.14 14.85C1175.28 14.5967 1175.47 14.3867 1175.7 14.22C1175.93 14.0533 1176.19 13.9333 1176.48 13.86C1176.77 13.78 1177.06 13.74 1177.36 13.74C1177.77 13.74 1178.16 13.8133 1178.52 13.96C1178.88 14.1067 1179.17 14.3033 1179.39 14.55L1178.69 15.23Z" fill="#111111"/>
<path d="M1241.24 20.12H1244.94V21H1240.25V13.92H1244.79V14.79H1241.24V16.91H1244.58V17.76H1241.24V20.12ZM1249.93 21H1248.94V14.79H1246.67V13.92H1252.2V14.79H1249.93V21ZM1254.04 21H1252.94L1256.01 13.92H1256.91L1259.95 21H1258.83L1258.11 19.26H1254.75L1254.04 21ZM1255.1 18.39H1257.75L1256.43 15.07L1255.1 18.39Z" fill="#111111"/>
</g>
<path d="M1268 36H0V38H1268V36Z" fill="#D9D9D9" mask="url(#path-1-inside-1_309_16155)"/>
<path d="M0.5 37.5H35.5V96.5H0.5V37.5Z" fill="#DCDFD8" stroke="#A8A18F"/>
<path fill-rule="evenodd" clip-rule="evenodd" d="M36 37H56V97H36V37Z" fill="#A8A18F"/>
<path d="M56.5 37.5H113.5V96.5H56.5V37.5Z" fill="#DCDFD8" stroke="#A8A18F"/>
<path fill-rule="evenodd" clip-rule="evenodd" d="M114 37H118V97H114V37Z" fill="#A8A18F"/>
<path d="M118.5 37.5H252.5V96.5H118.5V37.5Z" fill="#DCDFD8" stroke="#A8A18F"/>
<path fill-rule="evenodd" clip-rule="evenodd" d="M253 37H257V97H253V37Z" fill="#A8A18F"/>
<path d="M257.5 37.5H573.5V96.5H257.5V37.5Z" fill="#DCDFD8" stroke="#A8A18F"/>
<path fill-rule="evenodd" clip-rule="evenodd" d="M574 37H598V97H574V37Z" fill="#A8A18F"/>
<path d="M598.5 37.5H692.5V96.5H598.5V37.5Z" fill="#DCDFD8" stroke="#A8A18F"/>
<path d="M693.5 37.5H772.5V96.5H693.5V37.5Z" fill="#DCDFD8" stroke="#A8A18F"/>
<path d="M773.5 37.5H852.5V96.5H773.5V37.5Z" fill="#DCDFD8" stroke="#A8A18F"/>
<path d="M853.5 37.5H916.5V96.5H853.5V37.5Z" fill="#DCDFD8" stroke="#A8A18F"/>
<path d="M917.5 37.5H996.5V96.5H917.5V37.5Z" fill="#DCDFD8" stroke="#A8A18F"/>
<path d="M997.5 37.5H1076.5V96.5H997.5V37.5Z" fill="#DCDFD8" stroke="#A8A18F"/>
<path d="M1077.5 37.5H1179.5V96.5H1077.5V37.5Z" fill="#DCDFD8" stroke="#A8A18F"/>
<path d="M1180.5 37.5H1259.5V96.5H1180.5V37.5Z" fill="#DCDFD8" stroke="#A8A18F"/>
<path fill-rule="evenodd" clip-rule="evenodd" d="M1260 37H1268V97H1260V37Z" fill="#A8A18F"/>
<defs>
<clipPath id="clip0_309_16155">
<path d="M0 0H1268V37H0V0Z" fill="white"/>
</clipPath>
</defs>
</svg>
