<svg width="1268" height="97" viewBox="0 0 1268 97" fill="none" xmlns="http://www.w3.org/2000/svg">
<mask id="path-1-inside-1_309_16175" fill="white">
<path d="M0 0H1268V37H0V0Z"/>
</mask>
<path d="M0 0H1268V37H0V0Z" fill="white"/>
<path d="M1268 36H0V38H1268V36Z" fill="#D9D9D9" mask="url(#path-1-inside-1_309_16175)"/>
<path d="M48.21 15.02H46.04V13.92H51.64V15.02H49.47V21H48.21V15.02ZM55.2564 17.93L52.5964 13.92H54.1364L55.9164 16.9L57.7164 13.92H59.1764L56.5164 17.93V21H55.2564V17.93ZM60.9671 13.92H63.2771C63.6838 13.92 64.0504 13.9567 64.3771 14.03C64.7038 14.1033 64.9838 14.2233 65.2171 14.39C65.4504 14.5567 65.6304 14.77 65.7571 15.03C65.8838 15.29 65.9471 15.6033 65.9471 15.97C65.9471 16.3633 65.8738 16.6933 65.7271 16.96C65.5804 17.2267 65.3804 17.4433 65.1271 17.61C64.8804 17.77 64.5904 17.8867 64.2571 17.96C63.9238 18.0333 63.5704 18.07 63.1971 18.07H62.2271V21H60.9671V13.92ZM63.1071 17.01C63.3138 17.01 63.5104 16.9967 63.6971 16.97C63.8838 16.9367 64.0504 16.8833 64.1971 16.81C64.3438 16.73 64.4604 16.6233 64.5471 16.49C64.6338 16.3567 64.6771 16.1833 64.6771 15.97C64.6771 15.7633 64.6338 15.5967 64.5471 15.47C64.4604 15.3367 64.3438 15.2333 64.1971 15.16C64.0571 15.0867 63.8938 15.04 63.7071 15.02C63.5271 14.9933 63.3404 14.98 63.1471 14.98H62.2271V17.01H63.1071ZM68.2706 13.92H72.9606V15.02H69.5306V16.82H72.7806V17.88H69.5306V19.88H73.1406V21H68.2706V13.92Z" fill="#888888"/>
<path d="M134.78 13.92H136.04V21H134.78V13.92ZM138.802 13.92H140.772L142.612 18.95H142.642L144.462 13.92H146.442V21H145.192V15.31H145.172L143.022 21H142.142L140.022 15.31H140.002V21H138.802V13.92ZM151.421 13.92H152.511L155.561 21H154.121L153.461 19.38H150.391L149.751 21H148.341L151.421 13.92ZM153.021 18.3L151.931 15.42L150.821 18.3H153.021ZM163.486 20.63C163.126 20.8033 162.73 20.9367 162.296 21.03C161.87 21.13 161.376 21.18 160.816 21.18C160.243 21.18 159.72 21.09 159.246 20.91C158.773 20.7233 158.366 20.4667 158.026 20.14C157.686 19.8067 157.42 19.4133 157.226 18.96C157.04 18.5 156.946 17.9933 156.946 17.44C156.946 16.8733 157.043 16.3633 157.236 15.91C157.436 15.45 157.706 15.06 158.046 14.74C158.393 14.42 158.8 14.1733 159.266 14C159.733 13.8267 160.24 13.74 160.786 13.74C161.353 13.74 161.87 13.8233 162.336 13.99C162.81 14.15 163.19 14.3633 163.476 14.63L162.606 15.57C162.426 15.37 162.173 15.2 161.846 15.06C161.526 14.92 161.176 14.85 160.796 14.85C160.423 14.85 160.083 14.9167 159.776 15.05C159.476 15.1833 159.22 15.3667 159.006 15.6C158.793 15.8333 158.626 16.1067 158.506 16.42C158.393 16.7333 158.336 17.0733 158.336 17.44C158.336 17.82 158.393 18.17 158.506 18.49C158.626 18.8033 158.793 19.0767 159.006 19.31C159.226 19.5433 159.49 19.7267 159.796 19.86C160.11 19.9867 160.463 20.05 160.856 20.05C161.396 20.05 161.866 19.9667 162.266 19.8V18H160.776V16.96H163.486V20.63ZM166.221 13.92H170.911V15.02H167.481V16.82H170.731V17.88H167.481V19.88H171.091V21H166.221V13.92Z" fill="#888888"/>
<path d="M223.78 13.92H225.04V21H223.78V13.92ZM229.232 15.02H227.062V13.92H232.662V15.02H230.492V21H229.232V15.02ZM234.686 13.92H239.376V15.02H235.946V16.82H239.196V17.88H235.946V19.88H239.556V21H234.686V13.92ZM241.989 13.92H243.959L245.799 18.95H245.829L247.649 13.92H249.629V21H248.379V15.31H248.359L246.209 21H245.329L243.209 15.31H243.189V21H241.989V13.92ZM256.089 13.92H257.759L261.049 19.22H261.069V13.92H262.329V21H260.729L257.369 15.53H257.349V21H256.089V13.92ZM267.311 13.92H268.401L271.451 21H270.011L269.351 19.38H266.281L265.641 21H264.231L267.311 13.92ZM268.911 18.3L267.821 15.42L266.711 18.3H268.911ZM273.352 13.92H275.322L277.162 18.95H277.192L279.012 13.92H280.992V21H279.742V15.31H279.722L277.572 21H276.692L274.572 15.31H274.552V21H273.352V13.92ZM283.751 13.92H288.441V15.02H285.011V16.82H288.261V17.88H285.011V19.88H288.621V21H283.751V13.92Z" fill="#888888"/>
<rect x="16.5" y="10.5" width="15" height="15" fill="white"/>
<rect x="16.5" y="10.5" width="15" height="15" stroke="#757575"/>
<path d="M371.78 13.92H373.04V21H371.78V13.92ZM377.232 15.02H375.062V13.92H380.662V15.02H378.492V21H377.232V15.02ZM382.686 13.92H387.376V15.02H383.946V16.82H387.196V17.88H383.946V19.88H387.556V21H382.686V13.92ZM389.989 13.92H391.959L393.799 18.95H393.829L395.649 13.92H397.629V21H396.379V15.31H396.359L394.209 21H393.329L391.209 15.31H391.189V21H389.989V13.92ZM404.089 13.92H406.599C407.059 13.92 407.522 13.98 407.989 14.1C408.455 14.22 408.875 14.42 409.249 14.7C409.622 14.9733 409.925 15.3367 410.159 15.79C410.392 16.2367 410.509 16.7933 410.509 17.46C410.509 18.08 410.392 18.6133 410.159 19.06C409.925 19.5067 409.622 19.8733 409.249 20.16C408.875 20.4467 408.455 20.66 407.989 20.8C407.522 20.9333 407.059 21 406.599 21H404.089V13.92ZM406.399 19.9C406.725 19.9 407.052 19.8633 407.379 19.79C407.705 19.71 407.999 19.58 408.259 19.4C408.525 19.2133 408.742 18.9633 408.909 18.65C409.075 18.3367 409.159 17.94 409.159 17.46C409.159 16.9533 409.075 16.54 408.909 16.22C408.742 15.9 408.525 15.65 408.259 15.47C407.999 15.29 407.705 15.1667 407.379 15.1C407.052 15.0333 406.725 15 406.399 15H405.349V19.9H406.399ZM412.925 13.92H417.615V15.02H414.185V16.82H417.435V17.88H414.185V19.88H417.795V21H412.925V13.92ZM421.659 15.02H419.489V13.92H425.089V15.02H422.919V21H421.659V15.02ZM428.737 13.92H429.827L432.877 21H431.437L430.777 19.38H427.707L427.067 21H425.657L428.737 13.92ZM430.337 18.3L429.247 15.42L428.137 18.3H430.337ZM434.777 13.92H436.037V21H434.777V13.92ZM438.8 13.92H440.06V19.88H443.07V21H438.8V13.92ZM448.717 15.4C448.584 15.2267 448.394 15.0833 448.147 14.97C447.907 14.85 447.664 14.79 447.417 14.79C447.27 14.79 447.124 14.81 446.977 14.85C446.83 14.8833 446.697 14.94 446.577 15.02C446.457 15.0933 446.357 15.1933 446.277 15.32C446.204 15.44 446.167 15.5867 446.167 15.76C446.167 15.92 446.2 16.0567 446.267 16.17C446.334 16.2833 446.424 16.38 446.537 16.46C446.657 16.54 446.8 16.61 446.967 16.67C447.134 16.73 447.317 16.79 447.517 16.85C447.744 16.9233 447.977 17.0067 448.217 17.1C448.464 17.1933 448.687 17.3167 448.887 17.47C449.094 17.6233 449.26 17.8167 449.387 18.05C449.52 18.2833 449.587 18.5733 449.587 18.92C449.587 19.3 449.517 19.6333 449.377 19.92C449.237 20.2 449.05 20.4333 448.817 20.62C448.584 20.8067 448.31 20.9467 447.997 21.04C447.684 21.1333 447.354 21.18 447.007 21.18C446.547 21.18 446.097 21.0967 445.657 20.93C445.217 20.7567 444.857 20.5033 444.577 20.17L445.477 19.33C445.65 19.57 445.88 19.76 446.167 19.9C446.46 20.04 446.747 20.11 447.027 20.11C447.174 20.11 447.324 20.0933 447.477 20.06C447.63 20.02 447.767 19.9567 447.887 19.87C448.014 19.7833 448.114 19.6767 448.187 19.55C448.267 19.4167 448.307 19.2533 448.307 19.06C448.307 18.8733 448.264 18.72 448.177 18.6C448.09 18.4733 447.974 18.3667 447.827 18.28C447.68 18.1867 447.507 18.1067 447.307 18.04C447.107 17.9733 446.897 17.9033 446.677 17.83C446.464 17.7633 446.25 17.6833 446.037 17.59C445.824 17.4967 445.63 17.3733 445.457 17.22C445.29 17.0667 445.154 16.88 445.047 16.66C444.94 16.4333 444.887 16.1533 444.887 15.82C444.887 15.46 444.96 15.15 445.107 14.89C445.26 14.63 445.457 14.4167 445.697 14.25C445.944 14.0767 446.22 13.95 446.527 13.87C446.84 13.7833 447.157 13.74 447.477 13.74C447.837 13.74 448.2 13.8033 448.567 13.93C448.94 14.0567 449.264 14.2467 449.537 14.5L448.717 15.4Z" fill="#888888"/>
<path d="M587.009 13.92H589.769C590.035 13.92 590.299 13.9533 590.559 14.02C590.819 14.08 591.049 14.1833 591.249 14.33C591.455 14.47 591.622 14.6533 591.749 14.88C591.875 15.1067 591.939 15.38 591.939 15.7C591.939 16.1 591.825 16.43 591.599 16.69C591.372 16.95 591.075 17.1367 590.709 17.25V17.27C591.155 17.33 591.522 17.5033 591.809 17.79C592.095 18.0767 592.239 18.46 592.239 18.94C592.239 19.3267 592.162 19.6533 592.009 19.92C591.855 20.18 591.652 20.39 591.399 20.55C591.152 20.71 590.865 20.8267 590.539 20.9C590.219 20.9667 589.892 21 589.559 21H587.009V13.92ZM588.269 16.8H589.389C589.809 16.8 590.129 16.7167 590.349 16.55C590.569 16.3833 590.679 16.1467 590.679 15.84C590.679 15.52 590.565 15.2933 590.339 15.16C590.112 15.0267 589.759 14.96 589.279 14.96H588.269V16.8ZM588.269 19.94H589.399C589.559 19.94 589.732 19.93 589.919 19.91C590.105 19.8833 590.275 19.8333 590.429 19.76C590.589 19.6867 590.719 19.58 590.819 19.44C590.925 19.3 590.979 19.1133 590.979 18.88C590.979 18.5067 590.852 18.2467 590.599 18.1C590.345 17.9533 589.962 17.88 589.449 17.88H588.269V19.94ZM600.323 18.4C600.323 18.8267 600.25 19.2133 600.103 19.56C599.956 19.9 599.756 20.19 599.503 20.43C599.25 20.67 598.95 20.8567 598.603 20.99C598.256 21.1167 597.88 21.18 597.473 21.18C597.066 21.18 596.69 21.1167 596.343 20.99C595.996 20.8567 595.693 20.67 595.433 20.43C595.18 20.19 594.98 19.9 594.833 19.56C594.693 19.2133 594.623 18.8267 594.623 18.4V13.92H595.883V18.35C595.883 18.5567 595.91 18.7633 595.963 18.97C596.016 19.17 596.103 19.35 596.223 19.51C596.35 19.67 596.513 19.8 596.713 19.9C596.92 20 597.173 20.05 597.473 20.05C597.773 20.05 598.023 20 598.223 19.9C598.43 19.8 598.593 19.67 598.713 19.51C598.84 19.35 598.93 19.17 598.983 18.97C599.036 18.7633 599.063 18.5567 599.063 18.35V13.92H600.323V18.4ZM603.022 13.92H605.532C605.992 13.92 606.455 13.98 606.922 14.1C607.388 14.22 607.808 14.42 608.182 14.7C608.555 14.9733 608.858 15.3367 609.092 15.79C609.325 16.2367 609.442 16.7933 609.442 17.46C609.442 18.08 609.325 18.6133 609.092 19.06C608.858 19.5067 608.555 19.8733 608.182 20.16C607.808 20.4467 607.388 20.66 606.922 20.8C606.455 20.9333 605.992 21 605.532 21H603.022V13.92ZM605.332 19.9C605.658 19.9 605.985 19.8633 606.312 19.79C606.638 19.71 606.932 19.58 607.192 19.4C607.458 19.2133 607.675 18.9633 607.842 18.65C608.008 18.3367 608.092 17.94 608.092 17.46C608.092 16.9533 608.008 16.54 607.842 16.22C607.675 15.9 607.458 15.65 607.192 15.47C606.932 15.29 606.638 15.1667 606.312 15.1C605.985 15.0333 605.658 15 605.332 15H604.282V19.9H605.332ZM618.059 20.63C617.699 20.8033 617.302 20.9367 616.869 21.03C616.442 21.13 615.949 21.18 615.389 21.18C614.815 21.18 614.292 21.09 613.819 20.91C613.345 20.7233 612.939 20.4667 612.599 20.14C612.259 19.8067 611.992 19.4133 611.799 18.96C611.612 18.5 611.519 17.9933 611.519 17.44C611.519 16.8733 611.615 16.3633 611.809 15.91C612.009 15.45 612.279 15.06 612.619 14.74C612.965 14.42 613.372 14.1733 613.839 14C614.305 13.8267 614.812 13.74 615.359 13.74C615.925 13.74 616.442 13.8233 616.909 13.99C617.382 14.15 617.762 14.3633 618.049 14.63L617.179 15.57C616.999 15.37 616.745 15.2 616.419 15.06C616.099 14.92 615.749 14.85 615.369 14.85C614.995 14.85 614.655 14.9167 614.349 15.05C614.049 15.1833 613.792 15.3667 613.579 15.6C613.365 15.8333 613.199 16.1067 613.079 16.42C612.965 16.7333 612.909 17.0733 612.909 17.44C612.909 17.82 612.965 18.17 613.079 18.49C613.199 18.8033 613.365 19.0767 613.579 19.31C613.799 19.5433 614.062 19.7267 614.369 19.86C614.682 19.9867 615.035 20.05 615.429 20.05C615.969 20.05 616.439 19.9667 616.839 19.8V18H615.349V16.96H618.059V20.63ZM620.793 13.92H625.483V15.02H622.053V16.82H625.303V17.88H622.053V19.88H625.663V21H620.793V13.92ZM629.526 15.02H627.356V13.92H632.956V15.02H630.786V21H629.526V15.02Z" fill="#888888"/>
<path d="M675.309 13.92H677.769C678.103 13.92 678.426 13.9567 678.739 14.03C679.053 14.0967 679.329 14.21 679.569 14.37C679.816 14.53 680.013 14.74 680.159 15C680.306 15.26 680.379 15.5767 680.379 15.95C680.379 16.4633 680.233 16.8833 679.939 17.21C679.653 17.53 679.259 17.7467 678.759 17.86L680.649 21H679.129L677.489 18H676.569V21H675.309V13.92ZM677.599 16.97C677.779 16.97 677.959 16.9567 678.139 16.93C678.319 16.9033 678.479 16.8533 678.619 16.78C678.766 16.7067 678.886 16.6033 678.979 16.47C679.073 16.33 679.119 16.1533 679.119 15.94C679.119 15.7467 679.076 15.59 678.989 15.47C678.903 15.3433 678.793 15.2433 678.659 15.17C678.526 15.0967 678.373 15.0467 678.199 15.02C678.033 14.9933 677.869 14.98 677.709 14.98H676.569V16.97H677.599ZM682.798 13.92H687.488V15.02H684.058V16.82H687.308V17.88H684.058V19.88H687.668V21H682.798V13.92ZM691.532 15.02H689.362V13.92H694.962V15.02H692.792V21H691.532V15.02ZM698.61 13.92H699.7L702.75 21H701.31L700.65 19.38H697.58L696.94 21H695.53L698.61 13.92ZM700.21 18.3L699.12 15.42L698.01 18.3H700.21ZM704.65 13.92H705.91V21H704.65V13.92ZM708.673 13.92H709.933V19.88H712.943V21H708.673V13.92Z" fill="#888888"/>
<path d="M741.103 13.92H742.363V16.78H745.673V13.92H746.933V21H745.673V17.86H742.363V21H741.103V13.92ZM749.695 13.92H752.005C752.412 13.92 752.779 13.9567 753.105 14.03C753.432 14.1033 753.712 14.2233 753.945 14.39C754.179 14.5567 754.359 14.77 754.485 15.03C754.612 15.29 754.675 15.6033 754.675 15.97C754.675 16.3633 754.602 16.6933 754.455 16.96C754.309 17.2267 754.109 17.4433 753.855 17.61C753.609 17.77 753.319 17.8867 752.985 17.96C752.652 18.0333 752.299 18.07 751.925 18.07H750.955V21H749.695V13.92ZM751.835 17.01C752.042 17.01 752.239 16.9967 752.425 16.97C752.612 16.9367 752.779 16.8833 752.925 16.81C753.072 16.73 753.189 16.6233 753.275 16.49C753.362 16.3567 753.405 16.1833 753.405 15.97C753.405 15.7633 753.362 15.5967 753.275 15.47C753.189 15.3367 753.072 15.2333 752.925 15.16C752.785 15.0867 752.622 15.04 752.435 15.02C752.255 14.9933 752.069 14.98 751.875 14.98H750.955V17.01H751.835ZM760.699 13.92H763.009C763.415 13.92 763.782 13.9567 764.109 14.03C764.435 14.1033 764.715 14.2233 764.949 14.39C765.182 14.5567 765.362 14.77 765.489 15.03C765.615 15.29 765.679 15.6033 765.679 15.97C765.679 16.3633 765.605 16.6933 765.459 16.96C765.312 17.2267 765.112 17.4433 764.859 17.61C764.612 17.77 764.322 17.8867 763.989 17.96C763.655 18.0333 763.302 18.07 762.929 18.07H761.959V21H760.699V13.92ZM762.839 17.01C763.045 17.01 763.242 16.9967 763.429 16.97C763.615 16.9367 763.782 16.8833 763.929 16.81C764.075 16.73 764.192 16.6233 764.279 16.49C764.365 16.3567 764.409 16.1833 764.409 15.97C764.409 15.7633 764.365 15.5967 764.279 15.47C764.192 15.3367 764.075 15.2333 763.929 15.16C763.789 15.0867 763.625 15.04 763.439 15.02C763.259 14.9933 763.072 14.98 762.879 14.98H761.959V17.01H762.839ZM768.002 13.92H770.462C770.796 13.92 771.119 13.9567 771.432 14.03C771.746 14.0967 772.022 14.21 772.262 14.37C772.509 14.53 772.706 14.74 772.852 15C772.999 15.26 773.072 15.5767 773.072 15.95C773.072 16.4633 772.926 16.8833 772.632 17.21C772.346 17.53 771.952 17.7467 771.452 17.86L773.342 21H771.822L770.182 18H769.262V21H768.002V13.92ZM770.292 16.97C770.472 16.97 770.652 16.9567 770.832 16.93C771.012 16.9033 771.172 16.8533 771.312 16.78C771.459 16.7067 771.579 16.6033 771.672 16.47C771.766 16.33 771.812 16.1533 771.812 15.94C771.812 15.7467 771.769 15.59 771.682 15.47C771.596 15.3433 771.486 15.2433 771.352 15.17C771.219 15.0967 771.066 15.0467 770.892 15.02C770.726 14.9933 770.562 14.98 770.402 14.98H769.262V16.97H770.292ZM775.491 13.92H776.751V21H775.491V13.92ZM784.624 15.58C784.437 15.3267 784.194 15.1433 783.894 15.03C783.594 14.91 783.3 14.85 783.014 14.85C782.647 14.85 782.314 14.9167 782.014 15.05C781.714 15.1833 781.454 15.3667 781.234 15.6C781.02 15.8333 780.854 16.1067 780.734 16.42C780.62 16.7333 780.564 17.0733 780.564 17.44C780.564 17.8267 780.62 18.18 780.734 18.5C780.847 18.82 781.007 19.0967 781.214 19.33C781.427 19.5567 781.68 19.7333 781.974 19.86C782.267 19.9867 782.597 20.05 782.964 20.05C783.344 20.05 783.68 19.9767 783.974 19.83C784.267 19.6767 784.504 19.4767 784.684 19.23L785.694 19.94C785.38 20.3333 784.997 20.64 784.544 20.86C784.09 21.0733 783.56 21.18 782.954 21.18C782.4 21.18 781.89 21.09 781.424 20.91C780.964 20.7233 780.567 20.4667 780.234 20.14C779.9 19.8067 779.64 19.4133 779.454 18.96C779.267 18.5 779.174 17.9933 779.174 17.44C779.174 16.8733 779.27 16.3633 779.464 15.91C779.664 15.45 779.934 15.06 780.274 14.74C780.62 14.42 781.027 14.1733 781.494 14C781.96 13.8267 782.467 13.74 783.014 13.74C783.24 13.74 783.477 13.7633 783.724 13.81C783.97 13.85 784.207 13.9167 784.434 14.01C784.66 14.0967 784.874 14.2067 785.074 14.34C785.274 14.4733 785.444 14.6333 785.584 14.82L784.624 15.58ZM787.676 13.92H792.366V15.02H788.936V16.82H792.186V17.88H788.936V19.88H792.546V21H787.676V13.92Z" fill="#888888"/>
<path d="M840.691 21H836.421C835.854 21 835.338 20.92 834.871 20.76C834.411 20.5933 834.014 20.3567 833.681 20.05C833.354 19.7367 833.101 19.3567 832.921 18.91C832.741 18.4567 832.651 17.9433 832.651 17.37C832.651 16.83 832.744 16.34 832.931 15.9C833.124 15.4533 833.391 15.07 833.731 14.75C834.071 14.43 834.471 14.1833 834.931 14.01C835.398 13.83 835.901 13.74 836.441 13.74C836.981 13.74 837.481 13.83 837.941 14.01C838.401 14.1833 838.798 14.43 839.131 14.75C839.471 15.07 839.734 15.4533 839.921 15.9C840.108 16.34 840.201 16.83 840.201 17.37C840.201 17.69 840.164 17.9833 840.091 18.25C840.018 18.5167 839.921 18.76 839.801 18.98C839.688 19.1933 839.554 19.3833 839.401 19.55C839.254 19.71 839.101 19.8467 838.941 19.96V19.98H840.691V21ZM836.441 14.87C836.101 14.87 835.781 14.9333 835.481 15.06C835.188 15.1867 834.934 15.36 834.721 15.58C834.508 15.8 834.338 16.0633 834.211 16.37C834.091 16.6767 834.031 17.01 834.031 17.37C834.031 17.75 834.088 18.0967 834.201 18.41C834.321 18.7167 834.484 18.98 834.691 19.2C834.904 19.42 835.158 19.5933 835.451 19.72C835.744 19.84 836.068 19.9 836.421 19.9C836.768 19.9 837.088 19.84 837.381 19.72C837.681 19.5933 837.938 19.42 838.151 19.2C838.364 18.98 838.531 18.7167 838.651 18.41C838.771 18.0967 838.831 17.75 838.831 17.37C838.831 17.01 838.774 16.6767 838.661 16.37C838.548 16.0633 838.384 15.8 838.171 15.58C837.964 15.36 837.714 15.1867 837.421 15.06C837.128 14.9333 836.801 14.87 836.441 14.87ZM844.206 15.02H842.036V13.92H847.636V15.02H845.466V21H844.206V15.02ZM851.253 17.93L848.593 13.92H850.133L851.913 16.9L853.713 13.92H855.173L852.513 17.93V21H851.253V17.93ZM855.902 20.3C855.902 20.0867 855.979 19.9033 856.132 19.75C856.292 19.5967 856.482 19.52 856.702 19.52C856.916 19.52 857.102 19.5933 857.262 19.74C857.422 19.8867 857.502 20.0667 857.502 20.28C857.502 20.4933 857.422 20.6767 857.262 20.83C857.109 20.9833 856.922 21.06 856.702 21.06C856.596 21.06 856.492 21.04 856.392 21C856.299 20.96 856.216 20.9067 856.142 20.84C856.069 20.7733 856.009 20.6933 855.962 20.6C855.922 20.5067 855.902 20.4067 855.902 20.3Z" fill="#888888"/>
<path d="M900.59 15.02H898.42V13.92H904.02V15.02H901.85V21H900.59V15.02ZM905.401 17.44C905.401 16.8733 905.494 16.3633 905.681 15.91C905.874 15.45 906.137 15.06 906.471 14.74C906.811 14.42 907.211 14.1733 907.671 14C908.137 13.8267 908.644 13.74 909.191 13.74C909.744 13.74 910.254 13.8267 910.721 14C911.187 14.1733 911.591 14.42 911.931 14.74C912.271 15.06 912.534 15.45 912.721 15.91C912.914 16.3633 913.011 16.8733 913.011 17.44C913.011 17.9933 912.914 18.5 912.721 18.96C912.534 19.4133 912.271 19.8067 911.931 20.14C911.591 20.4667 911.187 20.7233 910.721 20.91C910.254 21.09 909.744 21.18 909.191 21.18C908.644 21.18 908.137 21.09 907.671 20.91C907.211 20.7233 906.811 20.4667 906.471 20.14C906.137 19.8067 905.874 19.4133 905.681 18.96C905.494 18.5 905.401 17.9933 905.401 17.44ZM906.771 17.44C906.771 17.82 906.827 18.17 906.941 18.49C907.061 18.8033 907.227 19.0767 907.441 19.31C907.661 19.5433 907.917 19.7267 908.211 19.86C908.511 19.9867 908.841 20.05 909.201 20.05C909.561 20.05 909.891 19.9867 910.191 19.86C910.491 19.7267 910.747 19.5433 910.961 19.31C911.181 19.0767 911.347 18.8033 911.461 18.49C911.581 18.17 911.641 17.82 911.641 17.44C911.641 17.0733 911.581 16.7333 911.461 16.42C911.347 16.1067 911.184 15.8333 910.971 15.6C910.757 15.3667 910.501 15.1833 910.201 15.05C909.901 14.9167 909.567 14.85 909.201 14.85C908.834 14.85 908.501 14.9167 908.201 15.05C907.907 15.1833 907.654 15.3667 907.441 15.6C907.227 15.8333 907.061 16.1067 906.941 16.42C906.827 16.7333 906.771 17.0733 906.771 17.44ZM916.554 15.02H914.384V13.92H919.984V15.02H917.814V21H916.554V15.02ZM923.632 13.92H924.722L927.772 21H926.332L925.672 19.38H922.602L921.962 21H920.552L923.632 13.92ZM925.232 18.3L924.142 15.42L923.032 18.3H925.232ZM929.673 13.92H930.933V19.88H933.943V21H929.673V13.92Z" fill="#888888"/>
<path d="M958.17 17.44C958.17 16.8733 958.263 16.3633 958.45 15.91C958.643 15.45 958.907 15.06 959.24 14.74C959.58 14.42 959.98 14.1733 960.44 14C960.907 13.8267 961.413 13.74 961.96 13.74C962.513 13.74 963.023 13.8267 963.49 14C963.957 14.1733 964.36 14.42 964.7 14.74C965.04 15.06 965.303 15.45 965.49 15.91C965.683 16.3633 965.78 16.8733 965.78 17.44C965.78 17.9933 965.683 18.5 965.49 18.96C965.303 19.4133 965.04 19.8067 964.7 20.14C964.36 20.4667 963.957 20.7233 963.49 20.91C963.023 21.09 962.513 21.18 961.96 21.18C961.413 21.18 960.907 21.09 960.44 20.91C959.98 20.7233 959.58 20.4667 959.24 20.14C958.907 19.8067 958.643 19.4133 958.45 18.96C958.263 18.5 958.17 17.9933 958.17 17.44ZM959.54 17.44C959.54 17.82 959.597 18.17 959.71 18.49C959.83 18.8033 959.997 19.0767 960.21 19.31C960.43 19.5433 960.687 19.7267 960.98 19.86C961.28 19.9867 961.61 20.05 961.97 20.05C962.33 20.05 962.66 19.9867 962.96 19.86C963.26 19.7267 963.517 19.5433 963.73 19.31C963.95 19.0767 964.117 18.8033 964.23 18.49C964.35 18.17 964.41 17.82 964.41 17.44C964.41 17.0733 964.35 16.7333 964.23 16.42C964.117 16.1067 963.953 15.8333 963.74 15.6C963.527 15.3667 963.27 15.1833 962.97 15.05C962.67 14.9167 962.337 14.85 961.97 14.85C961.603 14.85 961.27 14.9167 960.97 15.05C960.677 15.1833 960.423 15.3667 960.21 15.6C959.997 15.8333 959.83 16.1067 959.71 16.42C959.597 16.7333 959.54 17.0733 959.54 17.44ZM968.196 13.92H970.656C970.99 13.92 971.313 13.9567 971.626 14.03C971.94 14.0967 972.216 14.21 972.456 14.37C972.703 14.53 972.9 14.74 973.046 15C973.193 15.26 973.266 15.5767 973.266 15.95C973.266 16.4633 973.12 16.8833 972.826 17.21C972.54 17.53 972.146 17.7467 971.646 17.86L973.536 21H972.016L970.376 18H969.456V21H968.196V13.92ZM970.486 16.97C970.666 16.97 970.846 16.9567 971.026 16.93C971.206 16.9033 971.366 16.8533 971.506 16.78C971.653 16.7067 971.773 16.6033 971.866 16.47C971.96 16.33 972.006 16.1533 972.006 15.94C972.006 15.7467 971.963 15.59 971.876 15.47C971.79 15.3433 971.68 15.2433 971.546 15.17C971.413 15.0967 971.26 15.0467 971.086 15.02C970.92 14.9933 970.756 14.98 970.596 14.98H969.456V16.97H970.486ZM975.685 13.92H978.195C978.655 13.92 979.119 13.98 979.585 14.1C980.052 14.22 980.472 14.42 980.845 14.7C981.219 14.9733 981.522 15.3367 981.755 15.79C981.989 16.2367 982.105 16.7933 982.105 17.46C982.105 18.08 981.989 18.6133 981.755 19.06C981.522 19.5067 981.219 19.8733 980.845 20.16C980.472 20.4467 980.052 20.66 979.585 20.8C979.119 20.9333 978.655 21 978.195 21H975.685V13.92ZM977.995 19.9C978.322 19.9 978.649 19.8633 978.975 19.79C979.302 19.71 979.595 19.58 979.855 19.4C980.122 19.2133 980.339 18.9633 980.505 18.65C980.672 18.3367 980.755 17.94 980.755 17.46C980.755 16.9533 980.672 16.54 980.505 16.22C980.339 15.9 980.122 15.65 979.855 15.47C979.595 15.29 979.302 15.1667 978.975 15.1C978.649 15.0333 978.322 15 977.995 15H976.945V19.9H977.995ZM984.522 13.92H989.212V15.02H985.782V16.82H989.032V17.88H985.782V19.88H989.392V21H984.522V13.92ZM991.826 13.92H994.286C994.619 13.92 994.942 13.9567 995.256 14.03C995.569 14.0967 995.846 14.21 996.086 14.37C996.332 14.53 996.529 14.74 996.676 15C996.822 15.26 996.896 15.5767 996.896 15.95C996.896 16.4633 996.749 16.8833 996.456 17.21C996.169 17.53 995.776 17.7467 995.276 17.86L997.166 21H995.646L994.006 18H993.086V21H991.826V13.92ZM994.116 16.97C994.296 16.97 994.476 16.9567 994.656 16.93C994.836 16.9033 994.996 16.8533 995.136 16.78C995.282 16.7067 995.402 16.6033 995.496 16.47C995.589 16.33 995.636 16.1533 995.636 15.94C995.636 15.7467 995.592 15.59 995.506 15.47C995.419 15.3433 995.309 15.2433 995.176 15.17C995.042 15.0967 994.889 15.0467 994.716 15.02C994.549 14.9933 994.386 14.98 994.226 14.98H993.086V16.97H994.116ZM999.315 13.92H1004V15.02H1000.57V16.82H1003.82V17.88H1000.57V19.88H1004.18V21H999.315V13.92ZM1006.62 13.92H1009.13C1009.59 13.92 1010.05 13.98 1010.52 14.1C1010.98 14.22 1011.4 14.42 1011.78 14.7C1012.15 14.9733 1012.45 15.3367 1012.69 15.79C1012.92 16.2367 1013.04 16.7933 1013.04 17.46C1013.04 18.08 1012.92 18.6133 1012.69 19.06C1012.45 19.5067 1012.15 19.8733 1011.78 20.16C1011.4 20.4467 1010.98 20.66 1010.52 20.8C1010.05 20.9333 1009.59 21 1009.13 21H1006.62V13.92ZM1008.93 19.9C1009.25 19.9 1009.58 19.8633 1009.91 19.79C1010.23 19.71 1010.53 19.58 1010.79 19.4C1011.05 19.2133 1011.27 18.9633 1011.44 18.65C1011.6 18.3367 1011.69 17.94 1011.69 17.46C1011.69 16.9533 1011.6 16.54 1011.44 16.22C1011.27 15.9 1011.05 15.65 1010.79 15.47C1010.53 15.29 1010.23 15.1667 1009.91 15.1C1009.58 15.0333 1009.25 15 1008.93 15H1007.88V19.9H1008.93ZM1019.15 13.92H1021.91C1022.18 13.92 1022.44 13.9533 1022.7 14.02C1022.96 14.08 1023.19 14.1833 1023.39 14.33C1023.6 14.47 1023.77 14.6533 1023.89 14.88C1024.02 15.1067 1024.08 15.38 1024.08 15.7C1024.08 16.1 1023.97 16.43 1023.74 16.69C1023.52 16.95 1023.22 17.1367 1022.85 17.25V17.27C1023.3 17.33 1023.67 17.5033 1023.95 17.79C1024.24 18.0767 1024.38 18.46 1024.38 18.94C1024.38 19.3267 1024.31 19.6533 1024.15 19.92C1024 20.18 1023.8 20.39 1023.54 20.55C1023.3 20.71 1023.01 20.8267 1022.68 20.9C1022.36 20.9667 1022.04 21 1021.7 21H1019.15V13.92ZM1020.41 16.8H1021.53C1021.95 16.8 1022.27 16.7167 1022.49 16.55C1022.71 16.3833 1022.82 16.1467 1022.82 15.84C1022.82 15.52 1022.71 15.2933 1022.48 15.16C1022.26 15.0267 1021.9 14.96 1021.42 14.96H1020.41V16.8ZM1020.41 19.94H1021.54C1021.7 19.94 1021.88 19.93 1022.06 19.91C1022.25 19.8833 1022.42 19.8333 1022.57 19.76C1022.73 19.6867 1022.86 19.58 1022.96 19.44C1023.07 19.3 1023.12 19.1133 1023.12 18.88C1023.12 18.5067 1023 18.2467 1022.74 18.1C1022.49 17.9533 1022.11 17.88 1021.59 17.88H1020.41V19.94ZM1028.54 17.93L1025.88 13.92H1027.42L1029.2 16.9L1031 13.92H1032.46L1029.8 17.93V21H1028.54V17.93Z" fill="#888888"/>
<path d="M1091.04 15.4C1090.91 15.2267 1090.72 15.0833 1090.47 14.97C1090.23 14.85 1089.99 14.79 1089.74 14.79C1089.59 14.79 1089.45 14.81 1089.3 14.85C1089.15 14.8833 1089.02 14.94 1088.9 15.02C1088.78 15.0933 1088.68 15.1933 1088.6 15.32C1088.53 15.44 1088.49 15.5867 1088.49 15.76C1088.49 15.92 1088.52 16.0567 1088.59 16.17C1088.66 16.2833 1088.75 16.38 1088.86 16.46C1088.98 16.54 1089.12 16.61 1089.29 16.67C1089.46 16.73 1089.64 16.79 1089.84 16.85C1090.07 16.9233 1090.3 17.0067 1090.54 17.1C1090.79 17.1933 1091.01 17.3167 1091.21 17.47C1091.42 17.6233 1091.58 17.8167 1091.71 18.05C1091.84 18.2833 1091.91 18.5733 1091.91 18.92C1091.91 19.3 1091.84 19.6333 1091.7 19.92C1091.56 20.2 1091.37 20.4333 1091.14 20.62C1090.91 20.8067 1090.63 20.9467 1090.32 21.04C1090.01 21.1333 1089.68 21.18 1089.33 21.18C1088.87 21.18 1088.42 21.0967 1087.98 20.93C1087.54 20.7567 1087.18 20.5033 1086.9 20.17L1087.8 19.33C1087.97 19.57 1088.2 19.76 1088.49 19.9C1088.78 20.04 1089.07 20.11 1089.35 20.11C1089.5 20.11 1089.65 20.0933 1089.8 20.06C1089.95 20.02 1090.09 19.9567 1090.21 19.87C1090.34 19.7833 1090.44 19.6767 1090.51 19.55C1090.59 19.4167 1090.63 19.2533 1090.63 19.06C1090.63 18.8733 1090.59 18.72 1090.5 18.6C1090.41 18.4733 1090.3 18.3667 1090.15 18.28C1090 18.1867 1089.83 18.1067 1089.63 18.04C1089.43 17.9733 1089.22 17.9033 1089 17.83C1088.79 17.7633 1088.57 17.6833 1088.36 17.59C1088.15 17.4967 1087.95 17.3733 1087.78 17.22C1087.61 17.0667 1087.48 16.88 1087.37 16.66C1087.26 16.4333 1087.21 16.1533 1087.21 15.82C1087.21 15.46 1087.28 15.15 1087.43 14.89C1087.58 14.63 1087.78 14.4167 1088.02 14.25C1088.27 14.0767 1088.54 13.95 1088.85 13.87C1089.16 13.7833 1089.48 13.74 1089.8 13.74C1090.16 13.74 1090.52 13.8033 1090.89 13.93C1091.26 14.0567 1091.59 14.2467 1091.86 14.5L1091.04 15.4ZM1095.64 15.02H1093.47V13.92H1099.07V15.02H1096.9V21H1095.64V15.02ZM1102.72 13.92H1103.81L1106.86 21H1105.42L1104.76 19.38H1101.69L1101.05 21H1099.64L1102.72 13.92ZM1104.32 18.3L1103.23 15.42L1102.12 18.3H1104.32ZM1109.6 15.02H1107.43V13.92H1113.03V15.02H1110.86V21H1109.6V15.02ZM1120.69 18.4C1120.69 18.8267 1120.62 19.2133 1120.47 19.56C1120.32 19.9 1120.12 20.19 1119.87 20.43C1119.62 20.67 1119.32 20.8567 1118.97 20.99C1118.62 21.1167 1118.25 21.18 1117.84 21.18C1117.43 21.18 1117.06 21.1167 1116.71 20.99C1116.36 20.8567 1116.06 20.67 1115.8 20.43C1115.55 20.19 1115.35 19.9 1115.2 19.56C1115.06 19.2133 1114.99 18.8267 1114.99 18.4V13.92H1116.25V18.35C1116.25 18.5567 1116.28 18.7633 1116.33 18.97C1116.38 19.17 1116.47 19.35 1116.59 19.51C1116.72 19.67 1116.88 19.8 1117.08 19.9C1117.29 20 1117.54 20.05 1117.84 20.05C1118.14 20.05 1118.39 20 1118.59 19.9C1118.8 19.8 1118.96 19.67 1119.08 19.51C1119.21 19.35 1119.3 19.17 1119.35 18.97C1119.4 18.7633 1119.43 18.5567 1119.43 18.35V13.92H1120.69V18.4ZM1127 15.4C1126.87 15.2267 1126.68 15.0833 1126.43 14.97C1126.19 14.85 1125.95 14.79 1125.7 14.79C1125.55 14.79 1125.41 14.81 1125.26 14.85C1125.11 14.8833 1124.98 14.94 1124.86 15.02C1124.74 15.0933 1124.64 15.1933 1124.56 15.32C1124.49 15.44 1124.45 15.5867 1124.45 15.76C1124.45 15.92 1124.48 16.0567 1124.55 16.17C1124.62 16.2833 1124.71 16.38 1124.82 16.46C1124.94 16.54 1125.08 16.61 1125.25 16.67C1125.42 16.73 1125.6 16.79 1125.8 16.85C1126.03 16.9233 1126.26 17.0067 1126.5 17.1C1126.75 17.1933 1126.97 17.3167 1127.17 17.47C1127.38 17.6233 1127.54 17.8167 1127.67 18.05C1127.8 18.2833 1127.87 18.5733 1127.87 18.92C1127.87 19.3 1127.8 19.6333 1127.66 19.92C1127.52 20.2 1127.33 20.4333 1127.1 20.62C1126.87 20.8067 1126.59 20.9467 1126.28 21.04C1125.97 21.1333 1125.64 21.18 1125.29 21.18C1124.83 21.18 1124.38 21.0967 1123.94 20.93C1123.5 20.7567 1123.14 20.5033 1122.86 20.17L1123.76 19.33C1123.93 19.57 1124.16 19.76 1124.45 19.9C1124.74 20.04 1125.03 20.11 1125.31 20.11C1125.46 20.11 1125.61 20.0933 1125.76 20.06C1125.91 20.02 1126.05 19.9567 1126.17 19.87C1126.3 19.7833 1126.4 19.6767 1126.47 19.55C1126.55 19.4167 1126.59 19.2533 1126.59 19.06C1126.59 18.8733 1126.55 18.72 1126.46 18.6C1126.37 18.4733 1126.26 18.3667 1126.11 18.28C1125.96 18.1867 1125.79 18.1067 1125.59 18.04C1125.39 17.9733 1125.18 17.9033 1124.96 17.83C1124.75 17.7633 1124.53 17.6833 1124.32 17.59C1124.11 17.4967 1123.91 17.3733 1123.74 17.22C1123.57 17.0667 1123.44 16.88 1123.33 16.66C1123.22 16.4333 1123.17 16.1533 1123.17 15.82C1123.17 15.46 1123.24 15.15 1123.39 14.89C1123.54 14.63 1123.74 14.4167 1123.98 14.25C1124.23 14.0767 1124.5 13.95 1124.81 13.87C1125.12 13.7833 1125.44 13.74 1125.76 13.74C1126.12 13.74 1126.48 13.8033 1126.85 13.93C1127.22 14.0567 1127.55 14.2467 1127.82 14.5L1127 15.4Z" fill="#888888"/>
<path d="M1166.51 13.92H1171.2V15.02H1167.77V16.82H1171.02V17.88H1167.77V19.88H1171.38V21H1166.51V13.92ZM1177.42 15.4C1177.29 15.2267 1177.1 15.0833 1176.85 14.97C1176.61 14.85 1176.37 14.79 1176.12 14.79C1175.97 14.79 1175.83 14.81 1175.68 14.85C1175.53 14.8833 1175.4 14.94 1175.28 15.02C1175.16 15.0933 1175.06 15.1933 1174.98 15.32C1174.91 15.44 1174.87 15.5867 1174.87 15.76C1174.87 15.92 1174.9 16.0567 1174.97 16.17C1175.04 16.2833 1175.13 16.38 1175.24 16.46C1175.36 16.54 1175.5 16.61 1175.67 16.67C1175.84 16.73 1176.02 16.79 1176.22 16.85C1176.45 16.9233 1176.68 17.0067 1176.92 17.1C1177.17 17.1933 1177.39 17.3167 1177.59 17.47C1177.8 17.6233 1177.96 17.8167 1178.09 18.05C1178.22 18.2833 1178.29 18.5733 1178.29 18.92C1178.29 19.3 1178.22 19.6333 1178.08 19.92C1177.94 20.2 1177.75 20.4333 1177.52 20.62C1177.29 20.8067 1177.01 20.9467 1176.7 21.04C1176.39 21.1333 1176.06 21.18 1175.71 21.18C1175.25 21.18 1174.8 21.0967 1174.36 20.93C1173.92 20.7567 1173.56 20.5033 1173.28 20.17L1174.18 19.33C1174.35 19.57 1174.58 19.76 1174.87 19.9C1175.16 20.04 1175.45 20.11 1175.73 20.11C1175.88 20.11 1176.03 20.0933 1176.18 20.06C1176.33 20.02 1176.47 19.9567 1176.59 19.87C1176.72 19.7833 1176.82 19.6767 1176.89 19.55C1176.97 19.4167 1177.01 19.2533 1177.01 19.06C1177.01 18.8733 1176.97 18.72 1176.88 18.6C1176.79 18.4733 1176.68 18.3667 1176.53 18.28C1176.38 18.1867 1176.21 18.1067 1176.01 18.04C1175.81 17.9733 1175.6 17.9033 1175.38 17.83C1175.17 17.7633 1174.95 17.6833 1174.74 17.59C1174.53 17.4967 1174.33 17.3733 1174.16 17.22C1173.99 17.0667 1173.86 16.88 1173.75 16.66C1173.64 16.4333 1173.59 16.1533 1173.59 15.82C1173.59 15.46 1173.66 15.15 1173.81 14.89C1173.96 14.63 1174.16 14.4167 1174.4 14.25C1174.65 14.0767 1174.92 13.95 1175.23 13.87C1175.54 13.7833 1175.86 13.74 1176.18 13.74C1176.54 13.74 1176.9 13.8033 1177.27 13.93C1177.64 14.0567 1177.97 14.2467 1178.24 14.5L1177.42 15.4ZM1182.03 15.02H1179.86V13.92H1185.46V15.02H1183.29V21H1182.03V15.02ZM1186.42 20.3C1186.42 20.0867 1186.49 19.9033 1186.65 19.75C1186.81 19.5967 1187 19.52 1187.22 19.52C1187.43 19.52 1187.62 19.5933 1187.78 19.74C1187.94 19.8867 1188.02 20.0667 1188.02 20.28C1188.02 20.4933 1187.94 20.6767 1187.78 20.83C1187.62 20.9833 1187.44 21.06 1187.22 21.06C1187.11 21.06 1187.01 21.04 1186.91 21C1186.81 20.96 1186.73 20.9067 1186.66 20.84C1186.58 20.7733 1186.52 20.6933 1186.48 20.6C1186.44 20.5067 1186.42 20.4067 1186.42 20.3ZM1193.89 13.92H1196.4C1196.86 13.92 1197.33 13.98 1197.79 14.1C1198.26 14.22 1198.68 14.42 1199.05 14.7C1199.43 14.9733 1199.73 15.3367 1199.96 15.79C1200.2 16.2367 1200.31 16.7933 1200.31 17.46C1200.31 18.08 1200.2 18.6133 1199.96 19.06C1199.73 19.5067 1199.43 19.8733 1199.05 20.16C1198.68 20.4467 1198.26 20.66 1197.79 20.8C1197.33 20.9333 1196.86 21 1196.4 21H1193.89V13.92ZM1196.2 19.9C1196.53 19.9 1196.86 19.8633 1197.18 19.79C1197.51 19.71 1197.8 19.58 1198.06 19.4C1198.33 19.2133 1198.55 18.9633 1198.71 18.65C1198.88 18.3367 1198.96 17.94 1198.96 17.46C1198.96 16.9533 1198.88 16.54 1198.71 16.22C1198.55 15.9 1198.33 15.65 1198.06 15.47C1197.8 15.29 1197.51 15.1667 1197.18 15.1C1196.86 15.0333 1196.53 15 1196.2 15H1195.15V19.9H1196.2ZM1202.73 13.92H1207.42V15.02H1203.99V16.82H1207.24V17.88H1203.99V19.88H1207.6V21H1202.73V13.92ZM1210.03 13.92H1211.29V19.88H1214.3V21H1210.03V13.92ZM1216.06 20.3C1216.06 20.0867 1216.14 19.9033 1216.29 19.75C1216.45 19.5967 1216.64 19.52 1216.86 19.52C1217.07 19.52 1217.26 19.5933 1217.42 19.74C1217.58 19.8867 1217.66 20.0667 1217.66 20.28C1217.66 20.4933 1217.58 20.6767 1217.42 20.83C1217.27 20.9833 1217.08 21.06 1216.86 21.06C1216.75 21.06 1216.65 21.04 1216.55 21C1216.46 20.96 1216.37 20.9067 1216.3 20.84C1216.23 20.7733 1216.17 20.6933 1216.12 20.6C1216.08 20.5067 1216.06 20.4067 1216.06 20.3ZM1223.54 13.92H1226.05C1226.51 13.92 1226.97 13.98 1227.44 14.1C1227.9 14.22 1228.32 14.42 1228.7 14.7C1229.07 14.9733 1229.37 15.3367 1229.61 15.79C1229.84 16.2367 1229.96 16.7933 1229.96 17.46C1229.96 18.08 1229.84 18.6133 1229.61 19.06C1229.37 19.5067 1229.07 19.8733 1228.7 20.16C1228.32 20.4467 1227.9 20.66 1227.44 20.8C1226.97 20.9333 1226.51 21 1226.05 21H1223.54V13.92ZM1225.85 19.9C1226.17 19.9 1226.5 19.8633 1226.83 19.79C1227.15 19.71 1227.45 19.58 1227.71 19.4C1227.97 19.2133 1228.19 18.9633 1228.36 18.65C1228.52 18.3367 1228.61 17.94 1228.61 17.46C1228.61 16.9533 1228.52 16.54 1228.36 16.22C1228.19 15.9 1227.97 15.65 1227.71 15.47C1227.45 15.29 1227.15 15.1667 1226.83 15.1C1226.5 15.0333 1226.17 15 1225.85 15H1224.8V19.9H1225.85ZM1234.35 13.92H1235.44L1238.49 21H1237.05L1236.39 19.38H1233.32L1232.68 21H1231.27L1234.35 13.92ZM1235.95 18.3L1234.86 15.42L1233.75 18.3H1235.95ZM1241.22 15.02H1239.05V13.92H1244.65V15.02H1242.48V21H1241.22V15.02ZM1246.68 13.92H1251.37V15.02H1247.94V16.82H1251.19V17.88H1247.94V19.88H1251.55V21H1246.68V13.92Z" fill="#888888"/>
<path fill-rule="evenodd" clip-rule="evenodd" d="M0 37H16V97H0V37Z" fill="#A8A18F"/>
<path d="M16.5 37.5H31.5V96.5H16.5V37.5Z" fill="#DCDFD8" stroke="#A8A18F"/>
<path fill-rule="evenodd" clip-rule="evenodd" d="M32 37H46V97H32V37Z" fill="#A8A18F"/>
<path d="M46.5 37.5H133.5V96.5H46.5V37.5Z" fill="#DCDFD8" stroke="#A8A18F"/>
<path d="M134.5 37.5H205.5V96.5H134.5V37.5Z" fill="#DCDFD8" stroke="#A8A18F"/>
<path fill-rule="evenodd" clip-rule="evenodd" d="M206 37H223V97H206V37Z" fill="#A8A18F"/>
<path d="M223.5 37.5H362.5V96.5H223.5V37.5Z" fill="#DCDFD8" stroke="#A8A18F"/>
<path fill-rule="evenodd" clip-rule="evenodd" d="M363 37H371V97H363V37Z" fill="#A8A18F"/>
<path d="M371.5 37.5H552.5V96.5H371.5V37.5Z" fill="#DCDFD8" stroke="#A8A18F"/>
<path d="M553.5 37.5H632.5V96.5H553.5V37.5Z" fill="#DCDFD8" stroke="#A8A18F"/>
<path d="M633.5 37.5H712.5V96.5H633.5V37.5Z" fill="#DCDFD8" stroke="#A8A18F"/>
<path d="M713.5 37.5H792.5V96.5H713.5V37.5Z" fill="#DCDFD8" stroke="#A8A18F"/>
<path d="M793.5 37.5H857.5V96.5H793.5V37.5Z" fill="#DCDFD8" stroke="#A8A18F"/>
<path d="M858.5 37.5H933.5V96.5H858.5V37.5Z" fill="#DCDFD8" stroke="#A8A18F"/>
<path d="M934.5 37.5H1055.5V96.5H934.5V37.5Z" fill="#DCDFD8" stroke="#A8A18F"/>
<path d="M1056.5 37.5H1158.5V96.5H1056.5V37.5Z" fill="#DCDFD8" stroke="#A8A18F"/>
<path d="M1159.5 37.5H1251.5V96.5H1159.5V37.5Z" fill="#DCDFD8" stroke="#A8A18F"/>
<path fill-rule="evenodd" clip-rule="evenodd" d="M1252 37H1268V97H1252V37Z" fill="#A8A18F"/>
</svg>
