<svg width="1268" height="97" viewBox="0 0 1268 97" fill="none" xmlns="http://www.w3.org/2000/svg">
<mask id="path-1-inside-1_309_16196" fill="white">
<path d="M0 0H1268V37H0V0Z"/>
</mask>
<path d="M0 0H1268V37H0V0Z" fill="white"/>
<path d="M1268 36H0V38H1268V36Z" fill="#D9D9D9" mask="url(#path-1-inside-1_309_16196)"/>
<rect x="16.5" y="10.5" width="15" height="15" fill="white"/>
<rect x="16.5" y="10.5" width="15" height="15" stroke="#757575"/>
<path d="M49.21 21H48.49V14.56H46.12V13.92H51.58V14.56H49.21V21ZM56.1559 21H55.4359V17.95L52.7859 13.92H53.6859L55.8159 17.35L57.9659 13.92H58.8059L56.1559 17.95V21ZM60.9416 13.92H62.9416C63.3016 13.92 63.6282 13.96 63.9216 14.04C64.2149 14.1133 64.4649 14.23 64.6716 14.39C64.8849 14.5433 65.0482 14.74 65.1616 14.98C65.2749 15.2133 65.3316 15.49 65.3316 15.81C65.3316 16.13 65.2716 16.41 65.1516 16.65C65.0382 16.8833 64.8749 17.08 64.6616 17.24C64.4549 17.3933 64.2016 17.51 63.9016 17.59C63.6082 17.67 63.2816 17.71 62.9216 17.71H61.6616V21H60.9416V13.92ZM61.6616 17.1H62.8816C63.4482 17.1 63.8782 16.99 64.1716 16.77C64.4649 16.55 64.6116 16.23 64.6116 15.81C64.6116 15.37 64.4582 15.05 64.1516 14.85C63.8516 14.6433 63.4282 14.54 62.8816 14.54H61.6616V17.1ZM68.6623 20.36H72.4523V21H67.9423V13.92H72.3323V14.56H68.6623V17H72.0923V17.63H68.6623V20.36Z" fill="#444444"/>
<path d="M135.66 21H134.94V13.92H135.66V21ZM142.238 19.78H142.248L144.618 13.92H145.718V21H144.998V14.85H144.978L142.418 21H142.038L139.478 14.85H139.458V21H138.738V13.92H139.838L142.238 19.78ZM148.745 21H147.955L151.015 13.92H151.715L154.755 21H153.955L153.175 19.14H149.515L148.745 21ZM149.785 18.48H152.905L151.345 14.72L149.785 18.48ZM162.191 15.19C161.945 14.93 161.651 14.73 161.311 14.59C160.971 14.4433 160.581 14.37 160.141 14.37C159.688 14.37 159.278 14.4533 158.911 14.62C158.551 14.7867 158.245 15.0133 157.991 15.3C157.738 15.58 157.541 15.9067 157.401 16.28C157.268 16.6533 157.201 17.0467 157.201 17.46C157.201 17.8733 157.268 18.2667 157.401 18.64C157.541 19.0133 157.738 19.34 157.991 19.62C158.245 19.9 158.551 20.1233 158.911 20.29C159.278 20.4567 159.688 20.54 160.141 20.54C160.541 20.54 160.908 20.4967 161.241 20.41C161.575 20.3233 161.845 20.2133 162.051 20.08V17.93H160.401V17.3H162.771V20.49C162.385 20.7233 161.968 20.8967 161.521 21.01C161.075 21.1233 160.611 21.18 160.131 21.18C159.598 21.18 159.105 21.0867 158.651 20.9C158.198 20.7133 157.808 20.4567 157.481 20.13C157.155 19.7967 156.898 19.4033 156.711 18.95C156.531 18.4967 156.441 18 156.441 17.46C156.441 16.92 156.535 16.4233 156.721 15.97C156.908 15.5167 157.165 15.1267 157.491 14.8C157.825 14.4667 158.215 14.2067 158.661 14.02C159.115 13.8333 159.605 13.74 160.131 13.74C160.698 13.74 161.191 13.8233 161.611 13.99C162.031 14.1567 162.391 14.39 162.691 14.69L162.191 15.19ZM166.534 20.36H170.324V21H165.814V13.92H170.204V14.56H166.534V17H169.964V17.63H166.534V20.36Z" fill="#444444"/>
<path d="M224.66 21H223.94V13.92H224.66V21ZM230.008 21H229.288V14.56H226.918V13.92H232.378V14.56H230.008V21ZM235.361 20.36H239.151V21H234.641V13.92H239.031V14.56H235.361V17H238.791V17.63H235.361V20.36ZM245.259 19.78H245.269L247.639 13.92H248.739V21H248.019V14.85H247.999L245.439 21H245.059L242.499 14.85H242.479V21H241.759V13.92H242.859L245.259 19.78ZM260.536 19.95H260.556V13.92H261.276V21H260.376L256.256 14.91H256.236V21H255.516V13.92H256.416L260.536 19.95ZM264.303 21H263.513L266.573 13.92H267.273L270.313 21H269.513L268.733 19.14H265.073L264.303 21ZM265.343 18.48H268.463L266.903 14.72L265.343 18.48ZM276.055 19.78H276.065L278.435 13.92H279.535V21H278.815V14.85H278.795L276.235 21H275.855L273.295 14.85H273.275V21H272.555V13.92H273.655L276.055 19.78ZM283.332 20.36H287.122V21H282.612V13.92H287.002V14.56H283.332V17H286.762V17.63H283.332V20.36Z" fill="#444444"/>
<path d="M366.11 20.07H366.13L368.43 13.92H369.2L366.49 21H365.73L363.03 13.92H363.81L366.11 20.07ZM372.09 20.36H375.88V21H371.37V13.92H375.76V14.56H372.09V17H375.52V17.63H372.09V20.36ZM383.508 19.95H383.528V13.92H384.248V21H383.348L379.228 14.91H379.208V21H378.488V13.92H379.388L383.508 19.95ZM387.325 13.92H389.675C390.115 13.92 390.555 13.9933 390.995 14.14C391.442 14.2867 391.842 14.51 392.195 14.81C392.555 15.1033 392.845 15.4733 393.065 15.92C393.285 16.36 393.395 16.8733 393.395 17.46C393.395 18.0533 393.285 18.57 393.065 19.01C392.845 19.45 392.555 19.82 392.195 20.12C391.842 20.4133 391.442 20.6333 390.995 20.78C390.555 20.9267 390.115 21 389.675 21H387.325V13.92ZM388.045 20.36H389.475C390.008 20.36 390.472 20.2767 390.865 20.11C391.265 19.9433 391.595 19.7267 391.855 19.46C392.115 19.1867 392.308 18.8767 392.435 18.53C392.568 18.1833 392.635 17.8267 392.635 17.46C392.635 17.0933 392.568 16.7367 392.435 16.39C392.308 16.0433 392.115 15.7367 391.855 15.47C391.595 15.1967 391.265 14.9767 390.865 14.81C390.472 14.6433 390.008 14.56 389.475 14.56H388.045V20.36ZM403.094 17.46C403.094 18 403 18.4967 402.814 18.95C402.627 19.4033 402.367 19.7967 402.034 20.13C401.707 20.4567 401.317 20.7133 400.864 20.9C400.417 21.0867 399.93 21.18 399.404 21.18C398.877 21.18 398.387 21.0867 397.934 20.9C397.487 20.7133 397.097 20.4567 396.764 20.13C396.437 19.7967 396.18 19.4033 395.994 18.95C395.807 18.4967 395.714 18 395.714 17.46C395.714 16.92 395.807 16.4233 395.994 15.97C396.18 15.5167 396.437 15.1267 396.764 14.8C397.097 14.4667 397.487 14.2067 397.934 14.02C398.387 13.8333 398.877 13.74 399.404 13.74C399.93 13.74 400.417 13.8333 400.864 14.02C401.317 14.2067 401.707 14.4667 402.034 14.8C402.367 15.1267 402.627 15.5167 402.814 15.97C403 16.4233 403.094 16.92 403.094 17.46ZM402.334 17.46C402.334 17.0467 402.267 16.6533 402.134 16.28C402 15.9067 401.807 15.58 401.554 15.3C401.3 15.0133 400.99 14.7867 400.624 14.62C400.264 14.4533 399.857 14.37 399.404 14.37C398.95 14.37 398.54 14.4533 398.174 14.62C397.814 14.7867 397.507 15.0133 397.254 15.3C397 15.58 396.807 15.9067 396.674 16.28C396.54 16.6533 396.474 17.0467 396.474 17.46C396.474 17.8733 396.54 18.2667 396.674 18.64C396.807 19.0133 397 19.34 397.254 19.62C397.507 19.9 397.814 20.1233 398.174 20.29C398.54 20.4567 398.95 20.54 399.404 20.54C399.857 20.54 400.264 20.4567 400.624 20.29C400.99 20.1233 401.3 19.9 401.554 19.62C401.807 19.34 402 19.0133 402.134 18.64C402.267 18.2667 402.334 17.8733 402.334 17.46ZM406.51 21H405.79V13.92H407.87C408.216 13.92 408.536 13.9533 408.83 14.02C409.13 14.0867 409.386 14.1967 409.6 14.35C409.82 14.4967 409.99 14.69 410.11 14.93C410.23 15.17 410.29 15.4633 410.29 15.81C410.29 16.07 410.243 16.3067 410.15 16.52C410.056 16.7333 409.93 16.92 409.77 17.08C409.61 17.2333 409.42 17.3567 409.2 17.45C408.98 17.5433 408.74 17.6033 408.48 17.63L410.55 21H409.67L407.71 17.69H406.51V21ZM406.51 17.07H407.76C408.34 17.07 408.786 16.9667 409.1 16.76C409.413 16.5467 409.57 16.23 409.57 15.81C409.57 15.5767 409.526 15.38 409.44 15.22C409.353 15.06 409.233 14.93 409.08 14.83C408.926 14.73 408.74 14.6567 408.52 14.61C408.3 14.5633 408.056 14.54 407.79 14.54H406.51V17.07Z" fill="#444444"/>
<path d="M467.66 21H466.94V13.92H467.66V21ZM473.008 21H472.288V14.56H469.918V13.92H475.378V14.56H473.008V21ZM478.361 20.36H482.151V21H477.641V13.92H482.031V14.56H478.361V17H481.791V17.63H478.361V20.36ZM488.259 19.78H488.269L490.639 13.92H491.739V21H491.019V14.85H490.999L488.439 21H488.059L485.499 14.85H485.479V21H484.759V13.92H485.859L488.259 19.78ZM498.516 13.92H500.866C501.306 13.92 501.746 13.9933 502.186 14.14C502.633 14.2867 503.033 14.51 503.386 14.81C503.746 15.1033 504.036 15.4733 504.256 15.92C504.476 16.36 504.586 16.8733 504.586 17.46C504.586 18.0533 504.476 18.57 504.256 19.01C504.036 19.45 503.746 19.82 503.386 20.12C503.033 20.4133 502.633 20.6333 502.186 20.78C501.746 20.9267 501.306 21 500.866 21H498.516V13.92ZM499.236 20.36H500.666C501.2 20.36 501.663 20.2767 502.056 20.11C502.456 19.9433 502.786 19.7267 503.046 19.46C503.306 19.1867 503.5 18.8767 503.626 18.53C503.76 18.1833 503.826 17.8267 503.826 17.46C503.826 17.0933 503.76 16.7367 503.626 16.39C503.5 16.0433 503.306 15.7367 503.046 15.47C502.786 15.1967 502.456 14.9767 502.056 14.81C501.663 14.6433 501.2 14.56 500.666 14.56H499.236V20.36ZM508.005 20.36H511.795V21H507.285V13.92H511.675V14.56H508.005V17H511.435V17.63H508.005V20.36ZM516.673 21H515.953V14.56H513.583V13.92H519.043V14.56H516.673V21ZM520.66 21H519.87L522.93 13.92H523.63L526.67 21H525.87L525.09 19.14H521.43L520.66 21ZM521.7 18.48H524.82L523.26 14.72L521.7 18.48ZM529.632 21H528.912V13.92H529.632V21ZM533.43 20.36H536.73V21H532.71V13.92H533.43V20.36ZM542.437 15.06C542.284 14.8467 542.087 14.6767 541.847 14.55C541.607 14.4167 541.317 14.35 540.977 14.35C540.804 14.35 540.627 14.3767 540.447 14.43C540.267 14.4833 540.104 14.5667 539.957 14.68C539.811 14.7867 539.691 14.9233 539.597 15.09C539.511 15.2567 539.467 15.4533 539.467 15.68C539.467 15.9067 539.511 16.0933 539.597 16.24C539.684 16.3867 539.797 16.5133 539.937 16.62C540.084 16.72 540.247 16.8033 540.427 16.87C540.614 16.9367 540.807 17.0033 541.007 17.07C541.254 17.15 541.501 17.2367 541.747 17.33C542.001 17.4233 542.227 17.5467 542.427 17.7C542.627 17.8467 542.791 18.0367 542.917 18.27C543.044 18.4967 543.107 18.7867 543.107 19.14C543.107 19.4933 543.037 19.8 542.897 20.06C542.764 20.3133 542.587 20.5233 542.367 20.69C542.154 20.8567 541.907 20.98 541.627 21.06C541.354 21.14 541.077 21.18 540.797 21.18C540.584 21.18 540.371 21.1567 540.157 21.11C539.944 21.07 539.741 21.0067 539.547 20.92C539.354 20.8333 539.174 20.7233 539.007 20.59C538.841 20.4567 538.694 20.3033 538.567 20.13L539.187 19.67C539.341 19.9233 539.554 20.1367 539.827 20.31C540.107 20.4767 540.434 20.56 540.807 20.56C540.987 20.56 541.171 20.5333 541.357 20.48C541.544 20.42 541.711 20.3333 541.857 20.22C542.011 20.1 542.134 19.9567 542.227 19.79C542.327 19.6167 542.377 19.4167 542.377 19.19C542.377 18.9433 542.327 18.74 542.227 18.58C542.134 18.4133 542.007 18.2767 541.847 18.17C541.687 18.0567 541.504 17.9633 541.297 17.89C541.091 17.8167 540.874 17.7433 540.647 17.67C540.414 17.5967 540.184 17.5133 539.957 17.42C539.731 17.3267 539.527 17.2067 539.347 17.06C539.167 16.9067 539.021 16.72 538.907 16.5C538.801 16.28 538.747 16.01 538.747 15.69C538.747 15.35 538.814 15.0567 538.947 14.81C539.087 14.5633 539.267 14.36 539.487 14.2C539.707 14.04 539.951 13.9233 540.217 13.85C540.484 13.7767 540.747 13.74 541.007 13.74C541.487 13.74 541.897 13.8267 542.237 14C542.577 14.1667 542.834 14.3667 543.007 14.6L542.437 15.06Z" fill="#444444"/>
<path d="M771.951 21H771.231V13.92H773.311C773.658 13.92 773.978 13.9533 774.271 14.02C774.571 14.0867 774.828 14.1967 775.041 14.35C775.261 14.4967 775.431 14.69 775.551 14.93C775.671 15.17 775.731 15.4633 775.731 15.81C775.731 16.07 775.684 16.3067 775.591 16.52C775.498 16.7333 775.371 16.92 775.211 17.08C775.051 17.2333 774.861 17.3567 774.641 17.45C774.421 17.5433 774.181 17.6033 773.921 17.63L775.991 21H775.111L773.151 17.69H771.951V21ZM771.951 17.07H773.201C773.781 17.07 774.228 16.9667 774.541 16.76C774.854 16.5467 775.011 16.23 775.011 15.81C775.011 15.5767 774.968 15.38 774.881 15.22C774.794 15.06 774.674 14.93 774.521 14.83C774.368 14.73 774.181 14.6567 773.961 14.61C773.741 14.5633 773.498 14.54 773.231 14.54H771.951V17.07ZM779.137 20.36H782.927V21H778.417V13.92H782.807V14.56H779.137V17H782.567V17.63H779.137V20.36ZM787.805 21H787.085V14.56H784.715V13.92H790.175V14.56H787.805V21ZM791.793 21H791.003L794.063 13.92H794.763L797.803 21H797.003L796.223 19.14H792.563L791.793 21ZM792.833 18.48H795.953L794.393 14.72L792.833 18.48ZM800.765 21H800.045V13.92H800.765V21ZM804.562 20.36H807.862V21H803.842V13.92H804.562V20.36Z" fill="#444444"/>
<path d="M837.561 13.92H838.281V16.99H842.141V13.92H842.861V21H842.141V17.65H838.281V21H837.561V13.92ZM845.939 13.92H847.939C848.299 13.92 848.626 13.96 848.919 14.04C849.213 14.1133 849.463 14.23 849.669 14.39C849.883 14.5433 850.046 14.74 850.159 14.98C850.273 15.2133 850.329 15.49 850.329 15.81C850.329 16.13 850.269 16.41 850.149 16.65C850.036 16.8833 849.873 17.08 849.659 17.24C849.453 17.3933 849.199 17.51 848.899 17.59C848.606 17.67 848.279 17.71 847.919 17.71H846.659V21H845.939V13.92ZM846.659 17.1H847.879C848.446 17.1 848.876 16.99 849.169 16.77C849.463 16.55 849.609 16.23 849.609 15.81C849.609 15.37 849.456 15.05 849.149 14.85C848.849 14.6433 848.426 14.54 847.879 14.54H846.659V17.1ZM856.64 13.92H858.64C859 13.92 859.327 13.96 859.62 14.04C859.913 14.1133 860.163 14.23 860.37 14.39C860.583 14.5433 860.747 14.74 860.86 14.98C860.973 15.2133 861.03 15.49 861.03 15.81C861.03 16.13 860.97 16.41 860.85 16.65C860.737 16.8833 860.573 17.08 860.36 17.24C860.153 17.3933 859.9 17.51 859.6 17.59C859.307 17.67 858.98 17.71 858.62 17.71H857.36V21H856.64V13.92ZM857.36 17.1H858.58C859.147 17.1 859.577 16.99 859.87 16.77C860.163 16.55 860.31 16.23 860.31 15.81C860.31 15.37 860.157 15.05 859.85 14.85C859.55 14.6433 859.127 14.54 858.58 14.54H857.36V17.1ZM864.361 21H863.641V13.92H865.721C866.067 13.92 866.387 13.9533 866.681 14.02C866.981 14.0867 867.237 14.1967 867.451 14.35C867.671 14.4967 867.841 14.69 867.961 14.93C868.081 15.17 868.141 15.4633 868.141 15.81C868.141 16.07 868.094 16.3067 868.001 16.52C867.907 16.7333 867.781 16.92 867.621 17.08C867.461 17.2333 867.271 17.3567 867.051 17.45C866.831 17.5433 866.591 17.6033 866.331 17.63L868.401 21H867.521L865.561 17.69H864.361V21ZM864.361 17.07H865.611C866.191 17.07 866.637 16.9667 866.951 16.76C867.264 16.5467 867.421 16.23 867.421 15.81C867.421 15.5767 867.377 15.38 867.291 15.22C867.204 15.06 867.084 14.93 866.931 14.83C866.777 14.73 866.591 14.6567 866.371 14.61C866.151 14.5633 865.907 14.54 865.641 14.54H864.361V17.07ZM871.547 21H870.827V13.92H871.547V21ZM880.585 19.86C880.465 20.04 880.318 20.21 880.145 20.37C879.978 20.53 879.781 20.67 879.555 20.79C879.335 20.91 879.088 21.0033 878.815 21.07C878.548 21.1433 878.255 21.18 877.935 21.18C877.401 21.18 876.908 21.0867 876.455 20.9C876.001 20.7133 875.611 20.4567 875.285 20.13C874.958 19.7967 874.701 19.4033 874.515 18.95C874.335 18.4967 874.245 18 874.245 17.46C874.245 16.92 874.338 16.4233 874.525 15.97C874.711 15.5167 874.968 15.1267 875.295 14.8C875.628 14.4667 876.018 14.2067 876.465 14.02C876.918 13.8333 877.408 13.74 877.935 13.74C878.195 13.74 878.448 13.7667 878.695 13.82C878.948 13.8733 879.185 13.95 879.405 14.05C879.625 14.1433 879.825 14.26 880.005 14.4C880.185 14.5333 880.335 14.6867 880.455 14.86L879.855 15.3C879.781 15.1867 879.681 15.0733 879.555 14.96C879.435 14.8467 879.291 14.7467 879.125 14.66C878.958 14.5733 878.775 14.5033 878.575 14.45C878.381 14.3967 878.171 14.37 877.945 14.37C877.485 14.37 877.071 14.4533 876.705 14.62C876.345 14.7867 876.038 15.0133 875.785 15.3C875.531 15.58 875.338 15.9067 875.205 16.28C875.071 16.6533 875.005 17.0467 875.005 17.46C875.005 17.8733 875.071 18.2667 875.205 18.64C875.345 19.0133 875.541 19.3433 875.795 19.63C876.048 19.91 876.355 20.1333 876.715 20.3C877.081 20.4667 877.491 20.55 877.945 20.55C878.351 20.55 878.738 20.4667 879.105 20.3C879.471 20.1333 879.778 19.8667 880.025 19.5L880.585 19.86ZM883.742 20.36H887.532V21H883.022V13.92H887.412V14.56H883.742V17H887.172V17.63H883.742V20.36Z" fill="#444444"/>
<path d="M928.874 17.37C928.874 17.77 928.938 18.15 929.064 18.51C929.198 18.87 929.384 19.19 929.624 19.47C929.864 19.7433 930.158 19.9633 930.504 20.13C930.858 20.29 931.254 20.37 931.694 20.37C932.128 20.37 932.518 20.29 932.864 20.13C933.218 19.9633 933.514 19.7433 933.754 19.47C934.001 19.19 934.191 18.87 934.324 18.51C934.458 18.15 934.524 17.77 934.524 17.37C934.524 16.97 934.458 16.59 934.324 16.23C934.191 15.87 934.001 15.5533 933.754 15.28C933.514 15 933.218 14.78 932.864 14.62C932.518 14.4533 932.128 14.37 931.694 14.37C931.254 14.37 930.858 14.4533 930.504 14.62C930.158 14.78 929.864 15 929.624 15.28C929.384 15.5533 929.198 15.87 929.064 16.23C928.938 16.59 928.874 16.97 928.874 17.37ZM935.744 21H931.694C931.181 21 930.704 20.91 930.264 20.73C929.831 20.55 929.454 20.3 929.134 19.98C928.814 19.6533 928.564 19.27 928.384 18.83C928.204 18.3833 928.114 17.8967 928.114 17.37C928.114 16.8433 928.204 16.36 928.384 15.92C928.564 15.4733 928.814 15.09 929.134 14.77C929.454 14.4433 929.831 14.19 930.264 14.01C930.704 13.83 931.181 13.74 931.694 13.74C932.201 13.74 932.671 13.83 933.104 14.01C933.544 14.19 933.924 14.4433 934.244 14.77C934.564 15.09 934.814 15.4733 934.994 15.92C935.174 16.36 935.264 16.8433 935.264 17.37C935.264 17.9967 935.124 18.57 934.844 19.09C934.571 19.6033 934.158 20.02 933.604 20.34V20.36H935.744V21ZM940.392 21H939.672V14.56H937.302V13.92H942.762V14.56H940.392V21ZM947.338 21H946.618V17.95L943.968 13.92H944.868L946.998 17.35L949.148 13.92H949.988L947.338 17.95V21ZM952.242 20.52C952.242 20.66 952.192 20.7867 952.092 20.9C951.992 21.0067 951.862 21.06 951.702 21.06C951.542 21.06 951.412 21.0067 951.312 20.9C951.212 20.7867 951.162 20.66 951.162 20.52C951.162 20.38 951.212 20.2567 951.312 20.15C951.412 20.0367 951.542 19.98 951.702 19.98C951.862 19.98 951.992 20.0367 952.092 20.15C952.192 20.2567 952.242 20.38 952.242 20.52Z" fill="#444444"/>
<path d="M1023.61 21H1022.89V14.56H1020.52V13.92H1025.98V14.56H1023.61V21ZM1034.94 17.46C1034.94 18 1034.85 18.4967 1034.66 18.95C1034.47 19.4033 1034.21 19.7967 1033.88 20.13C1033.55 20.4567 1033.16 20.7133 1032.71 20.9C1032.26 21.0867 1031.78 21.18 1031.25 21.18C1030.72 21.18 1030.23 21.0867 1029.78 20.9C1029.33 20.7133 1028.94 20.4567 1028.61 20.13C1028.28 19.7967 1028.03 19.4033 1027.84 18.95C1027.65 18.4967 1027.56 18 1027.56 17.46C1027.56 16.92 1027.65 16.4233 1027.84 15.97C1028.03 15.5167 1028.28 15.1267 1028.61 14.8C1028.94 14.4667 1029.33 14.2067 1029.78 14.02C1030.23 13.8333 1030.72 13.74 1031.25 13.74C1031.78 13.74 1032.26 13.8333 1032.71 14.02C1033.16 14.2067 1033.55 14.4667 1033.88 14.8C1034.21 15.1267 1034.47 15.5167 1034.66 15.97C1034.85 16.4233 1034.94 16.92 1034.94 17.46ZM1034.18 17.46C1034.18 17.0467 1034.11 16.6533 1033.98 16.28C1033.85 15.9067 1033.65 15.58 1033.4 15.3C1033.15 15.0133 1032.84 14.7867 1032.47 14.62C1032.11 14.4533 1031.7 14.37 1031.25 14.37C1030.8 14.37 1030.39 14.4533 1030.02 14.62C1029.66 14.7867 1029.35 15.0133 1029.1 15.3C1028.85 15.58 1028.65 15.9067 1028.52 16.28C1028.39 16.6533 1028.32 17.0467 1028.32 17.46C1028.32 17.8733 1028.39 18.2667 1028.52 18.64C1028.65 19.0133 1028.85 19.34 1029.1 19.62C1029.35 19.9 1029.66 20.1233 1030.02 20.29C1030.39 20.4567 1030.8 20.54 1031.25 20.54C1031.7 20.54 1032.11 20.4567 1032.47 20.29C1032.84 20.1233 1033.15 19.9 1033.4 19.62C1033.65 19.34 1033.85 19.0133 1033.98 18.64C1034.11 18.2667 1034.18 17.8733 1034.18 17.46ZM1039.6 21H1038.88V14.56H1036.51V13.92H1041.97V14.56H1039.6V21ZM1043.59 21H1042.8L1045.86 13.92H1046.56L1049.6 21H1048.8L1048.02 19.14H1044.36L1043.59 21ZM1044.63 18.48H1047.75L1046.19 14.72L1044.63 18.48ZM1052.56 20.36H1055.86V21H1051.84V13.92H1052.56V20.36Z" fill="#444444"/>
<path d="M1113.5 13.92H1115.61C1115.88 13.92 1116.15 13.95 1116.42 14.01C1116.69 14.0633 1116.94 14.16 1117.15 14.3C1117.37 14.4333 1117.55 14.6167 1117.68 14.85C1117.82 15.0833 1117.89 15.3767 1117.89 15.73C1117.89 16.1033 1117.78 16.43 1117.55 16.71C1117.32 16.9833 1117.02 17.1633 1116.64 17.25V17.27C1117.1 17.3233 1117.48 17.5033 1117.78 17.81C1118.09 18.11 1118.24 18.52 1118.24 19.04C1118.24 19.3333 1118.18 19.6033 1118.05 19.85C1117.93 20.09 1117.76 20.2967 1117.53 20.47C1117.3 20.6367 1117.03 20.7667 1116.7 20.86C1116.37 20.9533 1116.01 21 1115.6 21H1113.5V13.92ZM1114.22 17.02H1115.67C1115.84 17.02 1116.02 17 1116.19 16.96C1116.37 16.92 1116.53 16.8533 1116.68 16.76C1116.83 16.66 1116.94 16.53 1117.03 16.37C1117.12 16.21 1117.17 16.0133 1117.17 15.78C1117.17 15.5533 1117.12 15.3633 1117.03 15.21C1116.94 15.05 1116.82 14.92 1116.67 14.82C1116.52 14.72 1116.34 14.65 1116.13 14.61C1115.92 14.5633 1115.7 14.54 1115.47 14.54H1114.22V17.02ZM1114.22 20.38H1115.56C1115.82 20.38 1116.07 20.3567 1116.3 20.31C1116.54 20.2567 1116.75 20.1767 1116.92 20.07C1117.1 19.9567 1117.24 19.8133 1117.35 19.64C1117.46 19.46 1117.51 19.2467 1117.51 19C1117.51 18.5333 1117.35 18.1867 1117.03 17.96C1116.72 17.7267 1116.27 17.61 1115.69 17.61H1114.22V20.38ZM1123.67 21.18C1123.13 21.18 1122.7 21.09 1122.36 20.91C1122.02 20.7233 1121.75 20.49 1121.55 20.21C1121.35 19.93 1121.21 19.6267 1121.13 19.3C1121.05 18.9667 1121.02 18.6533 1121.02 18.36V13.92H1121.74V18.28C1121.74 18.5667 1121.77 18.8467 1121.84 19.12C1121.9 19.3867 1122.01 19.6267 1122.16 19.84C1122.31 20.0467 1122.51 20.2167 1122.76 20.35C1123 20.4767 1123.31 20.54 1123.67 20.54C1124.03 20.54 1124.33 20.4767 1124.58 20.35C1124.82 20.2167 1125.02 20.0467 1125.17 19.84C1125.32 19.6267 1125.43 19.3867 1125.5 19.12C1125.56 18.8467 1125.6 18.5667 1125.6 18.28V13.92H1126.32V18.36C1126.32 18.6533 1126.28 18.9667 1126.2 19.3C1126.12 19.6267 1125.99 19.93 1125.79 20.21C1125.59 20.49 1125.31 20.7233 1124.97 20.91C1124.63 21.09 1124.19 21.18 1123.67 21.18ZM1129.36 13.92H1131.71C1132.15 13.92 1132.59 13.9933 1133.03 14.14C1133.47 14.2867 1133.87 14.51 1134.23 14.81C1134.59 15.1033 1134.88 15.4733 1135.1 15.92C1135.32 16.36 1135.43 16.8733 1135.43 17.46C1135.43 18.0533 1135.32 18.57 1135.1 19.01C1134.88 19.45 1134.59 19.82 1134.23 20.12C1133.87 20.4133 1133.47 20.6333 1133.03 20.78C1132.59 20.9267 1132.15 21 1131.71 21H1129.36V13.92ZM1130.08 20.36H1131.51C1132.04 20.36 1132.5 20.2767 1132.9 20.11C1133.3 19.9433 1133.63 19.7267 1133.89 19.46C1134.15 19.1867 1134.34 18.8767 1134.47 18.53C1134.6 18.1833 1134.67 17.8267 1134.67 17.46C1134.67 17.0933 1134.6 16.7367 1134.47 16.39C1134.34 16.0433 1134.15 15.7367 1133.89 15.47C1133.63 15.1967 1133.3 14.9767 1132.9 14.81C1132.5 14.6433 1132.04 14.56 1131.51 14.56H1130.08V20.36ZM1143.5 15.19C1143.25 14.93 1142.96 14.73 1142.62 14.59C1142.28 14.4433 1141.89 14.37 1141.45 14.37C1140.99 14.37 1140.58 14.4533 1140.22 14.62C1139.86 14.7867 1139.55 15.0133 1139.3 15.3C1139.04 15.58 1138.85 15.9067 1138.71 16.28C1138.57 16.6533 1138.51 17.0467 1138.51 17.46C1138.51 17.8733 1138.57 18.2667 1138.71 18.64C1138.85 19.0133 1139.04 19.34 1139.3 19.62C1139.55 19.9 1139.86 20.1233 1140.22 20.29C1140.58 20.4567 1140.99 20.54 1141.45 20.54C1141.85 20.54 1142.21 20.4967 1142.55 20.41C1142.88 20.3233 1143.15 20.2133 1143.36 20.08V17.93H1141.71V17.3H1144.08V20.49C1143.69 20.7233 1143.27 20.8967 1142.83 21.01C1142.38 21.1233 1141.92 21.18 1141.44 21.18C1140.9 21.18 1140.41 21.0867 1139.96 20.9C1139.5 20.7133 1139.11 20.4567 1138.79 20.13C1138.46 19.7967 1138.2 19.4033 1138.02 18.95C1137.84 18.4967 1137.75 18 1137.75 17.46C1137.75 16.92 1137.84 16.4233 1138.03 15.97C1138.21 15.5167 1138.47 15.1267 1138.8 14.8C1139.13 14.4667 1139.52 14.2067 1139.97 14.02C1140.42 13.8333 1140.91 13.74 1141.44 13.74C1142 13.74 1142.5 13.8233 1142.92 13.99C1143.34 14.1567 1143.7 14.39 1144 14.69L1143.5 15.19ZM1147.84 20.36H1151.63V21H1147.12V13.92H1151.51V14.56H1147.84V17H1151.27V17.63H1147.84V20.36ZM1156.51 21H1155.79V14.56H1153.42V13.92H1158.88V14.56H1156.51V21Z" fill="#444444"/>
<path d="M1214.94 15.06C1214.79 14.8467 1214.59 14.6767 1214.35 14.55C1214.11 14.4167 1213.82 14.35 1213.48 14.35C1213.31 14.35 1213.13 14.3767 1212.95 14.43C1212.77 14.4833 1212.61 14.5667 1212.46 14.68C1212.31 14.7867 1212.19 14.9233 1212.1 15.09C1212.01 15.2567 1211.97 15.4533 1211.97 15.68C1211.97 15.9067 1212.01 16.0933 1212.1 16.24C1212.19 16.3867 1212.3 16.5133 1212.44 16.62C1212.59 16.72 1212.75 16.8033 1212.93 16.87C1213.12 16.9367 1213.31 17.0033 1213.51 17.07C1213.76 17.15 1214 17.2367 1214.25 17.33C1214.5 17.4233 1214.73 17.5467 1214.93 17.7C1215.13 17.8467 1215.29 18.0367 1215.42 18.27C1215.55 18.4967 1215.61 18.7867 1215.61 19.14C1215.61 19.4933 1215.54 19.8 1215.4 20.06C1215.27 20.3133 1215.09 20.5233 1214.87 20.69C1214.66 20.8567 1214.41 20.98 1214.13 21.06C1213.86 21.14 1213.58 21.18 1213.3 21.18C1213.09 21.18 1212.87 21.1567 1212.66 21.11C1212.45 21.07 1212.24 21.0067 1212.05 20.92C1211.86 20.8333 1211.68 20.7233 1211.51 20.59C1211.34 20.4567 1211.2 20.3033 1211.07 20.13L1211.69 19.67C1211.84 19.9233 1212.06 20.1367 1212.33 20.31C1212.61 20.4767 1212.94 20.56 1213.31 20.56C1213.49 20.56 1213.67 20.5333 1213.86 20.48C1214.05 20.42 1214.21 20.3333 1214.36 20.22C1214.51 20.1 1214.64 19.9567 1214.73 19.79C1214.83 19.6167 1214.88 19.4167 1214.88 19.19C1214.88 18.9433 1214.83 18.74 1214.73 18.58C1214.64 18.4133 1214.51 18.2767 1214.35 18.17C1214.19 18.0567 1214.01 17.9633 1213.8 17.89C1213.59 17.8167 1213.38 17.7433 1213.15 17.67C1212.92 17.5967 1212.69 17.5133 1212.46 17.42C1212.23 17.3267 1212.03 17.2067 1211.85 17.06C1211.67 16.9067 1211.52 16.72 1211.41 16.5C1211.3 16.28 1211.25 16.01 1211.25 15.69C1211.25 15.35 1211.32 15.0567 1211.45 14.81C1211.59 14.5633 1211.77 14.36 1211.99 14.2C1212.21 14.04 1212.45 13.9233 1212.72 13.85C1212.99 13.7767 1213.25 13.74 1213.51 13.74C1213.99 13.74 1214.4 13.8267 1214.74 14C1215.08 14.1667 1215.34 14.3667 1215.51 14.6L1214.94 15.06ZM1220.45 21H1219.73V14.56H1217.36V13.92H1222.82V14.56H1220.45V21ZM1224.44 21H1223.65L1226.71 13.92H1227.41L1230.45 21H1229.65L1228.87 19.14H1225.21L1224.44 21ZM1225.48 18.48H1228.6L1227.04 14.72L1225.48 18.48ZM1234.36 21H1233.64V14.56H1231.27V13.92H1236.73V14.56H1234.36V21ZM1241.61 21.18C1241.07 21.18 1240.64 21.09 1240.3 20.91C1239.96 20.7233 1239.69 20.49 1239.49 20.21C1239.29 19.93 1239.15 19.6267 1239.07 19.3C1238.99 18.9667 1238.96 18.6533 1238.96 18.36V13.92H1239.68V18.28C1239.68 18.5667 1239.71 18.8467 1239.78 19.12C1239.84 19.3867 1239.95 19.6267 1240.1 19.84C1240.25 20.0467 1240.45 20.2167 1240.7 20.35C1240.94 20.4767 1241.25 20.54 1241.61 20.54C1241.97 20.54 1242.27 20.4767 1242.52 20.35C1242.76 20.2167 1242.96 20.0467 1243.11 19.84C1243.26 19.6267 1243.37 19.3867 1243.44 19.12C1243.5 18.8467 1243.54 18.5667 1243.54 18.28V13.92H1244.26V18.36C1244.26 18.6533 1244.22 18.9667 1244.14 19.3C1244.06 19.6267 1243.93 19.93 1243.73 20.21C1243.53 20.49 1243.25 20.7233 1242.91 20.91C1242.57 21.09 1242.13 21.18 1241.61 21.18ZM1250.73 15.06C1250.57 14.8467 1250.38 14.6767 1250.14 14.55C1249.9 14.4167 1249.61 14.35 1249.27 14.35C1249.09 14.35 1248.92 14.3767 1248.74 14.43C1248.56 14.4833 1248.39 14.5667 1248.25 14.68C1248.1 14.7867 1247.98 14.9233 1247.89 15.09C1247.8 15.2567 1247.76 15.4533 1247.76 15.68C1247.76 15.9067 1247.8 16.0933 1247.89 16.24C1247.97 16.3867 1248.09 16.5133 1248.23 16.62C1248.37 16.72 1248.54 16.8033 1248.72 16.87C1248.9 16.9367 1249.1 17.0033 1249.3 17.07C1249.54 17.15 1249.79 17.2367 1250.04 17.33C1250.29 17.4233 1250.52 17.5467 1250.72 17.7C1250.92 17.8467 1251.08 18.0367 1251.21 18.27C1251.33 18.4967 1251.4 18.7867 1251.4 19.14C1251.4 19.4933 1251.33 19.8 1251.19 20.06C1251.05 20.3133 1250.88 20.5233 1250.66 20.69C1250.44 20.8567 1250.2 20.98 1249.92 21.06C1249.64 21.14 1249.37 21.18 1249.09 21.18C1248.87 21.18 1248.66 21.1567 1248.45 21.11C1248.23 21.07 1248.03 21.0067 1247.84 20.92C1247.64 20.8333 1247.46 20.7233 1247.3 20.59C1247.13 20.4567 1246.98 20.3033 1246.86 20.13L1247.48 19.67C1247.63 19.9233 1247.84 20.1367 1248.12 20.31C1248.4 20.4767 1248.72 20.56 1249.1 20.56C1249.28 20.56 1249.46 20.5333 1249.65 20.48C1249.83 20.42 1250 20.3333 1250.15 20.22C1250.3 20.1 1250.42 19.9567 1250.52 19.79C1250.62 19.6167 1250.67 19.4167 1250.67 19.19C1250.67 18.9433 1250.62 18.74 1250.52 18.58C1250.42 18.4133 1250.3 18.2767 1250.14 18.17C1249.98 18.0567 1249.79 17.9633 1249.59 17.89C1249.38 17.8167 1249.16 17.7433 1248.94 17.67C1248.7 17.5967 1248.47 17.5133 1248.25 17.42C1248.02 17.3267 1247.82 17.2067 1247.64 17.06C1247.46 16.9067 1247.31 16.72 1247.2 16.5C1247.09 16.28 1247.04 16.01 1247.04 15.69C1247.04 15.35 1247.1 15.0567 1247.24 14.81C1247.38 14.5633 1247.56 14.36 1247.78 14.2C1248 14.04 1248.24 13.9233 1248.51 13.85C1248.77 13.7767 1249.04 13.74 1249.3 13.74C1249.78 13.74 1250.19 13.8267 1250.53 14C1250.87 14.1667 1251.12 14.3667 1251.3 14.6L1250.73 15.06Z" fill="#444444"/>
<path fill-rule="evenodd" clip-rule="evenodd" d="M0 37H16V97H0V37Z" fill="#A8A18F"/>
<path d="M16.5 37.5H31.5V96.5H16.5V37.5Z" fill="#DCDFD8" stroke="#A8A18F"/>
<path fill-rule="evenodd" clip-rule="evenodd" d="M32 37H46V97H32V37Z" fill="#A8A18F"/>
<path d="M46.5 37.5H133.5V96.5H46.5V37.5Z" fill="#DCDFD8" stroke="#A8A18F"/>
<path d="M134.5 37.5H205.5V96.5H134.5V37.5Z" fill="#DCDFD8" stroke="#A8A18F"/>
<path fill-rule="evenodd" clip-rule="evenodd" d="M206 37H223V97H206V37Z" fill="#A8A18F"/>
<path d="M223.5 37.5H354.5V96.5H223.5V37.5Z" fill="#DCDFD8" stroke="#A8A18F"/>
<path fill-rule="evenodd" clip-rule="evenodd" d="M355 37H363V97H355V37Z" fill="#A8A18F"/>
<path d="M363.5 37.5H457.5V96.5H363.5V37.5Z" fill="#DCDFD8" stroke="#A8A18F"/>
<path fill-rule="evenodd" clip-rule="evenodd" d="M458 37H466V97H458V37Z" fill="#A8A18F"/>
<path d="M466.5 37.5H727.5V96.5H466.5V37.5Z" fill="#DCDFD8" stroke="#A8A18F"/>
<path d="M728.5 37.5H807.5V96.5H728.5V37.5Z" fill="#DCDFD8" stroke="#A8A18F"/>
<path d="M808.5 37.5H887.5V96.5H808.5V37.5Z" fill="#DCDFD8" stroke="#A8A18F"/>
<path d="M888.5 37.5H952.5V96.5H888.5V37.5Z" fill="#DCDFD8" stroke="#A8A18F"/>
<path d="M953.5 37.5H1055.5V96.5H953.5V37.5Z" fill="#DCDFD8" stroke="#A8A18F"/>
<path d="M1056.5 37.5H1158.5V96.5H1056.5V37.5Z" fill="#DCDFD8" stroke="#A8A18F"/>
<path d="M1159.5 37.5H1251.5V96.5H1159.5V37.5Z" fill="#DCDFD8" stroke="#A8A18F"/>
<path fill-rule="evenodd" clip-rule="evenodd" d="M1252 37H1268V97H1252V37Z" fill="#A8A18F"/>
</svg>
