<svg width="1268" height="101" viewBox="0 0 1268 101" fill="none" xmlns="http://www.w3.org/2000/svg">
<mask id="path-1-inside-1_309_16217" fill="white">
<path d="M0 0H1268V41H0V0Z"/>
</mask>
<path d="M0 0H1268V41H0V0Z" fill="white"/>
<path d="M1268 40H0V42H1268V40Z" fill="#D9D9D9" mask="url(#path-1-inside-1_309_16217)"/>
<path d="M18.21 17.02H16.04V15.92H21.64V17.02H19.47V23H18.21V17.02ZM25.2564 19.93L22.5964 15.92H24.1364L25.9164 18.9L27.7164 15.92H29.1764L26.5164 19.93V23H25.2564V19.93ZM30.9671 15.92H33.2771C33.6838 15.92 34.0504 15.9567 34.3771 16.03C34.7038 16.1033 34.9838 16.2233 35.2171 16.39C35.4504 16.5567 35.6304 16.77 35.7571 17.03C35.8838 17.29 35.9471 17.6033 35.9471 17.97C35.9471 18.3633 35.8738 18.6933 35.7271 18.96C35.5804 19.2267 35.3804 19.4433 35.1271 19.61C34.8804 19.77 34.5904 19.8867 34.2571 19.96C33.9238 20.0333 33.5704 20.07 33.1971 20.07H32.2271V23H30.9671V15.92ZM33.1071 19.01C33.3138 19.01 33.5104 18.9967 33.6971 18.97C33.8838 18.9367 34.0504 18.8833 34.1971 18.81C34.3438 18.73 34.4604 18.6233 34.5471 18.49C34.6338 18.3567 34.6771 18.1833 34.6771 17.97C34.6771 17.7633 34.6338 17.5967 34.5471 17.47C34.4604 17.3367 34.3438 17.2333 34.1971 17.16C34.0571 17.0867 33.8938 17.04 33.7071 17.02C33.5271 16.9933 33.3404 16.98 33.1471 16.98H32.2271V19.01H33.1071ZM38.2706 15.92H42.9606V17.02H39.5306V18.82H42.7806V19.88H39.5306V21.88H43.1406V23H38.2706V15.92Z" fill="#888888"/>
<path d="M66.78 15.92H68.04V23H66.78V15.92ZM70.8023 15.92H72.7723L74.6123 20.95H74.6423L76.4623 15.92H78.4423V23H77.1923V17.31H77.1723L75.0223 23H74.1423L72.0223 17.31H72.0023V23H70.8023V15.92ZM83.4215 15.92H84.5115L87.5615 23H86.1215L85.4615 21.38H82.3915L81.7515 23H80.3415L83.4215 15.92ZM85.0215 20.3L83.9315 17.42L82.8215 20.3H85.0215ZM95.4863 22.63C95.1263 22.8033 94.7296 22.9367 94.2963 23.03C93.8696 23.13 93.3763 23.18 92.8163 23.18C92.2429 23.18 91.7196 23.09 91.2463 22.91C90.7729 22.7233 90.3663 22.4667 90.0263 22.14C89.6863 21.8067 89.4196 21.4133 89.2263 20.96C89.0396 20.5 88.9463 19.9933 88.9463 19.44C88.9463 18.8733 89.0429 18.3633 89.2363 17.91C89.4363 17.45 89.7063 17.06 90.0463 16.74C90.3929 16.42 90.7996 16.1733 91.2663 16C91.7329 15.8267 92.2396 15.74 92.7863 15.74C93.3529 15.74 93.8696 15.8233 94.3363 15.99C94.8096 16.15 95.1896 16.3633 95.4763 16.63L94.6063 17.57C94.4263 17.37 94.1729 17.2 93.8463 17.06C93.5263 16.92 93.1763 16.85 92.7963 16.85C92.4229 16.85 92.0829 16.9167 91.7763 17.05C91.4763 17.1833 91.2196 17.3667 91.0063 17.6C90.7929 17.8333 90.6263 18.1067 90.5063 18.42C90.3929 18.7333 90.3363 19.0733 90.3363 19.44C90.3363 19.82 90.3929 20.17 90.5063 20.49C90.6263 20.8033 90.7929 21.0767 91.0063 21.31C91.2263 21.5433 91.4896 21.7267 91.7963 21.86C92.1096 21.9867 92.4629 22.05 92.8563 22.05C93.3963 22.05 93.8663 21.9667 94.2663 21.8V20H92.7763V18.96H95.4863V22.63ZM98.2206 15.92H102.911V17.02H99.4806V18.82H102.731V19.88H99.4806V21.88H103.091V23H98.2206V15.92Z" fill="#888888"/>
<path d="M130.78 15.92H132.04V23H130.78V15.92ZM136.232 17.02H134.062V15.92H139.662V17.02H137.492V23H136.232V17.02ZM141.686 15.92H146.376V17.02H142.946V18.82H146.196V19.88H142.946V21.88H146.556V23H141.686V15.92ZM148.989 15.92H150.959L152.799 20.95H152.829L154.649 15.92H156.629V23H155.379V17.31H155.359L153.209 23H152.329L150.209 17.31H150.189V23H148.989V15.92ZM163.089 15.92H164.759L168.049 21.22H168.069V15.92H169.329V23H167.729L164.369 17.53H164.349V23H163.089V15.92ZM174.311 15.92H175.401L178.451 23H177.011L176.351 21.38H173.281L172.641 23H171.231L174.311 15.92ZM175.911 20.3L174.821 17.42L173.711 20.3H175.911ZM180.352 15.92H182.322L184.162 20.95H184.192L186.012 15.92H187.992V23H186.742V17.31H186.722L184.572 23H183.692L181.572 17.31H181.552V23H180.352V15.92ZM190.751 15.92H195.441V17.02H192.011V18.82H195.261V19.88H192.011V21.88H195.621V23H190.751V15.92Z" fill="#888888"/>
<path d="M274.9 15.92H276.31L278.26 21.37H278.3L280.27 15.92H281.63L278.79 23H277.7L274.9 15.92ZM283.513 15.92H288.203V17.02H284.773V18.82H288.023V19.88H284.773V21.88H288.383V23H283.513V15.92ZM290.817 15.92H292.487L295.777 21.22H295.797V15.92H297.057V23H295.457L292.097 17.53H292.077V23H290.817V15.92ZM299.819 15.92H302.329C302.789 15.92 303.253 15.98 303.719 16.1C304.186 16.22 304.606 16.42 304.979 16.7C305.353 16.9733 305.656 17.3367 305.889 17.79C306.123 18.2367 306.239 18.7933 306.239 19.46C306.239 20.08 306.123 20.6133 305.889 21.06C305.656 21.5067 305.353 21.8733 304.979 22.16C304.606 22.4467 304.186 22.66 303.719 22.8C303.253 22.9333 302.789 23 302.329 23H299.819V15.92ZM302.129 21.9C302.456 21.9 302.783 21.8633 303.109 21.79C303.436 21.71 303.729 21.58 303.989 21.4C304.256 21.2133 304.473 20.9633 304.639 20.65C304.806 20.3367 304.889 19.94 304.889 19.46C304.889 18.9533 304.806 18.54 304.639 18.22C304.473 17.9 304.256 17.65 303.989 17.47C303.729 17.29 303.436 17.1667 303.109 17.1C302.783 17.0333 302.456 17 302.129 17H301.079V21.9H302.129ZM308.316 19.44C308.316 18.8733 308.41 18.3633 308.596 17.91C308.79 17.45 309.053 17.06 309.386 16.74C309.726 16.42 310.126 16.1733 310.586 16C311.053 15.8267 311.56 15.74 312.106 15.74C312.66 15.74 313.17 15.8267 313.636 16C314.103 16.1733 314.506 16.42 314.846 16.74C315.186 17.06 315.45 17.45 315.636 17.91C315.83 18.3633 315.926 18.8733 315.926 19.44C315.926 19.9933 315.83 20.5 315.636 20.96C315.45 21.4133 315.186 21.8067 314.846 22.14C314.506 22.4667 314.103 22.7233 313.636 22.91C313.17 23.09 312.66 23.18 312.106 23.18C311.56 23.18 311.053 23.09 310.586 22.91C310.126 22.7233 309.726 22.4667 309.386 22.14C309.053 21.8067 308.79 21.4133 308.596 20.96C308.41 20.5 308.316 19.9933 308.316 19.44ZM309.686 19.44C309.686 19.82 309.743 20.17 309.856 20.49C309.976 20.8033 310.143 21.0767 310.356 21.31C310.576 21.5433 310.833 21.7267 311.126 21.86C311.426 21.9867 311.756 22.05 312.116 22.05C312.476 22.05 312.806 21.9867 313.106 21.86C313.406 21.7267 313.663 21.5433 313.876 21.31C314.096 21.0767 314.263 20.8033 314.376 20.49C314.496 20.17 314.556 19.82 314.556 19.44C314.556 19.0733 314.496 18.7333 314.376 18.42C314.263 18.1067 314.1 17.8333 313.886 17.6C313.673 17.3667 313.416 17.1833 313.116 17.05C312.816 16.9167 312.483 16.85 312.116 16.85C311.75 16.85 311.416 16.9167 311.116 17.05C310.823 17.1833 310.57 17.3667 310.356 17.6C310.143 17.8333 309.976 18.1067 309.856 18.42C309.743 18.7333 309.686 19.0733 309.686 19.44ZM318.343 15.92H320.803C321.136 15.92 321.459 15.9567 321.773 16.03C322.086 16.0967 322.363 16.21 322.603 16.37C322.849 16.53 323.046 16.74 323.193 17C323.339 17.26 323.413 17.5767 323.413 17.95C323.413 18.4633 323.266 18.8833 322.973 19.21C322.686 19.53 322.293 19.7467 321.793 19.86L323.683 23H322.163L320.523 20H319.603V23H318.343V15.92ZM320.633 18.97C320.813 18.97 320.993 18.9567 321.173 18.93C321.353 18.9033 321.513 18.8533 321.653 18.78C321.799 18.7067 321.919 18.6033 322.013 18.47C322.106 18.33 322.153 18.1533 322.153 17.94C322.153 17.7467 322.109 17.59 322.023 17.47C321.936 17.3433 321.826 17.2433 321.693 17.17C321.559 17.0967 321.406 17.0467 321.233 17.02C321.066 16.9933 320.903 16.98 320.743 16.98H319.603V18.97H320.633Z" fill="#888888"/>
<path d="M396.78 15.92H398.04V23H396.78V15.92ZM402.232 17.02H400.062V15.92H405.662V17.02H403.492V23H402.232V17.02ZM407.686 15.92H412.376V17.02H408.946V18.82H412.196V19.88H408.946V21.88H412.556V23H407.686V15.92ZM414.989 15.92H416.959L418.799 20.95H418.829L420.649 15.92H422.629V23H421.379V17.31H421.359L419.209 23H418.329L416.209 17.31H416.189V23H414.989V15.92ZM429.089 15.92H431.599C432.059 15.92 432.522 15.98 432.989 16.1C433.455 16.22 433.875 16.42 434.249 16.7C434.622 16.9733 434.925 17.3367 435.159 17.79C435.392 18.2367 435.509 18.7933 435.509 19.46C435.509 20.08 435.392 20.6133 435.159 21.06C434.925 21.5067 434.622 21.8733 434.249 22.16C433.875 22.4467 433.455 22.66 432.989 22.8C432.522 22.9333 432.059 23 431.599 23H429.089V15.92ZM431.399 21.9C431.725 21.9 432.052 21.8633 432.379 21.79C432.705 21.71 432.999 21.58 433.259 21.4C433.525 21.2133 433.742 20.9633 433.909 20.65C434.075 20.3367 434.159 19.94 434.159 19.46C434.159 18.9533 434.075 18.54 433.909 18.22C433.742 17.9 433.525 17.65 433.259 17.47C432.999 17.29 432.705 17.1667 432.379 17.1C432.052 17.0333 431.725 17 431.399 17H430.349V21.9H431.399ZM437.925 15.92H442.615V17.02H439.185V18.82H442.435V19.88H439.185V21.88H442.795V23H437.925V15.92ZM446.659 17.02H444.489V15.92H450.089V17.02H447.919V23H446.659V17.02ZM453.737 15.92H454.827L457.877 23H456.437L455.777 21.38H452.707L452.067 23H450.657L453.737 15.92ZM455.337 20.3L454.247 17.42L453.137 20.3H455.337ZM459.777 15.92H461.037V23H459.777V15.92ZM463.8 15.92H465.06V21.88H468.07V23H463.8V15.92ZM473.717 17.4C473.584 17.2267 473.394 17.0833 473.147 16.97C472.907 16.85 472.664 16.79 472.417 16.79C472.27 16.79 472.124 16.81 471.977 16.85C471.83 16.8833 471.697 16.94 471.577 17.02C471.457 17.0933 471.357 17.1933 471.277 17.32C471.204 17.44 471.167 17.5867 471.167 17.76C471.167 17.92 471.2 18.0567 471.267 18.17C471.334 18.2833 471.424 18.38 471.537 18.46C471.657 18.54 471.8 18.61 471.967 18.67C472.134 18.73 472.317 18.79 472.517 18.85C472.744 18.9233 472.977 19.0067 473.217 19.1C473.464 19.1933 473.687 19.3167 473.887 19.47C474.094 19.6233 474.26 19.8167 474.387 20.05C474.52 20.2833 474.587 20.5733 474.587 20.92C474.587 21.3 474.517 21.6333 474.377 21.92C474.237 22.2 474.05 22.4333 473.817 22.62C473.584 22.8067 473.31 22.9467 472.997 23.04C472.684 23.1333 472.354 23.18 472.007 23.18C471.547 23.18 471.097 23.0967 470.657 22.93C470.217 22.7567 469.857 22.5033 469.577 22.17L470.477 21.33C470.65 21.57 470.88 21.76 471.167 21.9C471.46 22.04 471.747 22.11 472.027 22.11C472.174 22.11 472.324 22.0933 472.477 22.06C472.63 22.02 472.767 21.9567 472.887 21.87C473.014 21.7833 473.114 21.6767 473.187 21.55C473.267 21.4167 473.307 21.2533 473.307 21.06C473.307 20.8733 473.264 20.72 473.177 20.6C473.09 20.4733 472.974 20.3667 472.827 20.28C472.68 20.1867 472.507 20.1067 472.307 20.04C472.107 19.9733 471.897 19.9033 471.677 19.83C471.464 19.7633 471.25 19.6833 471.037 19.59C470.824 19.4967 470.63 19.3733 470.457 19.22C470.29 19.0667 470.154 18.88 470.047 18.66C469.94 18.4333 469.887 18.1533 469.887 17.82C469.887 17.46 469.96 17.15 470.107 16.89C470.26 16.63 470.457 16.4167 470.697 16.25C470.944 16.0767 471.22 15.95 471.527 15.87C471.84 15.7833 472.157 15.74 472.477 15.74C472.837 15.74 473.2 15.8033 473.567 15.93C473.94 16.0567 474.264 16.2467 474.537 16.5L473.717 17.4Z" fill="#888888"/>
<path d="M744.309 15.92H746.769C747.103 15.92 747.426 15.9567 747.739 16.03C748.053 16.0967 748.329 16.21 748.569 16.37C748.816 16.53 749.013 16.74 749.159 17C749.306 17.26 749.379 17.5767 749.379 17.95C749.379 18.4633 749.233 18.8833 748.939 19.21C748.653 19.53 748.259 19.7467 747.759 19.86L749.649 23H748.129L746.489 20H745.569V23H744.309V15.92ZM746.599 18.97C746.779 18.97 746.959 18.9567 747.139 18.93C747.319 18.9033 747.479 18.8533 747.619 18.78C747.766 18.7067 747.886 18.6033 747.979 18.47C748.073 18.33 748.119 18.1533 748.119 17.94C748.119 17.7467 748.076 17.59 747.989 17.47C747.903 17.3433 747.793 17.2433 747.659 17.17C747.526 17.0967 747.373 17.0467 747.199 17.02C747.033 16.9933 746.869 16.98 746.709 16.98H745.569V18.97H746.599ZM751.798 15.92H756.488V17.02H753.058V18.82H756.308V19.88H753.058V21.88H756.668V23H751.798V15.92ZM760.532 17.02H758.362V15.92H763.962V17.02H761.792V23H760.532V17.02ZM767.61 15.92H768.7L771.75 23H770.31L769.65 21.38H766.58L765.94 23H764.53L767.61 15.92ZM769.21 20.3L768.12 17.42L767.01 20.3H769.21ZM773.65 15.92H774.91V23H773.65V15.92ZM777.673 15.92H778.933V21.88H781.943V23H777.673V15.92Z" fill="#888888"/>
<path d="M810.103 15.92H811.363V18.78H814.673V15.92H815.933V23H814.673V19.86H811.363V23H810.103V15.92ZM818.695 15.92H821.005C821.412 15.92 821.779 15.9567 822.105 16.03C822.432 16.1033 822.712 16.2233 822.945 16.39C823.179 16.5567 823.359 16.77 823.485 17.03C823.612 17.29 823.675 17.6033 823.675 17.97C823.675 18.3633 823.602 18.6933 823.455 18.96C823.309 19.2267 823.109 19.4433 822.855 19.61C822.609 19.77 822.319 19.8867 821.985 19.96C821.652 20.0333 821.299 20.07 820.925 20.07H819.955V23H818.695V15.92ZM820.835 19.01C821.042 19.01 821.239 18.9967 821.425 18.97C821.612 18.9367 821.779 18.8833 821.925 18.81C822.072 18.73 822.189 18.6233 822.275 18.49C822.362 18.3567 822.405 18.1833 822.405 17.97C822.405 17.7633 822.362 17.5967 822.275 17.47C822.189 17.3367 822.072 17.2333 821.925 17.16C821.785 17.0867 821.622 17.04 821.435 17.02C821.255 16.9933 821.069 16.98 820.875 16.98H819.955V19.01H820.835ZM829.699 15.92H832.009C832.415 15.92 832.782 15.9567 833.109 16.03C833.435 16.1033 833.715 16.2233 833.949 16.39C834.182 16.5567 834.362 16.77 834.489 17.03C834.615 17.29 834.679 17.6033 834.679 17.97C834.679 18.3633 834.605 18.6933 834.459 18.96C834.312 19.2267 834.112 19.4433 833.859 19.61C833.612 19.77 833.322 19.8867 832.989 19.96C832.655 20.0333 832.302 20.07 831.929 20.07H830.959V23H829.699V15.92ZM831.839 19.01C832.045 19.01 832.242 18.9967 832.429 18.97C832.615 18.9367 832.782 18.8833 832.929 18.81C833.075 18.73 833.192 18.6233 833.279 18.49C833.365 18.3567 833.409 18.1833 833.409 17.97C833.409 17.7633 833.365 17.5967 833.279 17.47C833.192 17.3367 833.075 17.2333 832.929 17.16C832.789 17.0867 832.625 17.04 832.439 17.02C832.259 16.9933 832.072 16.98 831.879 16.98H830.959V19.01H831.839ZM837.002 15.92H839.462C839.796 15.92 840.119 15.9567 840.432 16.03C840.746 16.0967 841.022 16.21 841.262 16.37C841.509 16.53 841.706 16.74 841.852 17C841.999 17.26 842.072 17.5767 842.072 17.95C842.072 18.4633 841.926 18.8833 841.632 19.21C841.346 19.53 840.952 19.7467 840.452 19.86L842.342 23H840.822L839.182 20H838.262V23H837.002V15.92ZM839.292 18.97C839.472 18.97 839.652 18.9567 839.832 18.93C840.012 18.9033 840.172 18.8533 840.312 18.78C840.459 18.7067 840.579 18.6033 840.672 18.47C840.766 18.33 840.812 18.1533 840.812 17.94C840.812 17.7467 840.769 17.59 840.682 17.47C840.596 17.3433 840.486 17.2433 840.352 17.17C840.219 17.0967 840.066 17.0467 839.892 17.02C839.726 16.9933 839.562 16.98 839.402 16.98H838.262V18.97H839.292ZM844.491 15.92H845.751V23H844.491V15.92ZM853.624 17.58C853.437 17.3267 853.194 17.1433 852.894 17.03C852.594 16.91 852.3 16.85 852.014 16.85C851.647 16.85 851.314 16.9167 851.014 17.05C850.714 17.1833 850.454 17.3667 850.234 17.6C850.02 17.8333 849.854 18.1067 849.734 18.42C849.62 18.7333 849.564 19.0733 849.564 19.44C849.564 19.8267 849.62 20.18 849.734 20.5C849.847 20.82 850.007 21.0967 850.214 21.33C850.427 21.5567 850.68 21.7333 850.974 21.86C851.267 21.9867 851.597 22.05 851.964 22.05C852.344 22.05 852.68 21.9767 852.974 21.83C853.267 21.6767 853.504 21.4767 853.684 21.23L854.694 21.94C854.38 22.3333 853.997 22.64 853.544 22.86C853.09 23.0733 852.56 23.18 851.954 23.18C851.4 23.18 850.89 23.09 850.424 22.91C849.964 22.7233 849.567 22.4667 849.234 22.14C848.9 21.8067 848.64 21.4133 848.454 20.96C848.267 20.5 848.174 19.9933 848.174 19.44C848.174 18.8733 848.27 18.3633 848.464 17.91C848.664 17.45 848.934 17.06 849.274 16.74C849.62 16.42 850.027 16.1733 850.494 16C850.96 15.8267 851.467 15.74 852.014 15.74C852.24 15.74 852.477 15.7633 852.724 15.81C852.97 15.85 853.207 15.9167 853.434 16.01C853.66 16.0967 853.874 16.2067 854.074 16.34C854.274 16.4733 854.444 16.6333 854.584 16.82L853.624 17.58ZM856.676 15.92H861.366V17.02H857.936V18.82H861.186V19.88H857.936V21.88H861.546V23H856.676V15.92Z" fill="#888888"/>
<path d="M896.691 23H892.421C891.854 23 891.338 22.92 890.871 22.76C890.411 22.5933 890.014 22.3567 889.681 22.05C889.354 21.7367 889.101 21.3567 888.921 20.91C888.741 20.4567 888.651 19.9433 888.651 19.37C888.651 18.83 888.744 18.34 888.931 17.9C889.124 17.4533 889.391 17.07 889.731 16.75C890.071 16.43 890.471 16.1833 890.931 16.01C891.398 15.83 891.901 15.74 892.441 15.74C892.981 15.74 893.481 15.83 893.941 16.01C894.401 16.1833 894.798 16.43 895.131 16.75C895.471 17.07 895.734 17.4533 895.921 17.9C896.108 18.34 896.201 18.83 896.201 19.37C896.201 19.69 896.164 19.9833 896.091 20.25C896.018 20.5167 895.921 20.76 895.801 20.98C895.688 21.1933 895.554 21.3833 895.401 21.55C895.254 21.71 895.101 21.8467 894.941 21.96V21.98H896.691V23ZM892.441 16.87C892.101 16.87 891.781 16.9333 891.481 17.06C891.188 17.1867 890.934 17.36 890.721 17.58C890.508 17.8 890.338 18.0633 890.211 18.37C890.091 18.6767 890.031 19.01 890.031 19.37C890.031 19.75 890.088 20.0967 890.201 20.41C890.321 20.7167 890.484 20.98 890.691 21.2C890.904 21.42 891.158 21.5933 891.451 21.72C891.744 21.84 892.068 21.9 892.421 21.9C892.768 21.9 893.088 21.84 893.381 21.72C893.681 21.5933 893.938 21.42 894.151 21.2C894.364 20.98 894.531 20.7167 894.651 20.41C894.771 20.0967 894.831 19.75 894.831 19.37C894.831 19.01 894.774 18.6767 894.661 18.37C894.548 18.0633 894.384 17.8 894.171 17.58C893.964 17.36 893.714 17.1867 893.421 17.06C893.128 16.9333 892.801 16.87 892.441 16.87ZM900.206 17.02H898.036V15.92H903.636V17.02H901.466V23H900.206V17.02ZM907.253 19.93L904.593 15.92H906.133L907.913 18.9L909.713 15.92H911.173L908.513 19.93V23H907.253V19.93ZM911.902 22.3C911.902 22.0867 911.979 21.9033 912.132 21.75C912.292 21.5967 912.482 21.52 912.702 21.52C912.916 21.52 913.102 21.5933 913.262 21.74C913.422 21.8867 913.502 22.0667 913.502 22.28C913.502 22.4933 913.422 22.6767 913.262 22.83C913.109 22.9833 912.922 23.06 912.702 23.06C912.596 23.06 912.492 23.04 912.392 23C912.299 22.96 912.216 22.9067 912.142 22.84C912.069 22.7733 912.009 22.6933 911.962 22.6C911.922 22.5067 911.902 22.4067 911.902 22.3Z" fill="#888888"/>
<path d="M960.59 17.02H958.42V15.92H964.02V17.02H961.85V23H960.59V17.02ZM965.401 19.44C965.401 18.8733 965.494 18.3633 965.681 17.91C965.874 17.45 966.137 17.06 966.471 16.74C966.811 16.42 967.211 16.1733 967.671 16C968.137 15.8267 968.644 15.74 969.191 15.74C969.744 15.74 970.254 15.8267 970.721 16C971.187 16.1733 971.591 16.42 971.931 16.74C972.271 17.06 972.534 17.45 972.721 17.91C972.914 18.3633 973.011 18.8733 973.011 19.44C973.011 19.9933 972.914 20.5 972.721 20.96C972.534 21.4133 972.271 21.8067 971.931 22.14C971.591 22.4667 971.187 22.7233 970.721 22.91C970.254 23.09 969.744 23.18 969.191 23.18C968.644 23.18 968.137 23.09 967.671 22.91C967.211 22.7233 966.811 22.4667 966.471 22.14C966.137 21.8067 965.874 21.4133 965.681 20.96C965.494 20.5 965.401 19.9933 965.401 19.44ZM966.771 19.44C966.771 19.82 966.827 20.17 966.941 20.49C967.061 20.8033 967.227 21.0767 967.441 21.31C967.661 21.5433 967.917 21.7267 968.211 21.86C968.511 21.9867 968.841 22.05 969.201 22.05C969.561 22.05 969.891 21.9867 970.191 21.86C970.491 21.7267 970.747 21.5433 970.961 21.31C971.181 21.0767 971.347 20.8033 971.461 20.49C971.581 20.17 971.641 19.82 971.641 19.44C971.641 19.0733 971.581 18.7333 971.461 18.42C971.347 18.1067 971.184 17.8333 970.971 17.6C970.757 17.3667 970.501 17.1833 970.201 17.05C969.901 16.9167 969.567 16.85 969.201 16.85C968.834 16.85 968.501 16.9167 968.201 17.05C967.907 17.1833 967.654 17.3667 967.441 17.6C967.227 17.8333 967.061 18.1067 966.941 18.42C966.827 18.7333 966.771 19.0733 966.771 19.44ZM976.554 17.02H974.384V15.92H979.984V17.02H977.814V23H976.554V17.02ZM983.632 15.92H984.722L987.772 23H986.332L985.672 21.38H982.602L981.962 23H980.552L983.632 15.92ZM985.232 20.3L984.142 17.42L983.032 20.3H985.232ZM989.673 15.92H990.933V21.88H993.943V23H989.673V15.92Z" fill="#888888"/>
<path d="M1048.01 15.92H1050.77C1051.04 15.92 1051.3 15.9533 1051.56 16.02C1051.82 16.08 1052.05 16.1833 1052.25 16.33C1052.46 16.47 1052.62 16.6533 1052.75 16.88C1052.88 17.1067 1052.94 17.38 1052.94 17.7C1052.94 18.1 1052.83 18.43 1052.6 18.69C1052.37 18.95 1052.08 19.1367 1051.71 19.25V19.27C1052.16 19.33 1052.52 19.5033 1052.81 19.79C1053.1 20.0767 1053.24 20.46 1053.24 20.94C1053.24 21.3267 1053.16 21.6533 1053.01 21.92C1052.86 22.18 1052.65 22.39 1052.4 22.55C1052.15 22.71 1051.87 22.8267 1051.54 22.9C1051.22 22.9667 1050.89 23 1050.56 23H1048.01V15.92ZM1049.27 18.8H1050.39C1050.81 18.8 1051.13 18.7167 1051.35 18.55C1051.57 18.3833 1051.68 18.1467 1051.68 17.84C1051.68 17.52 1051.57 17.2933 1051.34 17.16C1051.11 17.0267 1050.76 16.96 1050.28 16.96H1049.27V18.8ZM1049.27 21.94H1050.4C1050.56 21.94 1050.73 21.93 1050.92 21.91C1051.11 21.8833 1051.28 21.8333 1051.43 21.76C1051.59 21.6867 1051.72 21.58 1051.82 21.44C1051.93 21.3 1051.98 21.1133 1051.98 20.88C1051.98 20.5067 1051.85 20.2467 1051.6 20.1C1051.35 19.9533 1050.96 19.88 1050.45 19.88H1049.27V21.94ZM1061.32 20.4C1061.32 20.8267 1061.25 21.2133 1061.1 21.56C1060.96 21.9 1060.76 22.19 1060.5 22.43C1060.25 22.67 1059.95 22.8567 1059.6 22.99C1059.26 23.1167 1058.88 23.18 1058.47 23.18C1058.07 23.18 1057.69 23.1167 1057.34 22.99C1057 22.8567 1056.69 22.67 1056.43 22.43C1056.18 22.19 1055.98 21.9 1055.83 21.56C1055.69 21.2133 1055.62 20.8267 1055.62 20.4V15.92H1056.88V20.35C1056.88 20.5567 1056.91 20.7633 1056.96 20.97C1057.02 21.17 1057.1 21.35 1057.22 21.51C1057.35 21.67 1057.51 21.8 1057.71 21.9C1057.92 22 1058.17 22.05 1058.47 22.05C1058.77 22.05 1059.02 22 1059.22 21.9C1059.43 21.8 1059.59 21.67 1059.71 21.51C1059.84 21.35 1059.93 21.17 1059.98 20.97C1060.04 20.7633 1060.06 20.5567 1060.06 20.35V15.92H1061.32V20.4ZM1064.02 15.92H1066.53C1066.99 15.92 1067.46 15.98 1067.92 16.1C1068.39 16.22 1068.81 16.42 1069.18 16.7C1069.56 16.9733 1069.86 17.3367 1070.09 17.79C1070.33 18.2367 1070.44 18.7933 1070.44 19.46C1070.44 20.08 1070.33 20.6133 1070.09 21.06C1069.86 21.5067 1069.56 21.8733 1069.18 22.16C1068.81 22.4467 1068.39 22.66 1067.92 22.8C1067.46 22.9333 1066.99 23 1066.53 23H1064.02V15.92ZM1066.33 21.9C1066.66 21.9 1066.99 21.8633 1067.31 21.79C1067.64 21.71 1067.93 21.58 1068.19 21.4C1068.46 21.2133 1068.68 20.9633 1068.84 20.65C1069.01 20.3367 1069.09 19.94 1069.09 19.46C1069.09 18.9533 1069.01 18.54 1068.84 18.22C1068.68 17.9 1068.46 17.65 1068.19 17.47C1067.93 17.29 1067.64 17.1667 1067.31 17.1C1066.99 17.0333 1066.66 17 1066.33 17H1065.28V21.9H1066.33ZM1079.06 22.63C1078.7 22.8033 1078.3 22.9367 1077.87 23.03C1077.44 23.13 1076.95 23.18 1076.39 23.18C1075.82 23.18 1075.29 23.09 1074.82 22.91C1074.35 22.7233 1073.94 22.4667 1073.6 22.14C1073.26 21.8067 1072.99 21.4133 1072.8 20.96C1072.61 20.5 1072.52 19.9933 1072.52 19.44C1072.52 18.8733 1072.62 18.3633 1072.81 17.91C1073.01 17.45 1073.28 17.06 1073.62 16.74C1073.97 16.42 1074.37 16.1733 1074.84 16C1075.31 15.8267 1075.81 15.74 1076.36 15.74C1076.93 15.74 1077.44 15.8233 1077.91 15.99C1078.38 16.15 1078.76 16.3633 1079.05 16.63L1078.18 17.57C1078 17.37 1077.75 17.2 1077.42 17.06C1077.1 16.92 1076.75 16.85 1076.37 16.85C1076 16.85 1075.66 16.9167 1075.35 17.05C1075.05 17.1833 1074.79 17.3667 1074.58 17.6C1074.37 17.8333 1074.2 18.1067 1074.08 18.42C1073.97 18.7333 1073.91 19.0733 1073.91 19.44C1073.91 19.82 1073.97 20.17 1074.08 20.49C1074.2 20.8033 1074.37 21.0767 1074.58 21.31C1074.8 21.5433 1075.06 21.7267 1075.37 21.86C1075.68 21.9867 1076.04 22.05 1076.43 22.05C1076.97 22.05 1077.44 21.9667 1077.84 21.8V20H1076.35V18.96H1079.06V22.63ZM1081.79 15.92H1086.48V17.02H1083.05V18.82H1086.3V19.88H1083.05V21.88H1086.66V23H1081.79V15.92ZM1090.53 17.02H1088.36V15.92H1093.96V17.02H1091.79V23H1090.53V17.02Z" fill="#888888"/>
<path d="M1214.69 17.4C1214.55 17.2267 1214.36 17.0833 1214.12 16.97C1213.88 16.85 1213.63 16.79 1213.39 16.79C1213.24 16.79 1213.09 16.81 1212.95 16.85C1212.8 16.8833 1212.67 16.94 1212.55 17.02C1212.43 17.0933 1212.33 17.1933 1212.25 17.32C1212.17 17.44 1212.14 17.5867 1212.14 17.76C1212.14 17.92 1212.17 18.0567 1212.24 18.17C1212.3 18.2833 1212.39 18.38 1212.51 18.46C1212.63 18.54 1212.77 18.61 1212.94 18.67C1213.1 18.73 1213.29 18.79 1213.49 18.85C1213.71 18.9233 1213.95 19.0067 1214.19 19.1C1214.43 19.1933 1214.66 19.3167 1214.86 19.47C1215.06 19.6233 1215.23 19.8167 1215.36 20.05C1215.49 20.2833 1215.56 20.5733 1215.56 20.92C1215.56 21.3 1215.49 21.6333 1215.35 21.92C1215.21 22.2 1215.02 22.4333 1214.79 22.62C1214.55 22.8067 1214.28 22.9467 1213.97 23.04C1213.65 23.1333 1213.32 23.18 1212.98 23.18C1212.52 23.18 1212.07 23.0967 1211.63 22.93C1211.19 22.7567 1210.83 22.5033 1210.55 22.17L1211.45 21.33C1211.62 21.57 1211.85 21.76 1212.14 21.9C1212.43 22.04 1212.72 22.11 1213 22.11C1213.14 22.11 1213.29 22.0933 1213.45 22.06C1213.6 22.02 1213.74 21.9567 1213.86 21.87C1213.98 21.7833 1214.08 21.6767 1214.16 21.55C1214.24 21.4167 1214.28 21.2533 1214.28 21.06C1214.28 20.8733 1214.23 20.72 1214.15 20.6C1214.06 20.4733 1213.94 20.3667 1213.8 20.28C1213.65 20.1867 1213.48 20.1067 1213.28 20.04C1213.08 19.9733 1212.87 19.9033 1212.65 19.83C1212.43 19.7633 1212.22 19.6833 1212.01 19.59C1211.79 19.4967 1211.6 19.3733 1211.43 19.22C1211.26 19.0667 1211.12 18.88 1211.02 18.66C1210.91 18.4333 1210.86 18.1533 1210.86 17.82C1210.86 17.46 1210.93 17.15 1211.08 16.89C1211.23 16.63 1211.43 16.4167 1211.67 16.25C1211.91 16.0767 1212.19 15.95 1212.5 15.87C1212.81 15.7833 1213.13 15.74 1213.45 15.74C1213.81 15.74 1214.17 15.8033 1214.54 15.93C1214.91 16.0567 1215.23 16.2467 1215.51 16.5L1214.69 17.4ZM1219.29 17.02H1217.12V15.92H1222.72V17.02H1220.55V23H1219.29V17.02ZM1226.37 15.92H1227.46L1230.51 23H1229.07L1228.41 21.38H1225.34L1224.7 23H1223.29L1226.37 15.92ZM1227.97 20.3L1226.88 17.42L1225.77 20.3H1227.97ZM1233.25 17.02H1231.08V15.92H1236.68V17.02H1234.51V23H1233.25V17.02ZM1244.34 20.4C1244.34 20.8267 1244.27 21.2133 1244.12 21.56C1243.97 21.9 1243.77 22.19 1243.52 22.43C1243.27 22.67 1242.97 22.8567 1242.62 22.99C1242.27 23.1167 1241.9 23.18 1241.49 23.18C1241.08 23.18 1240.71 23.1167 1240.36 22.99C1240.01 22.8567 1239.71 22.67 1239.45 22.43C1239.2 22.19 1239 21.9 1238.85 21.56C1238.71 21.2133 1238.64 20.8267 1238.64 20.4V15.92H1239.9V20.35C1239.9 20.5567 1239.93 20.7633 1239.98 20.97C1240.03 21.17 1240.12 21.35 1240.24 21.51C1240.37 21.67 1240.53 21.8 1240.73 21.9C1240.94 22 1241.19 22.05 1241.49 22.05C1241.79 22.05 1242.04 22 1242.24 21.9C1242.45 21.8 1242.61 21.67 1242.73 21.51C1242.86 21.35 1242.95 21.17 1243 20.97C1243.05 20.7633 1243.08 20.5567 1243.08 20.35V15.92H1244.34V20.4ZM1250.65 17.4C1250.51 17.2267 1250.32 17.0833 1250.08 16.97C1249.84 16.85 1249.59 16.79 1249.35 16.79C1249.2 16.79 1249.05 16.81 1248.91 16.85C1248.76 16.8833 1248.63 16.94 1248.51 17.02C1248.39 17.0933 1248.29 17.1933 1248.21 17.32C1248.13 17.44 1248.1 17.5867 1248.1 17.76C1248.1 17.92 1248.13 18.0567 1248.2 18.17C1248.26 18.2833 1248.35 18.38 1248.47 18.46C1248.59 18.54 1248.73 18.61 1248.9 18.67C1249.06 18.73 1249.25 18.79 1249.45 18.85C1249.67 18.9233 1249.91 19.0067 1250.15 19.1C1250.39 19.1933 1250.62 19.3167 1250.82 19.47C1251.02 19.6233 1251.19 19.8167 1251.32 20.05C1251.45 20.2833 1251.52 20.5733 1251.52 20.92C1251.52 21.3 1251.45 21.6333 1251.31 21.92C1251.17 22.2 1250.98 22.4333 1250.75 22.62C1250.51 22.8067 1250.24 22.9467 1249.93 23.04C1249.61 23.1333 1249.28 23.18 1248.94 23.18C1248.48 23.18 1248.03 23.0967 1247.59 22.93C1247.15 22.7567 1246.79 22.5033 1246.51 22.17L1247.41 21.33C1247.58 21.57 1247.81 21.76 1248.1 21.9C1248.39 22.04 1248.68 22.11 1248.96 22.11C1249.1 22.11 1249.25 22.0933 1249.41 22.06C1249.56 22.02 1249.7 21.9567 1249.82 21.87C1249.94 21.7833 1250.04 21.6767 1250.12 21.55C1250.2 21.4167 1250.24 21.2533 1250.24 21.06C1250.24 20.8733 1250.19 20.72 1250.11 20.6C1250.02 20.4733 1249.9 20.3667 1249.76 20.28C1249.61 20.1867 1249.44 20.1067 1249.24 20.04C1249.04 19.9733 1248.83 19.9033 1248.61 19.83C1248.39 19.7633 1248.18 19.6833 1247.97 19.59C1247.75 19.4967 1247.56 19.3733 1247.39 19.22C1247.22 19.0667 1247.08 18.88 1246.98 18.66C1246.87 18.4333 1246.82 18.1533 1246.82 17.82C1246.82 17.46 1246.89 17.15 1247.04 16.89C1247.19 16.63 1247.39 16.4167 1247.63 16.25C1247.87 16.0767 1248.15 15.95 1248.46 15.87C1248.77 15.7833 1249.09 15.74 1249.41 15.74C1249.77 15.74 1250.13 15.8033 1250.5 15.93C1250.87 16.0567 1251.19 16.2467 1251.47 16.5L1250.65 17.4Z" fill="#888888"/>
<path fill-rule="evenodd" clip-rule="evenodd" d="M0 41H16V101H0V41Z" fill="#A8A18F"/>
<path fill-rule="evenodd" clip-rule="evenodd" d="M110 41H130V101H110V41Z" fill="#A8A18F"/>
<path d="M16.4998 41.5H65.4998V100.5H16.4998V41.5Z" fill="#DCDFD8" stroke="#A8A18F"/>
<path d="M66.5 41.5H109.5V100.5H66.5V41.5Z" fill="#DCDFD8" stroke="#A8A18F"/>
<path d="M130.5 41.5H274.5V100.5H130.5V41.5Z" fill="#DCDFD8" stroke="#A8A18F"/>
<path d="M275.5 41.5H374.5V100.5H275.5V41.5Z" fill="#DCDFD8" stroke="#A8A18F"/>
<path fill-rule="evenodd" clip-rule="evenodd" d="M375 41H395V101H375V41Z" fill="#A8A18F"/>
<path d="M395.5 41.5H701.5V100.5H395.5V41.5Z" fill="#DCDFD8" stroke="#A8A18F"/>
<path d="M702.5 41.5H781.5V100.5H702.5V41.5Z" fill="#DCDFD8" stroke="#A8A18F"/>
<path d="M782.5 41.5H861.5V100.5H782.5V41.5Z" fill="#DCDFD8" stroke="#A8A18F"/>
<path d="M862.5 41.5H912.5V100.5H862.5V41.5Z" fill="#DCDFD8" stroke="#A8A18F"/>
<path d="M913.5 41.5H992.5V100.5H913.5V41.5Z" fill="#DCDFD8" stroke="#A8A18F"/>
<path d="M993.5 41.5H1093.5V100.5H993.5V41.5Z" fill="#DCDFD8" stroke="#A8A18F"/>
<path d="M1094.5 41.5H1255.5V100.5H1094.5V41.5Z" fill="#DCDFD8" stroke="#A8A18F"/>
<path fill-rule="evenodd" clip-rule="evenodd" d="M1256 41H1268V101H1256V41Z" fill="#A8A18F"/>
</svg>
