<svg width="1268" height="110" viewBox="0 0 1268 110" fill="none" xmlns="http://www.w3.org/2000/svg">
<mask id="path-1-inside-1_309_16235" fill="white">
<path d="M0 0H1268V50H0V0Z"/>
</mask>
<path d="M0 0H1268V50H0V0Z" fill="white"/>
<path d="M1268 49H0V51H1268V49Z" fill="#D9D9D9" mask="url(#path-1-inside-1_309_16235)"/>
<rect x="16.5" y="16" width="15" height="15" fill="white"/>
<rect x="16.5" y="16" width="15" height="15" stroke="#757575"/>
<path d="M48.21 21.02H46.04V19.92H51.64V21.02H49.47V27H48.21V21.02ZM55.2564 23.93L52.5964 19.92H54.1364L55.9164 22.9L57.7164 19.92H59.1764L56.5164 23.93V27H55.2564V23.93ZM60.9671 19.92H63.2771C63.6838 19.92 64.0504 19.9567 64.3771 20.03C64.7038 20.1033 64.9838 20.2233 65.2171 20.39C65.4504 20.5567 65.6304 20.77 65.7571 21.03C65.8838 21.29 65.9471 21.6033 65.9471 21.97C65.9471 22.3633 65.8738 22.6933 65.7271 22.96C65.5804 23.2267 65.3804 23.4433 65.1271 23.61C64.8804 23.77 64.5904 23.8867 64.2571 23.96C63.9238 24.0333 63.5704 24.07 63.1971 24.07H62.2271V27H60.9671V19.92ZM63.1071 23.01C63.3138 23.01 63.5104 22.9967 63.6971 22.97C63.8838 22.9367 64.0504 22.8833 64.1971 22.81C64.3438 22.73 64.4604 22.6233 64.5471 22.49C64.6338 22.3567 64.6771 22.1833 64.6771 21.97C64.6771 21.7633 64.6338 21.5967 64.5471 21.47C64.4604 21.3367 64.3438 21.2333 64.1971 21.16C64.0571 21.0867 63.8938 21.04 63.7071 21.02C63.5271 20.9933 63.3404 20.98 63.1471 20.98H62.2271V23.01H63.1071ZM68.2706 19.92H72.9606V21.02H69.5306V22.82H72.7806V23.88H69.5306V25.88H73.1406V27H68.2706V19.92Z" fill="#AAAAAA"/>
<path d="M159.008 19.92H160.268V27H159.008V19.92ZM163.03 19.92H165L166.84 24.95H166.87L168.69 19.92H170.67V27H169.42V21.31H169.4L167.25 27H166.37L164.25 21.31H164.23V27H163.03V19.92ZM175.649 19.92H176.739L179.789 27H178.349L177.689 25.38H174.619L173.979 27H172.569L175.649 19.92ZM177.249 24.3L176.159 21.42L175.049 24.3H177.249ZM187.714 26.63C187.354 26.8033 186.958 26.9367 186.524 27.03C186.098 27.13 185.604 27.18 185.044 27.18C184.471 27.18 183.948 27.09 183.474 26.91C183.001 26.7233 182.594 26.4667 182.254 26.14C181.914 25.8067 181.648 25.4133 181.454 24.96C181.268 24.5 181.174 23.9933 181.174 23.44C181.174 22.8733 181.271 22.3633 181.464 21.91C181.664 21.45 181.934 21.06 182.274 20.74C182.621 20.42 183.028 20.1733 183.494 20C183.961 19.8267 184.468 19.74 185.014 19.74C185.581 19.74 186.098 19.8233 186.564 19.99C187.038 20.15 187.418 20.3633 187.704 20.63L186.834 21.57C186.654 21.37 186.401 21.2 186.074 21.06C185.754 20.92 185.404 20.85 185.024 20.85C184.651 20.85 184.311 20.9167 184.004 21.05C183.704 21.1833 183.448 21.3667 183.234 21.6C183.021 21.8333 182.854 22.1067 182.734 22.42C182.621 22.7333 182.564 23.0733 182.564 23.44C182.564 23.82 182.621 24.17 182.734 24.49C182.854 24.8033 183.021 25.0767 183.234 25.31C183.454 25.5433 183.718 25.7267 184.024 25.86C184.338 25.9867 184.691 26.05 185.084 26.05C185.624 26.05 186.094 25.9667 186.494 25.8V24H185.004V22.96H187.714V26.63ZM190.449 19.92H195.139V21.02H191.709V22.82H194.959V23.88H191.709V25.88H195.319V27H190.449V19.92Z" fill="#AAAAAA"/>
<path d="M230.78 19.92H232.04V27H230.78V19.92ZM236.232 21.02H234.062V19.92H239.662V21.02H237.492V27H236.232V21.02ZM241.686 19.92H246.376V21.02H242.946V22.82H246.196V23.88H242.946V25.88H246.556V27H241.686V19.92ZM248.989 19.92H250.959L252.799 24.95H252.829L254.649 19.92H256.629V27H255.379V21.31H255.359L253.209 27H252.329L250.209 21.31H250.189V27H248.989V19.92ZM263.089 19.92H264.759L268.049 25.22H268.069V19.92H269.329V27H267.729L264.369 21.53H264.349V27H263.089V19.92ZM274.311 19.92H275.401L278.451 27H277.011L276.351 25.38H273.281L272.641 27H271.231L274.311 19.92ZM275.911 24.3L274.821 21.42L273.711 24.3H275.911ZM280.352 19.92H282.322L284.162 24.95H284.192L286.012 19.92H287.992V27H286.742V21.31H286.722L284.572 27H283.692L281.572 21.31H281.552V27H280.352V19.92ZM290.751 19.92H295.441V21.02H292.011V22.82H295.261V23.88H292.011V25.88H295.621V27H290.751V19.92Z" fill="#AAAAAA"/>
<path d="M380.9 19.92H382.31L384.26 25.37H384.3L386.27 19.92H387.63L384.79 27H383.7L380.9 19.92ZM389.513 19.92H394.203V21.02H390.773V22.82H394.023V23.88H390.773V25.88H394.383V27H389.513V19.92ZM396.817 19.92H398.487L401.777 25.22H401.797V19.92H403.057V27H401.457L398.097 21.53H398.077V27H396.817V19.92ZM405.819 19.92H408.329C408.789 19.92 409.253 19.98 409.719 20.1C410.186 20.22 410.606 20.42 410.979 20.7C411.353 20.9733 411.656 21.3367 411.889 21.79C412.123 22.2367 412.239 22.7933 412.239 23.46C412.239 24.08 412.123 24.6133 411.889 25.06C411.656 25.5067 411.353 25.8733 410.979 26.16C410.606 26.4467 410.186 26.66 409.719 26.8C409.253 26.9333 408.789 27 408.329 27H405.819V19.92ZM408.129 25.9C408.456 25.9 408.783 25.8633 409.109 25.79C409.436 25.71 409.729 25.58 409.989 25.4C410.256 25.2133 410.473 24.9633 410.639 24.65C410.806 24.3367 410.889 23.94 410.889 23.46C410.889 22.9533 410.806 22.54 410.639 22.22C410.473 21.9 410.256 21.65 409.989 21.47C409.729 21.29 409.436 21.1667 409.109 21.1C408.783 21.0333 408.456 21 408.129 21H407.079V25.9H408.129ZM414.316 23.44C414.316 22.8733 414.41 22.3633 414.596 21.91C414.79 21.45 415.053 21.06 415.386 20.74C415.726 20.42 416.126 20.1733 416.586 20C417.053 19.8267 417.56 19.74 418.106 19.74C418.66 19.74 419.17 19.8267 419.636 20C420.103 20.1733 420.506 20.42 420.846 20.74C421.186 21.06 421.45 21.45 421.636 21.91C421.83 22.3633 421.926 22.8733 421.926 23.44C421.926 23.9933 421.83 24.5 421.636 24.96C421.45 25.4133 421.186 25.8067 420.846 26.14C420.506 26.4667 420.103 26.7233 419.636 26.91C419.17 27.09 418.66 27.18 418.106 27.18C417.56 27.18 417.053 27.09 416.586 26.91C416.126 26.7233 415.726 26.4667 415.386 26.14C415.053 25.8067 414.79 25.4133 414.596 24.96C414.41 24.5 414.316 23.9933 414.316 23.44ZM415.686 23.44C415.686 23.82 415.743 24.17 415.856 24.49C415.976 24.8033 416.143 25.0767 416.356 25.31C416.576 25.5433 416.833 25.7267 417.126 25.86C417.426 25.9867 417.756 26.05 418.116 26.05C418.476 26.05 418.806 25.9867 419.106 25.86C419.406 25.7267 419.663 25.5433 419.876 25.31C420.096 25.0767 420.263 24.8033 420.376 24.49C420.496 24.17 420.556 23.82 420.556 23.44C420.556 23.0733 420.496 22.7333 420.376 22.42C420.263 22.1067 420.1 21.8333 419.886 21.6C419.673 21.3667 419.416 21.1833 419.116 21.05C418.816 20.9167 418.483 20.85 418.116 20.85C417.75 20.85 417.416 20.9167 417.116 21.05C416.823 21.1833 416.57 21.3667 416.356 21.6C416.143 21.8333 415.976 22.1067 415.856 22.42C415.743 22.7333 415.686 23.0733 415.686 23.44ZM424.343 19.92H426.803C427.136 19.92 427.459 19.9567 427.773 20.03C428.086 20.0967 428.363 20.21 428.603 20.37C428.849 20.53 429.046 20.74 429.193 21C429.339 21.26 429.413 21.5767 429.413 21.95C429.413 22.4633 429.266 22.8833 428.973 23.21C428.686 23.53 428.293 23.7467 427.793 23.86L429.683 27H428.163L426.523 24H425.603V27H424.343V19.92ZM426.633 22.97C426.813 22.97 426.993 22.9567 427.173 22.93C427.353 22.9033 427.513 22.8533 427.653 22.78C427.799 22.7067 427.919 22.6033 428.013 22.47C428.106 22.33 428.153 22.1533 428.153 21.94C428.153 21.7467 428.109 21.59 428.023 21.47C427.936 21.3433 427.826 21.2433 427.693 21.17C427.559 21.0967 427.406 21.0467 427.233 21.02C427.066 20.9933 426.903 20.98 426.743 20.98H425.603V22.97H426.633Z" fill="#AAAAAA"/>
<path d="M475.78 19.92H477.04V27H475.78V19.92ZM481.232 21.02H479.062V19.92H484.662V21.02H482.492V27H481.232V21.02ZM486.686 19.92H491.376V21.02H487.946V22.82H491.196V23.88H487.946V25.88H491.556V27H486.686V19.92ZM493.989 19.92H495.959L497.799 24.95H497.829L499.649 19.92H501.629V27H500.379V21.31H500.359L498.209 27H497.329L495.209 21.31H495.189V27H493.989V19.92ZM508.089 19.92H510.599C511.059 19.92 511.522 19.98 511.989 20.1C512.455 20.22 512.875 20.42 513.249 20.7C513.622 20.9733 513.925 21.3367 514.159 21.79C514.392 22.2367 514.509 22.7933 514.509 23.46C514.509 24.08 514.392 24.6133 514.159 25.06C513.925 25.5067 513.622 25.8733 513.249 26.16C512.875 26.4467 512.455 26.66 511.989 26.8C511.522 26.9333 511.059 27 510.599 27H508.089V19.92ZM510.399 25.9C510.725 25.9 511.052 25.8633 511.379 25.79C511.705 25.71 511.999 25.58 512.259 25.4C512.525 25.2133 512.742 24.9633 512.909 24.65C513.075 24.3367 513.159 23.94 513.159 23.46C513.159 22.9533 513.075 22.54 512.909 22.22C512.742 21.9 512.525 21.65 512.259 21.47C511.999 21.29 511.705 21.1667 511.379 21.1C511.052 21.0333 510.725 21 510.399 21H509.349V25.9H510.399ZM516.925 19.92H521.615V21.02H518.185V22.82H521.435V23.88H518.185V25.88H521.795V27H516.925V19.92ZM525.659 21.02H523.489V19.92H529.089V21.02H526.919V27H525.659V21.02ZM532.737 19.92H533.827L536.877 27H535.437L534.777 25.38H531.707L531.067 27H529.657L532.737 19.92ZM534.337 24.3L533.247 21.42L532.137 24.3H534.337ZM538.777 19.92H540.037V27H538.777V19.92ZM542.8 19.92H544.06V25.88H547.07V27H542.8V19.92ZM552.717 21.4C552.584 21.2267 552.394 21.0833 552.147 20.97C551.907 20.85 551.664 20.79 551.417 20.79C551.27 20.79 551.124 20.81 550.977 20.85C550.83 20.8833 550.697 20.94 550.577 21.02C550.457 21.0933 550.357 21.1933 550.277 21.32C550.204 21.44 550.167 21.5867 550.167 21.76C550.167 21.92 550.2 22.0567 550.267 22.17C550.334 22.2833 550.424 22.38 550.537 22.46C550.657 22.54 550.8 22.61 550.967 22.67C551.134 22.73 551.317 22.79 551.517 22.85C551.744 22.9233 551.977 23.0067 552.217 23.1C552.464 23.1933 552.687 23.3167 552.887 23.47C553.094 23.6233 553.26 23.8167 553.387 24.05C553.52 24.2833 553.587 24.5733 553.587 24.92C553.587 25.3 553.517 25.6333 553.377 25.92C553.237 26.2 553.05 26.4333 552.817 26.62C552.584 26.8067 552.31 26.9467 551.997 27.04C551.684 27.1333 551.354 27.18 551.007 27.18C550.547 27.18 550.097 27.0967 549.657 26.93C549.217 26.7567 548.857 26.5033 548.577 26.17L549.477 25.33C549.65 25.57 549.88 25.76 550.167 25.9C550.46 26.04 550.747 26.11 551.027 26.11C551.174 26.11 551.324 26.0933 551.477 26.06C551.63 26.02 551.767 25.9567 551.887 25.87C552.014 25.7833 552.114 25.6767 552.187 25.55C552.267 25.4167 552.307 25.2533 552.307 25.06C552.307 24.8733 552.264 24.72 552.177 24.6C552.09 24.4733 551.974 24.3667 551.827 24.28C551.68 24.1867 551.507 24.1067 551.307 24.04C551.107 23.9733 550.897 23.9033 550.677 23.83C550.464 23.7633 550.25 23.6833 550.037 23.59C549.824 23.4967 549.63 23.3733 549.457 23.22C549.29 23.0667 549.154 22.88 549.047 22.66C548.94 22.4333 548.887 22.1533 548.887 21.82C548.887 21.46 548.96 21.15 549.107 20.89C549.26 20.63 549.457 20.4167 549.697 20.25C549.944 20.0767 550.22 19.95 550.527 19.87C550.84 19.7833 551.157 19.74 551.477 19.74C551.837 19.74 552.2 19.8033 552.567 19.93C552.94 20.0567 553.264 20.2467 553.537 20.5L552.717 21.4Z" fill="#AAAAAA"/>
<path d="M744.309 19.92H746.769C747.103 19.92 747.426 19.9567 747.739 20.03C748.053 20.0967 748.329 20.21 748.569 20.37C748.816 20.53 749.013 20.74 749.159 21C749.306 21.26 749.379 21.5767 749.379 21.95C749.379 22.4633 749.233 22.8833 748.939 23.21C748.653 23.53 748.259 23.7467 747.759 23.86L749.649 27H748.129L746.489 24H745.569V27H744.309V19.92ZM746.599 22.97C746.779 22.97 746.959 22.9567 747.139 22.93C747.319 22.9033 747.479 22.8533 747.619 22.78C747.766 22.7067 747.886 22.6033 747.979 22.47C748.073 22.33 748.119 22.1533 748.119 21.94C748.119 21.7467 748.076 21.59 747.989 21.47C747.903 21.3433 747.793 21.2433 747.659 21.17C747.526 21.0967 747.373 21.0467 747.199 21.02C747.033 20.9933 746.869 20.98 746.709 20.98H745.569V22.97H746.599ZM751.798 19.92H756.488V21.02H753.058V22.82H756.308V23.88H753.058V25.88H756.668V27H751.798V19.92ZM760.532 21.02H758.362V19.92H763.962V21.02H761.792V27H760.532V21.02ZM767.61 19.92H768.7L771.75 27H770.31L769.65 25.38H766.58L765.94 27H764.53L767.61 19.92ZM769.21 24.3L768.12 21.42L767.01 24.3H769.21ZM773.65 19.92H774.91V27H773.65V19.92ZM777.673 19.92H778.933V25.88H781.943V27H777.673V19.92Z" fill="#AAAAAA"/>
<path d="M810.103 19.92H811.363V22.78H814.673V19.92H815.933V27H814.673V23.86H811.363V27H810.103V19.92ZM818.695 19.92H821.005C821.412 19.92 821.779 19.9567 822.105 20.03C822.432 20.1033 822.712 20.2233 822.945 20.39C823.179 20.5567 823.359 20.77 823.485 21.03C823.612 21.29 823.675 21.6033 823.675 21.97C823.675 22.3633 823.602 22.6933 823.455 22.96C823.309 23.2267 823.109 23.4433 822.855 23.61C822.609 23.77 822.319 23.8867 821.985 23.96C821.652 24.0333 821.299 24.07 820.925 24.07H819.955V27H818.695V19.92ZM820.835 23.01C821.042 23.01 821.239 22.9967 821.425 22.97C821.612 22.9367 821.779 22.8833 821.925 22.81C822.072 22.73 822.189 22.6233 822.275 22.49C822.362 22.3567 822.405 22.1833 822.405 21.97C822.405 21.7633 822.362 21.5967 822.275 21.47C822.189 21.3367 822.072 21.2333 821.925 21.16C821.785 21.0867 821.622 21.04 821.435 21.02C821.255 20.9933 821.069 20.98 820.875 20.98H819.955V23.01H820.835ZM829.699 19.92H832.009C832.415 19.92 832.782 19.9567 833.109 20.03C833.435 20.1033 833.715 20.2233 833.949 20.39C834.182 20.5567 834.362 20.77 834.489 21.03C834.615 21.29 834.679 21.6033 834.679 21.97C834.679 22.3633 834.605 22.6933 834.459 22.96C834.312 23.2267 834.112 23.4433 833.859 23.61C833.612 23.77 833.322 23.8867 832.989 23.96C832.655 24.0333 832.302 24.07 831.929 24.07H830.959V27H829.699V19.92ZM831.839 23.01C832.045 23.01 832.242 22.9967 832.429 22.97C832.615 22.9367 832.782 22.8833 832.929 22.81C833.075 22.73 833.192 22.6233 833.279 22.49C833.365 22.3567 833.409 22.1833 833.409 21.97C833.409 21.7633 833.365 21.5967 833.279 21.47C833.192 21.3367 833.075 21.2333 832.929 21.16C832.789 21.0867 832.625 21.04 832.439 21.02C832.259 20.9933 832.072 20.98 831.879 20.98H830.959V23.01H831.839ZM837.002 19.92H839.462C839.796 19.92 840.119 19.9567 840.432 20.03C840.746 20.0967 841.022 20.21 841.262 20.37C841.509 20.53 841.706 20.74 841.852 21C841.999 21.26 842.072 21.5767 842.072 21.95C842.072 22.4633 841.926 22.8833 841.632 23.21C841.346 23.53 840.952 23.7467 840.452 23.86L842.342 27H840.822L839.182 24H838.262V27H837.002V19.92ZM839.292 22.97C839.472 22.97 839.652 22.9567 839.832 22.93C840.012 22.9033 840.172 22.8533 840.312 22.78C840.459 22.7067 840.579 22.6033 840.672 22.47C840.766 22.33 840.812 22.1533 840.812 21.94C840.812 21.7467 840.769 21.59 840.682 21.47C840.596 21.3433 840.486 21.2433 840.352 21.17C840.219 21.0967 840.066 21.0467 839.892 21.02C839.726 20.9933 839.562 20.98 839.402 20.98H838.262V22.97H839.292ZM844.491 19.92H845.751V27H844.491V19.92ZM853.624 21.58C853.437 21.3267 853.194 21.1433 852.894 21.03C852.594 20.91 852.3 20.85 852.014 20.85C851.647 20.85 851.314 20.9167 851.014 21.05C850.714 21.1833 850.454 21.3667 850.234 21.6C850.02 21.8333 849.854 22.1067 849.734 22.42C849.62 22.7333 849.564 23.0733 849.564 23.44C849.564 23.8267 849.62 24.18 849.734 24.5C849.847 24.82 850.007 25.0967 850.214 25.33C850.427 25.5567 850.68 25.7333 850.974 25.86C851.267 25.9867 851.597 26.05 851.964 26.05C852.344 26.05 852.68 25.9767 852.974 25.83C853.267 25.6767 853.504 25.4767 853.684 25.23L854.694 25.94C854.38 26.3333 853.997 26.64 853.544 26.86C853.09 27.0733 852.56 27.18 851.954 27.18C851.4 27.18 850.89 27.09 850.424 26.91C849.964 26.7233 849.567 26.4667 849.234 26.14C848.9 25.8067 848.64 25.4133 848.454 24.96C848.267 24.5 848.174 23.9933 848.174 23.44C848.174 22.8733 848.27 22.3633 848.464 21.91C848.664 21.45 848.934 21.06 849.274 20.74C849.62 20.42 850.027 20.1733 850.494 20C850.96 19.8267 851.467 19.74 852.014 19.74C852.24 19.74 852.477 19.7633 852.724 19.81C852.97 19.85 853.207 19.9167 853.434 20.01C853.66 20.0967 853.874 20.2067 854.074 20.34C854.274 20.4733 854.444 20.6333 854.584 20.82L853.624 21.58ZM856.676 19.92H861.366V21.02H857.936V22.82H861.186V23.88H857.936V25.88H861.546V27H856.676V19.92Z" fill="#AAAAAA"/>
<path d="M896.691 27H892.421C891.854 27 891.338 26.92 890.871 26.76C890.411 26.5933 890.014 26.3567 889.681 26.05C889.354 25.7367 889.101 25.3567 888.921 24.91C888.741 24.4567 888.651 23.9433 888.651 23.37C888.651 22.83 888.744 22.34 888.931 21.9C889.124 21.4533 889.391 21.07 889.731 20.75C890.071 20.43 890.471 20.1833 890.931 20.01C891.398 19.83 891.901 19.74 892.441 19.74C892.981 19.74 893.481 19.83 893.941 20.01C894.401 20.1833 894.798 20.43 895.131 20.75C895.471 21.07 895.734 21.4533 895.921 21.9C896.108 22.34 896.201 22.83 896.201 23.37C896.201 23.69 896.164 23.9833 896.091 24.25C896.018 24.5167 895.921 24.76 895.801 24.98C895.688 25.1933 895.554 25.3833 895.401 25.55C895.254 25.71 895.101 25.8467 894.941 25.96V25.98H896.691V27ZM892.441 20.87C892.101 20.87 891.781 20.9333 891.481 21.06C891.188 21.1867 890.934 21.36 890.721 21.58C890.508 21.8 890.338 22.0633 890.211 22.37C890.091 22.6767 890.031 23.01 890.031 23.37C890.031 23.75 890.088 24.0967 890.201 24.41C890.321 24.7167 890.484 24.98 890.691 25.2C890.904 25.42 891.158 25.5933 891.451 25.72C891.744 25.84 892.068 25.9 892.421 25.9C892.768 25.9 893.088 25.84 893.381 25.72C893.681 25.5933 893.938 25.42 894.151 25.2C894.364 24.98 894.531 24.7167 894.651 24.41C894.771 24.0967 894.831 23.75 894.831 23.37C894.831 23.01 894.774 22.6767 894.661 22.37C894.548 22.0633 894.384 21.8 894.171 21.58C893.964 21.36 893.714 21.1867 893.421 21.06C893.128 20.9333 892.801 20.87 892.441 20.87ZM900.206 21.02H898.036V19.92H903.636V21.02H901.466V27H900.206V21.02ZM907.253 23.93L904.593 19.92H906.133L907.913 22.9L909.713 19.92H911.173L908.513 23.93V27H907.253V23.93ZM911.902 26.3C911.902 26.0867 911.979 25.9033 912.132 25.75C912.292 25.5967 912.482 25.52 912.702 25.52C912.916 25.52 913.102 25.5933 913.262 25.74C913.422 25.8867 913.502 26.0667 913.502 26.28C913.502 26.4933 913.422 26.6767 913.262 26.83C913.109 26.9833 912.922 27.06 912.702 27.06C912.596 27.06 912.492 27.04 912.392 27C912.299 26.96 912.216 26.9067 912.142 26.84C912.069 26.7733 912.009 26.6933 911.962 26.6C911.922 26.5067 911.902 26.4067 911.902 26.3Z" fill="#AAAAAA"/>
<path d="M960.59 21.02H958.42V19.92H964.02V21.02H961.85V27H960.59V21.02ZM965.401 23.44C965.401 22.8733 965.494 22.3633 965.681 21.91C965.874 21.45 966.137 21.06 966.471 20.74C966.811 20.42 967.211 20.1733 967.671 20C968.137 19.8267 968.644 19.74 969.191 19.74C969.744 19.74 970.254 19.8267 970.721 20C971.187 20.1733 971.591 20.42 971.931 20.74C972.271 21.06 972.534 21.45 972.721 21.91C972.914 22.3633 973.011 22.8733 973.011 23.44C973.011 23.9933 972.914 24.5 972.721 24.96C972.534 25.4133 972.271 25.8067 971.931 26.14C971.591 26.4667 971.187 26.7233 970.721 26.91C970.254 27.09 969.744 27.18 969.191 27.18C968.644 27.18 968.137 27.09 967.671 26.91C967.211 26.7233 966.811 26.4667 966.471 26.14C966.137 25.8067 965.874 25.4133 965.681 24.96C965.494 24.5 965.401 23.9933 965.401 23.44ZM966.771 23.44C966.771 23.82 966.827 24.17 966.941 24.49C967.061 24.8033 967.227 25.0767 967.441 25.31C967.661 25.5433 967.917 25.7267 968.211 25.86C968.511 25.9867 968.841 26.05 969.201 26.05C969.561 26.05 969.891 25.9867 970.191 25.86C970.491 25.7267 970.747 25.5433 970.961 25.31C971.181 25.0767 971.347 24.8033 971.461 24.49C971.581 24.17 971.641 23.82 971.641 23.44C971.641 23.0733 971.581 22.7333 971.461 22.42C971.347 22.1067 971.184 21.8333 970.971 21.6C970.757 21.3667 970.501 21.1833 970.201 21.05C969.901 20.9167 969.567 20.85 969.201 20.85C968.834 20.85 968.501 20.9167 968.201 21.05C967.907 21.1833 967.654 21.3667 967.441 21.6C967.227 21.8333 967.061 22.1067 966.941 22.42C966.827 22.7333 966.771 23.0733 966.771 23.44ZM976.554 21.02H974.384V19.92H979.984V21.02H977.814V27H976.554V21.02ZM983.632 19.92H984.722L987.772 27H986.332L985.672 25.38H982.602L981.962 27H980.552L983.632 19.92ZM985.232 24.3L984.142 21.42L983.032 24.3H985.232ZM989.673 19.92H990.933V25.88H993.943V27H989.673V19.92Z" fill="#AAAAAA"/>
<path d="M1048.01 19.92H1050.77C1051.04 19.92 1051.3 19.9533 1051.56 20.02C1051.82 20.08 1052.05 20.1833 1052.25 20.33C1052.46 20.47 1052.62 20.6533 1052.75 20.88C1052.88 21.1067 1052.94 21.38 1052.94 21.7C1052.94 22.1 1052.83 22.43 1052.6 22.69C1052.37 22.95 1052.08 23.1367 1051.71 23.25V23.27C1052.16 23.33 1052.52 23.5033 1052.81 23.79C1053.1 24.0767 1053.24 24.46 1053.24 24.94C1053.24 25.3267 1053.16 25.6533 1053.01 25.92C1052.86 26.18 1052.65 26.39 1052.4 26.55C1052.15 26.71 1051.87 26.8267 1051.54 26.9C1051.22 26.9667 1050.89 27 1050.56 27H1048.01V19.92ZM1049.27 22.8H1050.39C1050.81 22.8 1051.13 22.7167 1051.35 22.55C1051.57 22.3833 1051.68 22.1467 1051.68 21.84C1051.68 21.52 1051.57 21.2933 1051.34 21.16C1051.11 21.0267 1050.76 20.96 1050.28 20.96H1049.27V22.8ZM1049.27 25.94H1050.4C1050.56 25.94 1050.73 25.93 1050.92 25.91C1051.11 25.8833 1051.28 25.8333 1051.43 25.76C1051.59 25.6867 1051.72 25.58 1051.82 25.44C1051.93 25.3 1051.98 25.1133 1051.98 24.88C1051.98 24.5067 1051.85 24.2467 1051.6 24.1C1051.35 23.9533 1050.96 23.88 1050.45 23.88H1049.27V25.94ZM1061.32 24.4C1061.32 24.8267 1061.25 25.2133 1061.1 25.56C1060.96 25.9 1060.76 26.19 1060.5 26.43C1060.25 26.67 1059.95 26.8567 1059.6 26.99C1059.26 27.1167 1058.88 27.18 1058.47 27.18C1058.07 27.18 1057.69 27.1167 1057.34 26.99C1057 26.8567 1056.69 26.67 1056.43 26.43C1056.18 26.19 1055.98 25.9 1055.83 25.56C1055.69 25.2133 1055.62 24.8267 1055.62 24.4V19.92H1056.88V24.35C1056.88 24.5567 1056.91 24.7633 1056.96 24.97C1057.02 25.17 1057.1 25.35 1057.22 25.51C1057.35 25.67 1057.51 25.8 1057.71 25.9C1057.92 26 1058.17 26.05 1058.47 26.05C1058.77 26.05 1059.02 26 1059.22 25.9C1059.43 25.8 1059.59 25.67 1059.71 25.51C1059.84 25.35 1059.93 25.17 1059.98 24.97C1060.04 24.7633 1060.06 24.5567 1060.06 24.35V19.92H1061.32V24.4ZM1064.02 19.92H1066.53C1066.99 19.92 1067.46 19.98 1067.92 20.1C1068.39 20.22 1068.81 20.42 1069.18 20.7C1069.56 20.9733 1069.86 21.3367 1070.09 21.79C1070.33 22.2367 1070.44 22.7933 1070.44 23.46C1070.44 24.08 1070.33 24.6133 1070.09 25.06C1069.86 25.5067 1069.56 25.8733 1069.18 26.16C1068.81 26.4467 1068.39 26.66 1067.92 26.8C1067.46 26.9333 1066.99 27 1066.53 27H1064.02V19.92ZM1066.33 25.9C1066.66 25.9 1066.99 25.8633 1067.31 25.79C1067.64 25.71 1067.93 25.58 1068.19 25.4C1068.46 25.2133 1068.68 24.9633 1068.84 24.65C1069.01 24.3367 1069.09 23.94 1069.09 23.46C1069.09 22.9533 1069.01 22.54 1068.84 22.22C1068.68 21.9 1068.46 21.65 1068.19 21.47C1067.93 21.29 1067.64 21.1667 1067.31 21.1C1066.99 21.0333 1066.66 21 1066.33 21H1065.28V25.9H1066.33ZM1079.06 26.63C1078.7 26.8033 1078.3 26.9367 1077.87 27.03C1077.44 27.13 1076.95 27.18 1076.39 27.18C1075.82 27.18 1075.29 27.09 1074.82 26.91C1074.35 26.7233 1073.94 26.4667 1073.6 26.14C1073.26 25.8067 1072.99 25.4133 1072.8 24.96C1072.61 24.5 1072.52 23.9933 1072.52 23.44C1072.52 22.8733 1072.62 22.3633 1072.81 21.91C1073.01 21.45 1073.28 21.06 1073.62 20.74C1073.97 20.42 1074.37 20.1733 1074.84 20C1075.31 19.8267 1075.81 19.74 1076.36 19.74C1076.93 19.74 1077.44 19.8233 1077.91 19.99C1078.38 20.15 1078.76 20.3633 1079.05 20.63L1078.18 21.57C1078 21.37 1077.75 21.2 1077.42 21.06C1077.1 20.92 1076.75 20.85 1076.37 20.85C1076 20.85 1075.66 20.9167 1075.35 21.05C1075.05 21.1833 1074.79 21.3667 1074.58 21.6C1074.37 21.8333 1074.2 22.1067 1074.08 22.42C1073.97 22.7333 1073.91 23.0733 1073.91 23.44C1073.91 23.82 1073.97 24.17 1074.08 24.49C1074.2 24.8033 1074.37 25.0767 1074.58 25.31C1074.8 25.5433 1075.06 25.7267 1075.37 25.86C1075.68 25.9867 1076.04 26.05 1076.43 26.05C1076.97 26.05 1077.44 25.9667 1077.84 25.8V24H1076.35V22.96H1079.06V26.63ZM1081.79 19.92H1086.48V21.02H1083.05V22.82H1086.3V23.88H1083.05V25.88H1086.66V27H1081.79V19.92ZM1090.53 21.02H1088.36V19.92H1093.96V21.02H1091.79V27H1090.53V21.02Z" fill="#AAAAAA"/>
<path d="M1214.69 21.4C1214.55 21.2267 1214.36 21.0833 1214.12 20.97C1213.88 20.85 1213.63 20.79 1213.39 20.79C1213.24 20.79 1213.09 20.81 1212.95 20.85C1212.8 20.8833 1212.67 20.94 1212.55 21.02C1212.43 21.0933 1212.33 21.1933 1212.25 21.32C1212.17 21.44 1212.14 21.5867 1212.14 21.76C1212.14 21.92 1212.17 22.0567 1212.24 22.17C1212.3 22.2833 1212.39 22.38 1212.51 22.46C1212.63 22.54 1212.77 22.61 1212.94 22.67C1213.1 22.73 1213.29 22.79 1213.49 22.85C1213.71 22.9233 1213.95 23.0067 1214.19 23.1C1214.43 23.1933 1214.66 23.3167 1214.86 23.47C1215.06 23.6233 1215.23 23.8167 1215.36 24.05C1215.49 24.2833 1215.56 24.5733 1215.56 24.92C1215.56 25.3 1215.49 25.6333 1215.35 25.92C1215.21 26.2 1215.02 26.4333 1214.79 26.62C1214.55 26.8067 1214.28 26.9467 1213.97 27.04C1213.65 27.1333 1213.32 27.18 1212.98 27.18C1212.52 27.18 1212.07 27.0967 1211.63 26.93C1211.19 26.7567 1210.83 26.5033 1210.55 26.17L1211.45 25.33C1211.62 25.57 1211.85 25.76 1212.14 25.9C1212.43 26.04 1212.72 26.11 1213 26.11C1213.14 26.11 1213.29 26.0933 1213.45 26.06C1213.6 26.02 1213.74 25.9567 1213.86 25.87C1213.98 25.7833 1214.08 25.6767 1214.16 25.55C1214.24 25.4167 1214.28 25.2533 1214.28 25.06C1214.28 24.8733 1214.23 24.72 1214.15 24.6C1214.06 24.4733 1213.94 24.3667 1213.8 24.28C1213.65 24.1867 1213.48 24.1067 1213.28 24.04C1213.08 23.9733 1212.87 23.9033 1212.65 23.83C1212.43 23.7633 1212.22 23.6833 1212.01 23.59C1211.79 23.4967 1211.6 23.3733 1211.43 23.22C1211.26 23.0667 1211.12 22.88 1211.02 22.66C1210.91 22.4333 1210.86 22.1533 1210.86 21.82C1210.86 21.46 1210.93 21.15 1211.08 20.89C1211.23 20.63 1211.43 20.4167 1211.67 20.25C1211.91 20.0767 1212.19 19.95 1212.5 19.87C1212.81 19.7833 1213.13 19.74 1213.45 19.74C1213.81 19.74 1214.17 19.8033 1214.54 19.93C1214.91 20.0567 1215.23 20.2467 1215.51 20.5L1214.69 21.4ZM1219.29 21.02H1217.12V19.92H1222.72V21.02H1220.55V27H1219.29V21.02ZM1226.37 19.92H1227.46L1230.51 27H1229.07L1228.41 25.38H1225.34L1224.7 27H1223.29L1226.37 19.92ZM1227.97 24.3L1226.88 21.42L1225.77 24.3H1227.97ZM1233.25 21.02H1231.08V19.92H1236.68V21.02H1234.51V27H1233.25V21.02ZM1244.34 24.4C1244.34 24.8267 1244.27 25.2133 1244.12 25.56C1243.97 25.9 1243.77 26.19 1243.52 26.43C1243.27 26.67 1242.97 26.8567 1242.62 26.99C1242.27 27.1167 1241.9 27.18 1241.49 27.18C1241.08 27.18 1240.71 27.1167 1240.36 26.99C1240.01 26.8567 1239.71 26.67 1239.45 26.43C1239.2 26.19 1239 25.9 1238.85 25.56C1238.71 25.2133 1238.64 24.8267 1238.64 24.4V19.92H1239.9V24.35C1239.9 24.5567 1239.93 24.7633 1239.98 24.97C1240.03 25.17 1240.12 25.35 1240.24 25.51C1240.37 25.67 1240.53 25.8 1240.73 25.9C1240.94 26 1241.19 26.05 1241.49 26.05C1241.79 26.05 1242.04 26 1242.24 25.9C1242.45 25.8 1242.61 25.67 1242.73 25.51C1242.86 25.35 1242.95 25.17 1243 24.97C1243.05 24.7633 1243.08 24.5567 1243.08 24.35V19.92H1244.34V24.4ZM1250.65 21.4C1250.51 21.2267 1250.32 21.0833 1250.08 20.97C1249.84 20.85 1249.59 20.79 1249.35 20.79C1249.2 20.79 1249.05 20.81 1248.91 20.85C1248.76 20.8833 1248.63 20.94 1248.51 21.02C1248.39 21.0933 1248.29 21.1933 1248.21 21.32C1248.13 21.44 1248.1 21.5867 1248.1 21.76C1248.1 21.92 1248.13 22.0567 1248.2 22.17C1248.26 22.2833 1248.35 22.38 1248.47 22.46C1248.59 22.54 1248.73 22.61 1248.9 22.67C1249.06 22.73 1249.25 22.79 1249.45 22.85C1249.67 22.9233 1249.91 23.0067 1250.15 23.1C1250.39 23.1933 1250.62 23.3167 1250.82 23.47C1251.02 23.6233 1251.19 23.8167 1251.32 24.05C1251.45 24.2833 1251.52 24.5733 1251.52 24.92C1251.52 25.3 1251.45 25.6333 1251.31 25.92C1251.17 26.2 1250.98 26.4333 1250.75 26.62C1250.51 26.8067 1250.24 26.9467 1249.93 27.04C1249.61 27.1333 1249.28 27.18 1248.94 27.18C1248.48 27.18 1248.03 27.0967 1247.59 26.93C1247.15 26.7567 1246.79 26.5033 1246.51 26.17L1247.41 25.33C1247.58 25.57 1247.81 25.76 1248.1 25.9C1248.39 26.04 1248.68 26.11 1248.96 26.11C1249.1 26.11 1249.25 26.0933 1249.41 26.06C1249.56 26.02 1249.7 25.9567 1249.82 25.87C1249.94 25.7833 1250.04 25.6767 1250.12 25.55C1250.2 25.4167 1250.24 25.2533 1250.24 25.06C1250.24 24.8733 1250.19 24.72 1250.11 24.6C1250.02 24.4733 1249.9 24.3667 1249.76 24.28C1249.61 24.1867 1249.44 24.1067 1249.24 24.04C1249.04 23.9733 1248.83 23.9033 1248.61 23.83C1248.39 23.7633 1248.18 23.6833 1247.97 23.59C1247.75 23.4967 1247.56 23.3733 1247.39 23.22C1247.22 23.0667 1247.08 22.88 1246.98 22.66C1246.87 22.4333 1246.82 22.1533 1246.82 21.82C1246.82 21.46 1246.89 21.15 1247.04 20.89C1247.19 20.63 1247.39 20.4167 1247.63 20.25C1247.87 20.0767 1248.15 19.95 1248.46 19.87C1248.77 19.7833 1249.09 19.74 1249.41 19.74C1249.77 19.74 1250.13 19.8033 1250.5 19.93C1250.87 20.0567 1251.19 20.2467 1251.47 20.5L1250.65 21.4Z" fill="#AAAAAA"/>
<path d="M0.5 50.5H31.5V109.5H0.5V50.5Z" fill="#DCDFD8" stroke="#A8A18F"/>
<path fill-rule="evenodd" clip-rule="evenodd" d="M32 50H45V110H32V50Z" fill="#A8A18F"/>
<path d="M45.5 50.5H140.5V109.5H45.5V50.5Z" fill="#DCDFD8" stroke="#A8A18F"/>
<path d="M141.5 50.5H212.5V109.5H141.5V50.5Z" fill="#DCDFD8" stroke="#A8A18F"/>
<path fill-rule="evenodd" clip-rule="evenodd" d="M213 50H230V110H213V50Z" fill="#A8A18F"/>
<path d="M230.5 50.5H374.5V109.5H230.5V50.5Z" fill="#DCDFD8" stroke="#A8A18F"/>
<path fill-rule="evenodd" clip-rule="evenodd" d="M375 50H381V110H375V50Z" fill="#A8A18F"/>
<path d="M381.5 50.5H460.5V109.5H381.5V50.5Z" fill="#DCDFD8" stroke="#A8A18F"/>
<path fill-rule="evenodd" clip-rule="evenodd" d="M461 50H475V110H461V50Z" fill="#A8A18F"/>
<path d="M475.5 50.5H701.5V109.5H475.5V50.5Z" fill="#DCDFD8" stroke="#A8A18F"/>
<path d="M702.5 50.5H781.5V109.5H702.5V50.5Z" fill="#DCDFD8" stroke="#A8A18F"/>
<path d="M782.5 50.5H861.5V109.5H782.5V50.5Z" fill="#DCDFD8" stroke="#A8A18F"/>
<path d="M862.5 50.5H912.5V109.5H862.5V50.5Z" fill="#DCDFD8" stroke="#A8A18F"/>
<path d="M913.5 50.5H992.5V109.5H913.5V50.5Z" fill="#DCDFD8" stroke="#A8A18F"/>
<path d="M993.5 50.5H1093.5V109.5H993.5V50.5Z" fill="#DCDFD8" stroke="#A8A18F"/>
<path d="M1094.5 50.5H1255.5V109.5H1094.5V50.5Z" fill="#DCDFD8" stroke="#A8A18F"/>
<path fill-rule="evenodd" clip-rule="evenodd" d="M1256 50H1268V110H1256V50Z" fill="#A8A18F"/>
</svg>
