<svg width="1268" height="101" viewBox="0 0 1268 101" fill="none" xmlns="http://www.w3.org/2000/svg">
<mask id="path-1-inside-1_309_16255" fill="white">
<path d="M0 0H1268V41H0V0Z"/>
</mask>
<path d="M0 0H1268V41H0V0Z" fill="white"/>
<path d="M1268 40H0V42H1268V40Z" fill="#D9D9D9" mask="url(#path-1-inside-1_309_16255)"/>
<path d="M18.21 17.02H16.04V15.92H21.64V17.02H19.47V23H18.21V17.02ZM25.2564 19.93L22.5964 15.92H24.1364L25.9164 18.9L27.7164 15.92H29.1764L26.5164 19.93V23H25.2564V19.93ZM30.9671 15.92H33.2771C33.6838 15.92 34.0504 15.9567 34.3771 16.03C34.7038 16.1033 34.9838 16.2233 35.2171 16.39C35.4504 16.5567 35.6304 16.77 35.7571 17.03C35.8838 17.29 35.9471 17.6033 35.9471 17.97C35.9471 18.3633 35.8738 18.6933 35.7271 18.96C35.5804 19.2267 35.3804 19.4433 35.1271 19.61C34.8804 19.77 34.5904 19.8867 34.2571 19.96C33.9238 20.0333 33.5704 20.07 33.1971 20.07H32.2271V23H30.9671V15.92ZM33.1071 19.01C33.3138 19.01 33.5104 18.9967 33.6971 18.97C33.8838 18.9367 34.0504 18.8833 34.1971 18.81C34.3438 18.73 34.4604 18.6233 34.5471 18.49C34.6338 18.3567 34.6771 18.1833 34.6771 17.97C34.6771 17.7633 34.6338 17.5967 34.5471 17.47C34.4604 17.3367 34.3438 17.2333 34.1971 17.16C34.0571 17.0867 33.8938 17.04 33.7071 17.02C33.5271 16.9933 33.3404 16.98 33.1471 16.98H32.2271V19.01H33.1071ZM38.2706 15.92H42.9606V17.02H39.5306V18.82H42.7806V19.88H39.5306V21.88H43.1406V23H38.2706V15.92Z" fill="#AAAAAA"/>
<path d="M96.78 15.92H98.04V23H96.78V15.92ZM100.802 15.92H102.772L104.612 20.95H104.642L106.462 15.92H108.442V23H107.192V17.31H107.172L105.022 23H104.142L102.022 17.31H102.002V23H100.802V15.92ZM113.421 15.92H114.511L117.561 23H116.121L115.461 21.38H112.391L111.751 23H110.341L113.421 15.92ZM115.021 20.3L113.931 17.42L112.821 20.3H115.021ZM125.486 22.63C125.126 22.8033 124.73 22.9367 124.296 23.03C123.87 23.13 123.376 23.18 122.816 23.18C122.243 23.18 121.72 23.09 121.246 22.91C120.773 22.7233 120.366 22.4667 120.026 22.14C119.686 21.8067 119.42 21.4133 119.226 20.96C119.04 20.5 118.946 19.9933 118.946 19.44C118.946 18.8733 119.043 18.3633 119.236 17.91C119.436 17.45 119.706 17.06 120.046 16.74C120.393 16.42 120.8 16.1733 121.266 16C121.733 15.8267 122.24 15.74 122.786 15.74C123.353 15.74 123.87 15.8233 124.336 15.99C124.81 16.15 125.19 16.3633 125.476 16.63L124.606 17.57C124.426 17.37 124.173 17.2 123.846 17.06C123.526 16.92 123.176 16.85 122.796 16.85C122.423 16.85 122.083 16.9167 121.776 17.05C121.476 17.1833 121.22 17.3667 121.006 17.6C120.793 17.8333 120.626 18.1067 120.506 18.42C120.393 18.7333 120.336 19.0733 120.336 19.44C120.336 19.82 120.393 20.17 120.506 20.49C120.626 20.8033 120.793 21.0767 121.006 21.31C121.226 21.5433 121.49 21.7267 121.796 21.86C122.11 21.9867 122.463 22.05 122.856 22.05C123.396 22.05 123.866 21.9667 124.266 21.8V20H122.776V18.96H125.486V22.63ZM128.221 15.92H132.911V17.02H129.481V18.82H132.731V19.88H129.481V21.88H133.091V23H128.221V15.92Z" fill="#AAAAAA"/>
<path d="M188.78 15.92H190.04V23H188.78V15.92ZM194.232 17.02H192.062V15.92H197.662V17.02H195.492V23H194.232V17.02ZM199.686 15.92H204.376V17.02H200.946V18.82H204.196V19.88H200.946V21.88H204.556V23H199.686V15.92ZM206.989 15.92H208.959L210.799 20.95H210.829L212.649 15.92H214.629V23H213.379V17.31H213.359L211.209 23H210.329L208.209 17.31H208.189V23H206.989V15.92ZM221.089 15.92H222.759L226.049 21.22H226.069V15.92H227.329V23H225.729L222.369 17.53H222.349V23H221.089V15.92ZM232.311 15.92H233.401L236.451 23H235.011L234.351 21.38H231.281L230.641 23H229.231L232.311 15.92ZM233.911 20.3L232.821 17.42L231.711 20.3H233.911ZM238.352 15.92H240.322L242.162 20.95H242.192L244.012 15.92H245.992V23H244.742V17.31H244.722L242.572 23H241.692L239.572 17.31H239.552V23H238.352V15.92ZM248.751 15.92H253.441V17.02H250.011V18.82H253.261V19.88H250.011V21.88H253.621V23H248.751V15.92Z" fill="#AAAAAA"/>
<path d="M338.9 15.92H340.31L342.26 21.37H342.3L344.27 15.92H345.63L342.79 23H341.7L338.9 15.92ZM347.513 15.92H352.203V17.02H348.773V18.82H352.023V19.88H348.773V21.88H352.383V23H347.513V15.92ZM354.817 15.92H356.487L359.777 21.22H359.797V15.92H361.057V23H359.457L356.097 17.53H356.077V23H354.817V15.92ZM363.819 15.92H366.329C366.789 15.92 367.253 15.98 367.719 16.1C368.186 16.22 368.606 16.42 368.979 16.7C369.353 16.9733 369.656 17.3367 369.889 17.79C370.123 18.2367 370.239 18.7933 370.239 19.46C370.239 20.08 370.123 20.6133 369.889 21.06C369.656 21.5067 369.353 21.8733 368.979 22.16C368.606 22.4467 368.186 22.66 367.719 22.8C367.253 22.9333 366.789 23 366.329 23H363.819V15.92ZM366.129 21.9C366.456 21.9 366.783 21.8633 367.109 21.79C367.436 21.71 367.729 21.58 367.989 21.4C368.256 21.2133 368.473 20.9633 368.639 20.65C368.806 20.3367 368.889 19.94 368.889 19.46C368.889 18.9533 368.806 18.54 368.639 18.22C368.473 17.9 368.256 17.65 367.989 17.47C367.729 17.29 367.436 17.1667 367.109 17.1C366.783 17.0333 366.456 17 366.129 17H365.079V21.9H366.129ZM372.316 19.44C372.316 18.8733 372.41 18.3633 372.596 17.91C372.79 17.45 373.053 17.06 373.386 16.74C373.726 16.42 374.126 16.1733 374.586 16C375.053 15.8267 375.56 15.74 376.106 15.74C376.66 15.74 377.17 15.8267 377.636 16C378.103 16.1733 378.506 16.42 378.846 16.74C379.186 17.06 379.45 17.45 379.636 17.91C379.83 18.3633 379.926 18.8733 379.926 19.44C379.926 19.9933 379.83 20.5 379.636 20.96C379.45 21.4133 379.186 21.8067 378.846 22.14C378.506 22.4667 378.103 22.7233 377.636 22.91C377.17 23.09 376.66 23.18 376.106 23.18C375.56 23.18 375.053 23.09 374.586 22.91C374.126 22.7233 373.726 22.4667 373.386 22.14C373.053 21.8067 372.79 21.4133 372.596 20.96C372.41 20.5 372.316 19.9933 372.316 19.44ZM373.686 19.44C373.686 19.82 373.743 20.17 373.856 20.49C373.976 20.8033 374.143 21.0767 374.356 21.31C374.576 21.5433 374.833 21.7267 375.126 21.86C375.426 21.9867 375.756 22.05 376.116 22.05C376.476 22.05 376.806 21.9867 377.106 21.86C377.406 21.7267 377.663 21.5433 377.876 21.31C378.096 21.0767 378.263 20.8033 378.376 20.49C378.496 20.17 378.556 19.82 378.556 19.44C378.556 19.0733 378.496 18.7333 378.376 18.42C378.263 18.1067 378.1 17.8333 377.886 17.6C377.673 17.3667 377.416 17.1833 377.116 17.05C376.816 16.9167 376.483 16.85 376.116 16.85C375.75 16.85 375.416 16.9167 375.116 17.05C374.823 17.1833 374.57 17.3667 374.356 17.6C374.143 17.8333 373.976 18.1067 373.856 18.42C373.743 18.7333 373.686 19.0733 373.686 19.44ZM382.343 15.92H384.803C385.136 15.92 385.459 15.9567 385.773 16.03C386.086 16.0967 386.363 16.21 386.603 16.37C386.849 16.53 387.046 16.74 387.193 17C387.339 17.26 387.413 17.5767 387.413 17.95C387.413 18.4633 387.266 18.8833 386.973 19.21C386.686 19.53 386.293 19.7467 385.793 19.86L387.683 23H386.163L384.523 20H383.603V23H382.343V15.92ZM384.633 18.97C384.813 18.97 384.993 18.9567 385.173 18.93C385.353 18.9033 385.513 18.8533 385.653 18.78C385.799 18.7067 385.919 18.6033 386.013 18.47C386.106 18.33 386.153 18.1533 386.153 17.94C386.153 17.7467 386.109 17.59 386.023 17.47C385.936 17.3433 385.826 17.2433 385.693 17.17C385.559 17.0967 385.406 17.0467 385.233 17.02C385.066 16.9933 384.903 16.98 384.743 16.98H383.603V18.97H384.633Z" fill="#AAAAAA"/>
<path d="M446.78 15.92H448.04V23H446.78V15.92ZM452.232 17.02H450.062V15.92H455.662V17.02H453.492V23H452.232V17.02ZM457.686 15.92H462.376V17.02H458.946V18.82H462.196V19.88H458.946V21.88H462.556V23H457.686V15.92ZM464.989 15.92H466.959L468.799 20.95H468.829L470.649 15.92H472.629V23H471.379V17.31H471.359L469.209 23H468.329L466.209 17.31H466.189V23H464.989V15.92ZM479.089 15.92H481.599C482.059 15.92 482.522 15.98 482.989 16.1C483.455 16.22 483.875 16.42 484.249 16.7C484.622 16.9733 484.925 17.3367 485.159 17.79C485.392 18.2367 485.509 18.7933 485.509 19.46C485.509 20.08 485.392 20.6133 485.159 21.06C484.925 21.5067 484.622 21.8733 484.249 22.16C483.875 22.4467 483.455 22.66 482.989 22.8C482.522 22.9333 482.059 23 481.599 23H479.089V15.92ZM481.399 21.9C481.725 21.9 482.052 21.8633 482.379 21.79C482.705 21.71 482.999 21.58 483.259 21.4C483.525 21.2133 483.742 20.9633 483.909 20.65C484.075 20.3367 484.159 19.94 484.159 19.46C484.159 18.9533 484.075 18.54 483.909 18.22C483.742 17.9 483.525 17.65 483.259 17.47C482.999 17.29 482.705 17.1667 482.379 17.1C482.052 17.0333 481.725 17 481.399 17H480.349V21.9H481.399ZM487.925 15.92H492.615V17.02H489.185V18.82H492.435V19.88H489.185V21.88H492.795V23H487.925V15.92ZM496.659 17.02H494.489V15.92H500.089V17.02H497.919V23H496.659V17.02ZM503.737 15.92H504.827L507.877 23H506.437L505.777 21.38H502.707L502.067 23H500.657L503.737 15.92ZM505.337 20.3L504.247 17.42L503.137 20.3H505.337ZM509.777 15.92H511.037V23H509.777V15.92ZM513.8 15.92H515.06V21.88H518.07V23H513.8V15.92ZM523.717 17.4C523.584 17.2267 523.394 17.0833 523.147 16.97C522.907 16.85 522.664 16.79 522.417 16.79C522.27 16.79 522.124 16.81 521.977 16.85C521.83 16.8833 521.697 16.94 521.577 17.02C521.457 17.0933 521.357 17.1933 521.277 17.32C521.204 17.44 521.167 17.5867 521.167 17.76C521.167 17.92 521.2 18.0567 521.267 18.17C521.334 18.2833 521.424 18.38 521.537 18.46C521.657 18.54 521.8 18.61 521.967 18.67C522.134 18.73 522.317 18.79 522.517 18.85C522.744 18.9233 522.977 19.0067 523.217 19.1C523.464 19.1933 523.687 19.3167 523.887 19.47C524.094 19.6233 524.26 19.8167 524.387 20.05C524.52 20.2833 524.587 20.5733 524.587 20.92C524.587 21.3 524.517 21.6333 524.377 21.92C524.237 22.2 524.05 22.4333 523.817 22.62C523.584 22.8067 523.31 22.9467 522.997 23.04C522.684 23.1333 522.354 23.18 522.007 23.18C521.547 23.18 521.097 23.0967 520.657 22.93C520.217 22.7567 519.857 22.5033 519.577 22.17L520.477 21.33C520.65 21.57 520.88 21.76 521.167 21.9C521.46 22.04 521.747 22.11 522.027 22.11C522.174 22.11 522.324 22.0933 522.477 22.06C522.63 22.02 522.767 21.9567 522.887 21.87C523.014 21.7833 523.114 21.6767 523.187 21.55C523.267 21.4167 523.307 21.2533 523.307 21.06C523.307 20.8733 523.264 20.72 523.177 20.6C523.09 20.4733 522.974 20.3667 522.827 20.28C522.68 20.1867 522.507 20.1067 522.307 20.04C522.107 19.9733 521.897 19.9033 521.677 19.83C521.464 19.7633 521.25 19.6833 521.037 19.59C520.824 19.4967 520.63 19.3733 520.457 19.22C520.29 19.0667 520.154 18.88 520.047 18.66C519.94 18.4333 519.887 18.1533 519.887 17.82C519.887 17.46 519.96 17.15 520.107 16.89C520.26 16.63 520.457 16.4167 520.697 16.25C520.944 16.0767 521.22 15.95 521.527 15.87C521.84 15.7833 522.157 15.74 522.477 15.74C522.837 15.74 523.2 15.8033 523.567 15.93C523.94 16.0567 524.264 16.2467 524.537 16.5L523.717 17.4Z" fill="#AAAAAA"/>
<path d="M744.309 15.92H746.769C747.103 15.92 747.426 15.9567 747.739 16.03C748.053 16.0967 748.329 16.21 748.569 16.37C748.816 16.53 749.013 16.74 749.159 17C749.306 17.26 749.379 17.5767 749.379 17.95C749.379 18.4633 749.233 18.8833 748.939 19.21C748.653 19.53 748.259 19.7467 747.759 19.86L749.649 23H748.129L746.489 20H745.569V23H744.309V15.92ZM746.599 18.97C746.779 18.97 746.959 18.9567 747.139 18.93C747.319 18.9033 747.479 18.8533 747.619 18.78C747.766 18.7067 747.886 18.6033 747.979 18.47C748.073 18.33 748.119 18.1533 748.119 17.94C748.119 17.7467 748.076 17.59 747.989 17.47C747.903 17.3433 747.793 17.2433 747.659 17.17C747.526 17.0967 747.373 17.0467 747.199 17.02C747.033 16.9933 746.869 16.98 746.709 16.98H745.569V18.97H746.599ZM751.798 15.92H756.488V17.02H753.058V18.82H756.308V19.88H753.058V21.88H756.668V23H751.798V15.92ZM760.532 17.02H758.362V15.92H763.962V17.02H761.792V23H760.532V17.02ZM767.61 15.92H768.7L771.75 23H770.31L769.65 21.38H766.58L765.94 23H764.53L767.61 15.92ZM769.21 20.3L768.12 17.42L767.01 20.3H769.21ZM773.65 15.92H774.91V23H773.65V15.92ZM777.673 15.92H778.933V21.88H781.943V23H777.673V15.92Z" fill="#AAAAAA"/>
<path d="M810.103 15.92H811.363V18.78H814.673V15.92H815.933V23H814.673V19.86H811.363V23H810.103V15.92ZM818.695 15.92H821.005C821.412 15.92 821.779 15.9567 822.105 16.03C822.432 16.1033 822.712 16.2233 822.945 16.39C823.179 16.5567 823.359 16.77 823.485 17.03C823.612 17.29 823.675 17.6033 823.675 17.97C823.675 18.3633 823.602 18.6933 823.455 18.96C823.309 19.2267 823.109 19.4433 822.855 19.61C822.609 19.77 822.319 19.8867 821.985 19.96C821.652 20.0333 821.299 20.07 820.925 20.07H819.955V23H818.695V15.92ZM820.835 19.01C821.042 19.01 821.239 18.9967 821.425 18.97C821.612 18.9367 821.779 18.8833 821.925 18.81C822.072 18.73 822.189 18.6233 822.275 18.49C822.362 18.3567 822.405 18.1833 822.405 17.97C822.405 17.7633 822.362 17.5967 822.275 17.47C822.189 17.3367 822.072 17.2333 821.925 17.16C821.785 17.0867 821.622 17.04 821.435 17.02C821.255 16.9933 821.069 16.98 820.875 16.98H819.955V19.01H820.835ZM829.699 15.92H832.009C832.415 15.92 832.782 15.9567 833.109 16.03C833.435 16.1033 833.715 16.2233 833.949 16.39C834.182 16.5567 834.362 16.77 834.489 17.03C834.615 17.29 834.679 17.6033 834.679 17.97C834.679 18.3633 834.605 18.6933 834.459 18.96C834.312 19.2267 834.112 19.4433 833.859 19.61C833.612 19.77 833.322 19.8867 832.989 19.96C832.655 20.0333 832.302 20.07 831.929 20.07H830.959V23H829.699V15.92ZM831.839 19.01C832.045 19.01 832.242 18.9967 832.429 18.97C832.615 18.9367 832.782 18.8833 832.929 18.81C833.075 18.73 833.192 18.6233 833.279 18.49C833.365 18.3567 833.409 18.1833 833.409 17.97C833.409 17.7633 833.365 17.5967 833.279 17.47C833.192 17.3367 833.075 17.2333 832.929 17.16C832.789 17.0867 832.625 17.04 832.439 17.02C832.259 16.9933 832.072 16.98 831.879 16.98H830.959V19.01H831.839ZM837.002 15.92H839.462C839.796 15.92 840.119 15.9567 840.432 16.03C840.746 16.0967 841.022 16.21 841.262 16.37C841.509 16.53 841.706 16.74 841.852 17C841.999 17.26 842.072 17.5767 842.072 17.95C842.072 18.4633 841.926 18.8833 841.632 19.21C841.346 19.53 840.952 19.7467 840.452 19.86L842.342 23H840.822L839.182 20H838.262V23H837.002V15.92ZM839.292 18.97C839.472 18.97 839.652 18.9567 839.832 18.93C840.012 18.9033 840.172 18.8533 840.312 18.78C840.459 18.7067 840.579 18.6033 840.672 18.47C840.766 18.33 840.812 18.1533 840.812 17.94C840.812 17.7467 840.769 17.59 840.682 17.47C840.596 17.3433 840.486 17.2433 840.352 17.17C840.219 17.0967 840.066 17.0467 839.892 17.02C839.726 16.9933 839.562 16.98 839.402 16.98H838.262V18.97H839.292ZM844.491 15.92H845.751V23H844.491V15.92ZM853.624 17.58C853.437 17.3267 853.194 17.1433 852.894 17.03C852.594 16.91 852.3 16.85 852.014 16.85C851.647 16.85 851.314 16.9167 851.014 17.05C850.714 17.1833 850.454 17.3667 850.234 17.6C850.02 17.8333 849.854 18.1067 849.734 18.42C849.62 18.7333 849.564 19.0733 849.564 19.44C849.564 19.8267 849.62 20.18 849.734 20.5C849.847 20.82 850.007 21.0967 850.214 21.33C850.427 21.5567 850.68 21.7333 850.974 21.86C851.267 21.9867 851.597 22.05 851.964 22.05C852.344 22.05 852.68 21.9767 852.974 21.83C853.267 21.6767 853.504 21.4767 853.684 21.23L854.694 21.94C854.38 22.3333 853.997 22.64 853.544 22.86C853.09 23.0733 852.56 23.18 851.954 23.18C851.4 23.18 850.89 23.09 850.424 22.91C849.964 22.7233 849.567 22.4667 849.234 22.14C848.9 21.8067 848.64 21.4133 848.454 20.96C848.267 20.5 848.174 19.9933 848.174 19.44C848.174 18.8733 848.27 18.3633 848.464 17.91C848.664 17.45 848.934 17.06 849.274 16.74C849.62 16.42 850.027 16.1733 850.494 16C850.96 15.8267 851.467 15.74 852.014 15.74C852.24 15.74 852.477 15.7633 852.724 15.81C852.97 15.85 853.207 15.9167 853.434 16.01C853.66 16.0967 853.874 16.2067 854.074 16.34C854.274 16.4733 854.444 16.6333 854.584 16.82L853.624 17.58ZM856.676 15.92H861.366V17.02H857.936V18.82H861.186V19.88H857.936V21.88H861.546V23H856.676V15.92Z" fill="#AAAAAA"/>
<path d="M896.691 23H892.421C891.854 23 891.338 22.92 890.871 22.76C890.411 22.5933 890.014 22.3567 889.681 22.05C889.354 21.7367 889.101 21.3567 888.921 20.91C888.741 20.4567 888.651 19.9433 888.651 19.37C888.651 18.83 888.744 18.34 888.931 17.9C889.124 17.4533 889.391 17.07 889.731 16.75C890.071 16.43 890.471 16.1833 890.931 16.01C891.398 15.83 891.901 15.74 892.441 15.74C892.981 15.74 893.481 15.83 893.941 16.01C894.401 16.1833 894.798 16.43 895.131 16.75C895.471 17.07 895.734 17.4533 895.921 17.9C896.108 18.34 896.201 18.83 896.201 19.37C896.201 19.69 896.164 19.9833 896.091 20.25C896.018 20.5167 895.921 20.76 895.801 20.98C895.688 21.1933 895.554 21.3833 895.401 21.55C895.254 21.71 895.101 21.8467 894.941 21.96V21.98H896.691V23ZM892.441 16.87C892.101 16.87 891.781 16.9333 891.481 17.06C891.188 17.1867 890.934 17.36 890.721 17.58C890.508 17.8 890.338 18.0633 890.211 18.37C890.091 18.6767 890.031 19.01 890.031 19.37C890.031 19.75 890.088 20.0967 890.201 20.41C890.321 20.7167 890.484 20.98 890.691 21.2C890.904 21.42 891.158 21.5933 891.451 21.72C891.744 21.84 892.068 21.9 892.421 21.9C892.768 21.9 893.088 21.84 893.381 21.72C893.681 21.5933 893.938 21.42 894.151 21.2C894.364 20.98 894.531 20.7167 894.651 20.41C894.771 20.0967 894.831 19.75 894.831 19.37C894.831 19.01 894.774 18.6767 894.661 18.37C894.548 18.0633 894.384 17.8 894.171 17.58C893.964 17.36 893.714 17.1867 893.421 17.06C893.128 16.9333 892.801 16.87 892.441 16.87ZM900.206 17.02H898.036V15.92H903.636V17.02H901.466V23H900.206V17.02ZM907.253 19.93L904.593 15.92H906.133L907.913 18.9L909.713 15.92H911.173L908.513 19.93V23H907.253V19.93ZM911.902 22.3C911.902 22.0867 911.979 21.9033 912.132 21.75C912.292 21.5967 912.482 21.52 912.702 21.52C912.916 21.52 913.102 21.5933 913.262 21.74C913.422 21.8867 913.502 22.0667 913.502 22.28C913.502 22.4933 913.422 22.6767 913.262 22.83C913.109 22.9833 912.922 23.06 912.702 23.06C912.596 23.06 912.492 23.04 912.392 23C912.299 22.96 912.216 22.9067 912.142 22.84C912.069 22.7733 912.009 22.6933 911.962 22.6C911.922 22.5067 911.902 22.4067 911.902 22.3Z" fill="#AAAAAA"/>
<path d="M960.59 17.02H958.42V15.92H964.02V17.02H961.85V23H960.59V17.02ZM965.401 19.44C965.401 18.8733 965.494 18.3633 965.681 17.91C965.874 17.45 966.137 17.06 966.471 16.74C966.811 16.42 967.211 16.1733 967.671 16C968.137 15.8267 968.644 15.74 969.191 15.74C969.744 15.74 970.254 15.8267 970.721 16C971.187 16.1733 971.591 16.42 971.931 16.74C972.271 17.06 972.534 17.45 972.721 17.91C972.914 18.3633 973.011 18.8733 973.011 19.44C973.011 19.9933 972.914 20.5 972.721 20.96C972.534 21.4133 972.271 21.8067 971.931 22.14C971.591 22.4667 971.187 22.7233 970.721 22.91C970.254 23.09 969.744 23.18 969.191 23.18C968.644 23.18 968.137 23.09 967.671 22.91C967.211 22.7233 966.811 22.4667 966.471 22.14C966.137 21.8067 965.874 21.4133 965.681 20.96C965.494 20.5 965.401 19.9933 965.401 19.44ZM966.771 19.44C966.771 19.82 966.827 20.17 966.941 20.49C967.061 20.8033 967.227 21.0767 967.441 21.31C967.661 21.5433 967.917 21.7267 968.211 21.86C968.511 21.9867 968.841 22.05 969.201 22.05C969.561 22.05 969.891 21.9867 970.191 21.86C970.491 21.7267 970.747 21.5433 970.961 21.31C971.181 21.0767 971.347 20.8033 971.461 20.49C971.581 20.17 971.641 19.82 971.641 19.44C971.641 19.0733 971.581 18.7333 971.461 18.42C971.347 18.1067 971.184 17.8333 970.971 17.6C970.757 17.3667 970.501 17.1833 970.201 17.05C969.901 16.9167 969.567 16.85 969.201 16.85C968.834 16.85 968.501 16.9167 968.201 17.05C967.907 17.1833 967.654 17.3667 967.441 17.6C967.227 17.8333 967.061 18.1067 966.941 18.42C966.827 18.7333 966.771 19.0733 966.771 19.44ZM976.554 17.02H974.384V15.92H979.984V17.02H977.814V23H976.554V17.02ZM983.632 15.92H984.722L987.772 23H986.332L985.672 21.38H982.602L981.962 23H980.552L983.632 15.92ZM985.232 20.3L984.142 17.42L983.032 20.3H985.232ZM989.673 15.92H990.933V21.88H993.943V23H989.673V15.92Z" fill="#AAAAAA"/>
<path d="M1048.01 15.92H1050.77C1051.04 15.92 1051.3 15.9533 1051.56 16.02C1051.82 16.08 1052.05 16.1833 1052.25 16.33C1052.46 16.47 1052.62 16.6533 1052.75 16.88C1052.88 17.1067 1052.94 17.38 1052.94 17.7C1052.94 18.1 1052.83 18.43 1052.6 18.69C1052.37 18.95 1052.08 19.1367 1051.71 19.25V19.27C1052.16 19.33 1052.52 19.5033 1052.81 19.79C1053.1 20.0767 1053.24 20.46 1053.24 20.94C1053.24 21.3267 1053.16 21.6533 1053.01 21.92C1052.86 22.18 1052.65 22.39 1052.4 22.55C1052.15 22.71 1051.87 22.8267 1051.54 22.9C1051.22 22.9667 1050.89 23 1050.56 23H1048.01V15.92ZM1049.27 18.8H1050.39C1050.81 18.8 1051.13 18.7167 1051.35 18.55C1051.57 18.3833 1051.68 18.1467 1051.68 17.84C1051.68 17.52 1051.57 17.2933 1051.34 17.16C1051.11 17.0267 1050.76 16.96 1050.28 16.96H1049.27V18.8ZM1049.27 21.94H1050.4C1050.56 21.94 1050.73 21.93 1050.92 21.91C1051.11 21.8833 1051.28 21.8333 1051.43 21.76C1051.59 21.6867 1051.72 21.58 1051.82 21.44C1051.93 21.3 1051.98 21.1133 1051.98 20.88C1051.98 20.5067 1051.85 20.2467 1051.6 20.1C1051.35 19.9533 1050.96 19.88 1050.45 19.88H1049.27V21.94ZM1061.32 20.4C1061.32 20.8267 1061.25 21.2133 1061.1 21.56C1060.96 21.9 1060.76 22.19 1060.5 22.43C1060.25 22.67 1059.95 22.8567 1059.6 22.99C1059.26 23.1167 1058.88 23.18 1058.47 23.18C1058.07 23.18 1057.69 23.1167 1057.34 22.99C1057 22.8567 1056.69 22.67 1056.43 22.43C1056.18 22.19 1055.98 21.9 1055.83 21.56C1055.69 21.2133 1055.62 20.8267 1055.62 20.4V15.92H1056.88V20.35C1056.88 20.5567 1056.91 20.7633 1056.96 20.97C1057.02 21.17 1057.1 21.35 1057.22 21.51C1057.35 21.67 1057.51 21.8 1057.71 21.9C1057.92 22 1058.17 22.05 1058.47 22.05C1058.77 22.05 1059.02 22 1059.22 21.9C1059.43 21.8 1059.59 21.67 1059.71 21.51C1059.84 21.35 1059.93 21.17 1059.98 20.97C1060.04 20.7633 1060.06 20.5567 1060.06 20.35V15.92H1061.32V20.4ZM1064.02 15.92H1066.53C1066.99 15.92 1067.46 15.98 1067.92 16.1C1068.39 16.22 1068.81 16.42 1069.18 16.7C1069.56 16.9733 1069.86 17.3367 1070.09 17.79C1070.33 18.2367 1070.44 18.7933 1070.44 19.46C1070.44 20.08 1070.33 20.6133 1070.09 21.06C1069.86 21.5067 1069.56 21.8733 1069.18 22.16C1068.81 22.4467 1068.39 22.66 1067.92 22.8C1067.46 22.9333 1066.99 23 1066.53 23H1064.02V15.92ZM1066.33 21.9C1066.66 21.9 1066.99 21.8633 1067.31 21.79C1067.64 21.71 1067.93 21.58 1068.19 21.4C1068.46 21.2133 1068.68 20.9633 1068.84 20.65C1069.01 20.3367 1069.09 19.94 1069.09 19.46C1069.09 18.9533 1069.01 18.54 1068.84 18.22C1068.68 17.9 1068.46 17.65 1068.19 17.47C1067.93 17.29 1067.64 17.1667 1067.31 17.1C1066.99 17.0333 1066.66 17 1066.33 17H1065.28V21.9H1066.33ZM1079.06 22.63C1078.7 22.8033 1078.3 22.9367 1077.87 23.03C1077.44 23.13 1076.95 23.18 1076.39 23.18C1075.82 23.18 1075.29 23.09 1074.82 22.91C1074.35 22.7233 1073.94 22.4667 1073.6 22.14C1073.26 21.8067 1072.99 21.4133 1072.8 20.96C1072.61 20.5 1072.52 19.9933 1072.52 19.44C1072.52 18.8733 1072.62 18.3633 1072.81 17.91C1073.01 17.45 1073.28 17.06 1073.62 16.74C1073.97 16.42 1074.37 16.1733 1074.84 16C1075.31 15.8267 1075.81 15.74 1076.36 15.74C1076.93 15.74 1077.44 15.8233 1077.91 15.99C1078.38 16.15 1078.76 16.3633 1079.05 16.63L1078.18 17.57C1078 17.37 1077.75 17.2 1077.42 17.06C1077.1 16.92 1076.75 16.85 1076.37 16.85C1076 16.85 1075.66 16.9167 1075.35 17.05C1075.05 17.1833 1074.79 17.3667 1074.58 17.6C1074.37 17.8333 1074.2 18.1067 1074.08 18.42C1073.97 18.7333 1073.91 19.0733 1073.91 19.44C1073.91 19.82 1073.97 20.17 1074.08 20.49C1074.2 20.8033 1074.37 21.0767 1074.58 21.31C1074.8 21.5433 1075.06 21.7267 1075.37 21.86C1075.68 21.9867 1076.04 22.05 1076.43 22.05C1076.97 22.05 1077.44 21.9667 1077.84 21.8V20H1076.35V18.96H1079.06V22.63ZM1081.79 15.92H1086.48V17.02H1083.05V18.82H1086.3V19.88H1083.05V21.88H1086.66V23H1081.79V15.92ZM1090.53 17.02H1088.36V15.92H1093.96V17.02H1091.79V23H1090.53V17.02Z" fill="#AAAAAA"/>
<path d="M1214.69 17.4C1214.55 17.2267 1214.36 17.0833 1214.12 16.97C1213.88 16.85 1213.63 16.79 1213.39 16.79C1213.24 16.79 1213.09 16.81 1212.95 16.85C1212.8 16.8833 1212.67 16.94 1212.55 17.02C1212.43 17.0933 1212.33 17.1933 1212.25 17.32C1212.17 17.44 1212.14 17.5867 1212.14 17.76C1212.14 17.92 1212.17 18.0567 1212.24 18.17C1212.3 18.2833 1212.39 18.38 1212.51 18.46C1212.63 18.54 1212.77 18.61 1212.94 18.67C1213.1 18.73 1213.29 18.79 1213.49 18.85C1213.71 18.9233 1213.95 19.0067 1214.19 19.1C1214.43 19.1933 1214.66 19.3167 1214.86 19.47C1215.06 19.6233 1215.23 19.8167 1215.36 20.05C1215.49 20.2833 1215.56 20.5733 1215.56 20.92C1215.56 21.3 1215.49 21.6333 1215.35 21.92C1215.21 22.2 1215.02 22.4333 1214.79 22.62C1214.55 22.8067 1214.28 22.9467 1213.97 23.04C1213.65 23.1333 1213.32 23.18 1212.98 23.18C1212.52 23.18 1212.07 23.0967 1211.63 22.93C1211.19 22.7567 1210.83 22.5033 1210.55 22.17L1211.45 21.33C1211.62 21.57 1211.85 21.76 1212.14 21.9C1212.43 22.04 1212.72 22.11 1213 22.11C1213.14 22.11 1213.29 22.0933 1213.45 22.06C1213.6 22.02 1213.74 21.9567 1213.86 21.87C1213.98 21.7833 1214.08 21.6767 1214.16 21.55C1214.24 21.4167 1214.28 21.2533 1214.28 21.06C1214.28 20.8733 1214.23 20.72 1214.15 20.6C1214.06 20.4733 1213.94 20.3667 1213.8 20.28C1213.65 20.1867 1213.48 20.1067 1213.28 20.04C1213.08 19.9733 1212.87 19.9033 1212.65 19.83C1212.43 19.7633 1212.22 19.6833 1212.01 19.59C1211.79 19.4967 1211.6 19.3733 1211.43 19.22C1211.26 19.0667 1211.12 18.88 1211.02 18.66C1210.91 18.4333 1210.86 18.1533 1210.86 17.82C1210.86 17.46 1210.93 17.15 1211.08 16.89C1211.23 16.63 1211.43 16.4167 1211.67 16.25C1211.91 16.0767 1212.19 15.95 1212.5 15.87C1212.81 15.7833 1213.13 15.74 1213.45 15.74C1213.81 15.74 1214.17 15.8033 1214.54 15.93C1214.91 16.0567 1215.23 16.2467 1215.51 16.5L1214.69 17.4ZM1219.29 17.02H1217.12V15.92H1222.72V17.02H1220.55V23H1219.29V17.02ZM1226.37 15.92H1227.46L1230.51 23H1229.07L1228.41 21.38H1225.34L1224.7 23H1223.29L1226.37 15.92ZM1227.97 20.3L1226.88 17.42L1225.77 20.3H1227.97ZM1233.25 17.02H1231.08V15.92H1236.68V17.02H1234.51V23H1233.25V17.02ZM1244.34 20.4C1244.34 20.8267 1244.27 21.2133 1244.12 21.56C1243.97 21.9 1243.77 22.19 1243.52 22.43C1243.27 22.67 1242.97 22.8567 1242.62 22.99C1242.27 23.1167 1241.9 23.18 1241.49 23.18C1241.08 23.18 1240.71 23.1167 1240.36 22.99C1240.01 22.8567 1239.71 22.67 1239.45 22.43C1239.2 22.19 1239 21.9 1238.85 21.56C1238.71 21.2133 1238.64 20.8267 1238.64 20.4V15.92H1239.9V20.35C1239.9 20.5567 1239.93 20.7633 1239.98 20.97C1240.03 21.17 1240.12 21.35 1240.24 21.51C1240.37 21.67 1240.53 21.8 1240.73 21.9C1240.94 22 1241.19 22.05 1241.49 22.05C1241.79 22.05 1242.04 22 1242.24 21.9C1242.45 21.8 1242.61 21.67 1242.73 21.51C1242.86 21.35 1242.95 21.17 1243 20.97C1243.05 20.7633 1243.08 20.5567 1243.08 20.35V15.92H1244.34V20.4ZM1250.65 17.4C1250.51 17.2267 1250.32 17.0833 1250.08 16.97C1249.84 16.85 1249.59 16.79 1249.35 16.79C1249.2 16.79 1249.05 16.81 1248.91 16.85C1248.76 16.8833 1248.63 16.94 1248.51 17.02C1248.39 17.0933 1248.29 17.1933 1248.21 17.32C1248.13 17.44 1248.1 17.5867 1248.1 17.76C1248.1 17.92 1248.13 18.0567 1248.2 18.17C1248.26 18.2833 1248.35 18.38 1248.47 18.46C1248.59 18.54 1248.73 18.61 1248.9 18.67C1249.06 18.73 1249.25 18.79 1249.45 18.85C1249.67 18.9233 1249.91 19.0067 1250.15 19.1C1250.39 19.1933 1250.62 19.3167 1250.82 19.47C1251.02 19.6233 1251.19 19.8167 1251.32 20.05C1251.45 20.2833 1251.52 20.5733 1251.52 20.92C1251.52 21.3 1251.45 21.6333 1251.31 21.92C1251.17 22.2 1250.98 22.4333 1250.75 22.62C1250.51 22.8067 1250.24 22.9467 1249.93 23.04C1249.61 23.1333 1249.28 23.18 1248.94 23.18C1248.48 23.18 1248.03 23.0967 1247.59 22.93C1247.15 22.7567 1246.79 22.5033 1246.51 22.17L1247.41 21.33C1247.58 21.57 1247.81 21.76 1248.1 21.9C1248.39 22.04 1248.68 22.11 1248.96 22.11C1249.1 22.11 1249.25 22.0933 1249.41 22.06C1249.56 22.02 1249.7 21.9567 1249.82 21.87C1249.94 21.7833 1250.04 21.6767 1250.12 21.55C1250.2 21.4167 1250.24 21.2533 1250.24 21.06C1250.24 20.8733 1250.19 20.72 1250.11 20.6C1250.02 20.4733 1249.9 20.3667 1249.76 20.28C1249.61 20.1867 1249.44 20.1067 1249.24 20.04C1249.04 19.9733 1248.83 19.9033 1248.61 19.83C1248.39 19.7633 1248.18 19.6833 1247.97 19.59C1247.75 19.4967 1247.56 19.3733 1247.39 19.22C1247.22 19.0667 1247.08 18.88 1246.98 18.66C1246.87 18.4333 1246.82 18.1533 1246.82 17.82C1246.82 17.46 1246.89 17.15 1247.04 16.89C1247.19 16.63 1247.39 16.4167 1247.63 16.25C1247.87 16.0767 1248.15 15.95 1248.46 15.87C1248.77 15.7833 1249.09 15.74 1249.41 15.74C1249.77 15.74 1250.13 15.8033 1250.5 15.93C1250.87 16.0567 1251.19 16.2467 1251.47 16.5L1250.65 17.4Z" fill="#AAAAAA"/>
<path fill-rule="evenodd" clip-rule="evenodd" d="M0 41H16V101H0V41Z" fill="#A8A18F"/>
<path d="M16.5 41.5H95.5V100.5H16.5V41.5Z" fill="#DCDFD8" stroke="#A8A18F"/>
<path d="M96.5 41.5H167.5V100.5H96.5V41.5Z" fill="#DCDFD8" stroke="#A8A18F"/>
<path fill-rule="evenodd" clip-rule="evenodd" d="M168 41H188V101H168V41Z" fill="#A8A18F"/>
<path d="M188.5 41.5H332.5V100.5H188.5V41.5Z" fill="#DCDFD8" stroke="#A8A18F"/>
<path fill-rule="evenodd" clip-rule="evenodd" d="M333 41H339V101H333V41Z" fill="#A8A18F"/>
<path d="M339.5 41.5H438.5V100.5H339.5V41.5Z" fill="#DCDFD8" stroke="#A8A18F"/>
<path fill-rule="evenodd" clip-rule="evenodd" d="M439 41H446V101H439V41Z" fill="#A8A18F"/>
<path d="M446.5 41.5H701.5V100.5H446.5V41.5Z" fill="#DCDFD8" stroke="#A8A18F"/>
<path d="M702.5 41.5H781.5V100.5H702.5V41.5Z" fill="#DCDFD8" stroke="#A8A18F"/>
<path d="M782.5 41.5H861.5V100.5H782.5V41.5Z" fill="#DCDFD8" stroke="#A8A18F"/>
<path d="M862.5 41.5H912.5V100.5H862.5V41.5Z" fill="#DCDFD8" stroke="#A8A18F"/>
<path d="M913.5 41.5H992.5V100.5H913.5V41.5Z" fill="#DCDFD8" stroke="#A8A18F"/>
<path d="M993.5 41.5H1093.5V100.5H993.5V41.5Z" fill="#DCDFD8" stroke="#A8A18F"/>
<path d="M1094.5 41.5H1255.5V100.5H1094.5V41.5Z" fill="#DCDFD8" stroke="#A8A18F"/>
<path fill-rule="evenodd" clip-rule="evenodd" d="M1256 41H1268V101H1256V41Z" fill="#A8A18F"/>
</svg>
