<svg width="1269" height="110" viewBox="0 0 1269 110" fill="none" xmlns="http://www.w3.org/2000/svg">
<mask id="path-1-inside-1_309_16274" fill="white">
<path d="M0 0H1268V50H0V0Z"/>
</mask>
<path d="M0 0H1268V50H0V0Z" fill="white"/>
<path d="M1268 49H0V51H1268V49Z" fill="#D9D9D9" mask="url(#path-1-inside-1_309_16274)"/>
<path d="M346.78 19.92H348.04V27H346.78V19.92ZM352.232 21.02H350.062V19.92H355.662V21.02H353.492V27H352.232V21.02ZM357.686 19.92H362.376V21.02H358.946V22.82H362.196V23.88H358.946V25.88H362.556V27H357.686V19.92ZM364.989 19.92H366.959L368.799 24.95H368.829L370.649 19.92H372.629V27H371.379V21.31H371.359L369.209 27H368.329L366.209 21.31H366.189V27H364.989V19.92ZM379.089 19.92H381.599C382.059 19.92 382.522 19.98 382.989 20.1C383.455 20.22 383.875 20.42 384.249 20.7C384.622 20.9733 384.925 21.3367 385.159 21.79C385.392 22.2367 385.509 22.7933 385.509 23.46C385.509 24.08 385.392 24.6133 385.159 25.06C384.925 25.5067 384.622 25.8733 384.249 26.16C383.875 26.4467 383.455 26.66 382.989 26.8C382.522 26.9333 382.059 27 381.599 27H379.089V19.92ZM381.399 25.9C381.725 25.9 382.052 25.8633 382.379 25.79C382.705 25.71 382.999 25.58 383.259 25.4C383.525 25.2133 383.742 24.9633 383.909 24.65C384.075 24.3367 384.159 23.94 384.159 23.46C384.159 22.9533 384.075 22.54 383.909 22.22C383.742 21.9 383.525 21.65 383.259 21.47C382.999 21.29 382.705 21.1667 382.379 21.1C382.052 21.0333 381.725 21 381.399 21H380.349V25.9H381.399ZM387.925 19.92H392.615V21.02H389.185V22.82H392.435V23.88H389.185V25.88H392.795V27H387.925V19.92ZM396.659 21.02H394.489V19.92H400.089V21.02H397.919V27H396.659V21.02ZM403.737 19.92H404.827L407.877 27H406.437L405.777 25.38H402.707L402.067 27H400.657L403.737 19.92ZM405.337 24.3L404.247 21.42L403.137 24.3H405.337ZM409.777 19.92H411.037V27H409.777V19.92ZM413.8 19.92H415.06V25.88H418.07V27H413.8V19.92ZM423.717 21.4C423.584 21.2267 423.394 21.0833 423.147 20.97C422.907 20.85 422.664 20.79 422.417 20.79C422.27 20.79 422.124 20.81 421.977 20.85C421.83 20.8833 421.697 20.94 421.577 21.02C421.457 21.0933 421.357 21.1933 421.277 21.32C421.204 21.44 421.167 21.5867 421.167 21.76C421.167 21.92 421.2 22.0567 421.267 22.17C421.334 22.2833 421.424 22.38 421.537 22.46C421.657 22.54 421.8 22.61 421.967 22.67C422.134 22.73 422.317 22.79 422.517 22.85C422.744 22.9233 422.977 23.0067 423.217 23.1C423.464 23.1933 423.687 23.3167 423.887 23.47C424.094 23.6233 424.26 23.8167 424.387 24.05C424.52 24.2833 424.587 24.5733 424.587 24.92C424.587 25.3 424.517 25.6333 424.377 25.92C424.237 26.2 424.05 26.4333 423.817 26.62C423.584 26.8067 423.31 26.9467 422.997 27.04C422.684 27.1333 422.354 27.18 422.007 27.18C421.547 27.18 421.097 27.0967 420.657 26.93C420.217 26.7567 419.857 26.5033 419.577 26.17L420.477 25.33C420.65 25.57 420.88 25.76 421.167 25.9C421.46 26.04 421.747 26.11 422.027 26.11C422.174 26.11 422.324 26.0933 422.477 26.06C422.63 26.02 422.767 25.9567 422.887 25.87C423.014 25.7833 423.114 25.6767 423.187 25.55C423.267 25.4167 423.307 25.2533 423.307 25.06C423.307 24.8733 423.264 24.72 423.177 24.6C423.09 24.4733 422.974 24.3667 422.827 24.28C422.68 24.1867 422.507 24.1067 422.307 24.04C422.107 23.9733 421.897 23.9033 421.677 23.83C421.464 23.7633 421.25 23.6833 421.037 23.59C420.824 23.4967 420.63 23.3733 420.457 23.22C420.29 23.0667 420.154 22.88 420.047 22.66C419.94 22.4333 419.887 22.1533 419.887 21.82C419.887 21.46 419.96 21.15 420.107 20.89C420.26 20.63 420.457 20.4167 420.697 20.25C420.944 20.0767 421.22 19.95 421.527 19.87C421.84 19.7833 422.157 19.74 422.477 19.74C422.837 19.74 423.2 19.8033 423.567 19.93C423.94 20.0567 424.264 20.2467 424.537 20.5L423.717 21.4Z" fill="#AAAAAA"/>
<rect x="16.5" y="16" width="15" height="15" fill="white"/>
<rect x="16.5" y="16" width="15" height="15" stroke="#757575"/>
<path d="M48.21 21.02H46.04V19.92H51.64V21.02H49.47V27H48.21V21.02ZM55.2564 23.93L52.5964 19.92H54.1364L55.9164 22.9L57.7164 19.92H59.1764L56.5164 23.93V27H55.2564V23.93ZM60.9671 19.92H63.2771C63.6838 19.92 64.0504 19.9567 64.3771 20.03C64.7038 20.1033 64.9838 20.2233 65.2171 20.39C65.4504 20.5567 65.6304 20.77 65.7571 21.03C65.8838 21.29 65.9471 21.6033 65.9471 21.97C65.9471 22.3633 65.8738 22.6933 65.7271 22.96C65.5804 23.2267 65.3804 23.4433 65.1271 23.61C64.8804 23.77 64.5904 23.8867 64.2571 23.96C63.9238 24.0333 63.5704 24.07 63.1971 24.07H62.2271V27H60.9671V19.92ZM63.1071 23.01C63.3138 23.01 63.5104 22.9967 63.6971 22.97C63.8838 22.9367 64.0504 22.8833 64.1971 22.81C64.3438 22.73 64.4604 22.6233 64.5471 22.49C64.6338 22.3567 64.6771 22.1833 64.6771 21.97C64.6771 21.7633 64.6338 21.5967 64.5471 21.47C64.4604 21.3367 64.3438 21.2333 64.1971 21.16C64.0571 21.0867 63.8938 21.04 63.7071 21.02C63.5271 20.9933 63.3404 20.98 63.1471 20.98H62.2271V23.01H63.1071ZM68.2706 19.92H72.9606V21.02H69.5306V22.82H72.7806V23.88H69.5306V25.88H73.1406V27H68.2706V19.92Z" fill="#AAAAAA"/>
<path d="M128.008 19.92H129.268V27H128.008V19.92ZM132.03 19.92H134L135.84 24.95H135.87L137.69 19.92H139.67V27H138.42V21.31H138.4L136.25 27H135.37L133.25 21.31H133.23V27H132.03V19.92ZM144.649 19.92H145.739L148.789 27H147.349L146.689 25.38H143.619L142.979 27H141.569L144.649 19.92ZM146.249 24.3L145.159 21.42L144.049 24.3H146.249ZM156.714 26.63C156.354 26.8033 155.958 26.9367 155.524 27.03C155.098 27.13 154.604 27.18 154.044 27.18C153.471 27.18 152.948 27.09 152.474 26.91C152.001 26.7233 151.594 26.4667 151.254 26.14C150.914 25.8067 150.648 25.4133 150.454 24.96C150.268 24.5 150.174 23.9933 150.174 23.44C150.174 22.8733 150.271 22.3633 150.464 21.91C150.664 21.45 150.934 21.06 151.274 20.74C151.621 20.42 152.028 20.1733 152.494 20C152.961 19.8267 153.468 19.74 154.014 19.74C154.581 19.74 155.098 19.8233 155.564 19.99C156.038 20.15 156.418 20.3633 156.704 20.63L155.834 21.57C155.654 21.37 155.401 21.2 155.074 21.06C154.754 20.92 154.404 20.85 154.024 20.85C153.651 20.85 153.311 20.9167 153.004 21.05C152.704 21.1833 152.448 21.3667 152.234 21.6C152.021 21.8333 151.854 22.1067 151.734 22.42C151.621 22.7333 151.564 23.0733 151.564 23.44C151.564 23.82 151.621 24.17 151.734 24.49C151.854 24.8033 152.021 25.0767 152.234 25.31C152.454 25.5433 152.718 25.7267 153.024 25.86C153.338 25.9867 153.691 26.05 154.084 26.05C154.624 26.05 155.094 25.9667 155.494 25.8V24H154.004V22.96H156.714V26.63ZM159.449 19.92H164.139V21.02H160.709V22.82H163.959V23.88H160.709V25.88H164.319V27H159.449V19.92Z" fill="#AAAAAA"/>
<path d="M206.78 19.92H208.04V27H206.78V19.92ZM212.232 21.02H210.062V19.92H215.662V21.02H213.492V27H212.232V21.02ZM217.686 19.92H222.376V21.02H218.946V22.82H222.196V23.88H218.946V25.88H222.556V27H217.686V19.92ZM224.989 19.92H226.959L228.799 24.95H228.829L230.649 19.92H232.629V27H231.379V21.31H231.359L229.209 27H228.329L226.209 21.31H226.189V27H224.989V19.92ZM239.089 19.92H240.759L244.049 25.22H244.069V19.92H245.329V27H243.729L240.369 21.53H240.349V27H239.089V19.92ZM250.311 19.92H251.401L254.451 27H253.011L252.351 25.38H249.281L248.641 27H247.231L250.311 19.92ZM251.911 24.3L250.821 21.42L249.711 24.3H251.911ZM256.352 19.92H258.322L260.162 24.95H260.192L262.012 19.92H263.992V27H262.742V21.31H262.722L260.572 27H259.692L257.572 21.31H257.552V27H256.352V19.92ZM266.751 19.92H271.441V21.02H268.011V22.82H271.261V23.88H268.011V25.88H271.621V27H266.751V19.92Z" fill="#AAAAAA"/>
<path d="M592.9 19.92H594.31L596.26 25.37H596.3L598.27 19.92H599.63L596.79 27H595.7L592.9 19.92ZM601.513 19.92H606.203V21.02H602.773V22.82H606.023V23.88H602.773V25.88H606.383V27H601.513V19.92ZM608.817 19.92H610.487L613.777 25.22H613.797V19.92H615.057V27H613.457L610.097 21.53H610.077V27H608.817V19.92ZM617.819 19.92H620.329C620.789 19.92 621.253 19.98 621.719 20.1C622.186 20.22 622.606 20.42 622.979 20.7C623.353 20.9733 623.656 21.3367 623.889 21.79C624.123 22.2367 624.239 22.7933 624.239 23.46C624.239 24.08 624.123 24.6133 623.889 25.06C623.656 25.5067 623.353 25.8733 622.979 26.16C622.606 26.4467 622.186 26.66 621.719 26.8C621.253 26.9333 620.789 27 620.329 27H617.819V19.92ZM620.129 25.9C620.456 25.9 620.783 25.8633 621.109 25.79C621.436 25.71 621.729 25.58 621.989 25.4C622.256 25.2133 622.473 24.9633 622.639 24.65C622.806 24.3367 622.889 23.94 622.889 23.46C622.889 22.9533 622.806 22.54 622.639 22.22C622.473 21.9 622.256 21.65 621.989 21.47C621.729 21.29 621.436 21.1667 621.109 21.1C620.783 21.0333 620.456 21 620.129 21H619.079V25.9H620.129ZM626.316 23.44C626.316 22.8733 626.41 22.3633 626.596 21.91C626.79 21.45 627.053 21.06 627.386 20.74C627.726 20.42 628.126 20.1733 628.586 20C629.053 19.8267 629.56 19.74 630.106 19.74C630.66 19.74 631.17 19.8267 631.636 20C632.103 20.1733 632.506 20.42 632.846 20.74C633.186 21.06 633.45 21.45 633.636 21.91C633.83 22.3633 633.926 22.8733 633.926 23.44C633.926 23.9933 633.83 24.5 633.636 24.96C633.45 25.4133 633.186 25.8067 632.846 26.14C632.506 26.4667 632.103 26.7233 631.636 26.91C631.17 27.09 630.66 27.18 630.106 27.18C629.56 27.18 629.053 27.09 628.586 26.91C628.126 26.7233 627.726 26.4667 627.386 26.14C627.053 25.8067 626.79 25.4133 626.596 24.96C626.41 24.5 626.316 23.9933 626.316 23.44ZM627.686 23.44C627.686 23.82 627.743 24.17 627.856 24.49C627.976 24.8033 628.143 25.0767 628.356 25.31C628.576 25.5433 628.833 25.7267 629.126 25.86C629.426 25.9867 629.756 26.05 630.116 26.05C630.476 26.05 630.806 25.9867 631.106 25.86C631.406 25.7267 631.663 25.5433 631.876 25.31C632.096 25.0767 632.263 24.8033 632.376 24.49C632.496 24.17 632.556 23.82 632.556 23.44C632.556 23.0733 632.496 22.7333 632.376 22.42C632.263 22.1067 632.1 21.8333 631.886 21.6C631.673 21.3667 631.416 21.1833 631.116 21.05C630.816 20.9167 630.483 20.85 630.116 20.85C629.75 20.85 629.416 20.9167 629.116 21.05C628.823 21.1833 628.57 21.3667 628.356 21.6C628.143 21.8333 627.976 22.1067 627.856 22.42C627.743 22.7333 627.686 23.0733 627.686 23.44ZM636.343 19.92H638.803C639.136 19.92 639.459 19.9567 639.773 20.03C640.086 20.0967 640.363 20.21 640.603 20.37C640.849 20.53 641.046 20.74 641.193 21C641.339 21.26 641.413 21.5767 641.413 21.95C641.413 22.4633 641.266 22.8833 640.973 23.21C640.686 23.53 640.293 23.7467 639.793 23.86L641.683 27H640.163L638.523 24H637.603V27H636.343V19.92ZM638.633 22.97C638.813 22.97 638.993 22.9567 639.173 22.93C639.353 22.9033 639.513 22.8533 639.653 22.78C639.799 22.7067 639.919 22.6033 640.013 22.47C640.106 22.33 640.153 22.1533 640.153 21.94C640.153 21.7467 640.109 21.59 640.023 21.47C639.936 21.3433 639.826 21.2433 639.693 21.17C639.559 21.0967 639.406 21.0467 639.233 21.02C639.066 20.9933 638.903 20.98 638.743 20.98H637.603V22.97H638.633Z" fill="#AAAAAA"/>
<path d="M727.309 19.92H729.769C730.103 19.92 730.426 19.9567 730.739 20.03C731.053 20.0967 731.329 20.21 731.569 20.37C731.816 20.53 732.013 20.74 732.159 21C732.306 21.26 732.379 21.5767 732.379 21.95C732.379 22.4633 732.233 22.8833 731.939 23.21C731.653 23.53 731.259 23.7467 730.759 23.86L732.649 27H731.129L729.489 24H728.569V27H727.309V19.92ZM729.599 22.97C729.779 22.97 729.959 22.9567 730.139 22.93C730.319 22.9033 730.479 22.8533 730.619 22.78C730.766 22.7067 730.886 22.6033 730.979 22.47C731.073 22.33 731.119 22.1533 731.119 21.94C731.119 21.7467 731.076 21.59 730.989 21.47C730.903 21.3433 730.793 21.2433 730.659 21.17C730.526 21.0967 730.373 21.0467 730.199 21.02C730.033 20.9933 729.869 20.98 729.709 20.98H728.569V22.97H729.599ZM734.798 19.92H739.488V21.02H736.058V22.82H739.308V23.88H736.058V25.88H739.668V27H734.798V19.92ZM743.532 21.02H741.362V19.92H746.962V21.02H744.792V27H743.532V21.02ZM750.61 19.92H751.7L754.75 27H753.31L752.65 25.38H749.58L748.94 27H747.53L750.61 19.92ZM752.21 24.3L751.12 21.42L750.01 24.3H752.21ZM756.65 19.92H757.91V27H756.65V19.92ZM760.673 19.92H761.933V25.88H764.943V27H760.673V19.92Z" fill="#AAAAAA"/>
<path d="M793.103 19.92H794.363V22.78H797.673V19.92H798.933V27H797.673V23.86H794.363V27H793.103V19.92ZM801.695 19.92H804.005C804.412 19.92 804.779 19.9567 805.105 20.03C805.432 20.1033 805.712 20.2233 805.945 20.39C806.179 20.5567 806.359 20.77 806.485 21.03C806.612 21.29 806.675 21.6033 806.675 21.97C806.675 22.3633 806.602 22.6933 806.455 22.96C806.309 23.2267 806.109 23.4433 805.855 23.61C805.609 23.77 805.319 23.8867 804.985 23.96C804.652 24.0333 804.299 24.07 803.925 24.07H802.955V27H801.695V19.92ZM803.835 23.01C804.042 23.01 804.239 22.9967 804.425 22.97C804.612 22.9367 804.779 22.8833 804.925 22.81C805.072 22.73 805.189 22.6233 805.275 22.49C805.362 22.3567 805.405 22.1833 805.405 21.97C805.405 21.7633 805.362 21.5967 805.275 21.47C805.189 21.3367 805.072 21.2333 804.925 21.16C804.785 21.0867 804.622 21.04 804.435 21.02C804.255 20.9933 804.069 20.98 803.875 20.98H802.955V23.01H803.835ZM812.699 19.92H815.009C815.415 19.92 815.782 19.9567 816.109 20.03C816.435 20.1033 816.715 20.2233 816.949 20.39C817.182 20.5567 817.362 20.77 817.489 21.03C817.615 21.29 817.679 21.6033 817.679 21.97C817.679 22.3633 817.605 22.6933 817.459 22.96C817.312 23.2267 817.112 23.4433 816.859 23.61C816.612 23.77 816.322 23.8867 815.989 23.96C815.655 24.0333 815.302 24.07 814.929 24.07H813.959V27H812.699V19.92ZM814.839 23.01C815.045 23.01 815.242 22.9967 815.429 22.97C815.615 22.9367 815.782 22.8833 815.929 22.81C816.075 22.73 816.192 22.6233 816.279 22.49C816.365 22.3567 816.409 22.1833 816.409 21.97C816.409 21.7633 816.365 21.5967 816.279 21.47C816.192 21.3367 816.075 21.2333 815.929 21.16C815.789 21.0867 815.625 21.04 815.439 21.02C815.259 20.9933 815.072 20.98 814.879 20.98H813.959V23.01H814.839ZM820.002 19.92H822.462C822.796 19.92 823.119 19.9567 823.432 20.03C823.746 20.0967 824.022 20.21 824.262 20.37C824.509 20.53 824.706 20.74 824.852 21C824.999 21.26 825.072 21.5767 825.072 21.95C825.072 22.4633 824.926 22.8833 824.632 23.21C824.346 23.53 823.952 23.7467 823.452 23.86L825.342 27H823.822L822.182 24H821.262V27H820.002V19.92ZM822.292 22.97C822.472 22.97 822.652 22.9567 822.832 22.93C823.012 22.9033 823.172 22.8533 823.312 22.78C823.459 22.7067 823.579 22.6033 823.672 22.47C823.766 22.33 823.812 22.1533 823.812 21.94C823.812 21.7467 823.769 21.59 823.682 21.47C823.596 21.3433 823.486 21.2433 823.352 21.17C823.219 21.0967 823.066 21.0467 822.892 21.02C822.726 20.9933 822.562 20.98 822.402 20.98H821.262V22.97H822.292ZM827.491 19.92H828.751V27H827.491V19.92ZM836.624 21.58C836.437 21.3267 836.194 21.1433 835.894 21.03C835.594 20.91 835.3 20.85 835.014 20.85C834.647 20.85 834.314 20.9167 834.014 21.05C833.714 21.1833 833.454 21.3667 833.234 21.6C833.02 21.8333 832.854 22.1067 832.734 22.42C832.62 22.7333 832.564 23.0733 832.564 23.44C832.564 23.8267 832.62 24.18 832.734 24.5C832.847 24.82 833.007 25.0967 833.214 25.33C833.427 25.5567 833.68 25.7333 833.974 25.86C834.267 25.9867 834.597 26.05 834.964 26.05C835.344 26.05 835.68 25.9767 835.974 25.83C836.267 25.6767 836.504 25.4767 836.684 25.23L837.694 25.94C837.38 26.3333 836.997 26.64 836.544 26.86C836.09 27.0733 835.56 27.18 834.954 27.18C834.4 27.18 833.89 27.09 833.424 26.91C832.964 26.7233 832.567 26.4667 832.234 26.14C831.9 25.8067 831.64 25.4133 831.454 24.96C831.267 24.5 831.174 23.9933 831.174 23.44C831.174 22.8733 831.27 22.3633 831.464 21.91C831.664 21.45 831.934 21.06 832.274 20.74C832.62 20.42 833.027 20.1733 833.494 20C833.96 19.8267 834.467 19.74 835.014 19.74C835.24 19.74 835.477 19.7633 835.724 19.81C835.97 19.85 836.207 19.9167 836.434 20.01C836.66 20.0967 836.874 20.2067 837.074 20.34C837.274 20.4733 837.444 20.6333 837.584 20.82L836.624 21.58ZM839.676 19.92H844.366V21.02H840.936V22.82H844.186V23.88H840.936V25.88H844.546V27H839.676V19.92Z" fill="#AAAAAA"/>
<path d="M891.691 27H887.421C886.854 27 886.338 26.92 885.871 26.76C885.411 26.5933 885.014 26.3567 884.681 26.05C884.354 25.7367 884.101 25.3567 883.921 24.91C883.741 24.4567 883.651 23.9433 883.651 23.37C883.651 22.83 883.744 22.34 883.931 21.9C884.124 21.4533 884.391 21.07 884.731 20.75C885.071 20.43 885.471 20.1833 885.931 20.01C886.398 19.83 886.901 19.74 887.441 19.74C887.981 19.74 888.481 19.83 888.941 20.01C889.401 20.1833 889.798 20.43 890.131 20.75C890.471 21.07 890.734 21.4533 890.921 21.9C891.108 22.34 891.201 22.83 891.201 23.37C891.201 23.69 891.164 23.9833 891.091 24.25C891.018 24.5167 890.921 24.76 890.801 24.98C890.688 25.1933 890.554 25.3833 890.401 25.55C890.254 25.71 890.101 25.8467 889.941 25.96V25.98H891.691V27ZM887.441 20.87C887.101 20.87 886.781 20.9333 886.481 21.06C886.188 21.1867 885.934 21.36 885.721 21.58C885.508 21.8 885.338 22.0633 885.211 22.37C885.091 22.6767 885.031 23.01 885.031 23.37C885.031 23.75 885.088 24.0967 885.201 24.41C885.321 24.7167 885.484 24.98 885.691 25.2C885.904 25.42 886.158 25.5933 886.451 25.72C886.744 25.84 887.068 25.9 887.421 25.9C887.768 25.9 888.088 25.84 888.381 25.72C888.681 25.5933 888.938 25.42 889.151 25.2C889.364 24.98 889.531 24.7167 889.651 24.41C889.771 24.0967 889.831 23.75 889.831 23.37C889.831 23.01 889.774 22.6767 889.661 22.37C889.548 22.0633 889.384 21.8 889.171 21.58C888.964 21.36 888.714 21.1867 888.421 21.06C888.128 20.9333 887.801 20.87 887.441 20.87ZM895.206 21.02H893.036V19.92H898.636V21.02H896.466V27H895.206V21.02ZM902.253 23.93L899.593 19.92H901.133L902.913 22.9L904.713 19.92H906.173L903.513 23.93V27H902.253V23.93ZM906.902 26.3C906.902 26.0867 906.979 25.9033 907.132 25.75C907.292 25.5967 907.482 25.52 907.702 25.52C907.916 25.52 908.102 25.5933 908.262 25.74C908.422 25.8867 908.502 26.0667 908.502 26.28C908.502 26.4933 908.422 26.6767 908.262 26.83C908.109 26.9833 907.922 27.06 907.702 27.06C907.596 27.06 907.492 27.04 907.392 27C907.299 26.96 907.216 26.9067 907.142 26.84C907.069 26.7733 907.009 26.6933 906.962 26.6C906.922 26.5067 906.902 26.4067 906.902 26.3Z" fill="#AAAAAA"/>
<path d="M955.59 21.02H953.42V19.92H959.02V21.02H956.85V27H955.59V21.02ZM960.401 23.44C960.401 22.8733 960.494 22.3633 960.681 21.91C960.874 21.45 961.137 21.06 961.471 20.74C961.811 20.42 962.211 20.1733 962.671 20C963.137 19.8267 963.644 19.74 964.191 19.74C964.744 19.74 965.254 19.8267 965.721 20C966.187 20.1733 966.591 20.42 966.931 20.74C967.271 21.06 967.534 21.45 967.721 21.91C967.914 22.3633 968.011 22.8733 968.011 23.44C968.011 23.9933 967.914 24.5 967.721 24.96C967.534 25.4133 967.271 25.8067 966.931 26.14C966.591 26.4667 966.187 26.7233 965.721 26.91C965.254 27.09 964.744 27.18 964.191 27.18C963.644 27.18 963.137 27.09 962.671 26.91C962.211 26.7233 961.811 26.4667 961.471 26.14C961.137 25.8067 960.874 25.4133 960.681 24.96C960.494 24.5 960.401 23.9933 960.401 23.44ZM961.771 23.44C961.771 23.82 961.827 24.17 961.941 24.49C962.061 24.8033 962.227 25.0767 962.441 25.31C962.661 25.5433 962.917 25.7267 963.211 25.86C963.511 25.9867 963.841 26.05 964.201 26.05C964.561 26.05 964.891 25.9867 965.191 25.86C965.491 25.7267 965.747 25.5433 965.961 25.31C966.181 25.0767 966.347 24.8033 966.461 24.49C966.581 24.17 966.641 23.82 966.641 23.44C966.641 23.0733 966.581 22.7333 966.461 22.42C966.347 22.1067 966.184 21.8333 965.971 21.6C965.757 21.3667 965.501 21.1833 965.201 21.05C964.901 20.9167 964.567 20.85 964.201 20.85C963.834 20.85 963.501 20.9167 963.201 21.05C962.907 21.1833 962.654 21.3667 962.441 21.6C962.227 21.8333 962.061 22.1067 961.941 22.42C961.827 22.7333 961.771 23.0733 961.771 23.44ZM971.554 21.02H969.384V19.92H974.984V21.02H972.814V27H971.554V21.02ZM978.632 19.92H979.722L982.772 27H981.332L980.672 25.38H977.602L976.962 27H975.552L978.632 19.92ZM980.232 24.3L979.142 21.42L978.032 24.3H980.232ZM984.673 19.92H985.933V25.88H988.943V27H984.673V19.92Z" fill="#AAAAAA"/>
<path d="M1023.01 19.92H1025.77C1026.04 19.92 1026.3 19.9533 1026.56 20.02C1026.82 20.08 1027.05 20.1833 1027.25 20.33C1027.46 20.47 1027.62 20.6533 1027.75 20.88C1027.88 21.1067 1027.94 21.38 1027.94 21.7C1027.94 22.1 1027.83 22.43 1027.6 22.69C1027.37 22.95 1027.08 23.1367 1026.71 23.25V23.27C1027.16 23.33 1027.52 23.5033 1027.81 23.79C1028.1 24.0767 1028.24 24.46 1028.24 24.94C1028.24 25.3267 1028.16 25.6533 1028.01 25.92C1027.86 26.18 1027.65 26.39 1027.4 26.55C1027.15 26.71 1026.87 26.8267 1026.54 26.9C1026.22 26.9667 1025.89 27 1025.56 27H1023.01V19.92ZM1024.27 22.8H1025.39C1025.81 22.8 1026.13 22.7167 1026.35 22.55C1026.57 22.3833 1026.68 22.1467 1026.68 21.84C1026.68 21.52 1026.57 21.2933 1026.34 21.16C1026.11 21.0267 1025.76 20.96 1025.28 20.96H1024.27V22.8ZM1024.27 25.94H1025.4C1025.56 25.94 1025.73 25.93 1025.92 25.91C1026.11 25.8833 1026.28 25.8333 1026.43 25.76C1026.59 25.6867 1026.72 25.58 1026.82 25.44C1026.93 25.3 1026.98 25.1133 1026.98 24.88C1026.98 24.5067 1026.85 24.2467 1026.6 24.1C1026.35 23.9533 1025.96 23.88 1025.45 23.88H1024.27V25.94ZM1036.32 24.4C1036.32 24.8267 1036.25 25.2133 1036.1 25.56C1035.96 25.9 1035.76 26.19 1035.5 26.43C1035.25 26.67 1034.95 26.8567 1034.6 26.99C1034.26 27.1167 1033.88 27.18 1033.47 27.18C1033.07 27.18 1032.69 27.1167 1032.34 26.99C1032 26.8567 1031.69 26.67 1031.43 26.43C1031.18 26.19 1030.98 25.9 1030.83 25.56C1030.69 25.2133 1030.62 24.8267 1030.62 24.4V19.92H1031.88V24.35C1031.88 24.5567 1031.91 24.7633 1031.96 24.97C1032.02 25.17 1032.1 25.35 1032.22 25.51C1032.35 25.67 1032.51 25.8 1032.71 25.9C1032.92 26 1033.17 26.05 1033.47 26.05C1033.77 26.05 1034.02 26 1034.22 25.9C1034.43 25.8 1034.59 25.67 1034.71 25.51C1034.84 25.35 1034.93 25.17 1034.98 24.97C1035.04 24.7633 1035.06 24.5567 1035.06 24.35V19.92H1036.32V24.4ZM1039.02 19.92H1041.53C1041.99 19.92 1042.46 19.98 1042.92 20.1C1043.39 20.22 1043.81 20.42 1044.18 20.7C1044.56 20.9733 1044.86 21.3367 1045.09 21.79C1045.33 22.2367 1045.44 22.7933 1045.44 23.46C1045.44 24.08 1045.33 24.6133 1045.09 25.06C1044.86 25.5067 1044.56 25.8733 1044.18 26.16C1043.81 26.4467 1043.39 26.66 1042.92 26.8C1042.46 26.9333 1041.99 27 1041.53 27H1039.02V19.92ZM1041.33 25.9C1041.66 25.9 1041.99 25.8633 1042.31 25.79C1042.64 25.71 1042.93 25.58 1043.19 25.4C1043.46 25.2133 1043.68 24.9633 1043.84 24.65C1044.01 24.3367 1044.09 23.94 1044.09 23.46C1044.09 22.9533 1044.01 22.54 1043.84 22.22C1043.68 21.9 1043.46 21.65 1043.19 21.47C1042.93 21.29 1042.64 21.1667 1042.31 21.1C1041.99 21.0333 1041.66 21 1041.33 21H1040.28V25.9H1041.33ZM1054.06 26.63C1053.7 26.8033 1053.3 26.9367 1052.87 27.03C1052.44 27.13 1051.95 27.18 1051.39 27.18C1050.82 27.18 1050.29 27.09 1049.82 26.91C1049.35 26.7233 1048.94 26.4667 1048.6 26.14C1048.26 25.8067 1047.99 25.4133 1047.8 24.96C1047.61 24.5 1047.52 23.9933 1047.52 23.44C1047.52 22.8733 1047.62 22.3633 1047.81 21.91C1048.01 21.45 1048.28 21.06 1048.62 20.74C1048.97 20.42 1049.37 20.1733 1049.84 20C1050.31 19.8267 1050.81 19.74 1051.36 19.74C1051.93 19.74 1052.44 19.8233 1052.91 19.99C1053.38 20.15 1053.76 20.3633 1054.05 20.63L1053.18 21.57C1053 21.37 1052.75 21.2 1052.42 21.06C1052.1 20.92 1051.75 20.85 1051.37 20.85C1051 20.85 1050.66 20.9167 1050.35 21.05C1050.05 21.1833 1049.79 21.3667 1049.58 21.6C1049.37 21.8333 1049.2 22.1067 1049.08 22.42C1048.97 22.7333 1048.91 23.0733 1048.91 23.44C1048.91 23.82 1048.97 24.17 1049.08 24.49C1049.2 24.8033 1049.37 25.0767 1049.58 25.31C1049.8 25.5433 1050.06 25.7267 1050.37 25.86C1050.68 25.9867 1051.04 26.05 1051.43 26.05C1051.97 26.05 1052.44 25.9667 1052.84 25.8V24H1051.35V22.96H1054.06V26.63ZM1056.79 19.92H1061.48V21.02H1058.05V22.82H1061.3V23.88H1058.05V25.88H1061.66V27H1056.79V19.92ZM1065.53 21.02H1063.36V19.92H1068.96V21.02H1066.79V27H1065.53V21.02Z" fill="#AAAAAA"/>
<path d="M1134.69 21.4C1134.55 21.2267 1134.36 21.0833 1134.12 20.97C1133.88 20.85 1133.63 20.79 1133.39 20.79C1133.24 20.79 1133.09 20.81 1132.95 20.85C1132.8 20.8833 1132.67 20.94 1132.55 21.02C1132.43 21.0933 1132.33 21.1933 1132.25 21.32C1132.17 21.44 1132.14 21.5867 1132.14 21.76C1132.14 21.92 1132.17 22.0567 1132.24 22.17C1132.3 22.2833 1132.39 22.38 1132.51 22.46C1132.63 22.54 1132.77 22.61 1132.94 22.67C1133.1 22.73 1133.29 22.79 1133.49 22.85C1133.71 22.9233 1133.95 23.0067 1134.19 23.1C1134.43 23.1933 1134.66 23.3167 1134.86 23.47C1135.06 23.6233 1135.23 23.8167 1135.36 24.05C1135.49 24.2833 1135.56 24.5733 1135.56 24.92C1135.56 25.3 1135.49 25.6333 1135.35 25.92C1135.21 26.2 1135.02 26.4333 1134.79 26.62C1134.55 26.8067 1134.28 26.9467 1133.97 27.04C1133.65 27.1333 1133.32 27.18 1132.98 27.18C1132.52 27.18 1132.07 27.0967 1131.63 26.93C1131.19 26.7567 1130.83 26.5033 1130.55 26.17L1131.45 25.33C1131.62 25.57 1131.85 25.76 1132.14 25.9C1132.43 26.04 1132.72 26.11 1133 26.11C1133.14 26.11 1133.29 26.0933 1133.45 26.06C1133.6 26.02 1133.74 25.9567 1133.86 25.87C1133.98 25.7833 1134.08 25.6767 1134.16 25.55C1134.24 25.4167 1134.28 25.2533 1134.28 25.06C1134.28 24.8733 1134.23 24.72 1134.15 24.6C1134.06 24.4733 1133.94 24.3667 1133.8 24.28C1133.65 24.1867 1133.48 24.1067 1133.28 24.04C1133.08 23.9733 1132.87 23.9033 1132.65 23.83C1132.43 23.7633 1132.22 23.6833 1132.01 23.59C1131.79 23.4967 1131.6 23.3733 1131.43 23.22C1131.26 23.0667 1131.12 22.88 1131.02 22.66C1130.91 22.4333 1130.86 22.1533 1130.86 21.82C1130.86 21.46 1130.93 21.15 1131.08 20.89C1131.23 20.63 1131.43 20.4167 1131.67 20.25C1131.91 20.0767 1132.19 19.95 1132.5 19.87C1132.81 19.7833 1133.13 19.74 1133.45 19.74C1133.81 19.74 1134.17 19.8033 1134.54 19.93C1134.91 20.0567 1135.23 20.2467 1135.51 20.5L1134.69 21.4ZM1139.29 21.02H1137.12V19.92H1142.72V21.02H1140.55V27H1139.29V21.02ZM1146.37 19.92H1147.46L1150.51 27H1149.07L1148.41 25.38H1145.34L1144.7 27H1143.29L1146.37 19.92ZM1147.97 24.3L1146.88 21.42L1145.77 24.3H1147.97ZM1153.25 21.02H1151.08V19.92H1156.68V21.02H1154.51V27H1153.25V21.02ZM1164.34 24.4C1164.34 24.8267 1164.27 25.2133 1164.12 25.56C1163.97 25.9 1163.77 26.19 1163.52 26.43C1163.27 26.67 1162.97 26.8567 1162.62 26.99C1162.27 27.1167 1161.9 27.18 1161.49 27.18C1161.08 27.18 1160.71 27.1167 1160.36 26.99C1160.01 26.8567 1159.71 26.67 1159.45 26.43C1159.2 26.19 1159 25.9 1158.85 25.56C1158.71 25.2133 1158.64 24.8267 1158.64 24.4V19.92H1159.9V24.35C1159.9 24.5567 1159.93 24.7633 1159.98 24.97C1160.03 25.17 1160.12 25.35 1160.24 25.51C1160.37 25.67 1160.53 25.8 1160.73 25.9C1160.94 26 1161.19 26.05 1161.49 26.05C1161.79 26.05 1162.04 26 1162.24 25.9C1162.45 25.8 1162.61 25.67 1162.73 25.51C1162.86 25.35 1162.95 25.17 1163 24.97C1163.05 24.7633 1163.08 24.5567 1163.08 24.35V19.92H1164.34V24.4ZM1170.65 21.4C1170.51 21.2267 1170.32 21.0833 1170.08 20.97C1169.84 20.85 1169.59 20.79 1169.35 20.79C1169.2 20.79 1169.05 20.81 1168.91 20.85C1168.76 20.8833 1168.63 20.94 1168.51 21.02C1168.39 21.0933 1168.29 21.1933 1168.21 21.32C1168.13 21.44 1168.1 21.5867 1168.1 21.76C1168.1 21.92 1168.13 22.0567 1168.2 22.17C1168.26 22.2833 1168.35 22.38 1168.47 22.46C1168.59 22.54 1168.73 22.61 1168.9 22.67C1169.06 22.73 1169.25 22.79 1169.45 22.85C1169.67 22.9233 1169.91 23.0067 1170.15 23.1C1170.39 23.1933 1170.62 23.3167 1170.82 23.47C1171.02 23.6233 1171.19 23.8167 1171.32 24.05C1171.45 24.2833 1171.52 24.5733 1171.52 24.92C1171.52 25.3 1171.45 25.6333 1171.31 25.92C1171.17 26.2 1170.98 26.4333 1170.75 26.62C1170.51 26.8067 1170.24 26.9467 1169.93 27.04C1169.61 27.1333 1169.28 27.18 1168.94 27.18C1168.48 27.18 1168.03 27.0967 1167.59 26.93C1167.15 26.7567 1166.79 26.5033 1166.51 26.17L1167.41 25.33C1167.58 25.57 1167.81 25.76 1168.1 25.9C1168.39 26.04 1168.68 26.11 1168.96 26.11C1169.1 26.11 1169.25 26.0933 1169.41 26.06C1169.56 26.02 1169.7 25.9567 1169.82 25.87C1169.94 25.7833 1170.04 25.6767 1170.12 25.55C1170.2 25.4167 1170.24 25.2533 1170.24 25.06C1170.24 24.8733 1170.19 24.72 1170.11 24.6C1170.02 24.4733 1169.9 24.3667 1169.76 24.28C1169.61 24.1867 1169.44 24.1067 1169.24 24.04C1169.04 23.9733 1168.83 23.9033 1168.61 23.83C1168.39 23.7633 1168.18 23.6833 1167.97 23.59C1167.75 23.4967 1167.56 23.3733 1167.39 23.22C1167.22 23.0667 1167.08 22.88 1166.98 22.66C1166.87 22.4333 1166.82 22.1533 1166.82 21.82C1166.82 21.46 1166.89 21.15 1167.04 20.89C1167.19 20.63 1167.39 20.4167 1167.63 20.25C1167.87 20.0767 1168.15 19.95 1168.46 19.87C1168.77 19.7833 1169.09 19.74 1169.41 19.74C1169.77 19.74 1170.13 19.8033 1170.5 19.93C1170.87 20.0567 1171.19 20.2467 1171.47 20.5L1170.65 21.4Z" fill="#AAAAAA"/>
<path d="M1232.13 19.92H1236.82V21.02H1233.39V22.82H1236.64V23.88H1233.39V25.88H1237V27H1232.13V19.92ZM1240.86 21.02H1238.69V19.92H1244.29V21.02H1242.12V27H1240.86V21.02ZM1247.94 19.92H1249.03L1252.08 27H1250.64L1249.98 25.38H1246.91L1246.27 27H1244.86L1247.94 19.92ZM1249.54 24.3L1248.45 21.42L1247.34 24.3H1249.54Z" fill="#AAAAAA"/>
<path fill-rule="evenodd" clip-rule="evenodd" d="M0 50H16V110H0V50Z" fill="#A8A18F"/>
<path d="M16.5 50.5H31.5V109.5H16.5V50.5Z" fill="#DCDFD8" stroke="#A8A18F"/>
<path fill-rule="evenodd" clip-rule="evenodd" d="M32 50H45V110H32V50Z" fill="#A8A18F"/>
<path d="M45.5 50.5H109.5V109.5H45.5V50.5Z" fill="#DCDFD8" stroke="#A8A18F"/>
<path d="M110.5 50.5H181.5V109.5H110.5V50.5Z" fill="#DCDFD8" stroke="#A8A18F"/>
<path fill-rule="evenodd" clip-rule="evenodd" d="M182 50H206V110H182V50Z" fill="#A8A18F"/>
<path d="M206.5 50.5H337.5V109.5H206.5V50.5Z" fill="#DCDFD8" stroke="#A8A18F"/>
<path fill-rule="evenodd" clip-rule="evenodd" d="M338 50H346V110H338V50Z" fill="#A8A18F"/>
<path d="M346.5 50.5H575.5V109.5H346.5V50.5Z" fill="#DCDFD8" stroke="#A8A18F"/>
<path fill-rule="evenodd" clip-rule="evenodd" d="M576 50H591V110H576V50Z" fill="#A8A18F"/>
<path d="M591.5 50.5H685.5V109.5H591.5V50.5Z" fill="#DCDFD8" stroke="#A8A18F"/>
<path d="M686.5 50.5H765.5V109.5H686.5V50.5Z" fill="#DCDFD8" stroke="#A8A18F"/>
<path d="M766.5 50.5H845.5V109.5H766.5V50.5Z" fill="#DCDFD8" stroke="#A8A18F"/>
<path d="M846.5 50.5H909.5V109.5H846.5V50.5Z" fill="#DCDFD8" stroke="#A8A18F"/>
<path d="M910.5 50.5H989.5V109.5H910.5V50.5Z" fill="#DCDFD8" stroke="#A8A18F"/>
<path d="M990.5 50.5H1069.5V109.5H990.5V50.5Z" fill="#DCDFD8" stroke="#A8A18F"/>
<path d="M1070.5 50.5H1172.5V109.5H1070.5V50.5Z" fill="#DCDFD8" stroke="#A8A18F"/>
<path d="M1173.5 50.5H1252.5V109.5H1173.5V50.5Z" fill="#DCDFD8" stroke="#A8A18F"/>
<path fill-rule="evenodd" clip-rule="evenodd" d="M1253 50H1269V110H1253V50Z" fill="#A8A18F"/>
</svg>
