<svg width="1268" height="113" viewBox="0 0 1268 113" fill="none" xmlns="http://www.w3.org/2000/svg">
<mask id="path-1-inside-1_309_16296" fill="white">
<path d="M0 0H1268V53H0V0Z"/>
</mask>
<path d="M0 0H1268V53H0V0Z" fill="white"/>
<path d="M1268 52H0V54H1268V52Z" fill="#D9D9D9" mask="url(#path-1-inside-1_309_16296)"/>
<rect x="16.5" y="18.5" width="15" height="15" fill="white"/>
<rect x="16.5" y="18.5" width="15" height="15" stroke="#757575"/>
<path d="M47.21 23.02H45.04V21.92H50.64V23.02H48.47V29H47.21V23.02ZM54.2564 25.93L51.5964 21.92H53.1364L54.9164 24.9L56.7164 21.92H58.1764L55.5164 25.93V29H54.2564V25.93ZM59.9671 21.92H62.2771C62.6838 21.92 63.0504 21.9567 63.3771 22.03C63.7038 22.1033 63.9838 22.2233 64.2171 22.39C64.4504 22.5567 64.6304 22.77 64.7571 23.03C64.8838 23.29 64.9471 23.6033 64.9471 23.97C64.9471 24.3633 64.8738 24.6933 64.7271 24.96C64.5804 25.2267 64.3804 25.4433 64.1271 25.61C63.8804 25.77 63.5904 25.8867 63.2571 25.96C62.9238 26.0333 62.5704 26.07 62.1971 26.07H61.2271V29H59.9671V21.92ZM62.1071 25.01C62.3138 25.01 62.5104 24.9967 62.6971 24.97C62.8838 24.9367 63.0504 24.8833 63.1971 24.81C63.3438 24.73 63.4604 24.6233 63.5471 24.49C63.6338 24.3567 63.6771 24.1833 63.6771 23.97C63.6771 23.7633 63.6338 23.5967 63.5471 23.47C63.4604 23.3367 63.3438 23.2333 63.1971 23.16C63.0571 23.0867 62.8938 23.04 62.7071 23.02C62.5271 22.9933 62.3404 22.98 62.1471 22.98H61.2271V25.01H62.1071ZM67.2706 21.92H71.9606V23.02H68.5306V24.82H71.7806V25.88H68.5306V27.88H72.1406V29H67.2706V21.92Z" fill="#AAAAAA"/>
<path d="M140.78 21.92H142.04V29H140.78V21.92ZM144.802 21.92H146.772L148.612 26.95H148.642L150.462 21.92H152.442V29H151.192V23.31H151.172L149.022 29H148.142L146.022 23.31H146.002V29H144.802V21.92ZM157.421 21.92H158.511L161.561 29H160.121L159.461 27.38H156.391L155.751 29H154.341L157.421 21.92ZM159.021 26.3L157.931 23.42L156.821 26.3H159.021ZM169.486 28.63C169.126 28.8033 168.73 28.9367 168.296 29.03C167.87 29.13 167.376 29.18 166.816 29.18C166.243 29.18 165.72 29.09 165.246 28.91C164.773 28.7233 164.366 28.4667 164.026 28.14C163.686 27.8067 163.42 27.4133 163.226 26.96C163.04 26.5 162.946 25.9933 162.946 25.44C162.946 24.8733 163.043 24.3633 163.236 23.91C163.436 23.45 163.706 23.06 164.046 22.74C164.393 22.42 164.8 22.1733 165.266 22C165.733 21.8267 166.24 21.74 166.786 21.74C167.353 21.74 167.87 21.8233 168.336 21.99C168.81 22.15 169.19 22.3633 169.476 22.63L168.606 23.57C168.426 23.37 168.173 23.2 167.846 23.06C167.526 22.92 167.176 22.85 166.796 22.85C166.423 22.85 166.083 22.9167 165.776 23.05C165.476 23.1833 165.22 23.3667 165.006 23.6C164.793 23.8333 164.626 24.1067 164.506 24.42C164.393 24.7333 164.336 25.0733 164.336 25.44C164.336 25.82 164.393 26.17 164.506 26.49C164.626 26.8033 164.793 27.0767 165.006 27.31C165.226 27.5433 165.49 27.7267 165.796 27.86C166.11 27.9867 166.463 28.05 166.856 28.05C167.396 28.05 167.866 27.9667 168.266 27.8V26H166.776V24.96H169.486V28.63ZM172.221 21.92H176.911V23.02H173.481V24.82H176.731V25.88H173.481V27.88H177.091V29H172.221V21.92Z" fill="#AAAAAA"/>
<path d="M217.78 21.92H219.04V29H217.78V21.92ZM223.232 23.02H221.062V21.92H226.662V23.02H224.492V29H223.232V23.02ZM228.686 21.92H233.376V23.02H229.946V24.82H233.196V25.88H229.946V27.88H233.556V29H228.686V21.92ZM235.989 21.92H237.959L239.799 26.95H239.829L241.649 21.92H243.629V29H242.379V23.31H242.359L240.209 29H239.329L237.209 23.31H237.189V29H235.989V21.92ZM250.089 21.92H251.759L255.049 27.22H255.069V21.92H256.329V29H254.729L251.369 23.53H251.349V29H250.089V21.92ZM261.311 21.92H262.401L265.451 29H264.011L263.351 27.38H260.281L259.641 29H258.231L261.311 21.92ZM262.911 26.3L261.821 23.42L260.711 26.3H262.911ZM267.352 21.92H269.322L271.162 26.95H271.192L273.012 21.92H274.992V29H273.742V23.31H273.722L271.572 29H270.692L268.572 23.31H268.552V29H267.352V21.92ZM277.751 21.92H282.441V23.02H279.011V24.82H282.261V25.88H279.011V27.88H282.621V29H277.751V21.92Z" fill="#AAAAAA"/>
<path d="M367.9 21.92H369.31L371.26 27.37H371.3L373.27 21.92H374.63L371.79 29H370.7L367.9 21.92ZM376.513 21.92H381.203V23.02H377.773V24.82H381.023V25.88H377.773V27.88H381.383V29H376.513V21.92ZM383.817 21.92H385.487L388.777 27.22H388.797V21.92H390.057V29H388.457L385.097 23.53H385.077V29H383.817V21.92ZM392.819 21.92H395.329C395.789 21.92 396.253 21.98 396.719 22.1C397.186 22.22 397.606 22.42 397.979 22.7C398.353 22.9733 398.656 23.3367 398.889 23.79C399.123 24.2367 399.239 24.7933 399.239 25.46C399.239 26.08 399.123 26.6133 398.889 27.06C398.656 27.5067 398.353 27.8733 397.979 28.16C397.606 28.4467 397.186 28.66 396.719 28.8C396.253 28.9333 395.789 29 395.329 29H392.819V21.92ZM395.129 27.9C395.456 27.9 395.783 27.8633 396.109 27.79C396.436 27.71 396.729 27.58 396.989 27.4C397.256 27.2133 397.473 26.9633 397.639 26.65C397.806 26.3367 397.889 25.94 397.889 25.46C397.889 24.9533 397.806 24.54 397.639 24.22C397.473 23.9 397.256 23.65 396.989 23.47C396.729 23.29 396.436 23.1667 396.109 23.1C395.783 23.0333 395.456 23 395.129 23H394.079V27.9H395.129ZM401.316 25.44C401.316 24.8733 401.41 24.3633 401.596 23.91C401.79 23.45 402.053 23.06 402.386 22.74C402.726 22.42 403.126 22.1733 403.586 22C404.053 21.8267 404.56 21.74 405.106 21.74C405.66 21.74 406.17 21.8267 406.636 22C407.103 22.1733 407.506 22.42 407.846 22.74C408.186 23.06 408.45 23.45 408.636 23.91C408.83 24.3633 408.926 24.8733 408.926 25.44C408.926 25.9933 408.83 26.5 408.636 26.96C408.45 27.4133 408.186 27.8067 407.846 28.14C407.506 28.4667 407.103 28.7233 406.636 28.91C406.17 29.09 405.66 29.18 405.106 29.18C404.56 29.18 404.053 29.09 403.586 28.91C403.126 28.7233 402.726 28.4667 402.386 28.14C402.053 27.8067 401.79 27.4133 401.596 26.96C401.41 26.5 401.316 25.9933 401.316 25.44ZM402.686 25.44C402.686 25.82 402.743 26.17 402.856 26.49C402.976 26.8033 403.143 27.0767 403.356 27.31C403.576 27.5433 403.833 27.7267 404.126 27.86C404.426 27.9867 404.756 28.05 405.116 28.05C405.476 28.05 405.806 27.9867 406.106 27.86C406.406 27.7267 406.663 27.5433 406.876 27.31C407.096 27.0767 407.263 26.8033 407.376 26.49C407.496 26.17 407.556 25.82 407.556 25.44C407.556 25.0733 407.496 24.7333 407.376 24.42C407.263 24.1067 407.1 23.8333 406.886 23.6C406.673 23.3667 406.416 23.1833 406.116 23.05C405.816 22.9167 405.483 22.85 405.116 22.85C404.75 22.85 404.416 22.9167 404.116 23.05C403.823 23.1833 403.57 23.3667 403.356 23.6C403.143 23.8333 402.976 24.1067 402.856 24.42C402.743 24.7333 402.686 25.0733 402.686 25.44ZM411.343 21.92H413.803C414.136 21.92 414.459 21.9567 414.773 22.03C415.086 22.0967 415.363 22.21 415.603 22.37C415.849 22.53 416.046 22.74 416.193 23C416.339 23.26 416.413 23.5767 416.413 23.95C416.413 24.4633 416.266 24.8833 415.973 25.21C415.686 25.53 415.293 25.7467 414.793 25.86L416.683 29H415.163L413.523 26H412.603V29H411.343V21.92ZM413.633 24.97C413.813 24.97 413.993 24.9567 414.173 24.93C414.353 24.9033 414.513 24.8533 414.653 24.78C414.799 24.7067 414.919 24.6033 415.013 24.47C415.106 24.33 415.153 24.1533 415.153 23.94C415.153 23.7467 415.109 23.59 415.023 23.47C414.936 23.3433 414.826 23.2433 414.693 23.17C414.559 23.0967 414.406 23.0467 414.233 23.02C414.066 22.9933 413.903 22.98 413.743 22.98H412.603V24.97H413.633Z" fill="#AAAAAA"/>
<path d="M475.78 21.92H477.04V29H475.78V21.92ZM481.232 23.02H479.062V21.92H484.662V23.02H482.492V29H481.232V23.02ZM486.686 21.92H491.376V23.02H487.946V24.82H491.196V25.88H487.946V27.88H491.556V29H486.686V21.92ZM493.989 21.92H495.959L497.799 26.95H497.829L499.649 21.92H501.629V29H500.379V23.31H500.359L498.209 29H497.329L495.209 23.31H495.189V29H493.989V21.92ZM508.089 21.92H510.599C511.059 21.92 511.522 21.98 511.989 22.1C512.455 22.22 512.875 22.42 513.249 22.7C513.622 22.9733 513.925 23.3367 514.159 23.79C514.392 24.2367 514.509 24.7933 514.509 25.46C514.509 26.08 514.392 26.6133 514.159 27.06C513.925 27.5067 513.622 27.8733 513.249 28.16C512.875 28.4467 512.455 28.66 511.989 28.8C511.522 28.9333 511.059 29 510.599 29H508.089V21.92ZM510.399 27.9C510.725 27.9 511.052 27.8633 511.379 27.79C511.705 27.71 511.999 27.58 512.259 27.4C512.525 27.2133 512.742 26.9633 512.909 26.65C513.075 26.3367 513.159 25.94 513.159 25.46C513.159 24.9533 513.075 24.54 512.909 24.22C512.742 23.9 512.525 23.65 512.259 23.47C511.999 23.29 511.705 23.1667 511.379 23.1C511.052 23.0333 510.725 23 510.399 23H509.349V27.9H510.399ZM516.925 21.92H521.615V23.02H518.185V24.82H521.435V25.88H518.185V27.88H521.795V29H516.925V21.92ZM525.659 23.02H523.489V21.92H529.089V23.02H526.919V29H525.659V23.02ZM532.737 21.92H533.827L536.877 29H535.437L534.777 27.38H531.707L531.067 29H529.657L532.737 21.92ZM534.337 26.3L533.247 23.42L532.137 26.3H534.337ZM538.777 21.92H540.037V29H538.777V21.92ZM542.8 21.92H544.06V27.88H547.07V29H542.8V21.92ZM552.717 23.4C552.584 23.2267 552.394 23.0833 552.147 22.97C551.907 22.85 551.664 22.79 551.417 22.79C551.27 22.79 551.124 22.81 550.977 22.85C550.83 22.8833 550.697 22.94 550.577 23.02C550.457 23.0933 550.357 23.1933 550.277 23.32C550.204 23.44 550.167 23.5867 550.167 23.76C550.167 23.92 550.2 24.0567 550.267 24.17C550.334 24.2833 550.424 24.38 550.537 24.46C550.657 24.54 550.8 24.61 550.967 24.67C551.134 24.73 551.317 24.79 551.517 24.85C551.744 24.9233 551.977 25.0067 552.217 25.1C552.464 25.1933 552.687 25.3167 552.887 25.47C553.094 25.6233 553.26 25.8167 553.387 26.05C553.52 26.2833 553.587 26.5733 553.587 26.92C553.587 27.3 553.517 27.6333 553.377 27.92C553.237 28.2 553.05 28.4333 552.817 28.62C552.584 28.8067 552.31 28.9467 551.997 29.04C551.684 29.1333 551.354 29.18 551.007 29.18C550.547 29.18 550.097 29.0967 549.657 28.93C549.217 28.7567 548.857 28.5033 548.577 28.17L549.477 27.33C549.65 27.57 549.88 27.76 550.167 27.9C550.46 28.04 550.747 28.11 551.027 28.11C551.174 28.11 551.324 28.0933 551.477 28.06C551.63 28.02 551.767 27.9567 551.887 27.87C552.014 27.7833 552.114 27.6767 552.187 27.55C552.267 27.4167 552.307 27.2533 552.307 27.06C552.307 26.8733 552.264 26.72 552.177 26.6C552.09 26.4733 551.974 26.3667 551.827 26.28C551.68 26.1867 551.507 26.1067 551.307 26.04C551.107 25.9733 550.897 25.9033 550.677 25.83C550.464 25.7633 550.25 25.6833 550.037 25.59C549.824 25.4967 549.63 25.3733 549.457 25.22C549.29 25.0667 549.154 24.88 549.047 24.66C548.94 24.4333 548.887 24.1533 548.887 23.82C548.887 23.46 548.96 23.15 549.107 22.89C549.26 22.63 549.457 22.4167 549.697 22.25C549.944 22.0767 550.22 21.95 550.527 21.87C550.84 21.7833 551.157 21.74 551.477 21.74C551.837 21.74 552.2 21.8033 552.567 21.93C552.94 22.0567 553.264 22.2467 553.537 22.5L552.717 23.4Z" fill="#AAAAAA"/>
<path d="M744.309 21.92H746.769C747.103 21.92 747.426 21.9567 747.739 22.03C748.053 22.0967 748.329 22.21 748.569 22.37C748.816 22.53 749.013 22.74 749.159 23C749.306 23.26 749.379 23.5767 749.379 23.95C749.379 24.4633 749.233 24.8833 748.939 25.21C748.653 25.53 748.259 25.7467 747.759 25.86L749.649 29H748.129L746.489 26H745.569V29H744.309V21.92ZM746.599 24.97C746.779 24.97 746.959 24.9567 747.139 24.93C747.319 24.9033 747.479 24.8533 747.619 24.78C747.766 24.7067 747.886 24.6033 747.979 24.47C748.073 24.33 748.119 24.1533 748.119 23.94C748.119 23.7467 748.076 23.59 747.989 23.47C747.903 23.3433 747.793 23.2433 747.659 23.17C747.526 23.0967 747.373 23.0467 747.199 23.02C747.033 22.9933 746.869 22.98 746.709 22.98H745.569V24.97H746.599ZM751.798 21.92H756.488V23.02H753.058V24.82H756.308V25.88H753.058V27.88H756.668V29H751.798V21.92ZM760.532 23.02H758.362V21.92H763.962V23.02H761.792V29H760.532V23.02ZM767.61 21.92H768.7L771.75 29H770.31L769.65 27.38H766.58L765.94 29H764.53L767.61 21.92ZM769.21 26.3L768.12 23.42L767.01 26.3H769.21ZM773.65 21.92H774.91V29H773.65V21.92ZM777.673 21.92H778.933V27.88H781.943V29H777.673V21.92Z" fill="#AAAAAA"/>
<path d="M810.103 21.92H811.363V24.78H814.673V21.92H815.933V29H814.673V25.86H811.363V29H810.103V21.92ZM818.695 21.92H821.005C821.412 21.92 821.779 21.9567 822.105 22.03C822.432 22.1033 822.712 22.2233 822.945 22.39C823.179 22.5567 823.359 22.77 823.485 23.03C823.612 23.29 823.675 23.6033 823.675 23.97C823.675 24.3633 823.602 24.6933 823.455 24.96C823.309 25.2267 823.109 25.4433 822.855 25.61C822.609 25.77 822.319 25.8867 821.985 25.96C821.652 26.0333 821.299 26.07 820.925 26.07H819.955V29H818.695V21.92ZM820.835 25.01C821.042 25.01 821.239 24.9967 821.425 24.97C821.612 24.9367 821.779 24.8833 821.925 24.81C822.072 24.73 822.189 24.6233 822.275 24.49C822.362 24.3567 822.405 24.1833 822.405 23.97C822.405 23.7633 822.362 23.5967 822.275 23.47C822.189 23.3367 822.072 23.2333 821.925 23.16C821.785 23.0867 821.622 23.04 821.435 23.02C821.255 22.9933 821.069 22.98 820.875 22.98H819.955V25.01H820.835ZM829.699 21.92H832.009C832.415 21.92 832.782 21.9567 833.109 22.03C833.435 22.1033 833.715 22.2233 833.949 22.39C834.182 22.5567 834.362 22.77 834.489 23.03C834.615 23.29 834.679 23.6033 834.679 23.97C834.679 24.3633 834.605 24.6933 834.459 24.96C834.312 25.2267 834.112 25.4433 833.859 25.61C833.612 25.77 833.322 25.8867 832.989 25.96C832.655 26.0333 832.302 26.07 831.929 26.07H830.959V29H829.699V21.92ZM831.839 25.01C832.045 25.01 832.242 24.9967 832.429 24.97C832.615 24.9367 832.782 24.8833 832.929 24.81C833.075 24.73 833.192 24.6233 833.279 24.49C833.365 24.3567 833.409 24.1833 833.409 23.97C833.409 23.7633 833.365 23.5967 833.279 23.47C833.192 23.3367 833.075 23.2333 832.929 23.16C832.789 23.0867 832.625 23.04 832.439 23.02C832.259 22.9933 832.072 22.98 831.879 22.98H830.959V25.01H831.839ZM837.002 21.92H839.462C839.796 21.92 840.119 21.9567 840.432 22.03C840.746 22.0967 841.022 22.21 841.262 22.37C841.509 22.53 841.706 22.74 841.852 23C841.999 23.26 842.072 23.5767 842.072 23.95C842.072 24.4633 841.926 24.8833 841.632 25.21C841.346 25.53 840.952 25.7467 840.452 25.86L842.342 29H840.822L839.182 26H838.262V29H837.002V21.92ZM839.292 24.97C839.472 24.97 839.652 24.9567 839.832 24.93C840.012 24.9033 840.172 24.8533 840.312 24.78C840.459 24.7067 840.579 24.6033 840.672 24.47C840.766 24.33 840.812 24.1533 840.812 23.94C840.812 23.7467 840.769 23.59 840.682 23.47C840.596 23.3433 840.486 23.2433 840.352 23.17C840.219 23.0967 840.066 23.0467 839.892 23.02C839.726 22.9933 839.562 22.98 839.402 22.98H838.262V24.97H839.292ZM844.491 21.92H845.751V29H844.491V21.92ZM853.624 23.58C853.437 23.3267 853.194 23.1433 852.894 23.03C852.594 22.91 852.3 22.85 852.014 22.85C851.647 22.85 851.314 22.9167 851.014 23.05C850.714 23.1833 850.454 23.3667 850.234 23.6C850.02 23.8333 849.854 24.1067 849.734 24.42C849.62 24.7333 849.564 25.0733 849.564 25.44C849.564 25.8267 849.62 26.18 849.734 26.5C849.847 26.82 850.007 27.0967 850.214 27.33C850.427 27.5567 850.68 27.7333 850.974 27.86C851.267 27.9867 851.597 28.05 851.964 28.05C852.344 28.05 852.68 27.9767 852.974 27.83C853.267 27.6767 853.504 27.4767 853.684 27.23L854.694 27.94C854.38 28.3333 853.997 28.64 853.544 28.86C853.09 29.0733 852.56 29.18 851.954 29.18C851.4 29.18 850.89 29.09 850.424 28.91C849.964 28.7233 849.567 28.4667 849.234 28.14C848.9 27.8067 848.64 27.4133 848.454 26.96C848.267 26.5 848.174 25.9933 848.174 25.44C848.174 24.8733 848.27 24.3633 848.464 23.91C848.664 23.45 848.934 23.06 849.274 22.74C849.62 22.42 850.027 22.1733 850.494 22C850.96 21.8267 851.467 21.74 852.014 21.74C852.24 21.74 852.477 21.7633 852.724 21.81C852.97 21.85 853.207 21.9167 853.434 22.01C853.66 22.0967 853.874 22.2067 854.074 22.34C854.274 22.4733 854.444 22.6333 854.584 22.82L853.624 23.58ZM856.676 21.92H861.366V23.02H857.936V24.82H861.186V25.88H857.936V27.88H861.546V29H856.676V21.92Z" fill="#AAAAAA"/>
<path d="M896.691 29H892.421C891.854 29 891.338 28.92 890.871 28.76C890.411 28.5933 890.014 28.3567 889.681 28.05C889.354 27.7367 889.101 27.3567 888.921 26.91C888.741 26.4567 888.651 25.9433 888.651 25.37C888.651 24.83 888.744 24.34 888.931 23.9C889.124 23.4533 889.391 23.07 889.731 22.75C890.071 22.43 890.471 22.1833 890.931 22.01C891.398 21.83 891.901 21.74 892.441 21.74C892.981 21.74 893.481 21.83 893.941 22.01C894.401 22.1833 894.798 22.43 895.131 22.75C895.471 23.07 895.734 23.4533 895.921 23.9C896.108 24.34 896.201 24.83 896.201 25.37C896.201 25.69 896.164 25.9833 896.091 26.25C896.018 26.5167 895.921 26.76 895.801 26.98C895.688 27.1933 895.554 27.3833 895.401 27.55C895.254 27.71 895.101 27.8467 894.941 27.96V27.98H896.691V29ZM892.441 22.87C892.101 22.87 891.781 22.9333 891.481 23.06C891.188 23.1867 890.934 23.36 890.721 23.58C890.508 23.8 890.338 24.0633 890.211 24.37C890.091 24.6767 890.031 25.01 890.031 25.37C890.031 25.75 890.088 26.0967 890.201 26.41C890.321 26.7167 890.484 26.98 890.691 27.2C890.904 27.42 891.158 27.5933 891.451 27.72C891.744 27.84 892.068 27.9 892.421 27.9C892.768 27.9 893.088 27.84 893.381 27.72C893.681 27.5933 893.938 27.42 894.151 27.2C894.364 26.98 894.531 26.7167 894.651 26.41C894.771 26.0967 894.831 25.75 894.831 25.37C894.831 25.01 894.774 24.6767 894.661 24.37C894.548 24.0633 894.384 23.8 894.171 23.58C893.964 23.36 893.714 23.1867 893.421 23.06C893.128 22.9333 892.801 22.87 892.441 22.87ZM900.206 23.02H898.036V21.92H903.636V23.02H901.466V29H900.206V23.02ZM907.253 25.93L904.593 21.92H906.133L907.913 24.9L909.713 21.92H911.173L908.513 25.93V29H907.253V25.93ZM911.902 28.3C911.902 28.0867 911.979 27.9033 912.132 27.75C912.292 27.5967 912.482 27.52 912.702 27.52C912.916 27.52 913.102 27.5933 913.262 27.74C913.422 27.8867 913.502 28.0667 913.502 28.28C913.502 28.4933 913.422 28.6767 913.262 28.83C913.109 28.9833 912.922 29.06 912.702 29.06C912.596 29.06 912.492 29.04 912.392 29C912.299 28.96 912.216 28.9067 912.142 28.84C912.069 28.7733 912.009 28.6933 911.962 28.6C911.922 28.5067 911.902 28.4067 911.902 28.3Z" fill="#AAAAAA"/>
<path d="M960.59 23.02H958.42V21.92H964.02V23.02H961.85V29H960.59V23.02ZM965.401 25.44C965.401 24.8733 965.494 24.3633 965.681 23.91C965.874 23.45 966.137 23.06 966.471 22.74C966.811 22.42 967.211 22.1733 967.671 22C968.137 21.8267 968.644 21.74 969.191 21.74C969.744 21.74 970.254 21.8267 970.721 22C971.187 22.1733 971.591 22.42 971.931 22.74C972.271 23.06 972.534 23.45 972.721 23.91C972.914 24.3633 973.011 24.8733 973.011 25.44C973.011 25.9933 972.914 26.5 972.721 26.96C972.534 27.4133 972.271 27.8067 971.931 28.14C971.591 28.4667 971.187 28.7233 970.721 28.91C970.254 29.09 969.744 29.18 969.191 29.18C968.644 29.18 968.137 29.09 967.671 28.91C967.211 28.7233 966.811 28.4667 966.471 28.14C966.137 27.8067 965.874 27.4133 965.681 26.96C965.494 26.5 965.401 25.9933 965.401 25.44ZM966.771 25.44C966.771 25.82 966.827 26.17 966.941 26.49C967.061 26.8033 967.227 27.0767 967.441 27.31C967.661 27.5433 967.917 27.7267 968.211 27.86C968.511 27.9867 968.841 28.05 969.201 28.05C969.561 28.05 969.891 27.9867 970.191 27.86C970.491 27.7267 970.747 27.5433 970.961 27.31C971.181 27.0767 971.347 26.8033 971.461 26.49C971.581 26.17 971.641 25.82 971.641 25.44C971.641 25.0733 971.581 24.7333 971.461 24.42C971.347 24.1067 971.184 23.8333 970.971 23.6C970.757 23.3667 970.501 23.1833 970.201 23.05C969.901 22.9167 969.567 22.85 969.201 22.85C968.834 22.85 968.501 22.9167 968.201 23.05C967.907 23.1833 967.654 23.3667 967.441 23.6C967.227 23.8333 967.061 24.1067 966.941 24.42C966.827 24.7333 966.771 25.0733 966.771 25.44ZM976.554 23.02H974.384V21.92H979.984V23.02H977.814V29H976.554V23.02ZM983.632 21.92H984.722L987.772 29H986.332L985.672 27.38H982.602L981.962 29H980.552L983.632 21.92ZM985.232 26.3L984.142 23.42L983.032 26.3H985.232ZM989.673 21.92H990.933V27.88H993.943V29H989.673V21.92Z" fill="#AAAAAA"/>
<path d="M1048.01 21.92H1050.77C1051.04 21.92 1051.3 21.9533 1051.56 22.02C1051.82 22.08 1052.05 22.1833 1052.25 22.33C1052.46 22.47 1052.62 22.6533 1052.75 22.88C1052.88 23.1067 1052.94 23.38 1052.94 23.7C1052.94 24.1 1052.83 24.43 1052.6 24.69C1052.37 24.95 1052.08 25.1367 1051.71 25.25V25.27C1052.16 25.33 1052.52 25.5033 1052.81 25.79C1053.1 26.0767 1053.24 26.46 1053.24 26.94C1053.24 27.3267 1053.16 27.6533 1053.01 27.92C1052.86 28.18 1052.65 28.39 1052.4 28.55C1052.15 28.71 1051.87 28.8267 1051.54 28.9C1051.22 28.9667 1050.89 29 1050.56 29H1048.01V21.92ZM1049.27 24.8H1050.39C1050.81 24.8 1051.13 24.7167 1051.35 24.55C1051.57 24.3833 1051.68 24.1467 1051.68 23.84C1051.68 23.52 1051.57 23.2933 1051.34 23.16C1051.11 23.0267 1050.76 22.96 1050.28 22.96H1049.27V24.8ZM1049.27 27.94H1050.4C1050.56 27.94 1050.73 27.93 1050.92 27.91C1051.11 27.8833 1051.28 27.8333 1051.43 27.76C1051.59 27.6867 1051.72 27.58 1051.82 27.44C1051.93 27.3 1051.98 27.1133 1051.98 26.88C1051.98 26.5067 1051.85 26.2467 1051.6 26.1C1051.35 25.9533 1050.96 25.88 1050.45 25.88H1049.27V27.94ZM1061.32 26.4C1061.32 26.8267 1061.25 27.2133 1061.1 27.56C1060.96 27.9 1060.76 28.19 1060.5 28.43C1060.25 28.67 1059.95 28.8567 1059.6 28.99C1059.26 29.1167 1058.88 29.18 1058.47 29.18C1058.07 29.18 1057.69 29.1167 1057.34 28.99C1057 28.8567 1056.69 28.67 1056.43 28.43C1056.18 28.19 1055.98 27.9 1055.83 27.56C1055.69 27.2133 1055.62 26.8267 1055.62 26.4V21.92H1056.88V26.35C1056.88 26.5567 1056.91 26.7633 1056.96 26.97C1057.02 27.17 1057.1 27.35 1057.22 27.51C1057.35 27.67 1057.51 27.8 1057.71 27.9C1057.92 28 1058.17 28.05 1058.47 28.05C1058.77 28.05 1059.02 28 1059.22 27.9C1059.43 27.8 1059.59 27.67 1059.71 27.51C1059.84 27.35 1059.93 27.17 1059.98 26.97C1060.04 26.7633 1060.06 26.5567 1060.06 26.35V21.92H1061.32V26.4ZM1064.02 21.92H1066.53C1066.99 21.92 1067.46 21.98 1067.92 22.1C1068.39 22.22 1068.81 22.42 1069.18 22.7C1069.56 22.9733 1069.86 23.3367 1070.09 23.79C1070.33 24.2367 1070.44 24.7933 1070.44 25.46C1070.44 26.08 1070.33 26.6133 1070.09 27.06C1069.86 27.5067 1069.56 27.8733 1069.18 28.16C1068.81 28.4467 1068.39 28.66 1067.92 28.8C1067.46 28.9333 1066.99 29 1066.53 29H1064.02V21.92ZM1066.33 27.9C1066.66 27.9 1066.99 27.8633 1067.31 27.79C1067.64 27.71 1067.93 27.58 1068.19 27.4C1068.46 27.2133 1068.68 26.9633 1068.84 26.65C1069.01 26.3367 1069.09 25.94 1069.09 25.46C1069.09 24.9533 1069.01 24.54 1068.84 24.22C1068.68 23.9 1068.46 23.65 1068.19 23.47C1067.93 23.29 1067.64 23.1667 1067.31 23.1C1066.99 23.0333 1066.66 23 1066.33 23H1065.28V27.9H1066.33ZM1079.06 28.63C1078.7 28.8033 1078.3 28.9367 1077.87 29.03C1077.44 29.13 1076.95 29.18 1076.39 29.18C1075.82 29.18 1075.29 29.09 1074.82 28.91C1074.35 28.7233 1073.94 28.4667 1073.6 28.14C1073.26 27.8067 1072.99 27.4133 1072.8 26.96C1072.61 26.5 1072.52 25.9933 1072.52 25.44C1072.52 24.8733 1072.62 24.3633 1072.81 23.91C1073.01 23.45 1073.28 23.06 1073.62 22.74C1073.97 22.42 1074.37 22.1733 1074.84 22C1075.31 21.8267 1075.81 21.74 1076.36 21.74C1076.93 21.74 1077.44 21.8233 1077.91 21.99C1078.38 22.15 1078.76 22.3633 1079.05 22.63L1078.18 23.57C1078 23.37 1077.75 23.2 1077.42 23.06C1077.1 22.92 1076.75 22.85 1076.37 22.85C1076 22.85 1075.66 22.9167 1075.35 23.05C1075.05 23.1833 1074.79 23.3667 1074.58 23.6C1074.37 23.8333 1074.2 24.1067 1074.08 24.42C1073.97 24.7333 1073.91 25.0733 1073.91 25.44C1073.91 25.82 1073.97 26.17 1074.08 26.49C1074.2 26.8033 1074.37 27.0767 1074.58 27.31C1074.8 27.5433 1075.06 27.7267 1075.37 27.86C1075.68 27.9867 1076.04 28.05 1076.43 28.05C1076.97 28.05 1077.44 27.9667 1077.84 27.8V26H1076.35V24.96H1079.06V28.63ZM1081.79 21.92H1086.48V23.02H1083.05V24.82H1086.3V25.88H1083.05V27.88H1086.66V29H1081.79V21.92ZM1090.53 23.02H1088.36V21.92H1093.96V23.02H1091.79V29H1090.53V23.02Z" fill="#AAAAAA"/>
<path d="M1214.69 23.4C1214.55 23.2267 1214.36 23.0833 1214.12 22.97C1213.88 22.85 1213.63 22.79 1213.39 22.79C1213.24 22.79 1213.09 22.81 1212.95 22.85C1212.8 22.8833 1212.67 22.94 1212.55 23.02C1212.43 23.0933 1212.33 23.1933 1212.25 23.32C1212.17 23.44 1212.14 23.5867 1212.14 23.76C1212.14 23.92 1212.17 24.0567 1212.24 24.17C1212.3 24.2833 1212.39 24.38 1212.51 24.46C1212.63 24.54 1212.77 24.61 1212.94 24.67C1213.1 24.73 1213.29 24.79 1213.49 24.85C1213.71 24.9233 1213.95 25.0067 1214.19 25.1C1214.43 25.1933 1214.66 25.3167 1214.86 25.47C1215.06 25.6233 1215.23 25.8167 1215.36 26.05C1215.49 26.2833 1215.56 26.5733 1215.56 26.92C1215.56 27.3 1215.49 27.6333 1215.35 27.92C1215.21 28.2 1215.02 28.4333 1214.79 28.62C1214.55 28.8067 1214.28 28.9467 1213.97 29.04C1213.65 29.1333 1213.32 29.18 1212.98 29.18C1212.52 29.18 1212.07 29.0967 1211.63 28.93C1211.19 28.7567 1210.83 28.5033 1210.55 28.17L1211.45 27.33C1211.62 27.57 1211.85 27.76 1212.14 27.9C1212.43 28.04 1212.72 28.11 1213 28.11C1213.14 28.11 1213.29 28.0933 1213.45 28.06C1213.6 28.02 1213.74 27.9567 1213.86 27.87C1213.98 27.7833 1214.08 27.6767 1214.16 27.55C1214.24 27.4167 1214.28 27.2533 1214.28 27.06C1214.28 26.8733 1214.23 26.72 1214.15 26.6C1214.06 26.4733 1213.94 26.3667 1213.8 26.28C1213.65 26.1867 1213.48 26.1067 1213.28 26.04C1213.08 25.9733 1212.87 25.9033 1212.65 25.83C1212.43 25.7633 1212.22 25.6833 1212.01 25.59C1211.79 25.4967 1211.6 25.3733 1211.43 25.22C1211.26 25.0667 1211.12 24.88 1211.02 24.66C1210.91 24.4333 1210.86 24.1533 1210.86 23.82C1210.86 23.46 1210.93 23.15 1211.08 22.89C1211.23 22.63 1211.43 22.4167 1211.67 22.25C1211.91 22.0767 1212.19 21.95 1212.5 21.87C1212.81 21.7833 1213.13 21.74 1213.45 21.74C1213.81 21.74 1214.17 21.8033 1214.54 21.93C1214.91 22.0567 1215.23 22.2467 1215.51 22.5L1214.69 23.4ZM1219.29 23.02H1217.12V21.92H1222.72V23.02H1220.55V29H1219.29V23.02ZM1226.37 21.92H1227.46L1230.51 29H1229.07L1228.41 27.38H1225.34L1224.7 29H1223.29L1226.37 21.92ZM1227.97 26.3L1226.88 23.42L1225.77 26.3H1227.97ZM1233.25 23.02H1231.08V21.92H1236.68V23.02H1234.51V29H1233.25V23.02ZM1244.34 26.4C1244.34 26.8267 1244.27 27.2133 1244.12 27.56C1243.97 27.9 1243.77 28.19 1243.52 28.43C1243.27 28.67 1242.97 28.8567 1242.62 28.99C1242.27 29.1167 1241.9 29.18 1241.49 29.18C1241.08 29.18 1240.71 29.1167 1240.36 28.99C1240.01 28.8567 1239.71 28.67 1239.45 28.43C1239.2 28.19 1239 27.9 1238.85 27.56C1238.71 27.2133 1238.64 26.8267 1238.64 26.4V21.92H1239.9V26.35C1239.9 26.5567 1239.93 26.7633 1239.98 26.97C1240.03 27.17 1240.12 27.35 1240.24 27.51C1240.37 27.67 1240.53 27.8 1240.73 27.9C1240.94 28 1241.19 28.05 1241.49 28.05C1241.79 28.05 1242.04 28 1242.24 27.9C1242.45 27.8 1242.61 27.67 1242.73 27.51C1242.86 27.35 1242.95 27.17 1243 26.97C1243.05 26.7633 1243.08 26.5567 1243.08 26.35V21.92H1244.34V26.4ZM1250.65 23.4C1250.51 23.2267 1250.32 23.0833 1250.08 22.97C1249.84 22.85 1249.59 22.79 1249.35 22.79C1249.2 22.79 1249.05 22.81 1248.91 22.85C1248.76 22.8833 1248.63 22.94 1248.51 23.02C1248.39 23.0933 1248.29 23.1933 1248.21 23.32C1248.13 23.44 1248.1 23.5867 1248.1 23.76C1248.1 23.92 1248.13 24.0567 1248.2 24.17C1248.26 24.2833 1248.35 24.38 1248.47 24.46C1248.59 24.54 1248.73 24.61 1248.9 24.67C1249.06 24.73 1249.25 24.79 1249.45 24.85C1249.67 24.9233 1249.91 25.0067 1250.15 25.1C1250.39 25.1933 1250.62 25.3167 1250.82 25.47C1251.02 25.6233 1251.19 25.8167 1251.32 26.05C1251.45 26.2833 1251.52 26.5733 1251.52 26.92C1251.52 27.3 1251.45 27.6333 1251.31 27.92C1251.17 28.2 1250.98 28.4333 1250.75 28.62C1250.51 28.8067 1250.24 28.9467 1249.93 29.04C1249.61 29.1333 1249.28 29.18 1248.94 29.18C1248.48 29.18 1248.03 29.0967 1247.59 28.93C1247.15 28.7567 1246.79 28.5033 1246.51 28.17L1247.41 27.33C1247.58 27.57 1247.81 27.76 1248.1 27.9C1248.39 28.04 1248.68 28.11 1248.96 28.11C1249.1 28.11 1249.25 28.0933 1249.41 28.06C1249.56 28.02 1249.7 27.9567 1249.82 27.87C1249.94 27.7833 1250.04 27.6767 1250.12 27.55C1250.2 27.4167 1250.24 27.2533 1250.24 27.06C1250.24 26.8733 1250.19 26.72 1250.11 26.6C1250.02 26.4733 1249.9 26.3667 1249.76 26.28C1249.61 26.1867 1249.44 26.1067 1249.24 26.04C1249.04 25.9733 1248.83 25.9033 1248.61 25.83C1248.39 25.7633 1248.18 25.6833 1247.97 25.59C1247.75 25.4967 1247.56 25.3733 1247.39 25.22C1247.22 25.0667 1247.08 24.88 1246.98 24.66C1246.87 24.4333 1246.82 24.1533 1246.82 23.82C1246.82 23.46 1246.89 23.15 1247.04 22.89C1247.19 22.63 1247.39 22.4167 1247.63 22.25C1247.87 22.0767 1248.15 21.95 1248.46 21.87C1248.77 21.7833 1249.09 21.74 1249.41 21.74C1249.77 21.74 1250.13 21.8033 1250.5 21.93C1250.87 22.0567 1251.19 22.2467 1251.47 22.5L1250.65 23.4Z" fill="#AAAAAA"/>
<path fill-rule="evenodd" clip-rule="evenodd" d="M0 53H16V113H0V53Z" fill="#A8A18F"/>
<path d="M16.5 53.5H31.5V112.5H16.5V53.5Z" fill="#DCDFD8" stroke="#A8A18F"/>
<path fill-rule="evenodd" clip-rule="evenodd" d="M32 53H45V113H32V53Z" fill="#A8A18F"/>
<path d="M45.5 53.5H124.5V112.5H45.5V53.5Z" fill="#DCDFD8" stroke="#A8A18F"/>
<path d="M125.5 53.5H196.5V112.5H125.5V53.5Z" fill="#DCDFD8" stroke="#A8A18F"/>
<path fill-rule="evenodd" clip-rule="evenodd" d="M197 53H217V113H197V53Z" fill="#A8A18F"/>
<path d="M217.5 53.5H361.5V112.5H217.5V53.5Z" fill="#DCDFD8" stroke="#A8A18F"/>
<path fill-rule="evenodd" clip-rule="evenodd" d="M362 53H368V113H362V53Z" fill="#A8A18F"/>
<path d="M368.5 53.5H465.5V112.5H368.5V53.5Z" fill="#DCDFD8" stroke="#A8A18F"/>
<path fill-rule="evenodd" clip-rule="evenodd" d="M466 53H475V113H466V53Z" fill="#A8A18F"/>
<path d="M475.5 53.5H701.5V112.5H475.5V53.5Z" fill="#DCDFD8" stroke="#A8A18F"/>
<path d="M702.5 53.5H781.5V112.5H702.5V53.5Z" fill="#DCDFD8" stroke="#A8A18F"/>
<path d="M782.5 53.5H861.5V112.5H782.5V53.5Z" fill="#DCDFD8" stroke="#A8A18F"/>
<path d="M862.5 53.5H912.5V112.5H862.5V53.5Z" fill="#DCDFD8" stroke="#A8A18F"/>
<path d="M913.5 53.5H992.5V112.5H913.5V53.5Z" fill="#DCDFD8" stroke="#A8A18F"/>
<path d="M993.5 53.5H1093.5V112.5H993.5V53.5Z" fill="#DCDFD8" stroke="#A8A18F"/>
<path d="M1094.5 53.5H1255.5V112.5H1094.5V53.5Z" fill="#DCDFD8" stroke="#A8A18F"/>
<path fill-rule="evenodd" clip-rule="evenodd" d="M1256 53H1268V113H1256V53Z" fill="#A8A18F"/>
</svg>
