<svg width="1268" height="120" viewBox="0 0 1268 120" fill="none" xmlns="http://www.w3.org/2000/svg">
<mask id="path-1-inside-1_309_16317" fill="white">
<path d="M0 0H1268V60H0V0Z"/>
</mask>
<path d="M0 0H1268V60H0V0Z" fill="white"/>
<path d="M1268 59H0V61H1268V59Z" fill="#D9D9D9" mask="url(#path-1-inside-1_309_16317)"/>
<path d="M323.66 33H322.94V25.92H323.66V33ZM329.008 33H328.288V26.56H325.918V25.92H331.378V26.56H329.008V33ZM334.361 32.36H338.151V33H333.641V25.92H338.031V26.56H334.361V29H337.791V29.63H334.361V32.36ZM344.259 31.78H344.269L346.639 25.92H347.739V33H347.019V26.85H346.999L344.439 33H344.059L341.499 26.85H341.479V33H340.759V25.92H341.859L344.259 31.78ZM354.516 25.92H356.866C357.306 25.92 357.746 25.9933 358.186 26.14C358.633 26.2867 359.033 26.51 359.386 26.81C359.746 27.1033 360.036 27.4733 360.256 27.92C360.476 28.36 360.586 28.8733 360.586 29.46C360.586 30.0533 360.476 30.57 360.256 31.01C360.036 31.45 359.746 31.82 359.386 32.12C359.033 32.4133 358.633 32.6333 358.186 32.78C357.746 32.9267 357.306 33 356.866 33H354.516V25.92ZM355.236 32.36H356.666C357.2 32.36 357.663 32.2767 358.056 32.11C358.456 31.9433 358.786 31.7267 359.046 31.46C359.306 31.1867 359.5 30.8767 359.626 30.53C359.76 30.1833 359.826 29.8267 359.826 29.46C359.826 29.0933 359.76 28.7367 359.626 28.39C359.5 28.0433 359.306 27.7367 359.046 27.47C358.786 27.1967 358.456 26.9767 358.056 26.81C357.663 26.6433 357.2 26.56 356.666 26.56H355.236V32.36ZM364.005 32.36H367.795V33H363.285V25.92H367.675V26.56H364.005V29H367.435V29.63H364.005V32.36ZM372.673 33H371.953V26.56H369.583V25.92H375.043V26.56H372.673V33ZM376.66 33H375.87L378.93 25.92H379.63L382.67 33H381.87L381.09 31.14H377.43L376.66 33ZM377.7 30.48H380.82L379.26 26.72L377.7 30.48ZM385.632 33H384.912V25.92H385.632V33ZM389.43 32.36H392.73V33H388.71V25.92H389.43V32.36ZM398.437 27.06C398.284 26.8467 398.087 26.6767 397.847 26.55C397.607 26.4167 397.317 26.35 396.977 26.35C396.804 26.35 396.627 26.3767 396.447 26.43C396.267 26.4833 396.104 26.5667 395.957 26.68C395.811 26.7867 395.691 26.9233 395.597 27.09C395.511 27.2567 395.467 27.4533 395.467 27.68C395.467 27.9067 395.511 28.0933 395.597 28.24C395.684 28.3867 395.797 28.5133 395.937 28.62C396.084 28.72 396.247 28.8033 396.427 28.87C396.614 28.9367 396.807 29.0033 397.007 29.07C397.254 29.15 397.501 29.2367 397.747 29.33C398.001 29.4233 398.227 29.5467 398.427 29.7C398.627 29.8467 398.791 30.0367 398.917 30.27C399.044 30.4967 399.107 30.7867 399.107 31.14C399.107 31.4933 399.037 31.8 398.897 32.06C398.764 32.3133 398.587 32.5233 398.367 32.69C398.154 32.8567 397.907 32.98 397.627 33.06C397.354 33.14 397.077 33.18 396.797 33.18C396.584 33.18 396.371 33.1567 396.157 33.11C395.944 33.07 395.741 33.0067 395.547 32.92C395.354 32.8333 395.174 32.7233 395.007 32.59C394.841 32.4567 394.694 32.3033 394.567 32.13L395.187 31.67C395.341 31.9233 395.554 32.1367 395.827 32.31C396.107 32.4767 396.434 32.56 396.807 32.56C396.987 32.56 397.171 32.5333 397.357 32.48C397.544 32.42 397.711 32.3333 397.857 32.22C398.011 32.1 398.134 31.9567 398.227 31.79C398.327 31.6167 398.377 31.4167 398.377 31.19C398.377 30.9433 398.327 30.74 398.227 30.58C398.134 30.4133 398.007 30.2767 397.847 30.17C397.687 30.0567 397.504 29.9633 397.297 29.89C397.091 29.8167 396.874 29.7433 396.647 29.67C396.414 29.5967 396.184 29.5133 395.957 29.42C395.731 29.3267 395.527 29.2067 395.347 29.06C395.167 28.9067 395.021 28.72 394.907 28.5C394.801 28.28 394.747 28.01 394.747 27.69C394.747 27.35 394.814 27.0567 394.947 26.81C395.087 26.5633 395.267 26.36 395.487 26.2C395.707 26.04 395.951 25.9233 396.217 25.85C396.484 25.7767 396.747 25.74 397.007 25.74C397.487 25.74 397.897 25.8267 398.237 26C398.577 26.1667 398.834 26.3667 399.007 26.6L398.437 27.06Z" fill="#111111"/>
<rect x="16.5" y="22" width="15" height="15" fill="white"/>
<rect x="16.5" y="22" width="15" height="15" stroke="#757575"/>
<path d="M49.21 33H48.49V26.56H46.12V25.92H51.58V26.56H49.21V33ZM56.1559 33H55.4359V29.95L52.7859 25.92H53.6859L55.8159 29.35L57.9659 25.92H58.8059L56.1559 29.95V33ZM60.9416 25.92H62.9416C63.3016 25.92 63.6282 25.96 63.9216 26.04C64.2149 26.1133 64.4649 26.23 64.6716 26.39C64.8849 26.5433 65.0482 26.74 65.1616 26.98C65.2749 27.2133 65.3316 27.49 65.3316 27.81C65.3316 28.13 65.2716 28.41 65.1516 28.65C65.0382 28.8833 64.8749 29.08 64.6616 29.24C64.4549 29.3933 64.2016 29.51 63.9016 29.59C63.6082 29.67 63.2816 29.71 62.9216 29.71H61.6616V33H60.9416V25.92ZM61.6616 29.1H62.8816C63.4482 29.1 63.8782 28.99 64.1716 28.77C64.4649 28.55 64.6116 28.23 64.6116 27.81C64.6116 27.37 64.4582 27.05 64.1516 26.85C63.8516 26.6433 63.4282 26.54 62.8816 26.54H61.6616V29.1ZM68.6623 32.36H72.4523V33H67.9423V25.92H72.3323V26.56H68.6623V29H72.0923V29.63H68.6623V32.36Z" fill="#111111"/>
<path d="M111.66 33H110.94V25.92H111.66V33ZM118.238 31.78H118.248L120.618 25.92H121.718V33H120.998V26.85H120.978L118.418 33H118.038L115.478 26.85H115.458V33H114.738V25.92H115.838L118.238 31.78ZM124.745 33H123.955L127.015 25.92H127.715L130.755 33H129.955L129.175 31.14H125.515L124.745 33ZM125.785 30.48H128.905L127.345 26.72L125.785 30.48ZM138.191 27.19C137.945 26.93 137.651 26.73 137.311 26.59C136.971 26.4433 136.581 26.37 136.141 26.37C135.688 26.37 135.278 26.4533 134.911 26.62C134.551 26.7867 134.245 27.0133 133.991 27.3C133.738 27.58 133.541 27.9067 133.401 28.28C133.268 28.6533 133.201 29.0467 133.201 29.46C133.201 29.8733 133.268 30.2667 133.401 30.64C133.541 31.0133 133.738 31.34 133.991 31.62C134.245 31.9 134.551 32.1233 134.911 32.29C135.278 32.4567 135.688 32.54 136.141 32.54C136.541 32.54 136.908 32.4967 137.241 32.41C137.575 32.3233 137.845 32.2133 138.051 32.08V29.93H136.401V29.3H138.771V32.49C138.385 32.7233 137.968 32.8967 137.521 33.01C137.075 33.1233 136.611 33.18 136.131 33.18C135.598 33.18 135.105 33.0867 134.651 32.9C134.198 32.7133 133.808 32.4567 133.481 32.13C133.155 31.7967 132.898 31.4033 132.711 30.95C132.531 30.4967 132.441 30 132.441 29.46C132.441 28.92 132.535 28.4233 132.721 27.97C132.908 27.5167 133.165 27.1267 133.491 26.8C133.825 26.4667 134.215 26.2067 134.661 26.02C135.115 25.8333 135.605 25.74 136.131 25.74C136.698 25.74 137.191 25.8233 137.611 25.99C138.031 26.1567 138.391 26.39 138.691 26.69L138.191 27.19ZM142.534 32.36H146.324V33H141.814V25.92H146.204V26.56H142.534V29H145.964V29.63H142.534V32.36Z" fill="#111111"/>
<path d="M183.66 33H182.94V25.92H183.66V33ZM189.008 33H188.288V26.56H185.918V25.92H191.378V26.56H189.008V33ZM194.361 32.36H198.151V33H193.641V25.92H198.031V26.56H194.361V29H197.791V29.63H194.361V32.36ZM204.259 31.78H204.269L206.639 25.92H207.739V33H207.019V26.85H206.999L204.439 33H204.059L201.499 26.85H201.479V33H200.759V25.92H201.859L204.259 31.78ZM219.536 31.95H219.556V25.92H220.276V33H219.376L215.256 26.91H215.236V33H214.516V25.92H215.416L219.536 31.95ZM223.303 33H222.513L225.573 25.92H226.273L229.313 33H228.513L227.733 31.14H224.073L223.303 33ZM224.343 30.48H227.463L225.903 26.72L224.343 30.48ZM235.055 31.78H235.065L237.435 25.92H238.535V33H237.815V26.85H237.795L235.235 33H234.855L232.295 26.85H232.275V33H231.555V25.92H232.655L235.055 31.78ZM242.332 32.36H246.122V33H241.612V25.92H246.002V26.56H242.332V29H245.762V29.63H242.332V32.36Z" fill="#111111"/>
<path d="M589.11 32.07H589.13L591.43 25.92H592.2L589.49 33H588.73L586.03 25.92H586.81L589.11 32.07ZM595.09 32.36H598.88V33H594.37V25.92H598.76V26.56H595.09V29H598.52V29.63H595.09V32.36ZM606.508 31.95H606.528V25.92H607.248V33H606.348L602.228 26.91H602.208V33H601.488V25.92H602.388L606.508 31.95ZM610.325 25.92H612.675C613.115 25.92 613.555 25.9933 613.995 26.14C614.442 26.2867 614.842 26.51 615.195 26.81C615.555 27.1033 615.845 27.4733 616.065 27.92C616.285 28.36 616.395 28.8733 616.395 29.46C616.395 30.0533 616.285 30.57 616.065 31.01C615.845 31.45 615.555 31.82 615.195 32.12C614.842 32.4133 614.442 32.6333 613.995 32.78C613.555 32.9267 613.115 33 612.675 33H610.325V25.92ZM611.045 32.36H612.475C613.008 32.36 613.472 32.2767 613.865 32.11C614.265 31.9433 614.595 31.7267 614.855 31.46C615.115 31.1867 615.308 30.8767 615.435 30.53C615.568 30.1833 615.635 29.8267 615.635 29.46C615.635 29.0933 615.568 28.7367 615.435 28.39C615.308 28.0433 615.115 27.7367 614.855 27.47C614.595 27.1967 614.265 26.9767 613.865 26.81C613.472 26.6433 613.008 26.56 612.475 26.56H611.045V32.36ZM626.094 29.46C626.094 30 626 30.4967 625.814 30.95C625.627 31.4033 625.367 31.7967 625.034 32.13C624.707 32.4567 624.317 32.7133 623.864 32.9C623.417 33.0867 622.93 33.18 622.404 33.18C621.877 33.18 621.387 33.0867 620.934 32.9C620.487 32.7133 620.097 32.4567 619.764 32.13C619.437 31.7967 619.18 31.4033 618.994 30.95C618.807 30.4967 618.714 30 618.714 29.46C618.714 28.92 618.807 28.4233 618.994 27.97C619.18 27.5167 619.437 27.1267 619.764 26.8C620.097 26.4667 620.487 26.2067 620.934 26.02C621.387 25.8333 621.877 25.74 622.404 25.74C622.93 25.74 623.417 25.8333 623.864 26.02C624.317 26.2067 624.707 26.4667 625.034 26.8C625.367 27.1267 625.627 27.5167 625.814 27.97C626 28.4233 626.094 28.92 626.094 29.46ZM625.334 29.46C625.334 29.0467 625.267 28.6533 625.134 28.28C625 27.9067 624.807 27.58 624.554 27.3C624.3 27.0133 623.99 26.7867 623.624 26.62C623.264 26.4533 622.857 26.37 622.404 26.37C621.95 26.37 621.54 26.4533 621.174 26.62C620.814 26.7867 620.507 27.0133 620.254 27.3C620 27.58 619.807 27.9067 619.674 28.28C619.54 28.6533 619.474 29.0467 619.474 29.46C619.474 29.8733 619.54 30.2667 619.674 30.64C619.807 31.0133 620 31.34 620.254 31.62C620.507 31.9 620.814 32.1233 621.174 32.29C621.54 32.4567 621.95 32.54 622.404 32.54C622.857 32.54 623.264 32.4567 623.624 32.29C623.99 32.1233 624.3 31.9 624.554 31.62C624.807 31.34 625 31.0133 625.134 30.64C625.267 30.2667 625.334 29.8733 625.334 29.46ZM629.51 33H628.79V25.92H630.87C631.216 25.92 631.536 25.9533 631.83 26.02C632.13 26.0867 632.386 26.1967 632.6 26.35C632.82 26.4967 632.99 26.69 633.11 26.93C633.23 27.17 633.29 27.4633 633.29 27.81C633.29 28.07 633.243 28.3067 633.15 28.52C633.056 28.7333 632.93 28.92 632.77 29.08C632.61 29.2333 632.42 29.3567 632.2 29.45C631.98 29.5433 631.74 29.6033 631.48 29.63L633.55 33H632.67L630.71 29.69H629.51V33ZM629.51 29.07H630.76C631.34 29.07 631.786 28.9667 632.1 28.76C632.413 28.5467 632.57 28.23 632.57 27.81C632.57 27.5767 632.526 27.38 632.44 27.22C632.353 27.06 632.233 26.93 632.08 26.83C631.926 26.73 631.74 26.6567 631.52 26.61C631.3 26.5633 631.056 26.54 630.79 26.54H629.51V29.07Z" fill="#111111"/>
<path d="M728.951 33H728.231V25.92H730.311C730.658 25.92 730.978 25.9533 731.271 26.02C731.571 26.0867 731.828 26.1967 732.041 26.35C732.261 26.4967 732.431 26.69 732.551 26.93C732.671 27.17 732.731 27.4633 732.731 27.81C732.731 28.07 732.684 28.3067 732.591 28.52C732.498 28.7333 732.371 28.92 732.211 29.08C732.051 29.2333 731.861 29.3567 731.641 29.45C731.421 29.5433 731.181 29.6033 730.921 29.63L732.991 33H732.111L730.151 29.69H728.951V33ZM728.951 29.07H730.201C730.781 29.07 731.228 28.9667 731.541 28.76C731.854 28.5467 732.011 28.23 732.011 27.81C732.011 27.5767 731.968 27.38 731.881 27.22C731.794 27.06 731.674 26.93 731.521 26.83C731.368 26.73 731.181 26.6567 730.961 26.61C730.741 26.5633 730.498 26.54 730.231 26.54H728.951V29.07ZM736.137 32.36H739.927V33H735.417V25.92H739.807V26.56H736.137V29H739.567V29.63H736.137V32.36ZM744.805 33H744.085V26.56H741.715V25.92H747.175V26.56H744.805V33ZM748.793 33H748.003L751.063 25.92H751.763L754.803 33H754.003L753.223 31.14H749.563L748.793 33ZM749.833 30.48H752.953L751.393 26.72L749.833 30.48ZM757.765 33H757.045V25.92H757.765V33ZM761.562 32.36H764.862V33H760.842V25.92H761.562V32.36Z" fill="#111111"/>
<path d="M794.561 25.92H795.281V28.99H799.141V25.92H799.861V33H799.141V29.65H795.281V33H794.561V25.92ZM802.939 25.92H804.939C805.299 25.92 805.626 25.96 805.919 26.04C806.213 26.1133 806.463 26.23 806.669 26.39C806.883 26.5433 807.046 26.74 807.159 26.98C807.273 27.2133 807.329 27.49 807.329 27.81C807.329 28.13 807.269 28.41 807.149 28.65C807.036 28.8833 806.873 29.08 806.659 29.24C806.453 29.3933 806.199 29.51 805.899 29.59C805.606 29.67 805.279 29.71 804.919 29.71H803.659V33H802.939V25.92ZM803.659 29.1H804.879C805.446 29.1 805.876 28.99 806.169 28.77C806.463 28.55 806.609 28.23 806.609 27.81C806.609 27.37 806.456 27.05 806.149 26.85C805.849 26.6433 805.426 26.54 804.879 26.54H803.659V29.1ZM813.64 25.92H815.64C816 25.92 816.327 25.96 816.62 26.04C816.913 26.1133 817.163 26.23 817.37 26.39C817.583 26.5433 817.747 26.74 817.86 26.98C817.973 27.2133 818.03 27.49 818.03 27.81C818.03 28.13 817.97 28.41 817.85 28.65C817.737 28.8833 817.573 29.08 817.36 29.24C817.153 29.3933 816.9 29.51 816.6 29.59C816.307 29.67 815.98 29.71 815.62 29.71H814.36V33H813.64V25.92ZM814.36 29.1H815.58C816.147 29.1 816.577 28.99 816.87 28.77C817.163 28.55 817.31 28.23 817.31 27.81C817.31 27.37 817.157 27.05 816.85 26.85C816.55 26.6433 816.127 26.54 815.58 26.54H814.36V29.1ZM821.361 33H820.641V25.92H822.721C823.067 25.92 823.387 25.9533 823.681 26.02C823.981 26.0867 824.237 26.1967 824.451 26.35C824.671 26.4967 824.841 26.69 824.961 26.93C825.081 27.17 825.141 27.4633 825.141 27.81C825.141 28.07 825.094 28.3067 825.001 28.52C824.907 28.7333 824.781 28.92 824.621 29.08C824.461 29.2333 824.271 29.3567 824.051 29.45C823.831 29.5433 823.591 29.6033 823.331 29.63L825.401 33H824.521L822.561 29.69H821.361V33ZM821.361 29.07H822.611C823.191 29.07 823.637 28.9667 823.951 28.76C824.264 28.5467 824.421 28.23 824.421 27.81C824.421 27.5767 824.377 27.38 824.291 27.22C824.204 27.06 824.084 26.93 823.931 26.83C823.777 26.73 823.591 26.6567 823.371 26.61C823.151 26.5633 822.907 26.54 822.641 26.54H821.361V29.07ZM828.547 33H827.827V25.92H828.547V33ZM837.585 31.86C837.465 32.04 837.318 32.21 837.145 32.37C836.978 32.53 836.781 32.67 836.555 32.79C836.335 32.91 836.088 33.0033 835.815 33.07C835.548 33.1433 835.255 33.18 834.935 33.18C834.401 33.18 833.908 33.0867 833.455 32.9C833.001 32.7133 832.611 32.4567 832.285 32.13C831.958 31.7967 831.701 31.4033 831.515 30.95C831.335 30.4967 831.245 30 831.245 29.46C831.245 28.92 831.338 28.4233 831.525 27.97C831.711 27.5167 831.968 27.1267 832.295 26.8C832.628 26.4667 833.018 26.2067 833.465 26.02C833.918 25.8333 834.408 25.74 834.935 25.74C835.195 25.74 835.448 25.7667 835.695 25.82C835.948 25.8733 836.185 25.95 836.405 26.05C836.625 26.1433 836.825 26.26 837.005 26.4C837.185 26.5333 837.335 26.6867 837.455 26.86L836.855 27.3C836.781 27.1867 836.681 27.0733 836.555 26.96C836.435 26.8467 836.291 26.7467 836.125 26.66C835.958 26.5733 835.775 26.5033 835.575 26.45C835.381 26.3967 835.171 26.37 834.945 26.37C834.485 26.37 834.071 26.4533 833.705 26.62C833.345 26.7867 833.038 27.0133 832.785 27.3C832.531 27.58 832.338 27.9067 832.205 28.28C832.071 28.6533 832.005 29.0467 832.005 29.46C832.005 29.8733 832.071 30.2667 832.205 30.64C832.345 31.0133 832.541 31.3433 832.795 31.63C833.048 31.91 833.355 32.1333 833.715 32.3C834.081 32.4667 834.491 32.55 834.945 32.55C835.351 32.55 835.738 32.4667 836.105 32.3C836.471 32.1333 836.778 31.8667 837.025 31.5L837.585 31.86ZM840.742 32.36H844.532V33H840.022V25.92H844.412V26.56H840.742V29H844.172V29.63H840.742V32.36Z" fill="#111111"/>
<path d="M884.874 29.37C884.874 29.77 884.938 30.15 885.064 30.51C885.198 30.87 885.384 31.19 885.624 31.47C885.864 31.7433 886.158 31.9633 886.504 32.13C886.858 32.29 887.254 32.37 887.694 32.37C888.128 32.37 888.518 32.29 888.864 32.13C889.218 31.9633 889.514 31.7433 889.754 31.47C890.001 31.19 890.191 30.87 890.324 30.51C890.458 30.15 890.524 29.77 890.524 29.37C890.524 28.97 890.458 28.59 890.324 28.23C890.191 27.87 890.001 27.5533 889.754 27.28C889.514 27 889.218 26.78 888.864 26.62C888.518 26.4533 888.128 26.37 887.694 26.37C887.254 26.37 886.858 26.4533 886.504 26.62C886.158 26.78 885.864 27 885.624 27.28C885.384 27.5533 885.198 27.87 885.064 28.23C884.938 28.59 884.874 28.97 884.874 29.37ZM891.744 33H887.694C887.181 33 886.704 32.91 886.264 32.73C885.831 32.55 885.454 32.3 885.134 31.98C884.814 31.6533 884.564 31.27 884.384 30.83C884.204 30.3833 884.114 29.8967 884.114 29.37C884.114 28.8433 884.204 28.36 884.384 27.92C884.564 27.4733 884.814 27.09 885.134 26.77C885.454 26.4433 885.831 26.19 886.264 26.01C886.704 25.83 887.181 25.74 887.694 25.74C888.201 25.74 888.671 25.83 889.104 26.01C889.544 26.19 889.924 26.4433 890.244 26.77C890.564 27.09 890.814 27.4733 890.994 27.92C891.174 28.36 891.264 28.8433 891.264 29.37C891.264 29.9967 891.124 30.57 890.844 31.09C890.571 31.6033 890.158 32.02 889.604 32.34V32.36H891.744V33ZM896.392 33H895.672V26.56H893.302V25.92H898.762V26.56H896.392V33ZM903.338 33H902.618V29.95L899.968 25.92H900.868L902.998 29.35L905.148 25.92H905.988L903.338 29.95V33ZM908.242 32.52C908.242 32.66 908.192 32.7867 908.092 32.9C907.992 33.0067 907.862 33.06 907.702 33.06C907.542 33.06 907.412 33.0067 907.312 32.9C907.212 32.7867 907.162 32.66 907.162 32.52C907.162 32.38 907.212 32.2567 907.312 32.15C907.412 32.0367 907.542 31.98 907.702 31.98C907.862 31.98 907.992 32.0367 908.092 32.15C908.192 32.2567 908.242 32.38 908.242 32.52Z" fill="#111111"/>
<path d="M956.609 33H955.889V26.56H953.519V25.92H958.979V26.56H956.609V33ZM967.94 29.46C967.94 30 967.846 30.4967 967.66 30.95C967.473 31.4033 967.213 31.7967 966.88 32.13C966.553 32.4567 966.163 32.7133 965.71 32.9C965.263 33.0867 964.776 33.18 964.25 33.18C963.723 33.18 963.233 33.0867 962.78 32.9C962.333 32.7133 961.943 32.4567 961.61 32.13C961.283 31.7967 961.026 31.4033 960.84 30.95C960.653 30.4967 960.56 30 960.56 29.46C960.56 28.92 960.653 28.4233 960.84 27.97C961.026 27.5167 961.283 27.1267 961.61 26.8C961.943 26.4667 962.333 26.2067 962.78 26.02C963.233 25.8333 963.723 25.74 964.25 25.74C964.776 25.74 965.263 25.8333 965.71 26.02C966.163 26.2067 966.553 26.4667 966.88 26.8C967.213 27.1267 967.473 27.5167 967.66 27.97C967.846 28.4233 967.94 28.92 967.94 29.46ZM967.18 29.46C967.18 29.0467 967.113 28.6533 966.98 28.28C966.846 27.9067 966.653 27.58 966.4 27.3C966.146 27.0133 965.836 26.7867 965.47 26.62C965.11 26.4533 964.703 26.37 964.25 26.37C963.796 26.37 963.386 26.4533 963.02 26.62C962.66 26.7867 962.353 27.0133 962.1 27.3C961.846 27.58 961.653 27.9067 961.52 28.28C961.386 28.6533 961.32 29.0467 961.32 29.46C961.32 29.8733 961.386 30.2667 961.52 30.64C961.653 31.0133 961.846 31.34 962.1 31.62C962.353 31.9 962.66 32.1233 963.02 32.29C963.386 32.4567 963.796 32.54 964.25 32.54C964.703 32.54 965.11 32.4567 965.47 32.29C965.836 32.1233 966.146 31.9 966.4 31.62C966.653 31.34 966.846 31.0133 966.98 30.64C967.113 30.2667 967.18 29.8733 967.18 29.46ZM972.603 33H971.883V26.56H969.513V25.92H974.973V26.56H972.603V33ZM976.59 33H975.8L978.86 25.92H979.56L982.6 33H981.8L981.02 31.14H977.36L976.59 33ZM977.63 30.48H980.75L979.19 26.72L977.63 30.48ZM985.562 32.36H988.862V33H984.842V25.92H985.562V32.36Z" fill="#111111"/>
<path d="M1023.5 25.92H1025.61C1025.88 25.92 1026.15 25.95 1026.42 26.01C1026.69 26.0633 1026.94 26.16 1027.15 26.3C1027.37 26.4333 1027.55 26.6167 1027.68 26.85C1027.82 27.0833 1027.89 27.3767 1027.89 27.73C1027.89 28.1033 1027.78 28.43 1027.55 28.71C1027.32 28.9833 1027.02 29.1633 1026.64 29.25V29.27C1027.1 29.3233 1027.48 29.5033 1027.78 29.81C1028.09 30.11 1028.24 30.52 1028.24 31.04C1028.24 31.3333 1028.18 31.6033 1028.05 31.85C1027.93 32.09 1027.76 32.2967 1027.53 32.47C1027.3 32.6367 1027.03 32.7667 1026.7 32.86C1026.37 32.9533 1026.01 33 1025.6 33H1023.5V25.92ZM1024.22 29.02H1025.67C1025.84 29.02 1026.02 29 1026.19 28.96C1026.37 28.92 1026.53 28.8533 1026.68 28.76C1026.83 28.66 1026.94 28.53 1027.03 28.37C1027.12 28.21 1027.17 28.0133 1027.17 27.78C1027.17 27.5533 1027.12 27.3633 1027.03 27.21C1026.94 27.05 1026.82 26.92 1026.67 26.82C1026.52 26.72 1026.34 26.65 1026.13 26.61C1025.92 26.5633 1025.7 26.54 1025.47 26.54H1024.22V29.02ZM1024.22 32.38H1025.56C1025.82 32.38 1026.07 32.3567 1026.3 32.31C1026.54 32.2567 1026.75 32.1767 1026.92 32.07C1027.1 31.9567 1027.24 31.8133 1027.35 31.64C1027.46 31.46 1027.51 31.2467 1027.51 31C1027.51 30.5333 1027.35 30.1867 1027.03 29.96C1026.72 29.7267 1026.27 29.61 1025.69 29.61H1024.22V32.38ZM1033.67 33.18C1033.13 33.18 1032.7 33.09 1032.36 32.91C1032.02 32.7233 1031.75 32.49 1031.55 32.21C1031.35 31.93 1031.21 31.6267 1031.13 31.3C1031.05 30.9667 1031.02 30.6533 1031.02 30.36V25.92H1031.74V30.28C1031.74 30.5667 1031.77 30.8467 1031.84 31.12C1031.9 31.3867 1032.01 31.6267 1032.16 31.84C1032.31 32.0467 1032.51 32.2167 1032.76 32.35C1033 32.4767 1033.31 32.54 1033.67 32.54C1034.03 32.54 1034.33 32.4767 1034.58 32.35C1034.82 32.2167 1035.02 32.0467 1035.17 31.84C1035.32 31.6267 1035.43 31.3867 1035.5 31.12C1035.56 30.8467 1035.6 30.5667 1035.6 30.28V25.92H1036.32V30.36C1036.32 30.6533 1036.28 30.9667 1036.2 31.3C1036.12 31.6267 1035.99 31.93 1035.79 32.21C1035.59 32.49 1035.31 32.7233 1034.97 32.91C1034.63 33.09 1034.19 33.18 1033.67 33.18ZM1039.36 25.92H1041.71C1042.15 25.92 1042.59 25.9933 1043.03 26.14C1043.47 26.2867 1043.87 26.51 1044.23 26.81C1044.59 27.1033 1044.88 27.4733 1045.1 27.92C1045.32 28.36 1045.43 28.8733 1045.43 29.46C1045.43 30.0533 1045.32 30.57 1045.1 31.01C1044.88 31.45 1044.59 31.82 1044.23 32.12C1043.87 32.4133 1043.47 32.6333 1043.03 32.78C1042.59 32.9267 1042.15 33 1041.71 33H1039.36V25.92ZM1040.08 32.36H1041.51C1042.04 32.36 1042.5 32.2767 1042.9 32.11C1043.3 31.9433 1043.63 31.7267 1043.89 31.46C1044.15 31.1867 1044.34 30.8767 1044.47 30.53C1044.6 30.1833 1044.67 29.8267 1044.67 29.46C1044.67 29.0933 1044.6 28.7367 1044.47 28.39C1044.34 28.0433 1044.15 27.7367 1043.89 27.47C1043.63 27.1967 1043.3 26.9767 1042.9 26.81C1042.5 26.6433 1042.04 26.56 1041.51 26.56H1040.08V32.36ZM1053.5 27.19C1053.25 26.93 1052.96 26.73 1052.62 26.59C1052.28 26.4433 1051.89 26.37 1051.45 26.37C1050.99 26.37 1050.58 26.4533 1050.22 26.62C1049.86 26.7867 1049.55 27.0133 1049.3 27.3C1049.04 27.58 1048.85 27.9067 1048.71 28.28C1048.57 28.6533 1048.51 29.0467 1048.51 29.46C1048.51 29.8733 1048.57 30.2667 1048.71 30.64C1048.85 31.0133 1049.04 31.34 1049.3 31.62C1049.55 31.9 1049.86 32.1233 1050.22 32.29C1050.58 32.4567 1050.99 32.54 1051.45 32.54C1051.85 32.54 1052.21 32.4967 1052.55 32.41C1052.88 32.3233 1053.15 32.2133 1053.36 32.08V29.93H1051.71V29.3H1054.08V32.49C1053.69 32.7233 1053.27 32.8967 1052.83 33.01C1052.38 33.1233 1051.92 33.18 1051.44 33.18C1050.9 33.18 1050.41 33.0867 1049.96 32.9C1049.5 32.7133 1049.11 32.4567 1048.79 32.13C1048.46 31.7967 1048.2 31.4033 1048.02 30.95C1047.84 30.4967 1047.75 30 1047.75 29.46C1047.75 28.92 1047.84 28.4233 1048.03 27.97C1048.21 27.5167 1048.47 27.1267 1048.8 26.8C1049.13 26.4667 1049.52 26.2067 1049.97 26.02C1050.42 25.8333 1050.91 25.74 1051.44 25.74C1052 25.74 1052.5 25.8233 1052.92 25.99C1053.34 26.1567 1053.7 26.39 1054 26.69L1053.5 27.19ZM1057.84 32.36H1061.63V33H1057.12V25.92H1061.51V26.56H1057.84V29H1061.27V29.63H1057.84V32.36ZM1066.51 33H1065.79V26.56H1063.42V25.92H1068.88V26.56H1066.51V33Z" fill="#111111"/>
<path d="M1134.94 27.06C1134.79 26.8467 1134.59 26.6767 1134.35 26.55C1134.11 26.4167 1133.82 26.35 1133.48 26.35C1133.31 26.35 1133.13 26.3767 1132.95 26.43C1132.77 26.4833 1132.61 26.5667 1132.46 26.68C1132.31 26.7867 1132.19 26.9233 1132.1 27.09C1132.01 27.2567 1131.97 27.4533 1131.97 27.68C1131.97 27.9067 1132.01 28.0933 1132.1 28.24C1132.19 28.3867 1132.3 28.5133 1132.44 28.62C1132.59 28.72 1132.75 28.8033 1132.93 28.87C1133.12 28.9367 1133.31 29.0033 1133.51 29.07C1133.76 29.15 1134 29.2367 1134.25 29.33C1134.5 29.4233 1134.73 29.5467 1134.93 29.7C1135.13 29.8467 1135.29 30.0367 1135.42 30.27C1135.55 30.4967 1135.61 30.7867 1135.61 31.14C1135.61 31.4933 1135.54 31.8 1135.4 32.06C1135.27 32.3133 1135.09 32.5233 1134.87 32.69C1134.66 32.8567 1134.41 32.98 1134.13 33.06C1133.86 33.14 1133.58 33.18 1133.3 33.18C1133.09 33.18 1132.87 33.1567 1132.66 33.11C1132.45 33.07 1132.24 33.0067 1132.05 32.92C1131.86 32.8333 1131.68 32.7233 1131.51 32.59C1131.34 32.4567 1131.2 32.3033 1131.07 32.13L1131.69 31.67C1131.84 31.9233 1132.06 32.1367 1132.33 32.31C1132.61 32.4767 1132.94 32.56 1133.31 32.56C1133.49 32.56 1133.67 32.5333 1133.86 32.48C1134.05 32.42 1134.21 32.3333 1134.36 32.22C1134.51 32.1 1134.64 31.9567 1134.73 31.79C1134.83 31.6167 1134.88 31.4167 1134.88 31.19C1134.88 30.9433 1134.83 30.74 1134.73 30.58C1134.64 30.4133 1134.51 30.2767 1134.35 30.17C1134.19 30.0567 1134.01 29.9633 1133.8 29.89C1133.59 29.8167 1133.38 29.7433 1133.15 29.67C1132.92 29.5967 1132.69 29.5133 1132.46 29.42C1132.23 29.3267 1132.03 29.2067 1131.85 29.06C1131.67 28.9067 1131.52 28.72 1131.41 28.5C1131.3 28.28 1131.25 28.01 1131.25 27.69C1131.25 27.35 1131.32 27.0567 1131.45 26.81C1131.59 26.5633 1131.77 26.36 1131.99 26.2C1132.21 26.04 1132.45 25.9233 1132.72 25.85C1132.99 25.7767 1133.25 25.74 1133.51 25.74C1133.99 25.74 1134.4 25.8267 1134.74 26C1135.08 26.1667 1135.34 26.3667 1135.51 26.6L1134.94 27.06ZM1140.45 33H1139.73V26.56H1137.36V25.92H1142.82V26.56H1140.45V33ZM1144.44 33H1143.65L1146.71 25.92H1147.41L1150.45 33H1149.65L1148.87 31.14H1145.21L1144.44 33ZM1145.48 30.48H1148.6L1147.04 26.72L1145.48 30.48ZM1154.36 33H1153.64V26.56H1151.27V25.92H1156.73V26.56H1154.36V33ZM1161.61 33.18C1161.07 33.18 1160.64 33.09 1160.3 32.91C1159.96 32.7233 1159.69 32.49 1159.49 32.21C1159.29 31.93 1159.15 31.6267 1159.07 31.3C1158.99 30.9667 1158.96 30.6533 1158.96 30.36V25.92H1159.68V30.28C1159.68 30.5667 1159.71 30.8467 1159.78 31.12C1159.84 31.3867 1159.95 31.6267 1160.1 31.84C1160.25 32.0467 1160.45 32.2167 1160.7 32.35C1160.94 32.4767 1161.25 32.54 1161.61 32.54C1161.97 32.54 1162.27 32.4767 1162.52 32.35C1162.76 32.2167 1162.96 32.0467 1163.11 31.84C1163.26 31.6267 1163.37 31.3867 1163.44 31.12C1163.5 30.8467 1163.54 30.5667 1163.54 30.28V25.92H1164.26V30.36C1164.26 30.6533 1164.22 30.9667 1164.14 31.3C1164.06 31.6267 1163.93 31.93 1163.73 32.21C1163.53 32.49 1163.25 32.7233 1162.91 32.91C1162.57 33.09 1162.13 33.18 1161.61 33.18ZM1170.73 27.06C1170.57 26.8467 1170.38 26.6767 1170.14 26.55C1169.9 26.4167 1169.61 26.35 1169.27 26.35C1169.09 26.35 1168.92 26.3767 1168.74 26.43C1168.56 26.4833 1168.39 26.5667 1168.25 26.68C1168.1 26.7867 1167.98 26.9233 1167.89 27.09C1167.8 27.2567 1167.76 27.4533 1167.76 27.68C1167.76 27.9067 1167.8 28.0933 1167.89 28.24C1167.97 28.3867 1168.09 28.5133 1168.23 28.62C1168.37 28.72 1168.54 28.8033 1168.72 28.87C1168.9 28.9367 1169.1 29.0033 1169.3 29.07C1169.54 29.15 1169.79 29.2367 1170.04 29.33C1170.29 29.4233 1170.52 29.5467 1170.72 29.7C1170.92 29.8467 1171.08 30.0367 1171.21 30.27C1171.33 30.4967 1171.4 30.7867 1171.4 31.14C1171.4 31.4933 1171.33 31.8 1171.19 32.06C1171.05 32.3133 1170.88 32.5233 1170.66 32.69C1170.44 32.8567 1170.2 32.98 1169.92 33.06C1169.64 33.14 1169.37 33.18 1169.09 33.18C1168.87 33.18 1168.66 33.1567 1168.45 33.11C1168.23 33.07 1168.03 33.0067 1167.84 32.92C1167.64 32.8333 1167.46 32.7233 1167.3 32.59C1167.13 32.4567 1166.98 32.3033 1166.86 32.13L1167.48 31.67C1167.63 31.9233 1167.84 32.1367 1168.12 32.31C1168.4 32.4767 1168.72 32.56 1169.1 32.56C1169.28 32.56 1169.46 32.5333 1169.65 32.48C1169.83 32.42 1170 32.3333 1170.15 32.22C1170.3 32.1 1170.42 31.9567 1170.52 31.79C1170.62 31.6167 1170.67 31.4167 1170.67 31.19C1170.67 30.9433 1170.62 30.74 1170.52 30.58C1170.42 30.4133 1170.3 30.2767 1170.14 30.17C1169.98 30.0567 1169.79 29.9633 1169.59 29.89C1169.38 29.8167 1169.16 29.7433 1168.94 29.67C1168.7 29.5967 1168.47 29.5133 1168.25 29.42C1168.02 29.3267 1167.82 29.2067 1167.64 29.06C1167.46 28.9067 1167.31 28.72 1167.2 28.5C1167.09 28.28 1167.04 28.01 1167.04 27.69C1167.04 27.35 1167.1 27.0567 1167.24 26.81C1167.38 26.5633 1167.56 26.36 1167.78 26.2C1168 26.04 1168.24 25.9233 1168.51 25.85C1168.77 25.7767 1169.04 25.74 1169.3 25.74C1169.78 25.74 1170.19 25.8267 1170.53 26C1170.87 26.1667 1171.12 26.3667 1171.3 26.6L1170.73 27.06Z" fill="#111111"/>
<path d="M1233.23 32.36H1237.02V33H1232.51V25.92H1236.9V26.56H1233.23V29H1236.66V29.63H1233.23V32.36ZM1241.9 33H1241.18V26.56H1238.81V25.92H1244.27V26.56H1241.9V33ZM1245.89 33H1245.1L1248.16 25.92H1248.86L1251.9 33H1251.1L1250.32 31.14H1246.66L1245.89 33ZM1246.93 30.48H1250.05L1248.49 26.72L1246.93 30.48Z" fill="#111111"/>
<path fill-rule="evenodd" clip-rule="evenodd" d="M0 60H16V120H0V60Z" fill="#A8A18F"/>
<path d="M16.5 60.5H31.5V119.5H16.5V60.5Z" fill="#DCDFD8" stroke="#A8A18F"/>
<path fill-rule="evenodd" clip-rule="evenodd" d="M32 60H45V120H32V60Z" fill="#A8A18F"/>
<path d="M45.5 60.5H109.5V119.5H45.5V60.5Z" fill="#DCDFD8" stroke="#A8A18F"/>
<path d="M110.5 60.5H169.5V119.5H110.5V60.5Z" fill="#DCDFD8" stroke="#A8A18F"/>
<path fill-rule="evenodd" clip-rule="evenodd" d="M170 60H182V120H170V60Z" fill="#A8A18F"/>
<path d="M182.5 60.5H313.5V119.5H182.5V60.5Z" fill="#DCDFD8" stroke="#A8A18F"/>
<path fill-rule="evenodd" clip-rule="evenodd" d="M314 60H322V120H314V60Z" fill="#A8A18F"/>
<path d="M322.5 60.5H568.5V119.5H322.5V60.5Z" fill="#DCDFD8" stroke="#A8A18F"/>
<path fill-rule="evenodd" clip-rule="evenodd" d="M569 60H586V120H569V60Z" fill="#A8A18F"/>
<path d="M586.5 60.5H684.5V119.5H586.5V60.5Z" fill="#DCDFD8" stroke="#A8A18F"/>
<path d="M685.5 60.5H764.5V119.5H685.5V60.5Z" fill="#DCDFD8" stroke="#A8A18F"/>
<path d="M765.5 60.5H844.5V119.5H765.5V60.5Z" fill="#DCDFD8" stroke="#A8A18F"/>
<path d="M845.5 60.5H908.5V119.5H845.5V60.5Z" fill="#DCDFD8" stroke="#A8A18F"/>
<path d="M909.5 60.5H988.5V119.5H909.5V60.5Z" fill="#DCDFD8" stroke="#A8A18F"/>
<path d="M989.5 60.5H1068.5V119.5H989.5V60.5Z" fill="#DCDFD8" stroke="#A8A18F"/>
<path d="M1069.5 60.5H1171.5V119.5H1069.5V60.5Z" fill="#DCDFD8" stroke="#A8A18F"/>
<path d="M1172.5 60.5H1251.5V119.5H1172.5V60.5Z" fill="#DCDFD8" stroke="#A8A18F"/>
<path fill-rule="evenodd" clip-rule="evenodd" d="M1252 60H1268V120H1252V60Z" fill="#A8A18F"/>
</svg>
