<svg width="1269" height="120" viewBox="0 0 1269 120" fill="none" xmlns="http://www.w3.org/2000/svg">
<mask id="path-1-inside-1_309_16339" fill="white">
<path d="M0 0H1268V60H0V0Z"/>
</mask>
<path d="M0 0H1268V60H0V0Z" fill="white"/>
<path d="M1268 59H0V61H1268V59Z" fill="#D9D9D9" mask="url(#path-1-inside-1_309_16339)"/>
<path d="M347.85 33H346.86V25.92H347.85V33ZM353.255 33H352.265V26.79H349.995V25.92H355.525V26.79H353.255V33ZM358.658 32.12H362.358V33H357.668V25.92H362.208V26.79H358.658V28.91H361.998V29.76H358.658V32.12ZM368.534 31.36H368.554L370.644 25.92H372.184V33H371.194V27.08H371.174L368.824 33H368.194L365.854 27.08H365.834V33H364.874V25.92H366.414L368.534 31.36ZM378.807 25.92H381.237C381.691 25.92 382.144 25.9867 382.597 26.12C383.051 26.2533 383.461 26.4633 383.827 26.75C384.194 27.0367 384.491 27.4033 384.717 27.85C384.944 28.2967 385.057 28.8333 385.057 29.46C385.057 30.0667 384.944 30.5933 384.717 31.04C384.491 31.48 384.194 31.8467 383.827 32.14C383.461 32.4267 383.051 32.6433 382.597 32.79C382.144 32.93 381.691 33 381.237 33H378.807V25.92ZM379.797 32.13H381.037C381.464 32.13 381.857 32.07 382.217 31.95C382.584 31.83 382.897 31.6567 383.157 31.43C383.424 31.2033 383.631 30.9233 383.777 30.59C383.924 30.2567 383.997 29.88 383.997 29.46C383.997 29.02 383.924 28.6333 383.777 28.3C383.631 27.9667 383.424 27.69 383.157 27.47C382.897 27.2433 382.584 27.0733 382.217 26.96C381.857 26.84 381.464 26.78 381.037 26.78H379.797V32.13ZM388.605 32.12H392.305V33H387.615V25.92H392.155V26.79H388.605V28.91H391.945V29.76H388.605V32.12ZM397.301 33H396.311V26.79H394.041V25.92H399.571V26.79H397.301V33ZM401.408 33H400.308L403.378 25.92H404.278L407.318 33H406.198L405.478 31.26H402.118L401.408 33ZM402.468 30.39H405.118L403.798 27.07L402.468 30.39ZM410.418 33H409.428V25.92H410.418V33ZM414.332 32.12H417.492V33H413.342V25.92H414.332V32.12ZM423.17 27.23C423.03 27.0367 422.84 26.88 422.6 26.76C422.36 26.6333 422.09 26.57 421.79 26.57C421.63 26.57 421.467 26.5933 421.3 26.64C421.14 26.68 420.993 26.75 420.86 26.85C420.727 26.9433 420.617 27.0633 420.53 27.21C420.45 27.35 420.41 27.52 420.41 27.72C420.41 27.9133 420.447 28.0767 420.52 28.21C420.6 28.3367 420.703 28.4467 420.83 28.54C420.963 28.6267 421.117 28.7033 421.29 28.77C421.47 28.83 421.66 28.8933 421.86 28.96C422.1 29.0333 422.343 29.1167 422.59 29.21C422.837 29.3033 423.06 29.4267 423.26 29.58C423.46 29.7333 423.623 29.9267 423.75 30.16C423.877 30.3867 423.94 30.6767 423.94 31.03C423.94 31.3967 423.87 31.7167 423.73 31.99C423.597 32.2567 423.417 32.48 423.19 32.66C422.963 32.8333 422.7 32.9633 422.4 33.05C422.107 33.1367 421.803 33.18 421.49 33.18C421.043 33.18 420.61 33.0933 420.19 32.92C419.777 32.7467 419.433 32.49 419.16 32.15L419.93 31.5C420.097 31.7467 420.32 31.9467 420.6 32.1C420.88 32.2533 421.183 32.33 421.51 32.33C421.677 32.33 421.843 32.3067 422.01 32.26C422.177 32.2133 422.327 32.14 422.46 32.04C422.6 31.94 422.713 31.8167 422.8 31.67C422.887 31.5167 422.93 31.3333 422.93 31.12C422.93 30.9067 422.883 30.73 422.79 30.59C422.703 30.4433 422.583 30.32 422.43 30.22C422.277 30.12 422.097 30.0367 421.89 29.97C421.69 29.8967 421.477 29.8233 421.25 29.75C421.023 29.6833 420.8 29.6033 420.58 29.51C420.36 29.41 420.163 29.2867 419.99 29.14C419.817 28.9867 419.677 28.8 419.57 28.58C419.463 28.36 419.41 28.0867 419.41 27.76C419.41 27.4067 419.48 27.1033 419.62 26.85C419.767 26.5967 419.953 26.3867 420.18 26.22C420.413 26.0533 420.673 25.9333 420.96 25.86C421.253 25.78 421.547 25.74 421.84 25.74C422.253 25.74 422.64 25.8133 423 25.96C423.36 26.1067 423.65 26.3033 423.87 26.55L423.17 27.23Z" fill="#444444"/>
<rect x="16.5" y="22" width="15" height="15" fill="white"/>
<rect x="16.5" y="22" width="15" height="15" stroke="#757575"/>
<path d="M49.34 33H48.35V26.79H46.08V25.92H51.61V26.79H49.34V33ZM56.3962 33H55.3962V29.94L52.7462 25.92H53.9662L55.9262 29.12L57.8962 25.92H59.0462L56.3962 29.94V33ZM61.0764 25.92H63.2364C63.6164 25.92 63.9631 25.96 64.2764 26.04C64.5897 26.1133 64.8564 26.23 65.0764 26.39C65.2964 26.55 65.4664 26.7533 65.5864 27C65.7064 27.2467 65.7664 27.5433 65.7664 27.89C65.7664 28.2433 65.6997 28.5467 65.5664 28.8C65.4397 29.0533 65.2597 29.26 65.0264 29.42C64.7997 29.58 64.5264 29.7 64.2064 29.78C63.8931 29.8533 63.5531 29.89 63.1864 29.89H62.0664V33H61.0764V25.92ZM62.0664 29.05H63.1164C63.3564 29.05 63.5764 29.03 63.7764 28.99C63.9831 28.9433 64.1597 28.8767 64.3064 28.79C64.4531 28.6967 64.5664 28.5767 64.6464 28.43C64.7264 28.2833 64.7664 28.1033 64.7664 27.89C64.7664 27.6767 64.7231 27.5 64.6364 27.36C64.5564 27.2133 64.4431 27.0967 64.2964 27.01C64.1564 26.9167 63.9864 26.8533 63.7864 26.82C63.5864 26.78 63.3697 26.76 63.1364 26.76H62.0664V29.05ZM69.2137 32.12H72.9137V33H68.2237V25.92H72.7637V26.79H69.2137V28.91H72.5537V29.76H69.2137V32.12Z" fill="#444444"/>
<path d="M129.215 33H128.225V25.92H129.215V33ZM135.799 31.36H135.819L137.909 25.92H139.449V33H138.459V27.08H138.439L136.089 33H135.459L133.119 27.08H133.099V33H132.139V25.92H133.679L135.799 31.36ZM142.663 33H141.563L144.633 25.92H145.533L148.573 33H147.453L146.733 31.26H143.373L142.663 33ZM143.723 30.39H146.373L145.053 27.07L143.723 30.39ZM155.846 27.38C155.633 27.1467 155.36 26.96 155.026 26.82C154.7 26.68 154.333 26.61 153.926 26.61C153.513 26.61 153.14 26.6867 152.806 26.84C152.473 26.9867 152.19 27.19 151.956 27.45C151.723 27.71 151.543 28.0133 151.416 28.36C151.29 28.7 151.226 29.0633 151.226 29.45C151.226 29.8433 151.29 30.2133 151.416 30.56C151.543 30.9067 151.723 31.21 151.956 31.47C152.19 31.7233 152.476 31.9233 152.816 32.07C153.156 32.2167 153.536 32.29 153.956 32.29C154.29 32.29 154.596 32.26 154.876 32.2C155.156 32.14 155.4 32.0533 155.606 31.94V29.97H154.036V29.13H156.586V32.56C156.213 32.76 155.806 32.9133 155.366 33.02C154.926 33.1267 154.446 33.18 153.926 33.18C153.373 33.18 152.863 33.09 152.396 32.91C151.936 32.7233 151.54 32.4667 151.206 32.14C150.873 31.8067 150.613 31.4133 150.426 30.96C150.24 30.5 150.146 29.9967 150.146 29.45C150.146 28.8967 150.24 28.3933 150.426 27.94C150.62 27.48 150.883 27.09 151.216 26.77C151.556 26.4433 151.956 26.19 152.416 26.01C152.876 25.83 153.376 25.74 153.916 25.74C154.483 25.74 154.986 25.8233 155.426 25.99C155.873 26.1567 156.243 26.38 156.536 26.66L155.846 27.38ZM160.479 32.12H164.179V33H159.489V25.92H164.029V26.79H160.479V28.91H163.819V29.76H160.479V32.12Z" fill="#444444"/>
<path d="M207.85 33H206.86V25.92H207.85V33ZM213.255 33H212.265V26.79H209.995V25.92H215.525V26.79H213.255V33ZM218.658 32.12H222.358V33H217.668V25.92H222.208V26.79H218.658V28.91H221.998V29.76H218.658V32.12ZM228.534 31.36H228.554L230.644 25.92H232.184V33H231.194V27.08H231.174L228.824 33H228.194L225.854 27.08H225.834V33H224.874V25.92H226.414L228.534 31.36ZM243.797 31.58H243.817V25.92H244.807V33H243.557L239.817 27.22H239.797V33H238.807V25.92H240.097L243.797 31.58ZM248.022 33H246.922L249.992 25.92H250.892L253.932 33H252.812L252.092 31.26H248.732L248.022 33ZM249.082 30.39H251.732L250.412 27.07L249.082 30.39ZM259.701 31.36H259.721L261.811 25.92H263.351V33H262.361V27.08H262.341L259.991 33H259.361L257.021 27.08H257.001V33H256.041V25.92H257.581L259.701 31.36ZM267.264 32.12H270.964V33H266.274V25.92H270.814V26.79H267.264V28.91H270.604V29.76H267.264V32.12Z" fill="#444444"/>
<path d="M589.21 31.72H589.24L591.37 25.92H592.44L589.66 33H588.74L585.98 25.92H587.08L589.21 31.72ZM595.466 32.12H599.166V33H594.476V25.92H599.016V26.79H595.466V28.91H598.806V29.76H595.466V32.12ZM606.672 31.58H606.692V25.92H607.682V33H606.432L602.692 27.22H602.672V33H601.682V25.92H602.972L606.672 31.58ZM610.606 25.92H613.036C613.49 25.92 613.943 25.9867 614.396 26.12C614.85 26.2533 615.26 26.4633 615.626 26.75C615.993 27.0367 616.29 27.4033 616.516 27.85C616.743 28.2967 616.856 28.8333 616.856 29.46C616.856 30.0667 616.743 30.5933 616.516 31.04C616.29 31.48 615.993 31.8467 615.626 32.14C615.26 32.4267 614.85 32.6433 614.396 32.79C613.943 32.93 613.49 33 613.036 33H610.606V25.92ZM611.596 32.13H612.836C613.263 32.13 613.656 32.07 614.016 31.95C614.383 31.83 614.696 31.6567 614.956 31.43C615.223 31.2033 615.43 30.9233 615.576 30.59C615.723 30.2567 615.796 29.88 615.796 29.46C615.796 29.02 615.723 28.6333 615.576 28.3C615.43 27.9667 615.223 27.69 614.956 27.47C614.696 27.2433 614.383 27.0733 614.016 26.96C613.656 26.84 613.263 26.78 612.836 26.78H611.596V32.13ZM626.554 29.45C626.554 29.9967 626.457 30.5 626.264 30.96C626.077 31.4133 625.817 31.8067 625.484 32.14C625.151 32.4667 624.754 32.7233 624.294 32.91C623.834 33.09 623.334 33.18 622.794 33.18C622.254 33.18 621.754 33.09 621.294 32.91C620.841 32.7233 620.447 32.4667 620.114 32.14C619.781 31.8067 619.521 31.4133 619.334 30.96C619.147 30.5 619.054 29.9967 619.054 29.45C619.054 28.8967 619.147 28.3933 619.334 27.94C619.521 27.48 619.781 27.09 620.114 26.77C620.447 26.4433 620.841 26.19 621.294 26.01C621.754 25.83 622.254 25.74 622.794 25.74C623.334 25.74 623.834 25.83 624.294 26.01C624.754 26.19 625.151 26.4433 625.484 26.77C625.817 27.09 626.077 27.48 626.264 27.94C626.457 28.3933 626.554 28.8967 626.554 29.45ZM625.484 29.45C625.484 29.0633 625.421 28.7 625.294 28.36C625.167 28.0133 624.987 27.71 624.754 27.45C624.521 27.19 624.237 26.9867 623.904 26.84C623.577 26.6867 623.207 26.61 622.794 26.61C622.387 26.61 622.017 26.6867 621.684 26.84C621.357 26.9867 621.077 27.19 620.844 27.45C620.617 27.71 620.441 28.0133 620.314 28.36C620.187 28.7 620.124 29.0633 620.124 29.45C620.124 29.8433 620.187 30.2133 620.314 30.56C620.441 30.9067 620.621 31.21 620.854 31.47C621.087 31.7233 621.367 31.9233 621.694 32.07C622.021 32.2167 622.387 32.29 622.794 32.29C623.201 32.29 623.571 32.2167 623.904 32.07C624.237 31.9233 624.521 31.7233 624.754 31.47C624.987 31.21 625.167 30.9067 625.294 30.56C625.421 30.2133 625.484 29.8433 625.484 29.45ZM630.09 33H629.1V25.92H631.37C631.71 25.92 632.034 25.9567 632.34 26.03C632.647 26.0967 632.914 26.2067 633.14 26.36C633.374 26.5133 633.557 26.7167 633.69 26.97C633.824 27.2167 633.89 27.52 633.89 27.88C633.89 28.4 633.73 28.82 633.41 29.14C633.09 29.46 632.677 29.6633 632.17 29.75L634.15 33H632.95L631.15 29.85H630.09V33ZM630.09 29.02H631.23C631.464 29.02 631.68 29 631.88 28.96C632.08 28.92 632.254 28.8567 632.4 28.77C632.554 28.6767 632.674 28.56 632.76 28.42C632.847 28.2733 632.89 28.0933 632.89 27.88C632.89 27.6667 632.847 27.49 632.76 27.35C632.674 27.2033 632.557 27.0867 632.41 27C632.27 26.9133 632.104 26.8533 631.91 26.82C631.717 26.78 631.514 26.76 631.3 26.76H630.09V29.02Z" fill="#444444"/>
<path d="M728.672 33H727.682V25.92H729.952C730.292 25.92 730.616 25.9567 730.922 26.03C731.229 26.0967 731.496 26.2067 731.722 26.36C731.956 26.5133 732.139 26.7167 732.272 26.97C732.406 27.2167 732.472 27.52 732.472 27.88C732.472 28.4 732.312 28.82 731.992 29.14C731.672 29.46 731.259 29.6633 730.752 29.75L732.732 33H731.532L729.732 29.85H728.672V33ZM728.672 29.02H729.812C730.046 29.02 730.262 29 730.462 28.96C730.662 28.92 730.836 28.8567 730.982 28.77C731.136 28.6767 731.256 28.56 731.342 28.42C731.429 28.2733 731.472 28.0933 731.472 27.88C731.472 27.6667 731.429 27.49 731.342 27.35C731.256 27.2033 731.139 27.0867 730.992 27C730.852 26.9133 730.686 26.8533 730.492 26.82C730.299 26.78 730.096 26.76 729.882 26.76H728.672V29.02ZM736.015 32.12H739.715V33H735.025V25.92H739.565V26.79H736.015V28.91H739.355V29.76H736.015V32.12ZM744.711 33H743.721V26.79H741.451V25.92H746.981V26.79H744.711V33ZM748.818 33H747.718L750.788 25.92H751.688L754.728 33H753.608L752.888 31.26H749.528L748.818 33ZM749.878 30.39H752.528L751.208 27.07L749.878 30.39ZM757.828 33H756.838V25.92H757.828V33ZM761.743 32.12H764.903V33H760.753V25.92H761.743V32.12Z" fill="#444444"/>
<path d="M793.837 25.92H794.827V28.88H798.407V25.92H799.407V33H798.407V29.76H794.827V33H793.837V25.92ZM802.322 25.92H804.482C804.862 25.92 805.209 25.96 805.522 26.04C805.835 26.1133 806.102 26.23 806.322 26.39C806.542 26.55 806.712 26.7533 806.832 27C806.952 27.2467 807.012 27.5433 807.012 27.89C807.012 28.2433 806.945 28.5467 806.812 28.8C806.685 29.0533 806.505 29.26 806.272 29.42C806.045 29.58 805.772 29.7 805.452 29.78C805.139 29.8533 804.799 29.89 804.432 29.89H803.312V33H802.322V25.92ZM803.312 29.05H804.362C804.602 29.05 804.822 29.03 805.022 28.99C805.229 28.9433 805.405 28.8767 805.552 28.79C805.699 28.6967 805.812 28.5767 805.892 28.43C805.972 28.2833 806.012 28.1033 806.012 27.89C806.012 27.6767 805.969 27.5 805.882 27.36C805.802 27.2133 805.689 27.0967 805.542 27.01C805.402 26.9167 805.232 26.8533 805.032 26.82C804.832 26.78 804.615 26.76 804.382 26.76H803.312V29.05ZM813.169 25.92H815.329C815.709 25.92 816.056 25.96 816.369 26.04C816.683 26.1133 816.949 26.23 817.169 26.39C817.389 26.55 817.559 26.7533 817.679 27C817.799 27.2467 817.859 27.5433 817.859 27.89C817.859 28.2433 817.793 28.5467 817.659 28.8C817.533 29.0533 817.353 29.26 817.119 29.42C816.893 29.58 816.619 29.7 816.299 29.78C815.986 29.8533 815.646 29.89 815.279 29.89H814.159V33H813.169V25.92ZM814.159 29.05H815.209C815.449 29.05 815.669 29.03 815.869 28.99C816.076 28.9433 816.253 28.8767 816.399 28.79C816.546 28.6967 816.659 28.5767 816.739 28.43C816.819 28.2833 816.859 28.1033 816.859 27.89C816.859 27.6767 816.816 27.5 816.729 27.36C816.649 27.2133 816.536 27.0967 816.389 27.01C816.249 26.9167 816.079 26.8533 815.879 26.82C815.679 26.78 815.463 26.76 815.229 26.76H814.159V29.05ZM821.307 33H820.317V25.92H822.587C822.927 25.92 823.25 25.9567 823.557 26.03C823.863 26.0967 824.13 26.2067 824.357 26.36C824.59 26.5133 824.773 26.7167 824.907 26.97C825.04 27.2167 825.107 27.52 825.107 27.88C825.107 28.4 824.947 28.82 824.627 29.14C824.307 29.46 823.893 29.6633 823.387 29.75L825.367 33H824.167L822.367 29.85H821.307V33ZM821.307 29.02H822.447C822.68 29.02 822.897 29 823.097 28.96C823.297 28.92 823.47 28.8567 823.617 28.77C823.77 28.6767 823.89 28.56 823.977 28.42C824.063 28.2733 824.107 28.0933 824.107 27.88C824.107 27.6667 824.063 27.49 823.977 27.35C823.89 27.2033 823.773 27.0867 823.627 27C823.487 26.9133 823.32 26.8533 823.127 26.82C822.933 26.78 822.73 26.76 822.517 26.76H821.307V29.02ZM828.649 33H827.659V25.92H828.649V33ZM837.644 31.9C837.364 32.28 837.001 32.59 836.554 32.83C836.107 33.0633 835.571 33.18 834.944 33.18C834.404 33.18 833.904 33.09 833.444 32.91C832.991 32.7233 832.597 32.4667 832.264 32.14C831.937 31.8067 831.681 31.4133 831.494 30.96C831.307 30.5 831.214 29.9967 831.214 29.45C831.214 28.8967 831.307 28.3933 831.494 27.94C831.687 27.48 831.951 27.09 832.284 26.77C832.624 26.4433 833.024 26.19 833.484 26.01C833.944 25.83 834.444 25.74 834.984 25.74C835.224 25.74 835.467 25.7633 835.714 25.81C835.961 25.8567 836.197 25.9267 836.424 26.02C836.651 26.1133 836.857 26.23 837.044 26.37C837.231 26.5033 837.391 26.66 837.524 26.84L836.744 27.44C836.571 27.2 836.324 27.0033 836.004 26.85C835.691 26.69 835.351 26.61 834.984 26.61C834.571 26.61 834.197 26.6867 833.864 26.84C833.537 26.9867 833.257 27.19 833.024 27.45C832.791 27.71 832.611 28.0133 832.484 28.36C832.357 28.7 832.294 29.0633 832.294 29.45C832.294 29.85 832.354 30.2233 832.474 30.57C832.601 30.9167 832.777 31.22 833.004 31.48C833.237 31.7333 833.517 31.9333 833.844 32.08C834.177 32.2267 834.547 32.3 834.954 32.3C835.354 32.3 835.717 32.22 836.044 32.06C836.371 31.9 836.641 31.6667 836.854 31.36L837.644 31.9ZM840.844 32.12H844.544V33H839.854V25.92H844.394V26.79H840.844V28.91H844.184V29.76H840.844V32.12Z" fill="#444444"/>
<path d="M891.65 33H887.49C886.95 33 886.453 32.9133 886 32.74C885.553 32.5667 885.167 32.3233 884.84 32.01C884.513 31.6967 884.26 31.3167 884.08 30.87C883.9 30.4233 883.81 29.9233 883.81 29.37C883.81 28.8367 883.903 28.35 884.09 27.91C884.277 27.4633 884.533 27.08 884.86 26.76C885.187 26.44 885.573 26.19 886.02 26.01C886.473 25.83 886.967 25.74 887.5 25.74C888.027 25.74 888.513 25.83 888.96 26.01C889.407 26.19 889.793 26.44 890.12 26.76C890.447 27.08 890.7 27.4633 890.88 27.91C891.067 28.35 891.16 28.8367 891.16 29.37C891.16 30.0033 891.027 30.5567 890.76 31.03C890.493 31.5033 890.14 31.8767 889.7 32.15V32.17H891.65V33ZM884.88 29.37C884.88 29.7567 884.94 30.12 885.06 30.46C885.187 30.7933 885.363 31.0833 885.59 31.33C885.817 31.5767 886.09 31.7733 886.41 31.92C886.73 32.06 887.09 32.13 887.49 32.13C887.877 32.13 888.23 32.06 888.55 31.92C888.877 31.7733 889.153 31.5767 889.38 31.33C889.607 31.0833 889.783 30.7933 889.91 30.46C890.037 30.12 890.1 29.7567 890.1 29.37C890.1 28.99 890.04 28.6333 889.92 28.3C889.8 27.9667 889.627 27.6767 889.4 27.43C889.173 27.1767 888.9 26.9767 888.58 26.83C888.26 26.6833 887.9 26.61 887.5 26.61C887.1 26.61 886.74 26.6833 886.42 26.83C886.1 26.9767 885.823 27.1767 885.59 27.43C885.363 27.6767 885.187 27.9667 885.06 28.3C884.94 28.6333 884.88 28.99 884.88 29.37ZM896.307 33H895.317V26.79H893.047V25.92H898.577V26.79H896.307V33ZM903.363 33H902.363V29.94L899.713 25.92H900.933L902.893 29.12L904.863 25.92H906.013L903.363 29.94V33ZM908.372 32.4C908.372 32.5733 908.309 32.7267 908.182 32.86C908.056 32.9933 907.896 33.06 907.702 33.06C907.516 33.06 907.356 32.9967 907.222 32.87C907.096 32.7367 907.032 32.5833 907.032 32.41C907.032 32.23 907.096 32.0767 907.222 31.95C907.349 31.8167 907.509 31.75 907.702 31.75C907.896 31.75 908.056 31.8133 908.182 31.94C908.309 32.0667 908.372 32.22 908.372 32.4Z" fill="#444444"/>
<path d="M956.651 33H955.661V26.79H953.391V25.92H958.921V26.79H956.651V33ZM967.902 29.45C967.902 29.9967 967.805 30.5 967.612 30.96C967.425 31.4133 967.165 31.8067 966.832 32.14C966.499 32.4667 966.102 32.7233 965.642 32.91C965.182 33.09 964.682 33.18 964.142 33.18C963.602 33.18 963.102 33.09 962.642 32.91C962.189 32.7233 961.795 32.4667 961.462 32.14C961.129 31.8067 960.869 31.4133 960.682 30.96C960.495 30.5 960.402 29.9967 960.402 29.45C960.402 28.8967 960.495 28.3933 960.682 27.94C960.869 27.48 961.129 27.09 961.462 26.77C961.795 26.4433 962.189 26.19 962.642 26.01C963.102 25.83 963.602 25.74 964.142 25.74C964.682 25.74 965.182 25.83 965.642 26.01C966.102 26.19 966.499 26.4433 966.832 26.77C967.165 27.09 967.425 27.48 967.612 27.94C967.805 28.3933 967.902 28.8967 967.902 29.45ZM966.832 29.45C966.832 29.0633 966.769 28.7 966.642 28.36C966.515 28.0133 966.335 27.71 966.102 27.45C965.869 27.19 965.585 26.9867 965.252 26.84C964.925 26.6867 964.555 26.61 964.142 26.61C963.735 26.61 963.365 26.6867 963.032 26.84C962.705 26.9867 962.425 27.19 962.192 27.45C961.965 27.71 961.789 28.0133 961.662 28.36C961.535 28.7 961.472 29.0633 961.472 29.45C961.472 29.8433 961.535 30.2133 961.662 30.56C961.789 30.9067 961.969 31.21 962.202 31.47C962.435 31.7233 962.715 31.9233 963.042 32.07C963.369 32.2167 963.735 32.29 964.142 32.29C964.549 32.29 964.919 32.2167 965.252 32.07C965.585 31.9233 965.869 31.7233 966.102 31.47C966.335 31.21 966.515 30.9067 966.642 30.56C966.769 30.2133 966.832 29.8433 966.832 29.45ZM972.626 33H971.636V26.79H969.366V25.92H974.896V26.79H972.626V33ZM976.733 33H975.633L978.703 25.92H979.603L982.643 33H981.523L980.803 31.26H977.443L976.733 33ZM977.793 30.39H980.443L979.123 27.07L977.793 30.39ZM985.743 32.12H988.903V33H984.753V25.92H985.743V32.12Z" fill="#444444"/>
<path d="M1023.24 25.92H1025.68C1025.94 25.92 1026.21 25.95 1026.48 26.01C1026.74 26.07 1026.98 26.17 1027.19 26.31C1027.4 26.45 1027.57 26.6333 1027.7 26.86C1027.83 27.0867 1027.9 27.37 1027.9 27.71C1027.9 28.1033 1027.78 28.4333 1027.56 28.7C1027.33 28.9667 1027.03 29.15 1026.66 29.25V29.27C1026.88 29.2967 1027.09 29.3567 1027.29 29.45C1027.48 29.5367 1027.65 29.6533 1027.79 29.8C1027.93 29.9467 1028.03 30.12 1028.11 30.32C1028.19 30.52 1028.23 30.7433 1028.23 30.99C1028.23 31.33 1028.16 31.6267 1028.02 31.88C1027.88 32.1333 1027.69 32.3433 1027.45 32.51C1027.21 32.67 1026.92 32.7933 1026.6 32.88C1026.28 32.96 1025.93 33 1025.57 33H1023.24V25.92ZM1024.23 28.91H1025.52C1025.7 28.91 1025.88 28.89 1026.05 28.85C1026.22 28.8033 1026.37 28.7367 1026.5 28.65C1026.62 28.5567 1026.72 28.4433 1026.8 28.31C1026.87 28.17 1026.91 28.0033 1026.91 27.81C1026.91 27.43 1026.77 27.16 1026.49 27C1026.21 26.8333 1025.83 26.75 1025.36 26.75H1024.23V28.91ZM1024.23 32.16H1025.47C1025.67 32.16 1025.88 32.1433 1026.09 32.11C1026.3 32.07 1026.49 32.0033 1026.66 31.91C1026.83 31.8167 1026.97 31.6933 1027.07 31.54C1027.17 31.38 1027.23 31.18 1027.23 30.94C1027.23 30.52 1027.08 30.2167 1026.8 30.03C1026.51 29.8433 1026.1 29.75 1025.56 29.75H1024.23V32.16ZM1033.55 33.18C1033.08 33.18 1032.68 33.1033 1032.33 32.95C1031.98 32.79 1031.7 32.58 1031.47 32.32C1031.24 32.06 1031.07 31.7633 1030.96 31.43C1030.85 31.09 1030.8 30.74 1030.8 30.38V25.92H1031.79V30.32C1031.79 30.56 1031.82 30.8 1031.88 31.04C1031.94 31.2733 1032.04 31.4833 1032.17 31.67C1032.31 31.8567 1032.49 32.0067 1032.71 32.12C1032.94 32.2333 1033.22 32.29 1033.55 32.29C1033.88 32.29 1034.15 32.2333 1034.38 32.12C1034.61 32.0067 1034.79 31.8567 1034.92 31.67C1035.06 31.4833 1035.16 31.2733 1035.22 31.04C1035.28 30.8 1035.31 30.56 1035.31 30.32V25.92H1036.3V30.38C1036.3 30.74 1036.24 31.09 1036.13 31.43C1036.02 31.7633 1035.86 32.06 1035.63 32.32C1035.4 32.58 1035.12 32.79 1034.77 32.95C1034.42 33.1033 1034.02 33.18 1033.55 33.18ZM1039.17 25.92H1041.6C1042.05 25.92 1042.51 25.9867 1042.96 26.12C1043.41 26.2533 1043.82 26.4633 1044.19 26.75C1044.56 27.0367 1044.85 27.4033 1045.08 27.85C1045.31 28.2967 1045.42 28.8333 1045.42 29.46C1045.42 30.0667 1045.31 30.5933 1045.08 31.04C1044.85 31.48 1044.56 31.8467 1044.19 32.14C1043.82 32.4267 1043.41 32.6433 1042.96 32.79C1042.51 32.93 1042.05 33 1041.6 33H1039.17V25.92ZM1040.16 32.13H1041.4C1041.83 32.13 1042.22 32.07 1042.58 31.95C1042.95 31.83 1043.26 31.6567 1043.52 31.43C1043.79 31.2033 1043.99 30.9233 1044.14 30.59C1044.29 30.2567 1044.36 29.88 1044.36 29.46C1044.36 29.02 1044.29 28.6333 1044.14 28.3C1043.99 27.9667 1043.79 27.69 1043.52 27.47C1043.26 27.2433 1042.95 27.0733 1042.58 26.96C1042.22 26.84 1041.83 26.78 1041.4 26.78H1040.16V32.13ZM1053.32 27.38C1053.1 27.1467 1052.83 26.96 1052.5 26.82C1052.17 26.68 1051.8 26.61 1051.4 26.61C1050.98 26.61 1050.61 26.6867 1050.28 26.84C1049.94 26.9867 1049.66 27.19 1049.43 27.45C1049.19 27.71 1049.01 28.0133 1048.89 28.36C1048.76 28.7 1048.7 29.0633 1048.7 29.45C1048.7 29.8433 1048.76 30.2133 1048.89 30.56C1049.01 30.9067 1049.19 31.21 1049.43 31.47C1049.66 31.7233 1049.95 31.9233 1050.29 32.07C1050.63 32.2167 1051.01 32.29 1051.43 32.29C1051.76 32.29 1052.07 32.26 1052.35 32.2C1052.63 32.14 1052.87 32.0533 1053.08 31.94V29.97H1051.51V29.13H1054.06V32.56C1053.68 32.76 1053.28 32.9133 1052.84 33.02C1052.4 33.1267 1051.92 33.18 1051.4 33.18C1050.84 33.18 1050.33 33.09 1049.87 32.91C1049.41 32.7233 1049.01 32.4667 1048.68 32.14C1048.34 31.8067 1048.08 31.4133 1047.9 30.96C1047.71 30.5 1047.62 29.9967 1047.62 29.45C1047.62 28.8967 1047.71 28.3933 1047.9 27.94C1048.09 27.48 1048.35 27.09 1048.69 26.77C1049.03 26.4433 1049.43 26.19 1049.89 26.01C1050.35 25.83 1050.85 25.74 1051.39 25.74C1051.95 25.74 1052.46 25.8233 1052.9 25.99C1053.34 26.1567 1053.71 26.38 1054.01 26.66L1053.32 27.38ZM1057.95 32.12H1061.65V33H1056.96V25.92H1061.5V26.79H1057.95V28.91H1061.29V29.76H1057.95V32.12ZM1066.65 33H1065.66V26.79H1063.39V25.92H1068.92V26.79H1066.65V33Z" fill="#444444"/>
<path d="M1134.73 27.23C1134.59 27.0367 1134.4 26.88 1134.16 26.76C1133.92 26.6333 1133.65 26.57 1133.35 26.57C1133.19 26.57 1133.02 26.5933 1132.86 26.64C1132.7 26.68 1132.55 26.75 1132.42 26.85C1132.28 26.9433 1132.17 27.0633 1132.09 27.21C1132.01 27.35 1131.97 27.52 1131.97 27.72C1131.97 27.9133 1132 28.0767 1132.08 28.21C1132.16 28.3367 1132.26 28.4467 1132.39 28.54C1132.52 28.6267 1132.67 28.7033 1132.85 28.77C1133.03 28.83 1133.22 28.8933 1133.42 28.96C1133.66 29.0333 1133.9 29.1167 1134.15 29.21C1134.39 29.3033 1134.62 29.4267 1134.82 29.58C1135.02 29.7333 1135.18 29.9267 1135.31 30.16C1135.43 30.3867 1135.5 30.6767 1135.5 31.03C1135.5 31.3967 1135.43 31.7167 1135.29 31.99C1135.15 32.2567 1134.97 32.48 1134.75 32.66C1134.52 32.8333 1134.26 32.9633 1133.96 33.05C1133.66 33.1367 1133.36 33.18 1133.05 33.18C1132.6 33.18 1132.17 33.0933 1131.75 32.92C1131.33 32.7467 1130.99 32.49 1130.72 32.15L1131.49 31.5C1131.65 31.7467 1131.88 31.9467 1132.16 32.1C1132.44 32.2533 1132.74 32.33 1133.07 32.33C1133.23 32.33 1133.4 32.3067 1133.57 32.26C1133.73 32.2133 1133.88 32.14 1134.02 32.04C1134.16 31.94 1134.27 31.8167 1134.36 31.67C1134.44 31.5167 1134.49 31.3333 1134.49 31.12C1134.49 30.9067 1134.44 30.73 1134.35 30.59C1134.26 30.4433 1134.14 30.32 1133.99 30.22C1133.83 30.12 1133.65 30.0367 1133.45 29.97C1133.25 29.8967 1133.03 29.8233 1132.81 29.75C1132.58 29.6833 1132.36 29.6033 1132.14 29.51C1131.92 29.41 1131.72 29.2867 1131.55 29.14C1131.37 28.9867 1131.23 28.8 1131.13 28.58C1131.02 28.36 1130.97 28.0867 1130.97 27.76C1130.97 27.4067 1131.04 27.1033 1131.18 26.85C1131.32 26.5967 1131.51 26.3867 1131.74 26.22C1131.97 26.0533 1132.23 25.9333 1132.52 25.86C1132.81 25.78 1133.1 25.74 1133.4 25.74C1133.81 25.74 1134.2 25.8133 1134.56 25.96C1134.92 26.1067 1135.21 26.3033 1135.43 26.55L1134.73 27.23ZM1140.42 33H1139.43V26.79H1137.16V25.92H1142.69V26.79H1140.42V33ZM1144.53 33H1143.43L1146.5 25.92H1147.4L1150.44 33H1149.32L1148.6 31.26H1145.24L1144.53 33ZM1145.59 30.39H1148.24L1146.92 27.07L1145.59 30.39ZM1154.43 33H1153.44V26.79H1151.17V25.92H1156.7V26.79H1154.43V33ZM1161.55 33.18C1161.08 33.18 1160.67 33.1033 1160.33 32.95C1159.98 32.79 1159.69 32.58 1159.47 32.32C1159.24 32.06 1159.07 31.7633 1158.96 31.43C1158.85 31.09 1158.8 30.74 1158.8 30.38V25.92H1159.79V30.32C1159.79 30.56 1159.82 30.8 1159.88 31.04C1159.94 31.2733 1160.03 31.4833 1160.17 31.67C1160.31 31.8567 1160.49 32.0067 1160.71 32.12C1160.93 32.2333 1161.21 32.29 1161.55 32.29C1161.87 32.29 1162.15 32.2333 1162.38 32.12C1162.6 32.0067 1162.78 31.8567 1162.92 31.67C1163.06 31.4833 1163.16 31.2733 1163.22 31.04C1163.28 30.8 1163.31 30.56 1163.31 30.32V25.92H1164.3V30.38C1164.3 30.74 1164.24 31.09 1164.13 31.43C1164.02 31.7633 1163.85 32.06 1163.63 32.32C1163.4 32.58 1163.11 32.79 1162.77 32.95C1162.42 33.1033 1162.01 33.18 1161.55 33.18ZM1170.69 27.23C1170.55 27.0367 1170.36 26.88 1170.12 26.76C1169.88 26.6333 1169.61 26.57 1169.31 26.57C1169.15 26.57 1168.98 26.5933 1168.82 26.64C1168.66 26.68 1168.51 26.75 1168.38 26.85C1168.24 26.9433 1168.13 27.0633 1168.05 27.21C1167.97 27.35 1167.93 27.52 1167.93 27.72C1167.93 27.9133 1167.96 28.0767 1168.04 28.21C1168.12 28.3367 1168.22 28.4467 1168.35 28.54C1168.48 28.6267 1168.63 28.7033 1168.81 28.77C1168.99 28.83 1169.18 28.8933 1169.38 28.96C1169.62 29.0333 1169.86 29.1167 1170.11 29.21C1170.35 29.3033 1170.58 29.4267 1170.78 29.58C1170.98 29.7333 1171.14 29.9267 1171.27 30.16C1171.39 30.3867 1171.46 30.6767 1171.46 31.03C1171.46 31.3967 1171.39 31.7167 1171.25 31.99C1171.11 32.2567 1170.93 32.48 1170.71 32.66C1170.48 32.8333 1170.22 32.9633 1169.92 33.05C1169.62 33.1367 1169.32 33.18 1169.01 33.18C1168.56 33.18 1168.13 33.0933 1167.71 32.92C1167.29 32.7467 1166.95 32.49 1166.68 32.15L1167.45 31.5C1167.61 31.7467 1167.84 31.9467 1168.12 32.1C1168.4 32.2533 1168.7 32.33 1169.03 32.33C1169.19 32.33 1169.36 32.3067 1169.53 32.26C1169.69 32.2133 1169.84 32.14 1169.98 32.04C1170.12 31.94 1170.23 31.8167 1170.32 31.67C1170.4 31.5167 1170.45 31.3333 1170.45 31.12C1170.45 30.9067 1170.4 30.73 1170.31 30.59C1170.22 30.4433 1170.1 30.32 1169.95 30.22C1169.79 30.12 1169.61 30.0367 1169.41 29.97C1169.21 29.8967 1168.99 29.8233 1168.77 29.75C1168.54 29.6833 1168.32 29.6033 1168.1 29.51C1167.88 29.41 1167.68 29.2867 1167.51 29.14C1167.33 28.9867 1167.19 28.8 1167.09 28.58C1166.98 28.36 1166.93 28.0867 1166.93 27.76C1166.93 27.4067 1167 27.1033 1167.14 26.85C1167.28 26.5967 1167.47 26.3867 1167.7 26.22C1167.93 26.0533 1168.19 25.9333 1168.48 25.86C1168.77 25.78 1169.06 25.74 1169.36 25.74C1169.77 25.74 1170.16 25.8133 1170.52 25.96C1170.88 26.1067 1171.17 26.3033 1171.39 26.55L1170.69 27.23Z" fill="#444444"/>
<path d="M1233.24 32.12H1236.94V33H1232.25V25.92H1236.79V26.79H1233.24V28.91H1236.58V29.76H1233.24V32.12ZM1241.93 33H1240.94V26.79H1238.67V25.92H1244.2V26.79H1241.93V33ZM1246.04 33H1244.94L1248.01 25.92H1248.91L1251.95 33H1250.83L1250.11 31.26H1246.75L1246.04 33ZM1247.1 30.39H1249.75L1248.43 27.07L1247.1 30.39Z" fill="#444444"/>
<path fill-rule="evenodd" clip-rule="evenodd" d="M0 60H16V120H0V60Z" fill="#A8A18F"/>
<path d="M16.5 60.5H31.5V119.5H16.5V60.5Z" fill="#DCDFD8" stroke="#A8A18F"/>
<path fill-rule="evenodd" clip-rule="evenodd" d="M32 60H45V120H32V60Z" fill="#A8A18F"/>
<path d="M45.5 60.5H109.5V119.5H45.5V60.5Z" fill="#DCDFD8" stroke="#A8A18F"/>
<path d="M110.5 60.5H181.5V119.5H110.5V60.5Z" fill="#DCDFD8" stroke="#A8A18F"/>
<path fill-rule="evenodd" clip-rule="evenodd" d="M182 60H206V120H182V60Z" fill="#A8A18F"/>
<path d="M206.5 60.5H337.5V119.5H206.5V60.5Z" fill="#DCDFD8" stroke="#A8A18F"/>
<path fill-rule="evenodd" clip-rule="evenodd" d="M338 60H346V120H338V60Z" fill="#A8A18F"/>
<path d="M346.5 60.5H575.5V119.5H346.5V60.5Z" fill="#DCDFD8" stroke="#A8A18F"/>
<path fill-rule="evenodd" clip-rule="evenodd" d="M576 60H586V120H576V60Z" fill="#A8A18F"/>
<path d="M586.5 60.5H680.5V119.5H586.5V60.5Z" fill="#DCDFD8" stroke="#A8A18F"/>
<path fill-rule="evenodd" clip-rule="evenodd" d="M681 60H685V120H681V60Z" fill="#A8A18F"/>
<path d="M685.5 60.5H764.5V119.5H685.5V60.5Z" fill="#DCDFD8" stroke="#A8A18F"/>
<path d="M765.5 60.5H844.5V119.5H765.5V60.5Z" fill="#DCDFD8" stroke="#A8A18F"/>
<path d="M845.5 60.5H908.5V119.5H845.5V60.5Z" fill="#DCDFD8" stroke="#A8A18F"/>
<path d="M909.5 60.5H988.5V119.5H909.5V60.5Z" fill="#DCDFD8" stroke="#A8A18F"/>
<path d="M989.5 60.5H1068.5V119.5H989.5V60.5Z" fill="#DCDFD8" stroke="#A8A18F"/>
<path d="M1069.5 60.5H1171.5V119.5H1069.5V60.5Z" fill="#DCDFD8" stroke="#A8A18F"/>
<path d="M1172.5 60.5H1251.5V119.5H1172.5V60.5Z" fill="#DCDFD8" stroke="#A8A18F"/>
<path fill-rule="evenodd" clip-rule="evenodd" d="M1252 60H1269V120H1252V60Z" fill="#A8A18F"/>
</svg>
