<svg width="1268" height="137" viewBox="0 0 1268 137" fill="none" xmlns="http://www.w3.org/2000/svg">
<mask id="path-1-inside-1_309_16362" fill="white">
<path d="M0 0H1268V77H0V0Z"/>
</mask>
<path d="M0 0H1268V77H0V0Z" fill="white"/>
<path d="M1268 76H0V78H1268V76Z" fill="#D9D9D9" mask="url(#path-1-inside-1_309_16362)"/>
<path d="M1.992 41H1.128V32.504H1.992V41ZM9.64519 39.536H9.65719L12.5012 32.504H13.8212V41H12.9572V33.62H12.9332L9.86119 41H9.40519L6.33319 33.62H6.30919V41H5.44519V32.504H6.76519L9.64519 39.536ZM17.2141 41H16.2661L19.9381 32.504H20.7781L24.4261 41H23.4661L22.5301 38.768H18.1381L17.2141 41ZM18.4621 37.976H22.2061L20.3341 33.464L18.4621 37.976ZM33.1095 34.028C32.8135 33.716 32.4615 33.476 32.0535 33.308C31.6455 33.132 31.1775 33.044 30.6495 33.044C30.1055 33.044 29.6135 33.144 29.1735 33.344C28.7415 33.544 28.3735 33.816 28.0695 34.16C27.7655 34.496 27.5295 34.888 27.3615 35.336C27.2015 35.784 27.1215 36.256 27.1215 36.752C27.1215 37.248 27.2015 37.72 27.3615 38.168C27.5295 38.616 27.7655 39.008 28.0695 39.344C28.3735 39.68 28.7415 39.948 29.1735 40.148C29.6135 40.348 30.1055 40.448 30.6495 40.448C31.1295 40.448 31.5695 40.396 31.9695 40.292C32.3695 40.188 32.6935 40.056 32.9415 39.896V37.316H30.9615V36.56H33.8055V40.388C33.3415 40.668 32.8415 40.876 32.3055 41.012C31.7695 41.148 31.2135 41.216 30.6375 41.216C29.9975 41.216 29.4055 41.104 28.8615 40.88C28.3175 40.656 27.8495 40.348 27.4575 39.956C27.0655 39.556 26.7575 39.084 26.5335 38.54C26.3175 37.996 26.2095 37.4 26.2095 36.752C26.2095 36.104 26.3215 35.508 26.5455 34.964C26.7695 34.42 27.0775 33.952 27.4695 33.56C27.8695 33.16 28.3375 32.848 28.8735 32.624C29.4175 32.4 30.0055 32.288 30.6375 32.288C31.3175 32.288 31.9095 32.388 32.4135 32.588C32.9175 32.788 33.3495 33.068 33.7095 33.428L33.1095 34.028ZM38.0811 40.232H42.6291V41H37.2171V32.504H42.4851V33.272H38.0811V36.2H42.1971V36.956H38.0811V40.232Z" fill="#111111"/>
<path d="M90.852 42H89.988V34.272H87.144V33.504H93.696V34.272H90.852V42ZM98.9471 42H98.0831V38.34L94.9031 33.504H95.9831L98.5391 37.62L101.119 33.504H102.127L98.9471 38.34V42ZM104.45 33.504H106.85C107.282 33.504 107.674 33.552 108.026 33.648C108.378 33.736 108.678 33.876 108.926 34.068C109.182 34.252 109.378 34.488 109.514 34.776C109.65 35.056 109.718 35.388 109.718 35.772C109.718 36.156 109.646 36.492 109.502 36.78C109.366 37.06 109.17 37.296 108.914 37.488C108.666 37.672 108.362 37.812 108.002 37.908C107.65 38.004 107.258 38.052 106.826 38.052H105.314V42H104.45V33.504ZM105.314 37.32H106.778C107.458 37.32 107.974 37.188 108.326 36.924C108.678 36.66 108.854 36.276 108.854 35.772C108.854 35.244 108.67 34.86 108.302 34.62C107.942 34.372 107.434 34.248 106.778 34.248H105.314V37.32ZM113.475 41.232H118.023V42H112.611V33.504H117.879V34.272H113.475V37.2H117.591V37.956H113.475V41.232Z" fill="#111111"/>
<path d="M154.992 42H154.128V33.504H154.992V42ZM161.169 42H160.305V34.272H157.461V33.504H164.013V34.272H161.169V42ZM167.353 41.232H171.901V42H166.489V33.504H171.757V34.272H167.353V37.2H171.469V37.956H167.353V41.232ZM178.991 40.536H179.003L181.847 33.504H183.167V42H182.303V34.62H182.279L179.207 42H178.751L175.679 34.62H175.655V42H174.791V33.504H176.111L178.991 40.536ZM196.843 40.74H196.867V33.504H197.731V42H196.651L191.707 34.692H191.683V42H190.819V33.504H191.899L196.843 40.74ZM201.123 42H200.175L203.847 33.504H204.687L208.335 42H207.375L206.439 39.768H202.047L201.123 42ZM202.371 38.976H206.115L204.243 34.464L202.371 38.976ZM214.986 40.536H214.998L217.842 33.504H219.162V42H218.298V34.62H218.274L215.202 42H214.746L211.674 34.62H211.65V42H210.786V33.504H212.106L214.986 40.536ZM223.479 41.232H228.027V42H222.615V33.504H227.883V34.272H223.479V37.2H227.595V37.956H223.479V41.232Z" fill="#111111"/>
<path d="M297.992 42H297.128V33.504H297.992V42ZM304.169 42H303.305V34.272H300.461V33.504H307.013V34.272H304.169V42ZM310.353 41.232H314.901V42H309.489V33.504H314.757V34.272H310.353V37.2H314.469V37.956H310.353V41.232ZM321.991 40.536H322.003L324.847 33.504H326.167V42H325.303V34.62H325.279L322.207 42H321.751L318.679 34.62H318.655V42H317.791V33.504H319.111L321.991 40.536ZM333.819 33.504H336.639C337.167 33.504 337.695 33.592 338.223 33.768C338.759 33.944 339.239 34.212 339.663 34.572C340.095 34.924 340.443 35.368 340.707 35.904C340.971 36.432 341.103 37.048 341.103 37.752C341.103 38.464 340.971 39.084 340.707 39.612C340.443 40.14 340.095 40.584 339.663 40.944C339.239 41.296 338.759 41.56 338.223 41.736C337.695 41.912 337.167 42 336.639 42H333.819V33.504ZM334.683 41.232H336.399C337.039 41.232 337.595 41.132 338.067 40.932C338.547 40.732 338.943 40.472 339.255 40.152C339.567 39.824 339.799 39.452 339.951 39.036C340.111 38.62 340.191 38.192 340.191 37.752C340.191 37.312 340.111 36.884 339.951 36.468C339.799 36.052 339.567 35.684 339.255 35.364C338.943 35.036 338.547 34.772 338.067 34.572C337.595 34.372 337.039 34.272 336.399 34.272H334.683V41.232ZM344.965 41.232H349.513V42H344.101V33.504H349.369V34.272H344.965V37.2H349.081V37.956H344.965V41.232ZM355.127 42H354.263V34.272H351.419V33.504H357.971V34.272H355.127V42ZM359.672 42H358.724L362.396 33.504H363.236L366.884 42H365.924L364.988 39.768H360.596L359.672 42ZM360.92 38.976H364.664L362.792 34.464L360.92 38.976ZM370.198 42H369.334V33.504H370.198V42ZM374.515 41.232H378.475V42H373.651V33.504H374.515V41.232ZM385.085 34.872C384.901 34.616 384.665 34.412 384.377 34.26C384.089 34.1 383.741 34.02 383.333 34.02C383.125 34.02 382.913 34.052 382.697 34.116C382.481 34.18 382.285 34.28 382.109 34.416C381.933 34.544 381.789 34.708 381.677 34.908C381.573 35.108 381.521 35.344 381.521 35.616C381.521 35.888 381.573 36.112 381.677 36.288C381.781 36.464 381.917 36.616 382.085 36.744C382.261 36.864 382.457 36.964 382.673 37.044C382.897 37.124 383.129 37.204 383.369 37.284C383.665 37.38 383.961 37.484 384.257 37.596C384.561 37.708 384.833 37.856 385.073 38.04C385.313 38.216 385.509 38.444 385.661 38.724C385.813 38.996 385.889 39.344 385.889 39.768C385.889 40.192 385.805 40.56 385.637 40.872C385.477 41.176 385.265 41.428 385.001 41.628C384.745 41.828 384.449 41.976 384.113 42.072C383.785 42.168 383.453 42.216 383.117 42.216C382.861 42.216 382.605 42.188 382.349 42.132C382.093 42.084 381.849 42.008 381.617 41.904C381.385 41.8 381.169 41.668 380.969 41.508C380.769 41.348 380.593 41.164 380.441 40.956L381.185 40.404C381.369 40.708 381.625 40.964 381.953 41.172C382.289 41.372 382.681 41.472 383.129 41.472C383.345 41.472 383.565 41.44 383.789 41.376C384.013 41.304 384.213 41.2 384.389 41.064C384.573 40.92 384.721 40.748 384.833 40.548C384.953 40.34 385.013 40.1 385.013 39.828C385.013 39.532 384.953 39.288 384.833 39.096C384.721 38.896 384.569 38.732 384.377 38.604C384.185 38.468 383.965 38.356 383.717 38.268C383.469 38.18 383.209 38.092 382.937 38.004C382.657 37.916 382.381 37.816 382.109 37.704C381.837 37.592 381.593 37.448 381.377 37.272C381.161 37.088 380.985 36.864 380.849 36.6C380.721 36.336 380.657 36.012 380.657 35.628C380.657 35.22 380.737 34.868 380.897 34.572C381.065 34.276 381.281 34.032 381.545 33.84C381.809 33.648 382.101 33.508 382.421 33.42C382.741 33.332 383.057 33.288 383.369 33.288C383.945 33.288 384.437 33.392 384.845 33.6C385.253 33.8 385.561 34.04 385.769 34.32L385.085 34.872Z" fill="#111111"/>
<path d="M589.732 40.884H589.756L592.516 33.504H593.44L590.188 42H589.276L586.036 33.504H586.972L589.732 40.884ZM596.669 41.232H601.217V42H595.805V33.504H601.073V34.272H596.669V37.2H600.785V37.956H596.669V41.232ZM610.13 40.74H610.154V33.504H611.018V42H609.938L604.994 34.692H604.97V42H604.106V33.504H605.186L610.13 40.74ZM614.47 33.504H617.29C617.818 33.504 618.346 33.592 618.874 33.768C619.41 33.944 619.89 34.212 620.314 34.572C620.746 34.924 621.094 35.368 621.358 35.904C621.622 36.432 621.754 37.048 621.754 37.752C621.754 38.464 621.622 39.084 621.358 39.612C621.094 40.14 620.746 40.584 620.314 40.944C619.89 41.296 619.41 41.56 618.874 41.736C618.346 41.912 617.818 42 617.29 42H614.47V33.504ZM615.334 41.232H617.05C617.69 41.232 618.246 41.132 618.718 40.932C619.198 40.732 619.594 40.472 619.906 40.152C620.218 39.824 620.45 39.452 620.602 39.036C620.762 38.62 620.842 38.192 620.842 37.752C620.842 37.312 620.762 36.884 620.602 36.468C620.45 36.052 620.218 35.684 619.906 35.364C619.594 35.036 619.198 34.772 618.718 34.572C618.246 34.372 617.69 34.272 617.05 34.272H615.334V41.232ZM633.152 37.752C633.152 38.4 633.04 38.996 632.816 39.54C632.592 40.084 632.28 40.556 631.88 40.956C631.488 41.348 631.02 41.656 630.476 41.88C629.94 42.104 629.356 42.216 628.724 42.216C628.092 42.216 627.504 42.104 626.96 41.88C626.424 41.656 625.956 41.348 625.556 40.956C625.164 40.556 624.856 40.084 624.632 39.54C624.408 38.996 624.296 38.4 624.296 37.752C624.296 37.104 624.408 36.508 624.632 35.964C624.856 35.42 625.164 34.952 625.556 34.56C625.956 34.16 626.424 33.848 626.96 33.624C627.504 33.4 628.092 33.288 628.724 33.288C629.356 33.288 629.94 33.4 630.476 33.624C631.02 33.848 631.488 34.16 631.88 34.56C632.28 34.952 632.592 35.42 632.816 35.964C633.04 36.508 633.152 37.104 633.152 37.752ZM632.24 37.752C632.24 37.256 632.16 36.784 632 36.336C631.84 35.888 631.608 35.496 631.304 35.16C631 34.816 630.628 34.544 630.188 34.344C629.756 34.144 629.268 34.044 628.724 34.044C628.18 34.044 627.688 34.144 627.248 34.344C626.816 34.544 626.448 34.816 626.144 35.16C625.84 35.496 625.608 35.888 625.448 36.336C625.288 36.784 625.208 37.256 625.208 37.752C625.208 38.248 625.288 38.72 625.448 39.168C625.608 39.616 625.84 40.008 626.144 40.344C626.448 40.68 626.816 40.948 627.248 41.148C627.688 41.348 628.18 41.448 628.724 41.448C629.268 41.448 629.756 41.348 630.188 41.148C630.628 40.948 631 40.68 631.304 40.344C631.608 40.008 631.84 39.616 632 39.168C632.16 38.72 632.24 38.248 632.24 37.752ZM637.012 42H636.148V33.504H638.644C639.06 33.504 639.444 33.544 639.796 33.624C640.156 33.704 640.464 33.836 640.72 34.02C640.984 34.196 641.188 34.428 641.332 34.716C641.476 35.004 641.548 35.356 641.548 35.772C641.548 36.084 641.492 36.368 641.38 36.624C641.268 36.88 641.116 37.104 640.924 37.296C640.732 37.48 640.504 37.628 640.24 37.74C639.976 37.852 639.688 37.924 639.376 37.956L641.86 42H640.804L638.452 38.028H637.012V42ZM637.012 37.284H638.512C639.208 37.284 639.744 37.16 640.12 36.912C640.496 36.656 640.684 36.276 640.684 35.772C640.684 35.492 640.632 35.256 640.528 35.064C640.424 34.872 640.28 34.716 640.096 34.596C639.912 34.476 639.688 34.388 639.424 34.332C639.16 34.276 638.868 34.248 638.548 34.248H637.012V37.284Z" fill="#111111"/>
<path d="M718.941 42H718.077V33.504H720.573C720.989 33.504 721.373 33.544 721.725 33.624C722.085 33.704 722.393 33.836 722.649 34.02C722.913 34.196 723.117 34.428 723.261 34.716C723.405 35.004 723.477 35.356 723.477 35.772C723.477 36.084 723.421 36.368 723.309 36.624C723.197 36.88 723.045 37.104 722.853 37.296C722.661 37.48 722.433 37.628 722.169 37.74C721.905 37.852 721.617 37.924 721.305 37.956L723.789 42H722.733L720.381 38.028H718.941V42ZM718.941 37.284H720.441C721.137 37.284 721.673 37.16 722.049 36.912C722.425 36.656 722.613 36.276 722.613 35.772C722.613 35.492 722.561 35.256 722.457 35.064C722.353 34.872 722.209 34.716 722.025 34.596C721.841 34.476 721.617 34.388 721.353 34.332C721.089 34.276 720.797 34.248 720.477 34.248H718.941V37.284ZM727.325 41.232H731.873V42H726.461V33.504H731.729V34.272H727.325V37.2H731.441V37.956H727.325V41.232ZM737.486 42H736.622V34.272H733.778V33.504H740.33V34.272H737.486V42ZM742.031 42H741.083L744.755 33.504H745.595L749.243 42H748.283L747.347 39.768H742.955L742.031 42ZM743.279 38.976H747.023L745.151 34.464L743.279 38.976ZM752.558 42H751.694V33.504H752.558V42ZM756.875 41.232H760.835V42H756.011V33.504H756.875V41.232Z" fill="#111111"/>
<path d="M782.154 33.504H783.018V37.188H787.65V33.504H788.514V42H787.65V37.98H783.018V42H782.154V33.504ZM791.967 33.504H794.367C794.799 33.504 795.191 33.552 795.543 33.648C795.895 33.736 796.195 33.876 796.443 34.068C796.699 34.252 796.895 34.488 797.031 34.776C797.167 35.056 797.235 35.388 797.235 35.772C797.235 36.156 797.163 36.492 797.019 36.78C796.883 37.06 796.687 37.296 796.431 37.488C796.183 37.672 795.879 37.812 795.519 37.908C795.167 38.004 794.775 38.052 794.343 38.052H792.831V42H791.967V33.504ZM792.831 37.32H794.295C794.975 37.32 795.491 37.188 795.843 36.924C796.195 36.66 796.371 36.276 796.371 35.772C796.371 35.244 796.187 34.86 795.819 34.62C795.459 34.372 794.951 34.248 794.295 34.248H792.831V37.32ZM804.328 33.504H806.728C807.16 33.504 807.552 33.552 807.904 33.648C808.256 33.736 808.556 33.876 808.804 34.068C809.06 34.252 809.256 34.488 809.392 34.776C809.528 35.056 809.596 35.388 809.596 35.772C809.596 36.156 809.524 36.492 809.38 36.78C809.244 37.06 809.048 37.296 808.792 37.488C808.544 37.672 808.24 37.812 807.88 37.908C807.528 38.004 807.136 38.052 806.704 38.052H805.192V42H804.328V33.504ZM805.192 37.32H806.656C807.336 37.32 807.852 37.188 808.204 36.924C808.556 36.66 808.732 36.276 808.732 35.772C808.732 35.244 808.548 34.86 808.18 34.62C807.82 34.372 807.312 34.248 806.656 34.248H805.192V37.32ZM813.353 42H812.489V33.504H814.985C815.401 33.504 815.785 33.544 816.137 33.624C816.497 33.704 816.805 33.836 817.061 34.02C817.325 34.196 817.529 34.428 817.673 34.716C817.817 35.004 817.889 35.356 817.889 35.772C817.889 36.084 817.833 36.368 817.721 36.624C817.609 36.88 817.457 37.104 817.265 37.296C817.073 37.48 816.845 37.628 816.581 37.74C816.317 37.852 816.029 37.924 815.717 37.956L818.201 42H817.145L814.793 38.028H813.353V42ZM813.353 37.284H814.853C815.549 37.284 816.085 37.16 816.461 36.912C816.837 36.656 817.025 36.276 817.025 35.772C817.025 35.492 816.973 35.256 816.869 35.064C816.765 34.872 816.621 34.716 816.437 34.596C816.253 34.476 816.029 34.388 815.765 34.332C815.501 34.276 815.209 34.248 814.889 34.248H813.353V37.284ZM821.737 42H820.873V33.504H821.737V42ZM832.342 40.632C832.198 40.848 832.022 41.052 831.814 41.244C831.614 41.436 831.378 41.604 831.106 41.748C830.842 41.892 830.546 42.004 830.218 42.084C829.898 42.172 829.546 42.216 829.162 42.216C828.522 42.216 827.93 42.104 827.386 41.88C826.842 41.656 826.374 41.348 825.982 40.956C825.59 40.556 825.282 40.084 825.058 39.54C824.842 38.996 824.734 38.4 824.734 37.752C824.734 37.104 824.846 36.508 825.07 35.964C825.294 35.42 825.602 34.952 825.994 34.56C826.394 34.16 826.862 33.848 827.398 33.624C827.942 33.4 828.53 33.288 829.162 33.288C829.474 33.288 829.778 33.32 830.074 33.384C830.378 33.448 830.662 33.54 830.926 33.66C831.19 33.772 831.43 33.912 831.646 34.08C831.862 34.24 832.042 34.424 832.186 34.632L831.466 35.16C831.378 35.024 831.258 34.888 831.106 34.752C830.962 34.616 830.79 34.496 830.59 34.392C830.39 34.288 830.17 34.204 829.93 34.14C829.698 34.076 829.446 34.044 829.174 34.044C828.622 34.044 828.126 34.144 827.686 34.344C827.254 34.544 826.886 34.816 826.582 35.16C826.278 35.496 826.046 35.888 825.886 36.336C825.726 36.784 825.646 37.256 825.646 37.752C825.646 38.248 825.726 38.72 825.886 39.168C826.054 39.616 826.29 40.012 826.594 40.356C826.898 40.692 827.266 40.96 827.698 41.16C828.138 41.36 828.63 41.46 829.174 41.46C829.662 41.46 830.126 41.36 830.566 41.16C831.006 40.96 831.374 40.64 831.67 40.2L832.342 40.632ZM835.89 41.232H840.438V42H835.026V33.504H840.294V34.272H835.89V37.2H840.006V37.956H835.89V41.232Z" fill="#111111"/>
<path d="M876.769 37.644C876.769 38.124 876.845 38.58 876.997 39.012C877.157 39.444 877.381 39.828 877.669 40.164C877.957 40.492 878.309 40.756 878.725 40.956C879.149 41.148 879.625 41.244 880.153 41.244C880.673 41.244 881.141 41.148 881.557 40.956C881.981 40.756 882.337 40.492 882.625 40.164C882.921 39.828 883.149 39.444 883.309 39.012C883.469 38.58 883.549 38.124 883.549 37.644C883.549 37.164 883.469 36.708 883.309 36.276C883.149 35.844 882.921 35.464 882.625 35.136C882.337 34.8 881.981 34.536 881.557 34.344C881.141 34.144 880.673 34.044 880.153 34.044C879.625 34.044 879.149 34.144 878.725 34.344C878.309 34.536 877.957 34.8 877.669 35.136C877.381 35.464 877.157 35.844 876.997 36.276C876.845 36.708 876.769 37.164 876.769 37.644ZM885.013 42H880.153C879.537 42 878.965 41.892 878.437 41.676C877.917 41.46 877.465 41.16 877.081 40.776C876.697 40.384 876.397 39.924 876.181 39.396C875.965 38.86 875.857 38.276 875.857 37.644C875.857 37.012 875.965 36.432 876.181 35.904C876.397 35.368 876.697 34.908 877.081 34.524C877.465 34.132 877.917 33.828 878.437 33.612C878.965 33.396 879.537 33.288 880.153 33.288C880.761 33.288 881.325 33.396 881.845 33.612C882.373 33.828 882.829 34.132 883.213 34.524C883.597 34.908 883.897 35.368 884.113 35.904C884.329 36.432 884.437 37.012 884.437 37.644C884.437 38.396 884.269 39.084 883.933 39.708C883.605 40.324 883.109 40.824 882.445 41.208V41.232H885.013V42ZM890.35 42H889.486V34.272H886.642V33.504H893.194V34.272H890.35V42ZM898.446 42H897.582V38.34L894.402 33.504H895.482L898.038 37.62L900.618 33.504H901.626L898.446 38.34V42ZM904.091 41.424C904.091 41.592 904.031 41.744 903.911 41.88C903.791 42.008 903.635 42.072 903.443 42.072C903.251 42.072 903.095 42.008 902.975 41.88C902.855 41.744 902.795 41.592 902.795 41.424C902.795 41.256 902.855 41.108 902.975 40.98C903.095 40.844 903.251 40.776 903.443 40.776C903.635 40.776 903.791 40.844 903.911 40.98C904.031 41.108 904.091 41.256 904.091 41.424Z" fill="#111111"/>
<path d="M947.091 42H946.227V34.272H943.383V33.504H949.935V34.272H947.091V42ZM960.448 37.752C960.448 38.4 960.336 38.996 960.112 39.54C959.888 40.084 959.576 40.556 959.176 40.956C958.784 41.348 958.316 41.656 957.772 41.88C957.236 42.104 956.652 42.216 956.02 42.216C955.388 42.216 954.8 42.104 954.256 41.88C953.72 41.656 953.252 41.348 952.852 40.956C952.46 40.556 952.152 40.084 951.928 39.54C951.704 38.996 951.592 38.4 951.592 37.752C951.592 37.104 951.704 36.508 951.928 35.964C952.152 35.42 952.46 34.952 952.852 34.56C953.252 34.16 953.72 33.848 954.256 33.624C954.8 33.4 955.388 33.288 956.02 33.288C956.652 33.288 957.236 33.4 957.772 33.624C958.316 33.848 958.784 34.16 959.176 34.56C959.576 34.952 959.888 35.42 960.112 35.964C960.336 36.508 960.448 37.104 960.448 37.752ZM959.536 37.752C959.536 37.256 959.456 36.784 959.296 36.336C959.136 35.888 958.904 35.496 958.6 35.16C958.296 34.816 957.924 34.544 957.484 34.344C957.052 34.144 956.564 34.044 956.02 34.044C955.476 34.044 954.984 34.144 954.544 34.344C954.112 34.544 953.744 34.816 953.44 35.16C953.136 35.496 952.904 35.888 952.744 36.336C952.584 36.784 952.504 37.256 952.504 37.752C952.504 38.248 952.584 38.72 952.744 39.168C952.904 39.616 953.136 40.008 953.44 40.344C953.744 40.68 954.112 40.948 954.544 41.148C954.984 41.348 955.476 41.448 956.02 41.448C956.564 41.448 957.052 41.348 957.484 41.148C957.924 40.948 958.296 40.68 958.6 40.344C958.904 40.008 959.136 39.616 959.296 39.168C959.456 38.72 959.536 38.248 959.536 37.752ZM965.804 42H964.94V34.272H962.096V33.504H968.648V34.272H965.804V42ZM970.348 42H969.4L973.072 33.504H973.912L977.56 42H976.6L975.664 39.768H971.272L970.348 42ZM971.596 38.976H975.34L973.468 34.464L971.596 38.976ZM980.875 41.232H984.835V42H980.011V33.504H980.875V41.232Z" fill="#111111"/>
<path d="M1011.6 33.504H1014.13C1014.45 33.504 1014.78 33.54 1015.1 33.612C1015.43 33.676 1015.72 33.792 1015.98 33.96C1016.24 34.12 1016.46 34.34 1016.62 34.62C1016.78 34.9 1016.87 35.252 1016.87 35.676C1016.87 36.124 1016.73 36.516 1016.46 36.852C1016.19 37.18 1015.82 37.396 1015.37 37.5V37.524C1015.92 37.588 1016.38 37.804 1016.74 38.172C1017.1 38.532 1017.29 39.024 1017.29 39.648C1017.29 40 1017.21 40.324 1017.06 40.62C1016.92 40.908 1016.71 41.156 1016.44 41.364C1016.16 41.564 1015.83 41.72 1015.44 41.832C1015.05 41.944 1014.61 42 1014.12 42H1011.6V33.504ZM1012.46 37.224H1014.2C1014.41 37.224 1014.62 37.2 1014.83 37.152C1015.04 37.104 1015.24 37.024 1015.42 36.912C1015.59 36.792 1015.73 36.636 1015.84 36.444C1015.95 36.252 1016 36.016 1016 35.736C1016 35.464 1015.95 35.236 1015.84 35.052C1015.73 34.86 1015.59 34.704 1015.4 34.584C1015.22 34.464 1015 34.38 1014.76 34.332C1014.51 34.276 1014.24 34.248 1013.96 34.248H1012.46V37.224ZM1012.46 41.256H1014.07C1014.38 41.256 1014.68 41.228 1014.96 41.172C1015.25 41.108 1015.5 41.012 1015.7 40.884C1015.92 40.748 1016.09 40.576 1016.22 40.368C1016.35 40.152 1016.41 39.896 1016.41 39.6C1016.41 39.04 1016.22 38.624 1015.84 38.352C1015.46 38.072 1014.92 37.932 1014.23 37.932H1012.46V41.256ZM1023.56 42.216C1022.92 42.216 1022.4 42.108 1021.99 41.892C1021.58 41.668 1021.26 41.388 1021.02 41.052C1020.78 40.716 1020.61 40.352 1020.51 39.96C1020.43 39.56 1020.38 39.184 1020.38 38.832V33.504H1021.25V38.736C1021.25 39.08 1021.29 39.416 1021.37 39.744C1021.45 40.064 1021.57 40.352 1021.75 40.608C1021.93 40.856 1022.17 41.06 1022.47 41.22C1022.77 41.372 1023.13 41.448 1023.56 41.448C1023.99 41.448 1024.36 41.372 1024.65 41.22C1024.95 41.06 1025.19 40.856 1025.36 40.608C1025.55 40.352 1025.68 40.064 1025.76 39.744C1025.84 39.416 1025.88 39.08 1025.88 38.736V33.504H1026.74V38.832C1026.74 39.184 1026.69 39.56 1026.6 39.96C1026.51 40.352 1026.35 40.716 1026.11 41.052C1025.87 41.388 1025.54 41.668 1025.12 41.892C1024.71 42.108 1024.19 42.216 1023.56 42.216ZM1030.15 33.504H1032.97C1033.5 33.504 1034.03 33.592 1034.55 33.768C1035.09 33.944 1035.57 34.212 1035.99 34.572C1036.43 34.924 1036.77 35.368 1037.04 35.904C1037.3 36.432 1037.43 37.048 1037.43 37.752C1037.43 38.464 1037.3 39.084 1037.04 39.612C1036.77 40.14 1036.43 40.584 1035.99 40.944C1035.57 41.296 1035.09 41.56 1034.55 41.736C1034.03 41.912 1033.5 42 1032.97 42H1030.15V33.504ZM1031.01 41.232H1032.73C1033.37 41.232 1033.93 41.132 1034.4 40.932C1034.88 40.732 1035.27 40.472 1035.59 40.152C1035.9 39.824 1036.13 39.452 1036.28 39.036C1036.44 38.62 1036.52 38.192 1036.52 37.752C1036.52 37.312 1036.44 36.884 1036.28 36.468C1036.13 36.052 1035.9 35.684 1035.59 35.364C1035.27 35.036 1034.88 34.772 1034.4 34.572C1033.93 34.372 1033.37 34.272 1032.73 34.272H1031.01V41.232ZM1046.88 35.028C1046.58 34.716 1046.23 34.476 1045.82 34.308C1045.41 34.132 1044.94 34.044 1044.42 34.044C1043.87 34.044 1043.38 34.144 1042.94 34.344C1042.51 34.544 1042.14 34.816 1041.84 35.16C1041.53 35.496 1041.3 35.888 1041.13 36.336C1040.97 36.784 1040.89 37.256 1040.89 37.752C1040.89 38.248 1040.97 38.72 1041.13 39.168C1041.3 39.616 1041.53 40.008 1041.84 40.344C1042.14 40.68 1042.51 40.948 1042.94 41.148C1043.38 41.348 1043.87 41.448 1044.42 41.448C1044.9 41.448 1045.34 41.396 1045.74 41.292C1046.14 41.188 1046.46 41.056 1046.71 40.896V38.316H1044.73V37.56H1047.57V41.388C1047.11 41.668 1046.61 41.876 1046.07 42.012C1045.54 42.148 1044.98 42.216 1044.4 42.216C1043.76 42.216 1043.17 42.104 1042.63 41.88C1042.08 41.656 1041.62 41.348 1041.22 40.956C1040.83 40.556 1040.52 40.084 1040.3 39.54C1040.08 38.996 1039.98 38.4 1039.98 37.752C1039.98 37.104 1040.09 36.508 1040.31 35.964C1040.54 35.42 1040.84 34.952 1041.24 34.56C1041.64 34.16 1042.1 33.848 1042.64 33.624C1043.18 33.4 1043.77 33.288 1044.4 33.288C1045.08 33.288 1045.68 33.388 1046.18 33.588C1046.68 33.788 1047.12 34.068 1047.48 34.428L1046.88 35.028ZM1051.85 41.232H1056.39V42H1050.98V33.504H1056.25V34.272H1051.85V37.2H1055.96V37.956H1051.85V41.232ZM1062.01 42H1061.14V34.272H1058.3V33.504H1064.85V34.272H1062.01V42Z" fill="#111111"/>
<path d="M1124.73 34.872C1124.54 34.616 1124.31 34.412 1124.02 34.26C1123.73 34.1 1123.38 34.02 1122.98 34.02C1122.77 34.02 1122.56 34.052 1122.34 34.116C1122.12 34.18 1121.93 34.28 1121.75 34.416C1121.58 34.544 1121.43 34.708 1121.32 34.908C1121.22 35.108 1121.16 35.344 1121.16 35.616C1121.16 35.888 1121.22 36.112 1121.32 36.288C1121.42 36.464 1121.56 36.616 1121.73 36.744C1121.9 36.864 1122.1 36.964 1122.32 37.044C1122.54 37.124 1122.77 37.204 1123.01 37.284C1123.31 37.38 1123.6 37.484 1123.9 37.596C1124.2 37.708 1124.48 37.856 1124.72 38.04C1124.96 38.216 1125.15 38.444 1125.3 38.724C1125.46 38.996 1125.53 39.344 1125.53 39.768C1125.53 40.192 1125.45 40.56 1125.28 40.872C1125.12 41.176 1124.91 41.428 1124.64 41.628C1124.39 41.828 1124.09 41.976 1123.76 42.072C1123.43 42.168 1123.1 42.216 1122.76 42.216C1122.5 42.216 1122.25 42.188 1121.99 42.132C1121.74 42.084 1121.49 42.008 1121.26 41.904C1121.03 41.8 1120.81 41.668 1120.61 41.508C1120.41 41.348 1120.24 41.164 1120.08 40.956L1120.83 40.404C1121.01 40.708 1121.27 40.964 1121.6 41.172C1121.93 41.372 1122.32 41.472 1122.77 41.472C1122.99 41.472 1123.21 41.44 1123.43 41.376C1123.66 41.304 1123.86 41.2 1124.03 41.064C1124.22 40.92 1124.36 40.748 1124.48 40.548C1124.6 40.34 1124.66 40.1 1124.66 39.828C1124.66 39.532 1124.6 39.288 1124.48 39.096C1124.36 38.896 1124.21 38.732 1124.02 38.604C1123.83 38.468 1123.61 38.356 1123.36 38.268C1123.11 38.18 1122.85 38.092 1122.58 38.004C1122.3 37.916 1122.02 37.816 1121.75 37.704C1121.48 37.592 1121.24 37.448 1121.02 37.272C1120.8 37.088 1120.63 36.864 1120.49 36.6C1120.36 36.336 1120.3 36.012 1120.3 35.628C1120.3 35.22 1120.38 34.868 1120.54 34.572C1120.71 34.276 1120.92 34.032 1121.19 33.84C1121.45 33.648 1121.74 33.508 1122.06 33.42C1122.38 33.332 1122.7 33.288 1123.01 33.288C1123.59 33.288 1124.08 33.392 1124.49 33.6C1124.9 33.8 1125.2 34.04 1125.41 34.32L1124.73 34.872ZM1131.1 42H1130.23V34.272H1127.39V33.504H1133.94V34.272H1131.1V42ZM1135.64 42H1134.7L1138.37 33.504H1139.21L1142.86 42H1141.9L1140.96 39.768H1136.57L1135.64 42ZM1136.89 38.976H1140.64L1138.76 34.464L1136.89 38.976ZM1147.32 42H1146.45V34.272H1143.61V33.504H1150.16V34.272H1147.32V42ZM1155.77 42.216C1155.13 42.216 1154.6 42.108 1154.2 41.892C1153.79 41.668 1153.46 41.388 1153.22 41.052C1152.98 40.716 1152.82 40.352 1152.72 39.96C1152.63 39.56 1152.59 39.184 1152.59 38.832V33.504H1153.45V38.736C1153.45 39.08 1153.49 39.416 1153.57 39.744C1153.65 40.064 1153.78 40.352 1153.96 40.608C1154.14 40.856 1154.38 41.06 1154.68 41.22C1154.97 41.372 1155.34 41.448 1155.77 41.448C1156.2 41.448 1156.56 41.372 1156.86 41.22C1157.16 41.06 1157.39 40.856 1157.57 40.608C1157.75 40.352 1157.88 40.064 1157.96 39.744C1158.04 39.416 1158.08 39.08 1158.08 38.736V33.504H1158.95V38.832C1158.95 39.184 1158.9 39.56 1158.8 39.96C1158.72 40.352 1158.55 40.716 1158.31 41.052C1158.07 41.388 1157.74 41.668 1157.33 41.892C1156.92 42.108 1156.4 42.216 1155.77 42.216ZM1166.47 34.872C1166.29 34.616 1166.05 34.412 1165.76 34.26C1165.47 34.1 1165.13 34.02 1164.72 34.02C1164.51 34.02 1164.3 34.052 1164.08 34.116C1163.87 34.18 1163.67 34.28 1163.49 34.416C1163.32 34.544 1163.17 34.708 1163.06 34.908C1162.96 35.108 1162.91 35.344 1162.91 35.616C1162.91 35.888 1162.96 36.112 1163.06 36.288C1163.17 36.464 1163.3 36.616 1163.47 36.744C1163.65 36.864 1163.84 36.964 1164.06 37.044C1164.28 37.124 1164.51 37.204 1164.75 37.284C1165.05 37.38 1165.35 37.484 1165.64 37.596C1165.95 37.708 1166.22 37.856 1166.46 38.04C1166.7 38.216 1166.89 38.444 1167.05 38.724C1167.2 38.996 1167.27 39.344 1167.27 39.768C1167.27 40.192 1167.19 40.56 1167.02 40.872C1166.86 41.176 1166.65 41.428 1166.39 41.628C1166.13 41.828 1165.83 41.976 1165.5 42.072C1165.17 42.168 1164.84 42.216 1164.5 42.216C1164.25 42.216 1163.99 42.188 1163.73 42.132C1163.48 42.084 1163.23 42.008 1163 41.904C1162.77 41.8 1162.55 41.668 1162.35 41.508C1162.15 41.348 1161.98 41.164 1161.83 40.956L1162.57 40.404C1162.75 40.708 1163.01 40.964 1163.34 41.172C1163.67 41.372 1164.07 41.472 1164.51 41.472C1164.73 41.472 1164.95 41.44 1165.17 41.376C1165.4 41.304 1165.6 41.2 1165.77 41.064C1165.96 40.92 1166.11 40.748 1166.22 40.548C1166.34 40.34 1166.4 40.1 1166.4 39.828C1166.4 39.532 1166.34 39.288 1166.22 39.096C1166.11 38.896 1165.95 38.732 1165.76 38.604C1165.57 38.468 1165.35 38.356 1165.1 38.268C1164.85 38.18 1164.59 38.092 1164.32 38.004C1164.04 37.916 1163.77 37.816 1163.49 37.704C1163.22 37.592 1162.98 37.448 1162.76 37.272C1162.55 37.088 1162.37 36.864 1162.23 36.6C1162.11 36.336 1162.04 36.012 1162.04 35.628C1162.04 35.22 1162.12 34.868 1162.28 34.572C1162.45 34.276 1162.67 34.032 1162.93 33.84C1163.19 33.648 1163.49 33.508 1163.81 33.42C1164.13 33.332 1164.44 33.288 1164.75 33.288C1165.33 33.288 1165.82 33.392 1166.23 33.6C1166.64 33.8 1166.95 34.04 1167.15 34.32L1166.47 34.872Z" fill="#111111"/>
<path d="M1225.96 41.232H1230.51V42H1225.1V33.504H1230.36V34.272H1225.96V37.2H1230.08V37.956H1225.96V41.232ZM1236.12 42H1235.26V34.272H1232.41V33.504H1238.96V34.272H1236.12V42ZM1240.67 42H1239.72L1243.39 33.504H1244.23L1247.88 42H1246.92L1245.98 39.768H1241.59L1240.67 42ZM1241.91 38.976H1245.66L1243.79 34.464L1241.91 38.976Z" fill="#111111"/>
<path d="M0.5 77.5H59.5V136.5H0.5V77.5Z" fill="#DCDFD8" stroke="#A8A18F"/>
<path fill-rule="evenodd" clip-rule="evenodd" d="M60 77H87V137H60V77Z" fill="#A8A18F"/>
<path d="M87.5 77.5H144.5V136.5H87.5V77.5Z" fill="#DCDFD8" stroke="#A8A18F"/>
<path fill-rule="evenodd" clip-rule="evenodd" d="M145 77H153V137H145V77Z" fill="#A8A18F"/>
<path d="M153.5 77.5H287.5V136.5H153.5V77.5Z" fill="#DCDFD8" stroke="#A8A18F"/>
<path fill-rule="evenodd" clip-rule="evenodd" d="M288 77H296V137H288V77Z" fill="#A8A18F"/>
<path d="M296.5 77.5H559.5V136.5H296.5V77.5Z" fill="#DCDFD8" stroke="#A8A18F"/>
<path fill-rule="evenodd" clip-rule="evenodd" d="M560 77H586V137H560V77Z" fill="#A8A18F"/>
<path d="M586.5 77.5H680.5V136.5H586.5V77.5Z" fill="#DCDFD8" stroke="#A8A18F"/>
<path d="M681.5 77.5H760.5V136.5H681.5V77.5Z" fill="#DCDFD8" stroke="#A8A18F"/>
<path d="M761.5 77.5H840.5V136.5H761.5V77.5Z" fill="#DCDFD8" stroke="#A8A18F"/>
<path d="M841.5 77.5H904.5V136.5H841.5V77.5Z" fill="#DCDFD8" stroke="#A8A18F"/>
<path d="M905.5 77.5H984.5V136.5H905.5V77.5Z" fill="#DCDFD8" stroke="#A8A18F"/>
<path d="M985.5 77.5H1064.5V136.5H985.5V77.5Z" fill="#DCDFD8" stroke="#A8A18F"/>
<path d="M1065.5 77.5H1167.5V136.5H1065.5V77.5Z" fill="#DCDFD8" stroke="#A8A18F"/>
<path d="M1168.5 77.5H1247.5V136.5H1168.5V77.5Z" fill="#DCDFD8" stroke="#A8A18F"/>
<path fill-rule="evenodd" clip-rule="evenodd" d="M1248 77H1268V137H1248V77Z" fill="#A8A18F"/>
</svg>
