<svg width="1268" height="42" viewBox="0 0 1268 42" fill="none" xmlns="http://www.w3.org/2000/svg">
<mask id="path-1-inside-1_309_16552" fill="white">
<path d="M0 0H1268V42H0V0Z"/>
</mask>
<path d="M0 0H1268V42H0V0Z" fill="white"/>
<path d="M0 1H1268V-1H0V1ZM1268 41H0V43H1268V41Z" fill="#D9D9D9" mask="url(#path-1-inside-1_309_16552)"/>
<path d="M2.324 25.104H6.944V26H1.316V16.088H2.324V25.104ZM11.2607 26H10.2527V16.088H11.2607V26ZM18.7274 24.698H18.7554L21.9754 16.088H23.0534L19.2594 26H18.1954L14.4154 16.088H15.5074L18.7274 24.698ZM27.2201 26H26.2121V16.088H27.2201V26ZM38.6768 24.53H38.7048V16.088H39.7128V26H38.4528L32.6848 17.474H32.6568V26H31.6488V16.088H32.9088L38.6768 24.53ZM51.6582 17.866C51.3129 17.502 50.9022 17.222 50.4262 17.026C49.9502 16.8207 49.4042 16.718 48.7882 16.718C48.1536 16.718 47.5796 16.8347 47.0662 17.068C46.5622 17.3013 46.1329 17.6187 45.7782 18.02C45.4236 18.412 45.1482 18.8693 44.9522 19.392C44.7656 19.9147 44.6722 20.4653 44.6722 21.044C44.6722 21.6227 44.7656 22.1733 44.9522 22.696C45.1482 23.2187 45.4236 23.676 45.7782 24.068C46.1329 24.46 46.5622 24.7727 47.0662 25.006C47.5796 25.2393 48.1536 25.356 48.7882 25.356C49.3482 25.356 49.8616 25.2953 50.3282 25.174C50.7949 25.0527 51.1729 24.8987 51.4622 24.712V21.702H49.1522V20.82H52.4702V25.286C51.9289 25.6127 51.3456 25.8553 50.7202 26.014C50.0949 26.1727 49.4462 26.252 48.7742 26.252C48.0276 26.252 47.3369 26.1213 46.7022 25.86C46.0676 25.5987 45.5216 25.2393 45.0642 24.782C44.6069 24.3153 44.2476 23.7647 43.9862 23.13C43.7342 22.4953 43.6082 21.8 43.6082 21.044C43.6082 20.288 43.7389 19.5927 44.0002 18.958C44.2616 18.3233 44.6209 17.7773 45.0782 17.32C45.5449 16.8533 46.0909 16.4893 46.7162 16.228C47.3509 15.9667 48.0369 15.836 48.7742 15.836C49.5676 15.836 50.2582 15.9527 50.8462 16.186C51.4342 16.4193 51.9382 16.746 52.3582 17.166L51.6582 17.866ZM63.1584 26H62.1504V16.088H65.0624C65.5477 16.088 65.9957 16.1347 66.4064 16.228C66.8264 16.3213 67.1857 16.4753 67.4844 16.69C67.7924 16.8953 68.0304 17.166 68.1984 17.502C68.3664 17.838 68.4504 18.2487 68.4504 18.734C68.4504 19.098 68.385 19.4293 68.2544 19.728C68.1237 20.0267 67.9464 20.288 67.7224 20.512C67.4984 20.7267 67.2324 20.8993 66.9244 21.03C66.6164 21.1607 66.2804 21.2447 65.9164 21.282L68.8144 26H67.5824L64.8384 21.366H63.1584V26ZM63.1584 20.498H64.9084C65.7204 20.498 66.3457 20.3533 66.7844 20.064C67.223 19.7653 67.4424 19.322 67.4424 18.734C67.4424 18.4073 67.3817 18.132 67.2604 17.908C67.139 17.684 66.971 17.502 66.7564 17.362C66.5417 17.222 66.2804 17.1193 65.9724 17.054C65.6644 16.9887 65.3237 16.956 64.9504 16.956H63.1584V20.498ZM82.1312 21.044C82.1312 21.8 82.0006 22.4953 81.7392 23.13C81.4779 23.7647 81.1139 24.3153 80.6472 24.782C80.1899 25.2393 79.6439 25.5987 79.0092 25.86C78.3839 26.1213 77.7026 26.252 76.9652 26.252C76.2279 26.252 75.5419 26.1213 74.9072 25.86C74.2819 25.5987 73.7359 25.2393 73.2692 24.782C72.8119 24.3153 72.4526 23.7647 72.1912 23.13C71.9299 22.4953 71.7992 21.8 71.7992 21.044C71.7992 20.288 71.9299 19.5927 72.1912 18.958C72.4526 18.3233 72.8119 17.7773 73.2692 17.32C73.7359 16.8533 74.2819 16.4893 74.9072 16.228C75.5419 15.9667 76.2279 15.836 76.9652 15.836C77.7026 15.836 78.3839 15.9667 79.0092 16.228C79.6439 16.4893 80.1899 16.8533 80.6472 17.32C81.1139 17.7773 81.4779 18.3233 81.7392 18.958C82.0006 19.5927 82.1312 20.288 82.1312 21.044ZM81.0672 21.044C81.0672 20.4653 80.9739 19.9147 80.7872 19.392C80.6006 18.8693 80.3299 18.412 79.9752 18.02C79.6206 17.6187 79.1866 17.3013 78.6732 17.068C78.1692 16.8347 77.5999 16.718 76.9652 16.718C76.3306 16.718 75.7566 16.8347 75.2432 17.068C74.7392 17.3013 74.3099 17.6187 73.9552 18.02C73.6006 18.412 73.3299 18.8693 73.1432 19.392C72.9566 19.9147 72.8632 20.4653 72.8632 21.044C72.8632 21.6227 72.9566 22.1733 73.1432 22.696C73.3299 23.2187 73.6006 23.676 73.9552 24.068C74.3099 24.46 74.7392 24.7727 75.2432 25.006C75.7566 25.2393 76.3306 25.356 76.9652 25.356C77.5999 25.356 78.1692 25.2393 78.6732 25.006C79.1866 24.7727 79.6206 24.46 79.9752 24.068C80.3299 23.676 80.6006 23.2187 80.7872 22.696C80.9739 22.1733 81.0672 21.6227 81.0672 21.044ZM95.8258 21.044C95.8258 21.8 95.6951 22.4953 95.4338 23.13C95.1724 23.7647 94.8084 24.3153 94.3418 24.782C93.8844 25.2393 93.3384 25.5987 92.7038 25.86C92.0784 26.1213 91.3971 26.252 90.6598 26.252C89.9224 26.252 89.2364 26.1213 88.6018 25.86C87.9764 25.5987 87.4304 25.2393 86.9638 24.782C86.5064 24.3153 86.1471 23.7647 85.8858 23.13C85.6244 22.4953 85.4938 21.8 85.4938 21.044C85.4938 20.288 85.6244 19.5927 85.8858 18.958C86.1471 18.3233 86.5064 17.7773 86.9638 17.32C87.4304 16.8533 87.9764 16.4893 88.6018 16.228C89.2364 15.9667 89.9224 15.836 90.6598 15.836C91.3971 15.836 92.0784 15.9667 92.7038 16.228C93.3384 16.4893 93.8844 16.8533 94.3418 17.32C94.8084 17.7773 95.1724 18.3233 95.4338 18.958C95.6951 19.5927 95.8258 20.288 95.8258 21.044ZM94.7618 21.044C94.7618 20.4653 94.6684 19.9147 94.4818 19.392C94.2951 18.8693 94.0244 18.412 93.6698 18.02C93.3151 17.6187 92.8811 17.3013 92.3678 17.068C91.8638 16.8347 91.2944 16.718 90.6598 16.718C90.0251 16.718 89.4511 16.8347 88.9378 17.068C88.4338 17.3013 88.0044 17.6187 87.6498 18.02C87.2951 18.412 87.0244 18.8693 86.8378 19.392C86.6511 19.9147 86.5578 20.4653 86.5578 21.044C86.5578 21.6227 86.6511 22.1733 86.8378 22.696C87.0244 23.2187 87.2951 23.676 87.6498 24.068C88.0044 24.46 88.4338 24.7727 88.9378 25.006C89.4511 25.2393 90.0251 25.356 90.6598 25.356C91.2944 25.356 91.8638 25.2393 92.3678 25.006C92.8811 24.7727 93.3151 24.46 93.6698 24.068C94.0244 23.676 94.2951 23.2187 94.4818 22.696C94.6684 22.1733 94.7618 21.6227 94.7618 21.044ZM104.62 24.292H104.634L107.952 16.088H109.492V26H108.484V17.39H108.456L104.872 26H104.34L100.756 17.39H100.728V26H99.7203V16.088H101.26L104.62 24.292Z" fill="#111111"/>
<rect x="1244" y="20" width="16" height="2" rx="1" fill="#999999"/>
<path d="M1204 21C1204 21.5523 1203.55 22 1203 22C1202.45 22 1202 21.5523 1202 21C1202 20.4477 1202.45 20 1203 20C1203.55 20 1204 20.4477 1204 21Z" fill="#999999"/>
<path d="M1209 21C1209 21.5523 1208.55 22 1208 22C1207.45 22 1207 21.5523 1207 21C1207 20.4477 1207.45 20 1208 20C1208.55 20 1209 20.4477 1209 21Z" fill="#999999"/>
<path d="M1213 22C1213.55 22 1214 21.5523 1214 21C1214 20.4477 1213.55 20 1213 20C1212.45 20 1212 20.4477 1212 21C1212 21.5523 1212.45 22 1213 22Z" fill="#999999"/>
</svg>
