<svg width="1268" height="41" viewBox="0 0 1268 41" fill="none" xmlns="http://www.w3.org/2000/svg">
<mask id="path-1-inside-1_309_16554" fill="white">
<path d="M0 0H1268V41H0V0Z"/>
</mask>
<path d="M0 0H1268V41H0V0Z" fill="white"/>
<path d="M0 1H1268V-1H0V1ZM1268 40H0V42H1268V40Z" fill="#D9D9D9" mask="url(#path-1-inside-1_309_16554)"/>
<path d="M18.324 24.104H22.944V25H17.316V15.088H18.324V24.104ZM27.2607 25H26.2527V15.088H27.2607V25ZM34.7274 23.698H34.7554L37.9754 15.088H39.0534L35.2594 25H34.1954L30.4154 15.088H31.5074L34.7274 23.698ZM43.2201 25H42.2121V15.088H43.2201V25ZM54.6768 23.53H54.7048V15.088H55.7128V25H54.4528L48.6848 16.474H48.6568V25H47.6488V15.088H48.9088L54.6768 23.53ZM67.6582 16.866C67.3129 16.502 66.9022 16.222 66.4262 16.026C65.9502 15.8207 65.4042 15.718 64.7882 15.718C64.1536 15.718 63.5796 15.8347 63.0662 16.068C62.5622 16.3013 62.1329 16.6187 61.7782 17.02C61.4236 17.412 61.1482 17.8693 60.9522 18.392C60.7656 18.9147 60.6722 19.4653 60.6722 20.044C60.6722 20.6227 60.7656 21.1733 60.9522 21.696C61.1482 22.2187 61.4236 22.676 61.7782 23.068C62.1329 23.46 62.5622 23.7727 63.0662 24.006C63.5796 24.2393 64.1536 24.356 64.7882 24.356C65.3482 24.356 65.8616 24.2953 66.3282 24.174C66.7949 24.0527 67.1729 23.8987 67.4622 23.712V20.702H65.1522V19.82H68.4702V24.286C67.9289 24.6127 67.3456 24.8553 66.7202 25.014C66.0949 25.1727 65.4462 25.252 64.7742 25.252C64.0276 25.252 63.3369 25.1213 62.7022 24.86C62.0676 24.5987 61.5216 24.2393 61.0642 23.782C60.6069 23.3153 60.2476 22.7647 59.9862 22.13C59.7342 21.4953 59.6082 20.8 59.6082 20.044C59.6082 19.288 59.7389 18.5927 60.0002 17.958C60.2616 17.3233 60.6209 16.7773 61.0782 16.32C61.5449 15.8533 62.0909 15.4893 62.7162 15.228C63.3509 14.9667 64.0369 14.836 64.7742 14.836C65.5676 14.836 66.2582 14.9527 66.8462 15.186C67.4342 15.4193 67.9382 15.746 68.3582 16.166L67.6582 16.866ZM79.1584 25H78.1504V15.088H81.0624C81.5477 15.088 81.9957 15.1347 82.4064 15.228C82.8264 15.3213 83.1857 15.4753 83.4844 15.69C83.7924 15.8953 84.0304 16.166 84.1984 16.502C84.3664 16.838 84.4504 17.2487 84.4504 17.734C84.4504 18.098 84.385 18.4293 84.2544 18.728C84.1237 19.0267 83.9464 19.288 83.7224 19.512C83.4984 19.7267 83.2324 19.8993 82.9244 20.03C82.6164 20.1607 82.2804 20.2447 81.9164 20.282L84.8144 25H83.5824L80.8384 20.366H79.1584V25ZM79.1584 19.498H80.9084C81.7204 19.498 82.3457 19.3533 82.7844 19.064C83.223 18.7653 83.4424 18.322 83.4424 17.734C83.4424 17.4073 83.3817 17.132 83.2604 16.908C83.139 16.684 82.971 16.502 82.7564 16.362C82.5417 16.222 82.2804 16.1193 81.9724 16.054C81.6644 15.9887 81.3237 15.956 80.9504 15.956H79.1584V19.498ZM98.1312 20.044C98.1312 20.8 98.0006 21.4953 97.7392 22.13C97.4779 22.7647 97.1139 23.3153 96.6472 23.782C96.1899 24.2393 95.6439 24.5987 95.0092 24.86C94.3839 25.1213 93.7026 25.252 92.9652 25.252C92.2279 25.252 91.5419 25.1213 90.9072 24.86C90.2819 24.5987 89.7359 24.2393 89.2692 23.782C88.8119 23.3153 88.4526 22.7647 88.1912 22.13C87.9299 21.4953 87.7992 20.8 87.7992 20.044C87.7992 19.288 87.9299 18.5927 88.1912 17.958C88.4526 17.3233 88.8119 16.7773 89.2692 16.32C89.7359 15.8533 90.2819 15.4893 90.9072 15.228C91.5419 14.9667 92.2279 14.836 92.9652 14.836C93.7026 14.836 94.3839 14.9667 95.0092 15.228C95.6439 15.4893 96.1899 15.8533 96.6472 16.32C97.1139 16.7773 97.4779 17.3233 97.7392 17.958C98.0006 18.5927 98.1312 19.288 98.1312 20.044ZM97.0672 20.044C97.0672 19.4653 96.9739 18.9147 96.7872 18.392C96.6006 17.8693 96.3299 17.412 95.9752 17.02C95.6206 16.6187 95.1866 16.3013 94.6732 16.068C94.1692 15.8347 93.5999 15.718 92.9652 15.718C92.3306 15.718 91.7566 15.8347 91.2432 16.068C90.7392 16.3013 90.3099 16.6187 89.9552 17.02C89.6006 17.412 89.3299 17.8693 89.1432 18.392C88.9566 18.9147 88.8632 19.4653 88.8632 20.044C88.8632 20.6227 88.9566 21.1733 89.1432 21.696C89.3299 22.2187 89.6006 22.676 89.9552 23.068C90.3099 23.46 90.7392 23.7727 91.2432 24.006C91.7566 24.2393 92.3306 24.356 92.9652 24.356C93.5999 24.356 94.1692 24.2393 94.6732 24.006C95.1866 23.7727 95.6206 23.46 95.9752 23.068C96.3299 22.676 96.6006 22.2187 96.7872 21.696C96.9739 21.1733 97.0672 20.6227 97.0672 20.044ZM111.826 20.044C111.826 20.8 111.695 21.4953 111.434 22.13C111.172 22.7647 110.808 23.3153 110.342 23.782C109.884 24.2393 109.338 24.5987 108.704 24.86C108.078 25.1213 107.397 25.252 106.66 25.252C105.922 25.252 105.236 25.1213 104.602 24.86C103.976 24.5987 103.43 24.2393 102.964 23.782C102.506 23.3153 102.147 22.7647 101.886 22.13C101.624 21.4953 101.494 20.8 101.494 20.044C101.494 19.288 101.624 18.5927 101.886 17.958C102.147 17.3233 102.506 16.7773 102.964 16.32C103.43 15.8533 103.976 15.4893 104.602 15.228C105.236 14.9667 105.922 14.836 106.66 14.836C107.397 14.836 108.078 14.9667 108.704 15.228C109.338 15.4893 109.884 15.8533 110.342 16.32C110.808 16.7773 111.172 17.3233 111.434 17.958C111.695 18.5927 111.826 19.288 111.826 20.044ZM110.762 20.044C110.762 19.4653 110.668 18.9147 110.482 18.392C110.295 17.8693 110.024 17.412 109.67 17.02C109.315 16.6187 108.881 16.3013 108.368 16.068C107.864 15.8347 107.294 15.718 106.66 15.718C106.025 15.718 105.451 15.8347 104.938 16.068C104.434 16.3013 104.004 16.6187 103.65 17.02C103.295 17.412 103.024 17.8693 102.838 18.392C102.651 18.9147 102.558 19.4653 102.558 20.044C102.558 20.6227 102.651 21.1733 102.838 21.696C103.024 22.2187 103.295 22.676 103.65 23.068C104.004 23.46 104.434 23.7727 104.938 24.006C105.451 24.2393 106.025 24.356 106.66 24.356C107.294 24.356 107.864 24.2393 108.368 24.006C108.881 23.7727 109.315 23.46 109.67 23.068C110.024 22.676 110.295 22.2187 110.482 21.696C110.668 21.1733 110.762 20.6227 110.762 20.044ZM120.62 23.292H120.634L123.952 15.088H125.492V25H124.484V16.39H124.456L120.872 25H120.34L116.756 16.39H116.728V25H115.72V15.088H117.26L120.62 23.292Z" fill="#111111"/>
<path d="M1195 20.5C1195 21.0523 1194.55 21.5 1194 21.5C1193.45 21.5 1193 21.0523 1193 20.5C1193 19.9477 1193.45 19.5 1194 19.5C1194.55 19.5 1195 19.9477 1195 20.5Z" fill="#111111"/>
<path d="M1200 20.5C1200 21.0523 1199.55 21.5 1199 21.5C1198.45 21.5 1198 21.0523 1198 20.5C1198 19.9477 1198.45 19.5 1199 19.5C1199.55 19.5 1200 19.9477 1200 20.5Z" fill="#111111"/>
<path d="M1204 21.5C1204.55 21.5 1205 21.0523 1205 20.5C1205 19.9477 1204.55 19.5 1204 19.5C1203.45 19.5 1203 19.9477 1203 20.5C1203 21.0523 1203.45 21.5 1204 21.5Z" fill="#111111"/>
<rect x="1235" y="19.5234" width="16" height="1.95238" fill="#111111"/>
</svg>
