<svg width="1268" height="42" viewBox="0 0 1268 42" fill="none" xmlns="http://www.w3.org/2000/svg">
<mask id="path-1-inside-1_309_16556" fill="white">
<path d="M0 0H1268V42H0V0Z"/>
</mask>
<path d="M0 0H1268V42H0V0Z" fill="white"/>
<path d="M0 1H1268V-1H0V1ZM1268 41H0V43H1268V41Z" fill="#D9D9D9" mask="url(#path-1-inside-1_309_16556)"/>
<path d="M18.324 26H17.316V16.088H20.228C20.7133 16.088 21.1613 16.1347 21.572 16.228C21.992 16.3213 22.3513 16.4753 22.65 16.69C22.958 16.8953 23.196 17.166 23.364 17.502C23.532 17.838 23.616 18.2487 23.616 18.734C23.616 19.098 23.5507 19.4293 23.42 19.728C23.2893 20.0267 23.112 20.288 22.888 20.512C22.664 20.7267 22.398 20.8993 22.09 21.03C21.782 21.1607 21.446 21.2447 21.082 21.282L23.98 26H22.748L20.004 21.366H18.324V26ZM18.324 20.498H20.074C20.886 20.498 21.5113 20.3533 21.95 20.064C22.3887 19.7653 22.608 19.322 22.608 18.734C22.608 18.4073 22.5473 18.132 22.426 17.908C22.3047 17.684 22.1367 17.502 21.922 17.362C21.7073 17.222 21.446 17.1193 21.138 17.054C20.83 16.9887 20.4893 16.956 20.116 16.956H18.324V20.498ZM37.2969 21.044C37.2969 21.8 37.1662 22.4953 36.9049 23.13C36.6435 23.7647 36.2795 24.3153 35.8129 24.782C35.3555 25.2393 34.8095 25.5987 34.1749 25.86C33.5495 26.1213 32.8682 26.252 32.1309 26.252C31.3935 26.252 30.7075 26.1213 30.0729 25.86C29.4475 25.5987 28.9015 25.2393 28.4349 24.782C27.9775 24.3153 27.6182 23.7647 27.3569 23.13C27.0955 22.4953 26.9649 21.8 26.9649 21.044C26.9649 20.288 27.0955 19.5927 27.3569 18.958C27.6182 18.3233 27.9775 17.7773 28.4349 17.32C28.9015 16.8533 29.4475 16.4893 30.0729 16.228C30.7075 15.9667 31.3935 15.836 32.1309 15.836C32.8682 15.836 33.5495 15.9667 34.1749 16.228C34.8095 16.4893 35.3555 16.8533 35.8129 17.32C36.2795 17.7773 36.6435 18.3233 36.9049 18.958C37.1662 19.5927 37.2969 20.288 37.2969 21.044ZM36.2329 21.044C36.2329 20.4653 36.1395 19.9147 35.9529 19.392C35.7662 18.8693 35.4955 18.412 35.1409 18.02C34.7862 17.6187 34.3522 17.3013 33.8389 17.068C33.3349 16.8347 32.7655 16.718 32.1309 16.718C31.4962 16.718 30.9222 16.8347 30.4089 17.068C29.9049 17.3013 29.4755 17.6187 29.1209 18.02C28.7662 18.412 28.4955 18.8693 28.3089 19.392C28.1222 19.9147 28.0289 20.4653 28.0289 21.044C28.0289 21.6227 28.1222 22.1733 28.3089 22.696C28.4955 23.2187 28.7662 23.676 29.1209 24.068C29.4755 24.46 29.9049 24.7727 30.4089 25.006C30.9222 25.2393 31.4962 25.356 32.1309 25.356C32.7655 25.356 33.3349 25.2393 33.8389 25.006C34.3522 24.7727 34.7862 24.46 35.1409 24.068C35.4955 23.676 35.7662 23.2187 35.9529 22.696C36.1395 22.1733 36.2329 21.6227 36.2329 21.044ZM50.9914 21.044C50.9914 21.8 50.8607 22.4953 50.5994 23.13C50.3381 23.7647 49.9741 24.3153 49.5074 24.782C49.0501 25.2393 48.5041 25.5987 47.8694 25.86C47.2441 26.1213 46.5627 26.252 45.8254 26.252C45.0881 26.252 44.4021 26.1213 43.7674 25.86C43.1421 25.5987 42.5961 25.2393 42.1294 24.782C41.6721 24.3153 41.3127 23.7647 41.0514 23.13C40.7901 22.4953 40.6594 21.8 40.6594 21.044C40.6594 20.288 40.7901 19.5927 41.0514 18.958C41.3127 18.3233 41.6721 17.7773 42.1294 17.32C42.5961 16.8533 43.1421 16.4893 43.7674 16.228C44.4021 15.9667 45.0881 15.836 45.8254 15.836C46.5627 15.836 47.2441 15.9667 47.8694 16.228C48.5041 16.4893 49.0501 16.8533 49.5074 17.32C49.9741 17.7773 50.3381 18.3233 50.5994 18.958C50.8607 19.5927 50.9914 20.288 50.9914 21.044ZM49.9274 21.044C49.9274 20.4653 49.8341 19.9147 49.6474 19.392C49.4607 18.8693 49.1901 18.412 48.8354 18.02C48.4807 17.6187 48.0467 17.3013 47.5334 17.068C47.0294 16.8347 46.4601 16.718 45.8254 16.718C45.1907 16.718 44.6167 16.8347 44.1034 17.068C43.5994 17.3013 43.1701 17.6187 42.8154 18.02C42.4607 18.412 42.1901 18.8693 42.0034 19.392C41.8167 19.9147 41.7234 20.4653 41.7234 21.044C41.7234 21.6227 41.8167 22.1733 42.0034 22.696C42.1901 23.2187 42.4607 23.676 42.8154 24.068C43.1701 24.46 43.5994 24.7727 44.1034 25.006C44.6167 25.2393 45.1907 25.356 45.8254 25.356C46.4601 25.356 47.0294 25.2393 47.5334 25.006C48.0467 24.7727 48.4807 24.46 48.8354 24.068C49.1901 23.676 49.4607 23.2187 49.6474 22.696C49.8341 22.1733 49.9274 21.6227 49.9274 21.044ZM59.7859 24.292H59.7999L63.1179 16.088H64.6579V26H63.6499V17.39H63.6219L60.0379 26H59.5059L55.9219 17.39H55.8939V26H54.8859V16.088H56.4259L59.7859 24.292ZM81.4143 24.53H81.4423V16.088H82.4503V26H81.1903L75.4223 17.474H75.3943V26H74.3863V16.088H75.6463L81.4143 24.53ZM86.8077 26H85.7017L89.9857 16.088H90.9657L95.2217 26H94.1017L93.0097 23.396H87.8857L86.8077 26ZM88.2637 22.472H92.6317L90.4477 17.208L88.2637 22.472ZM103.38 24.292H103.394L106.712 16.088H108.252V26H107.244V17.39H107.216L103.632 26H103.1L99.5165 17.39H99.4885V26H98.4805V16.088H100.02L103.38 24.292ZM113.689 25.104H118.995V26H112.681V16.088H118.827V16.984H113.689V20.4H118.491V21.282H113.689V25.104Z" fill="#111111"/>
<rect x="1236" y="19.5" width="16" height="2" fill="#111111"/>
</svg>
