<svg width="1268" height="42" viewBox="0 0 1268 42" fill="none" xmlns="http://www.w3.org/2000/svg">
<mask id="path-1-inside-1_309_16558" fill="white">
<path d="M0 0H1268V42H0V0Z"/>
</mask>
<path d="M0 0H1268V42H0V0Z" fill="white"/>
<path d="M0 1H1268V-1H0V1ZM1268 41H0V43H1268V41Z" fill="#D9D9D9" mask="url(#path-1-inside-1_309_16558)"/>
<path d="M18.324 25.104H22.944V26H17.316V16.088H18.324V25.104ZM27.2607 26H26.2527V16.088H27.2607V26ZM34.7274 24.698H34.7554L37.9754 16.088H39.0534L35.2594 26H34.1954L30.4154 16.088H31.5074L34.7274 24.698ZM43.2201 26H42.2121V16.088H43.2201V26ZM54.6768 24.53H54.7048V16.088H55.7128V26H54.4528L48.6848 17.474H48.6568V26H47.6488V16.088H48.9088L54.6768 24.53ZM67.6582 17.866C67.3129 17.502 66.9022 17.222 66.4262 17.026C65.9502 16.8207 65.4042 16.718 64.7882 16.718C64.1536 16.718 63.5796 16.8347 63.0662 17.068C62.5622 17.3013 62.1329 17.6187 61.7782 18.02C61.4236 18.412 61.1482 18.8693 60.9522 19.392C60.7656 19.9147 60.6722 20.4653 60.6722 21.044C60.6722 21.6227 60.7656 22.1733 60.9522 22.696C61.1482 23.2187 61.4236 23.676 61.7782 24.068C62.1329 24.46 62.5622 24.7727 63.0662 25.006C63.5796 25.2393 64.1536 25.356 64.7882 25.356C65.3482 25.356 65.8616 25.2953 66.3282 25.174C66.7949 25.0527 67.1729 24.8987 67.4622 24.712V21.702H65.1522V20.82H68.4702V25.286C67.9289 25.6127 67.3456 25.8553 66.7202 26.014C66.0949 26.1727 65.4462 26.252 64.7742 26.252C64.0276 26.252 63.3369 26.1213 62.7022 25.86C62.0676 25.5987 61.5216 25.2393 61.0642 24.782C60.6069 24.3153 60.2476 23.7647 59.9862 23.13C59.7342 22.4953 59.6082 21.8 59.6082 21.044C59.6082 20.288 59.7389 19.5927 60.0002 18.958C60.2616 18.3233 60.6209 17.7773 61.0782 17.32C61.5449 16.8533 62.0909 16.4893 62.7162 16.228C63.3509 15.9667 64.0369 15.836 64.7742 15.836C65.5676 15.836 66.2582 15.9527 66.8462 16.186C67.4342 16.4193 67.9382 16.746 68.3582 17.166L67.6582 17.866ZM79.1584 26H78.1504V16.088H81.0624C81.5477 16.088 81.9957 16.1347 82.4064 16.228C82.8264 16.3213 83.1857 16.4753 83.4844 16.69C83.7924 16.8953 84.0304 17.166 84.1984 17.502C84.3664 17.838 84.4504 18.2487 84.4504 18.734C84.4504 19.098 84.385 19.4293 84.2544 19.728C84.1237 20.0267 83.9464 20.288 83.7224 20.512C83.4984 20.7267 83.2324 20.8993 82.9244 21.03C82.6164 21.1607 82.2804 21.2447 81.9164 21.282L84.8144 26H83.5824L80.8384 21.366H79.1584V26ZM79.1584 20.498H80.9084C81.7204 20.498 82.3457 20.3533 82.7844 20.064C83.223 19.7653 83.4424 19.322 83.4424 18.734C83.4424 18.4073 83.3817 18.132 83.2604 17.908C83.139 17.684 82.971 17.502 82.7564 17.362C82.5417 17.222 82.2804 17.1193 81.9724 17.054C81.6644 16.9887 81.3237 16.956 80.9504 16.956H79.1584V20.498ZM98.1312 21.044C98.1312 21.8 98.0006 22.4953 97.7392 23.13C97.4779 23.7647 97.1139 24.3153 96.6472 24.782C96.1899 25.2393 95.6439 25.5987 95.0092 25.86C94.3839 26.1213 93.7026 26.252 92.9652 26.252C92.2279 26.252 91.5419 26.1213 90.9072 25.86C90.2819 25.5987 89.7359 25.2393 89.2692 24.782C88.8119 24.3153 88.4526 23.7647 88.1912 23.13C87.9299 22.4953 87.7992 21.8 87.7992 21.044C87.7992 20.288 87.9299 19.5927 88.1912 18.958C88.4526 18.3233 88.8119 17.7773 89.2692 17.32C89.7359 16.8533 90.2819 16.4893 90.9072 16.228C91.5419 15.9667 92.2279 15.836 92.9652 15.836C93.7026 15.836 94.3839 15.9667 95.0092 16.228C95.6439 16.4893 96.1899 16.8533 96.6472 17.32C97.1139 17.7773 97.4779 18.3233 97.7392 18.958C98.0006 19.5927 98.1312 20.288 98.1312 21.044ZM97.0672 21.044C97.0672 20.4653 96.9739 19.9147 96.7872 19.392C96.6006 18.8693 96.3299 18.412 95.9752 18.02C95.6206 17.6187 95.1866 17.3013 94.6732 17.068C94.1692 16.8347 93.5999 16.718 92.9652 16.718C92.3306 16.718 91.7566 16.8347 91.2432 17.068C90.7392 17.3013 90.3099 17.6187 89.9552 18.02C89.6006 18.412 89.3299 18.8693 89.1432 19.392C88.9566 19.9147 88.8632 20.4653 88.8632 21.044C88.8632 21.6227 88.9566 22.1733 89.1432 22.696C89.3299 23.2187 89.6006 23.676 89.9552 24.068C90.3099 24.46 90.7392 24.7727 91.2432 25.006C91.7566 25.2393 92.3306 25.356 92.9652 25.356C93.5999 25.356 94.1692 25.2393 94.6732 25.006C95.1866 24.7727 95.6206 24.46 95.9752 24.068C96.3299 23.676 96.6006 23.2187 96.7872 22.696C96.9739 22.1733 97.0672 21.6227 97.0672 21.044ZM111.826 21.044C111.826 21.8 111.695 22.4953 111.434 23.13C111.172 23.7647 110.808 24.3153 110.342 24.782C109.884 25.2393 109.338 25.5987 108.704 25.86C108.078 26.1213 107.397 26.252 106.66 26.252C105.922 26.252 105.236 26.1213 104.602 25.86C103.976 25.5987 103.43 25.2393 102.964 24.782C102.506 24.3153 102.147 23.7647 101.886 23.13C101.624 22.4953 101.494 21.8 101.494 21.044C101.494 20.288 101.624 19.5927 101.886 18.958C102.147 18.3233 102.506 17.7773 102.964 17.32C103.43 16.8533 103.976 16.4893 104.602 16.228C105.236 15.9667 105.922 15.836 106.66 15.836C107.397 15.836 108.078 15.9667 108.704 16.228C109.338 16.4893 109.884 16.8533 110.342 17.32C110.808 17.7773 111.172 18.3233 111.434 18.958C111.695 19.5927 111.826 20.288 111.826 21.044ZM110.762 21.044C110.762 20.4653 110.668 19.9147 110.482 19.392C110.295 18.8693 110.024 18.412 109.67 18.02C109.315 17.6187 108.881 17.3013 108.368 17.068C107.864 16.8347 107.294 16.718 106.66 16.718C106.025 16.718 105.451 16.8347 104.938 17.068C104.434 17.3013 104.004 17.6187 103.65 18.02C103.295 18.412 103.024 18.8693 102.838 19.392C102.651 19.9147 102.558 20.4653 102.558 21.044C102.558 21.6227 102.651 22.1733 102.838 22.696C103.024 23.2187 103.295 23.676 103.65 24.068C104.004 24.46 104.434 24.7727 104.938 25.006C105.451 25.2393 106.025 25.356 106.66 25.356C107.294 25.356 107.864 25.2393 108.368 25.006C108.881 24.7727 109.315 24.46 109.67 24.068C110.024 23.676 110.295 23.2187 110.482 22.696C110.668 22.1733 110.762 21.6227 110.762 21.044ZM120.62 24.292H120.634L123.952 16.088H125.492V26H124.484V17.39H124.456L120.872 26H120.34L116.756 17.39H116.728V26H115.72V16.088H117.26L120.62 24.292Z" fill="#111111"/>
<path d="M1195 21C1195 21.5523 1194.55 22 1194 22C1193.45 22 1193 21.5523 1193 21C1193 20.4477 1193.45 20 1194 20C1194.55 20 1195 20.4477 1195 21Z" fill="#111111"/>
<path d="M1200 21C1200 21.5523 1199.55 22 1199 22C1198.45 22 1198 21.5523 1198 21C1198 20.4477 1198.45 20 1199 20C1199.55 20 1200 20.4477 1200 21Z" fill="#111111"/>
<path d="M1204 22C1204.55 22 1205 21.5523 1205 21C1205 20.4477 1204.55 20 1204 20C1203.45 20 1203 20.4477 1203 21C1203 21.5523 1203.45 22 1204 22Z" fill="#111111"/>
<rect x="1235" y="20" width="16" height="2" fill="#111111"/>
</svg>
