<svg width="1268" height="43" viewBox="0 0 1268 43" fill="none" xmlns="http://www.w3.org/2000/svg">
<mask id="path-1-inside-1_309_16559" fill="white">
<path d="M0 0H1268V41H0V0Z"/>
</mask>
<path d="M0 0H1268V41H0V0Z" fill="white"/>
<path d="M1268 40H0V42H1268V40Z" fill="#D9D9D9" mask="url(#path-1-inside-1_309_16559)"/>
<path d="M17.404 15.256H19.672V25.984H25.09V28H17.404V15.256ZM26.5254 19.36H28.6854V28H26.5254V19.36ZM26.2194 16.426C26.2194 16.078 26.3454 15.778 26.5974 15.526C26.8614 15.262 27.1914 15.13 27.5874 15.13C27.9834 15.13 28.3134 15.256 28.5774 15.508C28.8534 15.748 28.9914 16.054 28.9914 16.426C28.9914 16.798 28.8534 17.11 28.5774 17.362C28.3134 17.602 27.9834 17.722 27.5874 17.722C27.1914 17.722 26.8614 17.596 26.5974 17.344C26.3454 17.08 26.2194 16.774 26.2194 16.426ZM30.0098 19.36H32.3678L34.6358 25.66H34.6718L36.9578 19.36H39.2438L35.8058 28H33.5018L30.0098 19.36ZM40.5703 19.36H42.7303V28H40.5703V19.36ZM40.2643 16.426C40.2643 16.078 40.3903 15.778 40.6423 15.526C40.9063 15.262 41.2363 15.13 41.6323 15.13C42.0283 15.13 42.3583 15.256 42.6223 15.508C42.8983 15.748 43.0363 16.054 43.0363 16.426C43.0363 16.798 42.8983 17.11 42.6223 17.362C42.3583 17.602 42.0283 17.722 41.6323 17.722C41.2363 17.722 40.9063 17.596 40.6423 17.344C40.3903 17.08 40.2643 16.774 40.2643 16.426ZM45.3507 19.36H47.4027V20.746H47.4387C47.6307 20.314 47.9607 19.936 48.4287 19.612C48.9087 19.276 49.4727 19.108 50.1207 19.108C50.6847 19.108 51.1647 19.21 51.5607 19.414C51.9687 19.606 52.2987 19.864 52.5507 20.188C52.8147 20.512 53.0067 20.884 53.1267 21.304C53.2467 21.724 53.3067 22.156 53.3067 22.6V28H51.1467V23.212C51.1467 22.96 51.1287 22.696 51.0927 22.42C51.0567 22.144 50.9787 21.898 50.8587 21.682C50.7387 21.454 50.5707 21.268 50.3547 21.124C50.1507 20.98 49.8747 20.908 49.5267 20.908C49.1787 20.908 48.8787 20.98 48.6267 21.124C48.3747 21.256 48.1647 21.43 47.9967 21.646C47.8407 21.862 47.7207 22.114 47.6367 22.402C47.5527 22.678 47.5107 22.96 47.5107 23.248V28H45.3507V19.36ZM64.6113 19.36V27.226C64.6113 28.006 64.5153 28.708 64.3233 29.332C64.1313 29.968 63.8313 30.502 63.4233 30.934C63.0273 31.378 62.5233 31.72 61.9113 31.96C61.2993 32.2 60.5733 32.32 59.7333 32.32C59.3853 32.32 59.0133 32.29 58.6173 32.23C58.2333 32.17 57.8493 32.08 57.4653 31.96C57.0933 31.84 56.7333 31.69 56.3853 31.51C56.0373 31.33 55.7253 31.126 55.4493 30.898L56.6913 29.224C57.1113 29.62 57.5853 29.92 58.1133 30.124C58.6413 30.34 59.1753 30.448 59.7153 30.448C60.2313 30.448 60.6633 30.37 61.0113 30.214C61.3713 30.07 61.6533 29.866 61.8573 29.602C62.0733 29.338 62.2233 29.026 62.3073 28.666C62.4033 28.306 62.4513 27.91 62.4513 27.478V26.848H62.4153C62.1033 27.268 61.7013 27.592 61.2093 27.82C60.7293 28.036 60.1893 28.144 59.5893 28.144C58.9413 28.144 58.3533 28.024 57.8253 27.784C57.2973 27.544 56.8473 27.22 56.4753 26.812C56.1153 26.404 55.8333 25.93 55.6293 25.39C55.4253 24.838 55.3233 24.256 55.3233 23.644C55.3233 23.02 55.4193 22.432 55.6113 21.88C55.8153 21.328 56.0973 20.848 56.4573 20.44C56.8293 20.032 57.2733 19.708 57.7893 19.468C58.3173 19.228 58.9053 19.108 59.5533 19.108C60.1653 19.108 60.7353 19.234 61.2633 19.486C61.7913 19.738 62.2113 20.128 62.5233 20.656H62.5593V19.36H64.6113ZM60.0033 20.872C59.6073 20.872 59.2533 20.944 58.9413 21.088C58.6413 21.232 58.3833 21.43 58.1673 21.682C57.9633 21.922 57.8013 22.21 57.6813 22.546C57.5733 22.882 57.5193 23.242 57.5193 23.626C57.5193 23.974 57.5733 24.31 57.6813 24.634C57.8013 24.958 57.9633 25.252 58.1673 25.516C58.3833 25.768 58.6413 25.972 58.9413 26.128C59.2533 26.284 59.6013 26.362 59.9853 26.362C60.3813 26.362 60.7353 26.29 61.0473 26.146C61.3713 25.99 61.6413 25.786 61.8573 25.534C62.0853 25.282 62.2593 24.994 62.3793 24.67C62.4993 24.334 62.5593 23.986 62.5593 23.626C62.5593 23.254 62.4993 22.9 62.3793 22.564C62.2593 22.228 62.0853 21.934 61.8573 21.682C61.6413 21.43 61.3773 21.232 61.0653 21.088C60.7533 20.944 60.3993 20.872 60.0033 20.872ZM71.8083 15.256H76.2363C76.8363 15.256 77.4183 15.322 77.9823 15.454C78.5463 15.574 79.0443 15.778 79.4763 16.066C79.9203 16.354 80.2743 16.732 80.5383 17.2C80.8023 17.668 80.9343 18.238 80.9343 18.91C80.9343 19.834 80.6703 20.59 80.1423 21.178C79.6263 21.754 78.9183 22.144 78.0183 22.348L81.4203 28H78.6843L75.7323 22.6H74.0763V28H71.8083V15.256ZM75.9303 20.746C76.2543 20.746 76.5783 20.722 76.9023 20.674C77.2263 20.626 77.5143 20.536 77.7663 20.404C78.0303 20.272 78.2463 20.086 78.4143 19.846C78.5823 19.594 78.6663 19.276 78.6663 18.892C78.6663 18.544 78.5883 18.262 78.4323 18.046C78.2763 17.818 78.0783 17.638 77.8383 17.506C77.5983 17.374 77.3223 17.284 77.0103 17.236C76.7103 17.188 76.4163 17.164 76.1283 17.164H74.0763V20.746H75.9303ZM82.3057 23.644C82.3057 22.96 82.4257 22.342 82.6657 21.79C82.9177 21.226 83.2537 20.746 83.6737 20.35C84.0937 19.954 84.5917 19.648 85.1677 19.432C85.7437 19.216 86.3557 19.108 87.0037 19.108C87.6517 19.108 88.2637 19.216 88.8397 19.432C89.4157 19.648 89.9137 19.954 90.3337 20.35C90.7537 20.746 91.0837 21.226 91.3237 21.79C91.5757 22.342 91.7017 22.96 91.7017 23.644C91.7017 24.328 91.5757 24.952 91.3237 25.516C91.0837 26.08 90.7537 26.566 90.3337 26.974C89.9137 27.37 89.4157 27.682 88.8397 27.91C88.2637 28.138 87.6517 28.252 87.0037 28.252C86.3557 28.252 85.7437 28.138 85.1677 27.91C84.5917 27.682 84.0937 27.37 83.6737 26.974C83.2537 26.566 82.9177 26.08 82.6657 25.516C82.4257 24.952 82.3057 24.328 82.3057 23.644ZM84.5017 23.644C84.5017 23.98 84.5497 24.316 84.6457 24.652C84.7537 24.988 84.9097 25.288 85.1137 25.552C85.3177 25.816 85.5757 26.032 85.8877 26.2C86.1997 26.368 86.5717 26.452 87.0037 26.452C87.4357 26.452 87.8077 26.368 88.1197 26.2C88.4317 26.032 88.6897 25.816 88.8937 25.552C89.0977 25.288 89.2477 24.988 89.3437 24.652C89.4517 24.316 89.5057 23.98 89.5057 23.644C89.5057 23.308 89.4517 22.978 89.3437 22.654C89.2477 22.318 89.0977 22.018 88.8937 21.754C88.6897 21.49 88.4317 21.28 88.1197 21.124C87.8077 20.956 87.4357 20.872 87.0037 20.872C86.5717 20.872 86.1997 20.956 85.8877 21.124C85.5757 21.28 85.3177 21.49 85.1137 21.754C84.9097 22.018 84.7537 22.318 84.6457 22.654C84.5497 22.978 84.5017 23.308 84.5017 23.644ZM93.292 23.644C93.292 22.96 93.412 22.342 93.652 21.79C93.904 21.226 94.24 20.746 94.66 20.35C95.08 19.954 95.578 19.648 96.154 19.432C96.73 19.216 97.342 19.108 97.99 19.108C98.638 19.108 99.25 19.216 99.826 19.432C100.402 19.648 100.9 19.954 101.32 20.35C101.74 20.746 102.07 21.226 102.31 21.79C102.562 22.342 102.688 22.96 102.688 23.644C102.688 24.328 102.562 24.952 102.31 25.516C102.07 26.08 101.74 26.566 101.32 26.974C100.9 27.37 100.402 27.682 99.826 27.91C99.25 28.138 98.638 28.252 97.99 28.252C97.342 28.252 96.73 28.138 96.154 27.91C95.578 27.682 95.08 27.37 94.66 26.974C94.24 26.566 93.904 26.08 93.652 25.516C93.412 24.952 93.292 24.328 93.292 23.644ZM95.488 23.644C95.488 23.98 95.536 24.316 95.632 24.652C95.74 24.988 95.896 25.288 96.1 25.552C96.304 25.816 96.562 26.032 96.874 26.2C97.186 26.368 97.558 26.452 97.99 26.452C98.422 26.452 98.794 26.368 99.106 26.2C99.418 26.032 99.676 25.816 99.88 25.552C100.084 25.288 100.234 24.988 100.33 24.652C100.438 24.316 100.492 23.98 100.492 23.644C100.492 23.308 100.438 22.978 100.33 22.654C100.234 22.318 100.084 22.018 99.88 21.754C99.676 21.49 99.418 21.28 99.106 21.124C98.794 20.956 98.422 20.872 97.99 20.872C97.558 20.872 97.186 20.956 96.874 21.124C96.562 21.28 96.304 21.49 96.1 21.754C95.896 22.018 95.74 22.318 95.632 22.654C95.536 22.978 95.488 23.308 95.488 23.644ZM115.096 19.108C115.66 19.108 116.14 19.21 116.536 19.414C116.944 19.606 117.274 19.864 117.526 20.188C117.79 20.512 117.982 20.884 118.102 21.304C118.222 21.724 118.282 22.156 118.282 22.6V28H116.122V23.212C116.122 22.96 116.104 22.696 116.068 22.42C116.032 22.144 115.954 21.898 115.834 21.682C115.714 21.454 115.546 21.268 115.33 21.124C115.126 20.98 114.85 20.908 114.502 20.908C114.166 20.908 113.878 20.98 113.638 21.124C113.398 21.268 113.2 21.454 113.044 21.682C112.888 21.91 112.774 22.168 112.702 22.456C112.63 22.732 112.594 23.008 112.594 23.284V28H110.434V22.78C110.434 22.24 110.302 21.796 110.038 21.448C109.786 21.088 109.384 20.908 108.832 20.908C108.508 20.908 108.226 20.98 107.986 21.124C107.746 21.256 107.548 21.43 107.392 21.646C107.248 21.862 107.134 22.114 107.05 22.402C106.978 22.678 106.942 22.96 106.942 23.248V28H104.782V19.36H106.834V20.746H106.87C106.966 20.53 107.092 20.326 107.248 20.134C107.416 19.942 107.608 19.768 107.824 19.612C108.052 19.456 108.31 19.336 108.598 19.252C108.886 19.156 109.204 19.108 109.552 19.108C110.224 19.108 110.782 19.258 111.226 19.558C111.67 19.858 112.012 20.254 112.252 20.746C112.54 20.218 112.924 19.816 113.404 19.54C113.884 19.252 114.448 19.108 115.096 19.108Z" fill="#222222"/>
<path d="M1195 20.5C1195 21.0523 1194.55 21.5 1194 21.5C1193.45 21.5 1193 21.0523 1193 20.5C1193 19.9477 1193.45 19.5 1194 19.5C1194.55 19.5 1195 19.9477 1195 20.5Z" fill="#111111"/>
<path d="M1200 20.5C1200 21.0523 1199.55 21.5 1199 21.5C1198.45 21.5 1198 21.0523 1198 20.5C1198 19.9477 1198.45 19.5 1199 19.5C1199.55 19.5 1200 19.9477 1200 20.5Z" fill="#111111"/>
<path d="M1204 21.5C1204.55 21.5 1205 21.0523 1205 20.5C1205 19.9477 1204.55 19.5 1204 19.5C1203.45 19.5 1203 19.9477 1203 20.5C1203 21.0523 1203.45 21.5 1204 21.5Z" fill="#111111"/>
<rect x="1235" y="19.5234" width="16" height="1.95238" fill="#111111"/>
</svg>
