<svg width="1268" height="42" viewBox="0 0 1268 42" fill="none" xmlns="http://www.w3.org/2000/svg">
<mask id="path-1-inside-1_309_16560" fill="white">
<path d="M0 0H1268V42H0V0Z"/>
</mask>
<path d="M0 0H1268V42H0V0Z" fill="white"/>
<path d="M0 1H1268V-1H0V1ZM1268 41H0V43H1268V41Z" fill="#D9D9D9" mask="url(#path-1-inside-1_309_16560)"/>
<path d="M17.092 16.088H20.536C21.0027 16.088 21.4553 16.1393 21.894 16.242C22.3327 16.3353 22.72 16.494 23.056 16.718C23.4013 16.942 23.6767 17.236 23.882 17.6C24.0873 17.964 24.19 18.4073 24.19 18.93C24.19 19.6487 23.9847 20.2367 23.574 20.694C23.1727 21.142 22.622 21.4453 21.922 21.604L24.568 26H22.44L20.144 21.8H18.856V26H17.092V16.088ZM20.298 20.358C20.55 20.358 20.802 20.3393 21.054 20.302C21.306 20.2647 21.53 20.1947 21.726 20.092C21.9313 19.9893 22.0993 19.8447 22.23 19.658C22.3607 19.462 22.426 19.2147 22.426 18.916C22.426 18.6453 22.3653 18.426 22.244 18.258C22.1227 18.0807 21.9687 17.9407 21.782 17.838C21.5953 17.7353 21.3807 17.6653 21.138 17.628C20.9047 17.5907 20.676 17.572 20.452 17.572H18.856V20.358H20.298ZM27.2207 21.016C27.2207 20.2227 27.3514 19.5087 27.6127 18.874C27.8834 18.23 28.252 17.684 28.7187 17.236C29.1947 16.788 29.7547 16.4427 30.3987 16.2C31.052 15.9573 31.7614 15.836 32.5267 15.836C33.3014 15.836 34.0154 15.9573 34.6687 16.2C35.322 16.4427 35.8867 16.788 36.3627 17.236C36.8387 17.684 37.2074 18.23 37.4687 18.874C37.7394 19.5087 37.8747 20.2227 37.8747 21.016C37.8747 21.7907 37.7394 22.5 37.4687 23.144C37.2074 23.7787 36.8387 24.3293 36.3627 24.796C35.8867 25.2533 35.322 25.6127 34.6687 25.874C34.0154 26.126 33.3014 26.252 32.5267 26.252C31.7614 26.252 31.052 26.126 30.3987 25.874C29.7547 25.6127 29.1947 25.2533 28.7187 24.796C28.252 24.3293 27.8834 23.7787 27.6127 23.144C27.3514 22.5 27.2207 21.7907 27.2207 21.016ZM29.1387 21.016C29.1387 21.548 29.218 22.038 29.3767 22.486C29.5447 22.9247 29.778 23.3073 30.0767 23.634C30.3847 23.9607 30.744 24.2173 31.1547 24.404C31.5747 24.5813 32.0367 24.67 32.5407 24.67C33.0447 24.67 33.5067 24.5813 33.9267 24.404C34.3467 24.2173 34.706 23.9607 35.0047 23.634C35.3127 23.3073 35.546 22.9247 35.7047 22.486C35.8727 22.038 35.9567 21.548 35.9567 21.016C35.9567 20.5027 35.8727 20.0267 35.7047 19.588C35.546 19.1493 35.3174 18.7667 35.0187 18.44C34.72 18.1133 34.3607 17.8567 33.9407 17.67C33.5207 17.4833 33.054 17.39 32.5407 17.39C32.0274 17.39 31.5607 17.4833 31.1407 17.67C30.73 17.8567 30.3754 18.1133 30.0767 18.44C29.778 18.7667 29.5447 19.1493 29.3767 19.588C29.218 20.0267 29.1387 20.5027 29.1387 21.016ZM40.9015 21.016C40.9015 20.2227 41.0322 19.5087 41.2935 18.874C41.5642 18.23 41.9329 17.684 42.3995 17.236C42.8755 16.788 43.4355 16.4427 44.0795 16.2C44.7329 15.9573 45.4422 15.836 46.2075 15.836C46.9822 15.836 47.6962 15.9573 48.3495 16.2C49.0029 16.4427 49.5675 16.788 50.0435 17.236C50.5195 17.684 50.8882 18.23 51.1495 18.874C51.4202 19.5087 51.5555 20.2227 51.5555 21.016C51.5555 21.7907 51.4202 22.5 51.1495 23.144C50.8882 23.7787 50.5195 24.3293 50.0435 24.796C49.5675 25.2533 49.0029 25.6127 48.3495 25.874C47.6962 26.126 46.9822 26.252 46.2075 26.252C45.4422 26.252 44.7329 26.126 44.0795 25.874C43.4355 25.6127 42.8755 25.2533 42.3995 24.796C41.9329 24.3293 41.5642 23.7787 41.2935 23.144C41.0322 22.5 40.9015 21.7907 40.9015 21.016ZM42.8195 21.016C42.8195 21.548 42.8989 22.038 43.0575 22.486C43.2255 22.9247 43.4589 23.3073 43.7575 23.634C44.0655 23.9607 44.4249 24.2173 44.8355 24.404C45.2555 24.5813 45.7175 24.67 46.2215 24.67C46.7255 24.67 47.1875 24.5813 47.6075 24.404C48.0275 24.2173 48.3869 23.9607 48.6855 23.634C48.9935 23.3073 49.2269 22.9247 49.3855 22.486C49.5535 22.038 49.6375 21.548 49.6375 21.016C49.6375 20.5027 49.5535 20.0267 49.3855 19.588C49.2269 19.1493 48.9982 18.7667 48.6995 18.44C48.4009 18.1133 48.0415 17.8567 47.6215 17.67C47.2015 17.4833 46.7349 17.39 46.2215 17.39C45.7082 17.39 45.2415 17.4833 44.8215 17.67C44.4109 17.8567 44.0562 18.1133 43.7575 18.44C43.4589 18.7667 43.2255 19.1493 43.0575 19.588C42.8989 20.0267 42.8195 20.5027 42.8195 21.016ZM55.0584 16.088H57.8164L60.3924 23.13H60.4344L62.9824 16.088H65.7544V26H64.0044V18.034H63.9764L60.9664 26H59.7344L56.7664 18.034H56.7384V26H55.0584V16.088ZM75.0373 16.088H77.3753L81.9813 23.508H82.0093V16.088H83.7733V26H81.5333L76.8293 18.342H76.8013V26H75.0373V16.088ZM90.8691 16.088H92.3951L96.6651 26H94.6491L93.7251 23.732H89.4271L88.5311 26H86.5571L90.8691 16.088ZM93.1091 22.22L91.5831 18.188L90.0291 22.22H93.1091ZM99.4459 16.088H102.204L104.78 23.13H104.822L107.37 16.088H110.142V26H108.392V18.034H108.364L105.354 26H104.122L101.154 18.034H101.126V26H99.4459V16.088ZM114.125 16.088H120.691V17.628H115.889V20.148H120.439V21.632H115.889V24.432H120.943V26H114.125V16.088Z" fill="#111111"/>
<rect x="1230" y="20" width="22" height="1" fill="#111111"/>
</svg>
