<svg width="1268" height="58" viewBox="0 0 1268 58" fill="none" xmlns="http://www.w3.org/2000/svg">
<mask id="path-1-inside-1_309_16561" fill="white">
<path d="M0 0H1268V58H0V0Z"/>
</mask>
<path d="M0 0H1268V58H0V0Z" fill="white"/>
<path d="M0 1H1268V-1H0V1ZM1268 57H0V59H1268V57Z" fill="#D9D9D9" mask="url(#path-1-inside-1_309_16561)"/>
<path d="M18.324 34H17.316V24.088H20.228C20.7133 24.088 21.1613 24.1347 21.572 24.228C21.992 24.3213 22.3513 24.4753 22.65 24.69C22.958 24.8953 23.196 25.166 23.364 25.502C23.532 25.838 23.616 26.2487 23.616 26.734C23.616 27.098 23.5507 27.4293 23.42 27.728C23.2893 28.0267 23.112 28.288 22.888 28.512C22.664 28.7267 22.398 28.8993 22.09 29.03C21.782 29.1607 21.446 29.2447 21.082 29.282L23.98 34H22.748L20.004 29.366H18.324V34ZM18.324 28.498H20.074C20.886 28.498 21.5113 28.3533 21.95 28.064C22.3887 27.7653 22.608 27.322 22.608 26.734C22.608 26.4073 22.5473 26.132 22.426 25.908C22.3047 25.684 22.1367 25.502 21.922 25.362C21.7073 25.222 21.446 25.1193 21.138 25.054C20.83 24.9887 20.4893 24.956 20.116 24.956H18.324V28.498ZM37.2969 29.044C37.2969 29.8 37.1662 30.4953 36.9049 31.13C36.6435 31.7647 36.2795 32.3153 35.8129 32.782C35.3555 33.2393 34.8095 33.5987 34.1749 33.86C33.5495 34.1213 32.8682 34.252 32.1309 34.252C31.3935 34.252 30.7075 34.1213 30.0729 33.86C29.4475 33.5987 28.9015 33.2393 28.4349 32.782C27.9775 32.3153 27.6182 31.7647 27.3569 31.13C27.0955 30.4953 26.9649 29.8 26.9649 29.044C26.9649 28.288 27.0955 27.5927 27.3569 26.958C27.6182 26.3233 27.9775 25.7773 28.4349 25.32C28.9015 24.8533 29.4475 24.4893 30.0729 24.228C30.7075 23.9667 31.3935 23.836 32.1309 23.836C32.8682 23.836 33.5495 23.9667 34.1749 24.228C34.8095 24.4893 35.3555 24.8533 35.8129 25.32C36.2795 25.7773 36.6435 26.3233 36.9049 26.958C37.1662 27.5927 37.2969 28.288 37.2969 29.044ZM36.2329 29.044C36.2329 28.4653 36.1395 27.9147 35.9529 27.392C35.7662 26.8693 35.4955 26.412 35.1409 26.02C34.7862 25.6187 34.3522 25.3013 33.8389 25.068C33.3349 24.8347 32.7655 24.718 32.1309 24.718C31.4962 24.718 30.9222 24.8347 30.4089 25.068C29.9049 25.3013 29.4755 25.6187 29.1209 26.02C28.7662 26.412 28.4955 26.8693 28.3089 27.392C28.1222 27.9147 28.0289 28.4653 28.0289 29.044C28.0289 29.6227 28.1222 30.1733 28.3089 30.696C28.4955 31.2187 28.7662 31.676 29.1209 32.068C29.4755 32.46 29.9049 32.7727 30.4089 33.006C30.9222 33.2393 31.4962 33.356 32.1309 33.356C32.7655 33.356 33.3349 33.2393 33.8389 33.006C34.3522 32.7727 34.7862 32.46 35.1409 32.068C35.4955 31.676 35.7662 31.2187 35.9529 30.696C36.1395 30.1733 36.2329 29.6227 36.2329 29.044ZM50.9914 29.044C50.9914 29.8 50.8607 30.4953 50.5994 31.13C50.3381 31.7647 49.9741 32.3153 49.5074 32.782C49.0501 33.2393 48.5041 33.5987 47.8694 33.86C47.2441 34.1213 46.5627 34.252 45.8254 34.252C45.0881 34.252 44.4021 34.1213 43.7674 33.86C43.1421 33.5987 42.5961 33.2393 42.1294 32.782C41.6721 32.3153 41.3127 31.7647 41.0514 31.13C40.7901 30.4953 40.6594 29.8 40.6594 29.044C40.6594 28.288 40.7901 27.5927 41.0514 26.958C41.3127 26.3233 41.6721 25.7773 42.1294 25.32C42.5961 24.8533 43.1421 24.4893 43.7674 24.228C44.4021 23.9667 45.0881 23.836 45.8254 23.836C46.5627 23.836 47.2441 23.9667 47.8694 24.228C48.5041 24.4893 49.0501 24.8533 49.5074 25.32C49.9741 25.7773 50.3381 26.3233 50.5994 26.958C50.8607 27.5927 50.9914 28.288 50.9914 29.044ZM49.9274 29.044C49.9274 28.4653 49.8341 27.9147 49.6474 27.392C49.4607 26.8693 49.1901 26.412 48.8354 26.02C48.4807 25.6187 48.0467 25.3013 47.5334 25.068C47.0294 24.8347 46.4601 24.718 45.8254 24.718C45.1907 24.718 44.6167 24.8347 44.1034 25.068C43.5994 25.3013 43.1701 25.6187 42.8154 26.02C42.4607 26.412 42.1901 26.8693 42.0034 27.392C41.8167 27.9147 41.7234 28.4653 41.7234 29.044C41.7234 29.6227 41.8167 30.1733 42.0034 30.696C42.1901 31.2187 42.4607 31.676 42.8154 32.068C43.1701 32.46 43.5994 32.7727 44.1034 33.006C44.6167 33.2393 45.1907 33.356 45.8254 33.356C46.4601 33.356 47.0294 33.2393 47.5334 33.006C48.0467 32.7727 48.4807 32.46 48.8354 32.068C49.1901 31.676 49.4607 31.2187 49.6474 30.696C49.8341 30.1733 49.9274 29.6227 49.9274 29.044ZM59.7859 32.292H59.7999L63.1179 24.088H64.6579V34H63.6499V25.39H63.6219L60.0379 34H59.5059L55.9219 25.39H55.8939V34H54.8859V24.088H56.4259L59.7859 32.292ZM81.4143 32.53H81.4423V24.088H82.4503V34H81.1903L75.4223 25.474H75.3943V34H74.3863V24.088H75.6463L81.4143 32.53ZM86.8077 34H85.7017L89.9857 24.088H90.9657L95.2217 34H94.1017L93.0097 31.396H87.8857L86.8077 34ZM88.2637 30.472H92.6317L90.4477 25.208L88.2637 30.472ZM103.38 32.292H103.394L106.712 24.088H108.252V34H107.244V25.39H107.216L103.632 34H103.1L99.5165 25.39H99.4885V34H98.4805V24.088H100.02L103.38 32.292ZM113.689 33.104H118.995V34H112.681V24.088H118.827V24.984H113.689V28.4H118.491V29.282H113.689V33.104Z" fill="#111111"/>
<rect x="1232" y="27" width="20" height="4" fill="#555555"/>
</svg>
