<svg width="1268" height="58" viewBox="0 0 1268 58" fill="none" xmlns="http://www.w3.org/2000/svg">
<mask id="path-1-inside-1_309_16562" fill="white">
<path d="M0 0H1268V58H0V0Z"/>
</mask>
<path d="M0 0H1268V58H0V0Z" fill="white"/>
<path d="M0 1H1268V-1H0V1ZM1268 57H0V59H1268V57Z" fill="#D9D9D9" mask="url(#path-1-inside-1_309_16562)"/>
<path d="M17.092 24.088H20.536C21.0027 24.088 21.4553 24.1393 21.894 24.242C22.3327 24.3353 22.72 24.494 23.056 24.718C23.4013 24.942 23.6767 25.236 23.882 25.6C24.0873 25.964 24.19 26.4073 24.19 26.93C24.19 27.6487 23.9847 28.2367 23.574 28.694C23.1727 29.142 22.622 29.4453 21.922 29.604L24.568 34H22.44L20.144 29.8H18.856V34H17.092V24.088ZM20.298 28.358C20.55 28.358 20.802 28.3393 21.054 28.302C21.306 28.2647 21.53 28.1947 21.726 28.092C21.9313 27.9893 22.0993 27.8447 22.23 27.658C22.3607 27.462 22.426 27.2147 22.426 26.916C22.426 26.6453 22.3653 26.426 22.244 26.258C22.1227 26.0807 21.9687 25.9407 21.782 25.838C21.5953 25.7353 21.3807 25.6653 21.138 25.628C20.9047 25.5907 20.676 25.572 20.452 25.572H18.856V28.358H20.298ZM27.2207 29.016C27.2207 28.2227 27.3514 27.5087 27.6127 26.874C27.8834 26.23 28.252 25.684 28.7187 25.236C29.1947 24.788 29.7547 24.4427 30.3987 24.2C31.052 23.9573 31.7614 23.836 32.5267 23.836C33.3014 23.836 34.0154 23.9573 34.6687 24.2C35.322 24.4427 35.8867 24.788 36.3627 25.236C36.8387 25.684 37.2074 26.23 37.4687 26.874C37.7394 27.5087 37.8747 28.2227 37.8747 29.016C37.8747 29.7907 37.7394 30.5 37.4687 31.144C37.2074 31.7787 36.8387 32.3293 36.3627 32.796C35.8867 33.2533 35.322 33.6127 34.6687 33.874C34.0154 34.126 33.3014 34.252 32.5267 34.252C31.7614 34.252 31.052 34.126 30.3987 33.874C29.7547 33.6127 29.1947 33.2533 28.7187 32.796C28.252 32.3293 27.8834 31.7787 27.6127 31.144C27.3514 30.5 27.2207 29.7907 27.2207 29.016ZM29.1387 29.016C29.1387 29.548 29.218 30.038 29.3767 30.486C29.5447 30.9247 29.778 31.3073 30.0767 31.634C30.3847 31.9607 30.744 32.2173 31.1547 32.404C31.5747 32.5813 32.0367 32.67 32.5407 32.67C33.0447 32.67 33.5067 32.5813 33.9267 32.404C34.3467 32.2173 34.706 31.9607 35.0047 31.634C35.3127 31.3073 35.546 30.9247 35.7047 30.486C35.8727 30.038 35.9567 29.548 35.9567 29.016C35.9567 28.5027 35.8727 28.0267 35.7047 27.588C35.546 27.1493 35.3174 26.7667 35.0187 26.44C34.72 26.1133 34.3607 25.8567 33.9407 25.67C33.5207 25.4833 33.054 25.39 32.5407 25.39C32.0274 25.39 31.5607 25.4833 31.1407 25.67C30.73 25.8567 30.3754 26.1133 30.0767 26.44C29.778 26.7667 29.5447 27.1493 29.3767 27.588C29.218 28.0267 29.1387 28.5027 29.1387 29.016ZM40.9015 29.016C40.9015 28.2227 41.0322 27.5087 41.2935 26.874C41.5642 26.23 41.9329 25.684 42.3995 25.236C42.8755 24.788 43.4355 24.4427 44.0795 24.2C44.7329 23.9573 45.4422 23.836 46.2075 23.836C46.9822 23.836 47.6962 23.9573 48.3495 24.2C49.0029 24.4427 49.5675 24.788 50.0435 25.236C50.5195 25.684 50.8882 26.23 51.1495 26.874C51.4202 27.5087 51.5555 28.2227 51.5555 29.016C51.5555 29.7907 51.4202 30.5 51.1495 31.144C50.8882 31.7787 50.5195 32.3293 50.0435 32.796C49.5675 33.2533 49.0029 33.6127 48.3495 33.874C47.6962 34.126 46.9822 34.252 46.2075 34.252C45.4422 34.252 44.7329 34.126 44.0795 33.874C43.4355 33.6127 42.8755 33.2533 42.3995 32.796C41.9329 32.3293 41.5642 31.7787 41.2935 31.144C41.0322 30.5 40.9015 29.7907 40.9015 29.016ZM42.8195 29.016C42.8195 29.548 42.8989 30.038 43.0575 30.486C43.2255 30.9247 43.4589 31.3073 43.7575 31.634C44.0655 31.9607 44.4249 32.2173 44.8355 32.404C45.2555 32.5813 45.7175 32.67 46.2215 32.67C46.7255 32.67 47.1875 32.5813 47.6075 32.404C48.0275 32.2173 48.3869 31.9607 48.6855 31.634C48.9935 31.3073 49.2269 30.9247 49.3855 30.486C49.5535 30.038 49.6375 29.548 49.6375 29.016C49.6375 28.5027 49.5535 28.0267 49.3855 27.588C49.2269 27.1493 48.9982 26.7667 48.6995 26.44C48.4009 26.1133 48.0415 25.8567 47.6215 25.67C47.2015 25.4833 46.7349 25.39 46.2215 25.39C45.7082 25.39 45.2415 25.4833 44.8215 25.67C44.4109 25.8567 44.0562 26.1133 43.7575 26.44C43.4589 26.7667 43.2255 27.1493 43.0575 27.588C42.8989 28.0267 42.8195 28.5027 42.8195 29.016ZM55.0584 24.088H57.8164L60.3924 31.13H60.4344L62.9824 24.088H65.7544V34H64.0044V26.034H63.9764L60.9664 34H59.7344L56.7664 26.034H56.7384V34H55.0584V24.088ZM75.0373 24.088H77.3753L81.9813 31.508H82.0093V24.088H83.7733V34H81.5333L76.8293 26.342H76.8013V34H75.0373V24.088ZM90.8691 24.088H92.3951L96.6651 34H94.6491L93.7251 31.732H89.4271L88.5311 34H86.5571L90.8691 24.088ZM93.1091 30.22L91.5831 26.188L90.0291 30.22H93.1091ZM99.4459 24.088H102.204L104.78 31.13H104.822L107.37 24.088H110.142V34H108.392V26.034H108.364L105.354 34H104.122L101.154 26.034H101.126V34H99.4459V24.088ZM114.125 24.088H120.691V25.628H115.889V28.148H120.439V29.632H115.889V32.432H120.943V34H114.125V24.088Z" fill="#111111"/>
<rect x="1232" y="27" width="20" height="4" fill="#555555"/>
</svg>
