<svg width="1268" height="58" viewBox="0 0 1268 58" fill="none" xmlns="http://www.w3.org/2000/svg">
<mask id="path-1-inside-1_309_16563" fill="white">
<path d="M0 0H1268V58H0V0Z"/>
</mask>
<path d="M0 0H1268V58H0V0Z" fill="white"/>
<path d="M0 1H1268V-1H0V1ZM1268 57H0V59H1268V57Z" fill="#D9D9D9" mask="url(#path-1-inside-1_309_16563)"/>
<path d="M17.56 21.84H22.48C23.1467 21.84 23.7933 21.9133 24.42 22.06C25.0467 22.1933 25.6 22.42 26.08 22.74C26.5733 23.06 26.9667 23.48 27.26 24C27.5533 24.52 27.7 25.1533 27.7 25.9C27.7 26.9267 27.4067 27.7667 26.82 28.42C26.2467 29.06 25.46 29.4933 24.46 29.72L28.24 36H25.2L21.92 30H20.08V36H17.56V21.84ZM22.14 27.94C22.5 27.94 22.86 27.9133 23.22 27.86C23.58 27.8067 23.9 27.7067 24.18 27.56C24.4733 27.4133 24.7133 27.2067 24.9 26.94C25.0867 26.66 25.18 26.3067 25.18 25.88C25.18 25.4933 25.0933 25.18 24.92 24.94C24.7467 24.6867 24.5267 24.4867 24.26 24.34C23.9933 24.1933 23.6867 24.0933 23.34 24.04C23.0067 23.9867 22.68 23.96 22.36 23.96H20.08V27.94H22.14ZM31.2581 28.88C31.2581 27.7467 31.4448 26.7267 31.8181 25.82C32.2048 24.9 32.7315 24.12 33.3981 23.48C34.0781 22.84 34.8781 22.3467 35.7981 22C36.7315 21.6533 37.7448 21.48 38.8381 21.48C39.9448 21.48 40.9648 21.6533 41.8981 22C42.8315 22.3467 43.6381 22.84 44.3181 23.48C44.9981 24.12 45.5248 24.9 45.8981 25.82C46.2848 26.7267 46.4781 27.7467 46.4781 28.88C46.4781 29.9867 46.2848 31 45.8981 31.92C45.5248 32.8267 44.9981 33.6133 44.3181 34.28C43.6381 34.9333 42.8315 35.4467 41.8981 35.82C40.9648 36.18 39.9448 36.36 38.8381 36.36C37.7448 36.36 36.7315 36.18 35.7981 35.82C34.8781 35.4467 34.0781 34.9333 33.3981 34.28C32.7315 33.6133 32.2048 32.8267 31.8181 31.92C31.4448 31 31.2581 29.9867 31.2581 28.88ZM33.9981 28.88C33.9981 29.64 34.1115 30.34 34.3381 30.98C34.5781 31.6067 34.9115 32.1533 35.3381 32.62C35.7781 33.0867 36.2915 33.4533 36.8781 33.72C37.4781 33.9733 38.1381 34.1 38.8581 34.1C39.5781 34.1 40.2381 33.9733 40.8381 33.72C41.4381 33.4533 41.9515 33.0867 42.3781 32.62C42.8181 32.1533 43.1515 31.6067 43.3781 30.98C43.6181 30.34 43.7381 29.64 43.7381 28.88C43.7381 28.1467 43.6181 27.4667 43.3781 26.84C43.1515 26.2133 42.8248 25.6667 42.3981 25.2C41.9715 24.7333 41.4581 24.3667 40.8581 24.1C40.2581 23.8333 39.5915 23.7 38.8581 23.7C38.1248 23.7 37.4581 23.8333 36.8581 24.1C36.2715 24.3667 35.7648 24.7333 35.3381 25.2C34.9115 25.6667 34.5781 26.2133 34.3381 26.84C34.1115 27.4667 33.9981 28.1467 33.9981 28.88ZM50.0308 28.88C50.0308 27.7467 50.2174 26.7267 50.5908 25.82C50.9774 24.9 51.5041 24.12 52.1708 23.48C52.8508 22.84 53.6508 22.3467 54.5708 22C55.5041 21.6533 56.5174 21.48 57.6108 21.48C58.7174 21.48 59.7374 21.6533 60.6708 22C61.6041 22.3467 62.4108 22.84 63.0908 23.48C63.7708 24.12 64.2974 24.9 64.6708 25.82C65.0574 26.7267 65.2508 27.7467 65.2508 28.88C65.2508 29.9867 65.0574 31 64.6708 31.92C64.2974 32.8267 63.7708 33.6133 63.0908 34.28C62.4108 34.9333 61.6041 35.4467 60.6708 35.82C59.7374 36.18 58.7174 36.36 57.6108 36.36C56.5174 36.36 55.5041 36.18 54.5708 35.82C53.6508 35.4467 52.8508 34.9333 52.1708 34.28C51.5041 33.6133 50.9774 32.8267 50.5908 31.92C50.2174 31 50.0308 29.9867 50.0308 28.88ZM52.7708 28.88C52.7708 29.64 52.8841 30.34 53.1108 30.98C53.3508 31.6067 53.6841 32.1533 54.1108 32.62C54.5508 33.0867 55.0641 33.4533 55.6508 33.72C56.2508 33.9733 56.9108 34.1 57.6308 34.1C58.3508 34.1 59.0108 33.9733 59.6108 33.72C60.2108 33.4533 60.7241 33.0867 61.1508 32.62C61.5908 32.1533 61.9241 31.6067 62.1508 30.98C62.3908 30.34 62.5108 29.64 62.5108 28.88C62.5108 28.1467 62.3908 27.4667 62.1508 26.84C61.9241 26.2133 61.5974 25.6667 61.1708 25.2C60.7441 24.7333 60.2308 24.3667 59.6308 24.1C59.0308 23.8333 58.3641 23.7 57.6308 23.7C56.8974 23.7 56.2308 23.8333 55.6308 24.1C55.0441 24.3667 54.5374 24.7333 54.1108 25.2C53.6841 25.6667 53.3508 26.2133 53.1108 26.84C52.8841 27.4667 52.7708 28.1467 52.7708 28.88ZM69.4834 21.84H73.4234L77.1034 31.9H77.1634L80.8034 21.84H84.7634V36H82.2634V24.62H82.2234L77.9234 36H76.1634L71.9234 24.62H71.8834V36H69.4834V21.84ZM96.4819 21.84H99.8219L106.402 32.44H106.442V21.84H108.962V36H105.762L99.0419 25.06H99.0019V36H96.4819V21.84ZM118.327 21.84H120.507L126.607 36H123.727L122.407 32.76H116.267L114.987 36H112.167L118.327 21.84ZM121.527 30.6L119.347 24.84L117.127 30.6H121.527ZM129.808 21.84H133.748L137.428 31.9H137.488L141.128 21.84H145.088V36H142.588V24.62H142.548L138.248 36H136.488L132.248 24.62H132.208V36H129.808V21.84ZM150.007 21.84H159.387V24.04H152.527V27.64H159.027V29.76H152.527V33.76H159.747V36H150.007V21.84Z" fill="#111111"/>
<rect x="1232" y="27" width="20" height="4" fill="#111111"/>
</svg>
