<svg width="1268" height="74" viewBox="0 0 1268 74" fill="none" xmlns="http://www.w3.org/2000/svg">
<mask id="path-1-inside-1_309_16564" fill="white">
<path d="M0 0H1268V74H0V0Z"/>
</mask>
<path d="M0 0H1268V74H0V0Z" fill="white"/>
<path d="M0 1H1268V-1H0V1ZM1268 73H0V75H1268V73Z" fill="#D9D9D9" mask="url(#path-1-inside-1_309_16564)"/>
<path d="M19.32 44H17.88V29.84H22.04C22.7333 29.84 23.3733 29.9067 23.96 30.04C24.56 30.1733 25.0733 30.3933 25.5 30.7C25.94 30.9933 26.28 31.38 26.52 31.86C26.76 32.34 26.88 32.9267 26.88 33.62C26.88 34.14 26.7867 34.6133 26.6 35.04C26.4133 35.4667 26.16 35.84 25.84 36.16C25.52 36.4667 25.14 36.7133 24.7 36.9C24.26 37.0867 23.78 37.2067 23.26 37.26L27.4 44H25.64L21.72 37.38H19.32V44ZM19.32 36.14H21.82C22.98 36.14 23.8733 35.9333 24.5 35.52C25.1267 35.0933 25.44 34.46 25.44 33.62C25.44 33.1533 25.3533 32.76 25.18 32.44C25.0067 32.12 24.7667 31.86 24.46 31.66C24.1533 31.46 23.78 31.3133 23.34 31.22C22.9 31.1267 22.4133 31.08 21.88 31.08H19.32V36.14ZM45.6527 36.92C45.6527 38 45.466 38.9933 45.0927 39.9C44.7193 40.8067 44.1993 41.5933 43.5327 42.26C42.8793 42.9133 42.0993 43.4267 41.1927 43.8C40.2993 44.1733 39.326 44.36 38.2727 44.36C37.2193 44.36 36.2393 44.1733 35.3327 43.8C34.4393 43.4267 33.6593 42.9133 32.9927 42.26C32.3393 41.5933 31.826 40.8067 31.4527 39.9C31.0793 38.9933 30.8927 38 30.8927 36.92C30.8927 35.84 31.0793 34.8467 31.4527 33.94C31.826 33.0333 32.3393 32.2533 32.9927 31.6C33.6593 30.9333 34.4393 30.4133 35.3327 30.04C36.2393 29.6667 37.2193 29.48 38.2727 29.48C39.326 29.48 40.2993 29.6667 41.1927 30.04C42.0993 30.4133 42.8793 30.9333 43.5327 31.6C44.1993 32.2533 44.7193 33.0333 45.0927 33.94C45.466 34.8467 45.6527 35.84 45.6527 36.92ZM44.1327 36.92C44.1327 36.0933 43.9993 35.3067 43.7327 34.56C43.466 33.8133 43.0793 33.16 42.5727 32.6C42.066 32.0267 41.446 31.5733 40.7127 31.24C39.9927 30.9067 39.1793 30.74 38.2727 30.74C37.366 30.74 36.546 30.9067 35.8127 31.24C35.0927 31.5733 34.4793 32.0267 33.9727 32.6C33.466 33.16 33.0793 33.8133 32.8127 34.56C32.546 35.3067 32.4127 36.0933 32.4127 36.92C32.4127 37.7467 32.546 38.5333 32.8127 39.28C33.0793 40.0267 33.466 40.68 33.9727 41.24C34.4793 41.8 35.0927 42.2467 35.8127 42.58C36.546 42.9133 37.366 43.08 38.2727 43.08C39.1793 43.08 39.9927 42.9133 40.7127 42.58C41.446 42.2467 42.066 41.8 42.5727 41.24C43.0793 40.68 43.466 40.0267 43.7327 39.28C43.9993 38.5333 44.1327 37.7467 44.1327 36.92ZM64.4448 36.92C64.4448 38 64.2582 38.9933 63.8848 39.9C63.5115 40.8067 62.9915 41.5933 62.3248 42.26C61.6715 42.9133 60.8915 43.4267 59.9848 43.8C59.0915 44.1733 58.1182 44.36 57.0648 44.36C56.0115 44.36 55.0315 44.1733 54.1248 43.8C53.2315 43.4267 52.4515 42.9133 51.7848 42.26C51.1315 41.5933 50.6182 40.8067 50.2448 39.9C49.8715 38.9933 49.6848 38 49.6848 36.92C49.6848 35.84 49.8715 34.8467 50.2448 33.94C50.6182 33.0333 51.1315 32.2533 51.7848 31.6C52.4515 30.9333 53.2315 30.4133 54.1248 30.04C55.0315 29.6667 56.0115 29.48 57.0648 29.48C58.1182 29.48 59.0915 29.6667 59.9848 30.04C60.8915 30.4133 61.6715 30.9333 62.3248 31.6C62.9915 32.2533 63.5115 33.0333 63.8848 33.94C64.2582 34.8467 64.4448 35.84 64.4448 36.92ZM62.9248 36.92C62.9248 36.0933 62.7915 35.3067 62.5248 34.56C62.2582 33.8133 61.8715 33.16 61.3648 32.6C60.8582 32.0267 60.2382 31.5733 59.5048 31.24C58.7848 30.9067 57.9715 30.74 57.0648 30.74C56.1582 30.74 55.3382 30.9067 54.6048 31.24C53.8848 31.5733 53.2715 32.0267 52.7648 32.6C52.2582 33.16 51.8715 33.8133 51.6048 34.56C51.3382 35.3067 51.2048 36.0933 51.2048 36.92C51.2048 37.7467 51.3382 38.5333 51.6048 39.28C51.8715 40.0267 52.2582 40.68 52.7648 41.24C53.2715 41.8 53.8848 42.2467 54.6048 42.58C55.3382 42.9133 56.1582 43.08 57.0648 43.08C57.9715 43.08 58.7848 42.9133 59.5048 42.58C60.2382 42.2467 60.8582 41.8 61.3648 41.24C61.8715 40.68 62.2582 40.0267 62.5248 39.28C62.7915 38.5333 62.9248 37.7467 62.9248 36.92ZM76.237 41.56H76.257L80.997 29.84H83.197V44H81.757V31.7H81.717L76.597 44H75.837L70.717 31.7H70.677V44H69.237V29.84H71.437L76.237 41.56ZM105.592 41.9H105.632V29.84H107.072V44H105.272L97.0319 31.82H96.9919V44H95.5519V29.84H97.3519L105.592 41.9ZM112.525 44H110.945L117.065 29.84H118.465L124.545 44H122.945L121.385 40.28H114.065L112.525 44ZM114.605 38.96H120.845L117.725 31.44L114.605 38.96ZM135.429 41.56H135.449L140.189 29.84H142.389V44H140.949V31.7H140.909L135.789 44H135.029L129.909 31.7H129.869V44H128.429V29.84H130.629L135.429 41.56ZM149.384 42.72H156.964V44H147.944V29.84H156.724V31.12H149.384V36H156.244V37.26H149.384V42.72Z" fill="#111111"/>
<rect x="1212" y="36" width="40" height="2" fill="#111111"/>
</svg>
