<svg width="1268" height="74" viewBox="0 0 1268 74" fill="none" xmlns="http://www.w3.org/2000/svg">
<mask id="path-1-inside-1_309_16565" fill="white">
<path d="M0 0H1268V74H0V0Z"/>
</mask>
<path d="M0 0H1268V74H0V0Z" fill="white"/>
<path d="M0 1H1268V-1H0V1ZM1268 73H0V75H1268V73Z" fill="#D9D9D9" mask="url(#path-1-inside-1_309_16565)"/>
<path d="M19.32 44H17.88V29.84H22.04C22.7333 29.84 23.3733 29.9067 23.96 30.04C24.56 30.1733 25.0733 30.3933 25.5 30.7C25.94 30.9933 26.28 31.38 26.52 31.86C26.76 32.34 26.88 32.9267 26.88 33.62C26.88 34.14 26.7867 34.6133 26.6 35.04C26.4133 35.4667 26.16 35.84 25.84 36.16C25.52 36.4667 25.14 36.7133 24.7 36.9C24.26 37.0867 23.78 37.2067 23.26 37.26L27.4 44H25.64L21.72 37.38H19.32V44ZM19.32 36.14H21.82C22.98 36.14 23.8733 35.9333 24.5 35.52C25.1267 35.0933 25.44 34.46 25.44 33.62C25.44 33.1533 25.3533 32.76 25.18 32.44C25.0067 32.12 24.7667 31.86 24.46 31.66C24.1533 31.46 23.78 31.3133 23.34 31.22C22.9 31.1267 22.4133 31.08 21.88 31.08H19.32V36.14ZM40.6383 39.32C40.6383 40.0267 40.5116 40.68 40.2583 41.28C40.0183 41.88 39.6783 42.4 39.2383 42.84C38.7983 43.28 38.2716 43.6267 37.6583 43.88C37.0449 44.12 36.3716 44.24 35.6383 44.24C34.9183 44.24 34.2516 44.12 33.6383 43.88C33.0249 43.6267 32.4983 43.28 32.0583 42.84C31.6183 42.4 31.2716 41.88 31.0183 41.28C30.7783 40.68 30.6583 40.0267 30.6583 39.32C30.6583 38.6133 30.7783 37.96 31.0183 37.36C31.2716 36.76 31.6183 36.24 32.0583 35.8C32.4983 35.36 33.0249 35.02 33.6383 34.78C34.2516 34.5267 34.9183 34.4 35.6383 34.4C36.3716 34.4 37.0449 34.5267 37.6583 34.78C38.2716 35.02 38.7983 35.36 39.2383 35.8C39.6783 36.24 40.0183 36.76 40.2583 37.36C40.5116 37.96 40.6383 38.6133 40.6383 39.32ZM39.1983 39.32C39.1983 38.8 39.1116 38.3133 38.9383 37.86C38.7783 37.3933 38.5449 36.9933 38.2383 36.66C37.9316 36.3133 37.5583 36.04 37.1183 35.84C36.6783 35.64 36.1849 35.54 35.6383 35.54C35.0916 35.54 34.5983 35.64 34.1583 35.84C33.7316 36.04 33.3649 36.3133 33.0583 36.66C32.7516 36.9933 32.5116 37.3933 32.3383 37.86C32.1783 38.3133 32.0983 38.8 32.0983 39.32C32.0983 39.84 32.1783 40.3333 32.3383 40.8C32.5116 41.2533 32.7516 41.6533 33.0583 42C33.3649 42.3333 33.7316 42.6 34.1583 42.8C34.5983 42.9867 35.0916 43.08 35.6383 43.08C36.1849 43.08 36.6783 42.9867 37.1183 42.8C37.5583 42.6 37.9316 42.3333 38.2383 42C38.5449 41.6533 38.7783 41.2533 38.9383 40.8C39.1116 40.3333 39.1983 39.84 39.1983 39.32ZM54.6648 39.32C54.6648 40.0267 54.5382 40.68 54.2848 41.28C54.0448 41.88 53.7048 42.4 53.2648 42.84C52.8248 43.28 52.2982 43.6267 51.6848 43.88C51.0715 44.12 50.3982 44.24 49.6648 44.24C48.9448 44.24 48.2782 44.12 47.6648 43.88C47.0515 43.6267 46.5248 43.28 46.0848 42.84C45.6448 42.4 45.2982 41.88 45.0448 41.28C44.8048 40.68 44.6848 40.0267 44.6848 39.32C44.6848 38.6133 44.8048 37.96 45.0448 37.36C45.2982 36.76 45.6448 36.24 46.0848 35.8C46.5248 35.36 47.0515 35.02 47.6648 34.78C48.2782 34.5267 48.9448 34.4 49.6648 34.4C50.3982 34.4 51.0715 34.5267 51.6848 34.78C52.2982 35.02 52.8248 35.36 53.2648 35.8C53.7048 36.24 54.0448 36.76 54.2848 37.36C54.5382 37.96 54.6648 38.6133 54.6648 39.32ZM53.2248 39.32C53.2248 38.8 53.1382 38.3133 52.9648 37.86C52.8048 37.3933 52.5715 36.9933 52.2648 36.66C51.9582 36.3133 51.5848 36.04 51.1448 35.84C50.7048 35.64 50.2115 35.54 49.6648 35.54C49.1182 35.54 48.6248 35.64 48.1848 35.84C47.7582 36.04 47.3915 36.3133 47.0848 36.66C46.7782 36.9933 46.5382 37.3933 46.3648 37.86C46.2048 38.3133 46.1248 38.8 46.1248 39.32C46.1248 39.84 46.2048 40.3333 46.3648 40.8C46.5382 41.2533 46.7782 41.6533 47.0848 42C47.3915 42.3333 47.7582 42.6 48.1848 42.8C48.6248 42.9867 49.1182 43.08 49.6648 43.08C50.2115 43.08 50.7048 42.9867 51.1448 42.8C51.5848 42.6 51.9582 42.3333 52.2648 42C52.5715 41.6533 52.8048 41.2533 52.9648 40.8C53.1382 40.3333 53.2248 39.84 53.2248 39.32ZM60.7314 36.24C60.9981 35.6933 61.4047 35.2533 61.9514 34.92C62.5114 34.5733 63.1314 34.4 63.8114 34.4C64.0647 34.4 64.3247 34.4267 64.5914 34.48C64.8714 34.5333 65.1381 34.64 65.3914 34.8C65.6581 34.9467 65.8981 35.1467 66.1114 35.4C66.3381 35.6533 66.5314 35.98 66.6914 36.38C67.0114 35.74 67.4447 35.2533 67.9914 34.92C68.5514 34.5733 69.2114 34.4 69.9714 34.4C71.1581 34.4 72.0447 34.7533 72.6314 35.46C73.2314 36.1667 73.5314 37.1 73.5314 38.26V44H72.1714V38.82C72.1714 37.8333 71.9847 37.04 71.6114 36.44C71.2514 35.84 70.6314 35.54 69.7514 35.54C69.2581 35.54 68.8381 35.64 68.4914 35.84C68.1581 36.04 67.8847 36.3067 67.6714 36.64C67.4714 36.96 67.3247 37.3267 67.2314 37.74C67.1381 38.1533 67.0914 38.58 67.0914 39.02V44H65.7314V38.54C65.7314 38.0867 65.6981 37.6733 65.6314 37.3C65.5647 36.9267 65.4447 36.6133 65.2714 36.36C65.1114 36.0933 64.8847 35.8933 64.5914 35.76C64.2981 35.6133 63.9247 35.54 63.4714 35.54C63.1514 35.54 62.8247 35.6133 62.4914 35.76C62.1714 35.9067 61.8781 36.1333 61.6114 36.44C61.3581 36.7333 61.1514 37.1133 60.9914 37.58C60.8314 38.0333 60.7514 38.5733 60.7514 39.2V44H59.3914V36.7C59.3914 36.4467 59.3847 36.12 59.3714 35.72C59.3581 35.32 59.3381 34.96 59.3114 34.64H60.6114C60.6381 34.8933 60.6581 35.1733 60.6714 35.48C60.6847 35.7867 60.6914 36.04 60.6914 36.24H60.7314ZM95.7677 41.9H95.8077V29.84H97.2477V44H95.4477L87.2077 31.82H87.1677V44H85.7277V29.84H87.5277L95.7677 41.9ZM108.621 37.96C108.621 37.1467 108.408 36.54 107.981 36.14C107.554 35.74 106.934 35.54 106.121 35.54C105.561 35.54 105.041 35.64 104.561 35.84C104.081 36.04 103.674 36.3067 103.341 36.64L102.581 35.74C102.968 35.3533 103.474 35.0333 104.101 34.78C104.741 34.5267 105.461 34.4 106.261 34.4C106.768 34.4 107.241 34.4733 107.681 34.62C108.121 34.7533 108.508 34.96 108.841 35.24C109.174 35.52 109.434 35.8733 109.621 36.3C109.808 36.7267 109.901 37.2267 109.901 37.8V41.9C109.901 42.26 109.914 42.6333 109.941 43.02C109.968 43.4067 110.008 43.7333 110.061 44H108.841C108.801 43.7733 108.768 43.5267 108.741 43.26C108.714 42.9933 108.701 42.7333 108.701 42.48H108.661C108.234 43.1067 107.748 43.56 107.201 43.84C106.668 44.1067 106.021 44.24 105.261 44.24C104.901 44.24 104.528 44.1867 104.141 44.08C103.768 43.9867 103.421 43.8267 103.101 43.6C102.794 43.3733 102.534 43.08 102.321 42.72C102.121 42.36 102.021 41.92 102.021 41.4C102.021 40.68 102.201 40.1133 102.561 39.7C102.934 39.2733 103.428 38.96 104.041 38.76C104.654 38.5467 105.354 38.4133 106.141 38.36C106.941 38.2933 107.768 38.26 108.621 38.26V37.96ZM108.221 39.32C107.661 39.32 107.094 39.3467 106.521 39.4C105.961 39.44 105.448 39.5333 104.981 39.68C104.528 39.8133 104.154 40.0133 103.861 40.28C103.568 40.5467 103.421 40.9 103.421 41.34C103.421 41.6733 103.481 41.9533 103.601 42.18C103.734 42.4067 103.908 42.5933 104.121 42.74C104.334 42.8733 104.568 42.9733 104.821 43.04C105.088 43.0933 105.354 43.12 105.621 43.12C106.101 43.12 106.528 43.04 106.901 42.88C107.274 42.7067 107.588 42.48 107.841 42.2C108.094 41.9067 108.288 41.5733 108.421 41.2C108.554 40.8267 108.621 40.4333 108.621 40.02V39.32H108.221ZM116.545 36.24C116.811 35.6933 117.218 35.2533 117.765 34.92C118.325 34.5733 118.945 34.4 119.625 34.4C119.878 34.4 120.138 34.4267 120.405 34.48C120.685 34.5333 120.951 34.64 121.205 34.8C121.471 34.9467 121.711 35.1467 121.925 35.4C122.151 35.6533 122.345 35.98 122.505 36.38C122.825 35.74 123.258 35.2533 123.805 34.92C124.365 34.5733 125.025 34.4 125.785 34.4C126.971 34.4 127.858 34.7533 128.445 35.46C129.045 36.1667 129.345 37.1 129.345 38.26V44H127.985V38.82C127.985 37.8333 127.798 37.04 127.425 36.44C127.065 35.84 126.445 35.54 125.565 35.54C125.071 35.54 124.651 35.64 124.305 35.84C123.971 36.04 123.698 36.3067 123.485 36.64C123.285 36.96 123.138 37.3267 123.045 37.74C122.951 38.1533 122.905 38.58 122.905 39.02V44H121.545V38.54C121.545 38.0867 121.511 37.6733 121.445 37.3C121.378 36.9267 121.258 36.6133 121.085 36.36C120.925 36.0933 120.698 35.8933 120.405 35.76C120.111 35.6133 119.738 35.54 119.285 35.54C118.965 35.54 118.638 35.6133 118.305 35.76C117.985 35.9067 117.691 36.1333 117.425 36.44C117.171 36.7333 116.965 37.1133 116.805 37.58C116.645 38.0333 116.565 38.5733 116.565 39.2V44H115.205V36.7C115.205 36.4467 115.198 36.12 115.185 35.72C115.171 35.32 115.151 34.96 115.125 34.64H116.425C116.451 34.8933 116.471 35.1733 116.485 35.48C116.498 35.7867 116.505 36.04 116.505 36.24H116.545ZM141.801 38.6C141.761 37.72 141.474 36.9933 140.941 36.42C140.421 35.8333 139.674 35.54 138.701 35.54C138.248 35.54 137.828 35.6267 137.441 35.8C137.054 35.96 136.714 36.1867 136.421 36.48C136.128 36.76 135.894 37.0867 135.721 37.46C135.548 37.82 135.448 38.2 135.421 38.6H141.801ZM143.181 39.04C143.181 39.1333 143.181 39.2333 143.181 39.34C143.181 39.4467 143.174 39.56 143.161 39.68H135.401C135.414 40.1467 135.508 40.5867 135.681 41C135.854 41.4133 136.094 41.7733 136.401 42.08C136.708 42.3867 137.068 42.6333 137.481 42.82C137.894 42.9933 138.341 43.08 138.821 43.08C139.528 43.08 140.134 42.92 140.641 42.6C141.161 42.2667 141.554 41.8867 141.821 41.46L142.841 42.26C142.281 42.9667 141.661 43.4733 140.981 43.78C140.314 44.0867 139.594 44.24 138.821 44.24C138.128 44.24 137.481 44.12 136.881 43.88C136.294 43.6267 135.788 43.28 135.361 42.84C134.934 42.4 134.594 41.88 134.341 41.28C134.101 40.68 133.981 40.0267 133.981 39.32C133.981 38.6133 134.101 37.96 134.341 37.36C134.581 36.76 134.914 36.24 135.341 35.8C135.768 35.36 136.268 35.02 136.841 34.78C137.414 34.5267 138.034 34.4 138.701 34.4C139.434 34.4 140.081 34.5267 140.641 34.78C141.201 35.02 141.668 35.3533 142.041 35.78C142.414 36.1933 142.694 36.68 142.881 37.24C143.081 37.8 143.181 38.4 143.181 39.04Z" fill="#111111"/>
<rect x="1212" y="36" width="40" height="2" fill="#111111"/>
</svg>
