<svg width="1268" height="74" viewBox="0 0 1268 74" fill="none" xmlns="http://www.w3.org/2000/svg">
<mask id="path-1-inside-1_309_16566" fill="white">
<path d="M0 0H1268V74H0V0Z"/>
</mask>
<path d="M0 0H1268V74H0V0Z" fill="white"/>
<path d="M0 1H1268V-1H0V1ZM1268 73H0V75H1268V73Z" fill="#D9D9D9" mask="url(#path-1-inside-1_309_16566)"/>
<path d="M25.04 44L21.98 38.38H20.82V44H17.46V29.84H22.86C23.54 29.84 24.2 29.9133 24.84 30.06C25.4933 30.1933 26.0733 30.4267 26.58 30.76C27.1 31.0933 27.5133 31.5333 27.82 32.08C28.1267 32.6267 28.28 33.3067 28.28 34.12C28.28 35.08 28.02 35.8867 27.5 36.54C26.98 37.1933 26.26 37.66 25.34 37.94L29.04 44H25.04ZM24.9 34.18C24.9 33.8467 24.8267 33.58 24.68 33.38C24.5467 33.1667 24.3667 33.0067 24.14 32.9C23.9267 32.78 23.68 32.7 23.4 32.66C23.1333 32.62 22.8733 32.6 22.62 32.6H20.8V35.9H22.42C22.7 35.9 22.9867 35.88 23.28 35.84C23.5733 35.7867 23.84 35.7 24.08 35.58C24.32 35.46 24.5133 35.2867 24.66 35.06C24.82 34.8333 24.9 34.54 24.9 34.18ZM47.2817 36.86C47.2817 37.98 47.0884 39.0067 46.7017 39.94C46.3151 40.86 45.7751 41.6533 45.0817 42.32C44.4017 42.9733 43.5884 43.48 42.6417 43.84C41.6951 44.2 40.6684 44.38 39.5617 44.38C38.4551 44.38 37.4284 44.2 36.4817 43.84C35.5484 43.48 34.7351 42.9733 34.0417 42.32C33.3617 41.6533 32.8284 40.86 32.4417 39.94C32.0551 39.0067 31.8617 37.98 31.8617 36.86C31.8617 35.7267 32.0551 34.7067 32.4417 33.8C32.8284 32.88 33.3617 32.1 34.0417 31.46C34.7351 30.82 35.5484 30.3267 36.4817 29.98C37.4284 29.6333 38.4551 29.46 39.5617 29.46C40.6684 29.46 41.6951 29.6333 42.6417 29.98C43.5884 30.3267 44.4017 30.82 45.0817 31.46C45.7751 32.1 46.3151 32.88 46.7017 33.8C47.0884 34.7067 47.2817 35.7267 47.2817 36.86ZM43.6217 36.86C43.6217 36.2467 43.5217 35.6733 43.3217 35.14C43.1217 34.6067 42.8417 34.1533 42.4817 33.78C42.1351 33.3933 41.7084 33.0933 41.2017 32.88C40.7084 32.6533 40.1617 32.54 39.5617 32.54C38.9617 32.54 38.4151 32.6533 37.9217 32.88C37.4284 33.0933 37.0017 33.3933 36.6417 33.78C36.2817 34.1533 36.0017 34.6067 35.8017 35.14C35.6151 35.6733 35.5217 36.2467 35.5217 36.86C35.5217 37.5 35.6217 38.0933 35.8217 38.64C36.0217 39.1733 36.2951 39.6333 36.6417 40.02C37.0017 40.4067 37.4284 40.7133 37.9217 40.94C38.4151 41.1533 38.9617 41.26 39.5617 41.26C40.1617 41.26 40.7084 41.1533 41.2017 40.94C41.6951 40.7133 42.1217 40.4067 42.4817 40.02C42.8417 39.6333 43.1217 39.1733 43.3217 38.64C43.5217 38.0933 43.6217 37.5 43.6217 36.86ZM66.0934 36.86C66.0934 37.98 65.9001 39.0067 65.5134 39.94C65.1268 40.86 64.5868 41.6533 63.8934 42.32C63.2134 42.9733 62.4001 43.48 61.4534 43.84C60.5068 44.2 59.4801 44.38 58.3734 44.38C57.2668 44.38 56.2401 44.2 55.2934 43.84C54.3601 43.48 53.5468 42.9733 52.8534 42.32C52.1734 41.6533 51.6401 40.86 51.2534 39.94C50.8668 39.0067 50.6734 37.98 50.6734 36.86C50.6734 35.7267 50.8668 34.7067 51.2534 33.8C51.6401 32.88 52.1734 32.1 52.8534 31.46C53.5468 30.82 54.3601 30.3267 55.2934 29.98C56.2401 29.6333 57.2668 29.46 58.3734 29.46C59.4801 29.46 60.5068 29.6333 61.4534 29.98C62.4001 30.3267 63.2134 30.82 63.8934 31.46C64.5868 32.1 65.1268 32.88 65.5134 33.8C65.9001 34.7067 66.0934 35.7267 66.0934 36.86ZM62.4334 36.86C62.4334 36.2467 62.3334 35.6733 62.1334 35.14C61.9334 34.6067 61.6534 34.1533 61.2934 33.78C60.9468 33.3933 60.5201 33.0933 60.0134 32.88C59.5201 32.6533 58.9734 32.54 58.3734 32.54C57.7734 32.54 57.2268 32.6533 56.7334 32.88C56.2401 33.0933 55.8134 33.3933 55.4534 33.78C55.0934 34.1533 54.8134 34.6067 54.6134 35.14C54.4268 35.6733 54.3334 36.2467 54.3334 36.86C54.3334 37.5 54.4334 38.0933 54.6334 38.64C54.8334 39.1733 55.1068 39.6333 55.4534 40.02C55.8134 40.4067 56.2401 40.7133 56.7334 40.94C57.2268 41.1533 57.7734 41.26 58.3734 41.26C58.9734 41.26 59.5201 41.1533 60.0134 40.94C60.5068 40.7133 60.9334 40.4067 61.2934 40.02C61.6534 39.6333 61.9334 39.1733 62.1334 38.64C62.3334 38.0933 62.4334 37.5 62.4334 36.86ZM82.9852 44L83.0652 33.98H83.0052L79.3252 44H76.9252L73.3452 33.98H73.2852L73.3652 44H70.1452V29.84H75.0052L78.2252 38.92H78.3052L81.3852 29.84H86.3252V44H82.9852ZM106.847 44L101.147 34.74H101.087L101.167 44H97.8467V29.84H101.747L107.427 39.08H107.487L107.407 29.84H110.727V44H106.847ZM125.048 44L123.948 41.22H118.468L117.428 44H113.708L119.648 29.84H122.968L128.848 44H125.048ZM121.248 33.62L119.448 38.48H123.008L121.248 33.62ZM144.658 44L144.738 33.98H144.678L140.998 44H138.598L135.018 33.98H134.958L135.038 44H131.818V29.84H136.678L139.898 38.92H139.978L143.058 29.84H147.998V44H144.658ZM152.719 44V29.84H162.239V32.74H156.019V35.4H161.899V38.14H156.019V41.08H162.599V44H152.719Z" fill="#111111"/>
<rect x="1212" y="35" width="40" height="4" fill="#111111"/>
</svg>
