<svg width="120" height="100" viewBox="0 0 120 100" fill="none" xmlns="http://www.w3.org/2000/svg">
<path d="M64.5825 35.9684C64.4518 33.084 62.5021 30.7724 59.7382 30.2096C58.4016 29.9383 57.0146 29.8981 55.7181 30.089C50.7433 30.8327 46.3413 33.3855 42.6327 37.677C39.5473 41.2548 38.2508 45.1543 38.7835 49.2649C38.9845 50.8528 39.3161 52.4006 39.7382 54.2498C39.8689 54.7925 39.7784 54.9232 39.3965 55.1141C38.2508 55.6669 37.085 56.2699 35.8387 56.9433C35.3865 57.1945 34.9845 57.1845 34.4317 56.9131C32.291 55.878 29.7684 54.7423 26.9443 54.4508C24.5322 54.1996 22.6227 54.491 20.9342 55.3654C19.9694 55.8378 19.8086 56.4709 19.8086 56.8026C19.8086 57.1342 19.9191 57.7674 20.8337 58.3001C21.6377 58.7624 22.5222 59.1141 23.3965 59.3051C26.9744 60.1091 30.7835 60.0187 35.0548 59.0538C35.2558 59.0136 35.5573 58.9433 35.7483 58.9835C36.9543 59.2649 38.1503 59.5664 39.3965 59.878L40.4016 60.1292C40.2408 61.8076 39.5171 63.4257 38.291 64.8227C35.5171 67.9885 31.9493 69.1644 27.4066 68.4307C27.1754 68.3905 26.9644 68.5111 26.8639 68.7222C26.7734 68.9332 26.8237 69.1744 27.0046 69.3151C27.6277 69.8277 28.6729 70.0287 29.8488 70.0287C31.6176 70.0287 33.6679 69.5664 34.9543 68.9734C38.9644 67.1342 41.296 64.0991 41.9091 59.9584C42.09 59.9383 42.2609 59.9182 42.4317 59.8981C43.0749 59.8277 43.7081 59.7574 44.3212 59.6569C50.3312 58.6116 55.3865 55.5966 59.3262 50.692C63.095 45.9986 64.8136 41.1845 64.5825 35.9684ZM42.2609 58.4609C42.1503 58.4709 42.0398 58.491 41.9292 58.5011L41.889 58.2197C41.7985 57.5865 41.7081 56.9835 41.6578 56.3805C41.6578 56.3202 41.7181 56.1895 41.7382 56.1594C46.09 53.4759 49.3965 49.6368 52.5825 45.9182L53.0448 45.3754C55.6076 42.3905 57.9694 39.7473 60.8438 37.6468C60.8639 37.6468 60.9242 37.6167 60.9644 37.6066C61.0247 37.5865 61.0749 37.5764 61.1352 37.5563C61.286 37.496 61.3965 37.3754 61.4468 37.2247C61.487 37.0739 61.4568 36.9031 61.3563 36.7825L61.095 36.4508C60.9945 36.3302 60.8538 36.2599 60.7031 36.2599C60.6026 36.2599 60.5121 36.29 60.4217 36.3403C60.3312 36.4006 60.2307 36.4609 60.1302 36.5212C59.889 36.6719 59.6478 36.8227 59.4166 37.0237L58.1403 38.1694C56.2508 39.8579 54.3011 41.6167 52.4116 43.3754C50.3815 45.2749 48.3614 47.1845 46.3413 49.094C44.8337 50.5212 43.3161 51.9483 41.7985 53.3754C41.6076 53.5563 41.3664 53.7172 41.1151 53.888C39.4367 48.4609 39.8387 44.4106 42.4116 40.8026C46.1302 35.5865 50.5423 32.5413 55.899 31.486C56.9141 31.285 58.0297 31.285 59.0347 31.486C61.7684 32.0187 63.3262 34.0991 63.2056 37.0538C63.0649 40.5212 61.899 43.8177 59.6478 47.1342C55.497 53.2548 50.3111 56.883 43.8186 58.2297C43.3061 58.3302 42.7835 58.4006 42.2307 58.4609H42.2609ZM40.482 58.5915L37.8186 58.1393L40.3413 57.0136L40.482 58.5915ZM21.6176 56.8629C21.6176 56.8629 21.5875 56.8327 21.5774 56.8227C21.5875 56.8126 21.5975 56.8026 21.6176 56.7925C21.9191 56.5312 22.2106 56.28 22.5021 56.1895C24.2709 55.6066 26.1302 55.5563 27.899 56.0388C29.3664 56.4408 30.8237 56.9734 32.2408 57.496C32.5523 57.6166 32.8739 57.7272 33.1855 57.8378C32.9945 57.8679 32.7935 57.8981 32.6026 57.9282C31.4568 58.1192 30.281 58.3101 29.1151 58.3805C26.3312 58.5513 24.2709 58.3001 22.4518 57.5463C22.1704 57.4257 21.899 57.1543 21.6176 56.8629Z" fill="#222222"/>
<path d="M100.14 55.2853C100.06 55.0944 99.8591 54.9738 99.6581 54.9838C99.2159 55.0039 98.8139 55.1547 98.4621 55.2954C98.1003 55.4361 97.839 55.5366 97.5978 55.5366C97.5978 55.5366 97.6078 55.5165 97.6179 55.5064C97.8993 55.0843 98.1907 54.6522 98.3315 54.1496C98.4722 53.6672 98.6129 52.5919 98.1204 52.029C97.648 51.4964 96.5626 51.4662 95.9897 51.6471C94.9747 51.9788 93.9897 52.411 93.035 52.823C92.7134 52.9637 92.4018 53.0944 92.0802 53.2351L89.0752 54.5014C86.9646 55.3959 84.8541 56.2904 82.7335 57.1647C82.5425 57.2451 82.3315 57.2954 82.1103 57.3456C82.1606 57.2853 82.2109 57.225 82.2712 57.1748C84.6129 54.813 86.9646 52.4612 89.3264 50.1195C89.648 49.7979 89.9596 49.4461 90.2712 49.0944C91.0048 48.2602 91.6983 47.4763 92.5224 47.1346C93.3666 46.7929 94.4119 46.8532 95.5174 46.9235C96.0199 46.9537 96.5224 46.9838 97.0048 46.9738C97.3767 46.9738 97.7485 46.9738 98.1204 46.9738H98.633C98.7737 46.9738 98.9043 46.9235 98.9948 46.823C99.0852 46.7225 99.1455 46.5919 99.1355 46.4612V46.0592C99.1154 45.7878 98.8943 45.5768 98.6229 45.5768H93.6581L97.246 42.2803C97.4269 42.1094 97.4571 41.8381 97.3164 41.627L97.0852 41.2954C96.9445 41.0843 96.6631 41.014 96.432 41.1346C96.3315 41.1949 96.2109 41.2451 96.1003 41.2954C95.8088 41.426 95.4772 41.5768 95.2159 41.8381C94.7134 42.3406 94.231 42.8733 93.7485 43.3959C93.1857 43.9989 92.6229 44.612 92.04 45.1848C91.8189 45.4059 91.4169 45.5868 91.1254 45.5969C89.3164 45.6371 87.4671 45.627 85.6782 45.617H84.6229L88.5425 41.8682C88.7134 41.7074 88.7435 41.4562 88.633 41.2552L88.4621 40.9537C88.3315 40.7225 88.04 40.6421 87.8088 40.7627C87.7083 40.813 87.5877 40.8632 87.4772 40.9034C87.1757 41.024 86.834 41.1647 86.5727 41.426C85.3264 42.6723 84.2109 43.8582 83.1656 45.0441C82.7536 45.5064 82.3415 45.6773 81.7485 45.6371C81.1254 45.5969 80.5023 45.6069 79.8993 45.617C79.638 45.617 79.3767 45.617 79.1154 45.617C78.9747 45.617 78.844 45.6773 78.7536 45.7677C78.6631 45.8582 78.6129 45.9989 78.6129 46.1396L78.633 46.5215C78.643 46.7929 78.8641 47.0039 79.1355 47.0039H80.844C80.6933 47.1949 80.5325 47.3858 80.3817 47.5667C79.5676 48.5718 78.7234 49.6069 77.7184 50.2904C73.5174 53.1245 68.7837 55.3959 63.2561 57.2451C63.045 57.3155 62.8139 57.3557 62.5425 57.4059C63.0752 56.612 63.7284 56.0592 64.4119 55.4763L64.6832 55.2451C65.3767 54.6522 66.0902 54.0793 66.8038 53.5064L67.7988 52.7024C67.9897 52.5517 68.04 52.2803 67.9194 52.0692L67.7787 51.828C67.6581 51.6069 67.3867 51.5165 67.1556 51.6069L58.8842 54.9738C58.633 55.0743 58.5023 55.3657 58.6028 55.627L58.7435 55.9687C58.7938 56.0994 58.8943 56.1999 59.0149 56.2502C59.1355 56.3004 59.2762 56.3004 59.4068 56.2502L62.7737 54.823C62.2611 55.3356 61.7485 55.8682 61.3164 56.4612C61.0551 56.823 61.0149 57.2753 60.9847 57.6773C60.9747 57.828 60.9546 57.9687 60.9345 58.1094C60.9043 58.2501 60.9345 58.4009 61.035 58.5115C61.1355 58.622 61.2561 58.6924 61.3968 58.7024C61.5174 58.7024 61.648 58.7225 61.7787 58.7426C62.1003 58.7828 62.442 58.813 62.7938 58.7728C63.3566 58.6924 63.9093 58.5014 64.4018 58.3406C67.7686 57.1848 71.1355 55.6773 74.6531 53.7476L74.5827 53.818C73.5978 54.8532 72.6129 55.8883 71.648 56.9436C71.4269 57.1949 71.3566 57.5064 71.2963 57.7677C71.2762 57.8582 71.2561 57.9386 71.236 58.029C71.1958 58.1597 71.2058 58.3105 71.2762 58.4311C71.3465 58.5517 71.4671 58.6421 71.6078 58.6723C71.6983 58.6924 71.7887 58.7225 71.8792 58.7426C72.1405 58.823 72.4521 58.9135 72.7737 58.8632C73.3767 58.7627 74.0802 58.622 74.7134 58.3105C77.6179 56.9034 80.5023 55.4662 83.3867 54.019C82.9546 54.4914 82.5224 54.9537 82.0902 55.416C81.7284 55.7979 81.3767 56.1798 81.0249 56.5617C80.7636 56.8532 80.6028 57.2049 80.4621 57.5165C80.4018 57.6471 80.3516 57.7677 80.2812 57.8883C80.2008 58.0391 80.2008 58.22 80.2812 58.3607C80.3616 58.5115 80.5124 58.6019 80.6732 58.622C80.8139 58.6321 80.9546 58.6622 81.0953 58.6924C81.4772 58.7627 81.9194 58.8431 82.3315 58.7024C84.2812 58.0491 86.0601 57.3858 87.7485 56.6823C88.8139 56.2401 89.8591 55.7476 90.8742 55.2652C90.5928 55.6873 90.3415 56.1195 90.1304 56.5818C89.7586 57.416 89.9294 57.9587 90.1304 58.2703C90.3415 58.5818 90.7837 58.9537 91.7385 58.9537C91.7586 58.9537 91.7787 58.9537 91.8088 58.9537C93.6279 58.9235 95.0249 57.8984 96.1505 57.0642C96.3214 56.9336 96.6531 56.8532 96.8842 56.8733C98.1606 56.9939 99.2862 56.6321 100.05 55.8582C100.191 55.7074 100.231 55.4863 100.151 55.3054L100.14 55.2853ZM91.5174 57.0743C92.7737 55.1748 94.4722 53.7979 96.5727 52.9838C96.7234 52.9235 97.0149 52.9336 97.0249 52.9034C97.1053 53.0039 97.1556 53.3557 97.0852 53.5969C96.5928 55.3657 93.6782 57.5366 91.8088 57.5165C91.4872 57.5165 91.3566 57.4662 91.3365 57.4763C91.3365 57.4361 91.3767 57.3054 91.5274 57.0743H91.5174ZM90.2812 47.0039C85.7586 52.019 80.0601 54.8532 73.0048 57.3858C73.3465 56.9939 73.6882 56.6019 74.05 56.2401C77.0551 53.2552 80.0802 50.2904 83.1053 47.3255C83.3465 47.0843 83.5073 47.024 83.5375 47.024C84.9546 47.0039 86.3616 47.0039 87.8189 47.0039C88.3918 47.0039 88.9646 47.0039 89.5475 47.0039H90.2812Z" fill="#222222"/>
<path d="M73.4664 46.1794C73.5569 46.2799 73.6976 46.3402 73.8383 46.3402C73.8383 46.3402 73.8483 46.3402 73.8584 46.3402C74.0091 46.3402 74.1398 46.2598 74.2302 46.1493C74.3207 46.0387 74.4011 45.9483 74.4815 45.8578C74.7026 45.6166 74.9338 45.3654 74.9639 45.0237C75.0142 44.5714 74.5116 44.1794 74.3609 44.0789C74.2704 44.0186 73.989 43.8176 73.6775 43.9684C73.3056 44.1493 72.9639 44.501 72.7428 44.893C72.5317 45.285 72.8333 45.5764 73.1549 45.8779C73.2554 45.9684 73.3559 46.0789 73.4564 46.1794H73.4664Z" fill="#222222"/>
</svg>
