<svg width="120" height="100" viewBox="0 0 120 100" fill="none" xmlns="http://www.w3.org/2000/svg">
<path fill-rule="evenodd" clip-rule="evenodd" d="M87.35 57.5898C86.7497 58.3899 86.2152 59.1296 85.6514 59.8391C85.1682 60.4429 84.5532 60.775 83.7624 60.6165C82.9131 60.4504 82.7301 60.0127 83.1914 59.273C84.6044 57.0011 85.7246 54.5934 86.3177 51.9668C86.8522 49.5968 85.4684 48.1024 83.206 48.7439C81.9833 49.0836 80.7459 49.6648 79.7136 50.4195C76.2724 52.9329 73.7025 56.269 71.3816 59.8768C70.0271 61.9902 68.3651 63.8997 66.7909 65.8546C66.4541 66.2773 65.9123 66.5792 65.4071 66.7981C64.5944 67.1603 64.038 66.7603 64.0307 65.8621C64.0307 65.4772 64.0673 65.0545 64.221 64.7149C64.5505 63.9526 64.902 63.1827 65.3486 62.4883C67.9038 58.5635 70.5103 54.6689 73.0582 50.7365C73.4682 50.1025 73.9002 49.7327 74.6544 49.8912C75.4671 50.0572 75.8551 49.5968 76.1406 48.7666H74.3761C76.1773 46.0494 77.8905 43.453 79.6916 40.7358C78.9448 40.7358 78.3371 40.7811 77.7368 40.7207C77.1217 40.6603 76.7776 40.917 76.4408 41.4302C75.0497 43.5662 73.5781 45.6494 72.2163 47.808C71.7404 48.5552 71.2352 48.9553 70.3712 48.7892C69.5365 48.6232 69.1851 49.1138 68.9142 49.9138H70.7739C70.5396 50.2761 70.3785 50.5403 70.2101 50.7969C68.0283 54.1255 65.905 57.4993 63.65 60.775C62.4639 62.5034 61.0874 64.1111 59.7256 65.7112C59.3229 66.1867 58.7372 66.549 58.1734 66.8056C57.368 67.1679 56.8116 66.7452 56.8335 65.8244C56.8335 65.3942 56.9141 64.9187 57.0971 64.5337C57.5584 63.5752 58.0343 62.6091 58.62 61.7184C61.0069 58.0578 63.4596 54.4349 65.8318 50.7592C66.2711 50.0874 66.725 49.7327 67.4938 49.8836C68.3285 50.0421 68.6726 49.5591 68.9288 48.7666H67.179C68.9728 46.0494 70.7007 43.4454 72.4945 40.7358C71.6745 40.7358 71.0155 40.766 70.3566 40.7283C69.888 40.6981 69.6317 40.8792 69.3681 41.2717C67.9551 43.4228 66.4615 45.5286 65.0923 47.7099C64.5725 48.5326 64.0234 48.9704 63.0642 48.7968C62.2589 48.6458 61.9806 49.1892 61.739 49.9138H63.5694C63.401 50.1931 63.2839 50.3818 63.1594 50.5705C60.9117 54.0122 58.7372 57.5068 56.3869 60.8806C55.0544 62.7902 53.4729 64.5186 51.928 66.2622C51.4668 66.783 50.7785 67.2207 50.0098 66.7679C49.5266 66.481 49.424 65.5829 49.8414 64.6545C50.3026 63.6356 50.8225 62.6317 51.4302 61.7033C54.044 57.688 56.7017 53.7028 59.3375 49.71C59.5132 49.4383 59.6816 49.1666 59.9086 48.7968C59.052 48.7968 58.3345 48.759 57.6316 48.8194C57.3534 48.8421 56.9873 49.0232 56.8408 49.2572C54.249 53.2197 51.7523 57.2502 49.0799 61.1599C47.8426 62.9714 46.327 64.5866 44.8627 66.2169C44.3941 66.7377 43.618 67.1981 42.9371 66.6848C42.2489 66.164 42.5051 65.3112 42.8199 64.6545C43.3617 63.4997 43.9328 62.3449 44.6284 61.2882C49.9 53.2952 55.2081 45.3173 60.5017 37.3393C61.7756 35.4147 63.0569 33.49 64.426 31.4295C63.606 31.4295 62.969 31.4748 62.3394 31.4144C61.7756 31.3616 61.4754 31.6031 61.1753 32.0635C57.595 37.4978 53.9927 42.9171 50.3978 48.3364C49.8267 49.1968 49.2557 50.0497 48.6333 50.9705C48.3404 48.8571 47.3374 48.193 45.4264 48.7892C44.848 48.9704 44.2696 49.2119 43.7571 49.5364C39.7595 52.0649 36.5307 55.4161 33.9535 59.4541C32.965 61.0014 32.1816 62.6468 31.9254 64.5035C31.7277 65.9376 31.9254 67.2887 33.192 68.134C34.4367 68.9642 35.6814 68.5718 36.7357 67.7264C37.7387 66.9264 38.632 65.9829 39.5472 65.0621C40.0451 64.5639 40.477 63.9903 40.9676 63.4167C40.8797 64.2318 40.7333 64.9489 40.726 65.6734C40.6967 68.0208 42.3148 69.1454 44.3355 68.0585C45.3459 67.5151 46.1586 66.5792 47.0445 65.8093C47.2642 65.6206 47.4326 65.3715 47.7474 65.0243C47.7474 65.4998 47.7328 65.7565 47.7474 66.0131C47.8719 67.983 49.2264 68.8963 51.0494 68.2321C52.3747 67.7491 53.3118 66.7452 54.2124 65.6961C54.4174 65.4546 54.6297 65.213 54.9665 64.8206C54.9665 65.4697 54.9299 65.8923 54.9665 66.2999C55.1056 67.7491 56.094 68.6472 57.4705 68.368C58.2612 68.2095 59.0593 67.8094 59.7182 67.3188C60.5895 66.6622 61.3217 65.8168 62.1563 65.0168C62.1563 65.4244 62.1271 65.8319 62.1563 66.2395C62.2881 67.7793 63.2912 68.6623 64.7555 68.368C65.495 68.217 66.2784 67.8547 66.8568 67.3641C67.7574 66.6018 68.5115 65.6583 69.3096 64.7753C69.4487 64.6243 69.5073 64.3903 69.6024 64.1941C69.683 64.262 69.7562 64.3375 69.8367 64.4054C69.8367 64.7451 69.8148 65.0923 69.8367 65.4319C69.9905 67.6585 71.6086 68.9416 73.6806 68.3831C74.5226 68.1566 75.4231 67.8094 76.0821 67.2509C77.5391 66.0282 78.8936 64.6696 80.2261 63.3035C80.9217 62.5864 81.4927 61.7335 82.1151 60.9486C83.638 62.1487 85.0877 62.0656 86.3616 60.6467C87.0133 59.9221 87.5331 59.0767 88.1408 58.2465C87.7967 57.9823 87.5477 57.7936 87.3134 57.6125L87.35 57.5898ZM36.8455 66.2773C36.4575 66.6999 35.901 67.0094 35.3665 67.2207C34.4074 67.5981 33.6826 66.9867 33.9022 65.9527C34.0853 65.1225 34.3415 64.2469 34.7881 63.545C36.5307 60.8656 38.2732 58.1786 40.1915 55.635C41.4508 53.9669 42.9957 52.5178 44.4746 51.0384C44.9505 50.5554 45.5875 50.1931 46.2099 49.9289C47.0079 49.5893 47.4911 49.9667 47.4911 51.1969C47.3081 51.6875 47.1104 52.6159 46.6418 53.3707C45.097 55.8388 43.5668 58.3295 41.8242 60.6391C40.316 62.6393 38.5441 64.4356 36.8382 66.2773H36.8455ZM81.4561 59.19C81.4927 59.4692 81.4561 59.8466 81.3024 60.0655C79.6989 62.2845 78.0077 64.4281 75.8112 66.0584C75.2254 66.4961 74.5519 66.8584 73.8636 67.1C72.6556 67.5151 71.982 66.9566 71.8575 65.6206C72.1137 64.8356 72.2675 63.9903 72.6556 63.2733C75.101 58.7522 78.015 54.5934 81.7783 51.129C82.4006 50.5554 83.2206 50.1554 84.0114 49.8384C84.7582 49.5364 85.3 50.0044 85.3293 50.8497C85.3439 51.212 85.2561 51.5743 85.2268 51.9366C85.1902 52.3517 85.0364 52.5404 84.5678 52.6008C83.6746 52.714 83.0523 53.348 82.5983 54.0953C81.6685 55.6501 81.1926 57.3332 81.4488 59.1975L81.4561 59.19Z" fill="#222222"/>
<path fill-rule="evenodd" clip-rule="evenodd" d="M62.0468 41.7549C61.0144 42.3889 60.3555 43.3173 60.1138 44.54C59.9015 45.6193 60.5605 46.2231 61.5855 45.9137C62.7203 45.574 63.9723 43.8984 64.0163 42.6531C64.0456 41.8907 63.6575 41.4832 62.7203 41.4983C62.6032 41.5436 62.303 41.6039 62.0468 41.7549Z" fill="#222222"/>
</svg>
