<svg width="240" height="140" viewBox="0 0 240 140" fill="none" xmlns="http://www.w3.org/2000/svg">
<path fill-rule="evenodd" clip-rule="evenodd" d="M127.366 7.07925C127.396 17.9235 127.335 32.4963 127.366 44.4762C134.572 43.4109 141.818 38.7677 148.421 40.0742C149.205 41.1295 149.165 43.029 148.732 44.4762C142.913 47.0491 134.31 48.1245 127.677 50.7576C129.165 72.3054 129.165 101.26 131.446 124.607C132.059 130.878 133.989 135.994 126.421 134.034C124.773 128.657 125.134 122.526 124.843 116.436C123.898 96.4159 121.938 73.4612 121.707 53.2702C116.913 53.632 111.737 56.2853 106.622 57.3506C107.727 73.5717 108.501 90.7777 110.702 106.687C111.386 111.632 112.602 116.416 112.27 120.828C104.692 125.582 105.064 113.733 104.411 107.31C102.863 92.0441 101.175 73.7928 100.642 59.23C97.1947 60.2551 90.9736 60.0642 91.2148 56.0843C91.4359 52.5265 97.2952 53.1697 100.33 52.627C100.883 46.2551 100.491 34.6471 103.476 28.7476C104.893 28.1245 106.853 28.6772 108.19 29.0592C109.828 35.1094 105.526 42.225 106.622 50.7476C110.32 50.5667 116.742 47.9637 121.396 46.6672C121.205 33.7627 120.551 18.8682 121.707 5.81292C123.948 5.01895 125.928 6.12448 127.366 7.0692" fill="#222222"/>
<path fill-rule="evenodd" clip-rule="evenodd" d="M68.6015 28.7675C69.4056 44.7876 73.285 61.7122 73.0036 79.0489C72.8729 86.878 72.5312 94.2851 73.3151 101.672C74.0387 108.526 76.8428 114.858 76.1392 121.471C73.9282 122.255 72.2196 121.913 70.4809 120.838C69.1443 115.793 68.1794 110.355 67.3352 104.808C65.3855 108.687 58.7825 113.571 52.5614 109.521C43.3654 103.531 49.687 76.2348 58.5312 72.7474C60.5111 71.9735 62.9935 71.8629 64.8126 72.4358C63.9584 57.8931 62.9533 41.8227 62.6116 27.8127C64.6016 26.9484 67.1342 27.471 68.5815 28.7574M61.3754 77.471C56.9031 80.5162 53.5563 91.2599 54.1493 98.8378C54.3905 101.883 55.5161 104.979 57.6066 105.119C60.0186 105.28 62.1995 101.139 63.2649 98.8378C66.0689 92.7876 66.6217 85.883 65.1543 78.4157C63.8377 78.084 62.6619 76.9082 61.3855 77.471" fill="#222222"/>
<path fill-rule="evenodd" clip-rule="evenodd" d="M88.0898 41.9635C91.7782 48.3856 80.2305 50.3756 81.8084 42.5967C83.3963 41.4308 85.7481 40.7374 88.0898 41.9635Z" fill="#222222"/>
<path fill-rule="evenodd" clip-rule="evenodd" d="M168.22 64.2757C171.697 62.5672 175.094 58.4466 172.933 53.9039C175.627 52.4566 179.034 53.0797 180.159 55.4717C180.441 63.7129 175.436 66.6677 171.355 70.5571C175.084 84.2154 168.823 101.854 161.616 109.21C154.41 116.557 146.039 109.964 143.707 101.673C140.28 89.5018 141.968 59.8838 148.421 53.9039C149.858 52.5772 152.792 51.7933 153.767 51.7029C159.526 51.1501 165.034 58.3963 168.22 64.2757ZM162.25 65.8436C161.124 62.4566 159.245 59.8436 156.28 58.3059C156.4 62.6878 158.682 64.9089 162.25 65.8436ZM150.622 102.617C151.405 104.266 153.817 106.859 155.335 106.708C156.712 106.567 158.39 103.502 159.416 101.994C164.501 94.5471 168.943 82.8787 165.385 72.1451C157.948 73.1501 153.908 68.1551 150.3 64.2858C148.35 73.934 146.31 93.5722 150.612 102.627" fill="#222222"/>
<path fill-rule="evenodd" clip-rule="evenodd" d="M87.4559 61.4513C89.1443 65.6222 88.3403 70.4865 88.4006 75.2805C88.5313 85.4212 89.0639 95.9036 89.9684 105.451C90.4207 110.145 91.9986 114.909 90.28 118.969C83.5262 121.843 84.6117 114.185 84.3101 109.542C83.6066 98.6573 82.29 89.0091 82.1091 77.1699C82.0187 71.4915 80.7423 65.7126 82.7423 61.7729C84.6318 61.4312 85.5664 61.2101 87.4559 61.4614" fill="#222222"/>
<path fill-rule="evenodd" clip-rule="evenodd" d="M191.949 52.7691C191.034 49.7942 191.235 46.3872 191.075 43.0204C190.552 31.9249 189.456 19.2013 189.336 8.01534C186.683 8.21634 183.818 9.68368 180.974 10.2766C181.587 19.2616 182.019 28.7993 183.235 37.6234C183.617 40.3671 184.281 43.0204 184.11 45.4626V49.0907C184.11 50.6284 189.778 52.2867 189.778 52.2867C189.778 52.2867 191.477 52.8395 191.949 52.7691Z" fill="#222222"/>
<path fill-rule="evenodd" clip-rule="evenodd" d="M180.17 42.4576C179.949 40.9501 179.888 39.2616 179.758 37.9651C178.893 29.5028 177.969 19.3923 177.667 11.3219C177.667 11.3219 175.305 11.8747 173.838 11.8747C172.371 11.8747 170.351 12.538 170.351 12.538C171.285 14.8495 170.843 17.543 170.873 20.1963C170.944 25.8144 171.235 31.6234 171.748 36.9099C171.898 38.538 172.3 40.1762 172.351 41.734C172.351 41.734 176.411 42.4676 177.506 42.4676C178.602 42.4676 180.17 42.4475 180.17 42.4475" fill="#222222"/>
</svg>
