<svg width="120" height="100" viewBox="0 0 120 100" fill="none" xmlns="http://www.w3.org/2000/svg">
<path fill-rule="evenodd" clip-rule="evenodd" d="M56.2345 56.239C55.6025 56.7451 55.044 57.3162 54.3826 57.6993C53.5816 58.162 52.7144 58.6391 51.8179 58.7909C49.7675 59.1379 48.7975 58.0391 49.187 55.9716C48.5403 56.521 47.9524 57.0776 47.313 57.562C46.3944 58.2704 45.395 58.8054 44.1751 58.8126C42.5657 58.827 41.9337 58.133 42.1542 56.5571C42.1836 56.3475 42.235 56.1378 42.2865 55.8776C41.5075 56.5427 40.8094 57.2077 40.0377 57.7716C39.538 58.1403 38.9501 58.4511 38.3475 58.6246C36.0106 59.3114 34.3645 57.8005 35.0185 55.5017C35.2831 54.5619 35.7828 53.6149 36.4001 52.8558C38.0462 50.8462 40.0524 49.2558 42.676 48.6196C43.2124 48.4895 43.8003 48.4895 44.3515 48.5329C45.1966 48.6052 45.6522 49.1474 45.7551 50.0221C45.8874 49.9353 45.9609 49.9136 45.9976 49.8558C47.6952 47.3979 49.4001 44.9473 51.0683 42.475C51.2961 42.1424 51.3475 41.6942 51.5092 41.2026C52.4719 41.2026 53.5448 41.181 54.6177 41.2243C54.7647 41.2243 55.0513 41.6075 55.0146 41.7448C54.919 42.1207 54.7206 42.4894 54.4928 42.8219C51.8546 46.6895 49.1943 50.5353 46.5635 54.4029C46.1078 55.0679 45.689 55.7692 45.3803 56.5065C45.2407 56.8391 45.395 57.2945 45.4244 57.6993C45.8065 57.6487 46.2622 57.7138 46.5708 57.533C48.3419 56.4704 49.7381 54.9884 50.9507 53.3547C51.6856 52.357 52.3911 51.3378 53.0745 50.3112C53.3538 49.8847 53.5301 49.4004 53.8094 48.8293C54.7206 48.8293 55.7936 48.8293 56.8591 48.8293C57.3662 48.8293 57.4397 49.0823 57.2633 49.4582C57.1016 49.798 56.9106 50.1305 56.6975 50.4414C55.4996 52.198 54.2797 53.9402 53.1039 55.7041C52.8173 56.1378 52.5821 56.6366 52.4792 57.1354C52.347 57.7355 52.7071 58.0174 53.2876 57.7788C53.7726 57.5836 54.243 57.3017 54.6545 56.9692C57.2339 54.9089 59.0564 52.2269 60.8348 49.516C60.8569 49.4871 60.8348 49.4221 60.8348 49.2992H59.1079C59.0858 49.2197 59.0638 49.1401 59.0417 49.0606C59.2475 48.9811 59.4753 48.8004 59.6517 48.8365C61.092 49.1546 61.8416 48.3666 62.4589 47.2533C62.9513 46.3642 63.5465 45.5256 64.23 44.4557C65.053 44.4557 66.1701 44.4413 67.2871 44.4774C67.3973 44.4774 67.6178 44.8533 67.5663 44.9834C67.4414 45.3593 67.2283 45.7136 67.0078 46.0461C66.4273 46.9281 65.8173 47.7955 65.1265 48.8076C66.4126 48.8076 67.5663 48.8148 68.7274 48.7931C68.8671 48.7931 69.0287 48.6196 69.1243 48.4895C69.8077 47.5136 70.4911 46.5449 71.1378 45.5473C71.3216 45.2581 71.3877 44.9039 71.5567 44.4557C72.6002 44.4557 73.7173 44.4413 74.8343 44.4774C74.9372 44.4774 75.1576 44.8605 75.1135 44.9907C74.9886 45.3666 74.7681 45.7208 74.5477 46.0533C73.9671 46.9353 73.3572 47.8028 72.6811 48.7931H75.5545C75.5692 48.8654 75.5912 48.9305 75.6059 49.0028C75.4075 49.0968 75.2164 49.2269 75.0106 49.263C74.7608 49.3064 74.4962 49.3136 74.2464 49.263C72.784 49.01 71.8727 49.5594 71.1231 50.8534C70.1017 52.6173 68.823 54.2366 67.6545 55.921C67.5957 56.0005 67.5443 56.0872 67.4928 56.174C67.2356 56.6294 66.9711 57.2005 67.4781 57.533C67.7794 57.7282 68.4482 57.6848 68.7862 57.4824C70.6528 56.3764 72.1152 54.8438 73.3719 53.0944C75.4516 50.2028 78.2809 48.5763 81.9112 48.5257C84.3657 48.4895 85.5929 50.1522 84.9609 52.5089C84.5567 54.0197 83.7043 55.2631 82.5285 56.2752C80.7427 57.8077 78.641 58.6969 76.282 58.8632C75.503 58.921 74.6432 58.7041 73.9157 58.4005C72.6223 57.8584 72.2328 56.7378 72.5341 55.0029C72.468 54.9306 72.3945 54.8655 72.3283 54.7932C72.174 55.0318 72.0638 55.3282 71.858 55.5089C70.7557 56.4776 69.6607 57.468 68.4923 58.3572C67.7794 58.8993 66.9123 59.1523 65.9643 58.9788C64.3255 58.668 63.598 57.6487 63.9434 55.9932C63.2379 56.6005 62.6353 57.2511 61.9004 57.7138C61.0773 58.2343 60.1881 58.762 59.2475 58.9716C57.5646 59.3548 56.4109 58.2198 56.2492 56.2246L56.2345 56.239ZM75.5104 56.933C75.4883 57.8728 76.0027 58.321 76.7597 58.1114C77.2888 57.9668 77.8252 57.7138 78.2441 57.374C80.3385 55.6824 81.8597 53.5571 82.9033 51.1064C83.0282 50.81 83.1237 50.4847 83.1752 50.1666C83.2707 49.5088 82.8739 49.0245 82.2198 49.1401C81.6613 49.2341 81.0808 49.4654 80.6251 49.7907C78.4646 51.3305 76.8993 53.3547 75.8558 55.7691C75.672 56.2029 75.5839 56.68 75.5104 56.933ZM68.5217 49.2775C67.3606 49.2775 66.3905 49.3064 65.4205 49.263C64.8987 49.2413 64.5901 49.4148 64.2961 49.8414C62.9072 51.8944 61.4889 53.9185 60.0779 55.9643C59.9677 56.1306 59.806 56.3113 59.806 56.4921C59.7986 56.8607 59.7546 57.3451 59.9603 57.5764C60.1293 57.7571 60.6732 57.7138 60.9965 57.6126C61.3713 57.4969 61.7167 57.2367 62.04 56.9981C64.7811 54.9884 66.5522 52.1835 68.5143 49.2847L68.5217 49.2775ZM44.1972 49.3714C43.9326 49.5016 43.4623 49.6462 43.0875 49.9209C41.0813 51.4245 39.5527 53.3113 38.5018 55.5667C38.3549 55.8776 38.274 56.239 38.252 56.586C38.1858 57.374 38.6635 57.7716 39.4425 57.5909C39.6997 57.533 39.9643 57.3812 40.17 57.2077C42.2571 55.5523 43.7342 53.4269 44.9394 51.0992C45.079 50.839 45.1819 50.5353 45.2039 50.2462C45.248 49.7185 44.9908 49.3859 44.1972 49.3642V49.3714Z" fill="#222222"/>
<path fill-rule="evenodd" clip-rule="evenodd" d="M58.0425 44.9541C57.043 44.9396 56.5139 44.1661 56.8152 43.1758C57.1239 42.1637 58.4614 41.0721 59.5196 40.9637C60.3867 40.8769 61.0114 41.4552 60.9526 42.3083C60.8644 43.5806 59.3359 44.9758 58.0351 44.9541H58.0425Z" fill="#222222"/>
</svg>
