<svg width="120" height="100" viewBox="0 0 120 100" fill="none" xmlns="http://www.w3.org/2000/svg">
<path d="M56.9856 47.2329C58.1837 47.313 58.827 46.9196 58.8788 46.0016C58.9306 45.1492 58.4795 44.5081 57.5329 44.4352C56.6306 44.3697 56.0094 44.7995 55.9207 45.7175C55.832 46.6354 56.3348 47.1382 56.9782 47.2329H56.9856Z" fill="#222222"/>
<path fill-rule="evenodd" clip-rule="evenodd" d="M86.1304 62.5467C85.2504 64.3462 84.4517 66.1894 82.736 67.4498C81.3605 68.4698 79.8149 68.9798 78.1436 68.9944C76.1173 69.0162 74.8675 67.9088 74.2167 65.9126C73.7656 66.3279 73.381 66.6921 72.9743 67.0346C71.4952 68.3095 69.7203 68.8632 67.805 69.0235C66.1115 69.1619 65.505 68.7685 64.8469 67.3988C63.2569 67.9307 61.7187 68.5718 60.1139 68.9361C58.1467 69.3878 57.3259 68.8996 56.4606 67.1948C53.6208 68.4188 50.8106 70.0508 47.7638 67.5373C45.56 69.4242 42.1951 69.5918 41.3003 67.785C40.3611 68.1565 39.4589 68.6446 38.4901 68.8705C36.2346 69.4023 34.5263 68.2658 34.0456 66.0437C33.0694 61.5194 36.2567 56.4342 40.827 55.2248C42.8977 54.6711 43.8887 55.0645 44.9166 56.8348C46.7211 53.3669 48.4294 49.8553 50.3447 46.4676C53.007 41.7611 55.9799 37.2514 60.1065 33.6232C63.0868 31.0005 66.4147 30.1043 70.201 31.6926C70.8001 31.9403 71.3843 32.341 71.8058 32.8145C71.9981 33.0331 71.7688 33.6087 71.7319 34.0239C71.3473 33.9584 70.8296 34.0239 70.6004 33.7981C67.7014 30.9713 65.3202 30.7892 62.0958 33.2881C59.3596 35.4082 57.3259 38.1694 55.7729 41.1492C51.7646 48.8354 47.9782 56.6382 44.1401 64.4045C43.7999 65.0893 43.615 65.8616 43.4745 66.6193C43.3192 67.4644 43.7112 67.9307 44.6578 67.9088C46.1738 67.8724 47.1944 67.0127 47.8451 65.8325C49.2281 63.3335 50.4705 60.7545 51.7646 58.2045C52.0087 57.731 52.2157 57.2356 52.5929 56.4269C51.8977 56.4851 51.454 56.558 51.0177 56.5434C50.7515 56.5434 50.4852 56.3977 50.219 56.3249C50.4113 56.1281 50.574 55.8003 50.8032 55.7493C51.9495 55.4943 53.1032 55.2466 54.2642 55.13C55.2996 55.028 55.7137 55.538 55.27 56.4851C54.2199 58.7291 53.0144 60.8929 51.9273 63.115C51.3875 64.2223 50.9142 65.3662 50.5074 66.5319C50.2338 67.3114 50.5148 67.7631 51.4762 67.734C53.0884 67.6902 54.6118 67.377 55.8616 66.3279C56.4015 65.8689 56.9117 65.2715 57.1928 64.6303C58.3908 61.9056 59.5001 59.1444 60.6685 56.3394C60.1139 56.2302 59.611 56.1282 59.1081 56.0262C59.0933 55.895 59.0859 55.7566 59.0712 55.6255C59.4631 55.538 59.8551 55.3486 60.2396 55.3705C60.8978 55.4069 61.2675 55.2029 61.4081 54.5545C61.6521 53.4179 62.3251 52.7622 63.4787 52.3251C64.344 51.99 65.017 51.1813 65.8526 50.5183C65.2092 52.1284 64.588 53.6875 63.9151 55.3705C64.7655 55.3705 65.4681 55.3413 66.1632 55.385C66.3851 55.3996 66.5921 55.6109 66.7992 55.7275C66.5847 55.895 66.3777 56.0626 66.1632 56.2302C66.141 56.252 66.0819 56.2447 66.0449 56.2302C63.9224 55.6765 63.1164 56.8567 62.4804 58.6125C61.6447 60.8929 60.5132 63.064 59.6258 65.3298C59.3374 66.0656 59.4335 66.9544 59.3522 67.7704C60.1878 67.7048 61.0827 67.8141 61.8518 67.5518C63.7228 66.9107 65.1575 65.7887 65.8674 63.7998C66.7622 61.2936 67.8715 58.8602 68.9143 56.3321C68.367 56.2229 67.8641 56.1282 67.3612 56.0262C67.3465 55.895 67.3317 55.7566 67.3243 55.6255C67.7088 55.5307 68.1008 55.3486 68.4853 55.3705C69.1361 55.4069 69.5207 55.2175 69.6612 54.5618C69.9126 53.4398 70.5634 52.7622 71.7245 52.3251C72.5897 51.9973 73.2627 51.1813 74.1057 50.5183C73.4623 52.1211 72.8485 53.6802 72.1756 55.3705C73.0186 55.3705 73.7212 55.334 74.4163 55.3923C74.6456 55.4142 74.8453 55.6837 75.0597 55.8367C74.8527 55.9679 74.6456 56.1063 74.4311 56.2302C74.4016 56.252 74.3498 56.2447 74.3128 56.2302C72.1016 55.64 71.3547 56.9733 70.6965 58.7145C69.8535 60.9512 68.7516 63.0931 67.8863 65.3225C67.5979 66.0656 67.6866 66.9471 67.5979 67.7631C68.4336 67.7048 69.3284 67.8068 70.0901 67.5445C70.9923 67.2386 71.8206 66.663 72.6193 66.1166C73.5881 65.4463 74.0688 64.5721 74.1057 63.2898C74.2389 58.9404 78.2619 55.13 82.4698 55.0863C84.1781 55.0718 85.1839 56.0407 86.1231 57.2064V62.554L86.1304 62.5467ZM84.0672 58.8165C84.0524 57.4468 84.0672 56.456 82.9801 56.0334C81.856 55.589 80.7837 55.9606 80.1107 56.8203C78.1066 59.3921 76.6941 62.2626 76.4279 65.5556C76.3391 66.6193 76.6053 67.5955 77.6998 68.0764C78.6686 68.4989 79.9924 68.1201 80.7097 67.071C82.4994 64.4409 83.5717 61.5194 84.0598 58.8165H84.0672ZM44.1179 58.2482C44.1993 56.0043 43.0678 55.1883 41.4112 55.9752C40.7013 56.3103 40.0061 56.8713 39.5476 57.5051C37.7506 60.0186 36.5304 62.8163 35.9683 65.8397C35.8426 66.5027 36.0867 67.6757 36.523 67.887C37.159 68.193 38.1277 67.8797 38.9412 67.7413C39.2149 67.6975 39.4811 67.428 39.6881 67.2021C42.1508 64.5211 43.4228 61.2936 44.1179 58.2482Z" fill="#222222"/>
<path fill-rule="evenodd" clip-rule="evenodd" d="M56.9856 47.2329C56.3496 47.1454 55.8391 46.6354 55.9278 45.7175C56.0165 44.7995 56.6377 44.3697 57.54 44.4352C58.4866 44.5008 58.9377 45.1419 58.8859 46.0016C58.8341 46.9196 58.1907 47.313 56.9927 47.2329H56.9856Z" fill="#222222"/>
</svg>
