<svg width="120" height="100" viewBox="0 0 120 100" fill="none" xmlns="http://www.w3.org/2000/svg">
<path fill-rule="evenodd" clip-rule="evenodd" d="M90.9611 54.2421C93.5522 53.8878 95.5362 53.2245 96.7873 51.1591C96.8909 50.9857 96.9501 50.7219 97.0908 50.6616C97.6904 50.4054 98.3197 50.2094 98.9415 49.9983C99.0156 50.5787 99.3339 51.2722 99.1266 51.7094C98.0014 54.0989 95.9951 55.4255 93.5374 56.0964C92.4861 56.3828 91.4127 56.5713 90.3615 56.8653C90.1542 56.9256 89.9691 57.2196 89.8581 57.4457C88.7402 59.7297 86.7044 61.0036 84.639 62.1342C83.2546 62.888 81.9073 62.1644 80.7524 61.192C80.3971 60.8905 80.0417 60.5588 79.6345 60.3553C77.658 59.3603 77.3248 58.7799 77.4951 56.4808C77.5099 56.2849 77.4951 56.0889 77.4951 55.5989C76.0145 56.903 74.6894 58.0487 73.3938 59.2171C72.7202 59.8277 72.0983 60.4985 71.4394 61.1317C70.714 61.8252 69.907 62.0815 68.9669 61.5991C68.0489 61.1317 67.7083 60.3704 67.775 59.3377C67.923 56.9859 68.0267 54.6341 68.1673 52.041C67.7972 52.4255 67.5159 52.6968 67.2568 52.9908C66.3092 54.0386 65.4208 55.1542 64.4066 56.1341C62.7113 57.7774 60.9716 59.3829 59.1653 60.898C58.5879 61.3804 57.7143 61.7649 56.9962 61.7272C55.871 61.6744 55.2417 60.7473 55.2935 59.5488C55.3824 57.31 55.5452 55.0712 55.6785 52.84C55.6933 52.5536 55.6785 52.2597 55.412 51.8903C55.2417 52.1164 55.0492 52.3275 54.8938 52.5687C52.7617 55.9909 50.3928 59.2322 47.3723 61.893C46.5802 62.594 45.4994 63.0463 44.4778 63.378C43.012 63.8453 41.8497 63.0689 41.6795 61.5312C41.4944 59.8804 41.4944 58.1995 41.4055 56.5336C41.3907 56.2698 41.3315 56.006 41.2945 55.7421C41.1909 55.6894 41.0872 55.6366 40.9836 55.5914C39.3697 57.9507 37.6744 60.2648 36.1642 62.692C35.4313 63.8755 33.6176 64.8328 31.9297 64.5087C30.8415 64.3052 30.3159 63.3252 30.3011 61.5539C30.2863 60.2121 30.2641 58.8704 30.1604 57.5362C30.1382 57.212 29.7829 56.9105 29.583 56.5939C29.2721 56.8125 28.8871 56.9633 28.6724 57.2497C27.7026 58.5538 26.7995 59.9181 25.8371 61.2297C25.082 62.2624 24.0752 62.9709 22.7944 62.5111C21.4767 62.0438 20.9511 60.8453 20.8327 59.4884C20.7956 59.0512 20.7734 58.5839 20.8993 58.1769C21.9579 54.6265 23.1646 51.1214 25.3929 48.144C26.6218 46.5007 28.1468 45.1891 30.4269 45.2721C31.4707 45.3097 31.7891 44.36 32.1666 43.5534C33.1364 41.473 34.0692 39.3774 35.1278 37.3498C35.7941 36.0759 36.7195 35.0131 38.5628 35.5859C38.5036 35.9251 38.511 36.3171 38.3777 36.6412C37.2969 39.2418 36.3419 41.9177 35.039 44.3977C33.7879 46.7872 33.0328 49.2596 32.9291 51.9129C32.8181 54.815 32.8847 57.7321 32.9143 60.6418C32.9143 60.898 33.1882 61.3804 33.3067 61.3729C33.662 61.3503 34.1136 61.2297 34.3357 60.9734C35.3943 59.7448 36.4085 58.4633 37.4005 57.1743C37.8817 56.5487 38.2519 55.8326 38.7183 55.1919C40.0878 53.315 41.5684 51.5511 41.5314 48.943C41.5166 48.0384 42.1162 47.0209 42.6863 46.2369C43.1378 45.6188 43.93 45.1741 44.6555 44.865C45.0182 44.7143 45.5734 45.0534 46.0472 45.1665C45.9362 45.6037 45.8473 46.0485 45.7215 46.4781C45.2477 48.0686 44.4778 49.6289 44.3297 51.242C44.0854 53.9104 44.1743 56.6165 44.2483 59.3075C44.3001 61.0262 45.0256 61.3578 46.2989 60.2573C47.3649 59.3377 48.3643 58.2975 49.2009 57.1593C50.8295 54.9582 52.3398 52.6667 53.85 50.3902C54.3534 49.6365 54.8272 48.8224 55.1159 47.9631C55.375 47.1791 55.3602 46.2972 55.4638 45.4605C54.6495 45.4002 53.8352 45.3851 53.0356 45.2721C52.5618 45.2042 52.1103 44.9856 51.6439 44.8273C51.94 44.4203 52.1621 43.8248 52.5618 43.6364C53.1837 43.3424 53.924 43.2519 54.6199 43.1991C55.4268 43.1464 55.7747 42.6866 56.0412 41.9931C56.5224 40.7343 56.9888 39.4604 57.5885 38.2619C58.0845 37.2669 58.8914 36.5508 60.1129 36.6035C61.2085 36.6563 61.6231 37.101 61.4528 38.194C61.327 39.0156 61.1049 39.8297 60.8976 40.6438C60.5497 42.0157 60.9346 42.5283 62.282 42.4906C62.9778 42.4755 64.0069 42.0383 64.1697 43.0635C64.3252 44.0359 63.2443 44.1866 62.5411 44.4881C62.3634 44.5635 62.1561 44.5786 61.971 44.6314C59.528 45.2947 58.5212 46.7419 58.3806 49.4103C58.2547 51.7169 57.8994 54.016 57.7513 56.3226C57.7143 56.9482 58.0475 57.5965 58.2103 58.2372C58.7507 58.0864 59.4096 58.0789 59.8094 57.7472C60.7569 56.9859 61.5491 56.021 62.4744 55.2145C64.6879 53.2773 66.2426 50.8576 67.5455 48.242C67.7232 47.8877 67.8786 47.5184 67.9971 47.1339C68.5153 45.4907 67.8342 44.7218 66.1759 45.0761C66.0205 45.1062 65.865 45.2419 65.7317 45.2193C65.2135 45.1288 64.7027 44.9932 64.1919 44.8726C64.5325 44.4278 64.8656 43.968 65.2283 43.5384C65.3172 43.4328 65.5245 43.3725 65.6651 43.3876C68.1155 43.674 68.6559 41.8348 69.337 40.071C69.6923 39.1589 70.0921 38.1865 70.7362 37.4854C71.2026 36.9804 72.0835 36.709 72.8016 36.6487C73.6529 36.5809 74.2082 37.1086 73.9935 38.1111C73.8158 38.9327 73.6603 39.7543 73.4457 40.5609C73.0607 42.0232 73.4308 42.4755 74.8522 42.4906C75.4889 42.4981 76.6141 42.7092 76.6586 42.9881C76.8362 43.9982 75.8294 44.1489 75.1261 44.4505C74.9485 44.5258 74.7412 44.5409 74.5561 44.5937C72.0169 45.2872 71.0471 46.6665 70.899 49.448C70.7732 51.7169 70.4252 53.9707 70.2772 56.2396C70.2328 56.8728 70.5289 57.5361 70.6695 58.1844C71.247 58.0412 71.9503 58.0563 72.3722 57.7171C73.4383 56.8502 74.4525 55.8854 75.3556 54.8376C76.7918 53.1717 78.1021 51.3928 79.5087 49.6968C80.2638 48.7847 81.0485 47.8651 81.9517 47.1264C82.8178 46.4178 83.8691 46.1917 85.0461 46.4555C85.8679 46.6364 86.7562 46.4781 87.615 46.4932C89.9617 46.5309 90.5465 47.0058 91.0722 49.2973C91.1018 49.4104 91.124 49.5385 91.1832 49.6365C92.1086 51.0686 92.0568 52.5235 90.9833 54.227L90.9611 54.2421ZM23.9345 59.0663C24.0604 59.0965 24.1862 59.1266 24.3121 59.1643C24.6674 58.7648 25.0672 58.3879 25.3707 57.9507C26.3331 56.5939 27.4065 55.2899 28.169 53.8275C28.9611 52.3049 29.4793 50.6239 30.0198 48.9882C30.1234 48.6792 29.8865 48.0385 29.6274 47.8877C29.3905 47.7596 28.7909 47.9857 28.5392 48.2495C25.9703 50.9481 24.2232 54.0914 23.7494 57.8678C23.6976 58.2523 23.8679 58.6668 23.9345 59.0663ZM82.0775 51.4983C80.6117 52.7647 79.7382 55.7723 80.2342 57.2723C80.5969 58.3728 83.0843 59.9633 83.9283 59.4583C85.098 58.7573 86.1122 57.7849 87.4077 56.7597C84.1208 56.2547 82.3737 54.6944 82.0775 51.4983ZM87.3485 53.7597C88.5626 53.7446 89.2732 52.5536 89.2288 50.6089C89.1992 49.3048 88.4515 48.4606 87.3411 48.4606C86.1492 48.4606 84.7796 49.742 84.8166 50.8199C84.8759 52.6818 85.8234 53.7748 87.3559 53.7521L87.3485 53.7597Z" fill="#222222"/>
<path fill-rule="evenodd" clip-rule="evenodd" d="M47.7649 40.5076C47.0468 40.4699 46.3805 40.1156 46.2695 39.1659C46.188 38.4799 47.1208 37.7638 48.024 37.7789C48.7272 37.794 49.3787 37.9598 49.4157 38.8643C49.4527 39.7312 48.742 40.485 47.7649 40.5076Z" fill="#222222"/>
</svg>
