<svg width="240" height="140" viewBox="0 0 240 140" fill="none" xmlns="http://www.w3.org/2000/svg">
<path d="M177.065 119.221C167.839 119.221 160.331 111.713 160.331 102.497C160.331 93.281 167.839 85.7634 177.065 85.7634C186.291 85.7634 193.789 93.2709 193.789 102.497C193.789 111.723 186.281 119.221 177.065 119.221ZM177.095 87.693C175.085 87.693 174.985 89.0197 174.985 92.8488V112.125C174.985 116.045 175.075 117.281 177.095 117.281C179.115 117.281 179.145 116.125 179.145 112.125V92.8488C179.145 88.8488 179.055 87.693 177.095 87.693Z" fill="#222222"/>
<path d="M123.146 119.221C116.613 119.221 113.698 116.196 113.698 109.392V89.4922H110.402V86.5073H113.94L128.995 74.4068V86.5073H133.407V89.4922H128.995V111.563C128.995 113.693 129.226 114.045 129.739 114.045C130.583 114.045 132.101 111.723 132.101 107.08V106.708H133.97V107.08C133.97 115.13 130.332 119.211 123.146 119.211" fill="#222222"/>
<path d="M98.9749 84.0246C95.3267 84.0246 92.3518 81.0497 92.3518 77.4014C92.3518 73.7532 95.3267 70.7783 98.9749 70.7783C102.623 70.7783 105.598 73.7532 105.598 77.4014C105.598 81.0497 102.623 84.0246 98.9749 84.0246Z" fill="#222222"/>
<path d="M109.649 118.477H88.3121V115.492H91.2367V89.4923H88.3121V86.5074H106.664V115.492H109.649V118.477Z" fill="#222222"/>
<path d="M60.824 119.221C52.3516 119.221 46.2109 112.186 46.2109 102.487C46.2109 92.7888 52.1205 85.7637 60.2612 85.7637C63.0149 85.7637 65.1054 86.618 66.9144 88.5074V76.5074H64.0501V73.5225H82.4019V115.502H84.9546V118.487H66.9144V116.296C65.3868 118.316 63.4571 119.231 60.824 119.231M63.4371 88.3165C62.6129 88.3165 62.1908 88.819 62.1908 89.8039V114.99C62.1908 116.035 62.6531 116.608 63.4974 116.608C65.1958 116.608 66.9144 113.914 66.9144 108.779V95.5326C66.9144 90.829 64.8943 88.3165 63.4371 88.3165Z" fill="#222222"/>
<path d="M147.578 119.221C141.045 119.221 138.12 116.186 138.12 109.392V89.4922H134.824V86.5073H138.362L152.814 74.8993L153.417 74.4068V86.5073H157.829V89.4922H153.417V111.563C153.417 113.693 153.648 114.045 154.161 114.045C155.005 114.045 156.522 111.713 156.522 107.08V106.708H158.392V107.08C158.392 115.13 154.754 119.211 147.568 119.211" fill="#222222"/>
<path d="M126.301 53.9846H84.9545L85.7987 53.3012L125.678 21.2711L126.301 20.7686V53.9846Z" fill="#222222"/>
<path d="M167.649 53.9846H126.301L127.156 53.3012L167.025 21.2711L167.649 20.7686V53.9846Z" fill="#222222"/>
</svg>
