<svg width="120" height="100" viewBox="0 0 120 100" fill="none" xmlns="http://www.w3.org/2000/svg">
<path fill-rule="evenodd" clip-rule="evenodd" d="M46.2006 43.3834C47.0442 41.6297 48.5187 40.5039 50.4995 39.9627C50.6682 39.9194 50.7929 39.7101 50.9396 39.573C50.7635 39.5297 50.5802 39.4286 50.4114 39.4503C48.306 39.674 46.5674 40.6122 45.2102 42.1782C44.7994 42.6473 44.506 42.7122 43.9338 42.4668C41.0581 41.2472 38.087 40.5039 34.9253 41.0235C32.5191 41.4204 30.509 42.4668 29.416 44.7329C29.1152 45.3535 29.0418 46.0752 28.8658 46.7536V46.9051C28.9024 47.0206 28.9685 47.1433 28.9758 47.2587C29.1078 49.2938 30.2229 50.7732 31.7708 52.0001C33.5901 53.4434 35.7102 54.2878 37.9403 54.9084C38.5125 55.0672 39.0921 55.2187 39.7376 55.3919C39.3708 56.0559 39.0481 56.626 38.7546 57.2105C38.4832 57.7518 38.1311 57.8456 37.5222 57.7013C35.248 57.1744 32.9666 56.9868 30.7878 58.0765C30.1202 58.4085 29.5553 58.9425 28.8438 59.4621C30.4356 60.2487 31.9102 60.3786 33.392 60.4003C35.2627 60.4292 37.0453 60.1333 38.6299 59.0436C38.8353 58.9064 39.2608 58.9281 39.5175 59.0291C41.2268 59.7147 42.9434 60.3209 44.8141 60.4003C48.8195 60.5735 52.15 57.6074 52.3848 53.6816C52.5388 51.0619 51.5045 48.8608 49.8245 46.9484C48.7315 45.6999 47.455 44.6102 46.2079 43.3906L46.2006 43.3834ZM31.2426 59.491C33.15 57.8095 35.248 57.8456 37.4855 58.3147C36.4951 59.6931 33.2747 60.3065 31.2426 59.491ZM44.4693 48.2979C46.2373 49.2505 47.1763 51.2351 46.6114 52.8661C46.0685 54.4105 44.2419 55.1971 42.0484 54.8795C42.8701 52.6568 43.6697 50.4774 44.4766 48.2979H44.4693ZM32.1669 50.8238C30.7511 49.2217 30.487 47.3453 31.2059 45.3824C31.9542 43.3401 33.5608 42.1854 35.6735 41.7885C38.6886 41.2256 41.4836 42.0338 44.2492 43.3256C43.8091 44.3865 43.3763 45.4112 42.9361 46.4721C39.899 45.1587 36.8766 44.7545 33.8395 46.1979C33.8395 46.3061 33.8395 46.4216 33.8395 46.5298C34.1036 46.501 34.3824 46.5154 34.6318 46.4432C37.4048 45.5772 40.0531 45.9525 42.7894 47.1288C41.8944 49.6907 41.0141 52.2166 40.1118 54.7929C37.038 54.0785 34.2283 53.1475 32.1743 50.8165L32.1669 50.8238ZM50.7782 52.9382C50.6608 55.6445 49.3477 57.6652 46.7214 58.7044C44.9755 59.3972 43.1855 59.3539 41.3882 58.9064C40.7793 58.7549 40.1925 58.5312 39.5175 58.3147C40.1704 57.3909 40.7206 56.5755 41.3295 55.8033C41.4616 55.6373 41.7843 55.5723 42.0338 55.5363C42.9874 55.4064 43.9925 55.4641 44.8875 55.1826C47.257 54.4321 48.1666 52.1372 46.9562 49.9794C46.5234 49.2072 45.8558 48.5433 45.1882 47.9371C44.7847 47.569 44.6747 47.2804 44.8728 46.7969C45.2029 45.9669 45.5037 45.1226 45.8558 44.17C48.9809 46.3927 50.9469 49.1134 50.7782 52.9238V52.9382Z" fill="#222222"/>
<path fill-rule="evenodd" clip-rule="evenodd" d="M90.9572 52.31C90.8105 52.4977 90.6565 52.6853 90.5097 52.8729C89.5341 54.1286 88.5804 55.406 87.568 56.6328C87.1866 57.0947 86.7097 57.506 86.2035 57.8164C85.9835 57.9535 85.5286 57.838 85.2499 57.7081C85.1545 57.6648 85.1765 57.1669 85.2866 56.9504C85.8734 55.8029 86.2109 54.6194 86.1155 53.3276C85.9688 51.2853 84.2962 49.8852 82.2641 50.2028C79.7479 50.5997 78.1193 52.209 77.0116 54.3091C76.146 55.9472 75.0015 57.3256 73.6884 58.5958C73.3656 58.9061 72.9768 59.1803 72.5734 59.3752C71.7664 59.7576 71.2162 59.3896 71.3556 58.5308C71.495 57.672 71.7591 56.8277 72.0012 55.9833C72.4193 54.5183 72.8595 53.0678 73.2263 51.8049C73.8572 51.3141 74.8328 52.1007 75.0749 50.9316C74.4954 50.8956 74.0259 50.8667 73.5197 50.8378C73.9525 49.3007 74.356 47.8429 74.7741 46.3779C73.3803 46.2264 72.9915 46.4645 72.6247 47.612C72.412 48.2831 72.2066 48.9543 71.9938 49.6254C71.6197 50.8162 71.6197 50.8306 70.3359 50.8883C69.8737 50.91 69.6023 51.0399 69.7417 51.61H71.3629C71.1208 52.1657 70.9741 52.6492 70.7174 53.0606C70.2332 53.8328 69.7343 54.5977 69.1548 55.2905C68.1204 56.5318 67.0567 57.7514 65.9343 58.9133C65.5162 59.3535 64.8193 59.8515 64.2617 59.3463C63.9683 59.0793 64.0123 58.271 64.1444 57.7658C64.5772 56.0411 65.1641 54.3524 65.5822 52.6203C65.7803 51.8121 66.1177 51.4585 66.9614 51.6028C67.4015 51.675 67.7096 51.5378 67.6143 50.9316C67.1374 50.9028 66.6679 50.8811 66.1397 50.845C66.5652 49.3295 66.976 47.8646 67.3868 46.3996C66.1031 46.1831 65.6189 46.4429 65.2814 47.5037C65.032 48.2687 64.7459 49.0264 64.5772 49.8058C64.3938 50.6502 63.9976 51.0615 63.0733 50.8956C62.6331 50.8162 62.2297 50.9172 62.3544 51.6172H64.049C63.6749 52.3605 63.4548 53.0101 63.066 53.5369C61.6281 55.5215 60.2637 57.5782 58.2536 59.0721C57.8941 59.3391 57.1972 59.4978 56.8158 59.3463C56.2656 59.1298 56.4636 58.4875 56.6177 57.9968C57.3219 55.7957 58.0262 53.6018 58.7231 51.4007C58.8258 51.0832 58.8845 50.7584 58.9725 50.4193C57.454 50.3182 57.1972 50.477 56.7938 51.7183C56.559 52.4327 56.3022 53.14 56.0822 53.8616C55.6347 55.3266 55.0918 56.7699 54.791 58.2638C54.4756 59.8154 55.6493 60.7752 57.1679 60.2195C58.0262 59.902 58.8698 59.3824 59.5227 58.7473C60.7185 57.5854 61.7602 56.2792 62.9559 54.9369C62.7799 55.5648 62.6112 56.1132 62.4718 56.6689C62.3324 57.2318 62.193 57.7947 62.1123 58.3576C61.9142 59.8154 63.0366 60.8041 64.4818 60.4144C64.988 60.2772 65.5015 60.0463 65.9123 59.7288C66.5506 59.238 67.1521 58.6751 67.6803 58.0689C68.5679 57.0514 69.3822 55.9761 70.2258 54.9225C70.1598 55.507 69.9838 56.0555 69.8517 56.604C69.705 57.1885 69.5583 57.7731 69.4776 58.372C69.2869 59.7937 70.3872 60.7896 71.7884 60.4288C72.3166 60.2917 72.8595 60.0463 73.2849 59.7143C73.9452 59.202 74.5247 58.5958 75.1116 58.004C75.4931 57.6215 75.8305 57.1885 76.2267 56.7266C76.2854 57.1236 76.322 57.4267 76.3807 57.7153C76.7695 59.5844 78.178 60.7319 80.1074 60.5298C81.0097 60.436 81.8973 60.0391 82.7483 59.6638C83.2398 59.4473 83.636 59.0071 84.0688 58.6751C85.2132 59.3319 85.9468 59.2886 86.9665 58.1483C88.3163 56.6473 89.5194 55.0163 90.7518 53.4214C90.9646 53.14 91.0233 52.743 91.1553 52.3966C91.0893 52.3678 91.0159 52.3389 90.9499 52.31H90.9572ZM84.3622 53.1544C83.5846 54.4317 83.0051 55.738 83.3499 57.2823C83.3719 57.3761 83.3865 57.506 83.3499 57.5782C82.675 58.5958 81.9634 59.6061 80.6649 59.8875C79.7112 60.0968 78.941 59.6205 78.6475 58.6968C78.5008 58.2494 78.4641 57.7658 78.3981 57.405C78.6182 55.0091 79.4178 52.9884 81.1711 51.4296C82.4842 50.2533 83.9587 50.6069 84.4723 52.1946C84.5676 52.4832 84.531 52.9018 84.3696 53.1616L84.3622 53.1544Z" fill="#222222"/>
<path fill-rule="evenodd" clip-rule="evenodd" d="M59.3099 47.7996C59.5227 47.8574 60.0362 47.5976 60.0582 47.4244C60.1169 47.0347 60.0875 46.5151 59.8675 46.2264C59.618 45.9017 59.1119 45.7645 58.525 45.4398C58.3122 46.046 57.9088 46.6161 58.0041 47.0996C58.0628 47.4099 58.8258 47.6553 59.3099 47.7924V47.7996Z" fill="#222222"/>
</svg>
