<svg width="120" height="100" viewBox="0 0 120 100" fill="none" xmlns="http://www.w3.org/2000/svg">
<path d="M58.9339 46.1306C58.9339 45.4377 58.3745 44.9052 57.6362 44.8979C56.7262 44.8833 55.9207 45.6492 55.9356 46.5245C55.9431 47.305 56.5323 47.874 57.3154 47.8594C58.1806 47.8448 58.9339 47.0424 58.9339 46.1306Z" fill="#222222"/>
<path fill-rule="evenodd" clip-rule="evenodd" d="M96.1587 59.0853C94.9803 59.5448 93.884 59.4719 92.8249 58.5747C92.355 59.1655 91.9448 59.7782 91.4451 60.2961C90.1623 61.6237 88.8943 62.9658 87.522 64.1986C86.4853 65.1249 85.2174 65.7231 83.8003 65.993C81.4509 66.4379 79.5789 65.1614 79.3253 62.8345C79.2283 61.9155 79.3103 60.9745 79.3103 60.0335C78.751 60.5587 78.1692 61.1787 77.5129 61.7185C76.0659 62.9075 74.6116 64.0892 73.105 65.2052C72.6053 65.5699 71.949 65.7887 71.3299 65.9419C68.8538 66.54 67.2875 65.0301 67.8693 62.5719C68.1303 61.4778 68.5554 60.4201 68.8761 59.4354C67.3397 60.8432 65.7734 62.3531 64.1251 63.7755C62.9766 64.7675 61.7086 65.621 60.1722 65.9638C57.8079 66.489 56.2864 65.052 56.7414 62.7105C56.8532 62.1416 57.0322 61.5799 57.2262 61.0328C57.4126 60.5076 57.6438 59.997 57.8452 59.5156C57.3231 59.9898 56.7787 60.4931 56.2193 60.9818C54.7873 62.2364 53.4 63.5348 51.9084 64.7092C50.9388 65.4751 49.8051 66.0075 48.4775 65.9638C46.695 65.9127 45.524 64.6289 45.9118 62.9439C46.1878 61.7477 46.6726 60.6025 47.053 59.4937C45.7403 60.7192 44.4351 62.054 42.9957 63.2357C41.9142 64.1256 40.6984 64.8769 39.4678 65.5553C38.5206 66.0732 37.4317 66.1024 36.3577 65.8179C35.0077 65.4532 34.3216 64.4539 34.5975 63.119C34.7467 62.4042 35.0077 61.7185 35.2166 61.0255C34.3738 61.8279 33.5459 62.6814 32.6435 63.4546C31.3159 64.5998 29.8988 65.6282 28.1013 65.9784C25.4387 66.5036 23.589 64.8113 23.8426 62.1343C24.0887 59.574 25.4163 57.5316 27.072 55.6861C29.2424 53.279 31.6962 51.2147 34.963 50.354C35.8804 50.1133 36.8499 50.0039 37.7971 49.9601C39.0799 49.9017 40.0496 50.4488 40.5568 51.8056C40.8029 51.4481 41.0192 51.1564 41.2131 50.85C44.4426 45.6492 47.6571 40.4337 50.9164 35.2475C51.2446 34.7223 51.8413 34.3576 52.3186 33.9199H54.034C54.7947 34.2992 54.8395 34.4524 54.3323 35.2621C51.5504 39.7262 48.761 44.183 45.9715 48.6471C43.2567 53.0018 40.5344 57.3492 37.8344 61.7185C37.5212 62.2291 37.2676 62.8126 37.1185 63.3889C36.8425 64.4393 37.5958 65.1833 38.6027 64.7821C39.6021 64.3882 40.6014 63.8849 41.4219 63.2211C45.1287 60.2451 48.4775 56.9261 51.0656 52.9289C51.5727 52.1411 52.1918 51.4117 52.8406 50.726C53.4149 50.1279 54.213 49.9163 55.0483 49.982C55.9806 50.0549 56.182 50.3321 55.7941 51.1491C55.4212 51.9295 54.9886 52.6882 54.4964 53.3957C52.7735 55.8685 50.9835 58.3048 49.283 60.7921C48.7385 61.5872 48.2836 62.4698 47.9853 63.3743C47.59 64.5779 48.2463 65.1906 49.4695 64.7529C50.357 64.432 51.2893 64.0381 51.9755 63.4254C54.1384 61.4924 56.2044 59.45 58.2853 57.4295C61.015 54.7816 62.5515 51.3387 64.7144 48.1438H61.91C61.6788 48.1438 61.4103 48.2095 61.2164 48.1219C60.9852 48.0198 60.8137 47.7791 60.6198 47.5967C60.8137 47.4363 60.9926 47.1518 61.194 47.1372C62.4097 47.0715 63.6403 47.0934 64.8561 47.0205C65.1246 47.0059 65.49 46.8089 65.6317 46.5901C67.2129 44.1101 68.7568 41.6154 70.3082 39.1208C71.0316 37.9464 72.292 37.465 73.6271 37.8734C74.2685 38.0704 74.1641 38.4497 73.9105 38.88C73.1348 40.142 72.3592 41.4039 71.576 42.6585C70.8227 43.8693 70.062 45.0875 69.3161 46.3056C69.1893 46.5172 69.0775 46.736 68.9134 47.0424C71.3971 47.0424 73.7763 47.0497 76.1629 47.0205C76.3494 47.0205 76.603 46.7871 76.7223 46.6047C78.2886 44.1246 79.8399 41.63 81.3913 39.1353C82.1296 37.9464 83.3453 37.4722 84.7027 37.8734C85.4113 38.0777 85.2323 38.508 84.9712 38.9311C83.9793 40.5431 82.9798 42.1479 81.9879 43.7526C81.3315 44.8103 80.6827 45.868 79.9518 47.0424C81.1451 47.0424 82.2042 47.0424 83.2558 47.0424C83.4647 47.0424 83.6735 47.0497 83.8823 47.0424C84.3075 47.0132 84.6207 47.1445 84.6132 47.6113C84.6132 48.0563 84.2926 48.1146 83.9122 48.1073C82.5846 48.0927 81.257 48.0855 79.9368 48.1146C79.6982 48.1146 79.3477 48.2313 79.2358 48.4064C76.2972 52.958 73.381 57.517 70.4797 62.0832C70.2112 62.5063 70.0247 62.995 69.8755 63.4837C69.6443 64.2423 70.0247 64.8259 70.8227 64.7456C71.5387 64.6727 72.3517 64.4685 72.8962 64.0527C74.8279 62.5573 76.7298 61.0183 78.5123 59.3624C79.7803 58.1735 80.8393 56.773 81.9804 55.4527C84.3372 52.7465 87.0596 50.5874 90.7366 49.8726C91.3109 49.7631 91.9299 49.785 92.5191 49.8142C92.7801 49.8288 93.0338 50.0257 93.4365 50.2008C89.1703 51.0178 86.8955 54.0522 84.5461 56.9261C83.5169 58.1808 82.7711 59.6615 81.9506 61.0693C81.6971 61.4997 81.5404 62.003 81.4285 62.499C81.0183 64.2861 82.1968 65.3729 84.0166 64.9499C85.4859 64.607 86.7091 63.8193 87.7234 62.8127C89.1554 61.3903 90.4382 59.8147 91.7882 58.3121C92.0865 57.9765 92.1313 57.6775 91.9225 57.2252C91.3407 55.9779 91.3407 54.6503 91.7211 53.3519C91.8479 52.9289 92.1238 52.5204 92.4221 52.1848C92.8472 51.7034 93.5036 51.5138 94.0406 51.8274C94.4434 52.0609 94.9058 52.6298 94.8909 53.031C94.8536 53.9938 94.6149 54.964 94.324 55.8977C94.1152 56.5614 93.69 57.1669 93.3544 57.816C94.2121 58.6841 95.1966 58.458 96.1811 58.1881V59.0999L96.1587 59.0853ZM75.7751 48.1C73.284 48.1 70.9271 48.0855 68.5778 48.1219C68.3764 48.1219 68.1154 48.3991 67.9811 48.6034C65.6019 52.2359 63.2227 55.8685 60.8882 59.5302C60.1275 60.7265 59.4562 61.9957 58.8595 63.2868C58.412 64.2569 58.964 64.9572 60.0231 64.7456C60.7838 64.5925 61.567 64.2496 62.1935 63.8047C66.2583 60.9088 69.7189 57.4222 72.5158 53.3373C73.6495 51.6815 74.634 49.9309 75.7676 48.1H75.7751ZM28.5413 64.7821C28.9142 64.6216 29.6899 64.3809 30.3537 63.9797C32.7702 62.5136 34.6646 60.4931 36.4024 58.3267C37.6852 56.7292 38.9159 55.0953 39.5797 53.1331C39.7736 52.5496 39.9526 51.9223 39.438 51.419C38.8861 50.8719 38.1477 50.6749 37.4317 50.9521C36.5963 51.2658 35.7536 51.6451 35.0301 52.163C32.263 54.147 29.9584 56.5979 28.1311 59.4281C27.4375 60.5004 26.908 61.7112 26.5201 62.9294C26.177 64.0089 26.99 64.8186 28.5488 64.7894L28.5413 64.7821ZM92.7429 56.8897C93.5185 55.6496 94.0332 54.4753 93.9735 53.1404C93.966 52.9216 93.8094 52.5787 93.6602 52.535C93.4365 52.4766 93.1157 52.586 92.8995 52.7246C92.7279 52.834 92.616 53.0821 92.534 53.2863C92.079 54.4534 92.2208 55.5986 92.7429 56.8897Z" fill="#222222"/>
<path fill-rule="evenodd" clip-rule="evenodd" d="M58.9339 46.1306C58.9339 47.0424 58.1806 47.8448 57.3154 47.8594C56.5248 47.874 55.9431 47.305 55.9356 46.5245C55.9282 45.6492 56.7262 44.8833 57.6362 44.8979C58.3745 44.9125 58.9264 45.445 58.9339 46.1306Z" fill="#222222"/>
</svg>
