<svg width="120" height="100" viewBox="0 0 120 100" fill="none" xmlns="http://www.w3.org/2000/svg">
<path fill-rule="evenodd" clip-rule="evenodd" d="M60.7932 52.6898C59.1496 54.112 57.551 55.5861 55.8473 56.9416C53.6557 58.6897 51.4117 60.3712 49.1301 62.0082C48.4996 62.46 47.6816 62.7193 46.9085 62.9119C45.6702 63.223 45.0172 62.5786 45.1373 61.3119C45.2799 59.8231 45.9704 58.5638 46.8185 57.3712C47.2538 56.7639 47.7341 56.1935 48.1094 55.5046C47.6515 55.8898 47.2012 56.2898 46.7284 56.6601C44.4843 58.4305 42.2553 60.2156 39.9737 61.9341C39.3658 62.3934 38.6227 62.7193 37.8872 62.9563C36.8065 63.3045 36.2061 62.8008 36.2886 61.6897C36.3336 61.1267 36.4687 60.5786 36.5963 59.8305C36.2136 60.1638 35.9509 60.4156 35.6582 60.6304C34.8626 61.2156 34.0821 61.823 33.249 62.3415C32.7987 62.623 32.2583 62.823 31.7329 62.9489C30.0442 63.3711 29.0611 62.623 28.8884 60.9267C28.6032 58.2083 29.6915 56.1639 31.9206 54.6602C34.007 53.2528 36.3261 52.4158 38.8404 52.1936C40.4465 52.0528 40.7242 52.3417 40.9268 53.9343C42.0601 52.675 43.1484 51.4676 44.2291 50.2454C48.0043 45.9937 51.7719 41.7419 55.5546 37.4901C55.6671 37.3642 55.8172 37.179 55.9598 37.1642C56.9881 37.0753 58.0163 37.0161 59.2621 36.9346C55.4495 41.2382 51.7794 45.3566 48.1319 49.4973C44.4993 53.6232 40.7617 57.6675 37.2343 61.8823C37.3168 61.986 37.3994 62.0897 37.4819 62.1934C37.9773 61.9638 38.5252 61.8082 38.953 61.4897C40.9268 60.0082 42.8707 58.4897 44.8221 56.9787C46.6909 55.5342 48.5371 54.0528 50.436 52.6454C50.8112 52.3639 51.3741 52.2454 51.8695 52.2084C52.7026 52.1417 53.5432 52.1862 54.5789 52.1862C54.3012 52.5121 54.1286 52.7343 53.9334 52.9491C51.4867 55.6676 49.0325 58.386 46.5933 61.1119C46.3831 61.3415 46.2481 61.6304 46.0754 61.8971C46.143 61.986 46.203 62.0823 46.2706 62.1786C46.826 61.9786 47.4564 61.8823 47.9217 61.5564C50.0307 60.0897 52.1547 58.6305 54.1661 57.0305C56.9956 54.7861 59.7125 52.4084 62.4969 50.1047C62.9322 49.7492 63.4276 49.4603 64.043 49.0381C63.39 49.0084 62.9022 48.9788 62.3543 48.9566C62.662 48.3566 63.0523 48.0233 63.7053 48.1344C64.8611 48.327 65.6341 47.8677 66.3471 46.964C67.3828 45.6381 68.5687 44.4307 69.7245 43.1937C69.9196 42.9863 70.2348 42.816 70.5125 42.7863C71.4432 42.69 72.3888 42.6604 73.5146 42.5937C71.886 44.453 70.3399 46.2085 68.6962 48.0825H72.3063C72.0136 48.7195 71.6608 49.1047 71.0379 48.9862C68.6812 48.5418 67.1502 49.564 65.6941 51.3491C63.0598 54.5787 60.1553 57.6083 57.3858 60.7267C57.0781 61.0749 56.8605 61.4971 56.5978 61.8823C56.6578 61.9786 56.7104 62.0749 56.7704 62.1712C57.3333 62.06 57.9787 62.0971 58.4366 61.823C60.3729 60.6675 62.3618 59.5564 64.1256 58.1638C66.7824 56.075 69.2366 53.7491 71.8259 51.5714C72.8767 50.6899 74.0325 49.9343 75.2558 49.0381C74.6779 49.001 74.1901 48.9714 73.6422 48.9344C73.9799 48.3344 74.3927 47.9936 75.0457 48.1196C76.1865 48.3344 76.922 47.8455 77.62 46.9788C78.6707 45.6677 79.849 44.4455 80.9973 43.2085C81.1925 43.0011 81.5002 42.8011 81.7704 42.7715C82.7235 42.6678 83.6842 42.6456 84.8175 42.5789C83.1814 44.4381 81.6428 46.2011 79.9841 48.0899H83.6317C83.3014 48.7418 82.9037 49.0973 82.2357 48.9788C80.0292 48.5862 78.5431 49.4603 77.1396 51.1862C74.4978 54.4454 71.5707 57.4824 68.7788 60.623C68.4486 60.9934 68.1934 61.4304 67.9082 61.8378C67.9532 61.9341 68.0058 62.0304 68.0583 62.1267C68.5912 62.0452 69.1616 62.06 69.6494 61.8749C71.8184 61.0304 73.6347 59.6305 75.4284 58.2083C76.4266 57.4231 77.3498 56.5342 78.3029 55.6972C80.5095 53.7713 83.0088 52.4454 85.9658 52.1343C88.2399 51.8973 89.2681 53.1343 88.6302 55.312C88.42 56.0231 88.0748 56.6898 87.707 57.5787C88.3975 57.2675 88.9979 57.0601 89.5308 56.749C90.0562 56.4453 90.5215 56.0305 91.0469 55.6454C91.302 56.4083 91.1069 56.9046 90.4614 57.3268C89.5608 57.912 88.6077 58.2157 87.5344 58.3046C87.1216 58.3416 86.6413 58.5564 86.3486 58.8453C84.8775 60.2601 83.309 61.5267 81.4101 62.3415C80.7497 62.623 80.0292 62.8082 79.3162 62.9341C77.2747 63.2822 75.9688 62.0897 76.0964 60.0379C76.1189 59.7119 76.1564 59.386 76.194 58.912C75.3609 59.549 74.6629 60.1045 73.9349 60.6304C72.5615 61.623 71.158 62.5489 69.4468 62.9119C67.0226 63.4304 66.0319 62.46 66.9325 60.1934C67.4954 58.786 68.4185 57.4898 69.3192 56.2379C70.1898 55.0305 71.2405 53.9417 72.1111 52.6898C70.8803 53.7417 69.6794 54.8157 68.426 55.8379C66.0019 57.7935 63.5927 59.7712 61.0934 61.6304C59.9001 62.5193 58.4966 63.0526 56.9355 63.0156C55.6821 62.986 55.2243 62.4452 55.3669 61.1934C55.517 59.8675 56.1175 58.7194 56.9055 57.6898C58.1814 56.0231 59.5398 54.4231 60.8608 52.7935C60.8383 52.7565 60.8157 52.7195 60.8007 52.6824L60.7932 52.6898ZM78.8809 62.2082C79.4212 62.0378 79.9841 61.9119 80.4945 61.6749C82.8586 60.5786 84.7725 58.9194 86.3636 56.9046C86.904 56.2231 87.3768 55.4528 87.692 54.6528C88.1498 53.4898 87.4293 52.7639 86.206 53.0528C84.7349 53.3935 83.6017 54.3194 82.4909 55.2676C80.6821 56.8083 79.046 58.512 77.9277 60.623C77.4098 61.6008 77.7776 62.1341 78.8734 62.2156L78.8809 62.2082ZM38.6753 52.9343C38.3525 53.0602 37.7146 53.2306 37.1742 53.5565C34.3898 55.2083 32.2132 57.4749 30.5246 60.1934C30.2093 60.6971 29.6915 61.3341 30.2694 61.9563C30.8698 62.6008 31.5528 62.1712 32.1307 61.8601C35.0127 60.2897 37.3919 58.1564 39.3207 55.5417C39.6059 55.1565 39.8086 54.6898 39.9587 54.2306C40.2063 53.4898 39.786 52.9565 38.6753 52.9417V52.9343Z" fill="#222222"/>
<path fill-rule="evenodd" clip-rule="evenodd" d="M56.2375 46.1341C56.9205 46.1193 57.2583 46.4378 57.2583 47.1045C57.2583 47.9193 56.7479 48.4526 55.9824 48.4526C55.3219 48.4526 54.9992 48.1119 55.0067 47.4304C55.0067 46.6452 55.4795 46.1489 56.2375 46.1341Z" fill="#222222"/>
</svg>
