<svg width="120" height="100" viewBox="0 0 120 100" fill="none" xmlns="http://www.w3.org/2000/svg">
<path fill-rule="evenodd" clip-rule="evenodd" d="M30.0988 62.8873C29.087 63.5096 28.2983 64.0345 27.4725 64.4993C26.096 65.2791 25.3744 65.1816 24.117 64.2219C20.6722 61.6127 20.2407 58.1263 21.3418 54.2725C23.0754 48.2069 27.3906 44.6005 32.941 42.2237C33.6775 41.9088 34.1611 42.2013 34.5108 42.8311C34.7415 43.2359 34.9349 43.6558 35.2697 44.3081C35.6566 43.4984 35.9468 42.8835 36.2369 42.2612C37.2711 40.0344 38.2978 37.8076 39.3246 35.5733C39.6891 34.7711 39.9942 33.9688 41.1028 33.9238C42.2485 33.8788 43.0818 34.2162 43.6026 35.3109C43.7738 35.6633 44.1532 35.9482 44.488 36.1881C46.0802 37.3428 46.2588 38.115 45.4701 39.817C43.8333 43.3334 42.2262 46.8648 40.6564 50.4112C38.7219 54.7898 37.4869 59.3784 36.6833 64.0944C36.4081 65.7139 35.917 66.0214 34.3174 65.6015C33.8635 65.4815 33.3874 65.3841 32.9558 65.2116C31.8101 64.7543 30.4708 64.5443 30.0914 62.8948L30.0988 62.8873ZM33.1567 49.8564C30.8503 50.8236 28.1793 55.4646 28.0379 57.1366C27.9784 57.8639 28.4025 58.0663 29.02 57.7289C30.0691 57.1591 30.947 56.5443 31.2669 55.1797C31.6836 53.4328 32.4499 51.7758 33.1493 49.8564H33.1567Z" fill="#222222"/>
<path fill-rule="evenodd" clip-rule="evenodd" d="M99.1956 50.7182C99.2105 57.0238 94.8953 63.2844 89.3077 65.3312C87.0831 66.1485 85.0669 65.8486 83.1696 64.4465C79.7249 61.8973 78.6609 58.6733 79.963 54.5046C81.6444 49.1213 85.1115 45.2075 89.9178 42.4333C90.4163 42.1409 91.0115 41.976 91.5844 41.871C92.6707 41.6686 93.5337 41.9985 93.9132 43.1606C93.9355 43.2356 94.0024 43.2956 94.0248 43.3705C94.4489 44.99 95.1929 46.1522 97.1124 46.2871C98.474 46.3771 98.9129 47.5392 99.0543 48.7614C99.1361 49.4736 99.1584 50.1859 99.1956 50.7108V50.7182ZM86.3912 58.8982C89.211 57.9235 92.8492 51.8129 91.8225 49.9985C89.1589 52.3752 87.351 55.2319 86.3912 58.8982Z" fill="#222222"/>
<path fill-rule="evenodd" clip-rule="evenodd" d="M66.0124 43.5579C67.4781 43.9403 68.2891 44.7275 68.1626 46.2571C68.0658 47.4942 67.493 48.7463 66.8978 49.871C66.7118 50.2159 65.7296 50.3058 65.1568 50.2158C63.2372 49.9159 62.337 50.8906 61.8013 52.5626C61.3325 54.0322 60.7448 55.4642 60.2388 56.9338C59.5692 58.8906 59.6139 60.7726 60.9903 62.4445C61.5334 63.1118 61.459 63.6592 60.7448 64.124C60.715 64.1465 60.6853 64.1765 60.6555 64.199C57.2256 66.5608 56.9875 66.2534 54.2793 64.1015C52.0175 62.2946 51.3851 60.1577 52.3449 57.4661C52.9178 55.8616 53.3865 54.2121 54.0784 52.6601C54.9043 50.8231 55.6037 49.0237 55.1945 46.9544C54.9712 45.8447 55.5218 45.2074 56.556 44.975C57.4339 44.78 57.7762 44.2102 58.0886 43.4005C58.7285 41.736 59.4874 40.1165 60.2984 38.527C60.9977 37.1624 61.9873 36.87 63.3637 37.5673C64.45 38.1221 65.4916 38.7819 66.5555 39.3817C67.3293 39.8166 67.4632 40.3789 67.0689 41.1737C66.682 41.9384 66.3695 42.7407 66.0198 43.5504L66.0124 43.5579Z" fill="#222222"/>
<path fill-rule="evenodd" clip-rule="evenodd" d="M79.769 43.573C81.2272 43.9329 82.001 44.6152 81.9117 46.1522C81.8373 47.4268 81.2347 48.7089 80.6543 49.8861C80.4981 50.201 79.5606 50.2984 79.0175 50.216C77.031 49.9311 76.0489 50.8982 75.5058 52.6902C75.0594 54.1672 74.4567 55.5993 73.9582 57.0613C73.3035 58.9882 73.4151 60.8252 74.7543 62.4597C75.3123 63.1344 75.2007 63.6968 74.4939 64.1316C73.6234 64.6715 72.7752 65.3013 71.8303 65.6462C71.2872 65.8486 70.4316 65.7811 69.9629 65.4662C68.8245 64.7015 67.7681 63.7868 66.7785 62.8271C65.3798 61.4625 65.4467 59.7455 65.975 58.0435C66.5479 56.1916 67.1505 54.3397 67.902 52.5552C68.646 50.7858 69.39 49.0688 68.9585 47.0744C68.7129 45.9498 69.2189 45.2225 70.3274 44.9826C71.2054 44.7876 71.5402 44.2103 71.8527 43.4006C72.4925 41.7361 73.2514 40.1166 74.0624 38.5271C74.7469 37.1925 75.6992 36.8851 77.0161 37.5449C78.1842 38.1222 79.3002 38.8045 80.4237 39.4643C81.071 39.8467 81.2123 40.3715 80.8627 41.0838C80.4609 41.8861 80.1335 42.7258 79.769 43.573Z" fill="#222222"/>
<path fill-rule="evenodd" clip-rule="evenodd" d="M44.0643 66.0807C43.4096 65.5709 43.0078 65.226 42.5763 64.9261C42.0183 64.5362 41.4752 64.0788 40.8502 63.8389C39.7937 63.434 38.8562 61.7621 39.3175 60.6149C40.2773 58.2307 41.2817 55.8539 42.3829 53.5371C43.8337 50.4931 45.3812 47.5015 46.9139 44.5024C47.5165 43.3178 48.1341 43.0254 49.1682 43.8126C50.4703 44.8023 51.5937 46.0319 52.6948 47.2616C52.9329 47.524 52.8511 48.2662 52.68 48.6786C50.5075 53.912 48.3349 59.1379 46.0434 64.3188C45.7309 65.0161 44.8009 65.4434 44.0643 66.0732V66.0807Z" fill="#222222"/>
<path fill-rule="evenodd" clip-rule="evenodd" d="M57.2776 38.5419C56.102 40.3114 54.9488 42.1183 53.6989 43.8503C53.5575 44.0452 52.7168 43.9927 52.4043 43.7678C51.2064 42.8831 50.0532 41.9159 48.9744 40.8887C48.714 40.6413 48.6322 39.9515 48.7735 39.5841C49.3464 38.0321 49.9937 36.5101 50.6931 35.018C51.1469 34.0433 51.9728 34.0208 52.7763 34.5607C54.0486 35.4229 55.2911 36.3226 56.4964 37.2748C56.8014 37.5147 56.9353 37.9796 57.2776 38.5569V38.5419Z" fill="#222222"/>
</svg>
