<svg width="240" height="140" viewBox="0 0 240 140" fill="none" xmlns="http://www.w3.org/2000/svg">
<path d="M199.562 85.6428C199.562 85.6428 199.582 85.6629 199.582 85.6729H199.593C199.593 85.6729 199.562 85.6629 199.552 85.6428M199.593 85.6628C199.593 85.6628 199.542 85.6126 199.522 85.5925C199.311 85.3915 199.11 85.1905 198.909 85.0096C198.889 84.9895 198.869 84.9794 198.859 84.9694C198.638 84.7684 198.427 84.5875 198.236 84.4267C198.206 84.4066 198.185 84.3865 198.155 84.3664C197.934 84.1855 197.713 84.0146 197.502 83.8538L197.462 83.8237L197.442 83.8036C194.145 81.3613 190.226 80.0749 186.115 80.0749C181.995 80.0749 178.085 81.3613 174.788 83.8036L174.758 83.8237L174.718 83.8538C174.507 84.0146 174.286 84.1754 174.055 84.3664C174.055 84.3664 174.055 84.3764 174.045 84.3865C174.025 84.3965 174.015 84.4166 173.995 84.4267C173.794 84.5875 173.593 84.7684 173.381 84.9593C173.361 84.9794 173.341 84.9895 173.321 85.0096V85.0196C173.12 85.2005 172.919 85.3915 172.728 85.5925C172.708 85.6126 172.688 85.6327 172.668 85.6528C171.969 86.3513 170.698 87.9441 170.718 87.9242L153.733 109.361V81.2809H164.949C167.371 81.2809 169.331 79.3111 169.331 76.899C169.331 74.487 167.361 72.5171 164.949 72.5171H153.733V58.6679C153.733 58.3764 153.502 58.1453 153.211 58.1453C153.07 58.1453 152.939 58.2056 152.849 58.296L152.778 58.3764C152.778 58.3764 152.758 58.3965 152.748 58.4166L144.959 68.2357V72.5171H126.015V58.6679C126.015 58.3764 125.783 58.1453 125.492 58.1453C125.351 58.1453 125.221 58.2056 125.13 58.296L125.05 58.3965C125.05 58.3965 125.03 58.4166 125.03 58.4267L117.251 68.2458V72.5272H106.035C103.613 72.5272 101.653 74.497 101.653 76.9091C101.653 79.3211 103.623 81.291 106.035 81.291H117.251V85.4618L98.3161 109.361V89.9443C98.3161 87.5322 96.3463 85.5623 93.9342 85.5623C92.2659 85.5623 90.8186 86.497 90.0749 87.8639L72.9694 109.371V58.5774C72.9694 56.1654 70.9996 54.1955 68.5875 54.1955C66.1754 54.1955 64.2056 56.1654 64.2056 58.5774V83.1201C61.1604 81.1503 57.6026 80.1051 53.894 80.095C43.3714 80.095 34.8086 88.6578 34.8086 99.1804C34.8086 109.703 43.3714 118.266 53.894 118.266C58.1955 118.266 62.2558 116.859 65.5825 114.266C67.1403 116.708 69.8739 118.266 72.9091 118.266C75.5523 118.266 78.0247 117.08 79.683 115.02C79.683 115.02 79.683 115.03 79.6729 115.04L79.693 115.02H79.7031L79.7131 114.989L89.5624 102.557V110.648L89.6026 110.829C89.6026 110.879 89.7131 111.381 89.9342 112.035C90.1453 112.728 90.4367 113.402 90.8086 114.025L90.8689 114.125V114.145L90.899 114.165C90.9292 114.226 90.9694 114.276 90.9995 114.326C90.9995 114.326 91.0498 114.397 91.08 114.437C92.7081 116.819 95.4016 118.246 98.2759 118.246C100.929 118.246 103.392 117.06 105.05 115L105.07 114.969L117.291 99.5623V100.447C117.291 100.447 117.291 100.497 117.291 100.527V110.638L117.331 110.819C117.331 110.869 117.442 111.371 117.663 112.035C117.874 112.738 118.165 113.412 118.547 114.035C118.567 114.075 118.598 114.115 118.618 114.155C118.648 114.206 118.688 114.266 118.728 114.336C118.748 114.376 118.778 114.417 118.799 114.447C120.427 116.829 123.12 118.256 125.995 118.256C128.648 118.256 131.11 117.07 132.768 115.01C132.768 115.01 132.768 115.02 132.758 115.03L132.778 115.01L132.788 114.979L133.472 114.105L145 99.5724V110.648L145.04 110.829C145.05 110.879 145.15 111.371 145.371 112.035C145.582 112.738 145.874 113.412 146.256 114.035C146.256 114.035 146.256 114.025 146.246 114.015V114.035H146.266L146.296 114.095L146.316 114.125V114.145L146.336 114.165C146.376 114.226 146.407 114.276 146.447 114.336C146.467 114.376 146.487 114.407 146.507 114.437V114.447C148.135 116.829 150.819 118.256 153.693 118.256C156.336 118.256 158.809 117.07 160.467 115.01C160.467 115.01 160.467 115.02 160.457 115.03L160.477 115.01L160.487 114.979L168.115 105.361C169.03 108.005 170.517 110.447 172.477 112.467L172.547 112.537C172.708 112.698 172.879 112.859 173.02 112.989L173.09 113.05C173.09 113.05 173.18 113.13 173.221 113.17C173.391 113.331 173.562 113.482 173.703 113.603V113.613L173.763 113.663C173.763 113.663 173.854 113.743 173.904 113.783C174.085 113.934 174.276 114.085 174.407 114.196L174.447 114.226C174.507 114.266 174.557 114.316 174.618 114.356C174.809 114.497 174.989 114.628 175.15 114.738L175.221 114.788C175.271 114.829 175.331 114.869 175.381 114.909C175.552 115.03 175.743 115.15 175.904 115.251L175.964 115.281C176.025 115.321 176.085 115.361 176.155 115.402C176.346 115.512 176.527 115.623 176.708 115.723L176.768 115.763C176.829 115.804 176.899 115.844 176.969 115.874C177.16 115.984 177.341 116.075 177.522 116.165L177.603 116.206C177.673 116.246 177.743 116.276 177.814 116.316C177.954 116.386 178.095 116.447 178.246 116.517L178.346 116.557L178.447 116.608C178.517 116.638 178.587 116.668 178.658 116.698C178.829 116.768 179 116.839 179.18 116.909H179.211L179.271 116.949C179.361 116.989 179.452 117.02 179.542 117.06C179.713 117.12 179.894 117.18 180.075 117.241L180.185 117.281C180.266 117.311 180.346 117.331 180.427 117.361C180.598 117.412 180.758 117.462 180.929 117.512H180.979L181.08 117.552C181.16 117.572 181.251 117.603 181.331 117.623C181.492 117.663 181.653 117.703 181.804 117.733L181.894 117.753L181.995 117.773C182.095 117.794 182.185 117.824 182.286 117.834C182.427 117.864 182.577 117.894 182.728 117.914L182.829 117.934L182.939 117.954C183.03 117.974 183.13 117.984 183.221 118.005C183.381 118.025 183.532 118.045 183.693 118.065H183.783V118.075H183.864C183.964 118.105 184.075 118.115 184.175 118.125C184.336 118.145 184.507 118.155 184.668 118.165H184.799C184.799 118.165 184.879 118.185 184.909 118.185C184.989 118.185 185.08 118.196 185.16 118.206C185.492 118.226 185.824 118.236 186.145 118.236C186.467 118.236 186.809 118.236 187.14 118.206C187.221 118.206 187.301 118.196 187.381 118.185C187.412 118.185 187.452 118.185 187.482 118.185H187.623C187.783 118.165 187.944 118.155 188.105 118.135C188.216 118.125 188.316 118.105 188.417 118.095H188.507V118.085H188.618C188.778 118.055 188.939 118.035 189.09 118.015C189.18 117.995 189.281 117.984 189.381 117.964L189.492 117.944H189.572C189.733 117.904 189.884 117.874 190.035 117.844C190.125 117.824 190.206 117.804 190.286 117.783C190.326 117.783 190.366 117.763 190.407 117.753L190.527 117.723C190.668 117.693 190.809 117.663 190.939 117.623C191.02 117.603 191.09 117.582 191.17 117.552L191.291 117.522L191.361 117.502C191.522 117.462 191.683 117.412 191.834 117.361C191.914 117.331 191.995 117.311 192.065 117.281C192.095 117.271 192.135 117.261 192.175 117.241L192.246 117.221C192.407 117.17 192.567 117.11 192.728 117.05C192.819 117.02 192.919 116.979 193.01 116.939L193.07 116.909H193.1C193.271 116.829 193.442 116.768 193.613 116.688C193.683 116.658 193.753 116.628 193.824 116.598L193.914 116.557L193.944 116.537C194.115 116.457 194.296 116.376 194.467 116.296C194.537 116.266 194.598 116.236 194.658 116.196L194.748 116.145C194.929 116.055 195.11 115.964 195.301 115.854C195.371 115.814 195.432 115.783 195.502 115.743L195.572 115.703H195.603C195.773 115.592 195.944 115.492 196.115 115.381C196.175 115.341 196.246 115.301 196.316 115.251L196.366 115.221C196.537 115.11 196.708 115 196.889 114.879C196.949 114.839 197.02 114.788 197.08 114.748L197.13 114.708C197.281 114.608 197.462 114.477 197.653 114.326C197.653 114.326 197.653 114.326 197.643 114.326C197.703 114.276 197.763 114.236 197.824 114.185L197.874 114.145C198.035 114.015 198.206 113.884 198.366 113.743H198.376V113.723C198.417 113.693 198.447 113.663 198.487 113.633L198.557 113.562C198.758 113.391 198.919 113.251 199.06 113.12C199.13 113.06 199.19 113 199.261 112.929C199.442 112.758 199.593 112.618 199.723 112.477C199.753 112.447 199.773 112.427 199.794 112.407C203.271 108.829 205.191 104.105 205.191 99.1101C205.191 94.0146 203.201 89.2206 199.593 85.6126M61.1202 106.457C59.1704 108.407 56.5774 109.472 53.8237 109.472C51.0699 109.472 48.4769 108.397 46.5272 106.447C44.5774 104.497 43.5121 101.904 43.5021 99.1503C43.5021 96.3965 44.5774 93.8036 46.5272 91.8538C48.4769 89.9041 51.0699 88.8387 53.8237 88.8287C56.5774 88.8287 59.1704 89.9041 61.1202 91.8538C63.0699 93.8036 64.1352 96.3965 64.1453 99.1503C64.1453 101.904 63.0699 104.497 61.1202 106.447M125.995 109.341V81.2608H144.939V80.2156V85.4317L125.995 109.341ZM193.392 106.457C191.442 108.407 188.849 109.472 186.095 109.472C183.341 109.472 180.748 108.397 178.799 106.447C176.849 104.497 175.773 101.904 175.773 99.1503C175.773 96.3965 176.849 93.8036 178.799 91.8538C180.748 89.9041 183.341 88.8387 186.095 88.8287C188.849 88.8287 191.442 89.9041 193.392 91.8538C195.341 93.8036 196.407 96.3965 196.407 99.1503C196.407 101.904 195.331 104.497 193.381 106.447" fill="#222222"/>
<path d="M93.8839 81.2608C96.296 81.2608 98.2658 79.291 98.2658 76.8789C98.2658 74.4668 96.296 72.497 93.8839 72.497C91.4718 72.497 89.502 74.4668 89.502 76.8789C89.502 79.291 91.4718 81.2608 93.8839 81.2608Z" fill="#222222"/>
<path d="M117.441 21.7434C111.22 21.7434 106.155 26.7987 106.155 33.0299V61.8842C106.155 62.6279 106.758 63.2309 107.501 63.2309C107.863 63.2309 108.195 63.0801 108.446 62.8389L108.637 62.5877C108.637 62.5877 108.677 62.5374 108.687 62.5173L109.994 60.8791L119.26 49.1806L128.707 37.1203V33.0198C128.707 26.7987 123.642 21.7334 117.421 21.7334" fill="#222222"/>
<path d="M144.708 21.7434C138.487 21.7434 133.422 26.7987 133.422 33.0299V61.8842C133.422 62.6279 134.025 63.2309 134.769 63.2309C135.13 63.2309 135.462 63.0801 135.713 62.8389L135.914 62.5877C135.914 62.5877 135.954 62.5374 135.964 62.5173L137.271 60.8791L146.537 49.1806L155.995 37.1203V33.0198C155.995 26.7987 150.929 21.7334 144.708 21.7334" fill="#222222"/>
</svg>
