<svg width="120" height="100" viewBox="0 0 120 100" fill="none" xmlns="http://www.w3.org/2000/svg">
<path fill-rule="evenodd" clip-rule="evenodd" d="M38.684 48.0377C38.974 45.2113 39.2492 42.4868 39.5317 39.7624C39.6879 38.2981 39.8366 36.8412 40.0151 35.3843C40.1341 34.4373 42.7143 33.0095 43.5249 33.5267C43.9264 33.7817 44.2462 34.4883 44.2313 34.9763C44.1123 38.2981 44.1347 41.6491 43.6513 44.9272C43.1011 48.6933 41.8889 52.3648 41.3312 56.131C41.004 58.3455 41.3461 60.6693 41.4874 62.9348C41.5395 63.7361 42.2087 63.9183 42.8928 63.5249C43.3241 63.2772 43.7628 62.9494 44.0305 62.5487C44.9377 61.2084 45.6144 59.8534 45.6814 58.1051C45.7855 55.3369 46.3357 52.5906 46.6778 49.837C46.7893 48.9192 47.5478 48.7516 48.2096 48.6642C48.9829 48.5622 49.8009 48.6351 50.5668 48.7953C50.7156 48.8245 50.8122 49.6185 50.7453 50.0337C50.1727 53.4575 49.5407 56.874 48.9755 60.2978C48.8714 60.9316 48.9384 61.6163 49.035 62.2646C49.2507 63.6633 50.3958 64.1732 51.541 63.3136C52.7754 62.3885 53.5413 61.0918 53.69 59.5766C54.1436 55.0455 54.5228 50.4999 54.9244 45.9616C54.9467 45.7358 54.9244 45.5027 54.9244 45.0146C53.5041 45.153 52.0912 45.2258 50.7007 45.4444C49.5555 45.6265 48.4252 45.5464 47.8452 44.5848C47.4734 43.9656 47.4363 42.9385 47.6668 42.2318C48.0088 41.1829 49.0201 40.855 50.1653 40.8915C51.5781 40.9352 52.2846 41.7365 52.6415 42.9312H55.3557C55.6234 41.212 55.8985 39.5438 56.1439 37.8683C56.3595 36.4114 58.8952 34.9982 60.2188 35.6975C60.546 35.8723 60.784 36.5935 60.7245 37.016C60.4865 38.6187 60.1073 40.1994 59.7875 41.7875C59.7206 42.1153 59.7057 42.4577 59.6537 42.8875H65.0597C65.32 41.314 65.61 39.6968 65.8405 38.065C66.071 36.477 68.339 35.0638 69.8783 35.6174C70.5773 35.8724 70.6219 36.3896 70.4806 37.0452C70.0716 38.9246 69.7147 40.8186 69.2983 42.8802H71.1498C71.7001 42.8802 72.2652 42.8292 72.8081 42.8948C73.3955 42.9676 74.1986 42.8802 74.1243 43.8345C74.0573 44.7159 73.3658 44.6285 72.7337 44.6576C71.5142 44.7086 70.2947 44.796 68.919 44.8762C68.5695 46.996 68.1085 49.1086 67.8929 51.243C67.521 54.8489 67.2682 58.4766 67.0451 62.0971C66.9856 63.0805 67.0154 64.3116 68.1308 64.7123C69.2388 65.1057 70.1683 64.3189 70.897 63.5322C72.1983 62.1335 73.1353 60.6329 72.9865 58.5713C72.8006 55.9561 73.3063 53.3992 74.6076 51.0681C75.5148 49.4437 76.6525 48.0159 78.7272 47.739C78.9131 47.7172 79.1064 47.6152 79.2551 47.4987C81.2852 45.9106 84.3414 47.1199 85.1371 49.4582C85.6502 50.9662 85.7542 52.6052 86.0591 54.2734C86.9663 54.1058 87.8066 53.4429 88.3197 52.5542C88.9517 51.4615 89.3087 50.2231 89.8441 49.0794C89.9928 48.7662 90.3572 48.5549 90.6174 48.3C90.8033 48.6351 91.19 48.9847 91.1528 49.298C90.8107 52.2555 89.4202 54.6085 86.6168 55.8979C85.7542 56.2912 85.5758 56.8376 85.2784 57.5515C84.4976 59.3872 83.8581 61.3613 82.6906 62.9421C79.8054 66.8467 76.5856 66.7957 73.6186 63.0295C73.0312 63.6414 72.4809 64.2898 71.8488 64.8507C68.6885 67.648 65.5728 67.0215 63.7733 63.1825C63.0594 63.8746 62.4125 64.5957 61.6689 65.2222C59.2819 67.2182 55.4523 67.3785 54.1138 63.2335C52.9017 64.501 51.6674 65.6884 49.8009 65.8341C47.585 66.0089 46.8265 64.4646 46.1721 63.015C45.1831 63.7944 44.2834 64.7414 43.1828 65.3388C41.019 66.5116 39.554 65.8487 38.8402 63.5613C38.7286 63.1898 38.632 62.8183 38.7435 62.6799C37.8735 63.3938 37.0258 64.1368 36.1334 64.8143C33.806 66.5699 31.5231 66.0891 30.1325 63.5759C27.9612 59.6495 28.6156 52.6125 31.4785 49.1304C33.33 46.8722 35.1073 46.5881 38.684 48.0377ZM59.3117 44.8033C59.2001 45.1894 59.096 45.4444 59.0514 45.7066C58.4788 49.684 57.8021 53.6469 57.3931 57.6389C57.1924 59.613 57.3708 61.6527 57.5865 63.6342C57.7203 64.807 58.4342 65.0401 59.5942 64.6249C61.4011 63.9765 63.3569 61.019 63.4387 59.0157C63.5353 56.5098 63.7063 54.0038 63.9294 51.4979C64.1153 49.3927 64.4277 47.302 64.6879 45.2331C62.8661 45.0874 61.1335 44.949 59.3117 44.8033ZM32.9359 59.3071C33.04 60.0283 33.1219 61.2302 33.4267 62.3812C33.7762 63.7361 34.8396 63.9255 35.7468 62.8255C36.1855 62.2938 36.5127 61.6527 36.7804 61.019C38.1932 57.6316 38.3271 54.0257 38.5353 50.4416C38.5502 50.2158 38.2304 49.8443 37.9776 49.7496C36.3789 49.145 35.3378 49.5384 34.557 51.0463C33.3003 53.4866 33.1218 56.1601 32.9359 59.2998V59.3071ZM77.4184 52.8747C76.5335 56.2184 76.3476 59.5183 77.8646 62.7017C78.6156 64.2898 79.85 64.3335 80.7572 62.8328C81.9172 60.9024 82.1775 58.7243 82.4378 56.5535C80.1921 55.9926 78.3331 55.0966 77.4259 52.8747H77.4184ZM82.3783 53.9237C82.5567 53.8654 82.7352 53.8072 82.9062 53.7416C82.5419 52.3575 82.2221 50.9516 81.7611 49.5966C81.6496 49.2688 81.0695 49.0867 80.7052 48.8317C80.549 49.2033 80.2739 49.5675 80.259 49.939C80.1995 51.6582 81.0175 52.9403 82.3708 53.9164L82.3783 53.9237Z" fill="#222222"/>
</svg>
