<svg width="120" height="100" viewBox="0 0 120 100" fill="none" xmlns="http://www.w3.org/2000/svg">
<path fill-rule="evenodd" clip-rule="evenodd" d="M95.7726 47.462C93.3594 47.4841 90.9535 47.6835 88.5403 47.6835C86.2525 47.6835 83.9721 47.4989 81.6843 47.3956C81.5294 47.3882 81.3818 47.3586 81.2342 47.3144C80.1862 47.0191 80.0755 46.5687 80.7692 45.7419C81.5663 44.8043 82.3042 43.8077 83.0865 42.8553C83.9352 41.8292 84.8503 40.8547 85.6474 39.7842C86.3927 38.7876 87.0791 37.7245 87.6916 36.6393C88.0385 36.0339 87.758 35.7091 87.0569 35.6353C85.9942 35.5246 85.1455 35.8863 84.474 36.7058C83.736 37.599 82.9611 38.4628 82.2821 39.393C81.2711 40.7809 80.3412 42.2278 79.3449 43.6231C78.5995 44.6714 77.8246 45.6902 77.035 46.7016C76.5405 47.3291 75.8468 47.5506 75.0498 47.5432C73.4336 47.5284 71.81 47.558 70.1864 47.5137C69.5001 47.4989 68.799 47.4177 68.1348 47.2405C67.2123 46.9969 67.1311 46.5244 67.7436 45.8009C68.5333 44.856 69.286 43.8815 70.0683 42.9292C70.9318 41.8809 71.8616 40.8842 72.6734 39.799C73.4336 38.7802 74.1051 37.6876 74.7546 36.5876C75.0719 36.0487 74.7767 35.7239 74.1789 35.6501C73.0941 35.5172 72.2085 35.8568 71.5148 36.6984C70.762 37.6138 69.965 38.4923 69.2713 39.4446C68.275 40.8104 67.3599 42.2352 66.3857 43.6157C65.7068 44.5828 65.0057 45.5278 64.2898 46.4727C63.6847 47.27 62.8655 47.5506 61.8618 47.558C58.4671 47.5727 55.0797 47.6392 51.6849 47.7056C51.3012 47.7056 50.9026 47.7351 50.5484 47.8606C50.2975 47.9492 50.113 48.215 49.9063 48.3996C50.1204 48.621 50.3196 48.8573 50.5558 49.0492C50.637 49.1157 50.8067 49.0788 50.9322 49.0861C53.065 49.1304 55.1978 49.2264 57.3306 49.2116C58.5999 49.2043 59.8471 48.8204 61.146 49.2116C62.0906 49.4922 62.2308 49.5438 61.6109 50.3633C60.0464 52.4304 58.5704 54.6082 56.7475 56.4243C54.6664 58.4988 52.2753 60.278 49.9506 62.1014C48.7034 63.0833 47.3455 63.9323 45.9802 64.7296C45.5891 64.9584 44.9766 64.796 44.46 64.8108C44.4969 64.3531 44.4673 63.8732 44.5854 63.4376C44.6961 63.0242 44.9101 62.6256 45.1463 62.2638C45.9359 61.031 46.733 59.8055 47.5669 58.6021C48.0761 57.8639 48.696 57.1995 49.1905 56.4538C49.53 55.9371 49.5078 55.3612 48.9986 54.9183C48.4894 54.4753 47.9211 54.431 47.3898 54.8666C47.0134 55.1693 46.6592 55.5163 46.364 55.9001C44.9323 57.7753 43.6555 59.7833 41.6334 61.1343C39.8254 62.345 38.0616 63.6296 36.2535 64.8403C35.7221 65.1947 35.0874 65.2906 34.5635 64.7443C34.0174 64.1833 33.8993 63.5262 34.2683 62.8397C34.6889 62.0497 35.1022 61.2377 35.6409 60.529C37.0653 58.6464 38.4158 56.6679 40.0615 54.9921C42.0024 53.0136 43.0135 50.4076 44.8732 48.4291C46.2459 46.9674 47.257 45.2842 48.2311 43.5641C48.9691 42.2721 49.7661 41.0097 50.541 39.7473C51.6406 37.9534 52.755 36.1668 53.8546 34.3803C53.9579 34.2031 54.1424 33.989 54.1055 33.834C53.9801 33.236 53.9136 32.542 53.5594 32.1065C53.1683 31.6266 52.6664 32.136 52.3048 32.4313C50.4303 33.9742 48.7034 35.6574 47.6628 37.9165C47.471 38.3373 47.22 38.7286 46.9691 39.1124C43.6334 44.2949 40.2977 49.4774 36.9546 54.6525C36.0616 56.033 35.8107 56.0773 34.652 54.9183C33.8181 54.0841 32.8661 53.8626 31.8403 54.2982C30.4307 54.8961 29.0211 55.5384 27.7075 56.321C24.9769 57.9525 22.7113 60.0934 21.0951 62.8692C20.9401 63.135 20.7999 63.4081 20.6744 63.6886C19.6855 65.9624 20.7113 67.5718 23.1984 67.8007C25.4345 68.0074 27.3016 67.1289 29.1318 66.0363C29.5746 65.7705 30.0469 65.549 30.5193 65.3054C31.1244 67.1141 32.0395 67.6383 33.8329 67.343C35.5155 67.0698 36.8734 66.1618 38.1944 65.1651C39.1612 64.4343 40.1279 63.7034 41.1021 62.9725C40.8216 63.6148 40.4748 64.1833 40.1206 64.7443C39.6704 65.4752 39.5154 66.2356 40.0394 66.9812C40.5634 67.7269 41.2866 68.096 42.2312 67.9631C44.15 67.6973 45.7736 66.7745 47.2791 65.6302C49.161 64.198 51.006 62.7289 52.8805 61.2893C53.2495 61.0088 53.6627 60.7947 54.0539 60.5511C54.0981 60.6102 54.1498 60.6618 54.1941 60.7209C54.076 60.935 53.9653 61.1491 53.8398 61.3632C53.2864 62.3155 52.7107 63.2605 52.1794 64.2202C51.7292 65.0323 51.5594 65.8812 52.2384 66.6564C52.969 67.498 53.8767 67.9631 55.0354 67.749C57.3527 67.3208 59.4191 66.302 61.2936 64.9363C62.9688 63.7108 64.5481 62.345 66.1791 61.0531C66.4374 60.8538 66.7547 60.7209 67.0425 60.5659C66.4669 61.8873 65.788 63.0538 65.1311 64.2423C64.681 65.0618 64.5334 65.9108 65.2123 66.6785C65.9282 67.4906 66.8212 67.9631 67.9429 67.7564C68.4964 67.653 69.0499 67.5423 69.5812 67.3577C71.6107 66.6564 73.4483 65.6081 75.1531 64.3088C75.3819 64.1316 75.618 63.9618 75.928 63.7329C75.404 66.6712 76.9686 68.3987 79.7951 68.0443C80.6364 67.9409 81.4851 67.594 82.2452 67.1953C83.8319 66.3685 85.2119 65.2611 86.2525 63.7699C86.9019 62.8397 86.9167 62.884 87.913 63.4672C89.0052 64.1021 90.1713 64.2497 91.2561 63.5041C92.6731 62.5296 94.0383 61.4813 95.4036 60.4404C95.7431 60.182 96.0309 59.835 96.2966 59.488C96.3925 59.3625 96.3483 59.1263 96.3704 58.9417C96.1859 58.9417 95.9571 58.8753 95.8169 58.9565C95.4036 59.2075 95.0199 59.5102 94.6287 59.8055C93.7874 60.4404 92.9682 61.1122 92.0974 61.6954C91.6841 61.9759 91.1602 62.2417 90.6879 62.2417C90.2082 62.2417 89.6694 61.9907 89.293 61.688C89.175 61.592 89.4702 60.9498 89.6178 60.5732C89.7432 60.2706 90.0827 59.9827 90.0679 59.7021C90.0163 58.2404 90.4296 56.7196 89.2045 55.4277C88.1861 54.3572 87.603 54.0398 86.282 54.719C83.8836 55.9518 81.6548 57.4062 79.5884 59.2001C77.2121 61.2598 74.5627 63.0095 71.9871 64.8329C71.441 65.2168 70.7325 65.4383 70.0683 65.5859C69.0499 65.8074 68.4669 65.1504 68.7695 64.1537C68.9097 63.696 69.1753 63.2752 69.4041 62.847C70.0093 61.7544 70.6366 60.6692 71.2417 59.5692C71.4926 59.1189 71.655 58.6169 71.9502 58.2109C73.8616 55.5679 75.8247 52.9619 77.7139 50.3042C78.4224 49.3076 79.3375 49.0861 80.4593 49.1452C81.4851 49.1969 82.5109 49.1821 83.5367 49.16C86.5403 49.0935 89.544 48.9828 92.5476 48.9459C93.9276 48.9311 95.3151 49.0714 96.6951 49.0788C97.6988 49.0788 98.6951 48.9902 99.6987 48.9385V47.7056C98.3704 47.6244 97.0494 47.4546 95.721 47.4694L95.7726 47.462ZM26.9474 65.6598C26.047 66.1618 25.1762 65.5564 25.1762 64.3752C25.1983 64.2866 25.2205 64.043 25.3312 63.8511C26.5267 61.7397 27.4418 59.429 29.3016 57.7827C30.1207 57.0518 31.1761 56.5793 32.1502 56.0478C32.748 55.723 33.3015 55.9592 33.7517 56.4169C34.224 56.9042 34.3125 57.48 34.069 58.1223C32.7332 61.6216 30.106 63.9027 26.9474 65.6671V65.6598ZM80.6807 63.9027C80.8283 63.2383 81.0644 62.5444 81.4334 61.9833C82.4076 60.5068 83.4555 59.082 84.5256 57.6793C84.9979 57.0592 85.64 56.6015 86.4961 56.6458C87.1602 56.6827 87.2709 56.9263 87.0422 57.5317C86.7912 58.1813 86.6437 58.8679 86.533 59.2296C86.7839 60.5142 86.5551 61.3484 85.9426 62.035C85.1308 62.9504 84.2821 63.8511 83.4039 64.7C83.1013 64.988 82.6659 65.1725 82.26 65.3054C81.3006 65.6229 80.4519 64.892 80.6733 63.9101L80.6807 63.9027ZM74.7546 50.0606C74.1125 51.0203 73.4557 51.9727 72.762 52.8955C69.0868 57.7532 64.3784 61.4518 59.2862 64.7C58.5925 65.143 57.7512 65.4088 56.9394 65.5859C56.135 65.7557 55.5889 65.1356 55.7955 64.3309C55.9284 63.7994 56.2383 63.3048 56.504 62.8101C57.087 61.7323 57.7069 60.6766 58.2973 59.6061C58.5556 59.1337 58.7327 58.6095 59.0427 58.1813C60.9836 55.5015 62.9688 52.8512 64.9097 50.1714C65.4337 49.4479 66.0758 49.1452 66.9466 49.1969C67.5075 49.2338 68.0757 49.1969 68.644 49.1969C68.644 49.2264 68.644 49.2559 68.644 49.2855C69.9207 49.2116 71.2048 49.1009 72.4816 49.0788C73.1679 49.064 73.8616 49.16 74.5406 49.2633C75.1457 49.3519 74.9612 49.7579 74.7546 50.0606Z" fill="#222222"/>
<path fill-rule="evenodd" clip-rule="evenodd" d="M59.183 40.7735C60.7992 40.2863 61.6553 39.0534 62.0612 37.4736C62.1866 36.9863 61.9578 36.6024 61.4929 36.4326C61.1387 36.3071 60.7549 36.2628 60.194 36.1447C59.8324 36.2998 59.1977 36.381 58.9247 36.7427C58.349 37.4736 57.8767 38.3226 57.552 39.1937C57.4118 39.5776 57.5815 40.2641 57.8694 40.5668C58.1203 40.8252 58.7845 40.8916 59.1904 40.7661L59.183 40.7735Z" fill="#222222"/>
</svg>
