<svg width="120" height="100" viewBox="0 0 120 100" fill="none" xmlns="http://www.w3.org/2000/svg">
<path fill-rule="evenodd" clip-rule="evenodd" d="M97.9627 54.75C97.83 54.6698 97.358 54.9471 97.1589 55.1587C96.0454 56.3993 94.9466 57.6471 93.28 58.1871C92.3655 58.4863 91.4732 58.5447 90.6989 57.7785C91.0529 57.0779 91.5027 56.4357 91.724 55.7206C92.0042 54.8157 92.1959 53.8597 92.218 52.9184C92.2254 52.5316 91.7608 51.9332 91.3847 51.8019C90.9644 51.6559 90.2933 51.8019 89.9098 52.0719C89.5116 52.3492 89.2093 52.8965 89.0692 53.3854C88.6931 54.6844 88.752 55.9906 89.2904 57.2604C89.3862 57.4793 89.4305 57.8368 89.3125 58.0047C87.6606 60.4566 85.758 62.6896 83.1549 64.2075C82.4322 64.6308 81.5472 64.9008 80.7065 64.9883C79.5414 65.1051 78.7744 64.317 78.8629 63.164C78.9145 62.4488 79.1137 61.7118 79.416 61.055C80.6623 58.3112 82.4985 55.9614 84.6297 53.8379C86.3037 52.1667 88.0072 50.4883 90.6252 50.1672C90.2638 49.9556 89.8877 49.7732 89.5042 49.7586C87.0781 49.6856 85.0427 50.7364 83.1032 52.0281C80.854 53.5314 79.2685 55.6841 77.4839 57.6471C75.3527 59.9969 73.133 62.2664 70.4192 63.974C69.8292 64.3462 69.1287 64.6308 68.4428 64.7329C67.5063 64.8716 67.0417 64.2294 67.3883 63.3391C67.7201 62.4926 68.111 61.6534 68.5977 60.8872C71.2009 56.7495 73.8409 52.6265 76.4957 48.5253C76.6432 48.2918 77.0488 48.1021 77.3438 48.0948C78.6048 48.051 79.8658 48.0729 81.1195 48.0802C81.4882 48.0802 81.8864 48.1167 81.9012 47.5985C81.9233 47.0585 81.5472 47.0074 81.1195 47.0147C79.8953 47.0293 78.6638 47.0147 77.329 47.0147C77.4986 46.7083 77.6166 46.4893 77.742 46.285C79.18 43.9425 80.618 41.6 82.0487 39.2503C82.1814 39.0313 82.3805 38.8051 82.3805 38.5789C82.3805 38.3381 82.2478 37.9659 82.0708 37.8857C80.9351 37.3967 79.475 37.9075 78.8187 38.973C77.27 41.4833 75.7066 43.9936 74.1728 46.5185C73.9442 46.8907 73.7008 47.0366 73.2583 47.0293C71.1271 47.0074 68.9959 47.0147 66.8573 47.0147C66.7246 47.0147 66.5845 46.9783 66.3706 46.9491C67.9635 44.3512 69.5047 41.8409 71.046 39.3232C71.1935 39.0824 71.4 38.8416 71.4221 38.5862C71.4369 38.3527 71.2967 37.9659 71.1198 37.8929C69.9988 37.3967 68.5166 37.9148 67.8602 38.973C66.3116 41.4833 64.7556 43.9936 63.2143 46.5185C62.9931 46.8834 62.7497 47.0439 62.3073 47.0366C61.2011 47.022 60.0949 47.0658 58.9888 47.0877C58.6348 47.095 58.2071 47.0366 58.1923 47.5694C58.1776 48.1094 58.5611 48.1385 58.9888 48.1313C60.0286 48.1167 61.061 48.1313 62.2114 48.1313C60.8103 50.4081 59.6746 52.7578 58.067 54.7354C55.8399 57.4793 53.3031 59.9896 50.7884 62.4926C49.9256 63.3537 48.7678 63.9521 47.6838 64.5724C47.1159 64.9008 46.3711 65.1562 45.818 64.587C45.3018 64.0543 45.5894 63.3464 45.877 62.7991C46.4596 61.6753 47.0938 60.5588 47.8017 59.508C49.4094 57.1509 51.0908 54.8376 52.7058 52.4878C53.0597 51.9697 53.2883 51.364 53.5317 50.7875C53.7161 50.3643 53.5317 50.1235 53.0745 50.0286C52.0716 49.817 51.1424 50.0286 50.4492 50.751C49.7781 51.4443 49.166 52.2105 48.6572 53.0278C46.2679 56.8006 43.1411 59.9093 39.7562 62.7772C38.7828 63.6018 37.6029 64.2367 36.423 64.7548C35.4348 65.1927 34.6531 64.4264 34.9481 63.3902C35.1546 62.6678 35.4938 61.9672 35.892 61.325C41.209 52.6703 46.5481 44.0228 51.8798 35.3753C52.0273 35.1418 52.2043 34.8937 52.2559 34.631C52.2854 34.4631 52.1527 34.1567 52.0126 34.091C50.9064 33.6094 49.2029 34.1931 48.5687 35.2367C45.3756 40.447 42.1824 45.6574 38.9819 50.8678C38.7975 51.167 38.6058 51.4516 38.3698 51.8238C37.8462 50.3789 36.8064 49.8462 35.4569 49.9483C34.4171 50.0286 33.3478 50.1599 32.367 50.4737C28.8937 51.6048 26.3274 53.9619 24.1445 56.7568C22.8909 58.3623 21.9691 60.1355 21.8216 62.2226C21.6741 64.2221 22.795 65.9005 24.6312 66.0319C25.5309 66.0975 26.5265 65.8567 27.3745 65.521C29.2476 64.784 30.6857 63.4121 32.0573 61.9891C32.3892 61.6461 32.721 61.2885 33.134 60.8507C32.8832 61.6826 32.6325 62.3467 32.485 63.0326C32.1753 64.4556 32.8316 65.4554 34.2696 65.8348C35.3021 66.1048 36.3492 66.0611 37.271 65.5575C38.4509 64.9081 39.6235 64.1929 40.6485 63.3391C42.1087 62.1277 43.4361 60.7558 44.7635 59.508C44.3948 60.6318 43.908 61.7775 43.6499 62.9742C43.2812 64.6454 44.4095 65.9005 46.1425 65.9662C47.4846 66.0246 48.6424 65.4919 49.6011 64.6891C51.4373 63.1494 53.1703 61.4783 54.9402 59.8582C55.0951 59.7196 55.2499 59.5736 55.3974 59.4277C55.0435 60.515 54.6305 61.5512 54.3797 62.6313C53.8267 65.0321 55.4048 66.55 57.8089 65.9443C58.4726 65.7765 59.1436 65.521 59.7041 65.1416C60.8398 64.3608 61.9607 63.5361 62.9784 62.6167C64.1435 61.5658 65.2054 60.3837 66.3042 59.2671C66.024 60.4566 65.5815 61.5366 65.3308 62.6605C64.7998 65.0248 66.3559 66.5062 68.7231 65.9589C70.2717 65.6013 71.5254 64.711 72.6905 63.704C74.1359 62.4488 75.5075 61.128 76.9677 59.778C76.9529 59.975 76.9456 60.1136 76.9382 60.2523C76.9013 61.1061 76.7464 61.9745 76.8423 62.821C77.093 65.1708 78.9293 66.477 81.2449 65.9735C82.056 65.7984 82.8672 65.4919 83.6047 65.0978C85.3451 64.1637 86.7241 62.7845 87.9925 61.3031C88.7447 60.4201 89.46 59.508 90.2048 58.5885C91.2299 59.4861 92.3287 59.508 93.5012 59.1139C95.3522 58.4863 96.6796 57.1947 97.8669 55.7352C98.1029 55.4433 98.4126 55.0565 97.9554 54.7719L97.9627 54.75ZM34.2328 58.3404C32.6251 60.3618 30.8774 62.2664 28.6946 63.6894C27.9055 64.2075 26.9911 64.5359 26.5265 64.7621C24.9336 64.7621 24.2404 64.0178 24.4543 62.9232C24.587 62.2372 24.8156 61.5367 25.1548 60.931C27.1828 57.2676 29.9335 54.2246 33.37 51.8019C33.923 51.4151 34.5867 51.1524 35.2283 50.9262C35.951 50.6708 36.6663 50.8313 37.2268 51.364C37.7725 51.8894 37.5881 52.5389 37.3817 53.1446C36.7106 55.1003 35.5012 56.7422 34.2328 58.3404ZM60.3088 63.4194C59.6894 63.8937 58.9814 64.3316 58.2513 64.5724C57.7572 64.7329 57.0346 64.7037 56.6068 64.4483C56.0243 64.098 56.3119 63.4194 56.5773 62.9305C57.3222 61.5439 58.0744 60.1574 58.9077 58.822C61.061 55.3995 63.2733 52.0062 65.4488 48.591C65.6922 48.2042 65.9576 48.051 66.4296 48.0583C68.6346 48.0875 70.8395 48.0729 73.074 48.0729C69.9693 54.2173 65.7217 59.3036 60.3088 63.4194ZM90.1311 56.8955C89.5927 55.56 89.46 54.3925 89.932 53.203C90.0057 53.0205 90.1016 52.8016 90.2564 52.7067C90.4777 52.5754 90.78 52.4513 91.0013 52.5097C91.1561 52.5462 91.3184 52.8819 91.3257 53.1008C91.4069 54.4435 90.8611 55.5965 90.1237 56.8955H90.1311Z" fill="#222222"/>
<path fill-rule="evenodd" clip-rule="evenodd" d="M54.9547 47.8249C55.8396 47.7957 56.5476 47.0076 56.5328 46.0881C56.5181 45.351 55.9502 44.8402 55.1685 44.8694C54.2983 44.8986 53.5683 45.6502 53.583 46.5113C53.5904 47.2995 54.173 47.8541 54.9621 47.8249H54.9547Z" fill="#222222"/>
</svg>
