<svg width="120" height="100" viewBox="0 0 120 100" fill="none" xmlns="http://www.w3.org/2000/svg">
<path fill-rule="evenodd" clip-rule="evenodd" d="M45.6343 63.4338C45.215 63.8075 44.7002 64.0786 44.2294 64.3864C44.1485 63.8661 44.0602 63.3459 43.994 62.8183C43.9793 62.6864 44.0234 62.5399 44.0529 62.4007C45.5387 56.3558 47.0393 50.3108 48.4957 44.2513C49.3196 40.8148 50.0772 37.3637 50.8643 33.9199H48.2971C46.4361 41.4889 44.5678 49.0579 42.8024 56.2385C41.5592 55.689 40.4412 54.8244 39.2642 54.7438C35.2847 54.4727 31.9158 59.1181 33.1074 63.0088C34.0048 65.9397 37.2046 66.9289 39.5584 64.9799C40.0881 64.5402 40.5221 63.9834 41.059 63.4192C41.3974 65.4488 42.0741 66.1229 43.4202 65.8884C44.9723 65.6246 46.6053 63.7489 46.3699 62.3274C46.0904 62.767 45.9286 63.1774 45.6417 63.4411L45.6343 63.4338ZM42.1845 58.3707C42.0373 60.5982 41.1988 62.5839 39.5364 64.1665C38.742 64.9212 37.7268 65.3975 36.8441 64.8113C36.1748 64.3644 35.8879 63.3386 35.6231 62.8989C35.9688 60.3051 36.4911 58.2975 37.9034 56.6562C38.6095 55.8429 39.4555 55.242 40.6471 55.7256C41.8388 56.2165 42.258 57.2643 42.1845 58.3634V58.3707Z" fill="#222222"/>
<path fill-rule="evenodd" clip-rule="evenodd" d="M64.826 45.1155H62.1191C61.2658 48.5373 60.4419 51.8712 59.6622 55.0145C58.6471 55.7106 57.1686 54.5529 56.4919 56.2162C57.5143 56.2895 58.3382 56.3554 59.1768 56.414C58.6913 58.5902 58.1837 60.6052 57.8012 62.6348C57.5805 63.8291 57.632 65.0381 58.9046 65.7415C60.0079 66.3497 61.56 66.1226 62.553 65.0381C63.3695 64.1515 63.9801 63.0744 64.6789 62.0853C64.517 61.9607 64.3552 61.8361 64.1934 61.7116C63.7962 62.2758 63.4872 62.9499 62.9723 63.3675C62.5163 63.7339 61.7807 64.0416 61.2511 63.939C60.9348 63.8731 60.5155 62.9279 60.6038 62.459C60.9863 60.3927 61.5453 58.3631 62.0161 56.3847C64.2277 56.2382 65.4341 55.884 65.6351 55.3223H62.3544C63.2003 51.8126 64.0021 48.4714 64.8113 45.1082L64.826 45.1155Z" fill="#222222"/>
<path fill-rule="evenodd" clip-rule="evenodd" d="M74.2559 45.0796H71.5563C70.7103 48.4794 69.8718 51.8499 69.0406 55.1691C67.1967 55.3401 66.2258 55.7015 66.1277 56.2535C66.9295 56.2975 67.7166 56.3488 68.636 56.4001C68.5404 56.847 68.4595 57.1987 68.3785 57.5578C67.974 59.4482 67.415 61.3166 67.2016 63.229C66.9442 65.4784 68.7096 66.6654 70.8133 65.7935C72.5566 65.0754 73.2996 63.5441 73.7777 61.8368C73.2481 62.2472 72.9759 62.8993 72.4831 63.2803C71.9829 63.6686 71.2694 63.9544 70.6515 63.9397C70.4235 63.9397 69.9453 62.9213 70.0336 62.4523C70.4235 60.3934 70.9752 58.3564 71.4533 56.3854C73.665 56.2535 74.8664 55.8994 75.0576 55.323H71.7916C72.6376 51.8132 73.4394 48.4794 74.2559 45.0869V45.0796Z" fill="#222222"/>
<path fill-rule="evenodd" clip-rule="evenodd" d="M82.0675 54.6779C78.5956 54.6779 75.6753 57.5575 75.7194 60.9573C75.7562 64.13 77.6687 66.0863 80.7214 66.0717C84.3478 66.057 87.143 63.2141 87.1356 59.5431C87.1356 56.583 85.1569 54.6852 82.0675 54.6779ZM82.8987 63.639C82.4794 64.6429 81.6923 65.5001 80.3683 65.2583C79.081 65.0239 78.647 63.9321 78.7206 62.9283C78.8603 61.0892 79.1399 59.2061 79.6989 57.4549C80.2432 55.755 81.4717 55.1175 82.6486 55.4326C83.8255 55.7403 84.2889 56.6196 84.5758 58.6053C84.0241 60.2832 83.5681 62.0051 82.8913 63.6317L82.8987 63.639Z" fill="#222222"/>
<path fill-rule="evenodd" clip-rule="evenodd" d="M54.3438 62.7741C53.7406 63.4189 53.5199 64.7378 52.343 64.2689C52.1076 64.1736 52.3651 62.591 52.5416 61.7263C52.8947 60.0264 53.4538 58.3558 53.7333 56.6486C53.9319 55.4616 53.1007 54.6703 52.0267 54.7289C50.5703 54.8095 48.5842 56.8025 48.4077 58.5024C49.1359 57.7843 49.7906 57.1469 50.4379 56.5094C50.5776 56.59 50.7174 56.6706 50.8498 56.7585C50.791 57.3374 50.7983 57.9382 50.6586 58.4951C50.2834 59.9532 49.8494 61.3966 49.4228 62.8474C49.1138 63.9025 48.9741 64.9576 50.0112 65.6757C51.0852 66.4084 52.1518 65.9615 53.0345 65.2727C53.6965 64.7598 54.2114 64.0491 54.7336 63.3896C54.844 63.2504 54.7337 62.9353 54.719 62.6716C54.4983 62.7302 54.3879 62.7228 54.3365 62.7815L54.3438 62.7741Z" fill="#222222"/>
<path fill-rule="evenodd" clip-rule="evenodd" d="M54.248 43.6358C53.2255 43.6504 52.3354 44.5517 52.3428 45.5628C52.3428 46.574 53.2402 47.4679 54.2553 47.4825C55.2631 47.4972 56.2046 46.6179 56.2487 45.6288C56.2929 44.6029 55.3072 43.6211 54.248 43.6358Z" fill="#222222"/>
</svg>
