<svg width="500" height="176" viewBox="0 0 500 176" fill="none" xmlns="http://www.w3.org/2000/svg">
<path d="M391.847 25.2448C387.304 25.2448 383.616 28.9519 383.616 33.5098V55.709C383.616 55.8827 383.762 56.039 383.944 56.039C384.039 56.039 384.108 56.0042 384.16 55.9521L399.819 36.0883C399.966 35.8973 400.061 35.6716 400.061 35.4024V33.5185C400.061 28.9606 396.382 25.2535 391.838 25.2535" fill="#ED135D"/>
<path d="M413.777 25.2448C409.234 25.2448 405.554 28.9519 405.554 33.5098V55.709C405.554 55.8827 405.692 56.039 405.882 56.039C405.96 56.039 406.047 56.0042 406.098 55.9521L421.767 36.0883C421.914 35.8973 422 35.6716 422 35.4024V33.5185C422 28.9606 418.329 25.2535 413.777 25.2535" fill="#ED135D"/>
<path d="M199.948 64.9728C204.785 64.9728 208.724 61.0053 208.724 56.1435C208.724 51.2817 204.777 47.3228 199.948 47.3228C195.12 47.3228 191.164 51.2817 191.164 56.1435C191.164 61.0053 195.103 64.9728 199.948 64.9728ZM396.676 83.6473C393.981 77.2315 389.498 71.814 383.832 67.968C378.174 64.122 371.316 61.8647 363.983 61.8647C359.12 61.8647 354.43 62.8805 350.18 64.6776C344.756 66.987 340.048 70.5899 336.403 75.1131L336.351 75.1826C336.23 75.3302 336.118 75.4777 335.989 75.634L303.779 116.516C303.719 116.577 303.641 116.603 303.555 116.603C303.374 116.603 303.227 116.456 303.227 116.273V64.2522H318.67C323.179 64.2522 326.842 60.5712 326.842 56.0393C326.842 51.5075 323.179 47.8177 318.67 47.8177H303.227V14.9052C303.227 14.7316 303.08 14.584 302.898 14.584C302.821 14.584 302.734 14.6274 302.683 14.6882L287.126 34.4044C286.971 34.5954 286.876 34.8385 286.876 35.0903V47.809H255.453V14.8965C255.453 14.7229 255.315 14.5753 255.142 14.5753C255.038 14.5753 254.969 14.6187 254.917 14.6795L239.361 34.3957C239.197 34.5867 239.128 34.8298 239.128 35.0816V47.8003H223.676C219.158 47.8003 215.496 51.4901 215.496 56.0219C215.496 60.5538 219.167 64.2349 223.676 64.2349H239.128V77.3443L208.249 116.499C208.197 116.56 208.111 116.586 208.033 116.586C207.852 116.586 207.713 116.438 207.713 116.256V80.2093C207.713 76.7105 205.511 73.5938 202.22 72.4478C198.929 71.3018 195.293 72.361 193.142 75.1044L160.492 116.499C160.492 116.499 160.354 116.586 160.276 116.586C160.104 116.586 159.957 116.438 159.957 116.256V18.1956C159.957 13.6637 156.295 10 151.786 10C147.277 10 143.615 13.6637 143.615 18.1956V67.4819C138.104 63.9223 131.488 61.8474 124.474 61.8474C119.603 61.8474 114.921 62.8632 110.671 64.6603C104.28 67.3777 98.8813 71.8835 95.0635 77.57C91.2371 83.2479 89 90.1499 89 97.512C89 102.417 89.9933 107.131 91.7899 111.394C94.5021 117.81 98.9849 123.236 104.642 127.082C110.291 130.919 117.158 133.168 124.474 133.168C129.354 133.168 134.036 132.178 138.285 130.364C141.179 129.148 143.883 127.533 146.301 125.623C147.51 127.481 149.082 129.079 150.905 130.329C153.539 132.126 156.778 133.177 160.173 133.168C162.764 133.168 165.26 132.56 167.454 131.492C169.648 130.398 171.566 128.862 173.077 126.969L173.129 126.9L191.363 103.789V116.525C191.363 118.8 191.821 121.013 192.667 123.01C193.919 126.014 196.018 128.541 198.661 130.338C201.296 132.135 204.526 133.185 207.929 133.177C210.512 133.177 213.017 132.569 215.211 131.501C217.405 130.407 219.322 128.87 220.834 126.978L220.894 126.908L239.119 103.798V116.534C239.119 118.808 239.577 121.022 240.415 123.019C241.676 126.023 243.775 128.549 246.409 130.346C249.052 132.143 252.274 133.194 255.686 133.185C258.269 133.185 260.756 132.578 262.959 131.51C265.161 130.416 267.07 128.879 268.573 126.987L268.634 126.917L286.859 103.806V116.542C286.859 118.817 287.316 121.031 288.163 123.028C289.424 126.032 291.514 128.558 294.157 130.355C296.783 132.143 300.014 133.194 303.417 133.194C306.008 133.194 308.504 132.586 310.698 131.518C312.892 130.425 314.81 128.888 316.321 126.995L316.382 126.926L330.409 109.128C330.668 109.91 330.97 110.674 331.281 111.42C333.985 117.836 338.468 123.262 344.117 127.108C349.765 130.945 356.632 133.194 363.948 133.194C368.828 133.194 373.518 132.204 377.768 130.39C384.143 127.681 389.55 123.175 393.376 117.489C397.185 111.811 399.44 104.9 399.44 97.5381C399.44 92.6416 398.446 87.9274 396.641 83.656M124.483 116.759C113.919 116.759 105.351 108.147 105.351 97.5294C105.351 86.9116 113.919 78.2993 124.483 78.2993C135.046 78.2993 143.623 86.9029 143.623 97.5294C143.623 108.156 135.046 116.759 124.483 116.759ZM286.885 77.3617L256.006 116.516C255.954 116.577 255.876 116.603 255.798 116.603C255.617 116.603 255.47 116.456 255.47 116.273V64.2522H286.893V77.3617H286.885ZM364.484 116.759C353.92 116.759 345.343 108.147 345.343 97.5294C345.343 86.9116 353.92 78.2993 364.484 78.2993C375.047 78.2993 383.616 86.9029 383.616 97.5294C383.616 108.156 375.056 116.759 364.484 116.759Z" fill="#3E1865"/>
<path d="M211.799 151.399V163.632L214.07 164.778V165.69H205.01V164.778L207.774 163.632V151.399H205.338V149.767H207.774V149.307C207.774 144.966 208.231 142.622 213.353 142.622C215.271 142.622 219.201 142.952 220.436 143.499C221.343 143.924 221.671 144.445 221.671 145.487C221.671 146.624 220.825 147.31 219.46 147.31C217.802 147.31 217.353 146.885 216.186 144.211C215.858 144.176 215.729 144.176 215.573 144.176C212.913 144.176 211.807 145.322 211.807 148.092V149.759H219.045L221.352 149.498V163.623L224.245 164.769V165.681H215.219V164.769L217.456 163.623V151.391H211.807L211.799 151.399Z" fill="#ED135D"/>
<path d="M226.405 151.4H223.969V150.288L224.323 150.158C226.984 149.247 227.182 149.116 228.219 147.449C228.668 146.729 228.866 146.408 229.16 145.722H230.43V149.767H235.431V151.4H230.43V161.123C230.43 163.311 231.078 163.962 233.315 163.962C233.669 163.962 233.997 163.962 234.291 163.901L235.172 163.771L235.431 163.736L235.725 165.013L235.37 165.108L233.678 165.534C232.511 165.829 231.181 165.994 230.24 165.994C227.614 165.994 226.405 164.752 226.405 162.078V151.4Z" fill="#ED135D"/>
<path d="M249.32 165.785L243.576 151.53L241.658 150.679V149.768H250.062V150.679L247.825 151.53L250.356 158.415C250.391 158.545 250.555 159.005 250.779 159.717C250.978 160.273 251.108 160.629 251.133 160.793C251.168 160.889 251.203 161.054 251.263 161.254L254.675 151.721L252.498 150.679V149.768H258.959V150.679L256.946 151.817L250.425 168.069C249.259 171.003 248.965 171.429 247.765 172.184C246.858 172.74 245.847 173 244.586 173C243.576 173 242.669 172.905 241.986 172.705V169.571H244.612L245.2 171.524C246.625 171.333 247.506 170.413 248.378 168.199L249.32 165.785Z" fill="#ED135D"/>
<path d="M257.992 158.215C257.992 153.058 261.404 149.602 266.465 149.602C271.527 149.602 274.61 152.771 274.61 157.633C274.61 162.495 271.198 166.184 266.137 166.184C261.075 166.184 257.992 162.99 257.992 158.223M262.336 157.529C262.336 161.93 263.831 164.544 266.327 164.544C268.823 164.544 270.257 162.191 270.257 158.154C270.257 153.778 268.728 151.07 266.266 151.07C263.805 151.07 262.336 153.448 262.336 157.529Z" fill="#ED135D"/>
<path d="M287.377 166.211V164.283L287.083 164.414C284 165.655 282.764 166.011 281.633 166.011C280.432 166.011 279.232 165.49 278.549 164.639C277.772 163.658 277.539 162.712 277.539 160.498V152.277L274.783 151.46V150.584L281.572 149.412V159.491C281.572 162.66 282.315 163.571 284.855 163.571C285.727 163.571 286.124 163.537 287.126 163.346L287.385 163.311V152.277L284.656 151.46V150.584L291.281 149.412V163.242L294.01 163.997V164.908L287.385 166.211H287.377Z" fill="#ED135D"/>
<path d="M301.473 152.311V163.632L304.884 164.778V165.69H294.848V164.778L297.612 163.632V152.311L294.848 151.46V150.584L301.473 149.412V151.434L301.827 151.235C304.323 149.863 305.403 149.438 306.405 149.438C307.018 149.438 307.674 149.629 308.417 150.019V154.004H305.109L304.237 151.947C303.908 151.912 303.658 151.877 303.494 151.877C303.01 151.877 302.164 152.068 301.481 152.303" fill="#ED135D"/>
<path d="M317.029 163.632V145.617L314.144 144.836V143.924L320.924 142.622V163.632L323.818 164.778V165.69H314.308V164.778L317.029 163.632Z" fill="#ED135D"/>
<path d="M327.808 163.632V152.311L325.044 151.495V150.61L331.833 149.412V163.632L334.589 164.778V165.69H325.044V164.778L327.808 163.632Z" fill="#ED135D"/>
<path d="M342.414 151.399V163.632L345.826 164.778V165.69H335.634V164.778L338.398 163.632V151.399H335.962V149.767H338.398V149.081C338.398 145.105 341.222 142.622 345.8 142.622C347.13 142.657 348.426 142.813 349.695 143.213V146.216H347.225L345.955 144.063C343.494 144.098 342.414 145.235 342.414 147.918V149.776H346.474V151.408H342.414V151.399Z" fill="#ED135D"/>
<path d="M360.951 157.399H350.819C350.819 161.479 353.056 163.892 356.796 163.892C357.738 163.892 358.973 163.728 360.467 163.406L360.692 164.613C358.057 165.525 355.785 166.011 354.231 166.011C349.653 166.011 346.733 162.972 346.733 158.18C346.733 153.388 349.981 149.602 354.36 149.602C357.116 149.602 358.973 150.514 359.94 152.372C360.683 153.778 360.882 154.751 360.942 157.399M356.666 155.74C356.597 152.285 355.855 150.913 353.972 150.913C351.959 150.913 350.853 152.771 350.853 156.296L356.666 155.74Z" fill="#ED135D"/>
<path d="M366.643 163.823C366.643 165.029 365.667 166.019 364.458 166.019C363.248 166.019 362.272 165.038 362.272 163.823C362.272 162.607 363.248 161.626 364.458 161.626C365.667 161.626 366.643 162.607 366.643 163.823Z" fill="#ED135D"/>
<path d="M332.102 144.506C332.102 145.791 331.065 146.833 329.787 146.833C328.508 146.833 327.472 145.791 327.472 144.506C327.472 143.221 328.508 142.188 329.787 142.188C331.065 142.188 332.102 143.23 332.102 144.506Z" fill="#ED135D"/>
</svg>
