<svg width="120" height="100" viewBox="0 0 120 100" fill="none" xmlns="http://www.w3.org/2000/svg">
<path fill-rule="evenodd" clip-rule="evenodd" d="M71.0277 66.9395C70.9398 66.8951 70.6321 67.1244 70.5369 67.2945C70.3464 67.6273 70.2511 68.0044 70.0826 68.352C70.002 68.5147 69.8189 68.7588 69.7017 68.7514C69.5112 68.7366 69.24 68.5739 69.1814 68.4112C68.9689 67.8122 68.7639 67.1983 68.6759 66.5697C68.1704 62.946 68.4122 59.3149 68.5954 55.6912C68.7932 51.8087 69.0495 47.9261 69.284 44.051C69.328 43.341 69.4012 42.6237 69.4598 41.9211C69.8554 41.8398 70.1925 41.8102 70.5002 41.6992C71.6212 41.3073 72.7787 40.9745 73.8483 40.4568C74.6543 40.0649 74.9107 39.1553 74.647 38.3714C73.0425 38.7041 71.4453 39.0443 69.7017 39.4067C69.9874 37.654 70.2072 35.9975 70.5442 34.3779C70.7054 33.594 70.7493 33.0911 69.8848 32.6622C68.7272 32.0853 68.1631 32.2998 68.0532 33.5644C67.8993 35.2283 67.7161 36.8849 67.5403 38.5858C66.2362 38.852 64.9541 39.1109 63.5621 39.3993C63.8552 37.617 64.0969 35.9679 64.4119 34.3335C64.6463 33.1059 64.4705 32.7657 63.2397 32.4329C62.3898 32.2036 62.0455 32.4255 61.9502 33.3056C61.8257 34.4814 61.7231 35.6647 61.6059 36.8405C61.5107 37.8315 61.4007 38.8151 61.2982 39.7469C60.082 39.9983 58.9684 40.235 57.8768 40.4642C57.8402 40.4051 57.8182 40.3829 57.8109 40.3607C57.6277 39.4511 58.1918 38.9482 58.7779 38.4231C58.9977 38.2234 59.2029 37.8759 59.1882 37.6022C59.1736 37.373 58.8805 37.0624 58.6388 36.9588C57.7816 36.6113 56.5214 37.1437 56.0672 37.9868C55.5104 39.0221 55.7081 40.9301 56.4481 41.8693C56.5653 42.0172 56.7119 42.2243 56.6972 42.387C56.6166 43.2005 57.0049 43.1192 57.5764 42.9712C58.7266 42.6828 59.8915 42.4758 61.1223 42.2169C61.1223 42.7272 61.137 43.0822 61.1223 43.4372C60.9758 45.9072 60.7853 48.3698 60.6828 50.8399C60.5729 53.6945 60.6096 56.5639 60.4557 59.4185C60.2799 62.6132 60.126 65.8006 60.5509 68.9806C60.7268 70.3044 60.9319 71.6281 61.7378 72.7596C62.6829 74.0982 63.8771 73.6101 64.5365 72.6487C64.7489 72.3381 64.9248 71.9609 64.9761 71.5912C65.1592 70.3488 65.3278 69.0989 65.4084 67.8491C65.4304 67.5533 65.1007 67.2353 64.9395 66.9321C64.705 67.1614 64.4632 67.3832 64.2361 67.6125C64.1848 67.6643 64.1921 67.7604 64.1482 67.8269C63.943 68.1523 63.7306 68.4703 63.5181 68.7957C63.2617 68.4408 62.998 68.1006 62.7562 67.7382C62.6903 67.6421 62.6756 67.4942 62.6683 67.3684C62.5437 64.6765 62.3312 61.9772 62.3312 59.2853C62.3312 56.8671 62.551 54.4488 62.6829 52.0305C62.8367 49.2277 62.9979 46.4249 63.1738 43.622C63.1884 43.4298 63.3203 43.1118 63.4595 43.0748C64.6977 42.7642 65.9505 42.4979 67.2619 42.2021C67.2619 42.7346 67.2765 43.0674 67.2619 43.3928C67.1154 45.9146 66.9176 48.429 66.815 50.9508C66.6978 53.8054 66.7344 56.6748 66.5806 59.5294C66.4048 62.702 66.2215 65.8672 66.7051 69.0102C66.8956 70.2526 67.2546 71.532 67.8334 72.6413C68.5587 74.0242 70.0533 73.9059 70.7566 72.4934C71.5405 70.933 71.5919 69.2173 71.5333 67.5163C71.5333 67.3167 71.2328 67.0652 71.0204 66.9543L71.0277 66.9395Z" fill="#222222"/>
<path fill-rule="evenodd" clip-rule="evenodd" d="M53.1731 63.0203C52.7335 62.7245 52.2573 62.4139 51.9423 61.9998C50.8653 60.5947 50.0154 59.1156 50.5796 57.2002C52.0742 52.1418 52.7628 46.9429 52.9972 41.6996C53.1951 37.2476 53.1218 32.7882 53.1584 28.3362C53.1584 27.9517 53.0925 27.5671 53.0486 27.1826C52.9826 26.6279 52.6749 26.4208 52.1181 26.3839C51.5466 26.3543 51.3561 26.6501 51.2316 27.116C50.77 28.8243 50.3158 30.5326 49.8176 32.2262C48.2571 37.5138 47.3999 42.8976 47.5318 48.4219C47.5464 48.9174 47.3852 49.1763 46.9603 49.4499C46.3009 49.864 45.6488 50.3521 45.1287 50.929C43.5169 52.6964 42.2127 54.6932 41.1797 56.8674C40.0588 59.2339 39.3042 61.6966 39.4068 64.3663C39.48 66.2447 40.7182 67.2948 42.5205 66.8511C43.4363 66.6219 44.4107 66.2447 45.1287 65.6605C46.2643 64.7286 47.2094 63.5602 48.2277 62.4879C48.4622 62.2364 48.66 61.9406 48.8871 61.6596C49.4366 62.4805 49.8469 63.2348 50.3891 63.8634C51.2463 64.8618 52.3086 64.847 53.2683 63.9447C53.642 63.5972 53.6273 63.3235 53.1877 63.0277L53.1731 63.0203ZM47.8614 59.7442C47.0848 61.3342 46.0298 62.7097 44.5645 63.7229C44.2715 63.9226 43.9637 64.1148 43.6414 64.2627C42.2054 64.9357 41.3703 64.3663 41.4142 62.4657C41.59 59.5149 43.004 56.7935 44.9382 54.3086C45.495 53.5913 46.1837 52.9553 46.887 52.3711C47.4292 51.9199 47.6196 52.0531 47.6783 52.7408C47.8321 54.634 48.0226 56.5272 48.1398 58.4278C48.1691 58.8642 48.0592 59.3522 47.8614 59.7442ZM50.3012 49.6422C49.2828 49.3168 49.3706 48.5846 49.312 47.8969C48.9457 43.3266 49.4219 38.8598 50.8726 34.5113C50.9458 34.2969 51.0338 34.0824 51.1217 33.8679C51.1364 33.831 51.2023 33.8162 51.4367 33.6831C51.4001 39.089 51.3855 44.3693 50.3012 49.6422Z" fill="#222222"/>
<path fill-rule="evenodd" clip-rule="evenodd" d="M80.1273 49.5537C80.0613 48.9325 79.8342 48.2965 79.5631 47.7271C79.1089 46.7583 78.3103 46.2924 77.2187 46.3146C75.6362 46.3516 73.4675 47.838 73.0206 49.3393C72.8887 49.7904 72.9547 50.382 73.1378 50.8183C73.3063 51.2177 73.3137 51.4913 73.1451 51.8759C71.8191 55.0263 71.3942 58.3098 71.8924 61.6969C72.1561 63.457 72.7715 65.1061 74.1489 66.3042C74.5738 66.6739 75.2331 66.9993 75.768 66.9771C76.7351 66.9328 77.7095 66.5704 78.259 65.6756C78.8085 64.7881 79.358 63.8711 79.673 62.8875C80.4423 60.5136 80.5009 58.0288 80.6035 55.544C80.4496 53.5398 80.3251 51.5357 80.1199 49.539L80.1273 49.5537ZM78.4568 55.3443C78.4568 57.5629 78.3249 59.7741 77.5483 61.8744C77.3139 62.5104 76.9916 63.1538 76.574 63.6862C75.8926 64.5441 75.0207 64.4036 74.5005 63.4422C73.7679 62.0888 73.6287 60.6098 73.6653 59.1011C73.7239 56.5054 74.3173 54.0131 75.1306 51.5727C75.4383 50.6409 76.2516 50.2933 77.0209 49.9309C77.4751 49.709 77.7682 50.101 77.8561 50.4856C78.0979 51.5283 78.3029 52.5858 78.4495 53.6508C78.5301 54.2054 78.4641 54.7822 78.4641 55.3517L78.4568 55.3443Z" fill="#222222"/>
<path fill-rule="evenodd" clip-rule="evenodd" d="M55.7155 47.1794C55.4957 47.2164 55.2026 47.6675 55.1733 47.9559C54.7777 51.5796 54.4188 55.2181 54.0525 58.8492C54.177 58.8492 54.3016 58.864 54.4261 58.8714C54.4261 60.9791 54.3967 63.0942 54.448 65.2018C54.4554 65.579 54.6972 66.1336 54.9756 66.2594C55.3053 66.4073 55.9426 66.3111 56.1991 66.0671C56.624 65.6529 56.8658 65.0391 57.1589 64.4993C57.1882 64.4401 57.0416 64.2922 56.983 64.1813C56.7999 63.8337 56.5141 63.4935 56.4628 63.1237C56.2943 61.9553 56.1331 60.772 56.1185 59.5962C56.0599 55.7284 56.2797 51.8828 57.4079 48.1482C57.4885 47.882 57.4373 47.3199 57.3567 47.3051C56.8219 47.1942 56.2577 47.1055 55.7228 47.1868L55.7155 47.1794Z" fill="#222222"/>
</svg>
