<svg width="120" height="100" viewBox="0 0 120 100" fill="none" xmlns="http://www.w3.org/2000/svg">
<path fill-rule="evenodd" clip-rule="evenodd" d="M16.3256 45.5875C17.7955 41.3643 21.836 39.748 26.2532 41.6771C27.3243 42.1464 28.2993 42.8167 29.4738 43.4796V35.1449H39.4014V36.2621C39.4014 42.7571 39.4014 49.2447 39.4014 55.7397C39.4014 56.2164 39.3571 56.6931 39.4088 57.1623C39.49 57.9146 39.0764 58.9872 40.3469 59.0989C41.4401 59.1883 42.0606 58.4136 42.0606 57.1176C42.0606 52.6858 42.0606 48.2466 42.0606 43.8148V41.4313H51.7518V42.6529C51.7518 47.2038 51.7518 51.7548 51.7518 56.3132C51.7518 56.708 51.7149 57.1102 51.7814 57.4975C51.8922 58.1455 51.6706 59.0616 52.7491 59.0765C53.7832 59.084 54.4997 58.3466 54.4997 57.3485C54.4997 51.0919 54.4997 44.8352 54.4997 38.586V37.3645H64.2204V41.2526H66.9461V46.4068H64.4863C64.3755 46.6154 64.2722 46.7122 64.2722 46.8091C64.287 50.5258 64.2722 54.25 64.3534 57.9667C64.383 59.367 64.9739 59.7022 66.2739 59.3372C68.3053 58.7563 68.3939 58.6445 68.3939 56.5143V37.3645H78.1147V41.26H80.8403V46.3398C80.0057 46.3845 79.171 46.4292 78.3732 46.4664C78.2846 46.5856 78.196 46.6452 78.196 46.7048C78.2034 50.5035 78.1812 54.2947 78.255 58.0933C78.2772 59.3372 78.8755 59.6873 80.0574 59.3447C80.6188 59.1808 81.1358 58.8754 81.6898 58.6967C82.362 58.4881 82.5467 58.071 82.5393 57.3783C82.5024 54.2127 82.5245 51.0472 82.5245 47.8742C82.5245 47.323 82.5246 46.7644 82.5689 46.2132C82.8939 42.8912 84.5558 41.3047 87.8798 41.0589C89.9555 40.9025 91.9499 41.1185 93.8113 42.1315C94.1142 42.2953 94.4465 42.3996 94.8749 42.5709C94.934 42.1166 94.9784 41.7516 95.0301 41.3568C95.2296 41.3345 95.3772 41.3121 95.5324 41.3121C97.283 41.3121 99.041 41.3121 100.917 41.3121C100.917 42.4294 100.917 43.4424 100.917 44.4628C100.917 47.0995 101.25 47.3155 103.517 46.1983C103.901 49.3489 104.123 49.4309 100.385 50.928C100.385 52.3655 100.385 53.8552 100.385 55.3523C100.385 56.775 100.408 58.2051 100.356 59.6277C100.245 62.54 99.1961 63.918 96.4483 64.849C93.8925 65.7205 91.2703 65.6013 88.6407 65.4225C88.0941 65.3853 87.5548 65.2587 87.0156 65.1619C84.7331 64.7522 83.049 63.6796 82.7018 61.1844C79.8653 64.0148 76.6374 65.795 72.5452 65.5045C70.2701 65.3406 69.0661 64.2681 68.3496 61.7505C67.7809 62.19 67.2416 62.6145 66.695 63.0167C64.479 64.633 62.0488 65.5939 59.264 65.5343C56.6048 65.4747 55.4674 64.6256 54.4185 61.8175C53.2588 62.6071 52.1507 63.4934 50.9245 64.1563C49.8682 64.7299 48.7159 65.1991 47.5415 65.4449C44.8527 66.0035 43.1538 64.8043 42.1123 61.7505C41.1816 62.4134 40.3469 63.1955 39.3571 63.6722C37.8207 64.4021 36.2251 65.214 34.5779 65.4449C32.0886 65.8024 30.7074 64.6926 29.784 62.1602C29.4664 62.4283 29.1783 62.6518 28.905 62.8901C26.5191 64.9682 23.7861 65.9663 20.6468 65.4002C18.1649 64.9533 16.9386 63.5679 16.4954 61.0504C16.4659 60.8716 16.3551 60.7077 16.2812 60.529V45.5652L16.3256 45.5875ZM96.8916 51.1664C95.0966 50.1683 95.0227 50.0417 94.9931 47.9933C94.9931 47.755 94.9636 47.5167 94.9931 47.2783C95.1483 46.2802 94.6829 45.7961 93.7375 45.7216C92.7329 45.6397 92.4152 46.2951 92.4078 47.1293C92.3857 51.1217 92.3487 55.1066 92.4078 59.0989C92.43 60.5588 93.3016 61.2366 94.6977 61.2142C96.0716 61.1919 96.8398 60.4619 96.8694 58.9648C96.9137 56.3579 96.8842 53.7509 96.8842 51.1589L96.8916 51.1664ZM29.5255 53.5126C29.5255 52.09 29.555 50.6673 29.5181 49.2447C29.4811 47.9933 28.9124 47.3751 27.8783 47.3305C26.7924 47.2858 26.2163 47.7773 26.1793 49.1106C26.0981 51.9112 26.0833 54.7267 26.135 57.5273C26.1646 58.9127 26.7924 59.5309 27.8192 59.516C28.9272 59.5085 29.5033 58.8307 29.5255 57.4305C29.5476 56.127 29.5255 54.8235 29.5255 53.5126Z" fill="#222222"/>
<path fill-rule="evenodd" clip-rule="evenodd" d="M47.4235 34.4219C48.4724 34.7198 49.5434 34.9358 50.5554 35.3306C51.5526 35.7253 52.3134 36.4925 52.2986 37.647C52.2765 38.7345 51.5379 39.4495 50.6072 39.8964C48.1252 41.0807 45.5916 41.1552 43.1393 39.889C41.0415 38.809 40.9897 36.716 43.0727 35.5987C44.1807 35.0029 45.503 34.8092 46.7218 34.4293H47.4309L47.4235 34.4219Z" fill="#222222"/>
</svg>
