<svg width="120" height="100" viewBox="0 0 120 100" fill="none" xmlns="http://www.w3.org/2000/svg">
<path fill-rule="evenodd" clip-rule="evenodd" d="M67.1743 61.0469C65.7304 62.2309 64.4652 63.363 63.0958 64.3397C62.2474 64.9465 61.265 65.4571 60.2751 65.7753C57.4618 66.6632 55.2365 65.2351 54.5964 62.253C54.5146 61.8831 54.4401 61.5131 54.3434 61.0617C53.2419 62.0385 52.2669 62.956 51.2398 63.807C50.6072 64.3323 49.93 64.8281 49.2155 65.2499C46.5064 66.8556 44.3332 65.8937 43.6708 62.8302C43.5517 62.2975 43.4847 61.7499 43.3656 61.0765C42.3832 61.9571 41.5124 62.8524 40.5226 63.5924C39.4285 64.4064 38.2898 65.2277 37.0544 65.7827C35.4244 66.5004 33.9359 65.8937 33.2438 64.2657C32.7526 63.104 32.5591 61.8091 32.2093 60.4845C32.0009 60.7435 31.8074 61.0543 31.5469 61.3133C30.2891 62.549 29.1653 63.9772 27.7214 64.9465C24.2532 67.2848 20.5394 65.5681 19.9291 61.4095C19.3188 57.2657 20.9041 53.7435 23.6206 50.7541C24.7816 49.4739 26.2776 48.364 27.833 47.5944C30.0732 46.4845 31.9786 46.1441 34.4197 48.0606C35.1342 45.1303 35.8338 42.2371 36.5334 39.3438C36.8311 38.1229 37.0841 36.8946 37.4637 35.6958C37.5753 35.348 37.9847 34.9337 38.3345 34.8523C39.8899 34.4971 41.4752 34.2529 43.3656 33.9199C43.0679 35.2741 42.8521 36.2804 42.6139 37.2867C41.1105 43.7392 39.5774 50.1769 38.1112 56.6367C37.8507 57.7763 37.7465 58.975 37.754 60.1442C37.754 61.6463 38.8257 62.2604 40.0537 61.4243C41.9367 60.1442 43.6634 58.79 44.1471 56.2446C44.6234 53.7213 45.591 51.2868 46.3278 48.808C46.5138 48.1716 46.8636 47.8904 47.5632 47.7794C49.1783 47.5278 50.7635 47.1356 52.5572 46.7583C51.5673 49.9253 50.6221 52.8259 49.7662 55.7488C49.4164 56.9475 49.1336 58.1907 49.0443 59.4338C48.9996 60.048 49.2825 60.9285 49.729 61.2467C50.1012 61.5131 51.0761 61.3207 51.545 60.9951C53.16 59.8704 54.6113 58.642 54.9239 56.4295C55.1844 54.587 55.8914 52.8037 56.4199 50.9316C55.8914 50.9094 55.43 50.8872 54.7899 50.8576C55.0058 49.7995 55.1472 48.771 55.4523 47.7942C55.5267 47.5648 56.1594 47.3724 56.5166 47.4094C57.3651 47.4834 57.6925 47.1208 57.9009 46.3587C58.34 44.7308 58.8833 43.1324 59.3299 41.5119C59.5383 40.7646 59.836 40.3354 60.7216 40.2244C62.2995 40.0172 63.855 39.6102 65.6188 39.2476C64.8374 41.9189 64.1229 44.3534 63.401 46.8322H66.4152C66.1845 47.92 65.9538 49.0077 65.723 50.1103C64.8076 50.1991 63.9294 50.2139 63.0884 50.3989C62.6939 50.4877 62.1581 50.8502 62.0539 51.1906C61.3617 53.4771 60.7067 55.7784 60.1634 58.1019C59.8806 59.3228 59.702 60.7361 61.0045 61.5205C62.2548 62.2753 63.453 61.6167 64.4876 60.8323C66.1398 59.5892 67.5614 58.2499 67.8665 55.9856C68.0972 54.2911 68.7447 52.6631 69.221 50.9316C68.7075 50.9094 68.246 50.8872 67.5985 50.8576C67.8069 49.8069 67.9483 48.7783 68.2535 47.8016C68.3279 47.5722 68.9605 47.3724 69.3178 47.402C70.1513 47.4686 70.5011 47.1282 70.7095 46.3587C71.1412 44.7308 71.692 43.1324 72.1385 41.5119C72.3469 40.7646 72.6371 40.3354 73.5228 40.217C75.1006 40.0098 76.6561 39.6028 78.4275 39.2402C77.646 41.9115 76.9389 44.3386 76.2096 46.8249H79.2461C79.0005 47.9496 78.7698 49.0077 78.5316 50.1029C77.5864 50.1991 76.671 50.2213 75.7928 50.4063C75.4355 50.4803 74.9667 50.8503 74.8699 51.1758C74.1852 53.4623 73.5228 55.7636 72.9795 58.0871C72.6893 59.3154 72.5181 60.7213 73.8131 61.5057C75.0634 62.2679 76.284 61.6315 77.2962 60.8249C78.6879 59.7076 79.9755 58.6569 80.3104 56.585C81.3226 50.2805 87.6711 45.8999 94.0047 46.884C95.6942 47.143 96.3416 47.8682 96.3044 49.5849C96.2374 52.7593 95.4485 55.7932 94.3098 58.7382C93.9898 59.567 94.2354 59.9666 94.9276 60.307C96.1184 60.8915 97.2347 60.7213 98.2544 59.9222C98.8646 59.4486 99.4228 58.9158 100.175 58.2573C100.018 59.4338 100.643 60.4772 99.4377 61.2763C97.3315 62.6674 95.2922 62.919 93.7367 61.6833C92.4789 62.6748 91.3477 63.5998 90.1792 64.4729C88.46 65.7605 86.5472 66.3598 84.3964 65.8271C81.8361 65.1981 80.7495 63.2742 80.1392 60.8471C78.9187 61.8757 77.7874 62.9634 76.5222 63.8588C75.443 64.6135 74.2596 65.3387 73.0167 65.7457C70.2779 66.641 68.06 65.1907 67.4125 62.2753C67.3306 61.8979 67.2637 61.5131 67.1669 61.0173L67.1743 61.0469ZM33.5341 51.8936C33.5564 50.606 33.5936 49.3111 32.2911 48.6378C31.2938 48.1198 30.2891 48.4972 29.5895 49.2593C26.7985 52.2858 25.4217 55.882 25.6226 59.9888C25.6971 61.4835 27.126 62.2679 28.4805 61.5945C29.2918 61.1875 30.0584 60.5289 30.6091 59.8112C32.3805 57.4655 33.2438 54.7572 33.5341 51.8936ZM92.7767 48.1864C90.5737 48.0014 89.0331 48.7562 87.9018 50.3323C86.7036 51.9972 86.0635 53.9211 85.9519 55.9264C85.8551 57.6579 85.8551 59.4782 86.2793 61.1431C86.7854 63.1558 88.7354 63.511 90.2388 62.0533C90.8565 61.4613 91.3477 60.7435 91.8687 60.1146C88.8172 55.3936 89.0107 52.5596 92.7767 48.1864Z" fill="#222222"/>
<path fill-rule="evenodd" clip-rule="evenodd" d="M47.0869 42.3331C47.7419 40.905 48.3968 39.4843 49.089 37.9969C50.5998 39.0107 52.2446 39.4473 53.9862 38.3077C54.2764 40.3352 53.5173 42.2295 52.1479 42.9917C50.7487 43.776 48.5531 43.4801 47.0944 42.3331H47.0869Z" fill="#222222"/>
</svg>
