<svg width="120" height="100" viewBox="0 0 120 100" fill="none" xmlns="http://www.w3.org/2000/svg">
<path fill-rule="evenodd" clip-rule="evenodd" d="M55.415 31.4072C55.7785 31.8679 55.4373 32.18 55.1702 32.4773C50.9937 37.1662 47.2771 42.197 43.9908 47.5398C41.2609 51.9835 38.746 56.561 36.157 61.0939C35.8677 61.5992 35.6526 62.1714 35.5042 62.7362C35.3559 63.2712 35.66 63.6279 36.209 63.5684C36.6541 63.5238 37.1437 63.4049 37.5146 63.1671C39.9627 61.6066 42.0769 59.682 43.5309 57.1406C45.6377 53.4549 47.967 49.9252 50.5263 46.5292C51.8542 44.7681 53.4937 43.9655 55.6524 44.1588C55.8824 44.181 56.1124 44.2925 56.3423 44.3668C56.2682 44.6046 56.2459 44.8796 56.1124 45.0728C55.2815 46.2543 54.3616 47.3838 53.5753 48.595C51.4833 51.7978 49.4062 55.0005 47.4181 58.2627C46.9359 59.0504 46.7504 60.0387 46.5649 60.9676C46.424 61.7032 46.7652 62.0153 47.4551 61.7181C48.4344 61.2945 49.4285 60.7818 50.2222 60.0907C53.2118 57.4899 55.9714 54.6884 58.0485 51.2405C60.0738 47.8742 62.277 44.6195 64.3986 41.3127C64.5396 41.0972 64.6657 40.8817 64.8734 40.5399C64.5544 40.4953 64.3244 40.4284 64.0945 40.4284C62.3882 40.4284 60.6821 40.421 58.9758 40.4656C58.5827 40.473 58.1821 40.6365 57.8186 40.8C56.7281 41.2978 55.6821 41.766 54.6287 40.6885C54.4358 40.4879 53.9536 40.5622 53.4566 40.4879C53.605 40.2278 53.6717 39.9008 53.8572 39.8116C54.3765 39.5441 54.5026 39.076 54.7177 38.6078C55.2889 37.352 56.2533 36.4677 57.5589 36.0218C58.234 35.7915 58.9462 35.7097 59.5322 36.2448C60.1183 36.7798 60.1331 37.4635 59.9328 38.1843C59.8734 38.3775 59.8364 38.5781 59.7696 38.853C61.8319 38.853 63.8422 38.8679 65.8526 38.8382C66.0455 38.8382 66.2903 38.6004 66.4164 38.4146C67.0173 37.5155 67.5811 36.5792 68.1745 35.6726C69.2057 34.1121 71.8466 33.1758 73.857 33.7703C72.8778 35.4645 71.6389 36.9284 70.4891 38.6673C72.0988 38.6673 73.5751 38.6524 75.0514 38.6747C75.5335 38.6747 76.0232 38.7936 76.5054 38.8456C76.943 38.8902 77.3362 38.9125 77.6255 38.4146C78.2042 37.404 78.8421 36.4306 79.5024 35.472C80.4593 34.0675 83.2264 33.1907 85.0735 33.8074C83.9459 35.4125 82.8554 36.973 81.6833 38.645H87.5809C87.299 39.0091 87.1507 39.4029 86.8762 39.5144C86.0082 39.8711 85.118 40.2501 84.2056 40.3764C83.1374 40.525 82.0394 40.3764 80.9564 40.4284C80.6522 40.4433 80.2367 40.6216 80.0884 40.8594C76.1641 47.094 72.2398 53.3211 68.3897 59.6003C67.6553 60.7967 67.225 62.1788 66.728 63.5015C66.6167 63.8062 66.676 64.371 66.8838 64.5419C67.1063 64.7276 67.6627 64.7276 67.952 64.579C68.7235 64.1703 69.495 63.717 70.1478 63.1448C72.1211 61.3986 74.0425 59.5928 75.9564 57.7797C76.2977 57.4602 76.5128 56.9771 76.6982 56.5387C78.4045 52.4294 80.6225 48.6693 84.124 45.8159C85.8228 44.4337 87.7367 43.5271 89.9325 43.2893C91.342 43.1407 92.6105 43.4379 93.5823 44.5452C94.3093 45.37 94.428 46.5218 93.8642 47.1237C93.79 47.0643 93.701 47.0122 93.6343 46.9379C92.7589 45.9273 91.9948 45.6375 90.7634 46.1725C89.7619 46.6035 88.7456 47.1534 87.9296 47.8668C84.2352 51.0993 81.535 55.0154 80.1923 59.7861C79.992 60.492 79.9474 61.2648 79.9474 62.0079C79.9474 63.2935 80.7116 63.9028 81.9282 63.5015C82.8184 63.2043 83.716 62.7733 84.4356 62.1863C86.5795 60.4474 88.1299 58.233 89.2575 55.7213C89.4949 55.2012 89.6136 54.7627 89.0275 54.3094C88.5082 53.9082 88.5379 53.2617 88.7011 52.6523C89.0498 51.3519 89.9325 50.4602 90.9859 49.7171C92.9963 48.3052 95.2366 47.6439 97.6921 47.7479C98.0259 47.7628 98.3523 47.8965 98.6787 47.9708C98.6787 48.0451 98.6862 48.1195 98.6936 48.1938C98.4784 48.3052 98.2633 48.4241 98.0408 48.5282C97.5066 48.7808 96.9577 49.0037 96.4236 49.2712C95.1031 49.9326 94.2426 50.9283 93.7085 52.37C91.8984 57.2521 89.0052 61.354 84.4652 64.0589C83.1596 64.8391 81.6759 65.4113 80.1923 65.7828C77.44 66.4665 75.541 64.8911 75.4371 62.0228C75.4149 61.458 75.4965 60.8933 75.5336 60.3285C75.4742 60.2616 75.4149 60.1873 75.3481 60.1205C75.1923 60.3582 75.0588 60.6257 74.8659 60.8338C72.7294 63.13 70.4742 65.3147 67.7814 66.9495C66.7132 67.596 65.5336 68.1236 64.3319 68.4654C62.4699 68.9856 61.32 67.8709 61.6984 65.9612C61.9357 64.7797 62.3809 63.6427 62.7369 62.4835C62.8111 62.2457 62.9224 62.0228 63.093 61.5918C61.7874 62.7733 60.7117 63.8879 59.4951 64.8168C58.0634 65.9092 56.5426 66.8901 54.9996 67.8264C54.421 68.183 53.7162 68.3688 53.0412 68.51C51.283 68.8741 50.1925 67.8412 50.4967 66.0652C50.6673 65.0769 50.9566 64.1034 51.2978 63.1671C51.6539 62.1788 52.1435 61.2425 52.6628 60.0907C51.7875 60.8338 51.1124 61.5249 50.326 62.0451C48.8869 62.9962 47.3958 63.8582 45.9122 64.7351C45.6525 64.8911 45.3335 64.9431 45.0368 65.0249C42.611 65.6788 41.3721 64.6979 41.4983 62.1342C40.8009 62.699 40.2 63.2935 39.4953 63.7319C38.0561 64.631 36.5725 65.4559 35.0888 66.2881C34.7772 66.4591 34.4137 66.5631 34.0651 66.63C33.1155 66.8083 32.1215 66.9495 31.3722 66.147C30.66 65.389 30.8232 64.4453 31.1719 63.5907C31.6689 62.3795 32.255 61.1979 32.8114 60.0016C32.9152 59.7786 33.0413 59.5706 33.0488 59.251C32.7743 59.4963 32.4924 59.734 32.2179 59.9867C30.3633 61.733 28.4345 63.3826 26.0829 64.4081C25.1556 64.8094 24.1245 65.0472 23.1156 65.1438C22.1438 65.2404 21.5503 64.6087 21.3945 63.6204C21.172 62.2531 21.3871 60.9156 21.8693 59.6597C24.5622 52.6449 29.1838 47.5027 36.3647 44.9167C38.0635 44.3074 39.8514 44.2108 41.6318 44.5749C42.1659 44.6864 42.2994 44.3297 42.522 44.025C44.9404 40.6365 47.3884 37.2703 49.7549 33.8446C50.7563 32.3881 52.1361 31.7862 53.783 31.5558C53.9536 31.5336 54.1243 31.4592 54.2949 31.4072H55.415ZM76.127 40.4581C73.8718 40.4581 71.7725 40.4433 69.6805 40.4804C69.3986 40.4804 69.0054 40.6811 68.8645 40.9114C64.7918 47.4432 60.7266 53.9825 56.7058 60.5514C56.1791 61.4134 55.8824 62.4389 55.5634 63.4124C55.4521 63.7542 55.4966 64.4007 55.6895 64.5122C55.9937 64.6905 56.4981 64.5493 56.9135 64.5122C57.0545 64.4973 57.2028 64.4007 57.3289 64.3115C60.6969 61.9559 63.8868 59.3551 66.2013 55.9442C69.2057 51.5228 71.9653 46.9305 74.8362 42.4199C75.2368 41.7957 75.6448 41.1789 76.1196 40.4581H76.127ZM26.5651 60.1576C26.5206 61.25 26.6616 61.4209 27.4479 61.2351C28.0637 61.0939 28.6794 60.8487 29.2209 60.5217C31.261 59.2956 32.982 57.6608 34.4211 55.8031C36.4018 53.2617 38.1823 50.5642 40.022 47.9114C40.9345 46.5961 40.6748 46.128 39.0576 46.0388C38.8054 46.0239 38.5161 46.0165 38.2935 46.1205C37.3662 46.559 36.3574 46.9008 35.571 47.525C31.8544 50.4974 29.0799 54.2203 27.0918 58.5377C26.8173 59.1396 26.669 59.8009 26.5577 60.1576H26.5651Z" fill="#222222"/>
</svg>
