<svg width="120" height="100" viewBox="0 0 120 100" fill="none" xmlns="http://www.w3.org/2000/svg">
<path fill-rule="evenodd" clip-rule="evenodd" d="M53.6784 39.9313C52.8044 39.7271 51.9157 39.6061 51.0269 39.4473H48.8568C48.6346 39.5002 48.4124 39.5456 48.1902 39.5985C46.5237 40.0145 44.8276 40.3473 43.1908 40.8692C42.065 41.2247 41.4206 42.1777 40.9985 43.5164C41.3762 43.3047 41.5762 43.1988 41.7688 43.0853C45.0054 41.1112 48.4716 40.1809 52.2564 40.5515C54.6116 40.7784 56.2188 42.034 56.5151 44.1669C56.6484 45.1275 56.5817 46.1939 56.3225 47.1242C54.7597 52.6532 51.2491 56.3593 45.9608 58.2729C43.6574 59.1048 41.2577 59.4528 38.8062 59.0595C37.6804 58.8779 37.3841 58.2275 37.9174 57.282C38.6506 55.9887 41.2947 54.0978 42.8205 53.8104C42.5094 55.0205 41.9391 56.1702 42.2206 57.4938C42.976 56.5257 43.7018 55.5576 44.1907 54.4835C44.7906 53.1599 45.709 52.5246 47.094 52.449C47.5532 52.4263 48.0124 52.3355 48.4791 52.275C48.7309 52.2447 48.9827 52.2145 49.2345 52.1918C49.2345 52.101 49.2197 52.0103 49.2123 51.9195H45.7016C48.0124 48.4327 50.1825 45.1577 52.3897 41.8449C52.2341 41.8146 52.0934 41.7466 51.9527 41.7541C50.6418 41.7693 49.4715 42.208 48.7605 43.3652C47.0792 46.1032 45.4572 48.879 43.8574 51.6699C43.5908 52.1313 43.3019 52.396 42.8131 52.5851C41.3021 53.1826 39.7986 53.7877 38.347 54.5138C37.0582 55.1567 35.9917 56.1097 35.377 57.4863V58.4393C35.925 59.3469 36.7916 59.7251 37.7544 59.8536C42.6575 60.5192 47.257 59.5662 51.4638 56.9114C54.6857 54.8768 57.1817 52.154 58.3815 48.3949C59.6703 44.3409 57.7446 40.8995 53.6784 39.9313Z" fill="#222222"/>
<path fill-rule="evenodd" clip-rule="evenodd" d="M79.9052 52.0253C79.6608 52.4791 79.5349 52.9481 79.9497 53.4095C80.0534 53.5229 80.0756 53.8028 80.0089 53.954C79.3794 55.4592 78.4906 56.7828 77.1056 57.645C76.713 57.8871 76.002 58.0686 75.7058 57.8644C75.4169 57.6753 75.4762 56.9416 75.3873 56.45C75.3873 56.4273 75.3873 56.3971 75.4021 56.3744C76.1353 53.6061 77.6314 51.3597 79.8534 49.6353C80.6385 49.0302 81.4976 48.7201 82.342 49.6201C82.6012 48.5386 81.868 47.578 80.7274 47.7293C79.7423 47.8578 78.6906 48.1831 77.861 48.7201C75.9057 49.9983 74.817 52.0102 73.8541 54.1129C72.9283 56.1323 71.1433 57.2895 69.4324 58.5073C69.2991 58.6056 68.9436 58.6132 68.8695 58.5148C68.7584 58.3711 68.7214 58.0686 68.7881 57.8795C69.0177 57.2442 69.2473 56.5861 69.5954 56.0113C71.21 53.2884 72.9061 50.6185 74.4689 47.8654C75.1577 46.6477 75.9353 45.9518 77.387 46.2166C77.7796 46.2846 78.2314 46.0653 78.6313 45.9065C78.8165 45.8308 78.9424 45.5963 79.2386 45.2787H76.2835C76.8686 44.4164 77.3796 43.6525 77.9425 42.8281C76.8834 42.6617 76.0464 42.8432 75.4021 43.4634C74.9651 43.887 74.691 44.4921 74.3281 44.9988C74.2022 45.1728 74.0097 45.43 73.8541 45.43C72.8395 45.4073 71.8322 45.3241 70.736 45.256C71.2841 44.4391 71.7951 43.6752 72.358 42.8432C71.3285 42.6541 70.499 42.8432 69.8546 43.4483C69.4102 43.8643 69.151 44.4769 68.7659 44.9686C68.6103 45.1728 68.3659 45.4224 68.1511 45.43C67.2253 45.4829 66.2995 45.4526 65.5589 45.4526C65.3737 44.9156 65.3367 44.2727 65.0404 44.1063C64.7145 43.9248 64.0998 44.0836 63.7072 44.2803C63.3443 44.4618 63.0925 44.8854 62.8184 45.2333C62.6037 45.5131 62.4407 45.8308 62.0926 46.4056C62.8555 46.451 63.5665 46.6855 64.1294 46.4888C65.3515 46.0728 66.5291 46.3527 67.8623 46.2619C66.418 48.5537 65.1663 50.7698 63.6924 52.8195C62.7073 54.1809 61.4112 55.3079 60.2262 56.5105C59.9818 56.7601 59.6262 56.9114 59.2929 57.0551C58.7967 57.2744 58.5523 57.0248 58.7004 56.5408C58.9078 55.8676 59.13 55.1718 59.5003 54.5894C60.7002 52.6909 61.9741 50.8379 63.211 48.9621C63.3591 48.7352 63.485 48.4932 63.6406 48.2209C62.0482 48.0318 61.5223 48.1831 60.715 49.3479C59.4855 51.1328 58.3005 52.9481 57.1821 54.8087C56.7303 55.5575 56.4415 56.4273 56.2193 57.282C55.9378 58.356 56.6563 59.0897 57.7006 58.7871C58.456 58.5678 59.1744 58.1896 59.8558 57.7812C60.441 57.4333 60.9446 56.9492 61.6556 56.3971C61.4112 56.9719 61.2409 57.3425 61.1001 57.7282C60.952 58.1442 60.8039 58.5678 60.7076 59.0065C60.4484 60.1939 60.9816 60.799 62.1222 60.4587C62.8925 60.2318 63.6332 59.7931 64.2997 59.3241C65.1663 58.7039 65.9514 57.9476 66.8253 57.1988C66.6476 57.7887 66.4106 58.2955 66.3514 58.8325C66.2995 59.3166 66.2625 60.0578 66.5365 60.262C66.8772 60.5267 67.6104 60.5494 68.0326 60.3528C68.9362 59.9368 69.8028 59.3846 70.5879 58.7644C71.4692 58.0686 72.2543 57.2442 73.1357 56.4197C73.1357 56.7752 73.1209 57.0324 73.1357 57.2895C73.2098 58.7417 74.1578 59.5208 75.5428 59.1577C76.2538 58.9686 76.9575 58.6661 77.5944 58.2879C79.6386 57.0853 81.0607 55.2701 81.905 53.0767C82.4383 51.6925 83.1937 50.7244 84.5713 50.2782C84.601 50.2706 84.6084 50.1874 84.6232 50.142C83.4752 49.605 80.7274 50.4975 79.9052 52.0329V52.0253ZM64.8182 57.8719C64.5294 58.0837 64.2331 58.3182 63.9146 58.4695C63.7294 58.5602 63.4184 58.6056 63.2776 58.5073C63.1591 58.4241 63.1369 58.061 63.2036 57.8795C63.4628 57.1912 63.6998 56.4878 64.0701 55.8676C65.9218 52.7968 67.803 49.7487 69.6917 46.7082C69.8176 46.504 70.1138 46.2998 70.3434 46.2846C71.3211 46.2392 72.2988 46.2619 73.432 46.2619C72.321 48.0318 71.2322 49.6277 70.2768 51.3068C68.8325 53.833 67.1735 56.155 64.8108 57.8719H64.8182Z" fill="#222222"/>
</svg>
