<svg width="120" height="100" viewBox="0 0 120 100" fill="none" xmlns="http://www.w3.org/2000/svg">
<path fill-rule="evenodd" clip-rule="evenodd" d="M100.733 59.9542C99.8878 59.8709 99.0644 59.5527 98.2336 59.333C98.4321 58.742 98.6232 58.1435 98.8364 57.5526C98.9026 57.3707 99.0276 57.2192 99.1232 57.045C99.7334 55.8858 100.197 54.704 99.3584 53.4615C98.5423 52.2493 97.3218 52.1508 96.0425 52.3099C93.1236 52.6811 90.6091 54.0448 88.352 55.8858C85.8227 57.9541 83.5214 60.3254 80.904 62.2498C79.0806 63.5907 76.9484 64.5226 74.8529 65.3939C73.5295 65.9469 72.809 65.159 73.2501 63.712C73.6178 62.5225 74.1251 61.3027 74.8603 60.3178C76.7719 57.7571 78.963 55.4161 80.8084 52.8099C82.6024 50.2719 84.6684 48.7794 87.8226 49.4613C88.0946 49.5219 88.4255 49.537 88.6681 49.431C88.9843 49.2946 89.2342 49.0067 89.5136 48.7794C89.4621 48.6734 89.4107 48.5597 89.3592 48.4537H84.4993C86.2418 46.3096 87.852 44.3474 89.4548 42.3776C87.874 41.0669 86.6535 41.1654 85.5801 42.5064C84.8816 43.3777 84.1022 44.1959 83.5435 45.1505C82.0215 47.7339 80.0585 49.287 76.9484 48.5673C76.7646 48.5218 76.5367 48.5067 76.3896 48.5824C76.0808 48.7491 75.8088 48.9916 75.522 49.2037C75.5735 49.3022 75.6176 49.4082 75.6691 49.5067H80.0805C78.6174 50.9386 77.5292 52.1432 76.3088 53.166C73.2943 55.6964 70.2357 58.189 67.1477 60.6285C64.6258 62.621 62.0966 64.6438 58.9056 65.4242C57.494 65.7651 56.8396 65.1514 57.2881 63.7044C57.6558 62.5149 58.1631 61.2952 58.8983 60.3103C60.8099 57.7495 63.0009 55.4085 64.8464 52.8023C66.6404 50.2643 68.7064 48.7718 71.8606 49.4537C72.1326 49.5143 72.4634 49.5295 72.7061 49.4234C73.0222 49.287 73.2722 48.9991 73.5516 48.7719C73.5001 48.6582 73.4487 48.5521 73.4046 48.4461H68.5373C70.2798 46.302 71.89 44.3398 73.4928 42.37C71.912 41.0594 70.6915 41.1579 69.6181 42.4988C68.9196 43.3701 68.1403 44.1883 67.5815 45.1429C66.0595 47.7263 64.1038 49.287 60.9937 48.5597C60.8099 48.5143 60.582 48.4991 60.4276 48.5749C60.1188 48.7415 59.8467 48.984 59.56 49.1961C59.6115 49.2946 59.6556 49.4007 59.7071 49.4992H64.0229C62.8906 50.681 62.0672 51.6811 61.1113 52.5069C58.5601 54.7039 55.8691 56.7268 53.384 58.9996C50.7372 61.4164 47.9727 63.6286 44.6935 65.0302C43.8921 65.3711 42.9142 65.2878 42.0172 65.3939C42.3407 64.4923 42.429 63.371 43.0245 62.7346C45.6493 59.9087 48.4138 57.2192 51.1342 54.4918C51.6856 53.9388 52.2591 53.4009 52.8767 52.7948C50.9283 51.9462 49.5387 51.9387 47.6933 53.1963C44.9288 55.0903 42.3407 57.2344 39.613 59.189C36.8926 61.1436 34.1575 63.0604 31.3195 64.8256C30.5328 65.3181 28.783 65.659 28.5109 65.2802C27.7389 64.1968 28.8932 63.2422 29.5623 62.424C36.7382 53.6054 43.9436 44.8095 51.1342 36.0061C51.7518 35.2485 52.3473 34.4606 52.9649 33.6651C51.296 32.5893 50.2151 32.6802 49.274 33.8772C45.8846 38.1729 42.5172 42.4761 39.1351 46.7718C37.2308 49.1885 35.3192 51.6053 33.3635 54.0827C32.5179 52.3478 31.6945 51.9538 29.5991 52.4538C25.3788 53.469 21.9011 55.757 19.269 59.3026C18.0558 60.9391 17.475 62.8483 17.9602 64.9696C18.3646 66.7348 19.4822 67.5227 21.1071 66.8333C22.6143 66.1893 23.9818 65.1893 25.3862 64.3635C26.3126 67.0454 27.408 67.6136 30.2755 66.6439C31.3048 66.2954 32.3709 65.9014 33.2458 65.2726C35.8927 63.3786 38.4587 61.3709 41.0467 59.3936C41.9805 58.6814 42.8848 57.939 43.8039 57.2041C43.8112 57.598 43.6348 57.7647 43.4951 57.9541C42.2378 59.6587 40.8261 61.2724 39.8042 63.1134C39.3924 63.8559 39.4807 65.409 39.988 66.0378C40.5026 66.6818 41.8334 66.9015 42.7745 66.8409C43.87 66.7651 45.0685 66.3863 45.9802 65.7575C48.8476 63.7801 51.6194 61.6512 54.3766 59.5148C55.7515 58.4465 57.0087 57.2192 58.3175 56.0601C57.9057 57.1132 57.1705 57.9162 56.7514 58.8632C56.0088 60.53 55.1927 62.2422 54.9059 64.015C54.553 66.1818 56.0676 67.4697 58.1704 66.9469C59.7144 66.5606 61.354 66.0757 62.648 65.1741C65.9419 62.8634 69.0593 60.3027 72.2429 57.8329C72.956 57.2798 73.6472 56.6889 74.3456 56.1131C73.9486 57.045 73.3016 57.7344 72.9413 58.5602C72.1546 60.3633 71.2429 62.1816 70.8974 64.0908C70.5224 66.1666 72.0517 67.4621 74.081 66.9545C75.6764 66.5606 77.2425 65.9166 78.7056 65.1514C80.2055 64.3635 81.5657 63.2877 83.0215 62.3104C83.0509 62.5073 83.1097 62.6437 83.0803 62.7725C82.4112 66.0075 84.6316 67.7803 87.9475 66.4621C89.7342 65.7499 91.3885 64.6211 92.9692 63.4847C94.4691 62.4013 95.7999 61.0679 97.241 59.8102C98.7114 61.6209 100.425 61.3937 102.211 60.6209V59.4466C101.733 59.6284 101.233 59.9921 100.77 59.9466L100.733 59.9542ZM23.8863 64.0529C23.3054 64.659 22.4966 65.0605 21.732 65.4317C21.4085 65.5908 20.7541 65.5757 20.585 65.3635C20.3498 65.0605 20.2468 64.3938 20.4159 64.068C21.1732 62.674 21.8349 61.1133 22.9304 60.0375C25.0038 58.0071 27.3198 56.2343 29.5991 54.4388C30.0843 54.06 30.8342 53.9766 31.4739 53.8933C31.7386 53.8554 32.0401 54.1888 32.4224 54.4009C32.0548 54.9994 31.871 55.4616 31.5548 55.8025C29.0182 58.5753 26.4817 61.3482 23.8863 64.0529ZM97.3807 57.3707C94.9029 60.53 91.9325 63.1059 88.4181 64.9393C87.5358 65.4014 86.3227 66.2121 85.6021 65.1514C85.2786 64.6741 85.8742 63.2195 86.4183 62.4998C88.7416 59.3708 91.5208 56.704 94.8147 54.6736C95.5352 54.2266 96.3587 53.9691 96.866 53.7418C98.1453 53.7191 98.7041 54.2039 98.4468 55.1737C98.2409 55.954 97.8733 56.7419 97.3807 57.3707Z" fill="#222222"/>
<path fill-rule="evenodd" clip-rule="evenodd" d="M57.3466 46.7947C58.5377 46.8856 59.3391 46.181 59.3685 45.0749C59.3979 43.9158 58.7362 43.4006 57.7142 43.2945C56.5158 43.1657 55.6776 43.84 55.6115 45.1279C55.6115 46.128 56.2364 46.7189 57.3466 46.8023V46.7947Z" fill="#222222"/>
</svg>
