<svg width="120" height="100" viewBox="0 0 120 100" fill="none" xmlns="http://www.w3.org/2000/svg">
<path fill-rule="evenodd" clip-rule="evenodd" d="M33.8448 45.7979C33.9117 46.0136 33.9712 46.2292 34.0455 46.4375C34.0603 46.4821 34.1198 46.5193 34.1198 46.5565C34.1049 46.9953 34.2981 47.3895 34.4542 47.7762C34.5508 48.0291 34.7515 48.2448 34.8852 48.4902C34.9744 48.6539 35.0264 48.8398 35.1008 49.0109C35.2271 49.3158 35.3906 49.6058 35.4872 49.9182C35.6878 50.5727 35.8588 51.2272 36.0446 51.8892C36.1486 52.2685 36.2824 52.6403 36.3641 53.0271C36.5128 53.7336 36.654 54.4402 36.7506 55.1542C36.8174 55.645 36.8323 56.1508 36.8397 56.6491C36.8472 57.2218 36.8249 57.8019 36.8026 58.3746C36.7877 58.7762 36.758 59.1778 36.7208 59.5869C36.6763 60.0852 36.6094 60.5835 36.5499 61.0893C36.5425 61.1636 36.5499 61.238 36.5499 61.3124C36.81 61.4165 36.9141 61.6248 36.8175 62.0041C36.7134 62.4354 36.8175 62.8148 36.9438 63.2164C37.0701 63.6254 37.2856 63.9601 37.5829 64.2427C38.17 64.808 38.8834 65.1352 39.7083 65.0237C40.4218 64.9195 40.8974 64.4287 41.3136 63.8858C41.9304 63.0676 42.1756 62.1082 42.2945 61.1116C42.4357 59.9513 42.3986 58.7911 42.2574 57.6308C42.1905 57.073 42.1459 56.5152 42.0419 55.9723C41.9304 55.3699 41.7966 54.7749 41.4399 54.2543C41.1947 53.8898 41.1575 53.451 41.0683 53.0345C41.0683 53.0196 41.0683 52.9899 41.0683 52.9899C40.7859 52.8486 40.9271 52.5436 40.8156 52.3354C40.771 52.2461 40.7042 52.1718 40.6373 52.0676C40.7785 51.7404 40.6893 51.3759 40.5704 51.0264C40.5035 50.833 40.5704 50.714 40.6893 50.6024C40.8008 50.4909 40.9271 50.4463 41.0832 50.6024C41.3358 50.8553 41.6405 51.0487 41.8932 51.3016C42.0567 51.4726 42.1608 51.7032 42.3094 51.8892C42.3763 51.9784 42.4878 52.023 42.5769 52.0974C42.6512 52.1569 42.7107 52.2238 42.785 52.2759C42.8593 52.3279 42.9411 52.3726 43.0154 52.4172C43.0451 52.4321 43.0897 52.4246 43.112 52.447C43.2978 52.6255 43.5133 52.7891 43.6619 52.9973C43.8775 53.3023 44.0261 53.6592 44.249 53.9567C44.3382 54.0757 44.5389 54.1873 44.6875 54.1799C45.1037 54.1799 45.2449 54.4997 45.4158 54.7526C45.7056 55.1765 45.7056 55.6674 45.6908 56.1731C45.6833 56.4558 45.5793 56.7086 45.5719 56.9838C45.5719 57.0358 45.5273 57.1028 45.4901 57.1325C45.1928 57.3185 45.2449 57.5937 45.2895 57.8688C45.334 58.1217 45.3712 58.3746 45.4009 58.6275C45.4455 59.0217 45.4901 59.4233 45.5273 59.8175C45.5421 60.0257 45.557 60.2414 45.5496 60.4497C45.5347 61.0223 45.5793 61.6099 45.4604 62.1603C45.2969 62.9189 45.661 63.4692 46.04 64.0047C46.2704 64.332 46.6197 64.5923 46.9541 64.8303C47.3183 65.0906 47.7567 65.0981 48.1878 65.0386C48.9012 64.9493 49.57 64.6741 50.1571 64.3023C50.8929 63.8411 51.5989 63.3131 52.1414 62.6139C52.5873 62.0413 53.0852 61.5058 53.4716 60.8959C54.0364 60.0034 54.4972 59.0514 54.7424 58.0102C54.7722 57.8837 54.7796 57.735 54.7499 57.6086C54.6384 57.0582 54.4823 56.5152 54.3931 55.9649C54.3114 55.4591 54.2965 54.9385 54.2519 54.4253C54.2222 53.9939 54.1776 53.57 54.1702 53.1386C54.1702 52.5436 54.1999 51.9561 54.2074 51.3611C54.2074 50.8851 54.1851 50.4165 54.1553 49.9405C54.1553 49.8885 54.0513 49.7992 54.0067 49.8066C53.427 49.8587 52.8474 49.9033 52.2826 50C52.0225 50.0446 51.7772 50.1934 51.5171 50.305C51.4279 50.2752 51.3165 50.2529 51.205 50.2083C50.8408 50.0595 50.4767 49.8959 50.1125 49.7472C49.9788 49.6951 49.845 49.6356 49.7113 49.6133C49.2654 49.5464 48.8269 49.3976 48.3587 49.5017C48.2324 49.5315 48.0986 49.5166 47.9648 49.5017C47.9054 49.5017 47.8236 49.4348 47.8162 49.3901C47.8013 49.2637 47.779 49.1075 47.8385 49.0034C47.9128 48.8695 48.054 48.7729 48.1878 48.6836C48.4702 48.4977 48.7526 48.3117 49.0573 48.1555C49.6146 47.858 50.1943 47.6051 50.8483 47.6721C51.1827 47.7093 51.5245 47.8134 51.8515 47.7911C52.3643 47.7539 52.8771 47.6275 53.3825 47.5382C53.5385 47.5085 53.702 47.4861 53.8581 47.4415C54.1256 47.3671 54.2445 47.1812 54.2742 46.906C54.3263 46.4672 54.3931 46.0359 54.46 45.5971C54.5046 45.307 54.5269 45.0169 54.7424 44.7715C54.8167 44.6897 54.7647 44.474 54.7276 44.3327C54.4303 43.1427 54.1256 41.9527 53.8209 40.7627C53.598 39.8925 53.375 39.0298 53.1372 38.1596C53.0332 37.7654 52.8771 37.3861 52.7954 36.9919C52.721 36.6275 52.7062 36.2482 52.6616 35.8689C52.6839 35.8614 52.7136 35.8465 52.7359 35.8317C52.8176 35.9135 52.9143 35.9804 52.9737 36.0697C53.1446 36.3226 53.3007 36.5754 53.4493 36.8432C53.6649 37.2076 53.8729 37.5721 54.0736 37.9439C54.1479 38.0852 54.1628 38.2637 54.2594 38.3902C54.5269 38.7472 54.8242 39.0819 55.0917 39.4389C55.3072 39.7289 55.5153 40.0338 55.7011 40.3462C55.9835 40.8296 56.2808 41.3131 56.5037 41.8263C56.8233 42.5626 57.0908 43.3138 57.3509 44.0724C57.5664 44.7269 57.7374 45.3962 57.9306 46.0582C57.9529 46.14 57.99 46.2144 58.0272 46.3334C58.4657 46.1697 58.8967 46.0136 59.3203 45.8425C59.7662 45.6566 60.2046 45.4483 60.6505 45.2549C61.2748 44.9872 61.9065 44.7417 62.5233 44.4665C63.2442 44.1393 63.9427 43.7823 64.6636 43.4625C64.8642 43.3733 64.9088 43.2617 64.894 43.0757C64.8494 42.4882 64.8271 41.8932 64.7528 41.3131C64.619 40.19 64.4704 39.0744 64.2994 37.9588C64.2177 37.401 64.0765 36.8506 63.9353 36.3077C63.8907 36.1292 63.7569 35.973 63.6901 35.7945C63.5934 35.5491 63.4968 35.3036 63.4374 35.0433C63.3259 34.5673 63.2293 34.0839 63.1624 33.593C63.1104 33.236 63.1104 32.8641 63.103 32.4997C63.103 32.3658 63.0881 32.2171 63.1327 32.0907C63.2293 31.7932 63.534 31.7485 63.7123 32.0088C63.8758 32.2468 63.9873 32.5146 64.1211 32.7674C64.292 33.0873 64.344 33.4814 64.6636 33.7269C64.7007 33.7566 64.7156 33.831 64.723 33.8905C64.7453 34.0393 64.6636 34.2103 64.9237 34.2773C65.0129 34.2996 65.05 34.5599 65.102 34.7161C65.1912 35.0061 65.273 35.2962 65.3622 35.5788C65.4067 35.7053 65.4513 35.8391 65.5257 35.9507C66.1871 36.9919 66.5438 38.1373 66.7147 39.3422C66.8336 40.1529 66.9302 40.9635 67.0417 41.7742C67.0491 41.8486 67.0788 41.9155 67.1086 42.0271C67.6213 41.6626 68.1118 41.3205 68.5875 40.9635C69.1671 40.5247 69.7542 40.0785 70.3116 39.6099C70.7649 39.2232 71.1885 38.8066 71.6121 38.3827C72.9795 37.0068 74.2206 35.5267 75.3651 33.9723C76.1008 32.9757 76.8068 31.9493 77.5351 30.9453C77.6763 30.7519 77.8472 30.5808 78.0033 30.4023C78.033 30.4172 78.0627 30.4395 78.0925 30.4544C77.9661 30.7891 77.8547 31.1238 77.7209 31.4584C77.5574 31.8675 77.3865 32.2766 77.2081 32.6856C77.1264 32.879 77.1709 32.9683 77.431 32.9459C77.3196 33.1839 77.2304 33.3922 77.1338 33.6004C76.9034 34.0913 76.6805 34.5896 76.4352 35.0805C76.3089 35.3408 76.1008 35.5639 75.9893 35.8242C75.6549 36.6275 75.1124 37.3117 74.6591 38.0332C74.0497 39 73.4254 39.9594 72.7566 40.8817C71.954 41.9824 71.0473 43.0014 70.0218 43.8939C69.3603 44.474 68.6469 45.002 67.9409 45.5301C67.7477 45.6788 67.6585 45.8276 67.6808 46.0656C67.7403 46.6606 67.7774 47.2556 67.8443 47.8506C67.9186 48.5051 68.045 49.1521 68.097 49.8066C68.1416 50.3867 68.1416 50.9743 68.1267 51.5619C68.0896 52.6478 68.0524 53.7411 67.9632 54.8195C67.874 55.8608 67.718 56.8946 67.5693 57.9358C67.5173 58.3002 67.4133 58.6498 67.3167 59.0068C67.168 59.5349 67.2572 59.9736 67.6659 60.3753C68.0449 60.7471 68.4388 60.6058 68.8104 60.4571C69.4792 60.1819 69.9772 59.6687 70.4454 59.1183C70.869 58.6126 71.1588 58.0325 71.404 57.4375C71.6344 56.8871 71.7979 56.3218 72.0134 55.764C72.0952 55.5409 72.2364 55.3476 72.333 55.1319C72.4593 54.8567 72.5856 54.5741 72.6822 54.2914C72.9795 53.3766 73.1579 52.4246 73.6038 51.5619C73.8639 51.0636 74.0794 50.5504 74.3692 50.0744C74.7259 49.4869 75.1273 48.929 75.5137 48.3564C75.9076 47.7762 76.3237 47.2184 76.6879 46.616C76.7919 46.4449 76.7994 46.1697 76.7622 45.954C76.6879 45.5301 76.7845 45.2326 77.1412 44.9872C77.2081 44.9425 77.2601 44.8459 77.2973 44.7641C77.7283 43.8641 78.4566 43.2914 79.3781 42.9939C79.6605 42.9047 79.9949 42.9047 80.2922 43.1129C80.4557 43.2319 80.6786 43.284 80.8644 43.3733C80.9908 43.4328 81.1171 43.5071 81.2137 43.6113C81.0651 43.5666 80.909 43.522 80.7604 43.4774C80.7455 43.5146 80.7307 43.5517 80.7232 43.5815C80.8198 43.6335 80.9239 43.7377 81.0131 43.7302C81.3103 43.6931 81.4738 43.9013 81.6819 44.0426C81.7637 44.1021 81.89 44.0947 81.994 44.1244C82.0609 44.1393 82.1575 44.1467 82.1798 44.1914C82.3805 44.5037 82.6183 44.8087 82.7372 45.1508C82.9007 45.6194 82.9527 46.1251 83.0716 46.616C83.1088 46.7647 83.1905 46.906 83.2648 47.0771C83.8817 46.9581 84.5356 46.8317 85.1822 46.6978C85.6727 46.6011 86.1706 46.5119 86.6611 46.3854C87.0475 46.2813 87.4339 46.1325 87.8055 45.9615C88.4075 45.6863 89.0094 45.3962 89.5891 45.0764C90.8748 44.3624 92.0936 43.5517 93.2529 42.6518C94.2636 41.8634 95.2743 41.0751 96.2404 40.2346C96.7977 39.7512 97.2585 39.1562 97.7638 38.6133C97.9793 38.3827 98.1875 38.1522 98.4104 37.9365C98.455 37.8919 98.559 37.8993 98.6408 37.8844C98.6556 37.9662 98.7151 38.0704 98.6854 38.1373C98.5367 38.5017 98.3435 38.8438 98.2246 39.2157C98.1429 39.476 97.8753 39.714 98.0462 40.0413C98.0611 40.071 98.0462 40.1231 98.0239 40.1528C97.7638 40.4726 97.6747 40.852 97.578 41.2387C97.5557 41.328 97.5186 41.4247 97.4592 41.4842C96.6268 42.3023 95.7945 43.1204 94.9547 43.9311C94.4791 44.3922 94.0109 44.8459 93.5204 45.2847C92.6583 46.0582 91.7517 46.7796 90.7484 47.3672C89.5817 48.0514 88.4001 48.7282 87.1144 49.1745C86.2598 49.472 85.3605 49.643 84.4762 49.8661C84.1195 49.9554 83.7553 50.0074 83.406 50.0967C83.3317 50.119 83.25 50.2455 83.2351 50.3347C83.1236 50.9148 83.0642 51.5024 82.923 52.0676C82.648 53.1238 82.373 54.1724 82.0089 55.1988C81.7116 56.0392 81.1394 56.7309 80.5597 57.4077C80.0915 57.9581 79.6382 58.5085 78.9768 58.8431C78.3971 59.1406 77.7729 59.3043 77.1486 59.3638C76.3535 59.4382 75.5434 59.4381 74.7408 59.4381C74.0943 59.4381 73.522 59.2076 73.0464 58.7613C73.0093 58.7242 72.9647 58.7018 72.8978 58.6498C72.7045 58.925 72.5113 59.1927 72.333 59.4605C71.9688 59.9885 71.5601 60.4794 71.077 60.881C70.7426 61.1636 70.319 61.3496 69.9103 61.5355C69.5982 61.6768 69.2637 61.7735 68.9367 61.8553C68.4686 61.9743 68.0078 61.8776 67.6139 61.6173C67.2572 61.3867 66.9451 61.0744 66.633 60.7769C66.3803 60.5389 66.4026 60.5389 66.1499 60.7992C65.6817 61.2901 65.2432 61.8107 64.723 62.2346C64.1582 62.6883 63.4597 62.9337 62.7537 63.1122C61.8842 63.3279 60.9998 63.4767 60.0932 63.4172C59.5507 63.38 59.0007 63.38 58.4954 63.1271C58.0346 62.904 57.6482 62.6065 57.2915 62.2421C56.9942 61.9371 56.6598 61.6768 56.3328 61.3867C56.1767 61.6099 55.9835 61.9074 55.768 62.1974C55.5079 62.547 55.2552 62.904 54.9654 63.2164C54.4897 63.737 53.9918 64.2428 53.479 64.7188C52.8251 65.3286 52.1414 65.9013 51.2867 66.2285C50.6179 66.4888 49.9565 66.8012 49.2654 66.9872C48.4702 67.2029 47.6378 67.2995 46.8129 67.1285C46.3522 67.0318 45.9806 66.7343 45.6759 66.3773C45.3712 66.0203 45.126 65.6186 44.851 65.2393C44.8064 65.1724 44.7692 65.098 44.7024 64.979C44.0707 66.117 43.2309 66.9425 42.0121 67.3441C40.8305 67.7309 39.6563 68.0135 38.4896 67.3665C37.4343 66.7789 36.3418 66.1988 35.8736 64.9568C35.8439 64.9716 35.8068 64.9716 35.7993 64.9865C35.2865 66.2583 34.4319 67.2921 33.4286 68.192C32.7598 68.7945 32.0166 69.3448 31.0951 69.501C30.5526 69.5903 29.9878 69.6126 29.4379 69.5903C28.8434 69.5754 28.2414 69.5308 27.6617 69.3969C26.8963 69.2258 26.1531 68.9506 25.3951 68.7275C24.8749 68.5713 24.3993 68.3036 23.9905 67.9689C23.5298 67.5822 23.0913 67.1434 22.7346 66.6674C22.2738 66.0575 21.828 65.403 21.657 64.6444C21.5084 63.9899 21.4638 63.3131 21.3598 62.6511C21.2483 61.9297 21.33 61.2231 21.4415 60.5091C21.5233 60.0034 21.5158 59.4753 21.6496 58.9845C21.8205 58.3672 22.0806 57.7722 22.3333 57.1772C22.5042 56.7755 22.7123 56.3888 22.9427 56.0169C23.1508 55.6897 23.4034 55.3847 23.6413 55.0798C24.0128 54.6112 24.377 54.1278 24.7709 53.6816C25.0384 53.3841 25.3505 53.1312 25.6552 52.8709C26.3909 52.2462 27.2159 51.7627 28.0705 51.3388C28.5907 51.0785 29.1481 50.8925 29.7054 50.714C30.1588 50.5653 30.6344 50.4388 31.1026 50.3793C31.7417 50.2975 32.3808 50.3273 32.9233 50.7438C33.2503 50.9892 33.2429 51.4726 32.9233 51.7329C32.6855 51.9263 32.4105 52.0899 32.143 52.2387C31.8011 52.4321 31.4444 52.618 31.0877 52.7891C30.9539 52.856 30.7904 52.856 30.6567 52.9229C29.8392 53.3171 28.992 53.6741 28.2117 54.1352C27.4462 54.5889 26.7328 55.1318 26.1234 55.8087C25.4248 56.5747 24.8377 57.4226 24.3621 58.33C24.1317 58.7613 24.0128 59.2745 23.9534 59.7728C23.8493 60.6504 23.7304 61.5504 23.8048 62.428C23.9014 63.6477 24.325 64.7708 25.41 65.5146C25.4323 65.5294 25.4471 65.5443 25.4769 65.5592C26.1234 65.8418 26.7551 66.1467 27.4165 66.3847C27.9664 66.5855 28.5684 66.5855 29.1406 66.5037C29.7277 66.4219 30.2554 66.1616 30.7681 65.8344C31.6971 65.2468 32.3659 64.4212 32.9605 63.5436C33.3989 62.8966 33.7036 62.1603 34.038 61.4537C34.1867 61.1413 34.2981 60.8141 34.4022 60.4794C34.5062 60.1447 34.588 59.7951 34.6474 59.453C34.7589 58.7911 34.8629 58.1217 34.9521 57.4598C35.0041 57.0954 35.0339 56.7309 35.0487 56.3665C35.0636 55.8756 35.0785 55.3773 35.0487 54.8864C35.019 54.3584 34.967 53.8303 34.8629 53.3097C34.7589 52.8188 34.588 52.3428 34.4245 51.8668C34.2759 51.428 34.1198 50.9967 33.8523 50.595C33.6739 50.3273 33.5921 49.9926 33.4658 49.6876C33.3915 49.5166 33.2949 49.353 33.2206 49.1819C33.0868 48.877 32.9753 48.5646 32.8341 48.2671C32.7152 48.0217 32.5443 47.7911 32.418 47.5457C32.2247 47.1812 32.0538 46.8094 31.8532 46.4524C31.6599 46.1028 31.4221 45.7756 31.2363 45.426C31.0728 45.1211 30.9465 44.8012 30.8276 44.474C30.679 44.0352 30.5452 43.5889 30.4263 43.1427C30.3297 42.7857 30.2033 42.4138 30.1959 42.0494C30.1959 41.6775 30.0844 41.3354 30.0547 40.9784C30.0473 40.8519 30.0399 40.7181 30.0324 40.5917C29.9953 40.2049 30.5452 39.8777 30.8499 40.0339C31.0208 40.1157 31.1397 40.309 31.2586 40.4726C31.4147 40.6883 31.5485 40.9189 31.6822 41.1495C31.712 41.1941 31.7268 41.2536 31.7342 41.3131C31.7491 41.6924 31.8829 42.0122 32.1058 42.3246C32.2024 42.4659 32.2545 42.6295 32.418 42.7262C32.4402 42.7411 32.4328 42.8006 32.4403 42.8377C32.4848 42.9716 32.5369 43.1055 32.5814 43.2394C32.626 43.3658 32.6483 43.4923 32.6929 43.6187C32.7821 43.8716 32.8193 44.1765 32.9902 44.3476C33.28 44.6376 33.3692 45.0393 33.6367 45.3368C33.7036 45.4111 33.7408 45.5227 33.8077 45.6045C33.8597 45.6714 33.9266 45.716 33.986 45.7755C33.9637 45.7755 33.9489 45.7755 33.9266 45.7755L33.8448 45.7979ZM65.0798 47.0102C64.9906 47.0771 64.9237 47.1366 64.8568 47.1812C64.7082 47.2854 64.567 47.4044 64.4035 47.4787C64.1582 47.5903 63.8907 47.6647 63.638 47.7539C63.3036 47.8729 62.9766 48.0142 62.6422 48.1035C62.0477 48.2448 61.4457 48.3563 60.8437 48.4753C60.7174 48.4977 60.5911 48.5051 60.4722 48.5349C59.8702 48.6836 59.2682 48.8472 58.6589 48.9811C58.5028 49.0183 58.4211 49.0703 58.4285 49.2191C58.4508 49.6281 58.4879 50.0298 58.5177 50.4388C58.54 50.7512 58.592 51.0636 58.5846 51.376C58.5623 52.209 58.5251 53.0419 58.4582 53.8749C58.4211 54.3956 58.3467 54.9236 58.2576 55.4368C58.1684 55.9351 58.0346 56.426 57.9083 56.9169C57.7819 57.3929 57.6407 57.8614 57.507 58.33C57.4104 58.6721 57.2766 59.0068 57.2023 59.3563C57.1725 59.5125 57.1874 59.7356 57.284 59.8546C57.7374 60.4422 58.3244 60.8884 59.0379 61.119C59.4986 61.2678 59.9743 61.3719 60.4499 61.4463C61.0667 61.5429 61.691 61.5207 62.2706 61.238C62.6125 61.0744 62.9395 60.881 63.2442 60.6579C63.8387 60.2265 64.3589 59.7133 64.671 59.0365C64.8122 58.7316 64.9237 58.382 64.9163 58.0548C64.9014 57.6308 64.723 57.2069 64.671 56.783C64.6116 56.3144 64.5967 55.8384 64.6116 55.3624C64.6339 54.6931 64.6933 54.0237 64.7379 53.3543C64.7676 52.8262 64.7973 52.2982 64.8345 51.7776C64.8865 51.0338 64.9386 50.2901 64.9906 49.5538C65.0203 49.1373 65.0575 48.7133 65.0872 48.2968C65.1169 47.9324 65.1466 47.5606 65.1689 47.1961C65.1689 47.1441 65.1318 47.092 65.102 47.0102H65.0798ZM77.7283 48.6985C77.6614 48.7282 77.5797 48.7282 77.5574 48.7654C77.3047 49.1298 77.0446 49.4943 76.8216 49.8736C76.569 50.2975 76.3535 50.7438 76.1082 51.1677C75.8704 51.5842 75.6103 51.9858 75.3799 52.4023C75.261 52.618 75.157 52.856 75.0604 53.0866C74.9043 53.4733 74.7482 53.8526 74.607 54.2468C74.5848 54.3063 74.607 54.4104 74.6591 54.455C74.8151 54.6261 74.9935 54.7898 75.1644 54.9534C75.484 55.2583 75.8778 55.3773 76.294 55.2732C76.6359 55.1914 76.9628 55.0352 77.2824 54.8939C77.8621 54.6261 78.3005 54.1873 78.6201 53.6444C79.2443 52.5883 79.5565 51.4206 79.8166 50.2306C79.8463 50.0744 79.8092 49.9777 79.668 49.9628C79.341 49.9256 79.1403 49.6876 78.8802 49.5389C78.7093 49.4348 78.5458 49.3158 78.4046 49.1745C78.1965 48.9737 78.0181 48.7431 77.8249 48.5274C77.8026 48.5051 77.7506 48.5051 77.6837 48.4902C77.6986 48.572 77.706 48.6241 77.7209 48.691L77.7283 48.6985Z" fill="#222222"/>
<path fill-rule="evenodd" clip-rule="evenodd" d="M43.2531 47.0177C43.2531 47.159 43.2605 47.3003 43.2308 47.4268C43.1862 47.5681 43.1342 47.754 43.0227 47.8209C42.7106 47.9994 42.4059 48.2003 42.0269 48.2672C41.6776 48.3341 41.3506 48.4011 41.0162 48.2523C40.6 48.0738 40.1764 47.9251 39.8494 47.6053C39.8048 47.5606 39.7751 47.4565 39.7974 47.397C39.9088 47.0846 40.0278 46.7723 40.1615 46.4748C40.2061 46.3706 40.3027 46.2888 40.3845 46.1921C40.5182 46.0359 40.6446 45.8649 40.7932 45.7236C40.8898 45.6269 41.0236 45.5748 41.1351 45.493C41.2019 45.4484 41.2911 45.4186 41.3357 45.3591C41.4472 45.2104 41.581 45.1806 41.7667 45.1806C42.4133 45.1806 42.7031 45.6418 43.0301 46.0806C43.2456 46.3707 43.2382 46.6904 43.2456 47.0177H43.2531Z" fill="#222222"/>
</svg>
