<svg width="120" height="100" viewBox="0 0 120 100" fill="none" xmlns="http://www.w3.org/2000/svg">
<path d="M55.7859 45.3937C57.1596 45.3784 58.0432 44.4851 58.0135 43.126C57.9912 42.0647 57.219 41.263 56.224 41.263C55.0137 41.263 53.8999 42.4465 53.9148 43.7292C53.9296 44.8439 54.5534 45.4089 55.7859 45.3937Z" fill="#222222"/>
<path fill-rule="evenodd" clip-rule="evenodd" d="M35.8789 58.9997C36.6066 56.8389 37.1709 54.5942 38.1287 52.5403C38.7376 51.2423 39.8068 50.0741 40.8983 49.1274C42.7546 47.524 44.2767 47.9897 45.3757 50.517C46.8533 45.0196 48.2715 39.7436 49.712 34.4219H52.8825C52.1474 37.2011 51.4197 39.9269 50.6995 42.645C48.9769 49.1732 47.2394 55.6936 45.5687 62.237C45.4054 62.8784 45.4499 64.0695 45.7989 64.2604C46.6974 64.772 47.2988 63.8939 47.7294 63.1533C49.853 59.5418 51.0633 55.5715 52.0286 51.5019C52.2439 50.6009 52.5112 49.7076 52.7563 48.7761H55.8303C55.7635 49.135 55.7338 49.4404 55.6521 49.7305C54.5754 53.8383 53.4839 57.9384 52.437 62.0538C52.2217 62.886 51.7464 64.0084 52.7266 64.4589C53.6918 64.9017 54.3304 63.8328 54.6868 63.0922C55.912 60.5649 57.1074 58.0148 58.1247 55.3883C58.7781 53.7085 59.1048 51.8913 59.6023 50.0359C59.1196 49.9825 58.6741 49.9367 58.2212 49.8909C58.1841 49.7763 58.1469 49.6695 58.1024 49.5549C58.6073 49.4022 59.1122 49.2495 59.8473 49.0357C60.3967 47.0048 61.0056 44.76 61.6293 42.4542H64.8073C64.191 44.676 63.5821 46.8749 62.9436 49.1426C63.5005 49.2113 64.0128 49.2724 64.5326 49.3335C64.5474 49.4786 64.5697 49.616 64.5845 49.7611C64.0128 49.8527 63.4336 49.952 62.7134 50.0741C61.5848 54.3269 60.419 58.6485 59.3127 62.993C59.2162 63.3747 59.4166 64.1535 59.6468 64.2375C60.0478 64.3826 60.7457 64.2757 61.0205 63.9855C61.6665 63.2984 62.2605 62.4967 62.6614 61.6339C64.4138 57.9384 66.1364 54.2201 66.8863 50.0359C66.4631 49.9901 66.0176 49.9443 65.5721 49.8985C65.535 49.784 65.4904 49.6771 65.4533 49.5626C65.9582 49.4099 66.4631 49.2648 67.1982 49.0434C67.7477 47.0124 68.3565 44.7676 68.9802 42.4618H72.1582C71.5419 44.6836 70.9331 46.8826 70.3019 49.1503C70.8588 49.219 71.3711 49.2801 71.8835 49.3411C71.8983 49.4862 71.9206 49.6236 71.9355 49.7687C71.3563 49.8603 70.7845 49.9596 70.0643 50.0818C68.9357 54.3346 67.7699 58.6561 66.6636 62.993C66.5671 63.3747 66.7675 64.1535 66.9977 64.2375C67.3987 64.3826 68.0892 64.2757 68.3788 63.9855C69.0099 63.3442 69.5817 62.573 69.9752 61.7484C70.9925 59.6029 71.9503 57.4269 72.8413 55.2203C73.7249 53.0442 74.8535 51.0896 76.6653 49.6007C77.8384 48.6387 79.1527 48.089 80.6229 48.6692C82.145 49.2648 82.5683 50.7308 82.4792 52.1662C82.3678 54.0521 81.9446 55.9151 81.6253 57.7857C81.5362 58.3354 81.3431 58.8699 81.1501 59.5953C83.0286 59.2822 82.7093 56.9764 84.1201 56.4648C83.3924 58.0911 83.3331 60.2519 80.957 60.4962C80.764 60.5191 80.6006 60.9696 80.4447 61.2368C79.9472 62.1072 79.5537 63.0617 78.9522 63.8481C77.1108 66.2608 74.1853 66.0623 72.7225 63.3747C72.1879 62.3974 72.0097 61.2139 71.6681 60.0992C71.3192 60.8245 70.9553 61.6568 70.5247 62.4509C70.1831 63.0846 69.797 63.7107 69.3589 64.2757C68.5496 65.2988 67.5249 65.7874 66.2181 65.3751C64.9261 64.9628 64.3469 63.955 64.1242 62.6875C64.0351 62.176 64.0648 61.6339 64.0351 60.9849C63.3445 62.1225 62.7728 63.2449 62.0303 64.2299C60.82 65.8256 58.8375 66.047 57.7311 64.6651C57.1148 63.8939 56.8475 62.8326 56.4169 61.8706C56.1199 62.3592 55.7486 63.0235 55.3254 63.6649C54.6051 64.7491 53.7216 65.6118 52.333 65.5279C51.0188 65.4515 49.9199 64.3215 49.6526 62.8402C49.6006 62.5425 49.5709 62.2371 49.4966 61.6491C49.0214 62.4661 48.6947 63.0464 48.3606 63.6114C47.6329 64.833 46.6825 65.6882 45.1826 65.482C43.6827 65.2759 43.1333 64.1306 42.8214 62.7944C42.7843 62.6417 42.7546 62.4814 42.6952 62.2065C42.2423 62.9166 41.8859 63.5656 41.4478 64.1611C40.0518 66.0394 37.8243 65.8714 36.7254 63.7794C36.3467 63.054 36.1536 62.2141 35.8789 61.4277V58.9845V58.9997ZM80.2145 60.458C78.529 59.6563 78.581 58.3278 78.8631 57.0375C79.123 55.854 79.6799 54.8309 81.1278 54.8003C81.2986 54.8003 81.603 54.3651 81.6104 54.1284C81.6401 53.1664 81.655 52.1814 81.5213 51.227C81.3951 50.3337 81.0238 49.2648 80.0289 49.3564C79.3829 49.4175 78.5735 50.1428 78.232 50.7918C76.3683 54.388 75.2619 58.2591 74.6902 62.2905C74.5714 63.1456 74.5342 64.1001 75.4253 64.5353C76.3237 64.9781 77.2816 64.7109 77.8979 63.9321C78.7295 62.8784 79.3977 61.7026 80.2145 60.458ZM44.5515 52.1738C44.5515 51.9218 44.5663 51.792 44.5515 51.6775C44.3881 50.7918 44.6035 49.5396 43.512 49.3106C42.2868 49.0586 42.0121 50.3413 41.7596 51.2194C40.7424 54.7087 39.792 58.2133 38.8712 61.7255C38.6336 62.6112 38.3812 63.7641 39.4727 64.1764C40.4973 64.5658 41.0023 63.5198 41.3958 62.7715C43.163 59.4197 44.299 55.8616 44.5589 52.1662L44.5515 52.1738Z" fill="#222222"/>
<path fill-rule="evenodd" clip-rule="evenodd" d="M55.7859 45.3937C54.5608 45.4089 53.9296 44.8439 53.9148 43.7292C53.8999 42.4465 55.0137 41.263 56.224 41.263C57.2264 41.263 57.9912 42.0647 58.0135 43.126C58.0432 44.4851 57.1596 45.3784 55.7859 45.3937Z" fill="#222222"/>
</svg>
