<svg width="240" height="140" viewBox="0 0 240 140" fill="none" xmlns="http://www.w3.org/2000/svg">
<path fill-rule="evenodd" clip-rule="evenodd" d="M166.343 51.0332C166.616 51.0332 166.742 51.2012 166.742 51.4008C166.742 51.5968 166.501 51.6891 166.13 51.8317C165.665 52.0099 164.996 52.2666 164.337 52.9026C161.501 55.6226 160.63 62.1864 160.63 69.9999C160.63 77.8134 161.491 84.3771 164.337 87.0972C164.994 87.7372 165.669 87.9964 166.135 88.1758C166.503 88.3173 166.742 88.4091 166.742 88.5989C166.742 88.7985 166.616 88.9665 166.343 88.9665C158.823 86.5301 154.213 79.4832 154.213 69.9999C154.213 60.5165 158.823 53.4697 166.343 51.0332ZM36.4977 73.8329H42.6204V80.1131C41.1921 80.8797 39.8163 81.2368 37.8735 81.2368C31.7928 81.2368 28.7367 76.5949 28.7367 69.9471C28.7367 63.2993 31.6983 58.8675 37.779 58.8675C41.4022 58.8675 44.5213 60.1907 47.1783 61.8816L48.3545 54.2676C45.5505 52.6818 41.9168 51.6631 37.5794 51.6631C26.6888 51.6631 19.999 59.067 19.999 69.9996C19.999 80.9322 26.1742 88.2311 37.3589 88.2311C42.2108 88.2311 46.5481 86.9079 50.2239 84.5029V67.3426H35.4685L36.4872 73.8224L36.4977 73.8329ZM68.8762 65.8605C64.4864 64.1802 63.5202 63.3085 63.5202 61.5232C63.5202 59.8849 64.8014 58.7716 67.448 58.7716C70.0945 58.7716 73.4761 59.7903 76.6372 61.6282L77.9605 54.2768C74.8939 52.796 71.9323 51.9243 67.3429 51.9243C60.6006 51.9243 55.2866 55.5475 55.2866 62.3423C55.2866 68.1604 58.3532 70.4604 65.4001 73.1699C70.357 75.0603 71.3757 75.974 71.3757 77.9693C71.3757 80.0592 69.6429 81.1305 67.1329 81.1305C63.6147 81.1305 59.5714 79.8072 55.9482 77.8643L54.667 85.3208C58.2377 86.9591 62.2285 87.9778 66.9754 87.9778C73.9697 87.9778 79.5883 84.6066 79.5883 76.9506C79.5883 71.3321 76.5217 68.675 68.8657 65.871L68.8762 65.8605ZM100.121 61.5232C100.121 63.3085 101.098 64.1802 105.488 65.8605L105.477 65.871C113.133 68.675 116.2 71.3321 116.2 76.9506C116.2 84.6066 110.581 87.9778 103.587 87.9778C98.8398 87.9778 94.849 86.9591 91.2783 85.3208L92.5596 77.8643C96.1828 79.8072 100.216 81.1305 103.744 81.1305C106.254 81.1305 107.987 80.0592 107.987 77.9693C107.987 75.974 106.968 75.0603 102.011 73.1699C94.9645 70.4604 91.8979 68.1604 91.8979 62.3423C91.8979 55.5475 97.2015 51.9243 103.944 51.9243C108.533 51.9243 111.495 52.796 114.561 54.2768L113.238 61.6282C110.077 59.7903 106.695 58.7716 104.049 58.7716C101.402 58.7716 100.121 59.8849 100.121 61.5232ZM141.403 65.5065H129.2V52.3369H120.473V87.5712H129.2V73.1624H141.403V87.5712H150.141V52.3369H141.403V65.5065ZM178.611 51.0332C178.338 51.0332 178.212 51.2012 178.212 51.4008C178.212 51.5911 178.45 51.6829 178.818 51.8249C179.283 52.0043 179.955 52.2637 180.617 52.9026C183.463 55.6226 184.324 62.1864 184.324 69.9999C184.324 77.8134 183.452 84.3771 180.617 87.0972C179.958 87.7332 179.288 87.9899 178.824 88.1681C178.453 88.3106 178.212 88.4029 178.212 88.5989C178.212 88.7985 178.338 88.9665 178.611 88.9665C186.13 86.5301 190.741 79.4832 190.741 69.9999C190.741 60.5165 186.13 53.4697 178.611 51.0332ZM194.828 52.3369H206.16C214.74 52.3369 220.001 55.8551 220.001 63.8261C220.001 71.7972 214.33 75.8825 205.803 75.8825H203.555V87.5712H194.828V52.3369ZM203.44 69.2872H205.477C209.363 69.2872 211.505 67.5964 211.505 63.9732C211.505 60.602 209.52 58.9217 205.635 58.9217H203.44V69.2872Z" fill="#222222"/>
</svg>
