<svg width="240" height="140" viewBox="0 0 240 140" fill="none" xmlns="http://www.w3.org/2000/svg">
<path d="M106.956 64.2026H102.899V72.3169H106.956V64.2026Z" fill="#222222"/>
<path d="M115.07 84.4886V76.3743H106.955V108.842H131.309V76.3743H123.195V84.4886H115.07ZM123.184 100.728H115.07V92.6138H123.184V100.728Z" fill="#222222"/>
<path d="M119.149 28.3534L97.1514 50.3405L102.899 56.0773L119.149 39.8268L135.367 56.0445L141.104 50.3078L119.149 28.3534Z" fill="#222222"/>
<path d="M131.298 56.0889H123.184V64.2032H115.07V56.0889H106.955L106.956 72.3169L135.366 72.3175V64.2032H131.298V56.0889Z" fill="#222222"/>
<path d="M94.5336 115.092C87.03 107.905 84.7397 90.6185 84.7397 69.9947C84.7397 49.3708 87.03 32.0842 94.5336 24.8969C97.6528 21.8759 100.881 22.0831 100.881 20.9379C100.881 20.4144 100.467 20 99.7359 20C90.6728 20 68.4893 34.8872 68.4893 69.9947C68.4893 105.102 90.6728 119.989 99.7359 119.989C100.467 119.989 100.881 119.575 100.881 119.051C100.881 117.906 97.6528 118.113 94.5336 115.092Z" fill="#222222"/>
<path d="M140.264 20.0107C139.533 20.0107 139.118 20.4251 139.118 20.9486C139.118 22.0938 142.347 21.8866 145.466 24.9076C152.97 32.0949 155.26 49.3814 155.26 70.0053C155.26 90.6292 152.97 107.916 145.466 115.103C142.336 118.124 139.118 117.917 139.118 119.062C139.118 119.586 139.533 120 140.264 120C149.327 120 171.51 105.102 171.51 70.0053C171.51 34.9087 149.327 20.0107 140.264 20.0107Z" fill="#222222"/>
</svg>
