<svg width="240" height="140" viewBox="0 0 240 140" fill="none" xmlns="http://www.w3.org/2000/svg">
<path d="M119.155 28.3534L97.1572 50.3405L102.905 56.0773L119.155 39.8268L135.362 56.0445L141.11 50.3078L119.155 28.3534Z" fill="#222222"/>
<path d="M115.076 84.4886V76.3743H106.962V108.842H131.316V76.3743H123.202V84.4886H115.076ZM123.191 100.728H115.076V92.6138H123.191V100.728Z" fill="#222222"/>
<path d="M106.962 64.2026H102.904V72.3169H106.962V64.2026Z" fill="#222222"/>
<path d="M131.305 56.0889H123.191V64.2032H115.076V56.0889H106.962L106.962 72.3169L135.362 72.3175V64.2032H131.305V56.0889Z" fill="#222222"/>
<path d="M94.5287 115.092C87.0252 107.905 84.7348 90.6185 84.7348 69.9947C84.7348 49.3708 87.0252 32.0842 94.5287 24.8969C97.6479 21.8759 100.876 22.0831 100.876 20.9379C100.876 20.4144 100.462 20 99.7311 20C90.6679 20 68.4844 34.8872 68.4844 69.9947C68.4844 105.102 90.6679 119.989 99.7311 119.989C100.462 119.989 100.876 119.575 100.876 119.051C100.876 117.906 97.6479 118.113 94.5287 115.092Z" fill="#222222"/>
<path d="M140.269 20.0107C139.539 20.0107 139.124 20.4251 139.124 20.9486C139.124 22.0938 142.353 21.8866 145.472 24.9076C152.975 32.0949 155.266 49.3814 155.266 70.0053C155.266 90.6292 152.975 107.916 145.472 115.103C142.342 118.124 139.124 117.917 139.124 119.062C139.124 119.586 139.539 120 140.269 120C149.333 120 171.516 105.102 171.516 70.0053C171.516 34.9087 149.333 20.0107 140.269 20.0107Z" fill="#222222"/>
</svg>
