<svg width="240" height="140" viewBox="0 0 240 140" fill="none" xmlns="http://www.w3.org/2000/svg">
<path d="M176.476 50.9818C176.249 51.0024 176.136 51.1571 176.136 51.3428C176.136 51.7761 177.363 51.7039 178.55 52.849C181.397 55.5828 182.274 62.1645 182.274 70.0049C182.274 77.8452 181.407 84.4269 178.55 87.1607C177.363 88.3058 176.136 88.2336 176.136 88.6669C176.136 88.8526 176.249 89.0073 176.486 89.028C185.575 87.7178 191.29 80.3108 191.29 69.9636C191.29 59.6164 185.575 52.2403 176.476 50.9921V50.9818Z" fill="#222222"/>
<path d="M167.511 51.3327C167.511 51.147 167.398 51.0026 167.171 50.9717C158.072 52.2303 152.357 59.5548 152.357 69.9432C152.357 80.3316 158.072 87.6974 167.161 89.0076C167.398 88.9869 167.511 88.8322 167.511 88.6465C167.511 88.2132 166.284 88.2854 165.097 87.1403C162.25 84.4065 161.373 77.8248 161.373 69.9845C161.373 62.1441 162.24 55.5624 165.097 52.8286C166.284 51.6835 167.511 51.7557 167.511 51.3224V51.3327Z" fill="#222222"/>
<path d="M36.1964 73.8423H42.2108V80.0114C40.8078 80.7645 39.4563 81.1152 37.5478 81.1152C31.5747 81.1152 28.5728 76.5555 28.5728 70.0253C28.5728 63.4951 31.4819 59.1417 37.455 59.1417C41.0141 59.1417 44.0781 60.4415 46.6881 62.1024L47.8435 54.6232C45.089 53.0654 41.5196 52.0648 37.259 52.0648C26.5714 52.0648 20 59.3377 20 70.0769C20 80.8161 26.0659 87.9858 37.0527 87.9858C41.8188 87.9858 46.0794 86.686 49.69 84.3236V67.4669H35.1958L36.1964 73.8423Z" fill="#222222"/>
<path d="M68.0013 66.0224C63.6892 64.3718 62.7298 63.5155 62.7298 61.7618C62.7298 60.1524 63.9883 59.0589 66.588 59.0589C69.1877 59.0589 72.5095 60.0596 75.6147 61.8649L76.9146 54.6436C73.9022 53.189 70.9931 52.3327 66.4849 52.3327C59.8619 52.3327 54.6521 55.8918 54.6521 62.5664C54.6521 68.2816 57.6645 70.5409 64.5867 73.2025C69.4559 75.0594 70.4566 75.9569 70.4566 77.917C70.4566 79.9699 68.7545 81.0222 66.2889 81.0222C62.8329 81.0222 58.8612 79.7223 55.3021 77.8138L54.0435 85.1383C57.551 86.7477 61.4712 87.7483 66.1341 87.7483C73.0047 87.7483 78.5239 84.4368 78.5239 76.9163C78.5239 71.3971 75.5115 68.7871 67.991 66.0327L68.0013 66.0224Z" fill="#222222"/>
<path d="M103.963 66.0224C99.6511 64.3718 98.6917 63.5155 98.6917 61.7618C98.6917 60.1524 99.9503 59.0589 102.55 59.0589C105.15 59.0589 108.471 60.0596 111.577 61.8649L112.877 54.6436C109.864 53.189 106.955 52.3327 102.447 52.3327C95.8238 52.3327 90.6038 55.8918 90.6038 62.5664C90.6038 68.2816 93.6161 70.5409 100.538 73.2025C105.408 75.0594 106.408 75.9569 106.408 77.917C106.408 79.9699 104.706 81.0222 102.241 81.0222C98.7846 81.0222 94.8128 79.7223 91.2537 77.8138L89.9952 85.1383C93.5027 86.7477 97.4228 87.7483 102.086 87.7483C108.956 87.7483 114.476 84.4368 114.476 76.9163C114.476 71.3971 111.463 68.7871 103.943 66.0327L103.963 66.0224Z" fill="#222222"/>
<path d="M139.256 65.6715H127.258V52.7246H118.685V87.3356H127.258V73.192H139.256V87.3356H147.828V52.7246H139.256V65.6715Z" fill="#222222"/>
<path d="M206.403 52.7246H195.272V87.3356H203.845V75.8536H206.052C214.429 75.8536 220 71.8406 220 64.0106C220 56.1806 214.832 52.7246 206.403 52.7246ZM205.753 69.3853H203.742V59.2032H205.898C209.715 59.2032 211.664 60.8538 211.664 64.1653C211.664 67.7244 209.56 69.3853 205.743 69.3853H205.753Z" fill="#222222"/>
</svg>
