<svg width="240" height="140" viewBox="0 0 240 140" fill="none" xmlns="http://www.w3.org/2000/svg">
<path d="M85.6636 54.6608C85.6636 54.3491 85.4603 54.0781 85.0267 54.0781C73.1838 57.9264 65.9209 69.024 65.9209 83.97C65.9209 98.9159 73.1838 110.014 85.0267 113.862C85.4603 113.862 85.6636 113.591 85.6636 113.279C85.6636 112.588 83.7394 112.724 81.8695 110.921C77.3844 106.626 76.0158 96.3007 76.0158 83.97C76.0158 71.6392 77.3844 61.3139 81.8695 57.0185C83.7394 55.2163 85.6636 55.3383 85.6636 54.6472V54.6608Z" fill="#222222"/>
<path d="M154.973 54.0781C154.54 54.0781 154.336 54.3491 154.336 54.6608C154.336 55.3518 156.26 55.2163 158.13 57.0321C162.616 61.3275 163.984 71.6528 163.984 83.9835C163.984 96.3143 162.616 106.64 158.13 110.935C156.26 112.737 154.336 112.615 154.336 113.293C154.336 113.604 154.54 113.875 154.973 113.875C166.816 110.027 174.079 98.9295 174.079 83.9835C174.079 69.0376 166.816 57.94 154.973 54.0917V54.0781Z" fill="#222222"/>
<path d="M104.878 64.5385H99.8376V74.6199H104.878V64.5385Z" fill="#222222"/>
<path d="M92.7105 47.3174L99.8379 54.4448L120.028 34.2549L140.177 54.4041L147.305 47.2767L120.028 20L92.7105 47.3174Z" fill="#222222"/>
<path d="M114.959 89.7422V79.6608H104.878V120H135.136V79.6608H125.054V89.7422H114.959ZM125.041 109.919H114.959V99.8372H125.041V109.919Z" fill="#222222"/>
<path d="M135.136 54.4579H125.041V64.5393H114.959V54.4579H104.878L104.878 74.6199L140.176 74.6207V64.5393H135.136V54.4579Z" fill="#222222"/>
</svg>
