<svg width="500" height="176" viewBox="0 0 500 176" fill="none" xmlns="http://www.w3.org/2000/svg">
<path d="M370.683 72.5115C370.691 86.559 369.1 98.4975 363.999 103.4C363.999 103.4 362.416 104.996 359.955 105.916C359.785 105.981 359.663 106.144 359.663 106.34C359.663 106.584 359.866 106.788 360.109 106.788C360.158 106.788 360.199 106.788 360.247 106.763C373.851 102.423 382.216 89.6454 382.264 72.5115C382.313 55.3693 373.859 42.6084 360.247 38.2598C360.207 38.2516 360.158 38.2435 360.109 38.2435C359.866 38.2435 359.663 38.4471 359.663 38.6914C359.663 38.8868 359.785 39.0497 359.955 39.1149C362.416 40.0351 363.999 41.6312 363.999 41.6312C369.1 46.5336 370.667 58.4639 370.683 72.5196M327.998 72.5115C327.989 86.559 329.581 98.4975 334.681 103.4C334.681 103.4 336.265 104.996 338.734 105.916C338.905 105.981 339.026 106.144 339.026 106.34C339.026 106.584 338.823 106.788 338.58 106.788C338.539 106.788 338.49 106.788 338.45 106.763C324.846 102.423 316.481 89.6454 316.433 72.5115C316.384 55.3693 324.838 42.6084 338.45 38.2598C338.49 38.2516 338.539 38.2435 338.58 38.2435C338.823 38.2435 339.026 38.4471 339.026 38.6914C339.026 38.8868 338.905 39.0497 338.734 39.1149C336.273 40.0351 334.681 41.6312 334.681 41.6312C329.581 46.5336 328.014 58.4639 327.998 72.5196" fill="#BED730"/>
<path d="M93.859 107.203C72.6947 107.203 61 93.2448 61 72.601C61 51.9572 73.6612 37.8037 94.2488 37.8037C102.468 37.8037 109.33 39.7419 114.642 42.7468L112.416 57.1934C107.389 53.993 101.493 51.4767 94.6305 51.4767C83.1307 51.4767 77.527 60.0111 77.527 72.5114C77.527 85.0117 83.3256 93.9289 94.8254 93.9289C98.4963 93.9289 101.103 93.253 103.816 91.8034V79.8813H92.2185L90.2856 67.5683H118.223V100.134C111.263 104.695 103.044 107.211 93.8671 107.211" fill="white"/>
<path d="M149.425 106.714C140.435 106.714 132.899 104.776 126.133 101.673L128.545 87.5198C135.408 91.2007 143.042 93.7252 149.718 93.7252C154.453 93.7252 157.742 91.6893 157.742 87.7153C157.742 83.7412 155.809 82.1858 146.437 78.6026C133.102 73.4641 127.303 69.1073 127.303 58.0565C127.303 45.1653 137.357 38.2841 150.116 38.2841C158.814 38.2841 164.426 39.929 170.216 42.7386L167.707 56.6966C161.713 53.203 155.435 51.273 150.311 51.273C145.186 51.273 142.863 53.4066 142.863 56.5093C142.863 59.897 144.699 61.5501 153.015 64.7505C167.512 70.0845 173.31 75.1172 173.31 85.7852C173.31 100.321 162.68 106.722 149.434 106.722" fill="white"/>
<path d="M219.228 106.714C210.238 106.714 202.701 104.776 195.936 101.673L198.348 87.5198C205.21 91.2007 212.853 93.7252 219.52 93.7252C224.255 93.7252 227.544 91.6893 227.544 87.7153C227.544 83.7412 225.611 82.1858 216.231 78.6026C202.896 73.4641 197.097 69.1073 197.097 58.0565C197.097 45.1653 207.151 38.2841 219.91 38.2841C228.608 38.2841 234.22 39.929 240.01 42.7386L237.501 56.6966C231.507 53.203 225.23 51.273 220.105 51.273C214.98 51.273 212.666 53.4066 212.666 56.5093C212.666 59.897 214.501 61.5501 222.818 64.7505C237.314 70.0845 243.113 75.1172 243.113 85.7852C243.113 100.321 232.482 106.722 219.236 106.722" fill="white"/>
<path d="M290.794 105.94V78.6108H267.697V105.94H251.17V39.0658H267.697V64.0746H290.794V39.0658H307.329V105.94H290.794Z" fill="white"/>
<path d="M411.842 51.5741H407.684V71.2488H411.55C418.9 71.2488 422.96 68.0484 422.96 61.1671C422.96 54.7745 419.192 51.5741 411.85 51.5741M412.135 83.7491H407.879V105.948H391.352V39.0738H412.809C429.043 39.0738 439 46.3459 439 60.8821C439 75.4183 428.272 83.7573 412.126 83.7573" fill="white"/>
<path d="M208.987 149.671C201.906 149.671 197.301 144.207 197.301 136.397C197.301 128.588 202.084 123.042 208.801 123.042C211.765 123.042 214.25 123.856 216.215 125.273L215.882 127.211C213.95 125.648 211.651 124.646 208.76 124.646C202.978 124.646 199.152 129.369 199.152 136.365C199.152 143.36 202.937 148.083 209.052 148.083C211.611 148.083 213.576 147.416 215.436 146.186V137.782H209.052L208.793 136.186H217.214V147.008C214.729 148.678 212.203 149.688 208.979 149.688L208.987 149.671ZM235.284 140.445H222.972C222.972 144.907 225.051 148.034 228.942 148.034C231.053 148.034 233.278 146.919 234.992 145.355L235.252 146.992C233.66 148.442 231.354 149.557 228.868 149.557C224.272 149.557 221.194 146.137 221.194 140.445C221.194 134.752 224.385 131.332 228.609 131.332C233.059 131.332 235.284 135.233 235.284 140.07V140.445ZM228.609 132.782C225.311 132.782 223.452 135.347 223.045 138.995H233.433C233.319 135.575 231.654 132.782 228.609 132.782Z" fill="#BED730"/>
<path d="M243.446 149.484C240.961 149.484 239.329 148.442 239.329 145.502V133.189H236.624V131.699H239.329V125.485L241.075 125.11V131.69H245.339L245.558 133.181H241.067V145.192C241.067 147.236 241.879 147.945 243.812 147.945C244.372 147.945 245.144 147.798 245.558 147.684L245.818 149.101C245.371 149.289 244.405 149.476 243.446 149.476V149.484Z" fill="#BED730"/>
<path d="M261.695 149.484C259.21 149.484 257.577 148.442 257.577 145.502V133.189H254.873V131.699H257.577V125.485L259.323 125.111V131.691H263.587L263.806 133.181H259.315V145.192C259.315 147.237 260.127 147.945 262.06 147.945C262.612 147.945 263.392 147.798 263.806 147.684L264.066 149.101C263.619 149.289 262.653 149.476 261.695 149.476V149.484ZM278.611 149.183V137.025C278.611 134.386 277.353 132.936 274.868 132.936C272.943 132.936 270.937 134.052 268.744 136.096V149.191H266.998V122.969L268.744 122.594V134.313C270.856 132.489 272.748 131.34 275.046 131.34C278.644 131.34 280.349 133.352 280.349 136.805V149.191H278.603L278.611 149.183Z" fill="#BED730"/>
<path d="M297.9 140.444H285.588C285.588 144.907 287.667 148.034 291.557 148.034C293.669 148.034 295.894 146.919 297.599 145.355L297.859 146.992C296.267 148.441 293.961 149.557 291.476 149.557C286.879 149.557 283.801 146.137 283.801 140.444C283.801 134.752 286.993 131.332 291.216 131.332C295.666 131.332 297.892 135.233 297.892 140.07V140.444H297.9ZM291.224 132.781C287.927 132.781 286.067 135.347 285.661 138.995H296.048C295.934 135.575 294.27 132.781 291.224 132.781Z" fill="#BED730"/>
<path d="M310.886 137.692V149.182H309.14V131.706H310.293L310.854 135.355C312.185 133.384 314.232 131.373 317.123 131.34L317.424 132.977C314.565 133.164 312.08 135.355 310.894 137.7L310.886 137.692ZM332.432 140.444H320.12C320.12 144.907 322.199 148.034 326.089 148.034C328.201 148.034 330.426 146.919 332.131 145.355L332.391 146.992C330.8 148.441 328.501 149.557 326.016 149.557C321.419 149.557 318.341 146.137 318.341 140.444C318.341 134.752 321.533 131.332 325.756 131.332C330.207 131.332 332.432 135.233 332.432 140.07V140.444ZM325.756 132.781C322.459 132.781 320.599 135.347 320.193 138.995H330.58C330.467 135.575 328.802 132.781 325.756 132.781Z" fill="#BED730"/>
<path d="M346.75 149.183L346.344 146.838C344.525 148.434 342.373 149.549 340.188 149.549C337.256 149.549 334.925 148.059 334.925 144.9C334.925 140.991 337.89 138.914 346.271 138.132V136.609C346.271 134.158 344.825 132.961 342.413 132.961C340.407 132.961 338.369 133.523 336.444 134.525L336.225 132.888C338.19 131.992 340.196 131.365 342.494 131.365C346.052 131.365 347.984 133.189 347.984 136.536V149.183H346.75ZM346.271 139.59C339.075 140.372 336.704 141.895 336.704 144.761C336.704 146.992 338.296 148.035 340.261 148.035C342.113 148.035 344.378 146.919 346.271 145.25V139.59ZM352.467 149.183V122.961L354.173 122.586V149.175H352.467V149.183Z" fill="#BED730"/>
<path d="M373.461 149.484C371.122 149.484 368.823 148.776 367.264 147.921L367.597 146.211C369.229 147.139 371.341 147.921 373.639 147.921C376.238 147.921 377.943 146.764 377.943 144.72C377.943 142.896 376.871 141.968 373.119 140.925C369.449 139.924 367.776 138.653 367.776 135.982C367.776 133.311 370.074 131.373 373.525 131.373C375.491 131.373 377.237 131.854 378.642 132.562L378.341 134.232C376.75 133.417 375.117 132.969 373.444 132.969C370.699 132.969 369.473 134.272 369.473 135.868C369.473 137.465 370.512 138.32 373.631 139.175C377.602 140.25 379.641 141.626 379.641 144.566C379.641 147.725 377.083 149.476 373.444 149.476L373.461 149.484Z" fill="#BED730"/>
<path d="M386.406 149.484C383.921 149.484 382.288 148.442 382.288 145.502V133.189H379.584V131.699H382.288V125.485L384.034 125.11V131.69H388.298L388.517 133.181H384.026V145.192C384.026 147.236 384.838 147.945 386.771 147.945C387.324 147.945 388.103 147.798 388.517 147.684L388.777 149.101C388.331 149.289 387.364 149.476 386.406 149.476V149.484ZM397.613 149.557C393.277 149.557 389.939 146.21 389.939 140.445C389.939 134.679 393.39 131.332 397.613 131.332C401.836 131.332 405.329 134.638 405.329 140.445C405.329 146.251 401.877 149.557 397.613 149.557ZM397.613 132.855C393.829 132.855 391.75 135.941 391.75 140.445C391.75 144.948 393.861 148.034 397.613 148.034C401.365 148.034 403.51 144.989 403.51 140.445C403.51 135.901 401.398 132.855 397.613 132.855Z" fill="#BED730"/>
<path d="M410.632 137.692V149.183H408.886V131.707H410.039L410.599 135.355C411.931 133.385 413.978 131.373 416.869 131.341L417.17 132.977C414.311 133.165 411.826 135.355 410.64 137.701L410.632 137.692ZM426.396 151.862C425.315 154.761 424.057 155.804 421.726 155.804C421.425 155.804 421.133 155.771 420.914 155.73L420.654 154.208C420.914 154.208 421.247 154.248 421.766 154.248C423.285 154.248 424.105 153.613 424.844 151.683L425.77 149.305L418.981 131.902L420.686 131.528L426.623 147.22L432.227 131.715H434.046L426.404 151.87L426.396 151.862Z" fill="#BED730"/>
<path d="M436.71 146.17H434.485V149.183H436.71V146.17Z" fill="#BED730"/>
</svg>
