<svg width="240" height="140" viewBox="0 0 240 140" fill="none" xmlns="http://www.w3.org/2000/svg">
<path d="M133.676 64.6205H130.027V57.3243H122.731V64.6205H115.425V57.3243H108.129V71.9168H133.676V64.6205Z" fill="#222222"/>
<path d="M104.481 57.3148L119.093 42.7027L133.676 57.2854L138.834 52.127L119.093 32.3859L99.3229 52.1564L104.481 57.3148Z" fill="#222222"/>
<path d="M108.129 75.5645V104.759H130.027V75.5645H122.731V82.8608H115.435V75.5645H108.129ZM122.731 90.1571V97.4533H115.435V90.1571H122.731Z" fill="#222222"/>
<path d="M108.129 64.621H104.481V71.9172L108.129 71.9168L108.129 64.621Z" fill="#222222"/>
<path d="M128.311 20V27.2963H145.15V112.704H128.311V120H152.446V20H128.311Z" fill="#222222"/>
<path d="M94.8509 27.2963H111.689V20H87.5547V120H111.689V112.704H94.8509V27.2963Z" fill="#222222"/>
</svg>
