<svg width="240" height="140" viewBox="0 0 240 140" fill="none" xmlns="http://www.w3.org/2000/svg">
<path d="M36.1972 73.7816H42.2118V79.9509C40.8088 80.7041 39.4573 81.0548 37.5487 81.0548C31.5753 81.0548 28.5732 76.4949 28.5732 69.9644C28.5732 63.4339 31.4825 59.0803 37.4558 59.0803C41.0151 59.0803 44.0792 60.3802 46.6893 62.0412L47.8447 54.5616C45.0902 53.0038 41.5206 52.003 37.2598 52.003C26.5717 52.003 20 59.2763 20 70.016C20 80.7556 26.0662 87.9258 37.0535 87.9258C41.8198 87.9258 46.0806 86.6258 49.6914 84.2633V67.4058H35.1965L36.1972 73.7816Z" fill="#222222"/>
<path d="M68.0036 65.9504C63.6912 64.2998 62.742 63.4435 62.742 61.6897C62.742 60.0803 64.0007 58.9764 66.6005 58.9764C69.2003 58.9764 72.5223 59.9771 75.6276 61.7825L76.9275 54.5608C73.915 53.1062 71.0057 52.2499 66.4973 52.2499C59.874 52.2499 54.6538 55.8091 54.6538 62.484C54.6538 68.1995 57.6662 70.4588 64.5887 73.1205C69.4582 74.9775 70.4589 75.8751 70.4589 77.8353C70.4589 79.8883 68.7567 80.9406 66.291 80.9406C62.8349 80.9406 58.863 79.6407 55.3037 77.7321L54.0451 85.057C57.5528 86.6664 61.4731 87.6671 66.1362 87.6671C73.0072 87.6671 78.5266 84.3554 78.5266 76.8346C78.5266 71.3151 75.5141 68.705 67.9932 65.9504H68.0036Z" fill="#222222"/>
<path d="M103.968 65.9504C99.6555 64.2998 98.6961 63.4435 98.6961 61.6897C98.6961 60.0803 99.9547 58.9764 102.555 58.9764C105.154 58.9764 108.476 59.9771 111.582 61.7825L112.882 54.5608C109.869 53.1062 106.96 52.2499 102.451 52.2499C95.828 52.2499 90.6181 55.8091 90.6181 62.484C90.6181 68.1995 93.6306 70.4588 100.553 73.1205C105.423 74.9775 106.423 75.8751 106.423 77.8353C106.423 79.8883 104.721 80.9406 102.255 80.9406C98.7889 80.9406 94.8273 79.6407 91.2681 77.7321L90.0094 85.057C93.5171 86.6664 97.4374 87.6671 102.101 87.6671C108.971 87.6671 114.491 84.3554 114.491 76.8346C114.491 71.3151 111.478 68.705 103.958 65.9504H103.968Z" fill="#222222"/>
<path d="M139.251 65.6H127.263V52.6629H118.69V87.2754H127.263V73.1209H139.251V87.2754H147.834V52.6629H139.251V65.6Z" fill="#222222"/>
<path d="M206.403 52.6629H195.271V87.2754H203.844V75.7929H206.052C214.429 75.7929 220 71.7797 220 63.9494C220 56.119 214.831 52.6629 206.403 52.6629ZM205.753 69.3141H203.741V59.1315H205.897C209.704 59.1315 211.664 60.7822 211.664 64.0938C211.664 67.6531 209.56 69.3141 205.742 69.3141H205.753Z" fill="#222222"/>
<path d="M164.62 52.0956C164.62 51.9099 164.465 51.7552 164.207 51.7552C160.896 51.7552 152.797 57.1921 152.797 70.0054C152.797 82.8187 160.896 88.2556 164.207 88.2556C164.476 88.2556 164.62 88.1009 164.62 87.9152C164.62 87.4922 163.444 87.5747 162.299 86.4708C159.565 83.8504 158.719 77.5366 158.719 70.0054C158.719 62.4742 159.555 56.1604 162.299 53.54C163.444 52.4361 164.62 52.5083 164.62 52.0956Z" fill="#222222"/>
<path d="M179.001 51.7451C178.733 51.7451 178.578 51.8999 178.578 52.0856C178.578 52.5085 179.754 52.426 180.899 53.5299C183.643 56.1504 184.479 62.4642 184.479 69.9953C184.479 77.5265 183.643 83.8403 180.899 86.4608C179.754 87.5647 178.578 87.4924 178.578 87.9051C178.578 88.0908 178.733 88.2456 179.001 88.2456C182.312 88.2456 190.411 82.8087 190.411 69.9953C190.411 57.182 182.312 51.7451 179.001 51.7451Z" fill="#222222"/>
</svg>
