<svg width="240" height="140" viewBox="0 0 240 140" fill="none" xmlns="http://www.w3.org/2000/svg">
<path d="M175.69 50.6328C175.459 50.6538 175.343 50.8114 175.343 51.0004C175.343 51.4415 176.593 51.368 177.801 52.5338C180.7 55.3169 181.592 62.0176 181.592 69.9995C181.592 77.9814 180.71 84.6821 177.801 87.4652C176.593 88.631 175.343 88.5575 175.343 88.9986C175.343 89.1877 175.459 89.3452 175.7 89.3662C184.953 88.0324 190.772 80.4916 190.772 69.9575C190.772 59.4234 184.953 51.9141 175.69 50.6433V50.6328Z" fill="#222222"/>
<path d="M170.176 51.0004C170.176 50.8114 170.06 50.6643 169.829 50.6328C160.566 51.9141 154.747 59.3709 154.747 69.947C154.747 80.5231 160.566 88.0219 169.819 89.3557C170.06 89.3347 170.176 89.1772 170.176 88.9881C170.176 88.547 168.926 88.6205 167.718 87.4547C164.819 84.6716 163.927 77.9709 163.927 69.989C163.927 62.0071 164.809 55.3064 167.718 52.5233C168.926 51.3575 170.176 51.431 170.176 50.9899V51.0004Z" fill="#222222"/>
<path d="M36.4889 73.9165H42.612V80.197C41.1836 80.9637 39.8077 81.3208 37.8648 81.3208C31.7838 81.3208 28.7276 76.6787 28.7276 70.0306C28.7276 63.3825 31.6893 58.9504 37.7703 58.9504C41.3937 58.9504 44.5129 60.2737 47.1701 61.9646L48.3464 54.3503C45.5422 52.7644 41.9083 51.7456 37.5707 51.7456C26.6901 51.7456 20 59.1499 20 70.0831C20 81.0162 26.1755 88.3155 37.3607 88.3155C42.2129 88.3155 46.5504 86.9922 50.2263 84.5871V67.4259H35.4702L36.4889 73.906V73.9165Z" fill="#222222"/>
<path d="M68.8683 65.9451C64.4783 64.2647 63.5015 63.393 63.5015 61.6075C63.5015 59.9691 64.7828 58.8559 67.4295 58.8559C70.0761 58.8559 73.4579 59.8746 76.6192 61.7125L77.9425 54.3608C74.8758 52.8799 71.9141 52.0082 67.3245 52.0082C60.5818 52.0082 55.278 55.6316 55.278 62.4267C55.278 68.2451 58.3448 70.5452 65.392 73.2549C70.3492 75.1453 71.3679 76.059 71.3679 78.0545C71.3679 80.1445 69.635 81.2158 67.1249 81.2158C63.6066 81.2158 59.5631 79.8925 55.9397 77.9495L54.6584 85.4063C58.2293 87.0447 62.2202 88.0634 66.9674 88.0634C73.9621 88.0634 79.5809 84.6921 79.5809 77.0358C79.5809 71.4169 76.5142 68.7598 68.8578 65.9556L68.8683 65.9451Z" fill="#222222"/>
<path d="M105.48 65.9451C101.09 64.2647 100.113 63.393 100.113 61.6075C100.113 59.9691 101.394 58.8559 104.041 58.8559C106.688 58.8559 110.069 59.8746 113.231 61.7125L114.554 54.3608C111.487 52.8799 108.526 52.0082 103.936 52.0082C97.1933 52.0082 91.879 55.6316 91.879 62.4267C91.879 68.2451 94.9457 70.5452 101.993 73.2549C106.95 75.1453 107.969 76.059 107.969 78.0545C107.969 80.1445 106.236 81.2158 103.726 81.2158C100.208 81.2158 96.164 79.8925 92.5407 77.9495L91.2594 85.4063C94.8302 87.0447 98.8212 88.0634 103.568 88.0634C110.563 88.0634 116.182 84.6921 116.182 77.0358C116.182 71.4169 113.115 68.7598 105.459 65.9556L105.48 65.9451Z" fill="#222222"/>
<path d="M141.41 65.5886H129.195V52.4185H120.468V87.6545H129.195V73.245H141.41V87.6545H150.137V52.4185H141.41V65.5886Z" fill="#222222"/>
<path d="M206.158 52.4185H194.825V87.6545H203.553V75.9652H205.801C214.329 75.9652 220 71.8797 220 63.9082C220 55.9368 214.738 52.4185 206.158 52.4185ZM205.496 69.3696H203.448V59.0035H205.643C209.529 59.0035 211.514 60.684 211.514 64.0553C211.514 67.6787 209.371 69.3696 205.485 69.3696H205.496Z" fill="#222222"/>
</svg>
