<svg width="240" height="140" viewBox="0 0 240 140" fill="none" xmlns="http://www.w3.org/2000/svg">
<path d="M35.9845 73.8349H41.2719V76.9166C40.4816 77.3578 39.5074 77.6212 37.749 77.6212C33.4358 77.6212 30.397 74.6253 30.397 70.263V70.1773C30.397 65.9927 33.3072 62.911 37.3141 62.911C39.8689 62.911 42.1173 63.879 44.1392 65.6006L49.9105 58.6407C46.5654 55.7366 42.2889 53.9721 37.0016 53.9721C27.2663 53.9721 20 60.8402 20 70.0486V70.1344C20 79.692 27.7074 86.1251 37.3079 86.1251C42.9016 86.1251 47.5701 84.2319 50.9153 81.4994V67.2303H35.9845V73.8349Z" fill="#222222"/>
<path d="M68.9154 65.5514C65.6559 64.9326 64.8166 64.4057 64.8166 63.5725V63.4867C64.8166 62.7393 65.5212 62.2062 67.0651 62.2062C69.9263 62.2062 73.4062 63.1314 76.3164 65.2451L81.3342 58.2851C77.7685 55.4668 73.3634 54.0577 67.4143 54.0577C58.9105 54.0577 54.3338 58.5915 54.3338 64.4547V64.5405C54.3338 71.0593 60.4115 73.0444 67.3286 74.4535C70.6309 75.1152 71.5989 75.5992 71.5989 76.4814V76.5672C71.5989 77.4066 70.8085 77.8906 68.9582 77.8906C65.3435 77.8906 61.5143 76.8307 58.1691 74.2758L52.6612 80.8375C56.5823 84.2746 62.2189 86.033 68.4743 86.033C76.7576 86.033 82.0816 82.069 82.0816 75.5931V75.5073C82.0816 69.2948 76.7943 67.0096 68.9092 65.5514H68.9154Z" fill="#222222"/>
<path d="M107.471 65.6437C104.212 65.0249 103.372 64.498 103.372 63.6586V63.5728C103.372 62.8254 104.077 62.2924 105.621 62.2924C108.482 62.2924 111.962 63.2175 114.872 65.3312L119.896 58.3713C116.33 55.553 111.925 54.1439 105.976 54.1439C97.4721 54.1439 92.8955 58.6776 92.8955 64.5409V64.6266C92.8955 71.1455 98.9732 73.1244 105.89 74.5396C109.193 75.2013 110.161 75.6853 110.161 76.5676V76.6595C110.161 77.4989 109.364 77.9829 107.52 77.9829C103.911 77.9829 100.076 76.9291 96.7247 74.3681L91.2229 80.9298C95.144 84.3669 100.781 86.1252 107.036 86.1252C115.319 86.1252 120.649 82.1613 120.649 75.6854V75.5996C120.649 69.3871 115.362 67.0957 107.477 65.6437H107.471Z" fill="#222222"/>
<path d="M142.748 65.5943H133.325V54.7194H123.02V85.549H133.325V74.4964H142.748V85.549H153.059V54.7194H142.748V65.5943Z" fill="#222222"/>
<path d="M206.221 54.7196H192.344V85.5491H202.649V77.1801H205.994C214.321 77.1801 220 73.2161 220 65.7721V65.6802C220 58.3711 214.406 54.7135 206.215 54.7135L206.221 54.7196ZM209.836 66.4338C209.836 68.6333 208.071 69.828 205.431 69.828H202.655V62.9539H205.474C208.206 62.9539 209.836 64.0996 209.836 66.3481V66.4338Z" fill="#222222"/>
<path d="M166.373 54.1742C166.373 54.0088 166.238 53.874 166.006 53.874C163.089 53.874 155.958 58.6651 155.958 69.9505C155.958 81.2359 163.095 86.027 166.006 86.027C166.238 86.027 166.373 85.8922 166.373 85.7267C166.373 85.3591 165.338 85.4265 164.333 84.4524C161.919 82.1426 161.184 76.5796 161.184 69.9505C161.184 63.3214 161.919 57.7583 164.333 55.4486C165.338 54.4744 166.373 54.5418 166.373 54.1742Z" fill="#222222"/>
<path d="M179.043 53.874C178.81 53.874 178.676 54.0088 178.676 54.1742C178.676 54.5418 179.711 54.4744 180.716 55.4486C183.13 57.7583 183.865 63.3214 183.865 69.9505C183.865 76.5796 183.13 82.1426 180.716 84.4524C179.711 85.4265 178.676 85.3591 178.676 85.7267C178.676 85.8922 178.81 86.027 179.043 86.027C181.96 86.027 189.091 81.2359 189.091 69.9505C189.091 58.6651 181.953 53.874 179.043 53.874Z" fill="#222222"/>
</svg>
