<svg width="240" height="140" viewBox="0 0 240 140" fill="none" xmlns="http://www.w3.org/2000/svg">
<path d="M98.5315 115.069C91.0356 107.88 88.7451 90.6084 88.7451 69.9947C88.7451 49.3809 91.0356 32.1096 98.5315 24.9206C101.655 21.9068 104.877 22.1151 104.877 20.9644C104.877 20.4493 104.548 20 103.814 20C83.9999 26.4329 71.8574 44.9864 71.8574 69.9837C71.8574 94.992 83.9999 113.545 103.814 119.978C104.537 119.978 104.877 119.529 104.877 119.014C104.877 117.863 101.655 118.071 98.5315 115.058V115.069Z" fill="#222222"/>
<path d="M136.175 20.0107C135.452 20.0107 135.123 20.4491 135.123 20.9751C135.123 22.1148 138.345 21.9175 141.468 24.9313C148.964 32.1094 151.254 49.3916 151.254 70.0054C151.254 90.6191 148.964 107.89 141.468 115.079C138.345 118.093 135.123 117.885 135.123 119.036C135.123 119.551 135.452 120 136.175 120C155.989 113.567 168.142 95.0136 168.142 70.0163C168.142 45.008 155.989 26.4545 136.175 20.0326V20.0107Z" fill="#222222"/>
<path d="M107.188 55.8242V72.142H135.736V63.9886H131.66V55.8242H123.506V63.9886H115.342V55.8242H107.188Z" fill="#222222"/>
<path d="M107.189 63.9781H103.112V72.1315H107.189V63.9781Z" fill="#222222"/>
<path d="M103.112 55.8242L119.441 39.4954L135.737 55.7913L141.501 50.0269L119.441 27.9666L97.3476 50.0598L103.112 55.8242Z" fill="#222222"/>
<path d="M115.353 84.3726V76.2191H107.2V108.844H131.671V76.2191H123.518V84.3726H115.353ZM123.507 100.679H115.353V92.526H123.507V100.679Z" fill="#222222"/>
</svg>
