<svg width="240" height="140" viewBox="0 0 240 140" fill="none" xmlns="http://www.w3.org/2000/svg">
<path d="M36.489 73.9905H42.612V80.271C41.1836 81.0377 39.8078 81.3948 37.8648 81.3948C31.7839 81.3948 28.7276 76.7527 28.7276 70.1046C28.7276 63.4565 31.6894 59.0244 37.7703 59.0244C41.3937 59.0244 44.513 60.3477 47.1701 62.0386L48.3464 54.4243C45.5422 52.8384 41.9083 51.8196 37.5708 51.8196C26.6901 51.8196 20 59.2239 20 70.1571C20 81.0902 26.1755 88.3895 37.3607 88.3895C42.2129 88.3895 46.5504 87.0662 50.2263 84.6611V67.4999H35.4703L36.489 73.98V73.9905Z" fill="#222222"/>
<path d="M68.8686 66.0191C64.4785 64.3387 63.5018 63.467 63.5018 61.6815C63.5018 60.0431 64.7831 58.9299 67.4297 58.9299C70.0764 58.9299 73.4582 59.9486 76.6195 61.7866L77.9428 54.4348C74.8761 52.9539 71.9143 52.0822 67.3247 52.0822C60.5821 52.0822 55.2678 55.7056 55.2678 62.5007C55.2678 68.3191 58.3346 70.6192 65.3818 73.3289C70.339 75.2193 71.3577 76.133 71.3577 78.1285C71.3577 80.2185 69.6248 81.2898 67.1147 81.2898C63.5963 81.2898 59.5528 79.9665 55.9295 78.0235L54.6482 85.4803C58.219 87.1187 62.21 88.1374 66.9571 88.1374C73.9518 88.1374 79.5707 84.7661 79.5707 77.1098C79.5707 71.4909 76.504 68.8338 68.8476 66.0296L68.8686 66.0191Z" fill="#222222"/>
<path d="M105.481 66.0191C101.091 64.3387 100.114 63.467 100.114 61.6815C100.114 60.0431 101.395 58.9299 104.042 58.9299C106.688 58.9299 110.07 59.9486 113.232 61.7866L114.555 54.4348C111.488 52.9539 108.526 52.0822 103.937 52.0822C97.1941 52.0822 91.8903 55.7056 91.8903 62.5007C91.8903 68.3191 94.9571 70.6192 102.004 73.3289C106.961 75.2193 107.98 76.133 107.98 78.1285C107.98 80.2185 106.247 81.2898 103.737 81.2898C100.219 81.2898 96.1754 79.9665 92.552 78.0235L91.2707 85.4803C94.8415 87.1187 98.8325 88.1374 103.58 88.1374C110.574 88.1374 116.193 84.7661 116.193 77.1098C116.193 71.4909 113.126 68.8338 105.47 66.0296L105.481 66.0191Z" fill="#222222"/>
<path d="M141.41 65.6627H129.206V52.4925H120.468V87.7285H129.206V73.319H141.41V87.7285H150.137V52.4925H141.41V65.6627Z" fill="#222222"/>
<path d="M206.158 52.4925H194.825V87.7285H203.553V76.0392H205.801C214.329 76.0392 220 71.9537 220 63.9822C220 56.0108 214.738 52.4925 206.158 52.4925ZM205.496 69.4436H203.448V59.0776H205.643C209.529 59.0776 211.514 60.758 211.514 64.1293C211.514 67.7527 209.371 69.4436 205.485 69.4436H205.496Z" fill="#222222"/>
<path d="M179.513 51.5889C179.261 51.5889 179.114 51.7464 179.114 51.9249V52.1665C179.786 52.261 180.447 52.4711 181.046 52.9017C182.117 53.6789 182.611 54.9392 182.937 56.4305C183.756 60.0119 183.798 65.7883 183.798 69.5902V70.4094C183.798 74.2114 183.756 79.9878 182.937 83.5691C182.611 85.0605 182.117 86.3208 181.046 87.098C180.447 87.5286 179.786 87.7386 179.114 87.8332V88.0747C179.114 88.2428 179.24 88.3793 179.46 88.4108C186.497 85.7957 190.771 78.9795 190.771 69.9578C190.771 60.9361 186.518 54.162 179.513 51.5889Z" fill="#222222"/>
<path d="M166.018 51.5889C159.002 54.162 154.759 60.9256 154.759 69.9578C154.759 78.99 159.033 85.7957 166.07 88.4108C166.291 88.3793 166.417 88.2533 166.417 88.0747V87.8332C165.744 87.7386 165.083 87.5286 164.484 87.098C163.413 86.3313 162.919 85.0605 162.594 83.5691C161.775 79.9878 161.732 74.2114 161.732 70.4094V69.5902C161.732 65.7883 161.775 60.0119 162.594 56.4305C162.919 54.9392 163.413 53.6789 164.484 52.9017C165.083 52.4711 165.744 52.261 166.417 52.1665V51.9249C166.417 51.7359 166.27 51.5994 166.018 51.5889Z" fill="#222222"/>
</svg>
