<svg width="240" height="140" viewBox="0 0 240 140" fill="none" xmlns="http://www.w3.org/2000/svg">
<path d="M36.1972 73.7552H42.2118V79.9246C40.8088 80.6777 39.4573 81.0285 37.5487 81.0285C31.5753 81.0285 28.5732 76.4685 28.5732 69.938C28.5732 63.4076 31.4825 59.0539 37.4558 59.0539C41.0151 59.0539 44.0792 60.3538 46.6893 62.0148L47.8447 54.5352C45.0902 52.9774 41.5206 51.9767 37.2598 51.9767C26.5717 51.9767 20 59.25 20 69.9896C20 80.7293 26.0662 87.8994 37.0535 87.8994C41.8198 87.8994 46.0806 86.5995 49.6914 84.237V67.3795H35.1965L36.1972 73.7552Z" fill="#222222"/>
<path d="M68.0036 65.9349C63.6912 64.2843 62.742 63.428 62.742 61.6741C62.742 60.0647 64.0007 58.9712 66.6005 58.9712C69.2003 58.9712 72.5223 59.9719 75.6276 61.7773L76.9275 54.5556C73.915 53.101 71.0057 52.2447 66.4973 52.2447C59.874 52.2447 54.6538 55.8039 54.6538 62.4788C54.6538 68.1943 57.6662 70.4536 64.5887 73.1154C69.4582 74.9724 70.4589 75.8699 70.4589 77.8301C70.4589 79.8831 68.7567 80.9354 66.291 80.9354C62.8349 80.9354 58.863 79.6355 55.3037 77.7269L54.0451 85.0518C57.5528 86.6612 61.4731 87.6619 66.1362 87.6619C73.0072 87.6619 78.5266 84.3502 78.5266 76.8294C78.5266 71.3099 75.5141 68.6998 67.9932 65.9452L68.0036 65.9349Z" fill="#222222"/>
<path d="M103.968 65.9349C99.6555 64.2843 98.6961 63.428 98.6961 61.6741C98.6961 60.0647 99.9547 58.9712 102.555 58.9712C105.154 58.9712 108.476 59.9719 111.582 61.7773L112.882 54.5556C109.869 53.101 106.96 52.2447 102.451 52.2447C95.828 52.2447 90.6181 55.8039 90.6181 62.4788C90.6181 68.1943 93.6306 70.4536 100.553 73.1154C105.423 74.9724 106.423 75.8699 106.423 77.8301C106.423 79.8831 104.721 80.9354 102.255 80.9354C98.7889 80.9354 94.8273 79.6355 91.2681 77.7269L90.0094 85.0518C93.5171 86.6612 97.4374 87.6619 102.101 87.6619C108.971 87.6619 114.491 84.3502 114.491 76.8294C114.491 71.3099 111.478 68.6998 103.958 65.9452L103.968 65.9349Z" fill="#222222"/>
<path d="M139.251 65.584H127.263V52.6366H118.69V87.2491H127.263V73.1049H139.251V87.2491H147.834V52.6366H139.251V65.584Z" fill="#222222"/>
<path d="M164.145 51.7292C164.145 51.5332 164.021 51.3682 163.753 51.3682C156.366 53.7616 151.837 60.6841 151.837 70.0001C151.837 79.3161 156.366 86.2386 163.753 88.632C164.021 88.632 164.145 88.467 164.145 88.271C164.145 87.848 162.938 87.9202 161.782 86.7957C158.986 84.1237 158.141 77.6757 158.141 70.0001C158.141 62.3245 158.997 55.8766 161.782 53.2045C162.948 52.08 164.145 52.1625 164.145 51.7292Z" fill="#222222"/>
<path d="M179.352 51.3682C179.083 51.3682 178.96 51.5332 178.96 51.7292C178.96 52.1522 180.156 52.08 181.322 53.2045C184.118 55.8766 184.964 62.3245 184.964 70.0001C184.964 77.6757 184.108 84.1237 181.322 86.7957C180.156 87.9202 178.96 87.8377 178.96 88.271C178.96 88.467 179.083 88.632 179.352 88.632C186.738 86.2386 191.267 79.3264 191.267 70.0001C191.267 60.6841 186.738 53.7616 179.352 51.3682Z" fill="#222222"/>
<path d="M206.403 52.6366H195.271V87.2491H203.844V75.7666H206.052C214.429 75.7666 220 71.7534 220 63.9231C220 56.0927 214.831 52.6366 206.403 52.6366ZM205.753 69.298H203.741V59.1155H205.897C209.704 59.1155 211.664 60.7661 211.664 64.0778C211.664 67.6371 209.56 69.298 205.742 69.298H205.753Z" fill="#222222"/>
</svg>
