<svg width="240" height="140" viewBox="0 0 240 140" fill="none" xmlns="http://www.w3.org/2000/svg">
<path d="M67.2041 70.0047C67.2041 101.681 79.703 119.964 101.973 119.964C103.195 119.964 104.537 119.991 105.759 119.991V119.006C102.529 119.006 96.2982 118.194 96.2982 118.194V21.7973C96.2982 21.7973 102.529 20.9853 105.759 20.9853V20C104.537 20 103.195 20.0274 101.973 20.0274C79.703 20.0274 67.2041 38.3195 67.2041 69.9864V70.0047Z" fill="#222222"/>
<path d="M138.028 20.0363C136.805 20.0363 135.464 20.0089 134.241 20.0089V20.9942C137.471 20.9942 143.702 21.8062 143.702 21.8062V118.203C143.702 118.203 137.462 119.015 134.241 119.015V120C135.464 120 136.805 119.973 138.028 119.973C160.298 119.973 172.796 101.68 172.796 70.0136C172.796 38.3467 160.298 20.0545 138.028 20.0545V20.0363Z" fill="#222222"/>
</svg>
