<svg width="240" height="140" viewBox="0 0 240 140" fill="none" xmlns="http://www.w3.org/2000/svg">
<path d="M36.1964 73.9101H42.2107V80.0791C40.8077 80.8322 39.4563 81.183 37.5478 81.183C31.5748 81.183 28.5727 76.6232 28.5727 70.0931C28.5727 63.5629 31.4819 59.2095 37.455 59.2095C41.0141 59.2095 44.078 60.5093 46.688 62.1702L47.8434 54.691C45.0889 53.1333 41.5195 52.1326 37.259 52.1326C26.5714 52.1326 20 59.4055 20 70.1447C20 80.8838 26.0659 88.0535 37.0526 88.0535C41.8187 88.0535 46.0793 86.7537 49.6899 84.3913V67.5346H35.1957L36.1964 73.9101Z" fill="#222222"/>
<path d="M68.0014 66.0902C63.6892 64.4396 62.7298 63.5833 62.7298 61.8296C62.7298 60.2203 63.9884 59.1267 66.588 59.1267C69.1877 59.1267 72.5095 60.1274 75.6147 61.9327L76.9145 54.7114C73.9022 53.2568 70.993 52.4006 66.4849 52.4006C59.8619 52.4006 54.6419 55.9597 54.6419 62.6342C54.6419 68.3494 57.6543 70.6086 64.5764 73.2702C69.4456 75.1271 70.4463 76.0246 70.4463 77.9847C70.4463 80.0376 68.7441 81.0899 66.2786 81.0899C62.8227 81.0899 58.8509 79.79 55.2919 77.8815L54.0333 85.206C57.5408 86.8153 61.4609 87.816 66.1238 87.816C72.9944 87.816 78.5135 84.5045 78.5135 76.984C78.5135 71.4649 75.5012 68.8549 67.9807 66.1005L68.0014 66.0902Z" fill="#222222"/>
<path d="M103.964 66.0902C99.6515 64.4396 98.6921 63.5833 98.6921 61.8296C98.6921 60.2203 99.9507 59.1267 102.55 59.1267C105.15 59.1267 108.472 60.1274 111.577 61.9327L112.877 54.7114C109.865 53.2568 106.955 52.4006 102.447 52.4006C95.8242 52.4006 90.6145 55.9597 90.6145 62.6342C90.6145 68.3494 93.6269 70.6086 100.549 73.2702C105.418 75.1271 106.419 76.0246 106.419 77.9847C106.419 80.0376 104.717 81.0899 102.251 81.0899C98.7953 81.0899 94.8235 79.79 91.2645 77.8815L90.0059 85.206C93.5134 86.8153 97.4335 87.816 102.096 87.816C108.967 87.816 114.486 84.5045 114.486 76.984C114.486 71.4649 111.474 68.8549 103.953 66.1005L103.964 66.0902Z" fill="#222222"/>
<path d="M139.255 65.7393H127.268V52.7925H118.685V87.4032H127.268V73.2598H139.255V87.4032H147.828V52.7925H139.255V65.7393Z" fill="#222222"/>
<path d="M206.403 52.7925H195.272V87.4032H203.845V75.9213H206.053C214.429 75.9213 220 71.9084 220 64.0784C220 56.2484 214.832 52.7925 206.403 52.7925ZM205.753 69.4531H203.742V59.271H205.898C209.704 59.271 211.665 60.9216 211.665 64.2331C211.665 67.7922 209.56 69.4531 205.743 69.4531H205.753Z" fill="#222222"/>
<path d="M180.221 51.916C179.974 51.916 179.829 52.0708 179.829 52.2461V52.4834C180.489 52.5763 181.139 52.7826 181.727 53.2055C182.78 53.9586 183.264 55.2069 183.584 56.6718C184.389 60.1896 184.43 65.8635 184.43 69.5979V70.4026C184.43 74.1371 184.389 79.811 183.584 83.3288C183.264 84.7937 182.78 86.0316 181.727 86.795C181.129 87.218 180.489 87.4243 179.829 87.5171V87.7544C179.829 87.9195 179.953 88.0536 180.17 88.0845C187.081 85.5158 191.28 78.8206 191.28 69.959C191.28 61.0974 187.102 54.4435 180.221 51.916Z" fill="#222222"/>
<path d="M163.426 51.916C156.535 54.4435 152.367 61.0871 152.367 69.959C152.367 78.8309 156.566 85.5158 163.478 88.0845C163.695 88.0536 163.818 87.9298 163.818 87.7544V87.5171C163.158 87.4243 162.508 87.218 161.92 86.795C160.868 86.0419 160.383 84.7937 160.063 83.3288C159.259 79.811 159.217 74.1371 159.217 70.4026V69.5979C159.217 65.8635 159.259 60.1896 160.063 56.6718C160.383 55.2069 160.868 53.9689 161.92 53.2055C162.508 52.7826 163.158 52.5763 163.818 52.4834V52.2461C163.818 52.0604 163.674 51.9263 163.426 51.916Z" fill="#222222"/>
</svg>
