<svg width="240" height="140" viewBox="0 0 240 140" fill="none" xmlns="http://www.w3.org/2000/svg">
<path d="M36.489 73.7277H42.612V80.0082C41.1837 80.7749 39.8078 81.132 37.8648 81.132C31.7839 81.132 28.7276 76.4899 28.7276 69.8418C28.7276 63.1936 31.6893 58.7616 37.7703 58.7616C41.3937 58.7616 44.5129 60.0849 47.1701 61.7758L48.3464 54.1614C45.5422 52.5756 41.9083 51.5568 37.5707 51.5568C26.6901 51.5568 20 58.9611 20 69.8943C20 80.8274 26.1755 88.1267 37.3607 88.1267C42.2129 88.1267 46.5505 86.8034 50.2264 84.3983V67.2371H35.4702L36.489 73.7172V73.7277Z" fill="#222222"/>
<path d="M68.8788 65.7563C64.4888 64.0759 63.5121 63.2041 63.5121 61.4187C63.5121 59.7803 64.7934 58.667 67.44 58.667C70.0866 58.667 73.4685 59.6858 76.6297 61.5237L77.9531 54.1719C74.8863 52.6911 71.9246 51.8194 67.335 51.8194C60.5924 51.8194 55.2781 55.4428 55.2781 62.2379C55.2781 68.0563 58.3448 70.3564 65.3921 73.066C70.3493 74.9565 71.368 75.8702 71.368 77.8657C71.368 79.9557 69.635 81.027 67.1249 81.027C63.6066 81.027 59.5631 79.7037 55.9398 77.7607L54.6584 85.2175C58.2293 86.8559 62.2203 87.8746 66.9674 87.8746C73.9621 87.8746 79.5809 84.5033 79.5809 76.847C79.5809 71.2281 76.5142 68.5709 68.8579 65.7668L68.8788 65.7563Z" fill="#222222"/>
<path d="M105.48 65.7563C101.09 64.0759 100.113 63.2041 100.113 61.4187C100.113 59.7803 101.394 58.667 104.041 58.667C106.688 58.667 110.07 59.6858 113.231 61.5237L114.554 54.1719C111.487 52.6911 108.526 51.8194 103.936 51.8194C97.1933 51.8194 91.8791 55.4428 91.8791 62.2379C91.8791 68.0563 94.9458 70.3564 101.993 73.066C106.95 74.9565 107.969 75.8702 107.969 77.8657C107.969 79.9557 106.236 81.027 103.726 81.027C100.208 81.027 96.1641 79.7037 92.5407 77.7607L91.2594 85.2175C94.8303 86.8559 98.8213 87.8746 103.568 87.8746C110.563 87.8746 116.182 84.5033 116.182 76.847C116.182 71.2281 113.115 68.5709 105.459 65.7668L105.48 65.7563Z" fill="#222222"/>
<path d="M141.41 65.3998H129.206V52.2296H120.468V87.4657H129.206V73.0562H141.41V87.4657H150.137V52.2296H141.41V65.3998Z" fill="#222222"/>
<path d="M206.158 52.2296H194.825V87.4657H203.553V75.7764H205.801C214.329 75.7764 220 71.6909 220 63.7194C220 55.748 214.738 52.2296 206.158 52.2296ZM205.496 69.1807H203.448V58.8147H205.643C209.529 58.8147 211.514 60.4951 211.514 63.8665C211.514 67.4898 209.371 69.1807 205.485 69.1807H205.496Z" fill="#222222"/>
<path d="M175.721 51.043C175.763 51.0955 175.826 51.148 175.899 51.169H175.91C175.91 51.169 175.92 51.169 175.931 51.169C175.931 51.169 176.319 51.2845 176.908 51.5366C178.283 52.1352 179.428 53.385 180.3 54.5508C180.762 55.1705 181.182 55.8426 181.529 56.5358C182.789 58.9934 183.356 61.7766 183.535 64.5177C183.65 66.3347 183.776 68.1726 183.766 70.0001C183.776 71.8275 183.65 73.655 183.535 75.4824C183.367 78.2236 182.789 81.0067 181.529 83.4643C181.182 84.1575 180.762 84.8297 180.3 85.4493C179.428 86.6151 178.283 87.8649 176.908 88.4636C176.319 88.7156 175.931 88.8311 175.931 88.8311C175.931 88.8311 175.92 88.8311 175.91 88.8311H175.899C175.836 88.8522 175.784 88.8942 175.742 88.9362C184.616 87.4028 190.235 80.093 190.235 69.9476C190.235 59.8021 184.616 52.5133 175.731 51.043H175.721Z" fill="#222222"/>
<path d="M169.105 88.8307C169.105 88.8307 169.094 88.8307 169.084 88.8307C169.084 88.8307 168.695 88.7151 168.107 88.4631C166.731 87.8644 165.586 86.6146 164.715 85.4488C164.253 84.8292 163.832 84.157 163.486 83.4639C162.226 81.0063 161.658 78.2231 161.49 75.4819C161.375 73.665 161.249 71.827 161.259 69.9996C161.249 68.1721 161.375 66.3447 161.49 64.5172C161.658 61.7761 162.236 58.9929 163.486 56.5353C163.832 55.8421 164.253 55.17 164.715 54.5503C165.586 53.3845 166.731 52.1347 168.107 51.5361C168.695 51.284 169.084 51.1685 169.084 51.1685C169.084 51.1685 169.094 51.1685 169.105 51.1685H169.115C169.178 51.1475 169.231 51.1055 169.273 51.0635C160.398 52.5864 154.779 59.8646 154.779 70.0521C154.779 80.2396 160.43 87.4758 169.283 88.9567C169.241 88.9042 169.178 88.8622 169.115 88.8307H169.105Z" fill="#222222"/>
</svg>
