<svg width="240" height="140" viewBox="0 0 240 140" fill="none" xmlns="http://www.w3.org/2000/svg">
<path d="M36.1973 73.7756H42.2119V79.945C40.8089 80.6982 39.4574 81.0489 37.5488 81.0489C31.5754 81.0489 28.5732 76.4889 28.5732 69.9584C28.5732 63.4279 31.4825 59.0743 37.4559 59.0743C41.0152 59.0743 44.0793 60.3742 46.6894 62.0352L47.8449 54.5555C45.0903 52.9977 41.5207 51.997 37.2599 51.997C26.5717 51.997 20 59.2703 20 70.01C20 80.7497 26.0662 87.9199 37.0536 87.9199C41.8199 87.9199 46.0807 86.62 49.6916 84.2574V67.3999H35.1965L36.1973 73.7756Z" fill="#222222"/>
<path d="M68.0038 65.9445C63.6914 64.2938 62.7319 63.4375 62.7319 61.6837C62.7319 60.0743 63.9906 58.9704 66.5904 58.9704C69.1902 58.9704 72.5122 59.9711 75.6176 61.7765L76.9174 54.5548C73.905 53.1001 70.9957 52.2438 66.4872 52.2438C59.8639 52.2438 54.6539 55.8031 54.6539 62.478C54.6539 68.1935 57.6664 70.4529 64.589 73.1146C69.4585 74.9716 70.4592 75.8692 70.4592 77.8294C70.4592 79.8824 68.7569 80.9347 66.2912 80.9347C62.8351 80.9347 58.8632 79.6348 55.3039 77.7262L54.0452 85.0511C57.5529 86.6605 61.4733 87.6612 66.1365 87.6612C73.0074 87.6612 78.5269 84.3495 78.5269 76.8286C78.5269 71.3092 75.5144 68.699 67.9935 65.9445H68.0038Z" fill="#222222"/>
<path d="M103.967 65.9445C99.6549 64.2938 98.7058 63.4375 98.7058 61.6837C98.7058 60.0743 99.9644 58.9704 102.564 58.9704C105.164 58.9704 108.486 59.9711 111.591 61.7765L112.891 54.5548C109.879 53.1001 106.969 52.2438 102.461 52.2438C95.8377 52.2438 90.6174 55.8031 90.6174 62.478C90.6174 68.1935 93.6299 70.4529 100.552 73.1146C105.422 74.9716 106.423 75.8692 106.423 77.8294C106.423 79.8824 104.72 80.9347 102.255 80.9347C98.7986 80.9347 94.8267 79.6348 91.2674 77.7262L90.0088 85.0511C93.5165 86.6605 97.4368 87.6612 102.1 87.6612C108.971 87.6612 114.49 84.3495 114.49 76.8286C114.49 71.3092 111.478 68.699 103.957 65.9445H103.967Z" fill="#222222"/>
<path d="M139.251 65.5941H127.263V52.6569H118.69V87.2696H127.263V73.115H139.251V87.2696H147.835V52.6569H139.251V65.5941Z" fill="#222222"/>
<path d="M206.403 52.6569H195.271V87.2696H203.844V75.787H206.052C214.429 75.787 220 71.7738 220 63.9434C220 56.113 214.831 52.6569 206.403 52.6569ZM205.753 69.3081H203.741V59.1255H205.897C209.714 59.1255 211.664 60.7762 211.664 64.0878C211.664 67.6471 209.559 69.3081 205.742 69.3081H205.753Z" fill="#222222"/>
<path d="M164.672 52.2447C164.672 52.059 164.517 51.9043 164.259 51.9043C160.978 51.9043 152.952 57.3 152.952 69.9999C152.952 82.6998 160.978 88.0954 164.259 88.0954C164.527 88.0954 164.672 87.9407 164.672 87.755C164.672 87.3423 163.506 87.4145 162.371 86.3209C159.658 83.7211 158.822 77.4589 158.822 69.9999C158.822 62.5409 159.658 56.2786 162.371 53.6788C163.506 52.5852 164.672 52.6574 164.672 52.2447Z" fill="#222222"/>
<path d="M178.929 51.9043C178.661 51.9043 178.516 52.059 178.516 52.2447C178.516 52.6574 179.682 52.5852 180.817 53.6788C183.53 56.2786 184.366 62.5409 184.366 69.9999C184.366 77.4589 183.54 83.7211 180.817 86.3209C179.682 87.4145 178.516 87.3423 178.516 87.755C178.516 87.9407 178.661 88.0954 178.929 88.0954C182.21 88.0954 190.236 82.6998 190.236 69.9999C190.236 57.3 182.21 51.9043 178.929 51.9043Z" fill="#222222"/>
</svg>
