<svg width="240" height="140" viewBox="0 0 240 140" fill="none" xmlns="http://www.w3.org/2000/svg">
<path d="M36.1965 73.6521H42.2109V79.8212C40.8079 80.5743 39.4564 80.9251 37.5479 80.9251C31.5748 80.9251 28.5728 76.3653 28.5728 69.8351C28.5728 63.3049 31.4819 58.9515 37.455 58.9515C41.0141 58.9515 44.0781 60.2513 46.6881 61.9123L47.8435 54.433C45.089 52.8752 41.5196 51.8746 37.259 51.8746C26.5714 51.8746 20 59.1475 20 69.8867C20 80.6259 26.066 87.7957 37.0527 87.7957C41.8188 87.7957 46.0794 86.4958 49.6901 84.1334V67.2767H35.1958L36.1965 73.6521Z" fill="#222222"/>
<path d="M68.0117 65.8322C63.6995 64.1816 62.7401 63.3253 62.7401 61.5716C62.7401 59.9622 63.9987 58.8687 66.5984 58.8687C69.1981 58.8687 72.5199 59.8694 75.6251 61.6747L76.9249 54.4534C73.9126 52.9988 71.0034 52.1425 66.4952 52.1425C59.8722 52.1425 54.6522 55.7016 54.6522 62.3762C54.6522 68.0914 57.6646 70.3507 64.5868 73.0123C69.456 74.8692 70.4567 75.7667 70.4567 77.7268C70.4567 79.7797 68.7545 80.832 66.2889 80.832C62.833 80.832 58.8612 79.5321 55.3022 77.6236L54.0435 84.9481C57.5511 86.5575 61.4713 87.5581 66.1342 87.5581C73.0048 87.5581 78.5239 84.2466 78.5239 76.7261C78.5239 71.2069 75.5116 68.5969 67.9911 65.8425L68.0117 65.8322Z" fill="#222222"/>
<path d="M103.963 65.8322C99.6512 64.1816 98.6918 63.3253 98.6918 61.5716C98.6918 59.9622 99.9504 58.8687 102.55 58.8687C105.15 58.8687 108.472 59.8694 111.577 61.6747L112.877 54.4534C109.864 52.9988 106.955 52.1425 102.447 52.1425C95.8239 52.1425 90.6039 55.7016 90.6039 62.3762C90.6039 68.0914 93.6162 70.3507 100.538 73.0123C105.408 74.8692 106.408 75.7667 106.408 77.7268C106.408 79.7797 104.706 80.832 102.241 80.832C98.7847 80.832 94.8129 79.5321 91.2538 77.6236L89.9952 84.9481C93.5027 86.5575 97.4229 87.5581 102.086 87.5581C108.956 87.5581 114.476 84.2466 114.476 76.7261C114.476 71.2069 111.463 68.5969 103.943 65.8425L103.963 65.8322Z" fill="#222222"/>
<path d="M139.256 65.4813H127.268V52.5344H118.685V87.1454H127.268V73.0018H139.256V87.1454H147.828V52.5344H139.256V65.4813Z" fill="#222222"/>
<path d="M206.403 52.5344H195.272V87.1454H203.845V75.6634H206.052C214.429 75.6634 220 71.6504 220 63.8204C220 55.9904 214.832 52.5344 206.403 52.5344ZM205.753 69.1951H203.742V59.013H205.898C209.715 59.013 211.664 60.6636 211.664 63.9751C211.664 67.5342 209.56 69.1951 205.743 69.1951H205.753Z" fill="#222222"/>
<path d="M176.507 51.3789C176.549 51.4305 176.611 51.4821 176.672 51.5027H176.683C176.683 51.5027 176.693 51.5027 176.703 51.5027C176.703 51.5027 177.085 51.6162 177.663 51.8638C179.014 52.4518 180.139 53.6794 180.995 54.8245C181.449 55.4332 181.861 56.0934 182.202 56.7743C183.44 59.1883 183.997 61.9221 184.172 64.6146C184.286 66.3993 184.41 68.2047 184.399 69.9997C184.41 71.7947 184.286 73.5897 184.172 75.3847C184.007 78.0773 183.44 80.8111 182.202 83.2251C181.861 83.906 181.449 84.5662 180.995 85.1749C180.139 86.32 179.014 87.5476 177.663 88.1356C177.085 88.3832 176.703 88.4967 176.703 88.4967C176.703 88.4967 176.693 88.4967 176.683 88.4967H176.672C176.611 88.5173 176.559 88.5483 176.518 88.5998C185.235 87.0937 190.754 79.9136 190.754 69.9481C190.754 59.9826 185.235 52.8232 176.507 51.3789Z" fill="#222222"/>
<path d="M166.46 88.4972C166.46 88.4972 166.449 88.4972 166.439 88.4972C166.439 88.4972 166.057 88.3837 165.479 88.1361C164.128 87.5481 163.004 86.3205 162.147 85.1754C161.693 84.5667 161.281 83.9065 160.94 83.2256C159.702 80.8116 159.145 78.0778 158.98 75.3853C158.867 73.6006 158.743 71.7953 158.753 70.0002C158.743 68.2052 158.867 66.4102 158.98 64.6152C159.145 61.9226 159.713 59.1888 160.94 56.7748C161.281 56.094 161.693 55.4337 162.147 54.8251C163.004 53.68 164.128 52.4523 165.479 51.8643C166.057 51.6167 166.439 51.5032 166.439 51.5032C166.439 51.5032 166.449 51.5032 166.46 51.5032H166.47C166.532 51.4826 166.583 51.4413 166.625 51.4001C157.907 52.8959 152.388 60.0451 152.388 70.0518C152.388 80.0585 157.938 87.1664 166.635 88.621C166.594 88.5694 166.532 88.5282 166.47 88.4972H166.46Z" fill="#222222"/>
</svg>
