<svg width="240" height="140" viewBox="0 0 240 140" fill="none" xmlns="http://www.w3.org/2000/svg">
<path d="M98.5315 115.069C91.0355 107.88 88.7451 90.6084 88.7451 69.9947C88.7451 49.3809 91.0355 32.1096 98.5315 24.9206C101.655 21.9068 104.877 22.1151 104.877 20.9644C104.877 20.4493 104.548 20 103.814 20C83.9999 26.4329 71.8574 44.9864 71.8574 69.9837C71.8574 94.992 83.9999 113.545 103.814 119.978C104.537 119.978 104.877 119.529 104.877 119.014C104.877 117.863 101.655 118.071 98.5315 115.058V115.069Z" fill="#222222"/>
<path d="M136.176 20.0107C135.453 20.0107 135.124 20.4491 135.124 20.9751C135.124 22.1148 138.346 21.9175 141.469 24.9313C148.965 32.1094 151.255 49.3916 151.255 70.0054C151.255 90.6191 148.965 107.89 141.469 115.079C138.346 118.093 135.124 117.885 135.124 119.036C135.124 119.551 135.453 120 136.176 120C155.99 113.567 168.143 95.0136 168.143 70.0163C168.143 45.008 155.99 26.4545 136.176 20.0326V20.0107Z" fill="#222222"/>
<path d="M103.113 55.8242L119.442 39.4954L135.738 55.7913L141.502 50.0269L119.442 27.9666L97.3487 50.0598L103.113 55.8242Z" fill="#222222"/>
<path d="M107.189 55.8242V72.142H135.737V63.9886H131.661V55.8242H123.496V63.9886H115.343V55.8242H107.189Z" fill="#222222"/>
<path d="M107.19 63.9781H103.113V72.1315H107.19V63.9781Z" fill="#222222"/>
<path d="M115.343 84.3726V76.2191H107.189V108.844H131.661V76.2191H123.507V84.3726H115.343ZM123.496 100.679H115.343V92.526H123.496V100.679Z" fill="#222222"/>
</svg>
