<svg width="1268" height="115" viewBox="0 0 1268 115" fill="none" xmlns="http://www.w3.org/2000/svg">
<mask id="path-1-inside-1_308_15423" fill="white">
<path d="M0 0H1268V55H0V0Z"/>
</mask>
<path d="M0 0H1268V55H0V0Z" fill="white"/>
<path d="M1268 54H0V56H1268V54Z" fill="#D9D9D9" mask="url(#path-1-inside-1_308_15423)"/>
<path d="M589.898 23.36C590.338 23.368 590.782 23.444 591.23 23.588C591.678 23.724 592.066 23.932 592.394 24.212L591.422 25.22C591.238 25.012 591.006 24.856 590.726 24.752C590.454 24.64 590.178 24.584 589.898 24.584V27.008C590.202 27.104 590.506 27.216 590.81 27.344C591.114 27.472 591.386 27.636 591.626 27.836C591.874 28.028 592.074 28.264 592.226 28.544C592.378 28.824 592.454 29.168 592.454 29.576C592.454 29.992 592.382 30.36 592.238 30.68C592.102 30.992 591.914 31.256 591.674 31.472C591.442 31.68 591.17 31.84 590.858 31.952C590.554 32.064 590.234 32.124 589.898 32.132V32.996H589.25V32.132C588.722 32.116 588.214 32.02 587.726 31.844C587.246 31.66 586.814 31.384 586.43 31.016L587.486 30.008C587.702 30.264 587.974 30.476 588.302 30.644C588.63 30.804 588.946 30.888 589.25 30.896V28.232C588.898 28.136 588.57 28.028 588.266 27.908C587.962 27.78 587.694 27.62 587.462 27.428C587.238 27.236 587.062 27.008 586.934 26.744C586.806 26.472 586.742 26.144 586.742 25.76C586.742 25.4 586.81 25.08 586.946 24.8C587.09 24.512 587.278 24.268 587.51 24.068C587.75 23.868 588.018 23.712 588.314 23.6C588.618 23.48 588.93 23.408 589.25 23.384V22.568H589.898V23.36ZM589.25 24.584C588.97 24.616 588.722 24.72 588.506 24.896C588.29 25.072 588.182 25.336 588.182 25.688C588.182 26.024 588.282 26.28 588.482 26.456C588.69 26.624 588.946 26.752 589.25 26.84V24.584ZM589.898 30.896C590.234 30.88 590.502 30.76 590.702 30.536C590.91 30.312 591.014 30.02 591.014 29.66C591.014 29.308 590.906 29.044 590.69 28.868C590.482 28.684 590.218 28.536 589.898 28.424V30.896ZM596.61 25.256L594.93 26.636L594.09 25.64L596.742 23.504H598.05V32H596.61V25.256ZM607.246 27.752C607.246 28.44 607.178 29.06 607.042 29.612C606.914 30.164 606.722 30.632 606.466 31.016C606.218 31.4 605.906 31.696 605.53 31.904C605.162 32.112 604.738 32.216 604.258 32.216C603.778 32.216 603.35 32.112 602.974 31.904C602.598 31.696 602.282 31.4 602.026 31.016C601.77 30.632 601.574 30.164 601.438 29.612C601.31 29.06 601.246 28.44 601.246 27.752C601.246 27.064 601.31 26.444 601.438 25.892C601.574 25.34 601.77 24.872 602.026 24.488C602.282 24.104 602.598 23.808 602.974 23.6C603.35 23.392 603.778 23.288 604.258 23.288C604.738 23.288 605.162 23.392 605.53 23.6C605.906 23.808 606.218 24.104 606.466 24.488C606.722 24.872 606.914 25.34 607.042 25.892C607.178 26.444 607.246 27.064 607.246 27.752ZM605.77 27.752C605.77 27.456 605.75 27.12 605.71 26.744C605.678 26.368 605.606 26.012 605.494 25.676C605.39 25.34 605.238 25.06 605.038 24.836C604.838 24.604 604.578 24.488 604.258 24.488C603.93 24.488 603.666 24.604 603.466 24.836C603.266 25.06 603.11 25.34 602.998 25.676C602.894 26.012 602.822 26.368 602.782 26.744C602.742 27.12 602.722 27.456 602.722 27.752C602.722 28.048 602.742 28.384 602.782 28.76C602.822 29.136 602.894 29.488 602.998 29.816C603.11 30.144 603.266 30.424 603.466 30.656C603.666 30.88 603.93 30.992 604.258 30.992C604.578 30.992 604.838 30.88 605.038 30.656C605.238 30.424 605.39 30.144 605.494 29.816C605.606 29.488 605.678 29.136 605.71 28.76C605.75 28.384 605.77 28.048 605.77 27.752ZM609.038 30.344H610.43L609.41 33.512H608.198L609.038 30.344ZM617.087 24.8H613.619L613.535 26.636C613.671 26.596 613.831 26.568 614.015 26.552C614.207 26.536 614.379 26.528 614.531 26.528C614.947 26.528 615.331 26.588 615.683 26.708C616.043 26.828 616.355 27.004 616.619 27.236C616.883 27.46 617.087 27.74 617.231 28.076C617.383 28.404 617.459 28.784 617.459 29.216C617.459 29.688 617.375 30.112 617.207 30.488C617.047 30.856 616.827 31.168 616.547 31.424C616.267 31.68 615.939 31.876 615.563 32.012C615.187 32.148 614.787 32.216 614.363 32.216C613.651 32.216 613.051 32.052 612.563 31.724C612.075 31.388 611.719 30.932 611.495 30.356L612.803 29.876C612.923 30.212 613.123 30.484 613.403 30.692C613.683 30.892 614.015 30.992 614.399 30.992C614.615 30.992 614.819 30.956 615.011 30.884C615.203 30.812 615.371 30.708 615.515 30.572C615.659 30.436 615.771 30.268 615.851 30.068C615.939 29.86 615.983 29.628 615.983 29.372C615.983 29.044 615.927 28.772 615.815 28.556C615.703 28.34 615.555 28.168 615.371 28.04C615.195 27.904 614.995 27.812 614.771 27.764C614.547 27.708 614.319 27.68 614.087 27.68C613.927 27.68 613.755 27.692 613.571 27.716C613.395 27.74 613.219 27.776 613.043 27.824C612.875 27.864 612.707 27.912 612.539 27.968C612.379 28.024 612.235 28.084 612.107 28.148L612.251 23.504H617.087V24.8ZM624.412 24.8H620.944L620.86 26.636C620.996 26.596 621.156 26.568 621.34 26.552C621.532 26.536 621.704 26.528 621.856 26.528C622.272 26.528 622.656 26.588 623.008 26.708C623.368 26.828 623.68 27.004 623.944 27.236C624.208 27.46 624.412 27.74 624.556 28.076C624.708 28.404 624.784 28.784 624.784 29.216C624.784 29.688 624.7 30.112 624.532 30.488C624.372 30.856 624.152 31.168 623.872 31.424C623.592 31.68 623.264 31.876 622.888 32.012C622.512 32.148 622.112 32.216 621.688 32.216C620.976 32.216 620.376 32.052 619.888 31.724C619.4 31.388 619.044 30.932 618.82 30.356L620.128 29.876C620.248 30.212 620.448 30.484 620.728 30.692C621.008 30.892 621.34 30.992 621.724 30.992C621.94 30.992 622.144 30.956 622.336 30.884C622.528 30.812 622.696 30.708 622.84 30.572C622.984 30.436 623.096 30.268 623.176 30.068C623.264 29.86 623.308 29.628 623.308 29.372C623.308 29.044 623.252 28.772 623.14 28.556C623.028 28.34 622.88 28.168 622.696 28.04C622.52 27.904 622.32 27.812 622.096 27.764C621.872 27.708 621.644 27.68 621.412 27.68C621.252 27.68 621.08 27.692 620.896 27.716C620.72 27.74 620.544 27.776 620.368 27.824C620.2 27.864 620.032 27.912 619.864 27.968C619.704 28.024 619.56 28.084 619.432 28.148L619.576 23.504H624.412V24.8ZM632.336 27.752C632.336 28.44 632.268 29.06 632.132 29.612C632.004 30.164 631.812 30.632 631.556 31.016C631.308 31.4 630.996 31.696 630.62 31.904C630.252 32.112 629.828 32.216 629.348 32.216C628.868 32.216 628.44 32.112 628.064 31.904C627.688 31.696 627.372 31.4 627.116 31.016C626.86 30.632 626.664 30.164 626.528 29.612C626.4 29.06 626.336 28.44 626.336 27.752C626.336 27.064 626.4 26.444 626.528 25.892C626.664 25.34 626.86 24.872 627.116 24.488C627.372 24.104 627.688 23.808 628.064 23.6C628.44 23.392 628.868 23.288 629.348 23.288C629.828 23.288 630.252 23.392 630.62 23.6C630.996 23.808 631.308 24.104 631.556 24.488C631.812 24.872 632.004 25.34 632.132 25.892C632.268 26.444 632.336 27.064 632.336 27.752ZM630.86 27.752C630.86 27.456 630.84 27.12 630.8 26.744C630.768 26.368 630.696 26.012 630.584 25.676C630.48 25.34 630.328 25.06 630.128 24.836C629.928 24.604 629.668 24.488 629.348 24.488C629.02 24.488 628.756 24.604 628.556 24.836C628.356 25.06 628.2 25.34 628.088 25.676C627.984 26.012 627.912 26.368 627.872 26.744C627.832 27.12 627.812 27.456 627.812 27.752C627.812 28.048 627.832 28.384 627.872 28.76C627.912 29.136 627.984 29.488 628.088 29.816C628.2 30.144 628.356 30.424 628.556 30.656C628.756 30.88 629.02 30.992 629.348 30.992C629.668 30.992 629.928 30.88 630.128 30.656C630.328 30.424 630.48 30.144 630.584 29.816C630.696 29.488 630.768 29.136 630.8 28.76C630.84 28.384 630.86 28.048 630.86 27.752Z" fill="#222222"/>
<path d="M757.222 23.36C757.662 23.368 758.106 23.444 758.554 23.588C759.002 23.724 759.39 23.932 759.718 24.212L758.746 25.22C758.562 25.012 758.33 24.856 758.05 24.752C757.778 24.64 757.502 24.584 757.222 24.584V27.008C757.526 27.104 757.83 27.216 758.134 27.344C758.438 27.472 758.71 27.636 758.95 27.836C759.198 28.028 759.398 28.264 759.55 28.544C759.702 28.824 759.778 29.168 759.778 29.576C759.778 29.992 759.706 30.36 759.562 30.68C759.426 30.992 759.238 31.256 758.998 31.472C758.766 31.68 758.494 31.84 758.182 31.952C757.878 32.064 757.558 32.124 757.222 32.132V32.996H756.574V32.132C756.046 32.116 755.538 32.02 755.05 31.844C754.57 31.66 754.138 31.384 753.754 31.016L754.81 30.008C755.026 30.264 755.298 30.476 755.626 30.644C755.954 30.804 756.27 30.888 756.574 30.896V28.232C756.222 28.136 755.894 28.028 755.59 27.908C755.286 27.78 755.018 27.62 754.786 27.428C754.562 27.236 754.386 27.008 754.258 26.744C754.13 26.472 754.066 26.144 754.066 25.76C754.066 25.4 754.134 25.08 754.27 24.8C754.414 24.512 754.602 24.268 754.834 24.068C755.074 23.868 755.342 23.712 755.638 23.6C755.942 23.48 756.254 23.408 756.574 23.384V22.568H757.222V23.36ZM756.574 24.584C756.294 24.616 756.046 24.72 755.83 24.896C755.614 25.072 755.506 25.336 755.506 25.688C755.506 26.024 755.606 26.28 755.806 26.456C756.014 26.624 756.27 26.752 756.574 26.84V24.584ZM757.222 30.896C757.558 30.88 757.826 30.76 758.026 30.536C758.234 30.312 758.338 30.02 758.338 29.66C758.338 29.308 758.23 29.044 758.014 28.868C757.806 28.684 757.542 28.536 757.222 28.424V30.896ZM761.198 23.504H766.97V24.824L763.574 32H761.882L765.458 24.8H761.198V23.504ZM769.038 30.344H770.43L769.41 33.512H768.198L769.038 30.344ZM776.319 23.504L774.147 26.648L774.159 26.66C774.271 26.612 774.411 26.576 774.579 26.552C774.755 26.528 774.915 26.516 775.059 26.516C775.435 26.516 775.787 26.588 776.115 26.732C776.443 26.868 776.731 27.06 776.979 27.308C777.227 27.548 777.419 27.836 777.555 28.172C777.699 28.5 777.771 28.856 777.771 29.24C777.771 29.688 777.691 30.096 777.531 30.464C777.371 30.832 777.151 31.148 776.871 31.412C776.599 31.668 776.271 31.864 775.887 32C775.511 32.144 775.107 32.216 774.675 32.216C774.227 32.216 773.815 32.144 773.439 32C773.063 31.848 772.735 31.64 772.455 31.376C772.175 31.112 771.955 30.804 771.795 30.452C771.643 30.092 771.567 29.708 771.567 29.3C771.567 29.06 771.587 28.836 771.627 28.628C771.667 28.412 771.723 28.208 771.795 28.016C771.875 27.816 771.967 27.616 772.071 27.416C772.183 27.216 772.307 27.008 772.443 26.792L774.567 23.504H776.319ZM773.031 29.336C773.031 29.56 773.067 29.772 773.139 29.972C773.219 30.172 773.331 30.348 773.475 30.5C773.619 30.652 773.791 30.772 773.991 30.86C774.191 30.948 774.415 30.992 774.663 30.992C775.151 30.992 775.543 30.84 775.839 30.536C776.143 30.224 776.295 29.816 776.295 29.312C776.295 29.072 776.255 28.852 776.175 28.652C776.103 28.444 775.995 28.268 775.851 28.124C775.707 27.98 775.535 27.868 775.335 27.788C775.143 27.7 774.927 27.656 774.687 27.656C774.447 27.656 774.223 27.696 774.015 27.776C773.815 27.856 773.639 27.972 773.487 28.124C773.343 28.268 773.231 28.444 773.151 28.652C773.071 28.86 773.031 29.088 773.031 29.336ZM784.412 24.8H780.944L780.86 26.636C780.996 26.596 781.156 26.568 781.34 26.552C781.532 26.536 781.704 26.528 781.856 26.528C782.272 26.528 782.656 26.588 783.008 26.708C783.368 26.828 783.68 27.004 783.944 27.236C784.208 27.46 784.412 27.74 784.556 28.076C784.708 28.404 784.784 28.784 784.784 29.216C784.784 29.688 784.7 30.112 784.532 30.488C784.372 30.856 784.152 31.168 783.872 31.424C783.592 31.68 783.264 31.876 782.888 32.012C782.512 32.148 782.112 32.216 781.688 32.216C780.976 32.216 780.376 32.052 779.888 31.724C779.4 31.388 779.044 30.932 778.82 30.356L780.128 29.876C780.248 30.212 780.448 30.484 780.728 30.692C781.008 30.892 781.34 30.992 781.724 30.992C781.94 30.992 782.144 30.956 782.336 30.884C782.528 30.812 782.696 30.708 782.84 30.572C782.984 30.436 783.096 30.268 783.176 30.068C783.264 29.86 783.308 29.628 783.308 29.372C783.308 29.044 783.252 28.772 783.14 28.556C783.028 28.34 782.88 28.168 782.696 28.04C782.52 27.904 782.32 27.812 782.096 27.764C781.872 27.708 781.644 27.68 781.412 27.68C781.252 27.68 781.08 27.692 780.896 27.716C780.72 27.74 780.544 27.776 780.368 27.824C780.2 27.864 780.032 27.912 779.864 27.968C779.704 28.024 779.56 28.084 779.432 28.148L779.576 23.504H784.412V24.8ZM792.336 27.752C792.336 28.44 792.268 29.06 792.132 29.612C792.004 30.164 791.812 30.632 791.556 31.016C791.308 31.4 790.996 31.696 790.62 31.904C790.252 32.112 789.828 32.216 789.348 32.216C788.868 32.216 788.44 32.112 788.064 31.904C787.688 31.696 787.372 31.4 787.116 31.016C786.86 30.632 786.664 30.164 786.528 29.612C786.4 29.06 786.336 28.44 786.336 27.752C786.336 27.064 786.4 26.444 786.528 25.892C786.664 25.34 786.86 24.872 787.116 24.488C787.372 24.104 787.688 23.808 788.064 23.6C788.44 23.392 788.868 23.288 789.348 23.288C789.828 23.288 790.252 23.392 790.62 23.6C790.996 23.808 791.308 24.104 791.556 24.488C791.812 24.872 792.004 25.34 792.132 25.892C792.268 26.444 792.336 27.064 792.336 27.752ZM790.86 27.752C790.86 27.456 790.84 27.12 790.8 26.744C790.768 26.368 790.696 26.012 790.584 25.676C790.48 25.34 790.328 25.06 790.128 24.836C789.928 24.604 789.668 24.488 789.348 24.488C789.02 24.488 788.756 24.604 788.556 24.836C788.356 25.06 788.2 25.34 788.088 25.676C787.984 26.012 787.912 26.368 787.872 26.744C787.832 27.12 787.812 27.456 787.812 27.752C787.812 28.048 787.832 28.384 787.872 28.76C787.912 29.136 787.984 29.488 788.088 29.816C788.2 30.144 788.356 30.424 788.556 30.656C788.756 30.88 789.02 30.992 789.348 30.992C789.668 30.992 789.928 30.88 790.128 30.656C790.328 30.424 790.48 30.144 790.584 29.816C790.696 29.488 790.768 29.136 790.8 28.76C790.84 28.384 790.86 28.048 790.86 27.752Z" fill="#222222"/>
<path d="M677.222 23.36C677.662 23.368 678.106 23.444 678.554 23.588C679.002 23.724 679.39 23.932 679.718 24.212L678.746 25.22C678.562 25.012 678.33 24.856 678.05 24.752C677.778 24.64 677.502 24.584 677.222 24.584V27.008C677.526 27.104 677.83 27.216 678.134 27.344C678.438 27.472 678.71 27.636 678.95 27.836C679.198 28.028 679.398 28.264 679.55 28.544C679.702 28.824 679.778 29.168 679.778 29.576C679.778 29.992 679.706 30.36 679.562 30.68C679.426 30.992 679.238 31.256 678.998 31.472C678.766 31.68 678.494 31.84 678.182 31.952C677.878 32.064 677.558 32.124 677.222 32.132V32.996H676.574V32.132C676.046 32.116 675.538 32.02 675.05 31.844C674.57 31.66 674.138 31.384 673.754 31.016L674.81 30.008C675.026 30.264 675.298 30.476 675.626 30.644C675.954 30.804 676.27 30.888 676.574 30.896V28.232C676.222 28.136 675.894 28.028 675.59 27.908C675.286 27.78 675.018 27.62 674.786 27.428C674.562 27.236 674.386 27.008 674.258 26.744C674.13 26.472 674.066 26.144 674.066 25.76C674.066 25.4 674.134 25.08 674.27 24.8C674.414 24.512 674.602 24.268 674.834 24.068C675.074 23.868 675.342 23.712 675.638 23.6C675.942 23.48 676.254 23.408 676.574 23.384V22.568H677.222V23.36ZM676.574 24.584C676.294 24.616 676.046 24.72 675.83 24.896C675.614 25.072 675.506 25.336 675.506 25.688C675.506 26.024 675.606 26.28 675.806 26.456C676.014 26.624 676.27 26.752 676.574 26.84V24.584ZM677.222 30.896C677.558 30.88 677.826 30.76 678.026 30.536C678.234 30.312 678.338 30.02 678.338 29.66C678.338 29.308 678.23 29.044 678.014 28.868C677.806 28.684 677.542 28.536 677.222 28.424V30.896ZM684.246 23.288C684.614 23.288 684.962 23.34 685.29 23.444C685.618 23.548 685.902 23.7 686.142 23.9C686.39 24.1 686.582 24.344 686.718 24.632C686.862 24.912 686.934 25.232 686.934 25.592C686.934 26.088 686.81 26.5 686.562 26.828C686.314 27.156 685.998 27.384 685.614 27.512V27.536C685.838 27.592 686.046 27.684 686.238 27.812C686.43 27.932 686.598 28.084 686.742 28.268C686.886 28.444 686.998 28.644 687.078 28.868C687.166 29.092 687.21 29.336 687.21 29.6C687.21 30.024 687.13 30.4 686.97 30.728C686.818 31.048 686.606 31.32 686.334 31.544C686.07 31.768 685.758 31.936 685.398 32.048C685.038 32.16 684.654 32.216 684.246 32.216C683.838 32.216 683.454 32.16 683.094 32.048C682.734 31.936 682.418 31.768 682.146 31.544C681.882 31.32 681.67 31.048 681.51 30.728C681.358 30.4 681.282 30.024 681.282 29.6C681.282 29.328 681.326 29.076 681.414 28.844C681.502 28.612 681.618 28.408 681.762 28.232C681.914 28.056 682.086 27.912 682.278 27.8C682.47 27.68 682.67 27.592 682.878 27.536V27.512C682.494 27.376 682.178 27.156 681.93 26.852C681.682 26.548 681.558 26.148 681.558 25.652C681.558 25.292 681.626 24.968 681.762 24.68C681.906 24.384 682.098 24.136 682.338 23.936C682.586 23.728 682.87 23.568 683.19 23.456C683.518 23.344 683.87 23.288 684.246 23.288ZM684.246 24.476C683.886 24.476 683.59 24.584 683.358 24.8C683.134 25.016 683.022 25.308 683.022 25.676C683.022 26.02 683.13 26.312 683.346 26.552C683.57 26.792 683.87 26.912 684.246 26.912C684.414 26.912 684.574 26.88 684.726 26.816C684.878 26.752 685.01 26.664 685.122 26.552C685.234 26.44 685.322 26.308 685.386 26.156C685.45 26.004 685.482 25.844 685.482 25.676C685.482 25.492 685.446 25.328 685.374 25.184C685.31 25.032 685.218 24.904 685.098 24.8C684.986 24.696 684.854 24.616 684.702 24.56C684.558 24.504 684.406 24.476 684.246 24.476ZM684.246 28.136C684.038 28.136 683.842 28.172 683.658 28.244C683.482 28.316 683.326 28.416 683.19 28.544C683.062 28.664 682.958 28.816 682.878 29C682.806 29.176 682.77 29.372 682.77 29.588C682.77 30.036 682.91 30.384 683.19 30.632C683.47 30.88 683.822 31.004 684.246 31.004C684.662 31.004 685.01 30.88 685.29 30.632C685.57 30.384 685.71 30.036 685.71 29.588C685.71 29.38 685.67 29.188 685.59 29.012C685.518 28.828 685.414 28.672 685.278 28.544C685.15 28.416 684.994 28.316 684.81 28.244C684.634 28.172 684.446 28.136 684.246 28.136ZM689.038 30.344H690.43L689.41 33.512H688.198L689.038 30.344ZM697.687 27.752C697.687 28.44 697.619 29.06 697.483 29.612C697.355 30.164 697.163 30.632 696.907 31.016C696.659 31.4 696.347 31.696 695.971 31.904C695.603 32.112 695.179 32.216 694.699 32.216C694.219 32.216 693.791 32.112 693.415 31.904C693.039 31.696 692.723 31.4 692.467 31.016C692.211 30.632 692.015 30.164 691.879 29.612C691.751 29.06 691.687 28.44 691.687 27.752C691.687 27.064 691.751 26.444 691.879 25.892C692.015 25.34 692.211 24.872 692.467 24.488C692.723 24.104 693.039 23.808 693.415 23.6C693.791 23.392 694.219 23.288 694.699 23.288C695.179 23.288 695.603 23.392 695.971 23.6C696.347 23.808 696.659 24.104 696.907 24.488C697.163 24.872 697.355 25.34 697.483 25.892C697.619 26.444 697.687 27.064 697.687 27.752ZM696.211 27.752C696.211 27.456 696.191 27.12 696.151 26.744C696.119 26.368 696.047 26.012 695.935 25.676C695.831 25.34 695.679 25.06 695.479 24.836C695.279 24.604 695.019 24.488 694.699 24.488C694.371 24.488 694.107 24.604 693.907 24.836C693.707 25.06 693.551 25.34 693.439 25.676C693.335 26.012 693.263 26.368 693.223 26.744C693.183 27.12 693.163 27.456 693.163 27.752C693.163 28.048 693.183 28.384 693.223 28.76C693.263 29.136 693.335 29.488 693.439 29.816C693.551 30.144 693.707 30.424 693.907 30.656C694.107 30.88 694.371 30.992 694.699 30.992C695.019 30.992 695.279 30.88 695.479 30.656C695.679 30.424 695.831 30.144 695.935 29.816C696.047 29.488 696.119 29.136 696.151 28.76C696.191 28.384 696.211 28.048 696.211 27.752ZM700.896 26.996H701.28C701.496 26.996 701.708 26.98 701.916 26.948C702.132 26.908 702.328 26.84 702.504 26.744C702.68 26.648 702.82 26.52 702.924 26.36C703.036 26.192 703.092 25.976 703.092 25.712C703.092 25.52 703.056 25.348 702.984 25.196C702.912 25.044 702.812 24.916 702.684 24.812C702.564 24.708 702.42 24.628 702.252 24.572C702.092 24.516 701.924 24.488 701.748 24.488C701.396 24.488 701.104 24.588 700.872 24.788C700.64 24.988 700.48 25.252 700.392 25.58L699.036 25.232C699.108 24.944 699.228 24.684 699.396 24.452C699.572 24.212 699.78 24.008 700.02 23.84C700.268 23.664 700.544 23.528 700.848 23.432C701.152 23.336 701.472 23.288 701.808 23.288C702.176 23.288 702.524 23.34 702.852 23.444C703.188 23.54 703.48 23.688 703.728 23.888C703.984 24.08 704.184 24.32 704.328 24.608C704.472 24.896 704.544 25.232 704.544 25.616C704.544 26.072 704.404 26.48 704.124 26.84C703.852 27.192 703.484 27.424 703.02 27.536V27.56C703.54 27.664 703.96 27.9 704.28 28.268C704.608 28.628 704.772 29.072 704.772 29.6C704.772 30.04 704.684 30.424 704.508 30.752C704.34 31.08 704.112 31.352 703.824 31.568C703.544 31.784 703.228 31.944 702.876 32.048C702.524 32.16 702.168 32.216 701.808 32.216C701.448 32.216 701.108 32.176 700.788 32.096C700.468 32.024 700.172 31.908 699.9 31.748C699.636 31.588 699.4 31.38 699.192 31.124C698.992 30.868 698.836 30.564 698.724 30.212L700.068 29.792C700.172 30.128 700.364 30.412 700.644 30.644C700.932 30.876 701.304 30.992 701.76 30.992C701.944 30.992 702.128 30.968 702.312 30.92C702.504 30.864 702.672 30.78 702.816 30.668C702.968 30.556 703.088 30.412 703.176 30.236C703.272 30.06 703.32 29.844 703.32 29.588C703.32 29.316 703.252 29.088 703.116 28.904C702.988 28.712 702.824 28.564 702.624 28.46C702.424 28.348 702.2 28.268 701.952 28.22C701.712 28.172 701.48 28.148 701.256 28.148H700.896V26.996ZM709.336 23.288C709.704 23.288 710.052 23.34 710.38 23.444C710.708 23.548 710.992 23.7 711.232 23.9C711.48 24.1 711.672 24.344 711.808 24.632C711.952 24.912 712.024 25.232 712.024 25.592C712.024 26.088 711.9 26.5 711.652 26.828C711.404 27.156 711.088 27.384 710.704 27.512V27.536C710.928 27.592 711.136 27.684 711.328 27.812C711.52 27.932 711.688 28.084 711.832 28.268C711.976 28.444 712.088 28.644 712.168 28.868C712.256 29.092 712.3 29.336 712.3 29.6C712.3 30.024 712.22 30.4 712.06 30.728C711.908 31.048 711.696 31.32 711.424 31.544C711.16 31.768 710.848 31.936 710.488 32.048C710.128 32.16 709.744 32.216 709.336 32.216C708.928 32.216 708.544 32.16 708.184 32.048C707.824 31.936 707.508 31.768 707.236 31.544C706.972 31.32 706.76 31.048 706.6 30.728C706.448 30.4 706.372 30.024 706.372 29.6C706.372 29.328 706.416 29.076 706.504 28.844C706.592 28.612 706.708 28.408 706.852 28.232C707.004 28.056 707.176 27.912 707.368 27.8C707.56 27.68 707.76 27.592 707.968 27.536V27.512C707.584 27.376 707.268 27.156 707.02 26.852C706.772 26.548 706.648 26.148 706.648 25.652C706.648 25.292 706.716 24.968 706.852 24.68C706.996 24.384 707.188 24.136 707.428 23.936C707.676 23.728 707.96 23.568 708.28 23.456C708.608 23.344 708.96 23.288 709.336 23.288ZM709.336 24.476C708.976 24.476 708.68 24.584 708.448 24.8C708.224 25.016 708.112 25.308 708.112 25.676C708.112 26.02 708.22 26.312 708.436 26.552C708.66 26.792 708.96 26.912 709.336 26.912C709.504 26.912 709.664 26.88 709.816 26.816C709.968 26.752 710.1 26.664 710.212 26.552C710.324 26.44 710.412 26.308 710.476 26.156C710.54 26.004 710.572 25.844 710.572 25.676C710.572 25.492 710.536 25.328 710.464 25.184C710.4 25.032 710.308 24.904 710.188 24.8C710.076 24.696 709.944 24.616 709.792 24.56C709.648 24.504 709.496 24.476 709.336 24.476ZM709.336 28.136C709.128 28.136 708.932 28.172 708.748 28.244C708.572 28.316 708.416 28.416 708.28 28.544C708.152 28.664 708.048 28.816 707.968 29C707.896 29.176 707.86 29.372 707.86 29.588C707.86 30.036 708 30.384 708.28 30.632C708.56 30.88 708.912 31.004 709.336 31.004C709.752 31.004 710.1 30.88 710.38 30.632C710.66 30.384 710.8 30.036 710.8 29.588C710.8 29.38 710.76 29.188 710.68 29.012C710.608 28.828 710.504 28.672 710.368 28.544C710.24 28.416 710.084 28.316 709.9 28.244C709.724 28.172 709.536 28.136 709.336 28.136Z" fill="#222222"/>
<path d="M673.262 29H712.996V29.6H673.262V29Z" fill="#222222"/>
<path d="M846.7 25.256L845.02 26.636L844.18 25.64L846.832 23.504H848.14V32H846.7V25.256ZM853.22 26.996H853.604C853.82 26.996 854.032 26.98 854.24 26.948C854.456 26.908 854.652 26.84 854.828 26.744C855.004 26.648 855.144 26.52 855.248 26.36C855.36 26.192 855.416 25.976 855.416 25.712C855.416 25.52 855.38 25.348 855.308 25.196C855.236 25.044 855.136 24.916 855.008 24.812C854.888 24.708 854.744 24.628 854.576 24.572C854.416 24.516 854.248 24.488 854.072 24.488C853.72 24.488 853.428 24.588 853.196 24.788C852.964 24.988 852.804 25.252 852.716 25.58L851.36 25.232C851.432 24.944 851.552 24.684 851.72 24.452C851.896 24.212 852.104 24.008 852.344 23.84C852.592 23.664 852.868 23.528 853.172 23.432C853.476 23.336 853.796 23.288 854.132 23.288C854.5 23.288 854.848 23.34 855.176 23.444C855.512 23.54 855.804 23.688 856.052 23.888C856.308 24.08 856.508 24.32 856.652 24.608C856.796 24.896 856.868 25.232 856.868 25.616C856.868 26.072 856.728 26.48 856.448 26.84C856.176 27.192 855.808 27.424 855.344 27.536V27.56C855.864 27.664 856.284 27.9 856.604 28.268C856.932 28.628 857.096 29.072 857.096 29.6C857.096 30.04 857.008 30.424 856.832 30.752C856.664 31.08 856.436 31.352 856.148 31.568C855.868 31.784 855.552 31.944 855.2 32.048C854.848 32.16 854.492 32.216 854.132 32.216C853.772 32.216 853.432 32.176 853.112 32.096C852.792 32.024 852.496 31.908 852.224 31.748C851.96 31.588 851.724 31.38 851.516 31.124C851.316 30.868 851.16 30.564 851.048 30.212L852.392 29.792C852.496 30.128 852.688 30.412 852.968 30.644C853.256 30.876 853.628 30.992 854.084 30.992C854.268 30.992 854.452 30.968 854.636 30.92C854.828 30.864 854.996 30.78 855.14 30.668C855.292 30.556 855.412 30.412 855.5 30.236C855.596 30.06 855.644 29.844 855.644 29.588C855.644 29.316 855.576 29.088 855.44 28.904C855.312 28.712 855.148 28.564 854.948 28.46C854.748 28.348 854.524 28.268 854.276 28.22C854.036 28.172 853.804 28.148 853.58 28.148H853.22V26.996Z" fill="#222222"/>
<path d="M898.222 23.36C898.662 23.368 899.106 23.444 899.554 23.588C900.002 23.724 900.39 23.932 900.718 24.212L899.746 25.22C899.562 25.012 899.33 24.856 899.05 24.752C898.778 24.64 898.502 24.584 898.222 24.584V27.008C898.526 27.104 898.83 27.216 899.134 27.344C899.438 27.472 899.71 27.636 899.95 27.836C900.198 28.028 900.398 28.264 900.55 28.544C900.702 28.824 900.778 29.168 900.778 29.576C900.778 29.992 900.706 30.36 900.562 30.68C900.426 30.992 900.238 31.256 899.998 31.472C899.766 31.68 899.494 31.84 899.182 31.952C898.878 32.064 898.558 32.124 898.222 32.132V32.996H897.574V32.132C897.046 32.116 896.538 32.02 896.05 31.844C895.57 31.66 895.138 31.384 894.754 31.016L895.81 30.008C896.026 30.264 896.298 30.476 896.626 30.644C896.954 30.804 897.27 30.888 897.574 30.896V28.232C897.222 28.136 896.894 28.028 896.59 27.908C896.286 27.78 896.018 27.62 895.786 27.428C895.562 27.236 895.386 27.008 895.258 26.744C895.13 26.472 895.066 26.144 895.066 25.76C895.066 25.4 895.134 25.08 895.27 24.8C895.414 24.512 895.602 24.268 895.834 24.068C896.074 23.868 896.342 23.712 896.638 23.6C896.942 23.48 897.254 23.408 897.574 23.384V22.568H898.222V23.36ZM897.574 24.584C897.294 24.616 897.046 24.72 896.83 24.896C896.614 25.072 896.506 25.336 896.506 25.688C896.506 26.024 896.606 26.28 896.806 26.456C897.014 26.624 897.27 26.752 897.574 26.84V24.584ZM898.222 30.896C898.558 30.88 898.826 30.76 899.026 30.536C899.234 30.312 899.338 30.02 899.338 29.66C899.338 29.308 899.23 29.044 899.014 28.868C898.806 28.684 898.542 28.536 898.222 28.424V30.896ZM905.246 23.288C905.614 23.288 905.962 23.34 906.29 23.444C906.618 23.548 906.902 23.7 907.142 23.9C907.39 24.1 907.582 24.344 907.718 24.632C907.862 24.912 907.934 25.232 907.934 25.592C907.934 26.088 907.81 26.5 907.562 26.828C907.314 27.156 906.998 27.384 906.614 27.512V27.536C906.838 27.592 907.046 27.684 907.238 27.812C907.43 27.932 907.598 28.084 907.742 28.268C907.886 28.444 907.998 28.644 908.078 28.868C908.166 29.092 908.21 29.336 908.21 29.6C908.21 30.024 908.13 30.4 907.97 30.728C907.818 31.048 907.606 31.32 907.334 31.544C907.07 31.768 906.758 31.936 906.398 32.048C906.038 32.16 905.654 32.216 905.246 32.216C904.838 32.216 904.454 32.16 904.094 32.048C903.734 31.936 903.418 31.768 903.146 31.544C902.882 31.32 902.67 31.048 902.51 30.728C902.358 30.4 902.282 30.024 902.282 29.6C902.282 29.328 902.326 29.076 902.414 28.844C902.502 28.612 902.618 28.408 902.762 28.232C902.914 28.056 903.086 27.912 903.278 27.8C903.47 27.68 903.67 27.592 903.878 27.536V27.512C903.494 27.376 903.178 27.156 902.93 26.852C902.682 26.548 902.558 26.148 902.558 25.652C902.558 25.292 902.626 24.968 902.762 24.68C902.906 24.384 903.098 24.136 903.338 23.936C903.586 23.728 903.87 23.568 904.19 23.456C904.518 23.344 904.87 23.288 905.246 23.288ZM905.246 24.476C904.886 24.476 904.59 24.584 904.358 24.8C904.134 25.016 904.022 25.308 904.022 25.676C904.022 26.02 904.13 26.312 904.346 26.552C904.57 26.792 904.87 26.912 905.246 26.912C905.414 26.912 905.574 26.88 905.726 26.816C905.878 26.752 906.01 26.664 906.122 26.552C906.234 26.44 906.322 26.308 906.386 26.156C906.45 26.004 906.482 25.844 906.482 25.676C906.482 25.492 906.446 25.328 906.374 25.184C906.31 25.032 906.218 24.904 906.098 24.8C905.986 24.696 905.854 24.616 905.702 24.56C905.558 24.504 905.406 24.476 905.246 24.476ZM905.246 28.136C905.038 28.136 904.842 28.172 904.658 28.244C904.482 28.316 904.326 28.416 904.19 28.544C904.062 28.664 903.958 28.816 903.878 29C903.806 29.176 903.77 29.372 903.77 29.588C903.77 30.036 903.91 30.384 904.19 30.632C904.47 30.88 904.822 31.004 905.246 31.004C905.662 31.004 906.01 30.88 906.29 30.632C906.57 30.384 906.71 30.036 906.71 29.588C906.71 29.38 906.67 29.188 906.59 29.012C906.518 28.828 906.414 28.672 906.278 28.544C906.15 28.416 905.994 28.316 905.81 28.244C905.634 28.172 905.446 28.136 905.246 28.136ZM910.038 30.344H911.43L910.41 33.512H909.198L910.038 30.344ZM912.639 23.504H918.411V24.824L915.015 32H913.323L916.899 24.8H912.639V23.504ZM926.012 27.752C926.012 28.44 925.944 29.06 925.808 29.612C925.68 30.164 925.488 30.632 925.232 31.016C924.984 31.4 924.672 31.696 924.296 31.904C923.928 32.112 923.504 32.216 923.024 32.216C922.544 32.216 922.116 32.112 921.74 31.904C921.364 31.696 921.048 31.4 920.792 31.016C920.536 30.632 920.34 30.164 920.204 29.612C920.076 29.06 920.012 28.44 920.012 27.752C920.012 27.064 920.076 26.444 920.204 25.892C920.34 25.34 920.536 24.872 920.792 24.488C921.048 24.104 921.364 23.808 921.74 23.6C922.116 23.392 922.544 23.288 923.024 23.288C923.504 23.288 923.928 23.392 924.296 23.6C924.672 23.808 924.984 24.104 925.232 24.488C925.488 24.872 925.68 25.34 925.808 25.892C925.944 26.444 926.012 27.064 926.012 27.752ZM924.536 27.752C924.536 27.456 924.516 27.12 924.476 26.744C924.444 26.368 924.372 26.012 924.26 25.676C924.156 25.34 924.004 25.06 923.804 24.836C923.604 24.604 923.344 24.488 923.024 24.488C922.696 24.488 922.432 24.604 922.232 24.836C922.032 25.06 921.876 25.34 921.764 25.676C921.66 26.012 921.588 26.368 921.548 26.744C921.508 27.12 921.488 27.456 921.488 27.752C921.488 28.048 921.508 28.384 921.548 28.76C921.588 29.136 921.66 29.488 921.764 29.816C921.876 30.144 922.032 30.424 922.232 30.656C922.432 30.88 922.696 30.992 923.024 30.992C923.344 30.992 923.604 30.88 923.804 30.656C924.004 30.424 924.156 30.144 924.26 29.816C924.372 29.488 924.444 29.136 924.476 28.76C924.516 28.384 924.536 28.048 924.536 27.752ZM933.336 27.752C933.336 28.44 933.268 29.06 933.132 29.612C933.004 30.164 932.812 30.632 932.556 31.016C932.308 31.4 931.996 31.696 931.62 31.904C931.252 32.112 930.828 32.216 930.348 32.216C929.868 32.216 929.44 32.112 929.064 31.904C928.688 31.696 928.372 31.4 928.116 31.016C927.86 30.632 927.664 30.164 927.528 29.612C927.4 29.06 927.336 28.44 927.336 27.752C927.336 27.064 927.4 26.444 927.528 25.892C927.664 25.34 927.86 24.872 928.116 24.488C928.372 24.104 928.688 23.808 929.064 23.6C929.44 23.392 929.868 23.288 930.348 23.288C930.828 23.288 931.252 23.392 931.62 23.6C931.996 23.808 932.308 24.104 932.556 24.488C932.812 24.872 933.004 25.34 933.132 25.892C933.268 26.444 933.336 27.064 933.336 27.752ZM931.86 27.752C931.86 27.456 931.84 27.12 931.8 26.744C931.768 26.368 931.696 26.012 931.584 25.676C931.48 25.34 931.328 25.06 931.128 24.836C930.928 24.604 930.668 24.488 930.348 24.488C930.02 24.488 929.756 24.604 929.556 24.836C929.356 25.06 929.2 25.34 929.088 25.676C928.984 26.012 928.912 26.368 928.872 26.744C928.832 27.12 928.812 27.456 928.812 27.752C928.812 28.048 928.832 28.384 928.872 28.76C928.912 29.136 928.984 29.488 929.088 29.816C929.2 30.144 929.356 30.424 929.556 30.656C929.756 30.88 930.02 30.992 930.348 30.992C930.668 30.992 930.928 30.88 931.128 30.656C931.328 30.424 931.48 30.144 931.584 29.816C931.696 29.488 931.768 29.136 931.8 28.76C931.84 28.384 931.86 28.048 931.86 27.752Z" fill="#222222"/>
<path d="M18.652 24.824H16.048V23.504H22.768V24.824H20.164V32H18.652V24.824ZM22.985 27.728C22.985 27.048 23.097 26.436 23.321 25.892C23.553 25.34 23.869 24.872 24.269 24.488C24.677 24.104 25.157 23.808 25.709 23.6C26.269 23.392 26.877 23.288 27.533 23.288C28.197 23.288 28.809 23.392 29.369 23.6C29.929 23.808 30.413 24.104 30.821 24.488C31.229 24.872 31.545 25.34 31.769 25.892C32.001 26.436 32.117 27.048 32.117 27.728C32.117 28.392 32.001 29 31.769 29.552C31.545 30.096 31.229 30.568 30.821 30.968C30.413 31.36 29.929 31.668 29.369 31.892C28.809 32.108 28.197 32.216 27.533 32.216C26.877 32.216 26.269 32.108 25.709 31.892C25.157 31.668 24.677 31.36 24.269 30.968C23.869 30.568 23.553 30.096 23.321 29.552C23.097 29 22.985 28.392 22.985 27.728ZM24.629 27.728C24.629 28.184 24.697 28.604 24.833 28.988C24.977 29.364 25.177 29.692 25.433 29.972C25.697 30.252 26.005 30.472 26.357 30.632C26.717 30.784 27.113 30.86 27.545 30.86C27.977 30.86 28.373 30.784 28.733 30.632C29.093 30.472 29.401 30.252 29.657 29.972C29.921 29.692 30.121 29.364 30.257 28.988C30.401 28.604 30.473 28.184 30.473 27.728C30.473 27.288 30.401 26.88 30.257 26.504C30.121 26.128 29.925 25.8 29.669 25.52C29.413 25.24 29.105 25.02 28.745 24.86C28.385 24.7 27.985 24.62 27.545 24.62C27.105 24.62 26.705 24.7 26.345 24.86C25.993 25.02 25.689 25.24 25.433 25.52C25.177 25.8 24.977 26.128 24.833 26.504C24.697 26.88 24.629 27.288 24.629 27.728ZM34.9293 24.824H32.3253V23.504H39.0453V24.824H36.4413V32H34.9293V24.824ZM41.9828 23.504H43.2908L46.9508 32H45.2228L44.4308 30.056H40.7468L39.9788 32H38.2868L41.9828 23.504ZM43.9028 28.76L42.5948 25.304L41.2628 28.76H43.9028ZM47.7915 23.504H49.3035V30.656H52.9155V32H47.7915V23.504Z" fill="#222222"/>
<path fill-rule="evenodd" clip-rule="evenodd" d="M0 55H16V115H0V55Z" fill="#A8A18F"/>
<path d="M16.5 55.5H52.5V114.5H16.5V55.5Z" fill="#DCDFD8" stroke="#A8A18F"/>
<path fill-rule="evenodd" clip-rule="evenodd" d="M53 55H553V115H53V55Z" fill="#A8A18F"/>
<path d="M553.5 55.5H632.5V114.5H553.5V55.5Z" fill="#DCDFD8" stroke="#A8A18F"/>
<path d="M633.5 55.5H712.5V114.5H633.5V55.5Z" fill="#DCDFD8" stroke="#A8A18F"/>
<path d="M713.5 55.5H792.5V114.5H713.5V55.5Z" fill="#DCDFD8" stroke="#A8A18F"/>
<path d="M793.5 55.5H857.5V114.5H793.5V55.5Z" fill="#DCDFD8" stroke="#A8A18F"/>
<path d="M858.5 55.5H933.5V114.5H858.5V55.5Z" fill="#DCDFD8" stroke="#A8A18F"/>
<path fill-rule="evenodd" clip-rule="evenodd" d="M934 55H1056V115H934V55Z" fill="#A8A18F"/>
<path fill-rule="evenodd" clip-rule="evenodd" d="M1056 55H1159V115H1056V55Z" fill="#A8A18F"/>
<path fill-rule="evenodd" clip-rule="evenodd" d="M1159 55H1252V115H1159V55Z" fill="#A8A18F"/>
<path fill-rule="evenodd" clip-rule="evenodd" d="M1252 55H1268V115H1252V55Z" fill="#A8A18F"/>
</svg>
