<svg width="1268" height="97" viewBox="0 0 1268 97" fill="none" xmlns="http://www.w3.org/2000/svg">
<g clip-path="url(#clip0_308_15438)">
<mask id="path-1-inside-1_308_15438" fill="white">
<path d="M0 0H1268V37H0V0Z"/>
</mask>
<path d="M0 0H1268V37H0V0Z" fill="white"/>
<path d="M2.21 14.52H0.04V13.42H5.64V14.52H3.47V20.5H2.21V14.52ZM7.02086 16.94C7.02086 16.3733 7.11419 15.8633 7.30086 15.41C7.49419 14.95 7.75753 14.56 8.09086 14.24C8.43086 13.92 8.83086 13.6733 9.29086 13.5C9.75753 13.3267 10.2642 13.24 10.8109 13.24C11.3642 13.24 11.8742 13.3267 12.3409 13.5C12.8075 13.6733 13.2109 13.92 13.5509 14.24C13.8909 14.56 14.1542 14.95 14.3409 15.41C14.5342 15.8633 14.6309 16.3733 14.6309 16.94C14.6309 17.4933 14.5342 18 14.3409 18.46C14.1542 18.9133 13.8909 19.3067 13.5509 19.64C13.2109 19.9667 12.8075 20.2233 12.3409 20.41C11.8742 20.59 11.3642 20.68 10.8109 20.68C10.2642 20.68 9.75753 20.59 9.29086 20.41C8.83086 20.2233 8.43086 19.9667 8.09086 19.64C7.75753 19.3067 7.49419 18.9133 7.30086 18.46C7.11419 18 7.02086 17.4933 7.02086 16.94ZM8.39086 16.94C8.39086 17.32 8.44753 17.67 8.56086 17.99C8.68086 18.3033 8.84753 18.5767 9.06086 18.81C9.28086 19.0433 9.53753 19.2267 9.83086 19.36C10.1309 19.4867 10.4609 19.55 10.8209 19.55C11.1809 19.55 11.5109 19.4867 11.8109 19.36C12.1109 19.2267 12.3675 19.0433 12.5809 18.81C12.8009 18.5767 12.9675 18.3033 13.0809 17.99C13.2009 17.67 13.2609 17.32 13.2609 16.94C13.2609 16.5733 13.2009 16.2333 13.0809 15.92C12.9675 15.6067 12.8042 15.3333 12.5909 15.1C12.3775 14.8667 12.1209 14.6833 11.8209 14.55C11.5209 14.4167 11.1875 14.35 10.8209 14.35C10.4542 14.35 10.1209 14.4167 9.82086 14.55C9.52753 14.6833 9.27419 14.8667 9.06086 15.1C8.84753 15.3333 8.68086 15.6067 8.56086 15.92C8.44753 16.2333 8.39086 16.5733 8.39086 16.94ZM18.1745 14.52H16.0045V13.42H21.6045V14.52H19.4345V20.5H18.1745V14.52ZM25.2523 13.42H26.3423L29.3923 20.5H27.9523L27.2923 18.88H24.2223L23.5823 20.5H22.1723L25.2523 13.42ZM26.8523 17.8L25.7623 14.92L24.6523 17.8H26.8523ZM31.2929 13.42H32.5529V19.38H35.5629V20.5H31.2929V13.42Z" fill="#111111"/>
<g opacity="0.6">
<path d="M737.185 13.8C737.551 13.8067 737.921 13.87 738.295 13.99C738.668 14.1033 738.991 14.2767 739.265 14.51L738.455 15.35C738.301 15.1767 738.108 15.0467 737.875 14.96C737.648 14.8667 737.418 14.82 737.185 14.82V16.84C737.438 16.92 737.691 17.0133 737.945 17.12C738.198 17.2267 738.425 17.3633 738.625 17.53C738.831 17.69 738.998 17.8867 739.125 18.12C739.251 18.3533 739.315 18.64 739.315 18.98C739.315 19.3267 739.255 19.6333 739.135 19.9C739.021 20.16 738.865 20.38 738.665 20.56C738.471 20.7333 738.245 20.8667 737.985 20.96C737.731 21.0533 737.465 21.1033 737.185 21.11V21.83H736.645V21.11C736.205 21.0967 735.781 21.0167 735.375 20.87C734.975 20.7167 734.615 20.4867 734.295 20.18L735.175 19.34C735.355 19.5533 735.581 19.73 735.855 19.87C736.128 20.0033 736.391 20.0733 736.645 20.08V17.86C736.351 17.78 736.078 17.69 735.825 17.59C735.571 17.4833 735.348 17.35 735.155 17.19C734.968 17.03 734.821 16.84 734.715 16.62C734.608 16.3933 734.555 16.12 734.555 15.8C734.555 15.5 734.611 15.2333 734.725 15C734.845 14.76 735.001 14.5567 735.195 14.39C735.395 14.2233 735.618 14.0933 735.865 14C736.118 13.9 736.378 13.84 736.645 13.82V13.14H737.185V13.8ZM736.645 14.82C736.411 14.8467 736.205 14.9333 736.025 15.08C735.845 15.2267 735.755 15.4467 735.755 15.74C735.755 16.02 735.838 16.2333 736.005 16.38C736.178 16.52 736.391 16.6267 736.645 16.7V14.82ZM737.185 20.08C737.465 20.0667 737.688 19.9667 737.855 19.78C738.028 19.5933 738.115 19.35 738.115 19.05C738.115 18.7567 738.025 18.5367 737.845 18.39C737.671 18.2367 737.451 18.1133 737.185 18.02V20.08ZM744.238 13.74C744.545 13.74 744.835 13.7833 745.108 13.87C745.382 13.9567 745.618 14.0833 745.818 14.25C746.025 14.4167 746.185 14.62 746.298 14.86C746.418 15.0933 746.478 15.36 746.478 15.66C746.478 16.0733 746.375 16.4167 746.168 16.69C745.962 16.9633 745.698 17.1533 745.378 17.26V17.28C745.565 17.3267 745.738 17.4033 745.898 17.51C746.058 17.61 746.198 17.7367 746.318 17.89C746.438 18.0367 746.532 18.2033 746.598 18.39C746.672 18.5767 746.708 18.78 746.708 19C746.708 19.3533 746.642 19.6667 746.508 19.94C746.382 20.2067 746.205 20.4333 745.978 20.62C745.758 20.8067 745.498 20.9467 745.198 21.04C744.898 21.1333 744.578 21.18 744.238 21.18C743.898 21.18 743.578 21.1333 743.278 21.04C742.978 20.9467 742.715 20.8067 742.488 20.62C742.268 20.4333 742.092 20.2067 741.958 19.94C741.832 19.6667 741.768 19.3533 741.768 19C741.768 18.7733 741.805 18.5633 741.878 18.37C741.952 18.1767 742.048 18.0067 742.168 17.86C742.295 17.7133 742.438 17.5933 742.598 17.5C742.758 17.4 742.925 17.3267 743.098 17.28V17.26C742.778 17.1467 742.515 16.9633 742.308 16.71C742.102 16.4567 741.998 16.1233 741.998 15.71C741.998 15.41 742.055 15.14 742.168 14.9C742.288 14.6533 742.448 14.4467 742.648 14.28C742.855 14.1067 743.092 13.9733 743.358 13.88C743.632 13.7867 743.925 13.74 744.238 13.74ZM744.238 14.73C743.938 14.73 743.692 14.82 743.498 15C743.312 15.18 743.218 15.4233 743.218 15.73C743.218 16.0167 743.308 16.26 743.488 16.46C743.675 16.66 743.925 16.76 744.238 16.76C744.378 16.76 744.512 16.7333 744.638 16.68C744.765 16.6267 744.875 16.5533 744.968 16.46C745.062 16.3667 745.135 16.2567 745.188 16.13C745.242 16.0033 745.268 15.87 745.268 15.73C745.268 15.5767 745.238 15.44 745.178 15.32C745.125 15.1933 745.048 15.0867 744.948 15C744.855 14.9133 744.745 14.8467 744.618 14.8C744.498 14.7533 744.372 14.73 744.238 14.73ZM744.238 17.78C744.065 17.78 743.902 17.81 743.748 17.87C743.602 17.93 743.472 18.0133 743.358 18.12C743.252 18.22 743.165 18.3467 743.098 18.5C743.038 18.6467 743.008 18.81 743.008 18.99C743.008 19.3633 743.125 19.6533 743.358 19.86C743.592 20.0667 743.885 20.17 744.238 20.17C744.585 20.17 744.875 20.0667 745.108 19.86C745.342 19.6533 745.458 19.3633 745.458 18.99C745.458 18.8167 745.425 18.6567 745.358 18.51C745.298 18.3567 745.212 18.2267 745.098 18.12C744.992 18.0133 744.862 17.93 744.708 17.87C744.562 17.81 744.405 17.78 744.238 17.78ZM749.432 19.62H750.592L749.742 22.26H748.732L749.432 19.62ZM757.839 17.46C757.839 18.0333 757.783 18.55 757.669 19.01C757.563 19.47 757.403 19.86 757.189 20.18C756.983 20.5 756.723 20.7467 756.409 20.92C756.103 21.0933 755.749 21.18 755.349 21.18C754.949 21.18 754.593 21.0933 754.279 20.92C753.966 20.7467 753.703 20.5 753.489 20.18C753.276 19.86 753.113 19.47 752.999 19.01C752.893 18.55 752.839 18.0333 752.839 17.46C752.839 16.8867 752.893 16.37 752.999 15.91C753.113 15.45 753.276 15.06 753.489 14.74C753.703 14.42 753.966 14.1733 754.279 14C754.593 13.8267 754.949 13.74 755.349 13.74C755.749 13.74 756.103 13.8267 756.409 14C756.723 14.1733 756.983 14.42 757.189 14.74C757.403 15.06 757.563 15.45 757.669 15.91C757.783 16.37 757.839 16.8867 757.839 17.46ZM756.609 17.46C756.609 17.2133 756.593 16.9333 756.559 16.62C756.533 16.3067 756.473 16.01 756.379 15.73C756.293 15.45 756.166 15.2167 755.999 15.03C755.833 14.8367 755.616 14.74 755.349 14.74C755.076 14.74 754.856 14.8367 754.689 15.03C754.523 15.2167 754.393 15.45 754.299 15.73C754.213 16.01 754.153 16.3067 754.119 16.62C754.086 16.9333 754.069 17.2133 754.069 17.46C754.069 17.7067 754.086 17.9867 754.119 18.3C754.153 18.6133 754.213 18.9067 754.299 19.18C754.393 19.4533 754.523 19.6867 754.689 19.88C754.856 20.0667 755.076 20.16 755.349 20.16C755.616 20.16 755.833 20.0667 755.999 19.88C756.166 19.6867 756.293 19.4533 756.379 19.18C756.473 18.9067 756.533 18.6133 756.559 18.3C756.593 17.9867 756.609 17.7067 756.609 17.46ZM761.713 16.83H762.033C762.213 16.83 762.39 16.8167 762.563 16.79C762.743 16.7567 762.906 16.7 763.053 16.62C763.2 16.54 763.316 16.4333 763.403 16.3C763.496 16.16 763.543 15.98 763.543 15.76C763.543 15.6 763.513 15.4567 763.453 15.33C763.393 15.2033 763.31 15.0967 763.203 15.01C763.103 14.9233 762.983 14.8567 762.843 14.81C762.71 14.7633 762.57 14.74 762.423 14.74C762.13 14.74 761.886 14.8233 761.693 14.99C761.5 15.1567 761.366 15.3767 761.293 15.65L760.163 15.36C760.223 15.12 760.323 14.9033 760.463 14.71C760.61 14.51 760.783 14.34 760.983 14.2C761.19 14.0533 761.42 13.94 761.673 13.86C761.926 13.78 762.193 13.74 762.473 13.74C762.78 13.74 763.07 13.7833 763.343 13.87C763.623 13.95 763.866 14.0733 764.073 14.24C764.286 14.4 764.453 14.6 764.573 14.84C764.693 15.08 764.753 15.36 764.753 15.68C764.753 16.06 764.636 16.4 764.403 16.7C764.176 16.9933 763.87 17.1867 763.483 17.28V17.3C763.916 17.3867 764.266 17.5833 764.533 17.89C764.806 18.19 764.943 18.56 764.943 19C764.943 19.3667 764.87 19.6867 764.723 19.96C764.583 20.2333 764.393 20.46 764.153 20.64C763.92 20.82 763.656 20.9533 763.363 21.04C763.07 21.1333 762.773 21.18 762.473 21.18C762.173 21.18 761.89 21.1467 761.623 21.08C761.356 21.02 761.11 20.9233 760.883 20.79C760.663 20.6567 760.466 20.4833 760.293 20.27C760.126 20.0567 759.996 19.8033 759.903 19.51L761.023 19.16C761.11 19.44 761.27 19.6767 761.503 19.87C761.743 20.0633 762.053 20.16 762.433 20.16C762.586 20.16 762.74 20.14 762.893 20.1C763.053 20.0533 763.193 19.9833 763.313 19.89C763.44 19.7967 763.54 19.6767 763.613 19.53C763.693 19.3833 763.733 19.2033 763.733 18.99C763.733 18.7633 763.676 18.5733 763.563 18.42C763.456 18.26 763.32 18.1367 763.153 18.05C762.986 17.9567 762.8 17.89 762.593 17.85C762.393 17.81 762.2 17.79 762.013 17.79H761.713V16.83ZM769.946 13.74C770.253 13.74 770.543 13.7833 770.816 13.87C771.09 13.9567 771.326 14.0833 771.526 14.25C771.733 14.4167 771.893 14.62 772.006 14.86C772.126 15.0933 772.186 15.36 772.186 15.66C772.186 16.0733 772.083 16.4167 771.876 16.69C771.67 16.9633 771.406 17.1533 771.086 17.26V17.28C771.273 17.3267 771.446 17.4033 771.606 17.51C771.766 17.61 771.906 17.7367 772.026 17.89C772.146 18.0367 772.24 18.2033 772.306 18.39C772.38 18.5767 772.416 18.78 772.416 19C772.416 19.3533 772.35 19.6667 772.216 19.94C772.09 20.2067 771.913 20.4333 771.686 20.62C771.466 20.8067 771.206 20.9467 770.906 21.04C770.606 21.1333 770.286 21.18 769.946 21.18C769.606 21.18 769.286 21.1333 768.986 21.04C768.686 20.9467 768.423 20.8067 768.196 20.62C767.976 20.4333 767.8 20.2067 767.666 19.94C767.54 19.6667 767.476 19.3533 767.476 19C767.476 18.7733 767.513 18.5633 767.586 18.37C767.66 18.1767 767.756 18.0067 767.876 17.86C768.003 17.7133 768.146 17.5933 768.306 17.5C768.466 17.4 768.633 17.3267 768.806 17.28V17.26C768.486 17.1467 768.223 16.9633 768.016 16.71C767.81 16.4567 767.706 16.1233 767.706 15.71C767.706 15.41 767.763 15.14 767.876 14.9C767.996 14.6533 768.156 14.4467 768.356 14.28C768.563 14.1067 768.8 13.9733 769.066 13.88C769.34 13.7867 769.633 13.74 769.946 13.74ZM769.946 14.73C769.646 14.73 769.4 14.82 769.206 15C769.02 15.18 768.926 15.4233 768.926 15.73C768.926 16.0167 769.016 16.26 769.196 16.46C769.383 16.66 769.633 16.76 769.946 16.76C770.086 16.76 770.22 16.7333 770.346 16.68C770.473 16.6267 770.583 16.5533 770.676 16.46C770.77 16.3667 770.843 16.2567 770.896 16.13C770.95 16.0033 770.976 15.87 770.976 15.73C770.976 15.5767 770.946 15.44 770.886 15.32C770.833 15.1933 770.756 15.0867 770.656 15C770.563 14.9133 770.453 14.8467 770.326 14.8C770.206 14.7533 770.08 14.73 769.946 14.73ZM769.946 17.78C769.773 17.78 769.61 17.81 769.456 17.87C769.31 17.93 769.18 18.0133 769.066 18.12C768.96 18.22 768.873 18.3467 768.806 18.5C768.746 18.6467 768.716 18.81 768.716 18.99C768.716 19.3633 768.833 19.6533 769.066 19.86C769.3 20.0667 769.593 20.17 769.946 20.17C770.293 20.17 770.583 20.0667 770.816 19.86C771.05 19.6533 771.166 19.3633 771.166 18.99C771.166 18.8167 771.133 18.6567 771.066 18.51C771.006 18.3567 770.92 18.2267 770.806 18.12C770.7 18.0133 770.57 17.93 770.416 17.87C770.27 17.81 770.113 17.78 769.946 17.78Z" fill="#111111"/>
<path d="M733.885 18.5H772.996V19H733.885V18.5Z" fill="#111111"/>
</g>
<path d="M817.185 13.8C817.551 13.8067 817.921 13.87 818.295 13.99C818.668 14.1033 818.991 14.2767 819.265 14.51L818.455 15.35C818.301 15.1767 818.108 15.0467 817.875 14.96C817.648 14.8667 817.418 14.82 817.185 14.82V16.84C817.438 16.92 817.691 17.0133 817.945 17.12C818.198 17.2267 818.425 17.3633 818.625 17.53C818.831 17.69 818.998 17.8867 819.125 18.12C819.251 18.3533 819.315 18.64 819.315 18.98C819.315 19.3267 819.255 19.6333 819.135 19.9C819.021 20.16 818.865 20.38 818.665 20.56C818.471 20.7333 818.245 20.8667 817.985 20.96C817.731 21.0533 817.465 21.1033 817.185 21.11V21.83H816.645V21.11C816.205 21.0967 815.781 21.0167 815.375 20.87C814.975 20.7167 814.615 20.4867 814.295 20.18L815.175 19.34C815.355 19.5533 815.581 19.73 815.855 19.87C816.128 20.0033 816.391 20.0733 816.645 20.08V17.86C816.351 17.78 816.078 17.69 815.825 17.59C815.571 17.4833 815.348 17.35 815.155 17.19C814.968 17.03 814.821 16.84 814.715 16.62C814.608 16.3933 814.555 16.12 814.555 15.8C814.555 15.5 814.611 15.2333 814.725 15C814.845 14.76 815.001 14.5567 815.195 14.39C815.395 14.2233 815.618 14.0933 815.865 14C816.118 13.9 816.378 13.84 816.645 13.82V13.14H817.185V13.8ZM816.645 14.82C816.411 14.8467 816.205 14.9333 816.025 15.08C815.845 15.2267 815.755 15.4467 815.755 15.74C815.755 16.02 815.838 16.2333 816.005 16.38C816.178 16.52 816.391 16.6267 816.645 16.7V14.82ZM817.185 20.08C817.465 20.0667 817.688 19.9667 817.855 19.78C818.028 19.5933 818.115 19.35 818.115 19.05C818.115 18.7567 818.025 18.5367 817.845 18.39C817.671 18.2367 817.451 18.1133 817.185 18.02V20.08ZM821.698 13.92H826.508V15.02L823.678 21H822.268L825.248 15H821.698V13.92ZM829.432 19.62H830.592L829.742 22.26H828.732L829.432 19.62ZM836.699 13.92L834.889 16.54L834.899 16.55C834.993 16.51 835.109 16.48 835.249 16.46C835.396 16.44 835.529 16.43 835.649 16.43C835.963 16.43 836.256 16.49 836.529 16.61C836.803 16.7233 837.043 16.8833 837.249 17.09C837.456 17.29 837.616 17.53 837.729 17.81C837.849 18.0833 837.909 18.38 837.909 18.7C837.909 19.0733 837.843 19.4133 837.709 19.72C837.576 20.0267 837.393 20.29 837.159 20.51C836.933 20.7233 836.659 20.8867 836.339 21C836.026 21.12 835.689 21.18 835.329 21.18C834.956 21.18 834.613 21.12 834.299 21C833.986 20.8733 833.713 20.7 833.479 20.48C833.246 20.26 833.063 20.0033 832.929 19.71C832.803 19.41 832.739 19.09 832.739 18.75C832.739 18.55 832.756 18.3633 832.789 18.19C832.823 18.01 832.869 17.84 832.929 17.68C832.996 17.5133 833.073 17.3467 833.159 17.18C833.253 17.0133 833.356 16.84 833.469 16.66L835.239 13.92H836.699ZM833.959 18.78C833.959 18.9667 833.989 19.1433 834.049 19.31C834.116 19.4767 834.209 19.6233 834.329 19.75C834.449 19.8767 834.593 19.9767 834.759 20.05C834.926 20.1233 835.113 20.16 835.319 20.16C835.726 20.16 836.053 20.0333 836.299 19.78C836.553 19.52 836.679 19.18 836.679 18.76C836.679 18.56 836.646 18.3767 836.579 18.21C836.519 18.0367 836.429 17.89 836.309 17.77C836.189 17.65 836.046 17.5567 835.879 17.49C835.719 17.4167 835.539 17.38 835.339 17.38C835.139 17.38 834.953 17.4133 834.779 17.48C834.613 17.5467 834.466 17.6433 834.339 17.77C834.219 17.89 834.126 18.0367 834.059 18.21C833.993 18.3833 833.959 18.5733 833.959 18.78ZM844.643 15H841.753L841.683 16.53C841.796 16.4967 841.93 16.4733 842.083 16.46C842.243 16.4467 842.386 16.44 842.513 16.44C842.86 16.44 843.18 16.49 843.473 16.59C843.773 16.69 844.033 16.8367 844.253 17.03C844.473 17.2167 844.643 17.45 844.763 17.73C844.89 18.0033 844.953 18.32 844.953 18.68C844.953 19.0733 844.883 19.4267 844.743 19.74C844.61 20.0467 844.426 20.3067 844.193 20.52C843.96 20.7333 843.686 20.8967 843.373 21.01C843.06 21.1233 842.726 21.18 842.373 21.18C841.78 21.18 841.28 21.0433 840.873 20.77C840.466 20.49 840.17 20.11 839.983 19.63L841.073 19.23C841.173 19.51 841.34 19.7367 841.573 19.91C841.806 20.0767 842.083 20.16 842.403 20.16C842.583 20.16 842.753 20.13 842.913 20.07C843.073 20.01 843.213 19.9233 843.333 19.81C843.453 19.6967 843.546 19.5567 843.613 19.39C843.686 19.2167 843.723 19.0233 843.723 18.81C843.723 18.5367 843.676 18.31 843.583 18.13C843.49 17.95 843.366 17.8067 843.213 17.7C843.066 17.5867 842.9 17.51 842.713 17.47C842.526 17.4233 842.336 17.4 842.143 17.4C842.01 17.4 841.866 17.41 841.713 17.43C841.566 17.45 841.42 17.48 841.273 17.52C841.133 17.5533 840.993 17.5933 840.853 17.64C840.72 17.6867 840.6 17.7367 840.493 17.79L840.613 13.92H844.643V15ZM852.446 17.46C852.446 18.0333 852.39 18.55 852.276 19.01C852.17 19.47 852.01 19.86 851.796 20.18C851.59 20.5 851.33 20.7467 851.016 20.92C850.71 21.0933 850.356 21.18 849.956 21.18C849.556 21.18 849.2 21.0933 848.886 20.92C848.573 20.7467 848.31 20.5 848.096 20.18C847.883 19.86 847.72 19.47 847.606 19.01C847.5 18.55 847.446 18.0333 847.446 17.46C847.446 16.8867 847.5 16.37 847.606 15.91C847.72 15.45 847.883 15.06 848.096 14.74C848.31 14.42 848.573 14.1733 848.886 14C849.2 13.8267 849.556 13.74 849.956 13.74C850.356 13.74 850.71 13.8267 851.016 14C851.33 14.1733 851.59 14.42 851.796 14.74C852.01 15.06 852.17 15.45 852.276 15.91C852.39 16.37 852.446 16.8867 852.446 17.46ZM851.216 17.46C851.216 17.2133 851.2 16.9333 851.166 16.62C851.14 16.3067 851.08 16.01 850.986 15.73C850.9 15.45 850.773 15.2167 850.606 15.03C850.44 14.8367 850.223 14.74 849.956 14.74C849.683 14.74 849.463 14.8367 849.296 15.03C849.13 15.2167 849 15.45 848.906 15.73C848.82 16.01 848.76 16.3067 848.726 16.62C848.693 16.9333 848.676 17.2133 848.676 17.46C848.676 17.7067 848.693 17.9867 848.726 18.3C848.76 18.6133 848.82 18.9067 848.906 19.18C849 19.4533 849.13 19.6867 849.296 19.88C849.463 20.0667 849.683 20.16 849.956 20.16C850.223 20.16 850.44 20.0667 850.606 19.88C850.773 19.6867 850.9 19.4533 850.986 19.18C851.08 18.9067 851.14 18.6133 851.166 18.3C851.2 17.9867 851.216 17.7067 851.216 17.46Z" fill="#111111"/>
<path d="M906.383 15.38L904.983 16.53L904.283 15.7L906.493 13.92H907.583V21H906.383V15.38ZM913.016 16.83H913.336C913.516 16.83 913.693 16.8167 913.866 16.79C914.046 16.7567 914.21 16.7 914.356 16.62C914.503 16.54 914.62 16.4333 914.706 16.3C914.8 16.16 914.846 15.98 914.846 15.76C914.846 15.6 914.816 15.4567 914.756 15.33C914.696 15.2033 914.613 15.0967 914.506 15.01C914.406 14.9233 914.286 14.8567 914.146 14.81C914.013 14.7633 913.873 14.74 913.726 14.74C913.433 14.74 913.19 14.8233 912.996 14.99C912.803 15.1567 912.67 15.3767 912.596 15.65L911.466 15.36C911.526 15.12 911.626 14.9033 911.766 14.71C911.913 14.51 912.086 14.34 912.286 14.2C912.493 14.0533 912.723 13.94 912.976 13.86C913.23 13.78 913.496 13.74 913.776 13.74C914.083 13.74 914.373 13.7833 914.646 13.87C914.926 13.95 915.17 14.0733 915.376 14.24C915.59 14.4 915.756 14.6 915.876 14.84C915.996 15.08 916.056 15.36 916.056 15.68C916.056 16.06 915.94 16.4 915.706 16.7C915.48 16.9933 915.173 17.1867 914.786 17.28V17.3C915.22 17.3867 915.57 17.5833 915.836 17.89C916.11 18.19 916.246 18.56 916.246 19C916.246 19.3667 916.173 19.6867 916.026 19.96C915.886 20.2333 915.696 20.46 915.456 20.64C915.223 20.82 914.96 20.9533 914.666 21.04C914.373 21.1333 914.076 21.18 913.776 21.18C913.476 21.18 913.193 21.1467 912.926 21.08C912.66 21.02 912.413 20.9233 912.186 20.79C911.966 20.6567 911.77 20.4833 911.596 20.27C911.43 20.0567 911.3 19.8033 911.206 19.51L912.326 19.16C912.413 19.44 912.573 19.6767 912.806 19.87C913.046 20.0633 913.356 20.16 913.736 20.16C913.89 20.16 914.043 20.14 914.196 20.1C914.356 20.0533 914.496 19.9833 914.616 19.89C914.743 19.7967 914.843 19.6767 914.916 19.53C914.996 19.3833 915.036 19.2033 915.036 18.99C915.036 18.7633 914.98 18.5733 914.866 18.42C914.76 18.26 914.623 18.1367 914.456 18.05C914.29 17.9567 914.103 17.89 913.896 17.85C913.696 17.81 913.503 17.79 913.316 17.79H913.016V16.83Z" fill="#111111"/>
<path d="M953.881 13.8C954.248 13.8067 954.618 13.87 954.991 13.99C955.365 14.1033 955.688 14.2767 955.961 14.51L955.151 15.35C954.998 15.1767 954.805 15.0467 954.571 14.96C954.345 14.8667 954.115 14.82 953.881 14.82V16.84C954.135 16.92 954.388 17.0133 954.641 17.12C954.895 17.2267 955.121 17.3633 955.321 17.53C955.528 17.69 955.695 17.8867 955.821 18.12C955.948 18.3533 956.011 18.64 956.011 18.98C956.011 19.3267 955.951 19.6333 955.831 19.9C955.718 20.16 955.561 20.38 955.361 20.56C955.168 20.7333 954.941 20.8667 954.681 20.96C954.428 21.0533 954.161 21.1033 953.881 21.11V21.83H953.341V21.11C952.901 21.0967 952.478 21.0167 952.071 20.87C951.671 20.7167 951.311 20.4867 950.991 20.18L951.871 19.34C952.051 19.5533 952.278 19.73 952.551 19.87C952.825 20.0033 953.088 20.0733 953.341 20.08V17.86C953.048 17.78 952.775 17.69 952.521 17.59C952.268 17.4833 952.045 17.35 951.851 17.19C951.665 17.03 951.518 16.84 951.411 16.62C951.305 16.3933 951.251 16.12 951.251 15.8C951.251 15.5 951.308 15.2333 951.421 15C951.541 14.76 951.698 14.5567 951.891 14.39C952.091 14.2233 952.315 14.0933 952.561 14C952.815 13.9 953.075 13.84 953.341 13.82V13.14H953.881V13.8ZM953.341 14.82C953.108 14.8467 952.901 14.9333 952.721 15.08C952.541 15.2267 952.451 15.4467 952.451 15.74C952.451 16.02 952.535 16.2333 952.701 16.38C952.875 16.52 953.088 16.6267 953.341 16.7V14.82ZM953.881 20.08C954.161 20.0667 954.385 19.9667 954.551 19.78C954.725 19.5933 954.811 19.35 954.811 19.05C954.811 18.7567 954.721 18.5367 954.541 18.39C954.368 18.2367 954.148 18.1133 953.881 18.02V20.08ZM960.675 15.38L959.275 16.53L958.575 15.7L960.785 13.92H961.875V21H960.675V15.38ZM970.738 17.46C970.738 18.0333 970.682 18.55 970.568 19.01C970.462 19.47 970.302 19.86 970.088 20.18C969.882 20.5 969.622 20.7467 969.308 20.92C969.002 21.0933 968.648 21.18 968.248 21.18C967.848 21.18 967.492 21.0933 967.178 20.92C966.865 20.7467 966.602 20.5 966.388 20.18C966.175 19.86 966.012 19.47 965.898 19.01C965.792 18.55 965.738 18.0333 965.738 17.46C965.738 16.8867 965.792 16.37 965.898 15.91C966.012 15.45 966.175 15.06 966.388 14.74C966.602 14.42 966.865 14.1733 967.178 14C967.492 13.8267 967.848 13.74 968.248 13.74C968.648 13.74 969.002 13.8267 969.308 14C969.622 14.1733 969.882 14.42 970.088 14.74C970.302 15.06 970.462 15.45 970.568 15.91C970.682 16.37 970.738 16.8867 970.738 17.46ZM969.508 17.46C969.508 17.2133 969.492 16.9333 969.458 16.62C969.432 16.3067 969.372 16.01 969.278 15.73C969.192 15.45 969.065 15.2167 968.898 15.03C968.732 14.8367 968.515 14.74 968.248 14.74C967.975 14.74 967.755 14.8367 967.588 15.03C967.422 15.2167 967.292 15.45 967.198 15.73C967.112 16.01 967.052 16.3067 967.018 16.62C966.985 16.9333 966.968 17.2133 966.968 17.46C966.968 17.7067 966.985 17.9867 967.018 18.3C967.052 18.6133 967.112 18.9067 967.198 19.18C967.292 19.4533 967.422 19.6867 967.588 19.88C967.755 20.0667 967.975 20.16 968.248 20.16C968.515 20.16 968.732 20.0667 968.898 19.88C969.065 19.6867 969.192 19.4533 969.278 19.18C969.372 18.9067 969.432 18.6133 969.458 18.3C969.492 17.9867 969.508 17.7067 969.508 17.46ZM973.432 19.62H974.592L973.742 22.26H972.732L973.432 19.62ZM981.339 15H978.449L978.379 16.53C978.493 16.4967 978.626 16.4733 978.779 16.46C978.939 16.4467 979.083 16.44 979.209 16.44C979.556 16.44 979.876 16.49 980.169 16.59C980.469 16.69 980.729 16.8367 980.949 17.03C981.169 17.2167 981.339 17.45 981.459 17.73C981.586 18.0033 981.649 18.32 981.649 18.68C981.649 19.0733 981.579 19.4267 981.439 19.74C981.306 20.0467 981.123 20.3067 980.889 20.52C980.656 20.7333 980.383 20.8967 980.069 21.01C979.756 21.1233 979.423 21.18 979.069 21.18C978.476 21.18 977.976 21.0433 977.569 20.77C977.163 20.49 976.866 20.11 976.679 19.63L977.769 19.23C977.869 19.51 978.036 19.7367 978.269 19.91C978.503 20.0767 978.779 20.16 979.099 20.16C979.279 20.16 979.449 20.13 979.609 20.07C979.769 20.01 979.909 19.9233 980.029 19.81C980.149 19.6967 980.243 19.5567 980.309 19.39C980.383 19.2167 980.419 19.0233 980.419 18.81C980.419 18.5367 980.373 18.31 980.279 18.13C980.186 17.95 980.063 17.8067 979.909 17.7C979.763 17.5867 979.596 17.51 979.409 17.47C979.223 17.4233 979.033 17.4 978.839 17.4C978.706 17.4 978.563 17.41 978.409 17.43C978.263 17.45 978.116 17.48 977.969 17.52C977.829 17.5533 977.689 17.5933 977.549 17.64C977.416 17.6867 977.296 17.7367 977.189 17.79L977.309 13.92H981.339V15ZM988.643 15H985.753L985.683 16.53C985.796 16.4967 985.93 16.4733 986.083 16.46C986.243 16.4467 986.386 16.44 986.513 16.44C986.86 16.44 987.18 16.49 987.473 16.59C987.773 16.69 988.033 16.8367 988.253 17.03C988.473 17.2167 988.643 17.45 988.763 17.73C988.89 18.0033 988.953 18.32 988.953 18.68C988.953 19.0733 988.883 19.4267 988.743 19.74C988.61 20.0467 988.426 20.3067 988.193 20.52C987.96 20.7333 987.686 20.8967 987.373 21.01C987.06 21.1233 986.726 21.18 986.373 21.18C985.78 21.18 985.28 21.0433 984.873 20.77C984.466 20.49 984.17 20.11 983.983 19.63L985.073 19.23C985.173 19.51 985.34 19.7367 985.573 19.91C985.806 20.0767 986.083 20.16 986.403 20.16C986.583 20.16 986.753 20.13 986.913 20.07C987.073 20.01 987.213 19.9233 987.333 19.81C987.453 19.6967 987.546 19.5567 987.613 19.39C987.686 19.2167 987.723 19.0233 987.723 18.81C987.723 18.5367 987.676 18.31 987.583 18.13C987.49 17.95 987.366 17.8067 987.213 17.7C987.066 17.5867 986.9 17.51 986.713 17.47C986.526 17.4233 986.336 17.4 986.143 17.4C986.01 17.4 985.866 17.41 985.713 17.43C985.566 17.45 985.42 17.48 985.273 17.52C985.133 17.5533 984.993 17.5933 984.853 17.64C984.72 17.6867 984.6 17.7367 984.493 17.79L984.613 13.92H988.643V15ZM996.446 17.46C996.446 18.0333 996.39 18.55 996.276 19.01C996.17 19.47 996.01 19.86 995.796 20.18C995.59 20.5 995.33 20.7467 995.016 20.92C994.71 21.0933 994.356 21.18 993.956 21.18C993.556 21.18 993.2 21.0933 992.886 20.92C992.573 20.7467 992.31 20.5 992.096 20.18C991.883 19.86 991.72 19.47 991.606 19.01C991.5 18.55 991.446 18.0333 991.446 17.46C991.446 16.8867 991.5 16.37 991.606 15.91C991.72 15.45 991.883 15.06 992.096 14.74C992.31 14.42 992.573 14.1733 992.886 14C993.2 13.8267 993.556 13.74 993.956 13.74C994.356 13.74 994.71 13.8267 995.016 14C995.33 14.1733 995.59 14.42 995.796 14.74C996.01 15.06 996.17 15.45 996.276 15.91C996.39 16.37 996.446 16.8867 996.446 17.46ZM995.216 17.46C995.216 17.2133 995.2 16.9333 995.166 16.62C995.14 16.3067 995.08 16.01 994.986 15.73C994.9 15.45 994.773 15.2167 994.606 15.03C994.44 14.8367 994.223 14.74 993.956 14.74C993.683 14.74 993.463 14.8367 993.296 15.03C993.13 15.2167 993 15.45 992.906 15.73C992.82 16.01 992.76 16.3067 992.726 16.62C992.693 16.9333 992.676 17.2133 992.676 17.46C992.676 17.7067 992.693 17.9867 992.726 18.3C992.76 18.6133 992.82 18.9067 992.906 19.18C993 19.4533 993.13 19.6867 993.296 19.88C993.463 20.0667 993.683 20.16 993.956 20.16C994.223 20.16 994.44 20.0667 994.606 19.88C994.773 19.6867 994.9 19.4533 994.986 19.18C995.08 18.9067 995.14 18.6133 995.166 18.3C995.2 17.9867 995.216 17.7067 995.216 17.46Z" fill="#111111"/>
<path d="M1041.18 13.8C1041.55 13.8067 1041.92 13.87 1042.29 13.99C1042.67 14.1033 1042.99 14.2767 1043.26 14.51L1042.45 15.35C1042.3 15.1767 1042.11 15.0467 1041.87 14.96C1041.65 14.8667 1041.42 14.82 1041.18 14.82V16.84C1041.44 16.92 1041.69 17.0133 1041.94 17.12C1042.2 17.2267 1042.42 17.3633 1042.62 17.53C1042.83 17.69 1043 17.8867 1043.12 18.12C1043.25 18.3533 1043.31 18.64 1043.31 18.98C1043.31 19.3267 1043.25 19.6333 1043.13 19.9C1043.02 20.16 1042.86 20.38 1042.66 20.56C1042.47 20.7333 1042.24 20.8667 1041.98 20.96C1041.73 21.0533 1041.46 21.1033 1041.18 21.11V21.83H1040.64V21.11C1040.2 21.0967 1039.78 21.0167 1039.37 20.87C1038.97 20.7167 1038.61 20.4867 1038.29 20.18L1039.17 19.34C1039.35 19.5533 1039.58 19.73 1039.85 19.87C1040.13 20.0033 1040.39 20.0733 1040.64 20.08V17.86C1040.35 17.78 1040.08 17.69 1039.82 17.59C1039.57 17.4833 1039.35 17.35 1039.15 17.19C1038.97 17.03 1038.82 16.84 1038.71 16.62C1038.61 16.3933 1038.55 16.12 1038.55 15.8C1038.55 15.5 1038.61 15.2333 1038.72 15C1038.84 14.76 1039 14.5567 1039.19 14.39C1039.39 14.2233 1039.62 14.0933 1039.86 14C1040.12 13.9 1040.38 13.84 1040.64 13.82V13.14H1041.18V13.8ZM1040.64 14.82C1040.41 14.8467 1040.2 14.9333 1040.02 15.08C1039.84 15.2267 1039.75 15.4467 1039.75 15.74C1039.75 16.02 1039.84 16.2333 1040 16.38C1040.18 16.52 1040.39 16.6267 1040.64 16.7V14.82ZM1041.18 20.08C1041.46 20.0667 1041.69 19.9667 1041.85 19.78C1042.03 19.5933 1042.11 19.35 1042.11 19.05C1042.11 18.7567 1042.02 18.5367 1041.84 18.39C1041.67 18.2367 1041.45 18.1133 1041.18 18.02V20.08ZM1048.24 13.74C1048.54 13.74 1048.83 13.7833 1049.11 13.87C1049.38 13.9567 1049.62 14.0833 1049.82 14.25C1050.02 14.4167 1050.18 14.62 1050.3 14.86C1050.42 15.0933 1050.48 15.36 1050.48 15.66C1050.48 16.0733 1050.37 16.4167 1050.17 16.69C1049.96 16.9633 1049.7 17.1533 1049.38 17.26V17.28C1049.56 17.3267 1049.74 17.4033 1049.9 17.51C1050.06 17.61 1050.2 17.7367 1050.32 17.89C1050.44 18.0367 1050.53 18.2033 1050.6 18.39C1050.67 18.5767 1050.71 18.78 1050.71 19C1050.71 19.3533 1050.64 19.6667 1050.51 19.94C1050.38 20.2067 1050.2 20.4333 1049.98 20.62C1049.76 20.8067 1049.5 20.9467 1049.2 21.04C1048.9 21.1333 1048.58 21.18 1048.24 21.18C1047.9 21.18 1047.58 21.1333 1047.28 21.04C1046.98 20.9467 1046.71 20.8067 1046.49 20.62C1046.27 20.4333 1046.09 20.2067 1045.96 19.94C1045.83 19.6667 1045.77 19.3533 1045.77 19C1045.77 18.7733 1045.8 18.5633 1045.88 18.37C1045.95 18.1767 1046.05 18.0067 1046.17 17.86C1046.29 17.7133 1046.44 17.5933 1046.6 17.5C1046.76 17.4 1046.92 17.3267 1047.1 17.28V17.26C1046.78 17.1467 1046.51 16.9633 1046.31 16.71C1046.1 16.4567 1046 16.1233 1046 15.71C1046 15.41 1046.05 15.14 1046.17 14.9C1046.29 14.6533 1046.45 14.4467 1046.65 14.28C1046.85 14.1067 1047.09 13.9733 1047.36 13.88C1047.63 13.7867 1047.92 13.74 1048.24 13.74ZM1048.24 14.73C1047.94 14.73 1047.69 14.82 1047.5 15C1047.31 15.18 1047.22 15.4233 1047.22 15.73C1047.22 16.0167 1047.31 16.26 1047.49 16.46C1047.67 16.66 1047.92 16.76 1048.24 16.76C1048.38 16.76 1048.51 16.7333 1048.64 16.68C1048.76 16.6267 1048.87 16.5533 1048.97 16.46C1049.06 16.3667 1049.13 16.2567 1049.19 16.13C1049.24 16.0033 1049.27 15.87 1049.27 15.73C1049.27 15.5767 1049.24 15.44 1049.18 15.32C1049.12 15.1933 1049.05 15.0867 1048.95 15C1048.85 14.9133 1048.74 14.8467 1048.62 14.8C1048.5 14.7533 1048.37 14.73 1048.24 14.73ZM1048.24 17.78C1048.06 17.78 1047.9 17.81 1047.75 17.87C1047.6 17.93 1047.47 18.0133 1047.36 18.12C1047.25 18.22 1047.16 18.3467 1047.1 18.5C1047.04 18.6467 1047.01 18.81 1047.01 18.99C1047.01 19.3633 1047.12 19.6533 1047.36 19.86C1047.59 20.0667 1047.88 20.17 1048.24 20.17C1048.58 20.17 1048.87 20.0667 1049.11 19.86C1049.34 19.6533 1049.46 19.3633 1049.46 18.99C1049.46 18.8167 1049.42 18.6567 1049.36 18.51C1049.3 18.3567 1049.21 18.2267 1049.1 18.12C1048.99 18.0133 1048.86 17.93 1048.71 17.87C1048.56 17.81 1048.4 17.78 1048.24 17.78ZM1053.43 19.62H1054.59L1053.74 22.26H1052.73L1053.43 19.62ZM1061.84 17.46C1061.84 18.0333 1061.78 18.55 1061.67 19.01C1061.56 19.47 1061.4 19.86 1061.19 20.18C1060.98 20.5 1060.72 20.7467 1060.41 20.92C1060.1 21.0933 1059.75 21.18 1059.35 21.18C1058.95 21.18 1058.59 21.0933 1058.28 20.92C1057.97 20.7467 1057.7 20.5 1057.49 20.18C1057.28 19.86 1057.11 19.47 1057 19.01C1056.89 18.55 1056.84 18.0333 1056.84 17.46C1056.84 16.8867 1056.89 16.37 1057 15.91C1057.11 15.45 1057.28 15.06 1057.49 14.74C1057.7 14.42 1057.97 14.1733 1058.28 14C1058.59 13.8267 1058.95 13.74 1059.35 13.74C1059.75 13.74 1060.1 13.8267 1060.41 14C1060.72 14.1733 1060.98 14.42 1061.19 14.74C1061.4 15.06 1061.56 15.45 1061.67 15.91C1061.78 16.37 1061.84 16.8867 1061.84 17.46ZM1060.61 17.46C1060.61 17.2133 1060.59 16.9333 1060.56 16.62C1060.53 16.3067 1060.47 16.01 1060.38 15.73C1060.29 15.45 1060.17 15.2167 1060 15.03C1059.83 14.8367 1059.62 14.74 1059.35 14.74C1059.08 14.74 1058.86 14.8367 1058.69 15.03C1058.52 15.2167 1058.39 15.45 1058.3 15.73C1058.21 16.01 1058.15 16.3067 1058.12 16.62C1058.09 16.9333 1058.07 17.2133 1058.07 17.46C1058.07 17.7067 1058.09 17.9867 1058.12 18.3C1058.15 18.6133 1058.21 18.9067 1058.3 19.18C1058.39 19.4533 1058.52 19.6867 1058.69 19.88C1058.86 20.0667 1059.08 20.16 1059.35 20.16C1059.62 20.16 1059.83 20.0667 1060 19.88C1060.17 19.6867 1060.29 19.4533 1060.38 19.18C1060.47 18.9067 1060.53 18.6133 1060.56 18.3C1060.59 17.9867 1060.61 17.7067 1060.61 17.46ZM1065.71 16.83H1066.03C1066.21 16.83 1066.39 16.8167 1066.56 16.79C1066.74 16.7567 1066.91 16.7 1067.05 16.62C1067.2 16.54 1067.32 16.4333 1067.4 16.3C1067.5 16.16 1067.54 15.98 1067.54 15.76C1067.54 15.6 1067.51 15.4567 1067.45 15.33C1067.39 15.2033 1067.31 15.0967 1067.2 15.01C1067.1 14.9233 1066.98 14.8567 1066.84 14.81C1066.71 14.7633 1066.57 14.74 1066.42 14.74C1066.13 14.74 1065.89 14.8233 1065.69 14.99C1065.5 15.1567 1065.37 15.3767 1065.29 15.65L1064.16 15.36C1064.22 15.12 1064.32 14.9033 1064.46 14.71C1064.61 14.51 1064.78 14.34 1064.98 14.2C1065.19 14.0533 1065.42 13.94 1065.67 13.86C1065.93 13.78 1066.19 13.74 1066.47 13.74C1066.78 13.74 1067.07 13.7833 1067.34 13.87C1067.62 13.95 1067.87 14.0733 1068.07 14.24C1068.29 14.4 1068.45 14.6 1068.57 14.84C1068.69 15.08 1068.75 15.36 1068.75 15.68C1068.75 16.06 1068.64 16.4 1068.4 16.7C1068.18 16.9933 1067.87 17.1867 1067.48 17.28V17.3C1067.92 17.3867 1068.27 17.5833 1068.53 17.89C1068.81 18.19 1068.94 18.56 1068.94 19C1068.94 19.3667 1068.87 19.6867 1068.72 19.96C1068.58 20.2333 1068.39 20.46 1068.15 20.64C1067.92 20.82 1067.66 20.9533 1067.36 21.04C1067.07 21.1333 1066.77 21.18 1066.47 21.18C1066.17 21.18 1065.89 21.1467 1065.62 21.08C1065.36 21.02 1065.11 20.9233 1064.88 20.79C1064.66 20.6567 1064.47 20.4833 1064.29 20.27C1064.13 20.0567 1064 19.8033 1063.9 19.51L1065.02 19.16C1065.11 19.44 1065.27 19.6767 1065.5 19.87C1065.74 20.0633 1066.05 20.16 1066.43 20.16C1066.59 20.16 1066.74 20.14 1066.89 20.1C1067.05 20.0533 1067.19 19.9833 1067.31 19.89C1067.44 19.7967 1067.54 19.6767 1067.61 19.53C1067.69 19.3833 1067.73 19.2033 1067.73 18.99C1067.73 18.7633 1067.68 18.5733 1067.56 18.42C1067.46 18.26 1067.32 18.1367 1067.15 18.05C1066.99 17.9567 1066.8 17.89 1066.59 17.85C1066.39 17.81 1066.2 17.79 1066.01 17.79H1065.71V16.83ZM1073.95 13.74C1074.25 13.74 1074.54 13.7833 1074.82 13.87C1075.09 13.9567 1075.33 14.0833 1075.53 14.25C1075.73 14.4167 1075.89 14.62 1076.01 14.86C1076.13 15.0933 1076.19 15.36 1076.19 15.66C1076.19 16.0733 1076.08 16.4167 1075.88 16.69C1075.67 16.9633 1075.41 17.1533 1075.09 17.26V17.28C1075.27 17.3267 1075.45 17.4033 1075.61 17.51C1075.77 17.61 1075.91 17.7367 1076.03 17.89C1076.15 18.0367 1076.24 18.2033 1076.31 18.39C1076.38 18.5767 1076.42 18.78 1076.42 19C1076.42 19.3533 1076.35 19.6667 1076.22 19.94C1076.09 20.2067 1075.91 20.4333 1075.69 20.62C1075.47 20.8067 1075.21 20.9467 1074.91 21.04C1074.61 21.1333 1074.29 21.18 1073.95 21.18C1073.61 21.18 1073.29 21.1333 1072.99 21.04C1072.69 20.9467 1072.42 20.8067 1072.2 20.62C1071.98 20.4333 1071.8 20.2067 1071.67 19.94C1071.54 19.6667 1071.48 19.3533 1071.48 19C1071.48 18.7733 1071.51 18.5633 1071.59 18.37C1071.66 18.1767 1071.76 18.0067 1071.88 17.86C1072 17.7133 1072.15 17.5933 1072.31 17.5C1072.47 17.4 1072.63 17.3267 1072.81 17.28V17.26C1072.49 17.1467 1072.22 16.9633 1072.02 16.71C1071.81 16.4567 1071.71 16.1233 1071.71 15.71C1071.71 15.41 1071.76 15.14 1071.88 14.9C1072 14.6533 1072.16 14.4467 1072.36 14.28C1072.56 14.1067 1072.8 13.9733 1073.07 13.88C1073.34 13.7867 1073.63 13.74 1073.95 13.74ZM1073.95 14.73C1073.65 14.73 1073.4 14.82 1073.21 15C1073.02 15.18 1072.93 15.4233 1072.93 15.73C1072.93 16.0167 1073.02 16.26 1073.2 16.46C1073.38 16.66 1073.63 16.76 1073.95 16.76C1074.09 16.76 1074.22 16.7333 1074.35 16.68C1074.47 16.6267 1074.58 16.5533 1074.68 16.46C1074.77 16.3667 1074.84 16.2567 1074.9 16.13C1074.95 16.0033 1074.98 15.87 1074.98 15.73C1074.98 15.5767 1074.95 15.44 1074.89 15.32C1074.83 15.1933 1074.76 15.0867 1074.66 15C1074.56 14.9133 1074.45 14.8467 1074.33 14.8C1074.21 14.7533 1074.08 14.73 1073.95 14.73ZM1073.95 17.78C1073.77 17.78 1073.61 17.81 1073.46 17.87C1073.31 17.93 1073.18 18.0133 1073.07 18.12C1072.96 18.22 1072.87 18.3467 1072.81 18.5C1072.75 18.6467 1072.72 18.81 1072.72 18.99C1072.72 19.3633 1072.83 19.6533 1073.07 19.86C1073.3 20.0667 1073.59 20.17 1073.95 20.17C1074.29 20.17 1074.58 20.0667 1074.82 19.86C1075.05 19.6533 1075.17 19.3633 1075.17 18.99C1075.17 18.8167 1075.13 18.6567 1075.07 18.51C1075.01 18.3567 1074.92 18.2267 1074.81 18.12C1074.7 18.0133 1074.57 17.93 1074.42 17.87C1074.27 17.81 1074.11 17.78 1073.95 17.78Z" fill="#111111"/>
<path d="M1179.64 19.432H1175.56V18.748H1179.64V19.432Z" fill="white"/>
<path d="M1259.64 19.432H1255.56V18.748H1259.64V19.432Z" fill="white"/>
</g>
<path d="M1268 36H0V38H1268V36Z" fill="#D9D9D9" mask="url(#path-1-inside-1_308_15438)"/>
<path d="M0.5 37.5H35.5V96.5H0.5V37.5Z" fill="#DCDFD8" stroke="#A8A18F"/>
<path fill-rule="evenodd" clip-rule="evenodd" d="M36 37H693V97H36V37Z" fill="#A8A18F"/>
<path d="M693.5 37.5H772.5V96.5H693.5V37.5Z" fill="#DCDFD8" stroke="#A8A18F"/>
<path d="M773.5 37.5H852.5V96.5H773.5V37.5Z" fill="#DCDFD8" stroke="#A8A18F"/>
<path d="M853.5 37.5H916.5V96.5H853.5V37.5Z" fill="#DCDFD8" stroke="#A8A18F"/>
<path d="M917.5 37.5H996.5V96.5H917.5V37.5Z" fill="#DCDFD8" stroke="#A8A18F"/>
<path d="M997.5 37.5H1076.5V96.5H997.5V37.5Z" fill="#DCDFD8" stroke="#A8A18F"/>
<path fill-rule="evenodd" clip-rule="evenodd" d="M1077 37H1268V97H1077V37Z" fill="#A8A18F"/>
<defs>
<clipPath id="clip0_308_15438">
<path d="M0 0H1268V37H0V0Z" fill="white"/>
</clipPath>
</defs>
</svg>
