<svg width="1268" height="115" viewBox="0 0 1268 115" fill="none" xmlns="http://www.w3.org/2000/svg">
<mask id="path-1-inside-1_308_15450" fill="white">
<path d="M0 0H1268V55H0V0Z"/>
</mask>
<path d="M0 0H1268V55H0V0Z" fill="white"/>
<path d="M1268 54H0V56H1268V54Z" fill="#D9D9D9" mask="url(#path-1-inside-1_308_15450)"/>
<path d="M1115.9 23.36C1116.34 23.368 1116.78 23.444 1117.23 23.588C1117.68 23.724 1118.07 23.932 1118.39 24.212L1117.42 25.22C1117.24 25.012 1117.01 24.856 1116.73 24.752C1116.45 24.64 1116.18 24.584 1115.9 24.584V27.008C1116.2 27.104 1116.51 27.216 1116.81 27.344C1117.11 27.472 1117.39 27.636 1117.63 27.836C1117.87 28.028 1118.07 28.264 1118.23 28.544C1118.38 28.824 1118.45 29.168 1118.45 29.576C1118.45 29.992 1118.38 30.36 1118.24 30.68C1118.1 30.992 1117.91 31.256 1117.67 31.472C1117.44 31.68 1117.17 31.84 1116.86 31.952C1116.55 32.064 1116.23 32.124 1115.9 32.132V32.996H1115.25V32.132C1114.72 32.116 1114.21 32.02 1113.73 31.844C1113.25 31.66 1112.81 31.384 1112.43 31.016L1113.49 30.008C1113.7 30.264 1113.97 30.476 1114.3 30.644C1114.63 30.804 1114.95 30.888 1115.25 30.896V28.232C1114.9 28.136 1114.57 28.028 1114.27 27.908C1113.96 27.78 1113.69 27.62 1113.46 27.428C1113.24 27.236 1113.06 27.008 1112.93 26.744C1112.81 26.472 1112.74 26.144 1112.74 25.76C1112.74 25.4 1112.81 25.08 1112.95 24.8C1113.09 24.512 1113.28 24.268 1113.51 24.068C1113.75 23.868 1114.02 23.712 1114.31 23.6C1114.62 23.48 1114.93 23.408 1115.25 23.384V22.568H1115.9V23.36ZM1115.25 24.584C1114.97 24.616 1114.72 24.72 1114.51 24.896C1114.29 25.072 1114.18 25.336 1114.18 25.688C1114.18 26.024 1114.28 26.28 1114.48 26.456C1114.69 26.624 1114.95 26.752 1115.25 26.84V24.584ZM1115.9 30.896C1116.23 30.88 1116.5 30.76 1116.7 30.536C1116.91 30.312 1117.01 30.02 1117.01 29.66C1117.01 29.308 1116.91 29.044 1116.69 28.868C1116.48 28.684 1116.22 28.536 1115.9 28.424V30.896ZM1122.61 25.256L1120.93 26.636L1120.09 25.64L1122.74 23.504H1124.05V32H1122.61V25.256ZM1133.25 27.752C1133.25 28.44 1133.18 29.06 1133.04 29.612C1132.91 30.164 1132.72 30.632 1132.47 31.016C1132.22 31.4 1131.91 31.696 1131.53 31.904C1131.16 32.112 1130.74 32.216 1130.26 32.216C1129.78 32.216 1129.35 32.112 1128.97 31.904C1128.6 31.696 1128.28 31.4 1128.03 31.016C1127.77 30.632 1127.57 30.164 1127.44 29.612C1127.31 29.06 1127.25 28.44 1127.25 27.752C1127.25 27.064 1127.31 26.444 1127.44 25.892C1127.57 25.34 1127.77 24.872 1128.03 24.488C1128.28 24.104 1128.6 23.808 1128.97 23.6C1129.35 23.392 1129.78 23.288 1130.26 23.288C1130.74 23.288 1131.16 23.392 1131.53 23.6C1131.91 23.808 1132.22 24.104 1132.47 24.488C1132.72 24.872 1132.91 25.34 1133.04 25.892C1133.18 26.444 1133.25 27.064 1133.25 27.752ZM1131.77 27.752C1131.77 27.456 1131.75 27.12 1131.71 26.744C1131.68 26.368 1131.61 26.012 1131.49 25.676C1131.39 25.34 1131.24 25.06 1131.04 24.836C1130.84 24.604 1130.58 24.488 1130.26 24.488C1129.93 24.488 1129.67 24.604 1129.47 24.836C1129.27 25.06 1129.11 25.34 1129 25.676C1128.89 26.012 1128.82 26.368 1128.78 26.744C1128.74 27.12 1128.72 27.456 1128.72 27.752C1128.72 28.048 1128.74 28.384 1128.78 28.76C1128.82 29.136 1128.89 29.488 1129 29.816C1129.11 30.144 1129.27 30.424 1129.47 30.656C1129.67 30.88 1129.93 30.992 1130.26 30.992C1130.58 30.992 1130.84 30.88 1131.04 30.656C1131.24 30.424 1131.39 30.144 1131.49 29.816C1131.61 29.488 1131.68 29.136 1131.71 28.76C1131.75 28.384 1131.77 28.048 1131.77 27.752ZM1135.04 30.344H1136.43L1135.41 33.512H1134.2L1135.04 30.344ZM1143.09 24.8H1139.62L1139.54 26.636C1139.67 26.596 1139.83 26.568 1140.02 26.552C1140.21 26.536 1140.38 26.528 1140.53 26.528C1140.95 26.528 1141.33 26.588 1141.68 26.708C1142.04 26.828 1142.36 27.004 1142.62 27.236C1142.88 27.46 1143.09 27.74 1143.23 28.076C1143.38 28.404 1143.46 28.784 1143.46 29.216C1143.46 29.688 1143.38 30.112 1143.21 30.488C1143.05 30.856 1142.83 31.168 1142.55 31.424C1142.27 31.68 1141.94 31.876 1141.56 32.012C1141.19 32.148 1140.79 32.216 1140.36 32.216C1139.65 32.216 1139.05 32.052 1138.56 31.724C1138.08 31.388 1137.72 30.932 1137.5 30.356L1138.8 29.876C1138.92 30.212 1139.12 30.484 1139.4 30.692C1139.68 30.892 1140.02 30.992 1140.4 30.992C1140.62 30.992 1140.82 30.956 1141.01 30.884C1141.2 30.812 1141.37 30.708 1141.52 30.572C1141.66 30.436 1141.77 30.268 1141.85 30.068C1141.94 29.86 1141.98 29.628 1141.98 29.372C1141.98 29.044 1141.93 28.772 1141.82 28.556C1141.7 28.34 1141.56 28.168 1141.37 28.04C1141.2 27.904 1141 27.812 1140.77 27.764C1140.55 27.708 1140.32 27.68 1140.09 27.68C1139.93 27.68 1139.76 27.692 1139.57 27.716C1139.4 27.74 1139.22 27.776 1139.04 27.824C1138.88 27.864 1138.71 27.912 1138.54 27.968C1138.38 28.024 1138.24 28.084 1138.11 28.148L1138.25 23.504H1143.09V24.8ZM1150.41 24.8H1146.94L1146.86 26.636C1147 26.596 1147.16 26.568 1147.34 26.552C1147.53 26.536 1147.7 26.528 1147.86 26.528C1148.27 26.528 1148.66 26.588 1149.01 26.708C1149.37 26.828 1149.68 27.004 1149.94 27.236C1150.21 27.46 1150.41 27.74 1150.56 28.076C1150.71 28.404 1150.78 28.784 1150.78 29.216C1150.78 29.688 1150.7 30.112 1150.53 30.488C1150.37 30.856 1150.15 31.168 1149.87 31.424C1149.59 31.68 1149.26 31.876 1148.89 32.012C1148.51 32.148 1148.11 32.216 1147.69 32.216C1146.98 32.216 1146.38 32.052 1145.89 31.724C1145.4 31.388 1145.04 30.932 1144.82 30.356L1146.13 29.876C1146.25 30.212 1146.45 30.484 1146.73 30.692C1147.01 30.892 1147.34 30.992 1147.72 30.992C1147.94 30.992 1148.14 30.956 1148.34 30.884C1148.53 30.812 1148.7 30.708 1148.84 30.572C1148.98 30.436 1149.1 30.268 1149.18 30.068C1149.26 29.86 1149.31 29.628 1149.31 29.372C1149.31 29.044 1149.25 28.772 1149.14 28.556C1149.03 28.34 1148.88 28.168 1148.7 28.04C1148.52 27.904 1148.32 27.812 1148.1 27.764C1147.87 27.708 1147.64 27.68 1147.41 27.68C1147.25 27.68 1147.08 27.692 1146.9 27.716C1146.72 27.74 1146.54 27.776 1146.37 27.824C1146.2 27.864 1146.03 27.912 1145.86 27.968C1145.7 28.024 1145.56 28.084 1145.43 28.148L1145.58 23.504H1150.41V24.8ZM1158.34 27.752C1158.34 28.44 1158.27 29.06 1158.13 29.612C1158 30.164 1157.81 30.632 1157.56 31.016C1157.31 31.4 1157 31.696 1156.62 31.904C1156.25 32.112 1155.83 32.216 1155.35 32.216C1154.87 32.216 1154.44 32.112 1154.06 31.904C1153.69 31.696 1153.37 31.4 1153.12 31.016C1152.86 30.632 1152.66 30.164 1152.53 29.612C1152.4 29.06 1152.34 28.44 1152.34 27.752C1152.34 27.064 1152.4 26.444 1152.53 25.892C1152.66 25.34 1152.86 24.872 1153.12 24.488C1153.37 24.104 1153.69 23.808 1154.06 23.6C1154.44 23.392 1154.87 23.288 1155.35 23.288C1155.83 23.288 1156.25 23.392 1156.62 23.6C1157 23.808 1157.31 24.104 1157.56 24.488C1157.81 24.872 1158 25.34 1158.13 25.892C1158.27 26.444 1158.34 27.064 1158.34 27.752ZM1156.86 27.752C1156.86 27.456 1156.84 27.12 1156.8 26.744C1156.77 26.368 1156.7 26.012 1156.58 25.676C1156.48 25.34 1156.33 25.06 1156.13 24.836C1155.93 24.604 1155.67 24.488 1155.35 24.488C1155.02 24.488 1154.76 24.604 1154.56 24.836C1154.36 25.06 1154.2 25.34 1154.09 25.676C1153.98 26.012 1153.91 26.368 1153.87 26.744C1153.83 27.12 1153.81 27.456 1153.81 27.752C1153.81 28.048 1153.83 28.384 1153.87 28.76C1153.91 29.136 1153.98 29.488 1154.09 29.816C1154.2 30.144 1154.36 30.424 1154.56 30.656C1154.76 30.88 1155.02 30.992 1155.35 30.992C1155.67 30.992 1155.93 30.88 1156.13 30.656C1156.33 30.424 1156.48 30.144 1156.58 29.816C1156.7 29.488 1156.77 29.136 1156.8 28.76C1156.84 28.384 1156.86 28.048 1156.86 27.752Z" fill="#222222"/>
<path d="M852.222 23.36C852.662 23.368 853.106 23.444 853.554 23.588C854.002 23.724 854.39 23.932 854.718 24.212L853.746 25.22C853.562 25.012 853.33 24.856 853.05 24.752C852.778 24.64 852.502 24.584 852.222 24.584V27.008C852.526 27.104 852.83 27.216 853.134 27.344C853.438 27.472 853.71 27.636 853.95 27.836C854.198 28.028 854.398 28.264 854.55 28.544C854.702 28.824 854.778 29.168 854.778 29.576C854.778 29.992 854.706 30.36 854.562 30.68C854.426 30.992 854.238 31.256 853.998 31.472C853.766 31.68 853.494 31.84 853.182 31.952C852.878 32.064 852.558 32.124 852.222 32.132V32.996H851.574V32.132C851.046 32.116 850.538 32.02 850.05 31.844C849.57 31.66 849.138 31.384 848.754 31.016L849.81 30.008C850.026 30.264 850.298 30.476 850.626 30.644C850.954 30.804 851.27 30.888 851.574 30.896V28.232C851.222 28.136 850.894 28.028 850.59 27.908C850.286 27.78 850.018 27.62 849.786 27.428C849.562 27.236 849.386 27.008 849.258 26.744C849.13 26.472 849.066 26.144 849.066 25.76C849.066 25.4 849.134 25.08 849.27 24.8C849.414 24.512 849.602 24.268 849.834 24.068C850.074 23.868 850.342 23.712 850.638 23.6C850.942 23.48 851.254 23.408 851.574 23.384V22.568H852.222V23.36ZM851.574 24.584C851.294 24.616 851.046 24.72 850.83 24.896C850.614 25.072 850.506 25.336 850.506 25.688C850.506 26.024 850.606 26.28 850.806 26.456C851.014 26.624 851.27 26.752 851.574 26.84V24.584ZM852.222 30.896C852.558 30.88 852.826 30.76 853.026 30.536C853.234 30.312 853.338 30.02 853.338 29.66C853.338 29.308 853.23 29.044 853.014 28.868C852.806 28.684 852.542 28.536 852.222 28.424V30.896ZM856.198 23.504H861.97V24.824L858.574 32H856.882L860.458 24.8H856.198V23.504ZM864.038 30.344H865.43L864.41 33.512H863.198L864.038 30.344ZM871.319 23.504L869.147 26.648L869.159 26.66C869.271 26.612 869.411 26.576 869.579 26.552C869.755 26.528 869.915 26.516 870.059 26.516C870.435 26.516 870.787 26.588 871.115 26.732C871.443 26.868 871.731 27.06 871.979 27.308C872.227 27.548 872.419 27.836 872.555 28.172C872.699 28.5 872.771 28.856 872.771 29.24C872.771 29.688 872.691 30.096 872.531 30.464C872.371 30.832 872.151 31.148 871.871 31.412C871.599 31.668 871.271 31.864 870.887 32C870.511 32.144 870.107 32.216 869.675 32.216C869.227 32.216 868.815 32.144 868.439 32C868.063 31.848 867.735 31.64 867.455 31.376C867.175 31.112 866.955 30.804 866.795 30.452C866.643 30.092 866.567 29.708 866.567 29.3C866.567 29.06 866.587 28.836 866.627 28.628C866.667 28.412 866.723 28.208 866.795 28.016C866.875 27.816 866.967 27.616 867.071 27.416C867.183 27.216 867.307 27.008 867.443 26.792L869.567 23.504H871.319ZM868.031 29.336C868.031 29.56 868.067 29.772 868.139 29.972C868.219 30.172 868.331 30.348 868.475 30.5C868.619 30.652 868.791 30.772 868.991 30.86C869.191 30.948 869.415 30.992 869.663 30.992C870.151 30.992 870.543 30.84 870.839 30.536C871.143 30.224 871.295 29.816 871.295 29.312C871.295 29.072 871.255 28.852 871.175 28.652C871.103 28.444 870.995 28.268 870.851 28.124C870.707 27.98 870.535 27.868 870.335 27.788C870.143 27.7 869.927 27.656 869.687 27.656C869.447 27.656 869.223 27.696 869.015 27.776C868.815 27.856 868.639 27.972 868.487 28.124C868.343 28.268 868.231 28.444 868.151 28.652C868.071 28.86 868.031 29.088 868.031 29.336ZM879.412 24.8H875.944L875.86 26.636C875.996 26.596 876.156 26.568 876.34 26.552C876.532 26.536 876.704 26.528 876.856 26.528C877.272 26.528 877.656 26.588 878.008 26.708C878.368 26.828 878.68 27.004 878.944 27.236C879.208 27.46 879.412 27.74 879.556 28.076C879.708 28.404 879.784 28.784 879.784 29.216C879.784 29.688 879.7 30.112 879.532 30.488C879.372 30.856 879.152 31.168 878.872 31.424C878.592 31.68 878.264 31.876 877.888 32.012C877.512 32.148 877.112 32.216 876.688 32.216C875.976 32.216 875.376 32.052 874.888 31.724C874.4 31.388 874.044 30.932 873.82 30.356L875.128 29.876C875.248 30.212 875.448 30.484 875.728 30.692C876.008 30.892 876.34 30.992 876.724 30.992C876.94 30.992 877.144 30.956 877.336 30.884C877.528 30.812 877.696 30.708 877.84 30.572C877.984 30.436 878.096 30.268 878.176 30.068C878.264 29.86 878.308 29.628 878.308 29.372C878.308 29.044 878.252 28.772 878.14 28.556C878.028 28.34 877.88 28.168 877.696 28.04C877.52 27.904 877.32 27.812 877.096 27.764C876.872 27.708 876.644 27.68 876.412 27.68C876.252 27.68 876.08 27.692 875.896 27.716C875.72 27.74 875.544 27.776 875.368 27.824C875.2 27.864 875.032 27.912 874.864 27.968C874.704 28.024 874.56 28.084 874.432 28.148L874.576 23.504H879.412V24.8ZM887.336 27.752C887.336 28.44 887.268 29.06 887.132 29.612C887.004 30.164 886.812 30.632 886.556 31.016C886.308 31.4 885.996 31.696 885.62 31.904C885.252 32.112 884.828 32.216 884.348 32.216C883.868 32.216 883.44 32.112 883.064 31.904C882.688 31.696 882.372 31.4 882.116 31.016C881.86 30.632 881.664 30.164 881.528 29.612C881.4 29.06 881.336 28.44 881.336 27.752C881.336 27.064 881.4 26.444 881.528 25.892C881.664 25.34 881.86 24.872 882.116 24.488C882.372 24.104 882.688 23.808 883.064 23.6C883.44 23.392 883.868 23.288 884.348 23.288C884.828 23.288 885.252 23.392 885.62 23.6C885.996 23.808 886.308 24.104 886.556 24.488C886.812 24.872 887.004 25.34 887.132 25.892C887.268 26.444 887.336 27.064 887.336 27.752ZM885.86 27.752C885.86 27.456 885.84 27.12 885.8 26.744C885.768 26.368 885.696 26.012 885.584 25.676C885.48 25.34 885.328 25.06 885.128 24.836C884.928 24.604 884.668 24.488 884.348 24.488C884.02 24.488 883.756 24.604 883.556 24.836C883.356 25.06 883.2 25.34 883.088 25.676C882.984 26.012 882.912 26.368 882.872 26.744C882.832 27.12 882.812 27.456 882.812 27.752C882.812 28.048 882.832 28.384 882.872 28.76C882.912 29.136 882.984 29.488 883.088 29.816C883.2 30.144 883.356 30.424 883.556 30.656C883.756 30.88 884.02 30.992 884.348 30.992C884.668 30.992 884.928 30.88 885.128 30.656C885.328 30.424 885.48 30.144 885.584 29.816C885.696 29.488 885.768 29.136 885.8 28.76C885.84 28.384 885.86 28.048 885.86 27.752Z" fill="#222222"/>
<path d="M772.222 23.36C772.662 23.368 773.106 23.444 773.554 23.588C774.002 23.724 774.39 23.932 774.718 24.212L773.746 25.22C773.562 25.012 773.33 24.856 773.05 24.752C772.778 24.64 772.502 24.584 772.222 24.584V27.008C772.526 27.104 772.83 27.216 773.134 27.344C773.438 27.472 773.71 27.636 773.95 27.836C774.198 28.028 774.398 28.264 774.55 28.544C774.702 28.824 774.778 29.168 774.778 29.576C774.778 29.992 774.706 30.36 774.562 30.68C774.426 30.992 774.238 31.256 773.998 31.472C773.766 31.68 773.494 31.84 773.182 31.952C772.878 32.064 772.558 32.124 772.222 32.132V32.996H771.574V32.132C771.046 32.116 770.538 32.02 770.05 31.844C769.57 31.66 769.138 31.384 768.754 31.016L769.81 30.008C770.026 30.264 770.298 30.476 770.626 30.644C770.954 30.804 771.27 30.888 771.574 30.896V28.232C771.222 28.136 770.894 28.028 770.59 27.908C770.286 27.78 770.018 27.62 769.786 27.428C769.562 27.236 769.386 27.008 769.258 26.744C769.13 26.472 769.066 26.144 769.066 25.76C769.066 25.4 769.134 25.08 769.27 24.8C769.414 24.512 769.602 24.268 769.834 24.068C770.074 23.868 770.342 23.712 770.638 23.6C770.942 23.48 771.254 23.408 771.574 23.384V22.568H772.222V23.36ZM771.574 24.584C771.294 24.616 771.046 24.72 770.83 24.896C770.614 25.072 770.506 25.336 770.506 25.688C770.506 26.024 770.606 26.28 770.806 26.456C771.014 26.624 771.27 26.752 771.574 26.84V24.584ZM772.222 30.896C772.558 30.88 772.826 30.76 773.026 30.536C773.234 30.312 773.338 30.02 773.338 29.66C773.338 29.308 773.23 29.044 773.014 28.868C772.806 28.684 772.542 28.536 772.222 28.424V30.896ZM779.246 23.288C779.614 23.288 779.962 23.34 780.29 23.444C780.618 23.548 780.902 23.7 781.142 23.9C781.39 24.1 781.582 24.344 781.718 24.632C781.862 24.912 781.934 25.232 781.934 25.592C781.934 26.088 781.81 26.5 781.562 26.828C781.314 27.156 780.998 27.384 780.614 27.512V27.536C780.838 27.592 781.046 27.684 781.238 27.812C781.43 27.932 781.598 28.084 781.742 28.268C781.886 28.444 781.998 28.644 782.078 28.868C782.166 29.092 782.21 29.336 782.21 29.6C782.21 30.024 782.13 30.4 781.97 30.728C781.818 31.048 781.606 31.32 781.334 31.544C781.07 31.768 780.758 31.936 780.398 32.048C780.038 32.16 779.654 32.216 779.246 32.216C778.838 32.216 778.454 32.16 778.094 32.048C777.734 31.936 777.418 31.768 777.146 31.544C776.882 31.32 776.67 31.048 776.51 30.728C776.358 30.4 776.282 30.024 776.282 29.6C776.282 29.328 776.326 29.076 776.414 28.844C776.502 28.612 776.618 28.408 776.762 28.232C776.914 28.056 777.086 27.912 777.278 27.8C777.47 27.68 777.67 27.592 777.878 27.536V27.512C777.494 27.376 777.178 27.156 776.93 26.852C776.682 26.548 776.558 26.148 776.558 25.652C776.558 25.292 776.626 24.968 776.762 24.68C776.906 24.384 777.098 24.136 777.338 23.936C777.586 23.728 777.87 23.568 778.19 23.456C778.518 23.344 778.87 23.288 779.246 23.288ZM779.246 24.476C778.886 24.476 778.59 24.584 778.358 24.8C778.134 25.016 778.022 25.308 778.022 25.676C778.022 26.02 778.13 26.312 778.346 26.552C778.57 26.792 778.87 26.912 779.246 26.912C779.414 26.912 779.574 26.88 779.726 26.816C779.878 26.752 780.01 26.664 780.122 26.552C780.234 26.44 780.322 26.308 780.386 26.156C780.45 26.004 780.482 25.844 780.482 25.676C780.482 25.492 780.446 25.328 780.374 25.184C780.31 25.032 780.218 24.904 780.098 24.8C779.986 24.696 779.854 24.616 779.702 24.56C779.558 24.504 779.406 24.476 779.246 24.476ZM779.246 28.136C779.038 28.136 778.842 28.172 778.658 28.244C778.482 28.316 778.326 28.416 778.19 28.544C778.062 28.664 777.958 28.816 777.878 29C777.806 29.176 777.77 29.372 777.77 29.588C777.77 30.036 777.91 30.384 778.19 30.632C778.47 30.88 778.822 31.004 779.246 31.004C779.662 31.004 780.01 30.88 780.29 30.632C780.57 30.384 780.71 30.036 780.71 29.588C780.71 29.38 780.67 29.188 780.59 29.012C780.518 28.828 780.414 28.672 780.278 28.544C780.15 28.416 779.994 28.316 779.81 28.244C779.634 28.172 779.446 28.136 779.246 28.136ZM784.038 30.344H785.43L784.41 33.512H783.198L784.038 30.344ZM792.687 27.752C792.687 28.44 792.619 29.06 792.483 29.612C792.355 30.164 792.163 30.632 791.907 31.016C791.659 31.4 791.347 31.696 790.971 31.904C790.603 32.112 790.179 32.216 789.699 32.216C789.219 32.216 788.791 32.112 788.415 31.904C788.039 31.696 787.723 31.4 787.467 31.016C787.211 30.632 787.015 30.164 786.879 29.612C786.751 29.06 786.687 28.44 786.687 27.752C786.687 27.064 786.751 26.444 786.879 25.892C787.015 25.34 787.211 24.872 787.467 24.488C787.723 24.104 788.039 23.808 788.415 23.6C788.791 23.392 789.219 23.288 789.699 23.288C790.179 23.288 790.603 23.392 790.971 23.6C791.347 23.808 791.659 24.104 791.907 24.488C792.163 24.872 792.355 25.34 792.483 25.892C792.619 26.444 792.687 27.064 792.687 27.752ZM791.211 27.752C791.211 27.456 791.191 27.12 791.151 26.744C791.119 26.368 791.047 26.012 790.935 25.676C790.831 25.34 790.679 25.06 790.479 24.836C790.279 24.604 790.019 24.488 789.699 24.488C789.371 24.488 789.107 24.604 788.907 24.836C788.707 25.06 788.551 25.34 788.439 25.676C788.335 26.012 788.263 26.368 788.223 26.744C788.183 27.12 788.163 27.456 788.163 27.752C788.163 28.048 788.183 28.384 788.223 28.76C788.263 29.136 788.335 29.488 788.439 29.816C788.551 30.144 788.707 30.424 788.907 30.656C789.107 30.88 789.371 30.992 789.699 30.992C790.019 30.992 790.279 30.88 790.479 30.656C790.679 30.424 790.831 30.144 790.935 29.816C791.047 29.488 791.119 29.136 791.151 28.76C791.191 28.384 791.211 28.048 791.211 27.752ZM795.896 26.996H796.28C796.496 26.996 796.708 26.98 796.916 26.948C797.132 26.908 797.328 26.84 797.504 26.744C797.68 26.648 797.82 26.52 797.924 26.36C798.036 26.192 798.092 25.976 798.092 25.712C798.092 25.52 798.056 25.348 797.984 25.196C797.912 25.044 797.812 24.916 797.684 24.812C797.564 24.708 797.42 24.628 797.252 24.572C797.092 24.516 796.924 24.488 796.748 24.488C796.396 24.488 796.104 24.588 795.872 24.788C795.64 24.988 795.48 25.252 795.392 25.58L794.036 25.232C794.108 24.944 794.228 24.684 794.396 24.452C794.572 24.212 794.78 24.008 795.02 23.84C795.268 23.664 795.544 23.528 795.848 23.432C796.152 23.336 796.472 23.288 796.808 23.288C797.176 23.288 797.524 23.34 797.852 23.444C798.188 23.54 798.48 23.688 798.728 23.888C798.984 24.08 799.184 24.32 799.328 24.608C799.472 24.896 799.544 25.232 799.544 25.616C799.544 26.072 799.404 26.48 799.124 26.84C798.852 27.192 798.484 27.424 798.02 27.536V27.56C798.54 27.664 798.96 27.9 799.28 28.268C799.608 28.628 799.772 29.072 799.772 29.6C799.772 30.04 799.684 30.424 799.508 30.752C799.34 31.08 799.112 31.352 798.824 31.568C798.544 31.784 798.228 31.944 797.876 32.048C797.524 32.16 797.168 32.216 796.808 32.216C796.448 32.216 796.108 32.176 795.788 32.096C795.468 32.024 795.172 31.908 794.9 31.748C794.636 31.588 794.4 31.38 794.192 31.124C793.992 30.868 793.836 30.564 793.724 30.212L795.068 29.792C795.172 30.128 795.364 30.412 795.644 30.644C795.932 30.876 796.304 30.992 796.76 30.992C796.944 30.992 797.128 30.968 797.312 30.92C797.504 30.864 797.672 30.78 797.816 30.668C797.968 30.556 798.088 30.412 798.176 30.236C798.272 30.06 798.32 29.844 798.32 29.588C798.32 29.316 798.252 29.088 798.116 28.904C797.988 28.712 797.824 28.564 797.624 28.46C797.424 28.348 797.2 28.268 796.952 28.22C796.712 28.172 796.48 28.148 796.256 28.148H795.896V26.996ZM804.336 23.288C804.704 23.288 805.052 23.34 805.38 23.444C805.708 23.548 805.992 23.7 806.232 23.9C806.48 24.1 806.672 24.344 806.808 24.632C806.952 24.912 807.024 25.232 807.024 25.592C807.024 26.088 806.9 26.5 806.652 26.828C806.404 27.156 806.088 27.384 805.704 27.512V27.536C805.928 27.592 806.136 27.684 806.328 27.812C806.52 27.932 806.688 28.084 806.832 28.268C806.976 28.444 807.088 28.644 807.168 28.868C807.256 29.092 807.3 29.336 807.3 29.6C807.3 30.024 807.22 30.4 807.06 30.728C806.908 31.048 806.696 31.32 806.424 31.544C806.16 31.768 805.848 31.936 805.488 32.048C805.128 32.16 804.744 32.216 804.336 32.216C803.928 32.216 803.544 32.16 803.184 32.048C802.824 31.936 802.508 31.768 802.236 31.544C801.972 31.32 801.76 31.048 801.6 30.728C801.448 30.4 801.372 30.024 801.372 29.6C801.372 29.328 801.416 29.076 801.504 28.844C801.592 28.612 801.708 28.408 801.852 28.232C802.004 28.056 802.176 27.912 802.368 27.8C802.56 27.68 802.76 27.592 802.968 27.536V27.512C802.584 27.376 802.268 27.156 802.02 26.852C801.772 26.548 801.648 26.148 801.648 25.652C801.648 25.292 801.716 24.968 801.852 24.68C801.996 24.384 802.188 24.136 802.428 23.936C802.676 23.728 802.96 23.568 803.28 23.456C803.608 23.344 803.96 23.288 804.336 23.288ZM804.336 24.476C803.976 24.476 803.68 24.584 803.448 24.8C803.224 25.016 803.112 25.308 803.112 25.676C803.112 26.02 803.22 26.312 803.436 26.552C803.66 26.792 803.96 26.912 804.336 26.912C804.504 26.912 804.664 26.88 804.816 26.816C804.968 26.752 805.1 26.664 805.212 26.552C805.324 26.44 805.412 26.308 805.476 26.156C805.54 26.004 805.572 25.844 805.572 25.676C805.572 25.492 805.536 25.328 805.464 25.184C805.4 25.032 805.308 24.904 805.188 24.8C805.076 24.696 804.944 24.616 804.792 24.56C804.648 24.504 804.496 24.476 804.336 24.476ZM804.336 28.136C804.128 28.136 803.932 28.172 803.748 28.244C803.572 28.316 803.416 28.416 803.28 28.544C803.152 28.664 803.048 28.816 802.968 29C802.896 29.176 802.86 29.372 802.86 29.588C802.86 30.036 803 30.384 803.28 30.632C803.56 30.88 803.912 31.004 804.336 31.004C804.752 31.004 805.1 30.88 805.38 30.632C805.66 30.384 805.8 30.036 805.8 29.588C805.8 29.38 805.76 29.188 805.68 29.012C805.608 28.828 805.504 28.672 805.368 28.544C805.24 28.416 805.084 28.316 804.9 28.244C804.724 28.172 804.536 28.136 804.336 28.136Z" fill="#222222"/>
<path d="M768.262 29H807.996V29.6H768.262V29Z" fill="#222222"/>
<path d="M941.7 25.256L940.02 26.636L939.18 25.64L941.832 23.504H943.14V32H941.7V25.256ZM948.22 26.996H948.604C948.82 26.996 949.032 26.98 949.24 26.948C949.456 26.908 949.652 26.84 949.828 26.744C950.004 26.648 950.144 26.52 950.248 26.36C950.36 26.192 950.416 25.976 950.416 25.712C950.416 25.52 950.38 25.348 950.308 25.196C950.236 25.044 950.136 24.916 950.008 24.812C949.888 24.708 949.744 24.628 949.576 24.572C949.416 24.516 949.248 24.488 949.072 24.488C948.72 24.488 948.428 24.588 948.196 24.788C947.964 24.988 947.804 25.252 947.716 25.58L946.36 25.232C946.432 24.944 946.552 24.684 946.72 24.452C946.896 24.212 947.104 24.008 947.344 23.84C947.592 23.664 947.868 23.528 948.172 23.432C948.476 23.336 948.796 23.288 949.132 23.288C949.5 23.288 949.848 23.34 950.176 23.444C950.512 23.54 950.804 23.688 951.052 23.888C951.308 24.08 951.508 24.32 951.652 24.608C951.796 24.896 951.868 25.232 951.868 25.616C951.868 26.072 951.728 26.48 951.448 26.84C951.176 27.192 950.808 27.424 950.344 27.536V27.56C950.864 27.664 951.284 27.9 951.604 28.268C951.932 28.628 952.096 29.072 952.096 29.6C952.096 30.04 952.008 30.424 951.832 30.752C951.664 31.08 951.436 31.352 951.148 31.568C950.868 31.784 950.552 31.944 950.2 32.048C949.848 32.16 949.492 32.216 949.132 32.216C948.772 32.216 948.432 32.176 948.112 32.096C947.792 32.024 947.496 31.908 947.224 31.748C946.96 31.588 946.724 31.38 946.516 31.124C946.316 30.868 946.16 30.564 946.048 30.212L947.392 29.792C947.496 30.128 947.688 30.412 947.968 30.644C948.256 30.876 948.628 30.992 949.084 30.992C949.268 30.992 949.452 30.968 949.636 30.92C949.828 30.864 949.996 30.78 950.14 30.668C950.292 30.556 950.412 30.412 950.5 30.236C950.596 30.06 950.644 29.844 950.644 29.588C950.644 29.316 950.576 29.088 950.44 28.904C950.312 28.712 950.148 28.564 949.948 28.46C949.748 28.348 949.524 28.268 949.276 28.22C949.036 28.172 948.804 28.148 948.58 28.148H948.22V26.996Z" fill="#222222"/>
<path d="M1020.22 23.36C1020.66 23.368 1021.11 23.444 1021.55 23.588C1022 23.724 1022.39 23.932 1022.72 24.212L1021.75 25.22C1021.56 25.012 1021.33 24.856 1021.05 24.752C1020.78 24.64 1020.5 24.584 1020.22 24.584V27.008C1020.53 27.104 1020.83 27.216 1021.13 27.344C1021.44 27.472 1021.71 27.636 1021.95 27.836C1022.2 28.028 1022.4 28.264 1022.55 28.544C1022.7 28.824 1022.78 29.168 1022.78 29.576C1022.78 29.992 1022.71 30.36 1022.56 30.68C1022.43 30.992 1022.24 31.256 1022 31.472C1021.77 31.68 1021.49 31.84 1021.18 31.952C1020.88 32.064 1020.56 32.124 1020.22 32.132V32.996H1019.57V32.132C1019.05 32.116 1018.54 32.02 1018.05 31.844C1017.57 31.66 1017.14 31.384 1016.75 31.016L1017.81 30.008C1018.03 30.264 1018.3 30.476 1018.63 30.644C1018.95 30.804 1019.27 30.888 1019.57 30.896V28.232C1019.22 28.136 1018.89 28.028 1018.59 27.908C1018.29 27.78 1018.02 27.62 1017.79 27.428C1017.56 27.236 1017.39 27.008 1017.26 26.744C1017.13 26.472 1017.07 26.144 1017.07 25.76C1017.07 25.4 1017.13 25.08 1017.27 24.8C1017.41 24.512 1017.6 24.268 1017.83 24.068C1018.07 23.868 1018.34 23.712 1018.64 23.6C1018.94 23.48 1019.25 23.408 1019.57 23.384V22.568H1020.22V23.36ZM1019.57 24.584C1019.29 24.616 1019.05 24.72 1018.83 24.896C1018.61 25.072 1018.51 25.336 1018.51 25.688C1018.51 26.024 1018.61 26.28 1018.81 26.456C1019.01 26.624 1019.27 26.752 1019.57 26.84V24.584ZM1020.22 30.896C1020.56 30.88 1020.83 30.76 1021.03 30.536C1021.23 30.312 1021.34 30.02 1021.34 29.66C1021.34 29.308 1021.23 29.044 1021.01 28.868C1020.81 28.684 1020.54 28.536 1020.22 28.424V30.896ZM1027.25 23.288C1027.61 23.288 1027.96 23.34 1028.29 23.444C1028.62 23.548 1028.9 23.7 1029.14 23.9C1029.39 24.1 1029.58 24.344 1029.72 24.632C1029.86 24.912 1029.93 25.232 1029.93 25.592C1029.93 26.088 1029.81 26.5 1029.56 26.828C1029.31 27.156 1029 27.384 1028.61 27.512V27.536C1028.84 27.592 1029.05 27.684 1029.24 27.812C1029.43 27.932 1029.6 28.084 1029.74 28.268C1029.89 28.444 1030 28.644 1030.08 28.868C1030.17 29.092 1030.21 29.336 1030.21 29.6C1030.21 30.024 1030.13 30.4 1029.97 30.728C1029.82 31.048 1029.61 31.32 1029.33 31.544C1029.07 31.768 1028.76 31.936 1028.4 32.048C1028.04 32.16 1027.65 32.216 1027.25 32.216C1026.84 32.216 1026.45 32.16 1026.09 32.048C1025.73 31.936 1025.42 31.768 1025.15 31.544C1024.88 31.32 1024.67 31.048 1024.51 30.728C1024.36 30.4 1024.28 30.024 1024.28 29.6C1024.28 29.328 1024.33 29.076 1024.41 28.844C1024.5 28.612 1024.62 28.408 1024.76 28.232C1024.91 28.056 1025.09 27.912 1025.28 27.8C1025.47 27.68 1025.67 27.592 1025.88 27.536V27.512C1025.49 27.376 1025.18 27.156 1024.93 26.852C1024.68 26.548 1024.56 26.148 1024.56 25.652C1024.56 25.292 1024.63 24.968 1024.76 24.68C1024.91 24.384 1025.1 24.136 1025.34 23.936C1025.59 23.728 1025.87 23.568 1026.19 23.456C1026.52 23.344 1026.87 23.288 1027.25 23.288ZM1027.25 24.476C1026.89 24.476 1026.59 24.584 1026.36 24.8C1026.13 25.016 1026.02 25.308 1026.02 25.676C1026.02 26.02 1026.13 26.312 1026.35 26.552C1026.57 26.792 1026.87 26.912 1027.25 26.912C1027.41 26.912 1027.57 26.88 1027.73 26.816C1027.88 26.752 1028.01 26.664 1028.12 26.552C1028.23 26.44 1028.32 26.308 1028.39 26.156C1028.45 26.004 1028.48 25.844 1028.48 25.676C1028.48 25.492 1028.45 25.328 1028.37 25.184C1028.31 25.032 1028.22 24.904 1028.1 24.8C1027.99 24.696 1027.85 24.616 1027.7 24.56C1027.56 24.504 1027.41 24.476 1027.25 24.476ZM1027.25 28.136C1027.04 28.136 1026.84 28.172 1026.66 28.244C1026.48 28.316 1026.33 28.416 1026.19 28.544C1026.06 28.664 1025.96 28.816 1025.88 29C1025.81 29.176 1025.77 29.372 1025.77 29.588C1025.77 30.036 1025.91 30.384 1026.19 30.632C1026.47 30.88 1026.82 31.004 1027.25 31.004C1027.66 31.004 1028.01 30.88 1028.29 30.632C1028.57 30.384 1028.71 30.036 1028.71 29.588C1028.71 29.38 1028.67 29.188 1028.59 29.012C1028.52 28.828 1028.41 28.672 1028.28 28.544C1028.15 28.416 1027.99 28.316 1027.81 28.244C1027.63 28.172 1027.45 28.136 1027.25 28.136ZM1032.04 30.344H1033.43L1032.41 33.512H1031.2L1032.04 30.344ZM1034.64 23.504H1040.41V24.824L1037.02 32H1035.32L1038.9 24.8H1034.64V23.504ZM1048.01 27.752C1048.01 28.44 1047.94 29.06 1047.81 29.612C1047.68 30.164 1047.49 30.632 1047.23 31.016C1046.98 31.4 1046.67 31.696 1046.3 31.904C1045.93 32.112 1045.5 32.216 1045.02 32.216C1044.54 32.216 1044.12 32.112 1043.74 31.904C1043.36 31.696 1043.05 31.4 1042.79 31.016C1042.54 30.632 1042.34 30.164 1042.2 29.612C1042.08 29.06 1042.01 28.44 1042.01 27.752C1042.01 27.064 1042.08 26.444 1042.2 25.892C1042.34 25.34 1042.54 24.872 1042.79 24.488C1043.05 24.104 1043.36 23.808 1043.74 23.6C1044.12 23.392 1044.54 23.288 1045.02 23.288C1045.5 23.288 1045.93 23.392 1046.3 23.6C1046.67 23.808 1046.98 24.104 1047.23 24.488C1047.49 24.872 1047.68 25.34 1047.81 25.892C1047.94 26.444 1048.01 27.064 1048.01 27.752ZM1046.54 27.752C1046.54 27.456 1046.52 27.12 1046.48 26.744C1046.44 26.368 1046.37 26.012 1046.26 25.676C1046.16 25.34 1046 25.06 1045.8 24.836C1045.6 24.604 1045.34 24.488 1045.02 24.488C1044.7 24.488 1044.43 24.604 1044.23 24.836C1044.03 25.06 1043.88 25.34 1043.76 25.676C1043.66 26.012 1043.59 26.368 1043.55 26.744C1043.51 27.12 1043.49 27.456 1043.49 27.752C1043.49 28.048 1043.51 28.384 1043.55 28.76C1043.59 29.136 1043.66 29.488 1043.76 29.816C1043.88 30.144 1044.03 30.424 1044.23 30.656C1044.43 30.88 1044.7 30.992 1045.02 30.992C1045.34 30.992 1045.6 30.88 1045.8 30.656C1046 30.424 1046.16 30.144 1046.26 29.816C1046.37 29.488 1046.44 29.136 1046.48 28.76C1046.52 28.384 1046.54 28.048 1046.54 27.752ZM1055.34 27.752C1055.34 28.44 1055.27 29.06 1055.13 29.612C1055 30.164 1054.81 30.632 1054.56 31.016C1054.31 31.4 1054 31.696 1053.62 31.904C1053.25 32.112 1052.83 32.216 1052.35 32.216C1051.87 32.216 1051.44 32.112 1051.06 31.904C1050.69 31.696 1050.37 31.4 1050.12 31.016C1049.86 30.632 1049.66 30.164 1049.53 29.612C1049.4 29.06 1049.34 28.44 1049.34 27.752C1049.34 27.064 1049.4 26.444 1049.53 25.892C1049.66 25.34 1049.86 24.872 1050.12 24.488C1050.37 24.104 1050.69 23.808 1051.06 23.6C1051.44 23.392 1051.87 23.288 1052.35 23.288C1052.83 23.288 1053.25 23.392 1053.62 23.6C1054 23.808 1054.31 24.104 1054.56 24.488C1054.81 24.872 1055 25.34 1055.13 25.892C1055.27 26.444 1055.34 27.064 1055.34 27.752ZM1053.86 27.752C1053.86 27.456 1053.84 27.12 1053.8 26.744C1053.77 26.368 1053.7 26.012 1053.58 25.676C1053.48 25.34 1053.33 25.06 1053.13 24.836C1052.93 24.604 1052.67 24.488 1052.35 24.488C1052.02 24.488 1051.76 24.604 1051.56 24.836C1051.36 25.06 1051.2 25.34 1051.09 25.676C1050.98 26.012 1050.91 26.368 1050.87 26.744C1050.83 27.12 1050.81 27.456 1050.81 27.752C1050.81 28.048 1050.83 28.384 1050.87 28.76C1050.91 29.136 1050.98 29.488 1051.09 29.816C1051.2 30.144 1051.36 30.424 1051.56 30.656C1051.76 30.88 1052.02 30.992 1052.35 30.992C1052.67 30.992 1052.93 30.88 1053.13 30.656C1053.33 30.424 1053.48 30.144 1053.58 29.816C1053.7 29.488 1053.77 29.136 1053.8 28.76C1053.84 28.384 1053.86 28.048 1053.86 27.752Z" fill="#222222"/>
<path d="M18.652 24.824H16.048V23.504H22.768V24.824H20.164V32H18.652V24.824ZM22.985 27.728C22.985 27.048 23.097 26.436 23.321 25.892C23.553 25.34 23.869 24.872 24.269 24.488C24.677 24.104 25.157 23.808 25.709 23.6C26.269 23.392 26.877 23.288 27.533 23.288C28.197 23.288 28.809 23.392 29.369 23.6C29.929 23.808 30.413 24.104 30.821 24.488C31.229 24.872 31.545 25.34 31.769 25.892C32.001 26.436 32.117 27.048 32.117 27.728C32.117 28.392 32.001 29 31.769 29.552C31.545 30.096 31.229 30.568 30.821 30.968C30.413 31.36 29.929 31.668 29.369 31.892C28.809 32.108 28.197 32.216 27.533 32.216C26.877 32.216 26.269 32.108 25.709 31.892C25.157 31.668 24.677 31.36 24.269 30.968C23.869 30.568 23.553 30.096 23.321 29.552C23.097 29 22.985 28.392 22.985 27.728ZM24.629 27.728C24.629 28.184 24.697 28.604 24.833 28.988C24.977 29.364 25.177 29.692 25.433 29.972C25.697 30.252 26.005 30.472 26.357 30.632C26.717 30.784 27.113 30.86 27.545 30.86C27.977 30.86 28.373 30.784 28.733 30.632C29.093 30.472 29.401 30.252 29.657 29.972C29.921 29.692 30.121 29.364 30.257 28.988C30.401 28.604 30.473 28.184 30.473 27.728C30.473 27.288 30.401 26.88 30.257 26.504C30.121 26.128 29.925 25.8 29.669 25.52C29.413 25.24 29.105 25.02 28.745 24.86C28.385 24.7 27.985 24.62 27.545 24.62C27.105 24.62 26.705 24.7 26.345 24.86C25.993 25.02 25.689 25.24 25.433 25.52C25.177 25.8 24.977 26.128 24.833 26.504C24.697 26.88 24.629 27.288 24.629 27.728ZM34.9293 24.824H32.3253V23.504H39.0453V24.824H36.4413V32H34.9293V24.824ZM41.9828 23.504H43.2908L46.9508 32H45.2228L44.4308 30.056H40.7468L39.9788 32H38.2868L41.9828 23.504ZM43.9028 28.76L42.5948 25.304L41.2628 28.76H43.9028ZM47.7915 23.504H49.3035V30.656H52.9155V32H47.7915V23.504Z" fill="#222222"/>
<path fill-rule="evenodd" clip-rule="evenodd" d="M0 55H16V115H0V55Z" fill="#A8A18F"/>
<path d="M16.5 55.5H52.5V114.5H16.5V55.5Z" fill="#DCDFD8" stroke="#A8A18F"/>
<path fill-rule="evenodd" clip-rule="evenodd" d="M53 55H728V115H53V55Z" fill="#A8A18F"/>
<path d="M728.5 55.5H807.5V114.5H728.5V55.5Z" fill="#DCDFD8" stroke="#A8A18F"/>
<path d="M808.5 55.5H887.5V114.5H808.5V55.5Z" fill="#DCDFD8" stroke="#A8A18F"/>
<path d="M888.5 55.5H952.5V114.5H888.5V55.5Z" fill="#DCDFD8" stroke="#A8A18F"/>
<path d="M953.5 55.5H1055.5V114.5H953.5V55.5Z" fill="#DCDFD8" stroke="#A8A18F"/>
<path d="M1056.5 55.5H1158.5V114.5H1056.5V55.5Z" fill="#DCDFD8" stroke="#A8A18F"/>
<path fill-rule="evenodd" clip-rule="evenodd" d="M1159 55H1252V115H1159V55Z" fill="#A8A18F"/>
<path fill-rule="evenodd" clip-rule="evenodd" d="M1252 55H1268V115H1252V55Z" fill="#A8A18F"/>
</svg>
