<svg width="1268" height="115" viewBox="0 0 1268 115" fill="none" xmlns="http://www.w3.org/2000/svg">
<mask id="path-1-inside-1_308_15481" fill="white">
<path d="M0 0H1268V55H0V0Z"/>
</mask>
<path d="M0 0H1268V55H0V0Z" fill="white"/>
<path d="M1268 54H0V56H1268V54Z" fill="#D9D9D9" mask="url(#path-1-inside-1_308_15481)"/>
<path d="M1050.9 23.36C1051.34 23.368 1051.78 23.444 1052.23 23.588C1052.68 23.724 1053.07 23.932 1053.39 24.212L1052.42 25.22C1052.24 25.012 1052.01 24.856 1051.73 24.752C1051.45 24.64 1051.18 24.584 1050.9 24.584V27.008C1051.2 27.104 1051.51 27.216 1051.81 27.344C1052.11 27.472 1052.39 27.636 1052.63 27.836C1052.87 28.028 1053.07 28.264 1053.23 28.544C1053.38 28.824 1053.45 29.168 1053.45 29.576C1053.45 29.992 1053.38 30.36 1053.24 30.68C1053.1 30.992 1052.91 31.256 1052.67 31.472C1052.44 31.68 1052.17 31.84 1051.86 31.952C1051.55 32.064 1051.23 32.124 1050.9 32.132V32.996H1050.25V32.132C1049.72 32.116 1049.21 32.02 1048.73 31.844C1048.25 31.66 1047.81 31.384 1047.43 31.016L1048.49 30.008C1048.7 30.264 1048.97 30.476 1049.3 30.644C1049.63 30.804 1049.95 30.888 1050.25 30.896V28.232C1049.9 28.136 1049.57 28.028 1049.27 27.908C1048.96 27.78 1048.69 27.62 1048.46 27.428C1048.24 27.236 1048.06 27.008 1047.93 26.744C1047.81 26.472 1047.74 26.144 1047.74 25.76C1047.74 25.4 1047.81 25.08 1047.95 24.8C1048.09 24.512 1048.28 24.268 1048.51 24.068C1048.75 23.868 1049.02 23.712 1049.31 23.6C1049.62 23.48 1049.93 23.408 1050.25 23.384V22.568H1050.9V23.36ZM1050.25 24.584C1049.97 24.616 1049.72 24.72 1049.51 24.896C1049.29 25.072 1049.18 25.336 1049.18 25.688C1049.18 26.024 1049.28 26.28 1049.48 26.456C1049.69 26.624 1049.95 26.752 1050.25 26.84V24.584ZM1050.9 30.896C1051.23 30.88 1051.5 30.76 1051.7 30.536C1051.91 30.312 1052.01 30.02 1052.01 29.66C1052.01 29.308 1051.91 29.044 1051.69 28.868C1051.48 28.684 1051.22 28.536 1050.9 28.424V30.896ZM1057.61 25.256L1055.93 26.636L1055.09 25.64L1057.74 23.504H1059.05V32H1057.61V25.256ZM1068.25 27.752C1068.25 28.44 1068.18 29.06 1068.04 29.612C1067.91 30.164 1067.72 30.632 1067.47 31.016C1067.22 31.4 1066.91 31.696 1066.53 31.904C1066.16 32.112 1065.74 32.216 1065.26 32.216C1064.78 32.216 1064.35 32.112 1063.97 31.904C1063.6 31.696 1063.28 31.4 1063.03 31.016C1062.77 30.632 1062.57 30.164 1062.44 29.612C1062.31 29.06 1062.25 28.44 1062.25 27.752C1062.25 27.064 1062.31 26.444 1062.44 25.892C1062.57 25.34 1062.77 24.872 1063.03 24.488C1063.28 24.104 1063.6 23.808 1063.97 23.6C1064.35 23.392 1064.78 23.288 1065.26 23.288C1065.74 23.288 1066.16 23.392 1066.53 23.6C1066.91 23.808 1067.22 24.104 1067.47 24.488C1067.72 24.872 1067.91 25.34 1068.04 25.892C1068.18 26.444 1068.25 27.064 1068.25 27.752ZM1066.77 27.752C1066.77 27.456 1066.75 27.12 1066.71 26.744C1066.68 26.368 1066.61 26.012 1066.49 25.676C1066.39 25.34 1066.24 25.06 1066.04 24.836C1065.84 24.604 1065.58 24.488 1065.26 24.488C1064.93 24.488 1064.67 24.604 1064.47 24.836C1064.27 25.06 1064.11 25.34 1064 25.676C1063.89 26.012 1063.82 26.368 1063.78 26.744C1063.74 27.12 1063.72 27.456 1063.72 27.752C1063.72 28.048 1063.74 28.384 1063.78 28.76C1063.82 29.136 1063.89 29.488 1064 29.816C1064.11 30.144 1064.27 30.424 1064.47 30.656C1064.67 30.88 1064.93 30.992 1065.26 30.992C1065.58 30.992 1065.84 30.88 1066.04 30.656C1066.24 30.424 1066.39 30.144 1066.49 29.816C1066.61 29.488 1066.68 29.136 1066.71 28.76C1066.75 28.384 1066.77 28.048 1066.77 27.752ZM1070.04 30.344H1071.43L1070.41 33.512H1069.2L1070.04 30.344ZM1078.09 24.8H1074.62L1074.54 26.636C1074.67 26.596 1074.83 26.568 1075.02 26.552C1075.21 26.536 1075.38 26.528 1075.53 26.528C1075.95 26.528 1076.33 26.588 1076.68 26.708C1077.04 26.828 1077.36 27.004 1077.62 27.236C1077.88 27.46 1078.09 27.74 1078.23 28.076C1078.38 28.404 1078.46 28.784 1078.46 29.216C1078.46 29.688 1078.38 30.112 1078.21 30.488C1078.05 30.856 1077.83 31.168 1077.55 31.424C1077.27 31.68 1076.94 31.876 1076.56 32.012C1076.19 32.148 1075.79 32.216 1075.36 32.216C1074.65 32.216 1074.05 32.052 1073.56 31.724C1073.08 31.388 1072.72 30.932 1072.5 30.356L1073.8 29.876C1073.92 30.212 1074.12 30.484 1074.4 30.692C1074.68 30.892 1075.02 30.992 1075.4 30.992C1075.62 30.992 1075.82 30.956 1076.01 30.884C1076.2 30.812 1076.37 30.708 1076.52 30.572C1076.66 30.436 1076.77 30.268 1076.85 30.068C1076.94 29.86 1076.98 29.628 1076.98 29.372C1076.98 29.044 1076.93 28.772 1076.82 28.556C1076.7 28.34 1076.56 28.168 1076.37 28.04C1076.2 27.904 1076 27.812 1075.77 27.764C1075.55 27.708 1075.32 27.68 1075.09 27.68C1074.93 27.68 1074.76 27.692 1074.57 27.716C1074.4 27.74 1074.22 27.776 1074.04 27.824C1073.88 27.864 1073.71 27.912 1073.54 27.968C1073.38 28.024 1073.24 28.084 1073.11 28.148L1073.25 23.504H1078.09V24.8ZM1085.41 24.8H1081.94L1081.86 26.636C1082 26.596 1082.16 26.568 1082.34 26.552C1082.53 26.536 1082.7 26.528 1082.86 26.528C1083.27 26.528 1083.66 26.588 1084.01 26.708C1084.37 26.828 1084.68 27.004 1084.94 27.236C1085.21 27.46 1085.41 27.74 1085.56 28.076C1085.71 28.404 1085.78 28.784 1085.78 29.216C1085.78 29.688 1085.7 30.112 1085.53 30.488C1085.37 30.856 1085.15 31.168 1084.87 31.424C1084.59 31.68 1084.26 31.876 1083.89 32.012C1083.51 32.148 1083.11 32.216 1082.69 32.216C1081.98 32.216 1081.38 32.052 1080.89 31.724C1080.4 31.388 1080.04 30.932 1079.82 30.356L1081.13 29.876C1081.25 30.212 1081.45 30.484 1081.73 30.692C1082.01 30.892 1082.34 30.992 1082.72 30.992C1082.94 30.992 1083.14 30.956 1083.34 30.884C1083.53 30.812 1083.7 30.708 1083.84 30.572C1083.98 30.436 1084.1 30.268 1084.18 30.068C1084.26 29.86 1084.31 29.628 1084.31 29.372C1084.31 29.044 1084.25 28.772 1084.14 28.556C1084.03 28.34 1083.88 28.168 1083.7 28.04C1083.52 27.904 1083.32 27.812 1083.1 27.764C1082.87 27.708 1082.64 27.68 1082.41 27.68C1082.25 27.68 1082.08 27.692 1081.9 27.716C1081.72 27.74 1081.54 27.776 1081.37 27.824C1081.2 27.864 1081.03 27.912 1080.86 27.968C1080.7 28.024 1080.56 28.084 1080.43 28.148L1080.58 23.504H1085.41V24.8ZM1093.34 27.752C1093.34 28.44 1093.27 29.06 1093.13 29.612C1093 30.164 1092.81 30.632 1092.56 31.016C1092.31 31.4 1092 31.696 1091.62 31.904C1091.25 32.112 1090.83 32.216 1090.35 32.216C1089.87 32.216 1089.44 32.112 1089.06 31.904C1088.69 31.696 1088.37 31.4 1088.12 31.016C1087.86 30.632 1087.66 30.164 1087.53 29.612C1087.4 29.06 1087.34 28.44 1087.34 27.752C1087.34 27.064 1087.4 26.444 1087.53 25.892C1087.66 25.34 1087.86 24.872 1088.12 24.488C1088.37 24.104 1088.69 23.808 1089.06 23.6C1089.44 23.392 1089.87 23.288 1090.35 23.288C1090.83 23.288 1091.25 23.392 1091.62 23.6C1092 23.808 1092.31 24.104 1092.56 24.488C1092.81 24.872 1093 25.34 1093.13 25.892C1093.27 26.444 1093.34 27.064 1093.34 27.752ZM1091.86 27.752C1091.86 27.456 1091.84 27.12 1091.8 26.744C1091.77 26.368 1091.7 26.012 1091.58 25.676C1091.48 25.34 1091.33 25.06 1091.13 24.836C1090.93 24.604 1090.67 24.488 1090.35 24.488C1090.02 24.488 1089.76 24.604 1089.56 24.836C1089.36 25.06 1089.2 25.34 1089.09 25.676C1088.98 26.012 1088.91 26.368 1088.87 26.744C1088.83 27.12 1088.81 27.456 1088.81 27.752C1088.81 28.048 1088.83 28.384 1088.87 28.76C1088.91 29.136 1088.98 29.488 1089.09 29.816C1089.2 30.144 1089.36 30.424 1089.56 30.656C1089.76 30.88 1090.02 30.992 1090.35 30.992C1090.67 30.992 1090.93 30.88 1091.13 30.656C1091.33 30.424 1091.48 30.144 1091.58 29.816C1091.7 29.488 1091.77 29.136 1091.8 28.76C1091.84 28.384 1091.86 28.048 1091.86 27.752Z" fill="#222222"/>
<path d="M826.222 23.36C826.662 23.368 827.106 23.444 827.554 23.588C828.002 23.724 828.39 23.932 828.718 24.212L827.746 25.22C827.562 25.012 827.33 24.856 827.05 24.752C826.778 24.64 826.502 24.584 826.222 24.584V27.008C826.526 27.104 826.83 27.216 827.134 27.344C827.438 27.472 827.71 27.636 827.95 27.836C828.198 28.028 828.398 28.264 828.55 28.544C828.702 28.824 828.778 29.168 828.778 29.576C828.778 29.992 828.706 30.36 828.562 30.68C828.426 30.992 828.238 31.256 827.998 31.472C827.766 31.68 827.494 31.84 827.182 31.952C826.878 32.064 826.558 32.124 826.222 32.132V32.996H825.574V32.132C825.046 32.116 824.538 32.02 824.05 31.844C823.57 31.66 823.138 31.384 822.754 31.016L823.81 30.008C824.026 30.264 824.298 30.476 824.626 30.644C824.954 30.804 825.27 30.888 825.574 30.896V28.232C825.222 28.136 824.894 28.028 824.59 27.908C824.286 27.78 824.018 27.62 823.786 27.428C823.562 27.236 823.386 27.008 823.258 26.744C823.13 26.472 823.066 26.144 823.066 25.76C823.066 25.4 823.134 25.08 823.27 24.8C823.414 24.512 823.602 24.268 823.834 24.068C824.074 23.868 824.342 23.712 824.638 23.6C824.942 23.48 825.254 23.408 825.574 23.384V22.568H826.222V23.36ZM825.574 24.584C825.294 24.616 825.046 24.72 824.83 24.896C824.614 25.072 824.506 25.336 824.506 25.688C824.506 26.024 824.606 26.28 824.806 26.456C825.014 26.624 825.27 26.752 825.574 26.84V24.584ZM826.222 30.896C826.558 30.88 826.826 30.76 827.026 30.536C827.234 30.312 827.338 30.02 827.338 29.66C827.338 29.308 827.23 29.044 827.014 28.868C826.806 28.684 826.542 28.536 826.222 28.424V30.896ZM830.198 23.504H835.97V24.824L832.574 32H830.882L834.458 24.8H830.198V23.504ZM838.038 30.344H839.43L838.41 33.512H837.198L838.038 30.344ZM845.319 23.504L843.147 26.648L843.159 26.66C843.271 26.612 843.411 26.576 843.579 26.552C843.755 26.528 843.915 26.516 844.059 26.516C844.435 26.516 844.787 26.588 845.115 26.732C845.443 26.868 845.731 27.06 845.979 27.308C846.227 27.548 846.419 27.836 846.555 28.172C846.699 28.5 846.771 28.856 846.771 29.24C846.771 29.688 846.691 30.096 846.531 30.464C846.371 30.832 846.151 31.148 845.871 31.412C845.599 31.668 845.271 31.864 844.887 32C844.511 32.144 844.107 32.216 843.675 32.216C843.227 32.216 842.815 32.144 842.439 32C842.063 31.848 841.735 31.64 841.455 31.376C841.175 31.112 840.955 30.804 840.795 30.452C840.643 30.092 840.567 29.708 840.567 29.3C840.567 29.06 840.587 28.836 840.627 28.628C840.667 28.412 840.723 28.208 840.795 28.016C840.875 27.816 840.967 27.616 841.071 27.416C841.183 27.216 841.307 27.008 841.443 26.792L843.567 23.504H845.319ZM842.031 29.336C842.031 29.56 842.067 29.772 842.139 29.972C842.219 30.172 842.331 30.348 842.475 30.5C842.619 30.652 842.791 30.772 842.991 30.86C843.191 30.948 843.415 30.992 843.663 30.992C844.151 30.992 844.543 30.84 844.839 30.536C845.143 30.224 845.295 29.816 845.295 29.312C845.295 29.072 845.255 28.852 845.175 28.652C845.103 28.444 844.995 28.268 844.851 28.124C844.707 27.98 844.535 27.868 844.335 27.788C844.143 27.7 843.927 27.656 843.687 27.656C843.447 27.656 843.223 27.696 843.015 27.776C842.815 27.856 842.639 27.972 842.487 28.124C842.343 28.268 842.231 28.444 842.151 28.652C842.071 28.86 842.031 29.088 842.031 29.336ZM853.412 24.8H849.944L849.86 26.636C849.996 26.596 850.156 26.568 850.34 26.552C850.532 26.536 850.704 26.528 850.856 26.528C851.272 26.528 851.656 26.588 852.008 26.708C852.368 26.828 852.68 27.004 852.944 27.236C853.208 27.46 853.412 27.74 853.556 28.076C853.708 28.404 853.784 28.784 853.784 29.216C853.784 29.688 853.7 30.112 853.532 30.488C853.372 30.856 853.152 31.168 852.872 31.424C852.592 31.68 852.264 31.876 851.888 32.012C851.512 32.148 851.112 32.216 850.688 32.216C849.976 32.216 849.376 32.052 848.888 31.724C848.4 31.388 848.044 30.932 847.82 30.356L849.128 29.876C849.248 30.212 849.448 30.484 849.728 30.692C850.008 30.892 850.34 30.992 850.724 30.992C850.94 30.992 851.144 30.956 851.336 30.884C851.528 30.812 851.696 30.708 851.84 30.572C851.984 30.436 852.096 30.268 852.176 30.068C852.264 29.86 852.308 29.628 852.308 29.372C852.308 29.044 852.252 28.772 852.14 28.556C852.028 28.34 851.88 28.168 851.696 28.04C851.52 27.904 851.32 27.812 851.096 27.764C850.872 27.708 850.644 27.68 850.412 27.68C850.252 27.68 850.08 27.692 849.896 27.716C849.72 27.74 849.544 27.776 849.368 27.824C849.2 27.864 849.032 27.912 848.864 27.968C848.704 28.024 848.56 28.084 848.432 28.148L848.576 23.504H853.412V24.8ZM861.336 27.752C861.336 28.44 861.268 29.06 861.132 29.612C861.004 30.164 860.812 30.632 860.556 31.016C860.308 31.4 859.996 31.696 859.62 31.904C859.252 32.112 858.828 32.216 858.348 32.216C857.868 32.216 857.44 32.112 857.064 31.904C856.688 31.696 856.372 31.4 856.116 31.016C855.86 30.632 855.664 30.164 855.528 29.612C855.4 29.06 855.336 28.44 855.336 27.752C855.336 27.064 855.4 26.444 855.528 25.892C855.664 25.34 855.86 24.872 856.116 24.488C856.372 24.104 856.688 23.808 857.064 23.6C857.44 23.392 857.868 23.288 858.348 23.288C858.828 23.288 859.252 23.392 859.62 23.6C859.996 23.808 860.308 24.104 860.556 24.488C860.812 24.872 861.004 25.34 861.132 25.892C861.268 26.444 861.336 27.064 861.336 27.752ZM859.86 27.752C859.86 27.456 859.84 27.12 859.8 26.744C859.768 26.368 859.696 26.012 859.584 25.676C859.48 25.34 859.328 25.06 859.128 24.836C858.928 24.604 858.668 24.488 858.348 24.488C858.02 24.488 857.756 24.604 857.556 24.836C857.356 25.06 857.2 25.34 857.088 25.676C856.984 26.012 856.912 26.368 856.872 26.744C856.832 27.12 856.812 27.456 856.812 27.752C856.812 28.048 856.832 28.384 856.872 28.76C856.912 29.136 856.984 29.488 857.088 29.816C857.2 30.144 857.356 30.424 857.556 30.656C857.756 30.88 858.02 30.992 858.348 30.992C858.668 30.992 858.928 30.88 859.128 30.656C859.328 30.424 859.48 30.144 859.584 29.816C859.696 29.488 859.768 29.136 859.8 28.76C859.84 28.384 859.86 28.048 859.86 27.752Z" fill="#222222"/>
<path d="M746.222 23.36C746.662 23.368 747.106 23.444 747.554 23.588C748.002 23.724 748.39 23.932 748.718 24.212L747.746 25.22C747.562 25.012 747.33 24.856 747.05 24.752C746.778 24.64 746.502 24.584 746.222 24.584V27.008C746.526 27.104 746.83 27.216 747.134 27.344C747.438 27.472 747.71 27.636 747.95 27.836C748.198 28.028 748.398 28.264 748.55 28.544C748.702 28.824 748.778 29.168 748.778 29.576C748.778 29.992 748.706 30.36 748.562 30.68C748.426 30.992 748.238 31.256 747.998 31.472C747.766 31.68 747.494 31.84 747.182 31.952C746.878 32.064 746.558 32.124 746.222 32.132V32.996H745.574V32.132C745.046 32.116 744.538 32.02 744.05 31.844C743.57 31.66 743.138 31.384 742.754 31.016L743.81 30.008C744.026 30.264 744.298 30.476 744.626 30.644C744.954 30.804 745.27 30.888 745.574 30.896V28.232C745.222 28.136 744.894 28.028 744.59 27.908C744.286 27.78 744.018 27.62 743.786 27.428C743.562 27.236 743.386 27.008 743.258 26.744C743.13 26.472 743.066 26.144 743.066 25.76C743.066 25.4 743.134 25.08 743.27 24.8C743.414 24.512 743.602 24.268 743.834 24.068C744.074 23.868 744.342 23.712 744.638 23.6C744.942 23.48 745.254 23.408 745.574 23.384V22.568H746.222V23.36ZM745.574 24.584C745.294 24.616 745.046 24.72 744.83 24.896C744.614 25.072 744.506 25.336 744.506 25.688C744.506 26.024 744.606 26.28 744.806 26.456C745.014 26.624 745.27 26.752 745.574 26.84V24.584ZM746.222 30.896C746.558 30.88 746.826 30.76 747.026 30.536C747.234 30.312 747.338 30.02 747.338 29.66C747.338 29.308 747.23 29.044 747.014 28.868C746.806 28.684 746.542 28.536 746.222 28.424V30.896ZM753.246 23.288C753.614 23.288 753.962 23.34 754.29 23.444C754.618 23.548 754.902 23.7 755.142 23.9C755.39 24.1 755.582 24.344 755.718 24.632C755.862 24.912 755.934 25.232 755.934 25.592C755.934 26.088 755.81 26.5 755.562 26.828C755.314 27.156 754.998 27.384 754.614 27.512V27.536C754.838 27.592 755.046 27.684 755.238 27.812C755.43 27.932 755.598 28.084 755.742 28.268C755.886 28.444 755.998 28.644 756.078 28.868C756.166 29.092 756.21 29.336 756.21 29.6C756.21 30.024 756.13 30.4 755.97 30.728C755.818 31.048 755.606 31.32 755.334 31.544C755.07 31.768 754.758 31.936 754.398 32.048C754.038 32.16 753.654 32.216 753.246 32.216C752.838 32.216 752.454 32.16 752.094 32.048C751.734 31.936 751.418 31.768 751.146 31.544C750.882 31.32 750.67 31.048 750.51 30.728C750.358 30.4 750.282 30.024 750.282 29.6C750.282 29.328 750.326 29.076 750.414 28.844C750.502 28.612 750.618 28.408 750.762 28.232C750.914 28.056 751.086 27.912 751.278 27.8C751.47 27.68 751.67 27.592 751.878 27.536V27.512C751.494 27.376 751.178 27.156 750.93 26.852C750.682 26.548 750.558 26.148 750.558 25.652C750.558 25.292 750.626 24.968 750.762 24.68C750.906 24.384 751.098 24.136 751.338 23.936C751.586 23.728 751.87 23.568 752.19 23.456C752.518 23.344 752.87 23.288 753.246 23.288ZM753.246 24.476C752.886 24.476 752.59 24.584 752.358 24.8C752.134 25.016 752.022 25.308 752.022 25.676C752.022 26.02 752.13 26.312 752.346 26.552C752.57 26.792 752.87 26.912 753.246 26.912C753.414 26.912 753.574 26.88 753.726 26.816C753.878 26.752 754.01 26.664 754.122 26.552C754.234 26.44 754.322 26.308 754.386 26.156C754.45 26.004 754.482 25.844 754.482 25.676C754.482 25.492 754.446 25.328 754.374 25.184C754.31 25.032 754.218 24.904 754.098 24.8C753.986 24.696 753.854 24.616 753.702 24.56C753.558 24.504 753.406 24.476 753.246 24.476ZM753.246 28.136C753.038 28.136 752.842 28.172 752.658 28.244C752.482 28.316 752.326 28.416 752.19 28.544C752.062 28.664 751.958 28.816 751.878 29C751.806 29.176 751.77 29.372 751.77 29.588C751.77 30.036 751.91 30.384 752.19 30.632C752.47 30.88 752.822 31.004 753.246 31.004C753.662 31.004 754.01 30.88 754.29 30.632C754.57 30.384 754.71 30.036 754.71 29.588C754.71 29.38 754.67 29.188 754.59 29.012C754.518 28.828 754.414 28.672 754.278 28.544C754.15 28.416 753.994 28.316 753.81 28.244C753.634 28.172 753.446 28.136 753.246 28.136ZM758.038 30.344H759.43L758.41 33.512H757.198L758.038 30.344ZM766.687 27.752C766.687 28.44 766.619 29.06 766.483 29.612C766.355 30.164 766.163 30.632 765.907 31.016C765.659 31.4 765.347 31.696 764.971 31.904C764.603 32.112 764.179 32.216 763.699 32.216C763.219 32.216 762.791 32.112 762.415 31.904C762.039 31.696 761.723 31.4 761.467 31.016C761.211 30.632 761.015 30.164 760.879 29.612C760.751 29.06 760.687 28.44 760.687 27.752C760.687 27.064 760.751 26.444 760.879 25.892C761.015 25.34 761.211 24.872 761.467 24.488C761.723 24.104 762.039 23.808 762.415 23.6C762.791 23.392 763.219 23.288 763.699 23.288C764.179 23.288 764.603 23.392 764.971 23.6C765.347 23.808 765.659 24.104 765.907 24.488C766.163 24.872 766.355 25.34 766.483 25.892C766.619 26.444 766.687 27.064 766.687 27.752ZM765.211 27.752C765.211 27.456 765.191 27.12 765.151 26.744C765.119 26.368 765.047 26.012 764.935 25.676C764.831 25.34 764.679 25.06 764.479 24.836C764.279 24.604 764.019 24.488 763.699 24.488C763.371 24.488 763.107 24.604 762.907 24.836C762.707 25.06 762.551 25.34 762.439 25.676C762.335 26.012 762.263 26.368 762.223 26.744C762.183 27.12 762.163 27.456 762.163 27.752C762.163 28.048 762.183 28.384 762.223 28.76C762.263 29.136 762.335 29.488 762.439 29.816C762.551 30.144 762.707 30.424 762.907 30.656C763.107 30.88 763.371 30.992 763.699 30.992C764.019 30.992 764.279 30.88 764.479 30.656C764.679 30.424 764.831 30.144 764.935 29.816C765.047 29.488 765.119 29.136 765.151 28.76C765.191 28.384 765.211 28.048 765.211 27.752ZM769.896 26.996H770.28C770.496 26.996 770.708 26.98 770.916 26.948C771.132 26.908 771.328 26.84 771.504 26.744C771.68 26.648 771.82 26.52 771.924 26.36C772.036 26.192 772.092 25.976 772.092 25.712C772.092 25.52 772.056 25.348 771.984 25.196C771.912 25.044 771.812 24.916 771.684 24.812C771.564 24.708 771.42 24.628 771.252 24.572C771.092 24.516 770.924 24.488 770.748 24.488C770.396 24.488 770.104 24.588 769.872 24.788C769.64 24.988 769.48 25.252 769.392 25.58L768.036 25.232C768.108 24.944 768.228 24.684 768.396 24.452C768.572 24.212 768.78 24.008 769.02 23.84C769.268 23.664 769.544 23.528 769.848 23.432C770.152 23.336 770.472 23.288 770.808 23.288C771.176 23.288 771.524 23.34 771.852 23.444C772.188 23.54 772.48 23.688 772.728 23.888C772.984 24.08 773.184 24.32 773.328 24.608C773.472 24.896 773.544 25.232 773.544 25.616C773.544 26.072 773.404 26.48 773.124 26.84C772.852 27.192 772.484 27.424 772.02 27.536V27.56C772.54 27.664 772.96 27.9 773.28 28.268C773.608 28.628 773.772 29.072 773.772 29.6C773.772 30.04 773.684 30.424 773.508 30.752C773.34 31.08 773.112 31.352 772.824 31.568C772.544 31.784 772.228 31.944 771.876 32.048C771.524 32.16 771.168 32.216 770.808 32.216C770.448 32.216 770.108 32.176 769.788 32.096C769.468 32.024 769.172 31.908 768.9 31.748C768.636 31.588 768.4 31.38 768.192 31.124C767.992 30.868 767.836 30.564 767.724 30.212L769.068 29.792C769.172 30.128 769.364 30.412 769.644 30.644C769.932 30.876 770.304 30.992 770.76 30.992C770.944 30.992 771.128 30.968 771.312 30.92C771.504 30.864 771.672 30.78 771.816 30.668C771.968 30.556 772.088 30.412 772.176 30.236C772.272 30.06 772.32 29.844 772.32 29.588C772.32 29.316 772.252 29.088 772.116 28.904C771.988 28.712 771.824 28.564 771.624 28.46C771.424 28.348 771.2 28.268 770.952 28.22C770.712 28.172 770.48 28.148 770.256 28.148H769.896V26.996ZM778.336 23.288C778.704 23.288 779.052 23.34 779.38 23.444C779.708 23.548 779.992 23.7 780.232 23.9C780.48 24.1 780.672 24.344 780.808 24.632C780.952 24.912 781.024 25.232 781.024 25.592C781.024 26.088 780.9 26.5 780.652 26.828C780.404 27.156 780.088 27.384 779.704 27.512V27.536C779.928 27.592 780.136 27.684 780.328 27.812C780.52 27.932 780.688 28.084 780.832 28.268C780.976 28.444 781.088 28.644 781.168 28.868C781.256 29.092 781.3 29.336 781.3 29.6C781.3 30.024 781.22 30.4 781.06 30.728C780.908 31.048 780.696 31.32 780.424 31.544C780.16 31.768 779.848 31.936 779.488 32.048C779.128 32.16 778.744 32.216 778.336 32.216C777.928 32.216 777.544 32.16 777.184 32.048C776.824 31.936 776.508 31.768 776.236 31.544C775.972 31.32 775.76 31.048 775.6 30.728C775.448 30.4 775.372 30.024 775.372 29.6C775.372 29.328 775.416 29.076 775.504 28.844C775.592 28.612 775.708 28.408 775.852 28.232C776.004 28.056 776.176 27.912 776.368 27.8C776.56 27.68 776.76 27.592 776.968 27.536V27.512C776.584 27.376 776.268 27.156 776.02 26.852C775.772 26.548 775.648 26.148 775.648 25.652C775.648 25.292 775.716 24.968 775.852 24.68C775.996 24.384 776.188 24.136 776.428 23.936C776.676 23.728 776.96 23.568 777.28 23.456C777.608 23.344 777.96 23.288 778.336 23.288ZM778.336 24.476C777.976 24.476 777.68 24.584 777.448 24.8C777.224 25.016 777.112 25.308 777.112 25.676C777.112 26.02 777.22 26.312 777.436 26.552C777.66 26.792 777.96 26.912 778.336 26.912C778.504 26.912 778.664 26.88 778.816 26.816C778.968 26.752 779.1 26.664 779.212 26.552C779.324 26.44 779.412 26.308 779.476 26.156C779.54 26.004 779.572 25.844 779.572 25.676C779.572 25.492 779.536 25.328 779.464 25.184C779.4 25.032 779.308 24.904 779.188 24.8C779.076 24.696 778.944 24.616 778.792 24.56C778.648 24.504 778.496 24.476 778.336 24.476ZM778.336 28.136C778.128 28.136 777.932 28.172 777.748 28.244C777.572 28.316 777.416 28.416 777.28 28.544C777.152 28.664 777.048 28.816 776.968 29C776.896 29.176 776.86 29.372 776.86 29.588C776.86 30.036 777 30.384 777.28 30.632C777.56 30.88 777.912 31.004 778.336 31.004C778.752 31.004 779.1 30.88 779.38 30.632C779.66 30.384 779.8 30.036 779.8 29.588C779.8 29.38 779.76 29.188 779.68 29.012C779.608 28.828 779.504 28.672 779.368 28.544C779.24 28.416 779.084 28.316 778.9 28.244C778.724 28.172 778.536 28.136 778.336 28.136Z" fill="#222222"/>
<path d="M742.262 29H781.996V29.6H742.262V29Z" fill="#222222"/>
<path d="M901.7 25.256L900.02 26.636L899.18 25.64L901.832 23.504H903.14V32H901.7V25.256ZM908.22 26.996H908.604C908.82 26.996 909.032 26.98 909.24 26.948C909.456 26.908 909.652 26.84 909.828 26.744C910.004 26.648 910.144 26.52 910.248 26.36C910.36 26.192 910.416 25.976 910.416 25.712C910.416 25.52 910.38 25.348 910.308 25.196C910.236 25.044 910.136 24.916 910.008 24.812C909.888 24.708 909.744 24.628 909.576 24.572C909.416 24.516 909.248 24.488 909.072 24.488C908.72 24.488 908.428 24.588 908.196 24.788C907.964 24.988 907.804 25.252 907.716 25.58L906.36 25.232C906.432 24.944 906.552 24.684 906.72 24.452C906.896 24.212 907.104 24.008 907.344 23.84C907.592 23.664 907.868 23.528 908.172 23.432C908.476 23.336 908.796 23.288 909.132 23.288C909.5 23.288 909.848 23.34 910.176 23.444C910.512 23.54 910.804 23.688 911.052 23.888C911.308 24.08 911.508 24.32 911.652 24.608C911.796 24.896 911.868 25.232 911.868 25.616C911.868 26.072 911.728 26.48 911.448 26.84C911.176 27.192 910.808 27.424 910.344 27.536V27.56C910.864 27.664 911.284 27.9 911.604 28.268C911.932 28.628 912.096 29.072 912.096 29.6C912.096 30.04 912.008 30.424 911.832 30.752C911.664 31.08 911.436 31.352 911.148 31.568C910.868 31.784 910.552 31.944 910.2 32.048C909.848 32.16 909.492 32.216 909.132 32.216C908.772 32.216 908.432 32.176 908.112 32.096C907.792 32.024 907.496 31.908 907.224 31.748C906.96 31.588 906.724 31.38 906.516 31.124C906.316 30.868 906.16 30.564 906.048 30.212L907.392 29.792C907.496 30.128 907.688 30.412 907.968 30.644C908.256 30.876 908.628 30.992 909.084 30.992C909.268 30.992 909.452 30.968 909.636 30.92C909.828 30.864 909.996 30.78 910.14 30.668C910.292 30.556 910.412 30.412 910.5 30.236C910.596 30.06 910.644 29.844 910.644 29.588C910.644 29.316 910.576 29.088 910.44 28.904C910.312 28.712 910.148 28.564 909.948 28.46C909.748 28.348 909.524 28.268 909.276 28.22C909.036 28.172 908.804 28.148 908.58 28.148H908.22V26.996Z" fill="#222222"/>
<path d="M957.222 23.36C957.662 23.368 958.106 23.444 958.554 23.588C959.002 23.724 959.39 23.932 959.718 24.212L958.746 25.22C958.562 25.012 958.33 24.856 958.05 24.752C957.778 24.64 957.502 24.584 957.222 24.584V27.008C957.526 27.104 957.83 27.216 958.134 27.344C958.438 27.472 958.71 27.636 958.95 27.836C959.198 28.028 959.398 28.264 959.55 28.544C959.702 28.824 959.778 29.168 959.778 29.576C959.778 29.992 959.706 30.36 959.562 30.68C959.426 30.992 959.238 31.256 958.998 31.472C958.766 31.68 958.494 31.84 958.182 31.952C957.878 32.064 957.558 32.124 957.222 32.132V32.996H956.574V32.132C956.046 32.116 955.538 32.02 955.05 31.844C954.57 31.66 954.138 31.384 953.754 31.016L954.81 30.008C955.026 30.264 955.298 30.476 955.626 30.644C955.954 30.804 956.27 30.888 956.574 30.896V28.232C956.222 28.136 955.894 28.028 955.59 27.908C955.286 27.78 955.018 27.62 954.786 27.428C954.562 27.236 954.386 27.008 954.258 26.744C954.13 26.472 954.066 26.144 954.066 25.76C954.066 25.4 954.134 25.08 954.27 24.8C954.414 24.512 954.602 24.268 954.834 24.068C955.074 23.868 955.342 23.712 955.638 23.6C955.942 23.48 956.254 23.408 956.574 23.384V22.568H957.222V23.36ZM956.574 24.584C956.294 24.616 956.046 24.72 955.83 24.896C955.614 25.072 955.506 25.336 955.506 25.688C955.506 26.024 955.606 26.28 955.806 26.456C956.014 26.624 956.27 26.752 956.574 26.84V24.584ZM957.222 30.896C957.558 30.88 957.826 30.76 958.026 30.536C958.234 30.312 958.338 30.02 958.338 29.66C958.338 29.308 958.23 29.044 958.014 28.868C957.806 28.684 957.542 28.536 957.222 28.424V30.896ZM964.246 23.288C964.614 23.288 964.962 23.34 965.29 23.444C965.618 23.548 965.902 23.7 966.142 23.9C966.39 24.1 966.582 24.344 966.718 24.632C966.862 24.912 966.934 25.232 966.934 25.592C966.934 26.088 966.81 26.5 966.562 26.828C966.314 27.156 965.998 27.384 965.614 27.512V27.536C965.838 27.592 966.046 27.684 966.238 27.812C966.43 27.932 966.598 28.084 966.742 28.268C966.886 28.444 966.998 28.644 967.078 28.868C967.166 29.092 967.21 29.336 967.21 29.6C967.21 30.024 967.13 30.4 966.97 30.728C966.818 31.048 966.606 31.32 966.334 31.544C966.07 31.768 965.758 31.936 965.398 32.048C965.038 32.16 964.654 32.216 964.246 32.216C963.838 32.216 963.454 32.16 963.094 32.048C962.734 31.936 962.418 31.768 962.146 31.544C961.882 31.32 961.67 31.048 961.51 30.728C961.358 30.4 961.282 30.024 961.282 29.6C961.282 29.328 961.326 29.076 961.414 28.844C961.502 28.612 961.618 28.408 961.762 28.232C961.914 28.056 962.086 27.912 962.278 27.8C962.47 27.68 962.67 27.592 962.878 27.536V27.512C962.494 27.376 962.178 27.156 961.93 26.852C961.682 26.548 961.558 26.148 961.558 25.652C961.558 25.292 961.626 24.968 961.762 24.68C961.906 24.384 962.098 24.136 962.338 23.936C962.586 23.728 962.87 23.568 963.19 23.456C963.518 23.344 963.87 23.288 964.246 23.288ZM964.246 24.476C963.886 24.476 963.59 24.584 963.358 24.8C963.134 25.016 963.022 25.308 963.022 25.676C963.022 26.02 963.13 26.312 963.346 26.552C963.57 26.792 963.87 26.912 964.246 26.912C964.414 26.912 964.574 26.88 964.726 26.816C964.878 26.752 965.01 26.664 965.122 26.552C965.234 26.44 965.322 26.308 965.386 26.156C965.45 26.004 965.482 25.844 965.482 25.676C965.482 25.492 965.446 25.328 965.374 25.184C965.31 25.032 965.218 24.904 965.098 24.8C964.986 24.696 964.854 24.616 964.702 24.56C964.558 24.504 964.406 24.476 964.246 24.476ZM964.246 28.136C964.038 28.136 963.842 28.172 963.658 28.244C963.482 28.316 963.326 28.416 963.19 28.544C963.062 28.664 962.958 28.816 962.878 29C962.806 29.176 962.77 29.372 962.77 29.588C962.77 30.036 962.91 30.384 963.19 30.632C963.47 30.88 963.822 31.004 964.246 31.004C964.662 31.004 965.01 30.88 965.29 30.632C965.57 30.384 965.71 30.036 965.71 29.588C965.71 29.38 965.67 29.188 965.59 29.012C965.518 28.828 965.414 28.672 965.278 28.544C965.15 28.416 964.994 28.316 964.81 28.244C964.634 28.172 964.446 28.136 964.246 28.136ZM969.038 30.344H970.43L969.41 33.512H968.198L969.038 30.344ZM971.639 23.504H977.411V24.824L974.015 32H972.323L975.899 24.8H971.639V23.504ZM985.012 27.752C985.012 28.44 984.944 29.06 984.808 29.612C984.68 30.164 984.488 30.632 984.232 31.016C983.984 31.4 983.672 31.696 983.296 31.904C982.928 32.112 982.504 32.216 982.024 32.216C981.544 32.216 981.116 32.112 980.74 31.904C980.364 31.696 980.048 31.4 979.792 31.016C979.536 30.632 979.34 30.164 979.204 29.612C979.076 29.06 979.012 28.44 979.012 27.752C979.012 27.064 979.076 26.444 979.204 25.892C979.34 25.34 979.536 24.872 979.792 24.488C980.048 24.104 980.364 23.808 980.74 23.6C981.116 23.392 981.544 23.288 982.024 23.288C982.504 23.288 982.928 23.392 983.296 23.6C983.672 23.808 983.984 24.104 984.232 24.488C984.488 24.872 984.68 25.34 984.808 25.892C984.944 26.444 985.012 27.064 985.012 27.752ZM983.536 27.752C983.536 27.456 983.516 27.12 983.476 26.744C983.444 26.368 983.372 26.012 983.26 25.676C983.156 25.34 983.004 25.06 982.804 24.836C982.604 24.604 982.344 24.488 982.024 24.488C981.696 24.488 981.432 24.604 981.232 24.836C981.032 25.06 980.876 25.34 980.764 25.676C980.66 26.012 980.588 26.368 980.548 26.744C980.508 27.12 980.488 27.456 980.488 27.752C980.488 28.048 980.508 28.384 980.548 28.76C980.588 29.136 980.66 29.488 980.764 29.816C980.876 30.144 981.032 30.424 981.232 30.656C981.432 30.88 981.696 30.992 982.024 30.992C982.344 30.992 982.604 30.88 982.804 30.656C983.004 30.424 983.156 30.144 983.26 29.816C983.372 29.488 983.444 29.136 983.476 28.76C983.516 28.384 983.536 28.048 983.536 27.752ZM992.336 27.752C992.336 28.44 992.268 29.06 992.132 29.612C992.004 30.164 991.812 30.632 991.556 31.016C991.308 31.4 990.996 31.696 990.62 31.904C990.252 32.112 989.828 32.216 989.348 32.216C988.868 32.216 988.44 32.112 988.064 31.904C987.688 31.696 987.372 31.4 987.116 31.016C986.86 30.632 986.664 30.164 986.528 29.612C986.4 29.06 986.336 28.44 986.336 27.752C986.336 27.064 986.4 26.444 986.528 25.892C986.664 25.34 986.86 24.872 987.116 24.488C987.372 24.104 987.688 23.808 988.064 23.6C988.44 23.392 988.868 23.288 989.348 23.288C989.828 23.288 990.252 23.392 990.62 23.6C990.996 23.808 991.308 24.104 991.556 24.488C991.812 24.872 992.004 25.34 992.132 25.892C992.268 26.444 992.336 27.064 992.336 27.752ZM990.86 27.752C990.86 27.456 990.84 27.12 990.8 26.744C990.768 26.368 990.696 26.012 990.584 25.676C990.48 25.34 990.328 25.06 990.128 24.836C989.928 24.604 989.668 24.488 989.348 24.488C989.02 24.488 988.756 24.604 988.556 24.836C988.356 25.06 988.2 25.34 988.088 25.676C987.984 26.012 987.912 26.368 987.872 26.744C987.832 27.12 987.812 27.456 987.812 27.752C987.812 28.048 987.832 28.384 987.872 28.76C987.912 29.136 987.984 29.488 988.088 29.816C988.2 30.144 988.356 30.424 988.556 30.656C988.756 30.88 989.02 30.992 989.348 30.992C989.668 30.992 989.928 30.88 990.128 30.656C990.328 30.424 990.48 30.144 990.584 29.816C990.696 29.488 990.768 29.136 990.8 28.76C990.84 28.384 990.86 28.048 990.86 27.752Z" fill="#222222"/>
<path d="M47.652 24.824H45.048V23.504H51.768V24.824H49.164V32H47.652V24.824ZM51.985 27.728C51.985 27.048 52.097 26.436 52.321 25.892C52.553 25.34 52.869 24.872 53.269 24.488C53.677 24.104 54.157 23.808 54.709 23.6C55.269 23.392 55.877 23.288 56.533 23.288C57.197 23.288 57.809 23.392 58.369 23.6C58.929 23.808 59.413 24.104 59.821 24.488C60.229 24.872 60.545 25.34 60.769 25.892C61.001 26.436 61.117 27.048 61.117 27.728C61.117 28.392 61.001 29 60.769 29.552C60.545 30.096 60.229 30.568 59.821 30.968C59.413 31.36 58.929 31.668 58.369 31.892C57.809 32.108 57.197 32.216 56.533 32.216C55.877 32.216 55.269 32.108 54.709 31.892C54.157 31.668 53.677 31.36 53.269 30.968C52.869 30.568 52.553 30.096 52.321 29.552C52.097 29 51.985 28.392 51.985 27.728ZM53.629 27.728C53.629 28.184 53.697 28.604 53.833 28.988C53.977 29.364 54.177 29.692 54.433 29.972C54.697 30.252 55.005 30.472 55.357 30.632C55.717 30.784 56.113 30.86 56.545 30.86C56.977 30.86 57.373 30.784 57.733 30.632C58.093 30.472 58.401 30.252 58.657 29.972C58.921 29.692 59.121 29.364 59.257 28.988C59.401 28.604 59.473 28.184 59.473 27.728C59.473 27.288 59.401 26.88 59.257 26.504C59.121 26.128 58.925 25.8 58.669 25.52C58.413 25.24 58.105 25.02 57.745 24.86C57.385 24.7 56.985 24.62 56.545 24.62C56.105 24.62 55.705 24.7 55.345 24.86C54.993 25.02 54.689 25.24 54.433 25.52C54.177 25.8 53.977 26.128 53.833 26.504C53.697 26.88 53.629 27.288 53.629 27.728ZM63.9293 24.824H61.3253V23.504H68.0453V24.824H65.4413V32H63.9293V24.824ZM70.9828 23.504H72.2908L75.9508 32H74.2228L73.4308 30.056H69.7468L68.9788 32H67.2868L70.9828 23.504ZM72.9028 28.76L71.5948 25.304L70.2628 28.76H72.9028ZM76.7915 23.504H78.3035V30.656H81.9155V32H76.7915V23.504Z" fill="#222222"/>
<g clip-path="url(#clip0_308_15481)">
<path fill-rule="evenodd" clip-rule="evenodd" d="M0 55H32V115H0V55Z" fill="#A8A18F"/>
<path fill-rule="evenodd" clip-rule="evenodd" d="M32 55H45V115H32V55Z" fill="#A8A18F"/>
<path d="M45.5 55.5H81.5V114.5H45.5V55.5Z" fill="#DCDFD8" stroke="#A8A18F"/>
<path fill-rule="evenodd" clip-rule="evenodd" d="M82 55H213V115H82V55Z" fill="#A8A18F"/>
<path fill-rule="evenodd" clip-rule="evenodd" d="M213 55H230V115H213V55Z" fill="#A8A18F"/>
<path fill-rule="evenodd" clip-rule="evenodd" d="M230 55H375V115H230V55Z" fill="#A8A18F"/>
<path fill-rule="evenodd" clip-rule="evenodd" d="M375 55H381V115H375V55Z" fill="#A8A18F"/>
<path fill-rule="evenodd" clip-rule="evenodd" d="M381 55H461V115H381V55Z" fill="#A8A18F"/>
<path fill-rule="evenodd" clip-rule="evenodd" d="M461 55H475V115H461V55Z" fill="#A8A18F"/>
<path fill-rule="evenodd" clip-rule="evenodd" d="M475 55H702V115H475V55Z" fill="#A8A18F"/>
<path d="M702.5 55.5H781.5V114.5H702.5V55.5Z" fill="#DCDFD8" stroke="#A8A18F"/>
<path d="M782.5 55.5H861.5V114.5H782.5V55.5Z" fill="#DCDFD8" stroke="#A8A18F"/>
<path d="M862.5 55.5H912.5V114.5H862.5V55.5Z" fill="#DCDFD8" stroke="#A8A18F"/>
<path d="M913.5 55.5H992.5V114.5H913.5V55.5Z" fill="#DCDFD8" stroke="#A8A18F"/>
<path d="M993.5 55.5H1093.5V114.5H993.5V55.5Z" fill="#DCDFD8" stroke="#A8A18F"/>
<path fill-rule="evenodd" clip-rule="evenodd" d="M1094 55H1256V115H1094V55Z" fill="#A8A18F"/>
<path fill-rule="evenodd" clip-rule="evenodd" d="M1256 55H1268V115H1256V55Z" fill="#A8A18F"/>
</g>
<defs>
<clipPath id="clip0_308_15481">
<rect width="1268" height="60" fill="white" transform="translate(0 55)"/>
</clipPath>
</defs>
</svg>
