<svg width="1269" height="115" viewBox="0 0 1269 115" fill="none" xmlns="http://www.w3.org/2000/svg">
<mask id="path-1-inside-1_308_15520" fill="white">
<path d="M0 0H1268V55H0V0Z"/>
</mask>
<path d="M0 0H1268V55H0V0Z" fill="white"/>
<path d="M1268 54H0V56H1268V54Z" fill="#D9D9D9" mask="url(#path-1-inside-1_308_15520)"/>
<path d="M1025.9 23.36C1026.34 23.368 1026.78 23.444 1027.23 23.588C1027.68 23.724 1028.07 23.932 1028.39 24.212L1027.42 25.22C1027.24 25.012 1027.01 24.856 1026.73 24.752C1026.45 24.64 1026.18 24.584 1025.9 24.584V27.008C1026.2 27.104 1026.51 27.216 1026.81 27.344C1027.11 27.472 1027.39 27.636 1027.63 27.836C1027.87 28.028 1028.07 28.264 1028.23 28.544C1028.38 28.824 1028.45 29.168 1028.45 29.576C1028.45 29.992 1028.38 30.36 1028.24 30.68C1028.1 30.992 1027.91 31.256 1027.67 31.472C1027.44 31.68 1027.17 31.84 1026.86 31.952C1026.55 32.064 1026.23 32.124 1025.9 32.132V32.996H1025.25V32.132C1024.72 32.116 1024.21 32.02 1023.73 31.844C1023.25 31.66 1022.81 31.384 1022.43 31.016L1023.49 30.008C1023.7 30.264 1023.97 30.476 1024.3 30.644C1024.63 30.804 1024.95 30.888 1025.25 30.896V28.232C1024.9 28.136 1024.57 28.028 1024.27 27.908C1023.96 27.78 1023.69 27.62 1023.46 27.428C1023.24 27.236 1023.06 27.008 1022.93 26.744C1022.81 26.472 1022.74 26.144 1022.74 25.76C1022.74 25.4 1022.81 25.08 1022.95 24.8C1023.09 24.512 1023.28 24.268 1023.51 24.068C1023.75 23.868 1024.02 23.712 1024.31 23.6C1024.62 23.48 1024.93 23.408 1025.25 23.384V22.568H1025.9V23.36ZM1025.25 24.584C1024.97 24.616 1024.72 24.72 1024.51 24.896C1024.29 25.072 1024.18 25.336 1024.18 25.688C1024.18 26.024 1024.28 26.28 1024.48 26.456C1024.69 26.624 1024.95 26.752 1025.25 26.84V24.584ZM1025.9 30.896C1026.23 30.88 1026.5 30.76 1026.7 30.536C1026.91 30.312 1027.01 30.02 1027.01 29.66C1027.01 29.308 1026.91 29.044 1026.69 28.868C1026.48 28.684 1026.22 28.536 1025.9 28.424V30.896ZM1032.61 25.256L1030.93 26.636L1030.09 25.64L1032.74 23.504H1034.05V32H1032.61V25.256ZM1043.25 27.752C1043.25 28.44 1043.18 29.06 1043.04 29.612C1042.91 30.164 1042.72 30.632 1042.47 31.016C1042.22 31.4 1041.91 31.696 1041.53 31.904C1041.16 32.112 1040.74 32.216 1040.26 32.216C1039.78 32.216 1039.35 32.112 1038.97 31.904C1038.6 31.696 1038.28 31.4 1038.03 31.016C1037.77 30.632 1037.57 30.164 1037.44 29.612C1037.31 29.06 1037.25 28.44 1037.25 27.752C1037.25 27.064 1037.31 26.444 1037.44 25.892C1037.57 25.34 1037.77 24.872 1038.03 24.488C1038.28 24.104 1038.6 23.808 1038.97 23.6C1039.35 23.392 1039.78 23.288 1040.26 23.288C1040.74 23.288 1041.16 23.392 1041.53 23.6C1041.91 23.808 1042.22 24.104 1042.47 24.488C1042.72 24.872 1042.91 25.34 1043.04 25.892C1043.18 26.444 1043.25 27.064 1043.25 27.752ZM1041.77 27.752C1041.77 27.456 1041.75 27.12 1041.71 26.744C1041.68 26.368 1041.61 26.012 1041.49 25.676C1041.39 25.34 1041.24 25.06 1041.04 24.836C1040.84 24.604 1040.58 24.488 1040.26 24.488C1039.93 24.488 1039.67 24.604 1039.47 24.836C1039.27 25.06 1039.11 25.34 1039 25.676C1038.89 26.012 1038.82 26.368 1038.78 26.744C1038.74 27.12 1038.72 27.456 1038.72 27.752C1038.72 28.048 1038.74 28.384 1038.78 28.76C1038.82 29.136 1038.89 29.488 1039 29.816C1039.11 30.144 1039.27 30.424 1039.47 30.656C1039.67 30.88 1039.93 30.992 1040.26 30.992C1040.58 30.992 1040.84 30.88 1041.04 30.656C1041.24 30.424 1041.39 30.144 1041.49 29.816C1041.61 29.488 1041.68 29.136 1041.71 28.76C1041.75 28.384 1041.77 28.048 1041.77 27.752ZM1045.04 30.344H1046.43L1045.41 33.512H1044.2L1045.04 30.344ZM1053.09 24.8H1049.62L1049.54 26.636C1049.67 26.596 1049.83 26.568 1050.02 26.552C1050.21 26.536 1050.38 26.528 1050.53 26.528C1050.95 26.528 1051.33 26.588 1051.68 26.708C1052.04 26.828 1052.36 27.004 1052.62 27.236C1052.88 27.46 1053.09 27.74 1053.23 28.076C1053.38 28.404 1053.46 28.784 1053.46 29.216C1053.46 29.688 1053.38 30.112 1053.21 30.488C1053.05 30.856 1052.83 31.168 1052.55 31.424C1052.27 31.68 1051.94 31.876 1051.56 32.012C1051.19 32.148 1050.79 32.216 1050.36 32.216C1049.65 32.216 1049.05 32.052 1048.56 31.724C1048.08 31.388 1047.72 30.932 1047.5 30.356L1048.8 29.876C1048.92 30.212 1049.12 30.484 1049.4 30.692C1049.68 30.892 1050.02 30.992 1050.4 30.992C1050.62 30.992 1050.82 30.956 1051.01 30.884C1051.2 30.812 1051.37 30.708 1051.52 30.572C1051.66 30.436 1051.77 30.268 1051.85 30.068C1051.94 29.86 1051.98 29.628 1051.98 29.372C1051.98 29.044 1051.93 28.772 1051.82 28.556C1051.7 28.34 1051.56 28.168 1051.37 28.04C1051.2 27.904 1051 27.812 1050.77 27.764C1050.55 27.708 1050.32 27.68 1050.09 27.68C1049.93 27.68 1049.76 27.692 1049.57 27.716C1049.4 27.74 1049.22 27.776 1049.04 27.824C1048.88 27.864 1048.71 27.912 1048.54 27.968C1048.38 28.024 1048.24 28.084 1048.11 28.148L1048.25 23.504H1053.09V24.8ZM1060.41 24.8H1056.94L1056.86 26.636C1057 26.596 1057.16 26.568 1057.34 26.552C1057.53 26.536 1057.7 26.528 1057.86 26.528C1058.27 26.528 1058.66 26.588 1059.01 26.708C1059.37 26.828 1059.68 27.004 1059.94 27.236C1060.21 27.46 1060.41 27.74 1060.56 28.076C1060.71 28.404 1060.78 28.784 1060.78 29.216C1060.78 29.688 1060.7 30.112 1060.53 30.488C1060.37 30.856 1060.15 31.168 1059.87 31.424C1059.59 31.68 1059.26 31.876 1058.89 32.012C1058.51 32.148 1058.11 32.216 1057.69 32.216C1056.98 32.216 1056.38 32.052 1055.89 31.724C1055.4 31.388 1055.04 30.932 1054.82 30.356L1056.13 29.876C1056.25 30.212 1056.45 30.484 1056.73 30.692C1057.01 30.892 1057.34 30.992 1057.72 30.992C1057.94 30.992 1058.14 30.956 1058.34 30.884C1058.53 30.812 1058.7 30.708 1058.84 30.572C1058.98 30.436 1059.1 30.268 1059.18 30.068C1059.26 29.86 1059.31 29.628 1059.31 29.372C1059.31 29.044 1059.25 28.772 1059.14 28.556C1059.03 28.34 1058.88 28.168 1058.7 28.04C1058.52 27.904 1058.32 27.812 1058.1 27.764C1057.87 27.708 1057.64 27.68 1057.41 27.68C1057.25 27.68 1057.08 27.692 1056.9 27.716C1056.72 27.74 1056.54 27.776 1056.37 27.824C1056.2 27.864 1056.03 27.912 1055.86 27.968C1055.7 28.024 1055.56 28.084 1055.43 28.148L1055.58 23.504H1060.41V24.8ZM1068.34 27.752C1068.34 28.44 1068.27 29.06 1068.13 29.612C1068 30.164 1067.81 30.632 1067.56 31.016C1067.31 31.4 1067 31.696 1066.62 31.904C1066.25 32.112 1065.83 32.216 1065.35 32.216C1064.87 32.216 1064.44 32.112 1064.06 31.904C1063.69 31.696 1063.37 31.4 1063.12 31.016C1062.86 30.632 1062.66 30.164 1062.53 29.612C1062.4 29.06 1062.34 28.44 1062.34 27.752C1062.34 27.064 1062.4 26.444 1062.53 25.892C1062.66 25.34 1062.86 24.872 1063.12 24.488C1063.37 24.104 1063.69 23.808 1064.06 23.6C1064.44 23.392 1064.87 23.288 1065.35 23.288C1065.83 23.288 1066.25 23.392 1066.62 23.6C1067 23.808 1067.31 24.104 1067.56 24.488C1067.81 24.872 1068 25.34 1068.13 25.892C1068.27 26.444 1068.34 27.064 1068.34 27.752ZM1066.86 27.752C1066.86 27.456 1066.84 27.12 1066.8 26.744C1066.77 26.368 1066.7 26.012 1066.58 25.676C1066.48 25.34 1066.33 25.06 1066.13 24.836C1065.93 24.604 1065.67 24.488 1065.35 24.488C1065.02 24.488 1064.76 24.604 1064.56 24.836C1064.36 25.06 1064.2 25.34 1064.09 25.676C1063.98 26.012 1063.91 26.368 1063.87 26.744C1063.83 27.12 1063.81 27.456 1063.81 27.752C1063.81 28.048 1063.83 28.384 1063.87 28.76C1063.91 29.136 1063.98 29.488 1064.09 29.816C1064.2 30.144 1064.36 30.424 1064.56 30.656C1064.76 30.88 1065.02 30.992 1065.35 30.992C1065.67 30.992 1065.93 30.88 1066.13 30.656C1066.33 30.424 1066.48 30.144 1066.58 29.816C1066.7 29.488 1066.77 29.136 1066.8 28.76C1066.84 28.384 1066.86 28.048 1066.86 27.752Z" fill="#222222"/>
<path d="M809.222 23.36C809.662 23.368 810.106 23.444 810.554 23.588C811.002 23.724 811.39 23.932 811.718 24.212L810.746 25.22C810.562 25.012 810.33 24.856 810.05 24.752C809.778 24.64 809.502 24.584 809.222 24.584V27.008C809.526 27.104 809.83 27.216 810.134 27.344C810.438 27.472 810.71 27.636 810.95 27.836C811.198 28.028 811.398 28.264 811.55 28.544C811.702 28.824 811.778 29.168 811.778 29.576C811.778 29.992 811.706 30.36 811.562 30.68C811.426 30.992 811.238 31.256 810.998 31.472C810.766 31.68 810.494 31.84 810.182 31.952C809.878 32.064 809.558 32.124 809.222 32.132V32.996H808.574V32.132C808.046 32.116 807.538 32.02 807.05 31.844C806.57 31.66 806.138 31.384 805.754 31.016L806.81 30.008C807.026 30.264 807.298 30.476 807.626 30.644C807.954 30.804 808.27 30.888 808.574 30.896V28.232C808.222 28.136 807.894 28.028 807.59 27.908C807.286 27.78 807.018 27.62 806.786 27.428C806.562 27.236 806.386 27.008 806.258 26.744C806.13 26.472 806.066 26.144 806.066 25.76C806.066 25.4 806.134 25.08 806.27 24.8C806.414 24.512 806.602 24.268 806.834 24.068C807.074 23.868 807.342 23.712 807.638 23.6C807.942 23.48 808.254 23.408 808.574 23.384V22.568H809.222V23.36ZM808.574 24.584C808.294 24.616 808.046 24.72 807.83 24.896C807.614 25.072 807.506 25.336 807.506 25.688C807.506 26.024 807.606 26.28 807.806 26.456C808.014 26.624 808.27 26.752 808.574 26.84V24.584ZM809.222 30.896C809.558 30.88 809.826 30.76 810.026 30.536C810.234 30.312 810.338 30.02 810.338 29.66C810.338 29.308 810.23 29.044 810.014 28.868C809.806 28.684 809.542 28.536 809.222 28.424V30.896ZM813.198 23.504H818.97V24.824L815.574 32H813.882L817.458 24.8H813.198V23.504ZM821.038 30.344H822.43L821.41 33.512H820.198L821.038 30.344ZM828.319 23.504L826.147 26.648L826.159 26.66C826.271 26.612 826.411 26.576 826.579 26.552C826.755 26.528 826.915 26.516 827.059 26.516C827.435 26.516 827.787 26.588 828.115 26.732C828.443 26.868 828.731 27.06 828.979 27.308C829.227 27.548 829.419 27.836 829.555 28.172C829.699 28.5 829.771 28.856 829.771 29.24C829.771 29.688 829.691 30.096 829.531 30.464C829.371 30.832 829.151 31.148 828.871 31.412C828.599 31.668 828.271 31.864 827.887 32C827.511 32.144 827.107 32.216 826.675 32.216C826.227 32.216 825.815 32.144 825.439 32C825.063 31.848 824.735 31.64 824.455 31.376C824.175 31.112 823.955 30.804 823.795 30.452C823.643 30.092 823.567 29.708 823.567 29.3C823.567 29.06 823.587 28.836 823.627 28.628C823.667 28.412 823.723 28.208 823.795 28.016C823.875 27.816 823.967 27.616 824.071 27.416C824.183 27.216 824.307 27.008 824.443 26.792L826.567 23.504H828.319ZM825.031 29.336C825.031 29.56 825.067 29.772 825.139 29.972C825.219 30.172 825.331 30.348 825.475 30.5C825.619 30.652 825.791 30.772 825.991 30.86C826.191 30.948 826.415 30.992 826.663 30.992C827.151 30.992 827.543 30.84 827.839 30.536C828.143 30.224 828.295 29.816 828.295 29.312C828.295 29.072 828.255 28.852 828.175 28.652C828.103 28.444 827.995 28.268 827.851 28.124C827.707 27.98 827.535 27.868 827.335 27.788C827.143 27.7 826.927 27.656 826.687 27.656C826.447 27.656 826.223 27.696 826.015 27.776C825.815 27.856 825.639 27.972 825.487 28.124C825.343 28.268 825.231 28.444 825.151 28.652C825.071 28.86 825.031 29.088 825.031 29.336ZM836.412 24.8H832.944L832.86 26.636C832.996 26.596 833.156 26.568 833.34 26.552C833.532 26.536 833.704 26.528 833.856 26.528C834.272 26.528 834.656 26.588 835.008 26.708C835.368 26.828 835.68 27.004 835.944 27.236C836.208 27.46 836.412 27.74 836.556 28.076C836.708 28.404 836.784 28.784 836.784 29.216C836.784 29.688 836.7 30.112 836.532 30.488C836.372 30.856 836.152 31.168 835.872 31.424C835.592 31.68 835.264 31.876 834.888 32.012C834.512 32.148 834.112 32.216 833.688 32.216C832.976 32.216 832.376 32.052 831.888 31.724C831.4 31.388 831.044 30.932 830.82 30.356L832.128 29.876C832.248 30.212 832.448 30.484 832.728 30.692C833.008 30.892 833.34 30.992 833.724 30.992C833.94 30.992 834.144 30.956 834.336 30.884C834.528 30.812 834.696 30.708 834.84 30.572C834.984 30.436 835.096 30.268 835.176 30.068C835.264 29.86 835.308 29.628 835.308 29.372C835.308 29.044 835.252 28.772 835.14 28.556C835.028 28.34 834.88 28.168 834.696 28.04C834.52 27.904 834.32 27.812 834.096 27.764C833.872 27.708 833.644 27.68 833.412 27.68C833.252 27.68 833.08 27.692 832.896 27.716C832.72 27.74 832.544 27.776 832.368 27.824C832.2 27.864 832.032 27.912 831.864 27.968C831.704 28.024 831.56 28.084 831.432 28.148L831.576 23.504H836.412V24.8ZM844.336 27.752C844.336 28.44 844.268 29.06 844.132 29.612C844.004 30.164 843.812 30.632 843.556 31.016C843.308 31.4 842.996 31.696 842.62 31.904C842.252 32.112 841.828 32.216 841.348 32.216C840.868 32.216 840.44 32.112 840.064 31.904C839.688 31.696 839.372 31.4 839.116 31.016C838.86 30.632 838.664 30.164 838.528 29.612C838.4 29.06 838.336 28.44 838.336 27.752C838.336 27.064 838.4 26.444 838.528 25.892C838.664 25.34 838.86 24.872 839.116 24.488C839.372 24.104 839.688 23.808 840.064 23.6C840.44 23.392 840.868 23.288 841.348 23.288C841.828 23.288 842.252 23.392 842.62 23.6C842.996 23.808 843.308 24.104 843.556 24.488C843.812 24.872 844.004 25.34 844.132 25.892C844.268 26.444 844.336 27.064 844.336 27.752ZM842.86 27.752C842.86 27.456 842.84 27.12 842.8 26.744C842.768 26.368 842.696 26.012 842.584 25.676C842.48 25.34 842.328 25.06 842.128 24.836C841.928 24.604 841.668 24.488 841.348 24.488C841.02 24.488 840.756 24.604 840.556 24.836C840.356 25.06 840.2 25.34 840.088 25.676C839.984 26.012 839.912 26.368 839.872 26.744C839.832 27.12 839.812 27.456 839.812 27.752C839.812 28.048 839.832 28.384 839.872 28.76C839.912 29.136 839.984 29.488 840.088 29.816C840.2 30.144 840.356 30.424 840.556 30.656C840.756 30.88 841.02 30.992 841.348 30.992C841.668 30.992 841.928 30.88 842.128 30.656C842.328 30.424 842.48 30.144 842.584 29.816C842.696 29.488 842.768 29.136 842.8 28.76C842.84 28.384 842.86 28.048 842.86 27.752Z" fill="#222222"/>
<path d="M729.222 23.36C729.662 23.368 730.106 23.444 730.554 23.588C731.002 23.724 731.39 23.932 731.718 24.212L730.746 25.22C730.562 25.012 730.33 24.856 730.05 24.752C729.778 24.64 729.502 24.584 729.222 24.584V27.008C729.526 27.104 729.83 27.216 730.134 27.344C730.438 27.472 730.71 27.636 730.95 27.836C731.198 28.028 731.398 28.264 731.55 28.544C731.702 28.824 731.778 29.168 731.778 29.576C731.778 29.992 731.706 30.36 731.562 30.68C731.426 30.992 731.238 31.256 730.998 31.472C730.766 31.68 730.494 31.84 730.182 31.952C729.878 32.064 729.558 32.124 729.222 32.132V32.996H728.574V32.132C728.046 32.116 727.538 32.02 727.05 31.844C726.57 31.66 726.138 31.384 725.754 31.016L726.81 30.008C727.026 30.264 727.298 30.476 727.626 30.644C727.954 30.804 728.27 30.888 728.574 30.896V28.232C728.222 28.136 727.894 28.028 727.59 27.908C727.286 27.78 727.018 27.62 726.786 27.428C726.562 27.236 726.386 27.008 726.258 26.744C726.13 26.472 726.066 26.144 726.066 25.76C726.066 25.4 726.134 25.08 726.27 24.8C726.414 24.512 726.602 24.268 726.834 24.068C727.074 23.868 727.342 23.712 727.638 23.6C727.942 23.48 728.254 23.408 728.574 23.384V22.568H729.222V23.36ZM728.574 24.584C728.294 24.616 728.046 24.72 727.83 24.896C727.614 25.072 727.506 25.336 727.506 25.688C727.506 26.024 727.606 26.28 727.806 26.456C728.014 26.624 728.27 26.752 728.574 26.84V24.584ZM729.222 30.896C729.558 30.88 729.826 30.76 730.026 30.536C730.234 30.312 730.338 30.02 730.338 29.66C730.338 29.308 730.23 29.044 730.014 28.868C729.806 28.684 729.542 28.536 729.222 28.424V30.896ZM736.246 23.288C736.614 23.288 736.962 23.34 737.29 23.444C737.618 23.548 737.902 23.7 738.142 23.9C738.39 24.1 738.582 24.344 738.718 24.632C738.862 24.912 738.934 25.232 738.934 25.592C738.934 26.088 738.81 26.5 738.562 26.828C738.314 27.156 737.998 27.384 737.614 27.512V27.536C737.838 27.592 738.046 27.684 738.238 27.812C738.43 27.932 738.598 28.084 738.742 28.268C738.886 28.444 738.998 28.644 739.078 28.868C739.166 29.092 739.21 29.336 739.21 29.6C739.21 30.024 739.13 30.4 738.97 30.728C738.818 31.048 738.606 31.32 738.334 31.544C738.07 31.768 737.758 31.936 737.398 32.048C737.038 32.16 736.654 32.216 736.246 32.216C735.838 32.216 735.454 32.16 735.094 32.048C734.734 31.936 734.418 31.768 734.146 31.544C733.882 31.32 733.67 31.048 733.51 30.728C733.358 30.4 733.282 30.024 733.282 29.6C733.282 29.328 733.326 29.076 733.414 28.844C733.502 28.612 733.618 28.408 733.762 28.232C733.914 28.056 734.086 27.912 734.278 27.8C734.47 27.68 734.67 27.592 734.878 27.536V27.512C734.494 27.376 734.178 27.156 733.93 26.852C733.682 26.548 733.558 26.148 733.558 25.652C733.558 25.292 733.626 24.968 733.762 24.68C733.906 24.384 734.098 24.136 734.338 23.936C734.586 23.728 734.87 23.568 735.19 23.456C735.518 23.344 735.87 23.288 736.246 23.288ZM736.246 24.476C735.886 24.476 735.59 24.584 735.358 24.8C735.134 25.016 735.022 25.308 735.022 25.676C735.022 26.02 735.13 26.312 735.346 26.552C735.57 26.792 735.87 26.912 736.246 26.912C736.414 26.912 736.574 26.88 736.726 26.816C736.878 26.752 737.01 26.664 737.122 26.552C737.234 26.44 737.322 26.308 737.386 26.156C737.45 26.004 737.482 25.844 737.482 25.676C737.482 25.492 737.446 25.328 737.374 25.184C737.31 25.032 737.218 24.904 737.098 24.8C736.986 24.696 736.854 24.616 736.702 24.56C736.558 24.504 736.406 24.476 736.246 24.476ZM736.246 28.136C736.038 28.136 735.842 28.172 735.658 28.244C735.482 28.316 735.326 28.416 735.19 28.544C735.062 28.664 734.958 28.816 734.878 29C734.806 29.176 734.77 29.372 734.77 29.588C734.77 30.036 734.91 30.384 735.19 30.632C735.47 30.88 735.822 31.004 736.246 31.004C736.662 31.004 737.01 30.88 737.29 30.632C737.57 30.384 737.71 30.036 737.71 29.588C737.71 29.38 737.67 29.188 737.59 29.012C737.518 28.828 737.414 28.672 737.278 28.544C737.15 28.416 736.994 28.316 736.81 28.244C736.634 28.172 736.446 28.136 736.246 28.136ZM741.038 30.344H742.43L741.41 33.512H740.198L741.038 30.344ZM749.687 27.752C749.687 28.44 749.619 29.06 749.483 29.612C749.355 30.164 749.163 30.632 748.907 31.016C748.659 31.4 748.347 31.696 747.971 31.904C747.603 32.112 747.179 32.216 746.699 32.216C746.219 32.216 745.791 32.112 745.415 31.904C745.039 31.696 744.723 31.4 744.467 31.016C744.211 30.632 744.015 30.164 743.879 29.612C743.751 29.06 743.687 28.44 743.687 27.752C743.687 27.064 743.751 26.444 743.879 25.892C744.015 25.34 744.211 24.872 744.467 24.488C744.723 24.104 745.039 23.808 745.415 23.6C745.791 23.392 746.219 23.288 746.699 23.288C747.179 23.288 747.603 23.392 747.971 23.6C748.347 23.808 748.659 24.104 748.907 24.488C749.163 24.872 749.355 25.34 749.483 25.892C749.619 26.444 749.687 27.064 749.687 27.752ZM748.211 27.752C748.211 27.456 748.191 27.12 748.151 26.744C748.119 26.368 748.047 26.012 747.935 25.676C747.831 25.34 747.679 25.06 747.479 24.836C747.279 24.604 747.019 24.488 746.699 24.488C746.371 24.488 746.107 24.604 745.907 24.836C745.707 25.06 745.551 25.34 745.439 25.676C745.335 26.012 745.263 26.368 745.223 26.744C745.183 27.12 745.163 27.456 745.163 27.752C745.163 28.048 745.183 28.384 745.223 28.76C745.263 29.136 745.335 29.488 745.439 29.816C745.551 30.144 745.707 30.424 745.907 30.656C746.107 30.88 746.371 30.992 746.699 30.992C747.019 30.992 747.279 30.88 747.479 30.656C747.679 30.424 747.831 30.144 747.935 29.816C748.047 29.488 748.119 29.136 748.151 28.76C748.191 28.384 748.211 28.048 748.211 27.752ZM752.896 26.996H753.28C753.496 26.996 753.708 26.98 753.916 26.948C754.132 26.908 754.328 26.84 754.504 26.744C754.68 26.648 754.82 26.52 754.924 26.36C755.036 26.192 755.092 25.976 755.092 25.712C755.092 25.52 755.056 25.348 754.984 25.196C754.912 25.044 754.812 24.916 754.684 24.812C754.564 24.708 754.42 24.628 754.252 24.572C754.092 24.516 753.924 24.488 753.748 24.488C753.396 24.488 753.104 24.588 752.872 24.788C752.64 24.988 752.48 25.252 752.392 25.58L751.036 25.232C751.108 24.944 751.228 24.684 751.396 24.452C751.572 24.212 751.78 24.008 752.02 23.84C752.268 23.664 752.544 23.528 752.848 23.432C753.152 23.336 753.472 23.288 753.808 23.288C754.176 23.288 754.524 23.34 754.852 23.444C755.188 23.54 755.48 23.688 755.728 23.888C755.984 24.08 756.184 24.32 756.328 24.608C756.472 24.896 756.544 25.232 756.544 25.616C756.544 26.072 756.404 26.48 756.124 26.84C755.852 27.192 755.484 27.424 755.02 27.536V27.56C755.54 27.664 755.96 27.9 756.28 28.268C756.608 28.628 756.772 29.072 756.772 29.6C756.772 30.04 756.684 30.424 756.508 30.752C756.34 31.08 756.112 31.352 755.824 31.568C755.544 31.784 755.228 31.944 754.876 32.048C754.524 32.16 754.168 32.216 753.808 32.216C753.448 32.216 753.108 32.176 752.788 32.096C752.468 32.024 752.172 31.908 751.9 31.748C751.636 31.588 751.4 31.38 751.192 31.124C750.992 30.868 750.836 30.564 750.724 30.212L752.068 29.792C752.172 30.128 752.364 30.412 752.644 30.644C752.932 30.876 753.304 30.992 753.76 30.992C753.944 30.992 754.128 30.968 754.312 30.92C754.504 30.864 754.672 30.78 754.816 30.668C754.968 30.556 755.088 30.412 755.176 30.236C755.272 30.06 755.32 29.844 755.32 29.588C755.32 29.316 755.252 29.088 755.116 28.904C754.988 28.712 754.824 28.564 754.624 28.46C754.424 28.348 754.2 28.268 753.952 28.22C753.712 28.172 753.48 28.148 753.256 28.148H752.896V26.996ZM761.336 23.288C761.704 23.288 762.052 23.34 762.38 23.444C762.708 23.548 762.992 23.7 763.232 23.9C763.48 24.1 763.672 24.344 763.808 24.632C763.952 24.912 764.024 25.232 764.024 25.592C764.024 26.088 763.9 26.5 763.652 26.828C763.404 27.156 763.088 27.384 762.704 27.512V27.536C762.928 27.592 763.136 27.684 763.328 27.812C763.52 27.932 763.688 28.084 763.832 28.268C763.976 28.444 764.088 28.644 764.168 28.868C764.256 29.092 764.3 29.336 764.3 29.6C764.3 30.024 764.22 30.4 764.06 30.728C763.908 31.048 763.696 31.32 763.424 31.544C763.16 31.768 762.848 31.936 762.488 32.048C762.128 32.16 761.744 32.216 761.336 32.216C760.928 32.216 760.544 32.16 760.184 32.048C759.824 31.936 759.508 31.768 759.236 31.544C758.972 31.32 758.76 31.048 758.6 30.728C758.448 30.4 758.372 30.024 758.372 29.6C758.372 29.328 758.416 29.076 758.504 28.844C758.592 28.612 758.708 28.408 758.852 28.232C759.004 28.056 759.176 27.912 759.368 27.8C759.56 27.68 759.76 27.592 759.968 27.536V27.512C759.584 27.376 759.268 27.156 759.02 26.852C758.772 26.548 758.648 26.148 758.648 25.652C758.648 25.292 758.716 24.968 758.852 24.68C758.996 24.384 759.188 24.136 759.428 23.936C759.676 23.728 759.96 23.568 760.28 23.456C760.608 23.344 760.96 23.288 761.336 23.288ZM761.336 24.476C760.976 24.476 760.68 24.584 760.448 24.8C760.224 25.016 760.112 25.308 760.112 25.676C760.112 26.02 760.22 26.312 760.436 26.552C760.66 26.792 760.96 26.912 761.336 26.912C761.504 26.912 761.664 26.88 761.816 26.816C761.968 26.752 762.1 26.664 762.212 26.552C762.324 26.44 762.412 26.308 762.476 26.156C762.54 26.004 762.572 25.844 762.572 25.676C762.572 25.492 762.536 25.328 762.464 25.184C762.4 25.032 762.308 24.904 762.188 24.8C762.076 24.696 761.944 24.616 761.792 24.56C761.648 24.504 761.496 24.476 761.336 24.476ZM761.336 28.136C761.128 28.136 760.932 28.172 760.748 28.244C760.572 28.316 760.416 28.416 760.28 28.544C760.152 28.664 760.048 28.816 759.968 29C759.896 29.176 759.86 29.372 759.86 29.588C759.86 30.036 760 30.384 760.28 30.632C760.56 30.88 760.912 31.004 761.336 31.004C761.752 31.004 762.1 30.88 762.38 30.632C762.66 30.384 762.8 30.036 762.8 29.588C762.8 29.38 762.76 29.188 762.68 29.012C762.608 28.828 762.504 28.672 762.368 28.544C762.24 28.416 762.084 28.316 761.9 28.244C761.724 28.172 761.536 28.136 761.336 28.136Z" fill="#222222"/>
<path d="M725.262 29H764.996V29.6H725.262V29Z" fill="#222222"/>
<path d="M897.7 25.256L896.02 26.636L895.18 25.64L897.832 23.504H899.14V32H897.7V25.256ZM904.22 26.996H904.604C904.82 26.996 905.032 26.98 905.24 26.948C905.456 26.908 905.652 26.84 905.828 26.744C906.004 26.648 906.144 26.52 906.248 26.36C906.36 26.192 906.416 25.976 906.416 25.712C906.416 25.52 906.38 25.348 906.308 25.196C906.236 25.044 906.136 24.916 906.008 24.812C905.888 24.708 905.744 24.628 905.576 24.572C905.416 24.516 905.248 24.488 905.072 24.488C904.72 24.488 904.428 24.588 904.196 24.788C903.964 24.988 903.804 25.252 903.716 25.58L902.36 25.232C902.432 24.944 902.552 24.684 902.72 24.452C902.896 24.212 903.104 24.008 903.344 23.84C903.592 23.664 903.868 23.528 904.172 23.432C904.476 23.336 904.796 23.288 905.132 23.288C905.5 23.288 905.848 23.34 906.176 23.444C906.512 23.54 906.804 23.688 907.052 23.888C907.308 24.08 907.508 24.32 907.652 24.608C907.796 24.896 907.868 25.232 907.868 25.616C907.868 26.072 907.728 26.48 907.448 26.84C907.176 27.192 906.808 27.424 906.344 27.536V27.56C906.864 27.664 907.284 27.9 907.604 28.268C907.932 28.628 908.096 29.072 908.096 29.6C908.096 30.04 908.008 30.424 907.832 30.752C907.664 31.08 907.436 31.352 907.148 31.568C906.868 31.784 906.552 31.944 906.2 32.048C905.848 32.16 905.492 32.216 905.132 32.216C904.772 32.216 904.432 32.176 904.112 32.096C903.792 32.024 903.496 31.908 903.224 31.748C902.96 31.588 902.724 31.38 902.516 31.124C902.316 30.868 902.16 30.564 902.048 30.212L903.392 29.792C903.496 30.128 903.688 30.412 903.968 30.644C904.256 30.876 904.628 30.992 905.084 30.992C905.268 30.992 905.452 30.968 905.636 30.92C905.828 30.864 905.996 30.78 906.14 30.668C906.292 30.556 906.412 30.412 906.5 30.236C906.596 30.06 906.644 29.844 906.644 29.588C906.644 29.316 906.576 29.088 906.44 28.904C906.312 28.712 906.148 28.564 905.948 28.46C905.748 28.348 905.524 28.268 905.276 28.22C905.036 28.172 904.804 28.148 904.58 28.148H904.22V26.996Z" fill="#222222"/>
<path d="M953.222 23.36C953.662 23.368 954.106 23.444 954.554 23.588C955.002 23.724 955.39 23.932 955.718 24.212L954.746 25.22C954.562 25.012 954.33 24.856 954.05 24.752C953.778 24.64 953.502 24.584 953.222 24.584V27.008C953.526 27.104 953.83 27.216 954.134 27.344C954.438 27.472 954.71 27.636 954.95 27.836C955.198 28.028 955.398 28.264 955.55 28.544C955.702 28.824 955.778 29.168 955.778 29.576C955.778 29.992 955.706 30.36 955.562 30.68C955.426 30.992 955.238 31.256 954.998 31.472C954.766 31.68 954.494 31.84 954.182 31.952C953.878 32.064 953.558 32.124 953.222 32.132V32.996H952.574V32.132C952.046 32.116 951.538 32.02 951.05 31.844C950.57 31.66 950.138 31.384 949.754 31.016L950.81 30.008C951.026 30.264 951.298 30.476 951.626 30.644C951.954 30.804 952.27 30.888 952.574 30.896V28.232C952.222 28.136 951.894 28.028 951.59 27.908C951.286 27.78 951.018 27.62 950.786 27.428C950.562 27.236 950.386 27.008 950.258 26.744C950.13 26.472 950.066 26.144 950.066 25.76C950.066 25.4 950.134 25.08 950.27 24.8C950.414 24.512 950.602 24.268 950.834 24.068C951.074 23.868 951.342 23.712 951.638 23.6C951.942 23.48 952.254 23.408 952.574 23.384V22.568H953.222V23.36ZM952.574 24.584C952.294 24.616 952.046 24.72 951.83 24.896C951.614 25.072 951.506 25.336 951.506 25.688C951.506 26.024 951.606 26.28 951.806 26.456C952.014 26.624 952.27 26.752 952.574 26.84V24.584ZM953.222 30.896C953.558 30.88 953.826 30.76 954.026 30.536C954.234 30.312 954.338 30.02 954.338 29.66C954.338 29.308 954.23 29.044 954.014 28.868C953.806 28.684 953.542 28.536 953.222 28.424V30.896ZM960.246 23.288C960.614 23.288 960.962 23.34 961.29 23.444C961.618 23.548 961.902 23.7 962.142 23.9C962.39 24.1 962.582 24.344 962.718 24.632C962.862 24.912 962.934 25.232 962.934 25.592C962.934 26.088 962.81 26.5 962.562 26.828C962.314 27.156 961.998 27.384 961.614 27.512V27.536C961.838 27.592 962.046 27.684 962.238 27.812C962.43 27.932 962.598 28.084 962.742 28.268C962.886 28.444 962.998 28.644 963.078 28.868C963.166 29.092 963.21 29.336 963.21 29.6C963.21 30.024 963.13 30.4 962.97 30.728C962.818 31.048 962.606 31.32 962.334 31.544C962.07 31.768 961.758 31.936 961.398 32.048C961.038 32.16 960.654 32.216 960.246 32.216C959.838 32.216 959.454 32.16 959.094 32.048C958.734 31.936 958.418 31.768 958.146 31.544C957.882 31.32 957.67 31.048 957.51 30.728C957.358 30.4 957.282 30.024 957.282 29.6C957.282 29.328 957.326 29.076 957.414 28.844C957.502 28.612 957.618 28.408 957.762 28.232C957.914 28.056 958.086 27.912 958.278 27.8C958.47 27.68 958.67 27.592 958.878 27.536V27.512C958.494 27.376 958.178 27.156 957.93 26.852C957.682 26.548 957.558 26.148 957.558 25.652C957.558 25.292 957.626 24.968 957.762 24.68C957.906 24.384 958.098 24.136 958.338 23.936C958.586 23.728 958.87 23.568 959.19 23.456C959.518 23.344 959.87 23.288 960.246 23.288ZM960.246 24.476C959.886 24.476 959.59 24.584 959.358 24.8C959.134 25.016 959.022 25.308 959.022 25.676C959.022 26.02 959.13 26.312 959.346 26.552C959.57 26.792 959.87 26.912 960.246 26.912C960.414 26.912 960.574 26.88 960.726 26.816C960.878 26.752 961.01 26.664 961.122 26.552C961.234 26.44 961.322 26.308 961.386 26.156C961.45 26.004 961.482 25.844 961.482 25.676C961.482 25.492 961.446 25.328 961.374 25.184C961.31 25.032 961.218 24.904 961.098 24.8C960.986 24.696 960.854 24.616 960.702 24.56C960.558 24.504 960.406 24.476 960.246 24.476ZM960.246 28.136C960.038 28.136 959.842 28.172 959.658 28.244C959.482 28.316 959.326 28.416 959.19 28.544C959.062 28.664 958.958 28.816 958.878 29C958.806 29.176 958.77 29.372 958.77 29.588C958.77 30.036 958.91 30.384 959.19 30.632C959.47 30.88 959.822 31.004 960.246 31.004C960.662 31.004 961.01 30.88 961.29 30.632C961.57 30.384 961.71 30.036 961.71 29.588C961.71 29.38 961.67 29.188 961.59 29.012C961.518 28.828 961.414 28.672 961.278 28.544C961.15 28.416 960.994 28.316 960.81 28.244C960.634 28.172 960.446 28.136 960.246 28.136ZM965.038 30.344H966.43L965.41 33.512H964.198L965.038 30.344ZM967.639 23.504H973.411V24.824L970.015 32H968.323L971.899 24.8H967.639V23.504ZM981.012 27.752C981.012 28.44 980.944 29.06 980.808 29.612C980.68 30.164 980.488 30.632 980.232 31.016C979.984 31.4 979.672 31.696 979.296 31.904C978.928 32.112 978.504 32.216 978.024 32.216C977.544 32.216 977.116 32.112 976.74 31.904C976.364 31.696 976.048 31.4 975.792 31.016C975.536 30.632 975.34 30.164 975.204 29.612C975.076 29.06 975.012 28.44 975.012 27.752C975.012 27.064 975.076 26.444 975.204 25.892C975.34 25.34 975.536 24.872 975.792 24.488C976.048 24.104 976.364 23.808 976.74 23.6C977.116 23.392 977.544 23.288 978.024 23.288C978.504 23.288 978.928 23.392 979.296 23.6C979.672 23.808 979.984 24.104 980.232 24.488C980.488 24.872 980.68 25.34 980.808 25.892C980.944 26.444 981.012 27.064 981.012 27.752ZM979.536 27.752C979.536 27.456 979.516 27.12 979.476 26.744C979.444 26.368 979.372 26.012 979.26 25.676C979.156 25.34 979.004 25.06 978.804 24.836C978.604 24.604 978.344 24.488 978.024 24.488C977.696 24.488 977.432 24.604 977.232 24.836C977.032 25.06 976.876 25.34 976.764 25.676C976.66 26.012 976.588 26.368 976.548 26.744C976.508 27.12 976.488 27.456 976.488 27.752C976.488 28.048 976.508 28.384 976.548 28.76C976.588 29.136 976.66 29.488 976.764 29.816C976.876 30.144 977.032 30.424 977.232 30.656C977.432 30.88 977.696 30.992 978.024 30.992C978.344 30.992 978.604 30.88 978.804 30.656C979.004 30.424 979.156 30.144 979.26 29.816C979.372 29.488 979.444 29.136 979.476 28.76C979.516 28.384 979.536 28.048 979.536 27.752ZM988.336 27.752C988.336 28.44 988.268 29.06 988.132 29.612C988.004 30.164 987.812 30.632 987.556 31.016C987.308 31.4 986.996 31.696 986.62 31.904C986.252 32.112 985.828 32.216 985.348 32.216C984.868 32.216 984.44 32.112 984.064 31.904C983.688 31.696 983.372 31.4 983.116 31.016C982.86 30.632 982.664 30.164 982.528 29.612C982.4 29.06 982.336 28.44 982.336 27.752C982.336 27.064 982.4 26.444 982.528 25.892C982.664 25.34 982.86 24.872 983.116 24.488C983.372 24.104 983.688 23.808 984.064 23.6C984.44 23.392 984.868 23.288 985.348 23.288C985.828 23.288 986.252 23.392 986.62 23.6C986.996 23.808 987.308 24.104 987.556 24.488C987.812 24.872 988.004 25.34 988.132 25.892C988.268 26.444 988.336 27.064 988.336 27.752ZM986.86 27.752C986.86 27.456 986.84 27.12 986.8 26.744C986.768 26.368 986.696 26.012 986.584 25.676C986.48 25.34 986.328 25.06 986.128 24.836C985.928 24.604 985.668 24.488 985.348 24.488C985.02 24.488 984.756 24.604 984.556 24.836C984.356 25.06 984.2 25.34 984.088 25.676C983.984 26.012 983.912 26.368 983.872 26.744C983.832 27.12 983.812 27.456 983.812 27.752C983.812 28.048 983.832 28.384 983.872 28.76C983.912 29.136 983.984 29.488 984.088 29.816C984.2 30.144 984.356 30.424 984.556 30.656C984.756 30.88 985.02 30.992 985.348 30.992C985.668 30.992 985.928 30.88 986.128 30.656C986.328 30.424 986.48 30.144 986.584 29.816C986.696 29.488 986.768 29.136 986.8 28.76C986.84 28.384 986.86 28.048 986.86 27.752Z" fill="#222222"/>
<path d="M18.652 24.824H16.048V23.504H22.768V24.824H20.164V32H18.652V24.824ZM22.985 27.728C22.985 27.048 23.097 26.436 23.321 25.892C23.553 25.34 23.869 24.872 24.269 24.488C24.677 24.104 25.157 23.808 25.709 23.6C26.269 23.392 26.877 23.288 27.533 23.288C28.197 23.288 28.809 23.392 29.369 23.6C29.929 23.808 30.413 24.104 30.821 24.488C31.229 24.872 31.545 25.34 31.769 25.892C32.001 26.436 32.117 27.048 32.117 27.728C32.117 28.392 32.001 29 31.769 29.552C31.545 30.096 31.229 30.568 30.821 30.968C30.413 31.36 29.929 31.668 29.369 31.892C28.809 32.108 28.197 32.216 27.533 32.216C26.877 32.216 26.269 32.108 25.709 31.892C25.157 31.668 24.677 31.36 24.269 30.968C23.869 30.568 23.553 30.096 23.321 29.552C23.097 29 22.985 28.392 22.985 27.728ZM24.629 27.728C24.629 28.184 24.697 28.604 24.833 28.988C24.977 29.364 25.177 29.692 25.433 29.972C25.697 30.252 26.005 30.472 26.357 30.632C26.717 30.784 27.113 30.86 27.545 30.86C27.977 30.86 28.373 30.784 28.733 30.632C29.093 30.472 29.401 30.252 29.657 29.972C29.921 29.692 30.121 29.364 30.257 28.988C30.401 28.604 30.473 28.184 30.473 27.728C30.473 27.288 30.401 26.88 30.257 26.504C30.121 26.128 29.925 25.8 29.669 25.52C29.413 25.24 29.105 25.02 28.745 24.86C28.385 24.7 27.985 24.62 27.545 24.62C27.105 24.62 26.705 24.7 26.345 24.86C25.993 25.02 25.689 25.24 25.433 25.52C25.177 25.8 24.977 26.128 24.833 26.504C24.697 26.88 24.629 27.288 24.629 27.728ZM34.9293 24.824H32.3253V23.504H39.0453V24.824H36.4413V32H34.9293V24.824ZM41.9828 23.504H43.2908L46.9508 32H45.2228L44.4308 30.056H40.7468L39.9788 32H38.2868L41.9828 23.504ZM43.9028 28.76L42.5948 25.304L41.2628 28.76H43.9028ZM47.7915 23.504H49.3035V30.656H52.9155V32H47.7915V23.504Z" fill="#222222"/>
<path fill-rule="evenodd" clip-rule="evenodd" d="M0 55H16V115H0V55Z" fill="#A8A18F"/>
<path d="M16.5 55.5H52.5V114.5H16.5V55.5Z" fill="#DCDFD8" stroke="#A8A18F"/>
<path fill-rule="evenodd" clip-rule="evenodd" d="M53 55H182V115H53V55Z" fill="#A8A18F"/>
<path fill-rule="evenodd" clip-rule="evenodd" d="M182 55H206V115H182V55Z" fill="#A8A18F"/>
<path fill-rule="evenodd" clip-rule="evenodd" d="M206 55H338V115H206V55Z" fill="#A8A18F"/>
<path fill-rule="evenodd" clip-rule="evenodd" d="M338 55H346V115H338V55Z" fill="#A8A18F"/>
<path fill-rule="evenodd" clip-rule="evenodd" d="M346 55H576V115H346V55Z" fill="#A8A18F"/>
<path fill-rule="evenodd" clip-rule="evenodd" d="M576 55H591V115H576V55Z" fill="#A8A18F"/>
<path fill-rule="evenodd" clip-rule="evenodd" d="M591 55H686V115H591V55Z" fill="#A8A18F"/>
<path d="M686.5 55.5H765.5V114.5H686.5V55.5Z" fill="#DCDFD8" stroke="#A8A18F"/>
<path d="M766.5 55.5H845.5V114.5H766.5V55.5Z" fill="#DCDFD8" stroke="#A8A18F"/>
<path d="M846.5 55.5H909.5V114.5H846.5V55.5Z" fill="#DCDFD8" stroke="#A8A18F"/>
<path d="M910.5 55.5H989.5V114.5H910.5V55.5Z" fill="#DCDFD8" stroke="#A8A18F"/>
<path d="M990.5 55.5H1069.5V114.5H990.5V55.5Z" fill="#DCDFD8" stroke="#A8A18F"/>
<path fill-rule="evenodd" clip-rule="evenodd" d="M1070 55H1173V115H1070V55Z" fill="#A8A18F"/>
<path fill-rule="evenodd" clip-rule="evenodd" d="M1173 55H1253V115H1173V55Z" fill="#A8A18F"/>
<path fill-rule="evenodd" clip-rule="evenodd" d="M1253 55H1269V115H1253V55Z" fill="#A8A18F"/>
</svg>
