<svg width="1268" height="140" viewBox="0 0 1268 140" fill="none" xmlns="http://www.w3.org/2000/svg">
<mask id="path-1-inside-1_308_15561" fill="white">
<path d="M0 0H1268V80H0V0Z"/>
</mask>
<path d="M0 0H1268V80H0V0Z" fill="white"/>
<path d="M1268 79H0V81H1268V79Z" fill="#D9D9D9" mask="url(#path-1-inside-1_308_15561)"/>
<path d="M1025.9 35.36C1026.34 35.368 1026.78 35.444 1027.23 35.588C1027.68 35.724 1028.07 35.932 1028.39 36.212L1027.42 37.22C1027.24 37.012 1027.01 36.856 1026.73 36.752C1026.45 36.64 1026.18 36.584 1025.9 36.584V39.008C1026.2 39.104 1026.51 39.216 1026.81 39.344C1027.11 39.472 1027.39 39.636 1027.63 39.836C1027.87 40.028 1028.07 40.264 1028.23 40.544C1028.38 40.824 1028.45 41.168 1028.45 41.576C1028.45 41.992 1028.38 42.36 1028.24 42.68C1028.1 42.992 1027.91 43.256 1027.67 43.472C1027.44 43.68 1027.17 43.84 1026.86 43.952C1026.55 44.064 1026.23 44.124 1025.9 44.132V44.996H1025.25V44.132C1024.72 44.116 1024.21 44.02 1023.73 43.844C1023.25 43.66 1022.81 43.384 1022.43 43.016L1023.49 42.008C1023.7 42.264 1023.97 42.476 1024.3 42.644C1024.63 42.804 1024.95 42.888 1025.25 42.896V40.232C1024.9 40.136 1024.57 40.028 1024.27 39.908C1023.96 39.78 1023.69 39.62 1023.46 39.428C1023.24 39.236 1023.06 39.008 1022.93 38.744C1022.81 38.472 1022.74 38.144 1022.74 37.76C1022.74 37.4 1022.81 37.08 1022.95 36.8C1023.09 36.512 1023.28 36.268 1023.51 36.068C1023.75 35.868 1024.02 35.712 1024.31 35.6C1024.62 35.48 1024.93 35.408 1025.25 35.384V34.568H1025.9V35.36ZM1025.25 36.584C1024.97 36.616 1024.72 36.72 1024.51 36.896C1024.29 37.072 1024.18 37.336 1024.18 37.688C1024.18 38.024 1024.28 38.28 1024.48 38.456C1024.69 38.624 1024.95 38.752 1025.25 38.84V36.584ZM1025.9 42.896C1026.23 42.88 1026.5 42.76 1026.7 42.536C1026.91 42.312 1027.01 42.02 1027.01 41.66C1027.01 41.308 1026.91 41.044 1026.69 40.868C1026.48 40.684 1026.22 40.536 1025.9 40.424V42.896ZM1032.61 37.256L1030.93 38.636L1030.09 37.64L1032.74 35.504H1034.05V44H1032.61V37.256ZM1043.25 39.752C1043.25 40.44 1043.18 41.06 1043.04 41.612C1042.91 42.164 1042.72 42.632 1042.47 43.016C1042.22 43.4 1041.91 43.696 1041.53 43.904C1041.16 44.112 1040.74 44.216 1040.26 44.216C1039.78 44.216 1039.35 44.112 1038.97 43.904C1038.6 43.696 1038.28 43.4 1038.03 43.016C1037.77 42.632 1037.57 42.164 1037.44 41.612C1037.31 41.06 1037.25 40.44 1037.25 39.752C1037.25 39.064 1037.31 38.444 1037.44 37.892C1037.57 37.34 1037.77 36.872 1038.03 36.488C1038.28 36.104 1038.6 35.808 1038.97 35.6C1039.35 35.392 1039.78 35.288 1040.26 35.288C1040.74 35.288 1041.16 35.392 1041.53 35.6C1041.91 35.808 1042.22 36.104 1042.47 36.488C1042.72 36.872 1042.91 37.34 1043.04 37.892C1043.18 38.444 1043.25 39.064 1043.25 39.752ZM1041.77 39.752C1041.77 39.456 1041.75 39.12 1041.71 38.744C1041.68 38.368 1041.61 38.012 1041.49 37.676C1041.39 37.34 1041.24 37.06 1041.04 36.836C1040.84 36.604 1040.58 36.488 1040.26 36.488C1039.93 36.488 1039.67 36.604 1039.47 36.836C1039.27 37.06 1039.11 37.34 1039 37.676C1038.89 38.012 1038.82 38.368 1038.78 38.744C1038.74 39.12 1038.72 39.456 1038.72 39.752C1038.72 40.048 1038.74 40.384 1038.78 40.76C1038.82 41.136 1038.89 41.488 1039 41.816C1039.11 42.144 1039.27 42.424 1039.47 42.656C1039.67 42.88 1039.93 42.992 1040.26 42.992C1040.58 42.992 1040.84 42.88 1041.04 42.656C1041.24 42.424 1041.39 42.144 1041.49 41.816C1041.61 41.488 1041.68 41.136 1041.71 40.76C1041.75 40.384 1041.77 40.048 1041.77 39.752ZM1045.04 42.344H1046.43L1045.41 45.512H1044.2L1045.04 42.344ZM1053.09 36.8H1049.62L1049.54 38.636C1049.67 38.596 1049.83 38.568 1050.02 38.552C1050.21 38.536 1050.38 38.528 1050.53 38.528C1050.95 38.528 1051.33 38.588 1051.68 38.708C1052.04 38.828 1052.36 39.004 1052.62 39.236C1052.88 39.46 1053.09 39.74 1053.23 40.076C1053.38 40.404 1053.46 40.784 1053.46 41.216C1053.46 41.688 1053.38 42.112 1053.21 42.488C1053.05 42.856 1052.83 43.168 1052.55 43.424C1052.27 43.68 1051.94 43.876 1051.56 44.012C1051.19 44.148 1050.79 44.216 1050.36 44.216C1049.65 44.216 1049.05 44.052 1048.56 43.724C1048.08 43.388 1047.72 42.932 1047.5 42.356L1048.8 41.876C1048.92 42.212 1049.12 42.484 1049.4 42.692C1049.68 42.892 1050.02 42.992 1050.4 42.992C1050.62 42.992 1050.82 42.956 1051.01 42.884C1051.2 42.812 1051.37 42.708 1051.52 42.572C1051.66 42.436 1051.77 42.268 1051.85 42.068C1051.94 41.86 1051.98 41.628 1051.98 41.372C1051.98 41.044 1051.93 40.772 1051.82 40.556C1051.7 40.34 1051.56 40.168 1051.37 40.04C1051.2 39.904 1051 39.812 1050.77 39.764C1050.55 39.708 1050.32 39.68 1050.09 39.68C1049.93 39.68 1049.76 39.692 1049.57 39.716C1049.4 39.74 1049.22 39.776 1049.04 39.824C1048.88 39.864 1048.71 39.912 1048.54 39.968C1048.38 40.024 1048.24 40.084 1048.11 40.148L1048.25 35.504H1053.09V36.8ZM1060.41 36.8H1056.94L1056.86 38.636C1057 38.596 1057.16 38.568 1057.34 38.552C1057.53 38.536 1057.7 38.528 1057.86 38.528C1058.27 38.528 1058.66 38.588 1059.01 38.708C1059.37 38.828 1059.68 39.004 1059.94 39.236C1060.21 39.46 1060.41 39.74 1060.56 40.076C1060.71 40.404 1060.78 40.784 1060.78 41.216C1060.78 41.688 1060.7 42.112 1060.53 42.488C1060.37 42.856 1060.15 43.168 1059.87 43.424C1059.59 43.68 1059.26 43.876 1058.89 44.012C1058.51 44.148 1058.11 44.216 1057.69 44.216C1056.98 44.216 1056.38 44.052 1055.89 43.724C1055.4 43.388 1055.04 42.932 1054.82 42.356L1056.13 41.876C1056.25 42.212 1056.45 42.484 1056.73 42.692C1057.01 42.892 1057.34 42.992 1057.72 42.992C1057.94 42.992 1058.14 42.956 1058.34 42.884C1058.53 42.812 1058.7 42.708 1058.84 42.572C1058.98 42.436 1059.1 42.268 1059.18 42.068C1059.26 41.86 1059.31 41.628 1059.31 41.372C1059.31 41.044 1059.25 40.772 1059.14 40.556C1059.03 40.34 1058.88 40.168 1058.7 40.04C1058.52 39.904 1058.32 39.812 1058.1 39.764C1057.87 39.708 1057.64 39.68 1057.41 39.68C1057.25 39.68 1057.08 39.692 1056.9 39.716C1056.72 39.74 1056.54 39.776 1056.37 39.824C1056.2 39.864 1056.03 39.912 1055.86 39.968C1055.7 40.024 1055.56 40.084 1055.43 40.148L1055.58 35.504H1060.41V36.8ZM1068.34 39.752C1068.34 40.44 1068.27 41.06 1068.13 41.612C1068 42.164 1067.81 42.632 1067.56 43.016C1067.31 43.4 1067 43.696 1066.62 43.904C1066.25 44.112 1065.83 44.216 1065.35 44.216C1064.87 44.216 1064.44 44.112 1064.06 43.904C1063.69 43.696 1063.37 43.4 1063.12 43.016C1062.86 42.632 1062.66 42.164 1062.53 41.612C1062.4 41.06 1062.34 40.44 1062.34 39.752C1062.34 39.064 1062.4 38.444 1062.53 37.892C1062.66 37.34 1062.86 36.872 1063.12 36.488C1063.37 36.104 1063.69 35.808 1064.06 35.6C1064.44 35.392 1064.87 35.288 1065.35 35.288C1065.83 35.288 1066.25 35.392 1066.62 35.6C1067 35.808 1067.31 36.104 1067.56 36.488C1067.81 36.872 1068 37.34 1068.13 37.892C1068.27 38.444 1068.34 39.064 1068.34 39.752ZM1066.86 39.752C1066.86 39.456 1066.84 39.12 1066.8 38.744C1066.77 38.368 1066.7 38.012 1066.58 37.676C1066.48 37.34 1066.33 37.06 1066.13 36.836C1065.93 36.604 1065.67 36.488 1065.35 36.488C1065.02 36.488 1064.76 36.604 1064.56 36.836C1064.36 37.06 1064.2 37.34 1064.09 37.676C1063.98 38.012 1063.91 38.368 1063.87 38.744C1063.83 39.12 1063.81 39.456 1063.81 39.752C1063.81 40.048 1063.83 40.384 1063.87 40.76C1063.91 41.136 1063.98 41.488 1064.09 41.816C1064.2 42.144 1064.36 42.424 1064.56 42.656C1064.76 42.88 1065.02 42.992 1065.35 42.992C1065.67 42.992 1065.93 42.88 1066.13 42.656C1066.33 42.424 1066.48 42.144 1066.58 41.816C1066.7 41.488 1066.77 41.136 1066.8 40.76C1066.84 40.384 1066.86 40.048 1066.86 39.752Z" fill="#222222"/>
<path d="M809.222 35.36C809.662 35.368 810.106 35.444 810.554 35.588C811.002 35.724 811.39 35.932 811.718 36.212L810.746 37.22C810.562 37.012 810.33 36.856 810.05 36.752C809.778 36.64 809.502 36.584 809.222 36.584V39.008C809.526 39.104 809.83 39.216 810.134 39.344C810.438 39.472 810.71 39.636 810.95 39.836C811.198 40.028 811.398 40.264 811.55 40.544C811.702 40.824 811.778 41.168 811.778 41.576C811.778 41.992 811.706 42.36 811.562 42.68C811.426 42.992 811.238 43.256 810.998 43.472C810.766 43.68 810.494 43.84 810.182 43.952C809.878 44.064 809.558 44.124 809.222 44.132V44.996H808.574V44.132C808.046 44.116 807.538 44.02 807.05 43.844C806.57 43.66 806.138 43.384 805.754 43.016L806.81 42.008C807.026 42.264 807.298 42.476 807.626 42.644C807.954 42.804 808.27 42.888 808.574 42.896V40.232C808.222 40.136 807.894 40.028 807.59 39.908C807.286 39.78 807.018 39.62 806.786 39.428C806.562 39.236 806.386 39.008 806.258 38.744C806.13 38.472 806.066 38.144 806.066 37.76C806.066 37.4 806.134 37.08 806.27 36.8C806.414 36.512 806.602 36.268 806.834 36.068C807.074 35.868 807.342 35.712 807.638 35.6C807.942 35.48 808.254 35.408 808.574 35.384V34.568H809.222V35.36ZM808.574 36.584C808.294 36.616 808.046 36.72 807.83 36.896C807.614 37.072 807.506 37.336 807.506 37.688C807.506 38.024 807.606 38.28 807.806 38.456C808.014 38.624 808.27 38.752 808.574 38.84V36.584ZM809.222 42.896C809.558 42.88 809.826 42.76 810.026 42.536C810.234 42.312 810.338 42.02 810.338 41.66C810.338 41.308 810.23 41.044 810.014 40.868C809.806 40.684 809.542 40.536 809.222 40.424V42.896ZM813.198 35.504H818.97V36.824L815.574 44H813.882L817.458 36.8H813.198V35.504ZM821.038 42.344H822.43L821.41 45.512H820.198L821.038 42.344ZM828.319 35.504L826.147 38.648L826.159 38.66C826.271 38.612 826.411 38.576 826.579 38.552C826.755 38.528 826.915 38.516 827.059 38.516C827.435 38.516 827.787 38.588 828.115 38.732C828.443 38.868 828.731 39.06 828.979 39.308C829.227 39.548 829.419 39.836 829.555 40.172C829.699 40.5 829.771 40.856 829.771 41.24C829.771 41.688 829.691 42.096 829.531 42.464C829.371 42.832 829.151 43.148 828.871 43.412C828.599 43.668 828.271 43.864 827.887 44C827.511 44.144 827.107 44.216 826.675 44.216C826.227 44.216 825.815 44.144 825.439 44C825.063 43.848 824.735 43.64 824.455 43.376C824.175 43.112 823.955 42.804 823.795 42.452C823.643 42.092 823.567 41.708 823.567 41.3C823.567 41.06 823.587 40.836 823.627 40.628C823.667 40.412 823.723 40.208 823.795 40.016C823.875 39.816 823.967 39.616 824.071 39.416C824.183 39.216 824.307 39.008 824.443 38.792L826.567 35.504H828.319ZM825.031 41.336C825.031 41.56 825.067 41.772 825.139 41.972C825.219 42.172 825.331 42.348 825.475 42.5C825.619 42.652 825.791 42.772 825.991 42.86C826.191 42.948 826.415 42.992 826.663 42.992C827.151 42.992 827.543 42.84 827.839 42.536C828.143 42.224 828.295 41.816 828.295 41.312C828.295 41.072 828.255 40.852 828.175 40.652C828.103 40.444 827.995 40.268 827.851 40.124C827.707 39.98 827.535 39.868 827.335 39.788C827.143 39.7 826.927 39.656 826.687 39.656C826.447 39.656 826.223 39.696 826.015 39.776C825.815 39.856 825.639 39.972 825.487 40.124C825.343 40.268 825.231 40.444 825.151 40.652C825.071 40.86 825.031 41.088 825.031 41.336ZM836.412 36.8H832.944L832.86 38.636C832.996 38.596 833.156 38.568 833.34 38.552C833.532 38.536 833.704 38.528 833.856 38.528C834.272 38.528 834.656 38.588 835.008 38.708C835.368 38.828 835.68 39.004 835.944 39.236C836.208 39.46 836.412 39.74 836.556 40.076C836.708 40.404 836.784 40.784 836.784 41.216C836.784 41.688 836.7 42.112 836.532 42.488C836.372 42.856 836.152 43.168 835.872 43.424C835.592 43.68 835.264 43.876 834.888 44.012C834.512 44.148 834.112 44.216 833.688 44.216C832.976 44.216 832.376 44.052 831.888 43.724C831.4 43.388 831.044 42.932 830.82 42.356L832.128 41.876C832.248 42.212 832.448 42.484 832.728 42.692C833.008 42.892 833.34 42.992 833.724 42.992C833.94 42.992 834.144 42.956 834.336 42.884C834.528 42.812 834.696 42.708 834.84 42.572C834.984 42.436 835.096 42.268 835.176 42.068C835.264 41.86 835.308 41.628 835.308 41.372C835.308 41.044 835.252 40.772 835.14 40.556C835.028 40.34 834.88 40.168 834.696 40.04C834.52 39.904 834.32 39.812 834.096 39.764C833.872 39.708 833.644 39.68 833.412 39.68C833.252 39.68 833.08 39.692 832.896 39.716C832.72 39.74 832.544 39.776 832.368 39.824C832.2 39.864 832.032 39.912 831.864 39.968C831.704 40.024 831.56 40.084 831.432 40.148L831.576 35.504H836.412V36.8ZM844.336 39.752C844.336 40.44 844.268 41.06 844.132 41.612C844.004 42.164 843.812 42.632 843.556 43.016C843.308 43.4 842.996 43.696 842.62 43.904C842.252 44.112 841.828 44.216 841.348 44.216C840.868 44.216 840.44 44.112 840.064 43.904C839.688 43.696 839.372 43.4 839.116 43.016C838.86 42.632 838.664 42.164 838.528 41.612C838.4 41.06 838.336 40.44 838.336 39.752C838.336 39.064 838.4 38.444 838.528 37.892C838.664 37.34 838.86 36.872 839.116 36.488C839.372 36.104 839.688 35.808 840.064 35.6C840.44 35.392 840.868 35.288 841.348 35.288C841.828 35.288 842.252 35.392 842.62 35.6C842.996 35.808 843.308 36.104 843.556 36.488C843.812 36.872 844.004 37.34 844.132 37.892C844.268 38.444 844.336 39.064 844.336 39.752ZM842.86 39.752C842.86 39.456 842.84 39.12 842.8 38.744C842.768 38.368 842.696 38.012 842.584 37.676C842.48 37.34 842.328 37.06 842.128 36.836C841.928 36.604 841.668 36.488 841.348 36.488C841.02 36.488 840.756 36.604 840.556 36.836C840.356 37.06 840.2 37.34 840.088 37.676C839.984 38.012 839.912 38.368 839.872 38.744C839.832 39.12 839.812 39.456 839.812 39.752C839.812 40.048 839.832 40.384 839.872 40.76C839.912 41.136 839.984 41.488 840.088 41.816C840.2 42.144 840.356 42.424 840.556 42.656C840.756 42.88 841.02 42.992 841.348 42.992C841.668 42.992 841.928 42.88 842.128 42.656C842.328 42.424 842.48 42.144 842.584 41.816C842.696 41.488 842.768 41.136 842.8 40.76C842.84 40.384 842.86 40.048 842.86 39.752Z" fill="#222222"/>
<path d="M729.222 35.36C729.662 35.368 730.106 35.444 730.554 35.588C731.002 35.724 731.39 35.932 731.718 36.212L730.746 37.22C730.562 37.012 730.33 36.856 730.05 36.752C729.778 36.64 729.502 36.584 729.222 36.584V39.008C729.526 39.104 729.83 39.216 730.134 39.344C730.438 39.472 730.71 39.636 730.95 39.836C731.198 40.028 731.398 40.264 731.55 40.544C731.702 40.824 731.778 41.168 731.778 41.576C731.778 41.992 731.706 42.36 731.562 42.68C731.426 42.992 731.238 43.256 730.998 43.472C730.766 43.68 730.494 43.84 730.182 43.952C729.878 44.064 729.558 44.124 729.222 44.132V44.996H728.574V44.132C728.046 44.116 727.538 44.02 727.05 43.844C726.57 43.66 726.138 43.384 725.754 43.016L726.81 42.008C727.026 42.264 727.298 42.476 727.626 42.644C727.954 42.804 728.27 42.888 728.574 42.896V40.232C728.222 40.136 727.894 40.028 727.59 39.908C727.286 39.78 727.018 39.62 726.786 39.428C726.562 39.236 726.386 39.008 726.258 38.744C726.13 38.472 726.066 38.144 726.066 37.76C726.066 37.4 726.134 37.08 726.27 36.8C726.414 36.512 726.602 36.268 726.834 36.068C727.074 35.868 727.342 35.712 727.638 35.6C727.942 35.48 728.254 35.408 728.574 35.384V34.568H729.222V35.36ZM728.574 36.584C728.294 36.616 728.046 36.72 727.83 36.896C727.614 37.072 727.506 37.336 727.506 37.688C727.506 38.024 727.606 38.28 727.806 38.456C728.014 38.624 728.27 38.752 728.574 38.84V36.584ZM729.222 42.896C729.558 42.88 729.826 42.76 730.026 42.536C730.234 42.312 730.338 42.02 730.338 41.66C730.338 41.308 730.23 41.044 730.014 40.868C729.806 40.684 729.542 40.536 729.222 40.424V42.896ZM736.246 35.288C736.614 35.288 736.962 35.34 737.29 35.444C737.618 35.548 737.902 35.7 738.142 35.9C738.39 36.1 738.582 36.344 738.718 36.632C738.862 36.912 738.934 37.232 738.934 37.592C738.934 38.088 738.81 38.5 738.562 38.828C738.314 39.156 737.998 39.384 737.614 39.512V39.536C737.838 39.592 738.046 39.684 738.238 39.812C738.43 39.932 738.598 40.084 738.742 40.268C738.886 40.444 738.998 40.644 739.078 40.868C739.166 41.092 739.21 41.336 739.21 41.6C739.21 42.024 739.13 42.4 738.97 42.728C738.818 43.048 738.606 43.32 738.334 43.544C738.07 43.768 737.758 43.936 737.398 44.048C737.038 44.16 736.654 44.216 736.246 44.216C735.838 44.216 735.454 44.16 735.094 44.048C734.734 43.936 734.418 43.768 734.146 43.544C733.882 43.32 733.67 43.048 733.51 42.728C733.358 42.4 733.282 42.024 733.282 41.6C733.282 41.328 733.326 41.076 733.414 40.844C733.502 40.612 733.618 40.408 733.762 40.232C733.914 40.056 734.086 39.912 734.278 39.8C734.47 39.68 734.67 39.592 734.878 39.536V39.512C734.494 39.376 734.178 39.156 733.93 38.852C733.682 38.548 733.558 38.148 733.558 37.652C733.558 37.292 733.626 36.968 733.762 36.68C733.906 36.384 734.098 36.136 734.338 35.936C734.586 35.728 734.87 35.568 735.19 35.456C735.518 35.344 735.87 35.288 736.246 35.288ZM736.246 36.476C735.886 36.476 735.59 36.584 735.358 36.8C735.134 37.016 735.022 37.308 735.022 37.676C735.022 38.02 735.13 38.312 735.346 38.552C735.57 38.792 735.87 38.912 736.246 38.912C736.414 38.912 736.574 38.88 736.726 38.816C736.878 38.752 737.01 38.664 737.122 38.552C737.234 38.44 737.322 38.308 737.386 38.156C737.45 38.004 737.482 37.844 737.482 37.676C737.482 37.492 737.446 37.328 737.374 37.184C737.31 37.032 737.218 36.904 737.098 36.8C736.986 36.696 736.854 36.616 736.702 36.56C736.558 36.504 736.406 36.476 736.246 36.476ZM736.246 40.136C736.038 40.136 735.842 40.172 735.658 40.244C735.482 40.316 735.326 40.416 735.19 40.544C735.062 40.664 734.958 40.816 734.878 41C734.806 41.176 734.77 41.372 734.77 41.588C734.77 42.036 734.91 42.384 735.19 42.632C735.47 42.88 735.822 43.004 736.246 43.004C736.662 43.004 737.01 42.88 737.29 42.632C737.57 42.384 737.71 42.036 737.71 41.588C737.71 41.38 737.67 41.188 737.59 41.012C737.518 40.828 737.414 40.672 737.278 40.544C737.15 40.416 736.994 40.316 736.81 40.244C736.634 40.172 736.446 40.136 736.246 40.136ZM741.038 42.344H742.43L741.41 45.512H740.198L741.038 42.344ZM749.687 39.752C749.687 40.44 749.619 41.06 749.483 41.612C749.355 42.164 749.163 42.632 748.907 43.016C748.659 43.4 748.347 43.696 747.971 43.904C747.603 44.112 747.179 44.216 746.699 44.216C746.219 44.216 745.791 44.112 745.415 43.904C745.039 43.696 744.723 43.4 744.467 43.016C744.211 42.632 744.015 42.164 743.879 41.612C743.751 41.06 743.687 40.44 743.687 39.752C743.687 39.064 743.751 38.444 743.879 37.892C744.015 37.34 744.211 36.872 744.467 36.488C744.723 36.104 745.039 35.808 745.415 35.6C745.791 35.392 746.219 35.288 746.699 35.288C747.179 35.288 747.603 35.392 747.971 35.6C748.347 35.808 748.659 36.104 748.907 36.488C749.163 36.872 749.355 37.34 749.483 37.892C749.619 38.444 749.687 39.064 749.687 39.752ZM748.211 39.752C748.211 39.456 748.191 39.12 748.151 38.744C748.119 38.368 748.047 38.012 747.935 37.676C747.831 37.34 747.679 37.06 747.479 36.836C747.279 36.604 747.019 36.488 746.699 36.488C746.371 36.488 746.107 36.604 745.907 36.836C745.707 37.06 745.551 37.34 745.439 37.676C745.335 38.012 745.263 38.368 745.223 38.744C745.183 39.12 745.163 39.456 745.163 39.752C745.163 40.048 745.183 40.384 745.223 40.76C745.263 41.136 745.335 41.488 745.439 41.816C745.551 42.144 745.707 42.424 745.907 42.656C746.107 42.88 746.371 42.992 746.699 42.992C747.019 42.992 747.279 42.88 747.479 42.656C747.679 42.424 747.831 42.144 747.935 41.816C748.047 41.488 748.119 41.136 748.151 40.76C748.191 40.384 748.211 40.048 748.211 39.752ZM752.896 38.996H753.28C753.496 38.996 753.708 38.98 753.916 38.948C754.132 38.908 754.328 38.84 754.504 38.744C754.68 38.648 754.82 38.52 754.924 38.36C755.036 38.192 755.092 37.976 755.092 37.712C755.092 37.52 755.056 37.348 754.984 37.196C754.912 37.044 754.812 36.916 754.684 36.812C754.564 36.708 754.42 36.628 754.252 36.572C754.092 36.516 753.924 36.488 753.748 36.488C753.396 36.488 753.104 36.588 752.872 36.788C752.64 36.988 752.48 37.252 752.392 37.58L751.036 37.232C751.108 36.944 751.228 36.684 751.396 36.452C751.572 36.212 751.78 36.008 752.02 35.84C752.268 35.664 752.544 35.528 752.848 35.432C753.152 35.336 753.472 35.288 753.808 35.288C754.176 35.288 754.524 35.34 754.852 35.444C755.188 35.54 755.48 35.688 755.728 35.888C755.984 36.08 756.184 36.32 756.328 36.608C756.472 36.896 756.544 37.232 756.544 37.616C756.544 38.072 756.404 38.48 756.124 38.84C755.852 39.192 755.484 39.424 755.02 39.536V39.56C755.54 39.664 755.96 39.9 756.28 40.268C756.608 40.628 756.772 41.072 756.772 41.6C756.772 42.04 756.684 42.424 756.508 42.752C756.34 43.08 756.112 43.352 755.824 43.568C755.544 43.784 755.228 43.944 754.876 44.048C754.524 44.16 754.168 44.216 753.808 44.216C753.448 44.216 753.108 44.176 752.788 44.096C752.468 44.024 752.172 43.908 751.9 43.748C751.636 43.588 751.4 43.38 751.192 43.124C750.992 42.868 750.836 42.564 750.724 42.212L752.068 41.792C752.172 42.128 752.364 42.412 752.644 42.644C752.932 42.876 753.304 42.992 753.76 42.992C753.944 42.992 754.128 42.968 754.312 42.92C754.504 42.864 754.672 42.78 754.816 42.668C754.968 42.556 755.088 42.412 755.176 42.236C755.272 42.06 755.32 41.844 755.32 41.588C755.32 41.316 755.252 41.088 755.116 40.904C754.988 40.712 754.824 40.564 754.624 40.46C754.424 40.348 754.2 40.268 753.952 40.22C753.712 40.172 753.48 40.148 753.256 40.148H752.896V38.996ZM761.336 35.288C761.704 35.288 762.052 35.34 762.38 35.444C762.708 35.548 762.992 35.7 763.232 35.9C763.48 36.1 763.672 36.344 763.808 36.632C763.952 36.912 764.024 37.232 764.024 37.592C764.024 38.088 763.9 38.5 763.652 38.828C763.404 39.156 763.088 39.384 762.704 39.512V39.536C762.928 39.592 763.136 39.684 763.328 39.812C763.52 39.932 763.688 40.084 763.832 40.268C763.976 40.444 764.088 40.644 764.168 40.868C764.256 41.092 764.3 41.336 764.3 41.6C764.3 42.024 764.22 42.4 764.06 42.728C763.908 43.048 763.696 43.32 763.424 43.544C763.16 43.768 762.848 43.936 762.488 44.048C762.128 44.16 761.744 44.216 761.336 44.216C760.928 44.216 760.544 44.16 760.184 44.048C759.824 43.936 759.508 43.768 759.236 43.544C758.972 43.32 758.76 43.048 758.6 42.728C758.448 42.4 758.372 42.024 758.372 41.6C758.372 41.328 758.416 41.076 758.504 40.844C758.592 40.612 758.708 40.408 758.852 40.232C759.004 40.056 759.176 39.912 759.368 39.8C759.56 39.68 759.76 39.592 759.968 39.536V39.512C759.584 39.376 759.268 39.156 759.02 38.852C758.772 38.548 758.648 38.148 758.648 37.652C758.648 37.292 758.716 36.968 758.852 36.68C758.996 36.384 759.188 36.136 759.428 35.936C759.676 35.728 759.96 35.568 760.28 35.456C760.608 35.344 760.96 35.288 761.336 35.288ZM761.336 36.476C760.976 36.476 760.68 36.584 760.448 36.8C760.224 37.016 760.112 37.308 760.112 37.676C760.112 38.02 760.22 38.312 760.436 38.552C760.66 38.792 760.96 38.912 761.336 38.912C761.504 38.912 761.664 38.88 761.816 38.816C761.968 38.752 762.1 38.664 762.212 38.552C762.324 38.44 762.412 38.308 762.476 38.156C762.54 38.004 762.572 37.844 762.572 37.676C762.572 37.492 762.536 37.328 762.464 37.184C762.4 37.032 762.308 36.904 762.188 36.8C762.076 36.696 761.944 36.616 761.792 36.56C761.648 36.504 761.496 36.476 761.336 36.476ZM761.336 40.136C761.128 40.136 760.932 40.172 760.748 40.244C760.572 40.316 760.416 40.416 760.28 40.544C760.152 40.664 760.048 40.816 759.968 41C759.896 41.176 759.86 41.372 759.86 41.588C759.86 42.036 760 42.384 760.28 42.632C760.56 42.88 760.912 43.004 761.336 43.004C761.752 43.004 762.1 42.88 762.38 42.632C762.66 42.384 762.8 42.036 762.8 41.588C762.8 41.38 762.76 41.188 762.68 41.012C762.608 40.828 762.504 40.672 762.368 40.544C762.24 40.416 762.084 40.316 761.9 40.244C761.724 40.172 761.536 40.136 761.336 40.136Z" fill="#222222"/>
<path d="M725.262 41H764.996V41.6H725.262V41Z" fill="#222222"/>
<path d="M897.7 37.256L896.02 38.636L895.18 37.64L897.832 35.504H899.14V44H897.7V37.256ZM904.22 38.996H904.604C904.82 38.996 905.032 38.98 905.24 38.948C905.456 38.908 905.652 38.84 905.828 38.744C906.004 38.648 906.144 38.52 906.248 38.36C906.36 38.192 906.416 37.976 906.416 37.712C906.416 37.52 906.38 37.348 906.308 37.196C906.236 37.044 906.136 36.916 906.008 36.812C905.888 36.708 905.744 36.628 905.576 36.572C905.416 36.516 905.248 36.488 905.072 36.488C904.72 36.488 904.428 36.588 904.196 36.788C903.964 36.988 903.804 37.252 903.716 37.58L902.36 37.232C902.432 36.944 902.552 36.684 902.72 36.452C902.896 36.212 903.104 36.008 903.344 35.84C903.592 35.664 903.868 35.528 904.172 35.432C904.476 35.336 904.796 35.288 905.132 35.288C905.5 35.288 905.848 35.34 906.176 35.444C906.512 35.54 906.804 35.688 907.052 35.888C907.308 36.08 907.508 36.32 907.652 36.608C907.796 36.896 907.868 37.232 907.868 37.616C907.868 38.072 907.728 38.48 907.448 38.84C907.176 39.192 906.808 39.424 906.344 39.536V39.56C906.864 39.664 907.284 39.9 907.604 40.268C907.932 40.628 908.096 41.072 908.096 41.6C908.096 42.04 908.008 42.424 907.832 42.752C907.664 43.08 907.436 43.352 907.148 43.568C906.868 43.784 906.552 43.944 906.2 44.048C905.848 44.16 905.492 44.216 905.132 44.216C904.772 44.216 904.432 44.176 904.112 44.096C903.792 44.024 903.496 43.908 903.224 43.748C902.96 43.588 902.724 43.38 902.516 43.124C902.316 42.868 902.16 42.564 902.048 42.212L903.392 41.792C903.496 42.128 903.688 42.412 903.968 42.644C904.256 42.876 904.628 42.992 905.084 42.992C905.268 42.992 905.452 42.968 905.636 42.92C905.828 42.864 905.996 42.78 906.14 42.668C906.292 42.556 906.412 42.412 906.5 42.236C906.596 42.06 906.644 41.844 906.644 41.588C906.644 41.316 906.576 41.088 906.44 40.904C906.312 40.712 906.148 40.564 905.948 40.46C905.748 40.348 905.524 40.268 905.276 40.22C905.036 40.172 904.804 40.148 904.58 40.148H904.22V38.996Z" fill="#222222"/>
<path d="M953.222 35.36C953.662 35.368 954.106 35.444 954.554 35.588C955.002 35.724 955.39 35.932 955.718 36.212L954.746 37.22C954.562 37.012 954.33 36.856 954.05 36.752C953.778 36.64 953.502 36.584 953.222 36.584V39.008C953.526 39.104 953.83 39.216 954.134 39.344C954.438 39.472 954.71 39.636 954.95 39.836C955.198 40.028 955.398 40.264 955.55 40.544C955.702 40.824 955.778 41.168 955.778 41.576C955.778 41.992 955.706 42.36 955.562 42.68C955.426 42.992 955.238 43.256 954.998 43.472C954.766 43.68 954.494 43.84 954.182 43.952C953.878 44.064 953.558 44.124 953.222 44.132V44.996H952.574V44.132C952.046 44.116 951.538 44.02 951.05 43.844C950.57 43.66 950.138 43.384 949.754 43.016L950.81 42.008C951.026 42.264 951.298 42.476 951.626 42.644C951.954 42.804 952.27 42.888 952.574 42.896V40.232C952.222 40.136 951.894 40.028 951.59 39.908C951.286 39.78 951.018 39.62 950.786 39.428C950.562 39.236 950.386 39.008 950.258 38.744C950.13 38.472 950.066 38.144 950.066 37.76C950.066 37.4 950.134 37.08 950.27 36.8C950.414 36.512 950.602 36.268 950.834 36.068C951.074 35.868 951.342 35.712 951.638 35.6C951.942 35.48 952.254 35.408 952.574 35.384V34.568H953.222V35.36ZM952.574 36.584C952.294 36.616 952.046 36.72 951.83 36.896C951.614 37.072 951.506 37.336 951.506 37.688C951.506 38.024 951.606 38.28 951.806 38.456C952.014 38.624 952.27 38.752 952.574 38.84V36.584ZM953.222 42.896C953.558 42.88 953.826 42.76 954.026 42.536C954.234 42.312 954.338 42.02 954.338 41.66C954.338 41.308 954.23 41.044 954.014 40.868C953.806 40.684 953.542 40.536 953.222 40.424V42.896ZM960.246 35.288C960.614 35.288 960.962 35.34 961.29 35.444C961.618 35.548 961.902 35.7 962.142 35.9C962.39 36.1 962.582 36.344 962.718 36.632C962.862 36.912 962.934 37.232 962.934 37.592C962.934 38.088 962.81 38.5 962.562 38.828C962.314 39.156 961.998 39.384 961.614 39.512V39.536C961.838 39.592 962.046 39.684 962.238 39.812C962.43 39.932 962.598 40.084 962.742 40.268C962.886 40.444 962.998 40.644 963.078 40.868C963.166 41.092 963.21 41.336 963.21 41.6C963.21 42.024 963.13 42.4 962.97 42.728C962.818 43.048 962.606 43.32 962.334 43.544C962.07 43.768 961.758 43.936 961.398 44.048C961.038 44.16 960.654 44.216 960.246 44.216C959.838 44.216 959.454 44.16 959.094 44.048C958.734 43.936 958.418 43.768 958.146 43.544C957.882 43.32 957.67 43.048 957.51 42.728C957.358 42.4 957.282 42.024 957.282 41.6C957.282 41.328 957.326 41.076 957.414 40.844C957.502 40.612 957.618 40.408 957.762 40.232C957.914 40.056 958.086 39.912 958.278 39.8C958.47 39.68 958.67 39.592 958.878 39.536V39.512C958.494 39.376 958.178 39.156 957.93 38.852C957.682 38.548 957.558 38.148 957.558 37.652C957.558 37.292 957.626 36.968 957.762 36.68C957.906 36.384 958.098 36.136 958.338 35.936C958.586 35.728 958.87 35.568 959.19 35.456C959.518 35.344 959.87 35.288 960.246 35.288ZM960.246 36.476C959.886 36.476 959.59 36.584 959.358 36.8C959.134 37.016 959.022 37.308 959.022 37.676C959.022 38.02 959.13 38.312 959.346 38.552C959.57 38.792 959.87 38.912 960.246 38.912C960.414 38.912 960.574 38.88 960.726 38.816C960.878 38.752 961.01 38.664 961.122 38.552C961.234 38.44 961.322 38.308 961.386 38.156C961.45 38.004 961.482 37.844 961.482 37.676C961.482 37.492 961.446 37.328 961.374 37.184C961.31 37.032 961.218 36.904 961.098 36.8C960.986 36.696 960.854 36.616 960.702 36.56C960.558 36.504 960.406 36.476 960.246 36.476ZM960.246 40.136C960.038 40.136 959.842 40.172 959.658 40.244C959.482 40.316 959.326 40.416 959.19 40.544C959.062 40.664 958.958 40.816 958.878 41C958.806 41.176 958.77 41.372 958.77 41.588C958.77 42.036 958.91 42.384 959.19 42.632C959.47 42.88 959.822 43.004 960.246 43.004C960.662 43.004 961.01 42.88 961.29 42.632C961.57 42.384 961.71 42.036 961.71 41.588C961.71 41.38 961.67 41.188 961.59 41.012C961.518 40.828 961.414 40.672 961.278 40.544C961.15 40.416 960.994 40.316 960.81 40.244C960.634 40.172 960.446 40.136 960.246 40.136ZM965.038 42.344H966.43L965.41 45.512H964.198L965.038 42.344ZM967.639 35.504H973.411V36.824L970.015 44H968.323L971.899 36.8H967.639V35.504ZM981.012 39.752C981.012 40.44 980.944 41.06 980.808 41.612C980.68 42.164 980.488 42.632 980.232 43.016C979.984 43.4 979.672 43.696 979.296 43.904C978.928 44.112 978.504 44.216 978.024 44.216C977.544 44.216 977.116 44.112 976.74 43.904C976.364 43.696 976.048 43.4 975.792 43.016C975.536 42.632 975.34 42.164 975.204 41.612C975.076 41.06 975.012 40.44 975.012 39.752C975.012 39.064 975.076 38.444 975.204 37.892C975.34 37.34 975.536 36.872 975.792 36.488C976.048 36.104 976.364 35.808 976.74 35.6C977.116 35.392 977.544 35.288 978.024 35.288C978.504 35.288 978.928 35.392 979.296 35.6C979.672 35.808 979.984 36.104 980.232 36.488C980.488 36.872 980.68 37.34 980.808 37.892C980.944 38.444 981.012 39.064 981.012 39.752ZM979.536 39.752C979.536 39.456 979.516 39.12 979.476 38.744C979.444 38.368 979.372 38.012 979.26 37.676C979.156 37.34 979.004 37.06 978.804 36.836C978.604 36.604 978.344 36.488 978.024 36.488C977.696 36.488 977.432 36.604 977.232 36.836C977.032 37.06 976.876 37.34 976.764 37.676C976.66 38.012 976.588 38.368 976.548 38.744C976.508 39.12 976.488 39.456 976.488 39.752C976.488 40.048 976.508 40.384 976.548 40.76C976.588 41.136 976.66 41.488 976.764 41.816C976.876 42.144 977.032 42.424 977.232 42.656C977.432 42.88 977.696 42.992 978.024 42.992C978.344 42.992 978.604 42.88 978.804 42.656C979.004 42.424 979.156 42.144 979.26 41.816C979.372 41.488 979.444 41.136 979.476 40.76C979.516 40.384 979.536 40.048 979.536 39.752ZM988.336 39.752C988.336 40.44 988.268 41.06 988.132 41.612C988.004 42.164 987.812 42.632 987.556 43.016C987.308 43.4 986.996 43.696 986.62 43.904C986.252 44.112 985.828 44.216 985.348 44.216C984.868 44.216 984.44 44.112 984.064 43.904C983.688 43.696 983.372 43.4 983.116 43.016C982.86 42.632 982.664 42.164 982.528 41.612C982.4 41.06 982.336 40.44 982.336 39.752C982.336 39.064 982.4 38.444 982.528 37.892C982.664 37.34 982.86 36.872 983.116 36.488C983.372 36.104 983.688 35.808 984.064 35.6C984.44 35.392 984.868 35.288 985.348 35.288C985.828 35.288 986.252 35.392 986.62 35.6C986.996 35.808 987.308 36.104 987.556 36.488C987.812 36.872 988.004 37.34 988.132 37.892C988.268 38.444 988.336 39.064 988.336 39.752ZM986.86 39.752C986.86 39.456 986.84 39.12 986.8 38.744C986.768 38.368 986.696 38.012 986.584 37.676C986.48 37.34 986.328 37.06 986.128 36.836C985.928 36.604 985.668 36.488 985.348 36.488C985.02 36.488 984.756 36.604 984.556 36.836C984.356 37.06 984.2 37.34 984.088 37.676C983.984 38.012 983.912 38.368 983.872 38.744C983.832 39.12 983.812 39.456 983.812 39.752C983.812 40.048 983.832 40.384 983.872 40.76C983.912 41.136 983.984 41.488 984.088 41.816C984.2 42.144 984.356 42.424 984.556 42.656C984.756 42.88 985.02 42.992 985.348 42.992C985.668 42.992 985.928 42.88 986.128 42.656C986.328 42.424 986.48 42.144 986.584 41.816C986.696 41.488 986.768 41.136 986.8 40.76C986.84 40.384 986.86 40.048 986.86 39.752Z" fill="#222222"/>
<path d="M18.652 36.824H16.048V35.504H22.768V36.824H20.164V44H18.652V36.824ZM22.985 39.728C22.985 39.048 23.097 38.436 23.321 37.892C23.553 37.34 23.869 36.872 24.269 36.488C24.677 36.104 25.157 35.808 25.709 35.6C26.269 35.392 26.877 35.288 27.533 35.288C28.197 35.288 28.809 35.392 29.369 35.6C29.929 35.808 30.413 36.104 30.821 36.488C31.229 36.872 31.545 37.34 31.769 37.892C32.001 38.436 32.117 39.048 32.117 39.728C32.117 40.392 32.001 41 31.769 41.552C31.545 42.096 31.229 42.568 30.821 42.968C30.413 43.36 29.929 43.668 29.369 43.892C28.809 44.108 28.197 44.216 27.533 44.216C26.877 44.216 26.269 44.108 25.709 43.892C25.157 43.668 24.677 43.36 24.269 42.968C23.869 42.568 23.553 42.096 23.321 41.552C23.097 41 22.985 40.392 22.985 39.728ZM24.629 39.728C24.629 40.184 24.697 40.604 24.833 40.988C24.977 41.364 25.177 41.692 25.433 41.972C25.697 42.252 26.005 42.472 26.357 42.632C26.717 42.784 27.113 42.86 27.545 42.86C27.977 42.86 28.373 42.784 28.733 42.632C29.093 42.472 29.401 42.252 29.657 41.972C29.921 41.692 30.121 41.364 30.257 40.988C30.401 40.604 30.473 40.184 30.473 39.728C30.473 39.288 30.401 38.88 30.257 38.504C30.121 38.128 29.925 37.8 29.669 37.52C29.413 37.24 29.105 37.02 28.745 36.86C28.385 36.7 27.985 36.62 27.545 36.62C27.105 36.62 26.705 36.7 26.345 36.86C25.993 37.02 25.689 37.24 25.433 37.52C25.177 37.8 24.977 38.128 24.833 38.504C24.697 38.88 24.629 39.288 24.629 39.728ZM34.9293 36.824H32.3253V35.504H39.0453V36.824H36.4413V44H34.9293V36.824ZM41.9828 35.504H43.2908L46.9508 44H45.2228L44.4308 42.056H40.7468L39.9788 44H38.2868L41.9828 35.504ZM43.9028 40.76L42.5948 37.304L41.2628 40.76H43.9028ZM47.7915 35.504H49.3035V42.656H52.9155V44H47.7915V35.504Z" fill="#222222"/>
<path fill-rule="evenodd" clip-rule="evenodd" d="M0 80H16V140H0V80Z" fill="#A8A18F"/>
<path d="M16.5 80.5H52.5V139.5H16.5V80.5Z" fill="#DCDFD8" stroke="#A8A18F"/>
<path fill-rule="evenodd" clip-rule="evenodd" d="M53 80H170V140H53V80Z" fill="#A8A18F"/>
<path fill-rule="evenodd" clip-rule="evenodd" d="M170 80H182V140H170V80Z" fill="#A8A18F"/>
<path fill-rule="evenodd" clip-rule="evenodd" d="M182 80H314V140H182V80Z" fill="#A8A18F"/>
<path fill-rule="evenodd" clip-rule="evenodd" d="M314 80H322V140H314V80Z" fill="#A8A18F"/>
<path fill-rule="evenodd" clip-rule="evenodd" d="M322 80H569V140H322V80Z" fill="#A8A18F"/>
<path fill-rule="evenodd" clip-rule="evenodd" d="M569 80H586V140H569V80Z" fill="#A8A18F"/>
<path fill-rule="evenodd" clip-rule="evenodd" d="M586 80H685V140H586V80Z" fill="#A8A18F"/>
<path d="M685.5 80.5H764.5V139.5H685.5V80.5Z" fill="#DCDFD8" stroke="#A8A18F"/>
<path d="M765.5 80.5H844.5V139.5H765.5V80.5Z" fill="#DCDFD8" stroke="#A8A18F"/>
<path d="M845.5 80.5H908.5V139.5H845.5V80.5Z" fill="#DCDFD8" stroke="#A8A18F"/>
<path d="M909.5 80.5H988.5V139.5H909.5V80.5Z" fill="#DCDFD8" stroke="#A8A18F"/>
<path d="M989.5 80.5H1068.5V139.5H989.5V80.5Z" fill="#DCDFD8" stroke="#A8A18F"/>
<path fill-rule="evenodd" clip-rule="evenodd" d="M1069 80H1172V140H1069V80Z" fill="#A8A18F"/>
<path fill-rule="evenodd" clip-rule="evenodd" d="M1172 80H1252V140H1172V80Z" fill="#A8A18F"/>
<path fill-rule="evenodd" clip-rule="evenodd" d="M1252 80H1268V140H1252V80Z" fill="#A8A18F"/>
</svg>
