<svg width="1269" height="140" viewBox="0 0 1269 140" fill="none" xmlns="http://www.w3.org/2000/svg">
<mask id="path-1-inside-1_308_15602" fill="white">
<path d="M0 0H1268V80H0V0Z"/>
</mask>
<path d="M0 0H1268V80H0V0Z" fill="white"/>
<path d="M1268 79H0V81H1268V79Z" fill="#D9D9D9" mask="url(#path-1-inside-1_308_15602)"/>
<path d="M795.468 22.064C794.636 22.096 793.932 22.392 793.356 22.952C792.78 23.496 792.492 24.224 792.492 25.136C792.492 26 792.764 26.68 793.308 27.176C793.852 27.656 794.572 28.016 795.468 28.256V22.064ZM796.62 36.896C796.972 36.88 797.332 36.816 797.7 36.704C798.084 36.576 798.428 36.384 798.732 36.128C799.036 35.872 799.284 35.544 799.476 35.144C799.668 34.728 799.764 34.224 799.764 33.632C799.764 32.816 799.468 32.128 798.876 31.568C798.284 31.008 797.532 30.584 796.62 30.296V36.896ZM795.468 30.008C794.924 29.848 794.372 29.648 793.812 29.408C793.268 29.168 792.772 28.864 792.324 28.496C791.892 28.128 791.532 27.688 791.244 27.176C790.972 26.648 790.836 26.016 790.836 25.28C790.836 24.592 790.956 23.976 791.196 23.432C791.452 22.872 791.788 22.4 792.204 22.016C792.636 21.616 793.132 21.312 793.692 21.104C794.252 20.88 794.844 20.752 795.468 20.72V18.992H796.62V20.72C797.004 20.736 797.396 20.784 797.796 20.864C798.212 20.944 798.612 21.064 798.996 21.224C799.396 21.384 799.772 21.584 800.124 21.824C800.476 22.064 800.788 22.344 801.06 22.664L799.74 23.672C799.372 23.144 798.9 22.752 798.324 22.496C797.764 22.224 797.196 22.08 796.62 22.064V28.664C797.228 28.872 797.82 29.112 798.396 29.384C798.988 29.64 799.508 29.968 799.956 30.368C800.42 30.752 800.788 31.216 801.06 31.76C801.348 32.304 801.492 32.968 801.492 33.752C801.492 34.424 801.364 35.04 801.108 35.6C800.868 36.144 800.524 36.616 800.076 37.016C799.644 37.4 799.132 37.704 798.54 37.928C797.948 38.152 797.308 38.272 796.62 38.288V40.016H795.468V38.288C794.38 38.256 793.404 38.008 792.54 37.544C791.692 37.08 790.98 36.48 790.404 35.744L791.772 34.784C791.98 35.152 792.244 35.464 792.564 35.72C792.884 35.976 793.212 36.192 793.548 36.368C793.9 36.544 794.244 36.68 794.58 36.776C794.916 36.856 795.212 36.896 795.468 36.896V30.008ZM812.27 29C813.198 29.272 813.966 29.808 814.574 30.608C815.182 31.408 815.486 32.384 815.486 33.536C815.486 34.288 815.334 34.968 815.03 35.576C814.742 36.168 814.35 36.68 813.854 37.112C813.358 37.528 812.774 37.848 812.102 38.072C811.446 38.312 810.758 38.432 810.038 38.432C809.318 38.432 808.622 38.312 807.95 38.072C807.294 37.848 806.718 37.528 806.222 37.112C805.726 36.68 805.326 36.168 805.022 35.576C804.734 34.968 804.59 34.288 804.59 33.536C804.59 32.96 804.67 32.432 804.83 31.952C804.99 31.456 805.214 31.016 805.502 30.632C805.79 30.232 806.126 29.896 806.51 29.624C806.91 29.352 807.342 29.144 807.806 29V28.952C807.422 28.824 807.07 28.64 806.75 28.4C806.446 28.144 806.182 27.848 805.958 27.512C805.734 27.16 805.558 26.784 805.43 26.384C805.302 25.968 805.238 25.544 805.238 25.112C805.238 24.424 805.366 23.8 805.622 23.24C805.878 22.68 806.222 22.208 806.654 21.824C807.102 21.424 807.614 21.12 808.19 20.912C808.766 20.688 809.382 20.576 810.038 20.576C810.678 20.576 811.286 20.688 811.862 20.912C812.454 21.12 812.966 21.424 813.398 21.824C813.846 22.208 814.198 22.68 814.454 23.24C814.71 23.8 814.838 24.424 814.838 25.112C814.838 25.544 814.774 25.968 814.646 26.384C814.518 26.784 814.342 27.16 814.118 27.512C813.894 27.848 813.622 28.144 813.302 28.4C812.998 28.64 812.654 28.824 812.27 28.952V29ZM806.918 25.208C806.918 25.656 806.998 26.064 807.158 26.432C807.318 26.8 807.542 27.12 807.83 27.392C808.118 27.664 808.446 27.88 808.814 28.04C809.198 28.184 809.606 28.256 810.038 28.256C810.47 28.256 810.87 28.184 811.238 28.04C811.622 27.88 811.958 27.664 812.246 27.392C812.534 27.12 812.758 26.8 812.918 26.432C813.078 26.064 813.158 25.656 813.158 25.208C813.158 24.76 813.078 24.344 812.918 23.96C812.758 23.56 812.534 23.224 812.246 22.952C811.974 22.664 811.646 22.44 811.262 22.28C810.894 22.12 810.486 22.04 810.038 22.04C809.59 22.04 809.174 22.12 808.79 22.28C808.422 22.44 808.094 22.664 807.806 22.952C807.534 23.224 807.318 23.56 807.158 23.96C806.998 24.344 806.918 24.76 806.918 25.208ZM806.318 33.344C806.318 33.856 806.406 34.336 806.582 34.784C806.758 35.232 807.006 35.616 807.326 35.936C807.662 36.256 808.054 36.512 808.502 36.704C808.966 36.88 809.478 36.968 810.038 36.968C810.598 36.968 811.102 36.88 811.55 36.704C812.014 36.512 812.406 36.256 812.726 35.936C813.062 35.616 813.318 35.232 813.494 34.784C813.67 34.336 813.758 33.856 813.758 33.344C813.758 32.832 813.67 32.36 813.494 31.928C813.318 31.496 813.062 31.12 812.726 30.8C812.406 30.48 812.014 30.232 811.55 30.056C811.102 29.88 810.598 29.792 810.038 29.792C809.478 29.792 808.966 29.88 808.502 30.056C808.054 30.232 807.662 30.48 807.326 30.8C807.006 31.12 806.758 31.496 806.582 31.928C806.406 32.36 806.318 32.832 806.318 33.344ZM819.448 41.36H818.08L819.688 35.72H821.392L819.448 41.36ZM830.194 20.576C831.25 20.576 832.13 20.84 832.834 21.368C833.554 21.88 834.13 22.56 834.562 23.408C834.994 24.24 835.298 25.192 835.474 26.264C835.666 27.336 835.762 28.424 835.762 29.528C835.762 30.632 835.666 31.72 835.474 32.792C835.298 33.848 834.994 34.8 834.562 35.648C834.13 36.48 833.554 37.152 832.834 37.664C832.13 38.176 831.25 38.432 830.194 38.432C829.122 38.432 828.226 38.176 827.506 37.664C826.802 37.152 826.234 36.48 825.802 35.648C825.37 34.8 825.066 33.848 824.89 32.792C824.714 31.72 824.626 30.632 824.626 29.528C824.626 28.424 824.714 27.336 824.89 26.264C825.066 25.192 825.37 24.24 825.802 23.408C826.234 22.56 826.802 21.88 827.506 21.368C828.226 20.84 829.122 20.576 830.194 20.576ZM830.194 22.04C829.442 22.04 828.818 22.272 828.322 22.736C827.826 23.2 827.434 23.792 827.146 24.512C826.858 25.232 826.658 26.04 826.546 26.936C826.434 27.816 826.378 28.68 826.378 29.528C826.378 30.376 826.434 31.24 826.546 32.12C826.658 33 826.858 33.8 827.146 34.52C827.434 35.224 827.826 35.808 828.322 36.272C828.818 36.72 829.442 36.944 830.194 36.944C830.93 36.944 831.546 36.72 832.042 36.272C832.538 35.808 832.93 35.224 833.218 34.52C833.506 33.8 833.706 33 833.818 32.12C833.946 31.24 834.01 30.376 834.01 29.528C834.01 28.68 833.946 27.816 833.818 26.936C833.706 26.04 833.506 25.232 833.218 24.512C832.93 23.792 832.538 23.2 832.042 22.736C831.546 22.272 830.93 22.04 830.194 22.04ZM842.292 28.352H843.036C843.58 28.352 844.092 28.296 844.572 28.184C845.052 28.072 845.468 27.896 845.82 27.656C846.188 27.4 846.476 27.072 846.684 26.672C846.892 26.272 846.996 25.792 846.996 25.232C846.996 24.752 846.908 24.32 846.732 23.936C846.556 23.536 846.308 23.2 845.988 22.928C845.684 22.64 845.324 22.424 844.908 22.28C844.508 22.12 844.084 22.04 843.636 22.04C842.916 22.04 842.276 22.208 841.716 22.544C841.172 22.88 840.732 23.376 840.396 24.032L838.932 23.264C839.46 22.352 840.132 21.68 840.948 21.248C841.764 20.8 842.692 20.576 843.732 20.576C844.404 20.576 845.036 20.68 845.628 20.888C846.236 21.08 846.764 21.368 847.212 21.752C847.676 22.136 848.036 22.616 848.292 23.192C848.564 23.752 848.7 24.4 848.7 25.136C848.7 26.144 848.42 26.992 847.86 27.68C847.3 28.352 846.596 28.8 845.748 29.024V29.072C846.724 29.28 847.54 29.752 848.196 30.488C848.852 31.208 849.18 32.144 849.18 33.296C849.18 34.112 849.028 34.84 848.724 35.48C848.436 36.104 848.044 36.64 847.548 37.088C847.052 37.52 846.468 37.848 845.796 38.072C845.14 38.312 844.444 38.432 843.708 38.432C842.46 38.432 841.372 38.136 840.444 37.544C839.516 36.936 838.812 36.072 838.332 34.952L839.964 34.352C840.252 35.168 840.732 35.808 841.404 36.272C842.076 36.72 842.844 36.944 843.708 36.944C844.188 36.944 844.652 36.864 845.1 36.704C845.564 36.528 845.964 36.288 846.3 35.984C846.652 35.664 846.932 35.28 847.14 34.832C847.348 34.384 847.452 33.872 847.452 33.296C847.452 32.656 847.324 32.12 847.068 31.688C846.828 31.24 846.5 30.88 846.084 30.608C845.668 30.336 845.196 30.144 844.668 30.032C844.14 29.904 843.596 29.84 843.036 29.84H842.292V28.352ZM860.27 29C861.198 29.272 861.966 29.808 862.574 30.608C863.182 31.408 863.486 32.384 863.486 33.536C863.486 34.288 863.334 34.968 863.03 35.576C862.742 36.168 862.35 36.68 861.854 37.112C861.358 37.528 860.774 37.848 860.102 38.072C859.446 38.312 858.758 38.432 858.038 38.432C857.318 38.432 856.622 38.312 855.95 38.072C855.294 37.848 854.718 37.528 854.222 37.112C853.726 36.68 853.326 36.168 853.022 35.576C852.734 34.968 852.59 34.288 852.59 33.536C852.59 32.96 852.67 32.432 852.83 31.952C852.99 31.456 853.214 31.016 853.502 30.632C853.79 30.232 854.126 29.896 854.51 29.624C854.91 29.352 855.342 29.144 855.806 29V28.952C855.422 28.824 855.07 28.64 854.75 28.4C854.446 28.144 854.182 27.848 853.958 27.512C853.734 27.16 853.558 26.784 853.43 26.384C853.302 25.968 853.238 25.544 853.238 25.112C853.238 24.424 853.366 23.8 853.622 23.24C853.878 22.68 854.222 22.208 854.654 21.824C855.102 21.424 855.614 21.12 856.19 20.912C856.766 20.688 857.382 20.576 858.038 20.576C858.678 20.576 859.286 20.688 859.862 20.912C860.454 21.12 860.966 21.424 861.398 21.824C861.846 22.208 862.198 22.68 862.454 23.24C862.71 23.8 862.838 24.424 862.838 25.112C862.838 25.544 862.774 25.968 862.646 26.384C862.518 26.784 862.342 27.16 862.118 27.512C861.894 27.848 861.622 28.144 861.302 28.4C860.998 28.64 860.654 28.824 860.27 28.952V29ZM854.918 25.208C854.918 25.656 854.998 26.064 855.158 26.432C855.318 26.8 855.542 27.12 855.83 27.392C856.118 27.664 856.446 27.88 856.814 28.04C857.198 28.184 857.606 28.256 858.038 28.256C858.47 28.256 858.87 28.184 859.238 28.04C859.622 27.88 859.958 27.664 860.246 27.392C860.534 27.12 860.758 26.8 860.918 26.432C861.078 26.064 861.158 25.656 861.158 25.208C861.158 24.76 861.078 24.344 860.918 23.96C860.758 23.56 860.534 23.224 860.246 22.952C859.974 22.664 859.646 22.44 859.262 22.28C858.894 22.12 858.486 22.04 858.038 22.04C857.59 22.04 857.174 22.12 856.79 22.28C856.422 22.44 856.094 22.664 855.806 22.952C855.534 23.224 855.318 23.56 855.158 23.96C854.998 24.344 854.918 24.76 854.918 25.208ZM854.318 33.344C854.318 33.856 854.406 34.336 854.582 34.784C854.758 35.232 855.006 35.616 855.326 35.936C855.662 36.256 856.054 36.512 856.502 36.704C856.966 36.88 857.478 36.968 858.038 36.968C858.598 36.968 859.102 36.88 859.55 36.704C860.014 36.512 860.406 36.256 860.726 35.936C861.062 35.616 861.318 35.232 861.494 34.784C861.67 34.336 861.758 33.856 861.758 33.344C861.758 32.832 861.67 32.36 861.494 31.928C861.318 31.496 861.062 31.12 860.726 30.8C860.406 30.48 860.014 30.232 859.55 30.056C859.102 29.88 858.598 29.792 858.038 29.792C857.478 29.792 856.966 29.88 856.502 30.056C856.054 30.232 855.662 30.48 855.326 30.8C855.006 31.12 854.758 31.496 854.582 31.928C854.406 32.36 854.318 32.832 854.318 33.344Z" fill="#222222"/>
<path d="M828.672 59H827.682V51.92H829.952C830.292 51.92 830.616 51.9567 830.922 52.03C831.229 52.0967 831.496 52.2067 831.722 52.36C831.956 52.5133 832.139 52.7167 832.272 52.97C832.406 53.2167 832.472 53.52 832.472 53.88C832.472 54.4 832.312 54.82 831.992 55.14C831.672 55.46 831.259 55.6633 830.752 55.75L832.732 59H831.532L829.732 55.85H828.672V59ZM828.672 55.02H829.812C830.046 55.02 830.262 55 830.462 54.96C830.662 54.92 830.836 54.8567 830.982 54.77C831.136 54.6767 831.256 54.56 831.342 54.42C831.429 54.2733 831.472 54.0933 831.472 53.88C831.472 53.6667 831.429 53.49 831.342 53.35C831.256 53.2033 831.139 53.0867 830.992 53C830.852 52.9133 830.686 52.8533 830.492 52.82C830.299 52.78 830.096 52.76 829.882 52.76H828.672V55.02ZM836.015 58.12H839.715V59H835.025V51.92H839.565V52.79H836.015V54.91H839.355V55.76H836.015V58.12ZM844.711 59H843.721V52.79H841.451V51.92H846.981V52.79H844.711V59ZM848.818 59H847.718L850.788 51.92H851.688L854.728 59H853.608L852.888 57.26H849.528L848.818 59ZM849.878 56.39H852.528L851.208 53.07L849.878 56.39ZM857.828 59H856.838V51.92H857.828V59ZM861.743 58.12H864.903V59H860.753V51.92H861.743V58.12Z" fill="#222222"/>
<path d="M923.468 22.064C922.636 22.096 921.932 22.392 921.356 22.952C920.78 23.496 920.492 24.224 920.492 25.136C920.492 26 920.764 26.68 921.308 27.176C921.852 27.656 922.572 28.016 923.468 28.256V22.064ZM924.62 36.896C924.972 36.88 925.332 36.816 925.7 36.704C926.084 36.576 926.428 36.384 926.732 36.128C927.036 35.872 927.284 35.544 927.476 35.144C927.668 34.728 927.764 34.224 927.764 33.632C927.764 32.816 927.468 32.128 926.876 31.568C926.284 31.008 925.532 30.584 924.62 30.296V36.896ZM923.468 30.008C922.924 29.848 922.372 29.648 921.812 29.408C921.268 29.168 920.772 28.864 920.324 28.496C919.892 28.128 919.532 27.688 919.244 27.176C918.972 26.648 918.836 26.016 918.836 25.28C918.836 24.592 918.956 23.976 919.196 23.432C919.452 22.872 919.788 22.4 920.204 22.016C920.636 21.616 921.132 21.312 921.692 21.104C922.252 20.88 922.844 20.752 923.468 20.72V18.992H924.62V20.72C925.004 20.736 925.396 20.784 925.796 20.864C926.212 20.944 926.612 21.064 926.996 21.224C927.396 21.384 927.772 21.584 928.124 21.824C928.476 22.064 928.788 22.344 929.06 22.664L927.74 23.672C927.372 23.144 926.9 22.752 926.324 22.496C925.764 22.224 925.196 22.08 924.62 22.064V28.664C925.228 28.872 925.82 29.112 926.396 29.384C926.988 29.64 927.508 29.968 927.956 30.368C928.42 30.752 928.788 31.216 929.06 31.76C929.348 32.304 929.492 32.968 929.492 33.752C929.492 34.424 929.364 35.04 929.108 35.6C928.868 36.144 928.524 36.616 928.076 37.016C927.644 37.4 927.132 37.704 926.54 37.928C925.948 38.152 925.308 38.272 924.62 38.288V40.016H923.468V38.288C922.38 38.256 921.404 38.008 920.54 37.544C919.692 37.08 918.98 36.48 918.404 35.744L919.772 34.784C919.98 35.152 920.244 35.464 920.564 35.72C920.884 35.976 921.212 36.192 921.548 36.368C921.9 36.544 922.244 36.68 922.58 36.776C922.916 36.856 923.212 36.896 923.468 36.896V30.008ZM943.03 22.592L936.19 38H934.246L941.278 22.544H932.95V21.008H943.03V22.592ZM947.448 41.36H946.08L947.688 35.72H949.392L947.448 41.36ZM956.058 28.424L956.106 28.472C956.362 28.28 956.722 28.128 957.186 28.016C957.65 27.904 958.098 27.848 958.53 27.848C959.266 27.848 959.946 27.976 960.57 28.232C961.21 28.488 961.762 28.848 962.226 29.312C962.69 29.76 963.05 30.312 963.306 30.968C963.578 31.608 963.714 32.312 963.714 33.08C963.714 33.88 963.578 34.608 963.306 35.264C963.034 35.92 962.65 36.48 962.154 36.944C961.658 37.408 961.074 37.768 960.402 38.024C959.73 38.296 958.994 38.432 958.194 38.432C957.394 38.432 956.658 38.296 955.986 38.024C955.314 37.768 954.73 37.408 954.234 36.944C953.738 36.48 953.354 35.92 953.082 35.264C952.81 34.608 952.674 33.88 952.674 33.08C952.674 32.2 952.826 31.384 953.13 30.632C953.434 29.88 953.794 29.16 954.21 28.472L958.842 21.008H960.834L956.058 28.424ZM954.402 33.08C954.402 33.64 954.49 34.16 954.666 34.64C954.858 35.104 955.122 35.512 955.458 35.864C955.794 36.2 956.194 36.472 956.658 36.68C957.122 36.872 957.634 36.968 958.194 36.968C958.754 36.968 959.266 36.872 959.73 36.68C960.194 36.472 960.594 36.2 960.93 35.864C961.266 35.512 961.522 35.104 961.698 34.64C961.89 34.16 961.986 33.64 961.986 33.08C961.986 32.536 961.898 32.032 961.722 31.568C961.546 31.088 961.29 30.68 960.954 30.344C960.634 29.992 960.234 29.72 959.754 29.528C959.29 29.336 958.77 29.24 958.194 29.24C957.618 29.24 957.09 29.336 956.61 29.528C956.146 29.72 955.746 29.992 955.41 30.344C955.09 30.68 954.842 31.088 954.666 31.568C954.49 32.032 954.402 32.536 954.402 33.08ZM976.556 22.544H969.476L969.356 27.8C969.724 27.672 970.108 27.576 970.508 27.512C970.924 27.448 971.324 27.416 971.708 27.416C972.508 27.416 973.244 27.544 973.916 27.8C974.588 28.056 975.172 28.424 975.668 28.904C976.164 29.368 976.548 29.928 976.82 30.584C977.092 31.24 977.228 31.96 977.228 32.744C977.228 33.56 977.092 34.32 976.82 35.024C976.548 35.712 976.164 36.312 975.668 36.824C975.172 37.32 974.572 37.712 973.868 38C973.18 38.288 972.42 38.432 971.588 38.432C970.356 38.432 969.316 38.152 968.468 37.592C967.62 37.032 966.964 36.28 966.5 35.336L968.06 34.64C968.364 35.344 968.82 35.904 969.428 36.32C970.052 36.736 970.74 36.944 971.492 36.944C972.068 36.944 972.596 36.848 973.076 36.656C973.572 36.448 973.996 36.168 974.348 35.816C974.7 35.448 974.972 35.016 975.164 34.52C975.372 34.024 975.476 33.488 975.476 32.912C975.476 32.288 975.364 31.728 975.14 31.232C974.932 30.72 974.636 30.288 974.252 29.936C973.884 29.584 973.444 29.312 972.932 29.12C972.42 28.928 971.86 28.832 971.252 28.832C970.644 28.832 970.036 28.92 969.428 29.096C968.836 29.256 968.268 29.48 967.724 29.768L967.892 21.008H976.556V22.544ZM986.038 20.576C987.094 20.576 987.974 20.84 988.678 21.368C989.398 21.88 989.974 22.56 990.406 23.408C990.838 24.24 991.142 25.192 991.318 26.264C991.51 27.336 991.606 28.424 991.606 29.528C991.606 30.632 991.51 31.72 991.318 32.792C991.142 33.848 990.838 34.8 990.406 35.648C989.974 36.48 989.398 37.152 988.678 37.664C987.974 38.176 987.094 38.432 986.038 38.432C984.966 38.432 984.07 38.176 983.35 37.664C982.646 37.152 982.078 36.48 981.646 35.648C981.214 34.8 980.91 33.848 980.734 32.792C980.558 31.72 980.47 30.632 980.47 29.528C980.47 28.424 980.558 27.336 980.734 26.264C980.91 25.192 981.214 24.24 981.646 23.408C982.078 22.56 982.646 21.88 983.35 21.368C984.07 20.84 984.966 20.576 986.038 20.576ZM986.038 22.04C985.286 22.04 984.662 22.272 984.166 22.736C983.67 23.2 983.278 23.792 982.99 24.512C982.702 25.232 982.502 26.04 982.39 26.936C982.278 27.816 982.222 28.68 982.222 29.528C982.222 30.376 982.278 31.24 982.39 32.12C982.502 33 982.702 33.8 982.99 34.52C983.278 35.224 983.67 35.808 984.166 36.272C984.662 36.72 985.286 36.944 986.038 36.944C986.774 36.944 987.39 36.72 987.886 36.272C988.382 35.808 988.774 35.224 989.062 34.52C989.35 33.8 989.55 33 989.662 32.12C989.79 31.24 989.854 30.376 989.854 29.528C989.854 28.68 989.79 27.816 989.662 26.936C989.55 26.04 989.35 25.232 989.062 24.512C988.774 23.792 988.382 23.2 987.886 22.736C987.39 22.272 986.774 22.04 986.038 22.04Z" fill="#222222"/>
<path d="M941.837 51.92H942.827V54.88H946.407V51.92H947.407V59H946.407V55.76H942.827V59H941.837V51.92ZM950.322 51.92H952.482C952.862 51.92 953.209 51.96 953.522 52.04C953.835 52.1133 954.102 52.23 954.322 52.39C954.542 52.55 954.712 52.7533 954.832 53C954.952 53.2467 955.012 53.5433 955.012 53.89C955.012 54.2433 954.945 54.5467 954.812 54.8C954.685 55.0533 954.505 55.26 954.272 55.42C954.045 55.58 953.772 55.7 953.452 55.78C953.139 55.8533 952.799 55.89 952.432 55.89H951.312V59H950.322V51.92ZM951.312 55.05H952.362C952.602 55.05 952.822 55.03 953.022 54.99C953.229 54.9433 953.405 54.8767 953.552 54.79C953.699 54.6967 953.812 54.5767 953.892 54.43C953.972 54.2833 954.012 54.1033 954.012 53.89C954.012 53.6767 953.969 53.5 953.882 53.36C953.802 53.2133 953.689 53.0967 953.542 53.01C953.402 52.9167 953.232 52.8533 953.032 52.82C952.832 52.78 952.615 52.76 952.382 52.76H951.312V55.05ZM961.169 51.92H963.329C963.709 51.92 964.056 51.96 964.369 52.04C964.683 52.1133 964.949 52.23 965.169 52.39C965.389 52.55 965.559 52.7533 965.679 53C965.799 53.2467 965.859 53.5433 965.859 53.89C965.859 54.2433 965.793 54.5467 965.659 54.8C965.533 55.0533 965.353 55.26 965.119 55.42C964.893 55.58 964.619 55.7 964.299 55.78C963.986 55.8533 963.646 55.89 963.279 55.89H962.159V59H961.169V51.92ZM962.159 55.05H963.209C963.449 55.05 963.669 55.03 963.869 54.99C964.076 54.9433 964.253 54.8767 964.399 54.79C964.546 54.6967 964.659 54.5767 964.739 54.43C964.819 54.2833 964.859 54.1033 964.859 53.89C964.859 53.6767 964.816 53.5 964.729 53.36C964.649 53.2133 964.536 53.0967 964.389 53.01C964.249 52.9167 964.079 52.8533 963.879 52.82C963.679 52.78 963.463 52.76 963.229 52.76H962.159V55.05ZM969.307 59H968.317V51.92H970.587C970.927 51.92 971.25 51.9567 971.557 52.03C971.863 52.0967 972.13 52.2067 972.357 52.36C972.59 52.5133 972.773 52.7167 972.907 52.97C973.04 53.2167 973.107 53.52 973.107 53.88C973.107 54.4 972.947 54.82 972.627 55.14C972.307 55.46 971.893 55.6633 971.387 55.75L973.367 59H972.167L970.367 55.85H969.307V59ZM969.307 55.02H970.447C970.68 55.02 970.897 55 971.097 54.96C971.297 54.92 971.47 54.8567 971.617 54.77C971.77 54.6767 971.89 54.56 971.977 54.42C972.063 54.2733 972.107 54.0933 972.107 53.88C972.107 53.6667 972.063 53.49 971.977 53.35C971.89 53.2033 971.773 53.0867 971.627 53C971.487 52.9133 971.32 52.8533 971.127 52.82C970.933 52.78 970.73 52.76 970.517 52.76H969.307V55.02ZM976.649 59H975.659V51.92H976.649V59ZM985.644 57.9C985.364 58.28 985.001 58.59 984.554 58.83C984.107 59.0633 983.571 59.18 982.944 59.18C982.404 59.18 981.904 59.09 981.444 58.91C980.991 58.7233 980.597 58.4667 980.264 58.14C979.937 57.8067 979.681 57.4133 979.494 56.96C979.307 56.5 979.214 55.9967 979.214 55.45C979.214 54.8967 979.307 54.3933 979.494 53.94C979.687 53.48 979.951 53.09 980.284 52.77C980.624 52.4433 981.024 52.19 981.484 52.01C981.944 51.83 982.444 51.74 982.984 51.74C983.224 51.74 983.467 51.7633 983.714 51.81C983.961 51.8567 984.197 51.9267 984.424 52.02C984.651 52.1133 984.857 52.23 985.044 52.37C985.231 52.5033 985.391 52.66 985.524 52.84L984.744 53.44C984.571 53.2 984.324 53.0033 984.004 52.85C983.691 52.69 983.351 52.61 982.984 52.61C982.571 52.61 982.197 52.6867 981.864 52.84C981.537 52.9867 981.257 53.19 981.024 53.45C980.791 53.71 980.611 54.0133 980.484 54.36C980.357 54.7 980.294 55.0633 980.294 55.45C980.294 55.85 980.354 56.2233 980.474 56.57C980.601 56.9167 980.777 57.22 981.004 57.48C981.237 57.7333 981.517 57.9333 981.844 58.08C982.177 58.2267 982.547 58.3 982.954 58.3C983.354 58.3 983.717 58.22 984.044 58.06C984.371 57.9 984.641 57.6667 984.854 57.36L985.644 57.9ZM988.844 58.12H992.544V59H987.854V51.92H992.394V52.79H988.844V54.91H992.184V55.76H988.844V58.12Z" fill="#222222"/>
<path d="M1051.47 22.064C1050.64 22.096 1049.93 22.392 1049.36 22.952C1048.78 23.496 1048.49 24.224 1048.49 25.136C1048.49 26 1048.76 26.68 1049.31 27.176C1049.85 27.656 1050.57 28.016 1051.47 28.256V22.064ZM1052.62 36.896C1052.97 36.88 1053.33 36.816 1053.7 36.704C1054.08 36.576 1054.43 36.384 1054.73 36.128C1055.04 35.872 1055.28 35.544 1055.48 35.144C1055.67 34.728 1055.76 34.224 1055.76 33.632C1055.76 32.816 1055.47 32.128 1054.88 31.568C1054.28 31.008 1053.53 30.584 1052.62 30.296V36.896ZM1051.47 30.008C1050.92 29.848 1050.37 29.648 1049.81 29.408C1049.27 29.168 1048.77 28.864 1048.32 28.496C1047.89 28.128 1047.53 27.688 1047.24 27.176C1046.97 26.648 1046.84 26.016 1046.84 25.28C1046.84 24.592 1046.96 23.976 1047.2 23.432C1047.45 22.872 1047.79 22.4 1048.2 22.016C1048.64 21.616 1049.13 21.312 1049.69 21.104C1050.25 20.88 1050.84 20.752 1051.47 20.72V18.992H1052.62V20.72C1053 20.736 1053.4 20.784 1053.8 20.864C1054.21 20.944 1054.61 21.064 1055 21.224C1055.4 21.384 1055.77 21.584 1056.12 21.824C1056.48 22.064 1056.79 22.344 1057.06 22.664L1055.74 23.672C1055.37 23.144 1054.9 22.752 1054.32 22.496C1053.76 22.224 1053.2 22.08 1052.62 22.064V28.664C1053.23 28.872 1053.82 29.112 1054.4 29.384C1054.99 29.64 1055.51 29.968 1055.96 30.368C1056.42 30.752 1056.79 31.216 1057.06 31.76C1057.35 32.304 1057.49 32.968 1057.49 33.752C1057.49 34.424 1057.36 35.04 1057.11 35.6C1056.87 36.144 1056.52 36.616 1056.08 37.016C1055.64 37.4 1055.13 37.704 1054.54 37.928C1053.95 38.152 1053.31 38.272 1052.62 38.288V40.016H1051.47V38.288C1050.38 38.256 1049.4 38.008 1048.54 37.544C1047.69 37.08 1046.98 36.48 1046.4 35.744L1047.77 34.784C1047.98 35.152 1048.24 35.464 1048.56 35.72C1048.88 35.976 1049.21 36.192 1049.55 36.368C1049.9 36.544 1050.24 36.68 1050.58 36.776C1050.92 36.856 1051.21 36.896 1051.47 36.896V30.008ZM1068.27 29C1069.2 29.272 1069.97 29.808 1070.57 30.608C1071.18 31.408 1071.49 32.384 1071.49 33.536C1071.49 34.288 1071.33 34.968 1071.03 35.576C1070.74 36.168 1070.35 36.68 1069.85 37.112C1069.36 37.528 1068.77 37.848 1068.1 38.072C1067.45 38.312 1066.76 38.432 1066.04 38.432C1065.32 38.432 1064.62 38.312 1063.95 38.072C1063.29 37.848 1062.72 37.528 1062.22 37.112C1061.73 36.68 1061.33 36.168 1061.02 35.576C1060.73 34.968 1060.59 34.288 1060.59 33.536C1060.59 32.96 1060.67 32.432 1060.83 31.952C1060.99 31.456 1061.21 31.016 1061.5 30.632C1061.79 30.232 1062.13 29.896 1062.51 29.624C1062.91 29.352 1063.34 29.144 1063.81 29V28.952C1063.42 28.824 1063.07 28.64 1062.75 28.4C1062.45 28.144 1062.18 27.848 1061.96 27.512C1061.73 27.16 1061.56 26.784 1061.43 26.384C1061.3 25.968 1061.24 25.544 1061.24 25.112C1061.24 24.424 1061.37 23.8 1061.62 23.24C1061.88 22.68 1062.22 22.208 1062.65 21.824C1063.1 21.424 1063.61 21.12 1064.19 20.912C1064.77 20.688 1065.38 20.576 1066.04 20.576C1066.68 20.576 1067.29 20.688 1067.86 20.912C1068.45 21.12 1068.97 21.424 1069.4 21.824C1069.85 22.208 1070.2 22.68 1070.45 23.24C1070.71 23.8 1070.84 24.424 1070.84 25.112C1070.84 25.544 1070.77 25.968 1070.65 26.384C1070.52 26.784 1070.34 27.16 1070.12 27.512C1069.89 27.848 1069.62 28.144 1069.3 28.4C1069 28.64 1068.65 28.824 1068.27 28.952V29ZM1062.92 25.208C1062.92 25.656 1063 26.064 1063.16 26.432C1063.32 26.8 1063.54 27.12 1063.83 27.392C1064.12 27.664 1064.45 27.88 1064.81 28.04C1065.2 28.184 1065.61 28.256 1066.04 28.256C1066.47 28.256 1066.87 28.184 1067.24 28.04C1067.62 27.88 1067.96 27.664 1068.25 27.392C1068.53 27.12 1068.76 26.8 1068.92 26.432C1069.08 26.064 1069.16 25.656 1069.16 25.208C1069.16 24.76 1069.08 24.344 1068.92 23.96C1068.76 23.56 1068.53 23.224 1068.25 22.952C1067.97 22.664 1067.65 22.44 1067.26 22.28C1066.89 22.12 1066.49 22.04 1066.04 22.04C1065.59 22.04 1065.17 22.12 1064.79 22.28C1064.42 22.44 1064.09 22.664 1063.81 22.952C1063.53 23.224 1063.32 23.56 1063.16 23.96C1063 24.344 1062.92 24.76 1062.92 25.208ZM1062.32 33.344C1062.32 33.856 1062.41 34.336 1062.58 34.784C1062.76 35.232 1063.01 35.616 1063.33 35.936C1063.66 36.256 1064.05 36.512 1064.5 36.704C1064.97 36.88 1065.48 36.968 1066.04 36.968C1066.6 36.968 1067.1 36.88 1067.55 36.704C1068.01 36.512 1068.41 36.256 1068.73 35.936C1069.06 35.616 1069.32 35.232 1069.49 34.784C1069.67 34.336 1069.76 33.856 1069.76 33.344C1069.76 32.832 1069.67 32.36 1069.49 31.928C1069.32 31.496 1069.06 31.12 1068.73 30.8C1068.41 30.48 1068.01 30.232 1067.55 30.056C1067.1 29.88 1066.6 29.792 1066.04 29.792C1065.48 29.792 1064.97 29.88 1064.5 30.056C1064.05 30.232 1063.66 30.48 1063.33 30.8C1063.01 31.12 1062.76 31.496 1062.58 31.928C1062.41 32.36 1062.32 32.832 1062.32 33.344ZM1075.45 41.36H1074.08L1075.69 35.72H1077.39L1075.45 41.36ZM1091.19 22.592L1084.35 38H1082.4L1089.43 22.544H1081.11V21.008H1091.19V22.592ZM1100.12 20.576C1101.17 20.576 1102.05 20.84 1102.76 21.368C1103.48 21.88 1104.05 22.56 1104.48 23.408C1104.92 24.24 1105.22 25.192 1105.4 26.264C1105.59 27.336 1105.68 28.424 1105.68 29.528C1105.68 30.632 1105.59 31.72 1105.4 32.792C1105.22 33.848 1104.92 34.8 1104.48 35.648C1104.05 36.48 1103.48 37.152 1102.76 37.664C1102.05 38.176 1101.17 38.432 1100.12 38.432C1099.04 38.432 1098.15 38.176 1097.43 37.664C1096.72 37.152 1096.16 36.48 1095.72 35.648C1095.29 34.8 1094.99 33.848 1094.81 32.792C1094.64 31.72 1094.55 30.632 1094.55 29.528C1094.55 28.424 1094.64 27.336 1094.81 26.264C1094.99 25.192 1095.29 24.24 1095.72 23.408C1096.16 22.56 1096.72 21.88 1097.43 21.368C1098.15 20.84 1099.04 20.576 1100.12 20.576ZM1100.12 22.04C1099.36 22.04 1098.74 22.272 1098.24 22.736C1097.75 23.2 1097.36 23.792 1097.07 24.512C1096.78 25.232 1096.58 26.04 1096.47 26.936C1096.36 27.816 1096.3 28.68 1096.3 29.528C1096.3 30.376 1096.36 31.24 1096.47 32.12C1096.58 33 1096.78 33.8 1097.07 34.52C1097.36 35.224 1097.75 35.808 1098.24 36.272C1098.74 36.72 1099.36 36.944 1100.12 36.944C1100.85 36.944 1101.47 36.72 1101.96 36.272C1102.46 35.808 1102.85 35.224 1103.14 34.52C1103.43 33.8 1103.63 33 1103.74 32.12C1103.87 31.24 1103.93 30.376 1103.93 29.528C1103.93 28.68 1103.87 27.816 1103.74 26.936C1103.63 26.04 1103.43 25.232 1103.14 24.512C1102.85 23.792 1102.46 23.2 1101.96 22.736C1101.47 22.272 1100.85 22.04 1100.12 22.04ZM1114.04 20.576C1115.09 20.576 1115.97 20.84 1116.68 21.368C1117.4 21.88 1117.97 22.56 1118.41 23.408C1118.84 24.24 1119.14 25.192 1119.32 26.264C1119.51 27.336 1119.61 28.424 1119.61 29.528C1119.61 30.632 1119.51 31.72 1119.32 32.792C1119.14 33.848 1118.84 34.8 1118.41 35.648C1117.97 36.48 1117.4 37.152 1116.68 37.664C1115.97 38.176 1115.09 38.432 1114.04 38.432C1112.97 38.432 1112.07 38.176 1111.35 37.664C1110.65 37.152 1110.08 36.48 1109.65 35.648C1109.21 34.8 1108.91 33.848 1108.73 32.792C1108.56 31.72 1108.47 30.632 1108.47 29.528C1108.47 28.424 1108.56 27.336 1108.73 26.264C1108.91 25.192 1109.21 24.24 1109.65 23.408C1110.08 22.56 1110.65 21.88 1111.35 21.368C1112.07 20.84 1112.97 20.576 1114.04 20.576ZM1114.04 22.04C1113.29 22.04 1112.66 22.272 1112.17 22.736C1111.67 23.2 1111.28 23.792 1110.99 24.512C1110.7 25.232 1110.5 26.04 1110.39 26.936C1110.28 27.816 1110.22 28.68 1110.22 29.528C1110.22 30.376 1110.28 31.24 1110.39 32.12C1110.5 33 1110.7 33.8 1110.99 34.52C1111.28 35.224 1111.67 35.808 1112.17 36.272C1112.66 36.72 1113.29 36.944 1114.04 36.944C1114.77 36.944 1115.39 36.72 1115.89 36.272C1116.38 35.808 1116.77 35.224 1117.06 34.52C1117.35 33.8 1117.55 33 1117.66 32.12C1117.79 31.24 1117.85 30.376 1117.85 29.528C1117.85 28.68 1117.79 27.816 1117.66 26.936C1117.55 26.04 1117.35 25.232 1117.06 24.512C1116.77 23.792 1116.38 23.2 1115.89 22.736C1115.39 22.272 1114.77 22.04 1114.04 22.04Z" fill="#222222"/>
<path d="M1075.24 51.92H1077.68C1077.94 51.92 1078.21 51.95 1078.48 52.01C1078.74 52.07 1078.98 52.17 1079.19 52.31C1079.4 52.45 1079.57 52.6333 1079.7 52.86C1079.83 53.0867 1079.9 53.37 1079.9 53.71C1079.9 54.1033 1079.78 54.4333 1079.56 54.7C1079.33 54.9667 1079.03 55.15 1078.66 55.25V55.27C1078.88 55.2967 1079.09 55.3567 1079.29 55.45C1079.48 55.5367 1079.65 55.6533 1079.79 55.8C1079.93 55.9467 1080.03 56.12 1080.11 56.32C1080.19 56.52 1080.23 56.7433 1080.23 56.99C1080.23 57.33 1080.16 57.6267 1080.02 57.88C1079.88 58.1333 1079.69 58.3433 1079.45 58.51C1079.21 58.67 1078.92 58.7933 1078.6 58.88C1078.28 58.96 1077.93 59 1077.57 59H1075.24V51.92ZM1076.23 54.91H1077.52C1077.7 54.91 1077.88 54.89 1078.05 54.85C1078.22 54.8033 1078.37 54.7367 1078.5 54.65C1078.62 54.5567 1078.72 54.4433 1078.8 54.31C1078.87 54.17 1078.91 54.0033 1078.91 53.81C1078.91 53.43 1078.77 53.16 1078.49 53C1078.21 52.8333 1077.83 52.75 1077.36 52.75H1076.23V54.91ZM1076.23 58.16H1077.47C1077.67 58.16 1077.88 58.1433 1078.09 58.11C1078.3 58.07 1078.49 58.0033 1078.66 57.91C1078.83 57.8167 1078.97 57.6933 1079.07 57.54C1079.17 57.38 1079.23 57.18 1079.23 56.94C1079.23 56.52 1079.08 56.2167 1078.8 56.03C1078.51 55.8433 1078.1 55.75 1077.56 55.75H1076.23V58.16ZM1085.55 59.18C1085.08 59.18 1084.68 59.1033 1084.33 58.95C1083.98 58.79 1083.7 58.58 1083.47 58.32C1083.24 58.06 1083.07 57.7633 1082.96 57.43C1082.85 57.09 1082.8 56.74 1082.8 56.38V51.92H1083.79V56.32C1083.79 56.56 1083.82 56.8 1083.88 57.04C1083.94 57.2733 1084.04 57.4833 1084.17 57.67C1084.31 57.8567 1084.49 58.0067 1084.71 58.12C1084.94 58.2333 1085.22 58.29 1085.55 58.29C1085.88 58.29 1086.15 58.2333 1086.38 58.12C1086.61 58.0067 1086.79 57.8567 1086.92 57.67C1087.06 57.4833 1087.16 57.2733 1087.22 57.04C1087.28 56.8 1087.31 56.56 1087.31 56.32V51.92H1088.3V56.38C1088.3 56.74 1088.24 57.09 1088.13 57.43C1088.02 57.7633 1087.86 58.06 1087.63 58.32C1087.4 58.58 1087.12 58.79 1086.77 58.95C1086.42 59.1033 1086.02 59.18 1085.55 59.18ZM1091.17 51.92H1093.6C1094.05 51.92 1094.51 51.9867 1094.96 52.12C1095.41 52.2533 1095.82 52.4633 1096.19 52.75C1096.56 53.0367 1096.85 53.4033 1097.08 53.85C1097.31 54.2967 1097.42 54.8333 1097.42 55.46C1097.42 56.0667 1097.31 56.5933 1097.08 57.04C1096.85 57.48 1096.56 57.8467 1096.19 58.14C1095.82 58.4267 1095.41 58.6433 1094.96 58.79C1094.51 58.93 1094.05 59 1093.6 59H1091.17V51.92ZM1092.16 58.13H1093.4C1093.83 58.13 1094.22 58.07 1094.58 57.95C1094.95 57.83 1095.26 57.6567 1095.52 57.43C1095.79 57.2033 1095.99 56.9233 1096.14 56.59C1096.29 56.2567 1096.36 55.88 1096.36 55.46C1096.36 55.02 1096.29 54.6333 1096.14 54.3C1095.99 53.9667 1095.79 53.69 1095.52 53.47C1095.26 53.2433 1094.95 53.0733 1094.58 52.96C1094.22 52.84 1093.83 52.78 1093.4 52.78H1092.16V58.13ZM1105.32 53.38C1105.1 53.1467 1104.83 52.96 1104.5 52.82C1104.17 52.68 1103.8 52.61 1103.4 52.61C1102.98 52.61 1102.61 52.6867 1102.28 52.84C1101.94 52.9867 1101.66 53.19 1101.43 53.45C1101.19 53.71 1101.01 54.0133 1100.89 54.36C1100.76 54.7 1100.7 55.0633 1100.7 55.45C1100.7 55.8433 1100.76 56.2133 1100.89 56.56C1101.01 56.9067 1101.19 57.21 1101.43 57.47C1101.66 57.7233 1101.95 57.9233 1102.29 58.07C1102.63 58.2167 1103.01 58.29 1103.43 58.29C1103.76 58.29 1104.07 58.26 1104.35 58.2C1104.63 58.14 1104.87 58.0533 1105.08 57.94V55.97H1103.51V55.13H1106.06V58.56C1105.68 58.76 1105.28 58.9133 1104.84 59.02C1104.4 59.1267 1103.92 59.18 1103.4 59.18C1102.84 59.18 1102.33 59.09 1101.87 58.91C1101.41 58.7233 1101.01 58.4667 1100.68 58.14C1100.34 57.8067 1100.08 57.4133 1099.9 56.96C1099.71 56.5 1099.62 55.9967 1099.62 55.45C1099.62 54.8967 1099.71 54.3933 1099.9 53.94C1100.09 53.48 1100.35 53.09 1100.69 52.77C1101.03 52.4433 1101.43 52.19 1101.89 52.01C1102.35 51.83 1102.85 51.74 1103.39 51.74C1103.95 51.74 1104.46 51.8233 1104.9 51.99C1105.34 52.1567 1105.71 52.38 1106.01 52.66L1105.32 53.38ZM1109.95 58.12H1113.65V59H1108.96V51.92H1113.5V52.79H1109.95V54.91H1113.29V55.76H1109.95V58.12ZM1118.65 59H1117.66V52.79H1115.39V51.92H1120.92V52.79H1118.65V59Z" fill="#222222"/>
<path d="M1165.55 22.064C1164.71 22.096 1164.01 22.392 1163.43 22.952C1162.86 23.496 1162.57 24.224 1162.57 25.136C1162.57 26 1162.84 26.68 1163.39 27.176C1163.93 27.656 1164.65 28.016 1165.55 28.256V22.064ZM1166.7 36.896C1167.05 36.88 1167.41 36.816 1167.78 36.704C1168.16 36.576 1168.51 36.384 1168.81 36.128C1169.11 35.872 1169.36 35.544 1169.55 35.144C1169.75 34.728 1169.84 34.224 1169.84 33.632C1169.84 32.816 1169.55 32.128 1168.95 31.568C1168.36 31.008 1167.61 30.584 1166.7 30.296V36.896ZM1165.55 30.008C1165 29.848 1164.45 29.648 1163.89 29.408C1163.35 29.168 1162.85 28.864 1162.4 28.496C1161.97 28.128 1161.61 27.688 1161.32 27.176C1161.05 26.648 1160.91 26.016 1160.91 25.28C1160.91 24.592 1161.03 23.976 1161.27 23.432C1161.53 22.872 1161.87 22.4 1162.28 22.016C1162.71 21.616 1163.21 21.312 1163.77 21.104C1164.33 20.88 1164.92 20.752 1165.55 20.72V18.992H1166.7V20.72C1167.08 20.736 1167.47 20.784 1167.87 20.864C1168.29 20.944 1168.69 21.064 1169.07 21.224C1169.47 21.384 1169.85 21.584 1170.2 21.824C1170.55 22.064 1170.87 22.344 1171.14 22.664L1169.82 23.672C1169.45 23.144 1168.98 22.752 1168.4 22.496C1167.84 22.224 1167.27 22.08 1166.7 22.064V28.664C1167.31 28.872 1167.9 29.112 1168.47 29.384C1169.07 29.64 1169.59 29.968 1170.03 30.368C1170.5 30.752 1170.87 31.216 1171.14 31.76C1171.43 32.304 1171.57 32.968 1171.57 33.752C1171.57 34.424 1171.44 35.04 1171.19 35.6C1170.95 36.144 1170.6 36.616 1170.15 37.016C1169.72 37.4 1169.21 37.704 1168.62 37.928C1168.03 38.152 1167.39 38.272 1166.7 38.288V40.016H1165.55V38.288C1164.46 38.256 1163.48 38.008 1162.62 37.544C1161.77 37.08 1161.06 36.48 1160.48 35.744L1161.85 34.784C1162.06 35.152 1162.32 35.464 1162.64 35.72C1162.96 35.976 1163.29 36.192 1163.63 36.368C1163.98 36.544 1164.32 36.68 1164.66 36.776C1164.99 36.856 1165.29 36.896 1165.55 36.896V30.008ZM1181.75 38H1180.02V23.144L1176.95 25.76L1175.89 24.56L1180.21 21.008H1181.75V38ZM1194.04 20.576C1195.09 20.576 1195.97 20.84 1196.68 21.368C1197.4 21.88 1197.97 22.56 1198.41 23.408C1198.84 24.24 1199.14 25.192 1199.32 26.264C1199.51 27.336 1199.61 28.424 1199.61 29.528C1199.61 30.632 1199.51 31.72 1199.32 32.792C1199.14 33.848 1198.84 34.8 1198.41 35.648C1197.97 36.48 1197.4 37.152 1196.68 37.664C1195.97 38.176 1195.09 38.432 1194.04 38.432C1192.97 38.432 1192.07 38.176 1191.35 37.664C1190.65 37.152 1190.08 36.48 1189.65 35.648C1189.21 34.8 1188.91 33.848 1188.73 32.792C1188.56 31.72 1188.47 30.632 1188.47 29.528C1188.47 28.424 1188.56 27.336 1188.73 26.264C1188.91 25.192 1189.21 24.24 1189.65 23.408C1190.08 22.56 1190.65 21.88 1191.35 21.368C1192.07 20.84 1192.97 20.576 1194.04 20.576ZM1194.04 22.04C1193.29 22.04 1192.66 22.272 1192.17 22.736C1191.67 23.2 1191.28 23.792 1190.99 24.512C1190.7 25.232 1190.5 26.04 1190.39 26.936C1190.28 27.816 1190.22 28.68 1190.22 29.528C1190.22 30.376 1190.28 31.24 1190.39 32.12C1190.5 33 1190.7 33.8 1190.99 34.52C1191.28 35.224 1191.67 35.808 1192.17 36.272C1192.66 36.72 1193.29 36.944 1194.04 36.944C1194.77 36.944 1195.39 36.72 1195.89 36.272C1196.38 35.808 1196.77 35.224 1197.06 34.52C1197.35 33.8 1197.55 33 1197.66 32.12C1197.79 31.24 1197.85 30.376 1197.85 29.528C1197.85 28.68 1197.79 27.816 1197.66 26.936C1197.55 26.04 1197.35 25.232 1197.06 24.512C1196.77 23.792 1196.38 23.2 1195.89 22.736C1195.39 22.272 1194.77 22.04 1194.04 22.04ZM1203.45 41.36H1202.08L1203.69 35.72H1205.39L1203.45 41.36ZM1218.63 22.544H1211.55L1211.43 27.8C1211.8 27.672 1212.19 27.576 1212.59 27.512C1213 27.448 1213.4 27.416 1213.79 27.416C1214.59 27.416 1215.32 27.544 1215.99 27.8C1216.67 28.056 1217.25 28.424 1217.75 28.904C1218.24 29.368 1218.63 29.928 1218.9 30.584C1219.17 31.24 1219.31 31.96 1219.31 32.744C1219.31 33.56 1219.17 34.32 1218.9 35.024C1218.63 35.712 1218.24 36.312 1217.75 36.824C1217.25 37.32 1216.65 37.712 1215.95 38C1215.26 38.288 1214.5 38.432 1213.67 38.432C1212.43 38.432 1211.39 38.152 1210.55 37.592C1209.7 37.032 1209.04 36.28 1208.58 35.336L1210.14 34.64C1210.44 35.344 1210.9 35.904 1211.51 36.32C1212.13 36.736 1212.82 36.944 1213.57 36.944C1214.15 36.944 1214.67 36.848 1215.15 36.656C1215.65 36.448 1216.07 36.168 1216.43 35.816C1216.78 35.448 1217.05 35.016 1217.24 34.52C1217.45 34.024 1217.55 33.488 1217.55 32.912C1217.55 32.288 1217.44 31.728 1217.22 31.232C1217.01 30.72 1216.71 30.288 1216.33 29.936C1215.96 29.584 1215.52 29.312 1215.01 29.12C1214.5 28.928 1213.94 28.832 1213.33 28.832C1212.72 28.832 1212.11 28.92 1211.51 29.096C1210.91 29.256 1210.35 29.48 1209.8 29.768L1209.97 21.008H1218.63V22.544ZM1232.56 22.544H1225.48L1225.36 27.8C1225.72 27.672 1226.11 27.576 1226.51 27.512C1226.92 27.448 1227.32 27.416 1227.71 27.416C1228.51 27.416 1229.24 27.544 1229.92 27.8C1230.59 28.056 1231.17 28.424 1231.67 28.904C1232.16 29.368 1232.55 29.928 1232.82 30.584C1233.09 31.24 1233.23 31.96 1233.23 32.744C1233.23 33.56 1233.09 34.32 1232.82 35.024C1232.55 35.712 1232.16 36.312 1231.67 36.824C1231.17 37.32 1230.57 37.712 1229.87 38C1229.18 38.288 1228.42 38.432 1227.59 38.432C1226.36 38.432 1225.32 38.152 1224.47 37.592C1223.62 37.032 1222.96 36.28 1222.5 35.336L1224.06 34.64C1224.36 35.344 1224.82 35.904 1225.43 36.32C1226.05 36.736 1226.74 36.944 1227.49 36.944C1228.07 36.944 1228.6 36.848 1229.08 36.656C1229.57 36.448 1230 36.168 1230.35 35.816C1230.7 35.448 1230.97 35.016 1231.16 34.52C1231.37 34.024 1231.48 33.488 1231.48 32.912C1231.48 32.288 1231.36 31.728 1231.14 31.232C1230.93 30.72 1230.64 30.288 1230.25 29.936C1229.88 29.584 1229.44 29.312 1228.93 29.12C1228.42 28.928 1227.86 28.832 1227.25 28.832C1226.64 28.832 1226.04 28.92 1225.43 29.096C1224.84 29.256 1224.27 29.48 1223.72 29.768L1223.89 21.008H1232.56V22.544ZM1242.04 20.576C1243.09 20.576 1243.97 20.84 1244.68 21.368C1245.4 21.88 1245.97 22.56 1246.41 23.408C1246.84 24.24 1247.14 25.192 1247.32 26.264C1247.51 27.336 1247.61 28.424 1247.61 29.528C1247.61 30.632 1247.51 31.72 1247.32 32.792C1247.14 33.848 1246.84 34.8 1246.41 35.648C1245.97 36.48 1245.4 37.152 1244.68 37.664C1243.97 38.176 1243.09 38.432 1242.04 38.432C1240.97 38.432 1240.07 38.176 1239.35 37.664C1238.65 37.152 1238.08 36.48 1237.65 35.648C1237.21 34.8 1236.91 33.848 1236.73 32.792C1236.56 31.72 1236.47 30.632 1236.47 29.528C1236.47 28.424 1236.56 27.336 1236.73 26.264C1236.91 25.192 1237.21 24.24 1237.65 23.408C1238.08 22.56 1238.65 21.88 1239.35 21.368C1240.07 20.84 1240.97 20.576 1242.04 20.576ZM1242.04 22.04C1241.29 22.04 1240.66 22.272 1240.17 22.736C1239.67 23.2 1239.28 23.792 1238.99 24.512C1238.7 25.232 1238.5 26.04 1238.39 26.936C1238.28 27.816 1238.22 28.68 1238.22 29.528C1238.22 30.376 1238.28 31.24 1238.39 32.12C1238.5 33 1238.7 33.8 1238.99 34.52C1239.28 35.224 1239.67 35.808 1240.17 36.272C1240.66 36.72 1241.29 36.944 1242.04 36.944C1242.77 36.944 1243.39 36.72 1243.89 36.272C1244.38 35.808 1244.77 35.224 1245.06 34.52C1245.35 33.8 1245.55 33 1245.66 32.12C1245.79 31.24 1245.85 30.376 1245.85 29.528C1245.85 28.68 1245.79 27.816 1245.66 26.936C1245.55 26.04 1245.35 25.232 1245.06 24.512C1244.77 23.792 1244.38 23.2 1243.89 22.736C1243.39 22.272 1242.77 22.04 1242.04 22.04Z" fill="#222222"/>
<path d="M1161.01 59H1160.02V52.79H1157.75V51.92H1163.28V52.79H1161.01V59ZM1172.26 55.45C1172.26 55.9967 1172.16 56.5 1171.97 56.96C1171.78 57.4133 1171.52 57.8067 1171.19 58.14C1170.85 58.4667 1170.46 58.7233 1170 58.91C1169.54 59.09 1169.04 59.18 1168.5 59.18C1167.96 59.18 1167.46 59.09 1167 58.91C1166.54 58.7233 1166.15 58.4667 1165.82 58.14C1165.48 57.8067 1165.22 57.4133 1165.04 56.96C1164.85 56.5 1164.76 55.9967 1164.76 55.45C1164.76 54.8967 1164.85 54.3933 1165.04 53.94C1165.22 53.48 1165.48 53.09 1165.82 52.77C1166.15 52.4433 1166.54 52.19 1167 52.01C1167.46 51.83 1167.96 51.74 1168.5 51.74C1169.04 51.74 1169.54 51.83 1170 52.01C1170.46 52.19 1170.85 52.4433 1171.19 52.77C1171.52 53.09 1171.78 53.48 1171.97 53.94C1172.16 54.3933 1172.26 54.8967 1172.26 55.45ZM1171.19 55.45C1171.19 55.0633 1171.12 54.7 1171 54.36C1170.87 54.0133 1170.69 53.71 1170.46 53.45C1170.22 53.19 1169.94 52.9867 1169.61 52.84C1169.28 52.6867 1168.91 52.61 1168.5 52.61C1168.09 52.61 1167.72 52.6867 1167.39 52.84C1167.06 52.9867 1166.78 53.19 1166.55 53.45C1166.32 53.71 1166.14 54.0133 1166.02 54.36C1165.89 54.7 1165.83 55.0633 1165.83 55.45C1165.83 55.8433 1165.89 56.2133 1166.02 56.56C1166.14 56.9067 1166.32 57.21 1166.56 57.47C1166.79 57.7233 1167.07 57.9233 1167.4 58.07C1167.72 58.2167 1168.09 58.29 1168.5 58.29C1168.9 58.29 1169.27 58.2167 1169.61 58.07C1169.94 57.9233 1170.22 57.7233 1170.46 57.47C1170.69 57.21 1170.87 56.9067 1171 56.56C1171.12 56.2133 1171.19 55.8433 1171.19 55.45ZM1176.98 59H1175.99V52.79H1173.72V51.92H1179.25V52.79H1176.98V59ZM1181.09 59H1179.99L1183.06 51.92H1183.96L1187 59H1185.88L1185.16 57.26H1181.8L1181.09 59ZM1182.15 56.39H1184.8L1183.48 53.07L1182.15 56.39ZM1190.1 58.12H1193.26V59H1189.11V51.92H1190.1V58.12ZM1198.98 59H1197.88L1200.95 51.92H1201.85L1204.89 59H1203.77L1203.05 57.26H1199.69L1198.98 59ZM1200.04 56.39H1202.69L1201.37 53.07L1200.04 56.39ZM1210.66 57.36H1210.68L1212.77 51.92H1214.31V59H1213.32V53.08H1213.3L1210.95 59H1210.32L1207.98 53.08H1207.96V59H1207V51.92H1208.54L1210.66 57.36ZM1224.38 55.45C1224.38 55.9967 1224.28 56.5 1224.09 56.96C1223.9 57.4133 1223.64 57.8067 1223.31 58.14C1222.97 58.4667 1222.58 58.7233 1222.12 58.91C1221.66 59.09 1221.16 59.18 1220.62 59.18C1220.08 59.18 1219.58 59.09 1219.12 58.91C1218.66 58.7233 1218.27 58.4667 1217.94 58.14C1217.6 57.8067 1217.34 57.4133 1217.16 56.96C1216.97 56.5 1216.88 55.9967 1216.88 55.45C1216.88 54.8967 1216.97 54.3933 1217.16 53.94C1217.34 53.48 1217.6 53.09 1217.94 52.77C1218.27 52.4433 1218.66 52.19 1219.12 52.01C1219.58 51.83 1220.08 51.74 1220.62 51.74C1221.16 51.74 1221.66 51.83 1222.12 52.01C1222.58 52.19 1222.97 52.4433 1223.31 52.77C1223.64 53.09 1223.9 53.48 1224.09 53.94C1224.28 54.3933 1224.38 54.8967 1224.38 55.45ZM1223.31 55.45C1223.31 55.0633 1223.24 54.7 1223.12 54.36C1222.99 54.0133 1222.81 53.71 1222.58 53.45C1222.34 53.19 1222.06 52.9867 1221.73 52.84C1221.4 52.6867 1221.03 52.61 1220.62 52.61C1220.21 52.61 1219.84 52.6867 1219.51 52.84C1219.18 52.9867 1218.9 53.19 1218.67 53.45C1218.44 53.71 1218.26 54.0133 1218.14 54.36C1218.01 54.7 1217.95 55.0633 1217.95 55.45C1217.95 55.8433 1218.01 56.2133 1218.14 56.56C1218.26 56.9067 1218.44 57.21 1218.68 57.47C1218.91 57.7233 1219.19 57.9233 1219.52 58.07C1219.84 58.2167 1220.21 58.29 1220.62 58.29C1221.02 58.29 1221.39 58.2167 1221.73 58.07C1222.06 57.9233 1222.34 57.7233 1222.58 57.47C1222.81 57.21 1222.99 56.9067 1223.12 56.56C1223.24 56.2133 1223.31 55.8433 1223.31 55.45ZM1229.62 59.18C1229.16 59.18 1228.75 59.1033 1228.4 58.95C1228.06 58.79 1227.77 58.58 1227.54 58.32C1227.32 58.06 1227.15 57.7633 1227.03 57.43C1226.93 57.09 1226.87 56.74 1226.87 56.38V51.92H1227.86V56.32C1227.86 56.56 1227.89 56.8 1227.95 57.04C1228.01 57.2733 1228.11 57.4833 1228.24 57.67C1228.38 57.8567 1228.56 58.0067 1228.78 58.12C1229.01 58.2333 1229.29 58.29 1229.62 58.29C1229.95 58.29 1230.23 58.2333 1230.45 58.12C1230.68 58.0067 1230.86 57.8567 1230.99 57.67C1231.13 57.4833 1231.23 57.2733 1231.29 57.04C1231.35 56.8 1231.38 56.56 1231.38 56.32V51.92H1232.37V56.38C1232.37 56.74 1232.32 57.09 1232.2 57.43C1232.1 57.7633 1231.93 58.06 1231.7 58.32C1231.48 58.58 1231.19 58.79 1230.84 58.95C1230.5 59.1033 1230.09 59.18 1229.62 59.18ZM1240.23 57.58H1240.25V51.92H1241.24V59H1239.99L1236.25 53.22H1236.23V59H1235.24V51.92H1236.53L1240.23 57.58ZM1246.65 59H1245.66V52.79H1243.39V51.92H1248.92V52.79H1246.65V59Z" fill="#222222"/>
<path d="M11.556 51H8.964V27.816H0.432V25.512H20.088V27.816H11.556V51ZM48.0254 38.256C48.0254 40.2 47.6894 41.988 47.0174 43.62C46.3454 45.252 45.4094 46.668 44.2094 47.868C43.0334 49.044 41.6294 49.968 39.9974 50.64C38.3894 51.312 36.6374 51.648 34.7414 51.648C32.8454 51.648 31.0814 51.312 29.4494 50.64C27.8414 49.968 26.4374 49.044 25.2374 47.868C24.0614 46.668 23.1374 45.252 22.4654 43.62C21.7934 41.988 21.4574 40.2 21.4574 38.256C21.4574 36.312 21.7934 34.524 22.4654 32.892C23.1374 31.26 24.0614 29.856 25.2374 28.68C26.4374 27.48 27.8414 26.544 29.4494 25.872C31.0814 25.2 32.8454 24.864 34.7414 24.864C36.6374 24.864 38.3894 25.2 39.9974 25.872C41.6294 26.544 43.0334 27.48 44.2094 28.68C45.4094 29.856 46.3454 31.26 47.0174 32.892C47.6894 34.524 48.0254 36.312 48.0254 38.256ZM45.2894 38.256C45.2894 36.768 45.0494 35.352 44.5694 34.008C44.0894 32.664 43.3934 31.488 42.4814 30.48C41.5694 29.448 40.4534 28.632 39.1334 28.032C37.8374 27.432 36.3734 27.132 34.7414 27.132C33.1094 27.132 31.6334 27.432 30.3134 28.032C29.0174 28.632 27.9134 29.448 27.0014 30.48C26.0894 31.488 25.3934 32.664 24.9134 34.008C24.4334 35.352 24.1934 36.768 24.1934 38.256C24.1934 39.744 24.4334 41.16 24.9134 42.504C25.3934 43.848 26.0894 45.024 27.0014 46.032C27.9134 47.04 29.0174 47.844 30.3134 48.444C31.6334 49.044 33.1094 49.344 34.7414 49.344C36.3734 49.344 37.8374 49.044 39.1334 48.444C40.4534 47.844 41.5694 47.04 42.4814 46.032C43.3934 45.024 44.0894 43.848 44.5694 42.504C45.0494 41.16 45.2894 39.744 45.2894 38.256ZM60.4935 51H57.9015V27.816H49.3695V25.512H69.0255V27.816H60.4935V51ZM70.5282 51H67.6842L78.7002 25.512H81.2202L92.1642 51H89.2842L86.4762 44.304H73.3002L70.5282 51ZM74.2722 41.928H85.5042L79.8882 28.392L74.2722 41.928ZM98.5073 48.696H110.387V51H95.9153V25.512H98.5073V48.696Z" fill="#222222"/>
<path d="M0.5 80.5H110.5V139.5H0.5V80.5Z" fill="#DCDFD8" stroke="#A8A18F"/>
<path fill-rule="evenodd" clip-rule="evenodd" d="M111 80H288V140H111V80Z" fill="#A8A18F"/>
<path fill-rule="evenodd" clip-rule="evenodd" d="M288 80H296V140H288V80Z" fill="#A8A18F"/>
<path fill-rule="evenodd" clip-rule="evenodd" d="M296 80H560V140H296V80Z" fill="#A8A18F"/>
<path fill-rule="evenodd" clip-rule="evenodd" d="M560 80H586V140H560V80Z" fill="#A8A18F"/>
<path fill-rule="evenodd" clip-rule="evenodd" d="M586 80H737V140H586V80Z" fill="#A8A18F"/>
<path d="M737.5 80.5H864.5V139.5H737.5V80.5Z" fill="#DCDFD8" stroke="#A8A18F"/>
<path d="M865.5 80.5H992.5V139.5H865.5V80.5Z" fill="#DCDFD8" stroke="#A8A18F"/>
<path d="M993.5 80.5H1120.5V139.5H993.5V80.5Z" fill="#DCDFD8" stroke="#A8A18F"/>
<path d="M1121.5 80.5H1248.5V139.5H1121.5V80.5Z" fill="#DCDFD8" stroke="#A8A18F"/>
<path fill-rule="evenodd" clip-rule="evenodd" d="M1249 80H1268V140H1249V80Z" fill="#A8A18F"/>
</svg>
