<svg width="2000" height="1772" viewBox="0 0 2000 1772" fill="none" xmlns="http://www.w3.org/2000/svg">
<g clip-path="url(#clip0_1_1150)">
<rect width="2000" height="1772" fill="#F3F3F3"/>
<path d="M81.0431 -150.347L79.3708 -160.141L52.5459 -155.568L49.8122 -171.581L74.2551 -175.747L72.6445 -185.201L48.2016 -181.035L45.7209 -195.599L72.5458 -200.171L70.8735 -209.964L33.4038 -203.578L43.5673 -143.961L81.0431 -150.347Z" fill="black"/>
<path fill-rule="evenodd" clip-rule="evenodd" d="M-20.3757 -127.509L-5.03484 -111.113L-12.9212 -103.732L-54.2416 -147.885L-36.9569 -164.059C-27.6882 -172.735 -17.1113 -172.809 -9.08292 -164.232C-2.82564 -157.543 -1.93083 -149.508 -6.26898 -142.134L-6.2073 -142.072L19.0625 -133.655L10.4233 -125.571L-13.6926 -133.766L-20.3757 -127.509ZM-31.0452 -155.975L-39.561 -148.009L-27.1637 -134.76L-18.6478 -142.726C-13.4766 -147.571 -12.8842 -152.501 -16.957 -156.852C-21.0298 -161.208 -25.8122 -160.875 -31.0452 -155.975Z" fill="black"/>
<path fill-rule="evenodd" clip-rule="evenodd" d="M-33.8898 -49.904L-55.0375 -54.6926L-52.0816 -67.7502C-49.1998 -80.4746 -54.4759 -89.6384 -66.3549 -92.3289C-78.0673 -94.9824 -87.0644 -88.8671 -89.8907 -76.4018L-95.2532 -52.7241L-36.2718 -39.3703L-33.8898 -49.904ZM-61.8069 -69.7743L-64.7258 -56.8833L-83.1767 -61.061L-80.2579 -73.952C-78.7708 -80.524 -74.9757 -83.2084 -68.7368 -81.7952C-62.8375 -80.4623 -60.3753 -76.0933 -61.8069 -69.7743Z" fill="black"/>
<path d="M-23.5322 16.9963L-23.5289 16.995L-23.5351 16.9889L-23.5322 16.9963Z" fill="black"/>
<path fill-rule="evenodd" clip-rule="evenodd" d="M-23.5322 16.9963L-43.7386 24.8568L-48.5951 12.3792C-53.3282 0.22257 -62.8252 -4.4241 -74.1797 -0.00575892C-85.3675 4.3509 -89.4095 14.4527 -84.7751 26.3625L-75.9692 48.985L-19.6166 27.0536L-23.5322 16.9963ZM-75.42 23.0055L-70.6252 35.3226L-52.995 28.4606L-57.7898 16.1435C-60.1409 10.1084 -64.6271 7.86829 -70.2612 10.059C-76.2161 12.3792 -77.8637 16.7235 -75.42 23.0055Z" fill="black"/>
<path fill-rule="evenodd" clip-rule="evenodd" d="M-0.344832 63.462L19.9204 77.2972V77.291L28.6893 70.7252L37.6802 76.8652L-14.3281 114.588L-22.6032 108.935L-6.41696 46.7635L2.57402 52.9036L-0.344832 63.462ZM-10.1072 99.3704L-9.96526 99.4692L11.8489 83.2953L-2.99213 73.1627L-10.1072 99.3704Z" fill="black"/>
<path d="M158.926 -147.879C152.052 -135.809 140.068 -131.588 127.985 -136.951L127.973 -136.945C113.373 -143.43 109.022 -158.968 116.773 -176.42C124.493 -193.791 139.05 -201.035 153.576 -194.581C165.177 -189.428 170.311 -177.79 166.51 -165.392L156.1 -168.126C158.235 -176.543 155.939 -182.665 149.546 -185.503C140.704 -189.434 132.083 -184.281 126.646 -172.045C121.179 -159.727 123.172 -149.953 132.015 -146.028C138.723 -143.048 144.906 -145.689 149.836 -153.803L158.926 -147.879Z" fill="black"/>
<path d="M216.359 -144.867L168.471 -107.936L175.066 -99.3842L222.954 -136.316L216.359 -144.867Z" fill="black"/>
<path fill-rule="evenodd" clip-rule="evenodd" d="M202.258 -66.5223L191.447 -68.2871L189.633 -79.0183L252.878 -67.7133L254.55 -57.8337L198.531 -26.3744L196.717 -37.1056L206.349 -42.3262L202.258 -66.5223ZM238.994 -60.1971L238.963 -60.3699V-60.3637L212.181 -64.8623L215.174 -47.1456L238.994 -60.1971Z" fill="black"/>
<path d="M237 21.5303L189.879 3.24596L185.973 13.3169L233.094 31.5951L226.596 48.3491L235.859 51.9467L252.767 8.3678L243.504 4.77637L237 21.5303Z" fill="black"/>
<path d="M138.247 79.4812L132.36 71.4837L162.98 48.9538L198.821 97.6607L168.201 120.191L162.314 112.187L184.233 96.0563L175.476 84.1588L155.507 98.8579L149.824 91.1319L169.793 76.439L160.166 63.3567L138.247 79.4812Z" fill="black"/>
<path fill-rule="evenodd" clip-rule="evenodd" d="M118.79 -6.10875H42.2219L80.5062 -72.4212L118.79 -6.10875ZM80.5062 -50.206L61.4566 -17.2164H99.5558L80.5062 -50.206Z" fill="black"/>
<path fill-rule="evenodd" clip-rule="evenodd" d="M80.5062 -121.357C31.9968 -121.357 -7.46616 -81.8939 -7.46616 -33.3844C-7.46616 15.125 31.9968 54.5879 80.5062 54.5879C129.016 54.5879 168.479 15.125 168.479 -33.3844C168.479 -81.8939 129.016 -121.357 80.5062 -121.357ZM80.5062 45.9486C36.7607 45.9486 1.17312 10.3611 1.17312 -33.3844C1.17312 -77.1299 36.7607 -112.718 80.5062 -112.718C124.252 -112.718 159.839 -77.1299 159.839 -33.3844C159.839 10.3611 124.252 45.9486 80.5062 45.9486Z" fill="black"/>
<path d="M90.6451 113.903C90.6451 119.502 86.1058 124.041 80.5063 124.041C74.9069 124.041 70.3675 119.502 70.3675 113.903C70.3675 108.303 74.9069 103.764 80.5063 103.764C86.1058 103.764 90.6451 108.303 90.6451 113.903Z" fill="black"/>
<path fill-rule="evenodd" clip-rule="evenodd" d="M279.073 -117.272C268.219 -142.936 252.681 -165.978 232.89 -185.768C213.1 -205.559 190.052 -221.097 164.394 -231.952C137.822 -243.195 109.596 -248.891 80.5063 -248.891C51.4167 -248.891 23.191 -243.195 -3.3809 -231.952C-29.0457 -221.097 -52.0878 -205.559 -71.8779 -185.768C-91.6679 -165.978 -107.206 -142.93 -118.061 -117.272C-129.298 -90.6996 -135 -62.4739 -135 -33.3843C-135 -4.29469 -129.298 23.931 -118.061 50.5029C-107.206 76.1676 -91.6679 99.2097 -71.8779 119C-52.0878 138.79 -29.0395 154.328 -3.3809 165.183C23.191 176.42 51.4167 182.122 80.5063 182.122C109.596 182.122 137.822 176.426 164.394 165.183C190.058 154.328 213.1 138.79 232.89 119C252.681 99.2097 268.219 76.1615 279.073 50.5029C290.311 23.931 296.013 -4.29469 296.013 -33.3843C296.013 -62.4739 290.311 -90.6996 279.073 -117.272ZM224.85 110.959C186.294 149.515 135.032 170.749 80.5063 170.749C25.9802 170.749 -25.2814 149.515 -63.8372 110.959C-102.393 72.4034 -123.627 21.1417 -123.627 -33.3843C-123.627 -87.9104 -102.393 -139.172 -63.8372 -177.728C-25.2814 -216.284 25.9802 -237.518 80.5063 -237.518C135.032 -237.518 186.294 -216.284 224.85 -177.728C263.406 -139.172 284.64 -87.9104 284.64 -33.3843C284.64 21.1417 263.406 72.4034 224.85 110.959Z" fill="black"/>
<path fill-rule="evenodd" clip-rule="evenodd" d="M540.252 -129.003L446.462 33.4467H634.018L540.228 -129.003H540.252ZM482.517 12.6099L540.252 -87.3536L597.987 12.6099H482.517Z" fill="black"/>
<path fill-rule="evenodd" clip-rule="evenodd" d="M738.806 -117.262C727.953 -142.922 712.422 -165.978 692.622 -185.753C672.823 -205.553 649.791 -221.084 624.131 -231.937C597.555 -243.199 569.338 -248.891 540.253 -248.891C511.169 -248.891 482.952 -243.199 456.376 -231.961C430.716 -221.108 407.66 -205.577 387.884 -185.777C368.085 -165.978 352.554 -142.946 341.701 -117.286C330.439 -90.7096 324.747 -62.469 324.747 -33.3843C324.747 -4.29961 330.439 23.9169 341.677 50.4934C352.529 76.1535 368.061 99.209 387.86 118.985C407.66 138.784 430.691 154.316 456.352 165.168C482.928 176.406 511.145 182.098 540.229 182.098C569.314 182.098 597.53 176.406 624.107 165.168C649.767 154.316 672.823 138.784 692.598 118.985C712.398 99.1849 727.929 76.1535 738.782 50.4934C750.02 23.9169 755.711 -4.29961 755.711 -33.3843C755.711 -62.469 750.02 -90.7095 738.782 -117.262H738.806ZM684.592 110.954C646.029 149.516 594.781 170.739 540.253 170.739C485.726 170.739 434.454 149.516 395.915 110.954C357.353 72.3913 336.13 21.1435 336.13 -33.3843C336.13 -87.912 357.353 -139.184 395.915 -177.722C434.478 -216.285 485.726 -237.508 540.253 -237.508C594.781 -237.508 646.053 -216.285 684.592 -177.722C723.154 -139.16 744.377 -87.912 744.377 -33.3843C744.377 21.1435 723.154 72.4155 684.592 110.954Z" fill="black"/>
<path d="M1000.49 -150.347L998.816 -160.141L971.991 -155.568L969.257 -171.581L993.7 -175.747L992.09 -185.201L967.647 -181.035L965.166 -195.599L991.991 -200.171L990.319 -209.964L952.849 -203.578L963.013 -143.961L1000.49 -150.347Z" fill="black"/>
<path fill-rule="evenodd" clip-rule="evenodd" d="M899.07 -127.509L914.41 -111.113L906.524 -103.732L865.204 -147.885L882.488 -164.059C891.757 -172.735 902.334 -172.809 910.362 -164.232C916.62 -157.543 917.514 -149.508 913.176 -142.134L913.238 -142.072L938.508 -133.655L929.869 -125.571L905.753 -133.766L899.07 -127.509ZM888.4 -155.975L879.884 -148.009L892.282 -134.76L900.797 -142.726C905.969 -147.571 906.561 -152.501 902.488 -156.852C898.415 -161.208 893.633 -160.875 888.4 -155.975Z" fill="black"/>
<path fill-rule="evenodd" clip-rule="evenodd" d="M885.556 -49.904L864.408 -54.6926L867.364 -67.7502C870.246 -80.4746 864.969 -89.6384 853.09 -92.3289C841.378 -94.9824 832.381 -88.8671 829.555 -76.4018L824.192 -52.7241L883.174 -39.3703L885.556 -49.904ZM857.638 -69.7743L854.72 -56.8833L836.269 -61.061L839.187 -73.952C840.675 -80.524 844.47 -83.2084 850.708 -81.7952C856.608 -80.4623 859.07 -76.0933 857.638 -69.7743Z" fill="black"/>
<path d="M895.913 16.9963L895.916 16.995L895.91 16.9889L895.913 16.9963Z" fill="black"/>
<path fill-rule="evenodd" clip-rule="evenodd" d="M895.913 16.9963L875.707 24.8568L870.85 12.3792C866.117 0.22257 856.62 -4.4241 845.266 -0.00575892C834.078 4.3509 830.036 14.4527 834.67 26.3625L843.476 48.985L899.829 27.0536L895.913 16.9963ZM844.025 23.0055L848.82 35.3226L866.45 28.4606L861.656 16.1435C859.304 10.1084 854.818 7.86829 849.184 10.059C843.229 12.3792 841.582 16.7235 844.025 23.0055Z" fill="black"/>
<path fill-rule="evenodd" clip-rule="evenodd" d="M919.1 63.462L939.366 77.2972V77.291L948.135 70.7252L957.126 76.8652L905.117 114.588L896.842 108.935L913.028 46.7635L922.019 52.9036L919.1 63.462ZM909.338 99.3704L909.48 99.4692L931.294 83.2953L916.453 73.1627L909.338 99.3704Z" fill="black"/>
<path d="M1078.37 -147.879C1071.5 -135.809 1059.51 -131.588 1047.43 -136.951L1047.42 -136.945C1032.82 -143.43 1028.47 -158.968 1036.22 -176.42C1043.94 -193.791 1058.5 -201.035 1073.02 -194.581C1084.62 -189.428 1089.76 -177.79 1085.96 -165.392L1075.55 -168.126C1077.68 -176.543 1075.38 -182.665 1068.99 -185.503C1060.15 -189.434 1051.53 -184.281 1046.09 -172.045C1040.62 -159.727 1042.62 -149.953 1051.46 -146.028C1058.17 -143.048 1064.35 -145.689 1069.28 -153.803L1078.37 -147.879Z" fill="black"/>
<path d="M1135.8 -144.867L1087.92 -107.936L1094.51 -99.3842L1142.4 -136.316L1135.8 -144.867Z" fill="black"/>
<path fill-rule="evenodd" clip-rule="evenodd" d="M1121.7 -66.5223L1110.89 -68.2871L1109.08 -79.0183L1172.32 -67.7133L1174 -57.8337L1117.98 -26.3744L1116.16 -37.1056L1125.79 -42.3262L1121.7 -66.5223ZM1158.44 -60.1971L1158.41 -60.3699V-60.3637L1131.63 -64.8623L1134.62 -47.1456L1158.44 -60.1971Z" fill="black"/>
<path d="M1156.45 21.5303L1109.32 3.24596L1105.42 13.3169L1152.54 31.5951L1146.04 48.3491L1155.3 51.9467L1172.21 8.3678L1162.95 4.77637L1156.45 21.5303Z" fill="black"/>
<path d="M1057.69 79.4812L1051.81 71.4837L1082.43 48.9538L1118.27 97.6607L1087.65 120.191L1081.76 112.187L1103.68 96.0563L1094.92 84.1588L1074.95 98.8579L1069.27 91.1319L1089.24 76.439L1079.61 63.3567L1057.69 79.4812Z" fill="black"/>
<path fill-rule="evenodd" clip-rule="evenodd" d="M1038.24 -6.10875H961.667L999.952 -72.4212L1038.24 -6.10875ZM999.952 -50.206L980.902 -17.2164H1019L999.952 -50.206Z" fill="black"/>
<path fill-rule="evenodd" clip-rule="evenodd" d="M999.952 -121.357C951.442 -121.357 911.979 -81.8939 911.979 -33.3844C911.979 15.125 951.442 54.5879 999.952 54.5879C1048.46 54.5879 1087.92 15.125 1087.92 -33.3844C1087.92 -81.8939 1048.46 -121.357 999.952 -121.357ZM999.952 45.9486C956.206 45.9486 920.618 10.3611 920.618 -33.3844C920.618 -77.1299 956.206 -112.718 999.952 -112.718C1043.7 -112.718 1079.28 -77.1299 1079.28 -33.3844C1079.28 10.3611 1043.7 45.9486 999.952 45.9486Z" fill="black"/>
<path d="M1010.09 113.903C1010.09 119.502 1005.55 124.041 999.952 124.041C994.352 124.041 989.813 119.502 989.813 113.903C989.813 108.303 994.352 103.764 999.952 103.764C1005.55 103.764 1010.09 108.303 1010.09 113.903Z" fill="black"/>
<path fill-rule="evenodd" clip-rule="evenodd" d="M1198.52 -117.272C1187.66 -142.936 1172.13 -165.978 1152.34 -185.768C1132.55 -205.559 1109.5 -221.097 1083.84 -231.952C1057.27 -243.195 1029.04 -248.891 999.952 -248.891C970.862 -248.891 942.636 -243.195 916.064 -231.952C890.4 -221.097 867.358 -205.559 847.567 -185.768C827.777 -165.978 812.239 -142.93 801.384 -117.272C790.147 -90.6996 784.445 -62.4739 784.445 -33.3843C784.445 -4.29469 790.147 23.931 801.384 50.5029C812.239 76.1676 827.777 99.2097 847.567 119C867.358 138.79 890.406 154.328 916.064 165.183C942.636 176.42 970.862 182.122 999.952 182.122C1029.04 182.122 1057.27 176.426 1083.84 165.183C1109.5 154.328 1132.55 138.79 1152.34 119C1172.13 99.2097 1187.66 76.1615 1198.52 50.5029C1209.76 23.931 1215.46 -4.29469 1215.46 -33.3843C1215.46 -62.4739 1209.76 -90.6996 1198.52 -117.272ZM1144.3 110.959C1105.74 149.515 1054.48 170.749 999.952 170.749C945.426 170.749 894.164 149.515 855.608 110.959C817.052 72.4034 795.818 21.1417 795.818 -33.3843C795.818 -87.9104 817.052 -139.172 855.608 -177.728C894.164 -216.284 945.426 -237.518 999.952 -237.518C1054.48 -237.518 1105.74 -216.284 1144.3 -177.728C1182.85 -139.172 1204.08 -87.9104 1204.08 -33.3843C1204.08 21.1417 1182.85 72.4034 1144.3 110.959Z" fill="black"/>
<path fill-rule="evenodd" clip-rule="evenodd" d="M1459.7 -129.003L1365.91 33.4467H1553.46L1459.67 -129.003H1459.7ZM1401.96 12.6099L1459.7 -87.3536L1517.43 12.6099H1401.96Z" fill="black"/>
<path fill-rule="evenodd" clip-rule="evenodd" d="M1658.25 -117.262C1647.4 -142.922 1631.87 -165.978 1612.07 -185.753C1592.27 -205.553 1569.24 -221.084 1543.58 -231.937C1517 -243.199 1488.78 -248.891 1459.7 -248.891C1430.61 -248.891 1402.4 -243.199 1375.82 -231.961C1350.16 -221.108 1327.11 -205.577 1307.33 -185.777C1287.53 -165.978 1272 -142.946 1261.15 -117.286C1249.88 -90.7096 1244.19 -62.469 1244.19 -33.3843C1244.19 -4.29961 1249.88 23.9169 1261.12 50.4934C1271.97 76.1535 1287.51 99.209 1307.31 118.985C1327.11 138.784 1350.14 154.316 1375.8 165.168C1402.37 176.406 1430.59 182.098 1459.67 182.098C1488.76 182.098 1516.98 176.406 1543.55 165.168C1569.21 154.316 1592.27 138.784 1612.04 118.985C1631.84 99.1849 1647.37 76.1535 1658.23 50.4934C1669.47 23.9169 1675.16 -4.29961 1675.16 -33.3843C1675.16 -62.469 1669.47 -90.7095 1658.23 -117.262H1658.25ZM1604.04 110.954C1565.47 149.516 1514.23 170.739 1459.7 170.739C1405.17 170.739 1353.9 149.516 1315.36 110.954C1276.8 72.3913 1255.58 21.1435 1255.58 -33.3843C1255.58 -87.912 1276.8 -139.184 1315.36 -177.722C1353.92 -216.285 1405.17 -237.508 1459.7 -237.508C1514.23 -237.508 1565.5 -216.285 1604.04 -177.722C1642.6 -139.16 1663.82 -87.912 1663.82 -33.3843C1663.82 21.1435 1642.6 72.4155 1604.04 110.954Z" fill="black"/>
<path d="M1919.93 -150.347L1918.26 -160.141L1891.44 -155.568L1888.7 -171.581L1913.15 -175.747L1911.54 -185.201L1887.09 -181.035L1884.61 -195.599L1911.44 -200.171L1909.76 -209.964L1872.29 -203.578L1882.46 -143.961L1919.93 -150.347Z" fill="black"/>
<path fill-rule="evenodd" clip-rule="evenodd" d="M1818.51 -127.509L1833.86 -111.113L1825.97 -103.732L1784.65 -147.885L1801.93 -164.059C1811.2 -172.735 1821.78 -172.809 1829.81 -164.232C1836.06 -157.543 1836.96 -149.508 1832.62 -142.134L1832.68 -142.072L1857.95 -133.655L1849.31 -125.571L1825.2 -133.766L1818.51 -127.509ZM1807.85 -155.975L1799.33 -148.009L1811.73 -134.76L1820.24 -142.726C1825.41 -147.571 1826.01 -152.501 1821.93 -156.852C1817.86 -161.208 1813.08 -160.875 1807.85 -155.975Z" fill="black"/>
<path fill-rule="evenodd" clip-rule="evenodd" d="M1805 -49.904L1783.85 -54.6926L1786.81 -67.7502C1789.69 -80.4746 1784.41 -89.6384 1772.54 -92.3289C1760.82 -94.9824 1751.83 -88.8671 1749 -76.4018L1743.64 -52.7241L1802.62 -39.3703L1805 -49.904ZM1777.08 -69.7743L1774.16 -56.8833L1755.71 -61.061L1758.63 -73.952C1760.12 -80.524 1763.91 -83.2084 1770.15 -81.7952C1776.05 -80.4623 1778.52 -76.0933 1777.08 -69.7743Z" fill="black"/>
<path d="M1815.36 16.9963L1815.36 16.995L1815.36 16.9889L1815.36 16.9963Z" fill="black"/>
<path fill-rule="evenodd" clip-rule="evenodd" d="M1815.36 16.9963L1795.15 24.8568L1790.3 12.3792C1785.56 0.22257 1776.07 -4.4241 1764.71 -0.00575892C1753.52 4.3509 1749.48 14.4527 1754.12 26.3625L1762.92 48.985L1819.27 27.0536L1815.36 16.9963ZM1763.47 23.0055L1768.27 35.3226L1785.9 28.4606L1781.1 16.1435C1778.75 10.1084 1774.26 7.86829 1768.63 10.059C1762.67 12.3792 1761.03 16.7235 1763.47 23.0055Z" fill="black"/>
<path fill-rule="evenodd" clip-rule="evenodd" d="M1838.55 63.462L1858.81 77.2972V77.291L1867.58 70.7252L1876.57 76.8652L1824.56 114.588L1816.29 108.935L1832.47 46.7635L1841.46 52.9036L1838.55 63.462ZM1828.78 99.3704L1828.93 99.4692L1850.74 83.2953L1835.9 73.1627L1828.78 99.3704Z" fill="black"/>
<path d="M1997.82 -147.879C1990.94 -135.809 1978.96 -131.588 1966.88 -136.951L1966.86 -136.945C1952.26 -143.43 1947.91 -158.968 1955.66 -176.42C1963.38 -193.791 1977.94 -201.035 1992.47 -194.581C2004.07 -189.428 2009.2 -177.79 2005.4 -165.392L1994.99 -168.126C1997.13 -176.543 1994.83 -182.665 1988.44 -185.503C1979.59 -189.434 1970.97 -184.281 1965.54 -172.045C1960.07 -159.727 1962.06 -149.953 1970.91 -146.028C1977.61 -143.048 1983.8 -145.689 1988.73 -153.803L1997.82 -147.879Z" fill="black"/>
<path d="M2055.25 -144.867L2007.36 -107.936L2013.96 -99.3842L2061.84 -136.316L2055.25 -144.867Z" fill="black"/>
<path fill-rule="evenodd" clip-rule="evenodd" d="M2041.15 -66.5223L2030.34 -68.2871L2028.52 -79.0183L2091.77 -67.7133L2093.44 -57.8337L2037.42 -26.3744L2035.61 -37.1056L2045.24 -42.3262L2041.15 -66.5223ZM2077.88 -60.1971L2077.85 -60.3699V-60.3637L2051.07 -64.8623L2054.06 -47.1456L2077.88 -60.1971Z" fill="black"/>
<path d="M2075.89 21.5303L2028.77 3.24596L2024.86 13.3169L2071.98 31.5951L2065.49 48.3491L2074.75 51.9467L2091.66 8.3678L2082.4 4.77637L2075.89 21.5303Z" fill="black"/>
<path d="M1977.14 79.4812L1971.25 71.4837L2001.87 48.9538L2037.71 97.6607L2007.09 120.191L2001.2 112.187L2023.12 96.0563L2014.37 84.1588L1994.4 98.8579L1988.71 91.1319L2008.68 76.439L1999.06 63.3567L1977.14 79.4812Z" fill="black"/>
<path fill-rule="evenodd" clip-rule="evenodd" d="M1957.68 -6.10875H1881.11L1919.4 -72.4212L1957.68 -6.10875ZM1919.4 -50.206L1900.35 -17.2164H1938.45L1919.4 -50.206Z" fill="black"/>
<path fill-rule="evenodd" clip-rule="evenodd" d="M1919.4 -121.357C1870.89 -121.357 1831.42 -81.8939 1831.42 -33.3844C1831.42 15.125 1870.89 54.5879 1919.4 54.5879C1967.91 54.5879 2007.37 15.125 2007.37 -33.3844C2007.37 -81.8939 1967.91 -121.357 1919.4 -121.357ZM1919.4 45.9486C1875.65 45.9486 1840.06 10.3611 1840.06 -33.3844C1840.06 -77.1299 1875.65 -112.718 1919.4 -112.718C1963.14 -112.718 1998.73 -77.1299 1998.73 -33.3844C1998.73 10.3611 1963.14 45.9486 1919.4 45.9486Z" fill="black"/>
<path d="M1929.54 113.903C1929.54 119.502 1925 124.041 1919.4 124.041C1913.8 124.041 1909.26 119.502 1909.26 113.903C1909.26 108.303 1913.8 103.764 1919.4 103.764C1925 103.764 1929.54 108.303 1929.54 113.903Z" fill="black"/>
<path fill-rule="evenodd" clip-rule="evenodd" d="M2117.96 -117.272C2107.11 -142.936 2091.57 -165.978 2071.78 -185.768C2051.99 -205.559 2028.94 -221.097 2003.28 -231.952C1976.71 -243.195 1948.49 -248.891 1919.4 -248.891C1890.31 -248.891 1862.08 -243.195 1835.51 -231.952C1809.84 -221.097 1786.8 -205.559 1767.01 -185.768C1747.22 -165.978 1731.68 -142.93 1720.83 -117.272C1709.59 -90.6996 1703.89 -62.4739 1703.89 -33.3843C1703.89 -4.29469 1709.59 23.931 1720.83 50.5029C1731.68 76.1676 1747.22 99.2097 1767.01 119C1786.8 138.79 1809.85 154.328 1835.51 165.183C1862.08 176.42 1890.31 182.122 1919.4 182.122C1948.49 182.122 1976.71 176.426 2003.28 165.183C2028.95 154.328 2051.99 138.79 2071.78 119C2091.57 99.2097 2107.11 76.1615 2117.96 50.5029C2129.2 23.931 2134.9 -4.29469 2134.9 -33.3843C2134.9 -62.4739 2129.2 -90.6996 2117.96 -117.272ZM2063.74 110.959C2025.18 149.515 1973.92 170.749 1919.4 170.749C1864.87 170.749 1813.61 149.515 1775.05 110.959C1736.5 72.4034 1715.26 21.1417 1715.26 -33.3843C1715.26 -87.9104 1736.5 -139.172 1775.05 -177.728C1813.61 -216.284 1864.87 -237.518 1919.4 -237.518C1973.92 -237.518 2025.18 -216.284 2063.74 -177.728C2102.3 -139.172 2123.53 -87.9104 2123.53 -33.3843C2123.53 21.1417 2102.3 72.4034 2063.74 110.959Z" fill="black"/>
<path fill-rule="evenodd" clip-rule="evenodd" d="M80.505 330.743L-13.2847 493.193H174.27L80.4808 330.743H80.505ZM22.7697 472.356L80.505 372.393L138.24 472.356H22.7697Z" fill="black"/>
<path fill-rule="evenodd" clip-rule="evenodd" d="M279.059 342.484C268.206 316.824 252.675 293.768 232.875 273.993C213.075 254.193 190.044 238.662 164.384 227.809C137.807 216.547 109.591 210.855 80.5063 210.855C51.4216 210.855 23.2052 216.547 -3.37135 227.785C-29.0315 238.638 -52.087 254.169 -71.8626 273.969C-91.6624 293.768 -107.194 316.8 -118.046 342.46C-129.308 369.037 -135 397.277 -135 426.362C-135 455.446 -129.308 483.663 -118.07 510.239C-107.218 535.9 -91.6865 558.955 -71.8867 578.731C-52.087 598.531 -29.0556 614.062 -3.39548 624.914C23.1811 636.152 51.3975 641.844 80.4822 641.844C109.567 641.844 137.783 636.152 164.36 624.914C190.02 614.062 213.076 598.531 232.851 578.731C252.651 558.931 268.182 535.9 279.035 510.239C290.273 483.663 295.964 455.446 295.964 426.362C295.964 397.277 290.273 369.037 279.035 342.484H279.059ZM224.844 570.7C186.282 609.262 135.034 630.485 80.5063 630.485C25.9786 630.485 -25.2934 609.262 -63.8318 570.7C-102.394 532.137 -123.617 480.89 -123.617 426.362C-123.617 371.834 -102.394 320.562 -63.8318 282.024C-25.2693 243.461 25.9786 222.239 80.5063 222.239C135.034 222.239 186.306 243.461 224.844 282.024C263.407 320.586 284.63 371.834 284.63 426.362C284.63 480.89 263.407 532.162 224.844 570.7Z" fill="black"/>
<path d="M540.741 309.399L539.069 299.605L512.244 304.178L509.51 288.165L533.953 283.999L532.343 274.545L507.9 278.711L505.419 264.148L532.244 259.575L530.572 249.782L493.102 256.169L503.265 315.786L540.741 309.399Z" fill="black"/>
<path fill-rule="evenodd" clip-rule="evenodd" d="M439.323 332.237L454.663 348.633L446.777 356.014L405.457 311.861L422.741 295.687C432.01 287.011 442.587 286.937 450.615 295.514C456.873 302.203 457.767 310.238 453.429 317.612L453.491 317.674L478.761 326.091L470.122 334.175L446.006 325.98L439.323 332.237ZM428.653 303.771L420.137 311.737L432.535 324.986L441.05 317.02C446.222 312.176 446.814 307.245 442.741 302.895C438.668 298.538 433.886 298.871 428.653 303.771Z" fill="black"/>
<path fill-rule="evenodd" clip-rule="evenodd" d="M425.808 409.842L404.661 405.053L407.617 391.996C410.498 379.271 405.222 370.108 393.343 367.417C381.631 364.764 372.634 370.879 369.808 383.344L364.445 407.022L423.426 420.376L425.808 409.842ZM397.891 389.972L394.972 402.863L376.522 398.685L379.44 385.794C380.927 379.222 384.723 376.538 390.961 377.951C396.861 379.284 399.323 383.653 397.891 389.972Z" fill="black"/>
<path d="M436.166 476.742L436.169 476.741L436.163 476.735L436.166 476.742Z" fill="black"/>
<path fill-rule="evenodd" clip-rule="evenodd" d="M436.166 476.742L415.96 484.603L411.103 472.125C406.37 459.969 396.873 455.322 385.519 459.74C374.331 464.097 370.289 474.199 374.923 486.109L383.729 508.731L440.082 486.8L436.166 476.742ZM384.278 482.752L389.073 495.069L406.703 488.207L401.908 475.89C399.557 469.854 395.071 467.614 389.437 469.805C383.482 472.125 381.835 476.47 384.278 482.752Z" fill="black"/>
<path fill-rule="evenodd" clip-rule="evenodd" d="M459.353 523.208L479.619 537.043V537.037L488.388 530.471L497.378 536.611L445.37 574.334L437.095 568.681L453.281 506.51L462.272 512.65L459.353 523.208ZM449.591 559.117L449.733 559.215L471.547 543.041L456.706 532.909L449.591 559.117Z" fill="black"/>
<path d="M618.624 311.867C611.75 323.937 599.766 328.158 587.684 322.795L587.671 322.802C573.071 316.316 568.72 300.778 576.471 283.326C584.191 265.955 598.748 258.711 613.274 265.165C624.876 270.318 630.01 281.956 626.208 294.354L615.798 291.62C617.933 283.203 615.638 277.081 609.245 274.243C600.402 270.312 591.781 275.465 586.344 287.702C580.877 300.019 582.87 309.793 591.713 313.718C598.421 316.699 604.604 314.057 609.535 305.943L618.624 311.867Z" fill="black"/>
<path d="M676.057 314.879L628.169 351.811L634.764 360.362L682.652 323.43L676.057 314.879Z" fill="black"/>
<path fill-rule="evenodd" clip-rule="evenodd" d="M661.956 393.224L651.145 391.459L649.331 380.728L712.576 392.033L714.249 401.912L658.229 433.372L656.415 422.64L666.048 417.42L661.956 393.224ZM698.692 399.549L698.661 399.376V399.382L671.879 394.884L674.872 412.6L698.692 399.549Z" fill="black"/>
<path d="M696.699 481.276L649.577 462.992L645.671 473.063L692.792 491.341L686.294 508.095L695.557 511.693L712.465 468.114L703.203 464.522L696.699 481.276Z" fill="black"/>
<path d="M597.946 539.227L592.059 531.23L622.679 508.7L658.519 557.407L627.899 579.937L622.012 571.933L643.931 555.802L635.175 543.905L615.206 558.604L609.522 550.878L629.491 536.185L619.865 523.103L597.946 539.227Z" fill="black"/>
<path fill-rule="evenodd" clip-rule="evenodd" d="M578.489 453.637H501.92L540.204 387.325L578.489 453.637ZM540.204 409.54L521.155 442.53H559.254L540.204 409.54Z" fill="black"/>
<path fill-rule="evenodd" clip-rule="evenodd" d="M540.204 338.389C491.695 338.389 452.232 377.852 452.232 426.362C452.232 474.871 491.695 514.334 540.204 514.334C588.714 514.334 628.177 474.871 628.177 426.362C628.177 377.852 588.714 338.389 540.204 338.389ZM540.204 505.695C496.459 505.695 460.871 470.107 460.871 426.362C460.871 382.616 496.459 347.029 540.204 347.029C583.95 347.029 619.537 382.616 619.537 426.362C619.537 470.107 583.95 505.695 540.204 505.695Z" fill="black"/>
<path d="M550.343 573.649C550.343 579.248 545.804 583.788 540.205 583.788C534.605 583.788 530.066 579.248 530.066 573.649C530.066 568.049 534.605 563.51 540.205 563.51C545.804 563.51 550.343 568.049 550.343 573.649Z" fill="black"/>
<path fill-rule="evenodd" clip-rule="evenodd" d="M738.772 342.475C727.917 316.81 712.379 293.768 692.589 273.978C672.799 254.188 649.75 238.649 624.092 227.795C597.52 216.551 569.294 210.855 540.205 210.855C511.115 210.855 482.889 216.551 456.317 227.795C430.653 238.649 407.61 254.188 387.82 273.978C368.03 293.768 352.492 316.816 341.637 342.475C330.4 369.046 324.698 397.272 324.698 426.362C324.698 455.451 330.4 483.677 341.637 510.249C352.492 535.914 368.03 558.956 387.82 578.746C407.61 598.536 430.659 614.074 456.317 624.929C482.889 636.166 511.115 641.868 540.205 641.868C569.294 641.868 597.52 636.172 624.092 624.929C649.757 614.074 672.799 598.536 692.589 578.746C712.379 558.956 727.917 535.908 738.772 510.249C750.009 483.677 755.711 455.451 755.711 426.362C755.711 397.272 750.009 369.046 738.772 342.475ZM684.548 570.705C645.992 609.261 594.731 630.495 540.205 630.495C485.678 630.495 434.417 609.261 395.861 570.705C357.305 532.15 336.071 480.888 336.071 426.362C336.071 371.836 357.305 320.574 395.861 282.018C434.417 243.463 485.678 222.228 540.205 222.228C594.731 222.228 645.992 243.463 684.548 282.018C723.104 320.574 744.338 371.836 744.338 426.362C744.338 480.888 723.104 532.15 684.548 570.705Z" fill="black"/>
<path fill-rule="evenodd" clip-rule="evenodd" d="M999.95 330.743L906.161 493.193H1093.72L999.926 330.743H999.95ZM942.215 472.356L999.95 372.393L1057.69 472.356H942.215Z" fill="black"/>
<path fill-rule="evenodd" clip-rule="evenodd" d="M1198.5 342.484C1187.65 316.824 1172.12 293.768 1152.32 273.993C1132.52 254.193 1109.49 238.662 1083.83 227.809C1057.25 216.547 1029.04 210.855 999.952 210.855C970.867 210.855 942.651 216.547 916.074 227.785C890.414 238.638 867.358 254.169 847.583 273.969C827.783 293.768 812.252 316.8 801.399 342.46C790.137 369.037 784.445 397.277 784.445 426.362C784.445 455.446 790.137 483.663 801.375 510.239C812.228 535.9 827.759 558.955 847.559 578.731C867.358 598.531 890.39 614.062 916.05 624.914C942.626 636.152 970.843 641.844 999.928 641.844C1029.01 641.844 1057.23 636.152 1083.81 624.914C1109.47 614.062 1132.52 598.531 1152.3 578.731C1172.1 558.931 1187.63 535.9 1198.48 510.239C1209.72 483.663 1215.41 455.446 1215.41 426.362C1215.41 397.277 1209.72 369.037 1198.48 342.484H1198.5ZM1144.29 570.7C1105.73 609.262 1054.48 630.485 999.952 630.485C945.424 630.485 894.152 609.262 855.614 570.7C817.051 532.137 795.828 480.89 795.828 426.362C795.828 371.834 817.051 320.562 855.614 282.024C894.176 243.461 945.424 222.239 999.952 222.239C1054.48 222.239 1105.75 243.461 1144.29 282.024C1182.85 320.586 1204.07 371.834 1204.07 426.362C1204.07 480.89 1182.85 532.162 1144.29 570.7Z" fill="black"/>
<path d="M1460.19 309.399L1458.52 299.605L1431.69 304.178L1428.96 288.165L1453.4 283.999L1451.79 274.545L1427.35 278.711L1424.87 264.148L1451.69 259.575L1450.02 249.782L1412.55 256.169L1422.71 315.786L1460.19 309.399Z" fill="black"/>
<path fill-rule="evenodd" clip-rule="evenodd" d="M1358.77 332.237L1374.11 348.633L1366.22 356.014L1324.9 311.861L1342.19 295.687C1351.46 287.011 1362.03 286.937 1370.06 295.514C1376.32 302.203 1377.21 310.238 1372.88 317.612L1372.94 317.674L1398.21 326.091L1389.57 334.175L1365.45 325.98L1358.77 332.237ZM1348.1 303.771L1339.58 311.737L1351.98 324.986L1360.5 317.02C1365.67 312.176 1366.26 307.245 1362.19 302.895C1358.11 298.538 1353.33 298.871 1348.1 303.771Z" fill="black"/>
<path fill-rule="evenodd" clip-rule="evenodd" d="M1345.25 409.842L1324.11 405.053L1327.06 391.996C1329.94 379.271 1324.67 370.108 1312.79 367.417C1301.08 364.764 1292.08 370.879 1289.25 383.344L1283.89 407.022L1342.87 420.376L1345.25 409.842ZM1317.34 389.972L1314.42 402.863L1295.97 398.685L1298.89 385.794C1300.37 379.222 1304.17 376.538 1310.41 377.951C1316.31 379.284 1318.77 383.653 1317.34 389.972Z" fill="black"/>
<path d="M1355.61 476.742L1355.62 476.741L1355.61 476.735L1355.61 476.742Z" fill="black"/>
<path fill-rule="evenodd" clip-rule="evenodd" d="M1355.61 476.742L1335.41 484.603L1330.55 472.125C1325.82 459.969 1316.32 455.322 1304.96 459.74C1293.78 464.097 1289.74 474.199 1294.37 486.109L1303.18 508.731L1359.53 486.8L1355.61 476.742ZM1303.72 482.752L1308.52 495.069L1326.15 488.207L1321.35 475.89C1319 469.854 1314.52 467.614 1308.88 469.805C1302.93 472.125 1301.28 476.47 1303.72 482.752Z" fill="black"/>
<path fill-rule="evenodd" clip-rule="evenodd" d="M1378.8 523.208L1399.06 537.043V537.037L1407.83 530.471L1416.82 536.611L1364.82 574.334L1356.54 568.681L1372.73 506.51L1381.72 512.65L1378.8 523.208ZM1369.04 559.117L1369.18 559.215L1390.99 543.041L1376.15 532.909L1369.04 559.117Z" fill="black"/>
<path d="M1538.07 311.867C1531.2 323.937 1519.21 328.158 1507.13 322.795L1507.12 322.802C1492.52 316.316 1488.17 300.778 1495.92 283.326C1503.64 265.955 1518.19 258.711 1532.72 265.165C1544.32 270.318 1549.46 281.956 1545.65 294.354L1535.24 291.62C1537.38 283.203 1535.08 277.081 1528.69 274.243C1519.85 270.312 1511.23 275.465 1505.79 287.702C1500.32 300.019 1502.32 309.793 1511.16 313.718C1517.87 316.699 1524.05 314.057 1528.98 305.943L1538.07 311.867Z" fill="black"/>
<path d="M1595.5 314.879L1547.62 351.811L1554.21 360.362L1602.1 323.43L1595.5 314.879Z" fill="black"/>
<path fill-rule="evenodd" clip-rule="evenodd" d="M1581.4 393.224L1570.59 391.459L1568.78 380.728L1632.02 392.033L1633.69 401.912L1577.68 433.372L1575.86 422.64L1585.49 417.42L1581.4 393.224ZM1618.14 399.549L1618.11 399.376V399.382L1591.33 394.884L1594.32 412.6L1618.14 399.549Z" fill="black"/>
<path d="M1616.14 481.276L1569.02 462.992L1565.12 473.063L1612.24 491.341L1605.74 508.095L1615 511.693L1631.91 468.114L1622.65 464.522L1616.14 481.276Z" fill="black"/>
<path d="M1517.39 539.227L1511.5 531.23L1542.12 508.7L1577.97 557.407L1547.35 579.937L1541.46 571.933L1563.38 555.802L1554.62 543.905L1534.65 558.604L1528.97 550.878L1548.94 536.185L1539.31 523.103L1517.39 539.227Z" fill="black"/>
<path fill-rule="evenodd" clip-rule="evenodd" d="M1497.94 453.637H1421.37L1459.65 387.325L1497.94 453.637ZM1459.65 409.54L1440.6 442.53H1478.7L1459.65 409.54Z" fill="black"/>
<path fill-rule="evenodd" clip-rule="evenodd" d="M1459.65 338.389C1411.14 338.389 1371.68 377.852 1371.68 426.362C1371.68 474.871 1411.14 514.334 1459.65 514.334C1508.16 514.334 1547.62 474.871 1547.62 426.362C1547.62 377.852 1508.16 338.389 1459.65 338.389ZM1459.65 505.695C1415.91 505.695 1380.32 470.107 1380.32 426.362C1380.32 382.616 1415.91 347.029 1459.65 347.029C1503.4 347.029 1538.98 382.616 1538.98 426.362C1538.98 470.107 1503.4 505.695 1459.65 505.695Z" fill="black"/>
<path d="M1469.79 573.649C1469.79 579.248 1465.25 583.788 1459.65 583.788C1454.05 583.788 1449.51 579.248 1449.51 573.649C1449.51 568.049 1454.05 563.51 1459.65 563.51C1465.25 563.51 1469.79 568.049 1469.79 573.649Z" fill="black"/>
<path fill-rule="evenodd" clip-rule="evenodd" d="M1658.22 342.475C1647.36 316.81 1631.83 293.768 1612.03 273.978C1592.24 254.188 1569.2 238.649 1543.54 227.795C1516.97 216.551 1488.74 210.855 1459.65 210.855C1430.56 210.855 1402.34 216.551 1375.76 227.795C1350.1 238.649 1327.06 254.188 1307.27 273.978C1287.48 293.768 1271.94 316.816 1261.08 342.475C1249.85 369.046 1244.14 397.272 1244.14 426.362C1244.14 455.451 1249.85 483.677 1261.08 510.249C1271.94 535.914 1287.48 558.956 1307.27 578.746C1327.06 598.536 1350.11 614.074 1375.76 624.929C1402.34 636.166 1430.56 641.868 1459.65 641.868C1488.74 641.868 1516.97 636.172 1543.54 624.929C1569.2 614.074 1592.24 598.536 1612.03 578.746C1631.83 558.956 1647.36 535.908 1658.22 510.249C1669.46 483.677 1675.16 455.451 1675.16 426.362C1675.16 397.272 1669.46 369.046 1658.22 342.475ZM1603.99 570.705C1565.44 609.261 1514.18 630.495 1459.65 630.495C1405.12 630.495 1353.86 609.261 1315.31 570.705C1276.75 532.15 1255.52 480.888 1255.52 426.362C1255.52 371.836 1276.75 320.574 1315.31 282.018C1353.86 243.463 1405.12 222.228 1459.65 222.228C1514.18 222.228 1565.44 243.463 1603.99 282.018C1642.55 320.574 1663.78 371.836 1663.78 426.362C1663.78 480.888 1642.55 532.15 1603.99 570.705Z" fill="black"/>
<path fill-rule="evenodd" clip-rule="evenodd" d="M1919.4 330.743L1825.61 493.193H2013.16L1919.37 330.743H1919.4ZM1861.66 472.356L1919.4 372.393L1977.13 472.356H1861.66Z" fill="black"/>
<path fill-rule="evenodd" clip-rule="evenodd" d="M2117.95 342.484C2107.1 316.824 2091.57 293.768 2071.77 273.993C2051.97 254.193 2028.93 238.662 2003.27 227.809C1976.7 216.547 1948.48 210.855 1919.4 210.855C1890.31 210.855 1862.1 216.547 1835.52 227.785C1809.86 238.638 1786.8 254.169 1767.03 273.969C1747.23 293.768 1731.7 316.8 1720.84 342.46C1709.58 369.037 1703.89 397.277 1703.89 426.362C1703.89 455.446 1709.58 483.663 1720.82 510.239C1731.67 535.9 1747.2 558.955 1767 578.731C1786.8 598.531 1809.84 614.062 1835.5 624.914C1862.07 636.152 1890.29 641.844 1919.37 641.844C1948.46 641.844 1976.67 636.152 2003.25 624.914C2028.91 614.062 2051.97 598.531 2071.74 578.731C2091.54 558.931 2107.07 535.9 2117.93 510.239C2129.16 483.663 2134.86 455.446 2134.86 426.362C2134.86 397.277 2129.16 369.037 2117.93 342.484H2117.95ZM2063.74 570.7C2025.17 609.262 1973.92 630.485 1919.4 630.485C1864.87 630.485 1813.6 609.262 1775.06 570.7C1736.5 532.137 1715.27 480.89 1715.27 426.362C1715.27 371.834 1736.5 320.562 1775.06 282.024C1813.62 243.461 1864.87 222.239 1919.4 222.239C1973.92 222.239 2025.2 243.461 2063.74 282.024C2102.3 320.586 2123.52 371.834 2123.52 426.362C2123.52 480.89 2102.3 532.162 2063.74 570.7Z" fill="black"/>
<path d="M81.0431 769.145L79.3708 759.352L52.5459 763.924L49.8122 747.911L74.2551 743.745L72.6445 734.292L48.2016 738.457L45.7209 723.894L72.5458 719.321L70.8735 709.528L33.4038 715.915L43.5673 775.532L81.0431 769.145Z" fill="black"/>
<path fill-rule="evenodd" clip-rule="evenodd" d="M-20.3757 791.983L-5.03484 808.379L-12.9212 815.76L-54.2416 771.607L-36.9569 755.433C-27.6882 746.757 -17.1113 746.683 -9.08292 755.26C-2.82564 761.949 -1.93083 769.984 -6.26898 777.358L-6.2073 777.42L19.0625 785.837L10.4233 793.921L-13.6926 785.726L-20.3757 791.983ZM-31.0452 763.517L-39.561 771.484L-27.1637 784.732L-18.6478 776.766C-13.4766 771.922 -12.8842 766.991 -16.957 762.641C-21.0298 758.284 -25.8122 758.617 -31.0452 763.517Z" fill="black"/>
<path fill-rule="evenodd" clip-rule="evenodd" d="M-33.8898 869.588L-55.0375 864.8L-52.0816 851.742C-49.1998 839.018 -54.4759 829.854 -66.3549 827.163C-78.0673 824.51 -87.0644 830.625 -89.8907 843.09L-95.2532 866.768L-36.2718 880.122L-33.8898 869.588ZM-61.8069 849.718L-64.7258 862.609L-83.1767 858.431L-80.2579 845.54C-78.7708 838.968 -74.9757 836.284 -68.7368 837.697C-62.8375 839.03 -60.3753 843.399 -61.8069 849.718Z" fill="black"/>
<path d="M-23.5322 936.488L-23.5289 936.487L-23.5351 936.481L-23.5322 936.488Z" fill="black"/>
<path fill-rule="evenodd" clip-rule="evenodd" d="M-23.5322 936.488L-43.7386 944.349L-48.5951 931.871C-53.3282 919.715 -62.8252 915.068 -74.1797 919.486C-85.3675 923.843 -89.4095 933.945 -84.7751 945.855L-75.9692 968.477L-19.6166 946.546L-23.5322 936.488ZM-75.42 942.498L-70.6252 954.815L-52.995 947.953L-57.7898 935.636C-60.1409 929.601 -64.6271 927.36 -70.2612 929.551C-76.2161 931.871 -77.8637 936.216 -75.42 942.498Z" fill="black"/>
<path fill-rule="evenodd" clip-rule="evenodd" d="M-0.344832 982.954L19.9204 996.789V996.783L28.6893 990.217L37.6802 996.357L-14.3281 1034.08L-22.6032 1028.43L-6.41696 966.256L2.57402 972.396L-0.344832 982.954ZM-10.1072 1018.86L-9.96526 1018.96L11.8489 1002.79L-2.99213 992.655L-10.1072 1018.86Z" fill="black"/>
<path d="M158.926 771.613C152.052 783.683 140.068 787.904 127.985 782.542L127.973 782.548C113.373 776.062 109.022 760.524 116.773 743.072C124.493 725.701 139.05 718.457 153.576 724.911C165.177 730.064 170.311 741.702 166.51 754.1L156.1 751.366C158.235 742.949 155.939 736.827 149.546 733.989C140.704 730.058 132.083 735.211 126.646 747.448C121.179 759.765 123.172 769.539 132.015 773.464C138.723 776.445 144.906 773.804 149.836 765.689L158.926 771.613Z" fill="black"/>
<path d="M216.359 774.625L168.471 811.557L175.066 820.108L222.954 783.176L216.359 774.625Z" fill="black"/>
<path fill-rule="evenodd" clip-rule="evenodd" d="M202.258 852.97L191.447 851.205L189.633 840.474L252.878 851.779L254.55 861.659L198.531 893.118L196.717 882.387L206.349 877.166L202.258 852.97ZM238.994 859.295L238.963 859.122V859.128L212.181 854.63L215.174 872.347L238.994 859.295Z" fill="black"/>
<path d="M237 941.023L189.879 922.738L185.973 932.809L233.094 951.087L226.596 967.841L235.859 971.439L252.767 927.86L243.504 924.269L237 941.023Z" fill="black"/>
<path d="M138.247 998.973L132.36 990.976L162.98 968.446L198.821 1017.15L168.201 1039.68L162.314 1031.68L184.233 1015.55L175.476 1003.65L155.507 1018.35L149.824 1010.62L169.793 995.931L160.166 982.849L138.247 998.973Z" fill="black"/>
<path fill-rule="evenodd" clip-rule="evenodd" d="M118.79 913.383H42.2219L80.5062 847.071L118.79 913.383ZM80.5062 869.286L61.4566 902.276H99.5558L80.5062 869.286Z" fill="black"/>
<path fill-rule="evenodd" clip-rule="evenodd" d="M80.5062 798.135C31.9968 798.135 -7.46616 837.598 -7.46616 886.108C-7.46616 934.617 31.9968 974.08 80.5062 974.08C129.016 974.08 168.479 934.617 168.479 886.108C168.479 837.598 129.016 798.135 80.5062 798.135ZM80.5062 965.441C36.7607 965.441 1.17312 929.853 1.17312 886.108C1.17312 842.362 36.7607 806.775 80.5062 806.775C124.252 806.775 159.839 842.362 159.839 886.108C159.839 929.853 124.252 965.441 80.5062 965.441Z" fill="black"/>
<path d="M90.6451 1033.39C90.6451 1038.99 86.1058 1043.53 80.5063 1043.53C74.9069 1043.53 70.3675 1038.99 70.3675 1033.39C70.3675 1027.8 74.9069 1023.26 80.5063 1023.26C86.1058 1023.26 90.6451 1027.8 90.6451 1033.39Z" fill="black"/>
<path fill-rule="evenodd" clip-rule="evenodd" d="M279.073 802.221C268.219 776.556 252.681 753.514 232.89 733.724C213.1 713.934 190.052 698.395 164.394 687.541C137.822 676.297 109.596 670.602 80.5063 670.602C51.4167 670.602 23.191 676.297 -3.3809 687.541C-29.0457 698.395 -52.0878 713.934 -71.8779 733.724C-91.6679 753.514 -107.206 776.562 -118.061 802.221C-129.298 828.793 -135 857.018 -135 886.108C-135 915.197 -129.298 943.423 -118.061 969.995C-107.206 995.66 -91.6679 1018.7 -71.8779 1038.49C-52.0878 1058.28 -29.0395 1073.82 -3.3809 1084.68C23.191 1095.91 51.4167 1101.61 80.5063 1101.61C109.596 1101.61 137.822 1095.92 164.394 1084.68C190.058 1073.82 213.1 1058.28 232.89 1038.49C252.681 1018.7 268.219 995.654 279.073 969.995C290.311 943.423 296.013 915.197 296.013 886.108C296.013 857.018 290.311 828.793 279.073 802.221ZM224.85 1030.45C186.294 1069.01 135.032 1090.24 80.5063 1090.24C25.9802 1090.24 -25.2814 1069.01 -63.8372 1030.45C-102.393 991.896 -123.627 940.634 -123.627 886.108C-123.627 831.582 -102.393 780.32 -63.8372 741.764C-25.2814 703.209 25.9802 681.975 80.5063 681.975C135.032 681.975 186.294 703.209 224.85 741.764C263.406 780.32 284.64 831.582 284.64 886.108C284.64 940.634 263.406 991.896 224.85 1030.45Z" fill="black"/>
<path fill-rule="evenodd" clip-rule="evenodd" d="M540.252 790.489L446.462 952.939H634.018L540.228 790.489H540.252ZM482.517 932.102L540.252 832.139L597.987 932.102H482.517Z" fill="black"/>
<path fill-rule="evenodd" clip-rule="evenodd" d="M738.806 802.23C727.953 776.57 712.422 753.515 692.622 733.739C672.823 713.939 649.791 698.408 624.131 687.556C597.555 676.293 569.338 670.602 540.253 670.602C511.169 670.602 482.952 676.293 456.376 687.531C430.716 698.384 407.66 713.915 387.884 733.715C368.085 753.515 352.554 776.546 341.701 802.206C330.439 828.783 324.747 857.023 324.747 886.108C324.747 915.193 330.439 943.409 341.677 969.986C352.529 995.646 368.061 1018.7 387.86 1038.48C407.66 1058.28 430.691 1073.81 456.352 1084.66C482.928 1095.9 511.145 1101.59 540.229 1101.59C569.314 1101.59 597.53 1095.9 624.107 1084.66C649.767 1073.81 672.823 1058.28 692.598 1038.48C712.398 1018.68 727.929 995.646 738.782 969.986C750.02 943.409 755.711 915.193 755.711 886.108C755.711 857.023 750.02 828.783 738.782 802.23H738.806ZM684.592 1030.45C646.029 1069.01 594.781 1090.23 540.253 1090.23C485.726 1090.23 434.454 1069.01 395.915 1030.45C357.353 991.884 336.13 940.636 336.13 886.108C336.13 831.58 357.353 780.308 395.915 741.77C434.478 703.207 485.726 681.985 540.253 681.985C594.781 681.985 646.053 703.207 684.592 741.77C723.154 780.332 744.377 831.58 744.377 886.108C744.377 940.636 723.154 991.908 684.592 1030.45Z" fill="black"/>
<path d="M1000.49 769.145L998.816 759.352L971.991 763.924L969.257 747.911L993.7 743.745L992.09 734.292L967.647 738.457L965.166 723.894L991.991 719.321L990.319 709.528L952.849 715.915L963.013 775.532L1000.49 769.145Z" fill="black"/>
<path fill-rule="evenodd" clip-rule="evenodd" d="M899.07 791.983L914.41 808.379L906.524 815.76L865.204 771.607L882.488 755.433C891.757 746.757 902.334 746.683 910.362 755.26C916.62 761.949 917.514 769.984 913.176 777.358L913.238 777.42L938.508 785.837L929.869 793.921L905.753 785.726L899.07 791.983ZM888.4 763.517L879.884 771.484L892.282 784.732L900.797 776.766C905.969 771.922 906.561 766.991 902.488 762.641C898.415 758.284 893.633 758.617 888.4 763.517Z" fill="black"/>
<path fill-rule="evenodd" clip-rule="evenodd" d="M885.556 869.588L864.408 864.8L867.364 851.742C870.246 839.018 864.969 829.854 853.09 827.163C841.378 824.51 832.381 830.625 829.555 843.09L824.192 866.768L883.174 880.122L885.556 869.588ZM857.638 849.718L854.72 862.609L836.269 858.431L839.187 845.54C840.675 838.968 844.47 836.284 850.708 837.697C856.608 839.03 859.07 843.399 857.638 849.718Z" fill="black"/>
<path d="M895.913 936.488L895.916 936.487L895.91 936.481L895.913 936.488Z" fill="black"/>
<path fill-rule="evenodd" clip-rule="evenodd" d="M895.913 936.488L875.707 944.349L870.85 931.871C866.117 919.715 856.62 915.068 845.266 919.486C834.078 923.843 830.036 933.945 834.67 945.855L843.476 968.477L899.829 946.546L895.913 936.488ZM844.025 942.498L848.82 954.815L866.45 947.953L861.656 935.636C859.304 929.601 854.818 927.36 849.184 929.551C843.229 931.871 841.582 936.216 844.025 942.498Z" fill="black"/>
<path fill-rule="evenodd" clip-rule="evenodd" d="M919.1 982.954L939.366 996.789V996.783L948.135 990.217L957.126 996.357L905.117 1034.08L896.842 1028.43L913.028 966.256L922.019 972.396L919.1 982.954ZM909.338 1018.86L909.48 1018.96L931.294 1002.79L916.453 992.655L909.338 1018.86Z" fill="black"/>
<path d="M1078.37 771.613C1071.5 783.683 1059.51 787.904 1047.43 782.542L1047.42 782.548C1032.82 776.062 1028.47 760.524 1036.22 743.072C1043.94 725.701 1058.5 718.457 1073.02 724.911C1084.62 730.064 1089.76 741.702 1085.96 754.1L1075.55 751.366C1077.68 742.949 1075.38 736.827 1068.99 733.989C1060.15 730.058 1051.53 735.211 1046.09 747.448C1040.62 759.765 1042.62 769.539 1051.46 773.464C1058.17 776.445 1064.35 773.804 1069.28 765.689L1078.37 771.613Z" fill="black"/>
<path d="M1135.8 774.625L1087.92 811.557L1094.51 820.108L1142.4 783.176L1135.8 774.625Z" fill="black"/>
<path fill-rule="evenodd" clip-rule="evenodd" d="M1121.7 852.97L1110.89 851.205L1109.08 840.474L1172.32 851.779L1174 861.659L1117.98 893.118L1116.16 882.387L1125.79 877.166L1121.7 852.97ZM1158.44 859.295L1158.41 859.122V859.128L1131.63 854.63L1134.62 872.347L1158.44 859.295Z" fill="black"/>
<path d="M1156.45 941.023L1109.32 922.738L1105.42 932.809L1152.54 951.087L1146.04 967.841L1155.3 971.439L1172.21 927.86L1162.95 924.269L1156.45 941.023Z" fill="black"/>
<path d="M1057.69 998.973L1051.81 990.976L1082.43 968.446L1118.27 1017.15L1087.65 1039.68L1081.76 1031.68L1103.68 1015.55L1094.92 1003.65L1074.95 1018.35L1069.27 1010.62L1089.24 995.931L1079.61 982.849L1057.69 998.973Z" fill="black"/>
<path fill-rule="evenodd" clip-rule="evenodd" d="M1038.24 913.383H961.667L999.952 847.071L1038.24 913.383ZM999.952 869.286L980.902 902.276H1019L999.952 869.286Z" fill="black"/>
<path fill-rule="evenodd" clip-rule="evenodd" d="M999.952 798.135C951.442 798.135 911.979 837.598 911.979 886.108C911.979 934.617 951.442 974.08 999.952 974.08C1048.46 974.08 1087.92 934.617 1087.92 886.108C1087.92 837.598 1048.46 798.135 999.952 798.135ZM999.952 965.441C956.206 965.441 920.618 929.853 920.618 886.108C920.618 842.362 956.206 806.775 999.952 806.775C1043.7 806.775 1079.28 842.362 1079.28 886.108C1079.28 929.853 1043.7 965.441 999.952 965.441Z" fill="black"/>
<path d="M1010.09 1033.39C1010.09 1038.99 1005.55 1043.53 999.952 1043.53C994.352 1043.53 989.813 1038.99 989.813 1033.39C989.813 1027.8 994.352 1023.26 999.952 1023.26C1005.55 1023.26 1010.09 1027.8 1010.09 1033.39Z" fill="black"/>
<path fill-rule="evenodd" clip-rule="evenodd" d="M1198.52 802.221C1187.66 776.556 1172.13 753.514 1152.34 733.724C1132.55 713.934 1109.5 698.395 1083.84 687.541C1057.27 676.297 1029.04 670.602 999.952 670.602C970.862 670.602 942.636 676.297 916.064 687.541C890.4 698.395 867.358 713.934 847.567 733.724C827.777 753.514 812.239 776.562 801.384 802.221C790.147 828.793 784.445 857.018 784.445 886.108C784.445 915.197 790.147 943.423 801.384 969.995C812.239 995.66 827.777 1018.7 847.567 1038.49C867.358 1058.28 890.406 1073.82 916.064 1084.68C942.636 1095.91 970.862 1101.61 999.952 1101.61C1029.04 1101.61 1057.27 1095.92 1083.84 1084.68C1109.5 1073.82 1132.55 1058.28 1152.34 1038.49C1172.13 1018.7 1187.66 995.654 1198.52 969.995C1209.76 943.423 1215.46 915.197 1215.46 886.108C1215.46 857.018 1209.76 828.793 1198.52 802.221ZM1144.3 1030.45C1105.74 1069.01 1054.48 1090.24 999.952 1090.24C945.426 1090.24 894.164 1069.01 855.608 1030.45C817.052 991.896 795.818 940.634 795.818 886.108C795.818 831.582 817.052 780.32 855.608 741.764C894.164 703.209 945.426 681.975 999.952 681.975C1054.48 681.975 1105.74 703.209 1144.3 741.764C1182.85 780.32 1204.08 831.582 1204.08 886.108C1204.08 940.634 1182.85 991.896 1144.3 1030.45Z" fill="black"/>
<path fill-rule="evenodd" clip-rule="evenodd" d="M1459.7 790.489L1365.91 952.939H1553.46L1459.67 790.489H1459.7ZM1401.96 932.102L1459.7 832.139L1517.43 932.102H1401.96Z" fill="black"/>
<path fill-rule="evenodd" clip-rule="evenodd" d="M1658.25 802.23C1647.4 776.57 1631.87 753.515 1612.07 733.739C1592.27 713.939 1569.24 698.408 1543.58 687.556C1517 676.293 1488.78 670.602 1459.7 670.602C1430.61 670.602 1402.4 676.293 1375.82 687.531C1350.16 698.384 1327.11 713.915 1307.33 733.715C1287.53 753.515 1272 776.546 1261.15 802.206C1249.88 828.783 1244.19 857.023 1244.19 886.108C1244.19 915.193 1249.88 943.409 1261.12 969.986C1271.97 995.646 1287.51 1018.7 1307.31 1038.48C1327.11 1058.28 1350.14 1073.81 1375.8 1084.66C1402.37 1095.9 1430.59 1101.59 1459.67 1101.59C1488.76 1101.59 1516.98 1095.9 1543.55 1084.66C1569.21 1073.81 1592.27 1058.28 1612.04 1038.48C1631.84 1018.68 1647.37 995.646 1658.23 969.986C1669.47 943.409 1675.16 915.193 1675.16 886.108C1675.16 857.023 1669.47 828.783 1658.23 802.23H1658.25ZM1604.04 1030.45C1565.47 1069.01 1514.23 1090.23 1459.7 1090.23C1405.17 1090.23 1353.9 1069.01 1315.36 1030.45C1276.8 991.884 1255.58 940.636 1255.58 886.108C1255.58 831.58 1276.8 780.308 1315.36 741.77C1353.92 703.207 1405.17 681.985 1459.7 681.985C1514.23 681.985 1565.5 703.207 1604.04 741.77C1642.6 780.332 1663.82 831.58 1663.82 886.108C1663.82 940.636 1642.6 991.908 1604.04 1030.45Z" fill="black"/>
<path d="M1919.93 769.145L1918.26 759.352L1891.44 763.924L1888.7 747.911L1913.15 743.745L1911.54 734.292L1887.09 738.457L1884.61 723.894L1911.44 719.321L1909.76 709.528L1872.29 715.915L1882.46 775.532L1919.93 769.145Z" fill="black"/>
<path fill-rule="evenodd" clip-rule="evenodd" d="M1818.51 791.983L1833.86 808.379L1825.97 815.76L1784.65 771.607L1801.93 755.433C1811.2 746.757 1821.78 746.683 1829.81 755.26C1836.06 761.949 1836.96 769.984 1832.62 777.358L1832.68 777.42L1857.95 785.837L1849.31 793.921L1825.2 785.726L1818.51 791.983ZM1807.85 763.517L1799.33 771.484L1811.73 784.732L1820.24 776.766C1825.41 771.922 1826.01 766.991 1821.93 762.641C1817.86 758.284 1813.08 758.617 1807.85 763.517Z" fill="black"/>
<path fill-rule="evenodd" clip-rule="evenodd" d="M1805 869.588L1783.85 864.8L1786.81 851.742C1789.69 839.018 1784.41 829.854 1772.54 827.163C1760.82 824.51 1751.83 830.625 1749 843.09L1743.64 866.768L1802.62 880.122L1805 869.588ZM1777.08 849.718L1774.16 862.609L1755.71 858.431L1758.63 845.54C1760.12 838.968 1763.91 836.284 1770.15 837.697C1776.05 839.03 1778.52 843.399 1777.08 849.718Z" fill="black"/>
<path d="M1815.36 936.488L1815.36 936.487L1815.36 936.481L1815.36 936.488Z" fill="black"/>
<path fill-rule="evenodd" clip-rule="evenodd" d="M1815.36 936.488L1795.15 944.349L1790.3 931.871C1785.56 919.715 1776.07 915.068 1764.71 919.486C1753.52 923.843 1749.48 933.945 1754.12 945.855L1762.92 968.477L1819.27 946.546L1815.36 936.488ZM1763.47 942.498L1768.27 954.815L1785.9 947.953L1781.1 935.636C1778.75 929.601 1774.26 927.36 1768.63 929.551C1762.67 931.871 1761.03 936.216 1763.47 942.498Z" fill="black"/>
<path fill-rule="evenodd" clip-rule="evenodd" d="M1838.55 982.954L1858.81 996.789V996.783L1867.58 990.217L1876.57 996.357L1824.56 1034.08L1816.29 1028.43L1832.47 966.256L1841.46 972.396L1838.55 982.954ZM1828.78 1018.86L1828.93 1018.96L1850.74 1002.79L1835.9 992.655L1828.78 1018.86Z" fill="black"/>
<path d="M1997.82 771.613C1990.94 783.683 1978.96 787.904 1966.88 782.542L1966.86 782.548C1952.26 776.062 1947.91 760.524 1955.66 743.072C1963.38 725.701 1977.94 718.457 1992.47 724.911C2004.07 730.064 2009.2 741.702 2005.4 754.1L1994.99 751.366C1997.13 742.949 1994.83 736.827 1988.44 733.989C1979.59 730.058 1970.97 735.211 1965.54 747.448C1960.07 759.765 1962.06 769.539 1970.91 773.464C1977.61 776.445 1983.8 773.804 1988.73 765.689L1997.82 771.613Z" fill="black"/>
<path d="M2055.25 774.625L2007.36 811.557L2013.96 820.108L2061.84 783.176L2055.25 774.625Z" fill="black"/>
<path fill-rule="evenodd" clip-rule="evenodd" d="M2041.15 852.97L2030.34 851.205L2028.52 840.474L2091.77 851.779L2093.44 861.659L2037.42 893.118L2035.61 882.387L2045.24 877.166L2041.15 852.97ZM2077.88 859.295L2077.85 859.122V859.128L2051.07 854.63L2054.06 872.347L2077.88 859.295Z" fill="black"/>
<path d="M2075.89 941.023L2028.77 922.738L2024.86 932.809L2071.98 951.087L2065.49 967.841L2074.75 971.439L2091.66 927.86L2082.4 924.269L2075.89 941.023Z" fill="black"/>
<path d="M1977.14 998.973L1971.25 990.976L2001.87 968.446L2037.71 1017.15L2007.09 1039.68L2001.2 1031.68L2023.12 1015.55L2014.37 1003.65L1994.4 1018.35L1988.71 1010.62L2008.68 995.931L1999.06 982.849L1977.14 998.973Z" fill="black"/>
<path fill-rule="evenodd" clip-rule="evenodd" d="M1957.68 913.383H1881.11L1919.4 847.071L1957.68 913.383ZM1919.4 869.286L1900.35 902.276H1938.45L1919.4 869.286Z" fill="black"/>
<path fill-rule="evenodd" clip-rule="evenodd" d="M1919.4 798.135C1870.89 798.135 1831.42 837.598 1831.42 886.108C1831.42 934.617 1870.89 974.08 1919.4 974.08C1967.91 974.08 2007.37 934.617 2007.37 886.108C2007.37 837.598 1967.91 798.135 1919.4 798.135ZM1919.4 965.441C1875.65 965.441 1840.06 929.853 1840.06 886.108C1840.06 842.362 1875.65 806.775 1919.4 806.775C1963.14 806.775 1998.73 842.362 1998.73 886.108C1998.73 929.853 1963.14 965.441 1919.4 965.441Z" fill="black"/>
<path d="M1929.54 1033.39C1929.54 1038.99 1925 1043.53 1919.4 1043.53C1913.8 1043.53 1909.26 1038.99 1909.26 1033.39C1909.26 1027.8 1913.8 1023.26 1919.4 1023.26C1925 1023.26 1929.54 1027.8 1929.54 1033.39Z" fill="black"/>
<path fill-rule="evenodd" clip-rule="evenodd" d="M2117.96 802.221C2107.11 776.556 2091.57 753.514 2071.78 733.724C2051.99 713.934 2028.94 698.395 2003.28 687.541C1976.71 676.297 1948.49 670.602 1919.4 670.602C1890.31 670.602 1862.08 676.297 1835.51 687.541C1809.84 698.395 1786.8 713.934 1767.01 733.724C1747.22 753.514 1731.68 776.562 1720.83 802.221C1709.59 828.793 1703.89 857.018 1703.89 886.108C1703.89 915.197 1709.59 943.423 1720.83 969.995C1731.68 995.66 1747.22 1018.7 1767.01 1038.49C1786.8 1058.28 1809.85 1073.82 1835.51 1084.68C1862.08 1095.91 1890.31 1101.61 1919.4 1101.61C1948.49 1101.61 1976.71 1095.92 2003.28 1084.68C2028.95 1073.82 2051.99 1058.28 2071.78 1038.49C2091.57 1018.7 2107.11 995.654 2117.96 969.995C2129.2 943.423 2134.9 915.197 2134.9 886.108C2134.9 857.018 2129.2 828.793 2117.96 802.221ZM2063.74 1030.45C2025.18 1069.01 1973.92 1090.24 1919.4 1090.24C1864.87 1090.24 1813.61 1069.01 1775.05 1030.45C1736.5 991.896 1715.26 940.634 1715.26 886.108C1715.26 831.582 1736.5 780.32 1775.05 741.764C1813.61 703.209 1864.87 681.975 1919.4 681.975C1973.92 681.975 2025.18 703.209 2063.74 741.764C2102.3 780.32 2123.53 831.582 2123.53 886.108C2123.53 940.634 2102.3 991.896 2063.74 1030.45Z" fill="black"/>
<path fill-rule="evenodd" clip-rule="evenodd" d="M80.505 1250.24L-13.2847 1412.69H174.27L80.4808 1250.24H80.505ZM22.7697 1391.85L80.505 1291.89L138.24 1391.85H22.7697Z" fill="black"/>
<path fill-rule="evenodd" clip-rule="evenodd" d="M279.059 1261.98C268.206 1236.32 252.675 1213.26 232.875 1193.49C213.075 1173.69 190.044 1158.16 164.384 1147.31C137.807 1136.04 109.591 1130.35 80.5063 1130.35C51.4216 1130.35 23.2052 1136.04 -3.37135 1147.28C-29.0315 1158.13 -52.087 1173.67 -71.8626 1193.46C-91.6624 1213.26 -107.194 1236.3 -118.046 1261.96C-129.308 1288.53 -135 1316.77 -135 1345.86C-135 1374.94 -129.308 1403.16 -118.07 1429.74C-107.218 1455.4 -91.6865 1478.45 -71.8867 1498.23C-52.087 1518.03 -29.0556 1533.56 -3.39548 1544.41C23.1811 1555.65 51.3975 1561.34 80.4822 1561.34C109.567 1561.34 137.783 1555.65 164.36 1544.41C190.02 1533.56 213.076 1518.03 232.851 1498.23C252.651 1478.43 268.182 1455.4 279.035 1429.74C290.273 1403.16 295.964 1374.94 295.964 1345.86C295.964 1316.77 290.273 1288.53 279.035 1261.98H279.059ZM224.844 1490.2C186.282 1528.76 135.034 1549.98 80.5063 1549.98C25.9786 1549.98 -25.2934 1528.76 -63.8318 1490.2C-102.394 1451.63 -123.617 1400.39 -123.617 1345.86C-123.617 1291.33 -102.394 1240.06 -63.8318 1201.52C-25.2693 1162.96 25.9786 1141.73 80.5063 1141.73C135.034 1141.73 186.306 1162.96 224.844 1201.52C263.407 1240.08 284.63 1291.33 284.63 1345.86C284.63 1400.39 263.407 1451.66 224.844 1490.2Z" fill="black"/>
<path d="M540.741 1228.89L539.069 1219.1L512.244 1223.67L509.51 1207.66L533.953 1203.5L532.343 1194.04L507.9 1198.21L505.419 1183.64L532.244 1179.07L530.572 1169.28L493.102 1175.66L503.265 1235.28L540.741 1228.89Z" fill="black"/>
<path fill-rule="evenodd" clip-rule="evenodd" d="M439.323 1251.73L454.663 1268.13L446.777 1275.51L405.457 1231.36L422.741 1215.18C432.01 1206.51 442.587 1206.43 450.615 1215.01C456.873 1221.7 457.767 1229.73 453.429 1237.11L453.491 1237.17L478.761 1245.59L470.122 1253.67L446.006 1245.48L439.323 1251.73ZM428.653 1223.27L420.137 1231.23L432.535 1244.48L441.05 1236.52C446.222 1231.67 446.814 1226.74 442.741 1222.39C438.668 1218.03 433.886 1218.37 428.653 1223.27Z" fill="black"/>
<path fill-rule="evenodd" clip-rule="evenodd" d="M425.808 1329.34L404.661 1324.55L407.617 1311.49C410.498 1298.77 405.222 1289.6 393.343 1286.91C381.631 1284.26 372.634 1290.38 369.808 1302.84L364.445 1326.52L423.426 1339.87L425.808 1329.34ZM397.891 1309.47L394.972 1322.36L376.522 1318.18L379.44 1305.29C380.927 1298.72 384.723 1296.03 390.961 1297.45C396.861 1298.78 399.323 1303.15 397.891 1309.47Z" fill="black"/>
<path d="M436.166 1396.24L436.169 1396.24L436.163 1396.23L436.166 1396.24Z" fill="black"/>
<path fill-rule="evenodd" clip-rule="evenodd" d="M436.166 1396.24L415.96 1404.1L411.103 1391.62C406.37 1379.46 396.873 1374.82 385.519 1379.24C374.331 1383.59 370.289 1393.69 374.923 1405.6L383.729 1428.23L440.082 1406.3L436.166 1396.24ZM384.278 1402.25L389.073 1414.56L406.703 1407.7L401.908 1395.39C399.557 1389.35 395.071 1387.11 389.437 1389.3C383.482 1391.62 381.835 1395.97 384.278 1402.25Z" fill="black"/>
<path fill-rule="evenodd" clip-rule="evenodd" d="M459.353 1442.7L479.619 1456.54V1456.53L488.388 1449.97L497.378 1456.11L445.37 1493.83L437.095 1488.18L453.281 1426.01L462.272 1432.15L459.353 1442.7ZM449.591 1478.61L449.733 1478.71L471.547 1462.54L456.706 1452.4L449.591 1478.61Z" fill="black"/>
<path d="M618.624 1231.36C611.75 1243.43 599.766 1247.65 587.684 1242.29L587.671 1242.3C573.071 1235.81 568.72 1220.27 576.471 1202.82C584.191 1185.45 598.748 1178.21 613.274 1184.66C624.876 1189.81 630.01 1201.45 626.208 1213.85L615.798 1211.12C617.933 1202.7 615.638 1196.58 609.245 1193.74C600.402 1189.81 591.781 1194.96 586.344 1207.2C580.877 1219.51 582.87 1229.29 591.713 1233.21C598.421 1236.19 604.604 1233.55 609.535 1225.44L618.624 1231.36Z" fill="black"/>
<path d="M676.057 1234.37L628.169 1271.31L634.764 1279.86L682.652 1242.93L676.057 1234.37Z" fill="black"/>
<path fill-rule="evenodd" clip-rule="evenodd" d="M661.956 1312.72L651.145 1310.96L649.331 1300.22L712.576 1311.53L714.249 1321.41L658.229 1352.87L656.415 1342.14L666.048 1336.92L661.956 1312.72ZM698.692 1319.05L698.661 1318.87V1318.88L671.879 1314.38L674.872 1332.1L698.692 1319.05Z" fill="black"/>
<path d="M696.699 1400.77L649.577 1382.49L645.671 1392.56L692.792 1410.84L686.294 1427.59L695.557 1431.19L712.465 1387.61L703.203 1384.02L696.699 1400.77Z" fill="black"/>
<path d="M597.946 1458.72L592.059 1450.73L622.679 1428.2L658.519 1476.9L627.899 1499.43L622.012 1491.43L643.931 1475.3L635.175 1463.4L615.206 1478.1L609.522 1470.37L629.491 1455.68L619.865 1442.6L597.946 1458.72Z" fill="black"/>
<path fill-rule="evenodd" clip-rule="evenodd" d="M578.489 1373.13H501.92L540.204 1306.82L578.489 1373.13ZM540.204 1329.04L521.155 1362.03H559.254L540.204 1329.04Z" fill="black"/>
<path fill-rule="evenodd" clip-rule="evenodd" d="M540.204 1257.89C491.695 1257.89 452.232 1297.35 452.232 1345.86C452.232 1394.37 491.695 1433.83 540.204 1433.83C588.714 1433.83 628.177 1394.37 628.177 1345.86C628.177 1297.35 588.714 1257.89 540.204 1257.89ZM540.204 1425.19C496.459 1425.19 460.871 1389.6 460.871 1345.86C460.871 1302.11 496.459 1266.52 540.204 1266.52C583.95 1266.52 619.537 1302.11 619.537 1345.86C619.537 1389.6 583.95 1425.19 540.204 1425.19Z" fill="black"/>
<path d="M550.343 1493.14C550.343 1498.74 545.804 1503.28 540.205 1503.28C534.605 1503.28 530.066 1498.74 530.066 1493.14C530.066 1487.55 534.605 1483.01 540.205 1483.01C545.804 1483.01 550.343 1487.55 550.343 1493.14Z" fill="black"/>
<path fill-rule="evenodd" clip-rule="evenodd" d="M738.772 1261.97C727.917 1236.31 712.379 1213.26 692.589 1193.47C672.799 1173.68 649.75 1158.15 624.092 1147.29C597.52 1136.05 569.294 1130.35 540.205 1130.35C511.115 1130.35 482.889 1136.05 456.317 1147.29C430.653 1158.15 407.61 1173.68 387.82 1193.47C368.03 1213.26 352.492 1236.31 341.637 1261.97C330.4 1288.54 324.698 1316.77 324.698 1345.86C324.698 1374.95 330.4 1403.17 341.637 1429.75C352.492 1455.41 368.03 1478.45 387.82 1498.24C407.61 1518.03 430.659 1533.57 456.317 1544.43C482.889 1555.66 511.115 1561.36 540.205 1561.36C569.294 1561.36 597.52 1555.67 624.092 1544.43C649.757 1533.57 672.799 1518.03 692.589 1498.24C712.379 1478.45 727.917 1455.4 738.772 1429.75C750.009 1403.17 755.711 1374.95 755.711 1345.86C755.711 1316.77 750.009 1288.54 738.772 1261.97ZM684.548 1490.2C645.992 1528.76 594.731 1549.99 540.205 1549.99C485.678 1549.99 434.417 1528.76 395.861 1490.2C357.305 1451.65 336.071 1400.38 336.071 1345.86C336.071 1291.33 357.305 1240.07 395.861 1201.51C434.417 1162.96 485.678 1141.72 540.205 1141.72C594.731 1141.72 645.992 1162.96 684.548 1201.51C723.104 1240.07 744.338 1291.33 744.338 1345.86C744.338 1400.38 723.104 1451.65 684.548 1490.2Z" fill="black"/>
<path fill-rule="evenodd" clip-rule="evenodd" d="M999.95 1250.24L906.161 1412.69H1093.72L999.926 1250.24H999.95ZM942.215 1391.85L999.95 1291.89L1057.69 1391.85H942.215Z" fill="black"/>
<path fill-rule="evenodd" clip-rule="evenodd" d="M1198.5 1261.98C1187.65 1236.32 1172.12 1213.26 1152.32 1193.49C1132.52 1173.69 1109.49 1158.16 1083.83 1147.31C1057.25 1136.04 1029.04 1130.35 999.952 1130.35C970.867 1130.35 942.651 1136.04 916.074 1147.28C890.414 1158.13 867.358 1173.67 847.583 1193.46C827.783 1213.26 812.252 1236.3 801.399 1261.96C790.137 1288.53 784.445 1316.77 784.445 1345.86C784.445 1374.94 790.137 1403.16 801.375 1429.74C812.228 1455.4 827.759 1478.45 847.559 1498.23C867.358 1518.03 890.39 1533.56 916.05 1544.41C942.626 1555.65 970.843 1561.34 999.928 1561.34C1029.01 1561.34 1057.23 1555.65 1083.81 1544.41C1109.47 1533.56 1132.52 1518.03 1152.3 1498.23C1172.1 1478.43 1187.63 1455.4 1198.48 1429.74C1209.72 1403.16 1215.41 1374.94 1215.41 1345.86C1215.41 1316.77 1209.72 1288.53 1198.48 1261.98H1198.5ZM1144.29 1490.2C1105.73 1528.76 1054.48 1549.98 999.952 1549.98C945.424 1549.98 894.152 1528.76 855.614 1490.2C817.051 1451.63 795.828 1400.39 795.828 1345.86C795.828 1291.33 817.051 1240.06 855.614 1201.52C894.176 1162.96 945.424 1141.73 999.952 1141.73C1054.48 1141.73 1105.75 1162.96 1144.29 1201.52C1182.85 1240.08 1204.07 1291.33 1204.07 1345.86C1204.07 1400.39 1182.85 1451.66 1144.29 1490.2Z" fill="black"/>
<path d="M1460.19 1228.89L1458.52 1219.1L1431.69 1223.67L1428.96 1207.66L1453.4 1203.5L1451.79 1194.04L1427.35 1198.21L1424.87 1183.64L1451.69 1179.07L1450.02 1169.28L1412.55 1175.66L1422.71 1235.28L1460.19 1228.89Z" fill="black"/>
<path fill-rule="evenodd" clip-rule="evenodd" d="M1358.77 1251.73L1374.11 1268.13L1366.22 1275.51L1324.9 1231.36L1342.19 1215.18C1351.46 1206.51 1362.03 1206.43 1370.06 1215.01C1376.32 1221.7 1377.21 1229.73 1372.88 1237.11L1372.94 1237.17L1398.21 1245.59L1389.57 1253.67L1365.45 1245.48L1358.77 1251.73ZM1348.1 1223.27L1339.58 1231.23L1351.98 1244.48L1360.5 1236.52C1365.67 1231.67 1366.26 1226.74 1362.19 1222.39C1358.11 1218.03 1353.33 1218.37 1348.1 1223.27Z" fill="black"/>
<path fill-rule="evenodd" clip-rule="evenodd" d="M1345.25 1329.34L1324.11 1324.55L1327.06 1311.49C1329.94 1298.77 1324.67 1289.6 1312.79 1286.91C1301.08 1284.26 1292.08 1290.38 1289.25 1302.84L1283.89 1326.52L1342.87 1339.87L1345.25 1329.34ZM1317.34 1309.47L1314.42 1322.36L1295.97 1318.18L1298.89 1305.29C1300.37 1298.72 1304.17 1296.03 1310.41 1297.45C1316.31 1298.78 1318.77 1303.15 1317.34 1309.47Z" fill="black"/>
<path d="M1355.61 1396.24L1355.62 1396.24L1355.61 1396.23L1355.61 1396.24Z" fill="black"/>
<path fill-rule="evenodd" clip-rule="evenodd" d="M1355.61 1396.24L1335.41 1404.1L1330.55 1391.62C1325.82 1379.46 1316.32 1374.82 1304.96 1379.24C1293.78 1383.59 1289.74 1393.69 1294.37 1405.6L1303.18 1428.23L1359.53 1406.3L1355.61 1396.24ZM1303.72 1402.25L1308.52 1414.56L1326.15 1407.7L1321.35 1395.39C1319 1389.35 1314.52 1387.11 1308.88 1389.3C1302.93 1391.62 1301.28 1395.97 1303.72 1402.25Z" fill="black"/>
<path fill-rule="evenodd" clip-rule="evenodd" d="M1378.8 1442.7L1399.06 1456.54V1456.53L1407.83 1449.97L1416.82 1456.11L1364.82 1493.83L1356.54 1488.18L1372.73 1426.01L1381.72 1432.15L1378.8 1442.7ZM1369.04 1478.61L1369.18 1478.71L1390.99 1462.54L1376.15 1452.4L1369.04 1478.61Z" fill="black"/>
<path d="M1538.07 1231.36C1531.2 1243.43 1519.21 1247.65 1507.13 1242.29L1507.12 1242.3C1492.52 1235.81 1488.17 1220.27 1495.92 1202.82C1503.64 1185.45 1518.19 1178.21 1532.72 1184.66C1544.32 1189.81 1549.46 1201.45 1545.65 1213.85L1535.24 1211.12C1537.38 1202.7 1535.08 1196.58 1528.69 1193.74C1519.85 1189.81 1511.23 1194.96 1505.79 1207.2C1500.32 1219.51 1502.32 1229.29 1511.16 1233.21C1517.87 1236.19 1524.05 1233.55 1528.98 1225.44L1538.07 1231.36Z" fill="black"/>
<path d="M1595.5 1234.37L1547.62 1271.31L1554.21 1279.86L1602.1 1242.93L1595.5 1234.37Z" fill="black"/>
<path fill-rule="evenodd" clip-rule="evenodd" d="M1581.4 1312.72L1570.59 1310.96L1568.78 1300.22L1632.02 1311.53L1633.69 1321.41L1577.68 1352.87L1575.86 1342.14L1585.49 1336.92L1581.4 1312.72ZM1618.14 1319.05L1618.11 1318.87V1318.88L1591.33 1314.38L1594.32 1332.1L1618.14 1319.05Z" fill="black"/>
<path d="M1616.14 1400.77L1569.02 1382.49L1565.12 1392.56L1612.24 1410.84L1605.74 1427.59L1615 1431.19L1631.91 1387.61L1622.65 1384.02L1616.14 1400.77Z" fill="black"/>
<path d="M1517.39 1458.72L1511.5 1450.73L1542.12 1428.2L1577.97 1476.9L1547.35 1499.43L1541.46 1491.43L1563.38 1475.3L1554.62 1463.4L1534.65 1478.1L1528.97 1470.37L1548.94 1455.68L1539.31 1442.6L1517.39 1458.72Z" fill="black"/>
<path fill-rule="evenodd" clip-rule="evenodd" d="M1497.94 1373.13H1421.37L1459.65 1306.82L1497.94 1373.13ZM1459.65 1329.04L1440.6 1362.03H1478.7L1459.65 1329.04Z" fill="black"/>
<path fill-rule="evenodd" clip-rule="evenodd" d="M1459.65 1257.89C1411.14 1257.89 1371.68 1297.35 1371.68 1345.86C1371.68 1394.37 1411.14 1433.83 1459.65 1433.83C1508.16 1433.83 1547.62 1394.37 1547.62 1345.86C1547.62 1297.35 1508.16 1257.89 1459.65 1257.89ZM1459.65 1425.19C1415.91 1425.19 1380.32 1389.6 1380.32 1345.86C1380.32 1302.11 1415.91 1266.52 1459.65 1266.52C1503.4 1266.52 1538.98 1302.11 1538.98 1345.86C1538.98 1389.6 1503.4 1425.19 1459.65 1425.19Z" fill="black"/>
<path d="M1469.79 1493.14C1469.79 1498.74 1465.25 1503.28 1459.65 1503.28C1454.05 1503.28 1449.51 1498.74 1449.51 1493.14C1449.51 1487.55 1454.05 1483.01 1459.65 1483.01C1465.25 1483.01 1469.79 1487.55 1469.79 1493.14Z" fill="black"/>
<path fill-rule="evenodd" clip-rule="evenodd" d="M1658.22 1261.97C1647.36 1236.31 1631.83 1213.26 1612.03 1193.47C1592.24 1173.68 1569.2 1158.15 1543.54 1147.29C1516.97 1136.05 1488.74 1130.35 1459.65 1130.35C1430.56 1130.35 1402.34 1136.05 1375.76 1147.29C1350.1 1158.15 1327.06 1173.68 1307.27 1193.47C1287.48 1213.26 1271.94 1236.31 1261.08 1261.97C1249.85 1288.54 1244.14 1316.77 1244.14 1345.86C1244.14 1374.95 1249.85 1403.17 1261.08 1429.75C1271.94 1455.41 1287.48 1478.45 1307.27 1498.24C1327.06 1518.03 1350.11 1533.57 1375.76 1544.43C1402.34 1555.66 1430.56 1561.36 1459.65 1561.36C1488.74 1561.36 1516.97 1555.67 1543.54 1544.43C1569.2 1533.57 1592.24 1518.03 1612.03 1498.24C1631.83 1478.45 1647.36 1455.4 1658.22 1429.75C1669.46 1403.17 1675.16 1374.95 1675.16 1345.86C1675.16 1316.77 1669.46 1288.54 1658.22 1261.97ZM1603.99 1490.2C1565.44 1528.76 1514.18 1549.99 1459.65 1549.99C1405.12 1549.99 1353.86 1528.76 1315.31 1490.2C1276.75 1451.65 1255.52 1400.38 1255.52 1345.86C1255.52 1291.33 1276.75 1240.07 1315.31 1201.51C1353.86 1162.96 1405.12 1141.72 1459.65 1141.72C1514.18 1141.72 1565.44 1162.96 1603.99 1201.51C1642.55 1240.07 1663.78 1291.33 1663.78 1345.86C1663.78 1400.38 1642.55 1451.65 1603.99 1490.2Z" fill="black"/>
<path fill-rule="evenodd" clip-rule="evenodd" d="M1919.4 1250.24L1825.61 1412.69H2013.16L1919.37 1250.24H1919.4ZM1861.66 1391.85L1919.4 1291.89L1977.13 1391.85H1861.66Z" fill="black"/>
<path fill-rule="evenodd" clip-rule="evenodd" d="M2117.95 1261.98C2107.1 1236.32 2091.57 1213.26 2071.77 1193.49C2051.97 1173.69 2028.93 1158.16 2003.27 1147.31C1976.7 1136.04 1948.48 1130.35 1919.4 1130.35C1890.31 1130.35 1862.1 1136.04 1835.52 1147.28C1809.86 1158.13 1786.8 1173.67 1767.03 1193.46C1747.23 1213.26 1731.7 1236.3 1720.84 1261.96C1709.58 1288.53 1703.89 1316.77 1703.89 1345.86C1703.89 1374.94 1709.58 1403.16 1720.82 1429.74C1731.67 1455.4 1747.2 1478.45 1767 1498.23C1786.8 1518.03 1809.84 1533.56 1835.5 1544.41C1862.07 1555.65 1890.29 1561.34 1919.37 1561.34C1948.46 1561.34 1976.67 1555.65 2003.25 1544.41C2028.91 1533.56 2051.97 1518.03 2071.74 1498.23C2091.54 1478.43 2107.07 1455.4 2117.93 1429.74C2129.16 1403.16 2134.86 1374.94 2134.86 1345.86C2134.86 1316.77 2129.16 1288.53 2117.93 1261.98H2117.95ZM2063.74 1490.2C2025.17 1528.76 1973.92 1549.98 1919.4 1549.98C1864.87 1549.98 1813.6 1528.76 1775.06 1490.2C1736.5 1451.63 1715.27 1400.39 1715.27 1345.86C1715.27 1291.33 1736.5 1240.06 1775.06 1201.52C1813.62 1162.96 1864.87 1141.73 1919.4 1141.73C1973.92 1141.73 2025.2 1162.96 2063.74 1201.52C2102.3 1240.08 2123.52 1291.33 2123.52 1345.86C2123.52 1400.39 2102.3 1451.66 2063.74 1490.2Z" fill="black"/>
<path d="M81.0431 1688.64L79.3708 1678.85L52.5459 1683.42L49.8122 1667.41L74.2551 1663.24L72.6445 1653.79L48.2016 1657.95L45.7209 1643.39L72.5458 1638.82L70.8735 1629.02L33.4038 1635.41L43.5673 1695.03L81.0431 1688.64Z" fill="black"/>
<path fill-rule="evenodd" clip-rule="evenodd" d="M-20.3757 1711.48L-5.03484 1727.88L-12.9212 1735.26L-54.2416 1691.1L-36.9569 1674.93C-27.6882 1666.25 -17.1113 1666.18 -9.08292 1674.76C-2.82564 1681.45 -1.93083 1689.48 -6.26898 1696.85L-6.2073 1696.92L19.0625 1705.33L10.4233 1713.42L-13.6926 1705.22L-20.3757 1711.48ZM-31.0452 1683.01L-39.561 1690.98L-27.1637 1704.23L-18.6478 1696.26C-13.4766 1691.42 -12.8842 1686.49 -16.957 1682.14C-21.0298 1677.78 -25.8122 1678.11 -31.0452 1683.01Z" fill="black"/>
<path fill-rule="evenodd" clip-rule="evenodd" d="M-33.8898 1789.08L-55.0375 1784.3L-52.0816 1771.24C-49.1998 1758.51 -54.4759 1749.35 -66.3549 1746.66C-78.0673 1744.01 -87.0644 1750.12 -89.8907 1762.59L-95.2532 1786.26L-36.2718 1799.62L-33.8898 1789.08ZM-61.8069 1769.21L-64.7258 1782.1L-83.1767 1777.93L-80.2579 1765.04C-78.7708 1758.46 -74.9757 1755.78 -68.7368 1757.19C-62.8375 1758.53 -60.3753 1762.89 -61.8069 1769.21Z" fill="black"/>
<path d="M-23.5322 1855.98L-23.5289 1855.98L-23.5351 1855.98L-23.5322 1855.98Z" fill="black"/>
<path fill-rule="evenodd" clip-rule="evenodd" d="M-23.5322 1855.98L-43.7386 1863.85L-48.5951 1851.37C-53.3282 1839.21 -62.8252 1834.56 -74.1797 1838.98C-85.3675 1843.34 -89.4095 1853.44 -84.7751 1865.35L-75.9692 1887.97L-19.6166 1866.04L-23.5322 1855.98ZM-75.42 1861.99L-70.6252 1874.31L-52.995 1867.45L-57.7898 1855.13C-60.1409 1849.1 -64.6271 1846.86 -70.2612 1849.05C-76.2161 1851.37 -77.8637 1855.71 -75.42 1861.99Z" fill="black"/>
<path fill-rule="evenodd" clip-rule="evenodd" d="M-0.344832 1902.45L19.9204 1916.29V1916.28L28.6893 1909.71L37.6802 1915.85L-14.3281 1953.58L-22.6032 1947.92L-6.41696 1885.75L2.57402 1891.89L-0.344832 1902.45ZM-10.1072 1938.36L-9.96526 1938.46L11.8489 1922.28L-2.99213 1912.15L-10.1072 1938.36Z" fill="black"/>
<path d="M158.926 1691.11C152.052 1703.18 140.068 1707.4 127.985 1702.04L127.973 1702.04C113.373 1695.56 109.022 1680.02 116.773 1662.57C124.493 1645.2 139.05 1637.95 153.576 1644.41C165.177 1649.56 170.311 1661.2 166.51 1673.6L156.1 1670.86C158.235 1662.45 155.939 1656.32 149.546 1653.48C140.704 1649.55 132.083 1654.71 126.646 1666.94C121.179 1679.26 123.172 1689.04 132.015 1692.96C138.723 1695.94 144.906 1693.3 149.836 1685.18L158.926 1691.11Z" fill="black"/>
<path d="M216.359 1694.12L168.471 1731.05L175.066 1739.6L222.954 1702.67L216.359 1694.12Z" fill="black"/>
<path fill-rule="evenodd" clip-rule="evenodd" d="M202.258 1772.47L191.447 1770.7L189.633 1759.97L252.878 1771.28L254.55 1781.15L198.531 1812.61L196.717 1801.88L206.349 1796.66L202.258 1772.47ZM238.994 1778.79L238.963 1778.62V1778.62L212.181 1774.13L215.174 1791.84L238.994 1778.79Z" fill="black"/>
<path d="M237 1860.52L189.879 1842.23L185.973 1852.31L233.094 1870.58L226.596 1887.34L235.859 1890.93L252.767 1847.36L243.504 1843.76L237 1860.52Z" fill="black"/>
<path d="M138.247 1918.47L132.36 1910.47L162.98 1887.94L198.821 1936.65L168.201 1959.18L162.314 1951.18L184.233 1935.04L175.476 1923.15L155.507 1937.85L149.824 1930.12L169.793 1915.43L160.166 1902.34L138.247 1918.47Z" fill="black"/>
<path fill-rule="evenodd" clip-rule="evenodd" d="M118.79 1832.88H42.2219L80.5062 1766.57L118.79 1832.88ZM80.5062 1788.78L61.4566 1821.77H99.5558L80.5062 1788.78Z" fill="black"/>
<path fill-rule="evenodd" clip-rule="evenodd" d="M80.5062 1717.63C31.9968 1717.63 -7.46616 1757.09 -7.46616 1805.6C-7.46616 1854.11 31.9968 1893.58 80.5062 1893.58C129.016 1893.58 168.479 1854.11 168.479 1805.6C168.479 1757.09 129.016 1717.63 80.5062 1717.63ZM80.5062 1884.94C36.7607 1884.94 1.17312 1849.35 1.17312 1805.6C1.17312 1761.86 36.7607 1726.27 80.5062 1726.27C124.252 1726.27 159.839 1761.86 159.839 1805.6C159.839 1849.35 124.252 1884.94 80.5062 1884.94Z" fill="black"/>
<path d="M90.6451 1952.89C90.6451 1958.49 86.1058 1963.03 80.5063 1963.03C74.9069 1963.03 70.3675 1958.49 70.3675 1952.89C70.3675 1947.29 74.9069 1942.75 80.5063 1942.75C86.1058 1942.75 90.6451 1947.29 90.6451 1952.89Z" fill="black"/>
<path fill-rule="evenodd" clip-rule="evenodd" d="M279.073 1721.72C268.219 1696.05 252.681 1673.01 232.89 1653.22C213.1 1633.43 190.052 1617.89 164.394 1607.04C137.822 1595.79 109.596 1590.1 80.5063 1590.1C51.4167 1590.1 23.191 1595.79 -3.3809 1607.04C-29.0457 1617.89 -52.0878 1633.43 -71.8779 1653.22C-91.6679 1673.01 -107.206 1696.06 -118.061 1721.72C-129.298 1748.29 -135 1776.51 -135 1805.6C-135 1834.69 -129.298 1862.92 -118.061 1889.49C-107.206 1915.16 -91.6679 1938.2 -71.8779 1957.99C-52.0878 1977.78 -29.0395 1993.32 -3.3809 2004.17C23.191 2015.41 51.4167 2021.11 80.5063 2021.11C109.596 2021.11 137.822 2015.41 164.394 2004.17C190.058 1993.32 213.1 1977.78 232.89 1957.99C252.681 1938.2 268.219 1915.15 279.073 1889.49C290.311 1862.92 296.013 1834.69 296.013 1805.6C296.013 1776.51 290.311 1748.29 279.073 1721.72ZM224.85 1949.95C186.294 1988.5 135.032 2009.74 80.5063 2009.74C25.9802 2009.74 -25.2814 1988.5 -63.8372 1949.95C-102.393 1911.39 -123.627 1860.13 -123.627 1805.6C-123.627 1751.08 -102.393 1699.82 -63.8372 1661.26C-25.2814 1622.7 25.9802 1601.47 80.5063 1601.47C135.032 1601.47 186.294 1622.7 224.85 1661.26C263.406 1699.82 284.64 1751.08 284.64 1805.6C284.64 1860.13 263.406 1911.39 224.85 1949.95Z" fill="black"/>
<path fill-rule="evenodd" clip-rule="evenodd" d="M540.252 1709.99L446.462 1872.43H634.018L540.228 1709.99H540.252ZM482.517 1851.6L540.252 1751.63L597.987 1851.6H482.517Z" fill="black"/>
<path fill-rule="evenodd" clip-rule="evenodd" d="M738.806 1721.73C727.953 1696.07 712.422 1673.01 692.622 1653.24C672.823 1633.44 649.791 1617.9 624.131 1607.05C597.555 1595.79 569.338 1590.1 540.253 1590.1C511.169 1590.1 482.952 1595.79 456.376 1607.03C430.716 1617.88 407.66 1633.41 387.884 1653.21C368.085 1673.01 352.554 1696.04 341.701 1721.7C330.439 1748.28 324.747 1776.52 324.747 1805.6C324.747 1834.69 330.439 1862.91 341.677 1889.48C352.529 1915.14 368.061 1938.2 387.86 1957.97C407.66 1977.77 430.691 1993.3 456.352 2004.16C482.928 2015.39 511.145 2021.09 540.229 2021.09C569.314 2021.09 597.53 2015.39 624.107 2004.16C649.767 1993.3 672.823 1977.77 692.598 1957.97C712.398 1938.17 727.929 1915.14 738.782 1889.48C750.02 1862.91 755.711 1834.69 755.711 1805.6C755.711 1776.52 750.02 1748.28 738.782 1721.73H738.806ZM684.592 1949.94C646.029 1988.5 594.781 2009.73 540.253 2009.73C485.726 2009.73 434.454 1988.5 395.915 1949.94C357.353 1911.38 336.13 1860.13 336.13 1805.6C336.13 1751.08 357.353 1699.8 395.915 1661.27C434.478 1622.7 485.726 1601.48 540.253 1601.48C594.781 1601.48 646.053 1622.7 684.592 1661.27C723.154 1699.83 744.377 1751.08 744.377 1805.6C744.377 1860.13 723.154 1911.4 684.592 1949.94Z" fill="black"/>
<path d="M1000.49 1688.64L998.816 1678.85L971.991 1683.42L969.257 1667.41L993.7 1663.24L992.09 1653.79L967.647 1657.95L965.166 1643.39L991.991 1638.82L990.319 1629.02L952.849 1635.41L963.013 1695.03L1000.49 1688.64Z" fill="black"/>
<path fill-rule="evenodd" clip-rule="evenodd" d="M899.07 1711.48L914.41 1727.88L906.524 1735.26L865.204 1691.1L882.488 1674.93C891.757 1666.25 902.334 1666.18 910.362 1674.76C916.62 1681.45 917.514 1689.48 913.176 1696.85L913.238 1696.92L938.508 1705.33L929.869 1713.42L905.753 1705.22L899.07 1711.48ZM888.4 1683.01L879.884 1690.98L892.282 1704.23L900.797 1696.26C905.969 1691.42 906.561 1686.49 902.488 1682.14C898.415 1677.78 893.633 1678.11 888.4 1683.01Z" fill="black"/>
<path fill-rule="evenodd" clip-rule="evenodd" d="M885.556 1789.08L864.408 1784.3L867.364 1771.24C870.246 1758.51 864.969 1749.35 853.09 1746.66C841.378 1744.01 832.381 1750.12 829.555 1762.59L824.192 1786.26L883.174 1799.62L885.556 1789.08ZM857.638 1769.21L854.72 1782.1L836.269 1777.93L839.187 1765.04C840.675 1758.46 844.47 1755.78 850.708 1757.19C856.608 1758.53 859.07 1762.89 857.638 1769.21Z" fill="black"/>
<path d="M895.913 1855.98L895.916 1855.98L895.91 1855.98L895.913 1855.98Z" fill="black"/>
<path fill-rule="evenodd" clip-rule="evenodd" d="M895.913 1855.98L875.707 1863.85L870.85 1851.37C866.117 1839.21 856.62 1834.56 845.266 1838.98C834.078 1843.34 830.036 1853.44 834.67 1865.35L843.476 1887.97L899.829 1866.04L895.913 1855.98ZM844.025 1861.99L848.82 1874.31L866.45 1867.45L861.656 1855.13C859.304 1849.1 854.818 1846.86 849.184 1849.05C843.229 1851.37 841.582 1855.71 844.025 1861.99Z" fill="black"/>
<path fill-rule="evenodd" clip-rule="evenodd" d="M919.1 1902.45L939.366 1916.29V1916.28L948.135 1909.71L957.126 1915.85L905.117 1953.58L896.842 1947.92L913.028 1885.75L922.019 1891.89L919.1 1902.45ZM909.338 1938.36L909.48 1938.46L931.294 1922.28L916.453 1912.15L909.338 1938.36Z" fill="black"/>
<path d="M1078.37 1691.11C1071.5 1703.18 1059.51 1707.4 1047.43 1702.04L1047.42 1702.04C1032.82 1695.56 1028.47 1680.02 1036.22 1662.57C1043.94 1645.2 1058.5 1637.95 1073.02 1644.41C1084.62 1649.56 1089.76 1661.2 1085.96 1673.6L1075.55 1670.86C1077.68 1662.45 1075.38 1656.32 1068.99 1653.48C1060.15 1649.55 1051.53 1654.71 1046.09 1666.94C1040.62 1679.26 1042.62 1689.04 1051.46 1692.96C1058.17 1695.94 1064.35 1693.3 1069.28 1685.18L1078.37 1691.11Z" fill="black"/>
<path d="M1135.8 1694.12L1087.92 1731.05L1094.51 1739.6L1142.4 1702.67L1135.8 1694.12Z" fill="black"/>
<path fill-rule="evenodd" clip-rule="evenodd" d="M1121.7 1772.47L1110.89 1770.7L1109.08 1759.97L1172.32 1771.28L1174 1781.15L1117.98 1812.61L1116.16 1801.88L1125.79 1796.66L1121.7 1772.47ZM1158.44 1778.79L1158.41 1778.62V1778.62L1131.63 1774.13L1134.62 1791.84L1158.44 1778.79Z" fill="black"/>
<path d="M1156.45 1860.52L1109.32 1842.23L1105.42 1852.31L1152.54 1870.58L1146.04 1887.34L1155.3 1890.93L1172.21 1847.36L1162.95 1843.76L1156.45 1860.52Z" fill="black"/>
<path d="M1057.69 1918.47L1051.81 1910.47L1082.43 1887.94L1118.27 1936.65L1087.65 1959.18L1081.76 1951.18L1103.68 1935.04L1094.92 1923.15L1074.95 1937.85L1069.27 1930.12L1089.24 1915.43L1079.61 1902.34L1057.69 1918.47Z" fill="black"/>
<path fill-rule="evenodd" clip-rule="evenodd" d="M1038.24 1832.88H961.667L999.952 1766.57L1038.24 1832.88ZM999.952 1788.78L980.902 1821.77H1019L999.952 1788.78Z" fill="black"/>
<path fill-rule="evenodd" clip-rule="evenodd" d="M999.952 1717.63C951.442 1717.63 911.979 1757.09 911.979 1805.6C911.979 1854.11 951.442 1893.58 999.952 1893.58C1048.46 1893.58 1087.92 1854.11 1087.92 1805.6C1087.92 1757.09 1048.46 1717.63 999.952 1717.63ZM999.952 1884.94C956.206 1884.94 920.618 1849.35 920.618 1805.6C920.618 1761.86 956.206 1726.27 999.952 1726.27C1043.7 1726.27 1079.28 1761.86 1079.28 1805.6C1079.28 1849.35 1043.7 1884.94 999.952 1884.94Z" fill="black"/>
<path d="M1010.09 1952.89C1010.09 1958.49 1005.55 1963.03 999.952 1963.03C994.352 1963.03 989.813 1958.49 989.813 1952.89C989.813 1947.29 994.352 1942.75 999.952 1942.75C1005.55 1942.75 1010.09 1947.29 1010.09 1952.89Z" fill="black"/>
<path fill-rule="evenodd" clip-rule="evenodd" d="M1198.52 1721.72C1187.66 1696.05 1172.13 1673.01 1152.34 1653.22C1132.55 1633.43 1109.5 1617.89 1083.84 1607.04C1057.27 1595.79 1029.04 1590.1 999.952 1590.1C970.862 1590.1 942.636 1595.79 916.064 1607.04C890.4 1617.89 867.358 1633.43 847.567 1653.22C827.777 1673.01 812.239 1696.06 801.384 1721.72C790.147 1748.29 784.445 1776.51 784.445 1805.6C784.445 1834.69 790.147 1862.92 801.384 1889.49C812.239 1915.16 827.777 1938.2 847.567 1957.99C867.358 1977.78 890.406 1993.32 916.064 2004.17C942.636 2015.41 970.862 2021.11 999.952 2021.11C1029.04 2021.11 1057.27 2015.41 1083.84 2004.17C1109.5 1993.32 1132.55 1977.78 1152.34 1957.99C1172.13 1938.2 1187.66 1915.15 1198.52 1889.49C1209.76 1862.92 1215.46 1834.69 1215.46 1805.6C1215.46 1776.51 1209.76 1748.29 1198.52 1721.72ZM1144.3 1949.95C1105.74 1988.5 1054.48 2009.74 999.952 2009.74C945.426 2009.74 894.164 1988.5 855.608 1949.95C817.052 1911.39 795.818 1860.13 795.818 1805.6C795.818 1751.08 817.052 1699.82 855.608 1661.26C894.164 1622.7 945.426 1601.47 999.952 1601.47C1054.48 1601.47 1105.74 1622.7 1144.3 1661.26C1182.85 1699.82 1204.08 1751.08 1204.08 1805.6C1204.08 1860.13 1182.85 1911.39 1144.3 1949.95Z" fill="black"/>
<path fill-rule="evenodd" clip-rule="evenodd" d="M1459.7 1709.99L1365.91 1872.43H1553.46L1459.67 1709.99H1459.7ZM1401.96 1851.6L1459.7 1751.63L1517.43 1851.6H1401.96Z" fill="black"/>
<path fill-rule="evenodd" clip-rule="evenodd" d="M1658.25 1721.73C1647.4 1696.07 1631.87 1673.01 1612.07 1653.24C1592.27 1633.44 1569.24 1617.9 1543.58 1607.05C1517 1595.79 1488.78 1590.1 1459.7 1590.1C1430.61 1590.1 1402.4 1595.79 1375.82 1607.03C1350.16 1617.88 1327.11 1633.41 1307.33 1653.21C1287.53 1673.01 1272 1696.04 1261.15 1721.7C1249.88 1748.28 1244.19 1776.52 1244.19 1805.6C1244.19 1834.69 1249.88 1862.91 1261.12 1889.48C1271.97 1915.14 1287.51 1938.2 1307.31 1957.97C1327.11 1977.77 1350.14 1993.3 1375.8 2004.16C1402.37 2015.39 1430.59 2021.09 1459.67 2021.09C1488.76 2021.09 1516.98 2015.39 1543.55 2004.16C1569.21 1993.3 1592.27 1977.77 1612.04 1957.97C1631.84 1938.17 1647.37 1915.14 1658.23 1889.48C1669.47 1862.91 1675.16 1834.69 1675.16 1805.6C1675.16 1776.52 1669.47 1748.28 1658.23 1721.73H1658.25ZM1604.04 1949.94C1565.47 1988.5 1514.23 2009.73 1459.7 2009.73C1405.17 2009.73 1353.9 1988.5 1315.36 1949.94C1276.8 1911.38 1255.58 1860.13 1255.58 1805.6C1255.58 1751.08 1276.8 1699.8 1315.36 1661.27C1353.92 1622.7 1405.17 1601.48 1459.7 1601.48C1514.23 1601.48 1565.5 1622.7 1604.04 1661.27C1642.6 1699.83 1663.82 1751.08 1663.82 1805.6C1663.82 1860.13 1642.6 1911.4 1604.04 1949.94Z" fill="black"/>
<path d="M1919.93 1688.64L1918.26 1678.85L1891.44 1683.42L1888.7 1667.41L1913.15 1663.24L1911.54 1653.79L1887.09 1657.95L1884.61 1643.39L1911.44 1638.82L1909.76 1629.02L1872.29 1635.41L1882.46 1695.03L1919.93 1688.64Z" fill="black"/>
<path fill-rule="evenodd" clip-rule="evenodd" d="M1818.51 1711.48L1833.86 1727.88L1825.97 1735.26L1784.65 1691.1L1801.93 1674.93C1811.2 1666.25 1821.78 1666.18 1829.81 1674.76C1836.06 1681.45 1836.96 1689.48 1832.62 1696.85L1832.68 1696.92L1857.95 1705.33L1849.31 1713.42L1825.2 1705.22L1818.51 1711.48ZM1807.85 1683.01L1799.33 1690.98L1811.73 1704.23L1820.24 1696.26C1825.41 1691.42 1826.01 1686.49 1821.93 1682.14C1817.86 1677.78 1813.08 1678.11 1807.85 1683.01Z" fill="black"/>
<path fill-rule="evenodd" clip-rule="evenodd" d="M1805 1789.08L1783.85 1784.3L1786.81 1771.24C1789.69 1758.51 1784.41 1749.35 1772.54 1746.66C1760.82 1744.01 1751.83 1750.12 1749 1762.59L1743.64 1786.26L1802.62 1799.62L1805 1789.08ZM1777.08 1769.21L1774.16 1782.1L1755.71 1777.93L1758.63 1765.04C1760.12 1758.46 1763.91 1755.78 1770.15 1757.19C1776.05 1758.53 1778.52 1762.89 1777.08 1769.21Z" fill="black"/>
<path d="M1815.36 1855.98L1815.36 1855.98L1815.36 1855.98L1815.36 1855.98Z" fill="black"/>
<path fill-rule="evenodd" clip-rule="evenodd" d="M1815.36 1855.98L1795.15 1863.85L1790.3 1851.37C1785.56 1839.21 1776.07 1834.56 1764.71 1838.98C1753.52 1843.34 1749.48 1853.44 1754.12 1865.35L1762.92 1887.97L1819.27 1866.04L1815.36 1855.98ZM1763.47 1861.99L1768.27 1874.31L1785.9 1867.45L1781.1 1855.13C1778.75 1849.1 1774.26 1846.86 1768.63 1849.05C1762.67 1851.37 1761.03 1855.71 1763.47 1861.99Z" fill="black"/>
<path fill-rule="evenodd" clip-rule="evenodd" d="M1838.55 1902.45L1858.81 1916.29V1916.28L1867.58 1909.71L1876.57 1915.85L1824.56 1953.58L1816.29 1947.92L1832.47 1885.75L1841.46 1891.89L1838.55 1902.45ZM1828.78 1938.36L1828.93 1938.46L1850.74 1922.28L1835.9 1912.15L1828.78 1938.36Z" fill="black"/>
<path d="M1997.82 1691.11C1990.94 1703.18 1978.96 1707.4 1966.88 1702.04L1966.86 1702.04C1952.26 1695.56 1947.91 1680.02 1955.66 1662.57C1963.38 1645.2 1977.94 1637.95 1992.47 1644.41C2004.07 1649.56 2009.2 1661.2 2005.4 1673.6L1994.99 1670.86C1997.13 1662.45 1994.83 1656.32 1988.44 1653.48C1979.59 1649.55 1970.97 1654.71 1965.54 1666.94C1960.07 1679.26 1962.06 1689.04 1970.91 1692.96C1977.61 1695.94 1983.8 1693.3 1988.73 1685.18L1997.82 1691.11Z" fill="black"/>
<path d="M2055.25 1694.12L2007.36 1731.05L2013.96 1739.6L2061.84 1702.67L2055.25 1694.12Z" fill="black"/>
<path fill-rule="evenodd" clip-rule="evenodd" d="M2041.15 1772.47L2030.34 1770.7L2028.52 1759.97L2091.77 1771.28L2093.44 1781.15L2037.42 1812.61L2035.61 1801.88L2045.24 1796.66L2041.15 1772.47ZM2077.88 1778.79L2077.85 1778.62V1778.62L2051.07 1774.13L2054.06 1791.84L2077.88 1778.79Z" fill="black"/>
<path d="M2075.89 1860.52L2028.77 1842.23L2024.86 1852.31L2071.98 1870.58L2065.49 1887.34L2074.75 1890.93L2091.66 1847.36L2082.4 1843.76L2075.89 1860.52Z" fill="black"/>
<path d="M1977.14 1918.47L1971.25 1910.47L2001.87 1887.94L2037.71 1936.65L2007.09 1959.18L2001.2 1951.18L2023.12 1935.04L2014.37 1923.15L1994.4 1937.85L1988.71 1930.12L2008.68 1915.43L1999.06 1902.34L1977.14 1918.47Z" fill="black"/>
<path fill-rule="evenodd" clip-rule="evenodd" d="M1957.68 1832.88H1881.11L1919.4 1766.57L1957.68 1832.88ZM1919.4 1788.78L1900.35 1821.77H1938.45L1919.4 1788.78Z" fill="black"/>
<path fill-rule="evenodd" clip-rule="evenodd" d="M1919.4 1717.63C1870.89 1717.63 1831.42 1757.09 1831.42 1805.6C1831.42 1854.11 1870.89 1893.58 1919.4 1893.58C1967.91 1893.58 2007.37 1854.11 2007.37 1805.6C2007.37 1757.09 1967.91 1717.63 1919.4 1717.63ZM1919.4 1884.94C1875.65 1884.94 1840.06 1849.35 1840.06 1805.6C1840.06 1761.86 1875.65 1726.27 1919.4 1726.27C1963.14 1726.27 1998.73 1761.86 1998.73 1805.6C1998.73 1849.35 1963.14 1884.94 1919.4 1884.94Z" fill="black"/>
<path d="M1929.54 1952.89C1929.54 1958.49 1925 1963.03 1919.4 1963.03C1913.8 1963.03 1909.26 1958.49 1909.26 1952.89C1909.26 1947.29 1913.8 1942.75 1919.4 1942.75C1925 1942.75 1929.54 1947.29 1929.54 1952.89Z" fill="black"/>
<path fill-rule="evenodd" clip-rule="evenodd" d="M2117.96 1721.72C2107.11 1696.05 2091.57 1673.01 2071.78 1653.22C2051.99 1633.43 2028.94 1617.89 2003.28 1607.04C1976.71 1595.79 1948.49 1590.1 1919.4 1590.1C1890.31 1590.1 1862.08 1595.79 1835.51 1607.04C1809.84 1617.89 1786.8 1633.43 1767.01 1653.22C1747.22 1673.01 1731.68 1696.06 1720.83 1721.72C1709.59 1748.29 1703.89 1776.51 1703.89 1805.6C1703.89 1834.69 1709.59 1862.92 1720.83 1889.49C1731.68 1915.16 1747.22 1938.2 1767.01 1957.99C1786.8 1977.78 1809.85 1993.32 1835.51 2004.17C1862.08 2015.41 1890.31 2021.11 1919.4 2021.11C1948.49 2021.11 1976.71 2015.41 2003.28 2004.17C2028.95 1993.32 2051.99 1977.78 2071.78 1957.99C2091.57 1938.2 2107.11 1915.15 2117.96 1889.49C2129.2 1862.92 2134.9 1834.69 2134.9 1805.6C2134.9 1776.51 2129.2 1748.29 2117.96 1721.72ZM2063.74 1949.95C2025.18 1988.5 1973.92 2009.74 1919.4 2009.74C1864.87 2009.74 1813.61 1988.5 1775.05 1949.95C1736.5 1911.39 1715.26 1860.13 1715.26 1805.6C1715.26 1751.08 1736.5 1699.82 1775.05 1661.26C1813.61 1622.7 1864.87 1601.47 1919.4 1601.47C1973.92 1601.47 2025.18 1622.7 2063.74 1661.26C2102.3 1699.82 2123.53 1751.08 2123.53 1805.6C2123.53 1860.13 2102.3 1911.39 2063.74 1949.95Z" fill="black"/>
</g>
<defs>
<clipPath id="clip0_1_1150">
<rect width="2000" height="1772" fill="white"/>
</clipPath>
</defs>
</svg>
