<svg width="2000" height="1729" viewBox="0 0 2000 1729" fill="none" xmlns="http://www.w3.org/2000/svg">
<rect width="2000" height="1729" fill="#F3F3F3"/>
<path d="M705.715 644.078H700.068L679.185 700.243C676.166 708.211 673.641 713.653 669 718.294V718.499H684.935V718.294C681.301 714.66 678.691 707.596 683.024 696.012L685.037 690.672H708.428L711.858 699.953C714.775 708.023 714.178 714.575 711.653 718.311V718.516H736.255V718.311C732.723 714.37 730.096 709.439 726.974 701.062L705.698 644.078H705.715ZM685.839 688.454L696.724 659.006L707.609 688.454H685.822H685.839Z" fill="black"/>
<path d="M771.162 644.675H744.734V644.88C747.856 651.534 748.761 655.27 748.761 664.347V698.844C748.761 707.818 747.856 711.657 744.734 718.311V718.516H767.323V718.311C764.099 711.657 763.297 707.818 763.297 698.844V688.249H769.353C790.526 688.249 800.217 678.166 800.217 664.961C800.217 653.871 793.461 644.692 771.179 644.692L771.162 644.675ZM768.04 686.031H763.297V647.012C765.515 646.91 767.033 646.808 768.244 646.808C778.737 646.808 785.493 652.25 785.493 665.063C785.493 675.249 780.853 686.031 768.04 686.031Z" fill="black"/>
<path d="M836.881 644.675H810.454V644.88C813.576 651.534 814.48 655.27 814.48 664.347V698.844C814.48 707.818 813.576 711.657 810.454 718.311V718.516H833.043V718.311C829.818 711.657 829.016 707.818 829.016 698.844V688.249H835.073C856.246 688.249 865.937 678.166 865.937 664.961C865.937 653.871 859.18 644.692 836.898 644.692L836.881 644.675ZM833.742 686.031H828.999V647.012C831.217 646.91 832.736 646.808 833.947 646.808C844.439 646.808 851.196 652.25 851.196 665.063C851.196 675.249 846.555 686.031 833.742 686.031Z" fill="black"/>
<path d="M927.34 704.577L915.636 681.288C925.514 677.757 929.745 670.693 929.745 662.538C929.745 651.841 922.477 644.692 902.72 644.692H874.382V644.897C877.504 651.551 878.408 655.287 878.408 664.364V698.861C878.408 707.835 877.504 711.674 874.382 718.328V718.533H896.971V718.328C893.849 711.674 892.944 707.835 892.944 698.861V683.54H900.605L918.058 718.533H938.736V717.936C933.396 715.206 931.281 712.493 927.34 704.628V704.577ZM899.7 681.391H892.944V646.91C895.862 646.808 898.284 646.808 899.598 646.808C911.404 646.808 914.919 653.564 914.919 662.64C914.919 672.229 911.797 681.391 899.683 681.391H899.7Z" fill="black"/>
<path d="M982.055 716.076L965.625 716.775V682.09H973.08C978.216 682.09 982.856 688.846 986.491 692.378H987.395V669.584H986.491C982.754 673.423 978.114 679.872 973.08 679.872H965.625V646.398L980.86 647.2C985.808 647.507 993.776 658.085 999.218 663.63L1000.12 663.323L996.284 644.675H947.079V644.88C949.707 651.431 951.003 655.475 951.003 663.442V699.748C951.003 707.614 949.69 711.64 947.079 718.311V718.516H1000.72L1005.46 697.036L1004.56 696.729C998.911 704.389 989.835 715.684 982.072 716.093L982.055 716.076Z" fill="black"/>
<path d="M1050.64 717.901C1034.5 717.901 1026.74 703.485 1026.74 682.005C1026.74 660.525 1033.29 645.289 1051.03 645.289C1061.92 645.289 1068.28 651.039 1078.57 665.251L1079.47 664.944L1077.46 647.49C1071.71 645.579 1062.94 643.157 1051.95 643.157C1028.05 643.157 1010.8 660.303 1010.8 681.988C1010.8 703.672 1027.15 720 1050.54 720C1064.75 720 1075.75 714.148 1077.87 712.647L1079.88 693.487L1078.98 693.18C1071.11 707.904 1063.95 717.884 1050.64 717.884V717.901Z" fill="black"/>
<path d="M1093.75 644.88C1096.88 651.534 1097.78 655.27 1097.78 664.347V698.844C1097.78 707.921 1096.88 711.657 1093.75 718.311V718.516H1116.34V718.311C1113.22 711.657 1112.32 707.818 1112.32 698.844V664.261C1112.32 655.389 1113.22 651.551 1116.34 644.897V644.692H1093.75V644.897V644.88Z" fill="black"/>
<path d="M1163.12 644.078H1157.48L1136.59 700.243C1133.57 708.211 1131.05 713.653 1126.41 718.294V718.499H1142.34V718.294C1138.71 714.66 1136.1 707.596 1140.43 696.012L1142.45 690.672H1165.84L1169.27 699.953C1172.18 708.023 1171.59 714.575 1169.06 718.311V718.516H1193.66V718.311C1190.13 714.37 1187.5 709.439 1184.38 701.062L1163.11 644.078H1163.12ZM1143.25 688.454L1154.13 659.006L1165.02 688.454H1143.23H1143.25Z" fill="black"/>
<path d="M1193.27 644.675L1189.14 667.673L1190.05 667.981C1195.39 660.32 1203.56 647.302 1208.69 646.91L1216.97 646.501V698.844C1216.97 707.818 1215.96 711.657 1212.84 718.311V718.516H1235.53V718.311C1232.41 711.657 1231.51 707.818 1231.51 698.844V646.501L1239.68 646.91C1244.81 647.32 1253.09 660.32 1258.33 667.981L1259.33 667.673L1255.2 644.675H1193.27Z" fill="black"/>
<path d="M1329.16 696.712C1323.52 704.372 1314.44 715.666 1306.68 716.076L1290.25 716.775V682.09H1297.7C1302.84 682.09 1307.48 688.846 1311.11 692.378H1312.02V669.584H1311.11C1307.38 673.423 1302.74 679.872 1297.7 679.872H1290.25V646.398L1305.48 647.2C1310.43 647.507 1318.4 658.085 1323.84 663.63L1324.74 663.323L1320.91 644.675H1271.7V644.88C1274.33 651.431 1275.63 655.475 1275.63 663.442V699.748C1275.63 707.614 1274.31 711.64 1271.7 718.311V718.516H1325.36L1330.1 697.036L1329.2 696.729L1329.16 696.712Z" fill="black"/>
<path fill-rule="evenodd" clip-rule="evenodd" d="M999.918 319.695L998.74 312.768L979.751 316.01L977.823 304.681L995.123 301.729L993.98 295.041L976.68 297.993L974.923 287.688L993.912 284.446L992.718 277.52L966.222 282.041L973.405 324.216L999.918 319.695Z" fill="black"/>
<path fill-rule="evenodd" clip-rule="evenodd" d="M939.026 347.453L928.176 335.852L932.902 331.433L949.963 337.234L956.07 331.518L938.19 325.564L938.139 325.513C941.21 320.292 940.579 314.61 936.143 309.885C930.462 303.811 922.972 303.862 916.42 310.004L904.188 321.452L933.413 352.691L938.992 347.47L939.026 347.453ZM914.595 321.35L920.618 315.719C924.32 312.256 927.698 312.017 930.581 315.105C933.464 318.176 933.038 321.674 929.387 325.103L923.364 330.733L914.595 321.367V321.35Z" fill="black"/>
<path fill-rule="evenodd" clip-rule="evenodd" d="M918.604 390.754L903.642 387.359L905.74 378.129C907.77 369.121 904.051 362.638 895.64 360.744C887.348 358.867 880.984 363.201 878.988 372.004L875.201 388.758L916.932 398.21L918.621 390.754H918.604ZM898.865 376.696L896.8 385.824L883.748 382.872L885.813 373.744C886.871 369.087 889.549 367.193 893.968 368.199C898.148 369.138 899.888 372.226 898.865 376.696Z" fill="black"/>
<path fill-rule="evenodd" clip-rule="evenodd" d="M925.94 438.082L911.643 443.644L908.214 434.823C904.87 426.224 898.148 422.932 890.112 426.054C882.196 429.142 879.347 436.29 882.622 444.702L888.85 460.705L928.721 445.196L925.958 438.082H925.94ZM892.62 451.048L889.225 442.33C887.502 437.894 888.662 434.823 892.876 433.168C896.868 431.616 900.042 433.202 901.697 437.468L905.092 446.186L892.62 451.031V451.048Z" fill="black"/>
<path fill-rule="evenodd" clip-rule="evenodd" d="M956.685 480.735L942.353 470.959L944.418 463.486L938.054 459.135L926.606 503.119L932.458 507.111L969.259 480.428L962.895 476.077L956.685 480.718V480.735ZM935.529 496.431L935.427 496.363L940.46 477.817L950.952 484.983L935.512 496.431H935.529Z" fill="black"/>
<path fill-rule="evenodd" clip-rule="evenodd" d="M1033.12 329.181C1041.67 332.968 1050.15 329.983 1055.01 321.452L1048.58 317.255C1045.1 322.988 1040.71 324.864 1035.97 322.749C1029.71 319.968 1028.31 313.058 1032.16 304.34C1036.02 295.69 1042.11 292.039 1048.37 294.82C1052.89 296.833 1054.51 301.166 1053.01 307.121L1060.38 309.049C1063.08 300.279 1059.44 292.039 1051.24 288.405C1040.97 283.832 1030.66 288.968 1025.2 301.252C1019.73 313.604 1022.8 324.591 1033.12 329.181Z" fill="black"/>
<path d="M1095.68 323.593L1061.79 349.725L1066.46 355.777L1100.34 329.646L1095.68 323.593Z" fill="black"/>
<path fill-rule="evenodd" clip-rule="evenodd" d="M1078.02 377.754L1085.67 378.999L1088.57 396.111L1081.74 399.797L1083.02 407.389L1122.66 385.141L1121.48 378.146L1076.74 370.144L1078.02 377.737V377.754ZM1111.63 383.35L1111.65 383.469L1094.79 392.699L1092.68 380.159L1111.63 383.35Z" fill="black"/>
<path fill-rule="evenodd" clip-rule="evenodd" d="M1110.25 441.289L1076.91 428.357L1074.15 435.472L1107.49 448.404L1102.88 460.261L1109.43 462.803L1121.41 431.974L1114.84 429.432L1110.25 441.289Z" fill="black"/>
<path fill-rule="evenodd" clip-rule="evenodd" d="M1036.22 476.623L1040.39 482.287L1055.9 470.873L1062.7 480.138L1048.58 490.528L1052.6 495.987L1066.73 485.597L1072.92 494.008L1057.41 505.422L1061.58 511.086L1083.24 495.151L1057.89 460.688L1036.22 476.623Z" fill="black"/>
<path fill-rule="evenodd" clip-rule="evenodd" d="M972.449 421.737H1026.62L999.542 374.819L972.466 421.737H972.449ZM986.064 413.872L999.542 390.533L1013.02 413.872H986.064Z" fill="black"/>
<path fill-rule="evenodd" clip-rule="evenodd" d="M999.542 340.202C965.232 340.202 937.303 368.114 937.303 402.441C937.303 436.768 965.215 464.68 999.542 464.68C1033.87 464.68 1061.78 436.768 1061.78 402.441C1061.78 368.114 1033.87 340.202 999.542 340.202ZM999.542 458.555C968.594 458.555 943.411 433.373 943.411 402.424C943.411 371.475 968.594 346.293 999.542 346.293C1030.49 346.293 1055.67 371.475 1055.67 402.424C1055.67 433.373 1030.49 458.555 999.542 458.555Z" fill="black"/>
<path fill-rule="evenodd" clip-rule="evenodd" d="M999.542 499.468C995.584 499.468 992.377 502.675 992.377 506.633C992.377 510.592 995.584 513.799 999.542 513.799C1003.5 513.799 1006.71 510.592 1006.71 506.633C1006.71 502.675 1003.5 499.468 999.542 499.468Z" fill="black"/>
<path fill-rule="evenodd" clip-rule="evenodd" d="M1140.01 343.103C1132.33 324.95 1121.34 308.639 1107.33 294.649C1093.33 280.642 1077.03 269.654 1058.88 261.977C1040.08 254.026 1020.12 250 999.542 250C978.966 250 959.005 254.026 940.204 261.977C922.051 269.654 905.74 280.642 891.75 294.649C877.743 308.656 866.755 324.95 859.078 343.103C851.127 361.904 847.101 381.865 847.101 402.441C847.101 423.017 851.127 442.978 859.078 461.78C866.755 479.933 877.743 496.243 891.75 510.233C905.757 524.241 922.051 535.228 940.204 542.905C959.005 550.856 978.966 554.882 999.542 554.882C1020.12 554.882 1040.08 550.856 1058.88 542.905C1077.03 535.228 1093.34 524.241 1107.33 510.233C1121.34 496.226 1132.33 479.933 1140.01 461.78C1147.96 442.978 1151.98 423.017 1151.98 402.441C1151.98 381.865 1147.96 361.887 1140.01 343.103ZM1101.65 504.552C1074.37 531.833 1038.12 546.847 999.542 546.847C960.967 546.847 924.695 531.833 897.431 504.552C870.151 477.271 855.137 441.016 855.137 402.441C855.137 363.866 870.168 327.611 897.431 300.33C924.712 273.05 960.967 258.036 999.542 258.036C1038.12 258.036 1074.39 273.05 1101.65 300.33C1128.93 327.611 1143.95 363.866 1143.95 402.441C1143.95 441.016 1128.93 477.288 1101.65 504.552Z" fill="black"/>
<path fill-rule="evenodd" clip-rule="evenodd" d="M999.542 1081.8L933.192 1196.72H1065.88L999.525 1081.8H999.542ZM958.698 1181.98L999.542 1111.26L1040.39 1181.98H958.698Z" fill="black"/>
<path d="M705.716 1391.08H700.068L679.185 1447.25C676.166 1455.21 673.641 1460.66 669 1465.3V1465.5H684.935V1465.3C681.301 1461.66 678.691 1454.6 683.024 1443.01L685.037 1437.67H708.428L711.858 1446.96C714.775 1455.02 714.178 1461.58 711.653 1465.31V1465.52H736.255V1465.31C732.723 1461.37 730.096 1456.44 726.974 1448.06L705.698 1391.08H705.716ZM685.839 1435.46L696.724 1406.01L707.609 1435.46H685.822H685.839Z" fill="black"/>
<path d="M771.162 1391.68H744.734V1391.88C747.857 1398.54 748.761 1402.27 748.761 1411.35V1445.85C748.761 1454.82 747.857 1458.66 744.734 1465.31V1465.52H767.323V1465.31C764.099 1458.66 763.297 1454.82 763.297 1445.85V1435.25H769.354C790.526 1435.25 800.217 1425.17 800.217 1411.96C800.217 1400.87 793.461 1391.69 771.179 1391.69L771.162 1391.68ZM768.04 1433.03H763.297V1394.01C765.515 1393.91 767.033 1393.81 768.245 1393.81C778.737 1393.81 785.493 1399.25 785.493 1412.07C785.493 1422.25 780.853 1433.03 768.04 1433.03Z" fill="black"/>
<path d="M836.864 1391.68H810.437V1391.88C813.559 1398.54 814.463 1402.27 814.463 1411.35V1445.85C814.463 1454.82 813.559 1458.66 810.437 1465.31V1465.52H833.026V1465.31C829.801 1458.66 828.999 1454.82 828.999 1445.85V1435.25H835.056C856.229 1435.25 865.92 1425.17 865.92 1411.96C865.92 1400.87 859.163 1391.69 836.882 1391.69L836.864 1391.68ZM833.742 1433.03H828.999V1394.01C831.217 1393.91 832.736 1393.81 833.947 1393.81C844.44 1393.81 851.196 1399.25 851.196 1412.07C851.196 1422.25 846.555 1433.03 833.742 1433.03Z" fill="black"/>
<path d="M927.34 1451.58L915.636 1428.29C925.514 1424.76 929.745 1417.7 929.745 1409.54C929.745 1398.84 922.477 1391.69 902.72 1391.69H874.382V1391.9C877.504 1398.55 878.408 1402.29 878.408 1411.37V1445.86C878.408 1454.84 877.504 1458.68 874.382 1465.33V1465.53H896.971V1465.33C893.849 1458.68 892.944 1454.84 892.944 1445.86V1430.54H900.605L918.058 1465.53H938.736V1464.94C933.396 1462.21 931.281 1459.5 927.34 1451.63V1451.58ZM899.701 1428.39H892.944V1393.91C895.862 1393.81 898.285 1393.81 899.598 1393.81C911.405 1393.81 914.919 1400.57 914.919 1409.64C914.919 1419.23 911.797 1428.39 899.684 1428.39H899.701Z" fill="black"/>
<path d="M982.055 1463.08L965.625 1463.78V1429.09H973.08C978.216 1429.09 982.857 1435.85 986.491 1439.38H987.395V1416.59H986.491C982.754 1420.43 978.114 1426.87 973.08 1426.87H965.625V1393.4L980.86 1394.2C985.808 1394.51 993.776 1405.09 999.218 1410.63L1000.12 1410.32L996.284 1391.68H947.079V1391.88C949.707 1398.43 951.003 1402.48 951.003 1410.44V1446.75C951.003 1454.62 949.69 1458.64 947.079 1465.31V1465.52H1000.72L1005.46 1444.04L1004.56 1443.73C998.911 1451.39 989.835 1462.69 982.072 1463.09L982.055 1463.08Z" fill="black"/>
<path d="M1050.64 1464.9C1034.5 1464.9 1026.74 1450.49 1026.74 1429.01C1026.74 1407.53 1033.29 1392.29 1051.03 1392.29C1061.92 1392.29 1068.28 1398.04 1078.57 1412.25L1079.47 1411.95L1077.46 1394.49C1071.71 1392.58 1062.94 1390.16 1051.95 1390.16C1028.05 1390.16 1010.8 1407.31 1010.8 1428.99C1010.8 1450.67 1027.15 1467 1050.54 1467C1064.75 1467 1075.75 1461.15 1077.87 1459.65L1079.88 1440.49L1078.98 1440.18C1071.11 1454.91 1063.95 1464.89 1050.64 1464.89V1464.9Z" fill="black"/>
<path d="M1093.74 1391.88C1096.86 1398.54 1097.76 1402.27 1097.76 1411.35V1445.85C1097.76 1454.92 1096.86 1458.66 1093.74 1465.31V1465.52H1116.33V1465.31C1113.2 1458.66 1112.3 1454.82 1112.3 1445.85V1411.26C1112.3 1402.39 1113.2 1398.55 1116.33 1391.9V1391.69H1093.74V1391.9V1391.88Z" fill="black"/>
<path d="M1163.11 1391.08H1157.46L1136.58 1447.25C1133.56 1455.21 1131.03 1460.66 1126.39 1465.3V1465.5H1142.33V1465.3C1138.69 1461.66 1136.08 1454.6 1140.42 1443.01L1142.43 1437.67H1165.82L1169.25 1446.96C1172.17 1455.02 1171.57 1461.58 1169.04 1465.31V1465.52H1193.65V1465.31C1190.12 1461.37 1187.49 1456.44 1184.37 1448.06L1163.09 1391.08H1163.11ZM1143.25 1435.46L1154.13 1406.01L1165.02 1435.46H1143.23H1143.25Z" fill="black"/>
<path d="M1193.27 1391.68L1189.14 1414.68L1190.05 1414.98C1195.39 1407.32 1203.56 1394.3 1208.69 1393.91L1216.97 1393.5V1445.85C1216.97 1454.82 1215.96 1458.66 1212.84 1465.31V1465.52H1235.53V1465.31C1232.41 1458.66 1231.51 1454.82 1231.51 1445.85V1393.5L1239.68 1393.91C1244.81 1394.32 1253.09 1407.32 1258.33 1414.98L1259.33 1414.68L1255.2 1391.68H1193.27Z" fill="black"/>
<path d="M1329.16 1443.71C1323.52 1451.37 1314.44 1462.67 1306.68 1463.08L1290.25 1463.78V1429.09H1297.7C1302.84 1429.09 1307.48 1435.85 1311.11 1439.38H1312.02V1416.59H1311.11C1307.38 1420.43 1302.74 1426.87 1297.7 1426.87H1290.25V1393.4L1305.48 1394.2C1310.43 1394.51 1318.4 1405.09 1323.84 1410.63L1324.74 1410.32L1320.91 1391.68H1271.7V1391.88C1274.33 1398.43 1275.63 1402.48 1275.63 1410.44V1446.75C1275.63 1454.62 1274.31 1458.64 1271.7 1465.31V1465.52H1325.36L1330.1 1444.04L1329.2 1443.73L1329.16 1443.71Z" fill="black"/>
<path fill-rule="evenodd" clip-rule="evenodd" d="M1140.01 1090.1C1132.33 1071.95 1121.34 1055.64 1107.33 1041.65C1093.33 1027.64 1077.03 1016.66 1058.88 1008.98C1040.08 1001.03 1020.12 997.002 999.542 997.002C978.967 997.002 959.005 1001.03 940.204 1008.98C922.051 1016.66 905.74 1027.64 891.75 1041.65C877.743 1055.66 866.756 1071.95 859.078 1090.1C851.128 1108.91 847.101 1128.87 847.101 1149.44C847.101 1170.02 851.128 1189.98 859.078 1208.78C866.756 1226.93 877.743 1243.25 891.75 1257.24C905.757 1271.24 922.051 1282.23 940.204 1289.91C959.005 1297.86 978.967 1301.88 999.542 1301.88C1020.12 1301.88 1040.08 1297.86 1058.88 1289.91C1077.03 1282.23 1093.34 1271.24 1107.33 1257.24C1121.34 1243.23 1132.33 1226.93 1140.01 1208.78C1147.96 1189.98 1151.98 1170.02 1151.98 1149.44C1151.98 1128.87 1147.96 1108.89 1140.01 1090.1ZM1101.65 1251.55C1074.37 1278.83 1038.12 1293.85 999.542 1293.85C960.967 1293.85 924.695 1278.83 897.431 1251.55C870.151 1224.27 855.137 1188.02 855.137 1149.44C855.137 1110.87 870.168 1074.61 897.431 1047.33C924.712 1020.05 960.967 1005.04 999.542 1005.04C1038.12 1005.04 1074.39 1020.05 1101.65 1047.33C1128.93 1074.61 1143.95 1110.87 1143.95 1149.44C1143.95 1188.02 1128.93 1224.29 1101.65 1251.55Z" fill="black"/>
</svg>
