<svg width="2000" height="1571" viewBox="0 0 2000 1571" fill="none" xmlns="http://www.w3.org/2000/svg">
<rect width="2000" height="1571" fill="#F3F3F3"/>
<path d="M1001 443H1025.62V979.111H1001V443Z" fill="#7B7261"/>
<path d="M1190.18 501.641H1140.91V550.918H1190.18V501.641Z" fill="#7B7261"/>
<path fill-rule="evenodd" clip-rule="evenodd" d="M836.489 544.196V592.685C813.106 569.459 783.369 553.676 751.028 547.328C718.688 540.98 685.191 544.349 654.763 557.012C624.335 569.676 598.338 591.065 580.05 618.483C561.761 645.901 552.001 678.121 552 711.079C552 755.339 569.582 797.787 600.879 829.083C632.175 860.38 674.622 877.962 718.883 877.962C740.713 877.992 762.335 873.722 782.514 865.394C802.694 857.066 821.034 844.845 836.489 829.427V877.962H885.766V544.196H836.489ZM836.489 711.079C836.49 734.34 829.593 757.079 816.671 776.421C803.748 795.762 785.38 810.837 763.89 819.739C742.399 828.641 718.752 830.97 695.937 826.431C673.123 821.893 652.167 810.691 635.72 794.242C624.795 783.321 616.129 770.355 610.216 756.085C604.303 741.814 601.258 726.519 601.256 711.072C601.254 695.625 604.294 680.329 610.203 666.057C616.113 651.785 624.775 638.817 635.697 627.893C646.617 616.968 659.583 608.302 673.854 602.389C688.124 596.476 703.419 593.431 718.866 593.429C734.314 593.427 749.61 596.467 763.882 602.376C778.153 608.286 791.122 616.948 802.046 627.869C813.007 638.77 821.696 651.738 827.608 666.022C833.52 680.305 836.539 695.62 836.489 711.079Z" fill="#7B7261"/>
<path d="M1140.91 585.546H1190.18V877.961H1140.91V585.546Z" fill="#7B7261"/>
<path d="M1238.21 585.546V634.776H1313.59V877.962H1362.86V634.776H1438.24V585.546H1362.86V501.641H1311.04V585.546H1238.21Z" fill="#7B7261"/>
<path d="M803.606 1228.7L800.717 1231.01C791.039 1220.47 786.344 1209.06 786.344 1195.69C786.344 1182.41 791.039 1170.92 800.717 1160.38L803.606 1162.76C794.794 1172.94 790.822 1183.13 790.822 1195.69C790.822 1208.33 794.794 1218.52 803.606 1228.7ZM819.351 1218.08C811.767 1218.08 807.073 1214.04 807.073 1207.47C807.073 1201.04 810.901 1197.79 820.795 1195.33C828.451 1193.31 830.978 1191.58 830.978 1188.26C830.978 1184.07 827.656 1181.47 822.239 1181.47C816.462 1181.47 812.345 1184.93 811.406 1190.64L807.217 1189.84C808.373 1182.41 814.223 1177.64 822.239 1177.64C830.473 1177.64 835.456 1182.04 835.456 1189.27V1217H831.484V1212.02H831.339C829.173 1215.63 824.406 1218.08 819.351 1218.08ZM819.639 1214.18C826.284 1214.18 831.267 1209.99 831.267 1204.43V1193.96H831.123C830.184 1195.98 827.584 1197.43 821.951 1198.87C814.223 1200.89 811.262 1203.13 811.262 1207.25C811.262 1211.66 814.223 1214.18 819.639 1214.18ZM849.452 1233.25H845.263V1178.72H849.452V1183.56H849.596C852.052 1180.02 856.385 1177.64 861.513 1177.64C871.552 1177.64 878.63 1185.87 878.63 1197.86C878.63 1209.78 871.552 1218.08 861.657 1218.08C856.53 1218.08 851.98 1215.77 849.596 1212.31H849.452V1233.25ZM861.369 1214.18C869.169 1214.18 874.441 1207.54 874.441 1197.86C874.441 1188.11 869.169 1181.54 861.513 1181.54C854.796 1181.54 849.452 1186.74 849.452 1193.02V1202.7C849.452 1209.06 854.796 1214.18 861.369 1214.18ZM891.558 1233.25H887.369V1178.72H891.558V1183.56H891.703C894.158 1180.02 898.491 1177.64 903.619 1177.64C913.658 1177.64 920.736 1185.87 920.736 1197.86C920.736 1209.78 913.658 1218.08 903.764 1218.08C898.636 1218.08 894.086 1215.77 891.703 1212.31H891.558V1233.25ZM903.475 1214.18C911.275 1214.18 916.547 1207.54 916.547 1197.86C916.547 1188.11 911.275 1181.54 903.619 1181.54C896.903 1181.54 891.558 1186.74 891.558 1193.02V1202.7C891.558 1209.06 896.903 1214.18 903.475 1214.18ZM933.664 1217H929.475V1178.72H933.448V1182.41H933.592C934.964 1179.88 937.709 1178.07 941.464 1178.07C942.692 1178.07 943.631 1178.29 944.786 1178.58L943.92 1182.84C942.764 1182.55 941.898 1182.41 940.742 1182.41C936.048 1182.41 933.664 1185.8 933.664 1192.73V1217ZM965.255 1218.08C954.711 1218.08 947.85 1210.14 947.85 1197.86C947.85 1186.02 954.711 1177.64 965.111 1177.64C975.366 1177.64 982.083 1185.29 982.083 1196.99V1198.94H952.111C952.183 1207.76 957.166 1214.26 965.183 1214.26C971.033 1214.26 974.644 1211.87 977.677 1205.88L981.144 1207.9C978.111 1214.62 972.622 1218.08 965.255 1218.08ZM952.183 1195.48H977.822C977.605 1187.39 972.694 1181.47 965.111 1181.47C957.672 1181.47 952.4 1187.89 952.183 1195.48ZM1006.16 1218.08C995.907 1218.08 988.757 1209.78 988.757 1197.86C988.757 1185.94 995.907 1177.64 1006.16 1177.64C1014.61 1177.64 1020.97 1182.98 1022.41 1191.36L1018.37 1192.23C1017.14 1185.37 1012.52 1181.54 1006.16 1181.54C998.362 1181.54 992.946 1188.18 992.946 1197.86C992.946 1207.54 998.362 1214.18 1006.16 1214.18C1012.52 1214.18 1017.14 1210.36 1018.37 1203.49L1022.41 1204.36C1020.97 1212.74 1014.61 1218.08 1006.16 1218.08ZM1035.66 1171.93H1030.17V1166.59H1035.66V1171.93ZM1035.09 1217H1030.9V1178.72H1035.09V1217ZM1056.12 1218.08C1048.53 1218.08 1043.84 1214.04 1043.84 1207.47C1043.84 1201.04 1047.67 1197.79 1057.56 1195.33C1065.22 1193.31 1067.75 1191.58 1067.75 1188.26C1067.75 1184.07 1064.42 1181.47 1059.01 1181.47C1053.23 1181.47 1049.11 1184.93 1048.17 1190.64L1043.98 1189.84C1045.14 1182.41 1050.99 1177.64 1059.01 1177.64C1067.24 1177.64 1072.22 1182.04 1072.22 1189.27V1217H1068.25V1212.02H1068.11C1065.94 1215.63 1061.17 1218.08 1056.12 1218.08ZM1056.41 1214.18C1063.05 1214.18 1068.03 1209.99 1068.03 1204.43V1193.96H1067.89C1066.95 1195.98 1064.35 1197.43 1058.72 1198.87C1050.99 1200.89 1048.03 1203.13 1048.03 1207.25C1048.03 1211.66 1050.99 1214.18 1056.41 1214.18ZM1097.21 1178.72V1182.48H1087.89V1209.42C1087.89 1212.02 1088.9 1213.1 1092.01 1213.1H1095.11V1217H1091.79C1085.87 1217 1083.7 1214.91 1083.7 1209.34V1182.48H1078.07V1178.72H1083.7V1170.34H1087.89V1178.72H1097.21ZM1117.88 1218.08C1107.34 1218.08 1100.48 1210.14 1100.48 1197.86C1100.48 1186.02 1107.34 1177.64 1117.74 1177.64C1127.99 1177.64 1134.71 1185.29 1134.71 1196.99V1198.94H1104.74C1104.81 1207.76 1109.79 1214.26 1117.81 1214.26C1123.66 1214.26 1127.27 1211.87 1130.3 1205.88L1133.77 1207.9C1130.74 1214.62 1125.25 1218.08 1117.88 1218.08ZM1104.81 1195.48H1130.45C1130.23 1187.39 1125.32 1181.47 1117.74 1181.47C1110.3 1181.47 1105.03 1187.89 1104.81 1195.48ZM1150.52 1217H1143.22V1209.92H1150.52V1217ZM1167.48 1171.93H1161.99V1166.59H1167.48V1171.93ZM1166.91 1217H1162.72V1178.72H1166.91V1217ZM1192.7 1178.72V1182.48H1183.39V1209.42C1183.39 1212.02 1184.4 1213.1 1187.5 1213.1H1190.61V1217H1187.29C1181.37 1217 1179.2 1214.91 1179.2 1209.34V1182.48H1173.57V1178.72H1179.2V1170.34H1183.39V1178.72H1192.7ZM1199.6 1231.01L1196.71 1228.7C1205.52 1218.52 1209.49 1208.33 1209.49 1195.69C1209.49 1183.13 1205.52 1172.94 1196.71 1162.76L1199.6 1160.38C1209.35 1170.92 1213.97 1182.41 1213.97 1195.69C1213.97 1209.06 1209.35 1220.47 1199.6 1231.01Z" fill="#7B7261"/>
</svg>
