<svg width="2000" height="2000" viewBox="0 0 2000 2000" fill="none" xmlns="http://www.w3.org/2000/svg">
<rect width="2000" height="2000" fill="white"/>
<path d="M154.995 592.649L154.995 265.461L141.239 265.461L141.239 592.649H154.995Z" fill="#111111"/>
<path d="M154.995 1027.54L154.995 701.711L127.498 701.711L127.498 1027.54H154.995Z" fill="#111111"/>
<path d="M113.742 1136.6L113.742 1463.79H154.995L154.995 1136.6L113.742 1136.6Z" fill="#111111"/>
<path d="M154.995 1900L154.995 1572.85L100 1572.85L100 1900H154.995Z" fill="#111111"/>
<path d="M591.246 141.238H264.058V154.994H591.246V141.238Z" fill="#111111"/>
<path d="M1027.5 127.496H700.309V154.994H1027.5V127.496Z" fill="#111111"/>
<path d="M1136.56 154.995H1136.63H1463.75V113.742H1136.56V154.995Z" fill="#111111"/>
<path d="M1899.96 100H1572.81V154.995H1899.96V100Z" fill="#111111"/>
<path d="M577.422 264.059V361.956C552.12 304.344 494.576 264.059 427.611 264.059C337.266 264.059 264.058 337.281 264.058 427.612C264.058 517.957 337.28 591.247 427.611 591.247C494.576 591.247 552.12 551.03 577.422 493.35V591.247H591.178V264.059H577.422ZM565.603 485.988C558.037 503.86 547.253 519.879 533.497 533.635C519.742 547.39 503.723 558.174 485.851 565.74C467.351 573.579 447.76 577.492 427.543 577.492C407.325 577.492 387.667 573.511 369.235 565.74C351.362 558.174 335.344 547.377 321.588 533.635C307.833 519.879 297.049 503.86 289.483 485.988C281.644 467.488 277.731 447.898 277.731 427.68C277.731 407.463 281.726 387.804 289.483 369.372C297.049 351.5 307.833 335.481 321.588 321.726C335.344 307.97 351.362 297.186 369.235 289.62C387.735 281.781 407.325 277.869 427.543 277.869C447.76 277.869 467.419 281.849 485.851 289.62C503.723 297.186 519.742 307.984 533.497 321.726C547.253 335.481 558.037 351.5 565.603 369.372C573.442 387.872 577.354 407.463 577.354 427.68C577.354 447.898 573.442 467.556 565.603 485.988Z" fill="#111111"/>
<path d="M999.918 264.059V336.872C970.567 293.015 920.575 264.059 863.863 264.059C773.518 264.059 700.309 337.281 700.309 427.612C700.309 517.957 773.531 591.247 863.863 591.247C920.657 591.247 970.635 562.373 999.918 518.434V591.247H1027.42V264.059H999.918ZM960.042 523.874C934.331 549.585 900.153 563.75 863.794 563.75C827.435 563.75 793.258 549.585 767.546 523.874C741.835 498.162 727.67 463.984 727.67 427.626C727.67 391.267 741.835 357.089 767.546 331.378C793.258 305.666 827.435 291.502 863.794 291.502C900.153 291.502 934.331 305.666 960.042 331.378C985.754 357.089 999.918 391.267 999.918 427.626C999.918 463.984 985.754 498.162 960.042 523.874Z" fill="#111111"/>
<path d="M1422.43 264.127V319.122C1392.45 285.367 1348.73 264.127 1300.11 264.127C1209.77 264.127 1136.56 337.349 1136.56 427.68C1136.56 518.025 1209.78 591.233 1300.11 591.233C1348.8 591.233 1392.52 569.993 1422.43 536.239V591.233H1463.68V264.059H1422.43V264.127V264.127ZM1386.61 514.181C1363.52 537.275 1332.78 549.994 1300.13 549.994C1267.48 549.994 1236.73 537.275 1213.64 514.181C1190.55 491.086 1177.83 460.344 1177.83 427.694C1177.83 395.043 1190.55 364.301 1213.64 341.207C1236.73 318.113 1267.48 305.393 1300.13 305.393C1332.78 305.393 1363.52 318.113 1386.61 341.207C1409.71 364.301 1422.43 395.043 1422.43 427.694C1422.43 460.344 1409.71 491.086 1386.61 514.181Z" fill="#111111"/>
<path d="M1844.99 264.059V305.312C1816.1 279.668 1778.08 264.059 1736.41 264.059C1646.05 264.059 1572.81 337.294 1572.81 427.653C1572.81 518.011 1646.05 591.247 1736.41 591.247C1778.08 591.247 1816.1 575.637 1844.99 549.994V591.247H1900V427.653V264.059H1844.99ZM1844.99 427.653C1844.99 456.677 1833.72 483.97 1813.16 504.46C1792.67 524.95 1765.36 536.293 1736.35 536.293C1707.34 536.293 1680.03 525.019 1659.54 504.46C1639.05 483.902 1627.71 456.664 1627.71 427.653C1627.71 398.642 1638.99 371.336 1659.54 350.845C1680.1 330.355 1707.34 319.013 1736.35 319.013C1765.36 319.013 1792.67 330.287 1813.16 350.845C1833.65 371.404 1844.99 398.642 1844.99 427.653Z" fill="#111111"/>
<path d="M563.667 700.309V773.122C534.315 729.265 484.324 700.309 427.611 700.309C337.266 700.309 264.058 773.531 264.058 863.862C264.058 954.207 337.28 1027.5 427.611 1027.5C484.406 1027.5 534.383 998.623 563.667 954.684V1027.5H591.164V700.309H563.667ZM523.791 960.124C498.079 985.835 463.902 1000 427.543 1000C391.184 1000 357.007 985.835 331.295 960.124C305.583 934.412 291.419 900.234 291.419 863.876C291.419 827.517 305.583 793.339 331.295 767.628C357.007 741.916 391.184 727.752 427.543 727.752C463.902 727.752 498.079 741.916 523.791 767.628C549.502 793.339 563.667 827.517 563.667 863.876C563.667 900.234 549.502 934.412 523.791 960.124Z" fill="#111111"/>
<path d="M999.918 700.309V773.122C970.567 729.265 920.575 700.309 863.863 700.309C773.518 700.309 700.309 773.531 700.309 863.862C700.309 954.207 773.531 1027.5 863.863 1027.5C920.657 1027.5 970.635 998.623 999.918 954.684V1027.5H1027.42V700.309H999.918ZM960.042 960.124C934.331 985.835 900.153 1000 863.794 1000C827.435 1000 793.258 985.835 767.546 960.124C741.835 934.412 727.67 900.234 727.67 863.876C727.67 827.517 741.835 793.339 767.546 767.628C793.258 741.916 827.435 727.752 863.794 727.752C900.153 727.752 934.331 741.916 960.042 767.628C985.754 793.339 999.918 827.517 999.918 863.876C999.918 900.234 985.754 934.412 960.042 960.124Z" fill="#111111"/>
<path d="M1422.43 700.377V755.372C1392.45 721.617 1348.73 700.377 1300.11 700.377C1209.77 700.377 1136.56 773.599 1136.56 863.93C1136.56 954.275 1209.78 1027.48 1300.11 1027.48C1348.8 1027.48 1392.52 1006.24 1422.43 972.489V1027.48H1463.68V700.309H1422.43V700.377V700.377ZM1386.61 950.431C1363.52 973.525 1332.78 986.244 1300.13 986.244C1267.48 986.244 1236.73 973.525 1213.64 950.431C1190.55 927.336 1177.83 896.594 1177.83 863.944C1177.83 831.293 1190.55 800.551 1213.64 777.457C1236.73 754.363 1267.48 741.643 1300.13 741.643C1332.78 741.643 1363.52 754.363 1386.61 777.457C1409.71 800.551 1422.43 831.293 1422.43 863.944C1422.43 896.594 1409.71 927.336 1386.61 950.431Z" fill="#111111"/>
<path d="M1844.99 700.309V741.562C1816.1 715.918 1778.08 700.309 1736.41 700.309C1646.05 700.309 1572.81 773.544 1572.81 863.903C1572.81 954.261 1646.05 1027.5 1736.41 1027.5C1778.08 1027.5 1816.1 1011.89 1844.99 986.244V1027.5H1900V863.903V700.309H1844.99ZM1844.99 863.903C1844.99 892.927 1833.72 920.22 1813.16 940.71C1792.67 961.2 1765.36 972.543 1736.35 972.543C1707.34 972.543 1680.03 961.269 1659.54 940.71C1639.05 920.152 1627.71 892.914 1627.71 863.903C1627.71 834.892 1638.99 807.586 1659.54 787.095C1680.1 766.605 1707.34 755.263 1736.35 755.263C1765.36 755.263 1792.67 766.537 1813.16 787.095C1833.65 807.654 1844.99 834.892 1844.99 863.903Z" fill="#111111"/>
<path d="M549.925 1136.63V1191.62C519.946 1157.87 476.226 1136.63 427.611 1136.63C337.266 1136.63 264.058 1209.85 264.058 1300.18C264.058 1390.53 337.28 1463.73 427.611 1463.73C476.294 1463.73 520.014 1442.49 549.925 1408.74V1463.73H591.178V1136.56H549.925V1136.63V1136.63ZM514.111 1386.68C491.017 1409.77 460.275 1422.49 427.625 1422.49C394.974 1422.49 364.232 1409.77 341.138 1386.68C318.044 1363.59 305.324 1332.84 305.324 1300.19C305.324 1267.54 318.044 1236.8 341.138 1213.71C364.232 1190.61 394.974 1177.89 427.625 1177.89C460.275 1177.89 491.017 1190.61 514.111 1213.71C537.205 1236.8 549.925 1267.54 549.925 1300.19C549.925 1332.84 537.205 1363.59 514.111 1386.68Z" fill="#111111"/>
<path d="M986.176 1136.63V1191.62C956.198 1157.87 912.477 1136.63 863.862 1136.63C773.518 1136.63 700.309 1209.85 700.309 1300.18C700.309 1390.53 773.531 1463.73 863.862 1463.73C912.545 1463.73 956.266 1442.49 986.176 1408.74V1463.73H1027.43V1136.56H986.176V1136.63V1136.63ZM950.363 1386.68C927.269 1409.77 896.527 1422.49 863.876 1422.49C831.225 1422.49 800.483 1409.77 777.389 1386.68C754.295 1363.59 741.576 1332.84 741.576 1300.19C741.576 1267.54 754.295 1236.8 777.389 1213.71C800.483 1190.61 831.225 1177.89 863.876 1177.89C896.527 1177.89 927.269 1190.61 950.363 1213.71C973.457 1236.8 986.176 1267.54 986.176 1300.19C986.176 1332.84 973.457 1363.59 950.363 1386.68Z" fill="#111111"/>
<path d="M1422.43 1136.63V1191.62C1392.45 1157.87 1348.73 1136.63 1300.11 1136.63C1209.77 1136.63 1136.56 1209.85 1136.56 1300.18C1136.56 1390.53 1209.78 1463.73 1300.11 1463.73C1348.8 1463.73 1392.52 1442.49 1422.43 1408.74V1463.73H1463.68V1136.56H1422.43V1136.63V1136.63ZM1386.61 1386.68C1363.52 1409.77 1332.78 1422.49 1300.13 1422.49C1267.48 1422.49 1236.73 1409.77 1213.64 1386.68C1190.55 1363.59 1177.83 1332.84 1177.83 1300.19C1177.83 1267.54 1190.55 1236.8 1213.64 1213.71C1236.73 1190.61 1267.48 1177.89 1300.13 1177.89C1332.78 1177.89 1363.52 1190.61 1386.61 1213.71C1409.71 1236.8 1422.43 1267.54 1422.43 1300.19C1422.43 1332.84 1409.71 1363.59 1386.61 1386.68Z" fill="#111111"/>
<path d="M1844.99 1136.56V1177.81C1816.1 1152.17 1778.08 1136.56 1736.41 1136.56C1646.05 1136.56 1572.81 1209.79 1572.81 1300.15C1572.81 1390.51 1646.05 1463.75 1736.41 1463.75C1778.08 1463.75 1816.1 1448.14 1844.99 1422.49V1463.75H1900V1300.15V1136.56H1844.99ZM1844.99 1300.15C1844.99 1329.18 1833.72 1356.47 1813.16 1376.96C1792.67 1397.45 1765.36 1408.79 1736.35 1408.79C1707.34 1408.79 1680.03 1397.52 1659.54 1376.96C1639.05 1356.4 1627.71 1329.16 1627.71 1300.15C1627.71 1271.14 1638.99 1243.84 1659.54 1223.35C1680.1 1202.86 1707.34 1191.51 1736.35 1191.51C1765.36 1191.51 1792.67 1202.79 1813.16 1223.35C1833.65 1243.9 1844.99 1271.14 1844.99 1300.15Z" fill="#111111"/>
<path d="M536.238 1572.81V1614.07C507.35 1588.42 469.327 1572.81 427.652 1572.81C337.293 1572.81 264.058 1646.05 264.058 1736.41C264.058 1826.77 337.293 1900 427.652 1900C469.327 1900 507.35 1884.39 536.238 1858.75V1900H591.246V1736.41V1572.81H536.238ZM536.238 1736.41C536.238 1765.43 524.963 1792.72 504.405 1813.21C483.915 1833.7 456.608 1845.05 427.597 1845.05C398.587 1845.05 371.28 1833.77 350.79 1813.21C330.3 1792.66 318.957 1765.42 318.957 1736.41C318.957 1707.4 330.231 1680.09 350.79 1659.6C371.348 1639.11 398.587 1627.77 427.597 1627.77C456.608 1627.77 483.915 1639.04 504.405 1659.6C524.895 1680.16 536.238 1707.4 536.238 1736.41Z" fill="#111111"/>
<path d="M972.489 1572.81V1614.07C943.601 1588.42 905.579 1572.81 863.903 1572.81C773.545 1572.81 700.309 1646.05 700.309 1736.41C700.309 1826.77 773.545 1900 863.903 1900C905.579 1900 943.601 1884.39 972.489 1858.75V1900H1027.5V1736.41V1572.81H972.489ZM972.489 1736.41C972.489 1765.43 961.215 1792.72 940.656 1813.21C920.166 1833.7 892.86 1845.05 863.849 1845.05C834.838 1845.05 807.531 1833.77 787.041 1813.21C766.551 1792.66 755.209 1765.42 755.209 1736.41C755.209 1707.4 766.483 1680.09 787.041 1659.6C807.6 1639.11 834.838 1627.77 863.849 1627.77C892.86 1627.77 920.166 1639.04 940.656 1659.6C961.146 1680.16 972.489 1707.4 972.489 1736.41Z" fill="#111111"/>
<path d="M1408.74 1572.81V1614.07C1379.85 1588.42 1341.83 1572.81 1300.15 1572.81C1209.8 1572.81 1136.56 1646.05 1136.56 1736.41C1136.56 1826.77 1209.8 1900 1300.15 1900C1341.83 1900 1379.85 1884.39 1408.74 1858.75V1900H1463.75V1736.41V1572.81H1408.74ZM1408.74 1736.41C1408.74 1765.43 1397.47 1792.72 1376.91 1813.21C1356.42 1833.7 1329.11 1845.05 1300.1 1845.05C1271.09 1845.05 1243.78 1833.77 1223.29 1813.21C1202.8 1792.66 1191.46 1765.42 1191.46 1736.41C1191.46 1707.4 1202.73 1680.09 1223.29 1659.6C1243.85 1639.11 1271.09 1627.77 1300.1 1627.77C1329.11 1627.77 1356.42 1639.04 1376.91 1659.6C1397.4 1680.16 1408.74 1707.4 1408.74 1736.41Z" fill="#111111"/>
<path d="M1844.99 1572.81V1614.07C1816.1 1588.42 1778.08 1572.81 1736.41 1572.81C1646.05 1572.81 1572.81 1646.05 1572.81 1736.41C1572.81 1826.77 1646.05 1900 1736.41 1900C1778.08 1900 1816.1 1884.39 1844.99 1858.75V1900H1900V1736.41V1572.81H1844.99ZM1844.99 1736.41C1844.99 1765.43 1833.72 1792.72 1813.16 1813.21C1792.67 1833.7 1765.36 1845.05 1736.35 1845.05C1707.34 1845.05 1680.03 1833.77 1659.54 1813.21C1639.05 1792.66 1627.71 1765.42 1627.71 1736.41C1627.71 1707.4 1638.99 1680.09 1659.54 1659.6C1680.1 1639.11 1707.34 1627.77 1736.35 1627.77C1765.36 1627.77 1792.67 1639.04 1813.16 1659.6C1833.65 1680.16 1844.99 1707.4 1844.99 1736.41Z" fill="#111111"/>
</svg>
