<svg width="2000" height="2250" viewBox="0 0 2000 2250" fill="none" xmlns="http://www.w3.org/2000/svg">
<rect width="2000" height="2250" fill="white"/>
<path d="M954.545 510.563H953.195C935.704 464.173 873.858 411.155 787.799 411.155C672.841 411.155 600.249 499.912 600.249 598.137C600.249 694.255 670.829 785.119 787.799 785.119C863.113 785.119 922.26 748.149 953.195 687.628H954.545V776.386H973.479V419.794H954.545V510.563ZM789.835 767.368C674.852 767.368 619.728 678.634 619.066 597.972C619.066 497.782 695.018 428.552 787.799 428.552C883.278 428.552 956.556 500.48 956.556 597.972C956.556 690.066 887.988 767.368 789.835 767.368Z" fill="black"/>
<path d="M1212.7 410.988C1126.64 410.988 1064.79 464.101 1047.3 510.396H1045.95V419.793H1027.02V776.124H1045.95V687.367H1047.3C1078.24 747.887 1137.39 784.858 1212.7 784.858C1329.67 784.858 1400.25 694.089 1400.25 597.876C1400.25 499.817 1327.66 410.988 1212.7 410.988ZM1210.66 767.296C1112.49 767.367 1043.85 690.065 1043.85 597.97C1043.85 500.479 1117.22 428.55 1212.6 428.55C1305.36 428.55 1381.34 497.781 1381.34 597.97C1380.77 678.633 1325.62 767.367 1210.66 767.367V767.296Z" fill="black"/>
<path d="M454.651 1319.01C454.65 1316.33 454.468 1313.65 454.104 1310.99C456.759 1311.37 459.436 1311.56 462.118 1311.57C495.737 1311.57 516.962 1285.62 516.962 1256.9C516.962 1228.79 496.325 1202.23 462.118 1202.23C459.441 1202.22 456.767 1202.39 454.111 1202.72C454.469 1200.08 454.649 1197.42 454.651 1194.76C454.651 1161.15 428.706 1139.91 399.979 1139.91C371.869 1139.91 345.308 1160.56 345.308 1194.76C345.305 1197.42 345.469 1200.08 345.799 1202.72C343.159 1202.39 340.501 1202.22 337.841 1202.23C303.64 1202.23 282.997 1228.77 282.997 1256.9C282.997 1285.6 304.228 1311.57 337.841 1311.57C340.505 1311.57 343.166 1311.39 345.806 1311.03C345.473 1313.68 345.307 1316.36 345.308 1319.04C345.308 1353.24 371.848 1373.88 399.979 1373.88C428.692 1373.85 454.651 1352.62 454.651 1319.01ZM461.529 1207.36C495.142 1207.36 511.259 1233.31 511.46 1256.9C511.46 1286.18 489.246 1306.43 462.118 1306.43C459.103 1306.42 456.093 1306.17 453.121 1305.66C448.893 1287.53 436.567 1274.81 425.543 1270.65L425.543 1270.26L452.097 1270.26L452.097 1264.76L413.343 1264.76C412.966 1262.15 412.777 1259.53 412.775 1256.9C412.778 1254.27 412.974 1251.64 413.363 1249.04L452.118 1249.04L452.118 1243.5L425.578 1243.5L425.578 1243.1C436.651 1238.95 448.969 1226.18 453.176 1208.01C455.939 1207.57 458.732 1207.35 461.529 1207.36V1207.36ZM447.488 1304.38C439.72 1302.17 432.646 1298.01 426.935 1292.3C421.224 1286.59 417.064 1279.51 414.851 1271.75C422.619 1273.96 429.694 1278.12 435.406 1283.83C441.117 1289.54 445.276 1296.61 447.488 1304.38V1304.38ZM407.868 1264.76L392.145 1264.76L392.145 1249.04L407.868 1249.04L407.868 1264.76ZM414.913 1242.02C419.536 1226.38 431.384 1213.91 447.522 1209.3C445.325 1217.08 441.176 1224.17 435.469 1229.9C429.762 1235.62 422.686 1239.8 414.913 1242.02ZM350.491 1195.37C350.491 1161.75 376.436 1145.64 400.028 1145.44C429.315 1145.44 449.564 1167.65 449.564 1194.78C449.545 1197.76 449.277 1200.74 448.761 1203.67C441.262 1205.26 434.218 1208.52 428.154 1213.21C422.089 1217.9 417.161 1223.89 413.737 1230.75L413.343 1230.75L413.343 1204.8L407.806 1204.8L407.806 1243.55C405.203 1243.93 402.575 1244.12 399.945 1244.11C397.313 1244.12 394.685 1243.92 392.083 1243.53L392.083 1204.77L386.547 1204.77L386.547 1230.72L386.159 1230.72C382.725 1223.85 377.783 1217.85 371.701 1213.15C365.619 1208.46 358.556 1205.2 351.038 1203.62C350.637 1200.89 350.454 1198.13 350.491 1195.37V1195.37ZM385.093 1241.97C369.433 1237.33 356.969 1225.44 352.388 1209.26C368.554 1213.84 380.436 1226.31 385.093 1241.97ZM337.903 1306.43C310.775 1306.43 288.567 1286.18 288.567 1256.9C288.761 1233.31 304.879 1207.36 338.491 1207.36C341.274 1207.37 344.051 1207.6 346.796 1208.05C348.372 1215.57 351.628 1222.63 356.32 1228.71C361.012 1234.79 367.018 1239.74 373.889 1243.17L373.889 1243.56L347.945 1243.56L347.945 1249.1L386.699 1249.1C387.088 1251.7 387.284 1254.33 387.287 1256.96C387.288 1259.59 387.101 1262.22 386.727 1264.82L347.972 1264.82L347.972 1270.32L373.917 1270.32L373.917 1270.72C367.059 1274.14 361.063 1279.07 356.374 1285.13C351.685 1291.2 348.426 1298.24 346.837 1305.74C343.879 1306.22 340.886 1306.45 337.889 1306.43L337.903 1306.43ZM385.149 1271.82C382.924 1279.6 378.75 1286.67 373.022 1292.38C367.295 1298.09 360.204 1302.24 352.422 1304.43C357.017 1288.27 369.488 1276.43 385.135 1271.8L385.149 1271.82ZM350.491 1318.42C350.494 1315.61 350.725 1312.81 351.183 1310.04C369.356 1305.83 382.118 1293.49 386.284 1282.45L386.671 1282.45L386.671 1308.99L392.208 1308.99L392.208 1270.23C394.81 1269.84 397.438 1269.64 400.069 1269.64C402.7 1269.64 405.327 1269.83 407.931 1270.2L407.931 1308.96L413.467 1308.96L413.467 1282.45L413.862 1282.45C418.014 1293.47 430.74 1305.8 448.872 1310.02C449.383 1313 449.64 1316.01 449.64 1319.02C449.64 1346.15 429.391 1368.36 400.104 1368.36C376.415 1368.15 350.491 1352.03 350.491 1318.42Z" fill="black"/>
<path d="M999.951 1333.35C1001.58 1335.48 1003.34 1337.5 1005.23 1339.4C1029 1363.17 1062.36 1359.83 1082.65 1339.54C1102.53 1319.67 1106.7 1286.3 1082.51 1262.12C1080.62 1260.22 1078.61 1258.45 1076.5 1256.81C1078.62 1255.2 1080.63 1253.44 1082.51 1251.56C1106.28 1227.79 1102.95 1194.43 1082.65 1174.14C1062.77 1154.26 1029.42 1150.09 1005.23 1174.28C1003.35 1176.16 1001.58 1178.15 999.951 1180.25C998.318 1178.15 996.555 1176.16 994.67 1174.28C970.449 1150.09 937.127 1154.26 917.252 1174.14C896.954 1194.43 893.618 1227.79 917.39 1251.56C919.271 1253.43 921.278 1255.18 923.397 1256.78C921.281 1258.42 919.273 1260.19 917.383 1262.09C893.162 1286.31 897.362 1319.64 917.245 1339.51C937.535 1359.8 970.892 1363.14 994.663 1339.38C996.557 1337.49 998.323 1335.47 999.951 1333.35V1333.35ZM1078.48 1265.31C1102.25 1289.09 1095.3 1318.83 1078.76 1335.65C1058.05 1356.36 1028.03 1354.97 1008.86 1335.78C1006.74 1333.64 1004.79 1331.33 1003.05 1328.86C1012.88 1313.06 1013.17 1295.34 1008.31 1284.57L1008.59 1284.3L1027.33 1303.15L1031.22 1299.25L1003.83 1271.85C1005.4 1269.74 1007.12 1267.75 1008.98 1265.89C1010.84 1264.03 1012.84 1262.32 1014.96 1260.75L1042.35 1288.14L1046.23 1284.24L1027.47 1265.48L1027.75 1265.2C1038.5 1270.05 1056.25 1269.77 1072.08 1259.89C1074.36 1261.53 1076.5 1263.34 1078.48 1265.31V1265.31ZM999.951 1323.99C996.022 1316.94 993.961 1308.99 993.961 1300.92C993.961 1292.84 996.022 1284.9 999.951 1277.85C1003.88 1284.9 1005.94 1292.84 1005.94 1300.92C1005.94 1308.99 1003.88 1316.94 999.951 1323.99ZM999.951 1267.94L988.829 1256.82L999.951 1245.71L1011.07 1256.82L999.951 1267.94ZM1021.01 1256.86C1035.34 1249.07 1052.53 1248.63 1067.2 1256.78C1060.14 1260.74 1052.19 1262.82 1044.1 1262.84C1036.01 1262.85 1028.05 1260.8 1020.97 1256.86L1021.01 1256.86ZM1008.43 1178.31C1032.2 1154.54 1061.94 1161.49 1078.76 1178.03C1099.47 1198.74 1098.08 1228.76 1078.9 1247.92C1076.79 1250.03 1074.51 1251.95 1072.08 1253.68C1065.66 1249.5 1058.37 1246.83 1050.77 1245.85C1043.16 1244.88 1035.44 1245.63 1028.17 1248.06L1027.89 1247.78L1046.23 1229.44L1042.35 1225.54L1014.94 1252.95C1012.83 1251.37 1010.84 1249.64 1008.98 1247.78C1007.12 1245.92 1005.41 1243.92 1003.84 1241.81L1031.22 1214.43L1027.33 1210.53L1008.99 1228.88L1008.7 1228.6C1011.14 1221.32 1011.89 1213.58 1010.91 1205.96C1009.93 1198.34 1007.24 1191.04 1003.04 1184.61C1004.66 1182.37 1006.47 1180.26 1008.43 1178.31V1178.31ZM999.951 1235.75C992.165 1221.4 991.75 1204.18 999.951 1189.5C1008.15 1204.19 1007.74 1221.38 999.951 1235.73L999.951 1235.75ZM921.002 1247.96C901.819 1228.78 900.428 1198.76 921.141 1178.07C937.957 1161.53 967.701 1154.58 991.473 1178.35C993.436 1180.31 995.239 1182.43 996.864 1184.68C992.664 1191.11 989.973 1198.4 988.991 1206.02C988.01 1213.64 988.764 1221.38 991.196 1228.66L990.912 1228.94L972.532 1210.55L968.643 1214.45L996.061 1241.83C994.495 1243.95 992.776 1245.94 990.919 1247.8C989.059 1249.67 987.068 1251.39 984.961 1252.97L957.556 1225.56L953.667 1229.46L972.013 1247.8L971.736 1248.08C964.464 1245.66 956.739 1244.9 949.135 1245.87C941.532 1246.85 934.245 1249.52 927.819 1253.7C925.39 1251.98 923.11 1250.05 921.002 1247.94L921.002 1247.96ZM978.892 1256.88C971.824 1260.81 963.869 1262.86 955.784 1262.85C947.699 1262.83 939.752 1260.75 932.698 1256.8C947.369 1248.63 964.566 1249.07 978.892 1256.86L978.892 1256.88ZM921.141 1335.67C904.601 1318.86 897.653 1289.11 921.418 1265.34C923.404 1263.36 925.545 1261.54 927.819 1259.9C943.653 1269.78 961.404 1270.07 972.151 1265.21L972.428 1265.49L953.667 1284.25L957.556 1288.14L984.94 1260.76C987.059 1262.32 989.057 1264.04 990.919 1265.9C992.78 1267.76 994.505 1269.75 996.082 1271.85L968.677 1299.26L972.532 1303.15L991.3 1284.38L991.577 1284.66C986.733 1295.39 987.002 1313.11 996.836 1328.95C995.095 1331.41 993.151 1333.73 991.023 1335.87C971.84 1354.97 941.854 1356.36 921.141 1335.67Z" fill="black"/>
<path d="M1599.82 1373.83C1615.63 1373.83 1630.58 1367.38 1640.84 1355.98C1656.18 1356.8 1671.33 1350.77 1682.52 1339.58C1693.55 1328.55 1699.74 1313.36 1698.93 1297.89C1710.32 1287.63 1716.77 1272.68 1716.77 1256.88C1716.77 1241.28 1710.41 1226.18 1698.92 1215.82C1699.73 1200.5 1693.69 1185.37 1682.52 1174.18C1671.49 1163.15 1656.3 1156.96 1640.84 1157.76C1630.58 1146.36 1615.63 1139.91 1599.82 1139.91C1584.23 1139.91 1569.13 1146.27 1558.77 1157.76C1543.31 1156.97 1528.14 1163.15 1517.11 1174.18C1505.94 1185.35 1499.91 1200.47 1500.71 1215.82C1489.22 1226.2 1482.86 1241.28 1482.86 1256.88C1482.86 1272.68 1489.31 1287.63 1500.71 1297.89C1499.9 1313.36 1506.08 1328.55 1517.11 1339.58C1528.3 1350.77 1543.41 1356.79 1558.77 1355.98C1569.13 1367.51 1584.23 1373.83 1599.82 1373.83ZM1506.16 1295.53C1507.19 1285.32 1511.78 1274.86 1521.29 1265.35C1523.27 1263.36 1525.41 1261.54 1527.69 1259.9C1533.81 1263.74 1540.63 1266.34 1547.76 1267.55L1547.76 1270.23L1567.56 1270.23L1553.54 1284.25L1555.37 1286.09C1551.12 1291.92 1548.13 1298.59 1546.59 1305.64C1543.66 1306.14 1540.68 1306.4 1537.7 1306.4C1526.25 1306.5 1515.12 1302.67 1506.16 1295.53ZM1506.22 1218.02C1514.17 1211.53 1524.81 1207.37 1538.26 1207.37C1541.04 1207.38 1543.82 1207.61 1546.57 1208.06C1548.1 1215.13 1551.09 1221.81 1555.36 1227.66L1553.51 1229.5L1567.52 1243.51L1547.74 1243.51L1547.74 1246.09C1540.6 1247.21 1533.76 1249.8 1527.67 1253.71C1525.24 1251.98 1522.96 1250.06 1520.86 1247.95C1512.69 1239.95 1507.52 1229.38 1506.22 1218.02ZM1693.36 1218.02C1692.07 1229.4 1686.91 1239.99 1678.74 1248.01C1676.63 1250.12 1674.35 1252.04 1671.92 1253.77C1665.83 1249.86 1658.99 1247.27 1651.85 1246.16L1651.85 1243.57L1632.03 1243.57L1646.04 1229.56L1644.14 1227.66C1648.31 1221.77 1651.29 1215.12 1652.91 1208.08C1655.67 1207.62 1658.47 1207.39 1661.28 1207.39C1674.8 1207.34 1685.46 1211.5 1693.39 1218.02L1693.36 1218.02ZM1693.45 1295.57C1684.49 1302.71 1673.35 1306.54 1661.9 1306.44C1658.89 1306.44 1655.88 1306.18 1652.91 1305.67C1651.28 1298.67 1648.32 1292.05 1644.17 1286.18L1646.06 1284.29L1632.03 1270.27L1651.91 1270.27L1651.91 1267.6C1659.04 1266.38 1665.85 1263.78 1671.98 1259.94C1674.26 1261.58 1676.4 1263.4 1678.39 1265.39C1687.86 1274.87 1692.45 1285.33 1693.47 1295.53L1693.45 1295.57ZM1584.8 1260.8C1585.49 1261.29 1586.11 1261.8 1586.75 1262.33C1586.68 1263.15 1586.58 1263.96 1586.46 1264.77L1580.83 1264.77L1584.8 1260.8ZM1584.8 1253.04L1580.8 1249.04L1586.42 1249.04C1586.54 1249.86 1586.64 1250.68 1586.73 1251.51C1586.12 1252.01 1585.48 1252.52 1584.83 1253.01L1584.8 1253.04ZM1614.77 1253.04C1614.12 1252.55 1613.48 1252.04 1612.84 1251.51C1612.93 1250.68 1613.02 1249.86 1613.15 1249.04L1618.77 1249.04L1614.77 1253.04ZM1614.77 1260.8L1618.73 1264.77L1613.1 1264.77C1612.98 1263.96 1612.89 1263.15 1612.81 1262.33C1613.49 1261.78 1614.18 1261.26 1614.83 1260.77L1614.77 1260.8ZM1591.9 1253.65L1596.51 1249.04L1603.01 1249.04L1607.63 1253.65L1607.63 1260.16L1603.02 1264.77L1596.5 1264.77L1591.9 1260.16L1591.9 1253.65ZM1607.63 1270.26L1607.63 1275.91L1603.63 1271.92C1604.12 1271.23 1604.64 1270.61 1605.17 1269.97C1606.05 1270 1606.87 1270.09 1607.68 1270.21L1607.63 1270.26ZM1614.67 1242.05C1619.29 1226.41 1631.14 1213.93 1647.28 1209.33C1645.08 1217.09 1640.94 1224.17 1635.24 1229.89C1629.54 1235.6 1622.48 1239.77 1614.73 1242L1614.67 1242.05ZM1607.63 1243.58C1606.82 1243.7 1606 1243.8 1605.18 1243.87C1604.66 1243.23 1604.14 1242.58 1603.65 1241.92L1607.63 1237.95L1607.63 1243.58ZM1594.36 1243.86C1593.54 1243.78 1592.71 1243.68 1591.9 1243.56L1591.9 1237.95L1595.87 1241.92C1595.44 1242.53 1594.93 1243.17 1594.41 1243.81L1594.36 1243.86ZM1599.76 1235.82C1591.97 1221.46 1591.56 1204.25 1599.76 1189.57C1608.02 1204.18 1607.6 1221.42 1599.82 1235.77L1599.76 1235.82ZM1584.84 1242C1569.18 1237.35 1556.71 1225.47 1552.13 1209.29C1568.37 1213.82 1580.27 1226.29 1584.89 1241.95L1584.84 1242ZM1584.89 1271.83C1582.67 1279.6 1578.49 1286.68 1572.76 1292.39C1567.04 1298.09 1559.95 1302.24 1552.17 1304.44C1556.83 1288.25 1569.3 1276.41 1584.95 1271.78L1584.89 1271.83ZM1591.9 1270.29C1592.72 1270.16 1593.54 1270.07 1594.37 1269.98C1594.89 1270.62 1595.4 1271.26 1595.89 1271.92L1591.9 1275.91L1591.9 1270.29ZM1599.76 1277.9C1603.69 1284.96 1605.75 1292.9 1605.75 1300.97C1605.75 1309.05 1603.69 1316.99 1599.76 1324.05C1595.84 1316.98 1593.79 1309.04 1593.8 1300.96C1593.81 1292.88 1595.88 1284.94 1599.82 1277.89L1599.76 1277.9ZM1614.62 1271.74C1622.38 1273.95 1629.46 1278.11 1635.17 1283.82C1640.88 1289.53 1645.03 1296.6 1647.25 1304.37C1639.49 1302.15 1632.42 1297.99 1626.72 1292.27C1621.02 1286.56 1616.88 1279.49 1614.67 1271.73L1614.62 1271.74ZM1620.84 1256.92C1635.17 1249.13 1652.37 1248.68 1667.04 1256.83C1659.99 1260.78 1652.05 1262.85 1643.97 1262.87C1635.89 1262.88 1627.94 1260.83 1620.88 1256.91L1620.84 1256.92ZM1629 1212.45L1627.17 1210.61L1613.15 1224.63L1613.15 1204.8L1610.57 1204.8C1609.43 1197.63 1606.81 1190.78 1602.87 1184.69C1604.49 1182.44 1606.3 1180.32 1608.26 1178.36C1617.77 1168.85 1628.24 1164.26 1638.46 1163.24C1645.59 1172.19 1649.42 1183.32 1649.32 1194.77C1649.32 1197.75 1649.07 1200.73 1648.57 1203.66C1641.52 1205.2 1634.87 1208.18 1629.04 1212.43L1629 1212.45ZM1589 1204.8L1586.41 1204.8L1586.41 1224.63L1572.4 1210.61L1570.57 1212.45C1564.7 1208.17 1558 1205.17 1550.91 1203.64C1550.45 1200.9 1550.22 1198.12 1550.21 1195.34C1550.21 1181.84 1554.41 1171.16 1560.95 1163.2C1571.2 1164.2 1581.71 1168.79 1591.27 1178.34C1593.24 1180.3 1595.04 1182.42 1596.66 1184.67C1592.74 1190.77 1590.14 1197.62 1589.03 1204.79L1589 1204.8ZM1578.73 1256.92C1571.66 1260.85 1563.7 1262.9 1555.61 1262.88C1547.53 1262.87 1539.58 1260.78 1532.53 1256.83C1547.24 1248.67 1564.43 1249.11 1578.76 1256.91L1578.73 1256.92ZM1570.5 1301.28L1572.4 1303.18L1586.41 1289.16L1586.41 1308.98L1589.13 1308.98C1590.35 1316.07 1592.93 1322.85 1596.74 1328.95C1595 1331.41 1593.06 1333.73 1590.93 1335.87C1582.91 1344.03 1572.33 1349.19 1560.95 1350.49C1554.46 1342.54 1550.29 1331.89 1550.29 1318.43C1550.29 1315.63 1550.52 1312.83 1550.98 1310.06C1558.01 1308.43 1564.65 1305.44 1570.54 1301.27L1570.5 1301.28ZM1610.47 1308.98L1613.15 1308.98L1613.15 1289.16L1627.2 1303.15L1629.1 1301.25C1634.97 1305.4 1641.59 1308.36 1648.59 1309.98C1649.1 1312.96 1649.35 1315.96 1649.36 1318.98C1649.46 1330.39 1645.65 1341.49 1638.57 1350.43C1627.24 1349.12 1616.7 1343.96 1608.71 1335.82C1606.58 1333.69 1604.64 1331.37 1602.9 1328.9C1606.71 1322.81 1609.29 1316.04 1610.5 1308.97L1610.47 1308.98ZM1678.63 1335.67C1668.8 1345.49 1656.89 1350.34 1645.02 1350.68C1650.92 1342.09 1654.46 1331.37 1654.46 1318.97C1654.46 1316.29 1654.28 1313.61 1653.92 1310.95C1656.57 1311.32 1659.25 1311.5 1661.93 1311.5C1674.39 1311.5 1685.07 1307.95 1693.66 1302.04C1693.07 1314.97 1687.13 1327.04 1678.63 1335.67ZM1711.27 1256.88C1711.27 1270.72 1706.28 1282.59 1698.12 1291.22C1696.23 1281.05 1691.2 1270.99 1682.36 1262.16C1680.47 1260.26 1678.46 1258.48 1676.35 1256.84C1678.47 1255.23 1680.48 1253.47 1682.36 1251.59C1691.13 1242.81 1696.2 1232.73 1698.11 1222.48C1706.85 1232.02 1711.17 1244.75 1711.27 1256.88ZM1678.63 1178.07C1688.44 1187.89 1693.29 1199.79 1693.63 1211.64C1685.1 1205.78 1674.43 1202.23 1661.93 1202.23C1659.25 1202.22 1656.58 1202.39 1653.92 1202.72C1654.28 1200.08 1654.46 1197.42 1654.46 1194.76C1654.46 1182.34 1650.92 1171.62 1645.01 1163.04C1657.92 1163.6 1669.98 1169.58 1678.63 1178.07ZM1599.82 1145.42C1613.7 1145.42 1625.54 1150.41 1634.17 1158.57C1623.99 1160.45 1613.93 1165.49 1605.11 1174.34C1603.22 1176.22 1601.46 1178.21 1599.83 1180.32C1598.19 1178.21 1596.43 1176.22 1594.55 1174.34C1585.7 1165.5 1575.64 1160.45 1565.48 1158.57C1574.98 1149.83 1587.7 1145.52 1599.82 1145.42ZM1521.01 1178.07C1529.65 1169.57 1541.7 1163.61 1554.6 1163.04C1548.73 1171.57 1545.17 1182.25 1545.17 1194.76C1545.17 1197.42 1545.33 1200.08 1545.66 1202.72C1543.02 1202.39 1540.36 1202.22 1537.7 1202.23C1525.24 1202.23 1514.53 1205.78 1506.01 1211.64C1506.35 1199.79 1511.19 1187.89 1521.01 1178.07ZM1488.37 1256.88C1488.46 1244.75 1492.78 1232.02 1501.51 1222.49C1503.41 1232.74 1508.48 1242.82 1517.26 1251.6C1519.15 1253.48 1521.16 1255.23 1523.28 1256.85C1521.16 1258.49 1519.15 1260.27 1517.26 1262.16C1508.43 1270.99 1503.42 1281.05 1501.5 1291.23C1493.36 1282.59 1488.37 1270.75 1488.37 1256.88V1256.88ZM1521.01 1335.67C1512.5 1327.02 1506.53 1314.95 1505.97 1302.04C1514.57 1307.95 1525.29 1311.5 1537.7 1311.5C1540.37 1311.5 1543.03 1311.32 1545.67 1310.96C1545.33 1313.62 1545.17 1316.29 1545.17 1318.97C1545.17 1331.46 1548.73 1342.14 1554.59 1350.68C1542.74 1350.35 1530.82 1345.51 1521.01 1335.67ZM1594.54 1339.42C1596.43 1337.53 1598.2 1335.5 1599.82 1333.37C1601.44 1335.5 1603.2 1337.53 1605.1 1339.42C1613.87 1348.19 1623.94 1353.26 1634.17 1355.17C1625.54 1363.31 1613.69 1368.32 1599.81 1368.32C1587.68 1368.21 1574.95 1363.89 1565.42 1355.17C1575.69 1353.29 1585.76 1348.22 1594.54 1339.44L1594.54 1339.42Z" fill="black"/>
<path d="M427.276 1708.74C440.42 1702.58 451.07 1692.12 457.47 1679.09C463.869 1666.06 465.636 1651.23 462.479 1637.06C459.321 1622.89 451.427 1610.22 440.1 1601.14C428.773 1592.06 414.689 1587.11 400.172 1587.11C385.654 1587.11 371.57 1592.06 360.243 1601.14C348.916 1610.22 341.022 1622.89 337.865 1637.06C334.707 1651.23 336.474 1666.06 342.873 1679.09C349.273 1692.12 359.923 1702.58 373.067 1708.74L336.34 1708.74L336.34 1714.77L464.003 1714.77L464.003 1708.74L427.276 1708.74ZM377.676 1704.2C364.418 1698.62 353.705 1688.32 347.618 1675.28C341.532 1662.25 340.505 1647.42 344.738 1633.67C348.971 1619.92 358.162 1608.24 370.525 1600.89C382.889 1593.54 397.543 1591.04 411.644 1593.89C425.744 1596.73 438.284 1604.71 446.829 1616.29C455.374 1627.86 459.315 1642.19 457.886 1656.5C456.456 1670.82 449.759 1684.09 439.095 1693.74C428.431 1703.4 414.56 1708.74 400.175 1708.74C392.447 1708.76 384.795 1707.21 377.676 1704.2Z" fill="#222222"/>
<path d="M464.003 1923.28C464 1911.15 460.545 1899.28 454.041 1889.04C447.537 1878.81 438.253 1870.63 427.276 1865.48L464.003 1865.48L464.003 1859.45L336.339 1859.45L336.339 1865.48L373.067 1865.48C362.713 1870.33 353.853 1877.88 347.414 1887.33C340.975 1896.78 337.193 1907.79 336.463 1919.2C335.733 1930.61 338.082 1942.01 343.265 1952.21C348.448 1962.4 356.274 1971.02 365.925 1977.15C375.576 1983.28 386.698 1986.71 398.128 1987.08C409.558 1987.44 420.876 1984.73 430.899 1979.23C440.923 1973.72 449.283 1965.62 455.106 1955.78C460.93 1945.94 464.002 1934.72 464.003 1923.28ZM359.302 1964.15C349.194 1954.02 343.221 1940.48 342.548 1926.18C341.875 1911.88 346.549 1897.85 355.661 1886.81C364.772 1875.77 377.668 1868.51 391.835 1866.46C406.002 1864.41 420.425 1867.71 432.294 1875.71C444.163 1883.71 452.628 1895.84 456.038 1909.75C459.449 1923.65 457.562 1938.32 450.744 1950.91C443.926 1963.5 432.666 1973.09 419.158 1977.83C405.65 1982.57 390.863 1982.11 377.676 1976.54C370.807 1973.64 364.567 1969.43 359.302 1964.15Z" fill="#222222"/>
<path d="M536.344 1850.94C547.78 1850.94 559.005 1847.87 568.847 1842.04C578.689 1836.22 586.786 1827.86 592.292 1817.84C597.797 1807.81 600.509 1796.49 600.143 1785.06C599.778 1773.63 596.349 1762.51 590.214 1752.86C584.08 1743.21 575.465 1735.38 565.271 1730.2C555.078 1725.02 543.679 1722.67 532.266 1723.4C520.854 1724.13 509.847 1727.91 500.396 1734.35C490.946 1740.79 483.399 1749.65 478.544 1760L478.544 1723.28L472.516 1723.28L472.516 1850.94L478.544 1850.94L478.544 1814.21C483.696 1825.19 491.868 1834.47 502.104 1840.98C512.34 1847.48 524.217 1850.94 536.344 1850.94ZM483.056 1809.61C477.427 1796.33 476.945 1781.43 481.704 1767.82C486.464 1754.21 496.123 1742.86 508.799 1735.98C521.475 1729.1 536.258 1727.19 550.265 1730.62C564.272 1734.06 576.498 1742.58 584.56 1754.54C592.621 1766.5 595.94 1781.03 593.869 1795.3C591.797 1809.57 584.483 1822.56 573.355 1831.73C562.226 1840.9 548.08 1845.6 533.675 1844.91C519.271 1844.21 505.641 1838.18 495.444 1827.98C490.16 1822.72 485.952 1816.48 483.056 1809.61Z" fill="#222222"/>
<path d="M321.806 1723.28L321.806 1760C315.642 1746.86 305.182 1736.21 292.151 1729.81C279.12 1723.41 264.297 1721.64 250.127 1724.8C235.956 1727.96 223.286 1735.85 214.205 1747.18C205.124 1758.51 200.176 1772.59 200.176 1787.11C200.176 1801.63 205.124 1815.71 214.205 1827.04C223.286 1838.36 235.956 1846.26 250.127 1849.41C264.297 1852.57 279.12 1850.81 292.151 1844.41C305.182 1838.01 315.642 1827.36 321.806 1814.21L321.806 1850.94L327.834 1850.94L327.834 1723.28L321.806 1723.28ZM321.806 1787.11C321.784 1801.38 316.462 1815.14 306.873 1825.71C297.283 1836.28 284.109 1842.91 269.906 1844.32C255.703 1845.73 241.484 1841.81 230.006 1833.33C218.527 1824.84 210.609 1812.4 207.786 1798.41C204.963 1784.42 207.436 1769.88 214.727 1757.61C222.017 1745.34 233.605 1736.22 247.243 1732C260.88 1727.79 275.595 1728.8 288.533 1734.82C301.472 1740.85 311.712 1751.46 317.266 1764.61C320.276 1771.73 321.821 1779.38 321.806 1787.11Z" fill="#222222"/>
<path d="M1074.88 1751.08C1088.53 1756.01 1103.46 1756.15 1117.2 1751.46C1130.94 1746.77 1142.67 1737.54 1150.46 1725.29C1158.25 1713.03 1161.62 1698.49 1160.04 1684.06C1158.45 1669.63 1151.99 1656.17 1141.72 1645.91C1131.46 1635.64 1118 1629.18 1103.57 1627.6C1089.14 1626.01 1074.6 1629.39 1062.34 1637.17C1050.09 1644.96 1040.86 1656.69 1036.17 1670.43C1031.48 1684.17 1031.62 1699.1 1036.55 1712.75L1010.58 1686.78L1006.32 1691.04L1096.59 1781.31L1100.85 1777.05L1074.88 1751.08ZM1074.84 1744.61C1061.46 1739.21 1050.57 1729.01 1044.3 1716.01C1038.03 1703 1036.82 1688.13 1040.92 1674.3C1045.02 1660.46 1054.13 1648.64 1066.47 1641.15C1078.81 1633.67 1093.5 1631.04 1107.67 1633.8C1121.84 1636.55 1134.47 1644.49 1143.11 1656.05C1151.74 1667.62 1155.76 1681.98 1154.38 1696.35C1152.99 1710.72 1146.31 1724.05 1135.62 1733.76C1124.94 1743.46 1111.02 1748.84 1096.59 1748.84C1089.13 1748.86 1081.74 1747.42 1074.84 1744.61Z" fill="#222222"/>
<path d="M949.149 1928.74C957.722 1920.17 963.676 1909.33 966.316 1897.49C968.955 1885.66 968.171 1873.31 964.055 1861.91L990.021 1887.87L994.284 1883.62L904.014 1793.35L899.758 1797.61L925.723 1823.57C914.97 1819.69 903.37 1818.76 892.136 1820.89C880.902 1823.02 870.447 1828.13 861.863 1835.69C853.278 1843.24 846.881 1852.96 843.338 1863.83C839.795 1874.7 839.237 1886.32 841.722 1897.48C844.208 1908.65 849.645 1918.93 857.466 1927.27C865.288 1935.61 875.206 1941.7 886.184 1944.9C897.162 1948.09 908.797 1948.28 919.874 1945.45C930.95 1942.61 941.06 1936.85 949.149 1928.76L949.149 1928.74ZM863.114 1924.48C853.034 1914.37 847.069 1900.87 846.376 1886.61C845.682 1872.35 850.31 1858.34 859.362 1847.3C868.414 1836.26 881.244 1828.97 895.364 1826.85C909.484 1824.74 923.888 1827.94 935.78 1835.84C947.672 1843.74 956.207 1855.78 959.727 1869.62C963.247 1883.45 961.503 1898.1 954.832 1910.73C948.161 1923.35 937.039 1933.05 923.624 1937.94C910.209 1942.82 895.456 1942.55 882.228 1937.18C875.066 1934.28 868.564 1929.96 863.114 1924.48Z" fill="#222222"/>
<path d="M1010.58 1887.87L1036.55 1861.91C1031.61 1875.56 1031.48 1890.48 1036.16 1904.22C1040.84 1917.96 1050.07 1929.69 1062.32 1937.48C1074.56 1945.27 1089.1 1948.65 1103.53 1947.06C1117.96 1945.48 1131.41 1939.03 1141.68 1928.77C1151.95 1918.5 1158.41 1905.05 1160 1890.62C1161.59 1876.2 1158.22 1861.66 1150.44 1849.41C1142.65 1837.15 1130.93 1827.92 1117.19 1823.23C1103.45 1818.54 1088.53 1818.67 1074.88 1823.6L1100.85 1797.64L1096.59 1793.37L1006.32 1883.64L1010.58 1887.87ZM1055.72 1842.74C1065.82 1832.67 1079.31 1826.71 1093.56 1826.02C1107.81 1825.33 1121.81 1829.96 1132.84 1839C1143.87 1848.05 1151.15 1860.87 1153.27 1874.98C1155.38 1889.09 1152.18 1903.48 1144.29 1915.36C1136.39 1927.25 1124.37 1935.77 1110.54 1939.29C1096.71 1942.81 1082.07 1941.07 1069.46 1934.4C1056.84 1927.74 1047.15 1916.63 1042.27 1903.22C1037.38 1889.82 1037.65 1875.08 1043.02 1861.86C1045.92 1854.7 1050.24 1848.19 1055.72 1842.74Z" fill="#222222"/>
<path d="M990.021 1686.78L964.055 1712.75C968.992 1699.1 969.128 1684.17 964.441 1670.43C959.753 1656.69 950.522 1644.96 938.271 1637.17C926.019 1629.38 911.479 1626 897.048 1627.59C882.618 1629.18 869.159 1635.64 858.893 1645.9C848.626 1656.17 842.166 1669.62 840.576 1684.05C838.986 1698.48 842.363 1713.02 850.149 1725.28C857.935 1737.53 869.665 1746.76 883.404 1751.45C897.143 1756.14 912.07 1756.01 925.723 1751.08L899.758 1777.05L904.014 1781.31L994.284 1691.04L990.021 1686.78ZM944.886 1731.91C934.77 1742 921.268 1747.97 906.998 1748.67C892.728 1749.37 878.708 1744.74 867.658 1735.68C856.607 1726.63 849.314 1713.79 847.193 1699.66C845.071 1685.54 848.273 1671.12 856.177 1659.22C864.081 1647.32 876.124 1638.78 889.969 1635.25C903.814 1631.73 918.475 1633.47 931.108 1640.15C943.74 1646.82 953.444 1657.95 958.336 1671.37C963.228 1684.79 962.961 1699.56 957.585 1712.79C954.683 1719.96 950.363 1726.46 944.886 1731.91Z" fill="#222222"/>
<path d="M1599.75 1987.11C1614.22 1987.1 1628.27 1982.17 1639.58 1973.14C1650.9 1964.1 1658.81 1951.5 1662.03 1937.38C1674.27 1945.1 1688.78 1948.43 1703.16 1946.82C1717.54 1945.21 1730.95 1938.76 1741.19 1928.52C1751.42 1918.29 1757.87 1904.88 1759.48 1890.5C1761.09 1876.11 1757.76 1861.61 1750.04 1849.37C1764.16 1846.17 1776.78 1838.26 1785.81 1826.95C1794.85 1815.64 1799.77 1801.59 1799.77 1787.11C1799.77 1772.63 1794.85 1758.58 1785.81 1747.27C1776.78 1735.96 1764.16 1728.05 1750.04 1724.85C1757.76 1712.61 1761.09 1698.11 1759.48 1683.72C1757.87 1669.34 1751.42 1655.93 1741.19 1645.7C1730.95 1635.46 1717.54 1629.01 1703.16 1627.4C1688.78 1625.79 1674.27 1629.12 1662.03 1636.84C1658.83 1622.72 1650.93 1610.11 1639.61 1601.07C1628.3 1592.03 1614.25 1587.11 1599.77 1587.11C1585.3 1587.11 1571.25 1592.03 1559.93 1601.07C1548.62 1610.11 1540.72 1622.72 1537.52 1636.84C1525.28 1629.12 1510.77 1625.79 1496.39 1627.39C1482 1629 1468.59 1635.45 1458.35 1645.69C1448.12 1655.92 1441.66 1669.33 1440.06 1683.72C1438.45 1698.11 1441.78 1712.61 1449.5 1724.85C1435.38 1728.05 1422.76 1735.96 1413.73 1747.27C1404.69 1758.58 1399.77 1772.63 1399.77 1787.11C1399.77 1801.59 1404.69 1815.64 1413.73 1826.95C1422.76 1838.26 1435.38 1846.17 1449.5 1849.37C1441.78 1861.61 1438.45 1876.11 1440.06 1890.5C1441.68 1904.88 1448.13 1918.29 1458.36 1928.52C1468.6 1938.76 1482 1945.21 1496.39 1946.82C1510.77 1948.43 1525.27 1945.1 1537.52 1937.39C1540.74 1951.49 1548.64 1964.09 1559.94 1973.12C1571.25 1982.15 1585.28 1987.09 1599.75 1987.11ZM1749.6 1861.64C1754.31 1873.18 1755.16 1885.94 1752.03 1898C1748.89 1910.06 1741.94 1920.79 1732.22 1928.58C1722.49 1936.37 1710.5 1940.81 1698.04 1941.23C1685.58 1941.65 1673.33 1938.03 1663.1 1930.91C1663.4 1928.38 1663.55 1925.84 1663.55 1923.3C1663.55 1913.63 1661.35 1904.08 1657.12 1895.39C1652.89 1886.69 1646.74 1879.07 1639.14 1873.1C1639.6 1870.52 1640.24 1867.97 1641.05 1865.48L1663.55 1865.48L1663.55 1859.46L1643.39 1859.46C1649.18 1846.76 1659.36 1836.57 1672.06 1830.78L1672.06 1850.97L1678.09 1850.97L1678.09 1828.48C1680.58 1827.67 1683.12 1827.03 1685.7 1826.56C1691.68 1834.17 1699.3 1840.32 1708 1844.55C1716.7 1848.77 1726.24 1850.97 1735.91 1850.97C1738.46 1850.97 1741 1850.82 1743.52 1850.51C1745.96 1853.99 1747.99 1857.72 1749.6 1861.64V1861.64ZM1657.46 1926.44C1656.67 1925.74 1655.9 1925.01 1655.16 1924.27C1649.78 1918.91 1645.52 1912.54 1642.61 1905.52C1639.71 1898.51 1638.22 1890.99 1638.23 1883.39C1638.23 1882.34 1638.26 1881.32 1638.32 1880.24C1639.1 1880.93 1639.87 1881.62 1640.62 1882.4C1645.99 1887.77 1650.26 1894.14 1653.16 1901.15C1656.07 1908.16 1657.56 1915.68 1657.54 1923.28C1657.54 1924.33 1657.51 1925.39 1657.46 1926.44V1926.44ZM1629.7 1859.45L1569.78 1859.45L1527.41 1817.06L1527.41 1757.13L1569.78 1714.76L1629.7 1714.76L1672.08 1757.13L1672.08 1817.06L1629.7 1859.45ZM1696.03 1825.59C1703.62 1825.59 1711.14 1827.08 1718.15 1829.98C1725.17 1832.89 1731.54 1837.15 1736.9 1842.52C1737.65 1843.28 1738.37 1844.04 1739.07 1844.82C1738.02 1844.88 1737 1844.91 1735.91 1844.91C1728.32 1844.92 1720.8 1843.43 1713.79 1840.53C1706.77 1837.62 1700.4 1833.36 1695.04 1827.98C1694.29 1827.23 1693.57 1826.47 1692.87 1825.68C1693.92 1825.63 1694.97 1825.59 1696.03 1825.59V1825.59ZM1758.41 1733.85C1768.87 1738.28 1777.8 1745.69 1784.08 1755.16C1790.35 1764.64 1793.7 1775.75 1793.7 1787.11C1793.7 1798.47 1790.35 1809.58 1784.08 1819.06C1777.8 1828.53 1768.87 1835.94 1758.41 1840.37C1754.49 1842.03 1750.4 1843.24 1746.22 1843.98C1744.64 1841.98 1742.96 1840.07 1741.16 1838.26C1734.32 1831.42 1726.02 1826.23 1716.88 1823.07C1707.74 1819.91 1698 1818.87 1688.4 1820.02C1686.91 1817.88 1685.57 1815.63 1684.38 1813.3L1700.3 1797.38L1696.04 1793.12L1681.78 1807.37C1676.9 1794.3 1676.9 1779.91 1681.78 1766.83L1696.04 1781.09L1700.3 1776.83L1684.38 1760.91C1685.57 1758.58 1686.91 1756.33 1688.4 1754.18C1698 1755.33 1707.74 1754.29 1716.88 1751.13C1726.02 1747.97 1734.32 1742.78 1741.16 1735.95C1742.96 1734.14 1744.64 1732.23 1746.22 1730.22C1750.4 1730.98 1754.49 1732.19 1758.41 1733.85V1733.85ZM1739.07 1729.4C1738.38 1730.18 1737.65 1730.95 1736.9 1731.7C1731.54 1737.07 1725.17 1741.34 1718.16 1744.24C1711.14 1747.15 1703.62 1748.64 1696.03 1748.63C1694.97 1748.63 1693.95 1748.63 1692.87 1748.54C1693.57 1747.75 1694.29 1746.99 1695.04 1746.24C1700.4 1740.86 1706.77 1736.6 1713.79 1733.69C1720.8 1730.79 1728.32 1729.3 1735.91 1729.31C1736.97 1729.31 1737.99 1729.35 1739.07 1729.4V1729.4ZM1674.27 1637.26C1685.81 1632.54 1698.57 1631.68 1710.63 1634.82C1722.7 1637.95 1733.43 1644.9 1741.22 1654.63C1749.02 1664.36 1753.45 1676.35 1753.87 1688.81C1754.29 1701.27 1750.66 1713.53 1743.54 1723.76C1732.65 1722.45 1721.61 1723.97 1711.49 1728.16C1701.36 1732.36 1692.48 1739.1 1685.71 1747.72C1683.13 1747.25 1680.59 1746.61 1678.1 1745.8L1678.1 1723.3L1672.07 1723.3L1672.07 1743.46C1659.37 1737.67 1649.19 1727.49 1643.4 1714.79L1663.56 1714.79L1663.56 1708.76L1641.1 1708.76C1640.29 1706.27 1639.65 1703.73 1639.19 1701.15C1647.81 1694.38 1654.54 1685.51 1658.74 1675.38C1662.94 1665.25 1664.45 1654.21 1663.14 1643.32C1666.62 1640.9 1670.35 1638.86 1674.27 1637.26V1637.26ZM1638.29 1694C1638.23 1692.95 1638.2 1691.93 1638.2 1690.85C1638.18 1683.25 1639.67 1675.74 1642.58 1668.72C1645.48 1661.71 1649.75 1655.34 1655.12 1649.98C1655.87 1649.23 1656.64 1648.51 1657.42 1647.8C1657.48 1648.85 1657.51 1649.88 1657.51 1650.96C1657.52 1658.55 1656.03 1666.06 1653.14 1673.07C1650.24 1680.08 1645.98 1686.44 1640.62 1691.8C1639.87 1692.56 1639.11 1693.29 1638.33 1693.98L1638.29 1694ZM1546.45 1628.47C1551.28 1616.98 1559.69 1607.36 1570.44 1601.05C1581.18 1594.74 1593.68 1592.07 1606.07 1593.44C1618.45 1594.81 1630.06 1600.15 1639.17 1608.66C1648.27 1617.17 1654.38 1628.39 1656.58 1640.66C1647.94 1647.41 1641.19 1656.28 1636.99 1666.41C1632.8 1676.54 1631.29 1687.59 1632.62 1698.47C1630.48 1699.96 1628.23 1701.31 1625.9 1702.49L1609.98 1686.58L1605.72 1690.84L1619.97 1705.1C1606.9 1709.98 1592.5 1709.98 1579.43 1705.1L1593.68 1690.84L1589.42 1686.58L1573.5 1702.49C1571.17 1701.31 1568.92 1699.96 1566.77 1698.47C1567.92 1688.87 1566.88 1679.13 1563.72 1669.99C1560.57 1660.85 1555.37 1652.55 1548.54 1645.71C1546.73 1643.91 1544.83 1642.23 1542.82 1640.66C1543.58 1636.47 1544.81 1632.37 1546.48 1628.45L1546.45 1628.47ZM1561.13 1694C1560.36 1693.31 1559.59 1692.58 1558.84 1691.84C1553.46 1686.48 1549.2 1680.11 1546.29 1673.09C1543.38 1666.08 1541.89 1658.56 1541.91 1650.96C1541.91 1649.91 1541.91 1648.89 1542 1647.8C1542.78 1648.49 1543.55 1649.23 1544.29 1649.98C1549.67 1655.34 1553.93 1661.71 1556.84 1668.72C1559.74 1675.74 1561.24 1683.25 1561.23 1690.85C1561.26 1691.88 1561.23 1692.93 1561.17 1693.98L1561.13 1694ZM1449.89 1712.56C1445.63 1702.03 1444.56 1690.48 1446.82 1679.34C1449.08 1668.21 1454.57 1657.99 1462.61 1649.95C1470.64 1641.92 1480.86 1636.43 1492 1634.17C1503.13 1631.91 1514.68 1632.98 1525.21 1637.24C1529.15 1638.84 1532.89 1640.87 1536.37 1643.3C1535.06 1654.19 1536.58 1665.23 1540.77 1675.36C1544.97 1685.48 1551.7 1694.36 1560.33 1701.13C1559.86 1703.71 1559.22 1706.25 1558.41 1708.74L1535.91 1708.74L1535.91 1714.77L1556.07 1714.77C1550.28 1727.47 1540.1 1737.65 1527.41 1743.44L1527.41 1723.28L1521.38 1723.28L1521.38 1745.78C1518.89 1746.6 1516.35 1747.24 1513.77 1747.71C1507.79 1740.1 1500.17 1733.95 1491.47 1729.72C1482.78 1725.49 1473.23 1723.29 1463.56 1723.29C1461.02 1723.29 1458.47 1723.44 1455.95 1723.75C1453.52 1720.25 1451.49 1716.5 1449.89 1712.56V1712.56ZM1503.46 1748.61C1495.86 1748.62 1488.35 1747.13 1481.33 1744.23C1474.32 1741.32 1467.95 1737.06 1462.59 1731.68C1461.84 1730.94 1461.12 1730.17 1460.42 1729.39C1461.46 1729.33 1462.5 1729.3 1463.57 1729.3C1471.17 1729.29 1478.69 1730.78 1485.7 1733.68C1492.71 1736.59 1499.09 1740.85 1504.45 1746.22C1505.19 1746.97 1505.92 1747.74 1506.61 1748.52C1505.57 1748.59 1504.52 1748.63 1503.46 1748.63L1503.46 1748.61ZM1441.1 1840.37C1429.62 1835.54 1420.01 1827.12 1413.7 1816.38C1407.39 1805.63 1404.72 1793.14 1406.09 1780.75C1407.46 1768.37 1412.8 1756.76 1421.3 1747.66C1429.81 1738.55 1441.03 1732.44 1453.29 1730.24C1460.05 1738.88 1468.92 1745.62 1479.05 1749.82C1489.18 1754.02 1500.23 1755.52 1511.11 1754.2C1512.6 1756.35 1513.94 1758.59 1515.12 1760.92L1499.21 1776.84L1503.46 1781.1L1517.72 1766.85C1522.61 1779.92 1522.61 1794.32 1517.72 1807.39L1503.46 1793.14L1499.21 1797.39L1515.12 1813.31C1513.94 1815.64 1512.6 1817.89 1511.11 1820.04C1500.23 1818.71 1489.18 1820.22 1479.05 1824.42C1468.92 1828.61 1460.05 1835.36 1453.29 1844C1449.11 1843.25 1445.02 1842.03 1441.1 1840.37V1840.37ZM1460.44 1844.82C1461.14 1844.04 1461.86 1843.28 1462.61 1842.52C1467.97 1837.15 1474.34 1832.89 1481.35 1829.98C1488.37 1827.08 1495.89 1825.59 1503.48 1825.59C1504.54 1825.59 1505.59 1825.63 1506.63 1825.68C1505.93 1826.46 1505.21 1827.23 1504.47 1827.98C1499.11 1833.36 1492.74 1837.62 1485.72 1840.53C1478.71 1843.43 1471.19 1844.92 1463.6 1844.91C1462.52 1844.91 1461.46 1844.88 1460.42 1844.82L1460.44 1844.82ZM1525.24 1936.96C1513.69 1941.67 1500.94 1942.53 1488.88 1939.39C1476.81 1936.26 1466.09 1929.31 1458.3 1919.58C1450.51 1909.85 1446.07 1897.86 1445.65 1885.41C1445.23 1872.95 1448.85 1860.69 1455.97 1850.46C1458.5 1850.77 1461.04 1850.92 1463.58 1850.92C1473.25 1850.91 1482.8 1848.71 1491.49 1844.49C1500.19 1840.26 1507.81 1834.11 1513.79 1826.51C1516.37 1826.97 1518.91 1827.61 1521.4 1828.42L1521.4 1850.97L1527.43 1850.97L1527.43 1830.81C1540.13 1836.6 1550.3 1846.79 1556.09 1859.48L1535.91 1859.48L1535.91 1865.5L1558.41 1865.5C1559.22 1868 1559.86 1870.54 1560.33 1873.12C1552.72 1879.09 1546.58 1886.71 1542.35 1895.41C1538.12 1904.11 1535.92 1913.65 1535.91 1923.32C1535.92 1925.86 1536.07 1928.4 1536.37 1930.93C1532.89 1933.35 1529.15 1935.37 1525.21 1936.96L1525.24 1936.96ZM1561.22 1880.22C1561.28 1881.27 1561.32 1882.29 1561.32 1883.37C1561.33 1890.97 1559.84 1898.49 1556.93 1905.5C1554.03 1912.51 1549.76 1918.88 1544.38 1924.24C1543.64 1924.99 1542.87 1925.72 1542.09 1926.42C1542.03 1925.37 1542 1924.34 1542 1923.26C1541.98 1915.66 1543.47 1908.14 1546.38 1901.13C1549.29 1894.11 1553.55 1887.74 1558.93 1882.38C1559.62 1881.66 1560.39 1880.94 1561.17 1880.24L1561.22 1880.22ZM1546.54 1945.75C1544.89 1941.84 1543.68 1937.75 1542.93 1933.57C1544.94 1932 1546.84 1930.31 1548.65 1928.51C1555.48 1921.67 1560.68 1913.37 1563.84 1904.23C1566.99 1895.09 1568.04 1885.35 1566.88 1875.75C1569.03 1874.26 1571.28 1872.91 1573.62 1871.73L1589.53 1887.65L1593.79 1883.39L1579.54 1869.13C1592.61 1864.25 1607.01 1864.25 1620.09 1869.13L1605.83 1883.39L1610.09 1887.65L1626.01 1871.73C1628.34 1872.92 1630.59 1874.26 1632.74 1875.75C1631.41 1886.63 1632.92 1897.68 1637.11 1907.81C1641.31 1917.94 1648.06 1926.81 1656.69 1933.57C1654.49 1945.84 1648.38 1957.07 1639.27 1965.59C1630.16 1974.11 1618.54 1979.45 1606.15 1980.82C1593.75 1982.2 1581.25 1979.53 1570.49 1973.21C1559.74 1966.9 1551.32 1957.27 1546.48 1945.78L1546.54 1945.75Z" fill="#222222"/>
</svg>
