<svg width="2000" height="2565" viewBox="0 0 2000 2565" fill="none" xmlns="http://www.w3.org/2000/svg">
<path d="M988.954 402H934.924L1011.53 602H1065.56L988.954 402Z" fill="#222222"/>
<path d="M910.637 402H856.607L780 602H804.297L825.758 545.982H911.769L933.23 602H987.26L910.637 402ZM868.751 433.713L868.932 434.188L902.443 521.685H835.05L868.751 433.713Z" fill="#222222"/>
<path d="M1196.22 402L1174.75 458.018H1088.74L1067.29 402H1013.26L1089.87 602H1143.9L1220.5 402H1196.22ZM1131.74 570.279L1131.56 569.803L1098.05 482.315H1165.44L1131.74 570.279Z" fill="#222222"/>
<path d="M1293.08 965.132L1331.28 1064.87H666.018L627.814 965.132H1293.08ZM1327.56 915H554.933L631.54 1115H1404.17L1327.56 915Z" fill="#222222"/>
<path d="M476.607 915L400 1115H424.297L445.758 1058.98H531.769L553.23 1115H607.26L530.654 915H476.607ZM488.751 946.713L488.932 947.188L522.443 1034.69H455.059L488.759 946.713H488.751Z" fill="#222222"/>
<path d="M1534.81 915L1513.35 971.018H1427.34L1405.89 915H1351.86L1428.46 1115H1482.49L1559.1 915H1534.81ZM1470.34 1083.28L1470.16 1082.8L1436.65 995.315H1504.04L1470.34 1083.28Z" fill="#222222"/>
<path d="M1579.1 1584H420V1784H1579.1V1584Z" fill="#222222"/>
<path d="M1579.1 1804H420V2004H1579.1V1804Z" fill="#222222"/>
<path d="M1579.1 1364H574.933L651.54 1564H1579.1V1364Z" fill="#222222"/>
<path d="M496.615 1364L420 1564H444.297L465.758 1507.98H551.769L573.23 1564H627.26L550.654 1364H496.615ZM508.759 1395.71L508.941 1396.19L542.451 1483.69H475.059L508.759 1395.71Z" fill="#222222"/>
<path d="M1347.56 2024H420V2224H1424.17L1347.56 2024Z" fill="#222222"/>
<path d="M1554.81 2024L1533.35 2080.02H1447.34L1425.89 2024H1371.86L1448.46 2224H1502.49L1579.1 2024H1554.81ZM1490.34 2192.28L1490.16 2191.8L1456.65 2104.31H1524.04L1490.34 2192.28Z" fill="#222222"/>
</svg>
