<svg width="2000" height="2080" viewBox="0 0 2000 2080" fill="none" xmlns="http://www.w3.org/2000/svg">
<path d="M988.47 140H934.439L1011.04 340H1065.07L988.47 140Z" fill="#BFE3DB"/>
<path d="M841.176 140L917.787 340H893.489L816.885 140H841.176Z" fill="#FFC0A1"/>
<path d="M1105.67 140L1182.28 340H1157.98L1081.38 140H1105.67Z" fill="#FFC0A1"/>
<path d="M516.642 140L440.031 340H464.329L540.933 140H516.642Z" fill="#FFC0A1"/>
<path d="M653.755 249.3V225.002H557.578V249.3H653.755Z" fill="#7B7261"/>
<path d="M1442.04 254.189V229.891H1345.87V254.189H1442.04Z" fill="#7B7261"/>
<path d="M723.98 140H669.95L746.553 340H800.584L723.98 140Z" fill="#BFE3DB"/>
<path d="M1482.53 340L1559.14 140H1534.84L1458.24 340H1482.54H1482.53Z" fill="#FFC0A1"/>
<path d="M1275.53 340H1329.56L1252.96 140H1198.93L1275.53 340Z" fill="#BFE3DB"/>
<path d="M988.47 1940H934.439L1011.04 1740H1065.07L988.47 1940Z" fill="#BFE3DB"/>
<path d="M841.176 1940L917.787 1740H893.489L816.885 1940H841.176Z" fill="#FFC0A1"/>
<path d="M1105.67 1940L1182.28 1740H1157.98L1081.38 1940H1105.67Z" fill="#FFC0A1"/>
<path d="M516.642 1940L440.031 1740H464.329L540.933 1940H516.642Z" fill="#FFC0A1"/>
<path d="M653.755 1830.7V1855H557.578V1830.7H653.755Z" fill="#7B7261"/>
<path d="M1442.04 1825.81V1850.11H1345.87V1825.81H1442.04Z" fill="#7B7261"/>
<path d="M723.98 1940H669.95L746.553 1740H800.584L723.98 1940Z" fill="#BFE3DB"/>
<path d="M1482.53 1740L1559.14 1940H1534.84L1458.24 1740H1482.54H1482.53Z" fill="#FFC0A1"/>
<path d="M1275.53 1740H1329.56L1252.96 1940H1198.93L1275.53 1740Z" fill="#BFE3DB"/>
<path d="M682.61 460L606.001 659.994H630.299L706.9 460H682.61Z" fill="#FFC0A1"/>
<path d="M1316.57 659.999L1393.17 460.006H1368.87L1292.27 659.999H1316.57Z" fill="#FFC0A1"/>
<path d="M988.134 460H934.105L1010.71 659.994H1064.74L988.134 460Z" fill="#BFE3DB"/>
<path d="M934.105 460L1010.71 659.994H986.416L909.814 460H934.105Z" fill="#FFC0A1"/>
<path d="M1012.42 460L1089.04 659.994H1064.74L988.134 460H1012.42Z" fill="#FFC0A1"/>
<path d="M909.815 460H855.786L932.387 659.994H986.416L909.815 460Z" fill="#BFE3DB"/>
<path d="M1089.04 659.999H1143.07L1066.45 460.006H1012.42L1089.04 659.999Z" fill="#BFE3DB"/>
<path d="M1265.71 540.317V516.02H1169.54V540.317H1265.71Z" fill="#7B7261"/>
<path d="M836.865 569.296V544.998H740.691V569.296H836.865Z" fill="#7B7261"/>
<path d="M682.61 1620L606.001 1420H630.299L706.9 1620H682.61Z" fill="#FFC0A1"/>
<path d="M1316.57 1420L1393.17 1619.99H1368.87L1292.27 1420H1316.57Z" fill="#FFC0A1"/>
<path d="M988.134 1620H934.105L1010.71 1420H1064.74L988.134 1620Z" fill="#BFE3DB"/>
<path d="M934.105 1620L1010.71 1420H986.416L909.814 1620H934.105Z" fill="#FFC0A1"/>
<path d="M1012.42 1620L1089.04 1420H1064.74L988.134 1620H1012.42Z" fill="#FFC0A1"/>
<path d="M909.815 1620H855.786L932.387 1420H986.416L909.815 1620Z" fill="#BFE3DB"/>
<path d="M1089.04 1420H1143.07L1066.45 1619.99H1012.42L1089.04 1420Z" fill="#BFE3DB"/>
<path d="M1265.71 1539.68V1563.98H1169.54V1539.68H1265.71Z" fill="#7B7261"/>
<path d="M836.865 1510.7V1535H740.691V1510.7H836.865Z" fill="#7B7261"/>
<path d="M921.67 923.986V899.688H825.493V923.986H921.67Z" fill="#7B7261"/>
<path d="M1174.5 860.312V836.014H1078.32V860.312H1174.5Z" fill="#7B7261"/>
<path d="M988.708 780H934.678L1011.29 980H1065.32L988.708 780Z" fill="#BFE3DB"/>
<path d="M934.678 780L1011.29 980H986.99L910.387 780H934.678Z" fill="#FFC0A1"/>
<path d="M1013.01 780L1089.61 980H1065.31L988.702 780H1013H1013.01Z" fill="#FFC0A1"/>
<path d="M856.356 780L779.745 980H804.044L880.647 780H856.356Z" fill="#FFC0A1"/>
<path d="M910.387 780H856.356L932.96 980H986.991L910.387 780Z" fill="#BFE3DB"/>
<path d="M1143.64 980L1220.24 780H1195.95L1119.34 980H1143.63H1143.64Z" fill="#FFC0A1"/>
<path d="M1089.61 980H1143.64L1067.04 780H1013.01L1089.61 980Z" fill="#BFE3DB"/>
<path d="M921.67 1156.01V1180.31H825.493V1156.01H921.67Z" fill="#7B7261"/>
<path d="M1174.5 1219.69V1243.99H1078.32V1219.69H1174.5Z" fill="#7B7261"/>
<path d="M988.708 1300H934.678L1011.29 1100H1065.32L988.708 1300Z" fill="#BFE3DB"/>
<path d="M934.678 1300L1011.29 1100H986.99L910.387 1300H934.678Z" fill="#FFC0A1"/>
<path d="M1013.01 1300L1089.61 1100H1065.31L988.702 1300H1013H1013.01Z" fill="#FFC0A1"/>
<path d="M856.356 1300L779.745 1100H804.044L880.647 1300H856.356Z" fill="#FFC0A1"/>
<path d="M910.387 1300H856.356L932.96 1100H986.991L910.387 1300Z" fill="#BFE3DB"/>
<path d="M1143.64 1100L1220.24 1300H1195.95L1119.34 1100H1143.63H1143.64Z" fill="#FFC0A1"/>
<path d="M1089.61 1100H1143.64L1067.04 1300H1013.01L1089.61 1100Z" fill="#BFE3DB"/>
</svg>
