<svg width="2000" height="1790" viewBox="0 0 2000 1790" fill="none" xmlns="http://www.w3.org/2000/svg">
<g clip-path="url(#clip0_1_1315)">
<path d="M974.344 1495.14L514.69 295.141H489.965L949.61 1495.14H974.335H974.344Z" fill="#FFC0A1"/>
<path d="M1002.69 328.565L1055.05 465.244H615.64L563.287 328.565H1002.69ZM1025.68 295.141H514.69L592.648 498.668H1103.63L1025.68 295.141Z" fill="#8F00FF"/>
<path d="M489.965 295.141H434.982L357.024 498.668H381.75L403.59 441.662H491.117L512.957 498.668H567.94L489.965 295.141ZM447.34 327.413L447.525 327.896L481.626 416.937H413.054L447.349 327.413H447.34Z" fill="#8F00FF"/>
<path d="M1236.58 295.141L1214.74 352.147H1127.22L1105.38 295.141H1050.4L1128.36 498.668H1183.34L1261.3 295.141H1236.58ZM1170.97 466.387L1170.79 465.903L1136.69 376.872H1205.27L1170.97 466.387Z" fill="#8F00FF"/>
<path d="M1086.01 595.272L1124.88 696.767H723.151L684.274 595.272H1086.01ZM1121.09 544.256H610.107L688.065 747.783H1199.05L1121.09 544.256Z" fill="#8F00FF"/>
<path d="M585.382 544.256H530.399L452.442 747.783H477.167L499.007 690.777H586.535L608.375 747.783H663.358L585.4 544.256H585.382ZM542.758 576.528L542.942 577.012L577.044 666.052H508.463L542.758 576.528Z" fill="#8F00FF"/>
<path d="M1332 544.256L1310.16 601.262H1222.63L1200.8 544.256H1145.82L1223.78 747.783H1278.76L1356.72 544.256H1332ZM1266.39 715.502L1266.21 715.018L1232.11 625.987H1300.69L1266.39 715.502Z" fill="#8F00FF"/>
<path d="M1169.33 861.987L1194.73 928.298H830.681L805.279 861.987H1169.33ZM1216.52 793.379H705.525L783.483 996.906H1294.47L1216.51 793.379H1216.52Z" fill="#8F00FF"/>
<path d="M680.809 793.379H625.826L547.868 996.906H572.593L594.433 939.9H681.961L703.801 996.906H758.784L680.826 793.379H680.809ZM638.184 825.651L638.369 826.135L672.47 915.175H603.889L638.184 825.651Z" fill="#8F00FF"/>
<path d="M1427.43 793.379L1405.59 850.385H1318.06L1296.23 793.379H1241.25L1319.2 996.906H1374.19L1452.14 793.379H1427.43ZM1361.82 964.625L1361.63 964.142L1327.53 875.11H1396.11L1361.82 964.625Z" fill="#8F00FF"/>
<path d="M1252.65 1128.7L1264.58 1159.82H938.202L926.274 1128.7H1252.65ZM1311.95 1042.5H800.951L878.909 1246.02H1389.89L1311.94 1042.5H1311.95Z" fill="#8F00FF"/>
<path d="M776.234 1042.5H721.252L643.294 1246.02H668.019L689.859 1189.02H777.387L799.227 1246.02H854.21L776.252 1042.5H776.234ZM733.61 1074.77L733.794 1075.25L767.896 1164.29H699.315L733.61 1074.77Z" fill="#8F00FF"/>
<path d="M1522.85 1042.5L1501.01 1099.5H1413.49L1391.65 1042.5H1336.67L1414.63 1246.02H1469.61L1547.57 1042.5H1522.85ZM1457.24 1213.74L1457.06 1213.26L1422.96 1124.23H1491.54L1457.24 1213.74Z" fill="#8F00FF"/>
<path d="M1407.37 1291.61H921.102H896.377L974.343 1495.14H1485.33L1407.37 1291.61Z" fill="#8F00FF"/>
<path d="M871.661 1291.61H816.678L738.72 1495.14H763.445L785.285 1438.13H872.813L894.653 1495.14H949.636L871.678 1291.61H871.661ZM829.036 1323.89L829.221 1324.37L863.322 1413.41H794.741L829.036 1323.89Z" fill="#8F00FF"/>
<path d="M1618.28 1291.61L1596.44 1348.62H1508.91L1487.08 1291.61H1432.1L1510.05 1495.14H1565.04L1643 1291.61H1618.28ZM1552.67 1462.86L1552.49 1462.38L1518.38 1373.34H1586.97L1552.67 1462.86Z" fill="#8F00FF"/>
<path d="M1510.05 1495.14L1050.4 295.141H1025.68L1485.33 1495.14H1510.05Z" fill="#FFC0A1"/>
</g>
<defs>
<clipPath id="clip0_1_1315">
<rect width="1285.97" height="1200" fill="white" transform="translate(357.025 295.141)"/>
</clipPath>
</defs>
</svg>
