<svg width="2000" height="1330" viewBox="0 0 2000 1330" fill="none" xmlns="http://www.w3.org/2000/svg">
<g clip-path="url(#clip0_124_30737)">
<g clip-path="url(#clip1_124_30737)">
<path d="M893.08 -38.5586L900.579 0.835656L856.822 -7.02338L849.323 -46.4177L893.08 -38.5586ZM926.158 -71.982L800.73 -94.5098L823.743 26.4L949.171 48.9277L926.158 -71.982Z" fill="#BFE3DB"/>
<path d="M786.991 -96.9764L756.43 -102.465L692.78 2.87905L706.523 5.34741L724.354 -24.158L773.004 -15.42L779.453 18.4461L810.014 23.9351L787.001 -96.9746L786.991 -96.9764ZM760.077 -83.2939L760.132 -83.0065L770.197 -30.1105L732.078 -36.9571L760.077 -83.2939Z" fill="#BFE3DB"/>
<path d="M1043.39 -50.9268L1025.56 -21.4214L976.911 -30.1594L970.468 -64.0246L939.906 -69.5137L962.919 51.3961L993.481 56.8851L1057.13 -48.4594L1043.39 -50.9268ZM989.829 37.7078L989.775 37.4204L979.708 -15.4707L1017.83 -8.62408L989.829 37.7078Z" fill="#BFE3DB"/>
<path d="M912.772 118.005L916.294 136.498L893.477 132.4L889.955 113.907L912.772 118.005ZM954.335 76.0122L828.907 53.4844L851.92 174.394L977.348 196.922L954.335 76.0122Z" fill="#BFE3DB"/>
<path d="M815.163 51.0158L784.602 45.5268L720.952 150.871L734.695 153.34L752.526 123.834L801.176 132.572L807.625 166.438L838.186 171.927L815.173 51.0176L815.163 51.0158ZM788.249 64.6983L788.304 64.9857L798.369 117.882L760.25 111.035L788.249 64.6983Z" fill="#BFE3DB"/>
<path d="M1071.56 97.0673L1053.73 126.573L1005.08 117.835L998.638 83.9695L968.077 78.4805L991.09 199.39L1021.65 204.879L1085.3 99.5348L1071.56 97.0673ZM1018 185.702L1017.95 185.415L1007.88 132.523L1046 139.37L1018 185.702Z" fill="#BFE3DB"/>
<path d="M982.506 224.007L870.816 203.947L857.073 201.479L880.091 322.389L1005.52 344.917L982.506 224.007Z" fill="#BFE3DB"/>
<path d="M843.335 199.012L812.773 193.523L749.123 298.867L762.867 301.336L780.697 271.83L829.348 280.568L835.796 314.434L866.357 319.923L843.344 199.014L843.335 199.012ZM816.421 212.694L816.475 212.982L826.541 265.878L788.421 259.031L816.421 212.694Z" fill="#BFE3DB"/>
<path d="M1099.73 245.061L1081.9 274.567L1033.25 265.829L1026.81 231.964L996.249 226.475L1019.26 347.384L1049.82 352.873L1113.47 247.529L1099.73 245.061ZM1046.17 333.696L1046.12 333.409L1036.05 280.518L1074.17 287.364L1046.17 333.696Z" fill="#BFE3DB"/>
<path d="M1345.17 334.479L1360.62 415.676L1274.98 400.294L1259.53 319.097L1345.17 334.479ZM1361.28 318.196L1235.86 295.668L1258.87 416.578L1384.3 439.105L1361.28 318.196Z" fill="#BFE3DB"/>
<path d="M1398.04 441.574L1428.6 447.063L1492.25 341.718L1478.51 339.25L1460.68 368.755L1412.03 360.017L1405.58 326.151L1375.02 320.662L1398.03 441.572L1398.04 441.574ZM1424.95 427.891L1424.9 427.604L1414.83 374.708L1452.95 381.554L1424.95 427.891Z" fill="#BFE3DB"/>
<path d="M1141.64 395.522L1159.47 366.017L1208.12 374.755L1214.56 408.62L1245.12 414.109L1222.11 293.199L1191.55 287.71L1127.9 393.055L1141.64 395.522ZM1195.2 306.888L1195.26 307.175L1205.32 360.066L1167.2 353.22L1195.2 306.888Z" fill="#BFE3DB"/>
<path d="M1308.52 195.055L1320 255.351L1255.3 243.731L1243.83 183.435L1308.52 195.055ZM1333.12 170.202L1207.69 147.674L1230.7 268.584L1356.13 291.111L1333.12 170.202Z" fill="#BFE3DB"/>
<path d="M1369.87 293.579L1400.43 299.069L1464.08 193.724L1450.34 191.256L1432.51 220.761L1383.86 212.023L1377.41 178.157L1346.85 172.668L1369.86 293.578L1369.87 293.579ZM1396.79 279.897L1396.73 279.61L1386.67 226.714L1424.79 233.56L1396.79 279.897Z" fill="#BFE3DB"/>
<path d="M1113.47 247.528L1131.3 218.023L1179.95 226.761L1186.4 260.626L1216.96 266.115L1193.95 145.205L1163.38 139.716L1099.73 245.061L1113.47 247.528ZM1167.04 158.894L1167.09 159.181L1177.16 212.072L1139.04 205.226L1167.04 158.894Z" fill="#BFE3DB"/>
<path d="M1271.87 55.6328L1279.37 95.0271L1235.61 87.1681L1228.11 47.7738L1271.87 55.6328ZM1304.95 22.2094L1179.52 -0.318359L1202.54 120.591L1327.96 143.119L1304.95 22.2094Z" fill="#BFE3DB"/>
<path d="M1341.7 145.587L1372.26 151.076L1435.91 45.7319L1422.17 43.2635L1404.34 72.7689L1355.69 64.0309L1349.24 30.1648L1318.68 24.6758L1341.69 145.586L1341.7 145.587ZM1368.61 131.905L1368.56 131.617L1358.49 78.7214L1396.61 85.568L1368.61 131.905Z" fill="#BFE3DB"/>
<path d="M1085.31 99.536L1103.14 70.0306L1151.79 78.7686L1158.23 112.634L1188.79 118.123L1165.78 -2.78691L1135.22 -8.27592L1071.57 97.0685L1085.31 99.536ZM1138.87 10.9014L1138.92 11.1888L1148.99 64.0799L1110.87 57.2333L1138.87 10.9014Z" fill="#BFE3DB"/>
<path d="M1313.53 -2.40684L1344.09 3.08222L1407.74 -102.262L1394 -104.731L1376.17 -75.2252L1327.52 -83.9632L1321.07 -117.829L1290.51 -123.318L1313.52 -2.4086L1313.53 -2.40684ZM1340.44 -16.0894L1340.39 -16.3767L1330.32 -69.2727L1368.44 -62.4261L1340.44 -16.0894Z" fill="#BFE3DB"/>
<path d="M1630.95 -6.74453L1642.43 53.5512L1577.73 41.9312L1566.25 -18.3645L1630.95 -6.74453ZM1655.55 -31.5972L1530.12 -54.125L1553.14 66.7848L1678.56 89.3126L1655.55 -31.5972Z" fill="#BFE3DB"/>
<path d="M1516.38 -56.5916L1485.82 -62.0806L1422.17 43.2638L1435.91 45.7322L1453.74 16.2268L1502.39 24.9648L1508.84 58.8309L1539.4 64.3199L1516.39 -56.5898L1516.38 -56.5916ZM1489.47 -42.9091L1489.52 -42.6217L1499.59 10.2743L1461.47 3.4277L1489.47 -42.9091Z" fill="#BFE3DB"/>
<path d="M1772.78 -10.5401L1754.95 18.9653L1706.3 10.2273L1699.86 -23.6379L1669.29 -29.127L1692.31 91.7828L1722.87 97.2719L1786.52 -8.07263L1772.78 -10.5401ZM1719.22 78.0945L1719.16 77.8072L1709.1 24.9161L1747.22 31.7627L1719.22 78.0945Z" fill="#BFE3DB"/>
<path d="M1650.64 149.82L1658.14 189.215L1614.38 181.356L1606.88 141.961L1650.64 149.82ZM1683.72 116.397L1558.29 93.8691L1581.3 214.779L1706.73 237.307L1683.72 116.397Z" fill="#BFE3DB"/>
<path d="M1544.55 91.3986L1513.99 85.9096L1450.34 191.254L1464.08 193.722L1481.91 164.217L1530.56 172.955L1537.01 206.821L1567.57 212.31L1544.56 91.4004L1544.55 91.3986ZM1517.63 105.081L1517.69 105.369L1527.75 158.264L1489.63 151.418L1517.63 105.081Z" fill="#BFE3DB"/>
<path d="M1800.95 137.45L1783.12 166.956L1734.47 158.218L1728.02 124.352L1697.46 118.863L1720.47 239.773L1751.04 245.262L1814.69 139.918L1800.95 137.45ZM1747.38 226.085L1747.33 225.797L1737.26 172.906L1775.38 179.753L1747.38 226.085Z" fill="#BFE3DB"/>
<path d="M1670.33 306.383L1673.85 324.876L1651.04 320.778L1647.51 302.285L1670.33 306.383ZM1711.89 264.389L1586.46 241.861L1609.47 362.771L1734.9 385.299L1711.89 264.389Z" fill="#BFE3DB"/>
<path d="M1572.72 239.395L1542.16 233.906L1478.51 339.25L1492.26 341.719L1510.09 312.213L1558.74 320.951L1565.18 354.817L1595.75 360.306L1572.73 239.396L1572.72 239.395ZM1545.81 253.077L1545.86 253.365L1555.93 306.261L1517.81 299.414L1545.81 253.077Z" fill="#BFE3DB"/>
<path d="M1829.12 285.446L1811.29 314.952L1762.64 306.214L1756.19 272.348L1725.63 266.859L1748.65 387.769L1779.21 393.258L1842.86 287.914L1829.12 285.446ZM1775.56 374.081L1775.5 373.793L1765.43 320.902L1803.55 327.749L1775.56 374.081Z" fill="#BFE3DB"/>
<path d="M1740.06 412.389L1628.38 392.33L1614.63 389.861L1637.64 510.771L1763.07 533.299L1740.06 412.389Z" fill="#BFE3DB"/>
<path d="M1600.89 387.395L1570.33 381.906L1506.68 487.25L1520.43 489.719L1538.26 460.213L1586.91 468.951L1593.36 502.817L1623.92 508.306L1600.9 387.396L1600.89 387.395ZM1573.98 401.077L1574.03 401.365L1584.1 454.261L1545.98 447.414L1573.98 401.077Z" fill="#BFE3DB"/>
<path d="M1857.29 433.442L1839.46 462.948L1790.81 454.21L1784.36 420.345L1753.8 414.855L1776.82 535.765L1807.38 541.254L1871.03 435.91L1857.29 433.442ZM1803.73 522.077L1803.67 521.79L1793.61 468.899L1831.72 475.745L1803.73 522.077Z" fill="#BFE3DB"/>
<path d="M2102.73 522.861L2118.18 604.058L2032.54 588.677L2017.08 507.48L2102.73 522.861ZM2118.84 506.579L1993.41 484.051L2016.43 604.961L2141.86 627.488L2118.84 506.579Z" fill="#BFE3DB"/>
<path d="M1899.19 583.905L1917.02 554.4L1965.67 563.138L1972.12 597.003L2002.68 602.492L1979.67 481.582L1949.1 476.093L1885.45 581.438L1899.19 583.905ZM1952.76 495.271L1952.81 495.558L1962.88 548.449L1924.76 541.602L1952.76 495.271Z" fill="#BFE3DB"/>
<path d="M2066.08 383.437L2077.55 443.733L2012.86 432.113L2001.38 371.817L2066.08 383.437ZM2090.68 358.584L1965.25 336.057L1988.26 456.966L2113.69 479.494L2090.68 358.584Z" fill="#BFE3DB"/>
<path d="M1871.03 435.911L1888.86 406.406L1937.51 415.144L1943.95 449.009L1974.51 454.498L1951.5 333.588L1920.94 328.099L1857.29 433.444L1871.03 435.911ZM1924.59 347.276L1924.64 347.564L1934.71 400.455L1896.59 393.608L1924.59 347.276Z" fill="#BFE3DB"/>
<path d="M2029.43 244.01L2036.93 283.404L1993.17 275.545L1985.67 236.151L2029.43 244.01ZM2062.51 210.586L1937.08 188.059L1960.09 308.968L2085.52 331.496L2062.51 210.586Z" fill="#BFE3DB"/>
<path d="M1842.86 287.913L1860.69 258.408L1909.34 267.146L1915.79 301.011L1946.35 306.5L1923.33 185.59L1892.77 180.101L1829.12 285.445L1842.86 287.913ZM1896.42 199.278L1896.48 199.566L1906.55 252.457L1868.43 245.61L1896.42 199.278Z" fill="#BFE3DB"/>
<path d="M1992.78 104.588L1996.3 123.081L1973.48 118.983L1969.96 100.49L1992.78 104.588ZM2034.33 62.5942L1908.91 40.0664L1931.92 160.976L2057.35 183.504L2034.33 62.5942Z" fill="#BFE3DB"/>
<path d="M1814.69 139.921L1832.52 110.415L1881.17 119.153L1887.61 153.019L1918.18 158.508L1895.16 37.5978L1864.6 32.1088L1800.95 137.453L1814.69 139.921ZM1868.25 51.2861L1868.31 51.5735L1878.37 104.465L1840.25 97.618L1868.25 51.2861Z" fill="#BFE3DB"/>
<path d="M1903.75 12.9801L2015.43 33.0395L2029.18 35.5079L2006.16 -85.4019L1880.73 -107.93L1903.75 12.9801Z" fill="#BFE3DB"/>
<path d="M2042.92 37.976L2073.48 43.465L2137.13 -61.8795L2123.39 -64.3479L2105.56 -34.8424L2056.91 -43.5804L2050.46 -77.4465L2019.9 -82.9355L2042.91 37.9742L2042.92 37.976ZM2069.83 24.2926L2069.77 24.0052L2059.71 -28.8908L2097.83 -22.0442L2069.83 24.2926Z" fill="#BFE3DB"/>
<path d="M1786.52 -8.07337L1804.35 -37.5788L1853 -28.8408L1859.44 5.02445L1890 10.5135L1866.99 -110.396L1836.43 -115.885L1772.78 -10.5409L1786.52 -8.07337ZM1840.08 -96.708L1840.14 -96.4207L1850.2 -43.5295L1812.08 -50.3761L1840.08 -96.708Z" fill="#BFE3DB"/>
<path d="M1079.06 832.267L1094.52 913.464L1008.88 898.082L993.422 816.885L1079.06 832.267ZM1095.18 815.983L969.747 793.455L992.76 914.365L1118.19 936.893L1095.18 815.983Z" fill="#BFE3DB"/>
<path d="M1131.93 939.361L1162.49 944.85L1226.14 839.505L1212.4 837.037L1194.57 866.542L1145.92 857.804L1139.47 823.938L1108.91 818.449L1131.92 939.359L1131.93 939.361ZM1158.85 925.678L1158.79 925.391L1148.73 872.495L1186.85 879.341L1158.85 925.678Z" fill="#BFE3DB"/>
<path d="M875.532 893.309L893.362 863.804L942.013 872.542L948.456 906.407L979.017 911.896L956.005 790.987L925.443 785.497L861.793 890.842L875.532 893.309ZM929.095 804.675L929.149 804.962L939.215 857.853L901.096 851.007L929.095 804.675Z" fill="#BFE3DB"/>
<path d="M1042.41 692.844L1053.89 753.14L989.194 741.52L977.717 681.224L1042.41 692.844ZM1067.01 667.991L941.581 645.463L964.593 766.373L1090.02 788.901L1067.01 667.991Z" fill="#BFE3DB"/>
<path d="M1103.76 791.369L1134.33 796.858L1197.98 691.513L1184.23 689.045L1166.4 718.55L1117.75 709.812L1111.3 675.946L1080.74 670.457L1103.76 791.367L1103.76 791.369ZM1130.68 777.686L1130.62 777.399L1120.56 724.503L1158.68 731.349L1130.68 777.686Z" fill="#BFE3DB"/>
<path d="M847.365 745.317L865.195 715.812L913.846 724.55L920.289 758.415L950.85 763.904L927.838 642.994L897.276 637.505L833.626 742.85L847.365 745.317ZM900.928 656.683L900.982 656.97L911.049 709.861L872.929 703.015L900.928 656.683Z" fill="#BFE3DB"/>
<path d="M1005.76 553.42L1013.26 592.814L969.506 584.955L962.007 545.561L1005.76 553.42ZM1038.84 519.997L913.415 497.469L936.428 618.379L1061.86 640.906L1038.84 519.997Z" fill="#BFE3DB"/>
<path d="M1075.6 643.374L1106.16 648.863L1169.81 543.519L1156.07 541.051L1138.24 570.556L1089.59 561.818L1083.14 527.952L1052.58 522.463L1075.59 643.373L1075.6 643.374ZM1102.51 629.692L1102.46 629.405L1092.39 576.508L1130.51 583.355L1102.51 629.692Z" fill="#BFE3DB"/>
<path d="M819.199 597.325L837.029 567.82L885.68 576.558L892.123 610.423L922.684 615.912L899.672 495.002L869.11 489.513L805.46 594.858L819.199 597.325ZM872.762 508.69L872.816 508.978L882.883 561.869L844.763 555.022L872.762 508.69Z" fill="#BFE3DB"/>
<path d="M969.11 413.992L972.632 432.485L949.815 428.386L946.293 409.893L969.11 413.992ZM1010.67 371.998L885.244 349.471L908.257 470.38L1033.68 492.908L1010.67 371.998Z" fill="#BFE3DB"/>
<path d="M1047.42 495.374L1077.98 500.863L1141.63 395.519L1127.89 393.051L1110.06 422.556L1061.41 413.818L1054.96 379.952L1024.4 374.463L1047.41 495.373L1047.42 495.374ZM1074.34 481.692L1074.28 481.405L1064.22 428.509L1102.34 435.355L1074.34 481.692Z" fill="#BFE3DB"/>
<path d="M791.028 449.325L808.858 419.82L857.509 428.558L863.952 462.423L894.514 467.912L871.501 347.002L840.939 341.513L777.289 446.858L791.028 449.325ZM844.591 360.69L844.645 360.978L854.712 413.869L816.592 407.022L844.591 360.69Z" fill="#BFE3DB"/>
<path d="M2007.84 629.576L1977.28 624.087L1913.63 729.432L1927.37 731.9L1945.2 702.395L1993.86 711.133L2000.3 744.999L2030.87 750.488L2007.85 629.578L2007.84 629.576ZM1980.93 643.259L1980.98 643.546L1991.05 696.442L1952.93 689.596L1980.93 643.259Z" fill="#BFE3DB"/>
<path d="M2036.01 777.567L2005.45 772.078L1941.8 877.422L1955.54 879.89L1973.37 850.385L2022.02 859.123L2028.47 892.989L2059.03 898.478L2036.02 777.568L2036.01 777.567ZM2009.1 791.249L2009.15 791.536L2019.22 844.432L1981.1 837.586L2009.1 791.249Z" fill="#BFE3DB"/>
<path d="M2064.18 925.567L2033.62 920.078L1969.97 1025.42L1983.72 1027.89L2001.55 998.385L2050.2 1007.12L2056.65 1040.99L2087.21 1046.48L2064.19 925.568L2064.18 925.567ZM2037.27 939.249L2037.32 939.536L2047.39 992.433L2009.27 985.586L2037.27 939.249Z" fill="#BFE3DB"/>
<path d="M2092.36 1073.56L2061.79 1068.07L1998.14 1173.42L2011.89 1175.88L2029.72 1146.38L2078.37 1155.12L2084.82 1188.98L2115.38 1194.47L2092.37 1073.56L2092.36 1073.56ZM2065.44 1087.24L2065.5 1087.53L2075.56 1140.43L2037.44 1133.58L2065.44 1087.24Z" fill="#BFE3DB"/>
<path d="M1836.63 1020.65L1852.08 1101.85L1766.44 1086.46L1750.99 1005.27L1836.63 1020.65ZM1852.74 1004.37L1727.32 981.838L1750.33 1102.75L1875.76 1125.28L1852.74 1004.37Z" fill="#BFE3DB"/>
<path d="M1889.5 1127.74L1920.06 1133.23L1983.71 1027.89L1969.97 1025.42L1952.14 1054.93L1903.49 1046.19L1897.04 1012.32L1866.48 1006.83L1889.49 1127.74L1889.5 1127.74ZM1916.41 1114.06L1916.36 1113.77L1906.29 1060.88L1944.41 1067.72L1916.41 1114.06Z" fill="#BFE3DB"/>
<path d="M1633.1 1081.69L1650.93 1052.19L1699.58 1060.92L1706.03 1094.79L1736.59 1100.28L1713.57 979.369L1683.01 973.88L1619.36 1079.22L1633.1 1081.69ZM1686.66 993.058L1686.72 993.345L1696.78 1046.24L1658.66 1039.39L1686.66 993.058Z" fill="#BFE3DB"/>
<path d="M1799.98 881.223L1811.46 941.519L1746.76 929.899L1735.29 869.603L1799.98 881.223ZM1824.58 856.37L1699.15 833.842L1722.16 954.752L1847.59 977.279L1824.58 856.37Z" fill="#BFE3DB"/>
<path d="M1861.33 979.747L1891.9 985.236L1955.55 879.892L1941.8 877.424L1923.97 906.929L1875.32 898.191L1868.87 864.325L1838.31 858.836L1861.32 979.746L1861.33 979.747ZM1888.25 966.065L1888.19 965.778L1878.13 912.882L1916.25 919.728L1888.25 966.065Z" fill="#BFE3DB"/>
<path d="M1604.93 933.698L1622.76 904.193L1671.42 912.931L1677.86 946.796L1708.42 952.285L1685.41 831.375L1654.85 825.886L1591.2 931.231L1604.93 933.698ZM1658.5 845.064L1658.55 845.351L1668.62 898.242L1630.5 891.395L1658.5 845.064Z" fill="#BFE3DB"/>
<path d="M1763.33 741.801L1770.83 781.195L1727.08 773.336L1719.58 733.942L1763.33 741.801ZM1796.41 708.377L1670.98 685.85L1694 806.759L1819.43 829.287L1796.41 708.377Z" fill="#BFE3DB"/>
<path d="M1833.16 831.753L1863.72 837.242L1927.38 731.898L1913.63 729.429L1895.8 758.935L1847.15 750.197L1840.7 716.331L1810.14 710.842L1833.15 831.752L1833.16 831.753ZM1860.08 818.071L1860.02 817.783L1849.96 764.887L1888.08 771.734L1860.08 818.071Z" fill="#BFE3DB"/>
<path d="M1576.77 785.704L1594.6 756.199L1643.25 764.937L1649.69 798.802L1680.25 804.291L1657.24 683.381L1626.68 677.892L1563.03 783.237L1576.77 785.704ZM1630.33 697.069L1630.39 697.357L1640.45 750.248L1602.33 743.401L1630.33 697.069Z" fill="#BFE3DB"/>
<path d="M1726.68 602.376L1730.2 620.869L1707.38 616.771L1703.86 598.278L1726.68 602.376ZM1768.24 560.383L1642.81 537.855L1665.83 658.765L1791.25 681.293L1768.24 560.383Z" fill="#BFE3DB"/>
<path d="M1804.99 683.761L1835.55 689.25L1899.2 583.906L1885.46 581.437L1867.63 610.943L1818.98 602.205L1812.53 568.339L1781.97 562.85L1804.98 683.759L1804.99 683.761ZM1831.91 670.079L1831.85 669.791L1821.79 616.895L1859.91 623.742L1831.91 670.079Z" fill="#BFE3DB"/>
<path d="M1548.59 637.71L1566.42 608.204L1615.07 616.942L1621.52 650.808L1652.08 656.297L1629.07 535.387L1598.5 529.898L1534.85 635.242L1548.59 637.71ZM1602.16 549.075L1602.21 549.363L1612.28 602.254L1574.16 595.407L1602.16 549.075Z" fill="#BFE3DB"/>
<path d="M1364.86 491.045L1376.34 551.341L1311.64 539.721L1300.16 479.425L1364.86 491.045ZM1389.45 466.192L1264.03 443.664L1287.04 564.574L1412.47 587.102L1389.45 466.192Z" fill="#BFE3DB"/>
<path d="M1250.28 441.197L1219.72 435.708L1156.07 541.053L1169.81 543.521L1187.65 514.016L1236.3 522.754L1242.74 556.62L1273.31 562.109L1250.29 441.199L1250.28 441.197ZM1223.37 454.881L1223.43 455.168L1233.49 508.064L1195.37 501.218L1223.37 454.881Z" fill="#BFE3DB"/>
<path d="M1506.68 487.249L1488.85 516.754L1440.2 508.016L1433.76 474.151L1403.2 468.662L1426.21 589.572L1456.77 595.061L1520.42 489.716L1506.68 487.249ZM1453.12 575.884L1453.07 575.596L1443 522.705L1481.12 529.552L1453.12 575.884Z" fill="#BFE3DB"/>
<path d="M1384.54 647.609L1392.04 687.004L1348.28 679.145L1340.78 639.75L1384.54 647.609ZM1417.62 614.186L1292.19 591.658L1315.2 712.568L1440.63 735.096L1417.62 614.186Z" fill="#BFE3DB"/>
<path d="M1278.45 589.19L1247.89 583.701L1184.24 689.045L1197.99 691.513L1215.82 662.008L1264.47 670.746L1270.92 704.612L1301.48 710.101L1278.46 589.191L1278.45 589.19ZM1251.54 602.872L1251.59 603.159L1261.66 656.055L1223.54 649.209L1251.54 602.872Z" fill="#BFE3DB"/>
<path d="M1534.85 635.241L1517.02 664.747L1468.37 656.009L1461.93 622.143L1431.37 616.654L1454.38 737.564L1484.94 743.053L1548.59 637.709L1534.85 635.241ZM1481.29 723.876L1481.24 723.588L1471.17 670.697L1509.29 677.544L1481.29 723.876Z" fill="#BFE3DB"/>
<path d="M1404.23 804.173L1407.76 822.666L1384.94 818.568L1381.42 800.075L1404.23 804.173ZM1445.8 762.18L1320.37 739.652L1343.38 860.562L1468.81 883.09L1445.8 762.18Z" fill="#BFE3DB"/>
<path d="M1306.63 737.184L1276.06 731.695L1212.41 837.039L1226.16 839.508L1243.99 810.002L1292.64 818.74L1299.09 852.606L1329.65 858.095L1306.63 737.186L1306.63 737.184ZM1279.71 750.866L1279.77 751.154L1289.83 804.05L1251.71 797.203L1279.71 750.866Z" fill="#BFE3DB"/>
<path d="M1563.02 783.235L1545.19 812.741L1496.54 804.003L1490.1 770.137L1459.54 764.648L1482.55 885.558L1513.11 891.047L1576.76 785.703L1563.02 783.235ZM1509.46 871.87L1509.41 871.583L1499.34 818.691L1537.46 825.538L1509.46 871.87Z" fill="#BFE3DB"/>
<path d="M1473.97 910.173L1362.28 890.113L1348.54 887.645L1371.55 1008.56L1496.98 1031.08L1473.97 910.173Z" fill="#BFE3DB"/>
<path d="M1334.8 885.178L1304.24 879.689L1240.59 985.033L1254.33 987.502L1272.16 957.996L1320.81 966.734L1327.26 1000.6L1357.82 1006.09L1334.81 885.18L1334.8 885.178ZM1307.88 898.86L1307.94 899.148L1318 952.044L1279.88 945.197L1307.88 898.86Z" fill="#BFE3DB"/>
<path d="M1591.2 931.229L1573.37 960.735L1524.72 951.997L1518.27 918.132L1487.71 912.643L1510.72 1033.55L1541.29 1039.04L1604.94 933.697L1591.2 931.229ZM1537.63 1019.86L1537.58 1019.58L1527.51 966.686L1565.63 973.532L1537.63 1019.86Z" fill="#BFE3DB"/>
<path d="M1098.76 988.83L1110.23 1049.13L1045.54 1037.51L1034.06 977.21L1098.76 988.83ZM1123.36 963.977L997.929 941.449L1020.94 1062.36L1146.37 1084.89L1123.36 963.977Z" fill="#BFE3DB"/>
<path d="M984.185 938.983L953.624 933.494L889.974 1038.84L903.717 1041.31L921.547 1011.8L970.198 1020.54L976.647 1054.41L1007.21 1059.89L984.195 938.984L984.185 938.983ZM957.271 952.665L957.325 952.952L967.391 1005.85L929.272 999.002L957.271 952.665Z" fill="#BFE3DB"/>
<path d="M1240.59 985.034L1222.75 1014.54L1174.1 1005.8L1167.66 971.936L1137.1 966.447L1160.11 1087.36L1190.67 1092.85L1254.32 987.502L1240.59 985.034ZM1187.02 1073.67L1186.97 1073.38L1176.9 1020.49L1215.02 1027.34L1187.02 1073.67Z" fill="#BFE3DB"/>
<path d="M1118.44 1145.4L1125.94 1184.79L1082.19 1176.93L1074.69 1137.54L1118.44 1145.4ZM1151.52 1111.98L1026.09 1089.45L1049.11 1210.36L1174.53 1232.88L1151.52 1111.98Z" fill="#BFE3DB"/>
<path d="M1012.35 1086.98L981.79 1081.49L918.14 1186.83L931.883 1189.3L949.714 1159.8L998.364 1168.53L1004.81 1202.4L1035.37 1207.89L1012.36 1086.98L1012.35 1086.98ZM985.437 1100.66L985.491 1100.95L995.557 1153.84L957.438 1147L985.437 1100.66Z" fill="#BFE3DB"/>
<path d="M1268.75 1133.03L1250.92 1162.54L1202.27 1153.8L1195.83 1119.93L1165.27 1114.45L1188.28 1235.36L1218.84 1240.84L1282.49 1135.5L1268.75 1133.03ZM1215.19 1221.67L1215.13 1221.38L1205.07 1168.49L1243.19 1175.33L1215.19 1221.67Z" fill="#BFE3DB"/>
<path d="M1138.14 1301.96L1141.66 1320.45L1118.84 1316.36L1115.32 1297.86L1138.14 1301.96ZM1179.69 1259.97L1054.27 1237.44L1077.28 1358.35L1202.71 1380.88L1179.69 1259.97Z" fill="#BFE3DB"/>
<path d="M1040.52 1234.97L1009.96 1229.48L946.311 1334.83L960.055 1337.3L977.885 1307.79L1026.54 1316.53L1032.98 1350.4L1063.55 1355.88L1040.53 1234.97L1040.52 1234.97ZM1013.61 1248.66L1013.67 1248.94L1023.73 1301.84L985.614 1294.99L1013.61 1248.66Z" fill="#BFE3DB"/>
<path d="M1296.92 1281.02L1279.09 1310.53L1230.44 1301.79L1224 1267.93L1193.44 1262.44L1216.45 1383.35L1247.01 1388.84L1310.66 1283.49L1296.92 1281.02ZM1243.36 1369.66L1243.31 1369.37L1233.24 1316.48L1271.36 1323.33L1243.36 1369.66Z" fill="#BFE3DB"/>
<path d="M1338.83 1431.49L1356.66 1401.98L1405.31 1410.72L1411.76 1444.58L1442.32 1450.07L1419.3 1329.16L1388.74 1323.67L1325.09 1429.02L1338.83 1431.49ZM1392.39 1342.85L1392.45 1343.14L1402.52 1396.03L1364.4 1389.18L1392.39 1342.85Z" fill="#BFE3DB"/>
<path d="M1497.23 1239.59L1504.73 1278.98L1460.97 1271.12L1453.47 1231.73L1497.23 1239.59ZM1530.31 1206.16L1404.88 1183.64L1427.89 1304.55L1553.32 1327.07L1530.31 1206.16Z" fill="#BFE3DB"/>
<path d="M1567.07 1329.54L1597.63 1335.03L1661.28 1229.69L1647.53 1227.22L1629.7 1256.73L1581.05 1247.99L1574.6 1214.12L1544.04 1208.63L1567.06 1329.54L1567.07 1329.54ZM1593.98 1315.86L1593.92 1315.57L1583.86 1262.68L1621.98 1269.53L1593.98 1315.86Z" fill="#BFE3DB"/>
<path d="M1310.67 1283.49L1328.5 1253.99L1377.15 1262.72L1383.59 1296.59L1414.15 1302.08L1391.14 1181.17L1360.58 1175.68L1296.93 1281.02L1310.67 1283.49ZM1364.23 1194.86L1364.28 1195.14L1374.35 1248.04L1336.23 1241.19L1364.23 1194.86Z" fill="#BFE3DB"/>
<path d="M1460.58 1100.17L1464.1 1118.66L1441.29 1114.56L1437.76 1096.07L1460.58 1100.17ZM1502.14 1058.17L1376.71 1035.64L1399.72 1156.55L1525.15 1179.08L1502.14 1058.17Z" fill="#BFE3DB"/>
<path d="M1538.89 1181.55L1569.46 1187.04L1633.11 1081.69L1619.36 1079.23L1601.53 1108.73L1552.88 1099.99L1546.43 1066.13L1515.87 1060.64L1538.88 1181.55L1538.89 1181.55ZM1565.81 1167.87L1565.75 1167.58L1555.69 1114.68L1593.81 1121.53L1565.81 1167.87Z" fill="#BFE3DB"/>
<path d="M1282.49 1135.5L1300.32 1105.99L1348.97 1114.73L1355.42 1148.6L1385.98 1154.09L1362.97 1033.18L1332.41 1027.69L1268.76 1133.03L1282.49 1135.5ZM1336.06 1046.86L1336.11 1047.15L1346.18 1100.04L1308.06 1093.2L1336.06 1046.86Z" fill="#BFE3DB"/>
<path d="M1856.32 1177.21L1867.79 1237.51L1803.1 1225.89L1791.62 1165.59L1856.32 1177.21ZM1880.91 1152.36L1755.48 1129.83L1778.5 1250.74L1903.92 1273.27L1880.91 1152.36Z" fill="#BFE3DB"/>
<path d="M1741.74 1127.37L1711.18 1121.88L1647.53 1227.22L1661.28 1229.69L1679.11 1200.18L1727.76 1208.92L1734.21 1242.79L1764.77 1248.28L1741.75 1127.37L1741.74 1127.37ZM1714.83 1141.05L1714.89 1141.34L1724.95 1194.23L1686.83 1187.38L1714.83 1141.05Z" fill="#BFE3DB"/>
<path d="M1998.14 1173.41L1980.31 1202.92L1931.66 1194.18L1925.22 1160.32L1894.65 1154.83L1917.67 1275.74L1948.23 1281.23L2011.88 1175.88L1998.14 1173.41ZM1944.58 1262.05L1944.52 1261.76L1934.46 1208.87L1972.58 1215.72L1944.58 1262.05Z" fill="#BFE3DB"/>
<path d="M1876 1333.78L1883.5 1373.17L1839.75 1365.31L1832.25 1325.92L1876 1333.78ZM1909.08 1300.35L1783.65 1277.82L1806.66 1398.73L1932.09 1421.26L1909.08 1300.35Z" fill="#BFE3DB"/>
<path d="M1769.91 1275.36L1739.35 1269.87L1675.7 1375.21L1689.44 1377.68L1707.27 1348.17L1755.92 1356.91L1762.37 1390.78L1792.93 1396.27L1769.92 1275.36L1769.91 1275.36ZM1743 1289.04L1743.05 1289.33L1753.12 1342.22L1715 1335.37L1743 1289.04Z" fill="#BFE3DB"/>
<path d="M2026.31 1321.41L2008.48 1350.91L1959.83 1342.17L1953.39 1308.31L1922.83 1302.82L1945.84 1423.73L1976.4 1429.22L2040.05 1323.87L2026.31 1321.41ZM1972.75 1410.04L1972.69 1409.75L1962.63 1356.86L2000.75 1363.71L1972.75 1410.04Z" fill="#BFE3DB"/>
<path d="M155.213 -70.3776L158.735 -51.8846L135.918 -55.9827L132.396 -74.4757L155.213 -70.3776ZM196.775 -112.371L71.3477 -134.898L94.3606 -13.9887L219.788 8.53907L196.775 -112.371Z" fill="#BFE3DB"/>
<path d="M314.004 -91.3155L296.174 -61.8101L247.523 -70.5481L241.08 -104.413L210.519 -109.902L233.532 11.0074L264.093 16.4964L327.743 -88.848L314.004 -91.3155ZM260.442 -2.68088L260.387 -2.96824L250.321 -55.8593L288.44 -49.0127L260.442 -2.68088Z" fill="#BFE3DB"/>
<path d="M224.946 35.6274L113.261 15.5679L99.5181 13.0996L122.531 134.009L247.959 156.537L224.946 35.6274Z" fill="#BFE3DB"/>
<path d="M85.7794 10.633L55.2181 5.14397L-8.43174 110.488L5.3113 112.957L23.1418 83.4514L71.7925 92.1894L78.241 126.055L108.802 131.544L85.7892 10.6348L85.7794 10.633ZM58.8655 24.3155L58.9198 24.6029L68.9855 77.4989L30.8658 70.6523L58.8655 24.3155Z" fill="#BFE3DB"/>
<path d="M342.174 56.6845L324.344 86.1899L275.693 77.4519L269.25 43.5867L238.688 38.0977L261.701 159.007L292.263 164.496L355.913 59.152L342.174 56.6845ZM288.611 145.319L288.557 145.032L278.491 92.1406L316.61 98.9872L288.611 145.319Z" fill="#BFE3DB"/>
<path d="M587.612 146.101L603.066 227.298L517.425 211.916L501.97 130.719L587.612 146.101ZM603.723 129.817L478.295 107.289L501.308 228.199L626.736 250.727L603.723 129.817Z" fill="#BFE3DB"/>
<path d="M640.479 253.195L671.041 258.684L734.69 153.339L720.947 150.871L703.117 180.376L654.466 171.638L648.018 137.772L617.457 132.283L640.469 253.193L640.479 253.195ZM667.393 239.512L667.339 239.225L657.273 186.329L695.393 193.175L667.393 239.512Z" fill="#BFE3DB"/>
<path d="M384.079 207.143L401.909 177.638L450.56 186.376L457.004 220.241L487.565 225.73L464.552 104.821L433.991 99.3315L370.341 204.676L384.079 207.143ZM437.642 118.509L437.696 118.796L447.763 171.687L409.643 164.841L437.642 118.509Z" fill="#BFE3DB"/>
<path d="M550.962 6.6774L562.439 66.9731L497.742 55.3531L486.265 -4.94257L550.962 6.6774ZM575.562 -18.1753L450.134 -40.7031L473.147 80.2067L598.575 102.734L575.562 -18.1753Z" fill="#BFE3DB"/>
<path d="M612.313 105.201L642.874 110.69L706.524 5.34514L692.781 2.87678L674.95 32.3822L626.3 23.6442L619.851 -10.2219L589.29 -15.7109L612.303 105.199L612.313 105.201ZM639.227 91.518L639.172 91.2307L629.107 38.3347L667.226 45.1813L639.227 91.518Z" fill="#BFE3DB"/>
<path d="M355.912 59.1513L373.743 29.6458L422.394 38.3838L428.837 72.2491L459.398 77.7381L436.385 -43.1717L405.824 -48.6607L342.174 56.6838L355.912 59.1513ZM409.476 -29.4834L409.53 -29.196L419.596 23.6951L381.477 16.8485L409.476 -29.4834Z" fill="#BFE3DB"/>
<path d="M607.299 302.663L618.776 362.958L554.08 351.338L542.603 291.043L607.299 302.663ZM631.895 277.809L506.467 255.281L529.48 376.191L654.908 398.719L631.895 277.809Z" fill="#BFE3DB"/>
<path d="M492.728 252.815L462.167 247.326L398.517 352.67L412.26 355.138L430.091 325.633L478.741 334.371L485.19 368.237L515.751 373.726L492.738 252.816L492.728 252.815ZM465.814 266.497L465.869 266.785L475.934 319.681L437.815 312.834L465.814 266.497Z" fill="#BFE3DB"/>
<path d="M749.129 298.866L731.298 328.372L682.647 319.634L676.204 285.768L645.643 280.279L668.655 401.189L699.217 406.678L762.867 301.334L749.129 298.866ZM695.566 387.501L695.511 387.213L685.444 334.322L723.564 341.169L695.566 387.501Z" fill="#BFE3DB"/>
<path d="M626.987 459.228L634.487 498.623L590.73 490.764L583.23 451.369L626.987 459.228ZM660.066 425.805L534.638 403.277L557.651 524.187L683.079 546.715L660.066 425.805Z" fill="#BFE3DB"/>
<path d="M520.895 400.809L490.333 395.32L426.683 500.664L440.426 503.133L458.257 473.627L506.908 482.365L513.356 516.231L543.917 521.72L520.904 400.811L520.895 400.809ZM493.981 414.491L494.035 414.779L504.101 467.675L465.981 460.828L493.981 414.491Z" fill="#BFE3DB"/>
<path d="M777.295 446.858L759.465 476.364L710.814 467.626L704.37 433.761L673.809 428.271L696.822 549.181L727.383 554.67L791.033 449.326L777.295 446.858ZM723.732 535.493L723.678 535.206L713.611 482.315L751.731 489.161L723.732 535.493Z" fill="#BFE3DB"/>
<path d="M646.674 615.796L650.196 634.289L627.378 630.191L623.857 611.698L646.674 615.796ZM688.236 573.803L562.808 551.275L585.821 672.185L711.249 694.713L688.236 573.803Z" fill="#BFE3DB"/>
<path d="M549.066 548.805L518.504 543.316L454.854 648.66L468.597 651.129L486.428 621.623L535.079 630.361L541.527 664.227L572.088 669.716L549.075 548.807L549.066 548.805ZM522.156 562.488L522.211 562.776L532.276 615.672L494.157 608.825L522.156 562.488Z" fill="#BFE3DB"/>
<path d="M805.465 594.856L787.635 624.362L738.984 615.624L732.54 581.759L701.979 576.27L724.992 697.179L755.553 702.668L819.203 597.324L805.465 594.856ZM751.902 683.491L751.847 683.204L741.781 630.313L779.901 637.159L751.902 683.491Z" fill="#BFE3DB"/>
<path d="M716.407 721.795L604.722 701.736L590.979 699.268L613.992 820.177L739.42 842.705L716.407 721.795Z" fill="#BFE3DB"/>
<path d="M577.242 696.799L546.681 691.31L483.031 796.654L496.774 799.123L514.605 769.617L563.255 778.355L569.704 812.221L600.265 817.71L577.252 696.801L577.242 696.799ZM550.328 710.482L550.383 710.769L560.448 763.665L522.329 756.818L550.328 710.482Z" fill="#BFE3DB"/>
<path d="M833.637 742.851L815.806 772.356L767.156 763.618L760.712 729.753L730.151 724.264L753.164 845.173L783.725 850.662L847.375 745.318L833.637 742.851ZM780.074 831.485L780.019 831.198L769.953 778.307L808.073 785.153L780.074 831.485Z" fill="#BFE3DB"/>
<path d="M321.513 643.891L336.968 725.088L251.327 709.706L235.872 628.509L321.513 643.891ZM337.63 627.608L212.202 605.08L235.215 725.99L360.643 748.518L337.63 627.608Z" fill="#BFE3DB"/>
<path d="M374.386 750.986L404.947 756.475L468.597 651.13L454.854 648.662L437.024 678.167L388.373 669.429L381.925 635.563L351.363 630.074L374.376 750.984L374.386 750.986ZM401.295 737.302L401.241 737.015L391.175 684.119L429.295 690.966L401.295 737.302Z" fill="#BFE3DB"/>
<path d="M117.986 704.934L135.816 675.429L184.467 684.167L190.911 718.032L221.472 723.521L198.459 602.612L167.898 597.122L104.248 702.467L117.986 704.934ZM171.549 616.3L171.603 616.587L181.67 669.478L143.55 662.632L171.549 616.3Z" fill="#BFE3DB"/>
<path d="M284.869 504.463L296.346 564.759L231.649 553.139L220.172 492.843L284.869 504.463ZM309.464 479.61L184.036 457.082L207.049 577.992L332.477 600.52L309.464 479.61Z" fill="#BFE3DB"/>
<path d="M346.221 602.988L376.782 608.477L440.432 503.132L426.689 500.664L408.858 530.169L360.208 521.431L353.759 487.565L323.198 482.076L346.211 602.986L346.221 602.988ZM373.13 589.304L373.075 589.017L363.01 536.121L401.129 542.968L373.13 589.304Z" fill="#BFE3DB"/>
<path d="M89.8205 556.936L107.651 527.431L156.302 536.169L162.745 570.034L193.307 575.523L170.294 454.613L139.732 449.124L76.0824 554.469L89.8205 556.936ZM143.384 468.302L143.438 468.589L153.505 521.48L115.385 514.634L143.384 468.302Z" fill="#BFE3DB"/>
<path d="M248.219 365.039L255.719 404.433L211.962 396.574L204.462 357.18L248.219 365.039ZM281.298 331.616L155.87 309.088L178.883 429.998L304.311 452.525L281.298 331.616Z" fill="#BFE3DB"/>
<path d="M318.049 454.996L348.61 460.485L412.26 355.14L398.517 352.672L380.687 382.177L332.036 373.439L325.588 339.573L295.026 334.084L318.039 454.994L318.049 454.996ZM344.963 441.313L344.909 441.026L334.843 388.13L372.963 394.976L344.963 441.313Z" fill="#BFE3DB"/>
<path d="M61.6491 408.944L79.4796 379.439L128.13 388.177L134.574 422.042L165.135 427.531L142.122 306.621L111.561 301.132L47.911 406.477L61.6491 408.944ZM115.212 320.31L115.267 320.597L125.333 373.488L87.2134 366.641L115.212 320.31Z" fill="#BFE3DB"/>
<path d="M211.565 225.616L215.087 244.109L192.27 240.01L188.748 221.517L211.565 225.616ZM253.122 183.622L127.694 161.094L150.707 282.004L276.135 304.531L253.122 183.622Z" fill="#BFE3DB"/>
<path d="M289.878 306.999L320.439 312.488L384.089 207.144L370.346 204.676L352.515 234.181L303.865 225.443L297.416 191.577L266.855 186.088L289.868 306.998L289.878 306.999ZM316.792 293.317L316.737 293.03L306.672 240.134L344.791 246.98L316.792 293.317Z" fill="#BFE3DB"/>
<path d="M33.4777 260.95L51.3082 231.445L99.9589 240.183L106.402 274.048L136.964 279.537L113.951 158.627L83.3895 153.138L19.7396 258.483L33.4777 260.95ZM87.0408 172.315L87.0952 172.603L97.1618 225.494L59.042 218.647L87.0408 172.315Z" fill="#BFE3DB"/>
<path d="M-8.43156 110.487L-26.262 139.993L-74.9127 131.255L-81.3562 97.3894L-111.917 91.9004L-88.9045 212.81L-58.3432 218.299L5.30665 112.955L-8.43156 110.487ZM-61.9946 199.122L-62.0489 198.835L-72.1155 145.943L-33.9958 152.79L-61.9946 199.122Z" fill="#BFE3DB"/>
<path d="M19.7345 258.481L1.90405 287.987L-46.7466 279.249L-53.1902 245.384L-83.7515 239.895L-60.7385 360.804L-30.1772 366.293L33.4726 260.949L19.7345 258.481ZM-33.8286 347.116L-33.8829 346.829L-43.9495 293.938L-5.82979 300.784L-33.8286 347.116Z" fill="#BFE3DB"/>
<path d="M47.9108 406.476L30.0803 435.981L-18.5704 427.243L-25.014 393.378L-55.5752 387.889L-32.5622 508.798L-2.00095 514.287L61.6489 408.943L47.9108 406.476ZM-5.65231 495.11L-5.70666 494.823L-15.7732 441.932L22.3465 448.778L-5.65231 495.11Z" fill="#BFE3DB"/>
<path d="M-41.1468 533.413L-152.837 513.353L-166.58 510.885L-143.562 631.795L-18.1339 654.323L-41.1468 533.413Z" fill="#BFE3DB"/>
<path d="M76.0827 554.468L58.2523 583.973L9.60158 575.235L3.15797 541.37L-27.4033 535.881L-4.3903 656.791L26.171 662.28L89.8208 556.935L76.0827 554.468ZM22.5196 643.102L22.4653 642.815L12.3987 589.924L50.5184 596.77L22.5196 643.102Z" fill="#BFE3DB"/>
<path d="M55.4163 1141.67L70.8709 1222.87L-14.7702 1207.49L-30.2248 1126.29L55.4163 1141.67ZM71.528 1125.39L-53.8999 1102.86L-30.8869 1223.77L94.5411 1246.3L71.528 1125.39Z" fill="#BFE3DB"/>
<path d="M108.284 1248.77L138.845 1254.26L202.495 1148.91L188.752 1146.45L170.922 1175.95L122.271 1167.21L115.823 1133.35L85.2612 1127.86L108.274 1248.77L108.284 1248.77ZM135.198 1235.09L135.144 1234.8L125.078 1181.9L163.198 1188.75L135.198 1235.09Z" fill="#BFE3DB"/>
<path d="M18.7663 1002.25L30.2433 1062.55L-34.4532 1050.93L-45.9302 990.631L18.7663 1002.25ZM43.3615 977.397L-82.0664 954.869L-59.0534 1075.78L66.3746 1098.31L43.3615 977.397Z" fill="#BFE3DB"/>
<path d="M80.1179 1100.77L110.679 1106.26L174.329 1000.92L160.586 998.451L142.756 1027.96L94.1049 1019.22L87.6565 985.352L57.0952 979.863L80.1081 1100.77L80.1179 1100.77ZM107.032 1087.09L106.978 1086.8L96.9118 1033.91L135.032 1040.76L107.032 1087.09Z" fill="#BFE3DB"/>
<path d="M-17.8838 862.83L-10.3843 902.224L-54.1411 894.365L-61.6405 854.971L-17.8838 862.83ZM15.195 829.407L-110.233 806.879L-87.2199 927.789L38.2079 950.316L15.195 829.407Z" fill="#BFE3DB"/>
<path d="M51.9509 952.785L82.5122 958.274L146.162 852.929L132.419 850.461L114.589 879.966L65.9379 871.228L59.4895 837.362L28.9282 831.873L51.9411 952.783L51.9509 952.785ZM78.8649 939.102L78.8105 938.815L68.7448 885.919L106.865 892.765L78.8649 939.102Z" fill="#BFE3DB"/>
<path d="M-54.5382 723.404L-51.0164 741.897L-73.8334 737.799L-77.3553 719.306L-54.5382 723.404ZM-12.9759 681.411L-138.404 658.883L-115.391 779.793L10.037 802.32L-12.9759 681.411Z" fill="#BFE3DB"/>
<path d="M23.78 804.788L54.3413 810.277L117.991 704.933L104.248 702.465L86.4177 731.97L37.767 723.232L31.3186 689.366L0.757324 683.877L23.7702 804.787L23.78 804.788ZM50.6891 791.105L50.6347 790.818L40.569 737.922L78.6887 744.768L50.6891 791.105Z" fill="#BFE3DB"/>
<path d="M341.201 800.452L352.678 860.747L287.982 849.127L276.505 788.832L341.201 800.452ZM365.797 775.598L240.369 753.07L263.382 873.98L388.809 896.508L365.797 775.598Z" fill="#BFE3DB"/>
<path d="M226.626 750.604L196.064 745.115L132.414 850.459L146.158 852.928L163.988 823.422L212.639 832.16L219.087 866.026L249.648 871.515L226.635 750.605L226.626 750.604ZM199.716 764.287L199.771 764.574L209.837 817.47L171.717 810.624L199.716 764.287Z" fill="#BFE3DB"/>
<path d="M483.025 796.655L465.195 826.161L416.544 817.423L410.1 783.557L379.539 778.068L402.552 898.978L433.113 904.467L496.763 799.123L483.025 796.655ZM429.462 885.29L429.408 885.003L419.341 832.111L457.461 838.958L429.462 885.29Z" fill="#BFE3DB"/>
<path d="M360.884 957.016L368.384 996.41L324.627 988.551L317.127 949.157L360.884 957.016ZM393.963 923.592L268.535 901.064L291.548 1021.97L416.976 1044.5L393.963 923.592Z" fill="#BFE3DB"/>
<path d="M254.797 898.598L224.236 893.109L160.586 998.453L174.329 1000.92L192.159 971.416L240.81 980.154L247.258 1014.02L277.82 1019.51L254.807 898.6L254.797 898.598ZM227.883 912.28L227.937 912.568L238.003 965.464L199.883 958.617L227.883 912.28Z" fill="#BFE3DB"/>
<path d="M511.196 944.649L493.366 974.155L444.715 965.417L438.272 931.552L407.71 926.062L430.723 1046.97L461.285 1052.46L524.935 947.117L511.196 944.649ZM457.633 1033.28L457.579 1033L447.512 980.106L485.632 986.952L457.633 1033.28Z" fill="#BFE3DB"/>
<path d="M380.577 1113.58L384.099 1132.07L361.282 1127.97L357.76 1109.48L380.577 1113.58ZM422.139 1071.59L296.711 1049.06L319.724 1169.97L445.152 1192.5L422.139 1071.59Z" fill="#BFE3DB"/>
<path d="M282.968 1046.59L252.407 1041.1L188.757 1146.45L202.5 1148.91L220.33 1119.41L268.981 1128.15L275.429 1162.01L305.991 1167.5L282.978 1046.59L282.968 1046.59ZM256.054 1060.27L256.108 1060.56L266.174 1113.46L228.054 1106.61L256.054 1060.27Z" fill="#BFE3DB"/>
<path d="M539.368 1092.64L521.537 1122.15L472.887 1113.41L466.443 1079.54L435.882 1074.05L458.895 1194.96L489.456 1200.45L553.106 1095.11L539.368 1092.64ZM485.805 1181.28L485.75 1180.99L475.684 1128.1L513.804 1134.94L485.805 1181.28Z" fill="#BFE3DB"/>
<path d="M450.31 1219.59L338.62 1199.53L324.877 1197.06L347.895 1317.97L473.323 1340.5L450.31 1219.59Z" fill="#BFE3DB"/>
<path d="M311.138 1194.59L280.577 1189.1L216.927 1294.45L230.67 1296.91L248.501 1267.41L297.151 1276.15L303.6 1310.01L334.161 1315.5L311.148 1194.59L311.138 1194.59ZM284.224 1208.27L284.279 1208.56L294.344 1261.46L256.225 1254.61L284.224 1208.27Z" fill="#BFE3DB"/>
<path d="M567.539 1240.64L549.708 1270.14L501.058 1261.41L494.614 1227.54L464.053 1222.05L487.066 1342.96L517.627 1348.45L581.277 1243.11L567.539 1240.64ZM513.976 1329.27L513.921 1328.99L503.855 1276.1L541.974 1282.94L513.976 1329.27Z" fill="#BFE3DB"/>
<path d="M812.97 1330.06L828.425 1411.25L742.784 1395.87L727.329 1314.68L812.97 1330.06ZM829.087 1313.77L703.659 1291.25L726.672 1412.16L852.1 1434.68L829.087 1313.77Z" fill="#BFE3DB"/>
<path d="M865.843 1437.15L896.404 1442.64L960.054 1337.3L946.311 1334.83L928.481 1364.33L879.83 1355.6L873.381 1321.73L842.82 1316.24L865.833 1437.15L865.843 1437.15ZM892.752 1423.47L892.698 1423.18L882.632 1370.29L920.752 1377.13L892.752 1423.47Z" fill="#BFE3DB"/>
<path d="M609.443 1391.1L627.274 1361.6L675.924 1370.33L682.368 1404.2L712.929 1409.69L689.916 1288.78L659.355 1283.29L595.705 1388.63L609.443 1391.1ZM663.006 1302.47L663.061 1302.75L673.127 1355.64L635.007 1348.8L663.006 1302.47Z" fill="#BFE3DB"/>
<path d="M776.325 1190.64L787.802 1250.93L723.106 1239.31L711.629 1179.02L776.325 1190.64ZM800.921 1165.78L675.493 1143.25L698.506 1264.16L823.933 1286.69L800.921 1165.78Z" fill="#BFE3DB"/>
<path d="M837.677 1289.16L868.238 1294.65L931.888 1189.3L918.145 1186.84L900.315 1216.34L851.664 1207.6L845.216 1173.74L814.654 1168.25L837.667 1289.16L837.677 1289.16ZM864.591 1275.48L864.537 1275.19L854.471 1222.29L892.591 1229.14L864.591 1275.48Z" fill="#BFE3DB"/>
<path d="M581.277 1243.11L599.107 1213.6L647.758 1222.34L654.201 1256.21L684.763 1261.7L661.75 1140.79L631.188 1135.3L567.538 1240.64L581.277 1243.11ZM634.84 1154.47L634.894 1154.76L644.961 1207.65L606.841 1200.81L634.84 1154.47Z" fill="#BFE3DB"/>
<path d="M739.677 1051.21L747.176 1090.6L703.419 1082.74L695.92 1043.35L739.677 1051.21ZM772.755 1017.78L647.328 995.256L670.341 1116.17L795.768 1138.69L772.755 1017.78Z" fill="#BFE3DB"/>
<path d="M809.506 1141.16L840.067 1146.65L903.717 1041.31L889.974 1038.84L872.144 1068.34L823.493 1059.61L817.045 1025.74L786.483 1020.25L809.496 1141.16L809.506 1141.16ZM836.42 1127.48L836.366 1127.19L826.3 1074.3L864.42 1081.14L836.42 1127.48Z" fill="#BFE3DB"/>
<path d="M553.111 1095.11L570.941 1065.6L619.592 1074.34L626.036 1108.21L656.597 1113.7L633.584 992.787L603.023 987.298L539.373 1092.64L553.111 1095.11ZM606.674 1006.48L606.728 1006.76L616.795 1059.65L578.675 1052.81L606.674 1006.48Z" fill="#BFE3DB"/>
<path d="M703.021 911.783L706.543 930.276L683.726 926.177L680.204 907.685L703.021 911.783ZM744.584 869.789L619.156 847.262L642.169 968.171L767.597 990.699L744.584 869.789Z" fill="#BFE3DB"/>
<path d="M781.335 993.167L811.896 998.656L875.546 893.312L861.803 890.844L843.973 920.349L795.322 911.611L788.874 877.745L758.312 872.256L781.326 993.166L781.335 993.167ZM808.249 979.485L808.195 979.197L798.129 926.301L836.249 933.148L808.249 979.485Z" fill="#BFE3DB"/>
<path d="M524.935 947.116L542.765 917.611L591.416 926.349L597.86 960.214L628.421 965.703L605.408 844.793L574.846 839.304L511.197 944.649L524.935 947.116ZM578.498 858.481L578.552 858.769L588.619 911.66L550.499 904.813L578.498 858.481Z" fill="#BFE3DB"/>
<path d="M258.842 1444.91L276.672 1415.4L325.323 1424.14L331.767 1458L362.328 1463.49L339.315 1342.58L308.754 1337.1L245.104 1442.44L258.842 1444.91ZM312.405 1356.27L312.459 1356.56L322.526 1409.45L284.406 1402.6L312.405 1356.27Z" fill="#BFE3DB"/>
<path d="M75.1032 1298.24L86.5802 1358.54L21.8837 1346.92L10.4067 1286.62L75.1032 1298.24ZM99.6984 1273.39L-25.7295 1250.86L-2.71649 1371.77L122.711 1394.3L99.6984 1273.39Z" fill="#BFE3DB"/>
<path d="M-39.4676 1248.39L-70.0289 1242.9L-133.679 1348.25L-119.936 1350.72L-102.105 1321.21L-53.4546 1329.95L-47.0062 1363.82L-16.4449 1369.3L-39.4578 1248.39L-39.4676 1248.39ZM-66.3815 1262.08L-66.3272 1262.36L-56.2615 1315.26L-94.3812 1308.41L-66.3815 1262.08Z" fill="#BFE3DB"/>
<path d="M216.933 1294.45L199.102 1323.95L150.452 1315.21L144.008 1281.35L113.447 1275.86L136.46 1396.77L167.021 1402.26L230.671 1296.91L216.933 1294.45ZM163.37 1383.08L163.315 1382.79L153.249 1329.9L191.368 1336.75L163.37 1383.08Z" fill="#BFE3DB"/>
</g>
</g>
<defs>
<clipPath id="clip0_124_30737">
<rect width="2000" height="1330" fill="white"/>
</clipPath>
<clipPath id="clip1_124_30737">
<rect width="4327.47" height="2571.85" fill="white" transform="translate(-858.352 -783) rotate(10.1822)"/>
</clipPath>
</defs>
</svg>
