<svg width="2000" height="1572" viewBox="0 0 2000 1572" fill="none" xmlns="http://www.w3.org/2000/svg">
<rect width="2000" height="1572" fill="#EFEDDE"/>
<path d="M1271.8 1238.34C1251.07 1271.56 1235.24 1289.45 1224.71 1291.47C1222.99 1291.82 1221.58 1291.67 1220.54 1291.03C1219.5 1290.41 1218.81 1289.28 1218.51 1287.72C1217.45 1282.46 1220.47 1273.02 1227.48 1259.71C1238.25 1252.64 1265.23 1229.89 1263.25 1219.69C1262.88 1217.83 1261.4 1216.06 1258.34 1216.67C1252.75 1217.76 1245 1226.09 1239.49 1232.85C1233.21 1240.59 1226.47 1250.49 1221.9 1258.67C1221.73 1258.97 1221.55 1259.29 1221.43 1259.53C1199.22 1293.25 1188.99 1298.42 1185.61 1299.08C1184.42 1299.31 1183.41 1299.16 1182.67 1298.66C1182 1298.22 1181.56 1297.48 1181.39 1296.56C1180.3 1291.01 1186.65 1278.06 1193.69 1264.89L1227.95 1200.69L1254.23 1195.58L1253.79 1193.26L1229.38 1198L1236.94 1183.84L1230.42 1185.1L1193.71 1253.9C1168.42 1294.86 1156.58 1304.74 1151.1 1305.8C1148.6 1306.27 1147.91 1304.74 1147.72 1303.78C1146.68 1298.42 1152.56 1287.4 1162.34 1269.12L1182.32 1231.87L1175.75 1233.15L1165.48 1252.49C1167.11 1247.48 1167.65 1243.62 1167.11 1240.78C1166.74 1238.81 1165.9 1237.37 1164.64 1236.54C1163.4 1235.7 1161.8 1235.47 1159.84 1235.84C1148.31 1238.09 1129.21 1261.71 1120.62 1277.62C1103.99 1303.16 1091.52 1317.39 1084.55 1318.75C1083.49 1318.94 1082.65 1318.85 1082.03 1318.43C1081.34 1317.96 1081.07 1317.19 1080.94 1316.62C1080.03 1311.98 1084.99 1302.76 1094.85 1284.41L1116.1 1244.76L1109.48 1246.05L1093.37 1276.33C1085.22 1289.05 1063.55 1322.85 1049.1 1325.66C1047.45 1325.98 1046.01 1325.79 1044.93 1325.09C1043.79 1324.35 1043.02 1323.09 1042.7 1321.34C1041.57 1315.78 1045.4 1304.3 1053.2 1289.82C1068.59 1261.34 1078.35 1254.07 1083.83 1253.01C1085.12 1252.76 1086.13 1252.89 1086.9 1253.41C1087.74 1253.98 1088.13 1254.96 1088.31 1255.75C1084.53 1257.06 1082.35 1259.51 1082.82 1261.95C1083.14 1263.63 1084.55 1264.57 1086.23 1264.25C1089.1 1263.68 1091.57 1260.05 1090.7 1255.56C1090.45 1254.27 1089.84 1252.52 1088.28 1251.46C1087.02 1250.62 1085.41 1250.37 1083.46 1250.76C1071.58 1253.06 1052.44 1279.47 1046.85 1290.21C1046.48 1290.93 1046.14 1291.62 1045.84 1292.26C1028.97 1317.83 1015.21 1332.28 1006.02 1334.06C1004.29 1334.41 1002.88 1334.26 1001.84 1333.62C1000.81 1333 1000.12 1331.89 999.819 1330.31C998.757 1325.05 1001.77 1315.61 1008.79 1302.29C1019.56 1295.23 1046.53 1272.5 1044.56 1262.28C1044.38 1261.39 1043.49 1258.52 1039.64 1259.26C1031.14 1260.92 1012.57 1286.24 1012.57 1286.24L1011.45 1288.02C1008.93 1291.72 1006.54 1295.5 1004.54 1298.91C982.923 1332.36 972.868 1340.46 968.249 1341.35C967.286 1341.55 966.421 1341.37 965.754 1340.88C965.136 1340.44 964.692 1339.69 964.519 1338.83C963.555 1333.84 969.287 1323.34 975.363 1312.22L975.462 1312.05C976.426 1310.27 977.414 1308.47 978.402 1306.64L985.368 1293.67C990.161 1284.85 990.729 1281.37 990.086 1278.38C989.518 1275.29 987.567 1274.06 985.837 1272.97C984.182 1271.93 982.626 1270.95 982.132 1268.48C981.836 1266.65 982.923 1263.86 984.084 1262.03L984.775 1260.92L978.451 1262.15L978.328 1262.37C977.809 1263.26 976.574 1265.36 977.093 1267.96C977.389 1269.49 978.13 1270.67 979.39 1271.61C974.425 1280.65 964.494 1297.7 957.207 1310L957.083 1310.22C956.984 1310.4 956.861 1310.59 956.737 1310.82L956.441 1311.31C956.367 1311.43 956.293 1311.56 956.194 1311.71L956.07 1311.9C950.858 1320.8 934.974 1347.87 925.908 1349.62C923.957 1350 922.746 1349.25 922.4 1347.48C921.635 1343.6 926.155 1335.69 931.911 1325.61C933.912 1322.11 935.987 1318.47 938.062 1314.6L938.309 1314.15C948.215 1296.22 951.92 1289.5 950.586 1282.7C949.845 1278.93 947.474 1277.15 944.09 1277.81C933.591 1279.86 915.829 1304.86 905.084 1321.44L937.939 1259.68L931.466 1260.94L905.701 1309.38L905.553 1309.61C884.58 1342.86 869.956 1360.49 862.076 1362.03C860.94 1362.25 860.05 1362.15 859.408 1361.75C858.815 1361.38 858.445 1360.74 858.272 1359.85C857.506 1355.92 862.051 1347.95 867.782 1337.82C869.709 1334.41 871.71 1330.88 873.76 1327.12L874.576 1325.66C884.16 1308.35 887.742 1301.87 886.433 1295.16C886.087 1293.38 884.778 1289.37 879.936 1290.31C869.437 1292.36 851.676 1317.36 840.93 1333.91L873.785 1272.16L867.313 1273.42L841.474 1321.98C820.946 1355.21 806.494 1372.85 798.54 1374.4C796.045 1374.87 795.353 1373.34 795.156 1372.38C794.118 1367.02 800.343 1355.36 809.78 1337.72L829.764 1300.47L823.193 1301.75L812.917 1321.09C814.547 1316.1 815.066 1312.22 814.523 1309.38C814.202 1307.7 813.559 1306.42 812.621 1305.55C811.336 1304.37 809.557 1304 807.31 1304.44C798.54 1306.15 785.176 1320.43 775.813 1333.79C762.745 1350.61 743.131 1372.35 727.247 1382.83L723.443 1385.3V1386.78L727.964 1383.94C744.243 1374.28 758.422 1358.72 767.538 1347.23C762.35 1357.13 760.176 1366.89 761.56 1374.03C762.77 1380.23 765.957 1383.15 770.527 1382.26C778.629 1380.68 787.918 1368.03 794.118 1358.07C792.191 1363.24 791.302 1367.71 792.043 1371.56C792.216 1372.4 792.636 1373.96 793.698 1375.19C794.958 1376.63 796.737 1377.17 798.861 1376.75C807.729 1375.02 820.674 1357.75 830.259 1343.08L772.478 1451.67L778.951 1450.41L831.049 1352.52C831.494 1351.85 832.111 1350.91 832.877 1349.7C856.345 1313.44 872.204 1294.27 880.06 1292.76C881.023 1292.56 881.814 1292.66 882.382 1292.98C882.925 1293.3 883.271 1293.87 883.419 1294.66C884.111 1298.19 879.59 1306.02 873.884 1315.95C871.834 1319.51 869.511 1323.54 867.214 1327.76C858.222 1344.44 853.949 1352.74 855.258 1359.33L855.455 1360.32C855.455 1360.32 856.617 1362.79 857.802 1363.63C859.037 1364.5 860.569 1364.74 862.348 1364.4C871.611 1362.59 885.395 1344.09 895.351 1328.83L836.632 1439.2L843.104 1437.94L895.203 1340.02C895.647 1339.35 896.24 1338.41 897.031 1337.2C920.498 1300.94 936.358 1281.77 944.213 1280.26C945.176 1280.06 945.967 1280.14 946.535 1280.48C947.079 1280.8 947.424 1281.37 947.573 1282.16C948.264 1285.69 943.744 1293.65 937.988 1303.68C936.012 1307.16 933.739 1311.11 931.516 1315.21L931.071 1316.03C922.993 1331.05 918.102 1340.11 919.387 1346.73C919.535 1347.67 920.103 1349.97 921.931 1351.23C923.067 1352.02 924.475 1352.27 926.106 1351.95C936.259 1349.97 951.081 1324.87 957.404 1314.18L957.454 1314.1C958.294 1312.67 958.985 1311.53 959.479 1310.69L959.603 1310.47C959.603 1310.47 959.603 1310.45 959.628 1310.42L960.27 1309.38H960.221C967.261 1297.48 976.549 1281.02 980.773 1272.53C981.243 1272.77 981.712 1273 982.157 1273.22C984.108 1274.13 985.788 1274.92 986.208 1277.05C986.653 1279.27 985.665 1282.06 979.118 1294.22L972.078 1307.31C963.63 1322.92 960.072 1331.05 961.332 1337.87L961.431 1338.34C961.653 1339.25 962.172 1340.76 963.234 1341.99C964.297 1343.2 965.68 1343.84 967.286 1343.84C967.706 1343.84 968.126 1343.8 968.57 1343.72C976.549 1342.16 988.802 1326.16 998.658 1311.29C996.484 1317.54 995.645 1323.49 996.312 1327.94H996.287L996.41 1328.6C997.596 1334.63 1001.08 1337.4 1006.27 1336.41C1017.51 1334.24 1031.44 1316.94 1042.06 1301.21C1039.57 1308.35 1038.68 1314.65 1039.49 1319.66L1039.62 1320.33C1040.78 1326.31 1044.26 1329.05 1049.4 1328.03C1060.07 1325.96 1073.21 1310.08 1084.11 1293.92C1079.71 1302.66 1076.79 1310.22 1077.91 1315.93C1078.05 1316.72 1078.47 1318.23 1079.51 1319.46C1080.8 1320.99 1082.62 1321.59 1084.82 1321.14C1093.49 1319.46 1106.09 1303.13 1116.05 1288.07C1113.87 1294.59 1113.18 1300.61 1114.1 1305.43V1305.51C1115.31 1311.71 1118.49 1314.62 1123.09 1313.73C1131.19 1312.15 1140.48 1299.5 1146.68 1289.52C1144.75 1294.71 1143.86 1299.16 1144.6 1303.01C1144.9 1304.49 1146.23 1309.21 1151.42 1308.2C1160.61 1306.42 1174.25 1287.79 1183.81 1273C1179.06 1283.22 1177.24 1290.76 1178.22 1295.92L1178.3 1296.19C1178.54 1297.3 1179.26 1299.48 1181.11 1300.71C1182.42 1301.6 1184.05 1301.85 1185.96 1301.48C1195.15 1299.7 1208.53 1282.11 1217.23 1269.27C1215.18 1275.37 1214.39 1281.05 1215.06 1285.4L1215.18 1286.06C1216.37 1292.09 1219.85 1294.86 1225.04 1293.87C1244.48 1290.09 1272.27 1240.34 1273.45 1238.21L1276.37 1232.95V1231.13L1271.82 1238.41L1271.8 1238.34ZM1258.73 1218.97C1258.95 1218.92 1259.18 1218.9 1259.37 1218.9C1260.19 1218.9 1260.66 1219.29 1260.83 1220.11C1260.95 1220.75 1260.95 1222.23 1259.55 1224.8C1253.05 1236.76 1238.03 1249.06 1229.98 1255.66C1229.8 1255.8 1229.61 1255.95 1229.43 1256.1C1241.64 1233.72 1252.28 1220.21 1258.73 1218.95V1218.97ZM1039.99 1261.48C1040.21 1261.44 1040.43 1261.41 1040.63 1261.41C1040.97 1261.41 1041.27 1261.48 1041.49 1261.63C1041.79 1261.83 1041.99 1262.18 1042.06 1262.62C1042.18 1263.26 1042.18 1264.72 1040.78 1267.31C1034.28 1279.25 1019.29 1291.55 1011.21 1298.17C1011.03 1298.32 1010.84 1298.47 1010.66 1298.61C1022.69 1276.55 1033.61 1262.7 1039.96 1261.46L1039.99 1261.48ZM770.082 1379.84C766.649 1380.5 765.413 1378.01 764.993 1375.81C763.808 1369.76 767.315 1359.01 775.418 1343.89C792.908 1310.99 805.259 1307.09 807.532 1306.64C807.952 1306.57 808.347 1306.52 808.718 1306.52C810.546 1306.52 811.657 1307.56 812.052 1309.66C813.411 1316.67 808.224 1329.54 803.357 1338.43L803.159 1338.83C788.881 1364.55 777.765 1378.35 770.058 1379.84H770.082ZM1122.67 1311.31C1121.36 1311.56 1120.25 1311.36 1119.41 1310.72C1118.52 1310.03 1117.9 1308.89 1117.58 1307.28C1116.39 1301.23 1119.9 1290.49 1128 1275.37C1145.49 1242.46 1157.84 1238.56 1160.12 1238.12C1160.54 1238.04 1160.93 1237.99 1161.3 1237.99C1163.13 1237.99 1164.24 1239.03 1164.64 1241.13C1166 1248.15 1160.81 1261.02 1155.94 1269.91L1155.77 1270.23C1141.49 1295.99 1130.35 1309.8 1122.64 1311.29L1122.67 1311.31Z" fill="black"/>
<path d="M1119.75 1223.05C1119.95 1224.04 1120.52 1224.9 1121.38 1225.47C1122.05 1225.92 1122.79 1226.14 1123.58 1226.14C1123.83 1226.14 1124.08 1226.14 1124.35 1226.06C1125.38 1225.87 1126.27 1225.27 1126.84 1224.41C1127.41 1223.54 1127.63 1222.53 1127.43 1221.54C1127.01 1219.44 1124.96 1218.06 1122.86 1218.46C1121.85 1218.65 1120.96 1219.25 1120.37 1220.11C1119.78 1220.98 1119.58 1222.01 1119.78 1223.05H1119.75Z" fill="black"/>
<path d="M1271.45 1026.33C1250.78 1059.46 1235.04 1077.27 1224.64 1079.29C1223.01 1079.61 1221.7 1079.49 1220.76 1078.9C1219.82 1078.33 1219.21 1077.32 1218.91 1075.83C1217.87 1070.67 1220.86 1061.36 1227.78 1048.19C1238.89 1040.88 1265.67 1018.28 1263.62 1007.83C1263.25 1005.88 1261.6 1003.83 1258.24 1004.49C1252.53 1005.6 1244.7 1013.98 1239.14 1020.82C1232.84 1028.58 1226.07 1038.48 1221.5 1046.71C1221.33 1047.01 1221.16 1047.33 1221.06 1047.55C1198.92 1081.15 1188.82 1086.26 1185.51 1086.93C1184.45 1087.12 1183.53 1087.03 1182.87 1086.58C1182.3 1086.19 1181.9 1085.57 1181.76 1084.75C1180.69 1079.32 1187.02 1066.45 1194.01 1053.36L1228.17 989.3L1254.65 984.162L1254.04 981.025L1230.08 985.694L1237.63 971.539L1230.1 972.997L1193.32 1041.94C1168.1 1082.78 1156.36 1092.61 1150.98 1093.65C1149.32 1093.97 1148.36 1093.4 1148.09 1091.94C1147.07 1086.73 1152.93 1075.74 1162.66 1057.55L1183.04 1019.54L1175.46 1021.02L1166.91 1037.1C1167.7 1033.79 1167.9 1031.1 1167.48 1028.92C1167.08 1026.85 1166.19 1025.32 1164.83 1024.4C1163.5 1023.51 1161.8 1023.24 1159.75 1023.66C1148.09 1025.93 1128.87 1049.65 1120.27 1065.61C1099.35 1097.77 1089.24 1105.63 1084.48 1106.54C1083.54 1106.71 1082.8 1106.64 1082.25 1106.27C1081.66 1105.87 1081.44 1105.21 1081.34 1104.71C1080.47 1100.22 1085.39 1091.05 1095.2 1072.75L1116.86 1032.36L1109.23 1033.84L1093.05 1064.25C1084.92 1076.92 1063.33 1110.62 1049.03 1113.41C1047.47 1113.7 1046.14 1113.53 1045.15 1112.89C1044.11 1112.22 1043.42 1111.04 1043.1 1109.41C1041.99 1103.95 1045.82 1092.56 1053.55 1078.16C1068.86 1049.8 1078.5 1042.61 1083.91 1041.55C1085.07 1041.32 1086.01 1041.42 1086.65 1041.87C1087.29 1042.29 1087.61 1043 1087.81 1043.62C1084.03 1045.05 1081.91 1047.57 1082.4 1050.14C1082.77 1052.05 1084.38 1053.13 1086.28 1052.76C1089.34 1052.17 1091.99 1048.34 1091.07 1043.6C1090.8 1042.24 1090.16 1040.36 1088.48 1039.25C1087.14 1038.34 1085.41 1038.09 1083.36 1038.48C1071.36 1040.81 1052.07 1067.34 1046.48 1078.16C1046.11 1078.87 1045.77 1079.56 1045.5 1080.16C1028.7 1105.63 1015.01 1120.03 1005.92 1121.78C1004.29 1122.1 1002.98 1121.98 1002.04 1121.39C1001.1 1120.82 1000.49 1119.81 1000.19 1118.32C999.152 1113.16 1002.14 1103.85 1009.06 1090.68C1020.17 1083.37 1046.95 1060.79 1044.9 1050.29C1044.51 1048.24 1042.85 1046.31 1039.49 1046.96C1031.24 1048.56 1012.91 1072.92 1012.91 1072.92L1011.06 1075.88C1008.54 1079.59 1006.12 1083.37 1004.12 1086.8C982.577 1120.15 972.646 1128.18 968.101 1129.07C967.261 1129.24 966.495 1129.09 965.927 1128.67C965.383 1128.28 965.013 1127.64 964.865 1126.87C963.926 1122.03 969.632 1111.58 975.66 1100.54L975.759 1100.36C976.722 1098.59 977.71 1096.78 978.698 1094.98L985.665 1082.01C990.531 1073.07 991.099 1069.54 990.432 1066.45C989.839 1063.19 987.715 1061.85 985.986 1060.77C984.331 1059.73 982.923 1058.84 982.453 1056.54C982.181 1054.91 983.194 1052.19 984.331 1050.39L985.516 1048.49L978.105 1049.92L977.883 1050.29C977.34 1051.23 976.055 1053.4 976.599 1056.17C976.895 1057.68 977.611 1058.89 978.772 1059.85C973.782 1068.92 963.975 1085.77 956.836 1097.77L955.502 1100.04C950.191 1109.11 934.554 1135.67 925.735 1137.37C924.006 1137.72 923.018 1137.1 922.722 1135.54C922.005 1131.81 926.501 1123.93 932.183 1113.95C934.184 1110.44 936.259 1106.81 938.334 1102.96L938.581 1102.51C948.536 1084.48 952.266 1077.74 950.908 1070.8C950.142 1066.84 947.523 1064.89 943.917 1065.58C938.655 1066.6 928.477 1073.98 909.357 1102.29L938.63 1047.28L931.145 1048.74L905.306 1097.33L905.158 1097.55C884.259 1130.7 869.709 1148.29 861.952 1149.8C860.915 1149.99 860.124 1149.92 859.581 1149.57C859.087 1149.28 858.766 1148.71 858.618 1147.92C857.876 1144.14 862.397 1136.21 868.079 1126.15C870.006 1122.75 872.006 1119.21 874.057 1115.43L874.872 1113.95C884.506 1096.56 888.088 1090.04 886.754 1083.17C886.458 1081.69 885.124 1076.97 879.788 1078.01C874.526 1079.02 864.349 1086.41 845.229 1114.72L874.501 1059.7L867.016 1061.16L841.103 1109.88C820.649 1143 806.297 1160.59 798.441 1162.1C796.786 1162.42 795.823 1161.85 795.551 1160.39C794.538 1155.18 800.739 1143.57 810.126 1126.01L830.506 1087.99L822.922 1089.47L814.35 1105.6C815.14 1102.29 815.313 1099.57 814.893 1097.4C814.548 1095.65 813.856 1094.26 812.868 1093.35C811.484 1092.06 809.582 1091.67 807.211 1092.11C798.342 1093.84 784.879 1108.17 775.467 1121.61C762.424 1138.41 742.835 1160.1 727 1170.57L723.418 1172.6V1174.97L728.161 1172.32C743.23 1163.38 756.496 1149.42 765.586 1138.33C761.535 1147.18 759.929 1155.7 761.189 1162.15C762.449 1168.59 765.809 1171.63 770.65 1170.69C778.086 1169.24 786.46 1158.76 792.685 1149.15C791.426 1153.35 791.104 1156.74 791.673 1159.68C791.846 1160.54 792.29 1162.2 793.402 1163.48C794.76 1165.04 796.663 1165.63 798.96 1165.19C806.667 1163.68 817.364 1150.68 826.183 1137.94L771.737 1240.28L779.222 1238.82L831.395 1140.78C831.84 1140.11 832.457 1139.17 833.223 1137.96C856.617 1101.8 872.402 1082.7 880.158 1081.2C881.023 1081.02 881.715 1081.1 882.184 1081.37C882.629 1081.64 882.9 1082.11 883.024 1082.78C883.691 1086.16 879.22 1093.94 873.538 1103.8C871.488 1107.36 869.166 1111.38 866.868 1115.61C857.827 1132.36 853.553 1140.7 854.863 1147.45L855.06 1148.44L855.332 1149.03C855.703 1149.94 856.37 1151.15 857.58 1151.99C858.914 1152.93 860.544 1153.2 862.446 1152.83C870.524 1151.28 881.888 1137.32 891.275 1123.73L835.916 1227.81L843.401 1226.35L895.573 1128.3C896.018 1127.64 896.611 1126.7 897.401 1125.49C920.795 1089.32 936.58 1070.23 944.337 1068.72C945.201 1068.55 945.893 1068.62 946.362 1068.89C946.807 1069.16 947.079 1069.63 947.202 1070.3C947.869 1073.69 943.373 1081.57 937.667 1091.55C935.691 1095.03 933.418 1098.98 931.195 1103.08L930.75 1103.92C922.623 1119.02 917.707 1128.13 919.016 1134.9C919.189 1135.89 919.782 1138.31 921.733 1139.67C922.969 1140.53 924.475 1140.78 926.205 1140.46C936.53 1138.46 951.402 1113.26 957.775 1102.49L957.824 1102.42C958.615 1101.08 959.257 1099.99 959.751 1099.18L961.11 1096.93H961.085C967.953 1085.27 976.796 1069.61 980.996 1061.21C981.342 1061.38 981.687 1061.56 982.033 1061.7C983.96 1062.62 985.492 1063.34 985.862 1065.24C986.257 1067.31 985.269 1070.18 978.797 1082.13L971.757 1095.23C963.259 1110.91 959.677 1119.11 960.962 1126.06L961.135 1126.85C961.431 1127.88 961.95 1129.22 962.963 1130.35C964.395 1131.98 966.421 1132.65 968.669 1132.21C975.067 1130.97 984.751 1120.79 997.423 1101.97C995.941 1107.08 995.398 1111.83 995.867 1115.61H995.817L996.04 1116.77C997.275 1123.07 1000.93 1125.93 1006.39 1124.89C1017.38 1122.77 1030.9 1106.27 1040.83 1091.87C1039.05 1097.77 1038.45 1102.96 1039.05 1107.33H1039L1039.22 1108.49C1040.43 1114.72 1044.09 1117.58 1049.5 1116.52C1057.9 1114.89 1068.64 1104.81 1081.49 1086.58C1078.62 1092.9 1076.57 1099.1 1077.53 1104.09C1077.71 1104.93 1078.13 1106.52 1079.21 1107.8C1080.6 1109.46 1082.57 1110.07 1084.92 1109.63C1091.89 1108.27 1101.94 1097.87 1114.86 1078.68C1113.3 1084.26 1112.91 1089.4 1113.72 1093.67C1114.98 1100.12 1118.34 1103.16 1123.19 1102.22C1130.62 1100.76 1139 1090.29 1145.22 1080.68C1143.96 1084.88 1143.64 1088.26 1144.21 1091.2C1144.38 1092.04 1144.8 1093.62 1145.86 1094.91C1147.2 1096.54 1149.15 1097.15 1151.5 1096.71C1159.94 1095.08 1172 1079.59 1181.46 1065.39C1178.12 1073.46 1176.94 1079.61 1177.83 1084.11L1177.95 1084.58C1178.25 1085.84 1179.04 1087.91 1180.89 1089.15C1182.3 1090.09 1184.03 1090.38 1186.03 1089.99C1194.68 1088.31 1206.85 1073.14 1216.04 1059.83C1214.64 1064.79 1214.12 1069.44 1214.59 1073.12H1214.54L1214.76 1074.28C1215.99 1080.58 1219.65 1083.44 1225.09 1082.41C1244.7 1078.6 1272.61 1028.68 1273.77 1026.55L1276.32 1021.93V1018.5L1271.43 1026.33H1271.45ZM1258.8 1007.58C1259 1007.53 1259.2 1007.53 1259.35 1007.53C1259.97 1007.53 1260.29 1007.8 1260.41 1008.42C1260.51 1008.89 1260.56 1010.27 1259.15 1012.84C1252.97 1024.21 1239.02 1035.91 1230.77 1042.68C1242.48 1021.54 1252.65 1008.77 1258.78 1007.58H1258.8ZM1040.06 1050.09C1040.26 1050.04 1040.46 1050.04 1040.6 1050.04C1040.88 1050.04 1041.1 1050.09 1041.25 1050.19C1041.44 1050.32 1041.59 1050.56 1041.64 1050.93C1041.74 1051.4 1041.79 1052.79 1040.41 1055.36C1034.23 1066.69 1020.27 1078.43 1012.02 1085.2C1023.58 1064.35 1033.98 1051.26 1040.04 1050.09H1040.06ZM770.008 1167.63C767.513 1168.12 765.957 1166.87 765.389 1163.93C764.228 1157.97 767.711 1147.33 775.764 1132.28C793.179 1099.52 805.333 1095.67 807.606 1095.25C808.001 1095.18 808.372 1095.13 808.718 1095.13C810.348 1095.13 811.287 1096.02 811.657 1097.94C812.991 1104.86 807.828 1117.61 803.011 1126.45L802.814 1126.82C788.609 1152.44 777.567 1166.15 770.008 1167.63ZM1122.59 1099.13C1121.41 1099.35 1120.39 1099.18 1119.65 1098.61C1118.84 1097.99 1118.27 1096.93 1118 1095.42C1116.84 1089.47 1120.32 1078.82 1128.37 1063.78C1145.79 1031.02 1157.94 1027.17 1160.22 1026.75C1160.61 1026.68 1160.98 1026.63 1161.33 1026.63C1162.96 1026.63 1163.9 1027.52 1164.27 1029.44C1165.6 1036.36 1160.44 1049.13 1155.62 1057.95L1155.45 1058.27C1141.22 1083.91 1130.18 1097.67 1122.59 1099.13Z" fill="black"/>
<path d="M1121.14 1014.01C1121.85 1014.5 1122.69 1014.75 1123.56 1014.75C1123.83 1014.75 1124.12 1014.72 1124.4 1014.67C1125.53 1014.45 1126.52 1013.81 1127.16 1012.84C1127.81 1011.91 1128.03 1010.77 1127.83 1009.66C1127.39 1007.34 1125.11 1005.8 1122.77 1006.25C1121.63 1006.47 1120.67 1007.11 1120.02 1008.08C1119.38 1009.04 1119.16 1010.18 1119.38 1011.31C1119.6 1012.4 1120.22 1013.36 1121.18 1014.01H1121.14Z" fill="black"/>
<path d="M1271.13 814.336C1250.53 847.364 1234.87 865.125 1224.59 867.126C1223.06 867.423 1221.85 867.299 1220.98 866.78C1220.14 866.286 1219.6 865.347 1219.33 863.989C1218.32 858.925 1221.26 849.735 1228.12 836.692C1239.64 829.084 1266.14 806.703 1264.07 795.957C1263.62 793.66 1261.62 791.634 1258.19 792.301C1252.36 793.437 1244.45 801.886 1238.87 808.778C1232.55 816.535 1225.78 826.49 1221.18 834.716C1221.01 835.012 1220.84 835.333 1220.74 835.531C1198.7 869.004 1188.72 874.092 1185.44 874.71C1184.47 874.908 1183.66 874.809 1183.11 874.413C1182.62 874.092 1182.3 873.549 1182.18 872.833C1181.14 867.546 1187.44 854.75 1194.38 841.707L1228.47 777.825L1255.15 772.637L1254.38 768.71L1230.87 773.28L1238.42 759.125L1229.85 760.78L1193 829.874C1167.85 870.585 1156.24 880.367 1150.93 881.404C1149.05 881.775 1148.65 880.787 1148.51 880.021C1147.52 874.957 1153.35 864.014 1163.03 845.906L1183.83 807.147L1175.21 808.827L1167.87 822.636C1168.19 820.462 1168.22 818.61 1167.9 817.029C1167.48 814.83 1166.51 813.224 1165.08 812.261C1163.65 811.298 1161.85 811.026 1159.67 811.446C1147.89 813.743 1128.57 837.557 1119.92 853.564C1099.08 885.604 1089.1 893.41 1084.38 894.324C1083.54 894.472 1082.9 894.423 1082.48 894.126C1082.01 893.805 1081.81 893.262 1081.73 892.842C1080.89 888.494 1085.79 879.354 1095.57 861.148L1117.63 819.993L1108.96 821.673L1092.7 852.23C1084.6 864.878 1063.08 898.449 1048.95 901.191C1047.52 901.463 1046.26 901.315 1045.37 900.722C1044.43 900.105 1043.79 899.018 1043.49 897.486C1042.41 892.101 1046.21 880.812 1053.92 866.509C1069.16 838.298 1078.7 831.134 1084.01 830.121C1085.07 829.924 1085.88 829.998 1086.45 830.393C1086.87 830.689 1087.14 831.134 1087.32 831.554C1083.59 833.086 1081.51 835.729 1082.03 838.397C1082.45 840.546 1084.25 841.756 1086.38 841.336C1089.64 840.694 1092.46 836.667 1091.49 831.677C1091.22 830.245 1090.5 828.268 1088.72 827.058C1087.29 826.095 1085.46 825.823 1083.29 826.243C1071.16 828.59 1051.74 855.269 1046.11 866.138C1045.74 866.854 1045.4 867.571 1045.12 868.114C1028.38 893.484 1014.79 907.837 1005.82 909.566C1004.29 909.862 1003.08 909.739 1002.22 909.22C1001.38 908.726 1000.83 907.787 1000.56 906.428C999.547 901.364 1002.49 892.2 1009.35 879.132C1020.87 871.523 1047.37 849.142 1045.3 838.397C1044.88 836.272 1043.07 834.024 1039.42 834.741C1031.51 836.272 1013.33 859.666 1013.33 859.666L1010.74 863.816C1008.19 867.521 1005.8 871.301 1003.8 874.735C982.33 907.96 972.498 915.964 968.051 916.828C967.31 916.977 966.668 916.853 966.198 916.507C965.729 916.186 965.408 915.618 965.284 914.951C964.37 910.233 970.052 899.882 976.03 888.889L976.129 888.692C977.092 886.913 978.081 885.11 979.069 883.307L986.035 870.337C990.951 861.296 991.519 857.69 990.852 854.503C990.21 851.069 988.011 849.686 986.233 848.55C984.602 847.512 983.318 846.697 982.873 844.597C982.626 843.066 983.639 840.422 984.701 838.718L986.381 836.025L977.858 837.68L977.537 838.224C976.969 839.187 975.635 841.484 976.203 844.375C976.5 845.882 977.167 847.092 978.254 848.055C973.214 857.171 963.481 873.895 956.49 885.678L954.662 888.791C941.125 911.764 931.367 923.992 925.636 925.104C924.871 925.252 924.278 925.203 923.882 924.956C923.487 924.709 923.215 924.264 923.092 923.597C922.4 920.015 926.871 912.184 932.528 902.254C934.529 898.746 936.604 895.115 938.679 891.261L938.926 890.816C948.931 872.684 952.661 865.916 951.303 858.826C950.487 854.602 947.696 852.551 943.842 853.292C939.001 854.231 929.811 860.53 913.038 884.344L939.396 834.815L930.873 836.47L904.96 885.209L904.812 885.431C883.963 918.484 869.536 935.998 861.853 937.48C860.939 937.653 860.223 937.604 859.778 937.307C859.383 937.06 859.136 936.591 859.013 935.924C858.296 932.292 862.767 924.412 868.449 914.432C870.376 911.023 872.377 907.515 874.402 903.736L875.218 902.254C884.901 884.764 888.508 878.218 887.149 871.202C886.853 869.646 885.395 864.606 879.714 865.718C874.872 866.657 865.682 872.956 848.909 896.77L875.267 847.24L866.745 848.895L840.757 897.758C820.352 930.786 806.099 948.3 798.367 949.807C797.651 949.955 797.082 949.906 796.687 949.659C796.292 949.436 796.07 949.016 795.946 948.423C794.958 943.335 801.134 931.798 810.471 914.309L831.246 875.55L822.625 877.23L815.264 891.113C815.585 888.939 815.585 887.061 815.264 885.456C814.893 883.603 814.177 882.17 813.115 881.182C811.632 879.823 809.607 879.379 807.087 879.848C798.095 881.602 784.558 896.004 775.121 909.492C762.103 926.265 742.538 947.929 726.728 958.354L723.394 960.701V963.986L728.334 960.8C742.711 952.277 755.409 939.135 764.055 928.883C760.769 936.912 759.608 944.446 760.744 950.326C762.054 957.02 765.586 960.182 770.675 959.194C777.839 957.811 785.793 948.152 791.623 939.53C790.907 942.692 790.783 945.434 791.252 947.855C791.425 948.769 791.895 950.498 793.08 951.857C794.538 953.537 796.588 954.154 799.009 953.685C804.839 952.549 812.843 945.064 822.847 931.403L770.947 1028.93L779.469 1027.28L831.716 929.106C832.16 928.439 832.778 927.5 833.544 926.29C856.888 890.223 872.574 871.177 880.208 869.695C880.973 869.547 881.566 869.596 881.937 869.819C882.258 870.016 882.48 870.412 882.604 870.955C883.246 874.191 878.8 881.923 873.167 891.705C871.117 895.263 868.795 899.289 866.498 903.513C857.407 920.361 853.109 928.76 854.443 935.627L854.64 936.64L855.159 937.826C855.579 938.69 856.246 939.703 857.308 940.444C858.741 941.432 860.47 941.754 862.496 941.358C868.622 940.173 877.144 932.095 887.866 917.322L835.1 1016.5L843.623 1014.85L895.869 916.655C896.314 915.988 896.907 915.05 897.697 913.839C921.042 877.773 936.728 858.727 944.361 857.245C945.127 857.097 945.72 857.146 946.09 857.368C946.411 857.566 946.634 857.961 946.757 858.505C947.375 861.766 942.928 869.572 937.271 879.478C935.295 882.961 933.022 886.913 930.799 891.039L930.355 891.878C922.178 907.046 917.262 916.211 918.596 923.103C918.769 924.14 919.386 926.685 921.486 928.142C922.82 929.056 924.426 929.353 926.279 928.982C936.777 926.932 951.723 901.636 958.121 890.816L958.17 890.742C958.961 889.408 959.603 888.321 960.097 887.506L961.456 885.258L961.9 884.492C968.298 873.598 976.87 858.48 981.193 849.859C981.415 849.958 981.638 850.081 981.885 850.18C983.787 851.069 985.146 851.712 985.491 853.441C985.862 855.343 984.973 858.06 978.476 870.066L971.436 883.158C962.888 898.943 959.282 907.194 960.616 914.284L960.789 915.075L960.887 915.396C961.184 916.384 961.727 917.668 962.715 918.755C964.247 920.509 966.421 921.201 968.817 920.731C975.092 919.521 984.405 909.961 996.484 892.298C995.496 896.399 995.15 900.179 995.471 903.316H995.373L995.694 904.946C996.978 911.493 1000.81 914.506 1006.51 913.395C1017.26 911.32 1030.33 895.707 1039.84 882.17C1038.6 886.987 1038.21 891.31 1038.63 895.04H1038.55L1038.87 896.671C1039.49 899.857 1040.75 902.229 1042.58 903.662C1044.43 905.119 1046.8 905.564 1049.62 905.02C1057.65 903.464 1067.73 894.373 1079.66 877.971C1077.21 884.072 1076.45 888.568 1077.16 892.274C1077.34 893.138 1077.78 894.793 1078.94 896.177C1080.42 897.955 1082.52 898.622 1085.04 898.128C1091.86 896.794 1101.6 886.987 1113.97 868.929C1112.88 873.722 1112.69 878.144 1113.4 881.849C1114.71 888.544 1118.24 891.706 1123.33 890.717C1130.5 889.334 1138.45 879.675 1144.28 871.054C1143.57 874.216 1143.44 876.958 1143.91 879.379C1144.08 880.243 1144.53 881.898 1145.64 883.257C1147.1 885.011 1149.17 885.678 1151.67 885.209C1158.34 883.924 1167.82 874.339 1179.88 856.702C1177.53 863.223 1176.74 868.361 1177.53 872.314L1177.66 872.783C1177.95 873.993 1178.77 876.266 1180.74 877.6C1182.25 878.613 1184.08 878.909 1186.18 878.489C1194.65 876.834 1206.36 862.507 1215.15 850.032C1214.22 854.034 1213.89 857.714 1214.22 860.827H1214.14L1214.46 862.457C1215.08 865.693 1216.34 868.065 1218.19 869.522C1220.07 870.98 1222.44 871.449 1225.28 870.906C1245.07 867.052 1273.08 816.979 1274.27 814.855L1276.47 810.878V805.838L1271.23 814.212L1271.13 814.336ZM1258.88 796.204C1259.05 796.179 1259.22 796.155 1259.35 796.155C1259.77 796.155 1259.92 796.278 1260.01 796.723C1260.09 797.069 1260.19 798.353 1258.8 800.898C1252.88 811.792 1239.71 823.031 1232.17 829.257C1243.37 809.346 1253.05 797.34 1258.88 796.229V796.204ZM1040.13 838.693C1040.31 838.668 1040.46 838.644 1040.6 838.644C1040.85 838.644 1040.97 838.693 1041.02 838.742C1041.12 838.817 1041.22 838.989 1041.25 839.212C1041.32 839.558 1041.42 840.842 1040.04 843.362C1034.11 854.256 1020.96 865.496 1013.41 871.721C1024.47 852.107 1034.38 839.805 1040.11 838.693H1040.13ZM769.934 955.464C767.686 955.908 766.327 954.797 765.808 952.079C764.672 946.225 768.155 935.652 776.159 920.707C793.476 888.124 805.481 884.319 807.729 883.875C808.1 883.801 808.446 883.776 808.767 883.776C810.2 883.776 810.99 884.542 811.311 886.246C812.62 893.039 807.507 905.712 802.69 914.482L802.492 914.852C788.338 940.346 777.394 954.006 769.959 955.464H769.934ZM1122.49 886.963C1121.41 887.16 1120.54 887.012 1119.88 886.518C1119.13 885.95 1118.64 884.986 1118.37 883.578C1117.23 877.724 1120.72 867.151 1128.72 852.206C1146.04 819.622 1158.04 815.818 1160.29 815.374C1160.66 815.299 1161.01 815.275 1161.33 815.275C1162.76 815.275 1163.55 816.04 1163.87 817.745C1165.21 824.538 1160.07 837.211 1155.27 845.98L1155.1 846.302C1140.95 871.844 1129.98 885.53 1122.52 886.963H1122.49Z" fill="black"/>
<path d="M1120.91 802.572C1121.7 803.116 1122.62 803.387 1123.56 803.387C1123.85 803.387 1124.17 803.363 1124.47 803.289C1125.71 803.042 1126.79 802.35 1127.48 801.288C1128.18 800.25 1128.45 799.015 1128.2 797.805C1127.71 795.26 1125.24 793.58 1122.67 794.075C1121.43 794.322 1120.37 795.013 1119.65 796.075C1118.94 797.113 1118.69 798.373 1118.94 799.608C1119.18 800.818 1119.88 801.856 1120.91 802.548V802.572Z" fill="black"/>
<path d="M1270.79 602.332C1250.23 635.261 1234.67 652.948 1224.52 654.924C1223.08 655.196 1221.97 655.097 1221.21 654.628C1220.47 654.183 1219.97 653.343 1219.75 652.108C1218.76 647.143 1221.68 638.101 1228.44 625.182C1237.31 619.278 1266.73 595.711 1264.46 584.101C1263.97 581.606 1261.82 579.383 1258.11 580.124C1252.16 581.285 1244.18 589.807 1238.55 596.749C1232.22 604.53 1225.43 614.485 1220.84 622.736C1220.66 623.033 1220.51 623.329 1220.39 623.551C1197.84 657.79 1187.91 662.039 1185.39 662.533C1184.52 662.706 1183.83 662.631 1183.36 662.31C1182.97 662.039 1182.69 661.594 1182.6 661.001C1181.58 655.813 1188.18 642.499 1194.77 630.147L1228.77 566.438L1255.67 561.201L1254.75 556.483L1231.68 560.979L1239.24 546.824L1229.66 548.677L1192.72 617.919C1166.32 660.655 1155.2 668.412 1150.93 669.252C1149.52 669.524 1149.15 669.03 1148.98 668.19C1148.01 663.249 1154.16 651.762 1163.48 634.347L1184.67 594.822L1175.01 596.699L1168.56 608.829C1168.64 607.495 1168.56 606.284 1168.37 605.197C1167.92 602.9 1166.91 601.195 1165.38 600.158C1163.87 599.12 1161.94 598.849 1159.67 599.293C1147.76 601.615 1128.32 625.528 1119.68 641.609C1097.82 675.205 1088.18 681.455 1084.4 682.196C1083.69 682.344 1083.14 682.295 1082.8 682.073C1082.45 681.826 1082.3 681.381 1082.23 681.035C1081.41 676.836 1086.6 667.152 1096.01 649.613L1118.47 607.717L1108.76 609.594L1092.43 640.3C1084.35 652.899 1062.89 686.371 1048.95 689.088C1047.62 689.335 1046.48 689.212 1045.67 688.693C1044.83 688.15 1044.23 687.161 1043.96 685.729C1042.9 680.442 1046.68 669.252 1054.34 655.023C1069.51 626.96 1078.92 619.846 1084.13 618.833C1085.07 618.66 1085.79 618.71 1086.28 619.031C1086.5 619.179 1086.7 619.426 1086.82 619.648C1083.14 621.279 1081.14 624.021 1081.68 626.788C1082.15 629.134 1084.18 630.493 1086.53 630.048C1089.96 629.381 1092.97 625.157 1091.96 619.92C1091.66 618.413 1090.92 616.338 1089.02 615.054C1087.49 614.016 1085.56 613.72 1083.29 614.164C1071.04 616.536 1051.47 643.338 1045.84 654.257C1045.47 654.949 1045.12 655.641 1044.85 656.233C1023.78 688.15 1012.02 696.277 1005.85 697.463C1004.44 697.734 1003.33 697.636 1002.54 697.166C1001.8 696.722 1001.3 695.882 1001.08 694.646C1000.09 689.706 1003.01 680.64 1009.77 667.72C1018.64 661.816 1048.06 638.25 1045.79 626.615C1045.32 624.293 1043.4 621.872 1039.44 622.637C1031.69 624.144 1020.59 637.83 1013.83 647.167L1010.49 651.91C1007.95 655.641 1005.55 659.42 1003.55 662.829C981.02 697.685 971.658 704.058 968.051 704.75C967.631 704.824 967.014 704.849 966.52 704.503C966.149 704.231 965.877 703.762 965.779 703.194C964.889 698.624 970.793 687.828 976.5 677.404L976.598 677.206C977.562 675.428 978.55 673.624 979.538 671.821L986.504 658.852C991.47 649.712 992.038 646.006 991.346 642.77C990.679 639.164 988.283 637.657 986.554 636.57C984.948 635.557 983.787 634.816 983.392 632.889C983.194 631.654 983.935 629.233 985.17 627.282L987.344 623.798L977.735 625.651L977.339 626.343C976.747 627.356 975.363 629.727 975.956 632.79C976.253 634.273 976.87 635.483 977.908 636.471C972.844 645.661 963.234 662.137 956.317 673.797L953.995 677.75C940.779 700.081 931.269 711.939 925.735 713.025C925.068 713.149 924.574 713.124 924.253 712.927C923.956 712.754 923.759 712.383 923.66 711.84C922.993 708.406 927.637 700.254 933.047 690.793C935.048 687.285 937.123 683.654 939.198 679.8L939.445 679.355C949.499 661.125 953.254 654.307 951.846 647.093C950.981 642.696 947.943 640.448 943.916 641.239C937.518 642.474 928.279 651.318 916.397 667.523L940.285 622.613L930.75 624.465L904.762 673.353L904.614 673.575C878.75 714.631 867.115 724.438 861.927 725.451C861.112 725.599 860.495 725.574 860.124 725.352C859.828 725.179 859.63 724.784 859.531 724.241C858.864 720.757 863.508 712.556 868.918 703.021C870.845 699.612 872.846 696.104 874.872 692.324L875.687 690.842C885.42 673.254 889.051 666.683 887.668 659.519C887.001 656.085 884.58 652.775 879.738 653.714C873.34 654.949 864.101 663.792 852.219 679.998L876.107 635.088L866.572 636.94L840.51 685.951C815.165 726.958 803.629 736.79 798.392 737.802C797.774 737.926 797.305 737.877 796.983 737.704C796.885 737.654 796.564 737.457 796.44 736.74C795.477 731.8 801.949 719.671 810.941 702.897L832.136 663.373L822.477 665.25L816.005 677.453C816.079 676.095 816.005 674.859 815.807 673.748C815.437 671.821 814.671 670.289 813.534 669.252C811.953 667.794 809.804 667.325 807.161 667.819C798.07 669.573 784.41 684.074 774.948 697.611C761.955 714.359 742.439 735.974 726.654 746.399L723.566 748.326V752.525L728.705 749.536C742.291 741.483 754.371 729.329 762.968 719.349C760.324 726.612 759.435 733.405 760.497 738.791C761.831 745.658 765.611 748.993 770.897 747.98C776.604 746.868 783.347 740.742 790.981 729.774C790.585 732.195 790.585 734.369 790.981 736.32C791.154 737.259 791.648 739.087 792.907 740.52C794.464 742.298 796.638 742.99 799.231 742.471C804.543 741.434 811.558 735.307 820.18 724.166L770.329 817.865L779.864 816.012L832.16 717.694C832.605 717.027 833.223 716.089 833.988 714.878C862.99 670.067 875.218 659.47 880.381 658.457C881.023 658.333 881.542 658.358 881.838 658.531C882.06 658.679 882.233 658.975 882.307 659.42C882.9 662.508 878.281 670.561 872.92 679.899C870.87 683.456 868.548 687.483 866.25 691.707C857.11 708.628 852.787 717.077 854.171 724.092L854.393 725.13C854.492 725.673 855.184 726.859 855.184 726.859C855.628 727.65 856.27 728.489 857.209 729.132C858.716 730.194 860.569 730.515 862.693 730.095C868.276 729.008 875.81 722.314 885.123 710.16L834.458 805.365L843.993 803.512L896.314 705.195C896.759 704.528 897.376 703.589 898.142 702.378C927.143 657.567 939.371 646.97 944.534 645.957C945.176 645.833 945.695 645.858 945.991 646.031C946.214 646.179 946.387 646.451 946.461 646.896C947.054 650.008 942.41 658.136 937.024 667.597C935.023 671.08 932.775 675.032 930.552 679.158L930.107 679.998C921.881 695.264 916.941 704.453 918.299 711.494C918.472 712.581 919.139 715.249 921.363 716.805C922.771 717.793 924.5 718.09 926.451 717.719C937.148 715.644 952.142 690.225 958.565 679.355L958.615 679.281C959.405 677.947 960.047 676.86 960.541 676.045L962.814 672.241H962.789C969.064 661.569 977.191 647.192 981.465 638.719C981.564 638.768 981.687 638.818 981.786 638.867C983.812 639.806 984.874 640.374 985.17 641.832C985.516 643.61 984.627 646.278 978.204 658.185L971.164 671.277C962.567 687.161 958.96 695.437 960.294 702.675L960.616 704.108H960.665C960.986 705.096 961.554 706.306 962.468 707.344C964.099 709.196 966.396 709.938 968.94 709.444C975.116 708.233 984.108 699.192 995.718 682.542C995.101 685.729 994.879 688.668 995.101 691.237H994.953L995.373 693.362C996.682 700.081 1000.81 703.268 1006.66 702.131C1017.09 700.106 1029.59 685.605 1039.05 672.439C1038.21 676.317 1037.96 679.825 1038.26 682.962H1038.13L1038.55 685.086C1039.2 688.372 1040.5 690.818 1042.41 692.324C1044.36 693.856 1046.83 694.325 1049.77 693.757C1057.5 692.25 1067.09 683.901 1078.35 668.881C1076.69 673.698 1076.23 677.478 1076.87 680.689C1077.04 681.603 1077.51 683.333 1078.72 684.765C1080.3 686.643 1082.55 687.384 1085.22 686.865C1091.94 685.556 1101.37 676.243 1113.25 659.124C1112.51 663.224 1112.44 667.004 1113.08 670.265C1114.42 677.132 1118.22 680.467 1123.48 679.454C1129.19 678.343 1135.93 672.216 1143.57 661.248C1143.17 663.669 1143.17 665.843 1143.57 667.794C1143.74 668.708 1144.21 670.438 1145.39 671.87C1146.95 673.748 1149.15 674.464 1151.82 673.945C1158.29 672.686 1167.3 663.842 1178.67 647.637C1177.01 652.973 1176.54 657.296 1177.21 660.754L1177.33 661.223C1177.66 662.508 1178.5 664.855 1180.6 666.288C1182.18 667.35 1184.13 667.696 1186.35 667.251C1193.14 665.942 1202.58 656.851 1214.44 640.226C1213.85 643.339 1213.65 646.229 1213.85 648.773H1213.72L1214.14 650.898C1214.78 654.232 1216.09 656.678 1218.02 658.185C1220 659.717 1222.47 660.211 1225.43 659.642C1245.42 655.764 1273.5 605.518 1274.69 603.394L1276.54 600.059V593.414L1270.96 602.356L1270.79 602.332ZM1258.95 584.817C1259.1 584.793 1259.22 584.768 1259.35 584.768C1259.47 584.768 1259.52 584.768 1259.55 584.768C1259.55 584.768 1259.59 584.842 1259.62 584.99C1259.67 585.213 1259.79 586.423 1258.46 588.893C1252.97 598.947 1241.29 609.323 1233.63 615.721C1244.3 597.07 1253.44 585.88 1258.95 584.817ZM1040.21 627.306C1040.36 627.282 1040.48 627.257 1040.6 627.257C1040.73 627.257 1040.78 627.257 1040.78 627.257C1040.78 627.257 1040.83 627.331 1040.85 627.479C1040.9 627.702 1041.05 628.887 1039.69 631.358C1034.23 641.387 1022.55 651.762 1014.86 658.185C1025.41 639.781 1034.77 628.344 1040.18 627.282L1040.21 627.306ZM769.86 743.262C768.476 743.534 766.821 743.41 766.204 740.199C765.092 734.418 768.55 723.969 776.505 709.098C793.747 676.687 805.58 672.908 807.779 672.463C808.124 672.389 808.446 672.364 808.742 672.364C809.631 672.364 810.521 672.636 810.891 674.514C812.2 681.208 807.087 693.757 802.319 702.477L802.122 702.848C788.041 728.242 777.172 741.829 769.86 743.262ZM1122.42 674.761C1121.46 674.958 1120.69 674.835 1120.12 674.39C1119.48 673.896 1119.01 672.982 1118.76 671.697C1117.63 665.917 1121.11 655.468 1129.06 640.596C1146.31 608.186 1158.14 604.407 1160.34 603.962C1160.68 603.888 1161.01 603.863 1161.3 603.863C1162.19 603.863 1163.08 604.135 1163.45 606.012C1164.76 612.707 1159.65 625.256 1154.88 633.976L1154.71 634.297C1140.6 659.717 1129.73 673.328 1122.42 674.761Z" fill="black"/>
<path d="M1120.69 591.116C1121.56 591.684 1122.54 592.005 1123.56 592.005C1123.88 592.005 1124.22 591.98 1124.54 591.906C1125.88 591.659 1127.06 590.869 1127.83 589.732C1128.6 588.596 1128.87 587.262 1128.62 585.953C1128.08 583.186 1125.38 581.383 1122.62 581.901C1121.28 582.173 1120.12 582.939 1119.36 584.075C1118.59 585.212 1118.32 586.57 1118.59 587.929C1118.84 589.238 1119.6 590.375 1120.72 591.14L1120.69 591.116Z" fill="black"/>
<path d="M1275.55 381.397L1270.09 390.142C1249.66 422.873 1234.27 440.437 1224.34 442.364C1223.13 442.586 1222.19 442.537 1221.6 442.191C1221.08 441.87 1220.71 441.203 1220.51 440.215C1219.55 435.472 1222.42 426.653 1229.04 414.005C1235.58 409.583 1267.7 384.88 1265.23 372.207C1264.68 369.391 1262.16 366.748 1257.94 367.588C1251.76 368.798 1243.64 377.445 1237.91 384.485C1231.56 392.316 1224.74 402.32 1220.09 410.596C1219.95 410.892 1219.77 411.164 1219.65 411.411C1196.7 446.242 1186.92 449.676 1185.19 449.997C1184.57 450.12 1184.05 450.071 1183.78 449.898C1183.51 449.725 1183.41 449.355 1183.34 449.083C1182.25 443.475 1191.49 426.159 1195.44 418.748L1229.26 355.385L1256.58 350.074L1255.35 343.75L1233.14 348.073L1240.7 333.918L1229.06 336.166L1191.96 405.705C1164.74 449.75 1154.04 456.024 1150.7 456.667C1149.82 456.84 1149.79 456.667 1149.69 456.247C1148.78 451.603 1155.2 439.572 1164.09 422.923L1186.1 381.916L1174.39 384.188L1169.21 393.971C1169.18 393.724 1169.13 393.477 1169.08 393.254C1168.59 390.735 1167.48 388.857 1165.75 387.696C1164.04 386.535 1161.92 386.214 1159.42 386.683C1147.3 389.055 1127.61 413.165 1118.89 429.345C1096.36 463.929 1087.07 469.018 1084.13 469.586C1083.39 469.735 1083.14 469.586 1083.14 469.586C1083.07 469.537 1082.97 469.389 1082.92 469.068C1082.15 465.14 1087.59 454.987 1096.63 438.189L1119.9 394.786L1108.14 397.083L1091.66 428.085C1083.64 440.61 1062.32 473.86 1048.71 476.503C1047.57 476.726 1046.63 476.627 1046.01 476.207C1045.35 475.787 1044.9 474.972 1044.68 473.761C1043.64 468.648 1047.4 457.68 1054.98 443.599C1070 415.808 1079.16 408.792 1084.23 407.829C1084.6 407.755 1084.92 407.73 1085.19 407.755C1081.93 409.583 1080.28 412.35 1080.82 415.166C1081.36 417.957 1083.81 419.612 1086.6 419.069C1090.43 418.328 1093.79 413.684 1092.68 408.002C1092.36 406.347 1091.52 404.05 1089.39 402.592C1087.69 401.431 1085.54 401.085 1083.04 401.579C1070.54 404 1050.73 431.075 1045.03 442.092C1044.68 442.784 1044.33 443.475 1044.06 444.044C1023.19 475.688 1011.63 483.716 1005.6 484.877C1004.39 485.1 1003.45 485.05 1002.86 484.705C1002.34 484.383 1001.97 483.716 1001.77 482.728C1000.81 477.985 1003.67 469.166 1010.29 456.519C1016.84 452.097 1048.95 427.418 1046.48 414.696C1045.91 411.806 1043.42 409.262 1039.2 410.077C1031.91 411.485 1022.03 422.848 1014.54 432.927L1009.72 439.671C1007.16 443.426 1004.76 447.206 1002.76 450.615C979.563 486.508 970.595 491.621 967.804 492.165C967.532 492.214 967.137 492.239 966.89 492.041C966.692 491.893 966.519 491.597 966.47 491.251C965.63 486.977 971.732 475.836 977.092 466.004L977.241 465.733C978.204 463.979 979.167 462.2 980.131 460.422L987.097 447.453C992.186 438.09 992.754 434.261 992.038 430.827C991.296 426.875 988.629 425.195 986.875 424.084C985.318 423.12 984.404 422.527 984.083 420.946C983.935 420.032 984.528 417.858 985.738 415.907L988.925 410.843L977.117 413.14L976.524 414.153C975.882 415.24 974.4 417.809 975.042 421.169C975.314 422.601 975.882 423.812 976.796 424.825C971.658 434.113 962.221 450.293 955.502 461.607L952.587 466.548C936.678 493.276 929.07 499.749 925.463 500.44C924.796 500.564 924.599 500.44 924.574 500.44C924.525 500.416 924.426 500.267 924.352 499.897C923.734 496.76 928.551 488.336 933.64 479.393C935.641 475.886 937.716 472.254 939.791 468.376L940.038 467.931C950.191 449.528 953.995 442.635 952.538 435.126C951.599 430.309 948.116 427.764 943.645 428.629C938.185 429.691 930.799 435.99 921.585 447.428L941.668 409.682L930.083 411.93L903.922 461.113L903.774 461.336C876.7 504.294 865.732 512.051 861.631 512.841C860.914 512.989 860.544 512.915 860.42 512.841C860.371 512.841 860.272 512.668 860.198 512.248C859.581 509.062 864.398 500.564 869.511 491.572C871.438 488.163 873.439 484.63 875.465 480.876L876.28 479.393C886.111 461.632 889.792 454.962 888.335 447.527C887.618 443.895 884.876 440.017 879.466 441.079C874.007 442.141 866.621 448.441 857.407 459.878L877.49 422.132L865.904 424.38L839.67 473.687C813.164 516.596 802.245 524.377 798.095 525.168C797.601 525.267 797.329 525.217 797.255 525.168C797.255 525.168 797.156 525.069 797.107 524.748C796.193 520.104 802.961 507.456 811.509 491.424L833.494 450.417L821.785 452.69L816.548 462.521C816.523 462.25 816.474 462.003 816.425 461.756C816.005 459.656 815.165 457.976 813.905 456.815C812.126 455.16 809.73 454.616 806.84 455.185C797.527 456.988 783.693 471.612 774.133 485.297C761.164 501.997 741.723 523.538 725.987 533.937L723.369 535.568V541.595L728.927 538.433C741.55 530.948 752.839 519.906 760.794 511.063C759.064 517.065 758.62 522.574 759.509 527.169C760.917 534.432 765.166 538.112 770.872 537.001C776.332 535.938 782.68 530.528 789.721 520.944C789.696 522.278 789.795 523.513 790.017 524.699C790.215 525.736 790.758 527.688 792.117 529.269C793.871 531.294 796.316 532.06 799.207 531.492C803.579 530.652 809.038 526.502 815.486 519.19L768.649 607.231L780.235 604.983L832.679 506.394C833.124 505.727 833.741 504.763 834.507 503.578C864.867 456.667 876.28 448.317 880.38 447.527C880.949 447.428 881.196 447.477 881.22 447.477C881.22 447.477 881.294 447.551 881.344 447.848C881.887 450.639 877.095 458.964 872.031 467.758C869.98 471.316 867.658 475.342 865.361 479.591C856.147 496.685 851.774 505.233 853.182 512.52C853.602 514.373 854.838 516.398 854.838 516.398C855.332 517.065 855.9 517.634 856.567 518.103C858.271 519.289 860.322 519.659 862.668 519.215C867.313 518.301 873.217 513.73 880.282 505.554L832.778 594.83L844.364 592.582L896.808 493.968C897.252 493.301 897.87 492.362 898.636 491.152C928.996 444.241 940.408 435.892 944.509 435.101C945.077 435.002 945.324 435.052 945.349 435.052C945.349 435.052 945.423 435.126 945.473 435.398C946.016 438.214 941.199 446.613 936.11 455.58C934.134 459.063 931.886 462.991 929.638 467.116L929.193 467.956C920.893 483.371 915.878 492.684 917.311 499.971C917.509 501.157 918.225 504.096 920.72 505.801C922.326 506.912 924.253 507.258 926.427 506.838C937.469 504.689 952.612 479.048 959.084 468.104L959.133 468.03C959.924 466.696 960.566 465.609 961.06 464.819L963.333 461.014L964.222 459.483H964.197C970.126 449.33 977.488 436.262 981.638 428.16C983.342 428.975 983.984 429.419 984.182 430.358C984.478 431.89 983.515 434.632 977.29 446.168L970.25 459.261C961.554 475.317 957.923 483.716 959.306 491.226L959.627 492.659L959.825 493.276H959.899C960.344 494.413 960.937 495.401 961.653 496.241C963.481 498.316 966.05 499.156 968.891 498.612C974.918 497.451 983.416 489.225 994.187 474.181C994.014 475.812 993.964 477.343 994.014 478.776H993.767L994.36 481.864C995.743 488.978 1000.31 492.486 1006.61 491.251C1014.91 489.645 1025.26 480.505 1037.44 464.053C1037.15 466.326 1037.05 468.475 1037.17 470.476H1036.95L1037.54 473.564C1038.23 477.047 1039.62 479.665 1041.69 481.271C1043.84 482.951 1046.53 483.494 1049.72 482.877C1057.03 481.468 1065.92 474.132 1076.18 461.089C1075.48 464.152 1075.39 466.77 1075.85 469.166C1076.05 470.155 1076.57 472.032 1077.88 473.613C1079.66 475.737 1082.18 476.553 1085.14 475.984C1091.71 474.7 1100.66 466.202 1111.77 450.639C1111.5 453.579 1111.6 456.271 1112.04 458.742C1113.45 466.004 1117.7 469.66 1123.41 468.574C1128.87 467.511 1135.22 462.101 1142.26 452.517C1142.23 453.851 1142.33 455.086 1142.55 456.296C1142.75 457.284 1143.27 459.162 1144.55 460.718C1146.31 462.842 1148.78 463.658 1151.74 463.089C1157.92 461.904 1166.24 454.147 1176.52 440.042C1175.78 443.599 1175.65 446.637 1176.17 449.281L1176.3 449.75C1176.64 451.133 1177.56 453.702 1179.9 455.283C1181.68 456.469 1183.81 456.84 1186.25 456.37C1192.87 455.086 1201.81 446.786 1212.91 431.717C1212.73 433.322 1212.68 434.854 1212.76 436.287H1212.51L1213.1 439.375C1213.8 442.907 1215.2 445.526 1217.28 447.156C1219.43 448.861 1222.15 449.404 1225.33 448.787C1245.69 444.834 1273.95 394.267 1275.13 392.118L1275.45 391.525L1276.27 390.018V380.31L1275.45 381.496L1275.55 381.397ZM1258.8 373.912C1258.73 374.431 1258.48 375.345 1257.74 376.728C1252.9 385.621 1242.85 394.984 1236.72 400.27C1246.01 384.658 1253.94 375.172 1258.8 373.912ZM1040.06 416.401C1039.99 416.92 1039.76 417.834 1039 419.217C1034.16 428.085 1024.13 437.423 1018 442.734C1027.19 427.344 1035.29 417.661 1040.06 416.401ZM769.687 530.701C768.995 530.825 768.526 530.8 768.155 530.578C767.612 530.257 767.216 529.491 766.994 528.28C765.907 522.698 769.341 512.421 777.221 497.698C794.291 465.609 805.802 461.904 807.927 461.484C808.223 461.434 808.495 461.385 808.742 461.385C809.261 461.385 809.804 461.385 810.101 462.892C811.36 469.364 806.321 481.715 801.627 490.312L801.43 490.683C784.039 522.031 774.578 529.738 769.711 530.677L769.687 530.701ZM1122.27 462.175C1121.55 462.324 1120.99 462.25 1120.62 461.953C1120.15 461.583 1119.78 460.817 1119.55 459.755C1118.47 454.172 1121.9 443.895 1129.78 429.172C1146.85 397.083 1158.36 393.378 1160.49 392.958C1160.78 392.909 1161.05 392.859 1161.3 392.859C1161.82 392.859 1162.36 392.859 1162.66 394.366C1163.92 400.838 1158.88 413.19 1154.19 421.786L1154.01 422.083C1136.6 453.48 1127.14 461.187 1122.27 462.151V462.175Z" fill="black"/>
<path d="M1120.22 380.007C1121.21 380.674 1122.37 381.02 1123.53 381.02C1123.9 381.02 1124.3 380.971 1124.67 380.921C1126.22 380.625 1127.58 379.736 1128.47 378.402C1129.36 377.092 1129.68 375.536 1129.39 374.004C1128.77 370.793 1125.63 368.693 1122.42 369.311C1120.86 369.607 1119.53 370.497 1118.64 371.806C1117.75 373.115 1117.43 374.696 1117.75 376.252C1118.05 377.784 1118.94 379.093 1120.22 379.983V380.007Z" fill="black"/>
<path d="M1269.45 177.817L1269.4 177.891C1249.1 210.425 1233.9 227.865 1224.2 229.742C1222.81 230.014 1222.22 229.767 1222.02 229.668C1221.7 229.47 1221.45 228.976 1221.31 228.211C1220.39 223.665 1223.21 215.093 1229.66 202.717C1232.52 200.692 1268.78 174.408 1266.02 160.204C1265.4 157.017 1262.53 154.003 1257.77 154.942C1251.34 156.177 1243.07 164.971 1237.24 172.135C1230.87 179.991 1224 190.045 1219.35 198.37C1219.21 198.641 1219.06 198.938 1218.93 199.16C1195.71 234.411 1186.05 237.178 1185.02 237.375C1184.52 237.474 1184.25 237.425 1184.23 237.4C1184.23 237.4 1184.15 237.301 1184.13 237.104C1183.09 231.793 1192.58 214.006 1196.13 207.312L1229.75 144.295L1257.5 138.91L1255.96 131.005L1234.62 135.155L1242.18 121L1228.49 123.643L1191.24 193.478C1163.43 238.487 1153.05 243.576 1150.51 244.07C1150.48 244.07 1150.46 244.07 1150.43 244.07C1149.82 239.525 1156.44 227.124 1164.79 211.511L1187.59 168.998L1173.83 171.666L1169.48 179.842C1168.84 177.817 1167.72 176.26 1166.17 175.223C1164.27 173.938 1161.94 173.568 1159.25 174.087C1146.88 176.483 1126.99 200.79 1118.2 217.094C1095.22 252.395 1086.18 256.545 1083.98 256.965C1083.86 256.965 1083.78 256.99 1083.69 257.014C1083.07 253.309 1088.75 242.711 1097.32 226.753L1121.41 181.843L1107.6 184.536L1090.97 215.81C1082.99 228.26 1061.82 261.313 1048.56 263.882C1047.64 264.055 1046.9 264.005 1046.46 263.709C1045.99 263.412 1045.67 262.745 1045.47 261.782C1044.48 256.94 1048.31 245.873 1055.7 232.163C1068.07 209.239 1076.35 200.617 1081.59 197.826C1080.2 199.506 1079.63 201.482 1080.03 203.458C1080.67 206.719 1083.51 208.621 1086.77 207.979C1091 207.164 1094.68 202.124 1093.49 195.949C1093.15 194.121 1092.23 191.626 1089.86 190.02C1087.96 188.735 1085.61 188.365 1082.92 188.884C1070.15 191.354 1050.09 218.7 1044.33 229.841C1043.99 230.508 1043.64 231.2 1043.37 231.768C1022.67 263.141 1011.33 271.07 1005.45 272.207C1004.07 272.478 1003.48 272.231 1003.28 272.132C1002.96 271.935 1002.71 271.441 1002.56 270.675C1001.65 266.154 1004.46 257.558 1010.91 245.182C1013.78 243.156 1050.04 216.897 1047.27 202.668C1046.63 199.481 1043.79 196.492 1039.02 197.406C1033.17 198.542 1025.19 205.682 1015.33 218.626L1009.03 227.346C1006.46 231.101 1004.04 234.905 1002.07 238.314C978.402 274.924 969.731 279.099 967.631 279.519C967.434 279.543 967.335 279.519 967.36 279.543C967.36 279.543 967.285 279.42 967.236 279.247C966.47 275.245 972.745 263.783 977.784 254.544L977.932 254.272C978.896 252.518 979.859 250.74 980.823 248.961L987.789 235.992C993.001 226.407 993.569 222.43 992.804 218.824C992.013 214.525 989.049 212.648 987.27 211.536C985.763 210.597 985.072 210.153 984.849 208.967C984.75 208.325 985.22 206.349 986.405 204.496L990.58 197.851L976.574 200.568L975.808 201.902C975.116 203.063 973.511 205.805 974.227 209.461C974.499 210.845 975.017 212.03 975.783 213.043C970.596 222.405 961.283 238.314 954.761 249.332L951.846 254.272C935.246 282.162 928.082 287.251 925.266 287.794C925.192 287.794 925.142 287.794 925.093 287.819C924.623 284.904 929.539 276.283 934.307 267.933C936.308 264.425 938.383 260.794 940.483 256.915L940.73 256.471C950.982 237.869 954.835 230.928 953.304 223.097C952.291 217.885 948.338 215.019 943.472 215.958C938.852 216.847 932.948 221.319 925.859 229.248L943.2 196.665L929.564 199.308L903.255 248.763L903.107 248.986C875.193 293.278 864.694 299.503 861.483 300.146C861.285 300.195 861.112 300.195 860.989 300.22C860.421 297.329 865.411 288.56 870.203 280.087C872.13 276.678 874.131 273.145 876.156 269.39L876.972 267.908C886.902 249.949 890.632 243.23 889.125 235.498C888.705 233.299 887.668 231.348 886.21 230.063C884.407 228.458 882.011 227.89 879.318 228.408C874.699 229.298 868.795 233.769 861.705 241.698L879.047 209.115L865.411 211.759L839.028 261.362C811.706 305.605 801.208 311.855 797.972 312.472C797.947 312.472 797.922 312.472 797.898 312.472C797.305 307.902 804.246 294.909 812.25 279.914L835.051 237.4L821.291 240.068L816.919 248.294C816.4 246.664 815.585 245.33 814.498 244.317C812.522 242.489 809.903 241.871 806.716 242.489C797.181 244.342 783.15 259.114 773.516 272.898C760.596 289.548 741.204 311.015 725.543 321.365L723.394 322.922V330.752L729.372 327.195C741.18 320.204 751.827 310.076 759.237 302.048C758.175 306.964 758.002 311.509 758.743 315.387C759.46 319.117 760.967 322.082 763.091 323.885C765.265 325.762 768.007 326.429 771.07 325.837C776.381 324.799 782.409 319.908 789.029 311.311C789.079 311.855 789.153 312.373 789.252 312.892C789.474 314.004 790.042 316.128 791.524 317.833C793.476 320.081 796.193 320.945 799.38 320.328C802.937 319.636 807.136 316.919 811.929 312.176L767.118 396.388L780.754 393.745L833.346 294.884C833.791 294.217 834.408 293.253 835.174 292.068C866.498 243.65 877.317 236.98 880.529 236.363H880.578C880.652 239.228 875.712 247.8 871.315 255.433C869.264 258.99 866.942 263.017 864.645 267.241C855.332 284.509 850.91 293.155 852.392 300.738C853.01 303.382 854.764 305.63 854.764 305.63C855.184 306.074 855.628 306.469 856.098 306.815C858 308.125 860.248 308.545 862.817 308.05C866.646 307.309 871.24 304.222 876.552 298.836L831.246 383.987L844.882 381.344L897.475 282.458C897.92 281.791 898.537 280.828 899.303 279.642C930.626 231.224 941.446 224.555 944.658 223.937C944.658 223.937 944.682 223.937 944.707 223.937C944.756 226.827 939.791 235.523 935.394 243.23C933.418 246.713 931.17 250.641 928.922 254.791L928.477 255.631C920.103 271.194 915.039 280.606 916.496 288.165C916.719 289.449 917.509 292.636 920.226 294.538C922.03 295.773 924.154 296.168 926.55 295.699C937.963 293.476 953.229 267.612 959.751 256.57L959.8 256.495C960.591 255.186 961.209 254.099 961.727 253.284L964.025 249.48L965.655 246.614C970.769 237.82 977.759 225.493 981.984 217.292C983.071 217.86 983.293 218.107 983.367 218.577C983.614 219.861 982.601 222.652 976.549 233.843L969.509 246.935C960.714 263.165 957.034 271.712 958.491 279.469L958.837 280.951L959.035 281.569L959.282 282.137H959.331C959.776 283.15 960.344 284.064 961.036 284.83C963.061 287.127 965.902 288.066 969.039 287.448C974.943 286.312 983.071 278.753 993.174 264.969C993.174 265.314 993.174 265.66 993.174 266.006H992.754L993.545 270.057C994.261 273.738 995.842 276.628 998.139 278.382C1000.46 280.161 1003.43 280.754 1006.74 280.111C1014.81 278.53 1024.77 270.057 1036.33 254.914C1036.28 255.878 1036.26 256.817 1036.31 257.731H1035.96L1036.75 261.782C1037.47 265.463 1038.97 268.229 1041.2 269.983C1043.54 271.811 1046.46 272.404 1049.87 271.737C1056.88 270.379 1065.28 263.758 1074.87 252.074C1074.67 253.976 1074.74 255.73 1075.06 257.385C1075.26 258.447 1075.83 260.473 1077.26 262.202C1079.24 264.573 1082.03 265.487 1085.29 264.845C1091.74 263.585 1100.31 255.73 1110.81 241.427C1110.78 243.378 1110.93 245.231 1111.25 246.96C1112.76 254.717 1117.38 258.62 1123.56 257.434C1128.87 256.397 1134.89 251.505 1141.52 242.909C1141.56 243.452 1141.64 243.971 1141.74 244.515C1141.94 245.577 1142.5 247.602 1143.91 249.307C1145.86 251.678 1148.6 252.592 1151.89 251.95C1157.84 250.789 1165.67 243.823 1175.19 231.249C1174.94 233.546 1175.01 235.622 1175.38 237.548L1175.51 238.018C1175.88 239.525 1176.89 242.316 1179.43 244.021C1181.39 245.354 1183.73 245.75 1186.4 245.231C1192.87 243.971 1201.44 236.313 1211.92 222.48C1211.92 222.85 1211.92 223.196 1211.92 223.542H1211.52L1212.31 227.593C1213.03 231.323 1214.54 234.09 1216.78 235.869C1219.13 237.721 1222.07 238.314 1225.5 237.647C1246.23 233.621 1274.66 182.757 1275.87 180.583L1276.29 179.818V166.775L1269.38 177.841L1269.45 177.817ZM1257.54 163.489C1257.42 163.785 1257.25 164.156 1257.03 164.551C1253.96 170.159 1248.21 176.903 1240.25 184.239C1247.27 173.074 1253.37 165.762 1257.52 163.514L1257.54 163.489ZM1038.8 206.027C1038.68 206.324 1038.5 206.67 1038.31 207.065C1035.27 212.648 1029.54 219.367 1021.61 226.679C1028.52 215.736 1034.7 208.325 1038.8 206.052V206.027ZM769.539 318.105C768.847 318.253 768.625 318.105 768.575 318.105C768.427 318.006 768.032 317.66 767.785 316.351C766.722 310.965 770.156 300.862 777.938 286.312C794.834 254.544 806.025 250.913 808.1 250.517C808.347 250.468 808.569 250.443 808.742 250.443C808.841 250.443 808.964 250.443 808.989 250.443C808.989 250.443 809.137 250.567 809.286 251.258C810.496 257.533 805.531 269.662 800.887 278.135L800.689 278.506C782.532 311.212 773.368 317.363 769.539 318.105ZM1122.12 249.603C1121.65 249.702 1121.28 249.677 1121.11 249.529C1121.11 249.529 1120.62 249.06 1120.37 247.825C1119.31 242.44 1122.74 232.336 1130.52 217.786C1147.42 186.018 1158.61 182.387 1160.68 181.991C1160.93 181.942 1161.15 181.917 1161.33 181.917C1161.43 181.917 1161.55 181.917 1161.57 181.917C1161.57 181.917 1161.72 182.041 1161.87 182.733C1163.08 189.007 1158.12 201.136 1153.47 209.609L1153.3 209.906C1135.12 242.662 1125.95 248.813 1122.12 249.554V249.603Z" fill="black"/>
<path d="M1119.78 168.894C1120.89 169.66 1122.2 170.055 1123.56 170.055C1124 170.055 1124.42 170.006 1124.84 169.931C1126.62 169.586 1128.15 168.573 1129.16 167.091C1130.18 165.608 1130.52 163.83 1130.2 162.076C1129.49 158.445 1125.95 156.048 1122.3 156.74C1120.54 157.086 1119.01 158.099 1118 159.581C1116.99 161.088 1116.61 162.866 1116.96 164.645C1117.31 166.374 1118.29 167.881 1119.78 168.894Z" fill="black"/>
</svg>
