<svg width="2000" height="1572" viewBox="0 0 2000 1572" fill="none" xmlns="http://www.w3.org/2000/svg">
<rect width="2000" height="1572" fill="#EFEDDE"/>
<path d="M1279.77 464.757C1280.14 466.655 1280.92 467.954 1282.09 468.656C1283.31 469.383 1285 469.539 1287.13 469.124C1301.53 466.317 1323.49 441.419 1352.39 395.132L1375.62 357.942L1350.41 332.732L1292.59 343.959L1244.79 433.518C1235.05 451.789 1226.21 469.747 1227.67 477.18C1227.85 478.168 1228.32 478.947 1228.99 479.389C1229.77 479.909 1230.91 480.065 1232.27 479.805C1236.84 478.921 1250.85 471.774 1281.75 424.864C1281.88 424.604 1282.11 424.162 1282.37 423.72C1288.82 412.181 1298.3 398.251 1307.17 387.361C1315.02 377.693 1326.09 365.842 1334.27 364.257C1339.08 363.321 1341.86 366.154 1342.51 369.377C1345.45 384.425 1308.26 415.82 1292.12 426.475C1282.5 444.772 1278.37 457.636 1279.8 464.731L1279.77 464.757Z" fill="black"/>
<path d="M656.968 528.717C670.197 509.797 689.195 489.577 701.8 487.134C705.334 486.458 708.167 487.082 710.246 488.979C711.754 490.357 712.767 492.384 713.261 494.983C713.703 497.244 713.703 499.869 713.235 502.936L723.579 483.47L735.664 481.131L706.53 535.474C693.431 560.008 684.777 576.199 686.154 583.32C686.31 584.178 686.674 584.75 687.194 585.061C687.74 585.399 688.545 585.451 689.559 585.269C700.396 583.164 720.382 558.604 748.996 512.318L785.433 443.81L797.362 441.497L760.431 510.914C783.952 477.518 796.842 468.708 803.625 467.382C811.63 465.823 813.631 472.866 814.073 475.075C815.996 484.899 810.902 494.073 797.336 518.607L796.193 520.66C793.36 525.936 790.553 530.874 787.85 535.656C779.897 549.664 773.608 560.71 774.622 565.803C774.803 566.739 775.167 567.389 775.713 567.727C776.363 568.142 777.35 568.22 778.624 567.961C789.357 565.881 809.629 541.322 838.841 494.983L839.049 494.671L875.408 426.345L887.337 424.032L850.406 493.449C873.926 460.053 886.817 451.243 893.6 449.918C898.98 448.878 902.904 451.763 904.048 457.688C905.971 467.616 900.747 477.128 886.713 502.546L886.375 503.169C883.464 508.575 880.554 513.669 877.747 518.581C869.82 532.485 863.557 543.479 864.518 548.495C864.7 549.43 865.064 550.054 865.636 550.392C866.208 550.73 867.039 550.808 868.105 550.6C876.109 549.04 889.806 531.913 908.778 499.713L911.351 495.347C921.149 478.844 934.819 455.401 941.862 442.615C940.329 441.237 939.393 439.548 938.977 437.443C938.198 433.362 940.043 430.166 940.849 428.814L941.29 428.061L953.219 425.748L950.854 429.516C949.347 431.933 947.944 435.623 948.281 437.755C948.879 440.717 950.698 441.861 952.986 443.29C955.48 444.85 958.573 446.825 959.457 451.633C960.392 456.077 959.613 461.145 952.726 473.828L942.954 492.02C941.576 494.567 940.199 497.088 938.847 499.583L938.691 499.869C930.271 515.254 922.318 529.808 923.618 536.41C923.8 537.345 924.241 538.125 924.891 538.593C925.567 539.087 926.476 539.242 927.49 539.035C933.753 537.813 947.502 526.586 977.623 480.013C980.43 475.231 983.783 469.929 987.343 464.705L990.982 458.884C990.982 458.884 1016.48 426.085 1027.57 423.928C1032.69 422.941 1035.22 426.059 1035.81 429.048C1038.75 444.122 1001.59 475.491 985.42 486.172C975.804 504.469 971.672 517.334 973.101 524.429C973.465 526.326 974.245 527.625 975.414 528.327C976.636 529.055 978.325 529.211 980.456 528.795C993.035 526.352 1012.08 506.262 1035.58 470.657C1035.94 469.903 1036.44 468.89 1036.96 467.876C1044.83 452.646 1072.07 415.248 1089.06 411.947C1092.11 411.35 1094.68 411.739 1096.68 413.117C1099.17 414.806 1100.16 417.561 1100.55 419.588C1101.9 426.579 1097.95 432.219 1093.38 433.128C1090.36 433.726 1087.87 432.011 1087.27 429.022C1086.54 425.28 1089.45 421.563 1094.7 419.432C1094.47 418.834 1094.08 418.185 1093.48 417.795C1092.68 417.249 1091.53 417.145 1090.05 417.431C1082.59 418.886 1069.24 428.918 1047.87 468.448C1037.06 488.511 1031.73 504.339 1033.27 511.876C1033.68 514.033 1034.57 515.54 1035.89 516.398C1037.16 517.204 1038.91 517.437 1040.93 517.048C1060.74 513.201 1090.91 466.109 1102.27 448.384L1125.03 405.528L1137.2 403.163L1106.27 460.859C1092.57 486.38 1085.71 499.167 1086.88 505.275C1086.99 505.846 1087.27 506.652 1087.92 507.094C1088.52 507.51 1089.43 507.588 1090.6 507.38C1097.2 506.106 1111.18 495.139 1140.42 450.229C1152.53 427.749 1179.61 394.379 1196.14 391.156C1199.18 390.558 1201.73 390.948 1203.73 392.299C1205.76 393.677 1207.08 395.912 1207.68 399.005C1208.12 401.24 1208.1 403.839 1207.63 406.879L1217.92 387.517L1230 385.178L1200.84 439.522C1187.28 464.913 1179.09 480.247 1180.47 487.368C1180.68 488.434 1181.25 489.811 1183.87 489.291C1191.31 487.836 1207.58 474.139 1242.84 417.067L1309.56 292.007L1302.85 285.302H697.148L605.198 377.148V584.802C623.494 568.896 642.934 546.805 656.968 528.743V528.717ZM1140.03 369.533C1141.02 368.077 1142.5 367.09 1144.24 366.752C1147.83 366.05 1151.31 368.415 1151.98 371.976C1152.32 373.665 1151.96 375.406 1150.97 376.862C1149.98 378.343 1148.48 379.331 1146.74 379.669C1146.32 379.747 1145.88 379.799 1145.46 379.799C1144.14 379.799 1142.86 379.409 1141.77 378.655C1140.32 377.667 1139.35 376.212 1139.02 374.523C1138.68 372.782 1139.02 371.04 1140.03 369.559V369.533Z" fill="black"/>
<path d="M1295.94 337.618L1345.63 327.976L1316.6 298.92L1295.94 337.618Z" fill="black"/>
<path d="M1201.99 399.888C1201.52 397.471 1200.43 396.406 1198.43 396.406C1197.99 396.406 1197.49 396.458 1196.97 396.562C1193.85 397.159 1177.01 402.513 1152.71 448.202C1141.49 469.176 1136.6 483.989 1138.21 492.202C1138.6 494.151 1139.3 495.529 1140.34 496.308C1141.28 497.01 1142.5 497.218 1144.01 496.932C1154.45 494.905 1169.81 475.725 1189.67 439.912L1189.9 439.47C1196.63 427.151 1203.83 409.4 1201.96 399.862L1201.99 399.888Z" fill="black"/>
<path d="M1336.82 370.416C1336.69 369.819 1336.48 369.637 1335.91 369.637C1335.7 369.637 1335.49 369.663 1335.23 369.715C1327.07 371.3 1313.51 388.141 1297.81 416.028C1308.39 407.295 1326.81 391.546 1335.13 376.264C1337.05 372.729 1336.92 370.91 1336.82 370.416Z" fill="black"/>
<path d="M649.691 592.988C660.113 590.961 675.473 571.807 695.302 536.046L695.588 535.526C702.32 523.207 709.519 505.456 707.647 495.918C707.179 493.501 706.088 492.436 704.087 492.436C703.645 492.436 703.151 492.488 702.631 492.592C699.513 493.19 682.672 498.543 658.372 544.232C647.144 565.206 642.258 580.019 643.87 588.232C644.597 592.026 646.495 593.586 649.665 592.962L649.691 592.988Z" fill="black"/>
<path d="M606.679 590.103L672.51 655.934L723.839 559.462C709.83 578.616 698.603 589.116 690.416 590.701C687.012 591.377 684.127 590.493 682.1 588.128C680.437 586.231 679.787 583.788 679.527 582.514C678.877 579.136 679.033 575.315 680.047 570.871C671.886 582.956 660.711 596.471 650.679 598.42C643.532 599.797 638.594 595.405 636.749 585.997C635.137 577.758 636.801 567.181 641.375 555.927C632.435 566.531 620.402 579.318 606.627 590.103H606.679Z" fill="black"/>
<path d="M815.035 539.684C799.987 560.398 788.032 571.729 779.455 573.392C776.623 573.938 774.18 573.522 772.204 572.119C770.723 571.079 769.761 569.65 769.19 568.454L768.462 566.791L768.176 565.362C766.305 555.72 772.334 543.946 785.069 520.322C788.292 514.423 791.54 508.757 794.399 503.793C802.3 490.071 808.537 479.259 807.628 474.711C807.472 473.932 807.16 473.386 806.692 473.1C806.146 472.762 805.315 472.71 804.249 472.918C793.568 474.997 771.529 501.688 738.808 552.263C737.717 553.952 736.859 555.278 736.235 556.213L679.475 662.925L697.096 680.546H742.265L815.009 539.684H815.035Z" fill="black"/>
<path d="M1356.62 396.016C1354.96 399.005 1315.72 469.227 1287.96 474.607C1283.98 475.387 1280.66 474.737 1278.03 472.684C1275.43 470.657 1273.67 467.33 1272.81 462.782L1272.37 460.495H1272.5C1272.06 456.155 1272.5 450.983 1273.82 445.369C1261.5 462.886 1245.05 482.976 1233.2 485.289C1230.24 485.861 1227.67 485.445 1225.56 484.015C1222.78 482.118 1221.64 478.973 1221.22 477.258L1221.06 476.608C1219.97 471.073 1221.06 463.874 1224.36 454.726C1207.47 479.441 1194.17 492.878 1184.81 494.697C1181.3 495.373 1178.39 494.437 1176.36 491.968C1174.8 490.071 1174.15 487.732 1173.92 486.51C1173.27 483.132 1173.43 479.285 1174.44 474.841C1166.28 486.926 1155.1 500.441 1145.07 502.39C1137.92 503.793 1132.99 499.375 1131.14 489.967C1130.15 484.769 1130.44 478.532 1131.95 471.852C1114.61 497.166 1100.97 510.94 1091.4 512.811C1087.9 513.487 1084.93 512.552 1082.85 510.057C1081.24 508.133 1080.62 505.82 1080.38 504.599C1079.37 499.401 1080.44 493.086 1083.87 484.535C1067.13 507.536 1052.97 520.27 1041.74 522.453C1037.79 523.233 1034.49 522.583 1031.89 520.556C1029.32 518.529 1027.55 515.254 1026.69 510.758L1026.25 508.471H1026.35C1025.73 503.247 1026.3 497.192 1028.04 490.435C1014.68 509.407 996.388 531.29 981.314 534.201C973.335 535.76 967.929 531.55 966.162 522.375L965.72 520.088H965.85C965.382 515.67 965.876 510.394 967.254 504.625C950.309 529.367 937.262 542.777 928.452 544.492C925.099 545.142 922.058 544.154 919.901 541.711C918.55 540.178 917.77 538.359 917.354 536.981H917.328L917.198 536.54L916.964 535.448C915.119 525.494 920.161 513.955 932.142 491.812L942.018 473.464C951.114 456.623 952.362 452.802 951.842 450.151C951.374 447.734 949.451 446.825 946.8 445.603C946.488 445.447 946.15 445.291 945.839 445.135C939.757 457.194 927.75 478.402 918.784 493.683L918.16 494.775L916.263 497.92C915.561 499.063 914.651 500.596 913.56 502.442L913.482 502.546C904.542 517.697 883.568 553.199 868.858 556.057C866.26 556.551 863.998 556.161 862.153 554.862C859.216 552.835 858.333 549.248 858.099 547.793C856.228 538.125 863.141 525.286 874.602 504.001L875.226 502.832C878.371 497.062 881.515 491.526 884.296 486.64C892.223 472.762 898.486 461.795 897.603 457.246C897.447 456.467 897.135 455.921 896.667 455.635C896.121 455.297 895.289 455.245 894.224 455.453C883.542 457.532 861.529 484.223 828.809 534.798C827.718 536.488 826.86 537.813 826.236 538.749L753.051 680.546H1302.88L1394.83 588.596V377.148L1376.97 359.293L1356.65 396.016H1356.62Z" fill="black"/>
<path d="M1030.12 430.01C1030.07 429.672 1029.94 429.438 1029.78 429.334C1029.71 429.282 1029.52 429.204 1029.19 429.204C1028.98 429.204 1028.77 429.204 1028.51 429.282C1020.51 430.841 1006.58 448.098 991.086 475.595C1001.66 466.862 1020.12 451.087 1028.41 435.831C1030.33 432.271 1030.2 430.478 1030.1 430.01H1030.12Z" fill="black"/>
<path d="M1305.01 685.77H694.991L600 590.779V374.991L694.991 280H1305.01L1400 374.991V590.779L1305.01 685.77ZM699.279 675.374H1300.7L1389.58 586.491V379.279L1300.7 290.396H699.279L610.396 379.279V586.465L699.279 675.348V675.374Z" fill="black"/>
<path d="M954.025 989.181C952.622 980.396 947.45 975.77 937.496 977.355C920.473 980.032 880.476 1003.79 827.354 1095.92C803.626 1136.85 785.875 1176.51 789.565 1199.98C791.437 1211.52 798.168 1216.79 807.784 1215.23V1215.13C837.359 1210.43 879.202 1154.97 922.24 1083.18C937.288 1057.77 958.001 1014.26 954.025 989.207V989.181Z" fill="black"/>
<path d="M1148.32 890.993H697.148L605.198 982.943V1194.44L697.148 1286.39H920.031L1148.32 891.019V890.993ZM881.801 1188.13C878.916 1169.65 887.986 1146.83 903.242 1117.62C873.043 1168.17 836.138 1214.56 808.433 1218.98C788.188 1222.23 783.562 1201.41 782.21 1192.73C778.52 1169.16 787.2 1137.19 805.289 1105.87C809.447 1098.67 814.229 1091.01 819.609 1083.05C783.562 1128.9 728.517 1187.3 668.923 1219.91L668.534 1219.45C723.683 1185.71 791.67 1113.9 832.603 1064.84C865.688 1020.94 909.765 977.797 937.392 973.457C952.44 971.066 956.962 980.656 958.235 988.895C960.73 1004.59 952.05 1029.28 938.016 1057.19L990.384 966.362L1007.2 963.685L939.835 1079.47C905.087 1139.45 885.258 1173.99 888.116 1191.92C888.948 1197.09 892.639 1201.72 900.955 1200.42H900.877C942.174 1193.87 1029.19 1061.64 1050.08 1030.4V1031.41C1029.97 1065.04 945.968 1197.2 901.267 1204.32C886.479 1206.63 882.711 1193.87 881.775 1188.15L881.801 1188.13Z" fill="black"/>
<path d="M1302.88 890.993H1163.29L1034.41 1114.21C1059.72 1074.76 1151.02 939.567 1195.26 932.55C1209.5 930.237 1212.9 942.244 1213.74 947.52C1217.17 969.507 1203.86 991.052 1169.11 1048.98C1140.65 1097.76 1111.83 1137.24 1114.72 1155.15C1115.73 1161.9 1120.23 1165.6 1128.91 1164.19C1170.13 1157.72 1258.83 1025.2 1280.16 993.885V994.898C1259.74 1028.27 1173.92 1161.05 1129.01 1168.17C1113.47 1170.66 1109.23 1157.72 1108.58 1152.37C1105.15 1130.93 1120.88 1103.38 1150.89 1052.1C1180.99 1001.08 1210.28 961.554 1207.63 944.895C1206.61 938.71 1202.17 935.565 1194.76 936.76H1194.87C1151.7 943.596 1045.3 1101.25 1027.29 1126.66L935.027 1286.32H1302.83L1394.78 1194.37V982.891L1302.83 890.941L1302.88 890.993Z" fill="black"/>
<path d="M1305.01 1291.54H694.991L600 1196.55V980.76L694.991 885.77H1305.01L1400 980.76V1196.55L1305.01 1291.54ZM699.305 1281.14H1300.72L1389.6 1192.26V985.074L1300.72 896.191H699.305L610.422 985.074V1192.26L699.305 1281.14Z" fill="black"/>
</svg>
