<svg width="1080" height="241" viewBox="0 0 1080 241" fill="none" xmlns="http://www.w3.org/2000/svg">
<path d="M358 90H362V150H358V90Z" fill="#303A3F"/>
<path d="M358 90H362V150H358V90Z" fill="url(#paint0_linear_549_12536)"/>
<path d="M238.03 90V150H242.03V90H238.03Z" fill="#303A3F"/>
<path d="M238.03 90V150H242.03V90H238.03Z" fill="url(#paint1_linear_549_12536)"/>
<path fill-rule="evenodd" clip-rule="evenodd" d="M58 0V58H0V62H58V178H0V182H58V240.03H62V182H178V240.03H182V182H298V240.03H302V182H418V240.03H422V182H538V240.03H542V182H658V240.03H662V182H778V240.03H782V182H898V240.03H902V182H1018V240.03H1022V182H1080V178H1022V62H1080V58H1022V0H1018V58H902V0H898V58H782V0H778V58H662V0H658V58H542V0H538V58H422V0H418V58H302V0H298V58H182V0H178V58H62V0H58ZM778 62H662V118H697V122H662V178H778V122H738V118H778V62ZM782 178H898V102H858.03V98H898V62H782V138H822V142H782V178ZM1018 102V178H962.03V102H1018ZM1018 62V98H962.03V62H1018ZM958.03 62H902V98H958.03V62ZM958.03 102H902V178H958.03V102ZM418 178H302V62H418V178ZM182 178H298V62H182V178ZM658 62H602.03V118H658V62ZM658 122H598.03V62H542V178H658V122ZM538 178H422V62H538L480 120L538 178ZM538 172.34V67.6602L485.66 120L538 172.34ZM178 62V94.1602L154.16 118H62V62H178ZM62 122V178H178V145.869L154.139 122H62ZM178 140.21L157.8 120.01L178 99.8193V140.21Z" fill="#303A3F"/>
<path fill-rule="evenodd" clip-rule="evenodd" d="M58 0V58H0V62H58V178H0V182H58V240.03H62V182H178V240.03H182V182H298V240.03H302V182H418V240.03H422V182H538V240.03H542V182H658V240.03H662V182H778V240.03H782V182H898V240.03H902V182H1018V240.03H1022V182H1080V178H1022V62H1080V58H1022V0H1018V58H902V0H898V58H782V0H778V58H662V0H658V58H542V0H538V58H422V0H418V58H302V0H298V58H182V0H178V58H62V0H58ZM778 62H662V118H697V122H662V178H778V122H738V118H778V62ZM782 178H898V102H858.03V98H898V62H782V138H822V142H782V178ZM1018 102V178H962.03V102H1018ZM1018 62V98H962.03V62H1018ZM958.03 62H902V98H958.03V62ZM958.03 102H902V178H958.03V102ZM418 178H302V62H418V178ZM182 178H298V62H182V178ZM658 62H602.03V118H658V62ZM658 122H598.03V62H542V178H658V122ZM538 178H422V62H538L480 120L538 178ZM538 172.34V67.6602L485.66 120L538 172.34ZM178 62V94.1602L154.16 118H62V62H178ZM62 122V178H178V145.869L154.139 122H62ZM178 140.21L157.8 120.01L178 99.8193V140.21Z" fill="url(#paint2_linear_549_12536)"/>
<defs>
<linearGradient id="paint0_linear_549_12536" x1="540" y1="0" x2="540" y2="240.03" gradientUnits="userSpaceOnUse">
<stop stop-color="#F7F6F2" stop-opacity="0.4"/>
<stop offset="0.2" stop-color="#303A3F"/>
<stop offset="0.5" stop-color="#303A3F"/>
<stop offset="0.8" stop-color="#303A3F"/>
<stop offset="1" stop-color="#F7F6F2" stop-opacity="0.4"/>
</linearGradient>
<linearGradient id="paint1_linear_549_12536" x1="540" y1="0" x2="540" y2="240.03" gradientUnits="userSpaceOnUse">
<stop stop-color="#F7F6F2" stop-opacity="0.4"/>
<stop offset="0.2" stop-color="#303A3F"/>
<stop offset="0.5" stop-color="#303A3F"/>
<stop offset="0.8" stop-color="#303A3F"/>
<stop offset="1" stop-color="#F7F6F2" stop-opacity="0.4"/>
</linearGradient>
<linearGradient id="paint2_linear_549_12536" x1="540" y1="0" x2="540" y2="240.03" gradientUnits="userSpaceOnUse">
<stop stop-color="#F7F6F2" stop-opacity="0.4"/>
<stop offset="0.2" stop-color="#303A3F"/>
<stop offset="0.5" stop-color="#303A3F"/>
<stop offset="0.8" stop-color="#303A3F"/>
<stop offset="1" stop-color="#F7F6F2" stop-opacity="0.4"/>
</linearGradient>
</defs>
</svg>
