<svg width="1000" height="74" viewBox="0 0 1000 74" fill="none" xmlns="http://www.w3.org/2000/svg">
<path d="M920.408 7H916.904V6.544H918.392V2.52H916.992V2.072H917.496C917.856 2.072 918.096 2.032 918.248 1.872C918.416 1.704 918.464 1.472 918.472 1.048H918.936V6.544H920.408V7ZM922.461 2.984H921.925C921.893 1.704 922.725 0.984 923.789 0.984C925.021 0.984 925.589 1.768 925.589 2.592C925.589 3.376 925.261 3.888 924.397 4.712L923.309 5.752C922.757 6.272 922.517 6.496 922.517 6.496V6.52H925.701V7H921.805V6.536L923.909 4.488C924.661 3.76 925.029 3.36 925.029 2.616C925.029 1.92 924.549 1.448 923.805 1.448C923.021 1.448 922.453 1.936 922.461 2.984ZM928.354 7V6.08H929.234V7H928.354ZM932.104 2.544C932.104 1.688 932.768 0.984 933.904 0.984C935.048 0.984 935.704 1.688 935.704 2.544C935.704 3.32 935.216 3.784 934.696 3.936V3.968C935.192 4.064 935.888 4.504 935.888 5.472C935.888 6.456 935.16 7.12 933.904 7.128C932.648 7.136 931.936 6.456 931.936 5.472C931.936 4.496 932.656 4.064 933.128 3.968V3.936C932.608 3.792 932.104 3.32 932.104 2.544ZM933.904 1.424C933.256 1.424 932.664 1.776 932.664 2.584C932.664 3.384 933.272 3.736 933.904 3.736C934.528 3.736 935.144 3.384 935.144 2.584C935.144 1.776 934.536 1.424 933.904 1.424ZM933.904 6.688C934.688 6.688 935.32 6.328 935.32 5.448C935.32 4.568 934.664 4.192 933.904 4.192C933.168 4.192 932.504 4.568 932.504 5.448C932.504 6.328 933.136 6.688 933.904 6.688Z" fill="white"/>
<path d="M820.752 2.544C820.752 1.688 821.416 0.984 822.552 0.984C823.696 0.984 824.352 1.688 824.352 2.544C824.352 3.32 823.864 3.784 823.344 3.936V3.968C823.84 4.064 824.536 4.504 824.536 5.472C824.536 6.456 823.808 7.12 822.552 7.128C821.296 7.136 820.584 6.456 820.584 5.472C820.584 4.496 821.304 4.064 821.776 3.968V3.936C821.256 3.792 820.752 3.32 820.752 2.544ZM822.552 1.424C821.904 1.424 821.312 1.776 821.312 2.584C821.312 3.384 821.92 3.736 822.552 3.736C823.176 3.736 823.792 3.384 823.792 2.584C823.792 1.776 823.184 1.424 822.552 1.424ZM822.552 6.688C823.336 6.688 823.968 6.328 823.968 5.448C823.968 4.568 823.312 4.192 822.552 4.192C821.816 4.192 821.152 4.568 821.152 5.448C821.152 6.328 821.784 6.688 822.552 6.688Z" fill="white"/>
<path d="M748.424 2.304H747.888C747.792 1.864 747.456 1.432 746.72 1.432C745.552 1.432 745.16 2.552 745.144 4.168H745.168C745.432 3.624 745.96 3.216 746.744 3.216C747.688 3.216 748.584 3.776 748.584 5.136C748.584 6.256 747.856 7.12 746.632 7.12C745.504 7.12 744.592 6.488 744.592 4.352C744.592 2.048 745.376 0.984 746.736 0.984C747.8 0.984 748.32 1.616 748.424 2.304ZM746.64 6.664C747.384 6.664 748.024 6.144 748.024 5.176C748.024 4.176 747.432 3.688 746.632 3.688C745.808 3.688 745.248 4.208 745.248 5.128C745.248 6.072 745.824 6.664 746.64 6.664ZM751.237 7V6.08H752.117V7H751.237ZM756.874 4.224H756.33V3.744H756.85C757.658 3.744 758.042 3.184 758.042 2.568C758.042 1.888 757.57 1.456 756.826 1.456C756.058 1.456 755.578 1.832 755.546 2.744H755.01C755.002 1.784 755.61 0.984 756.842 0.984C757.89 0.984 758.594 1.584 758.594 2.504C758.594 3.232 758.194 3.72 757.554 3.936V3.952C758.242 4.104 758.754 4.568 758.754 5.416C758.754 6.36 757.994 7.12 756.802 7.12C755.434 7.12 754.914 6.28 754.866 5.36H755.402C755.482 6.216 755.97 6.656 756.842 6.656C757.61 6.656 758.194 6.184 758.194 5.408C758.194 4.592 757.642 4.224 756.874 4.224Z" fill="white"/>
<path d="M701.608 5.496H700.784V7H700.248V5.496H697.472V5.056L700.12 1.072H700.784V5.024H701.608V5.496ZM698.032 5.032H700.248V1.64H700.216C700.216 1.64 700.072 1.984 699.816 2.36L698.032 5.032Z" fill="white"/>
<path d="M644.424 2.304H643.888C643.792 1.864 643.456 1.432 642.72 1.432C641.552 1.432 641.16 2.552 641.144 4.168H641.168C641.432 3.624 641.96 3.216 642.744 3.216C643.688 3.216 644.584 3.776 644.584 5.136C644.584 6.256 643.856 7.12 642.632 7.12C641.504 7.12 640.592 6.488 640.592 4.352C640.592 2.048 641.376 0.984 642.736 0.984C643.8 0.984 644.32 1.616 644.424 2.304ZM642.64 6.664C643.384 6.664 644.024 6.144 644.024 5.176C644.024 4.176 643.432 3.688 642.632 3.688C641.808 3.688 641.248 4.208 641.248 5.128C641.248 6.072 641.824 6.664 642.64 6.664ZM647.237 7V6.08H648.117V7H647.237ZM652.874 4.224H652.33V3.744H652.85C653.658 3.744 654.042 3.184 654.042 2.568C654.042 1.888 653.57 1.456 652.826 1.456C652.058 1.456 651.578 1.832 651.546 2.744H651.01C651.002 1.784 651.61 0.984 652.842 0.984C653.89 0.984 654.594 1.584 654.594 2.504C654.594 3.232 654.194 3.72 653.554 3.936V3.952C654.242 4.104 654.754 4.568 654.754 5.416C654.754 6.36 653.994 7.12 652.802 7.12C651.434 7.12 650.914 6.28 650.866 5.36H651.402C651.482 6.216 651.97 6.656 652.842 6.656C653.61 6.656 654.194 6.184 654.194 5.408C654.194 4.592 653.642 4.224 652.874 4.224Z" fill="white"/>
<path d="M581.424 2.304H580.888C580.792 1.864 580.456 1.432 579.72 1.432C578.552 1.432 578.16 2.552 578.144 4.168H578.168C578.432 3.624 578.96 3.216 579.744 3.216C580.688 3.216 581.584 3.776 581.584 5.136C581.584 6.256 580.856 7.12 579.632 7.12C578.504 7.12 577.592 6.488 577.592 4.352C577.592 2.048 578.376 0.984 579.736 0.984C580.8 0.984 581.32 1.616 581.424 2.304ZM579.64 6.664C580.384 6.664 581.024 6.144 581.024 5.176C581.024 4.176 580.432 3.688 579.632 3.688C578.808 3.688 578.248 4.208 578.248 5.128C578.248 6.072 578.824 6.664 579.64 6.664ZM584.237 7V6.08H585.117V7H584.237ZM589.874 4.224H589.33V3.744H589.85C590.658 3.744 591.042 3.184 591.042 2.568C591.042 1.888 590.57 1.456 589.826 1.456C589.058 1.456 588.578 1.832 588.546 2.744H588.01C588.002 1.784 588.61 0.984 589.842 0.984C590.89 0.984 591.594 1.584 591.594 2.504C591.594 3.232 591.194 3.72 590.554 3.936V3.952C591.242 4.104 591.754 4.568 591.754 5.416C591.754 6.36 590.994 7.12 589.802 7.12C588.434 7.12 587.914 6.28 587.866 5.36H588.402C588.482 6.216 588.97 6.656 589.842 6.656C590.61 6.656 591.194 6.184 591.194 5.408C591.194 4.592 590.642 4.224 589.874 4.224Z" fill="white"/>
<path d="M463.408 7H459.904V6.544H461.392V2.52H459.992V2.072H460.496C460.856 2.072 461.096 2.032 461.248 1.872C461.416 1.704 461.464 1.472 461.472 1.048H461.936V6.544H463.408V7ZM464.869 2.544C464.869 1.688 465.533 0.984 466.669 0.984C467.813 0.984 468.469 1.688 468.469 2.544C468.469 3.32 467.981 3.784 467.461 3.936V3.968C467.957 4.064 468.653 4.504 468.653 5.472C468.653 6.456 467.925 7.12 466.669 7.128C465.413 7.136 464.701 6.456 464.701 5.472C464.701 4.496 465.421 4.064 465.893 3.968V3.936C465.373 3.792 464.869 3.32 464.869 2.544ZM466.669 1.424C466.021 1.424 465.429 1.776 465.429 2.584C465.429 3.384 466.037 3.736 466.669 3.736C467.293 3.736 467.909 3.384 467.909 2.584C467.909 1.776 467.301 1.424 466.669 1.424ZM466.669 6.688C467.453 6.688 468.085 6.328 468.085 5.448C468.085 4.568 467.429 4.192 466.669 4.192C465.933 4.192 465.269 4.568 465.269 5.448C465.269 6.328 465.901 6.688 466.669 6.688Z" fill="white"/>
<path d="M328.424 2.304H327.888C327.792 1.864 327.456 1.432 326.72 1.432C325.552 1.432 325.16 2.552 325.144 4.168H325.168C325.432 3.624 325.96 3.216 326.744 3.216C327.688 3.216 328.584 3.776 328.584 5.136C328.584 6.256 327.856 7.12 326.632 7.12C325.504 7.12 324.592 6.488 324.592 4.352C324.592 2.048 325.376 0.984 326.736 0.984C327.8 0.984 328.32 1.616 328.424 2.304ZM326.64 6.664C327.384 6.664 328.024 6.144 328.024 5.176C328.024 4.176 327.432 3.688 326.632 3.688C325.808 3.688 325.248 4.208 325.248 5.128C325.248 6.072 325.824 6.664 326.64 6.664ZM331.237 7V6.08H332.117V7H331.237ZM336.874 4.224H336.33V3.744H336.85C337.658 3.744 338.042 3.184 338.042 2.568C338.042 1.888 337.57 1.456 336.826 1.456C336.058 1.456 335.578 1.832 335.546 2.744H335.01C335.002 1.784 335.61 0.984 336.842 0.984C337.89 0.984 338.594 1.584 338.594 2.504C338.594 3.232 338.194 3.72 337.554 3.936V3.952C338.242 4.104 338.754 4.568 338.754 5.416C338.754 6.36 337.994 7.12 336.802 7.12C335.434 7.12 334.914 6.28 334.866 5.36H335.402C335.482 6.216 335.97 6.656 336.842 6.656C337.61 6.656 338.194 6.184 338.194 5.408C338.194 4.592 337.642 4.224 336.874 4.224Z" fill="white"/>
<path d="M232.408 7H228.904V6.544H230.392V2.52H228.992V2.072H229.496C229.856 2.072 230.096 2.032 230.248 1.872C230.416 1.704 230.464 1.472 230.472 1.048H230.936V6.544H232.408V7ZM237.525 7H234.021V6.544H235.509V2.52H234.109V2.072H234.613C234.973 2.072 235.213 2.032 235.365 1.872C235.533 1.704 235.581 1.472 235.589 1.048H236.053V6.544H237.525V7ZM240.354 7V6.08H241.234V7H240.354ZM247.96 5.496H247.136V7H246.6V5.496H243.824V5.056L246.472 1.072H247.136V5.024H247.96V5.496ZM244.384 5.032H246.6V1.64H246.568C246.568 1.64 246.424 1.984 246.168 2.36L244.384 5.032Z" fill="white"/>
<path d="M132.56 5.4H133.096C133.192 6.224 133.704 6.656 134.496 6.656C135.168 6.656 135.952 6.28 135.952 5.12C135.952 4.088 135.32 3.608 134.568 3.608C133.968 3.608 133.568 3.8 133.328 4.192H132.8L132.992 1.072H136.192V1.568H133.464L133.336 3.672H133.352C133.584 3.368 134.04 3.144 134.648 3.144C135.616 3.144 136.512 3.736 136.512 5.088C136.512 6.384 135.68 7.12 134.496 7.12C133.176 7.12 132.624 6.272 132.56 5.4ZM139.237 7V6.08H140.117V7H139.237ZM143.538 7L146.13 1.56H142.834V1.072H146.746V1.448L144.114 7H143.538Z" fill="white"/>
<path d="M66.304 7L68.896 1.56H65.6V1.072H69.512V1.448L66.88 7H66.304ZM72.2372 7V6.08H73.1172V7H72.2372ZM79.6584 2.304H79.1224C79.0264 1.864 78.6904 1.432 77.9544 1.432C76.7864 1.432 76.3944 2.552 76.3784 4.168H76.4024C76.6664 3.624 77.1944 3.216 77.9784 3.216C78.9224 3.216 79.8184 3.776 79.8184 5.136C79.8184 6.256 79.0904 7.12 77.8664 7.12C76.7384 7.12 75.8264 6.488 75.8264 4.352C75.8264 2.048 76.6104 0.984 77.9704 0.984C79.0344 0.984 79.5544 1.616 79.6584 2.304ZM77.8744 6.664C78.6184 6.664 79.2584 6.144 79.2584 5.176C79.2584 4.176 78.6664 3.688 77.8664 3.688C77.0424 3.688 76.4824 4.208 76.4824 5.128C76.4824 6.072 77.0584 6.664 77.8744 6.664Z" fill="white"/>
<path d="M6.344 2.984H5.808C5.776 1.704 6.608 0.984 7.672 0.984C8.904 0.984 9.472 1.768 9.472 2.592C9.472 3.376 9.144 3.888 8.28 4.712L7.192 5.752C6.64 6.272 6.4 6.496 6.4 6.496V6.52H9.584V7H5.688V6.536L7.792 4.488C8.544 3.76 8.912 3.36 8.912 2.616C8.912 1.92 8.432 1.448 7.688 1.448C6.904 1.448 6.336 1.936 6.344 2.984ZM12.2372 7V6.08H13.1172V7H12.2372ZM15.7944 5.4H16.3304C16.4264 6.224 16.9384 6.656 17.7304 6.656C18.4024 6.656 19.1864 6.28 19.1864 5.12C19.1864 4.088 18.5544 3.608 17.8024 3.608C17.2024 3.608 16.8024 3.8 16.5624 4.192H16.0344L16.2264 1.072H19.4264V1.568H16.6984L16.5704 3.672H16.5864C16.8184 3.368 17.2744 3.144 17.8824 3.144C18.8504 3.144 19.7464 3.736 19.7464 5.088C19.7464 6.384 18.9144 7.12 17.7304 7.12C16.4104 7.12 15.8584 6.272 15.7944 5.4Z" fill="white"/>
<path d="M0.5 19.5H24.7366V54.5H0.5V19.5Z" fill="#DCDFD8" stroke="#A8A18F"/>
<path fill-rule="evenodd" clip-rule="evenodd" d="M25.2363 19H35.4887V55H25.2363V19Z" fill="#A8A18F"/>
<path d="M35.9893 19.5H110.699V54.5H35.9893V19.5Z" fill="#DCDFD8" stroke="#A8A18F"/>
<path d="M111.699 19.5H167.482V54.5H111.699V19.5Z" fill="#DCDFD8" stroke="#A8A18F"/>
<path fill-rule="evenodd" clip-rule="evenodd" d="M167.981 19H181.388V55H167.981V19Z" fill="#A8A18F"/>
<path d="M181.888 19.5H295.241V54.5H181.888V19.5Z" fill="#DCDFD8" stroke="#A8A18F"/>
<path fill-rule="evenodd" clip-rule="evenodd" d="M295.741 19H300.473V55H295.741V19Z" fill="#A8A18F"/>
<path d="M300.974 19.5H363.065V54.5H300.974V19.5Z" fill="#DCDFD8" stroke="#A8A18F"/>
<path fill-rule="evenodd" clip-rule="evenodd" d="M363.564 19H374.605V55H363.564V19Z" fill="#A8A18F"/>
<path d="M375.105 19.5H553.128V54.5H375.105V19.5Z" fill="#DCDFD8" stroke="#A8A18F"/>
<path d="M554.128 19.5H616.219V54.5H554.128V19.5Z" fill="#DCDFD8" stroke="#A8A18F"/>
<path d="M617.22 19.5H679.311V54.5H617.22V19.5Z" fill="#DCDFD8" stroke="#A8A18F"/>
<path d="M680.311 19.5H719.531V54.5H680.311V19.5Z" fill="#DCDFD8" stroke="#A8A18F"/>
<path d="M720.531 19.5H782.623V54.5H720.531V19.5Z" fill="#DCDFD8" stroke="#A8A18F"/>
<path d="M783.623 19.5H862.276V54.5H783.623V19.5Z" fill="#DCDFD8" stroke="#A8A18F"/>
<path d="M863.276 19.5H990.037V54.5H863.276V19.5Z" fill="#DCDFD8" stroke="#A8A18F"/>
<path fill-rule="evenodd" clip-rule="evenodd" d="M990.536 19H1000V55H990.536V19Z" fill="#A8A18F"/>
<path d="M365.408 71H361.904V70.544H363.392V66.52H361.992V66.072H362.496C362.856 66.072 363.096 66.032 363.248 65.872C363.416 65.704 363.464 65.472 363.472 65.048H363.936V70.544H365.408V71ZM368.237 71V70.08H369.117V71H368.237ZM375.642 71H372.138V70.544H373.626V66.52H372.226V66.072H372.73C373.09 66.072 373.33 66.032 373.482 65.872C373.65 65.704 373.698 65.472 373.706 65.048H374.17V70.544H375.642V71Z" fill="white"/>
<path d="M295.12 71V70.08H296V71H295.12ZM298.677 69.4H299.213C299.309 70.224 299.821 70.656 300.613 70.656C301.285 70.656 302.069 70.28 302.069 69.12C302.069 68.088 301.437 67.608 300.685 67.608C300.085 67.608 299.685 67.8 299.445 68.192H298.917L299.109 65.072H302.309V65.568H299.581L299.453 67.672H299.469C299.701 67.368 300.157 67.144 300.765 67.144C301.733 67.144 302.629 67.736 302.629 69.088C302.629 70.384 301.797 71.12 300.613 71.12C299.293 71.12 298.741 70.272 298.677 69.4Z" fill="white"/>
<path d="M168.408 71H164.904V70.544H166.392V66.52H164.992V66.072H165.496C165.856 66.072 166.096 66.032 166.248 65.872C166.416 65.704 166.464 65.472 166.472 65.048H166.936V70.544H168.408V71ZM171.237 71V70.08H172.117V71H171.237ZM176.874 68.224H176.33V67.744H176.85C177.658 67.744 178.042 67.184 178.042 66.568C178.042 65.888 177.57 65.456 176.826 65.456C176.058 65.456 175.578 65.832 175.546 66.744H175.01C175.002 65.784 175.61 64.984 176.842 64.984C177.89 64.984 178.594 65.584 178.594 66.504C178.594 67.232 178.194 67.72 177.554 67.936V67.952C178.242 68.104 178.754 68.568 178.754 69.416C178.754 70.36 177.994 71.12 176.802 71.12C175.434 71.12 174.914 70.28 174.866 69.36H175.402C175.482 70.216 175.97 70.656 176.842 70.656C177.61 70.656 178.194 70.184 178.194 69.408C178.194 68.592 177.642 68.224 176.874 68.224ZM179.912 69.4H180.448C180.544 70.224 181.056 70.656 181.848 70.656C182.52 70.656 183.304 70.28 183.304 69.12C183.304 68.088 182.672 67.608 181.92 67.608C181.32 67.608 180.92 67.8 180.68 68.192H180.152L180.344 65.072H183.544V65.568H180.816L180.688 67.672H180.704C180.936 67.368 181.392 67.144 182 67.144C182.968 67.144 183.864 67.736 183.864 69.088C183.864 70.384 183.032 71.12 181.848 71.12C180.528 71.12 179.976 70.272 179.912 69.4Z" fill="white"/>
<path d="M31.408 71H27.904V70.544H29.392V66.52H27.992V66.072H28.496C28.856 66.072 29.096 66.032 29.248 65.872C29.416 65.704 29.464 65.472 29.472 65.048H29.936V70.544H31.408V71Z" fill="white"/>
<path d="M996.408 71H992.904V70.544H994.392V66.52H992.992V66.072H993.496C993.856 66.072 994.096 66.032 994.248 65.872C994.416 65.704 994.464 65.472 994.472 65.048H994.936V70.544H996.408V71Z" fill="white"/>
</svg>
