<svg width="1000" height="74" viewBox="0 0 1000 74" fill="none" xmlns="http://www.w3.org/2000/svg">
<path d="M941.304 7L943.896 1.56H940.6V1.072H944.512V1.448L941.88 7H941.304ZM947.237 7V6.08H948.117V7H947.237ZM952.874 4.224H952.33V3.744H952.85C953.658 3.744 954.042 3.184 954.042 2.568C954.042 1.888 953.57 1.456 952.826 1.456C952.058 1.456 951.578 1.832 951.546 2.744H951.01C951.002 1.784 951.61 0.984 952.842 0.984C953.89 0.984 954.594 1.584 954.594 2.504C954.594 3.232 954.194 3.72 953.554 3.936V3.952C954.242 4.104 954.754 4.568 954.754 5.416C954.754 6.36 953.994 7.12 952.802 7.12C951.434 7.12 950.914 6.28 950.866 5.36H951.402C951.482 6.216 951.97 6.656 952.842 6.656C953.61 6.656 954.194 6.184 954.194 5.408C954.194 4.592 953.642 4.224 952.874 4.224ZM959.96 5.496H959.136V7H958.6V5.496H955.824V5.056L958.472 1.072H959.136V5.024H959.96V5.496ZM956.384 5.032H958.6V1.64H958.568C958.568 1.64 958.424 1.984 958.168 2.36L956.384 5.032Z" fill="white"/>
<path d="M863.752 2.544C863.752 1.688 864.416 0.984 865.552 0.984C866.696 0.984 867.352 1.688 867.352 2.544C867.352 3.32 866.864 3.784 866.344 3.936V3.968C866.84 4.064 867.536 4.504 867.536 5.472C867.536 6.456 866.808 7.12 865.552 7.128C864.296 7.136 863.584 6.456 863.584 5.472C863.584 4.496 864.304 4.064 864.776 3.968V3.936C864.256 3.792 863.752 3.32 863.752 2.544ZM865.552 1.424C864.904 1.424 864.312 1.776 864.312 2.584C864.312 3.384 864.92 3.736 865.552 3.736C866.176 3.736 866.792 3.384 866.792 2.584C866.792 1.776 866.184 1.424 865.552 1.424ZM865.552 6.688C866.336 6.688 866.968 6.328 866.968 5.448C866.968 4.568 866.312 4.192 865.552 4.192C864.816 4.192 864.152 4.568 864.152 5.448C864.152 6.328 864.784 6.688 865.552 6.688ZM870.237 7V6.08H871.117V7H870.237ZM877.642 7H874.138V6.544H875.626V2.52H874.226V2.072H874.73C875.09 2.072 875.33 2.032 875.482 1.872C875.65 1.704 875.698 1.472 875.706 1.048H876.17V6.544H877.642V7ZM879.696 2.984H879.16C879.128 1.704 879.96 0.984 881.024 0.984C882.256 0.984 882.824 1.768 882.824 2.592C882.824 3.376 882.496 3.888 881.632 4.712L880.544 5.752C879.992 6.272 879.752 6.496 879.752 6.496V6.52H882.936V7H879.04V6.536L881.144 4.488C881.896 3.76 882.264 3.36 882.264 2.616C882.264 1.92 881.784 1.448 881.04 1.448C880.256 1.448 879.688 1.936 879.696 2.984Z" fill="white"/>
<path d="M777.688 5.72H778.216C778.36 6.36 778.808 6.68 779.448 6.68C780.536 6.68 780.928 5.864 780.96 3.88H780.928C780.68 4.44 780.128 4.776 779.432 4.776C778.488 4.776 777.608 4.2 777.608 2.896C777.608 1.792 778.384 0.992 779.504 0.992C780.688 0.992 781.488 1.792 781.488 3.64C781.488 6.216 780.776 7.128 779.408 7.128C778.552 7.128 777.84 6.672 777.688 5.72ZM779.496 1.456C778.84 1.456 778.16 1.88 778.16 2.896C778.16 3.816 778.76 4.312 779.504 4.312C780.28 4.312 780.864 3.784 780.864 2.896C780.864 1.968 780.24 1.456 779.496 1.456ZM784.237 7V6.08H785.117V7H784.237ZM791.658 2.304H791.122C791.026 1.864 790.69 1.432 789.954 1.432C788.786 1.432 788.394 2.552 788.378 4.168H788.402C788.666 3.624 789.194 3.216 789.978 3.216C790.922 3.216 791.818 3.776 791.818 5.136C791.818 6.256 791.09 7.12 789.866 7.12C788.738 7.12 787.826 6.488 787.826 4.352C787.826 2.048 788.61 0.984 789.97 0.984C791.034 0.984 791.554 1.616 791.658 2.304ZM789.874 6.664C790.618 6.664 791.258 6.144 791.258 5.176C791.258 4.176 790.666 3.688 789.866 3.688C789.042 3.688 788.482 4.208 788.482 5.128C788.482 6.072 789.058 6.664 789.874 6.664Z" fill="white"/>
<path d="M708.424 2.304H707.888C707.792 1.864 707.456 1.432 706.72 1.432C705.552 1.432 705.16 2.552 705.144 4.168H705.168C705.432 3.624 705.96 3.216 706.744 3.216C707.688 3.216 708.584 3.776 708.584 5.136C708.584 6.256 707.856 7.12 706.632 7.12C705.504 7.12 704.592 6.488 704.592 4.352C704.592 2.048 705.376 0.984 706.736 0.984C707.8 0.984 708.32 1.616 708.424 2.304ZM706.64 6.664C707.384 6.664 708.024 6.144 708.024 5.176C708.024 4.176 707.432 3.688 706.632 3.688C705.808 3.688 705.248 4.208 705.248 5.128C705.248 6.072 705.824 6.664 706.64 6.664Z" fill="white"/>
<path d="M648.56 5.4H649.096C649.192 6.224 649.704 6.656 650.496 6.656C651.168 6.656 651.952 6.28 651.952 5.12C651.952 4.088 651.32 3.608 650.568 3.608C649.968 3.608 649.568 3.8 649.328 4.192H648.8L648.992 1.072H652.192V1.568H649.464L649.336 3.672H649.352C649.584 3.368 650.04 3.144 650.648 3.144C651.616 3.144 652.512 3.736 652.512 5.088C652.512 6.384 651.68 7.12 650.496 7.12C649.176 7.12 648.624 6.272 648.56 5.4Z" fill="white"/>
<path d="M590.424 2.304H589.888C589.792 1.864 589.456 1.432 588.72 1.432C587.552 1.432 587.16 2.552 587.144 4.168H587.168C587.432 3.624 587.96 3.216 588.744 3.216C589.688 3.216 590.584 3.776 590.584 5.136C590.584 6.256 589.856 7.12 588.632 7.12C587.504 7.12 586.592 6.488 586.592 4.352C586.592 2.048 587.376 0.984 588.736 0.984C589.8 0.984 590.32 1.616 590.424 2.304ZM588.64 6.664C589.384 6.664 590.024 6.144 590.024 5.176C590.024 4.176 589.432 3.688 588.632 3.688C587.808 3.688 587.248 4.208 587.248 5.128C587.248 6.072 587.824 6.664 588.64 6.664ZM593.237 7V6.08H594.117V7H593.237ZM598.874 4.224H598.33V3.744H598.85C599.658 3.744 600.042 3.184 600.042 2.568C600.042 1.888 599.57 1.456 598.826 1.456C598.058 1.456 597.578 1.832 597.546 2.744H597.01C597.002 1.784 597.61 0.984 598.842 0.984C599.89 0.984 600.594 1.584 600.594 2.504C600.594 3.232 600.194 3.72 599.554 3.936V3.952C600.242 4.104 600.754 4.568 600.754 5.416C600.754 6.36 599.994 7.12 598.802 7.12C597.434 7.12 596.914 6.28 596.866 5.36H597.402C597.482 6.216 597.97 6.656 598.842 6.656C599.61 6.656 600.194 6.184 600.194 5.408C600.194 4.592 599.642 4.224 598.874 4.224Z" fill="white"/>
<path d="M527.424 2.304H526.888C526.792 1.864 526.456 1.432 525.72 1.432C524.552 1.432 524.16 2.552 524.144 4.168H524.168C524.432 3.624 524.96 3.216 525.744 3.216C526.688 3.216 527.584 3.776 527.584 5.136C527.584 6.256 526.856 7.12 525.632 7.12C524.504 7.12 523.592 6.488 523.592 4.352C523.592 2.048 524.376 0.984 525.736 0.984C526.8 0.984 527.32 1.616 527.424 2.304ZM525.64 6.664C526.384 6.664 527.024 6.144 527.024 5.176C527.024 4.176 526.432 3.688 525.632 3.688C524.808 3.688 524.248 4.208 524.248 5.128C524.248 6.072 524.824 6.664 525.64 6.664ZM530.237 7V6.08H531.117V7H530.237ZM535.874 4.224H535.33V3.744H535.85C536.658 3.744 537.042 3.184 537.042 2.568C537.042 1.888 536.57 1.456 535.826 1.456C535.058 1.456 534.578 1.832 534.546 2.744H534.01C534.002 1.784 534.61 0.984 535.842 0.984C536.89 0.984 537.594 1.584 537.594 2.504C537.594 3.232 537.194 3.72 536.554 3.936V3.952C537.242 4.104 537.754 4.568 537.754 5.416C537.754 6.36 536.994 7.12 535.802 7.12C534.434 7.12 533.914 6.28 533.866 5.36H534.402C534.482 6.216 534.97 6.656 535.842 6.656C536.61 6.656 537.194 6.184 537.194 5.408C537.194 4.592 536.642 4.224 535.874 4.224Z" fill="white"/>
<path d="M464.424 2.304H463.888C463.792 1.864 463.456 1.432 462.72 1.432C461.552 1.432 461.16 2.552 461.144 4.168H461.168C461.432 3.624 461.96 3.216 462.744 3.216C463.688 3.216 464.584 3.776 464.584 5.136C464.584 6.256 463.856 7.12 462.632 7.12C461.504 7.12 460.592 6.488 460.592 4.352C460.592 2.048 461.376 0.984 462.736 0.984C463.8 0.984 464.32 1.616 464.424 2.304ZM462.64 6.664C463.384 6.664 464.024 6.144 464.024 5.176C464.024 4.176 463.432 3.688 462.632 3.688C461.808 3.688 461.248 4.208 461.248 5.128C461.248 6.072 461.824 6.664 462.64 6.664ZM467.237 7V6.08H468.117V7H467.237ZM472.874 4.224H472.33V3.744H472.85C473.658 3.744 474.042 3.184 474.042 2.568C474.042 1.888 473.57 1.456 472.826 1.456C472.058 1.456 471.578 1.832 471.546 2.744H471.01C471.002 1.784 471.61 0.984 472.842 0.984C473.89 0.984 474.594 1.584 474.594 2.504C474.594 3.232 474.194 3.72 473.554 3.936V3.952C474.242 4.104 474.754 4.568 474.754 5.416C474.754 6.36 473.994 7.12 472.802 7.12C471.434 7.12 470.914 6.28 470.866 5.36H471.402C471.482 6.216 471.97 6.656 472.842 6.656C473.61 6.656 474.194 6.184 474.194 5.408C474.194 4.592 473.642 4.224 472.874 4.224Z" fill="white"/>
<path d="M358.408 7H354.904V6.544H356.392V2.52H354.992V2.072H355.496C355.856 2.072 356.096 2.032 356.248 1.872C356.416 1.704 356.464 1.472 356.472 1.048H356.936V6.544H358.408V7ZM363.725 5.496H362.901V7H362.365V5.496H359.589V5.056L362.237 1.072H362.901V5.024H363.725V5.496ZM360.149 5.032H362.365V1.64H362.333C362.333 1.64 362.189 1.984 361.933 2.36L360.149 5.032ZM366.354 7V6.08H367.234V7H366.354ZM373.96 5.496H373.136V7H372.6V5.496H369.824V5.056L372.472 1.072H373.136V5.024H373.96V5.496ZM370.384 5.032H372.6V1.64H372.568C372.568 1.64 372.424 1.984 372.168 2.36L370.384 5.032Z" fill="white"/>
<path d="M225.408 7H221.904V6.544H223.392V2.52H221.992V2.072H222.496C222.856 2.072 223.096 2.032 223.248 1.872C223.416 1.704 223.464 1.472 223.472 1.048H223.936V6.544H225.408V7ZM226.645 4.056C226.645 1.952 227.413 0.984 228.677 0.984C229.933 0.984 230.709 1.952 230.709 4.056C230.709 6.16 229.949 7.128 228.677 7.128C227.397 7.128 226.645 6.16 226.645 4.056ZM228.677 6.664C229.597 6.664 230.125 5.848 230.125 4.064C230.125 2.256 229.605 1.456 228.677 1.456C227.749 1.456 227.229 2.24 227.229 4.064C227.229 5.864 227.741 6.664 228.677 6.664ZM233.354 7V6.08H234.234V7H233.354ZM240.96 5.496H240.136V7H239.6V5.496H236.824V5.056L239.472 1.072H240.136V5.024H240.96V5.496ZM237.384 5.032H239.6V1.64H239.568C239.568 1.64 239.424 1.984 239.168 2.36L237.384 5.032Z" fill="white"/>
<path d="M126.56 5.4H127.096C127.192 6.224 127.704 6.656 128.496 6.656C129.168 6.656 129.952 6.28 129.952 5.12C129.952 4.088 129.32 3.608 128.568 3.608C127.968 3.608 127.568 3.8 127.328 4.192H126.8L126.992 1.072H130.192V1.568H127.464L127.336 3.672H127.352C127.584 3.368 128.04 3.144 128.648 3.144C129.616 3.144 130.512 3.736 130.512 5.088C130.512 6.384 129.68 7.12 128.496 7.12C127.176 7.12 126.624 6.272 126.56 5.4ZM133.237 7V6.08H134.117V7H133.237ZM140.658 2.304H140.122C140.026 1.864 139.69 1.432 138.954 1.432C137.786 1.432 137.394 2.552 137.378 4.168H137.402C137.666 3.624 138.194 3.216 138.978 3.216C139.922 3.216 140.818 3.776 140.818 5.136C140.818 6.256 140.09 7.12 138.866 7.12C137.738 7.12 136.826 6.488 136.826 4.352C136.826 2.048 137.61 0.984 138.97 0.984C140.034 0.984 140.554 1.616 140.658 2.304ZM138.874 6.664C139.618 6.664 140.258 6.144 140.258 5.176C140.258 4.176 139.666 3.688 138.866 3.688C138.042 3.688 137.482 4.208 137.482 5.128C137.482 6.072 138.058 6.664 138.874 6.664Z" fill="white"/>
<path d="M69.304 7L71.896 1.56H68.6V1.072H72.512V1.448L69.88 7H69.304Z" fill="white"/>
<path d="M15.408 7H11.904V6.544H13.392V2.52H11.992V2.072H12.496C12.856 2.072 13.096 2.032 13.248 1.872C13.416 1.704 13.464 1.472 13.472 1.048H13.936V6.544H15.408V7ZM18.2372 7V6.08H19.1172V7H18.2372ZM23.8744 4.224H23.3304V3.744H23.8504C24.6584 3.744 25.0424 3.184 25.0424 2.568C25.0424 1.888 24.5704 1.456 23.8264 1.456C23.0584 1.456 22.5784 1.832 22.5464 2.744H22.0104C22.0024 1.784 22.6104 0.984 23.8424 0.984C24.8904 0.984 25.5944 1.584 25.5944 2.504C25.5944 3.232 25.1944 3.72 24.5544 3.936V3.952C25.2424 4.104 25.7544 4.568 25.7544 5.416C25.7544 6.36 24.9944 7.12 23.8024 7.12C22.4344 7.12 21.9144 6.28 21.8664 5.36H22.4024C22.4824 6.216 22.9704 6.656 23.8424 6.656C24.6104 6.656 25.1944 6.184 25.1944 5.408C25.1944 4.592 24.6424 4.224 23.8744 4.224Z" fill="white"/>
<path fill-rule="evenodd" clip-rule="evenodd" d="M0 19H12.6183V55H0V19Z" fill="#A8A18F"/>
<path d="M13.1182 19.5H24.7365V54.5H13.1182V19.5Z" fill="#DCDFD8" stroke="#A8A18F"/>
<path fill-rule="evenodd" clip-rule="evenodd" d="M25.2363 19H36.2773V55H25.2363V19Z" fill="#A8A18F"/>
<path d="M36.7773 19.5H105.178V54.5H36.7773V19.5Z" fill="#DCDFD8" stroke="#A8A18F"/>
<path d="M106.179 19.5H161.961V54.5H106.179V19.5Z" fill="#DCDFD8" stroke="#A8A18F"/>
<path fill-rule="evenodd" clip-rule="evenodd" d="M162.461 19H175.868V55H162.461V19Z" fill="#A8A18F"/>
<path d="M176.367 19.5H285.777V54.5H176.367V19.5Z" fill="#DCDFD8" stroke="#A8A18F"/>
<path fill-rule="evenodd" clip-rule="evenodd" d="M286.277 19H292.586V55H286.277V19Z" fill="#A8A18F"/>
<path d="M293.087 19.5H435.62V54.5H293.087V19.5Z" fill="#DCDFD8" stroke="#A8A18F"/>
<path d="M436.62 19.5H498.712V54.5H436.62V19.5Z" fill="#DCDFD8" stroke="#A8A18F"/>
<path d="M499.711 19.5H561.802V54.5H499.711V19.5Z" fill="#DCDFD8" stroke="#A8A18F"/>
<path d="M562.803 19.5H624.894V54.5H562.803V19.5Z" fill="#DCDFD8" stroke="#A8A18F"/>
<path d="M625.895 19.5H676.156V54.5H625.895V19.5Z" fill="#DCDFD8" stroke="#A8A18F"/>
<path d="M677.156 19.5H736.093V54.5H677.156V19.5Z" fill="#DCDFD8" stroke="#A8A18F"/>
<path d="M737.093 19.5H832.307V54.5H737.093V19.5Z" fill="#DCDFD8" stroke="#A8A18F"/>
<path d="M833.308 19.5H913.538V54.5H833.308V19.5Z" fill="#DCDFD8" stroke="#A8A18F"/>
<path d="M914.538 19.5H986.882V54.5H914.538V19.5Z" fill="#DCDFD8" stroke="#A8A18F"/>
<path fill-rule="evenodd" clip-rule="evenodd" d="M987.382 19H1000V55H987.382V19Z" fill="#A8A18F"/>
<path d="M286.12 71V70.08H287V71H286.12ZM293.541 66.304H293.005C292.909 65.864 292.573 65.432 291.837 65.432C290.669 65.432 290.277 66.552 290.261 68.168H290.285C290.549 67.624 291.077 67.216 291.861 67.216C292.805 67.216 293.701 67.776 293.701 69.136C293.701 70.256 292.973 71.12 291.749 71.12C290.621 71.12 289.709 70.488 289.709 68.352C289.709 66.048 290.493 64.984 291.853 64.984C292.917 64.984 293.437 65.616 293.541 66.304ZM291.757 70.664C292.501 70.664 293.141 70.144 293.141 69.176C293.141 68.176 292.549 67.688 291.749 67.688C290.925 67.688 290.365 68.208 290.365 69.128C290.365 70.072 290.941 70.664 291.757 70.664Z" fill="white"/>
<path d="M165.408 71H161.904V70.544H163.392V66.52H161.992V66.072H162.496C162.856 66.072 163.096 66.032 163.248 65.872C163.416 65.704 163.464 65.472 163.472 65.048H163.936V70.544H165.408V71ZM168.237 71V70.08H169.117V71H168.237ZM173.874 68.224H173.33V67.744H173.85C174.658 67.744 175.042 67.184 175.042 66.568C175.042 65.888 174.57 65.456 173.826 65.456C173.058 65.456 172.578 65.832 172.546 66.744H172.01C172.002 65.784 172.61 64.984 173.842 64.984C174.89 64.984 175.594 65.584 175.594 66.504C175.594 67.232 175.194 67.72 174.554 67.936V67.952C175.242 68.104 175.754 68.568 175.754 69.416C175.754 70.36 174.994 71.12 173.802 71.12C172.434 71.12 171.914 70.28 171.866 69.36H172.402C172.482 70.216 172.97 70.656 173.842 70.656C174.61 70.656 175.194 70.184 175.194 69.408C175.194 68.592 174.642 68.224 173.874 68.224Z" fill="white"/>
<path d="M27.408 71H23.904V70.544H25.392V66.52H23.992V66.072H24.496C24.856 66.072 25.096 66.032 25.248 65.872C25.416 65.704 25.464 65.472 25.472 65.048H25.936V70.544H27.408V71ZM30.2372 71V70.08H31.1172V71H30.2372ZM37.6424 71H34.1384V70.544H35.6264V66.52H34.2264V66.072H34.7304C35.0904 66.072 35.3304 66.032 35.4824 65.872C35.6504 65.704 35.6984 65.472 35.7064 65.048H36.1704V70.544H37.6424V71Z" fill="white"/>
<path d="M4.408 71H0.904V70.544H2.392V66.52H0.992V66.072H1.496C1.856 66.072 2.096 66.032 2.248 65.872C2.416 65.704 2.464 65.472 2.472 65.048H2.936V70.544H4.408V71ZM7.23719 71V70.08H8.11719V71H7.23719ZM12.8744 68.224H12.3304V67.744H12.8504C13.6584 67.744 14.0424 67.184 14.0424 66.568C14.0424 65.888 13.5704 65.456 12.8264 65.456C12.0584 65.456 11.5784 65.832 11.5464 66.744H11.0104C11.0024 65.784 11.6104 64.984 12.8424 64.984C13.8904 64.984 14.5944 65.584 14.5944 66.504C14.5944 67.232 14.1944 67.72 13.5544 67.936V67.952C14.2424 68.104 14.7544 68.568 14.7544 69.416C14.7544 70.36 13.9944 71.12 12.8024 71.12C11.4344 71.12 10.9144 70.28 10.8664 69.36H11.4024C11.4824 70.216 11.9704 70.656 12.8424 70.656C13.6104 70.656 14.1944 70.184 14.1944 69.408C14.1944 68.592 13.6424 68.224 12.8744 68.224Z" fill="white"/>
<path d="M988.408 71H984.904V70.544H986.392V66.52H984.992V66.072H985.496C985.856 66.072 986.096 66.032 986.248 65.872C986.416 65.704 986.464 65.472 986.472 65.048H986.936V70.544H988.408V71ZM991.237 71V70.08H992.117V71H991.237ZM996.874 68.224H996.33V67.744H996.85C997.658 67.744 998.042 67.184 998.042 66.568C998.042 65.888 997.57 65.456 996.826 65.456C996.058 65.456 995.578 65.832 995.546 66.744H995.01C995.002 65.784 995.61 64.984 996.842 64.984C997.89 64.984 998.594 65.584 998.594 66.504C998.594 67.232 998.194 67.72 997.554 67.936V67.952C998.242 68.104 998.754 68.568 998.754 69.416C998.754 70.36 997.994 71.12 996.802 71.12C995.434 71.12 994.914 70.28 994.866 69.36H995.402C995.482 70.216 995.97 70.656 996.842 70.656C997.61 70.656 998.194 70.184 998.194 69.408C998.194 68.592 997.642 68.224 996.874 68.224Z" fill="white"/>
</svg>
