<svg width="1000" height="74" viewBox="0 0 1000 74" fill="none" xmlns="http://www.w3.org/2000/svg">
<path d="M941.304 7L943.896 1.56H940.6V1.072H944.512V1.448L941.88 7H941.304ZM947.237 7V6.08H948.117V7H947.237ZM952.874 4.224H952.33V3.744H952.85C953.658 3.744 954.042 3.184 954.042 2.568C954.042 1.888 953.57 1.456 952.826 1.456C952.058 1.456 951.578 1.832 951.546 2.744H951.01C951.002 1.784 951.61 0.984 952.842 0.984C953.89 0.984 954.594 1.584 954.594 2.504C954.594 3.232 954.194 3.72 953.554 3.936V3.952C954.242 4.104 954.754 4.568 954.754 5.416C954.754 6.36 953.994 7.12 952.802 7.12C951.434 7.12 950.914 6.28 950.866 5.36H951.402C951.482 6.216 951.97 6.656 952.842 6.656C953.61 6.656 954.194 6.184 954.194 5.408C954.194 4.592 953.642 4.224 952.874 4.224ZM959.96 5.496H959.136V7H958.6V5.496H955.824V5.056L958.472 1.072H959.136V5.024H959.96V5.496ZM956.384 5.032H958.6V1.64H958.568C958.568 1.64 958.424 1.984 958.168 2.36L956.384 5.032Z" fill="white"/>
<path d="M782.752 2.544C782.752 1.688 783.416 0.984 784.552 0.984C785.696 0.984 786.352 1.688 786.352 2.544C786.352 3.32 785.864 3.784 785.344 3.936V3.968C785.84 4.064 786.536 4.504 786.536 5.472C786.536 6.456 785.808 7.12 784.552 7.128C783.296 7.136 782.584 6.456 782.584 5.472C782.584 4.496 783.304 4.064 783.776 3.968V3.936C783.256 3.792 782.752 3.32 782.752 2.544ZM784.552 1.424C783.904 1.424 783.312 1.776 783.312 2.584C783.312 3.384 783.92 3.736 784.552 3.736C785.176 3.736 785.792 3.384 785.792 2.584C785.792 1.776 785.184 1.424 784.552 1.424ZM784.552 6.688C785.336 6.688 785.968 6.328 785.968 5.448C785.968 4.568 785.312 4.192 784.552 4.192C783.816 4.192 783.152 4.568 783.152 5.448C783.152 6.328 783.784 6.688 784.552 6.688ZM789.237 7V6.08H790.117V7H789.237ZM796.642 7H793.138V6.544H794.626V2.52H793.226V2.072H793.73C794.09 2.072 794.33 2.032 794.482 1.872C794.65 1.704 794.698 1.472 794.706 1.048H795.17V6.544H796.642V7ZM798.696 2.984H798.16C798.128 1.704 798.96 0.984 800.024 0.984C801.256 0.984 801.824 1.768 801.824 2.592C801.824 3.376 801.496 3.888 800.632 4.712L799.544 5.752C798.992 6.272 798.752 6.496 798.752 6.496V6.52H801.936V7H798.04V6.536L800.144 4.488C800.896 3.76 801.264 3.36 801.264 2.616C801.264 1.92 800.784 1.448 800.04 1.448C799.256 1.448 798.688 1.936 798.696 2.984Z" fill="white"/>
<path d="M863.752 2.544C863.752 1.688 864.416 0.984 865.552 0.984C866.696 0.984 867.352 1.688 867.352 2.544C867.352 3.32 866.864 3.784 866.344 3.936V3.968C866.84 4.064 867.536 4.504 867.536 5.472C867.536 6.456 866.808 7.12 865.552 7.128C864.296 7.136 863.584 6.456 863.584 5.472C863.584 4.496 864.304 4.064 864.776 3.968V3.936C864.256 3.792 863.752 3.32 863.752 2.544ZM865.552 1.424C864.904 1.424 864.312 1.776 864.312 2.584C864.312 3.384 864.92 3.736 865.552 3.736C866.176 3.736 866.792 3.384 866.792 2.584C866.792 1.776 866.184 1.424 865.552 1.424ZM865.552 6.688C866.336 6.688 866.968 6.328 866.968 5.448C866.968 4.568 866.312 4.192 865.552 4.192C864.816 4.192 864.152 4.568 864.152 5.448C864.152 6.328 864.784 6.688 865.552 6.688ZM870.237 7V6.08H871.117V7H870.237ZM877.642 7H874.138V6.544H875.626V2.52H874.226V2.072H874.73C875.09 2.072 875.33 2.032 875.482 1.872C875.65 1.704 875.698 1.472 875.706 1.048H876.17V6.544H877.642V7ZM879.696 2.984H879.16C879.128 1.704 879.96 0.984 881.024 0.984C882.256 0.984 882.824 1.768 882.824 2.592C882.824 3.376 882.496 3.888 881.632 4.712L880.544 5.752C879.992 6.272 879.752 6.496 879.752 6.496V6.52H882.936V7H879.04V6.536L881.144 4.488C881.896 3.76 882.264 3.36 882.264 2.616C882.264 1.92 881.784 1.448 881.04 1.448C880.256 1.448 879.688 1.936 879.696 2.984Z" fill="white"/>
<path d="M715.56 5.4H716.096C716.192 6.224 716.704 6.656 717.496 6.656C718.168 6.656 718.952 6.28 718.952 5.12C718.952 4.088 718.32 3.608 717.568 3.608C716.968 3.608 716.568 3.8 716.328 4.192H715.8L715.992 1.072H719.192V1.568H716.464L716.336 3.672H716.352C716.584 3.368 717.04 3.144 717.648 3.144C718.616 3.144 719.512 3.736 719.512 5.088C719.512 6.384 718.68 7.12 717.496 7.12C716.176 7.12 715.624 6.272 715.56 5.4ZM722.237 7V6.08H723.117V7H722.237ZM729.642 7H726.138V6.544H727.626V2.52H726.226V2.072H726.73C727.09 2.072 727.33 2.032 727.482 1.872C727.65 1.704 727.698 1.472 727.706 1.048H728.17V6.544H729.642V7ZM734.776 2.304H734.24C734.144 1.864 733.808 1.432 733.072 1.432C731.904 1.432 731.512 2.552 731.496 4.168H731.52C731.784 3.624 732.312 3.216 733.096 3.216C734.04 3.216 734.936 3.776 734.936 5.136C734.936 6.256 734.208 7.12 732.984 7.12C731.856 7.12 730.944 6.488 730.944 4.352C730.944 2.048 731.728 0.984 733.088 0.984C734.152 0.984 734.672 1.616 734.776 2.304ZM732.992 6.664C733.736 6.664 734.376 6.144 734.376 5.176C734.376 4.176 733.784 3.688 732.984 3.688C732.16 3.688 731.6 4.208 731.6 5.128C731.6 6.072 732.176 6.664 732.992 6.664Z" fill="white"/>
<path d="M317.304 7L319.896 1.56H316.6V1.072H320.512V1.448L317.88 7H317.304ZM323.237 7V6.08H324.117V7H323.237ZM330.842 5.496H330.018V7H329.482V5.496H326.706V5.056L329.354 1.072H330.018V5.024H330.842V5.496ZM327.266 5.032H329.482V1.64H329.45C329.45 1.64 329.306 1.984 329.05 2.36L327.266 5.032Z" fill="white"/>
<path d="M461.344 2.984H460.808C460.776 1.704 461.608 0.984 462.672 0.984C463.904 0.984 464.472 1.768 464.472 2.592C464.472 3.376 464.144 3.888 463.28 4.712L462.192 5.752C461.64 6.272 461.4 6.496 461.4 6.496V6.52H464.584V7H460.688V6.536L462.792 4.488C463.544 3.76 463.912 3.36 463.912 2.616C463.912 1.92 463.432 1.448 462.688 1.448C461.904 1.448 461.336 1.936 461.344 2.984ZM465.645 4.056C465.645 1.952 466.413 0.984 467.677 0.984C468.933 0.984 469.709 1.952 469.709 4.056C469.709 6.16 468.949 7.128 467.677 7.128C466.397 7.128 465.645 6.16 465.645 4.056ZM467.677 6.664C468.597 6.664 469.125 5.848 469.125 4.064C469.125 2.256 468.605 1.456 467.677 1.456C466.749 1.456 466.229 2.24 466.229 4.064C466.229 5.864 466.741 6.664 467.677 6.664ZM472.354 7V6.08H473.234V7H472.354ZM479.776 2.304H479.24C479.144 1.864 478.808 1.432 478.072 1.432C476.904 1.432 476.512 2.552 476.496 4.168H476.52C476.784 3.624 477.312 3.216 478.096 3.216C479.04 3.216 479.936 3.776 479.936 5.136C479.936 6.256 479.208 7.12 477.984 7.12C476.856 7.12 475.944 6.488 475.944 4.352C475.944 2.048 476.728 0.984 478.088 0.984C479.152 0.984 479.672 1.616 479.776 2.304ZM477.992 6.664C478.736 6.664 479.376 6.144 479.376 5.176C479.376 4.176 478.784 3.688 477.984 3.688C477.16 3.688 476.6 4.208 476.6 5.128C476.6 6.072 477.176 6.664 477.992 6.664Z" fill="white"/>
<path d="M602.424 2.304H601.888C601.792 1.864 601.456 1.432 600.72 1.432C599.552 1.432 599.16 2.552 599.144 4.168H599.168C599.432 3.624 599.96 3.216 600.744 3.216C601.688 3.216 602.584 3.776 602.584 5.136C602.584 6.256 601.856 7.12 600.632 7.12C599.504 7.12 598.592 6.488 598.592 4.352C598.592 2.048 599.376 0.984 600.736 0.984C601.8 0.984 602.32 1.616 602.424 2.304ZM600.64 6.664C601.384 6.664 602.024 6.144 602.024 5.176C602.024 4.176 601.432 3.688 600.632 3.688C599.808 3.688 599.248 4.208 599.248 5.128C599.248 6.072 599.824 6.664 600.64 6.664ZM605.237 7V6.08H606.117V7H605.237ZM610.874 4.224H610.33V3.744H610.85C611.658 3.744 612.042 3.184 612.042 2.568C612.042 1.888 611.57 1.456 610.826 1.456C610.058 1.456 609.578 1.832 609.546 2.744H609.01C609.002 1.784 609.61 0.984 610.842 0.984C611.89 0.984 612.594 1.584 612.594 2.504C612.594 3.232 612.194 3.72 611.554 3.936V3.952C612.242 4.104 612.754 4.568 612.754 5.416C612.754 6.36 611.994 7.12 610.802 7.12C609.434 7.12 608.914 6.28 608.866 5.36H609.402C609.482 6.216 609.97 6.656 610.842 6.656C611.61 6.656 612.194 6.184 612.194 5.408C612.194 4.592 611.642 4.224 610.874 4.224Z" fill="white"/>
<path d="M665.424 2.304H664.888C664.792 1.864 664.456 1.432 663.72 1.432C662.552 1.432 662.16 2.552 662.144 4.168H662.168C662.432 3.624 662.96 3.216 663.744 3.216C664.688 3.216 665.584 3.776 665.584 5.136C665.584 6.256 664.856 7.12 663.632 7.12C662.504 7.12 661.592 6.488 661.592 4.352C661.592 2.048 662.376 0.984 663.736 0.984C664.8 0.984 665.32 1.616 665.424 2.304ZM663.64 6.664C664.384 6.664 665.024 6.144 665.024 5.176C665.024 4.176 664.432 3.688 663.632 3.688C662.808 3.688 662.248 4.208 662.248 5.128C662.248 6.072 662.824 6.664 663.64 6.664ZM668.237 7V6.08H669.117V7H668.237ZM673.874 4.224H673.33V3.744H673.85C674.658 3.744 675.042 3.184 675.042 2.568C675.042 1.888 674.57 1.456 673.826 1.456C673.058 1.456 672.578 1.832 672.546 2.744H672.01C672.002 1.784 672.61 0.984 673.842 0.984C674.89 0.984 675.594 1.584 675.594 2.504C675.594 3.232 675.194 3.72 674.554 3.936V3.952C675.242 4.104 675.754 4.568 675.754 5.416C675.754 6.36 674.994 7.12 673.802 7.12C672.434 7.12 671.914 6.28 671.866 5.36H672.402C672.482 6.216 672.97 6.656 673.842 6.656C674.61 6.656 675.194 6.184 675.194 5.408C675.194 4.592 674.642 4.224 673.874 4.224Z" fill="white"/>
<path d="M221.408 7H217.904V6.544H219.392V2.52H217.992V2.072H218.496C218.856 2.072 219.096 2.032 219.248 1.872C219.416 1.704 219.464 1.472 219.472 1.048H219.936V6.544H221.408V7ZM222.645 4.056C222.645 1.952 223.413 0.984 224.677 0.984C225.933 0.984 226.709 1.952 226.709 4.056C226.709 6.16 225.949 7.128 224.677 7.128C223.397 7.128 222.645 6.16 222.645 4.056ZM224.677 6.664C225.597 6.664 226.125 5.848 226.125 4.064C226.125 2.256 225.605 1.456 224.677 1.456C223.749 1.456 223.229 2.24 223.229 4.064C223.229 5.864 223.741 6.664 224.677 6.664ZM229.354 7V6.08H230.234V7H229.354ZM236.96 5.496H236.136V7H235.6V5.496H232.824V5.056L235.472 1.072H236.136V5.024H236.96V5.496ZM233.384 5.032H235.6V1.64H235.568C235.568 1.64 235.424 1.984 235.168 2.36L233.384 5.032Z" fill="white"/>
<path d="M126.56 5.4H127.096C127.192 6.224 127.704 6.656 128.496 6.656C129.168 6.656 129.952 6.28 129.952 5.12C129.952 4.088 129.32 3.608 128.568 3.608C127.968 3.608 127.568 3.8 127.328 4.192H126.8L126.992 1.072H130.192V1.568H127.464L127.336 3.672H127.352C127.584 3.368 128.04 3.144 128.648 3.144C129.616 3.144 130.512 3.736 130.512 5.088C130.512 6.384 129.68 7.12 128.496 7.12C127.176 7.12 126.624 6.272 126.56 5.4ZM133.237 7V6.08H134.117V7H133.237ZM140.658 2.304H140.122C140.026 1.864 139.69 1.432 138.954 1.432C137.786 1.432 137.394 2.552 137.378 4.168H137.402C137.666 3.624 138.194 3.216 138.978 3.216C139.922 3.216 140.818 3.776 140.818 5.136C140.818 6.256 140.09 7.12 138.866 7.12C137.738 7.12 136.826 6.488 136.826 4.352C136.826 2.048 137.61 0.984 138.97 0.984C140.034 0.984 140.554 1.616 140.658 2.304ZM138.874 6.664C139.618 6.664 140.258 6.144 140.258 5.176C140.258 4.176 139.666 3.688 138.866 3.688C138.042 3.688 137.482 4.208 137.482 5.128C137.482 6.072 138.058 6.664 138.874 6.664Z" fill="white"/>
<path d="M69.304 7L71.896 1.56H68.6V1.072H72.512V1.448L69.88 7H69.304Z" fill="white"/>
<path d="M15.408 7H11.904V6.544H13.392V2.52H11.992V2.072H12.496C12.856 2.072 13.096 2.032 13.248 1.872C13.416 1.704 13.464 1.472 13.472 1.048H13.936V6.544H15.408V7ZM18.2372 7V6.08H19.1172V7H18.2372ZM23.8744 4.224H23.3304V3.744H23.8504C24.6584 3.744 25.0424 3.184 25.0424 2.568C25.0424 1.888 24.5704 1.456 23.8264 1.456C23.0584 1.456 22.5784 1.832 22.5464 2.744H22.0104C22.0024 1.784 22.6104 0.984 23.8424 0.984C24.8904 0.984 25.5944 1.584 25.5944 2.504C25.5944 3.232 25.1944 3.72 24.5544 3.936V3.952C25.2424 4.104 25.7544 4.568 25.7544 5.416C25.7544 6.36 24.9944 7.12 23.8024 7.12C22.4344 7.12 21.9144 6.28 21.8664 5.36H22.4024C22.4824 6.216 22.9704 6.656 23.8424 6.656C24.6104 6.656 25.1944 6.184 25.1944 5.408C25.1944 4.592 24.6424 4.224 23.8744 4.224Z" fill="white"/>
<path fill-rule="evenodd" clip-rule="evenodd" d="M0 19H12.6183V55H0V19Z" fill="#A8A18F"/>
<path d="M13.1182 19.5H24.7365V54.5H13.1182V19.5Z" fill="#DCDFD8" stroke="#A8A18F"/>
<path fill-rule="evenodd" clip-rule="evenodd" d="M25.2363 19H36.2773V55H25.2363V19Z" fill="#A8A18F"/>
<path d="M36.7773 19.5H105.178V54.5H36.7773V19.5Z" fill="#DCDFD8" stroke="#A8A18F"/>
<path d="M106.179 19.5H161.961V54.5H106.179V19.5Z" fill="#DCDFD8" stroke="#A8A18F"/>
<path fill-rule="evenodd" clip-rule="evenodd" d="M162.461 19H175.868V55H162.461V19Z" fill="#A8A18F"/>
<path d="M176.367 19.5H279.468V54.5H176.367V19.5Z" fill="#DCDFD8" stroke="#A8A18F"/>
<path fill-rule="evenodd" clip-rule="evenodd" d="M279.969 19H286.278V55H279.969V19Z" fill="#A8A18F"/>
<path d="M286.777 19.5H360.698V54.5H286.777V19.5Z" fill="#DCDFD8" stroke="#A8A18F"/>
<path fill-rule="evenodd" clip-rule="evenodd" d="M361.199 19H367.508V55H361.199V19Z" fill="#A8A18F"/>
<path d="M368.008 19.5H573.632V54.5H368.008V19.5Z" fill="#DCDFD8" stroke="#A8A18F"/>
<path d="M574.633 19.5H636.724V54.5H574.633V19.5Z" fill="#DCDFD8" stroke="#A8A18F"/>
<path d="M637.724 19.5H699.815V54.5H637.724V19.5Z" fill="#DCDFD8" stroke="#A8A18F"/>
<path d="M700.815 19.5H751.077V54.5H700.815V19.5Z" fill="#DCDFD8" stroke="#A8A18F"/>
<path d="M752.077 19.5H832.307V54.5H752.077V19.5Z" fill="#DCDFD8" stroke="#A8A18F"/>
<path d="M833.308 19.5H913.538V54.5H833.308V19.5Z" fill="#DCDFD8" stroke="#A8A18F"/>
<path d="M914.538 19.5H986.882V54.5H914.538V19.5Z" fill="#DCDFD8" stroke="#A8A18F"/>
<path fill-rule="evenodd" clip-rule="evenodd" d="M987.382 19H1000V55H987.382V19Z" fill="#A8A18F"/>
<path d="M280.12 71V70.08H281V71H280.12ZM287.541 66.304H287.005C286.909 65.864 286.573 65.432 285.837 65.432C284.669 65.432 284.277 66.552 284.261 68.168H284.285C284.549 67.624 285.077 67.216 285.861 67.216C286.805 67.216 287.701 67.776 287.701 69.136C287.701 70.256 286.973 71.12 285.749 71.12C284.621 71.12 283.709 70.488 283.709 68.352C283.709 66.048 284.493 64.984 285.853 64.984C286.917 64.984 287.437 65.616 287.541 66.304ZM285.757 70.664C286.501 70.664 287.141 70.144 287.141 69.176C287.141 68.176 286.549 67.688 285.749 67.688C284.925 67.688 284.365 68.208 284.365 69.128C284.365 70.072 284.941 70.664 285.757 70.664Z" fill="white"/>
<path d="M361.12 71V70.08H362V71H361.12ZM368.541 66.304H368.005C367.909 65.864 367.573 65.432 366.837 65.432C365.669 65.432 365.277 66.552 365.261 68.168H365.285C365.549 67.624 366.077 67.216 366.861 67.216C367.805 67.216 368.701 67.776 368.701 69.136C368.701 70.256 367.973 71.12 366.749 71.12C365.621 71.12 364.709 70.488 364.709 68.352C364.709 66.048 365.493 64.984 366.853 64.984C367.917 64.984 368.437 65.616 368.541 66.304ZM366.757 70.664C367.501 70.664 368.141 70.144 368.141 69.176C368.141 68.176 367.549 67.688 366.749 67.688C365.925 67.688 365.365 68.208 365.365 69.128C365.365 70.072 365.941 70.664 366.757 70.664Z" fill="white"/>
<path d="M165.408 71H161.904V70.544H163.392V66.52H161.992V66.072H162.496C162.856 66.072 163.096 66.032 163.248 65.872C163.416 65.704 163.464 65.472 163.472 65.048H163.936V70.544H165.408V71ZM168.237 71V70.08H169.117V71H168.237ZM173.874 68.224H173.33V67.744H173.85C174.658 67.744 175.042 67.184 175.042 66.568C175.042 65.888 174.57 65.456 173.826 65.456C173.058 65.456 172.578 65.832 172.546 66.744H172.01C172.002 65.784 172.61 64.984 173.842 64.984C174.89 64.984 175.594 65.584 175.594 66.504C175.594 67.232 175.194 67.72 174.554 67.936V67.952C175.242 68.104 175.754 68.568 175.754 69.416C175.754 70.36 174.994 71.12 173.802 71.12C172.434 71.12 171.914 70.28 171.866 69.36H172.402C172.482 70.216 172.97 70.656 173.842 70.656C174.61 70.656 175.194 70.184 175.194 69.408C175.194 68.592 174.642 68.224 173.874 68.224Z" fill="white"/>
<path d="M27.408 71H23.904V70.544H25.392V66.52H23.992V66.072H24.496C24.856 66.072 25.096 66.032 25.248 65.872C25.416 65.704 25.464 65.472 25.472 65.048H25.936V70.544H27.408V71ZM30.2372 71V70.08H31.1172V71H30.2372ZM37.6424 71H34.1384V70.544H35.6264V66.52H34.2264V66.072H34.7304C35.0904 66.072 35.3304 66.032 35.4824 65.872C35.6504 65.704 35.6984 65.472 35.7064 65.048H36.1704V70.544H37.6424V71Z" fill="white"/>
<path d="M4.408 71H0.904V70.544H2.392V66.52H0.992V66.072H1.496C1.856 66.072 2.096 66.032 2.248 65.872C2.416 65.704 2.464 65.472 2.472 65.048H2.936V70.544H4.408V71ZM7.23719 71V70.08H8.11719V71H7.23719ZM12.8744 68.224H12.3304V67.744H12.8504C13.6584 67.744 14.0424 67.184 14.0424 66.568C14.0424 65.888 13.5704 65.456 12.8264 65.456C12.0584 65.456 11.5784 65.832 11.5464 66.744H11.0104C11.0024 65.784 11.6104 64.984 12.8424 64.984C13.8904 64.984 14.5944 65.584 14.5944 66.504C14.5944 67.232 14.1944 67.72 13.5544 67.936V67.952C14.2424 68.104 14.7544 68.568 14.7544 69.416C14.7544 70.36 13.9944 71.12 12.8024 71.12C11.4344 71.12 10.9144 70.28 10.8664 69.36H11.4024C11.4824 70.216 11.9704 70.656 12.8424 70.656C13.6104 70.656 14.1944 70.184 14.1944 69.408C14.1944 68.592 13.6424 68.224 12.8744 68.224Z" fill="white"/>
<path d="M988.408 71H984.904V70.544H986.392V66.52H984.992V66.072H985.496C985.856 66.072 986.096 66.032 986.248 65.872C986.416 65.704 986.464 65.472 986.472 65.048H986.936V70.544H988.408V71ZM991.237 71V70.08H992.117V71H991.237ZM996.874 68.224H996.33V67.744H996.85C997.658 67.744 998.042 67.184 998.042 66.568C998.042 65.888 997.57 65.456 996.826 65.456C996.058 65.456 995.578 65.832 995.546 66.744H995.01C995.002 65.784 995.61 64.984 996.842 64.984C997.89 64.984 998.594 65.584 998.594 66.504C998.594 67.232 998.194 67.72 997.554 67.936V67.952C998.242 68.104 998.754 68.568 998.754 69.416C998.754 70.36 997.994 71.12 996.802 71.12C995.434 71.12 994.914 70.28 994.866 69.36H995.402C995.482 70.216 995.97 70.656 996.842 70.656C997.61 70.656 998.194 70.184 998.194 69.408C998.194 68.592 997.642 68.224 996.874 68.224Z" fill="white"/>
</svg>
