<svg width="1000" height="110" viewBox="0 0 1000 110" fill="none" xmlns="http://www.w3.org/2000/svg">
<path d="M876.752 2.544C876.752 1.688 877.416 0.984 878.552 0.984C879.696 0.984 880.352 1.688 880.352 2.544C880.352 3.32 879.864 3.784 879.344 3.936V3.968C879.84 4.064 880.536 4.504 880.536 5.472C880.536 6.456 879.808 7.12 878.552 7.128C877.296 7.136 876.584 6.456 876.584 5.472C876.584 4.496 877.304 4.064 877.776 3.968V3.936C877.256 3.792 876.752 3.32 876.752 2.544ZM878.552 1.424C877.904 1.424 877.312 1.776 877.312 2.584C877.312 3.384 877.92 3.736 878.552 3.736C879.176 3.736 879.792 3.384 879.792 2.584C879.792 1.776 879.184 1.424 878.552 1.424ZM878.552 6.688C879.336 6.688 879.968 6.328 879.968 5.448C879.968 4.568 879.312 4.192 878.552 4.192C877.816 4.192 877.152 4.568 877.152 5.448C877.152 6.328 877.784 6.688 878.552 6.688ZM883.237 7V6.08H884.117V7H883.237ZM890.642 7H887.138V6.544H888.626V2.52H887.226V2.072H887.73C888.09 2.072 888.33 2.032 888.482 1.872C888.65 1.704 888.698 1.472 888.706 1.048H889.17V6.544H890.642V7Z" fill="white"/>
<path d="M208.408 7H204.904V6.544H206.392V2.52H204.992V2.072H205.496C205.856 2.072 206.096 2.032 206.248 1.872C206.416 1.704 206.464 1.472 206.472 1.048H206.936V6.544H208.408V7ZM209.645 4.056C209.645 1.952 210.413 0.984 211.677 0.984C212.933 0.984 213.709 1.952 213.709 4.056C213.709 6.16 212.949 7.128 211.677 7.128C210.397 7.128 209.645 6.16 209.645 4.056ZM211.677 6.664C212.597 6.664 213.125 5.848 213.125 4.064C213.125 2.256 212.605 1.456 211.677 1.456C210.749 1.456 210.229 2.24 210.229 4.064C210.229 5.864 210.741 6.664 211.677 6.664ZM216.354 7V6.08H217.234V7H216.354ZM223.96 5.496H223.136V7H222.6V5.496H219.824V5.056L222.472 1.072H223.136V5.024H223.96V5.496ZM220.384 5.032H222.6V1.64H222.568C222.568 1.64 222.424 1.984 222.168 2.36L220.384 5.032Z" fill="white"/>
<path d="M357.408 7H353.904V6.544H355.392V2.52H353.992V2.072H354.496C354.856 2.072 355.096 2.032 355.248 1.872C355.416 1.704 355.464 1.472 355.472 1.048H355.936V6.544H357.408V7ZM358.869 2.544C358.869 1.688 359.533 0.984 360.669 0.984C361.813 0.984 362.469 1.688 362.469 2.544C362.469 3.32 361.981 3.784 361.461 3.936V3.968C361.957 4.064 362.653 4.504 362.653 5.472C362.653 6.456 361.925 7.12 360.669 7.128C359.413 7.136 358.701 6.456 358.701 5.472C358.701 4.496 359.421 4.064 359.893 3.968V3.936C359.373 3.792 358.869 3.32 358.869 2.544ZM360.669 1.424C360.021 1.424 359.429 1.776 359.429 2.584C359.429 3.384 360.037 3.736 360.669 3.736C361.293 3.736 361.909 3.384 361.909 2.584C361.909 1.776 361.301 1.424 360.669 1.424ZM360.669 6.688C361.453 6.688 362.085 6.328 362.085 5.448C362.085 4.568 361.429 4.192 360.669 4.192C359.933 4.192 359.269 4.568 359.269 5.448C359.269 6.328 359.901 6.688 360.669 6.688ZM365.354 7V6.08H366.234V7H365.354ZM372.76 7H369.256V6.544H370.744V2.52H369.344V2.072H369.848C370.208 2.072 370.448 2.032 370.6 1.872C370.768 1.704 370.816 1.472 370.824 1.048H371.288V6.544H372.76V7Z" fill="white"/>
<path d="M496.304 7L498.896 1.56H495.6V1.072H499.512V1.448L496.88 7H496.304ZM502.237 7V6.08H503.117V7H502.237ZM505.794 5.4H506.33C506.426 6.224 506.938 6.656 507.73 6.656C508.402 6.656 509.186 6.28 509.186 5.12C509.186 4.088 508.554 3.608 507.802 3.608C507.202 3.608 506.802 3.8 506.562 4.192H506.034L506.226 1.072H509.426V1.568H506.698L506.57 3.672H506.586C506.818 3.368 507.274 3.144 507.882 3.144C508.85 3.144 509.746 3.736 509.746 5.088C509.746 6.384 508.914 7.12 507.73 7.12C506.41 7.12 505.858 6.272 505.794 5.4Z" fill="white"/>
<path d="M568.424 2.304H567.888C567.792 1.864 567.456 1.432 566.72 1.432C565.552 1.432 565.16 2.552 565.144 4.168H565.168C565.432 3.624 565.96 3.216 566.744 3.216C567.688 3.216 568.584 3.776 568.584 5.136C568.584 6.256 567.856 7.12 566.632 7.12C565.504 7.12 564.592 6.488 564.592 4.352C564.592 2.048 565.376 0.984 566.736 0.984C567.8 0.984 568.32 1.616 568.424 2.304ZM566.64 6.664C567.384 6.664 568.024 6.144 568.024 5.176C568.024 4.176 567.432 3.688 566.632 3.688C565.808 3.688 565.248 4.208 565.248 5.128C565.248 6.072 565.824 6.664 566.64 6.664ZM571.237 7V6.08H572.117V7H571.237ZM576.874 4.224H576.33V3.744H576.85C577.658 3.744 578.042 3.184 578.042 2.568C578.042 1.888 577.57 1.456 576.826 1.456C576.058 1.456 575.578 1.832 575.546 2.744H575.01C575.002 1.784 575.61 0.984 576.842 0.984C577.89 0.984 578.594 1.584 578.594 2.504C578.594 3.232 578.194 3.72 577.554 3.936V3.952C578.242 4.104 578.754 4.568 578.754 5.416C578.754 6.36 577.994 7.12 576.802 7.12C575.434 7.12 574.914 6.28 574.866 5.36H575.402C575.482 6.216 575.97 6.656 576.842 6.656C577.61 6.656 578.194 6.184 578.194 5.408C578.194 4.592 577.642 4.224 576.874 4.224Z" fill="white"/>
<path d="M631.424 2.304H630.888C630.792 1.864 630.456 1.432 629.72 1.432C628.552 1.432 628.16 2.552 628.144 4.168H628.168C628.432 3.624 628.96 3.216 629.744 3.216C630.688 3.216 631.584 3.776 631.584 5.136C631.584 6.256 630.856 7.12 629.632 7.12C628.504 7.12 627.592 6.488 627.592 4.352C627.592 2.048 628.376 0.984 629.736 0.984C630.8 0.984 631.32 1.616 631.424 2.304ZM629.64 6.664C630.384 6.664 631.024 6.144 631.024 5.176C631.024 4.176 630.432 3.688 629.632 3.688C628.808 3.688 628.248 4.208 628.248 5.128C628.248 6.072 628.824 6.664 629.64 6.664ZM634.237 7V6.08H635.117V7H634.237ZM639.874 4.224H639.33V3.744H639.85C640.658 3.744 641.042 3.184 641.042 2.568C641.042 1.888 640.57 1.456 639.826 1.456C639.058 1.456 638.578 1.832 638.546 2.744H638.01C638.002 1.784 638.61 0.984 639.842 0.984C640.89 0.984 641.594 1.584 641.594 2.504C641.594 3.232 641.194 3.72 640.554 3.936V3.952C641.242 4.104 641.754 4.568 641.754 5.416C641.754 6.36 640.994 7.12 639.802 7.12C638.434 7.12 637.914 6.28 637.866 5.36H638.402C638.482 6.216 638.97 6.656 639.842 6.656C640.61 6.656 641.194 6.184 641.194 5.408C641.194 4.592 640.642 4.224 639.874 4.224Z" fill="white"/>
<path d="M745.424 2.304H744.888C744.792 1.864 744.456 1.432 743.72 1.432C742.552 1.432 742.16 2.552 742.144 4.168H742.168C742.432 3.624 742.96 3.216 743.744 3.216C744.688 3.216 745.584 3.776 745.584 5.136C745.584 6.256 744.856 7.12 743.632 7.12C742.504 7.12 741.592 6.488 741.592 4.352C741.592 2.048 742.376 0.984 743.736 0.984C744.8 0.984 745.32 1.616 745.424 2.304ZM743.64 6.664C744.384 6.664 745.024 6.144 745.024 5.176C745.024 4.176 744.432 3.688 743.632 3.688C742.808 3.688 742.248 4.208 742.248 5.128C742.248 6.072 742.824 6.664 743.64 6.664ZM748.237 7V6.08H749.117V7H748.237ZM753.874 4.224H753.33V3.744H753.85C754.658 3.744 755.042 3.184 755.042 2.568C755.042 1.888 754.57 1.456 753.826 1.456C753.058 1.456 752.578 1.832 752.546 2.744H752.01C752.002 1.784 752.61 0.984 753.842 0.984C754.89 0.984 755.594 1.584 755.594 2.504C755.594 3.232 755.194 3.72 754.554 3.936V3.952C755.242 4.104 755.754 4.568 755.754 5.416C755.754 6.36 754.994 7.12 753.802 7.12C752.434 7.12 751.914 6.28 751.866 5.36H752.402C752.482 6.216 752.97 6.656 753.842 6.656C754.61 6.656 755.194 6.184 755.194 5.408C755.194 4.592 754.642 4.224 753.874 4.224Z" fill="white"/>
<path d="M808.424 2.304H807.888C807.792 1.864 807.456 1.432 806.72 1.432C805.552 1.432 805.16 2.552 805.144 4.168H805.168C805.432 3.624 805.96 3.216 806.744 3.216C807.688 3.216 808.584 3.776 808.584 5.136C808.584 6.256 807.856 7.12 806.632 7.12C805.504 7.12 804.592 6.488 804.592 4.352C804.592 2.048 805.376 0.984 806.736 0.984C807.8 0.984 808.32 1.616 808.424 2.304ZM806.64 6.664C807.384 6.664 808.024 6.144 808.024 5.176C808.024 4.176 807.432 3.688 806.632 3.688C805.808 3.688 805.248 4.208 805.248 5.128C805.248 6.072 805.824 6.664 806.64 6.664ZM811.237 7V6.08H812.117V7H811.237ZM816.874 4.224H816.33V3.744H816.85C817.658 3.744 818.042 3.184 818.042 2.568C818.042 1.888 817.57 1.456 816.826 1.456C816.058 1.456 815.578 1.832 815.546 2.744H815.01C815.002 1.784 815.61 0.984 816.842 0.984C817.89 0.984 818.594 1.584 818.594 2.504C818.594 3.232 818.194 3.72 817.554 3.936V3.952C818.242 4.104 818.754 4.568 818.754 5.416C818.754 6.36 817.994 7.12 816.802 7.12C815.434 7.12 814.914 6.28 814.866 5.36H815.402C815.482 6.216 815.97 6.656 816.842 6.656C817.61 6.656 818.194 6.184 818.194 5.408C818.194 4.592 817.642 4.224 816.874 4.224Z" fill="white"/>
<path d="M952.424 2.304H951.888C951.792 1.864 951.456 1.432 950.72 1.432C949.552 1.432 949.16 2.552 949.144 4.168H949.168C949.432 3.624 949.96 3.216 950.744 3.216C951.688 3.216 952.584 3.776 952.584 5.136C952.584 6.256 951.856 7.12 950.632 7.12C949.504 7.12 948.592 6.488 948.592 4.352C948.592 2.048 949.376 0.984 950.736 0.984C951.8 0.984 952.32 1.616 952.424 2.304ZM950.64 6.664C951.384 6.664 952.024 6.144 952.024 5.176C952.024 4.176 951.432 3.688 950.632 3.688C949.808 3.688 949.248 4.208 949.248 5.128C949.248 6.072 949.824 6.664 950.64 6.664ZM955.237 7V6.08H956.117V7H955.237ZM960.874 4.224H960.33V3.744H960.85C961.658 3.744 962.042 3.184 962.042 2.568C962.042 1.888 961.57 1.456 960.826 1.456C960.058 1.456 959.578 1.832 959.546 2.744H959.01C959.002 1.784 959.61 0.984 960.842 0.984C961.89 0.984 962.594 1.584 962.594 2.504C962.594 3.232 962.194 3.72 961.554 3.936V3.952C962.242 4.104 962.754 4.568 962.754 5.416C962.754 6.36 961.994 7.12 960.802 7.12C959.434 7.12 958.914 6.28 958.866 5.36H959.402C959.482 6.216 959.97 6.656 960.842 6.656C961.61 6.656 962.194 6.184 962.194 5.408C962.194 4.592 961.642 4.224 960.874 4.224Z" fill="white"/>
<path d="M689.56 5.4H690.096C690.192 6.224 690.704 6.656 691.496 6.656C692.168 6.656 692.952 6.28 692.952 5.12C692.952 4.088 692.32 3.608 691.568 3.608C690.968 3.608 690.568 3.8 690.328 4.192H689.8L689.992 1.072H693.192V1.568H690.464L690.336 3.672H690.352C690.584 3.368 691.04 3.144 691.648 3.144C692.616 3.144 693.512 3.736 693.512 5.088C693.512 6.384 692.68 7.12 691.496 7.12C690.176 7.12 689.624 6.272 689.56 5.4Z" fill="white"/>
<path d="M107.56 5.4H108.096C108.192 6.224 108.704 6.656 109.496 6.656C110.168 6.656 110.952 6.28 110.952 5.12C110.952 4.088 110.32 3.608 109.568 3.608C108.968 3.608 108.568 3.8 108.328 4.192H107.8L107.992 1.072H111.192V1.568H108.464L108.336 3.672H108.352C108.584 3.368 109.04 3.144 109.648 3.144C110.616 3.144 111.512 3.736 111.512 5.088C111.512 6.384 110.68 7.12 109.496 7.12C108.176 7.12 107.624 6.272 107.56 5.4ZM114.237 7V6.08H115.117V7H114.237ZM121.658 2.304H121.122C121.026 1.864 120.69 1.432 119.954 1.432C118.786 1.432 118.394 2.552 118.378 4.168H118.402C118.666 3.624 119.194 3.216 119.978 3.216C120.922 3.216 121.818 3.776 121.818 5.136C121.818 6.256 121.09 7.12 119.866 7.12C118.738 7.12 117.826 6.488 117.826 4.352C117.826 2.048 118.61 0.984 119.97 0.984C121.034 0.984 121.554 1.616 121.658 2.304ZM119.874 6.664C120.618 6.664 121.258 6.144 121.258 5.176C121.258 4.176 120.666 3.688 119.866 3.688C119.042 3.688 118.482 4.208 118.482 5.128C118.482 6.072 119.058 6.664 119.874 6.664Z" fill="white"/>
<path d="M53.56 5.4H54.096C54.192 6.224 54.704 6.656 55.496 6.656C56.168 6.656 56.952 6.28 56.952 5.12C56.952 4.088 56.32 3.608 55.568 3.608C54.968 3.608 54.568 3.8 54.328 4.192H53.8L53.992 1.072H57.192V1.568H54.464L54.336 3.672H54.352C54.584 3.368 55.04 3.144 55.648 3.144C56.616 3.144 57.512 3.736 57.512 5.088C57.512 6.384 56.68 7.12 55.496 7.12C54.176 7.12 53.624 6.272 53.56 5.4ZM60.2372 7V6.08H61.1172V7H60.2372ZM67.6424 7H64.1384V6.544H65.6264V2.52H64.2264V2.072H64.7304C65.0904 2.072 65.3304 2.032 65.4824 1.872C65.6504 1.704 65.6984 1.472 65.7064 1.048H66.1704V6.544H67.6424V7Z" fill="white"/>
<path d="M15.408 7H11.904V6.544H13.392V2.52H11.992V2.072H12.496C12.856 2.072 13.096 2.032 13.248 1.872C13.416 1.704 13.464 1.472 13.472 1.048H13.936V6.544H15.408V7ZM18.2372 7V6.08H19.1172V7H18.2372ZM23.8744 4.224H23.3304V3.744H23.8504C24.6584 3.744 25.0424 3.184 25.0424 2.568C25.0424 1.888 24.5704 1.456 23.8264 1.456C23.0584 1.456 22.5784 1.832 22.5464 2.744H22.0104C22.0024 1.784 22.6104 0.984 23.8424 0.984C24.8904 0.984 25.5944 1.584 25.5944 2.504C25.5944 3.232 25.1944 3.72 24.5544 3.936V3.952C25.2424 4.104 25.7544 4.568 25.7544 5.416C25.7544 6.36 24.9944 7.12 23.8024 7.12C22.4344 7.12 21.9144 6.28 21.8664 5.36H22.4024C22.4824 6.216 22.9704 6.656 23.8424 6.656C24.6104 6.656 25.1944 6.184 25.1944 5.408C25.1944 4.592 24.6424 4.224 23.8744 4.224Z" fill="white"/>
<path fill-rule="evenodd" clip-rule="evenodd" d="M0 19H12.6084V91H0V19Z" fill="#A8A18F"/>
<path d="M13.1084 19.5H24.7168V90.5H13.1084V19.5Z" fill="#DCDFD8" stroke="#A8A18F"/>
<path fill-rule="evenodd" clip-rule="evenodd" d="M25.2168 19H35.4611V91H25.2168V19Z" fill="#A8A18F"/>
<path d="M35.9609 19.5H86.1824V90.5H35.9609V19.5Z" fill="#DCDFD8" stroke="#A8A18F"/>
<path d="M87.1826 19.5H142.92V90.5H87.1826V19.5Z" fill="#DCDFD8" stroke="#A8A18F"/>
<path fill-rule="evenodd" clip-rule="evenodd" d="M143.42 19H162.332V91H143.42V19Z" fill="#A8A18F"/>
<path d="M162.833 19.5H265.852V90.5H162.833V19.5Z" fill="#DCDFD8" stroke="#A8A18F"/>
<path fill-rule="evenodd" clip-rule="evenodd" d="M266.352 19H272.656V91H266.352V19Z" fill="#A8A18F"/>
<path d="M273.155 19.5H453.4V90.5H273.155V19.5Z" fill="#DCDFD8" stroke="#A8A18F"/>
<path fill-rule="evenodd" clip-rule="evenodd" d="M453.9 19H461.781V91H453.9V19Z" fill="#A8A18F"/>
<path d="M462.281 19.5H536.143V90.5H462.281V19.5Z" fill="#DCDFD8" stroke="#A8A18F"/>
<path fill-rule="evenodd" clip-rule="evenodd" d="M536.643 19H539.795V91H536.643V19Z" fill="#A8A18F"/>
<path d="M540.295 19.5H602.337V90.5H540.295V19.5Z" fill="#DCDFD8" stroke="#A8A18F"/>
<path d="M603.337 19.5H665.379V90.5H603.337V19.5Z" fill="#DCDFD8" stroke="#A8A18F"/>
<path d="M666.379 19.5H715.812V90.5H666.379V19.5Z" fill="#DCDFD8" stroke="#A8A18F"/>
<path d="M716.812 19.5H778.854V90.5H716.812V19.5Z" fill="#DCDFD8" stroke="#A8A18F"/>
<path d="M779.854 19.5H841.895V90.5H779.854V19.5Z" fill="#DCDFD8" stroke="#A8A18F"/>
<path d="M842.896 19.5H923.062V90.5H842.896V19.5Z" fill="#DCDFD8" stroke="#A8A18F"/>
<path d="M924.062 19.5H986.103V90.5H924.062V19.5Z" fill="#DCDFD8" stroke="#A8A18F"/>
<path fill-rule="evenodd" clip-rule="evenodd" d="M986.604 19H1000V91H986.604V19Z" fill="#A8A18F"/>
<path d="M266.12 107V106.08H267V107H266.12ZM273.541 102.304H273.005C272.909 101.864 272.573 101.432 271.837 101.432C270.669 101.432 270.277 102.552 270.261 104.168H270.285C270.549 103.624 271.077 103.216 271.861 103.216C272.805 103.216 273.701 103.776 273.701 105.136C273.701 106.256 272.973 107.12 271.749 107.12C270.621 107.12 269.709 106.488 269.709 104.352C269.709 102.048 270.493 100.984 271.853 100.984C272.917 100.984 273.437 101.616 273.541 102.304ZM271.757 106.664C272.501 106.664 273.141 106.144 273.141 105.176C273.141 104.176 272.549 103.688 271.749 103.688C270.925 103.688 270.365 104.208 270.365 105.128C270.365 106.072 270.941 106.664 271.757 106.664Z" fill="white"/>
<path d="M454.12 107V106.08H455V107H454.12ZM458.421 107L461.013 101.56H457.717V101.072H461.629V101.448L458.997 107H458.421Z" fill="white"/>
<path d="M535.12 107V106.08H536V107H535.12ZM540.757 104.224H540.213V103.744H540.733C541.541 103.744 541.925 103.184 541.925 102.568C541.925 101.888 541.453 101.456 540.709 101.456C539.941 101.456 539.461 101.832 539.429 102.744H538.893C538.885 101.784 539.493 100.984 540.725 100.984C541.773 100.984 542.477 101.584 542.477 102.504C542.477 103.232 542.077 103.72 541.437 103.936V103.952C542.125 104.104 542.637 104.568 542.637 105.416C542.637 106.36 541.877 107.12 540.685 107.12C539.317 107.12 538.797 106.28 538.749 105.36H539.285C539.365 106.216 539.853 106.656 540.725 106.656C541.493 106.656 542.077 106.184 542.077 105.408C542.077 104.592 541.525 104.224 540.757 104.224Z" fill="white"/>
<path d="M149.408 107H145.904V106.544H147.392V102.52H145.992V102.072H146.496C146.856 102.072 147.096 102.032 147.248 101.872C147.416 101.704 147.464 101.472 147.472 101.048H147.936V106.544H149.408V107ZM152.237 107V106.08H153.117V107H152.237ZM155.922 105.72H156.45C156.594 106.36 157.042 106.68 157.682 106.68C158.77 106.68 159.162 105.864 159.194 103.88H159.162C158.914 104.44 158.362 104.776 157.666 104.776C156.722 104.776 155.842 104.2 155.842 102.896C155.842 101.792 156.618 100.992 157.738 100.992C158.922 100.992 159.722 101.792 159.722 103.64C159.722 106.216 159.01 107.128 157.642 107.128C156.786 107.128 156.074 106.672 155.922 105.72ZM157.73 101.456C157.074 101.456 156.394 101.88 156.394 102.896C156.394 103.816 156.994 104.312 157.738 104.312C158.514 104.312 159.098 103.784 159.098 102.896C159.098 101.968 158.474 101.456 157.73 101.456Z" fill="white"/>
<path d="M31.408 107H27.904V106.544H29.392V102.52H27.992V102.072H28.496C28.856 102.072 29.096 102.032 29.248 101.872C29.416 101.704 29.464 101.472 29.472 101.048H29.936V106.544H31.408V107Z" fill="white"/>
<path d="M4.408 107H0.904V106.544H2.392V102.52H0.992V102.072H1.496C1.856 102.072 2.096 102.032 2.248 101.872C2.416 101.704 2.464 101.472 2.472 101.048H2.936V106.544H4.408V107ZM7.23719 107V106.08H8.11719V107H7.23719ZM12.8744 104.224H12.3304V103.744H12.8504C13.6584 103.744 14.0424 103.184 14.0424 102.568C14.0424 101.888 13.5704 101.456 12.8264 101.456C12.0584 101.456 11.5784 101.832 11.5464 102.744H11.0104C11.0024 101.784 11.6104 100.984 12.8424 100.984C13.8904 100.984 14.5944 101.584 14.5944 102.504C14.5944 103.232 14.1944 103.72 13.5544 103.936V103.952C14.2424 104.104 14.7544 104.568 14.7544 105.416C14.7544 106.36 13.9944 107.12 12.8024 107.12C11.4344 107.12 10.9144 106.28 10.8664 105.36H11.4024C11.4824 106.216 11.9704 106.656 12.8424 106.656C13.6104 106.656 14.1944 106.184 14.1944 105.408C14.1944 104.592 13.6424 104.224 12.8744 104.224Z" fill="white"/>
<path d="M988.408 107H984.904V106.544H986.392V102.52H984.992V102.072H985.496C985.856 102.072 986.096 102.032 986.248 101.872C986.416 101.704 986.464 101.472 986.472 101.048H986.936V106.544H988.408V107ZM991.237 107V106.08H992.117V107H991.237ZM996.874 104.224H996.33V103.744H996.85C997.658 103.744 998.042 103.184 998.042 102.568C998.042 101.888 997.57 101.456 996.826 101.456C996.058 101.456 995.578 101.832 995.546 102.744H995.01C995.002 101.784 995.61 100.984 996.842 100.984C997.89 100.984 998.594 101.584 998.594 102.504C998.594 103.232 998.194 103.72 997.554 103.936V103.952C998.242 104.104 998.754 104.568 998.754 105.416C998.754 106.36 997.994 107.12 996.802 107.12C995.434 107.12 994.914 106.28 994.866 105.36H995.402C995.482 106.216 995.97 106.656 996.842 106.656C997.61 106.656 998.194 106.184 998.194 105.408C998.194 104.592 997.642 104.224 996.874 104.224Z" fill="white"/>
</svg>
