<svg width="1000" height="100" viewBox="0 0 1000 100" fill="none" xmlns="http://www.w3.org/2000/svg">
<path d="M876.752 2.544C876.752 1.688 877.416 0.984 878.552 0.984C879.696 0.984 880.352 1.688 880.352 2.544C880.352 3.32 879.864 3.784 879.344 3.936V3.968C879.84 4.064 880.536 4.504 880.536 5.472C880.536 6.456 879.808 7.12 878.552 7.128C877.296 7.136 876.584 6.456 876.584 5.472C876.584 4.496 877.304 4.064 877.776 3.968V3.936C877.256 3.792 876.752 3.32 876.752 2.544ZM878.552 1.424C877.904 1.424 877.312 1.776 877.312 2.584C877.312 3.384 877.92 3.736 878.552 3.736C879.176 3.736 879.792 3.384 879.792 2.584C879.792 1.776 879.184 1.424 878.552 1.424ZM878.552 6.688C879.336 6.688 879.968 6.328 879.968 5.448C879.968 4.568 879.312 4.192 878.552 4.192C877.816 4.192 877.152 4.568 877.152 5.448C877.152 6.328 877.784 6.688 878.552 6.688ZM883.237 7V6.08H884.117V7H883.237ZM890.642 7H887.138V6.544H888.626V2.52H887.226V2.072H887.73C888.09 2.072 888.33 2.032 888.482 1.872C888.65 1.704 888.698 1.472 888.706 1.048H889.17V6.544H890.642V7Z" fill="white"/>
<path d="M189.408 7H185.904V6.544H187.392V2.52H185.992V2.072H186.496C186.856 2.072 187.096 2.032 187.248 1.872C187.416 1.704 187.464 1.472 187.472 1.048H187.936V6.544H189.408V7ZM190.645 4.056C190.645 1.952 191.413 0.984 192.677 0.984C193.933 0.984 194.709 1.952 194.709 4.056C194.709 6.16 193.949 7.128 192.677 7.128C191.397 7.128 190.645 6.16 190.645 4.056ZM192.677 6.664C193.597 6.664 194.125 5.848 194.125 4.064C194.125 2.256 193.605 1.456 192.677 1.456C191.749 1.456 191.229 2.24 191.229 4.064C191.229 5.864 191.741 6.664 192.677 6.664ZM197.354 7V6.08H198.234V7H197.354ZM204.96 5.496H204.136V7H203.6V5.496H200.824V5.056L203.472 1.072H204.136V5.024H204.96V5.496ZM201.384 5.032H203.6V1.64H203.568C203.568 1.64 203.424 1.984 203.168 2.36L201.384 5.032Z" fill="white"/>
<path d="M345.408 7H341.904V6.544H343.392V2.52H341.992V2.072H342.496C342.856 2.072 343.096 2.032 343.248 1.872C343.416 1.704 343.464 1.472 343.472 1.048H343.936V6.544H345.408V7ZM346.805 5.72H347.333C347.477 6.36 347.925 6.68 348.565 6.68C349.653 6.68 350.045 5.864 350.077 3.88H350.045C349.797 4.44 349.245 4.776 348.549 4.776C347.605 4.776 346.725 4.2 346.725 2.896C346.725 1.792 347.501 0.992 348.621 0.992C349.805 0.992 350.605 1.792 350.605 3.64C350.605 6.216 349.893 7.128 348.525 7.128C347.669 7.128 346.957 6.672 346.805 5.72ZM348.613 1.456C347.957 1.456 347.277 1.88 347.277 2.896C347.277 3.816 347.877 4.312 348.621 4.312C349.397 4.312 349.981 3.784 349.981 2.896C349.981 1.968 349.357 1.456 348.613 1.456ZM353.354 7V6.08H354.234V7H353.354ZM356.912 5.4H357.448C357.544 6.224 358.056 6.656 358.848 6.656C359.52 6.656 360.304 6.28 360.304 5.12C360.304 4.088 359.672 3.608 358.92 3.608C358.32 3.608 357.92 3.8 357.68 4.192H357.152L357.344 1.072H360.544V1.568H357.816L357.688 3.672H357.704C357.936 3.368 358.392 3.144 359 3.144C359.968 3.144 360.864 3.736 360.864 5.088C360.864 6.384 360.032 7.12 358.848 7.12C357.528 7.12 356.976 6.272 356.912 5.4Z" fill="white"/>
<path d="M483.304 7L485.896 1.56H482.6V1.072H486.512V1.448L483.88 7H483.304ZM489.237 7V6.08H490.117V7H489.237ZM492.986 2.544C492.986 1.688 493.65 0.984 494.786 0.984C495.93 0.984 496.586 1.688 496.586 2.544C496.586 3.32 496.098 3.784 495.578 3.936V3.968C496.074 4.064 496.77 4.504 496.77 5.472C496.77 6.456 496.042 7.12 494.786 7.128C493.53 7.136 492.818 6.456 492.818 5.472C492.818 4.496 493.538 4.064 494.01 3.968V3.936C493.49 3.792 492.986 3.32 492.986 2.544ZM494.786 1.424C494.138 1.424 493.546 1.776 493.546 2.584C493.546 3.384 494.154 3.736 494.786 3.736C495.41 3.736 496.026 3.384 496.026 2.584C496.026 1.776 495.418 1.424 494.786 1.424ZM494.786 6.688C495.57 6.688 496.202 6.328 496.202 5.448C496.202 4.568 495.546 4.192 494.786 4.192C494.05 4.192 493.386 4.568 493.386 5.448C493.386 6.328 494.018 6.688 494.786 6.688Z" fill="white"/>
<path d="M568.424 2.304H567.888C567.792 1.864 567.456 1.432 566.72 1.432C565.552 1.432 565.16 2.552 565.144 4.168H565.168C565.432 3.624 565.96 3.216 566.744 3.216C567.688 3.216 568.584 3.776 568.584 5.136C568.584 6.256 567.856 7.12 566.632 7.12C565.504 7.12 564.592 6.488 564.592 4.352C564.592 2.048 565.376 0.984 566.736 0.984C567.8 0.984 568.32 1.616 568.424 2.304ZM566.64 6.664C567.384 6.664 568.024 6.144 568.024 5.176C568.024 4.176 567.432 3.688 566.632 3.688C565.808 3.688 565.248 4.208 565.248 5.128C565.248 6.072 565.824 6.664 566.64 6.664ZM571.237 7V6.08H572.117V7H571.237ZM576.874 4.224H576.33V3.744H576.85C577.658 3.744 578.042 3.184 578.042 2.568C578.042 1.888 577.57 1.456 576.826 1.456C576.058 1.456 575.578 1.832 575.546 2.744H575.01C575.002 1.784 575.61 0.984 576.842 0.984C577.89 0.984 578.594 1.584 578.594 2.504C578.594 3.232 578.194 3.72 577.554 3.936V3.952C578.242 4.104 578.754 4.568 578.754 5.416C578.754 6.36 577.994 7.12 576.802 7.12C575.434 7.12 574.914 6.28 574.866 5.36H575.402C575.482 6.216 575.97 6.656 576.842 6.656C577.61 6.656 578.194 6.184 578.194 5.408C578.194 4.592 577.642 4.224 576.874 4.224Z" fill="white"/>
<path d="M631.424 2.304H630.888C630.792 1.864 630.456 1.432 629.72 1.432C628.552 1.432 628.16 2.552 628.144 4.168H628.168C628.432 3.624 628.96 3.216 629.744 3.216C630.688 3.216 631.584 3.776 631.584 5.136C631.584 6.256 630.856 7.12 629.632 7.12C628.504 7.12 627.592 6.488 627.592 4.352C627.592 2.048 628.376 0.984 629.736 0.984C630.8 0.984 631.32 1.616 631.424 2.304ZM629.64 6.664C630.384 6.664 631.024 6.144 631.024 5.176C631.024 4.176 630.432 3.688 629.632 3.688C628.808 3.688 628.248 4.208 628.248 5.128C628.248 6.072 628.824 6.664 629.64 6.664ZM634.237 7V6.08H635.117V7H634.237ZM639.874 4.224H639.33V3.744H639.85C640.658 3.744 641.042 3.184 641.042 2.568C641.042 1.888 640.57 1.456 639.826 1.456C639.058 1.456 638.578 1.832 638.546 2.744H638.01C638.002 1.784 638.61 0.984 639.842 0.984C640.89 0.984 641.594 1.584 641.594 2.504C641.594 3.232 641.194 3.72 640.554 3.936V3.952C641.242 4.104 641.754 4.568 641.754 5.416C641.754 6.36 640.994 7.12 639.802 7.12C638.434 7.12 637.914 6.28 637.866 5.36H638.402C638.482 6.216 638.97 6.656 639.842 6.656C640.61 6.656 641.194 6.184 641.194 5.408C641.194 4.592 640.642 4.224 639.874 4.224Z" fill="white"/>
<path d="M744.424 2.304H743.888C743.792 1.864 743.456 1.432 742.72 1.432C741.552 1.432 741.16 2.552 741.144 4.168H741.168C741.432 3.624 741.96 3.216 742.744 3.216C743.688 3.216 744.584 3.776 744.584 5.136C744.584 6.256 743.856 7.12 742.632 7.12C741.504 7.12 740.592 6.488 740.592 4.352C740.592 2.048 741.376 0.984 742.736 0.984C743.8 0.984 744.32 1.616 744.424 2.304ZM742.64 6.664C743.384 6.664 744.024 6.144 744.024 5.176C744.024 4.176 743.432 3.688 742.632 3.688C741.808 3.688 741.248 4.208 741.248 5.128C741.248 6.072 741.824 6.664 742.64 6.664ZM747.237 7V6.08H748.117V7H747.237ZM752.874 4.224H752.33V3.744H752.85C753.658 3.744 754.042 3.184 754.042 2.568C754.042 1.888 753.57 1.456 752.826 1.456C752.058 1.456 751.578 1.832 751.546 2.744H751.01C751.002 1.784 751.61 0.984 752.842 0.984C753.89 0.984 754.594 1.584 754.594 2.504C754.594 3.232 754.194 3.72 753.554 3.936V3.952C754.242 4.104 754.754 4.568 754.754 5.416C754.754 6.36 753.994 7.12 752.802 7.12C751.434 7.12 750.914 6.28 750.866 5.36H751.402C751.482 6.216 751.97 6.656 752.842 6.656C753.61 6.656 754.194 6.184 754.194 5.408C754.194 4.592 753.642 4.224 752.874 4.224Z" fill="white"/>
<path d="M808.424 2.304H807.888C807.792 1.864 807.456 1.432 806.72 1.432C805.552 1.432 805.16 2.552 805.144 4.168H805.168C805.432 3.624 805.96 3.216 806.744 3.216C807.688 3.216 808.584 3.776 808.584 5.136C808.584 6.256 807.856 7.12 806.632 7.12C805.504 7.12 804.592 6.488 804.592 4.352C804.592 2.048 805.376 0.984 806.736 0.984C807.8 0.984 808.32 1.616 808.424 2.304ZM806.64 6.664C807.384 6.664 808.024 6.144 808.024 5.176C808.024 4.176 807.432 3.688 806.632 3.688C805.808 3.688 805.248 4.208 805.248 5.128C805.248 6.072 805.824 6.664 806.64 6.664ZM811.237 7V6.08H812.117V7H811.237ZM816.874 4.224H816.33V3.744H816.85C817.658 3.744 818.042 3.184 818.042 2.568C818.042 1.888 817.57 1.456 816.826 1.456C816.058 1.456 815.578 1.832 815.546 2.744H815.01C815.002 1.784 815.61 0.984 816.842 0.984C817.89 0.984 818.594 1.584 818.594 2.504C818.594 3.232 818.194 3.72 817.554 3.936V3.952C818.242 4.104 818.754 4.568 818.754 5.416C818.754 6.36 817.994 7.12 816.802 7.12C815.434 7.12 814.914 6.28 814.866 5.36H815.402C815.482 6.216 815.97 6.656 816.842 6.656C817.61 6.656 818.194 6.184 818.194 5.408C818.194 4.592 817.642 4.224 816.874 4.224Z" fill="white"/>
<path d="M952.424 2.304H951.888C951.792 1.864 951.456 1.432 950.72 1.432C949.552 1.432 949.16 2.552 949.144 4.168H949.168C949.432 3.624 949.96 3.216 950.744 3.216C951.688 3.216 952.584 3.776 952.584 5.136C952.584 6.256 951.856 7.12 950.632 7.12C949.504 7.12 948.592 6.488 948.592 4.352C948.592 2.048 949.376 0.984 950.736 0.984C951.8 0.984 952.32 1.616 952.424 2.304ZM950.64 6.664C951.384 6.664 952.024 6.144 952.024 5.176C952.024 4.176 951.432 3.688 950.632 3.688C949.808 3.688 949.248 4.208 949.248 5.128C949.248 6.072 949.824 6.664 950.64 6.664ZM955.237 7V6.08H956.117V7H955.237ZM960.874 4.224H960.33V3.744H960.85C961.658 3.744 962.042 3.184 962.042 2.568C962.042 1.888 961.57 1.456 960.826 1.456C960.058 1.456 959.578 1.832 959.546 2.744H959.01C959.002 1.784 959.61 0.984 960.842 0.984C961.89 0.984 962.594 1.584 962.594 2.504C962.594 3.232 962.194 3.72 961.554 3.936V3.952C962.242 4.104 962.754 4.568 962.754 5.416C962.754 6.36 961.994 7.12 960.802 7.12C959.434 7.12 958.914 6.28 958.866 5.36H959.402C959.482 6.216 959.97 6.656 960.842 6.656C961.61 6.656 962.194 6.184 962.194 5.408C962.194 4.592 961.642 4.224 960.874 4.224Z" fill="white"/>
<path d="M689.56 5.4H690.096C690.192 6.224 690.704 6.656 691.496 6.656C692.168 6.656 692.952 6.28 692.952 5.12C692.952 4.088 692.32 3.608 691.568 3.608C690.968 3.608 690.568 3.8 690.328 4.192H689.8L689.992 1.072H693.192V1.568H690.464L690.336 3.672H690.352C690.584 3.368 691.04 3.144 691.648 3.144C692.616 3.144 693.512 3.736 693.512 5.088C693.512 6.384 692.68 7.12 691.496 7.12C690.176 7.12 689.624 6.272 689.56 5.4Z" fill="white"/>
<path d="M102.608 5.496H101.784V7H101.248V5.496H98.472V5.056L101.12 1.072H101.784V5.024H102.608V5.496ZM99.032 5.032H101.248V1.64H101.216C101.216 1.64 101.072 1.984 100.816 2.36L99.032 5.032ZM105.237 7V6.08H106.117V7H105.237ZM109.538 7L112.13 1.56H108.834V1.072H112.746V1.448L110.114 7H109.538Z" fill="white"/>
<path d="M53.56 5.4H54.096C54.192 6.224 54.704 6.656 55.496 6.656C56.168 6.656 56.952 6.28 56.952 5.12C56.952 4.088 56.32 3.608 55.568 3.608C54.968 3.608 54.568 3.8 54.328 4.192H53.8L53.992 1.072H57.192V1.568H54.464L54.336 3.672H54.352C54.584 3.368 55.04 3.144 55.648 3.144C56.616 3.144 57.512 3.736 57.512 5.088C57.512 6.384 56.68 7.12 55.496 7.12C54.176 7.12 53.624 6.272 53.56 5.4ZM60.2372 7V6.08H61.1172V7H60.2372ZM67.6424 7H64.1384V6.544H65.6264V2.52H64.2264V2.072H64.7304C65.0904 2.072 65.3304 2.032 65.4824 1.872C65.6504 1.704 65.6984 1.472 65.7064 1.048H66.1704V6.544H67.6424V7Z" fill="white"/>
<path d="M15.408 7H11.904V6.544H13.392V2.52H11.992V2.072H12.496C12.856 2.072 13.096 2.032 13.248 1.872C13.416 1.704 13.464 1.472 13.472 1.048H13.936V6.544H15.408V7ZM18.2372 7V6.08H19.1172V7H18.2372ZM23.8744 4.224H23.3304V3.744H23.8504C24.6584 3.744 25.0424 3.184 25.0424 2.568C25.0424 1.888 24.5704 1.456 23.8264 1.456C23.0584 1.456 22.5784 1.832 22.5464 2.744H22.0104C22.0024 1.784 22.6104 0.984 23.8424 0.984C24.8904 0.984 25.5944 1.584 25.5944 2.504C25.5944 3.232 25.1944 3.72 24.5544 3.936V3.952C25.2424 4.104 25.7544 4.568 25.7544 5.416C25.7544 6.36 24.9944 7.12 23.8024 7.12C22.4344 7.12 21.9144 6.28 21.8664 5.36H22.4024C22.4824 6.216 22.9704 6.656 23.8424 6.656C24.6104 6.656 25.1944 6.184 25.1944 5.408C25.1944 4.592 24.6424 4.224 23.8744 4.224Z" fill="white"/>
<path fill-rule="evenodd" clip-rule="evenodd" d="M0 19H12.6183V81H0V19Z" fill="#A8A18F"/>
<path d="M13.1182 19.5H24.7365V80.5H13.1182V19.5Z" fill="#DCDFD8" stroke="#A8A18F"/>
<path fill-rule="evenodd" clip-rule="evenodd" d="M25.2363 19H35.4887V81H25.2363V19Z" fill="#A8A18F"/>
<path d="M35.9893 19.5H86.2511V80.5H35.9893V19.5Z" fill="#DCDFD8" stroke="#A8A18F"/>
<path d="M87.251 19.5H133.57V80.5H87.251V19.5Z" fill="#DCDFD8" stroke="#A8A18F"/>
<path fill-rule="evenodd" clip-rule="evenodd" d="M134.069 19H143.533V81H134.069V19Z" fill="#A8A18F"/>
<path d="M144.033 19.5H247.134V80.5H144.033V19.5Z" fill="#DCDFD8" stroke="#A8A18F"/>
<path fill-rule="evenodd" clip-rule="evenodd" d="M247.634 19H253.943V81H247.634V19Z" fill="#A8A18F"/>
<path d="M254.443 19.5H448.238V80.5H254.443V19.5Z" fill="#DCDFD8" stroke="#A8A18F"/>
<path fill-rule="evenodd" clip-rule="evenodd" d="M448.738 19H462.145V81H448.738V19Z" fill="#A8A18F"/>
<path d="M462.646 19.5H539.721V80.5H462.646V19.5Z" fill="#DCDFD8" stroke="#A8A18F"/>
<path d="M540.721 19.5H602.812V80.5H540.721V19.5Z" fill="#DCDFD8" stroke="#A8A18F"/>
<path d="M603.812 19.5H665.904V80.5H603.812V19.5Z" fill="#DCDFD8" stroke="#A8A18F"/>
<path d="M666.904 19.5H716.377V80.5H666.904V19.5Z" fill="#DCDFD8" stroke="#A8A18F"/>
<path d="M717.377 19.5H779.468V80.5H717.377V19.5Z" fill="#DCDFD8" stroke="#A8A18F"/>
<path d="M780.469 19.5H842.56V80.5H780.469V19.5Z" fill="#DCDFD8" stroke="#A8A18F"/>
<path d="M843.56 19.5H923.79V80.5H843.56V19.5Z" fill="#DCDFD8" stroke="#A8A18F"/>
<path d="M924.79 19.5H986.882V80.5H924.79V19.5Z" fill="#DCDFD8" stroke="#A8A18F"/>
<path fill-rule="evenodd" clip-rule="evenodd" d="M987.382 19H1000V81H987.382V19Z" fill="#A8A18F"/>
<path d="M247.12 97V96.08H248V97H247.12ZM254.541 92.304H254.005C253.909 91.864 253.573 91.432 252.837 91.432C251.669 91.432 251.277 92.552 251.261 94.168H251.285C251.549 93.624 252.077 93.216 252.861 93.216C253.805 93.216 254.701 93.776 254.701 95.136C254.701 96.256 253.973 97.12 252.749 97.12C251.621 97.12 250.709 96.488 250.709 94.352C250.709 92.048 251.493 90.984 252.853 90.984C253.917 90.984 254.437 91.616 254.541 92.304ZM252.757 96.664C253.501 96.664 254.141 96.144 254.141 95.176C254.141 94.176 253.549 93.688 252.749 93.688C251.925 93.688 251.365 94.208 251.365 95.128C251.365 96.072 251.941 96.664 252.757 96.664Z" fill="white"/>
<path d="M449.408 97H445.904V96.544H447.392V92.52H445.992V92.072H446.496C446.856 92.072 447.096 92.032 447.248 91.872C447.416 91.704 447.464 91.472 447.472 91.048H447.936V96.544H449.408V97ZM452.237 97V96.08H453.117V97H452.237ZM457.874 94.224H457.33V93.744H457.85C458.658 93.744 459.042 93.184 459.042 92.568C459.042 91.888 458.57 91.456 457.826 91.456C457.058 91.456 456.578 91.832 456.546 92.744H456.01C456.002 91.784 456.61 90.984 457.842 90.984C458.89 90.984 459.594 91.584 459.594 92.504C459.594 93.232 459.194 93.72 458.554 93.936V93.952C459.242 94.104 459.754 94.568 459.754 95.416C459.754 96.36 458.994 97.12 457.802 97.12C456.434 97.12 455.914 96.28 455.866 95.36H456.402C456.482 96.216 456.97 96.656 457.842 96.656C458.61 96.656 459.194 96.184 459.194 95.408C459.194 94.592 458.642 94.224 457.874 94.224ZM464.96 95.496H464.136V97H463.6V95.496H460.824V95.056L463.472 91.072H464.136V95.024H464.96V95.496ZM461.384 95.032H463.6V91.64H463.568C463.568 91.64 463.424 91.984 463.168 92.36L461.384 95.032Z" fill="white"/>
<path d="M135.12 97V96.08H136V97H135.12ZM138.805 95.72H139.333C139.477 96.36 139.925 96.68 140.565 96.68C141.653 96.68 142.045 95.864 142.077 93.88H142.045C141.797 94.44 141.245 94.776 140.549 94.776C139.605 94.776 138.725 94.2 138.725 92.896C138.725 91.792 139.501 90.992 140.621 90.992C141.805 90.992 142.605 91.792 142.605 93.64C142.605 96.216 141.893 97.128 140.525 97.128C139.669 97.128 138.957 96.672 138.805 95.72ZM140.613 91.456C139.957 91.456 139.277 91.88 139.277 92.896C139.277 93.816 139.877 94.312 140.621 94.312C141.397 94.312 141.981 93.784 141.981 92.896C141.981 91.968 141.357 91.456 140.613 91.456Z" fill="white"/>
<path d="M31.408 97H27.904V96.544H29.392V92.52H27.992V92.072H28.496C28.856 92.072 29.096 92.032 29.248 91.872C29.416 91.704 29.464 91.472 29.472 91.048H29.936V96.544H31.408V97Z" fill="white"/>
<path d="M4.408 97H0.904V96.544H2.392V92.52H0.992V92.072H1.496C1.856 92.072 2.096 92.032 2.248 91.872C2.416 91.704 2.464 91.472 2.472 91.048H2.936V96.544H4.408V97ZM7.23719 97V96.08H8.11719V97H7.23719ZM12.8744 94.224H12.3304V93.744H12.8504C13.6584 93.744 14.0424 93.184 14.0424 92.568C14.0424 91.888 13.5704 91.456 12.8264 91.456C12.0584 91.456 11.5784 91.832 11.5464 92.744H11.0104C11.0024 91.784 11.6104 90.984 12.8424 90.984C13.8904 90.984 14.5944 91.584 14.5944 92.504C14.5944 93.232 14.1944 93.72 13.5544 93.936V93.952C14.2424 94.104 14.7544 94.568 14.7544 95.416C14.7544 96.36 13.9944 97.12 12.8024 97.12C11.4344 97.12 10.9144 96.28 10.8664 95.36H11.4024C11.4824 96.216 11.9704 96.656 12.8424 96.656C13.6104 96.656 14.1944 96.184 14.1944 95.408C14.1944 94.592 13.6424 94.224 12.8744 94.224Z" fill="white"/>
<path d="M988.408 97H984.904V96.544H986.392V92.52H984.992V92.072H985.496C985.856 92.072 986.096 92.032 986.248 91.872C986.416 91.704 986.464 91.472 986.472 91.048H986.936V96.544H988.408V97ZM991.237 97V96.08H992.117V97H991.237ZM996.874 94.224H996.33V93.744H996.85C997.658 93.744 998.042 93.184 998.042 92.568C998.042 91.888 997.57 91.456 996.826 91.456C996.058 91.456 995.578 91.832 995.546 92.744H995.01C995.002 91.784 995.61 90.984 996.842 90.984C997.89 90.984 998.594 91.584 998.594 92.504C998.594 93.232 998.194 93.72 997.554 93.936V93.952C998.242 94.104 998.754 94.568 998.754 95.416C998.754 96.36 997.994 97.12 996.802 97.12C995.434 97.12 994.914 96.28 994.866 95.36H995.402C995.482 96.216 995.97 96.656 996.842 96.656C997.61 96.656 998.194 96.184 998.194 95.408C998.194 94.592 997.642 94.224 996.874 94.224Z" fill="white"/>
</svg>
