<svg width="1000" height="114" viewBox="0 0 1000 114" fill="none" xmlns="http://www.w3.org/2000/svg">
<path d="M873.752 2.544C873.752 1.688 874.416 0.984 875.552 0.984C876.696 0.984 877.352 1.688 877.352 2.544C877.352 3.32 876.864 3.784 876.344 3.936V3.968C876.84 4.064 877.536 4.504 877.536 5.472C877.536 6.456 876.808 7.12 875.552 7.128C874.296 7.136 873.584 6.456 873.584 5.472C873.584 4.496 874.304 4.064 874.776 3.968V3.936C874.256 3.792 873.752 3.32 873.752 2.544ZM875.552 1.424C874.904 1.424 874.312 1.776 874.312 2.584C874.312 3.384 874.92 3.736 875.552 3.736C876.176 3.736 876.792 3.384 876.792 2.584C876.792 1.776 876.184 1.424 875.552 1.424ZM875.552 6.688C876.336 6.688 876.968 6.328 876.968 5.448C876.968 4.568 876.312 4.192 875.552 4.192C874.816 4.192 874.152 4.568 874.152 5.448C874.152 6.328 874.784 6.688 875.552 6.688ZM880.237 7V6.08H881.117V7H880.237ZM887.642 7H884.138V6.544H885.626V2.52H884.226V2.072H884.73C885.09 2.072 885.33 2.032 885.482 1.872C885.65 1.704 885.698 1.472 885.706 1.048H886.17V6.544H887.642V7Z" fill="white"/>
<path d="M167.408 7H163.904V6.544H165.392V2.52H163.992V2.072H164.496C164.856 2.072 165.096 2.032 165.248 1.872C165.416 1.704 165.464 1.472 165.472 1.048H165.936V6.544H167.408V7ZM168.645 4.056C168.645 1.952 169.413 0.984 170.677 0.984C171.933 0.984 172.709 1.952 172.709 4.056C172.709 6.16 171.949 7.128 170.677 7.128C169.397 7.128 168.645 6.16 168.645 4.056ZM170.677 6.664C171.597 6.664 172.125 5.848 172.125 4.064C172.125 2.256 171.605 1.456 170.677 1.456C169.749 1.456 169.229 2.24 169.229 4.064C169.229 5.864 169.741 6.664 170.677 6.664ZM175.354 7V6.08H176.234V7H175.354ZM182.776 2.304H182.24C182.144 1.864 181.808 1.432 181.072 1.432C179.904 1.432 179.512 2.552 179.496 4.168H179.52C179.784 3.624 180.312 3.216 181.096 3.216C182.04 3.216 182.936 3.776 182.936 5.136C182.936 6.256 182.208 7.12 180.984 7.12C179.856 7.12 178.944 6.488 178.944 4.352C178.944 2.048 179.728 0.984 181.088 0.984C182.152 0.984 182.672 1.616 182.776 2.304ZM180.992 6.664C181.736 6.664 182.376 6.144 182.376 5.176C182.376 4.176 181.784 3.688 180.984 3.688C180.16 3.688 179.6 4.208 179.6 5.128C179.6 6.072 180.176 6.664 180.992 6.664Z" fill="white"/>
<path d="M328.344 2.984H327.808C327.776 1.704 328.608 0.984 329.672 0.984C330.904 0.984 331.472 1.768 331.472 2.592C331.472 3.376 331.144 3.888 330.28 4.712L329.192 5.752C328.64 6.272 328.4 6.496 328.4 6.496V6.52H331.584V7H327.688V6.536L329.792 4.488C330.544 3.76 330.912 3.36 330.912 2.616C330.912 1.92 330.432 1.448 329.688 1.448C328.904 1.448 328.336 1.936 328.344 2.984ZM332.645 4.056C332.645 1.952 333.413 0.984 334.677 0.984C335.933 0.984 336.709 1.952 336.709 4.056C336.709 6.16 335.949 7.128 334.677 7.128C333.397 7.128 332.645 6.16 332.645 4.056ZM334.677 6.664C335.597 6.664 336.125 5.848 336.125 4.064C336.125 2.256 335.605 1.456 334.677 1.456C333.749 1.456 333.229 2.24 333.229 4.064C333.229 5.864 333.741 6.664 334.677 6.664ZM339.354 7V6.08H340.234V7H339.354ZM343.104 2.544C343.104 1.688 343.768 0.984 344.904 0.984C346.048 0.984 346.704 1.688 346.704 2.544C346.704 3.32 346.216 3.784 345.696 3.936V3.968C346.192 4.064 346.888 4.504 346.888 5.472C346.888 6.456 346.16 7.12 344.904 7.128C343.648 7.136 342.936 6.456 342.936 5.472C342.936 4.496 343.656 4.064 344.128 3.968V3.936C343.608 3.792 343.104 3.32 343.104 2.544ZM344.904 1.424C344.256 1.424 343.664 1.776 343.664 2.584C343.664 3.384 344.272 3.736 344.904 3.736C345.528 3.736 346.144 3.384 346.144 2.584C346.144 1.776 345.536 1.424 344.904 1.424ZM344.904 6.688C345.688 6.688 346.32 6.328 346.32 5.448C346.32 4.568 345.664 4.192 344.904 4.192C344.168 4.192 343.504 4.568 343.504 5.448C343.504 6.328 344.136 6.688 344.904 6.688Z" fill="white"/>
<path d="M493.304 7L495.896 1.56H492.6V1.072H496.512V1.448L493.88 7H493.304ZM499.237 7V6.08H500.117V7H499.237ZM502.794 5.4H503.33C503.426 6.224 503.938 6.656 504.73 6.656C505.402 6.656 506.186 6.28 506.186 5.12C506.186 4.088 505.554 3.608 504.802 3.608C504.202 3.608 503.802 3.8 503.562 4.192H503.034L503.226 1.072H506.426V1.568H503.698L503.57 3.672H503.586C503.818 3.368 504.274 3.144 504.882 3.144C505.85 3.144 506.746 3.736 506.746 5.088C506.746 6.384 505.914 7.12 504.73 7.12C503.41 7.12 502.858 6.272 502.794 5.4Z" fill="white"/>
<path d="M565.424 2.304H564.888C564.792 1.864 564.456 1.432 563.72 1.432C562.552 1.432 562.16 2.552 562.144 4.168H562.168C562.432 3.624 562.96 3.216 563.744 3.216C564.688 3.216 565.584 3.776 565.584 5.136C565.584 6.256 564.856 7.12 563.632 7.12C562.504 7.12 561.592 6.488 561.592 4.352C561.592 2.048 562.376 0.984 563.736 0.984C564.8 0.984 565.32 1.616 565.424 2.304ZM563.64 6.664C564.384 6.664 565.024 6.144 565.024 5.176C565.024 4.176 564.432 3.688 563.632 3.688C562.808 3.688 562.248 4.208 562.248 5.128C562.248 6.072 562.824 6.664 563.64 6.664ZM568.237 7V6.08H569.117V7H568.237ZM573.874 4.224H573.33V3.744H573.85C574.658 3.744 575.042 3.184 575.042 2.568C575.042 1.888 574.57 1.456 573.826 1.456C573.058 1.456 572.578 1.832 572.546 2.744H572.01C572.002 1.784 572.61 0.984 573.842 0.984C574.89 0.984 575.594 1.584 575.594 2.504C575.594 3.232 575.194 3.72 574.554 3.936V3.952C575.242 4.104 575.754 4.568 575.754 5.416C575.754 6.36 574.994 7.12 573.802 7.12C572.434 7.12 571.914 6.28 571.866 5.36H572.402C572.482 6.216 572.97 6.656 573.842 6.656C574.61 6.656 575.194 6.184 575.194 5.408C575.194 4.592 574.642 4.224 573.874 4.224Z" fill="white"/>
<path d="M628.424 2.304H627.888C627.792 1.864 627.456 1.432 626.72 1.432C625.552 1.432 625.16 2.552 625.144 4.168H625.168C625.432 3.624 625.96 3.216 626.744 3.216C627.688 3.216 628.584 3.776 628.584 5.136C628.584 6.256 627.856 7.12 626.632 7.12C625.504 7.12 624.592 6.488 624.592 4.352C624.592 2.048 625.376 0.984 626.736 0.984C627.8 0.984 628.32 1.616 628.424 2.304ZM626.64 6.664C627.384 6.664 628.024 6.144 628.024 5.176C628.024 4.176 627.432 3.688 626.632 3.688C625.808 3.688 625.248 4.208 625.248 5.128C625.248 6.072 625.824 6.664 626.64 6.664ZM631.237 7V6.08H632.117V7H631.237ZM636.874 4.224H636.33V3.744H636.85C637.658 3.744 638.042 3.184 638.042 2.568C638.042 1.888 637.57 1.456 636.826 1.456C636.058 1.456 635.578 1.832 635.546 2.744H635.01C635.002 1.784 635.61 0.984 636.842 0.984C637.89 0.984 638.594 1.584 638.594 2.504C638.594 3.232 638.194 3.72 637.554 3.936V3.952C638.242 4.104 638.754 4.568 638.754 5.416C638.754 6.36 637.994 7.12 636.802 7.12C635.434 7.12 634.914 6.28 634.866 5.36H635.402C635.482 6.216 635.97 6.656 636.842 6.656C637.61 6.656 638.194 6.184 638.194 5.408C638.194 4.592 637.642 4.224 636.874 4.224Z" fill="white"/>
<path d="M741.424 2.304H740.888C740.792 1.864 740.456 1.432 739.72 1.432C738.552 1.432 738.16 2.552 738.144 4.168H738.168C738.432 3.624 738.96 3.216 739.744 3.216C740.688 3.216 741.584 3.776 741.584 5.136C741.584 6.256 740.856 7.12 739.632 7.12C738.504 7.12 737.592 6.488 737.592 4.352C737.592 2.048 738.376 0.984 739.736 0.984C740.8 0.984 741.32 1.616 741.424 2.304ZM739.64 6.664C740.384 6.664 741.024 6.144 741.024 5.176C741.024 4.176 740.432 3.688 739.632 3.688C738.808 3.688 738.248 4.208 738.248 5.128C738.248 6.072 738.824 6.664 739.64 6.664ZM744.237 7V6.08H745.117V7H744.237ZM749.874 4.224H749.33V3.744H749.85C750.658 3.744 751.042 3.184 751.042 2.568C751.042 1.888 750.57 1.456 749.826 1.456C749.058 1.456 748.578 1.832 748.546 2.744H748.01C748.002 1.784 748.61 0.984 749.842 0.984C750.89 0.984 751.594 1.584 751.594 2.504C751.594 3.232 751.194 3.72 750.554 3.936V3.952C751.242 4.104 751.754 4.568 751.754 5.416C751.754 6.36 750.994 7.12 749.802 7.12C748.434 7.12 747.914 6.28 747.866 5.36H748.402C748.482 6.216 748.97 6.656 749.842 6.656C750.61 6.656 751.194 6.184 751.194 5.408C751.194 4.592 750.642 4.224 749.874 4.224Z" fill="white"/>
<path d="M804.424 2.304H803.888C803.792 1.864 803.456 1.432 802.72 1.432C801.552 1.432 801.16 2.552 801.144 4.168H801.168C801.432 3.624 801.96 3.216 802.744 3.216C803.688 3.216 804.584 3.776 804.584 5.136C804.584 6.256 803.856 7.12 802.632 7.12C801.504 7.12 800.592 6.488 800.592 4.352C800.592 2.048 801.376 0.984 802.736 0.984C803.8 0.984 804.32 1.616 804.424 2.304ZM802.64 6.664C803.384 6.664 804.024 6.144 804.024 5.176C804.024 4.176 803.432 3.688 802.632 3.688C801.808 3.688 801.248 4.208 801.248 5.128C801.248 6.072 801.824 6.664 802.64 6.664ZM807.237 7V6.08H808.117V7H807.237ZM812.874 4.224H812.33V3.744H812.85C813.658 3.744 814.042 3.184 814.042 2.568C814.042 1.888 813.57 1.456 812.826 1.456C812.058 1.456 811.578 1.832 811.546 2.744H811.01C811.002 1.784 811.61 0.984 812.842 0.984C813.89 0.984 814.594 1.584 814.594 2.504C814.594 3.232 814.194 3.72 813.554 3.936V3.952C814.242 4.104 814.754 4.568 814.754 5.416C814.754 6.36 813.994 7.12 812.802 7.12C811.434 7.12 810.914 6.28 810.866 5.36H811.402C811.482 6.216 811.97 6.656 812.842 6.656C813.61 6.656 814.194 6.184 814.194 5.408C814.194 4.592 813.642 4.224 812.874 4.224Z" fill="white"/>
<path d="M949.424 2.304H948.888C948.792 1.864 948.456 1.432 947.72 1.432C946.552 1.432 946.16 2.552 946.144 4.168H946.168C946.432 3.624 946.96 3.216 947.744 3.216C948.688 3.216 949.584 3.776 949.584 5.136C949.584 6.256 948.856 7.12 947.632 7.12C946.504 7.12 945.592 6.488 945.592 4.352C945.592 2.048 946.376 0.984 947.736 0.984C948.8 0.984 949.32 1.616 949.424 2.304ZM947.64 6.664C948.384 6.664 949.024 6.144 949.024 5.176C949.024 4.176 948.432 3.688 947.632 3.688C946.808 3.688 946.248 4.208 946.248 5.128C946.248 6.072 946.824 6.664 947.64 6.664ZM952.237 7V6.08H953.117V7H952.237ZM957.874 4.224H957.33V3.744H957.85C958.658 3.744 959.042 3.184 959.042 2.568C959.042 1.888 958.57 1.456 957.826 1.456C957.058 1.456 956.578 1.832 956.546 2.744H956.01C956.002 1.784 956.61 0.984 957.842 0.984C958.89 0.984 959.594 1.584 959.594 2.504C959.594 3.232 959.194 3.72 958.554 3.936V3.952C959.242 4.104 959.754 4.568 959.754 5.416C959.754 6.36 958.994 7.12 957.802 7.12C956.434 7.12 955.914 6.28 955.866 5.36H956.402C956.482 6.216 956.97 6.656 957.842 6.656C958.61 6.656 959.194 6.184 959.194 5.408C959.194 4.592 958.642 4.224 957.874 4.224Z" fill="white"/>
<path d="M685.56 5.4H686.096C686.192 6.224 686.704 6.656 687.496 6.656C688.168 6.656 688.952 6.28 688.952 5.12C688.952 4.088 688.32 3.608 687.568 3.608C686.968 3.608 686.568 3.8 686.328 4.192H685.8L685.992 1.072H689.192V1.568H686.464L686.336 3.672H686.352C686.584 3.368 687.04 3.144 687.648 3.144C688.616 3.144 689.512 3.736 689.512 5.088C689.512 6.384 688.68 7.12 687.496 7.12C686.176 7.12 685.624 6.272 685.56 5.4Z" fill="white"/>
<path d="M87.608 5.496H86.784V7H86.248V5.496H83.472V5.056L86.12 1.072H86.784V5.024H87.608V5.496ZM84.032 5.032H86.248V1.64H86.216C86.216 1.64 86.072 1.984 85.816 2.36L84.032 5.032ZM90.2372 7V6.08H91.1172V7H90.2372ZM93.7944 5.4H94.3304C94.4264 6.224 94.9384 6.656 95.7304 6.656C96.4024 6.656 97.1864 6.28 97.1864 5.12C97.1864 4.088 96.5544 3.608 95.8024 3.608C95.2024 3.608 94.8024 3.8 94.5624 4.192H94.0344L94.2264 1.072H97.4264V1.568H94.6984L94.5704 3.672H94.5864C94.8184 3.368 95.2744 3.144 95.8824 3.144C96.8504 3.144 97.7464 3.736 97.7464 5.088C97.7464 6.384 96.9144 7.12 95.7304 7.12C94.4104 7.12 93.8584 6.272 93.7944 5.4Z" fill="white"/>
<path d="M20.608 5.496H19.784V7H19.248V5.496H16.472V5.056L19.12 1.072H19.784V5.024H20.608V5.496ZM17.032 5.032H19.248V1.64H19.216C19.216 1.64 19.072 1.984 18.816 2.36L17.032 5.032ZM23.2372 7V6.08H24.1172V7H23.2372ZM27.5384 7L30.1304 1.56H26.8344V1.072H30.7464V1.448L28.1144 7H27.5384Z" fill="white"/>
<path d="M0.5 19.5H46.8186V94.5H0.5V19.5Z" fill="#DCDFD8" stroke="#A8A18F"/>
<path fill-rule="evenodd" clip-rule="evenodd" d="M47.3184 19H68.6117V95H47.3184V19Z" fill="#A8A18F"/>
<path d="M69.1123 19.5H113.854V94.5H69.1123V19.5Z" fill="#DCDFD8" stroke="#A8A18F"/>
<path fill-rule="evenodd" clip-rule="evenodd" d="M114.354 19H120.663V95H114.354V19Z" fill="#A8A18F"/>
<path d="M121.162 19.5H226.629V94.5H121.162V19.5Z" fill="#DCDFD8" stroke="#A8A18F"/>
<path fill-rule="evenodd" clip-rule="evenodd" d="M227.129 19H233.438V95H227.129V19Z" fill="#A8A18F"/>
<path d="M233.938 19.5H441.14V94.5H233.938V19.5Z" fill="#DCDFD8" stroke="#A8A18F"/>
<path fill-rule="evenodd" clip-rule="evenodd" d="M441.641 19H462.145V95H441.641V19Z" fill="#A8A18F"/>
<path d="M462.646 19.5H536.567V94.5H462.646V19.5Z" fill="#DCDFD8" stroke="#A8A18F"/>
<path d="M537.566 19.5H599.658V94.5H537.566V19.5Z" fill="#DCDFD8" stroke="#A8A18F"/>
<path d="M600.658 19.5H662.75V94.5H600.658V19.5Z" fill="#DCDFD8" stroke="#A8A18F"/>
<path d="M663.749 19.5H713.222V94.5H663.749V19.5Z" fill="#DCDFD8" stroke="#A8A18F"/>
<path d="M714.223 19.5H776.314V94.5H714.223V19.5Z" fill="#DCDFD8" stroke="#A8A18F"/>
<path d="M777.313 19.5H839.405V94.5H777.313V19.5Z" fill="#DCDFD8" stroke="#A8A18F"/>
<path d="M840.405 19.5H920.636V94.5H840.405V19.5Z" fill="#DCDFD8" stroke="#A8A18F"/>
<path d="M921.636 19.5H983.727V94.5H921.636V19.5Z" fill="#DCDFD8" stroke="#A8A18F"/>
<path fill-rule="evenodd" clip-rule="evenodd" d="M984.228 19H1000V95H984.228V19Z" fill="#A8A18F"/>
<path d="M227.12 111V110.08H228V111H227.12ZM234.541 106.304H234.005C233.909 105.864 233.573 105.432 232.837 105.432C231.669 105.432 231.277 106.552 231.261 108.168H231.285C231.549 107.624 232.077 107.216 232.861 107.216C233.805 107.216 234.701 107.776 234.701 109.136C234.701 110.256 233.973 111.12 232.749 111.12C231.621 111.12 230.709 110.488 230.709 108.352C230.709 106.048 231.493 104.984 232.853 104.984C233.917 104.984 234.437 105.616 234.541 106.304ZM232.757 110.664C233.501 110.664 234.141 110.144 234.141 109.176C234.141 108.176 233.549 107.688 232.749 107.688C231.925 107.688 231.365 108.208 231.365 109.128C231.365 110.072 231.941 110.664 232.757 110.664Z" fill="white"/>
<path d="M114.12 111V110.08H115V111H114.12ZM121.541 106.304H121.005C120.909 105.864 120.573 105.432 119.837 105.432C118.669 105.432 118.277 106.552 118.261 108.168H118.285C118.549 107.624 119.077 107.216 119.861 107.216C120.805 107.216 121.701 107.776 121.701 109.136C121.701 110.256 120.973 111.12 119.749 111.12C118.621 111.12 117.709 110.488 117.709 108.352C117.709 106.048 118.493 104.984 119.853 104.984C120.917 104.984 121.437 105.616 121.541 106.304ZM119.757 110.664C120.501 110.664 121.141 110.144 121.141 109.176C121.141 108.176 120.549 107.688 119.749 107.688C118.925 107.688 118.365 108.208 118.365 109.128C118.365 110.072 118.941 110.664 119.757 110.664Z" fill="white"/>
<path d="M450.344 106.984H449.808C449.776 105.704 450.608 104.984 451.672 104.984C452.904 104.984 453.472 105.768 453.472 106.592C453.472 107.376 453.144 107.888 452.28 108.712L451.192 109.752C450.64 110.272 450.4 110.496 450.4 110.496V110.52H453.584V111H449.688V110.536L451.792 108.488C452.544 107.76 452.912 107.36 452.912 106.616C452.912 105.92 452.432 105.448 451.688 105.448C450.904 105.448 450.336 105.936 450.344 106.984Z" fill="white"/>
<path d="M51.344 106.984H50.808C50.776 105.704 51.608 104.984 52.672 104.984C53.904 104.984 54.472 105.768 54.472 106.592C54.472 107.376 54.144 107.888 53.28 108.712L52.192 109.752C51.64 110.272 51.4 110.496 51.4 110.496V110.52H54.584V111H50.688V110.536L52.792 108.488C53.544 107.76 53.912 107.36 53.912 106.616C53.912 105.92 53.432 105.448 52.688 105.448C51.904 105.448 51.336 105.936 51.344 106.984ZM57.2372 111V110.08H58.1172V111H57.2372ZM64.6424 111H61.1384V110.544H62.6264V106.52H61.2264V106.072H61.7304C62.0904 106.072 62.3304 106.032 62.4824 105.872C62.6504 105.704 62.6984 105.472 62.7064 105.048H63.1704V110.544H64.6424V111Z" fill="white"/>
<path d="M988.408 111H984.904V110.544H986.392V106.52H984.992V106.072H985.496C985.856 106.072 986.096 106.032 986.248 105.872C986.416 105.704 986.464 105.472 986.472 105.048H986.936V110.544H988.408V111ZM991.237 111V110.08H992.117V111H991.237ZM998.658 106.304H998.122C998.026 105.864 997.69 105.432 996.954 105.432C995.786 105.432 995.394 106.552 995.378 108.168H995.402C995.666 107.624 996.194 107.216 996.978 107.216C997.922 107.216 998.818 107.776 998.818 109.136C998.818 110.256 998.09 111.12 996.866 111.12C995.738 111.12 994.826 110.488 994.826 108.352C994.826 106.048 995.61 104.984 996.97 104.984C998.034 104.984 998.554 105.616 998.658 106.304ZM996.874 110.664C997.618 110.664 998.258 110.144 998.258 109.176C998.258 108.176 997.666 107.688 996.866 107.688C996.042 107.688 995.482 108.208 995.482 109.128C995.482 110.072 996.058 110.664 996.874 110.664Z" fill="white"/>
</svg>
