<svg width="1000" height="81" viewBox="0 0 1000 81" fill="none" xmlns="http://www.w3.org/2000/svg">
<path d="M882.752 4.544C882.752 3.688 883.416 2.984 884.552 2.984C885.696 2.984 886.352 3.688 886.352 4.544C886.352 5.32 885.864 5.784 885.344 5.936V5.968C885.84 6.064 886.536 6.504 886.536 7.472C886.536 8.456 885.808 9.12 884.552 9.128C883.296 9.136 882.584 8.456 882.584 7.472C882.584 6.496 883.304 6.064 883.776 5.968V5.936C883.256 5.792 882.752 5.32 882.752 4.544ZM884.552 3.424C883.904 3.424 883.312 3.776 883.312 4.584C883.312 5.384 883.92 5.736 884.552 5.736C885.176 5.736 885.792 5.384 885.792 4.584C885.792 3.776 885.184 3.424 884.552 3.424ZM884.552 8.688C885.336 8.688 885.968 8.328 885.968 7.448C885.968 6.568 885.312 6.192 884.552 6.192C883.816 6.192 883.152 6.568 883.152 7.448C883.152 8.328 883.784 8.688 884.552 8.688ZM889.237 9V8.08H890.117V9H889.237ZM896.642 9H893.138V8.544H894.626V4.52H893.226V4.072H893.73C894.09 4.072 894.33 4.032 894.482 3.872C894.65 3.704 894.698 3.472 894.706 3.048H895.17V8.544H896.642V9Z" fill="white"/>
<path d="M140.408 10H136.904V9.544H138.392V5.52H136.992V5.072H137.496C137.856 5.072 138.096 5.032 138.248 4.872C138.416 4.704 138.464 4.472 138.472 4.048H138.936V9.544H140.408V10ZM141.645 7.056C141.645 4.952 142.413 3.984 143.677 3.984C144.933 3.984 145.709 4.952 145.709 7.056C145.709 9.16 144.949 10.128 143.677 10.128C142.397 10.128 141.645 9.16 141.645 7.056ZM143.677 9.664C144.597 9.664 145.125 8.848 145.125 7.064C145.125 5.256 144.605 4.456 143.677 4.456C142.749 4.456 142.229 5.24 142.229 7.064C142.229 8.864 142.741 9.664 143.677 9.664ZM148.354 10V9.08H149.234V10H148.354ZM155.776 5.304H155.24C155.144 4.864 154.808 4.432 154.072 4.432C152.904 4.432 152.512 5.552 152.496 7.168H152.52C152.784 6.624 153.312 6.216 154.096 6.216C155.04 6.216 155.936 6.776 155.936 8.136C155.936 9.256 155.208 10.12 153.984 10.12C152.856 10.12 151.944 9.488 151.944 7.352C151.944 5.048 152.728 3.984 154.088 3.984C155.152 3.984 155.672 4.616 155.776 5.304ZM153.992 9.664C154.736 9.664 155.376 9.144 155.376 8.176C155.376 7.176 154.784 6.688 153.984 6.688C153.16 6.688 152.6 7.208 152.6 8.128C152.6 9.072 153.176 9.664 153.992 9.664Z" fill="white"/>
<path d="M323.344 5.984H322.808C322.776 4.704 323.608 3.984 324.672 3.984C325.904 3.984 326.472 4.768 326.472 5.592C326.472 6.376 326.144 6.888 325.28 7.712L324.192 8.752C323.64 9.272 323.4 9.496 323.4 9.496V9.52H326.584V10H322.688V9.536L324.792 7.488C325.544 6.76 325.912 6.36 325.912 5.616C325.912 4.92 325.432 4.448 324.688 4.448C323.904 4.448 323.336 4.936 323.344 5.984ZM327.677 8.4H328.213C328.309 9.224 328.821 9.656 329.613 9.656C330.285 9.656 331.069 9.28 331.069 8.12C331.069 7.088 330.437 6.608 329.685 6.608C329.085 6.608 328.685 6.8 328.445 7.192H327.917L328.109 4.072H331.309V4.568H328.581L328.453 6.672H328.469C328.701 6.368 329.157 6.144 329.765 6.144C330.733 6.144 331.629 6.736 331.629 8.088C331.629 9.384 330.797 10.12 329.613 10.12C328.293 10.12 327.741 9.272 327.677 8.4Z" fill="white"/>
<path d="M502.304 8L504.896 2.56H501.6V2.072H505.512V2.448L502.88 8H502.304ZM508.237 8V7.08H509.117V8H508.237ZM511.794 6.4H512.33C512.426 7.224 512.938 7.656 513.73 7.656C514.402 7.656 515.186 7.28 515.186 6.12C515.186 5.088 514.554 4.608 513.802 4.608C513.202 4.608 512.802 4.8 512.562 5.192H512.034L512.226 2.072H515.426V2.568H512.698L512.57 4.672H512.586C512.818 4.368 513.274 4.144 513.882 4.144C514.85 4.144 515.746 4.736 515.746 6.088C515.746 7.384 514.914 8.12 513.73 8.12C512.41 8.12 511.858 7.272 511.794 6.4Z" fill="white"/>
<path d="M574.424 2.304H573.888C573.792 1.864 573.456 1.432 572.72 1.432C571.552 1.432 571.16 2.552 571.144 4.168H571.168C571.432 3.624 571.96 3.216 572.744 3.216C573.688 3.216 574.584 3.776 574.584 5.136C574.584 6.256 573.856 7.12 572.632 7.12C571.504 7.12 570.592 6.488 570.592 4.352C570.592 2.048 571.376 0.984 572.736 0.984C573.8 0.984 574.32 1.616 574.424 2.304ZM572.64 6.664C573.384 6.664 574.024 6.144 574.024 5.176C574.024 4.176 573.432 3.688 572.632 3.688C571.808 3.688 571.248 4.208 571.248 5.128C571.248 6.072 571.824 6.664 572.64 6.664ZM577.237 7V6.08H578.117V7H577.237ZM582.874 4.224H582.33V3.744H582.85C583.658 3.744 584.042 3.184 584.042 2.568C584.042 1.888 583.57 1.456 582.826 1.456C582.058 1.456 581.578 1.832 581.546 2.744H581.01C581.002 1.784 581.61 0.984 582.842 0.984C583.89 0.984 584.594 1.584 584.594 2.504C584.594 3.232 584.194 3.72 583.554 3.936V3.952C584.242 4.104 584.754 4.568 584.754 5.416C584.754 6.36 583.994 7.12 582.802 7.12C581.434 7.12 580.914 6.28 580.866 5.36H581.402C581.482 6.216 581.97 6.656 582.842 6.656C583.61 6.656 584.194 6.184 584.194 5.408C584.194 4.592 583.642 4.224 582.874 4.224Z" fill="white"/>
<path d="M637.424 2.304H636.888C636.792 1.864 636.456 1.432 635.72 1.432C634.552 1.432 634.16 2.552 634.144 4.168H634.168C634.432 3.624 634.96 3.216 635.744 3.216C636.688 3.216 637.584 3.776 637.584 5.136C637.584 6.256 636.856 7.12 635.632 7.12C634.504 7.12 633.592 6.488 633.592 4.352C633.592 2.048 634.376 0.984 635.736 0.984C636.8 0.984 637.32 1.616 637.424 2.304ZM635.64 6.664C636.384 6.664 637.024 6.144 637.024 5.176C637.024 4.176 636.432 3.688 635.632 3.688C634.808 3.688 634.248 4.208 634.248 5.128C634.248 6.072 634.824 6.664 635.64 6.664ZM640.237 7V6.08H641.117V7H640.237ZM645.874 4.224H645.33V3.744H645.85C646.658 3.744 647.042 3.184 647.042 2.568C647.042 1.888 646.57 1.456 645.826 1.456C645.058 1.456 644.578 1.832 644.546 2.744H644.01C644.002 1.784 644.61 0.984 645.842 0.984C646.89 0.984 647.594 1.584 647.594 2.504C647.594 3.232 647.194 3.72 646.554 3.936V3.952C647.242 4.104 647.754 4.568 647.754 5.416C647.754 6.36 646.994 7.12 645.802 7.12C644.434 7.12 643.914 6.28 643.866 5.36H644.402C644.482 6.216 644.97 6.656 645.842 6.656C646.61 6.656 647.194 6.184 647.194 5.408C647.194 4.592 646.642 4.224 645.874 4.224Z" fill="white"/>
<path d="M751.424 6.304H750.888C750.792 5.864 750.456 5.432 749.72 5.432C748.552 5.432 748.16 6.552 748.144 8.168H748.168C748.432 7.624 748.96 7.216 749.744 7.216C750.688 7.216 751.584 7.776 751.584 9.136C751.584 10.256 750.856 11.12 749.632 11.12C748.504 11.12 747.592 10.488 747.592 8.352C747.592 6.048 748.376 4.984 749.736 4.984C750.8 4.984 751.32 5.616 751.424 6.304ZM749.64 10.664C750.384 10.664 751.024 10.144 751.024 9.176C751.024 8.176 750.432 7.688 749.632 7.688C748.808 7.688 748.248 8.208 748.248 9.128C748.248 10.072 748.824 10.664 749.64 10.664ZM754.237 11V10.08H755.117V11H754.237ZM759.874 8.224H759.33V7.744H759.85C760.658 7.744 761.042 7.184 761.042 6.568C761.042 5.888 760.57 5.456 759.826 5.456C759.058 5.456 758.578 5.832 758.546 6.744H758.01C758.002 5.784 758.61 4.984 759.842 4.984C760.89 4.984 761.594 5.584 761.594 6.504C761.594 7.232 761.194 7.72 760.554 7.936V7.952C761.242 8.104 761.754 8.568 761.754 9.416C761.754 10.36 760.994 11.12 759.802 11.12C758.434 11.12 757.914 10.28 757.866 9.36H758.402C758.482 10.216 758.97 10.656 759.842 10.656C760.61 10.656 761.194 10.184 761.194 9.408C761.194 8.592 760.642 8.224 759.874 8.224Z" fill="white"/>
<path d="M814.424 6.304H813.888C813.792 5.864 813.456 5.432 812.72 5.432C811.552 5.432 811.16 6.552 811.144 8.168H811.168C811.432 7.624 811.96 7.216 812.744 7.216C813.688 7.216 814.584 7.776 814.584 9.136C814.584 10.256 813.856 11.12 812.632 11.12C811.504 11.12 810.592 10.488 810.592 8.352C810.592 6.048 811.376 4.984 812.736 4.984C813.8 4.984 814.32 5.616 814.424 6.304ZM812.64 10.664C813.384 10.664 814.024 10.144 814.024 9.176C814.024 8.176 813.432 7.688 812.632 7.688C811.808 7.688 811.248 8.208 811.248 9.128C811.248 10.072 811.824 10.664 812.64 10.664ZM817.237 11V10.08H818.117V11H817.237ZM822.874 8.224H822.33V7.744H822.85C823.658 7.744 824.042 7.184 824.042 6.568C824.042 5.888 823.57 5.456 822.826 5.456C822.058 5.456 821.578 5.832 821.546 6.744H821.01C821.002 5.784 821.61 4.984 822.842 4.984C823.89 4.984 824.594 5.584 824.594 6.504C824.594 7.232 824.194 7.72 823.554 7.936V7.952C824.242 8.104 824.754 8.568 824.754 9.416C824.754 10.36 823.994 11.12 822.802 11.12C821.434 11.12 820.914 10.28 820.866 9.36H821.402C821.482 10.216 821.97 10.656 822.842 10.656C823.61 10.656 824.194 10.184 824.194 9.408C824.194 8.592 823.642 8.224 822.874 8.224Z" fill="white"/>
<path d="M958.424 6.304H957.888C957.792 5.864 957.456 5.432 956.72 5.432C955.552 5.432 955.16 6.552 955.144 8.168H955.168C955.432 7.624 955.96 7.216 956.744 7.216C957.688 7.216 958.584 7.776 958.584 9.136C958.584 10.256 957.856 11.12 956.632 11.12C955.504 11.12 954.592 10.488 954.592 8.352C954.592 6.048 955.376 4.984 956.736 4.984C957.8 4.984 958.32 5.616 958.424 6.304ZM956.64 10.664C957.384 10.664 958.024 10.144 958.024 9.176C958.024 8.176 957.432 7.688 956.632 7.688C955.808 7.688 955.248 8.208 955.248 9.128C955.248 10.072 955.824 10.664 956.64 10.664ZM961.237 11V10.08H962.117V11H961.237ZM966.874 8.224H966.33V7.744H966.85C967.658 7.744 968.042 7.184 968.042 6.568C968.042 5.888 967.57 5.456 966.826 5.456C966.058 5.456 965.578 5.832 965.546 6.744H965.01C965.002 5.784 965.61 4.984 966.842 4.984C967.89 4.984 968.594 5.584 968.594 6.504C968.594 7.232 968.194 7.72 967.554 7.936V7.952C968.242 8.104 968.754 8.568 968.754 9.416C968.754 10.36 967.994 11.12 966.802 11.12C965.434 11.12 964.914 10.28 964.866 9.36H965.402C965.482 10.216 965.97 10.656 966.842 10.656C967.61 10.656 968.194 10.184 968.194 9.408C968.194 8.592 967.642 8.224 966.874 8.224Z" fill="white"/>
<path d="M695.56 10.4H696.096C696.192 11.224 696.704 11.656 697.496 11.656C698.168 11.656 698.952 11.28 698.952 10.12C698.952 9.088 698.32 8.608 697.568 8.608C696.968 8.608 696.568 8.8 696.328 9.192H695.8L695.992 6.072H699.192V6.568H696.464L696.336 8.672H696.352C696.584 8.368 697.04 8.144 697.648 8.144C698.616 8.144 699.512 8.736 699.512 10.088C699.512 11.384 698.68 12.12 697.496 12.12C696.176 12.12 695.624 11.272 695.56 10.4Z" fill="white"/>
<path d="M63.608 8.496H62.784V10H62.248V8.496H59.472V8.056L62.12 4.072H62.784V8.024H63.608V8.496ZM60.032 8.032H62.248V4.64H62.216C62.216 4.64 62.072 4.984 61.816 5.36L60.032 8.032ZM66.2372 10V9.08H67.1172V10H66.2372ZM73.6584 5.304H73.1224C73.0264 4.864 72.6904 4.432 71.9544 4.432C70.7864 4.432 70.3944 5.552 70.3784 7.168H70.4024C70.6664 6.624 71.1944 6.216 71.9784 6.216C72.9224 6.216 73.8184 6.776 73.8184 8.136C73.8184 9.256 73.0904 10.12 71.8664 10.12C70.7384 10.12 69.8264 9.488 69.8264 7.352C69.8264 5.048 70.6104 3.984 71.9704 3.984C73.0344 3.984 73.5544 4.616 73.6584 5.304ZM71.8744 9.664C72.6184 9.664 73.2584 9.144 73.2584 8.176C73.2584 7.176 72.6664 6.688 71.8664 6.688C71.0424 6.688 70.4824 7.208 70.4824 8.128C70.4824 9.072 71.0584 9.664 71.8744 9.664Z" fill="white"/>
<path d="M7.344 5.984H6.808C6.776 4.704 7.608 3.984 8.672 3.984C9.904 3.984 10.472 4.768 10.472 5.592C10.472 6.376 10.144 6.888 9.28 7.712L8.192 8.752C7.64 9.272 7.4 9.496 7.4 9.496V9.52H10.584V10H6.688V9.536L8.792 7.488C9.544 6.76 9.912 6.36 9.912 5.616C9.912 4.92 9.432 4.448 8.688 4.448C7.904 4.448 7.336 4.936 7.344 5.984ZM13.2372 10V9.08H14.1172V10H13.2372ZM16.9864 5.544C16.9864 4.688 17.6504 3.984 18.7864 3.984C19.9304 3.984 20.5864 4.688 20.5864 5.544C20.5864 6.32 20.0984 6.784 19.5784 6.936V6.968C20.0744 7.064 20.7704 7.504 20.7704 8.472C20.7704 9.456 20.0424 10.12 18.7864 10.128C17.5304 10.136 16.8184 9.456 16.8184 8.472C16.8184 7.496 17.5384 7.064 18.0104 6.968V6.936C17.4904 6.792 16.9864 6.32 16.9864 5.544ZM18.7864 4.424C18.1384 4.424 17.5464 4.776 17.5464 5.584C17.5464 6.384 18.1544 6.736 18.7864 6.736C19.4104 6.736 20.0264 6.384 20.0264 5.584C20.0264 4.776 19.4184 4.424 18.7864 4.424ZM18.7864 9.688C19.5704 9.688 20.2024 9.328 20.2024 8.448C20.2024 7.568 19.5464 7.192 18.7864 7.192C18.0504 7.192 17.3864 7.568 17.3864 8.448C17.3864 9.328 18.0184 9.688 18.7864 9.688Z" fill="white"/>
<path d="M0.5 24.5H27.8912V59.5H0.5V24.5Z" fill="#DCDFD8" stroke="#A8A18F"/>
<path fill-rule="evenodd" clip-rule="evenodd" d="M28.3916 24H44.1645V60H28.3916V24Z" fill="#A8A18F"/>
<path d="M44.6641 24.5H89.4054V59.5H44.6641V24.5Z" fill="#DCDFD8" stroke="#A8A18F"/>
<path fill-rule="evenodd" clip-rule="evenodd" d="M89.9053 24H93.0598V60H89.9053V24Z" fill="#A8A18F"/>
<path d="M93.5596 24.5H199.026V59.5H93.5596V24.5Z" fill="#DCDFD8" stroke="#A8A18F"/>
<path fill-rule="evenodd" clip-rule="evenodd" d="M199.526 24H202.681V60H199.526V24Z" fill="#A8A18F"/>
<path d="M203.182 24.5H452.182V59.5H203.182V24.5Z" fill="#DCDFD8" stroke="#A8A18F"/>
<path fill-rule="evenodd" clip-rule="evenodd" d="M452.682 24H471.609V60H452.682V24Z" fill="#A8A18F"/>
<path d="M472.108 24.5H546.03V59.5H472.108V24.5Z" fill="#DCDFD8" stroke="#A8A18F"/>
<path d="M547.03 24.5H609.122V59.5H547.03V24.5Z" fill="#DCDFD8" stroke="#A8A18F"/>
<path d="M610.121 24.5H672.213V59.5H610.121V24.5Z" fill="#DCDFD8" stroke="#A8A18F"/>
<path d="M673.213 24.5H722.686V59.5H673.213V24.5Z" fill="#DCDFD8" stroke="#A8A18F"/>
<path d="M723.687 24.5H785.778V59.5H723.687V24.5Z" fill="#DCDFD8" stroke="#A8A18F"/>
<path d="M786.777 24.5H848.869V59.5H786.777V24.5Z" fill="#DCDFD8" stroke="#A8A18F"/>
<path d="M849.869 24.5H930.099V59.5H849.869V24.5Z" fill="#DCDFD8" stroke="#A8A18F"/>
<path d="M931.1 24.5H993.191V59.5H931.1V24.5Z" fill="#DCDFD8" stroke="#A8A18F"/>
<path fill-rule="evenodd" clip-rule="evenodd" d="M993.691 24H1000V60H993.691V24Z" fill="#A8A18F"/>
<path d="M458.408 76H454.904V75.544H456.392V71.52H454.992V71.072H455.496C455.856 71.072 456.096 71.032 456.248 70.872C456.416 70.704 456.464 70.472 456.472 70.048H456.936V75.544H458.408V76ZM461.237 76V75.08H462.117V76H461.237ZM464.986 71.544C464.986 70.688 465.65 69.984 466.786 69.984C467.93 69.984 468.586 70.688 468.586 71.544C468.586 72.32 468.098 72.784 467.578 72.936V72.968C468.074 73.064 468.77 73.504 468.77 74.472C468.77 75.456 468.042 76.12 466.786 76.128C465.53 76.136 464.818 75.456 464.818 74.472C464.818 73.496 465.538 73.064 466.01 72.968V72.936C465.49 72.792 464.986 72.32 464.986 71.544ZM466.786 70.424C466.138 70.424 465.546 70.776 465.546 71.584C465.546 72.384 466.154 72.736 466.786 72.736C467.41 72.736 468.026 72.384 468.026 71.584C468.026 70.776 467.418 70.424 466.786 70.424ZM466.786 75.688C467.57 75.688 468.202 75.328 468.202 74.448C468.202 73.568 467.546 73.192 466.786 73.192C466.05 73.192 465.386 73.568 465.386 74.448C465.386 75.328 466.018 75.688 466.786 75.688Z" fill="white"/>
<path d="M88.12 78V77.08H89V78H88.12ZM93.7572 75.224H93.2132V74.744H93.7332C94.5412 74.744 94.9252 74.184 94.9252 73.568C94.9252 72.888 94.4532 72.456 93.7092 72.456C92.9412 72.456 92.4612 72.832 92.4292 73.744H91.8932C91.8852 72.784 92.4932 71.984 93.7252 71.984C94.7732 71.984 95.4772 72.584 95.4772 73.504C95.4772 74.232 95.0772 74.72 94.4372 74.936V74.952C95.1252 75.104 95.6372 75.568 95.6372 76.416C95.6372 77.36 94.8772 78.12 93.6852 78.12C92.3172 78.12 91.7972 77.28 91.7492 76.36H92.2852C92.3652 77.216 92.8532 77.656 93.7252 77.656C94.4932 77.656 95.0772 77.184 95.0772 76.408C95.0772 75.592 94.5252 75.224 93.7572 75.224Z" fill="white"/>
<path d="M198.12 78V77.08H199V78H198.12ZM203.757 75.224H203.213V74.744H203.733C204.541 74.744 204.925 74.184 204.925 73.568C204.925 72.888 204.453 72.456 203.709 72.456C202.941 72.456 202.461 72.832 202.429 73.744H201.893C201.885 72.784 202.493 71.984 203.725 71.984C204.773 71.984 205.477 72.584 205.477 73.504C205.477 74.232 205.077 74.72 204.437 74.936V74.952C205.125 75.104 205.637 75.568 205.637 76.416C205.637 77.36 204.877 78.12 203.685 78.12C202.317 78.12 201.797 77.28 201.749 76.36H202.285C202.365 77.216 202.853 77.656 203.725 77.656C204.493 77.656 205.077 77.184 205.077 76.408C205.077 75.592 204.525 75.224 203.757 75.224Z" fill="white"/>
<path d="M32.408 78H28.904V77.544H30.392V73.52H28.992V73.072H29.496C29.856 73.072 30.096 73.032 30.248 72.872C30.416 72.704 30.464 72.472 30.472 72.048H30.936V77.544H32.408V78ZM35.2372 78V77.08H36.1172V78H35.2372ZM42.6584 73.304H42.1224C42.0264 72.864 41.6904 72.432 40.9544 72.432C39.7864 72.432 39.3944 73.552 39.3784 75.168H39.4024C39.6664 74.624 40.1944 74.216 40.9784 74.216C41.9224 74.216 42.8184 74.776 42.8184 76.136C42.8184 77.256 42.0904 78.12 40.8664 78.12C39.7384 78.12 38.8264 77.488 38.8264 75.352C38.8264 73.048 39.6104 71.984 40.9704 71.984C42.0344 71.984 42.5544 72.616 42.6584 73.304ZM40.8744 77.664C41.6184 77.664 42.2584 77.144 42.2584 76.176C42.2584 75.176 41.6664 74.688 40.8664 74.688C40.0424 74.688 39.4824 75.208 39.4824 76.128C39.4824 77.072 40.0584 77.664 40.8744 77.664Z" fill="white"/>
<path d="M991.12 78V77.08H992V78H991.12ZM998.541 73.304H998.005C997.909 72.864 997.573 72.432 996.837 72.432C995.669 72.432 995.277 73.552 995.261 75.168H995.285C995.549 74.624 996.077 74.216 996.861 74.216C997.805 74.216 998.701 74.776 998.701 76.136C998.701 77.256 997.973 78.12 996.749 78.12C995.621 78.12 994.709 77.488 994.709 75.352C994.709 73.048 995.493 71.984 996.853 71.984C997.917 71.984 998.437 72.616 998.541 73.304ZM996.757 77.664C997.501 77.664 998.141 77.144 998.141 76.176C998.141 75.176 997.549 74.688 996.749 74.688C995.925 74.688 995.365 75.208 995.365 76.128C995.365 77.072 995.941 77.664 996.757 77.664Z" fill="white"/>
</svg>
