<svg width="1000" height="86" viewBox="0 0 1000 86" fill="none" xmlns="http://www.w3.org/2000/svg">
<path d="M820.752 2.544C820.752 1.688 821.416 0.984 822.552 0.984C823.696 0.984 824.352 1.688 824.352 2.544C824.352 3.32 823.864 3.784 823.344 3.936V3.968C823.84 4.064 824.536 4.504 824.536 5.472C824.536 6.456 823.808 7.12 822.552 7.128C821.296 7.136 820.584 6.456 820.584 5.472C820.584 4.496 821.304 4.064 821.776 3.968V3.936C821.256 3.792 820.752 3.32 820.752 2.544ZM822.552 1.424C821.904 1.424 821.312 1.776 821.312 2.584C821.312 3.384 821.92 3.736 822.552 3.736C823.176 3.736 823.792 3.384 823.792 2.584C823.792 1.776 823.184 1.424 822.552 1.424ZM822.552 6.688C823.336 6.688 823.968 6.328 823.968 5.448C823.968 4.568 823.312 4.192 822.552 4.192C821.816 4.192 821.152 4.568 821.152 5.448C821.152 6.328 821.784 6.688 822.552 6.688Z" fill="white"/>
<path d="M920.408 7H916.904V6.544H918.392V2.52H916.992V2.072H917.496C917.856 2.072 918.096 2.032 918.248 1.872C918.416 1.704 918.464 1.472 918.472 1.048H918.936V6.544H920.408V7ZM922.461 2.984H921.925C921.893 1.704 922.725 0.984 923.789 0.984C925.021 0.984 925.589 1.768 925.589 2.592C925.589 3.376 925.261 3.888 924.397 4.712L923.309 5.752C922.757 6.272 922.517 6.496 922.517 6.496V6.52H925.701V7H921.805V6.536L923.909 4.488C924.661 3.76 925.029 3.36 925.029 2.616C925.029 1.92 924.549 1.448 923.805 1.448C923.021 1.448 922.453 1.936 922.461 2.984ZM928.354 7V6.08H929.234V7H928.354ZM932.104 2.544C932.104 1.688 932.768 0.984 933.904 0.984C935.048 0.984 935.704 1.688 935.704 2.544C935.704 3.32 935.216 3.784 934.696 3.936V3.968C935.192 4.064 935.888 4.504 935.888 5.472C935.888 6.456 935.16 7.12 933.904 7.128C932.648 7.136 931.936 6.456 931.936 5.472C931.936 4.496 932.656 4.064 933.128 3.968V3.936C932.608 3.792 932.104 3.32 932.104 2.544ZM933.904 1.424C933.256 1.424 932.664 1.776 932.664 2.584C932.664 3.384 933.272 3.736 933.904 3.736C934.528 3.736 935.144 3.384 935.144 2.584C935.144 1.776 934.536 1.424 933.904 1.424ZM933.904 6.688C934.688 6.688 935.32 6.328 935.32 5.448C935.32 4.568 934.664 4.192 933.904 4.192C933.168 4.192 932.504 4.568 932.504 5.448C932.504 6.328 933.136 6.688 933.904 6.688Z" fill="white"/>
<path d="M581.424 2.304H580.888C580.792 1.864 580.456 1.432 579.72 1.432C578.552 1.432 578.16 2.552 578.144 4.168H578.168C578.432 3.624 578.96 3.216 579.744 3.216C580.688 3.216 581.584 3.776 581.584 5.136C581.584 6.256 580.856 7.12 579.632 7.12C578.504 7.12 577.592 6.488 577.592 4.352C577.592 2.048 578.376 0.984 579.736 0.984C580.8 0.984 581.32 1.616 581.424 2.304ZM579.64 6.664C580.384 6.664 581.024 6.144 581.024 5.176C581.024 4.176 580.432 3.688 579.632 3.688C578.808 3.688 578.248 4.208 578.248 5.128C578.248 6.072 578.824 6.664 579.64 6.664ZM584.237 7V6.08H585.117V7H584.237ZM589.874 4.224H589.33V3.744H589.85C590.658 3.744 591.042 3.184 591.042 2.568C591.042 1.888 590.57 1.456 589.826 1.456C589.058 1.456 588.578 1.832 588.546 2.744H588.01C588.002 1.784 588.61 0.984 589.842 0.984C590.89 0.984 591.594 1.584 591.594 2.504C591.594 3.232 591.194 3.72 590.554 3.936V3.952C591.242 4.104 591.754 4.568 591.754 5.416C591.754 6.36 590.994 7.12 589.802 7.12C588.434 7.12 587.914 6.28 587.866 5.36H588.402C588.482 6.216 588.97 6.656 589.842 6.656C590.61 6.656 591.194 6.184 591.194 5.408C591.194 4.592 590.642 4.224 589.874 4.224Z" fill="white"/>
<path d="M644.424 2.304H643.888C643.792 1.864 643.456 1.432 642.72 1.432C641.552 1.432 641.16 2.552 641.144 4.168H641.168C641.432 3.624 641.96 3.216 642.744 3.216C643.688 3.216 644.584 3.776 644.584 5.136C644.584 6.256 643.856 7.12 642.632 7.12C641.504 7.12 640.592 6.488 640.592 4.352C640.592 2.048 641.376 0.984 642.736 0.984C643.8 0.984 644.32 1.616 644.424 2.304ZM642.64 6.664C643.384 6.664 644.024 6.144 644.024 5.176C644.024 4.176 643.432 3.688 642.632 3.688C641.808 3.688 641.248 4.208 641.248 5.128C641.248 6.072 641.824 6.664 642.64 6.664ZM647.237 7V6.08H648.117V7H647.237ZM652.874 4.224H652.33V3.744H652.85C653.658 3.744 654.042 3.184 654.042 2.568C654.042 1.888 653.57 1.456 652.826 1.456C652.058 1.456 651.578 1.832 651.546 2.744H651.01C651.002 1.784 651.61 0.984 652.842 0.984C653.89 0.984 654.594 1.584 654.594 2.504C654.594 3.232 654.194 3.72 653.554 3.936V3.952C654.242 4.104 654.754 4.568 654.754 5.416C654.754 6.36 653.994 7.12 652.802 7.12C651.434 7.12 650.914 6.28 650.866 5.36H651.402C651.482 6.216 651.97 6.656 652.842 6.656C653.61 6.656 654.194 6.184 654.194 5.408C654.194 4.592 653.642 4.224 652.874 4.224Z" fill="white"/>
<path d="M701.608 5.496H700.784V7H700.248V5.496H697.472V5.056L700.12 1.072H700.784V5.024H701.608V5.496ZM698.032 5.032H700.248V1.64H700.216C700.216 1.64 700.072 1.984 699.816 2.36L698.032 5.032Z" fill="white"/>
<path d="M748.424 2.304H747.888C747.792 1.864 747.456 1.432 746.72 1.432C745.552 1.432 745.16 2.552 745.144 4.168H745.168C745.432 3.624 745.96 3.216 746.744 3.216C747.688 3.216 748.584 3.776 748.584 5.136C748.584 6.256 747.856 7.12 746.632 7.12C745.504 7.12 744.592 6.488 744.592 4.352C744.592 2.048 745.376 0.984 746.736 0.984C747.8 0.984 748.32 1.616 748.424 2.304ZM746.64 6.664C747.384 6.664 748.024 6.144 748.024 5.176C748.024 4.176 747.432 3.688 746.632 3.688C745.808 3.688 745.248 4.208 745.248 5.128C745.248 6.072 745.824 6.664 746.64 6.664ZM751.237 7V6.08H752.117V7H751.237ZM756.874 4.224H756.33V3.744H756.85C757.658 3.744 758.042 3.184 758.042 2.568C758.042 1.888 757.57 1.456 756.826 1.456C756.058 1.456 755.578 1.832 755.546 2.744H755.01C755.002 1.784 755.61 0.984 756.842 0.984C757.89 0.984 758.594 1.584 758.594 2.504C758.594 3.232 758.194 3.72 757.554 3.936V3.952C758.242 4.104 758.754 4.568 758.754 5.416C758.754 6.36 757.994 7.12 756.802 7.12C755.434 7.12 754.914 6.28 754.866 5.36H755.402C755.482 6.216 755.97 6.656 756.842 6.656C757.61 6.656 758.194 6.184 758.194 5.408C758.194 4.592 757.642 4.224 756.874 4.224Z" fill="white"/>
<path d="M63.424 2.304H62.888C62.792 1.864 62.456 1.432 61.72 1.432C60.552 1.432 60.16 2.552 60.144 4.168H60.168C60.432 3.624 60.96 3.216 61.744 3.216C62.688 3.216 63.584 3.776 63.584 5.136C63.584 6.256 62.856 7.12 61.632 7.12C60.504 7.12 59.592 6.488 59.592 4.352C59.592 2.048 60.376 0.984 61.736 0.984C62.8 0.984 63.32 1.616 63.424 2.304ZM61.64 6.664C62.384 6.664 63.024 6.144 63.024 5.176C63.024 4.176 62.432 3.688 61.632 3.688C60.808 3.688 60.248 4.208 60.248 5.128C60.248 6.072 60.824 6.664 61.64 6.664ZM66.2372 7V6.08H67.1172V7H66.2372ZM71.8744 4.224H71.3304V3.744H71.8504C72.6584 3.744 73.0424 3.184 73.0424 2.568C73.0424 1.888 72.5704 1.456 71.8264 1.456C71.0584 1.456 70.5784 1.832 70.5464 2.744H70.0104C70.0024 1.784 70.6104 0.984 71.8424 0.984C72.8904 0.984 73.5944 1.584 73.5944 2.504C73.5944 3.232 73.1944 3.72 72.5544 3.936V3.952C73.2424 4.104 73.7544 4.568 73.7544 5.416C73.7544 6.36 72.9944 7.12 71.8024 7.12C70.4344 7.12 69.9144 6.28 69.8664 5.36H70.4024C70.4824 6.216 70.9704 6.656 71.8424 6.656C72.6104 6.656 73.1944 6.184 73.1944 5.408C73.1944 4.592 72.6424 4.224 71.8744 4.224Z" fill="white"/>
<path d="M119.56 5.4H120.096C120.192 6.224 120.704 6.656 121.496 6.656C122.168 6.656 122.952 6.28 122.952 5.12C122.952 4.088 122.32 3.608 121.568 3.608C120.968 3.608 120.568 3.8 120.328 4.192H119.8L119.992 1.072H123.192V1.568H120.464L120.336 3.672H120.352C120.584 3.368 121.04 3.144 121.648 3.144C122.616 3.144 123.512 3.736 123.512 5.088C123.512 6.384 122.68 7.12 121.496 7.12C120.176 7.12 119.624 6.272 119.56 5.4ZM126.237 7V6.08H127.117V7H126.237ZM130.538 7L133.13 1.56H129.834V1.072H133.746V1.448L131.114 7H130.538Z" fill="white"/>
<path d="M219.408 7H215.904V6.544H217.392V2.52H215.992V2.072H216.496C216.856 2.072 217.096 2.032 217.248 1.872C217.416 1.704 217.464 1.472 217.472 1.048H217.936V6.544H219.408V7ZM224.525 7H221.021V6.544H222.509V2.52H221.109V2.072H221.613C221.973 2.072 222.213 2.032 222.365 1.872C222.533 1.704 222.581 1.472 222.589 1.048H223.053V6.544H224.525V7ZM227.354 7V6.08H228.234V7H227.354ZM234.96 5.496H234.136V7H233.6V5.496H230.824V5.056L233.472 1.072H234.136V5.024H234.96V5.496ZM231.384 5.032H233.6V1.64H233.568C233.568 1.64 233.424 1.984 233.168 2.36L231.384 5.032ZM238.109 4.224H237.565V3.744H238.085C238.893 3.744 239.277 3.184 239.277 2.568C239.277 1.888 238.805 1.456 238.061 1.456C237.293 1.456 236.813 1.832 236.781 2.744H236.245C236.237 1.784 236.845 0.984 238.077 0.984C239.125 0.984 239.829 1.584 239.829 2.504C239.829 3.232 239.429 3.72 238.789 3.936V3.952C239.477 4.104 239.989 4.568 239.989 5.416C239.989 6.36 239.229 7.12 238.037 7.12C236.669 7.12 236.149 6.28 236.101 5.36H236.637C236.717 6.216 237.205 6.656 238.077 6.656C238.845 6.656 239.429 6.184 239.429 5.408C239.429 4.592 238.877 4.224 238.109 4.224Z" fill="white"/>
<path d="M322.304 7L324.896 1.56H321.6V1.072H325.512V1.448L322.88 7H322.304ZM328.237 7V6.08H329.117V7H328.237ZM332.538 7L335.13 1.56H331.834V1.072H335.746V1.448L333.114 7H332.538Z" fill="white"/>
<path d="M465.408 7H461.904V6.544H463.392V2.52H461.992V2.072H462.496C462.856 2.072 463.096 2.032 463.248 1.872C463.416 1.704 463.464 1.472 463.472 1.048H463.936V6.544H465.408V7ZM466.869 2.544C466.869 1.688 467.533 0.984 468.669 0.984C469.813 0.984 470.469 1.688 470.469 2.544C470.469 3.32 469.981 3.784 469.461 3.936V3.968C469.957 4.064 470.653 4.504 470.653 5.472C470.653 6.456 469.925 7.12 468.669 7.128C467.413 7.136 466.701 6.456 466.701 5.472C466.701 4.496 467.421 4.064 467.893 3.968V3.936C467.373 3.792 466.869 3.32 466.869 2.544ZM468.669 1.424C468.021 1.424 467.429 1.776 467.429 2.584C467.429 3.384 468.037 3.736 468.669 3.736C469.293 3.736 469.909 3.384 469.909 2.584C469.909 1.776 469.301 1.424 468.669 1.424ZM468.669 6.688C469.453 6.688 470.085 6.328 470.085 5.448C470.085 4.568 469.429 4.192 468.669 4.192C467.933 4.192 467.269 4.568 467.269 5.448C467.269 6.328 467.901 6.688 468.669 6.688Z" fill="white"/>
<path d="M15.408 7H11.904V6.544H13.392V2.52H11.992V2.072H12.496C12.856 2.072 13.096 2.032 13.248 1.872C13.416 1.704 13.464 1.472 13.472 1.048H13.936V6.544H15.408V7ZM18.2372 7V6.08H19.1172V7H18.2372ZM23.8744 4.224H23.3304V3.744H23.8504C24.6584 3.744 25.0424 3.184 25.0424 2.568C25.0424 1.888 24.5704 1.456 23.8264 1.456C23.0584 1.456 22.5784 1.832 22.5464 2.744H22.0104C22.0024 1.784 22.6104 0.984 23.8424 0.984C24.8904 0.984 25.5944 1.584 25.5944 2.504C25.5944 3.232 25.1944 3.72 24.5544 3.936V3.952C25.2424 4.104 25.7544 4.568 25.7544 5.416C25.7544 6.36 24.9944 7.12 23.8024 7.12C22.4344 7.12 21.9144 6.28 21.8664 5.36H22.4024C22.4824 6.216 22.9704 6.656 23.8424 6.656C24.6104 6.656 25.1944 6.184 25.1944 5.408C25.1944 4.592 24.6424 4.224 23.8744 4.224Z" fill="white"/>
<path fill-rule="evenodd" clip-rule="evenodd" d="M0 19H12.6183V67H0V19Z" fill="#A8A18F"/>
<path d="M13.1182 19.5H24.7365V66.5H13.1182V19.5Z" fill="#DCDFD8" stroke="#A8A18F"/>
<path fill-rule="evenodd" clip-rule="evenodd" d="M25.2363 19H35.4887V67H25.2363V19Z" fill="#A8A18F"/>
<path d="M35.9893 19.5H98.0807V66.5H35.9893V19.5Z" fill="#DCDFD8" stroke="#A8A18F"/>
<path d="M99.0801 19.5H154.862V66.5H99.0801V19.5Z" fill="#DCDFD8" stroke="#A8A18F"/>
<path fill-rule="evenodd" clip-rule="evenodd" d="M155.362 19H171.135V67H155.362V19Z" fill="#A8A18F"/>
<path d="M171.636 19.5H284.989V66.5H171.636V19.5Z" fill="#DCDFD8" stroke="#A8A18F"/>
<path fill-rule="evenodd" clip-rule="evenodd" d="M285.489 19H290.221V67H285.489V19Z" fill="#A8A18F"/>
<path d="M290.721 19.5H367.008V66.5H290.721V19.5Z" fill="#DCDFD8" stroke="#A8A18F"/>
<path fill-rule="evenodd" clip-rule="evenodd" d="M367.508 19H374.606V67H367.508V19Z" fill="#A8A18F"/>
<path d="M375.105 19.5H553.128V66.5H375.105V19.5Z" fill="#DCDFD8" stroke="#A8A18F"/>
<path d="M554.128 19.5H616.219V66.5H554.128V19.5Z" fill="#DCDFD8" stroke="#A8A18F"/>
<path d="M617.219 19.5H679.31V66.5H617.219V19.5Z" fill="#DCDFD8" stroke="#A8A18F"/>
<path d="M680.311 19.5H719.531V66.5H680.311V19.5Z" fill="#DCDFD8" stroke="#A8A18F"/>
<path d="M720.531 19.5H782.623V66.5H720.531V19.5Z" fill="#DCDFD8" stroke="#A8A18F"/>
<path d="M783.623 19.5H862.276V66.5H783.623V19.5Z" fill="#DCDFD8" stroke="#A8A18F"/>
<path d="M863.276 19.5H990.037V66.5H863.276V19.5Z" fill="#DCDFD8" stroke="#A8A18F"/>
<path fill-rule="evenodd" clip-rule="evenodd" d="M990.536 19H1000V67H990.536V19Z" fill="#A8A18F"/>
<path d="M986.12 83V82.08H987V83H986.12ZM989.805 81.72H990.333C990.477 82.36 990.925 82.68 991.565 82.68C992.653 82.68 993.045 81.864 993.077 79.88H993.045C992.797 80.44 992.245 80.776 991.549 80.776C990.605 80.776 989.725 80.2 989.725 78.896C989.725 77.792 990.501 76.992 991.621 76.992C992.805 76.992 993.605 77.792 993.605 79.64C993.605 82.216 992.893 83.128 991.525 83.128C990.669 83.128 989.957 82.672 989.805 81.72ZM991.613 77.456C990.957 77.456 990.277 77.88 990.277 78.896C990.277 79.816 990.877 80.312 991.621 80.312C992.397 80.312 992.981 79.784 992.981 78.896C992.981 77.968 992.357 77.456 991.613 77.456ZM994.794 81.4H995.33C995.426 82.224 995.938 82.656 996.73 82.656C997.402 82.656 998.186 82.28 998.186 81.12C998.186 80.088 997.554 79.608 996.802 79.608C996.202 79.608 995.802 79.8 995.562 80.192H995.034L995.226 77.072H998.426V77.568H995.698L995.57 79.672H995.586C995.818 79.368 996.274 79.144 996.882 79.144C997.85 79.144 998.746 79.736 998.746 81.088C998.746 82.384 997.914 83.12 996.73 83.12C995.41 83.12 994.858 82.272 994.794 81.4Z" fill="white"/>
<path d="M159.408 83H155.904V82.544H157.392V78.52H155.992V78.072H156.496C156.856 78.072 157.096 78.032 157.248 77.872C157.416 77.704 157.464 77.472 157.472 77.048H157.936V82.544H159.408V83ZM162.237 83V82.08H163.117V83H162.237ZM165.986 78.544C165.986 77.688 166.65 76.984 167.786 76.984C168.93 76.984 169.586 77.688 169.586 78.544C169.586 79.32 169.098 79.784 168.578 79.936V79.968C169.074 80.064 169.77 80.504 169.77 81.472C169.77 82.456 169.042 83.12 167.786 83.128C166.53 83.136 165.818 82.456 165.818 81.472C165.818 80.496 166.538 80.064 167.01 79.968V79.936C166.49 79.792 165.986 79.32 165.986 78.544ZM167.786 77.424C167.138 77.424 166.546 77.776 166.546 78.584C166.546 79.384 167.154 79.736 167.786 79.736C168.41 79.736 169.026 79.384 169.026 78.584C169.026 77.776 168.418 77.424 167.786 77.424ZM167.786 82.688C168.57 82.688 169.202 82.328 169.202 81.448C169.202 80.568 168.546 80.192 167.786 80.192C167.05 80.192 166.386 80.568 166.386 81.448C166.386 82.328 167.018 82.688 167.786 82.688Z" fill="white"/>
<path d="M368.12 83V82.08H369V83H368.12ZM372.421 83L375.013 77.56H371.717V77.072H375.629V77.448L372.997 83H372.421Z" fill="white"/>
<path d="M284.12 83V82.08H285V83H284.12ZM287.677 81.4H288.213C288.309 82.224 288.821 82.656 289.613 82.656C290.285 82.656 291.069 82.28 291.069 81.12C291.069 80.088 290.437 79.608 289.685 79.608C289.085 79.608 288.685 79.8 288.445 80.192H287.917L288.109 77.072H291.309V77.568H288.581L288.453 79.672H288.469C288.701 79.368 289.157 79.144 289.765 79.144C290.733 79.144 291.629 79.736 291.629 81.088C291.629 82.384 290.797 83.12 289.613 83.12C288.293 83.12 287.741 82.272 287.677 81.4Z" fill="white"/>
<path d="M4.408 83H0.904V82.544H2.392V78.52H0.992V78.072H1.496C1.856 78.072 2.096 78.032 2.248 77.872C2.416 77.704 2.464 77.472 2.472 77.048H2.936V82.544H4.408V83ZM7.23719 83V82.08H8.11719V83H7.23719ZM12.8744 80.224H12.3304V79.744H12.8504C13.6584 79.744 14.0424 79.184 14.0424 78.568C14.0424 77.888 13.5704 77.456 12.8264 77.456C12.0584 77.456 11.5784 77.832 11.5464 78.744H11.0104C11.0024 77.784 11.6104 76.984 12.8424 76.984C13.8904 76.984 14.5944 77.584 14.5944 78.504C14.5944 79.232 14.1944 79.72 13.5544 79.936V79.952C14.2424 80.104 14.7544 80.568 14.7544 81.416C14.7544 82.36 13.9944 83.12 12.8024 83.12C11.4344 83.12 10.9144 82.28 10.8664 81.36H11.4024C11.4824 82.216 11.9704 82.656 12.8424 82.656C13.6104 82.656 14.1944 82.184 14.1944 81.408C14.1944 80.592 13.6424 80.224 12.8744 80.224Z" fill="white"/>
<path d="M31.408 83H27.904V82.544H29.392V78.52H27.992V78.072H28.496C28.856 78.072 29.096 78.032 29.248 77.872C29.416 77.704 29.464 77.472 29.472 77.048H29.936V82.544H31.408V83Z" fill="white"/>
</svg>
