<svg width="1000" height="86" viewBox="0 0 1000 86" fill="none" xmlns="http://www.w3.org/2000/svg">
<path d="M820.752 2.544C820.752 1.688 821.416 0.984 822.552 0.984C823.696 0.984 824.352 1.688 824.352 2.544C824.352 3.32 823.864 3.784 823.344 3.936V3.968C823.84 4.064 824.536 4.504 824.536 5.472C824.536 6.456 823.808 7.12 822.552 7.128C821.296 7.136 820.584 6.456 820.584 5.472C820.584 4.496 821.304 4.064 821.776 3.968V3.936C821.256 3.792 820.752 3.32 820.752 2.544ZM822.552 1.424C821.904 1.424 821.312 1.776 821.312 2.584C821.312 3.384 821.92 3.736 822.552 3.736C823.176 3.736 823.792 3.384 823.792 2.584C823.792 1.776 823.184 1.424 822.552 1.424ZM822.552 6.688C823.336 6.688 823.968 6.328 823.968 5.448C823.968 4.568 823.312 4.192 822.552 4.192C821.816 4.192 821.152 4.568 821.152 5.448C821.152 6.328 821.784 6.688 822.552 6.688Z" fill="white"/>
<path d="M920.408 7H916.904V6.544H918.392V2.52H916.992V2.072H917.496C917.856 2.072 918.096 2.032 918.248 1.872C918.416 1.704 918.464 1.472 918.472 1.048H918.936V6.544H920.408V7ZM922.461 2.984H921.925C921.893 1.704 922.725 0.984 923.789 0.984C925.021 0.984 925.589 1.768 925.589 2.592C925.589 3.376 925.261 3.888 924.397 4.712L923.309 5.752C922.757 6.272 922.517 6.496 922.517 6.496V6.52H925.701V7H921.805V6.536L923.909 4.488C924.661 3.76 925.029 3.36 925.029 2.616C925.029 1.92 924.549 1.448 923.805 1.448C923.021 1.448 922.453 1.936 922.461 2.984ZM928.354 7V6.08H929.234V7H928.354ZM932.104 2.544C932.104 1.688 932.768 0.984 933.904 0.984C935.048 0.984 935.704 1.688 935.704 2.544C935.704 3.32 935.216 3.784 934.696 3.936V3.968C935.192 4.064 935.888 4.504 935.888 5.472C935.888 6.456 935.16 7.12 933.904 7.128C932.648 7.136 931.936 6.456 931.936 5.472C931.936 4.496 932.656 4.064 933.128 3.968V3.936C932.608 3.792 932.104 3.32 932.104 2.544ZM933.904 1.424C933.256 1.424 932.664 1.776 932.664 2.584C932.664 3.384 933.272 3.736 933.904 3.736C934.528 3.736 935.144 3.384 935.144 2.584C935.144 1.776 934.536 1.424 933.904 1.424ZM933.904 6.688C934.688 6.688 935.32 6.328 935.32 5.448C935.32 4.568 934.664 4.192 933.904 4.192C933.168 4.192 932.504 4.568 932.504 5.448C932.504 6.328 933.136 6.688 933.904 6.688Z" fill="white"/>
<path d="M581.424 2.304H580.888C580.792 1.864 580.456 1.432 579.72 1.432C578.552 1.432 578.16 2.552 578.144 4.168H578.168C578.432 3.624 578.96 3.216 579.744 3.216C580.688 3.216 581.584 3.776 581.584 5.136C581.584 6.256 580.856 7.12 579.632 7.12C578.504 7.12 577.592 6.488 577.592 4.352C577.592 2.048 578.376 0.984 579.736 0.984C580.8 0.984 581.32 1.616 581.424 2.304ZM579.64 6.664C580.384 6.664 581.024 6.144 581.024 5.176C581.024 4.176 580.432 3.688 579.632 3.688C578.808 3.688 578.248 4.208 578.248 5.128C578.248 6.072 578.824 6.664 579.64 6.664ZM584.237 7V6.08H585.117V7H584.237ZM589.874 4.224H589.33V3.744H589.85C590.658 3.744 591.042 3.184 591.042 2.568C591.042 1.888 590.57 1.456 589.826 1.456C589.058 1.456 588.578 1.832 588.546 2.744H588.01C588.002 1.784 588.61 0.984 589.842 0.984C590.89 0.984 591.594 1.584 591.594 2.504C591.594 3.232 591.194 3.72 590.554 3.936V3.952C591.242 4.104 591.754 4.568 591.754 5.416C591.754 6.36 590.994 7.12 589.802 7.12C588.434 7.12 587.914 6.28 587.866 5.36H588.402C588.482 6.216 588.97 6.656 589.842 6.656C590.61 6.656 591.194 6.184 591.194 5.408C591.194 4.592 590.642 4.224 589.874 4.224Z" fill="white"/>
<path d="M644.424 2.304H643.888C643.792 1.864 643.456 1.432 642.72 1.432C641.552 1.432 641.16 2.552 641.144 4.168H641.168C641.432 3.624 641.96 3.216 642.744 3.216C643.688 3.216 644.584 3.776 644.584 5.136C644.584 6.256 643.856 7.12 642.632 7.12C641.504 7.12 640.592 6.488 640.592 4.352C640.592 2.048 641.376 0.984 642.736 0.984C643.8 0.984 644.32 1.616 644.424 2.304ZM642.64 6.664C643.384 6.664 644.024 6.144 644.024 5.176C644.024 4.176 643.432 3.688 642.632 3.688C641.808 3.688 641.248 4.208 641.248 5.128C641.248 6.072 641.824 6.664 642.64 6.664ZM647.237 7V6.08H648.117V7H647.237ZM652.874 4.224H652.33V3.744H652.85C653.658 3.744 654.042 3.184 654.042 2.568C654.042 1.888 653.57 1.456 652.826 1.456C652.058 1.456 651.578 1.832 651.546 2.744H651.01C651.002 1.784 651.61 0.984 652.842 0.984C653.89 0.984 654.594 1.584 654.594 2.504C654.594 3.232 654.194 3.72 653.554 3.936V3.952C654.242 4.104 654.754 4.568 654.754 5.416C654.754 6.36 653.994 7.12 652.802 7.12C651.434 7.12 650.914 6.28 650.866 5.36H651.402C651.482 6.216 651.97 6.656 652.842 6.656C653.61 6.656 654.194 6.184 654.194 5.408C654.194 4.592 653.642 4.224 652.874 4.224Z" fill="white"/>
<path d="M40.424 2.304H39.888C39.792 1.864 39.456 1.432 38.72 1.432C37.552 1.432 37.16 2.552 37.144 4.168H37.168C37.432 3.624 37.96 3.216 38.744 3.216C39.688 3.216 40.584 3.776 40.584 5.136C40.584 6.256 39.856 7.12 38.632 7.12C37.504 7.12 36.592 6.488 36.592 4.352C36.592 2.048 37.376 0.984 38.736 0.984C39.8 0.984 40.32 1.616 40.424 2.304ZM38.64 6.664C39.384 6.664 40.024 6.144 40.024 5.176C40.024 4.176 39.432 3.688 38.632 3.688C37.808 3.688 37.248 4.208 37.248 5.128C37.248 6.072 37.824 6.664 38.64 6.664ZM43.2372 7V6.08H44.1172V7H43.2372ZM48.8744 4.224H48.3304V3.744H48.8504C49.6584 3.744 50.0424 3.184 50.0424 2.568C50.0424 1.888 49.5704 1.456 48.8264 1.456C48.0584 1.456 47.5784 1.832 47.5464 2.744H47.0104C47.0024 1.784 47.6104 0.984 48.8424 0.984C49.8904 0.984 50.5944 1.584 50.5944 2.504C50.5944 3.232 50.1944 3.72 49.5544 3.936V3.952C50.2424 4.104 50.7544 4.568 50.7544 5.416C50.7544 6.36 49.9944 7.12 48.8024 7.12C47.4344 7.12 46.9144 6.28 46.8664 5.36H47.4024C47.4824 6.216 47.9704 6.656 48.8424 6.656C49.6104 6.656 50.1944 6.184 50.1944 5.408C50.1944 4.592 49.6424 4.224 48.8744 4.224Z" fill="white"/>
<path d="M701.608 5.496H700.784V7H700.248V5.496H697.472V5.056L700.12 1.072H700.784V5.024H701.608V5.496ZM698.032 5.032H700.248V1.64H700.216C700.216 1.64 700.072 1.984 699.816 2.36L698.032 5.032Z" fill="white"/>
<path d="M748.424 2.304H747.888C747.792 1.864 747.456 1.432 746.72 1.432C745.552 1.432 745.16 2.552 745.144 4.168H745.168C745.432 3.624 745.96 3.216 746.744 3.216C747.688 3.216 748.584 3.776 748.584 5.136C748.584 6.256 747.856 7.12 746.632 7.12C745.504 7.12 744.592 6.488 744.592 4.352C744.592 2.048 745.376 0.984 746.736 0.984C747.8 0.984 748.32 1.616 748.424 2.304ZM746.64 6.664C747.384 6.664 748.024 6.144 748.024 5.176C748.024 4.176 747.432 3.688 746.632 3.688C745.808 3.688 745.248 4.208 745.248 5.128C745.248 6.072 745.824 6.664 746.64 6.664ZM751.237 7V6.08H752.117V7H751.237ZM756.874 4.224H756.33V3.744H756.85C757.658 3.744 758.042 3.184 758.042 2.568C758.042 1.888 757.57 1.456 756.826 1.456C756.058 1.456 755.578 1.832 755.546 2.744H755.01C755.002 1.784 755.61 0.984 756.842 0.984C757.89 0.984 758.594 1.584 758.594 2.504C758.594 3.232 758.194 3.72 757.554 3.936V3.952C758.242 4.104 758.754 4.568 758.754 5.416C758.754 6.36 757.994 7.12 756.802 7.12C755.434 7.12 754.914 6.28 754.866 5.36H755.402C755.482 6.216 755.97 6.656 756.842 6.656C757.61 6.656 758.194 6.184 758.194 5.408C758.194 4.592 757.642 4.224 756.874 4.224Z" fill="white"/>
<path d="M96.56 5.4H97.096C97.192 6.224 97.704 6.656 98.496 6.656C99.168 6.656 99.952 6.28 99.952 5.12C99.952 4.088 99.32 3.608 98.568 3.608C97.968 3.608 97.568 3.8 97.328 4.192H96.8L96.992 1.072H100.192V1.568H97.464L97.336 3.672H97.352C97.584 3.368 98.04 3.144 98.648 3.144C99.616 3.144 100.512 3.736 100.512 5.088C100.512 6.384 99.68 7.12 98.496 7.12C97.176 7.12 96.624 6.272 96.56 5.4ZM103.237 7V6.08H104.117V7H103.237ZM107.538 7L110.13 1.56H106.834V1.072H110.746V1.448L108.114 7H107.538Z" fill="white"/>
<path d="M196.408 7H192.904V6.544H194.392V2.52H192.992V2.072H193.496C193.856 2.072 194.096 2.032 194.248 1.872C194.416 1.704 194.464 1.472 194.472 1.048H194.936V6.544H196.408V7ZM201.525 7H198.021V6.544H199.509V2.52H198.109V2.072H198.613C198.973 2.072 199.213 2.032 199.365 1.872C199.533 1.704 199.581 1.472 199.589 1.048H200.053V6.544H201.525V7ZM204.354 7V6.08H205.234V7H204.354ZM211.96 5.496H211.136V7H210.6V5.496H207.824V5.056L210.472 1.072H211.136V5.024H211.96V5.496ZM208.384 5.032H210.6V1.64H210.568C210.568 1.64 210.424 1.984 210.168 2.36L208.384 5.032ZM215.109 4.224H214.565V3.744H215.085C215.893 3.744 216.277 3.184 216.277 2.568C216.277 1.888 215.805 1.456 215.061 1.456C214.293 1.456 213.813 1.832 213.781 2.744H213.245C213.237 1.784 213.845 0.984 215.077 0.984C216.125 0.984 216.829 1.584 216.829 2.504C216.829 3.232 216.429 3.72 215.789 3.936V3.952C216.477 4.104 216.989 4.568 216.989 5.416C216.989 6.36 216.229 7.12 215.037 7.12C213.669 7.12 213.149 6.28 213.101 5.36H213.637C213.717 6.216 214.205 6.656 215.077 6.656C215.845 6.656 216.429 6.184 216.429 5.408C216.429 4.592 215.877 4.224 215.109 4.224Z" fill="white"/>
<path d="M443.344 2.984H442.808C442.776 1.704 443.608 0.984 444.672 0.984C445.904 0.984 446.472 1.768 446.472 2.592C446.472 3.376 446.144 3.888 445.28 4.712L444.192 5.752C443.64 6.272 443.4 6.496 443.4 6.496V6.52H446.584V7H442.688V6.536L444.792 4.488C445.544 3.76 445.912 3.36 445.912 2.616C445.912 1.92 445.432 1.448 444.688 1.448C443.904 1.448 443.336 1.936 443.344 2.984ZM447.645 4.056C447.645 1.952 448.413 0.984 449.677 0.984C450.933 0.984 451.709 1.952 451.709 4.056C451.709 6.16 450.949 7.128 449.677 7.128C448.397 7.128 447.645 6.16 447.645 4.056ZM449.677 6.664C450.597 6.664 451.125 5.848 451.125 4.064C451.125 2.256 450.605 1.456 449.677 1.456C448.749 1.456 448.229 2.24 448.229 4.064C448.229 5.864 448.741 6.664 449.677 6.664ZM454.354 7V6.08H455.234V7H454.354ZM461.76 7H458.256V6.544H459.744V2.52H458.344V2.072H458.848C459.208 2.072 459.448 2.032 459.6 1.872C459.768 1.704 459.816 1.472 459.824 1.048H460.288V6.544H461.76V7Z" fill="white"/>
<path d="M300.304 7L302.896 1.56H299.6V1.072H303.512V1.448L300.88 7H300.304ZM306.237 7V6.08H307.117V7H306.237ZM309.922 5.72H310.45C310.594 6.36 311.042 6.68 311.682 6.68C312.77 6.68 313.162 5.864 313.194 3.88H313.162C312.914 4.44 312.362 4.776 311.666 4.776C310.722 4.776 309.842 4.2 309.842 2.896C309.842 1.792 310.618 0.992 311.738 0.992C312.922 0.992 313.722 1.792 313.722 3.64C313.722 6.216 313.01 7.128 311.642 7.128C310.786 7.128 310.074 6.672 309.922 5.72ZM311.73 1.456C311.074 1.456 310.394 1.88 310.394 2.896C310.394 3.816 310.994 4.312 311.738 4.312C312.514 4.312 313.098 3.784 313.098 2.896C313.098 1.968 312.474 1.456 311.73 1.456Z" fill="white"/>
<path fill-rule="evenodd" clip-rule="evenodd" d="M0 19H12.6183V67H0V19Z" fill="#A8A18F"/>
<path d="M13.1182 19.5H75.2096V66.5H13.1182V19.5Z" fill="#DCDFD8" stroke="#A8A18F"/>
<path d="M76.21 19.5H131.992V66.5H76.21V19.5Z" fill="#DCDFD8" stroke="#A8A18F"/>
<path fill-rule="evenodd" clip-rule="evenodd" d="M132.492 19H148.265V67H132.492V19Z" fill="#A8A18F"/>
<path d="M148.765 19.5H262.118V66.5H148.765V19.5Z" fill="#DCDFD8" stroke="#A8A18F"/>
<path fill-rule="evenodd" clip-rule="evenodd" d="M262.618 19H267.35V67H262.618V19Z" fill="#A8A18F"/>
<path d="M267.851 19.5H345.715V66.5H267.851V19.5Z" fill="#DCDFD8" stroke="#A8A18F"/>
<path fill-rule="evenodd" clip-rule="evenodd" d="M346.215 19H351.735V67H346.215V19Z" fill="#A8A18F"/>
<path d="M352.235 19.5H553.128V66.5H352.235V19.5Z" fill="#DCDFD8" stroke="#A8A18F"/>
<path d="M554.128 19.5H616.219V66.5H554.128V19.5Z" fill="#DCDFD8" stroke="#A8A18F"/>
<path d="M617.219 19.5H679.31V66.5H617.219V19.5Z" fill="#DCDFD8" stroke="#A8A18F"/>
<path d="M680.311 19.5H719.531V66.5H680.311V19.5Z" fill="#DCDFD8" stroke="#A8A18F"/>
<path d="M720.531 19.5H782.623V66.5H720.531V19.5Z" fill="#DCDFD8" stroke="#A8A18F"/>
<path d="M783.623 19.5H862.276V66.5H783.623V19.5Z" fill="#DCDFD8" stroke="#A8A18F"/>
<path d="M863.276 19.5H990.037V66.5H863.276V19.5Z" fill="#DCDFD8" stroke="#A8A18F"/>
<path fill-rule="evenodd" clip-rule="evenodd" d="M990.536 19H1000V67H990.536V19Z" fill="#A8A18F"/>
<path d="M986.12 83V82.08H987V83H986.12ZM989.805 81.72H990.333C990.477 82.36 990.925 82.68 991.565 82.68C992.653 82.68 993.045 81.864 993.077 79.88H993.045C992.797 80.44 992.245 80.776 991.549 80.776C990.605 80.776 989.725 80.2 989.725 78.896C989.725 77.792 990.501 76.992 991.621 76.992C992.805 76.992 993.605 77.792 993.605 79.64C993.605 82.216 992.893 83.128 991.525 83.128C990.669 83.128 989.957 82.672 989.805 81.72ZM991.613 77.456C990.957 77.456 990.277 77.88 990.277 78.896C990.277 79.816 990.877 80.312 991.621 80.312C992.397 80.312 992.981 79.784 992.981 78.896C992.981 77.968 992.357 77.456 991.613 77.456ZM994.794 81.4H995.33C995.426 82.224 995.938 82.656 996.73 82.656C997.402 82.656 998.186 82.28 998.186 81.12C998.186 80.088 997.554 79.608 996.802 79.608C996.202 79.608 995.802 79.8 995.562 80.192H995.034L995.226 77.072H998.426V77.568H995.698L995.57 79.672H995.586C995.818 79.368 996.274 79.144 996.882 79.144C997.85 79.144 998.746 79.736 998.746 81.088C998.746 82.384 997.914 83.12 996.73 83.12C995.41 83.12 994.858 82.272 994.794 81.4Z" fill="white"/>
<path d="M136.408 83H132.904V82.544H134.392V78.52H132.992V78.072H133.496C133.856 78.072 134.096 78.032 134.248 77.872C134.416 77.704 134.464 77.472 134.472 77.048H134.936V82.544H136.408V83ZM139.237 83V82.08H140.117V83H139.237ZM142.986 78.544C142.986 77.688 143.65 76.984 144.786 76.984C145.93 76.984 146.586 77.688 146.586 78.544C146.586 79.32 146.098 79.784 145.578 79.936V79.968C146.074 80.064 146.77 80.504 146.77 81.472C146.77 82.456 146.042 83.12 144.786 83.128C143.53 83.136 142.818 82.456 142.818 81.472C142.818 80.496 143.538 80.064 144.01 79.968V79.936C143.49 79.792 142.986 79.32 142.986 78.544ZM144.786 77.424C144.138 77.424 143.546 77.776 143.546 78.584C143.546 79.384 144.154 79.736 144.786 79.736C145.41 79.736 146.026 79.384 146.026 78.584C146.026 77.776 145.418 77.424 144.786 77.424ZM144.786 82.688C145.57 82.688 146.202 82.328 146.202 81.448C146.202 80.568 145.546 80.192 144.786 80.192C144.05 80.192 143.386 80.568 143.386 81.448C143.386 82.328 144.018 82.688 144.786 82.688Z" fill="white"/>
<path d="M261.12 83V82.08H262V83H261.12ZM264.677 81.4H265.213C265.309 82.224 265.821 82.656 266.613 82.656C267.285 82.656 268.069 82.28 268.069 81.12C268.069 80.088 267.437 79.608 266.685 79.608C266.085 79.608 265.685 79.8 265.445 80.192H264.917L265.109 77.072H268.309V77.568H265.581L265.453 79.672H265.469C265.701 79.368 266.157 79.144 266.765 79.144C267.733 79.144 268.629 79.736 268.629 81.088C268.629 82.384 267.797 83.12 266.613 83.12C265.293 83.12 264.741 82.272 264.677 81.4Z" fill="white"/>
<path d="M343.12 83V82.08H344V83H343.12ZM346.677 81.4H347.213C347.309 82.224 347.821 82.656 348.613 82.656C349.285 82.656 350.069 82.28 350.069 81.12C350.069 80.088 349.437 79.608 348.685 79.608C348.085 79.608 347.685 79.8 347.445 80.192H346.917L347.109 77.072H350.309V77.568H347.581L347.453 79.672H347.469C347.701 79.368 348.157 79.144 348.765 79.144C349.733 79.144 350.629 79.736 350.629 81.088C350.629 82.384 349.797 83.12 348.613 83.12C347.293 83.12 346.741 82.272 346.677 81.4ZM351.794 81.4H352.33C352.426 82.224 352.938 82.656 353.73 82.656C354.402 82.656 355.186 82.28 355.186 81.12C355.186 80.088 354.554 79.608 353.802 79.608C353.202 79.608 352.802 79.8 352.562 80.192H352.034L352.226 77.072H355.426V77.568H352.698L352.57 79.672H352.586C352.818 79.368 353.274 79.144 353.882 79.144C354.85 79.144 355.746 79.736 355.746 81.088C355.746 82.384 354.914 83.12 353.73 83.12C352.41 83.12 351.858 82.272 351.794 81.4Z" fill="white"/>
<path d="M4.408 83H0.904V82.544H2.392V78.52H0.992V78.072H1.496C1.856 78.072 2.096 78.032 2.248 77.872C2.416 77.704 2.464 77.472 2.472 77.048H2.936V82.544H4.408V83ZM7.23719 83V82.08H8.11719V83H7.23719ZM12.8744 80.224H12.3304V79.744H12.8504C13.6584 79.744 14.0424 79.184 14.0424 78.568C14.0424 77.888 13.5704 77.456 12.8264 77.456C12.0584 77.456 11.5784 77.832 11.5464 78.744H11.0104C11.0024 77.784 11.6104 76.984 12.8424 76.984C13.8904 76.984 14.5944 77.584 14.5944 78.504C14.5944 79.232 14.1944 79.72 13.5544 79.936V79.952C14.2424 80.104 14.7544 80.568 14.7544 81.416C14.7544 82.36 13.9944 83.12 12.8024 83.12C11.4344 83.12 10.9144 82.28 10.8664 81.36H11.4024C11.4824 82.216 11.9704 82.656 12.8424 82.656C13.6104 82.656 14.1944 82.184 14.1944 81.408C14.1944 80.592 13.6424 80.224 12.8744 80.224Z" fill="white"/>
</svg>
