<svg width="1000" height="78" viewBox="0 0 1000 78" fill="none" xmlns="http://www.w3.org/2000/svg">
<path d="M820.752 2.544C820.752 1.688 821.416 0.984 822.552 0.984C823.696 0.984 824.352 1.688 824.352 2.544C824.352 3.32 823.864 3.784 823.344 3.936V3.968C823.84 4.064 824.536 4.504 824.536 5.472C824.536 6.456 823.808 7.12 822.552 7.128C821.296 7.136 820.584 6.456 820.584 5.472C820.584 4.496 821.304 4.064 821.776 3.968V3.936C821.256 3.792 820.752 3.32 820.752 2.544ZM822.552 1.424C821.904 1.424 821.312 1.776 821.312 2.584C821.312 3.384 821.92 3.736 822.552 3.736C823.176 3.736 823.792 3.384 823.792 2.584C823.792 1.776 823.184 1.424 822.552 1.424ZM822.552 6.688C823.336 6.688 823.968 6.328 823.968 5.448C823.968 4.568 823.312 4.192 822.552 4.192C821.816 4.192 821.152 4.568 821.152 5.448C821.152 6.328 821.784 6.688 822.552 6.688Z" fill="white"/>
<path d="M920.408 7H916.904V6.544H918.392V2.52H916.992V2.072H917.496C917.856 2.072 918.096 2.032 918.248 1.872C918.416 1.704 918.464 1.472 918.472 1.048H918.936V6.544H920.408V7ZM922.461 2.984H921.925C921.893 1.704 922.725 0.984 923.789 0.984C925.021 0.984 925.589 1.768 925.589 2.592C925.589 3.376 925.261 3.888 924.397 4.712L923.309 5.752C922.757 6.272 922.517 6.496 922.517 6.496V6.52H925.701V7H921.805V6.536L923.909 4.488C924.661 3.76 925.029 3.36 925.029 2.616C925.029 1.92 924.549 1.448 923.805 1.448C923.021 1.448 922.453 1.936 922.461 2.984ZM928.354 7V6.08H929.234V7H928.354ZM932.104 2.544C932.104 1.688 932.768 0.984 933.904 0.984C935.048 0.984 935.704 1.688 935.704 2.544C935.704 3.32 935.216 3.784 934.696 3.936V3.968C935.192 4.064 935.888 4.504 935.888 5.472C935.888 6.456 935.16 7.12 933.904 7.128C932.648 7.136 931.936 6.456 931.936 5.472C931.936 4.496 932.656 4.064 933.128 3.968V3.936C932.608 3.792 932.104 3.32 932.104 2.544ZM933.904 1.424C933.256 1.424 932.664 1.776 932.664 2.584C932.664 3.384 933.272 3.736 933.904 3.736C934.528 3.736 935.144 3.384 935.144 2.584C935.144 1.776 934.536 1.424 933.904 1.424ZM933.904 6.688C934.688 6.688 935.32 6.328 935.32 5.448C935.32 4.568 934.664 4.192 933.904 4.192C933.168 4.192 932.504 4.568 932.504 5.448C932.504 6.328 933.136 6.688 933.904 6.688Z" fill="white"/>
<path d="M581.424 2.304H580.888C580.792 1.864 580.456 1.432 579.72 1.432C578.552 1.432 578.16 2.552 578.144 4.168H578.168C578.432 3.624 578.96 3.216 579.744 3.216C580.688 3.216 581.584 3.776 581.584 5.136C581.584 6.256 580.856 7.12 579.632 7.12C578.504 7.12 577.592 6.488 577.592 4.352C577.592 2.048 578.376 0.984 579.736 0.984C580.8 0.984 581.32 1.616 581.424 2.304ZM579.64 6.664C580.384 6.664 581.024 6.144 581.024 5.176C581.024 4.176 580.432 3.688 579.632 3.688C578.808 3.688 578.248 4.208 578.248 5.128C578.248 6.072 578.824 6.664 579.64 6.664ZM584.237 7V6.08H585.117V7H584.237ZM589.874 4.224H589.33V3.744H589.85C590.658 3.744 591.042 3.184 591.042 2.568C591.042 1.888 590.57 1.456 589.826 1.456C589.058 1.456 588.578 1.832 588.546 2.744H588.01C588.002 1.784 588.61 0.984 589.842 0.984C590.89 0.984 591.594 1.584 591.594 2.504C591.594 3.232 591.194 3.72 590.554 3.936V3.952C591.242 4.104 591.754 4.568 591.754 5.416C591.754 6.36 590.994 7.12 589.802 7.12C588.434 7.12 587.914 6.28 587.866 5.36H588.402C588.482 6.216 588.97 6.656 589.842 6.656C590.61 6.656 591.194 6.184 591.194 5.408C591.194 4.592 590.642 4.224 589.874 4.224Z" fill="white"/>
<path d="M644.424 2.304H643.888C643.792 1.864 643.456 1.432 642.72 1.432C641.552 1.432 641.16 2.552 641.144 4.168H641.168C641.432 3.624 641.96 3.216 642.744 3.216C643.688 3.216 644.584 3.776 644.584 5.136C644.584 6.256 643.856 7.12 642.632 7.12C641.504 7.12 640.592 6.488 640.592 4.352C640.592 2.048 641.376 0.984 642.736 0.984C643.8 0.984 644.32 1.616 644.424 2.304ZM642.64 6.664C643.384 6.664 644.024 6.144 644.024 5.176C644.024 4.176 643.432 3.688 642.632 3.688C641.808 3.688 641.248 4.208 641.248 5.128C641.248 6.072 641.824 6.664 642.64 6.664ZM647.237 7V6.08H648.117V7H647.237ZM652.874 4.224H652.33V3.744H652.85C653.658 3.744 654.042 3.184 654.042 2.568C654.042 1.888 653.57 1.456 652.826 1.456C652.058 1.456 651.578 1.832 651.546 2.744H651.01C651.002 1.784 651.61 0.984 652.842 0.984C653.89 0.984 654.594 1.584 654.594 2.504C654.594 3.232 654.194 3.72 653.554 3.936V3.952C654.242 4.104 654.754 4.568 654.754 5.416C654.754 6.36 653.994 7.12 652.802 7.12C651.434 7.12 650.914 6.28 650.866 5.36H651.402C651.482 6.216 651.97 6.656 652.842 6.656C653.61 6.656 654.194 6.184 654.194 5.408C654.194 4.592 653.642 4.224 652.874 4.224Z" fill="white"/>
<path d="M33.608 5.496H32.784V7H32.248V5.496H29.472V5.056L32.12 1.072H32.784V5.024H33.608V5.496ZM30.032 5.032H32.248V1.64H32.216C32.216 1.64 32.072 1.984 31.816 2.36L30.032 5.032Z" fill="white"/>
<path d="M63.64 4.224H63.096V3.744H63.616C64.424 3.744 64.808 3.184 64.808 2.568C64.808 1.888 64.336 1.456 63.592 1.456C62.824 1.456 62.344 1.832 62.312 2.744H61.776C61.768 1.784 62.376 0.984 63.608 0.984C64.656 0.984 65.36 1.584 65.36 2.504C65.36 3.232 64.96 3.72 64.32 3.936V3.952C65.008 4.104 65.52 4.568 65.52 5.416C65.52 6.36 64.76 7.12 63.568 7.12C62.2 7.12 61.68 6.28 61.632 5.36H62.168C62.248 6.216 62.736 6.656 63.608 6.656C64.376 6.656 64.96 6.184 64.96 5.408C64.96 4.592 64.408 4.224 63.64 4.224ZM68.2372 7V6.08H69.1172V7H68.2372ZM71.7944 5.4H72.3304C72.4264 6.224 72.9384 6.656 73.7304 6.656C74.4024 6.656 75.1864 6.28 75.1864 5.12C75.1864 4.088 74.5544 3.608 73.8024 3.608C73.2024 3.608 72.8024 3.8 72.5624 4.192H72.0344L72.2264 1.072H75.4264V1.568H72.6984L72.5704 3.672H72.5864C72.8184 3.368 73.2744 3.144 73.8824 3.144C74.8504 3.144 75.7464 3.736 75.7464 5.088C75.7464 6.384 74.9144 7.12 73.7304 7.12C72.4104 7.12 71.8584 6.272 71.7944 5.4Z" fill="white"/>
<path d="M701.608 5.496H700.784V7H700.248V5.496H697.472V5.056L700.12 1.072H700.784V5.024H701.608V5.496ZM698.032 5.032H700.248V1.64H700.216C700.216 1.64 700.072 1.984 699.816 2.36L698.032 5.032Z" fill="white"/>
<path d="M748.424 2.304H747.888C747.792 1.864 747.456 1.432 746.72 1.432C745.552 1.432 745.16 2.552 745.144 4.168H745.168C745.432 3.624 745.96 3.216 746.744 3.216C747.688 3.216 748.584 3.776 748.584 5.136C748.584 6.256 747.856 7.12 746.632 7.12C745.504 7.12 744.592 6.488 744.592 4.352C744.592 2.048 745.376 0.984 746.736 0.984C747.8 0.984 748.32 1.616 748.424 2.304ZM746.64 6.664C747.384 6.664 748.024 6.144 748.024 5.176C748.024 4.176 747.432 3.688 746.632 3.688C745.808 3.688 745.248 4.208 745.248 5.128C745.248 6.072 745.824 6.664 746.64 6.664ZM751.237 7V6.08H752.117V7H751.237ZM756.874 4.224H756.33V3.744H756.85C757.658 3.744 758.042 3.184 758.042 2.568C758.042 1.888 757.57 1.456 756.826 1.456C756.058 1.456 755.578 1.832 755.546 2.744H755.01C755.002 1.784 755.61 0.984 756.842 0.984C757.89 0.984 758.594 1.584 758.594 2.504C758.594 3.232 758.194 3.72 757.554 3.936V3.952C758.242 4.104 758.754 4.568 758.754 5.416C758.754 6.36 757.994 7.12 756.802 7.12C755.434 7.12 754.914 6.28 754.866 5.36H755.402C755.482 6.216 755.97 6.656 756.842 6.656C757.61 6.656 758.194 6.184 758.194 5.408C758.194 4.592 757.642 4.224 756.874 4.224Z" fill="white"/>
<path d="M153.408 7H149.904V6.544H151.392V2.52H149.992V2.072H150.496C150.856 2.072 151.096 2.032 151.248 1.872C151.416 1.704 151.464 1.472 151.472 1.048H151.936V6.544H153.408V7ZM158.525 7H155.021V6.544H156.509V2.52H155.109V2.072H155.613C155.973 2.072 156.213 2.032 156.365 1.872C156.533 1.704 156.581 1.472 156.589 1.048H157.053V6.544H158.525V7ZM161.354 7V6.08H162.234V7H161.354ZM168.96 5.496H168.136V7H167.6V5.496H164.824V5.056L167.472 1.072H168.136V5.024H168.96V5.496ZM165.384 5.032H167.6V1.64H167.568C167.568 1.64 167.424 1.984 167.168 2.36L165.384 5.032Z" fill="white"/>
<path d="M423.344 2.984H422.808C422.776 1.704 423.608 0.984 424.672 0.984C425.904 0.984 426.472 1.768 426.472 2.592C426.472 3.376 426.144 3.888 425.28 4.712L424.192 5.752C423.64 6.272 423.4 6.496 423.4 6.496V6.52H426.584V7H422.688V6.536L424.792 4.488C425.544 3.76 425.912 3.36 425.912 2.616C425.912 1.92 425.432 1.448 424.688 1.448C423.904 1.448 423.336 1.936 423.344 2.984ZM431.725 5.496H430.901V7H430.365V5.496H427.589V5.056L430.237 1.072H430.901V5.024H431.725V5.496ZM428.149 5.032H430.365V1.64H430.333C430.333 1.64 430.189 1.984 429.933 2.36L428.149 5.032ZM434.354 7V6.08H435.234V7H434.354ZM438.696 2.984H438.16C438.128 1.704 438.96 0.984 440.024 0.984C441.256 0.984 441.824 1.768 441.824 2.592C441.824 3.376 441.496 3.888 440.632 4.712L439.544 5.752C438.992 6.272 438.752 6.496 438.752 6.496V6.52H441.936V7H438.04V6.536L440.144 4.488C440.896 3.76 441.264 3.36 441.264 2.616C441.264 1.92 440.784 1.448 440.04 1.448C439.256 1.448 438.688 1.936 438.696 2.984Z" fill="white"/>
<path d="M249.304 7L251.896 1.56H248.6V1.072H252.512V1.448L249.88 7H249.304ZM255.237 7V6.08H256.117V7H255.237ZM258.922 5.72H259.45C259.594 6.36 260.042 6.68 260.682 6.68C261.77 6.68 262.162 5.864 262.194 3.88H262.162C261.914 4.44 261.362 4.776 260.666 4.776C259.722 4.776 258.842 4.2 258.842 2.896C258.842 1.792 259.618 0.992 260.738 0.992C261.922 0.992 262.722 1.792 262.722 3.64C262.722 6.216 262.01 7.128 260.642 7.128C259.786 7.128 259.074 6.672 258.922 5.72ZM260.73 1.456C260.074 1.456 259.394 1.88 259.394 2.896C259.394 3.816 259.994 4.312 260.738 4.312C261.514 4.312 262.098 3.784 262.098 2.896C262.098 1.968 261.474 1.456 260.73 1.456Z" fill="white"/>
<path fill-rule="evenodd" clip-rule="evenodd" d="M0 19H12.6183V59H0V19Z" fill="#A8A18F"/>
<path d="M13.1182 19.5H51.5504V58.5H13.1182V19.5Z" fill="#DCDFD8" stroke="#A8A18F"/>
<path d="M52.5508 19.5H86.2511V58.5H52.5508V19.5Z" fill="#DCDFD8" stroke="#A8A18F"/>
<path fill-rule="evenodd" clip-rule="evenodd" d="M86.751 19H102.524V59H86.751V19Z" fill="#A8A18F"/>
<path d="M103.023 19.5H216.377V58.5H103.023V19.5Z" fill="#DCDFD8" stroke="#A8A18F"/>
<path d="M217.377 19.5H295.241V58.5H217.377V19.5Z" fill="#DCDFD8" stroke="#A8A18F"/>
<path fill-rule="evenodd" clip-rule="evenodd" d="M295.741 19H311.514V59H295.741V19Z" fill="#A8A18F"/>
<path d="M312.015 19.5H553.128V58.5H312.015V19.5Z" fill="#DCDFD8" stroke="#A8A18F"/>
<path d="M554.128 19.5H616.219V58.5H554.128V19.5Z" fill="#DCDFD8" stroke="#A8A18F"/>
<path d="M617.22 19.5H679.311V58.5H617.22V19.5Z" fill="#DCDFD8" stroke="#A8A18F"/>
<path d="M680.311 19.5H719.531V58.5H680.311V19.5Z" fill="#DCDFD8" stroke="#A8A18F"/>
<path d="M720.531 19.5H782.623V58.5H720.531V19.5Z" fill="#DCDFD8" stroke="#A8A18F"/>
<path d="M783.623 19.5H862.276V58.5H783.623V19.5Z" fill="#DCDFD8" stroke="#A8A18F"/>
<path d="M863.276 19.5H990.037V58.5H863.276V19.5Z" fill="#DCDFD8" stroke="#A8A18F"/>
<path fill-rule="evenodd" clip-rule="evenodd" d="M990.536 19H1000V59H990.536V19Z" fill="#A8A18F"/>
<path d="M986.12 75V74.08H987V75H986.12ZM989.805 73.72H990.333C990.477 74.36 990.925 74.68 991.565 74.68C992.653 74.68 993.045 73.864 993.077 71.88H993.045C992.797 72.44 992.245 72.776 991.549 72.776C990.605 72.776 989.725 72.2 989.725 70.896C989.725 69.792 990.501 68.992 991.621 68.992C992.805 68.992 993.605 69.792 993.605 71.64C993.605 74.216 992.893 75.128 991.525 75.128C990.669 75.128 989.957 74.672 989.805 73.72ZM991.613 69.456C990.957 69.456 990.277 69.88 990.277 70.896C990.277 71.816 990.877 72.312 991.621 72.312C992.397 72.312 992.981 71.784 992.981 70.896C992.981 69.968 992.357 69.456 991.613 69.456ZM994.794 73.4H995.33C995.426 74.224 995.938 74.656 996.73 74.656C997.402 74.656 998.186 74.28 998.186 73.12C998.186 72.088 997.554 71.608 996.802 71.608C996.202 71.608 995.802 71.8 995.562 72.192H995.034L995.226 69.072H998.426V69.568H995.698L995.57 71.672H995.586C995.818 71.368 996.274 71.144 996.882 71.144C997.85 71.144 998.746 71.736 998.746 73.088C998.746 74.384 997.914 75.12 996.73 75.12C995.41 75.12 994.858 74.272 994.794 73.4Z" fill="white"/>
<path d="M91.408 75H87.904V74.544H89.392V70.52H87.992V70.072H88.496C88.856 70.072 89.096 70.032 89.248 69.872C89.416 69.704 89.464 69.472 89.472 69.048H89.936V74.544H91.408V75ZM94.2372 75V74.08H95.1172V75H94.2372ZM101.658 70.304H101.122C101.026 69.864 100.69 69.432 99.9544 69.432C98.7864 69.432 98.3944 70.552 98.3784 72.168H98.4024C98.6664 71.624 99.1944 71.216 99.9784 71.216C100.922 71.216 101.818 71.776 101.818 73.136C101.818 74.256 101.09 75.12 99.8664 75.12C98.7384 75.12 97.8264 74.488 97.8264 72.352C97.8264 70.048 98.6104 68.984 99.9704 68.984C101.034 68.984 101.554 69.616 101.658 70.304ZM99.8744 74.664C100.618 74.664 101.258 74.144 101.258 73.176C101.258 72.176 100.666 71.688 99.8664 71.688C99.0424 71.688 98.4824 72.208 98.4824 73.128C98.4824 74.072 99.0584 74.664 99.8744 74.664Z" fill="white"/>
<path d="M300.408 75H296.904V74.544H298.392V70.52H296.992V70.072H297.496C297.856 70.072 298.096 70.032 298.248 69.872C298.416 69.704 298.464 69.472 298.472 69.048H298.936V74.544H300.408V75ZM303.237 75V74.08H304.117V75H303.237ZM310.658 70.304H310.122C310.026 69.864 309.69 69.432 308.954 69.432C307.786 69.432 307.394 70.552 307.378 72.168H307.402C307.666 71.624 308.194 71.216 308.978 71.216C309.922 71.216 310.818 71.776 310.818 73.136C310.818 74.256 310.09 75.12 308.866 75.12C307.738 75.12 306.826 74.488 306.826 72.352C306.826 70.048 307.61 68.984 308.97 68.984C310.034 68.984 310.554 69.616 310.658 70.304ZM308.874 74.664C309.618 74.664 310.258 74.144 310.258 73.176C310.258 72.176 309.666 71.688 308.866 71.688C308.042 71.688 307.482 72.208 307.482 73.128C307.482 74.072 308.058 74.664 308.874 74.664Z" fill="white"/>
<path d="M4.408 75H0.904V74.544H2.392V70.52H0.992V70.072H1.496C1.856 70.072 2.096 70.032 2.248 69.872C2.416 69.704 2.464 69.472 2.472 69.048H2.936V74.544H4.408V75ZM7.23719 75V74.08H8.11719V75H7.23719ZM12.8744 72.224H12.3304V71.744H12.8504C13.6584 71.744 14.0424 71.184 14.0424 70.568C14.0424 69.888 13.5704 69.456 12.8264 69.456C12.0584 69.456 11.5784 69.832 11.5464 70.744H11.0104C11.0024 69.784 11.6104 68.984 12.8424 68.984C13.8904 68.984 14.5944 69.584 14.5944 70.504C14.5944 71.232 14.1944 71.72 13.5544 71.936V71.952C14.2424 72.104 14.7544 72.568 14.7544 73.416C14.7544 74.36 13.9944 75.12 12.8024 75.12C11.4344 75.12 10.9144 74.28 10.8664 73.36H11.4024C11.4824 74.216 11.9704 74.656 12.8424 74.656C13.6104 74.656 14.1944 74.184 14.1944 73.408C14.1944 72.592 13.6424 72.224 12.8744 72.224Z" fill="white"/>
</svg>
