<svg width="400" height="240" viewBox="0 0 400 240" fill="none" xmlns="http://www.w3.org/2000/svg">
<rect width="400" height="240" fill="#F2F5EE"/>
<path d="M304.199 84.0702C300.73 84.0702 297.923 86.8775 297.923 90.3466V107.213C297.923 107.35 298.037 107.464 298.174 107.464C298.242 107.464 298.288 107.441 298.356 107.395L310.315 92.2865C310.43 92.1496 310.498 91.967 310.498 91.7616V90.3237C310.498 86.8546 307.691 84.0474 304.222 84.0474" fill="#3E1865"/>
<path d="M320.974 84.0702C317.505 84.0702 314.697 86.8775 314.697 90.3466V107.213C314.697 107.35 314.812 107.464 314.949 107.464C315.017 107.464 315.063 107.441 315.131 107.395L327.09 92.2865C327.205 92.1496 327.273 91.967 327.273 91.7616V90.3237C327.273 86.8546 324.466 84.0474 320.997 84.0474" fill="#3E1865"/>
<path d="M157.561 114.288C161.258 114.288 164.271 111.275 164.271 107.578C164.271 103.88 161.258 100.868 157.561 100.868C153.863 100.868 150.851 103.88 150.851 107.578C150.851 111.275 153.863 114.288 157.561 114.288ZM307.896 128.484C305.842 123.6 302.396 119.491 298.082 116.57C293.768 113.649 288.519 111.937 282.928 111.937C279.207 111.937 275.624 112.69 272.383 114.06C268.252 115.817 264.646 118.556 261.862 121.979L261.816 122.025C261.816 122.025 261.634 122.253 261.542 122.367L236.916 153.452C236.916 153.452 236.802 153.521 236.734 153.521C236.597 153.521 236.483 153.406 236.483 153.269V113.717H248.282C251.728 113.717 254.536 110.933 254.536 107.464C254.536 103.995 251.751 101.21 248.282 101.21H236.483V76.1961C236.483 76.0592 236.369 75.945 236.232 75.945C236.163 75.945 236.117 75.9679 236.049 76.0135L224.158 91.0082C224.044 91.1452 223.976 91.3278 223.976 91.5332V101.21H199.966V76.1961C199.966 76.0592 199.852 75.945 199.715 75.945C199.646 75.945 199.601 75.9679 199.555 76.0135L187.664 91.0082C187.55 91.1452 187.482 91.3278 187.482 91.5332V101.21H175.682C172.236 101.21 169.429 103.995 169.429 107.464C169.429 110.933 172.213 113.717 175.682 113.717H187.482V123.691L163.883 153.452C163.883 153.452 163.769 153.521 163.7 153.521C163.563 153.521 163.449 153.406 163.449 153.269V125.859C163.449 123.189 161.76 120.838 159.25 119.971C156.739 119.103 153.955 119.902 152.311 121.979L127.366 153.452C127.366 153.452 127.252 153.521 127.206 153.521C127.069 153.521 126.955 153.406 126.955 153.269V78.7066C126.955 75.2604 124.171 72.4531 120.701 72.4531C117.232 72.4531 114.448 75.2604 114.448 78.7066V116.182C110.226 113.466 105.182 111.891 99.8184 111.891C96.0982 111.891 92.515 112.644 89.2742 114.014C84.39 116.068 80.2819 119.514 77.3605 123.828C74.4392 128.141 72.7275 133.391 72.7275 138.982C72.7275 142.702 73.4806 146.286 74.85 149.526C76.9041 154.411 80.3504 158.519 84.6639 161.44C88.9775 164.361 94.2268 166.073 99.8184 166.073C103.539 166.073 107.122 165.32 110.363 163.951C112.576 163.015 114.631 161.805 116.479 160.345C117.392 161.76 118.602 162.969 119.994 163.928C122.002 165.297 124.467 166.096 127.069 166.096C129.055 166.096 130.949 165.64 132.638 164.818C134.327 163.996 135.787 162.809 136.951 161.372L136.997 161.326L150.919 143.752V153.429C150.919 155.164 151.284 156.853 151.923 158.359C152.882 160.641 154.48 162.558 156.511 163.928C158.519 165.297 160.984 166.096 163.586 166.096C165.549 166.096 167.466 165.64 169.155 164.818C170.844 163.996 172.304 162.809 173.445 161.372L173.491 161.326L187.413 143.752V153.429C187.413 155.164 187.755 156.853 188.417 158.359C189.376 160.641 190.974 162.558 193.005 163.928C195.013 165.297 197.478 166.096 200.08 166.096C202.043 166.096 203.96 165.64 205.649 164.818C207.338 163.996 208.798 162.809 209.962 161.372L210.008 161.326L223.93 143.752V153.429C223.93 155.164 224.272 156.853 224.934 158.359C225.893 160.641 227.49 162.558 229.522 163.928C231.53 165.297 233.995 166.096 236.597 166.096C238.582 166.096 240.477 165.64 242.166 164.818C243.854 163.996 245.315 162.809 246.456 161.372L246.502 161.326L257.229 147.815C257.434 148.408 257.662 148.979 257.891 149.549C259.945 154.433 263.391 158.542 267.705 161.463C272.018 164.384 277.267 166.096 282.859 166.096C286.579 166.096 290.162 165.343 293.403 163.973C298.287 161.919 302.396 158.473 305.317 154.16C308.238 149.846 309.95 144.597 309.95 139.005C309.95 135.285 309.197 131.702 307.827 128.461M99.8869 153.657C91.8075 153.657 85.2573 147.107 85.2573 139.028C85.2573 130.949 91.8075 124.398 99.8869 124.398C107.966 124.398 114.516 130.949 114.516 139.028C114.516 147.107 107.966 153.657 99.8869 153.657ZM223.998 123.691L200.399 153.452C200.399 153.452 200.285 153.521 200.24 153.521C200.103 153.521 199.989 153.406 199.989 153.269V113.717H223.998V123.691ZM283.293 153.657C275.213 153.657 268.663 147.107 268.663 139.028C268.663 130.949 275.213 124.398 283.293 124.398C291.372 124.398 297.922 130.949 297.922 139.028C297.922 147.107 291.372 153.657 283.293 153.657Z" fill="#3E1865"/>
</svg>
