<svg width="400" height="240" viewBox="0 0 400 240" fill="none" xmlns="http://www.w3.org/2000/svg">
<rect width="400" height="240" fill="#3E1865"/>
<path d="M304.199 84.0712C300.73 84.0712 297.922 86.8784 297.922 90.3475V107.214C297.922 107.351 298.037 107.465 298.173 107.465C298.242 107.465 298.288 107.442 298.356 107.396L310.315 92.2875C310.429 92.1505 310.498 91.968 310.498 91.7625V90.3247C310.498 86.8556 307.691 84.0484 304.222 84.0484" fill="white"/>
<path d="M320.974 84.0712C317.505 84.0712 314.697 86.8784 314.697 90.3475V107.214C314.697 107.351 314.811 107.465 314.948 107.465C315.017 107.465 315.062 107.442 315.131 107.396L327.09 92.2875C327.204 92.1505 327.273 91.968 327.273 91.7625V90.3247C327.273 86.8556 324.466 84.0484 320.996 84.0484" fill="white"/>
<path d="M157.56 114.289C161.258 114.289 164.27 111.276 164.27 107.579C164.27 103.881 161.258 100.869 157.56 100.869C153.863 100.869 150.85 103.881 150.85 107.579C150.85 111.276 153.863 114.289 157.56 114.289ZM307.896 128.485C305.842 123.6 302.395 119.492 298.082 116.571C293.768 113.65 288.519 111.938 282.927 111.938C279.207 111.938 275.624 112.691 272.383 114.06C268.252 115.818 264.646 118.557 261.862 121.98L261.816 122.026C261.816 122.026 261.633 122.254 261.542 122.368L236.916 153.453C236.916 153.453 236.802 153.521 236.734 153.521C236.597 153.521 236.482 153.407 236.482 153.27V113.718H248.282C251.728 113.718 254.535 110.934 254.535 107.465C254.535 103.996 251.751 101.211 248.282 101.211H236.482V76.1971C236.482 76.0601 236.368 75.946 236.231 75.946C236.163 75.946 236.117 75.9688 236.049 76.0145L224.158 91.0092C224.044 91.1461 223.975 91.3287 223.975 91.5341V101.211H199.966V76.1971C199.966 76.0601 199.852 75.946 199.715 75.946C199.646 75.946 199.6 75.9688 199.555 76.0145L187.664 91.0092C187.55 91.1461 187.481 91.3287 187.481 91.5341V101.211H175.682C172.236 101.211 169.428 103.996 169.428 107.465C169.428 110.934 172.213 113.718 175.682 113.718H187.481V123.692L163.882 153.453C163.882 153.453 163.768 153.521 163.7 153.521C163.563 153.521 163.449 153.407 163.449 153.27V125.86C163.449 123.19 161.76 120.839 159.249 119.972C156.739 119.104 153.954 119.903 152.311 121.98L127.366 153.453C127.366 153.453 127.251 153.521 127.206 153.521C127.069 153.521 126.955 153.407 126.955 153.27V78.7076C126.955 75.2613 124.17 72.4541 120.701 72.4541C117.232 72.4541 114.448 75.2613 114.448 78.7076V116.183C110.226 113.467 105.182 111.892 99.8182 111.892C96.0981 111.892 92.5149 112.645 89.274 114.015C84.3899 116.069 80.2817 119.515 77.3604 123.829C74.439 128.142 72.7273 133.392 72.7273 138.983C72.7273 142.703 73.4805 146.287 74.8498 149.527C76.9039 154.412 80.3502 158.52 84.6637 161.441C88.9773 164.362 94.2266 166.074 99.8182 166.074C103.538 166.074 107.122 165.321 110.362 163.952C112.576 163.016 114.63 161.806 116.479 160.346C117.392 161.761 118.602 162.97 119.994 163.929C122.002 165.298 124.467 166.097 127.069 166.097C129.055 166.097 130.949 165.641 132.638 164.819C134.327 163.997 135.787 162.81 136.951 161.373L136.997 161.327L150.919 143.753V153.43C150.919 155.165 151.284 156.854 151.923 158.36C152.882 160.642 154.479 162.559 156.511 163.929C158.519 165.298 160.984 166.097 163.586 166.097C165.549 166.097 167.466 165.641 169.155 164.819C170.843 163.997 172.304 162.81 173.445 161.373L173.491 161.327L187.413 143.753V153.43C187.413 155.165 187.755 156.854 188.417 158.36C189.376 160.642 190.973 162.559 193.005 163.929C195.013 165.298 197.478 166.097 200.08 166.097C202.043 166.097 203.96 165.641 205.649 164.819C207.337 163.997 208.798 162.81 209.962 161.373L210.008 161.327L223.93 143.753V153.43C223.93 155.165 224.272 156.854 224.934 158.36C225.893 160.642 227.49 162.559 229.521 163.929C231.53 165.298 233.995 166.097 236.597 166.097C238.582 166.097 240.476 165.641 242.165 164.819C243.854 163.997 245.315 162.81 246.456 161.373L246.502 161.327L257.229 147.816C257.434 148.409 257.662 148.98 257.89 149.55C259.945 154.434 263.391 158.543 267.704 161.464C272.018 164.385 277.267 166.097 282.859 166.097C286.579 166.097 290.162 165.344 293.403 163.974C298.287 161.92 302.395 158.474 305.317 154.161C308.238 149.847 309.95 144.598 309.95 139.006C309.95 135.286 309.197 131.703 307.827 128.462M99.8867 153.658C91.8073 153.658 85.2571 147.108 85.2571 139.029C85.2571 130.95 91.8073 124.399 99.8867 124.399C107.966 124.399 114.516 130.95 114.516 139.029C114.516 147.108 107.966 153.658 99.8867 153.658ZM223.998 123.692L200.399 153.453C200.399 153.453 200.285 153.521 200.24 153.521C200.103 153.521 199.988 153.407 199.988 153.27V113.718H223.998V123.692ZM283.292 153.658C275.213 153.658 268.663 147.108 268.663 139.029C268.663 130.95 275.213 124.399 283.292 124.399C291.372 124.399 297.922 130.95 297.922 139.029C297.922 147.108 291.372 153.658 283.292 153.658Z" fill="white"/>
</svg>
