<svg width="751" height="420" viewBox="0 0 751 420" fill="none" xmlns="http://www.w3.org/2000/svg">
<path d="M750.093 0H0.0927734V420H750.093V0Z" fill="white"/>
<path opacity="0.6" d="M750.093 0H0.0927734V420H750.093V0Z" fill="#433D2D"/>
<path d="M190.515 167.229L187.575 186.195C180.915 181.983 173.114 178.668 164.023 178.668C148.812 178.668 141.371 189.868 141.371 206.296C141.371 222.723 149.052 234.431 164.263 234.431C169.124 234.431 172.574 233.535 176.174 231.623V215.973H160.813L158.263 199.784H195.226V242.585C186.015 248.558 175.124 251.874 162.973 251.874C134.951 251.874 119.47 233.535 119.47 206.415C119.47 179.295 136.241 160.688 163.483 160.688C174.344 160.688 183.435 163.226 190.485 167.169" fill="#433D2D"/>
<path d="M236.569 251.277C224.688 251.277 214.697 248.739 205.727 244.647L208.937 226.039C218.028 230.878 228.138 234.193 236.959 234.193C243.23 234.193 247.58 231.535 247.58 226.308C247.58 221.081 245.03 219.05 232.609 214.331C214.967 207.581 207.287 201.846 207.287 187.331C207.287 170.396 220.578 161.346 237.469 161.346C248.99 161.346 256.401 163.496 264.081 167.2L260.751 185.539C252.83 180.939 244.52 178.4 237.739 178.4C230.959 178.4 227.898 181.208 227.898 185.27C227.898 189.72 230.329 191.9 241.339 196.082C260.541 203.101 268.222 209.702 268.222 223.71C268.222 242.825 254.15 251.218 236.629 251.218L236.569 251.277Z" fill="#433D2D"/>
<path d="M328.949 251.277C317.038 251.277 307.077 248.739 298.106 244.647L301.287 226.039C310.377 230.878 320.488 234.193 329.309 234.193C335.579 234.193 339.93 231.535 339.93 226.308C339.93 221.081 337.38 219.05 324.959 214.331C307.317 207.581 299.637 201.846 299.637 187.331C299.637 170.396 312.928 161.346 329.819 161.346C341.34 161.346 348.75 163.496 356.431 167.2L353.101 185.539C345.18 180.939 336.87 178.4 330.089 178.4C323.308 178.4 320.248 181.208 320.248 185.27C320.248 189.72 322.678 191.9 333.689 196.082C352.891 203.101 360.541 209.702 360.541 223.71C360.541 242.825 346.47 251.218 328.949 251.218V251.277Z" fill="#433D2D"/>
<path d="M423.665 250.261V214.331H393.092V250.261H371.221V162.391H393.092V195.245H423.665V162.391H445.537V250.261H423.665Z" fill="#433D2D"/>
<path d="M584.272 221.11H578.662V250.291H556.79V162.42H585.202C606.684 162.42 619.885 171.978 619.885 191.093C619.885 210.208 605.664 221.14 584.302 221.14L584.272 221.11ZM583.882 178.817H578.392V204.683H583.492C593.213 204.683 598.583 200.471 598.583 191.451C598.583 183.059 593.603 178.847 583.882 178.847V178.817Z" fill="#433D2D"/>
<path d="M472.903 206.354C472.903 224.812 475.003 240.493 481.753 246.944C481.753 246.944 483.854 249.035 487.094 250.259C487.334 250.349 487.484 250.558 487.484 250.797C487.484 251.126 487.214 251.394 486.884 251.394C486.824 251.394 486.764 251.394 486.704 251.394C468.702 245.69 457.632 228.904 457.572 206.384C457.512 183.863 468.702 167.078 486.704 161.373C486.764 161.373 486.824 161.373 486.884 161.373C487.214 161.373 487.484 161.642 487.484 161.97C487.484 162.209 487.334 162.448 487.094 162.508C483.824 163.703 481.753 165.793 481.753 165.793C475.003 172.245 472.933 187.925 472.903 206.384V206.354ZM529.397 206.354C529.397 224.812 527.297 240.493 520.547 246.944C520.547 246.944 518.446 249.035 515.176 250.259C514.936 250.349 514.786 250.558 514.786 250.797C514.786 251.126 515.056 251.394 515.386 251.394C515.446 251.394 515.506 251.394 515.566 251.394C533.568 245.69 544.639 228.904 544.699 206.384C544.759 183.863 533.568 167.078 515.566 161.373C515.506 161.373 515.446 161.373 515.386 161.373C515.056 161.373 514.786 161.642 514.786 161.97C514.786 162.209 514.936 162.448 515.176 162.508C518.446 163.703 520.547 165.793 520.547 165.793C527.297 172.245 529.367 187.925 529.397 206.384V206.354Z" fill="#BED630"/>
</svg>
