<svg width="751" height="420" viewBox="0 0 751 420" fill="none" xmlns="http://www.w3.org/2000/svg">
<path d="M750.093 0H0.0927734V420H750.093V0Z" fill="white"/>
<path d="M190.52 167.229L187.58 186.195C180.92 181.983 173.119 178.668 164.028 178.668C148.817 178.668 141.376 189.868 141.376 206.296C141.376 222.723 149.057 234.431 164.268 234.431C169.129 234.431 172.579 233.535 176.179 231.623V215.973H160.818L158.268 199.784H195.231V242.585C186.02 248.558 175.129 251.874 162.978 251.874C134.956 251.874 119.475 233.535 119.475 206.415C119.475 179.295 136.246 160.688 163.488 160.688C174.349 160.688 183.44 163.226 190.49 167.169" fill="#433D2D"/>
<path d="M236.545 251.277C224.665 251.277 214.674 248.739 205.703 244.647L208.913 226.039C218.004 230.878 228.115 234.193 236.936 234.193C243.206 234.193 247.557 231.535 247.557 226.308C247.557 221.081 245.006 219.05 232.585 214.331C214.944 207.581 207.263 201.846 207.263 187.331C207.263 170.396 220.554 161.346 237.446 161.346C248.967 161.346 256.377 163.496 264.058 167.2L260.727 185.539C252.807 180.939 244.496 178.4 237.716 178.4C230.935 178.4 227.875 181.208 227.875 185.27C227.875 189.72 230.305 191.9 241.316 196.082C260.517 203.101 268.168 209.702 268.168 223.71C268.168 242.825 254.097 251.218 236.576 251.218L236.545 251.277Z" fill="#433D2D"/>
<path d="M328.949 251.277C317.038 251.277 307.077 248.739 298.106 244.647L301.287 226.039C310.377 230.878 320.488 234.193 329.309 234.193C335.58 234.193 339.93 231.535 339.93 226.308C339.93 221.081 337.38 219.05 324.959 214.331C307.317 207.581 299.637 201.846 299.637 187.331C299.637 170.396 312.928 161.346 329.819 161.346C341.34 161.346 348.75 163.496 356.431 167.2L353.101 185.539C345.18 180.939 336.87 178.4 330.089 178.4C323.309 178.4 320.248 181.208 320.248 185.27C320.248 189.72 322.678 191.9 333.689 196.082C352.891 203.101 360.541 209.702 360.541 223.71C360.541 242.825 346.47 251.218 328.949 251.218V251.277Z" fill="#433D2D"/>
<path d="M423.671 250.261V214.331H393.098V250.261H371.227V162.391H393.098V195.245H423.671V162.391H445.543V250.261H423.671Z" fill="#433D2D"/>
<path d="M584.274 221.11H578.664V250.291H556.792V162.42H585.204C606.686 162.42 619.887 171.978 619.887 191.093C619.887 210.208 605.666 221.14 584.304 221.14L584.274 221.11ZM583.884 178.817H578.394V204.683H583.524C593.245 204.683 598.615 200.471 598.615 191.451C598.615 183.059 593.635 178.847 583.914 178.847L583.884 178.817Z" fill="#433D2D"/>
<path style="mix-blend-mode:multiply" d="M750.093 0H0.0927734V420H750.093V0Z" fill="url(#paint0_radial_384_439)"/>
<path d="M750.093 0H0.0927734V420H750.093V0Z" fill="#433D2D"/>
<path d="M472.903 206.354C472.903 224.812 475.003 240.493 481.753 246.944C481.753 246.944 483.854 249.035 487.094 250.259C487.334 250.349 487.484 250.558 487.484 250.797C487.484 251.126 487.214 251.394 486.884 251.394C486.824 251.394 486.764 251.394 486.704 251.394C468.702 245.69 457.632 228.904 457.572 206.384C457.512 183.863 468.702 167.078 486.704 161.373C486.764 161.373 486.824 161.373 486.884 161.373C487.214 161.373 487.484 161.642 487.484 161.97C487.484 162.209 487.334 162.448 487.094 162.508C483.824 163.703 481.753 165.793 481.753 165.793C475.003 172.245 472.933 187.925 472.903 206.384V206.354ZM529.397 206.354C529.397 224.812 527.297 240.493 520.547 246.944C520.547 246.944 518.446 249.035 515.176 250.259C514.936 250.349 514.786 250.558 514.786 250.797C514.786 251.126 515.056 251.394 515.386 251.394C515.446 251.394 515.506 251.394 515.566 251.394C533.567 245.69 544.638 228.904 544.698 206.384C544.758 183.863 533.567 167.078 515.566 161.373C515.506 161.373 515.446 161.373 515.386 161.373C515.056 161.373 514.786 161.642 514.786 161.97C514.786 162.209 514.936 162.448 515.176 162.508C518.446 163.703 520.547 165.793 520.547 165.793C527.297 172.245 529.367 187.925 529.397 206.384V206.354Z" fill="#BED630"/>
<defs>
<radialGradient id="paint0_radial_384_439" cx="0" cy="0" r="1" gradientUnits="userSpaceOnUse" gradientTransform="translate(372.273 1.4934) scale(789.663 786.119)">
<stop stop-color="white"/>
<stop offset="0.12" stop-color="#FAFAFA"/>
<stop offset="0.26" stop-color="#EFEEED"/>
<stop offset="0.41" stop-color="#DBDAD7"/>
<stop offset="0.56" stop-color="#BFBDB8"/>
<stop offset="0.71" stop-color="#9B9890"/>
<stop offset="0.86" stop-color="#706C60"/>
<stop offset="1" stop-color="#433D2D"/>
</radialGradient>
</defs>
</svg>
