<svg width="750" height="420" viewBox="0 0 750 420" fill="none" xmlns="http://www.w3.org/2000/svg">
<rect width="750" height="420" fill="#F7B5CD"/>
<path fill-rule="evenodd" clip-rule="evenodd" d="M244.6 133C250.233 133 254.8 137.567 254.8 143.2V242.17C254.8 266.693 234.923 286.57 210.4 286.57C185.877 286.57 166 266.693 166 242.17C166 217.647 185.877 197.77 210.4 197.77C214.542 197.77 218.553 198.34 222.37 199.405C227.797 200.918 230.968 206.544 229.455 211.97C227.942 217.397 222.316 220.568 216.89 219.055C214.827 218.48 212.658 218.17 210.4 218.17C197.143 218.17 186.4 228.913 186.4 242.17C186.4 255.427 197.143 266.17 210.4 266.17C223.657 266.17 234.4 255.427 234.4 242.17V143.2C234.4 137.567 238.967 133 244.6 133Z" fill="#3E1865"/>
</svg>
