<svg width="751" height="420" viewBox="0 0 751 420" fill="none" xmlns="http://www.w3.org/2000/svg">
<path d="M750.093 0H0.0927734V420H750.093V0Z" fill="white"/>
<path d="M190.515 167.229L187.574 186.195C180.914 181.983 173.113 178.668 164.022 178.668C148.811 178.668 141.371 189.868 141.371 206.296C141.371 222.723 149.051 234.431 164.262 234.431C169.123 234.431 172.573 233.535 176.173 231.623V215.973H160.812L158.262 199.784H195.225V242.585C186.014 248.558 175.123 251.874 162.972 251.874C134.95 251.874 119.469 233.535 119.469 206.415C119.469 179.295 136.24 160.688 163.482 160.688C174.343 160.688 183.434 163.226 190.485 167.169" fill="#433D2D"/>
<path d="M236.54 251.277C224.659 251.277 214.668 248.739 205.697 244.647L208.907 226.039C217.998 230.878 228.109 234.193 236.93 234.193C243.2 234.193 247.55 231.535 247.55 226.308C247.55 221.081 245 219.05 232.579 214.331C214.938 207.581 207.257 201.846 207.257 187.331C207.257 170.396 220.548 161.346 237.44 161.346C248.961 161.346 256.371 163.496 264.052 167.2L260.722 185.539C252.801 180.939 244.49 178.4 237.71 178.4C230.929 178.4 227.869 181.208 227.869 185.27C227.869 189.72 230.299 191.9 241.31 196.082C260.512 203.101 268.192 209.702 268.192 223.71C268.192 242.825 254.121 251.218 236.6 251.218L236.54 251.277Z" fill="#433D2D"/>
<path d="M328.95 251.277C317.039 251.277 307.078 248.739 298.107 244.647L301.288 226.039C310.378 230.878 320.489 234.193 329.31 234.193C335.58 234.193 339.931 231.535 339.931 226.308C339.931 221.081 337.381 219.05 324.96 214.331C307.318 207.581 299.638 201.846 299.638 187.331C299.638 170.396 312.929 161.346 329.82 161.346C341.341 161.346 348.751 163.496 356.432 167.2L353.102 185.539C345.181 180.939 336.87 178.4 330.09 178.4C323.309 178.4 320.249 181.208 320.249 185.27C320.249 189.72 322.679 191.9 333.69 196.082C352.892 203.101 360.542 209.702 360.542 223.71C360.542 242.825 346.471 251.218 328.95 251.218V251.277Z" fill="#433D2D"/>
<path d="M423.664 250.261V214.331H393.091V250.261H371.22V162.391H393.091V195.245H423.664V162.391H445.536V250.261H423.664Z" fill="#433D2D"/>
<path d="M584.267 221.11H578.627V250.291H556.755V162.42H585.167C606.649 162.42 619.85 171.978 619.85 191.093C619.85 210.208 605.629 221.14 584.267 221.14V221.11ZM583.877 178.817H578.387V204.683H583.487C593.208 204.683 598.578 200.471 598.578 191.451C598.578 183.059 593.598 178.847 583.877 178.847V178.817Z" fill="#433D2D"/>
<path style="mix-blend-mode:multiply" d="M750.093 0H0.0927734V420H750.093V0Z" fill="url(#paint0_radial_384_440)"/>
<path d="M750.093 0H0.0927734V420H750.093V0Z" fill="#433D2D"/>
<defs>
<radialGradient id="paint0_radial_384_440" cx="0" cy="0" r="1" gradientUnits="userSpaceOnUse" gradientTransform="translate(372.273 1.4934) scale(789.663 786.119)">
<stop stop-color="white"/>
<stop offset="0.12" stop-color="#FAFAFA"/>
<stop offset="0.26" stop-color="#EFEEED"/>
<stop offset="0.41" stop-color="#DBDAD7"/>
<stop offset="0.56" stop-color="#BFBDB8"/>
<stop offset="0.71" stop-color="#9B9890"/>
<stop offset="0.86" stop-color="#706C60"/>
<stop offset="1" stop-color="#433D2D"/>
</radialGradient>
</defs>
</svg>
