<svg width="751" height="420" viewBox="0 0 751 420" fill="none" xmlns="http://www.w3.org/2000/svg">
<path d="M750.093 0H0.0927734V420H750.093V0Z" fill="white"/>
<path d="M32.3182 215.349C32.3182 231.447 34.1482 245.127 40.0286 250.742C40.0286 250.742 41.8589 252.564 44.6791 253.609C44.8892 253.669 45.0091 253.878 45.0091 254.087C45.0091 254.356 44.7692 254.595 44.4991 254.595C44.4391 254.595 44.379 254.595 44.349 254.595C28.6577 249.637 18.9971 235.002 18.9671 215.378C18.9071 195.755 28.6577 181.12 44.349 176.162C44.409 176.162 44.4391 176.162 44.4991 176.162C44.7692 176.162 45.0091 176.401 45.0091 176.67C45.0091 176.879 44.8592 177.088 44.6791 177.148C41.8289 178.193 40.0286 180.015 40.0286 180.015C34.1482 185.63 32.3182 199.31 32.3182 215.378V215.349Z" fill="#BED630"/>
<path d="M718.051 215.349C718.051 231.447 716.221 245.127 710.341 250.742C710.341 250.742 708.51 252.564 705.66 253.609C705.45 253.669 705.33 253.878 705.33 254.087C705.33 254.356 705.57 254.595 705.84 254.595C705.9 254.595 705.96 254.595 705.99 254.595C721.681 249.637 731.342 235.002 731.372 215.378C731.432 195.755 721.681 181.12 705.99 176.162C705.93 176.162 705.9 176.162 705.84 176.162C705.57 176.162 705.33 176.401 705.33 176.67C705.33 176.879 705.48 177.088 705.66 177.148C708.51 178.193 710.341 180.015 710.341 180.015C716.221 185.63 718.051 199.31 718.051 215.378V215.349Z" fill="#BED630"/>
<path d="M70.9916 245.215C52.3001 245.215 41.7393 232.999 41.7393 214.899C41.7393 196.799 53.2602 184.404 71.7717 184.404C78.6722 184.404 85.0027 186.017 89.7731 188.466L87.553 203.072C83.0226 200.443 78.0121 198.323 72.2817 198.323C63.2209 198.323 59.1406 205.192 59.1406 214.81C59.1406 224.427 63.4011 231.804 72.1918 231.804C74.592 231.804 76.4521 231.297 78.3422 230.371V222.038H69.5515L67.6013 209.822H93.1934V238.793C86.5329 243.124 79.2123 245.245 71.0216 245.245L70.9916 245.215Z" fill="#433D2D"/>
<path d="M139.579 227.356H115.517C116.387 232.612 120.137 234.404 125.058 234.404C129.168 234.404 133.758 232.971 138.439 230.581L139.819 240.587C135.198 243.215 129.498 244.918 123.017 244.918C109.636 244.918 100.396 238.108 100.396 223.353C100.396 209.495 109.006 201.191 120.797 201.191C134.118 201.191 139.819 210.869 139.819 223.264C139.819 224.877 139.729 226.489 139.579 227.356ZM120.377 210.48C117.317 210.48 115.337 213.527 115.247 219.65H125.568C125.388 213.527 123.437 210.48 120.377 210.48Z" fill="#433D2D"/>
<path d="M165.678 244.707C155.957 244.707 149.057 241.123 149.057 229.504V214.212H143.776V202.056H149.057V190.079L164.148 187.689V202.056H171.739L173.599 214.212H164.118V227.115C164.118 230.52 165.918 231.864 169.068 231.864C169.998 231.864 171.019 231.685 171.979 231.356L173.779 243.662C171.379 244.349 169.338 244.677 165.678 244.677V244.707Z" fill="#433D2D"/>
<path d="M212.421 244.707C202.7 244.707 195.8 241.123 195.8 229.504V214.212H190.52V202.056H195.8V190.079L210.891 187.689V202.056H218.482L220.342 214.212H210.861V227.115C210.861 230.52 212.661 231.864 215.812 231.864C216.742 231.864 217.762 231.685 218.722 231.356L220.522 243.662C218.122 244.349 216.082 244.677 212.421 244.677V244.707Z" fill="#433D2D"/>
<path d="M250.859 244.11V218.722C250.859 216.243 249.839 214.481 247.349 214.481C245.548 214.481 244.018 215.407 242.308 217.02V244.11H227.127V185.151L242.308 182.762V207.044C245.878 203.55 249.299 201.19 254.159 201.19C261.93 201.19 266.01 206.029 266.01 214.451V244.11H250.829H250.859Z" fill="#433D2D"/>
<path d="M311.757 227.356H287.695C288.535 232.612 292.315 234.404 297.266 234.404C301.346 234.404 305.966 232.971 310.647 230.581L312.027 240.587C307.406 243.215 301.706 244.918 295.225 244.918C281.814 244.918 272.604 238.108 272.604 223.353C272.604 209.495 281.214 201.191 293.005 201.191C306.296 201.191 312.027 210.869 312.027 223.264C312.027 224.877 311.937 226.489 311.787 227.356H311.757ZM292.555 210.48C289.495 210.48 287.515 213.527 287.425 219.65H297.746C297.566 213.527 295.615 210.48 292.525 210.48H292.555Z" fill="#433D2D"/>
<path d="M347.855 221.352V244.111H332.674V202.057H346.235L347.615 210.3C349.985 205.372 352.985 201.639 358.956 201.221L361.446 216.752C355.476 217.26 351.215 218.783 347.885 221.352H347.855Z" fill="#433D2D"/>
<path d="M404.321 227.356H380.259C381.099 232.612 384.879 234.404 389.8 234.404C393.91 234.404 398.5 232.971 403.181 230.581L404.561 240.587C399.94 243.215 394.24 244.918 387.759 244.918C374.378 244.918 365.138 238.108 365.138 223.353C365.138 209.495 373.748 201.191 385.539 201.191C398.86 201.191 404.561 210.869 404.561 223.264C404.561 224.877 404.471 226.489 404.291 227.356H404.321ZM385.119 210.48C382.059 210.48 380.079 213.527 379.989 219.65H390.31C390.13 213.527 388.179 210.48 385.119 210.48Z" fill="#433D2D"/>
<path d="M434.409 244.11L433.569 239.002C429.969 242.646 426.129 244.946 420.938 244.946C414.548 244.946 409.777 241.123 409.777 233.298C409.777 223.71 416.858 218.872 432.909 217.498V217.169C432.909 214.123 431.289 212.57 427.179 212.57C422.648 212.57 418.388 213.675 413.948 215.556L412.237 204.505C416.918 202.624 422.648 201.369 429.729 201.369C441.94 201.369 448.06 205.103 448.06 216.393V244.08H434.409V244.11ZM432.969 223.889C426.819 225.263 424.688 227.623 424.688 231.028C424.688 233.417 426.069 234.582 427.929 234.582C429.549 234.582 431.079 233.895 432.969 232.461V223.889Z" fill="#433D2D"/>
<path d="M456.762 244.11V185.151L471.943 182.762V244.08H456.762V244.11Z" fill="#433D2D"/>
<path d="M511.363 244.707C504.193 244.707 497.802 242.826 493.092 240.466L494.802 229.505C500.262 232.73 506.833 234.523 511.183 234.523C514.184 234.523 515.294 233.656 515.294 232.312C515.294 230.968 514.514 230.192 509.233 228.818C498.402 226.01 493.722 223.203 493.722 215.138C493.722 207.074 499.692 201.459 510.523 201.459C516.404 201.459 522.224 202.654 526.725 204.685L525.014 215.646C520.064 213.018 514.603 211.554 510.673 211.554C508.273 211.554 507.343 212.331 507.343 213.436C507.343 214.72 508.093 215.377 513.733 216.93C525.344 220.067 529.005 222.874 529.005 230.61C529.005 239.958 522.704 244.707 511.333 244.707H511.363Z" fill="#433D2D"/>
<path d="M554.39 244.707C544.669 244.707 537.738 241.123 537.738 229.504V214.212H532.458V202.056H537.738V190.079L552.83 187.689V202.056H560.42L562.31 214.212H552.83V227.115C552.83 230.52 554.63 231.864 557.78 231.864C558.71 231.864 559.76 231.685 560.69 231.356L562.49 243.662C560.09 244.349 558.05 244.677 554.39 244.677V244.707Z" fill="#433D2D"/>
<path d="M586.763 244.948C574.912 244.948 566.271 236.465 566.271 223.114C566.271 209.763 575.062 201.191 586.913 201.191C598.764 201.191 607.465 209.674 607.465 223.025C607.465 236.376 598.584 244.948 586.733 244.948H586.763ZM586.823 213.437C582.983 213.437 580.673 216.991 580.673 223.025C580.673 229.058 582.983 232.791 586.823 232.791C590.663 232.791 593.064 229.148 593.064 223.114C593.064 217.081 590.753 213.437 586.823 213.437Z" fill="#433D2D"/>
<path d="M629.484 221.352V244.111H614.303V202.057H627.864L629.244 210.3C631.644 205.372 634.614 201.639 640.585 201.221L643.045 216.752C637.075 217.26 632.814 218.783 629.484 221.352Z" fill="#433D2D"/>
<path d="M645.238 203.251L661.8 201.459L668.61 225.054L674.851 202.026H689.342L675.181 243.722C671.25 255.191 665.88 259.522 655.739 259.522C652.499 259.522 651.209 259.253 649.859 258.925L647.968 247.127C649.439 247.545 650.609 247.814 653.519 247.814C656.429 247.814 659.069 246.888 660.509 244.17L645.238 203.221V203.251Z" fill="#433D2D"/>
<path d="M690.663 244.112V227.535H706.774V244.112H690.663Z" fill="#433D2D"/>
</svg>
