<svg width="751" height="420" viewBox="0 0 751 420" fill="none" xmlns="http://www.w3.org/2000/svg">
<path d="M750.093 0H0.0927734V420H750.093V0Z" fill="white"/>
<path d="M273.419 209.984C273.359 276.444 280.949 332.928 305.251 356.107C305.251 356.107 312.782 363.634 324.543 367.996C325.353 368.294 325.923 369.071 325.923 369.967C325.923 371.132 324.963 372.088 323.793 372.088C323.583 372.088 323.343 372.058 323.163 371.998C258.357 351.448 218.514 291.051 218.274 209.984C218.064 128.917 258.327 68.5204 323.163 47.9998C323.373 47.94 323.583 47.9102 323.793 47.9102C324.963 47.9102 325.923 48.866 325.923 50.0309C325.923 50.927 325.353 51.7036 324.543 52.0023C312.812 56.3633 305.251 63.8905 305.251 63.8905C280.949 87.0994 273.479 143.524 273.419 209.984ZM476.775 209.984C476.835 276.444 469.244 332.928 444.942 356.107C444.942 356.107 437.412 363.634 425.651 367.996C424.841 368.294 424.271 369.071 424.271 369.967C424.271 371.132 425.231 372.088 426.401 372.088C426.611 372.088 426.851 372.058 427.031 371.998C491.866 351.448 531.679 291.051 531.919 209.984C532.159 128.917 491.866 68.5204 427.031 47.9998C426.821 47.94 426.611 47.9102 426.401 47.9102C425.231 47.9102 424.271 48.866 424.271 50.0309C424.271 50.927 424.841 51.7036 425.651 52.0023C437.382 56.3633 444.942 63.8905 444.942 63.8905C469.244 87.0994 476.715 143.524 476.775 209.984Z" fill="#BED630"/>
</svg>
