<svg width="751" height="420" viewBox="0 0 751 420" fill="none" xmlns="http://www.w3.org/2000/svg">
<path d="M750.093 0H0.0927734V420H750.093V0Z" fill="white"/>
<path d="M472.904 206.354C472.904 224.812 475.004 240.493 481.754 246.944C481.754 246.944 483.855 249.035 487.095 250.259C487.335 250.349 487.485 250.558 487.485 250.797C487.485 251.126 487.215 251.394 486.885 251.394C486.825 251.394 486.765 251.394 486.705 251.394C468.703 245.69 457.633 228.904 457.573 206.384C457.513 183.863 468.703 167.078 486.705 161.373C486.765 161.373 486.825 161.373 486.885 161.373C487.215 161.373 487.485 161.642 487.485 161.97C487.485 162.209 487.335 162.448 487.095 162.508C483.824 163.703 481.754 165.793 481.754 165.793C475.004 172.245 472.934 187.925 472.904 206.384V206.354ZM529.398 206.354C529.398 224.812 527.298 240.493 520.548 246.944C520.548 246.944 518.447 249.035 515.177 250.259C514.937 250.349 514.787 250.558 514.787 250.797C514.787 251.126 515.057 251.394 515.387 251.394C515.447 251.394 515.507 251.394 515.567 251.394C533.568 245.69 544.64 228.904 544.7 206.384C544.76 183.863 533.568 167.078 515.567 161.373C515.507 161.373 515.447 161.373 515.387 161.373C515.057 161.373 514.787 161.642 514.787 161.97C514.787 162.209 514.937 162.448 515.177 162.508C518.447 163.703 520.548 165.793 520.548 165.793C527.298 172.245 529.368 187.925 529.398 206.384V206.354Z" fill="#BED630"/>
<path d="M190.521 167.229L187.581 186.195C180.921 181.983 173.12 178.668 164.029 178.668C148.818 178.668 141.377 189.868 141.377 206.296C141.377 222.723 149.058 234.431 164.269 234.431C169.13 234.431 172.58 233.535 176.18 231.623V215.973H160.819L158.269 199.784H195.232V242.585C186.021 248.558 175.13 251.874 162.979 251.874C134.957 251.874 119.476 233.535 119.476 206.415C119.476 179.295 136.247 160.688 163.489 160.688C174.35 160.688 183.441 163.226 190.491 167.169" fill="#433D2D"/>
<path d="M236.576 251.277C224.695 251.277 214.704 248.739 205.733 244.647L208.944 226.039C218.034 230.878 228.145 234.193 236.966 234.193C243.236 234.193 247.587 231.535 247.587 226.308C247.587 221.081 245.036 219.05 232.615 214.331C214.974 207.581 207.293 201.846 207.293 187.331C207.293 170.396 220.584 161.346 237.476 161.346C248.997 161.346 256.407 163.496 264.088 167.2L260.758 185.539C252.837 180.939 244.526 178.4 237.746 178.4C230.965 178.4 227.905 181.208 227.905 185.27C227.905 189.72 230.335 191.9 241.346 196.082C260.548 203.101 268.228 209.702 268.228 223.71C268.228 242.825 254.157 251.218 236.636 251.218L236.576 251.277Z" fill="#433D2D"/>
<path d="M328.95 251.277C317.039 251.277 307.078 248.739 298.107 244.647L301.288 226.039C310.378 230.878 320.489 234.193 329.31 234.193C335.58 234.193 339.931 231.535 339.931 226.308C339.931 221.081 337.381 219.05 324.96 214.331C307.318 207.581 299.638 201.846 299.638 187.331C299.638 170.396 312.929 161.346 329.82 161.346C341.341 161.346 348.751 163.496 356.432 167.2L353.102 185.539C345.181 180.939 336.871 178.4 330.09 178.4C323.31 178.4 320.249 181.208 320.249 185.27C320.249 189.72 322.679 191.9 333.69 196.082C352.892 203.101 360.542 209.702 360.542 223.71C360.542 242.825 346.471 251.218 328.95 251.218V251.277Z" fill="#433D2D"/>
<path d="M423.67 250.261V214.331H393.097V250.261H371.226V162.391H393.097V195.245H423.67V162.391H445.542V250.261H423.67Z" fill="#433D2D"/>
<path d="M584.272 221.11H578.632V250.291H556.76V162.42H585.172C606.654 162.42 619.855 171.978 619.855 191.093C619.855 210.208 605.634 221.14 584.272 221.14V221.11ZM583.882 178.817H578.392V204.683H583.492C593.213 204.683 598.583 200.471 598.583 191.451C598.583 183.059 593.603 178.847 583.882 178.847V178.817Z" fill="#433D2D"/>
</svg>
