<svg width="750" height="420" viewBox="0 0 750 420" fill="none" xmlns="http://www.w3.org/2000/svg">
<rect width="750" height="420" fill="#F7B5CD"/>
<path d="M545 152.85C539.31 152.85 534.7 157.46 534.7 163.15V190.81C534.7 191.03 534.88 191.21 535.11 191.21C535.22 191.21 535.31 191.16 535.39 191.1L555 166.35C555.19 166.11 555.3 165.82 555.3 165.49V163.15C555.3 157.46 550.69 152.85 545 152.85Z" fill="#ED135D"/>
<path d="M572.47 152.85C566.78 152.85 562.17 157.46 562.17 163.15V190.81C562.17 191.03 562.35 191.21 562.58 191.21C562.69 191.21 562.79 191.16 562.86 191.1L582.47 166.35C582.66 166.11 582.77 165.82 582.77 165.49V163.15C582.77 157.46 578.16 152.85 572.47 152.85Z" fill="#ED135D"/>
<path d="M509.89 197.77C496.51 197.77 484.5 203.73 476.35 213.12C476.05 213.41 475.77 213.72 475.5 214.06L435.6 264.64C435.54 264.71 435.49 264.78 435.44 264.85C434.77 265.75 434.43 266.03 433.98 266.13V200.55H453.6C459.23 200.55 463.8 195.98 463.8 190.35C463.8 184.72 459.23 180.15 453.6 180.15H433.98V138.09L413.58 163.84V180.14H374.25V138.1L353.85 163.84V180.14H334.76C329.13 180.14 324.56 184.71 324.56 190.34C324.56 195.97 329.13 200.54 334.76 200.54H353.85V216.84L316.14 264.64C316.08 264.71 316.03 264.78 315.98 264.85C315.31 265.75 314.97 266.03 314.52 266.13V220.38C314.52 216.04 311.77 212.17 307.66 210.74C303.56 209.31 299 210.65 296.31 214.06L256.41 264.64C256.35 264.71 256.3 264.78 256.25 264.85C255.58 265.75 255.24 266.03 254.8 266.13V143.2C254.8 137.57 250.23 133 244.6 133C238.97 133 234.4 137.57 234.4 143.2V204.84C227.47 200.37 219.24 197.76 210.4 197.76C185.92 197.77 166 217.69 166 242.17C166 266.65 185.92 286.57 210.4 286.57C220.57 286.57 229.94 283.13 237.44 277.35C240.93 282.88 247.07 286.57 254.07 286.57C261.6 286.57 267.81 283.41 272.51 277.18L294.13 249.77V266.9C294.13 277.75 302.95 286.57 313.8 286.57C321.33 286.57 327.54 283.41 332.24 277.18L353.86 249.78V266.91C353.86 277.76 362.68 286.58 373.53 286.58C381.06 286.58 387.27 283.42 391.97 277.19L413.59 249.79V266.92C413.59 277.77 422.41 286.59 433.26 286.59C440.79 286.59 447 283.43 451.7 277.2L467.92 256.64C473.93 274.05 490.47 286.6 509.89 286.6C534.37 286.6 554.29 266.68 554.29 242.2C554.29 217.72 534.37 197.8 509.89 197.8V197.77ZM210.4 266.17C197.17 266.17 186.4 255.4 186.4 242.17C186.4 228.94 197.17 218.17 210.4 218.17C223.63 218.17 234.4 228.94 234.4 242.17C234.4 255.4 223.63 266.17 210.4 266.17ZM413.59 216.84L375.88 264.64C375.82 264.71 375.77 264.78 375.72 264.85C375.05 265.75 374.71 266.03 374.26 266.13V200.55H413.59V216.85V216.84ZM509.89 266.17C496.66 266.17 485.89 255.4 485.89 242.17C485.89 228.94 496.66 218.17 509.89 218.17C523.12 218.17 533.89 228.94 533.89 242.17C533.89 255.4 523.12 266.17 509.89 266.17Z" fill="#3E1865"/>
<path d="M562.17 173.77V190.81C562.17 191.03 562.35 191.21 562.58 191.21C562.69 191.21 562.79 191.16 562.86 191.1L576.59 173.77H562.17Z" fill="#ED135D"/>
<path d="M534.7 173.77V190.81C534.7 191.03 534.88 191.21 535.11 191.21C535.22 191.21 535.31 191.16 535.39 191.1L549.12 173.77H534.7Z" fill="#ED135D"/>
</svg>
