<svg width="750" height="420" viewBox="0 0 750 420" fill="none" xmlns="http://www.w3.org/2000/svg">
<rect width="750" height="420" fill="#00A4C4"/>
<path fill-rule="evenodd" clip-rule="evenodd" d="M244.6 132.91C250.234 132.91 254.8 137.477 254.8 143.11V266.028C255.004 265.991 255.085 265.948 255.104 265.938L255.106 265.937L255.107 265.936C255.153 265.913 255.554 265.709 256.258 264.767C256.312 264.695 256.366 264.624 256.422 264.553L296.322 213.973C299.013 210.562 303.569 209.23 307.674 210.654C311.778 212.078 314.53 215.946 314.53 220.29V266.038C314.734 266.001 314.815 265.958 314.834 265.948L314.836 265.947L314.837 265.946C314.883 265.923 315.284 265.719 315.988 264.777C316.02 264.734 316.052 264.691 316.085 264.649C316.107 264.62 316.13 264.591 316.152 264.563L356.052 213.983C358.743 210.572 363.299 209.24 367.404 210.664C371.508 212.088 374.26 215.955 374.26 220.3V266.048C374.464 266.011 374.546 265.968 374.564 265.958L374.566 265.957L374.567 265.956C374.613 265.933 375.014 265.729 375.718 264.787C375.772 264.715 375.826 264.644 375.882 264.573L415.782 213.993C418.473 210.582 423.029 209.25 427.134 210.674C431.238 212.098 433.99 215.966 433.99 220.31V266.058C434.194 266.021 434.276 265.978 434.294 265.968L434.296 265.967C434.335 265.947 434.738 265.748 435.448 264.797C435.502 264.725 435.556 264.654 435.612 264.583L475.512 214.003C475.659 213.816 475.813 213.635 475.973 213.459L476.05 213.374C484.174 203.812 496.327 197.71 509.89 197.71C534.414 197.71 554.29 217.587 554.29 242.11C554.29 266.633 534.414 286.51 509.89 286.51C504.257 286.51 499.69 281.943 499.69 276.31C499.69 270.677 504.257 266.11 509.89 266.11C523.147 266.11 533.89 255.367 533.89 242.11C533.89 228.853 523.147 218.11 509.89 218.11C502.529 218.11 495.941 221.421 491.524 226.668C491.454 226.752 491.383 226.834 491.31 226.915L451.704 277.122C449.539 279.991 446.879 282.452 443.552 284.146C440.16 285.873 436.649 286.51 433.26 286.51C422.397 286.51 413.59 277.704 413.59 266.84V249.709L391.974 277.112C389.809 279.981 387.149 282.442 383.822 284.136C380.43 285.863 376.919 286.5 373.53 286.5C362.667 286.5 353.86 277.693 353.86 266.83V249.699L332.244 277.102C330.08 279.971 327.42 282.432 324.092 284.126C320.7 285.853 317.189 286.49 313.8 286.49C302.937 286.49 294.13 277.683 294.13 266.82V249.689L272.514 277.092C270.35 279.961 267.69 282.422 264.362 284.116C260.97 285.843 257.459 286.48 254.07 286.48C243.207 286.48 234.4 277.673 234.4 266.81V143.11C234.4 137.477 238.967 132.91 244.6 132.91Z" fill="white"/>
<path fill-rule="evenodd" clip-rule="evenodd" d="M210.4 218.081C197.145 218.081 186.4 228.826 186.4 242.081C186.4 255.336 197.145 266.081 210.4 266.081C223.655 266.081 234.4 255.336 234.4 242.081C234.4 228.826 223.655 218.081 210.4 218.081ZM166 242.081C166 217.559 185.879 197.681 210.4 197.681C234.921 197.681 254.8 217.559 254.8 242.081C254.8 266.602 234.921 286.481 210.4 286.481C185.879 286.481 166 266.602 166 242.081Z" fill="white"/>
<path fill-rule="evenodd" clip-rule="evenodd" d="M364.06 125C369.694 125 374.26 129.567 374.26 135.2V220.29C374.26 225.923 369.694 230.49 364.06 230.49C358.427 230.49 353.86 225.923 353.86 220.29V135.2C353.86 129.567 358.427 125 364.06 125Z" fill="white"/>
<path fill-rule="evenodd" clip-rule="evenodd" d="M423.791 125C429.424 125 433.991 129.567 433.991 135.2V220.29C433.991 225.923 429.424 230.49 423.791 230.49C418.158 230.49 413.591 225.923 413.591 220.29V135.2C413.591 129.567 418.158 125 423.791 125Z" fill="white"/>
</svg>
