<svg width="751" height="420" viewBox="0 0 751 420" fill="none" xmlns="http://www.w3.org/2000/svg">
<g clip-path="url(#clip0_384_434)">
<path d="M750.331 0.00195312H-0.253906V419.973H750.331V0.00195312Z" fill="white"/>
<path d="M305.259 199.951C305.229 257.771 311.804 306.9 332.972 327.059C332.972 327.059 339.548 333.63 349.757 337.393C350.448 337.662 350.958 338.319 350.958 339.125C350.958 340.14 350.117 340.947 349.096 340.947C348.886 340.947 348.706 340.917 348.526 340.857C292.107 322.997 257.398 270.434 257.217 199.891C257.037 129.378 292.107 76.8145 348.526 58.9548C348.706 58.8951 348.886 58.8652 349.096 58.8652C350.117 58.8652 350.958 59.7015 350.958 60.7169C350.958 61.4934 350.448 62.1803 349.757 62.4491C339.548 66.2421 332.972 72.7826 332.972 72.7826C311.804 92.9719 305.289 142.071 305.259 199.891V199.951ZM482.321 199.951C482.351 257.771 475.745 306.9 454.607 327.059C454.607 327.059 448.031 333.63 437.822 337.393C437.132 337.662 436.622 338.319 436.622 339.125C436.622 340.14 437.462 340.947 438.483 340.947C438.693 340.947 438.843 340.917 439.024 340.857C495.472 322.997 530.152 270.434 530.332 199.891C530.542 129.378 495.442 76.8145 439.024 58.9548C438.843 58.8951 438.663 58.8652 438.483 58.8652C437.462 58.8652 436.622 59.7015 436.622 60.7169C436.622 61.4934 437.132 62.1803 437.822 62.4491C448.061 66.2421 454.607 72.7826 454.607 72.7826C475.775 92.9719 482.291 142.071 482.321 199.891V199.951Z" fill="#BED630"/>
<path d="M150.924 337.515V225.04H55.1122V337.515H-13.4668V62.332H55.1122V165.249H150.924V62.332H219.503V337.515H150.924Z" fill="#433D2D"/>
<path d="M654.282 246.185H636.627V337.515H568.078V62.332H657.075C724.422 62.332 765.738 92.2575 765.738 152.078C765.738 211.899 721.21 246.185 654.252 246.185H654.282ZM653.081 113.791H635.846V194.757H651.88C682.356 194.757 699.201 181.586 699.201 153.273C699.201 126.932 683.557 113.791 653.081 113.791Z" fill="#433D2D"/>
</g>
<defs>
<clipPath id="clip0_384_434">
<rect width="750" height="420" fill="white" transform="translate(0.0927734)"/>
</clipPath>
</defs>
</svg>
