<svg width="751" height="420" viewBox="0 0 751 420" fill="none" xmlns="http://www.w3.org/2000/svg">
<path d="M750.093 0H0.0927734V420H750.093V0Z" fill="white"/>
<path d="M225.828 317.547C156.642 317.547 117.459 272.265 117.459 205.266C117.459 138.268 160.092 92.3584 228.678 92.3584C254.27 92.3584 277.642 98.3324 295.343 107.443L287.122 161.537C270.381 151.799 251.75 143.914 230.568 143.914C197.085 143.914 181.904 169.393 181.904 204.938C181.904 240.483 197.715 267.844 230.238 267.844C239.089 267.844 246.049 265.962 252.98 262.497V231.671H220.427L213.167 186.389H307.944V293.651C283.312 309.691 256.13 317.547 225.798 317.547H225.828Z" fill="#433D2D"/>
<path d="M479.798 251.505H390.72C393.871 271.01 407.792 277.611 426.093 277.611C441.244 277.611 458.316 272.264 475.687 263.453L480.728 300.581C463.656 310.318 442.505 316.621 418.503 316.621C368.909 316.621 334.796 291.471 334.796 236.719C334.796 185.462 366.688 154.637 410.312 154.637C459.606 154.637 480.758 190.481 480.758 236.42C480.758 242.394 480.428 248.368 479.798 251.505ZM408.692 188.897C397.321 188.897 390.06 200.218 389.73 222.859H427.953C427.323 200.218 420.063 188.897 408.692 188.897Z" fill="#433D2D"/>
<path d="M576.377 315.666C540.374 315.666 514.782 302.463 514.782 259.361V202.758H495.19V157.774H514.782V113.417L570.707 104.605V157.774H598.819L605.779 202.758H570.707V250.579C570.707 263.155 577.337 268.203 589.038 268.203C592.518 268.203 596.298 267.575 599.779 266.321L606.41 311.932C597.559 314.441 589.968 315.696 576.407 315.696L576.377 315.666Z" fill="#433D2D"/>
<path d="M78.5476 209.985C78.4876 276.445 86.0781 332.929 110.38 356.108C110.38 356.108 117.911 363.635 129.672 367.996C130.482 368.295 131.052 369.072 131.052 369.968C131.052 371.133 130.092 372.089 128.922 372.089C128.712 372.089 128.471 372.059 128.291 371.999C63.4862 351.449 23.6432 291.052 23.4032 209.985C23.1931 128.918 63.4562 68.5213 128.291 48.0007C128.501 47.941 128.712 47.9111 128.922 47.9111C130.092 47.9111 131.052 48.867 131.052 50.0319C131.052 50.928 130.482 51.7046 129.672 52.0033C117.941 56.3643 110.38 63.8915 110.38 63.8915C86.0781 87.1004 78.6076 143.525 78.5476 209.985Z" fill="#BED630"/>
<path d="M663.264 209.985C663.324 276.445 655.733 332.929 631.431 356.108C631.431 356.108 623.901 363.635 612.14 367.996C611.33 368.295 610.76 369.072 610.76 369.968C610.76 371.133 611.72 372.089 612.89 372.089C613.1 372.089 613.34 372.059 613.52 371.999C678.355 351.449 718.168 291.052 718.408 209.985C718.648 128.918 678.355 68.5213 613.52 48.0007C613.31 47.941 613.1 47.9111 612.89 47.9111C611.72 47.9111 610.76 48.867 610.76 50.0319C610.76 50.928 611.33 51.7046 612.14 52.0033C623.871 56.3643 631.431 63.8915 631.431 63.8915C655.733 87.1004 663.204 143.525 663.264 209.985Z" fill="#BED630"/>
</svg>
