<svg width="750" height="420" viewBox="0 0 750 420" fill="none" xmlns="http://www.w3.org/2000/svg">
<rect width="750" height="420" fill="#00A4C4"/>
<path fill-rule="evenodd" clip-rule="evenodd" d="M244.599 133.891C250.233 133.891 254.799 138.457 254.799 144.091V267.009C255.007 266.972 255.088 266.928 255.104 266.92L255.106 266.919L255.107 266.918C255.15 266.896 255.551 266.693 256.257 265.748C256.311 265.675 256.365 265.604 256.421 265.533L296.321 214.953C299.012 211.542 303.568 210.21 307.673 211.634C311.777 213.058 314.529 216.926 314.529 221.271V267.019C314.737 266.982 314.818 266.938 314.834 266.93L314.836 266.929L314.837 266.928C314.88 266.906 315.281 266.703 315.987 265.757C316.041 265.685 316.095 265.614 316.151 265.543L356.051 214.963C358.742 211.552 363.298 210.22 367.403 211.644C371.507 213.068 374.259 216.936 374.259 221.281V267.029C374.479 266.99 374.557 266.943 374.566 266.939L374.567 266.938C374.61 266.916 375.011 266.713 375.717 265.768C375.77 265.696 375.825 265.624 375.881 265.554L394.171 242.364C397.659 237.941 404.073 237.183 408.496 240.672C412.919 244.16 413.677 250.574 410.188 254.997L391.973 278.093C389.812 280.956 387.156 283.419 383.828 285.115C380.433 286.845 376.92 287.481 373.529 287.481C362.666 287.481 353.859 278.674 353.859 267.811V250.68L332.243 278.083C330.082 280.946 327.426 283.409 324.098 285.105C320.703 286.835 317.19 287.471 313.799 287.471C302.936 287.471 294.129 278.664 294.129 267.801V250.67L272.513 278.073C270.352 280.936 267.696 283.399 264.368 285.095C260.973 286.825 257.46 287.461 254.069 287.461C243.206 287.461 234.399 278.654 234.399 267.791V144.091C234.399 138.457 238.966 133.891 244.599 133.891Z" fill="white"/>
<path fill-rule="evenodd" clip-rule="evenodd" d="M210.4 219.081C197.145 219.081 186.4 229.826 186.4 243.081C186.4 256.336 197.145 267.081 210.4 267.081C223.655 267.081 234.4 256.336 234.4 243.081C234.4 229.826 223.655 219.081 210.4 219.081ZM166 243.081C166 218.559 185.879 198.681 210.4 198.681C234.921 198.681 254.8 218.559 254.8 243.081C254.8 267.602 234.921 287.481 210.4 287.481C185.879 287.481 166 267.602 166 243.081Z" fill="white"/>
<path fill-rule="evenodd" clip-rule="evenodd" d="M364.059 126C369.693 126 374.259 130.567 374.259 136.2V221.29C374.259 226.923 369.693 231.49 364.059 231.49C358.426 231.49 353.859 226.923 353.859 221.29V136.2C353.859 130.567 358.426 126 364.059 126Z" fill="white"/>
<path fill-rule="evenodd" clip-rule="evenodd" d="M423.79 126C429.423 126 433.99 130.567 433.99 136.2V178.75C433.99 184.383 429.423 188.95 423.79 188.95C418.157 188.95 413.59 184.383 413.59 178.75V136.2C413.59 130.567 418.157 126 423.79 126Z" fill="white"/>
</svg>
