<svg width="750" height="420" viewBox="0 0 750 420" fill="none" xmlns="http://www.w3.org/2000/svg">
<rect width="750" height="420" fill="#00A4C4"/>
<path fill-rule="evenodd" clip-rule="evenodd" d="M244.599 133.9C250.233 133.9 254.799 138.467 254.799 144.1V267.018C255.007 266.982 255.088 266.938 255.104 266.929L255.106 266.928L255.107 266.928C255.15 266.906 255.551 266.703 256.257 265.757C256.311 265.685 256.365 265.614 256.421 265.543L296.321 214.963C299.012 211.552 303.568 210.22 307.673 211.644C311.777 213.068 314.529 216.936 314.529 221.28V267.81C314.529 273.444 309.963 278.01 304.329 278.01C298.696 278.01 294.129 273.444 294.129 267.81V250.68L272.513 278.083C270.352 280.946 267.696 283.409 264.368 285.105C260.973 286.835 257.46 287.47 254.069 287.47C243.206 287.47 234.399 278.664 234.399 267.8V144.1C234.399 138.467 238.966 133.9 244.599 133.9Z" fill="white"/>
<path fill-rule="evenodd" clip-rule="evenodd" d="M210.4 219.08C197.145 219.08 186.4 229.825 186.4 243.08C186.4 256.335 197.145 267.08 210.4 267.08C223.655 267.08 234.4 256.335 234.4 243.08C234.4 229.825 223.655 219.08 210.4 219.08ZM166 243.08C166 218.558 185.879 198.68 210.4 198.68C234.921 198.68 254.8 218.558 254.8 243.08C254.8 267.601 234.921 287.48 210.4 287.48C185.879 287.48 166 267.601 166 243.08Z" fill="white"/>
<path fill-rule="evenodd" clip-rule="evenodd" d="M364.059 126C369.693 126 374.259 130.567 374.259 136.2V190.18C374.259 195.813 369.693 200.38 364.059 200.38C358.426 200.38 353.859 195.813 353.859 190.18V136.2C353.859 130.567 358.426 126 364.059 126Z" fill="white"/>
</svg>
