<svg width="750" height="420" viewBox="0 0 750 420" fill="none" xmlns="http://www.w3.org/2000/svg">
<rect width="750" height="420" fill="#F7B5CD"/>
<path fill-rule="evenodd" clip-rule="evenodd" d="M244.59 133.87C250.223 133.87 254.79 138.437 254.79 144.07V266.988C254.997 266.952 255.079 266.908 255.094 266.899L255.096 266.898L255.098 266.897C255.14 266.876 255.541 266.672 256.247 265.727C256.301 265.655 256.356 265.584 256.411 265.513L296.311 214.933C299.002 211.522 303.558 210.19 307.663 211.614C311.768 213.038 314.52 216.905 314.52 221.25V266.998C314.727 266.962 314.809 266.918 314.824 266.909L314.826 266.908L314.828 266.907C314.87 266.886 315.271 266.682 315.977 265.737C316.031 265.665 316.086 265.594 316.141 265.523L356.041 214.943C358.732 211.532 363.288 210.2 367.393 211.624C371.498 213.048 374.25 216.915 374.25 221.26V267.008C374.469 266.97 374.548 266.923 374.556 266.918L374.558 266.917C374.6 266.896 375.001 266.692 375.707 265.747C375.761 265.675 375.816 265.603 375.871 265.533L415.771 214.953C418.462 211.542 423.018 210.21 427.123 211.634C431.228 213.058 433.98 216.925 433.98 221.27V267.018C434.187 266.982 434.269 266.938 434.284 266.929L434.286 266.928L434.288 266.927C434.33 266.906 434.731 266.702 435.437 265.757C435.491 265.685 435.546 265.613 435.601 265.543L475.501 214.963C478.99 210.54 485.404 209.783 489.827 213.272C494.25 216.761 495.007 223.175 491.518 227.597L451.693 278.082C449.532 280.946 446.876 283.409 443.548 285.105C440.153 286.834 436.641 287.47 433.25 287.47C422.386 287.47 413.58 278.663 413.58 267.8V250.669L391.963 278.072C389.802 280.936 387.146 283.399 383.818 285.095C380.423 286.824 376.911 287.46 373.52 287.46C362.656 287.46 353.85 278.653 353.85 267.79V250.659L332.233 278.062C330.072 280.926 327.416 283.389 324.088 285.085C320.693 286.814 317.181 287.45 313.79 287.45C302.926 287.45 294.12 278.643 294.12 267.78V250.649L272.503 278.052C270.343 280.916 267.687 283.379 264.358 285.075C260.963 286.804 257.451 287.44 254.06 287.44C243.196 287.44 234.39 278.633 234.39 267.77V144.07C234.39 138.437 238.956 133.87 244.59 133.87Z" fill="#3E1865"/>
<path fill-rule="evenodd" clip-rule="evenodd" d="M210.4 219.081C197.145 219.081 186.4 229.826 186.4 243.081C186.4 256.335 197.145 267.081 210.4 267.081C223.655 267.081 234.4 256.335 234.4 243.081C234.4 229.826 223.655 219.081 210.4 219.081ZM166 243.081C166 218.559 185.879 198.681 210.4 198.681C234.921 198.681 254.8 218.559 254.8 243.081C254.8 267.602 234.921 287.481 210.4 287.481C185.879 287.481 166 267.602 166 243.081Z" fill="#3E1865"/>
<path fill-rule="evenodd" clip-rule="evenodd" d="M509.889 219.081C496.634 219.081 485.889 229.826 485.889 243.081C485.889 256.336 496.634 267.081 509.889 267.081C523.144 267.081 533.889 256.335 533.889 243.081C533.889 229.826 523.144 219.081 509.889 219.081ZM465.489 243.081C465.489 218.559 485.368 198.681 509.889 198.681C534.411 198.681 554.289 218.559 554.289 243.081C554.289 267.602 534.411 287.481 509.889 287.481C485.368 287.481 465.489 267.602 465.489 243.081Z" fill="#3E1865"/>
<path fill-rule="evenodd" clip-rule="evenodd" d="M364.05 126C369.683 126 374.25 130.567 374.25 136.2V221.28C374.25 226.913 369.683 231.48 364.05 231.48C358.416 231.48 353.85 226.913 353.85 221.28V136.2C353.85 130.567 358.416 126 364.05 126Z" fill="#3E1865"/>
<path fill-rule="evenodd" clip-rule="evenodd" d="M423.78 126C429.413 126 433.98 130.567 433.98 136.2V221.28C433.98 226.913 429.413 231.48 423.78 231.48C418.147 231.48 413.58 226.913 413.58 221.28V136.2C413.58 130.567 418.147 126 423.78 126Z" fill="#3E1865"/>
<path d="M347.62 191.421C347.62 197.491 342.7 202.421 336.62 202.421C330.54 202.421 325.62 197.501 325.62 191.421C325.62 185.341 330.54 180.421 336.62 180.421C342.7 180.421 347.62 185.341 347.62 191.421Z" fill="#3E1865"/>
<path fill-rule="evenodd" clip-rule="evenodd" d="M344.43 191.251C344.43 185.617 348.996 181.051 354.63 181.051H453.6C459.233 181.051 463.8 185.617 463.8 191.251C463.8 196.884 459.233 201.451 453.6 201.451H354.63C348.996 201.451 344.43 196.884 344.43 191.251Z" fill="#3E1865"/>
</svg>
