<svg width="751" height="420" viewBox="0 0 751 420" fill="none" xmlns="http://www.w3.org/2000/svg">
<path d="M750.093 0H0.0927734V420H750.093V0Z" fill="white"/>
<path d="M190.52 167.229L187.58 186.195C180.92 181.983 173.119 178.668 164.028 178.668C148.817 178.668 141.376 189.868 141.376 206.296C141.376 222.723 149.057 234.431 164.268 234.431C169.129 234.431 172.579 233.535 176.179 231.623V215.973H160.818L158.268 199.784H195.231V242.585C186.02 248.558 175.129 251.874 162.978 251.874C134.956 251.874 119.475 233.535 119.475 206.415C119.475 179.295 136.246 160.688 163.488 160.688C174.349 160.688 183.44 163.226 190.49 167.169" fill="#433D2D"/>
<path d="M236.546 251.277C224.665 251.277 214.674 248.739 205.703 244.647L208.913 226.039C218.004 230.878 228.115 234.193 236.936 234.193C243.206 234.193 247.557 231.535 247.557 226.308C247.557 221.081 245.006 219.05 232.585 214.331C214.944 207.581 207.263 201.846 207.263 187.331C207.263 170.396 220.554 161.346 237.446 161.346C248.967 161.346 256.377 163.496 264.058 167.2L260.728 185.539C252.807 180.939 244.496 178.4 237.716 178.4C230.935 178.4 227.875 181.208 227.875 185.27C227.875 189.72 230.305 191.9 241.316 196.082C260.518 203.101 268.198 209.702 268.198 223.71C268.198 242.825 254.127 251.218 236.606 251.218L236.546 251.277Z" fill="#433D2D"/>
<path d="M328.949 251.277C317.038 251.277 307.077 248.739 298.106 244.647L301.287 226.039C310.377 230.878 320.488 234.193 329.309 234.193C335.579 234.193 339.93 231.535 339.93 226.308C339.93 221.081 337.38 219.05 324.959 214.331C307.317 207.581 299.637 201.846 299.637 187.331C299.637 170.396 312.928 161.346 329.819 161.346C341.34 161.346 348.751 163.496 356.431 167.2L353.101 185.539C345.18 180.939 336.87 178.4 330.089 178.4C323.308 178.4 320.248 181.208 320.248 185.27C320.248 189.72 322.678 191.9 333.689 196.082C352.891 203.101 360.541 209.702 360.541 223.71C360.541 242.825 346.47 251.218 328.949 251.218V251.277Z" fill="#433D2D"/>
<path d="M423.67 250.261V214.331H393.097V250.261H371.226V162.391H393.097V195.245H423.67V162.391H445.541V250.261H423.67Z" fill="#433D2D"/>
<path d="M584.271 221.11H578.661V250.291H556.789V162.42H585.201C606.683 162.42 619.884 171.978 619.884 191.093C619.884 210.208 605.663 221.14 584.301 221.14L584.271 221.11ZM583.881 178.817H578.391V204.683H583.521C593.242 204.683 598.612 200.471 598.612 191.451C598.612 183.059 593.632 178.847 583.911 178.847L583.881 178.817Z" fill="#433D2D"/>
<path opacity="0.8" d="M750.093 0H0.0927734V420H750.093V0Z" fill="#433D2D"/>
<path d="M472.903 206.358C472.903 224.816 475.003 240.497 481.753 246.948C481.753 246.948 483.854 249.039 487.094 250.263C487.334 250.353 487.484 250.562 487.484 250.801C487.484 251.129 487.214 251.398 486.884 251.398C486.824 251.398 486.764 251.398 486.704 251.398C468.702 245.694 457.632 228.908 457.572 206.388C457.512 183.867 468.702 167.082 486.704 161.377C486.764 161.377 486.824 161.377 486.884 161.377C487.214 161.377 487.484 161.646 487.484 161.974C487.484 162.213 487.334 162.452 487.094 162.512C483.824 163.707 481.753 165.797 481.753 165.797C475.003 172.249 472.933 187.929 472.903 206.388V206.358ZM529.397 206.358C529.397 224.816 527.297 240.497 520.547 246.948C520.547 246.948 518.446 249.039 515.176 250.263C514.936 250.353 514.786 250.562 514.786 250.801C514.786 251.129 515.056 251.398 515.386 251.398C515.446 251.398 515.506 251.398 515.566 251.398C533.568 245.694 544.639 228.908 544.699 206.388C544.759 183.867 533.568 167.082 515.566 161.377C515.506 161.377 515.446 161.377 515.386 161.377C515.056 161.377 514.786 161.646 514.786 161.974C514.786 162.213 514.936 162.452 515.176 162.512C518.446 163.707 520.547 165.797 520.547 165.797C527.297 172.249 529.367 187.929 529.397 206.388V206.358Z" fill="#BED630"/>
</svg>
