<svg width="751" height="420" viewBox="0 0 751 420" fill="none" xmlns="http://www.w3.org/2000/svg">
<path d="M750.093 0H0.0927734V420H750.093V0Z" fill="white"/>
<path d="M40.1778 209.255C40.1778 231.715 42.728 250.83 50.9487 258.656C50.9487 258.656 53.4989 261.195 57.4592 262.688C57.7292 262.778 57.9392 263.046 57.9392 263.345C57.9392 263.733 57.6092 264.062 57.2191 264.062C57.1291 264.062 57.0691 264.062 57.0091 264.032C35.0774 257.073 21.6063 236.643 21.5463 209.255C21.4563 181.836 35.1074 161.406 57.0091 154.477C57.0691 154.477 57.1591 154.447 57.2191 154.447C57.6092 154.447 57.9392 154.776 57.9392 155.164C57.9392 155.463 57.7292 155.732 57.4592 155.821C53.4989 157.285 50.9487 159.853 50.9487 159.853C42.728 167.709 40.2078 186.794 40.1778 209.255Z" fill="#BED630"/>
<path d="M705.718 209.255C705.718 231.715 703.167 250.83 694.947 258.656C694.947 258.656 692.397 261.195 688.436 262.688C688.166 262.778 687.956 263.046 687.956 263.345C687.956 263.733 688.286 264.062 688.676 264.062C688.766 264.062 688.826 264.062 688.886 264.032C710.818 257.073 724.289 236.643 724.349 209.255C724.439 181.836 710.818 161.406 688.886 154.477C688.826 154.477 688.736 154.447 688.676 154.447C688.286 154.447 687.956 154.776 687.956 155.164C687.956 155.463 688.136 155.732 688.436 155.821C692.397 157.285 694.947 159.853 694.947 159.853C703.167 167.709 705.688 186.794 705.718 209.255Z" fill="#BED630"/>
<path d="M101.323 252.237C74.591 252.237 59.4697 234.734 59.4697 208.869C59.4697 183.003 75.9411 165.262 102.433 165.262C112.334 165.262 121.365 167.562 128.175 171.086L124.995 191.993C118.514 188.23 111.314 185.183 103.153 185.183C90.2222 185.183 84.3717 195.01 84.3717 208.749C84.3717 222.488 90.4622 233.061 103.033 233.061C106.453 233.061 109.124 232.345 111.824 231.001V219.083H99.2529L96.4327 201.581H133.036V243.007C123.525 249.19 113.024 252.237 101.293 252.237H101.323Z" fill="#433D2D"/>
<path d="M199.433 226.697H165.02C166.25 234.224 171.62 236.792 178.701 236.792C184.552 236.792 191.152 234.732 197.873 231.327L199.823 245.663C193.222 249.426 185.062 251.876 175.791 251.876C156.619 251.876 143.448 242.169 143.448 221.022C143.448 201.22 155.779 189.303 172.611 189.303C191.662 189.303 199.823 203.161 199.823 220.903C199.823 223.203 199.703 225.532 199.463 226.727L199.433 226.697ZM171.981 202.534C167.6 202.534 164.78 206.925 164.66 215.646H179.421C179.181 206.895 176.361 202.534 171.981 202.534Z" fill="#433D2D"/>
<path d="M236.751 251.488C222.83 251.488 212.959 246.381 212.959 229.744V207.881H205.398V190.498H212.959V173.354L234.561 169.949V190.468H245.422L248.092 207.851H234.561V226.31C234.561 231.178 237.111 233.119 241.641 233.119C242.991 233.119 244.462 232.881 245.782 232.403L248.332 250.025C244.912 251.01 241.971 251.488 236.751 251.488Z" fill="#433D2D"/>
<path d="M303.63 251.488C289.709 251.488 279.838 246.381 279.838 229.744V207.881H272.277V190.498H279.838V173.354L301.44 169.949V190.468H312.301L315.001 207.851H301.44V226.31C301.44 231.178 303.99 233.119 308.52 233.119C309.87 233.119 311.341 232.881 312.661 232.403L315.211 250.025C311.79 251.01 308.88 251.488 303.63 251.488Z" fill="#433D2D"/>
<path d="M358.626 250.651V214.331C358.626 210.807 357.156 208.268 353.616 208.268C351.066 208.268 348.845 209.612 346.415 211.912V250.681H324.693V166.364L346.415 162.959V197.695C351.546 192.707 356.406 189.302 363.366 189.302C374.467 189.302 380.318 196.232 380.318 208.268V250.681H358.596L358.626 250.651Z" fill="#433D2D"/>
<path d="M445.751 226.697H411.338C412.568 234.224 417.939 236.792 425.019 236.792C430.87 236.792 437.47 234.732 444.191 231.327L446.141 245.663C439.541 249.426 431.38 251.876 422.109 251.876C402.938 251.876 389.767 242.169 389.767 221.022C389.767 201.22 402.098 189.303 418.929 189.303C437.98 189.303 446.141 203.161 446.141 220.903C446.141 223.203 446.021 225.532 445.781 226.727L445.751 226.697ZM418.299 202.534C413.919 202.534 411.098 206.925 410.978 215.646H425.74C425.5 206.895 422.679 202.534 418.299 202.534Z" fill="#433D2D"/>
<path d="M497.354 218.066V250.622H475.632V190.468H495.043L496.994 202.266C500.414 195.217 504.674 189.871 513.225 189.273L516.765 211.495C508.215 212.212 502.124 214.422 497.354 218.066Z" fill="#433D2D"/>
<path d="M578.119 226.697H543.706C544.937 234.224 550.307 236.792 557.388 236.792C563.238 236.792 569.839 234.732 576.559 231.327L578.509 245.663C571.909 249.426 563.748 251.876 554.477 251.876C535.306 251.876 522.135 242.169 522.135 221.022C522.135 201.22 534.466 189.303 551.297 189.303C570.349 189.303 578.509 203.161 578.509 220.903C578.509 223.203 578.389 225.532 578.149 226.727L578.119 226.697ZM550.667 202.534C546.287 202.534 543.466 206.925 543.346 215.646H558.108C557.868 206.895 555.047 202.534 550.667 202.534Z" fill="#433D2D"/>
<path d="M621.172 250.65L619.942 243.363C614.812 248.59 609.322 251.875 601.881 251.875C592.73 251.875 585.89 246.409 585.89 235.239C585.89 221.499 596.031 214.6 618.952 212.629V212.151C618.952 207.76 616.642 205.58 610.792 205.58C604.311 205.58 598.221 207.163 591.86 209.821L589.43 194.021C596.151 191.363 604.311 189.541 614.452 189.541C631.913 189.541 640.704 194.887 640.704 211.046V250.65H621.172ZM619.102 221.738C610.312 223.68 607.251 227.085 607.251 231.953C607.251 235.358 609.202 237.061 611.902 237.061C614.212 237.061 616.402 236.075 619.102 234.014V221.738Z" fill="#433D2D"/>
<path d="M653.156 250.651V166.335L674.878 162.93V250.651H653.156Z" fill="#433D2D"/>
</svg>
