<svg width="751" height="420" viewBox="0 0 751 420" fill="none" xmlns="http://www.w3.org/2000/svg">
<path d="M750.093 0H0.0927734V420H750.093V0Z" fill="white"/>
<path d="M139.126 279.323C97.8729 279.323 74.501 252.293 74.501 212.36C74.501 172.426 99.943 145.008 140.836 145.008C156.108 145.008 170.029 148.562 180.589 153.998L175.699 186.255C165.708 180.431 154.607 175.742 141.976 175.742C121.995 175.742 112.964 190.944 112.964 212.15C112.964 233.357 122.385 249.664 141.796 249.664C147.077 249.664 151.217 248.529 155.357 246.468V228.07H135.946L131.626 201.07H188.15V265.046C173.449 274.604 157.248 279.293 139.156 279.293L139.126 279.323Z" fill="#433D2D"/>
<path d="M290.607 239.929H237.472C239.362 251.547 247.643 255.49 258.564 255.49C267.595 255.49 277.796 252.294 288.146 247.037L291.177 269.169C281.006 274.994 268.375 278.727 254.064 278.727C224.481 278.727 204.14 263.733 204.14 231.088C204.14 200.503 223.161 182.135 249.173 182.135C278.576 182.135 291.207 203.52 291.207 230.909C291.207 234.463 291.027 238.047 290.637 239.929H290.607ZM248.213 202.594C241.433 202.594 237.082 209.344 236.902 222.844H259.704C259.314 209.344 254.994 202.594 248.213 202.594Z" fill="#433D2D"/>
<path d="M348.212 278.191C326.73 278.191 311.459 270.306 311.459 244.62V210.84H299.788V184.018H311.459V157.556L344.822 152.299V183.988H361.593L365.733 210.81H344.822V239.333C344.822 246.83 348.782 249.847 355.743 249.847C357.813 249.847 360.063 249.459 362.163 248.712L366.123 275.921C360.843 277.415 356.313 278.161 348.212 278.161V278.191Z" fill="#433D2D"/>
<path d="M451.45 278.191C429.969 278.191 414.697 270.306 414.697 244.62V210.84H403.026V184.018H414.697V157.556L448.06 152.299V183.988H464.831L468.972 210.81H448.06V239.333C448.06 246.83 452.02 249.847 458.981 249.847C461.051 249.847 463.301 249.459 465.401 248.712L469.362 275.921C464.081 277.415 459.551 278.161 451.45 278.161V278.191Z" fill="#433D2D"/>
<path d="M536.383 276.874V220.782C536.383 215.346 534.133 211.404 528.642 211.404C524.682 211.404 521.292 213.465 517.511 217.019V276.874H483.969V146.681L517.511 141.424V195.066C525.432 187.36 532.963 182.134 543.704 182.134C560.865 182.134 569.896 192.826 569.896 211.404V276.874H536.353H536.383Z" fill="#433D2D"/>
<path d="M670.887 239.929H617.753C619.643 251.547 627.923 255.49 638.844 255.49C647.875 255.49 658.076 252.294 668.427 247.037L671.457 269.169C661.286 274.994 648.655 278.727 634.344 278.727C604.762 278.727 584.42 263.733 584.42 231.088C584.42 200.503 603.441 182.135 629.454 182.135C658.856 182.135 671.487 203.52 671.487 230.909C671.487 234.463 671.307 238.047 670.917 239.929H670.887ZM628.493 202.594C621.713 202.594 617.363 209.344 617.183 222.844H639.984C639.594 209.344 635.274 202.594 628.493 202.594Z" fill="#433D2D"/>
<path d="M51.2757 215.168C51.2457 254.803 55.776 288.493 70.2672 302.322C70.2672 302.322 74.7675 306.802 81.7581 309.401C82.2381 309.58 82.5982 310.028 82.5982 310.596C82.5982 311.283 82.0281 311.85 81.3381 311.85C81.2181 311.85 81.068 311.85 80.948 311.79C42.2749 299.544 18.513 263.494 18.393 215.168C18.273 166.812 42.2749 130.792 80.948 118.546C81.068 118.516 81.1881 118.486 81.3381 118.486C82.0281 118.486 82.5982 119.054 82.5982 119.741C82.5982 120.278 82.2381 120.756 81.7581 120.935C74.7675 123.534 70.2672 128.014 70.2672 128.014C55.776 141.843 51.3057 175.504 51.2757 215.168Z" fill="#BED630"/>
<path d="M700.978 215.168C700.978 254.803 696.478 288.493 681.987 302.322C681.987 302.322 677.486 306.802 670.496 309.401C670.016 309.58 669.686 310.028 669.686 310.596C669.686 311.283 670.256 311.85 670.946 311.85C671.096 311.85 671.216 311.85 671.336 311.79C710.009 299.544 733.771 263.494 733.891 215.168C734.041 166.812 710.009 130.792 671.336 118.546C671.216 118.516 671.096 118.486 670.946 118.486C670.256 118.486 669.686 119.054 669.686 119.741C669.686 120.278 670.016 120.756 670.496 120.935C677.486 123.534 681.987 128.014 681.987 128.014C696.478 141.843 700.948 175.504 700.978 215.168Z" fill="#BED630"/>
</svg>
