<svg width="750" height="420" viewBox="0 0 750 420" fill="none" xmlns="http://www.w3.org/2000/svg">
<rect width="750" height="420" fill="#F7B5CD"/>
<path d="M509.89 197.75C496.51 197.75 484.5 203.71 476.35 213.1C476.05 213.39 475.77 213.7 475.5 214.04L435.6 264.62C435.54 264.69 435.49 264.76 435.44 264.83C434.77 265.73 434.43 266.01 433.98 266.11V200.53H453.6C459.23 200.53 463.8 195.96 463.8 190.33C463.8 184.7 459.23 180.13 453.6 180.13H433.98V138.08L413.58 163.83V180.13H374.25V138.09L353.85 163.83V180.13H334.76C329.13 180.13 324.56 184.7 324.56 190.33C324.56 195.96 329.13 200.53 334.76 200.53H353.85V216.83L316.14 264.63C316.08 264.7 316.03 264.77 315.98 264.84C315.31 265.74 314.97 266.02 314.52 266.12V220.37C314.52 216.03 311.77 212.16 307.66 210.73C303.56 209.3 299 210.64 296.31 214.05L256.41 264.63C256.35 264.7 256.3 264.77 256.25 264.84C255.58 265.74 255.24 266.02 254.8 266.12V143.2C254.8 137.57 250.23 133 244.6 133C238.97 133 234.4 137.57 234.4 143.2V204.84C227.47 200.37 219.24 197.76 210.4 197.76C185.92 197.76 166 217.68 166 242.16C166 266.64 185.92 286.56 210.4 286.56C220.57 286.56 229.94 283.12 237.44 277.34C240.93 282.87 247.07 286.56 254.07 286.56C261.6 286.56 267.81 283.4 272.51 277.17L294.13 249.76V266.89C294.13 277.74 302.95 286.56 313.8 286.56C321.33 286.56 327.54 283.4 332.24 277.17L353.86 249.77V266.9C353.86 277.75 362.68 286.57 373.53 286.57C381.06 286.57 387.27 283.41 391.97 277.18L413.59 249.78V266.91C413.59 277.76 422.41 286.58 433.26 286.58C440.79 286.58 447 283.42 451.7 277.19L467.92 256.63C473.93 274.04 490.47 286.59 509.89 286.59C534.37 286.59 554.29 266.67 554.29 242.19C554.29 217.71 534.37 197.79 509.89 197.79V197.75ZM210.4 266.15C197.17 266.15 186.4 255.38 186.4 242.15C186.4 228.92 197.17 218.15 210.4 218.15C223.63 218.15 234.4 228.92 234.4 242.15C234.4 255.38 223.63 266.15 210.4 266.15ZM413.59 216.81L375.88 264.61C375.82 264.68 375.77 264.75 375.72 264.82C375.05 265.72 374.71 266 374.26 266.1V200.52H413.59V216.82V216.81ZM509.89 266.15C496.66 266.15 485.89 255.38 485.89 242.15C485.89 228.92 496.66 218.15 509.89 218.15C523.12 218.15 533.89 228.92 533.89 242.15C533.89 255.38 523.12 266.15 509.89 266.15Z" fill="#3E1865"/>
<path d="M353.86 144.97V163.82L368.79 144.97H353.86Z" fill="#3E1865"/>
<path d="M413.59 144.97V163.82L428.52 144.97H413.59Z" fill="#3E1865"/>
<path d="M562.17 173.75V190.79C562.17 191.01 562.35 191.19 562.58 191.19C562.69 191.19 562.79 191.14 562.86 191.08L576.59 173.75H562.17Z" fill="#ED135D"/>
<path d="M534.7 173.75V190.79C534.7 191.01 534.88 191.19 535.11 191.19C535.22 191.19 535.31 191.14 535.39 191.08L549.12 173.75H534.7Z" fill="#ED135D"/>
</svg>
