<svg width="1000" height="616" viewBox="0 0 1000 616" fill="none" xmlns="http://www.w3.org/2000/svg">
<path d="M279.442 137.723H220.897L159.533 263.783H158.545V137.723H100V478.666H158.545V357.732L179.378 320.021H180.22L227.963 478.666H287.46L216.21 264.698L279.442 137.723Z" fill="#111111"/>
<path d="M837.172 137.723H764.458L701.666 478.666H758.343L800.339 205.641H801.291L843.323 478.666H900L837.172 137.723Z" fill="#111111"/>
<path d="M630.599 382.812C630.599 418.657 619.762 430.41 588.567 430.41H568.247V185.943H588.567C619.725 185.943 630.599 197.732 630.599 233.54V382.812ZM596.622 137.723H509.739V478.666H596.622C657.034 478.666 689.144 445.604 689.144 375.673V240.68C689.144 170.822 657.034 137.723 596.622 137.723Z" fill="#111111"/>
<path d="M417.034 394.602C417.034 420.085 409.456 432.35 385.84 432.35C362.224 432.35 354.682 420.085 354.682 394.602V221.751C354.682 196.231 362.261 183.966 385.84 183.966C409.419 183.966 417.034 196.231 417.034 221.751V394.602ZM385.84 133C324.513 133 296.137 172.249 296.137 220.396V396.03C296.137 444.103 324.476 483.352 385.84 483.352C447.204 483.352 475.579 444.139 475.579 396.03V220.396C475.579 172.249 447.204 133 385.84 133Z" fill="#111111"/>
</svg>
