<svg width="895" height="724" viewBox="0 0 895 724" fill="none" xmlns="http://www.w3.org/2000/svg">
<rect width="895" height="724" fill="white"/>
<path d="M41 41.5H41.5V41V40.5H55.5V41V41.5H56H56.5V55.5H56H55.5V56V56.5H41.5V56V55.5H41H40.5V41.5H41Z" fill="white" stroke="#564319"/>
<path d="M45 43H43V45H45V43Z" fill="#564319"/>
<path d="M54 44H46V45H54V44Z" fill="#564319"/>
<path d="M43 47H45V49H43V47Z" fill="#564319"/>
<path d="M45 51H43V53H45V51Z" fill="#564319"/>
<path d="M46 48H54V49H46V48Z" fill="#564319"/>
<path d="M54 52H46V53H54V52Z" fill="#564319"/>
<path d="M98 41.5H98.5V41V40.5H112.5V41V41.5H113H113.5V55.5H113H112.5V56V56.5H98.5V56V55.5H98H97.5V41.5H98Z" fill="white" stroke="#564319"/>
<path d="M102 43H101V44H102V43Z" fill="#564319"/>
<path d="M111 44H103V45H111V44Z" fill="#564319"/>
<path d="M102 46V48H101V47H100V46H102Z" fill="#564319"/>
<path d="M101 48V49H100V48H101Z" fill="#564319"/>
<path d="M102 50H100V51H101V52H100V53H102V50Z" fill="#564319"/>
<path d="M103 48H111V49H103V48Z" fill="#564319"/>
<path d="M111 52H103V53H111V52Z" fill="#564319"/>
<path d="M155 41.5H155.5V41V40.5H169.5V41V41.5H170H170.5V55.5H170H169.5V56V56.5H155.5V56V55.5H155H154.5V41.5H155Z" fill="white" stroke="#564319"/>
<path d="M157 45H161V46H158V47H157V50H158V51H161V52H157V51H156V46H157V45Z" fill="#564319"/>
<path fill-rule="evenodd" clip-rule="evenodd" d="M164 51H161V50H159V47H161V46H164V47H166V50H164V51ZM160 49H165V48H160V49Z" fill="#564319"/>
<path d="M167 51V50H168V47H167V46H164V45H168V46H169V51H168V52H164V51H167Z" fill="#564319"/>
<path d="M212 41.5H212.5V41V40.5H226.5V41V41.5H227H227.5V55.5H227H226.5V56V56.5H212.5V56V55.5H212H211.5V41.5H212Z" fill="white" stroke="#564319"/>
<path fill-rule="evenodd" clip-rule="evenodd" d="M215 44V45H216V52H215V53H222V52H223V49H222V48H223V45H222V44H215ZM221 49H218V52H221V49ZM221 48H218V45H221V48Z" fill="#564319"/>
<path d="M269 41.5H269.5V41V40.5H283.5V41V41.5H284H284.5V55.5H284H283.5V56V56.5H269.5V56V55.5H269H268.5V41.5H269Z" fill="white" stroke="#564319"/>
<path d="M279 44V45H278V47H277V50H276V52H277V53H273V52H274V50H275V47H276V45H275V44H279Z" fill="#564319"/>
<path d="M326 41.5H326.5V41V40.5H340.5V41V41.5H341H341.5V55.5H341H340.5V56V56.5H326.5V56V55.5H326H325.5V41.5H326Z" fill="white" stroke="#564319"/>
<path d="M329 45H328V52H329V45Z" fill="#564319"/>
<path d="M337 46H336V48H330V49H336V51H337V50H338V49H339V48H338V47H337V46Z" fill="#564319"/>
<path d="M383 41.5H383.5V41V40.5H397.5V41V41.5H398H398.5V55.5H398H397.5V56V56.5H383.5V56V55.5H383H382.5V41.5H383Z" fill="white" stroke="#564319"/>
<path fill-rule="evenodd" clip-rule="evenodd" d="M387 43H386V53V54H387H395V46H394V45H393V44H392V43H387ZM387 44H392V45H393V46H394V53H387V44Z" fill="#564319"/>
<path d="M440 41.5H440.5V41V40.5H454.5V41V41.5H455H455.5V55.5H455H454.5V56V56.5H440.5V56V55.5H440H439.5V41.5H440Z" fill="white" stroke="#564319"/>
<path d="M448 48V46H447V48H445V49H447V51H448V49H450V48H448Z" fill="#564319"/>
<path fill-rule="evenodd" clip-rule="evenodd" d="M443 43V54H452V46H451V45H450V44H449V43H443ZM449 44V45H450V46H451V53H444V44H449Z" fill="#564319"/>
<path d="M497 41.5H497.5V41V40.5H511.5V41V41.5H512H512.5V55.5H512H511.5V56V56.5H497.5V56V55.5H497H496.5V41.5H497Z" fill="white" stroke="#564319"/>
<path d="M502 45H505V46H502V45Z" fill="#564319"/>
<path d="M507 47H502V48H507V47Z" fill="#564319"/>
<path d="M502 49H507V50H502V49Z" fill="#564319"/>
<path d="M507 51H502V52H507V51Z" fill="#564319"/>
<path fill-rule="evenodd" clip-rule="evenodd" d="M500 43V54H509V46H508V45H507V44H506V43H500ZM506 44V45H507V46H508V53H501V44H506Z" fill="#564319"/>
<path d="M554 41.5H554.5V41V40.5H568.5V41V41.5H569H569.5V55.5H569H568.5V56V56.5H554.5V56V55.5H554H553.5V41.5H554Z" fill="white" stroke="#564319"/>
<path d="M565 45H558V47H565V45Z" fill="#564319"/>
<path d="M558 48H560V52H558V48Z" fill="#564319"/>
<path d="M565 48H561V52H565V48Z" fill="#564319"/>
<path fill-rule="evenodd" clip-rule="evenodd" d="M556 43H567V54H556V43ZM557 44H566V53H557V44Z" fill="#564319"/>
<path d="M611 41.5H611.5V41V40.5H625.5V41V41.5H626H626.5V55.5H626H625.5V56V56.5H611.5V56V55.5H611H610.5V41.5H611Z" fill="white" stroke="#564319"/>
<path d="M619 44H617V46H615V44H616V43H620V44H621V48H620V49H619V51H617V49H618V48H619V44Z" fill="#564319"/>
<path d="M617 54V52H619V54H617Z" fill="#564319"/>
<path d="M668 41.5H668.5V41V40.5H682.5V41V41.5H683H683.5V55.5H683H682.5V56V56.5H668.5V56V55.5H668H667.5V41.5H668Z" fill="white" stroke="#564319"/>
<path fill-rule="evenodd" clip-rule="evenodd" d="M670 51V46H673V49H671V51H670ZM671 48H672V47H671V48Z" fill="#564319"/>
<path d="M674 46H676V47H675V50H676V51H674V46Z" fill="#564319"/>
<path d="M676 50H677V47H676V50Z" fill="#564319"/>
<path d="M679 48H680V49H679V51H678V46H681V47H679V48Z" fill="#564319"/>
<path d="M725 41.5H725.5V41V40.5H739.5V41V41.5H740H740.5V55.5H740H739.5V56V56.5H725.5V56V55.5H725H724.5V41.5H725Z" fill="white" stroke="#564319"/>
<path d="M735 51H736V52H735V51Z" fill="#564319"/>
<path d="M734 50H735V51H734V50Z" fill="#564319"/>
<path d="M733 49H734V50H733V49Z" fill="#564319"/>
<path d="M732 48H733V49H732V48Z" fill="#564319"/>
<path d="M731 47H732V48H731V47Z" fill="#564319"/>
<path d="M730 46H731V47H730V46Z" fill="#564319"/>
<path d="M730 46V45H729V46H730Z" fill="#564319"/>
<path fill-rule="evenodd" clip-rule="evenodd" d="M727 43V54H738V43H727ZM737 44H729V45H728V53H736V52H737V44Z" fill="#564319"/>
<path d="M782 41.5H782.5V41V40.5H796.5V41V41.5H797H797.5V55.5H797H796.5V56V56.5H782.5V56V55.5H782H781.5V41.5H782Z" fill="white" stroke="#564319"/>
<path d="M788 43V42H791V43H788Z" fill="#564319"/>
<path d="M786 44V43H788V44H786Z" fill="#564319"/>
<path d="M785 45V44H786V45H785Z" fill="#564319"/>
<path d="M784 47V45H785V47H784Z" fill="#564319"/>
<path d="M784 50H783V47H784V50Z" fill="#564319"/>
<path d="M785 52H784V50H785V52Z" fill="#564319"/>
<path d="M786 53H785V52H786V53Z" fill="#564319"/>
<path d="M788 54H786V53H788V54Z" fill="#564319"/>
<path d="M791 54V55H788V54H791Z" fill="#564319"/>
<path d="M793 53V54H791V53H793Z" fill="#564319"/>
<path d="M794 52V53H793V52H794Z" fill="#564319"/>
<path d="M795 50V52H794V50H795Z" fill="#564319"/>
<path d="M795 47H796V50H795V47Z" fill="#564319"/>
<path d="M794 45H795V47H794V45Z" fill="#564319"/>
<path d="M793 44H794V45H793V44Z" fill="#564319"/>
<path d="M793 44V43H791V44H793Z" fill="#564319"/>
<path d="M789 46H790V48H792V49H790V51H789V49H787V48H789V46Z" fill="#564319"/>
<path d="M839 41.5H839.5V41V40.5H853.5V41V41.5H854H854.5V55.5H854H853.5V56V56.5H839.5V56V55.5H839H838.5V41.5H839Z" fill="white" stroke="#564319"/>
<path d="M845 43V42H848V43H845Z" fill="#564319"/>
<path d="M843 44V43H845V44H843Z" fill="#564319"/>
<path d="M842 45V44H843V45H842Z" fill="#564319"/>
<path d="M841 47V45H842V47H841Z" fill="#564319"/>
<path d="M841 50H840V47H841V50Z" fill="#564319"/>
<path d="M842 52H841V50H842V52Z" fill="#564319"/>
<path d="M843 53H842V52H843V53Z" fill="#564319"/>
<path d="M845 54H843V53H845V54Z" fill="#564319"/>
<path d="M848 54V55H845V54H848Z" fill="#564319"/>
<path d="M850 53V54H848V53H850Z" fill="#564319"/>
<path d="M851 52V53H850V52H851Z" fill="#564319"/>
<path d="M852 50V52H851V50H852Z" fill="#564319"/>
<path d="M852 47H853V50H852V47Z" fill="#564319"/>
<path d="M851 45H852V47H851V45Z" fill="#564319"/>
<path d="M850 44H851V45H850V44Z" fill="#564319"/>
<path d="M850 44V43H848V44H850Z" fill="#564319"/>
<path d="M844 49V48H849V49H844Z" fill="#564319"/>
<path d="M41 98.5H41.5V98V97.5H55.5V98V98.5H56H56.5V112.5H56H55.5V113V113.5H41.5V113V112.5H41H40.5V98.5H41Z" fill="white" stroke="#564319"/>
<path fill-rule="evenodd" clip-rule="evenodd" d="M54 111H43V100H54V111ZM44 101H50V102H49V103H48V104H47V105H46V106H45V108H49V109H53V110H44V101ZM49 106H48V107H46V106H47V105H48V104H49V103H50V102H51V101H53V102H52V103H51V104H50V105H49V106ZM49 106H50V105H51V104H52V103H53V108H50V107H49V106Z" fill="#564319"/>
<path d="M98 98.5H98.5V98V97.5H112.5V98V98.5H113H113.5V112.5H113H112.5V113V113.5H98.5V113V112.5H98H97.5V98.5H98Z" fill="white" stroke="#564319"/>
<path fill-rule="evenodd" clip-rule="evenodd" d="M100 111V100H105V111H100ZM101 101H104V110H101V101Z" fill="#564319"/>
<path fill-rule="evenodd" clip-rule="evenodd" d="M107 110H108V109H109V108H110V107H111V106H112V105H111V104H110V103H109V102H108V101H107V100H106V111H107V110ZM108 109H107V102H108V103H109V104H110V105H111V106H110V107H109V108H108V109Z" fill="#564319"/>
<path d="M155 98.5H155.5V98V97.5H169.5V98V98.5H170H170.5V112.5H170H169.5V113V113.5H155.5V113V112.5H155H154.5V98.5H155Z" fill="white" stroke="#564319"/>
<path fill-rule="evenodd" clip-rule="evenodd" d="M165 101H166V102H168V103H169V110H166V111H159V110H156V103H157V102H159V99H163V100H160V103H165V101ZM165 108H160V110H165V108ZM159 107V109H157V103H159V104H166V103H168V109H166V107H159Z" fill="#564319"/>
<path d="M165 101H163V100H165V101Z" fill="#564319"/>
<path d="M212 98.5H212.5V98V97.5H226.5V98V98.5H227H227.5V112.5H227H226.5V113V113.5H212.5V113V112.5H212H211.5V98.5H212Z" fill="white" stroke="#564319"/>
<path d="M218 107H217V108H218V107Z" fill="#564319"/>
<path d="M219 106H218V107H219V106Z" fill="#564319"/>
<path d="M219 105V106H220V107H221V108H222V107H221V106H220V105H221V104H222V103H221V104H220V105H219Z" fill="#564319"/>
<path d="M218 104H219V105H218V104Z" fill="#564319"/>
<path d="M218 104V103H217V104H218Z" fill="#564319"/>
<path fill-rule="evenodd" clip-rule="evenodd" d="M214 111V100H225V111H214ZM215 101H224V110H215V101Z" fill="#564319"/>
<path d="M269 98.5H269.5V98V97.5H283.5V98V98.5H284H284.5V112.5H284H283.5V113V113.5H269.5V113V112.5H269H268.5V98.5H269Z" fill="white" stroke="#564319"/>
<path fill-rule="evenodd" clip-rule="evenodd" d="M277 100V99H276V100H275V101H274V102H273V103H272V104H271V105H273V111H280V105H282V104H281V103H280V102H279V101H278V100H277ZM277 101H278V102H279V103H280V104H278V105H279V110H274V105H275V104H273V103H274V102H275V101H276V100H277V101Z" fill="#564319"/>
<path d="M326 98.5H326.5V98V97.5H340.5V98V98.5H341H341.5V112.5H341H340.5V113V113.5H326.5V113V112.5H326H325.5V98.5H326Z" fill="white" stroke="#564319"/>
<path fill-rule="evenodd" clip-rule="evenodd" d="M335 101H336V102H337V103H338V104H339V105H340V106H339V107H338V108H337V109H336V110H335V111H334V109H328V102H334V100H335V101ZM335 102H336V103H337V104H338V105H339V106H338V107H337V108H336V109H335V107H334V108H329V103H334V104H335V102Z" fill="#564319"/>
<path d="M383 98.5H383.5V98V97.5H397.5V98V98.5H398H398.5V112.5H398H397.5V113V113.5H383.5V113V112.5H383H382.5V98.5H383Z" fill="white" stroke="#564319"/>
<path fill-rule="evenodd" clip-rule="evenodd" d="M388 101V99H390V104H391V99H393V101H394V103H396V111H391V106H390V111H385V103H387V101H388ZM389 102H388V104H386V107H389V102ZM392 107H395V104H393V102H392V107ZM386 108V110H389V108H386ZM395 108H392V110H395V108Z" fill="#564319"/>
<path d="M440 98.5H440.5V98V97.5H454.5V98V98.5H455H455.5V112.5H455H454.5V113V113.5H440.5V113V112.5H440H439.5V98.5H440Z" fill="white" stroke="#564319"/>
<path d="M446 100H449V101H450V102H451V105H450V106H449V108H450V109H451V110H444V109H445V108H446V106H445V105H444V102H445V101H446V100Z" fill="#564319"/>
<path d="M497 98.5H497.5V98V97.5H511.5V98V98.5H512H512.5V112.5H512H511.5V113V113.5H497.5V113V112.5H497H496.5V98.5H497Z" fill="white" stroke="#564319"/>
<path fill-rule="evenodd" clip-rule="evenodd" d="M509 100H500V111H501V110H502V109H503V108H504V107H505V108H506V109H507V110H508V111H509V100ZM508 101H501V109H502V108H503V107H504V106H505V107H506V108H507V109H508V101Z" fill="#564319"/>
<path d="M554 98.5H554.5V98V97.5H568.5V98V98.5H569H569.5V112.5H569H568.5V113V113.5H554.5V113V112.5H554H553.5V98.5H554Z" fill="white" stroke="#564319"/>
<path fill-rule="evenodd" clip-rule="evenodd" d="M556 110V101H567V110H556ZM558 102H565V103H564V104H563V105H562V106H561V105H560V104H559V103H558V102ZM557 103H558V104H559V105H560V106H561V107H562V106H563V105H564V104H565V103H566V109H557V103Z" fill="#564319"/>
<path d="M611 98.5H611.5V98V97.5H625.5V98V98.5H626H626.5V112.5H626H625.5V113V113.5H611.5V113V112.5H611H610.5V98.5H611Z" fill="white" stroke="#564319"/>
<path d="M617 100H624V101H617V100Z" fill="#564319"/>
<path fill-rule="evenodd" clip-rule="evenodd" d="M617 103V101H616V103H613V104H612V109H613V110H616V111H617V112H618V111H619V110H620V109H622V108H623V107H624V106H625V101H624V106H622V108H621V104H620V103H617ZM620 104H613V109H616V110H617V111H618V109H620V104Z" fill="#564319"/>
<path d="M668 98.5H668.5V98V97.5H682.5V98V98.5H683H683.5V112.5H683H682.5V113V113.5H668.5V113V112.5H668H667.5V98.5H668Z" fill="white" stroke="#564319"/>
<path fill-rule="evenodd" clip-rule="evenodd" d="M674 100H672V103H673V104H670V106H671V109H672V110H677V109H678V110H681V104H678V105H677V104H676V103H675V102H674V100ZM680 105H679V109H680V105Z" fill="#564319"/>
<path d="M725 98.5H725.5V98V97.5H739.5V98V98.5H740H740.5V112.5H740H739.5V113V113.5H725.5V113V112.5H725H724.5V98.5H725Z" fill="white" stroke="#564319"/>
<path fill-rule="evenodd" clip-rule="evenodd" d="M730 107V106H731V107H732V108H733V109H734V111H736V108H735V107H738V105H737V102H736V101H731V102H730V101H727V107H730ZM728 106H729V102H728V106Z" fill="#564319"/>
<path d="M782 98.5H782.5V98V97.5H796.5V98V98.5H797H797.5V112.5H797H796.5V113V113.5H782.5V113V112.5H782H781.5V98.5H782Z" fill="white" stroke="#564319"/>
<path d="M790 100H789V101H788V102H787V103H789V109H790V103H792V102H791V101H790V100Z" fill="#564319"/>
<path d="M793 110H786V111H793V110Z" fill="#564319"/>
<path d="M839 98.5H839.5V98V97.5H853.5V98V98.5H854H854.5V112.5H854H853.5V113V113.5H839.5V113V112.5H839H838.5V98.5H839Z" fill="white" stroke="#564319"/>
<path d="M850 101H843V100H850V101Z" fill="#564319"/>
<path d="M847 111H846V110H845V109H844V108H846V102H847V108H849V109H848V110H847V111Z" fill="#564319"/>
<path d="M41 155.5H41.5V155V154.5H55.5V155V155.5H56H56.5V169.5H56H55.5V170V170.5H41.5V170V169.5H41H40.5V155.5H41Z" fill="#564319" stroke="#564319"/>
<path d="M45 157H43V159H45V157Z" fill="white"/>
<path d="M54 158H46V159H54V158Z" fill="white"/>
<path d="M43 161H45V163H43V161Z" fill="white"/>
<path d="M45 165H43V167H45V165Z" fill="white"/>
<path d="M46 162H54V163H46V162Z" fill="white"/>
<path d="M54 166H46V167H54V166Z" fill="white"/>
<path d="M98 155.5H98.5V155V154.5H112.5V155V155.5H113H113.5V169.5H113H112.5V170V170.5H98.5V170V169.5H98H97.5V155.5H98Z" fill="#564319" stroke="#564319"/>
<path d="M102 157H101V158H102V157Z" fill="white"/>
<path d="M111 158H103V159H111V158Z" fill="white"/>
<path d="M102 160V162H101V161H100V160H102Z" fill="white"/>
<path d="M101 162V163H100V162H101Z" fill="white"/>
<path d="M102 164H100V165H101V166H100V167H102V164Z" fill="white"/>
<path d="M103 162H111V163H103V162Z" fill="white"/>
<path d="M111 166H103V167H111V166Z" fill="white"/>
<path d="M155 155.5H155.5V155V154.5H169.5V155V155.5H170H170.5V169.5H170H169.5V170V170.5H155.5V170V169.5H155H154.5V155.5H155Z" fill="#564319" stroke="#564319"/>
<path d="M157 159H161V160H158V161H157V164H158V165H161V166H157V165H156V160H157V159Z" fill="white"/>
<path fill-rule="evenodd" clip-rule="evenodd" d="M164 165H161V164H159V161H161V160H164V161H166V164H164V165ZM160 163H165V162H160V163Z" fill="white"/>
<path d="M167 165V164H168V161H167V160H164V159H168V160H169V165H168V166H164V165H167Z" fill="white"/>
<path d="M212 155.5H212.5V155V154.5H226.5V155V155.5H227H227.5V169.5H227H226.5V170V170.5H212.5V170V169.5H212H211.5V155.5H212Z" fill="#564319" stroke="#564319"/>
<path fill-rule="evenodd" clip-rule="evenodd" d="M215 158V159H216V166H215V167H222V166H223V163H222V162H223V159H222V158H215ZM221 163H218V166H221V163ZM221 162H218V159H221V162Z" fill="white"/>
<path d="M269 155.5H269.5V155V154.5H283.5V155V155.5H284H284.5V169.5H284H283.5V170V170.5H269.5V170V169.5H269H268.5V155.5H269Z" fill="#564319" stroke="#564319"/>
<path d="M279 158V159H278V161H277V164H276V166H277V167H273V166H274V164H275V161H276V159H275V158H279Z" fill="white"/>
<path d="M326 155.5H326.5V155V154.5H340.5V155V155.5H341H341.5V169.5H341H340.5V170V170.5H326.5V170V169.5H326H325.5V155.5H326Z" fill="#564319" stroke="#564319"/>
<path d="M329 159H328V166H329V159Z" fill="white"/>
<path d="M337 160H336V162H330V163H336V165H337V164H338V163H339V162H338V161H337V160Z" fill="white"/>
<path d="M383 155.5H383.5V155V154.5H397.5V155V155.5H398H398.5V169.5H398H397.5V170V170.5H383.5V170V169.5H383H382.5V155.5H383Z" fill="#564319" stroke="#564319"/>
<path fill-rule="evenodd" clip-rule="evenodd" d="M387 157H386V167V168H387H395V160H394V159H393V158H392V157H387ZM387 158H392V159H393V160H394V167H387V158Z" fill="white"/>
<path d="M440 155.5H440.5V155V154.5H454.5V155V155.5H455H455.5V169.5H455H454.5V170V170.5H440.5V170V169.5H440H439.5V155.5H440Z" fill="#564319" stroke="#564319"/>
<path d="M448 162V160H447V162H445V163H447V165H448V163H450V162H448Z" fill="white"/>
<path fill-rule="evenodd" clip-rule="evenodd" d="M443 157V168H452V160H451V159H450V158H449V157H443ZM449 158V159H450V160H451V167H444V158H449Z" fill="white"/>
<path d="M497 155.5H497.5V155V154.5H511.5V155V155.5H512H512.5V169.5H512H511.5V170V170.5H497.5V170V169.5H497H496.5V155.5H497Z" fill="#564319" stroke="#564319"/>
<path d="M502 159H505V160H502V159Z" fill="white"/>
<path d="M507 161H502V162H507V161Z" fill="white"/>
<path d="M502 163H507V164H502V163Z" fill="white"/>
<path d="M507 165H502V166H507V165Z" fill="white"/>
<path fill-rule="evenodd" clip-rule="evenodd" d="M500 157V168H509V160H508V159H507V158H506V157H500ZM506 158V159H507V160H508V167H501V158H506Z" fill="white"/>
<path d="M554 155.5H554.5V155V154.5H568.5V155V155.5H569H569.5V169.5H569H568.5V170V170.5H554.5V170V169.5H554H553.5V155.5H554Z" fill="#564319" stroke="#564319"/>
<path d="M565 159H558V161H565V159Z" fill="white"/>
<path d="M558 162H560V166H558V162Z" fill="white"/>
<path d="M565 162H561V166H565V162Z" fill="white"/>
<path fill-rule="evenodd" clip-rule="evenodd" d="M556 157H567V168H556V157ZM557 158H566V167H557V158Z" fill="white"/>
<path d="M611 155.5H611.5V155V154.5H625.5V155V155.5H626H626.5V169.5H626H625.5V170V170.5H611.5V170V169.5H611H610.5V155.5H611Z" fill="#564319" stroke="#564319"/>
<path d="M619 158H617V160H615V158H616V157H620V158H621V162H620V163H619V165H617V163H618V162H619V158Z" fill="white"/>
<path d="M617 168V166H619V168H617Z" fill="white"/>
<path d="M668 155.5H668.5V155V154.5H682.5V155V155.5H683H683.5V169.5H683H682.5V170V170.5H668.5V170V169.5H668H667.5V155.5H668Z" fill="#564319" stroke="#564319"/>
<path fill-rule="evenodd" clip-rule="evenodd" d="M670 165V160H673V163H671V165H670ZM671 162H672V161H671V162Z" fill="white"/>
<path d="M674 160H676V161H675V164H676V165H674V160Z" fill="white"/>
<path d="M676 164H677V161H676V164Z" fill="white"/>
<path d="M679 162H680V163H679V165H678V160H681V161H679V162Z" fill="white"/>
<path d="M725 155.5H725.5V155V154.5H739.5V155V155.5H740H740.5V169.5H740H739.5V170V170.5H725.5V170V169.5H725H724.5V155.5H725Z" fill="#564319" stroke="#564319"/>
<path d="M735 165H736V166H735V165Z" fill="white"/>
<path d="M734 164H735V165H734V164Z" fill="white"/>
<path d="M733 163H734V164H733V163Z" fill="white"/>
<path d="M732 162H733V163H732V162Z" fill="white"/>
<path d="M731 161H732V162H731V161Z" fill="white"/>
<path d="M730 160H731V161H730V160Z" fill="white"/>
<path d="M730 160V159H729V160H730Z" fill="white"/>
<path fill-rule="evenodd" clip-rule="evenodd" d="M727 157V168H738V157H727ZM737 158H729V159H728V167H736V166H737V158Z" fill="white"/>
<path d="M782 155.5H782.5V155V154.5H796.5V155V155.5H797H797.5V169.5H797H796.5V170V170.5H782.5V170V169.5H782H781.5V155.5H782Z" fill="#564319" stroke="#564319"/>
<path d="M788 157V156H791V157H788Z" fill="white"/>
<path d="M786 158V157H788V158H786Z" fill="white"/>
<path d="M785 159V158H786V159H785Z" fill="white"/>
<path d="M784 161V159H785V161H784Z" fill="white"/>
<path d="M784 164H783V161H784V164Z" fill="white"/>
<path d="M785 166H784V164H785V166Z" fill="white"/>
<path d="M786 167H785V166H786V167Z" fill="white"/>
<path d="M788 168H786V167H788V168Z" fill="white"/>
<path d="M791 168V169H788V168H791Z" fill="white"/>
<path d="M793 167V168H791V167H793Z" fill="white"/>
<path d="M794 166V167H793V166H794Z" fill="white"/>
<path d="M795 164V166H794V164H795Z" fill="white"/>
<path d="M795 161H796V164H795V161Z" fill="white"/>
<path d="M794 159H795V161H794V159Z" fill="white"/>
<path d="M793 158H794V159H793V158Z" fill="white"/>
<path d="M793 158V157H791V158H793Z" fill="white"/>
<path d="M789 160H790V162H792V163H790V165H789V163H787V162H789V160Z" fill="white"/>
<path d="M839 155.5H839.5V155V154.5H853.5V155V155.5H854H854.5V169.5H854H853.5V170V170.5H839.5V170V169.5H839H838.5V155.5H839Z" fill="#564319" stroke="#564319"/>
<path d="M845 157V156H848V157H845Z" fill="white"/>
<path d="M843 158V157H845V158H843Z" fill="white"/>
<path d="M842 159V158H843V159H842Z" fill="white"/>
<path d="M841 161V159H842V161H841Z" fill="white"/>
<path d="M841 164H840V161H841V164Z" fill="white"/>
<path d="M842 166H841V164H842V166Z" fill="white"/>
<path d="M843 167H842V166H843V167Z" fill="white"/>
<path d="M845 168H843V167H845V168Z" fill="white"/>
<path d="M848 168V169H845V168H848Z" fill="white"/>
<path d="M850 167V168H848V167H850Z" fill="white"/>
<path d="M851 166V167H850V166H851Z" fill="white"/>
<path d="M852 164V166H851V164H852Z" fill="white"/>
<path d="M852 161H853V164H852V161Z" fill="white"/>
<path d="M851 159H852V161H851V159Z" fill="white"/>
<path d="M850 158H851V159H850V158Z" fill="white"/>
<path d="M850 158V157H848V158H850Z" fill="white"/>
<path d="M844 163V162H849V163H844Z" fill="white"/>
<path d="M41 212.5H41.5V212V211.5H55.5V212V212.5H56H56.5V226.5H56H55.5V227V227.5H41.5V227V226.5H41H40.5V212.5H41Z" fill="#564319" stroke="#564319"/>
<path fill-rule="evenodd" clip-rule="evenodd" d="M54 225H43V214H54V225ZM44 215H50V216H49V217H48V218H47V219H46V220H45V222H49V223H53V224H44V215ZM49 220H48V221H46V220H47V219H48V218H49V217H50V216H51V215H53V216H52V217H51V218H50V219H49V220ZM49 220H50V219H51V218H52V217H53V222H50V221H49V220Z" fill="white"/>
<path d="M98 212.5H98.5V212V211.5H112.5V212V212.5H113H113.5V226.5H113H112.5V227V227.5H98.5V227V226.5H98H97.5V212.5H98Z" fill="#564319" stroke="#564319"/>
<path fill-rule="evenodd" clip-rule="evenodd" d="M100 225V214H105V225H100ZM101 215H104V224H101V215Z" fill="white"/>
<path fill-rule="evenodd" clip-rule="evenodd" d="M107 224H108V223H109V222H110V221H111V220H112V219H111V218H110V217H109V216H108V215H107V214H106V225H107V224ZM108 223H107V216H108V217H109V218H110V219H111V220H110V221H109V222H108V223Z" fill="white"/>
<path d="M155 212.5H155.5V212V211.5H169.5V212V212.5H170H170.5V226.5H170H169.5V227V227.5H155.5V227V226.5H155H154.5V212.5H155Z" fill="#564319" stroke="#564319"/>
<path fill-rule="evenodd" clip-rule="evenodd" d="M165 215H166V216H168V217H169V224H166V225H159V224H156V217H157V216H159V213H163V214H160V217H165V215ZM165 222H160V224H165V222ZM159 221V223H157V217H159V218H166V217H168V223H166V221H159Z" fill="white"/>
<path d="M165 215H163V214H165V215Z" fill="white"/>
<path d="M212 212.5H212.5V212V211.5H226.5V212V212.5H227H227.5V226.5H227H226.5V227V227.5H212.5V227V226.5H212H211.5V212.5H212Z" fill="#564319" stroke="#564319"/>
<path d="M218 221H217V222H218V221Z" fill="white"/>
<path d="M219 220H218V221H219V220Z" fill="white"/>
<path d="M219 219V220H220V221H221V222H222V221H221V220H220V219H221V218H222V217H221V218H220V219H219Z" fill="white"/>
<path d="M218 218H219V219H218V218Z" fill="white"/>
<path d="M218 218V217H217V218H218Z" fill="white"/>
<path fill-rule="evenodd" clip-rule="evenodd" d="M214 225V214H225V225H214ZM215 215H224V224H215V215Z" fill="white"/>
<path d="M269 212.5H269.5V212V211.5H283.5V212V212.5H284H284.5V226.5H284H283.5V227V227.5H269.5V227V226.5H269H268.5V212.5H269Z" fill="#564319" stroke="#564319"/>
<path fill-rule="evenodd" clip-rule="evenodd" d="M277 214V213H276V214H275V215H274V216H273V217H272V218H271V219H273V225H280V219H282V218H281V217H280V216H279V215H278V214H277ZM277 215H278V216H279V217H280V218H278V219H279V224H274V219H275V218H273V217H274V216H275V215H276V214H277V215Z" fill="white"/>
<path d="M326 212.5H326.5V212V211.5H340.5V212V212.5H341H341.5V226.5H341H340.5V227V227.5H326.5V227V226.5H326H325.5V212.5H326Z" fill="#564319" stroke="#564319"/>
<path fill-rule="evenodd" clip-rule="evenodd" d="M335 215H336V216H337V217H338V218H339V219H340V220H339V221H338V222H337V223H336V224H335V225H334V223H328V216H334V214H335V215ZM335 216H336V217H337V218H338V219H339V220H338V221H337V222H336V223H335V221H334V222H329V217H334V218H335V216Z" fill="white"/>
<path d="M383 212.5H383.5V212V211.5H397.5V212V212.5H398H398.5V226.5H398H397.5V227V227.5H383.5V227V226.5H383H382.5V212.5H383Z" fill="#564319" stroke="#564319"/>
<path fill-rule="evenodd" clip-rule="evenodd" d="M388 215V213H390V218H391V213H393V215H394V217H396V225H391V220H390V225H385V217H387V215H388ZM389 216H388V218H386V221H389V216ZM392 221H395V218H393V216H392V221ZM386 222V224H389V222H386ZM395 222H392V224H395V222Z" fill="white"/>
<path d="M440 212.5H440.5V212V211.5H454.5V212V212.5H455H455.5V226.5H455H454.5V227V227.5H440.5V227V226.5H440H439.5V212.5H440Z" fill="#564319" stroke="#564319"/>
<path d="M446 214H449V215H450V216H451V219H450V220H449V222H450V223H451V224H444V223H445V222H446V220H445V219H444V216H445V215H446V214Z" fill="white"/>
<path d="M497 212.5H497.5V212V211.5H511.5V212V212.5H512H512.5V226.5H512H511.5V227V227.5H497.5V227V226.5H497H496.5V212.5H497Z" fill="#564319" stroke="#564319"/>
<path fill-rule="evenodd" clip-rule="evenodd" d="M509 214H500V225H501V224H502V223H503V222H504V221H505V222H506V223H507V224H508V225H509V214ZM508 215H501V223H502V222H503V221H504V220H505V221H506V222H507V223H508V215Z" fill="white"/>
<path d="M554 212.5H554.5V212V211.5H568.5V212V212.5H569H569.5V226.5H569H568.5V227V227.5H554.5V227V226.5H554H553.5V212.5H554Z" fill="#564319" stroke="#564319"/>
<path fill-rule="evenodd" clip-rule="evenodd" d="M556 224V215H567V224H556ZM558 216H565V217H564V218H563V219H562V220H561V219H560V218H559V217H558V216ZM557 217H558V218H559V219H560V220H561V221H562V220H563V219H564V218H565V217H566V223H557V217Z" fill="white"/>
<path d="M611 212.5H611.5V212V211.5H625.5V212V212.5H626H626.5V226.5H626H625.5V227V227.5H611.5V227V226.5H611H610.5V212.5H611Z" fill="#564319" stroke="#564319"/>
<path d="M617 214H624V215H617V214Z" fill="white"/>
<path fill-rule="evenodd" clip-rule="evenodd" d="M617 217V215H616V217H613V218H612V223H613V224H616V225H617V226H618V225H619V224H620V223H622V222H623V221H624V220H625V215H624V220H622V222H621V218H620V217H617ZM620 218H613V223H616V224H617V225H618V223H620V218Z" fill="white"/>
<path d="M668 212.5H668.5V212V211.5H682.5V212V212.5H683H683.5V226.5H683H682.5V227V227.5H668.5V227V226.5H668H667.5V212.5H668Z" fill="#564319" stroke="#564319"/>
<path fill-rule="evenodd" clip-rule="evenodd" d="M674 214H672V217H673V218H670V220H671V223H672V224H677V223H678V224H681V218H678V219H677V218H676V217H675V216H674V214ZM680 219H679V223H680V219Z" fill="white"/>
<path d="M725 212.5H725.5V212V211.5H739.5V212V212.5H740H740.5V226.5H740H739.5V227V227.5H725.5V227V226.5H725H724.5V212.5H725Z" fill="#564319" stroke="#564319"/>
<path fill-rule="evenodd" clip-rule="evenodd" d="M730 221V220H731V221H732V222H733V223H734V225H736V222H735V221H738V219H737V216H736V215H731V216H730V215H727V221H730ZM728 220H729V216H728V220Z" fill="white"/>
<path d="M782 212.5H782.5V212V211.5H796.5V212V212.5H797H797.5V226.5H797H796.5V227V227.5H782.5V227V226.5H782H781.5V212.5H782Z" fill="#564319" stroke="#564319"/>
<path d="M790 214H789V215H788V216H787V217H789V223H790V217H792V216H791V215H790V214Z" fill="white"/>
<path d="M793 224H786V225H793V224Z" fill="white"/>
<path d="M839 212.5H839.5V212V211.5H853.5V212V212.5H854H854.5V226.5H854H853.5V227V227.5H839.5V227V226.5H839H838.5V212.5H839Z" fill="#564319" stroke="#564319"/>
<path d="M850 215H843V214H850V215Z" fill="white"/>
<path d="M847 225H846V224H845V223H844V222H846V216H847V222H849V223H848V224H847V225Z" fill="white"/>
<path d="M41 269.5H41.5V269V268.5H55.5V269V269.5H56H56.5V283.5H56H55.5V284V284.5H41.5V284V283.5H41H40.5V269.5H41Z" fill="white" stroke="#97B4A9"/>
<path d="M45 271H43V273H45V271Z" fill="#97B4A9"/>
<path d="M54 272H46V273H54V272Z" fill="#97B4A9"/>
<path d="M43 275H45V277H43V275Z" fill="#97B4A9"/>
<path d="M45 279H43V281H45V279Z" fill="#97B4A9"/>
<path d="M46 276H54V277H46V276Z" fill="#97B4A9"/>
<path d="M54 280H46V281H54V280Z" fill="#97B4A9"/>
<path d="M98 269.5H98.5V269V268.5H112.5V269V269.5H113H113.5V283.5H113H112.5V284V284.5H98.5V284V283.5H98H97.5V269.5H98Z" fill="white" stroke="#97B4A9"/>
<path d="M102 271H101V272H102V271Z" fill="#97B4A9"/>
<path d="M111 272H103V273H111V272Z" fill="#97B4A9"/>
<path d="M102 274V276H101V275H100V274H102Z" fill="#97B4A9"/>
<path d="M101 276V277H100V276H101Z" fill="#97B4A9"/>
<path d="M102 278H100V279H101V280H100V281H102V278Z" fill="#97B4A9"/>
<path d="M103 276H111V277H103V276Z" fill="#97B4A9"/>
<path d="M111 280H103V281H111V280Z" fill="#97B4A9"/>
<path d="M155 269.5H155.5V269V268.5H169.5V269V269.5H170H170.5V283.5H170H169.5V284V284.5H155.5V284V283.5H155H154.5V269.5H155Z" fill="white" stroke="#97B4A9"/>
<path d="M157 273H161V274H158V275H157V278H158V279H161V280H157V279H156V274H157V273Z" fill="#97B4A9"/>
<path fill-rule="evenodd" clip-rule="evenodd" d="M164 279H161V278H159V275H161V274H164V275H166V278H164V279ZM160 277H165V276H160V277Z" fill="#97B4A9"/>
<path d="M167 279V278H168V275H167V274H164V273H168V274H169V279H168V280H164V279H167Z" fill="#97B4A9"/>
<path d="M212 269.5H212.5V269V268.5H226.5V269V269.5H227H227.5V283.5H227H226.5V284V284.5H212.5V284V283.5H212H211.5V269.5H212Z" fill="white" stroke="#97B4A9"/>
<path fill-rule="evenodd" clip-rule="evenodd" d="M215 272V273H216V280H215V281H222V280H223V277H222V276H223V273H222V272H215ZM221 277H218V280H221V277ZM221 276H218V273H221V276Z" fill="#97B4A9"/>
<path d="M269 269.5H269.5V269V268.5H283.5V269V269.5H284H284.5V283.5H284H283.5V284V284.5H269.5V284V283.5H269H268.5V269.5H269Z" fill="white" stroke="#97B4A9"/>
<path d="M279 272V273H278V275H277V278H276V280H277V281H273V280H274V278H275V275H276V273H275V272H279Z" fill="#97B4A9"/>
<path d="M326 269.5H326.5V269V268.5H340.5V269V269.5H341H341.5V283.5H341H340.5V284V284.5H326.5V284V283.5H326H325.5V269.5H326Z" fill="white" stroke="#97B4A9"/>
<path d="M329 273H328V280H329V273Z" fill="#97B4A9"/>
<path d="M337 274H336V276H330V277H336V279H337V278H338V277H339V276H338V275H337V274Z" fill="#97B4A9"/>
<path d="M383 269.5H383.5V269V268.5H397.5V269V269.5H398H398.5V283.5H398H397.5V284V284.5H383.5V284V283.5H383H382.5V269.5H383Z" fill="white" stroke="#97B4A9"/>
<path fill-rule="evenodd" clip-rule="evenodd" d="M387 271H386V281V282H387H395V274H394V273H393V272H392V271H387ZM387 272H392V273H393V274H394V281H387V272Z" fill="#97B4A9"/>
<path d="M440 269.5H440.5V269V268.5H454.5V269V269.5H455H455.5V283.5H455H454.5V284V284.5H440.5V284V283.5H440H439.5V269.5H440Z" fill="white" stroke="#97B4A9"/>
<path d="M448 276V274H447V276H445V277H447V279H448V277H450V276H448Z" fill="#97B4A9"/>
<path fill-rule="evenodd" clip-rule="evenodd" d="M443 271V282H452V274H451V273H450V272H449V271H443ZM449 272V273H450V274H451V281H444V272H449Z" fill="#97B4A9"/>
<path d="M497 269.5H497.5V269V268.5H511.5V269V269.5H512H512.5V283.5H512H511.5V284V284.5H497.5V284V283.5H497H496.5V269.5H497Z" fill="white" stroke="#97B4A9"/>
<path d="M502 273H505V274H502V273Z" fill="#97B4A9"/>
<path d="M507 275H502V276H507V275Z" fill="#97B4A9"/>
<path d="M502 277H507V278H502V277Z" fill="#97B4A9"/>
<path d="M507 279H502V280H507V279Z" fill="#97B4A9"/>
<path fill-rule="evenodd" clip-rule="evenodd" d="M500 271V282H509V274H508V273H507V272H506V271H500ZM506 272V273H507V274H508V281H501V272H506Z" fill="#97B4A9"/>
<path d="M554 269.5H554.5V269V268.5H568.5V269V269.5H569H569.5V283.5H569H568.5V284V284.5H554.5V284V283.5H554H553.5V269.5H554Z" fill="white" stroke="#97B4A9"/>
<path d="M565 273H558V275H565V273Z" fill="#97B4A9"/>
<path d="M558 276H560V280H558V276Z" fill="#97B4A9"/>
<path d="M565 276H561V280H565V276Z" fill="#97B4A9"/>
<path fill-rule="evenodd" clip-rule="evenodd" d="M556 271H567V282H556V271ZM557 272H566V281H557V272Z" fill="#97B4A9"/>
<path d="M611 269.5H611.5V269V268.5H625.5V269V269.5H626H626.5V283.5H626H625.5V284V284.5H611.5V284V283.5H611H610.5V269.5H611Z" fill="white" stroke="#97B4A9"/>
<path d="M619 272H617V274H615V272H616V271H620V272H621V276H620V277H619V279H617V277H618V276H619V272Z" fill="#97B4A9"/>
<path d="M617 282V280H619V282H617Z" fill="#97B4A9"/>
<path d="M668 269.5H668.5V269V268.5H682.5V269V269.5H683H683.5V283.5H683H682.5V284V284.5H668.5V284V283.5H668H667.5V269.5H668Z" fill="white" stroke="#97B4A9"/>
<path fill-rule="evenodd" clip-rule="evenodd" d="M670 279V274H673V277H671V279H670ZM671 276H672V275H671V276Z" fill="#97B4A9"/>
<path d="M674 274H676V275H675V278H676V279H674V274Z" fill="#97B4A9"/>
<path d="M676 278H677V275H676V278Z" fill="#97B4A9"/>
<path d="M679 276H680V277H679V279H678V274H681V275H679V276Z" fill="#97B4A9"/>
<path d="M725 269.5H725.5V269V268.5H739.5V269V269.5H740H740.5V283.5H740H739.5V284V284.5H725.5V284V283.5H725H724.5V269.5H725Z" fill="white" stroke="#97B4A9"/>
<path d="M735 279H736V280H735V279Z" fill="#97B4A9"/>
<path d="M734 278H735V279H734V278Z" fill="#97B4A9"/>
<path d="M733 277H734V278H733V277Z" fill="#97B4A9"/>
<path d="M732 276H733V277H732V276Z" fill="#97B4A9"/>
<path d="M731 275H732V276H731V275Z" fill="#97B4A9"/>
<path d="M730 274H731V275H730V274Z" fill="#97B4A9"/>
<path d="M730 274V273H729V274H730Z" fill="#97B4A9"/>
<path fill-rule="evenodd" clip-rule="evenodd" d="M727 271V282H738V271H727ZM737 272H729V273H728V281H736V280H737V272Z" fill="#97B4A9"/>
<path d="M782 269.5H782.5V269V268.5H796.5V269V269.5H797H797.5V283.5H797H796.5V284V284.5H782.5V284V283.5H782H781.5V269.5H782Z" fill="white" stroke="#97B4A9"/>
<path d="M788 271V270H791V271H788Z" fill="#97B4A9"/>
<path d="M786 272V271H788V272H786Z" fill="#97B4A9"/>
<path d="M785 273V272H786V273H785Z" fill="#97B4A9"/>
<path d="M784 275V273H785V275H784Z" fill="#97B4A9"/>
<path d="M784 278H783V275H784V278Z" fill="#97B4A9"/>
<path d="M785 280H784V278H785V280Z" fill="#97B4A9"/>
<path d="M786 281H785V280H786V281Z" fill="#97B4A9"/>
<path d="M788 282H786V281H788V282Z" fill="#97B4A9"/>
<path d="M791 282V283H788V282H791Z" fill="#97B4A9"/>
<path d="M793 281V282H791V281H793Z" fill="#97B4A9"/>
<path d="M794 280V281H793V280H794Z" fill="#97B4A9"/>
<path d="M795 278V280H794V278H795Z" fill="#97B4A9"/>
<path d="M795 275H796V278H795V275Z" fill="#97B4A9"/>
<path d="M794 273H795V275H794V273Z" fill="#97B4A9"/>
<path d="M793 272H794V273H793V272Z" fill="#97B4A9"/>
<path d="M793 272V271H791V272H793Z" fill="#97B4A9"/>
<path d="M789 274H790V276H792V277H790V279H789V277H787V276H789V274Z" fill="#97B4A9"/>
<path d="M839 269.5H839.5V269V268.5H853.5V269V269.5H854H854.5V283.5H854H853.5V284V284.5H839.5V284V283.5H839H838.5V269.5H839Z" fill="white" stroke="#97B4A9"/>
<path d="M845 271V270H848V271H845Z" fill="#97B4A9"/>
<path d="M843 272V271H845V272H843Z" fill="#97B4A9"/>
<path d="M842 273V272H843V273H842Z" fill="#97B4A9"/>
<path d="M841 275V273H842V275H841Z" fill="#97B4A9"/>
<path d="M841 278H840V275H841V278Z" fill="#97B4A9"/>
<path d="M842 280H841V278H842V280Z" fill="#97B4A9"/>
<path d="M843 281H842V280H843V281Z" fill="#97B4A9"/>
<path d="M845 282H843V281H845V282Z" fill="#97B4A9"/>
<path d="M848 282V283H845V282H848Z" fill="#97B4A9"/>
<path d="M850 281V282H848V281H850Z" fill="#97B4A9"/>
<path d="M851 280V281H850V280H851Z" fill="#97B4A9"/>
<path d="M852 278V280H851V278H852Z" fill="#97B4A9"/>
<path d="M852 275H853V278H852V275Z" fill="#97B4A9"/>
<path d="M851 273H852V275H851V273Z" fill="#97B4A9"/>
<path d="M850 272H851V273H850V272Z" fill="#97B4A9"/>
<path d="M850 272V271H848V272H850Z" fill="#97B4A9"/>
<path d="M844 277V276H849V277H844Z" fill="#97B4A9"/>
<path d="M41 326.5H41.5V326V325.5H55.5V326V326.5H56H56.5V340.5H56H55.5V341V341.5H41.5V341V340.5H41H40.5V326.5H41Z" fill="white" stroke="#97B4A9"/>
<path fill-rule="evenodd" clip-rule="evenodd" d="M54 339H43V328H54V339ZM44 329H50V330H49V331H48V332H47V333H46V334H45V336H49V337H53V338H44V329ZM49 334H48V335H46V334H47V333H48V332H49V331H50V330H51V329H53V330H52V331H51V332H50V333H49V334ZM49 334H50V333H51V332H52V331H53V336H50V335H49V334Z" fill="#97B4A9"/>
<path d="M98 326.5H98.5V326V325.5H112.5V326V326.5H113H113.5V340.5H113H112.5V341V341.5H98.5V341V340.5H98H97.5V326.5H98Z" fill="white" stroke="#97B4A9"/>
<path fill-rule="evenodd" clip-rule="evenodd" d="M100 339V328H105V339H100ZM101 329H104V338H101V329Z" fill="#97B4A9"/>
<path fill-rule="evenodd" clip-rule="evenodd" d="M107 338H108V337H109V336H110V335H111V334H112V333H111V332H110V331H109V330H108V329H107V328H106V339H107V338ZM108 337H107V330H108V331H109V332H110V333H111V334H110V335H109V336H108V337Z" fill="#97B4A9"/>
<path d="M155 326.5H155.5V326V325.5H169.5V326V326.5H170H170.5V340.5H170H169.5V341V341.5H155.5V341V340.5H155H154.5V326.5H155Z" fill="white" stroke="#97B4A9"/>
<path fill-rule="evenodd" clip-rule="evenodd" d="M165 329H166V330H168V331H169V338H166V339H159V338H156V331H157V330H159V327H163V328H160V331H165V329ZM165 336H160V338H165V336ZM159 335V337H157V331H159V332H166V331H168V337H166V335H159Z" fill="#97B4A9"/>
<path d="M165 329H163V328H165V329Z" fill="#97B4A9"/>
<path d="M212 326.5H212.5V326V325.5H226.5V326V326.5H227H227.5V340.5H227H226.5V341V341.5H212.5V341V340.5H212H211.5V326.5H212Z" fill="white" stroke="#97B4A9"/>
<path d="M218 335H217V336H218V335Z" fill="#97B4A9"/>
<path d="M219 334H218V335H219V334Z" fill="#97B4A9"/>
<path d="M219 333V334H220V335H221V336H222V335H221V334H220V333H221V332H222V331H221V332H220V333H219Z" fill="#97B4A9"/>
<path d="M218 332H219V333H218V332Z" fill="#97B4A9"/>
<path d="M218 332V331H217V332H218Z" fill="#97B4A9"/>
<path fill-rule="evenodd" clip-rule="evenodd" d="M214 339V328H225V339H214ZM215 329H224V338H215V329Z" fill="#97B4A9"/>
<path d="M269 326.5H269.5V326V325.5H283.5V326V326.5H284H284.5V340.5H284H283.5V341V341.5H269.5V341V340.5H269H268.5V326.5H269Z" fill="white" stroke="#97B4A9"/>
<path fill-rule="evenodd" clip-rule="evenodd" d="M277 328V327H276V328H275V329H274V330H273V331H272V332H271V333H273V339H280V333H282V332H281V331H280V330H279V329H278V328H277ZM277 329H278V330H279V331H280V332H278V333H279V338H274V333H275V332H273V331H274V330H275V329H276V328H277V329Z" fill="#97B4A9"/>
<path d="M326 326.5H326.5V326V325.5H340.5V326V326.5H341H341.5V340.5H341H340.5V341V341.5H326.5V341V340.5H326H325.5V326.5H326Z" fill="white" stroke="#97B4A9"/>
<path fill-rule="evenodd" clip-rule="evenodd" d="M335 329H336V330H337V331H338V332H339V333H340V334H339V335H338V336H337V337H336V338H335V339H334V337H328V330H334V328H335V329ZM335 330H336V331H337V332H338V333H339V334H338V335H337V336H336V337H335V335H334V336H329V331H334V332H335V330Z" fill="#97B4A9"/>
<path d="M383 326.5H383.5V326V325.5H397.5V326V326.5H398H398.5V340.5H398H397.5V341V341.5H383.5V341V340.5H383H382.5V326.5H383Z" fill="white" stroke="#97B4A9"/>
<path fill-rule="evenodd" clip-rule="evenodd" d="M388 329V327H390V332H391V327H393V329H394V331H396V339H391V334H390V339H385V331H387V329H388ZM389 330H388V332H386V335H389V330ZM392 335H395V332H393V330H392V335ZM386 336V338H389V336H386ZM395 336H392V338H395V336Z" fill="#97B4A9"/>
<path d="M440 326.5H440.5V326V325.5H454.5V326V326.5H455H455.5V340.5H455H454.5V341V341.5H440.5V341V340.5H440H439.5V326.5H440Z" fill="white" stroke="#97B4A9"/>
<path d="M446 328H449V329H450V330H451V333H450V334H449V336H450V337H451V338H444V337H445V336H446V334H445V333H444V330H445V329H446V328Z" fill="#97B4A9"/>
<path d="M497 326.5H497.5V326V325.5H511.5V326V326.5H512H512.5V340.5H512H511.5V341V341.5H497.5V341V340.5H497H496.5V326.5H497Z" fill="white" stroke="#97B4A9"/>
<path fill-rule="evenodd" clip-rule="evenodd" d="M509 328H500V339H501V338H502V337H503V336H504V335H505V336H506V337H507V338H508V339H509V328ZM508 329H501V337H502V336H503V335H504V334H505V335H506V336H507V337H508V329Z" fill="#97B4A9"/>
<path d="M554 326.5H554.5V326V325.5H568.5V326V326.5H569H569.5V340.5H569H568.5V341V341.5H554.5V341V340.5H554H553.5V326.5H554Z" fill="white" stroke="#97B4A9"/>
<path fill-rule="evenodd" clip-rule="evenodd" d="M556 338V329H567V338H556ZM558 330H565V331H564V332H563V333H562V334H561V333H560V332H559V331H558V330ZM557 331H558V332H559V333H560V334H561V335H562V334H563V333H564V332H565V331H566V337H557V331Z" fill="#97B4A9"/>
<path d="M611 326.5H611.5V326V325.5H625.5V326V326.5H626H626.5V340.5H626H625.5V341V341.5H611.5V341V340.5H611H610.5V326.5H611Z" fill="white" stroke="#97B4A9"/>
<path d="M617 328H624V329H617V328Z" fill="#97B4A9"/>
<path fill-rule="evenodd" clip-rule="evenodd" d="M617 331V329H616V331H613V332H612V337H613V338H616V339H617V340H618V339H619V338H620V337H622V336H623V335H624V334H625V329H624V334H622V336H621V332H620V331H617ZM620 332H613V337H616V338H617V339H618V337H620V332Z" fill="#97B4A9"/>
<path d="M668 326.5H668.5V326V325.5H682.5V326V326.5H683H683.5V340.5H683H682.5V341V341.5H668.5V341V340.5H668H667.5V326.5H668Z" fill="white" stroke="#97B4A9"/>
<path fill-rule="evenodd" clip-rule="evenodd" d="M674 328H672V331H673V332H670V334H671V337H672V338H677V337H678V338H681V332H678V333H677V332H676V331H675V330H674V328ZM680 333H679V337H680V333Z" fill="#97B4A9"/>
<path d="M725 326.5H725.5V326V325.5H739.5V326V326.5H740H740.5V340.5H740H739.5V341V341.5H725.5V341V340.5H725H724.5V326.5H725Z" fill="white" stroke="#97B4A9"/>
<path fill-rule="evenodd" clip-rule="evenodd" d="M730 335V334H731V335H732V336H733V337H734V339H736V336H735V335H738V333H737V330H736V329H731V330H730V329H727V335H730ZM728 334H729V330H728V334Z" fill="#97B4A9"/>
<path d="M782 326.5H782.5V326V325.5H796.5V326V326.5H797H797.5V340.5H797H796.5V341V341.5H782.5V341V340.5H782H781.5V326.5H782Z" fill="white" stroke="#97B4A9"/>
<path d="M790 328H789V329H788V330H787V331H789V337H790V331H792V330H791V329H790V328Z" fill="#97B4A9"/>
<path d="M793 338H786V339H793V338Z" fill="#97B4A9"/>
<path d="M839 326.5H839.5V326V325.5H853.5V326V326.5H854H854.5V340.5H854H853.5V341V341.5H839.5V341V340.5H839H838.5V326.5H839Z" fill="white" stroke="#97B4A9"/>
<path d="M850 329H843V328H850V329Z" fill="#97B4A9"/>
<path d="M847 339H846V338H845V337H844V336H846V330H847V336H849V337H848V338H847V339Z" fill="#97B4A9"/>
<path d="M41 383.5H41.5V383V382.5H55.5V383V383.5H56H56.5V397.5H56H55.5V398V398.5H41.5V398V397.5H41H40.5V383.5H41Z" fill="#97B4A9" stroke="#97B4A9"/>
<path d="M49 390V388H48V390H46V391H48V393H49V391H51V390H49Z" fill="white"/>
<path fill-rule="evenodd" clip-rule="evenodd" d="M44 385V396H53V388H52V387H51V386H50V385H44ZM50 386V387H51V388H52V395H45V386H50Z" fill="white"/>
<path d="M98 383.5H98.5V383V382.5H112.5V383V383.5H113H113.5V397.5H113H112.5V398V398.5H98.5V398V397.5H98H97.5V383.5H98Z" fill="#97B4A9" stroke="#97B4A9"/>
<path d="M103 387H106V388H103V387Z" fill="white"/>
<path d="M108 389H103V390H108V389Z" fill="white"/>
<path d="M103 391H108V392H103V391Z" fill="white"/>
<path d="M108 393H103V394H108V393Z" fill="white"/>
<path fill-rule="evenodd" clip-rule="evenodd" d="M101 385V396H110V388H109V387H108V386H107V385H101ZM107 386V387H108V388H109V395H102V386H107Z" fill="white"/>
<path d="M155 383.5H155.5V383V382.5H169.5V383V383.5H170H170.5V397.5H170H169.5V398V398.5H155.5V398V397.5H155H154.5V383.5H155Z" fill="#97B4A9" stroke="#97B4A9"/>
<path fill-rule="evenodd" clip-rule="evenodd" d="M165 386H166V387H168V388H169V395H166V396H159V395H156V388H157V387H159V384H163V385H160V388H165V386ZM165 393H160V395H165V393ZM159 392V394H157V388H159V389H166V388H168V394H166V392H159Z" fill="white"/>
<path d="M165 386H163V385H165V386Z" fill="white"/>
<path d="M212 383.5H212.5V383V382.5H226.5V383V383.5H227H227.5V397.5H227H226.5V398V398.5H212.5V398V397.5H212H211.5V383.5H212Z" fill="#97B4A9" stroke="#97B4A9"/>
<path d="M222 386V387H221V389H220V392H219V394H220V395H216V394H217V392H218V389H219V387H218V386H222Z" fill="white"/>
<path d="M269 383.5H269.5V383V382.5H283.5V383V383.5H284H284.5V397.5H284H283.5V398V398.5H269.5V398V397.5H269H268.5V383.5H269Z" fill="#97B4A9" stroke="#97B4A9"/>
<path d="M273 385H271V387H273V385Z" fill="white"/>
<path d="M282 386H274V387H282V386Z" fill="white"/>
<path d="M271 389H273V391H271V389Z" fill="white"/>
<path d="M273 393H271V395H273V393Z" fill="white"/>
<path d="M274 390H282V391H274V390Z" fill="white"/>
<path d="M282 394H274V395H282V394Z" fill="white"/>
<path d="M326 383.5H326.5V383V382.5H340.5V383V383.5H341H341.5V397.5H341H340.5V398V398.5H326.5V398V397.5H326H325.5V383.5H326Z" fill="#97B4A9" stroke="#97B4A9"/>
<path d="M334 385H333V386H332V387H331V388H333V394H334V388H336V387H335V386H334V385Z" fill="white"/>
<path d="M337 395H330V396H337V395Z" fill="white"/>
<path d="M383 383.5H383.5V383V382.5H397.5V383V383.5H398H398.5V397.5H398H397.5V398V398.5H383.5V398V397.5H383H382.5V383.5H383Z" fill="#97B4A9" stroke="#97B4A9"/>
<path fill-rule="evenodd" clip-rule="evenodd" d="M385 396V385H390V396H385ZM386 386H389V395H386V386Z" fill="white"/>
<path fill-rule="evenodd" clip-rule="evenodd" d="M392 395H393V394H394V393H395V392H396V391H397V390H396V389H395V388H394V387H393V386H392V385H391V396H392V395ZM393 394H392V387H393V388H394V389H395V390H396V391H395V392H394V393H393V394Z" fill="white"/>
<path d="M440 383.5H440.5V383V382.5H454.5V383V383.5H455H455.5V397.5H455H454.5V398V398.5H440.5V398V397.5H440H439.5V383.5H440Z" fill="#97B4A9" stroke="#97B4A9"/>
<path d="M446 385H449V386H450V387H451V390H450V391H449V393H450V394H451V395H444V394H445V393H446V391H445V390H444V387H445V386H446V385Z" fill="white"/>
<path d="M497 383.5H497.5V383V382.5H511.5V383V383.5H512H512.5V397.5H512H511.5V398V398.5H497.5V398V397.5H497H496.5V383.5H497Z" fill="#97B4A9" stroke="#97B4A9"/>
<path d="M505 386H503V388H501V386H502V385H506V386H507V390H506V391H505V393H503V391H504V390H505V386Z" fill="white"/>
<path d="M503 396V394H505V396H503Z" fill="white"/>
<path d="M554 383.5H554.5V383V382.5H568.5V383V383.5H569H569.5V397.5H569H568.5V398V398.5H554.5V398V397.5H554H553.5V383.5H554Z" fill="#97B4A9" stroke="#97B4A9"/>
<path fill-rule="evenodd" clip-rule="evenodd" d="M560 385H558V388H559V389H556V391H557V394H558V395H563V394H564V395H567V389H564V390H563V389H562V388H561V387H560V385ZM566 390H565V394H566V390Z" fill="white"/>
<path d="M611 383.5H611.5V383V382.5H625.5V383V383.5H626H626.5V397.5H626H625.5V398V398.5H611.5V398V397.5H611H610.5V383.5H611Z" fill="#97B4A9" stroke="#97B4A9"/>
<path d="M614 387H613V394H614V387Z" fill="white"/>
<path d="M622 388H621V390H615V391H621V393H622V392H623V391H624V390H623V389H622V388Z" fill="white"/>
<path d="M668 383.5H668.5V383V382.5H682.5V383V383.5H683H683.5V397.5H683H682.5V398V398.5H668.5V398V397.5H668H667.5V383.5H668Z" fill="#97B4A9" stroke="#97B4A9"/>
<path fill-rule="evenodd" clip-rule="evenodd" d="M673 392V391H674V392H675V393H676V394H677V396H679V393H678V392H681V390H680V387H679V386H674V387H673V386H670V392H673ZM671 391H672V387H671V391Z" fill="white"/>
<path d="M725 383.5H725.5V383V382.5H739.5V383V383.5H740H740.5V397.5H740H739.5V398V398.5H725.5V398V397.5H725H724.5V383.5H725Z" fill="#97B4A9" stroke="#97B4A9"/>
<path d="M729 385H728V386H729V385Z" fill="white"/>
<path d="M738 386H730V387H738V386Z" fill="white"/>
<path d="M729 388V390H728V389H727V388H729Z" fill="white"/>
<path d="M728 390V391H727V390H728Z" fill="white"/>
<path d="M729 392H727V393H728V394H727V395H729V392Z" fill="white"/>
<path d="M730 390H738V391H730V390Z" fill="white"/>
<path d="M738 394H730V395H738V394Z" fill="white"/>
<path d="M782 383.5H782.5V383V382.5H796.5V383V383.5H797H797.5V397.5H797H796.5V398V398.5H782.5V398V397.5H782H781.5V383.5H782Z" fill="#97B4A9" stroke="#97B4A9"/>
<path fill-rule="evenodd" clip-rule="evenodd" d="M787 386V384H789V389H790V384H792V386H793V388H795V396H790V391H789V396H784V388H786V386H787ZM788 387H787V389H785V392H788V387ZM791 392H794V389H792V387H791V392ZM785 393V395H788V393H785ZM794 393H791V395H794V393Z" fill="white"/>
<path d="M839 383.5H839.5V383V382.5H853.5V383V383.5H854H854.5V397.5H854H853.5V398V398.5H839.5V398V397.5H839H838.5V383.5H839Z" fill="#97B4A9" stroke="#97B4A9"/>
<path d="M845 385V384H848V385H845Z" fill="white"/>
<path d="M843 386V385H845V386H843Z" fill="white"/>
<path d="M842 387V386H843V387H842Z" fill="white"/>
<path d="M841 389V387H842V389H841Z" fill="white"/>
<path d="M841 392H840V389H841V392Z" fill="white"/>
<path d="M842 394H841V392H842V394Z" fill="white"/>
<path d="M843 395H842V394H843V395Z" fill="white"/>
<path d="M845 396H843V395H845V396Z" fill="white"/>
<path d="M848 396V397H845V396H848Z" fill="white"/>
<path d="M850 395V396H848V395H850Z" fill="white"/>
<path d="M851 394V395H850V394H851Z" fill="white"/>
<path d="M852 392V394H851V392H852Z" fill="white"/>
<path d="M852 389H853V392H852V389Z" fill="white"/>
<path d="M851 387H852V389H851V387Z" fill="white"/>
<path d="M850 386H851V387H850V386Z" fill="white"/>
<path d="M850 386V385H848V386H850Z" fill="white"/>
<path d="M844 391V390H849V391H844Z" fill="white"/>
<path d="M41 440.5H41.5V440V439.5H55.5V440V440.5H56H56.5V454.5H56H55.5V455V455.5H41.5V455V454.5H41H40.5V440.5H41Z" fill="#97B4A9" stroke="#97B4A9"/>
<path fill-rule="evenodd" clip-rule="evenodd" d="M54 453H43V442H54V453ZM44 443H50V444H49V445H48V446H47V447H46V448H45V450H49V451H53V452H44V443ZM49 448H48V449H46V448H47V447H48V446H49V445H50V444H51V443H53V444H52V445H51V446H50V447H49V448ZM49 448H50V447H51V446H52V445H53V450H50V449H49V448Z" fill="white"/>
<path d="M98 440.5H98.5V440V439.5H112.5V440V440.5H113H113.5V454.5H113H112.5V455V455.5H98.5V455V454.5H98H97.5V440.5H98Z" fill="#97B4A9" stroke="#97B4A9"/>
<path fill-rule="evenodd" clip-rule="evenodd" d="M107 443H108V444H109V445H110V446H111V447H112V448H111V449H110V450H109V451H108V452H107V453H106V451H100V444H106V442H107V443ZM107 444H108V445H109V446H110V447H111V448H110V449H109V450H108V451H107V449H106V450H101V445H106V446H107V444Z" fill="white"/>
<path d="M155 440.5H155.5V440V439.5H169.5V440V440.5H170H170.5V454.5H170H169.5V455V455.5H155.5V455V454.5H155H154.5V440.5H155Z" fill="#97B4A9" stroke="#97B4A9"/>
<path fill-rule="evenodd" clip-rule="evenodd" d="M157 450V445H160V448H158V450H157ZM158 447H159V446H158V447Z" fill="white"/>
<path d="M161 445H163V446H162V449H163V450H161V445Z" fill="white"/>
<path d="M163 449H164V446H163V449Z" fill="white"/>
<path d="M166 447H167V448H166V450H165V445H168V446H166V447Z" fill="white"/>
<path d="M212 440.5H212.5V440V439.5H226.5V440V440.5H227H227.5V454.5H227H226.5V455V455.5H212.5V455V454.5H212H211.5V440.5H212Z" fill="#97B4A9" stroke="#97B4A9"/>
<path fill-rule="evenodd" clip-rule="evenodd" d="M216 442H215V452V453H216H224V445H223V444H222V443H221V442H216ZM216 443H221V444H222V445H223V452H216V443Z" fill="white"/>
<path d="M269 440.5H269.5V440V439.5H283.5V440V440.5H284H284.5V454.5H284H283.5V455V455.5H269.5V455V454.5H269H268.5V440.5H269Z" fill="#97B4A9" stroke="#97B4A9"/>
<path d="M271 444H275V445H272V446H271V449H272V450H275V451H271V450H270V445H271V444Z" fill="white"/>
<path fill-rule="evenodd" clip-rule="evenodd" d="M278 450H275V449H273V446H275V445H278V446H280V449H278V450ZM274 448H279V447H274V448Z" fill="white"/>
<path d="M281 450V449H282V446H281V445H278V444H282V445H283V450H282V451H278V450H281Z" fill="white"/>
<path d="M326 440.5H326.5V440V439.5H340.5V440V440.5H341H341.5V454.5H341H340.5V455V455.5H326.5V455V454.5H326H325.5V440.5H326Z" fill="#97B4A9" stroke="#97B4A9"/>
<path d="M332 442V441H335V442H332Z" fill="white"/>
<path d="M330 443V442H332V443H330Z" fill="white"/>
<path d="M329 444V443H330V444H329Z" fill="white"/>
<path d="M328 446V444H329V446H328Z" fill="white"/>
<path d="M328 449H327V446H328V449Z" fill="white"/>
<path d="M329 451H328V449H329V451Z" fill="white"/>
<path d="M330 452H329V451H330V452Z" fill="white"/>
<path d="M332 453H330V452H332V453Z" fill="white"/>
<path d="M335 453V454H332V453H335Z" fill="white"/>
<path d="M337 452V453H335V452H337Z" fill="white"/>
<path d="M338 451V452H337V451H338Z" fill="white"/>
<path d="M339 449V451H338V449H339Z" fill="white"/>
<path d="M339 446H340V449H339V446Z" fill="white"/>
<path d="M338 444H339V446H338V444Z" fill="white"/>
<path d="M337 443H338V444H337V443Z" fill="white"/>
<path d="M337 443V442H335V443H337Z" fill="white"/>
<path d="M333 445H334V447H336V448H334V450H333V448H331V447H333V445Z" fill="white"/>
<path d="M383 440.5H383.5V440V439.5H397.5V440V440.5H398H398.5V454.5H398H397.5V455V455.5H383.5V455V454.5H383H382.5V440.5H383Z" fill="#97B4A9" stroke="#97B4A9"/>
<path fill-rule="evenodd" clip-rule="evenodd" d="M385 452V443H396V452H385ZM387 444H394V445H393V446H392V447H391V448H390V447H389V446H388V445H387V444ZM386 445H387V446H388V447H389V448H390V449H391V448H392V447H393V446H394V445H395V451H386V445Z" fill="white"/>
<path d="M440 440.5H440.5V440V439.5H454.5V440V440.5H455H455.5V454.5H455H454.5V455V455.5H440.5V455V454.5H440H439.5V440.5H440Z" fill="#97B4A9" stroke="#97B4A9"/>
<path fill-rule="evenodd" clip-rule="evenodd" d="M448 442V441H447V442H446V443H445V444H444V445H443V446H442V447H444V453H451V447H453V446H452V445H451V444H450V443H449V442H448ZM448 443H449V444H450V445H451V446H449V447H450V452H445V447H446V446H444V445H445V444H446V443H447V442H448V443Z" fill="white"/>
<path d="M497 440.5H497.5V440V439.5H511.5V440V440.5H512H512.5V454.5H512H511.5V455V455.5H497.5V455V454.5H497H496.5V440.5H497Z" fill="#97B4A9" stroke="#97B4A9"/>
<path d="M503 442H510V443H503V442Z" fill="white"/>
<path fill-rule="evenodd" clip-rule="evenodd" d="M503 445V443H502V445H499V446H498V451H499V452H502V453H503V454H504V453H505V452H506V451H508V450H509V449H510V448H511V443H510V448H508V450H507V446H506V445H503ZM506 446H499V451H502V452H503V453H504V451H506V446Z" fill="white"/>
<path d="M554 440.5H554.5V440V439.5H568.5V440V440.5H569H569.5V454.5H569H568.5V455V455.5H554.5V455V454.5H554H553.5V440.5H554Z" fill="#97B4A9" stroke="#97B4A9"/>
<path fill-rule="evenodd" clip-rule="evenodd" d="M557 443V444H558V451H557V452H564V451H565V448H564V447H565V444H564V443H557ZM563 448H560V451H563V448ZM563 447H560V444H563V447Z" fill="white"/>
<path d="M611 440.5H611.5V440V439.5H625.5V440V440.5H626H626.5V454.5H626H625.5V455V455.5H611.5V455V454.5H611H610.5V440.5H611Z" fill="#97B4A9" stroke="#97B4A9"/>
<path d="M622 444H615V446H622V444Z" fill="white"/>
<path d="M615 447H617V451H615V447Z" fill="white"/>
<path d="M622 447H618V451H622V447Z" fill="white"/>
<path fill-rule="evenodd" clip-rule="evenodd" d="M613 442H624V453H613V442ZM614 443H623V452H614V443Z" fill="white"/>
<path d="M668 440.5H668.5V440V439.5H682.5V440V440.5H683H683.5V454.5H683H682.5V455V455.5H668.5V455V454.5H668H667.5V440.5H668Z" fill="#97B4A9" stroke="#97B4A9"/>
<path d="M678 450H679V451H678V450Z" fill="white"/>
<path d="M677 449H678V450H677V449Z" fill="white"/>
<path d="M676 448H677V449H676V448Z" fill="white"/>
<path d="M675 447H676V448H675V447Z" fill="white"/>
<path d="M674 446H675V447H674V446Z" fill="white"/>
<path d="M673 445H674V446H673V445Z" fill="white"/>
<path d="M673 445V444H672V445H673Z" fill="white"/>
<path fill-rule="evenodd" clip-rule="evenodd" d="M670 442V453H681V442H670ZM680 443H672V444H671V452H679V451H680V443Z" fill="white"/>
<path d="M725 440.5H725.5V440V439.5H739.5V440V440.5H740H740.5V454.5H740H739.5V455V455.5H725.5V455V454.5H725H724.5V440.5H725Z" fill="#97B4A9" stroke="#97B4A9"/>
<path fill-rule="evenodd" clip-rule="evenodd" d="M737 442H728V453H729V452H730V451H731V450H732V449H733V450H734V451H735V452H736V453H737V442ZM736 443H729V451H730V450H731V449H732V448H733V449H734V450H735V451H736V443Z" fill="white"/>
<path d="M782 440.5H782.5V440V439.5H796.5V440V440.5H797H797.5V454.5H797H796.5V455V455.5H782.5V455V454.5H782H781.5V440.5H782Z" fill="#97B4A9" stroke="#97B4A9"/>
<path d="M788 449H787V450H788V449Z" fill="white"/>
<path d="M789 448H788V449H789V448Z" fill="white"/>
<path d="M789 447V448H790V449H791V450H792V449H791V448H790V447H791V446H792V445H791V446H790V447H789Z" fill="white"/>
<path d="M788 446H789V447H788V446Z" fill="white"/>
<path d="M788 446V445H787V446H788Z" fill="white"/>
<path fill-rule="evenodd" clip-rule="evenodd" d="M784 453V442H795V453H784ZM785 443H794V452H785V443Z" fill="white"/>
<path d="M839 440.5H839.5V440V439.5H853.5V440V440.5H854H854.5V454.5H854H853.5V455V455.5H839.5V455V454.5H839H838.5V440.5H839Z" fill="#97B4A9" stroke="#97B4A9"/>
<path d="M850 443H843V442H850V443Z" fill="white"/>
<path d="M847 453H846V452H845V451H844V450H846V444H847V450H849V451H848V452H847V453Z" fill="white"/>
<path d="M41 497.5H41.5V497V496.5H55.5V497V497.5H56H56.5V511.5H56H55.5V512V512.5H41.5V512V511.5H41H40.5V497.5H41Z" fill="white" stroke="#FF3333"/>
<path d="M45 499H43V501H45V499Z" fill="#FF3333"/>
<path d="M54 500H46V501H54V500Z" fill="#FF3333"/>
<path d="M43 503H45V505H43V503Z" fill="#FF3333"/>
<path d="M45 507H43V509H45V507Z" fill="#FF3333"/>
<path d="M46 504H54V505H46V504Z" fill="#FF3333"/>
<path d="M54 508H46V509H54V508Z" fill="#FF3333"/>
<path d="M98 497.5H98.5V497V496.5H112.5V497V497.5H113H113.5V511.5H113H112.5V512V512.5H98.5V512V511.5H98H97.5V497.5H98Z" fill="white" stroke="#FF3333"/>
<path d="M102 499H101V500H102V499Z" fill="#FF3333"/>
<path d="M111 500H103V501H111V500Z" fill="#FF3333"/>
<path d="M102 502V504H101V503H100V502H102Z" fill="#FF3333"/>
<path d="M101 504V505H100V504H101Z" fill="#FF3333"/>
<path d="M102 506H100V507H101V508H100V509H102V506Z" fill="#FF3333"/>
<path d="M103 504H111V505H103V504Z" fill="#FF3333"/>
<path d="M111 508H103V509H111V508Z" fill="#FF3333"/>
<path d="M155 497.5H155.5V497V496.5H169.5V497V497.5H170H170.5V511.5H170H169.5V512V512.5H155.5V512V511.5H155H154.5V497.5H155Z" fill="white" stroke="#FF3333"/>
<path d="M157 501H161V502H158V503H157V506H158V507H161V508H157V507H156V502H157V501Z" fill="#FF3333"/>
<path fill-rule="evenodd" clip-rule="evenodd" d="M164 507H161V506H159V503H161V502H164V503H166V506H164V507ZM160 505H165V504H160V505Z" fill="#FF3333"/>
<path d="M167 507V506H168V503H167V502H164V501H168V502H169V507H168V508H164V507H167Z" fill="#FF3333"/>
<path d="M212 497.5H212.5V497V496.5H226.5V497V497.5H227H227.5V511.5H227H226.5V512V512.5H212.5V512V511.5H212H211.5V497.5H212Z" fill="white" stroke="#FF3333"/>
<path fill-rule="evenodd" clip-rule="evenodd" d="M215 500V501H216V508H215V509H222V508H223V505H222V504H223V501H222V500H215ZM221 505H218V508H221V505ZM221 504H218V501H221V504Z" fill="#FF3333"/>
<path d="M269 497.5H269.5V497V496.5H283.5V497V497.5H284H284.5V511.5H284H283.5V512V512.5H269.5V512V511.5H269H268.5V497.5H269Z" fill="white" stroke="#FF3333"/>
<path d="M279 500V501H278V503H277V506H276V508H277V509H273V508H274V506H275V503H276V501H275V500H279Z" fill="#FF3333"/>
<path d="M326 497.5H326.5V497V496.5H340.5V497V497.5H341H341.5V511.5H341H340.5V512V512.5H326.5V512V511.5H326H325.5V497.5H326Z" fill="white" stroke="#FF3333"/>
<path d="M329 501H328V508H329V501Z" fill="#FF3333"/>
<path d="M337 502H336V504H330V505H336V507H337V506H338V505H339V504H338V503H337V502Z" fill="#FF3333"/>
<path d="M383 497.5H383.5V497V496.5H397.5V497V497.5H398H398.5V511.5H398H397.5V512V512.5H383.5V512V511.5H383H382.5V497.5H383Z" fill="white" stroke="#FF3333"/>
<path fill-rule="evenodd" clip-rule="evenodd" d="M387 499H386V509V510H387H395V502H394V501H393V500H392V499H387ZM387 500H392V501H393V502H394V509H387V500Z" fill="#FF3333"/>
<path d="M440 497.5H440.5V497V496.5H454.5V497V497.5H455H455.5V511.5H455H454.5V512V512.5H440.5V512V511.5H440H439.5V497.5H440Z" fill="white" stroke="#FF3333"/>
<path d="M448 504V502H447V504H445V505H447V507H448V505H450V504H448Z" fill="#FF3333"/>
<path fill-rule="evenodd" clip-rule="evenodd" d="M443 499V510H452V502H451V501H450V500H449V499H443ZM449 500V501H450V502H451V509H444V500H449Z" fill="#FF3333"/>
<path d="M497 497.5H497.5V497V496.5H511.5V497V497.5H512H512.5V511.5H512H511.5V512V512.5H497.5V512V511.5H497H496.5V497.5H497Z" fill="white" stroke="#FF3333"/>
<path d="M502 501H505V502H502V501Z" fill="#FF3333"/>
<path d="M507 503H502V504H507V503Z" fill="#FF3333"/>
<path d="M502 505H507V506H502V505Z" fill="#FF3333"/>
<path d="M507 507H502V508H507V507Z" fill="#FF3333"/>
<path fill-rule="evenodd" clip-rule="evenodd" d="M500 499V510H509V502H508V501H507V500H506V499H500ZM506 500V501H507V502H508V509H501V500H506Z" fill="#FF3333"/>
<path d="M554 497.5H554.5V497V496.5H568.5V497V497.5H569H569.5V511.5H569H568.5V512V512.5H554.5V512V511.5H554H553.5V497.5H554Z" fill="white" stroke="#FF3333"/>
<path d="M565 501H558V503H565V501Z" fill="#FF3333"/>
<path d="M558 504H560V508H558V504Z" fill="#FF3333"/>
<path d="M565 504H561V508H565V504Z" fill="#FF3333"/>
<path fill-rule="evenodd" clip-rule="evenodd" d="M556 499H567V510H556V499ZM557 500H566V509H557V500Z" fill="#FF3333"/>
<path d="M611 497.5H611.5V497V496.5H625.5V497V497.5H626H626.5V511.5H626H625.5V512V512.5H611.5V512V511.5H611H610.5V497.5H611Z" fill="white" stroke="#FF3333"/>
<path d="M619 500H617V502H615V500H616V499H620V500H621V504H620V505H619V507H617V505H618V504H619V500Z" fill="#FF3333"/>
<path d="M617 510V508H619V510H617Z" fill="#FF3333"/>
<path d="M668 497.5H668.5V497V496.5H682.5V497V497.5H683H683.5V511.5H683H682.5V512V512.5H668.5V512V511.5H668H667.5V497.5H668Z" fill="white" stroke="#FF3333"/>
<path fill-rule="evenodd" clip-rule="evenodd" d="M670 507V502H673V505H671V507H670ZM671 504H672V503H671V504Z" fill="#FF3333"/>
<path d="M674 502H676V503H675V506H676V507H674V502Z" fill="#FF3333"/>
<path d="M676 506H677V503H676V506Z" fill="#FF3333"/>
<path d="M679 504H680V505H679V507H678V502H681V503H679V504Z" fill="#FF3333"/>
<path d="M725 497.5H725.5V497V496.5H739.5V497V497.5H740H740.5V511.5H740H739.5V512V512.5H725.5V512V511.5H725H724.5V497.5H725Z" fill="white" stroke="#FF3333"/>
<path d="M735 507H736V508H735V507Z" fill="#FF3333"/>
<path d="M734 506H735V507H734V506Z" fill="#FF3333"/>
<path d="M733 505H734V506H733V505Z" fill="#FF3333"/>
<path d="M732 504H733V505H732V504Z" fill="#FF3333"/>
<path d="M731 503H732V504H731V503Z" fill="#FF3333"/>
<path d="M730 502H731V503H730V502Z" fill="#FF3333"/>
<path d="M730 502V501H729V502H730Z" fill="#FF3333"/>
<path fill-rule="evenodd" clip-rule="evenodd" d="M727 499V510H738V499H727ZM737 500H729V501H728V509H736V508H737V500Z" fill="#FF3333"/>
<path d="M782 497.5H782.5V497V496.5H796.5V497V497.5H797H797.5V511.5H797H796.5V512V512.5H782.5V512V511.5H782H781.5V497.5H782Z" fill="white" stroke="#FF3333"/>
<path d="M788 499V498H791V499H788Z" fill="#FF3333"/>
<path d="M786 500V499H788V500H786Z" fill="#FF3333"/>
<path d="M785 501V500H786V501H785Z" fill="#FF3333"/>
<path d="M784 503V501H785V503H784Z" fill="#FF3333"/>
<path d="M784 506H783V503H784V506Z" fill="#FF3333"/>
<path d="M785 508H784V506H785V508Z" fill="#FF3333"/>
<path d="M786 509H785V508H786V509Z" fill="#FF3333"/>
<path d="M788 510H786V509H788V510Z" fill="#FF3333"/>
<path d="M791 510V511H788V510H791Z" fill="#FF3333"/>
<path d="M793 509V510H791V509H793Z" fill="#FF3333"/>
<path d="M794 508V509H793V508H794Z" fill="#FF3333"/>
<path d="M795 506V508H794V506H795Z" fill="#FF3333"/>
<path d="M795 503H796V506H795V503Z" fill="#FF3333"/>
<path d="M794 501H795V503H794V501Z" fill="#FF3333"/>
<path d="M793 500H794V501H793V500Z" fill="#FF3333"/>
<path d="M793 500V499H791V500H793Z" fill="#FF3333"/>
<path d="M789 502H790V504H792V505H790V507H789V505H787V504H789V502Z" fill="#FF3333"/>
<path d="M839 497.5H839.5V497V496.5H853.5V497V497.5H854H854.5V511.5H854H853.5V512V512.5H839.5V512V511.5H839H838.5V497.5H839Z" fill="white" stroke="#FF3333"/>
<path d="M845 499V498H848V499H845Z" fill="#FF3333"/>
<path d="M843 500V499H845V500H843Z" fill="#FF3333"/>
<path d="M842 501V500H843V501H842Z" fill="#FF3333"/>
<path d="M841 503V501H842V503H841Z" fill="#FF3333"/>
<path d="M841 506H840V503H841V506Z" fill="#FF3333"/>
<path d="M842 508H841V506H842V508Z" fill="#FF3333"/>
<path d="M843 509H842V508H843V509Z" fill="#FF3333"/>
<path d="M845 510H843V509H845V510Z" fill="#FF3333"/>
<path d="M848 510V511H845V510H848Z" fill="#FF3333"/>
<path d="M850 509V510H848V509H850Z" fill="#FF3333"/>
<path d="M851 508V509H850V508H851Z" fill="#FF3333"/>
<path d="M852 506V508H851V506H852Z" fill="#FF3333"/>
<path d="M852 503H853V506H852V503Z" fill="#FF3333"/>
<path d="M851 501H852V503H851V501Z" fill="#FF3333"/>
<path d="M850 500H851V501H850V500Z" fill="#FF3333"/>
<path d="M850 500V499H848V500H850Z" fill="#FF3333"/>
<path d="M844 505V504H849V505H844Z" fill="#FF3333"/>
<path d="M41 554.5H41.5V554V553.5H55.5V554V554.5H56H56.5V568.5H56H55.5V569V569.5H41.5V569V568.5H41H40.5V554.5H41Z" fill="white" stroke="#FF3333"/>
<path fill-rule="evenodd" clip-rule="evenodd" d="M54 567H43V556H54V567ZM44 557H50V558H49V559H48V560H47V561H46V562H45V564H49V565H53V566H44V557ZM49 562H48V563H46V562H47V561H48V560H49V559H50V558H51V557H53V558H52V559H51V560H50V561H49V562ZM49 562H50V561H51V560H52V559H53V564H50V563H49V562Z" fill="#FF3333"/>
<path d="M98 554.5H98.5V554V553.5H112.5V554V554.5H113H113.5V568.5H113H112.5V569V569.5H98.5V569V568.5H98H97.5V554.5H98Z" fill="white" stroke="#FF3333"/>
<path fill-rule="evenodd" clip-rule="evenodd" d="M100 567V556H105V567H100ZM101 557H104V566H101V557Z" fill="#FF3333"/>
<path fill-rule="evenodd" clip-rule="evenodd" d="M107 566H108V565H109V564H110V563H111V562H112V561H111V560H110V559H109V558H108V557H107V556H106V567H107V566ZM108 565H107V558H108V559H109V560H110V561H111V562H110V563H109V564H108V565Z" fill="#FF3333"/>
<path d="M155 554.5H155.5V554V553.5H169.5V554V554.5H170H170.5V568.5H170H169.5V569V569.5H155.5V569V568.5H155H154.5V554.5H155Z" fill="white" stroke="#FF3333"/>
<path fill-rule="evenodd" clip-rule="evenodd" d="M165 557H166V558H168V559H169V566H166V567H159V566H156V559H157V558H159V555H163V556H160V559H165V557ZM165 564H160V566H165V564ZM159 563V565H157V559H159V560H166V559H168V565H166V563H159Z" fill="#FF3333"/>
<path d="M165 557H163V556H165V557Z" fill="#FF3333"/>
<path d="M212 554.5H212.5V554V553.5H226.5V554V554.5H227H227.5V568.5H227H226.5V569V569.5H212.5V569V568.5H212H211.5V554.5H212Z" fill="white" stroke="#FF3333"/>
<path d="M218 563H217V564H218V563Z" fill="#FF3333"/>
<path d="M219 562H218V563H219V562Z" fill="#FF3333"/>
<path d="M219 561V562H220V563H221V564H222V563H221V562H220V561H221V560H222V559H221V560H220V561H219Z" fill="#FF3333"/>
<path d="M218 560H219V561H218V560Z" fill="#FF3333"/>
<path d="M218 560V559H217V560H218Z" fill="#FF3333"/>
<path fill-rule="evenodd" clip-rule="evenodd" d="M214 567V556H225V567H214ZM215 557H224V566H215V557Z" fill="#FF3333"/>
<path d="M269 554.5H269.5V554V553.5H283.5V554V554.5H284H284.5V568.5H284H283.5V569V569.5H269.5V569V568.5H269H268.5V554.5H269Z" fill="white" stroke="#FF3333"/>
<path fill-rule="evenodd" clip-rule="evenodd" d="M277 556V555H276V556H275V557H274V558H273V559H272V560H271V561H273V567H280V561H282V560H281V559H280V558H279V557H278V556H277ZM277 557H278V558H279V559H280V560H278V561H279V566H274V561H275V560H273V559H274V558H275V557H276V556H277V557Z" fill="#FF3333"/>
<path d="M326 554.5H326.5V554V553.5H340.5V554V554.5H341H341.5V568.5H341H340.5V569V569.5H326.5V569V568.5H326H325.5V554.5H326Z" fill="white" stroke="#FF3333"/>
<path fill-rule="evenodd" clip-rule="evenodd" d="M335 557H336V558H337V559H338V560H339V561H340V562H339V563H338V564H337V565H336V566H335V567H334V565H328V558H334V556H335V557ZM335 558H336V559H337V560H338V561H339V562H338V563H337V564H336V565H335V563H334V564H329V559H334V560H335V558Z" fill="#FF3333"/>
<path d="M383 554.5H383.5V554V553.5H397.5V554V554.5H398H398.5V568.5H398H397.5V569V569.5H383.5V569V568.5H383H382.5V554.5H383Z" fill="white" stroke="#FF3333"/>
<path fill-rule="evenodd" clip-rule="evenodd" d="M388 557V555H390V560H391V555H393V557H394V559H396V567H391V562H390V567H385V559H387V557H388ZM389 558H388V560H386V563H389V558ZM392 563H395V560H393V558H392V563ZM386 564V566H389V564H386ZM395 564H392V566H395V564Z" fill="#FF3333"/>
<path d="M440 554.5H440.5V554V553.5H454.5V554V554.5H455H455.5V568.5H455H454.5V569V569.5H440.5V569V568.5H440H439.5V554.5H440Z" fill="white" stroke="#FF3333"/>
<path d="M446 556H449V557H450V558H451V561H450V562H449V564H450V565H451V566H444V565H445V564H446V562H445V561H444V558H445V557H446V556Z" fill="#FF3333"/>
<path d="M497 554.5H497.5V554V553.5H511.5V554V554.5H512H512.5V568.5H512H511.5V569V569.5H497.5V569V568.5H497H496.5V554.5H497Z" fill="white" stroke="#FF3333"/>
<path fill-rule="evenodd" clip-rule="evenodd" d="M509 556H500V567H501V566H502V565H503V564H504V563H505V564H506V565H507V566H508V567H509V556ZM508 557H501V565H502V564H503V563H504V562H505V563H506V564H507V565H508V557Z" fill="#FF3333"/>
<path d="M554 554.5H554.5V554V553.5H568.5V554V554.5H569H569.5V568.5H569H568.5V569V569.5H554.5V569V568.5H554H553.5V554.5H554Z" fill="white" stroke="#FF3333"/>
<path fill-rule="evenodd" clip-rule="evenodd" d="M556 566V557H567V566H556ZM558 558H565V559H564V560H563V561H562V562H561V561H560V560H559V559H558V558ZM557 559H558V560H559V561H560V562H561V563H562V562H563V561H564V560H565V559H566V565H557V559Z" fill="#FF3333"/>
<path d="M611 554.5H611.5V554V553.5H625.5V554V554.5H626H626.5V568.5H626H625.5V569V569.5H611.5V569V568.5H611H610.5V554.5H611Z" fill="white" stroke="#FF3333"/>
<path d="M617 556H624V557H617V556Z" fill="#FF3333"/>
<path fill-rule="evenodd" clip-rule="evenodd" d="M617 559V557H616V559H613V560H612V565H613V566H616V567H617V568H618V567H619V566H620V565H622V564H623V563H624V562H625V557H624V562H622V564H621V560H620V559H617ZM620 560H613V565H616V566H617V567H618V565H620V560Z" fill="#FF3333"/>
<path d="M668 554.5H668.5V554V553.5H682.5V554V554.5H683H683.5V568.5H683H682.5V569V569.5H668.5V569V568.5H668H667.5V554.5H668Z" fill="white" stroke="#FF3333"/>
<path fill-rule="evenodd" clip-rule="evenodd" d="M674 556H672V559H673V560H670V562H671V565H672V566H677V565H678V566H681V560H678V561H677V560H676V559H675V558H674V556ZM680 561H679V565H680V561Z" fill="#FF3333"/>
<path d="M725 554.5H725.5V554V553.5H739.5V554V554.5H740H740.5V568.5H740H739.5V569V569.5H725.5V569V568.5H725H724.5V554.5H725Z" fill="white" stroke="#FF3333"/>
<path fill-rule="evenodd" clip-rule="evenodd" d="M730 563V562H731V563H732V564H733V565H734V567H736V564H735V563H738V561H737V558H736V557H731V558H730V557H727V563H730ZM728 562H729V558H728V562Z" fill="#FF3333"/>
<path d="M782 554.5H782.5V554V553.5H796.5V554V554.5H797H797.5V568.5H797H796.5V569V569.5H782.5V569V568.5H782H781.5V554.5H782Z" fill="white" stroke="#FF3333"/>
<path d="M790 556H789V557H788V558H787V559H789V565H790V559H792V558H791V557H790V556Z" fill="#FF3333"/>
<path d="M793 566H786V567H793V566Z" fill="#FF3333"/>
<path d="M839 554.5H839.5V554V553.5H853.5V554V554.5H854H854.5V568.5H854H853.5V569V569.5H839.5V569V568.5H839H838.5V554.5H839Z" fill="white" stroke="#FF3333"/>
<path d="M850 557H843V556H850V557Z" fill="#FF3333"/>
<path d="M847 567H846V566H845V565H844V564H846V558H847V564H849V565H848V566H847V567Z" fill="#FF3333"/>
<path d="M41 611.5H41.5V611V610.5H55.5V611V611.5H56H56.5V625.5H56H55.5V626V626.5H41.5V626V625.5H41H40.5V611.5H41Z" fill="#FF3333" stroke="#FF3333"/>
<path d="M45 613H43V615H45V613Z" fill="white"/>
<path d="M54 614H46V615H54V614Z" fill="white"/>
<path d="M43 617H45V619H43V617Z" fill="white"/>
<path d="M45 621H43V623H45V621Z" fill="white"/>
<path d="M46 618H54V619H46V618Z" fill="white"/>
<path d="M54 622H46V623H54V622Z" fill="white"/>
<path d="M98 611.5H98.5V611V610.5H112.5V611V611.5H113H113.5V625.5H113H112.5V626V626.5H98.5V626V625.5H98H97.5V611.5H98Z" fill="#FF3333" stroke="#FF3333"/>
<path d="M104 620H103V621H104V620Z" fill="white"/>
<path d="M105 619H104V620H105V619Z" fill="white"/>
<path d="M105 618V619H106V620H107V621H108V620H107V619H106V618H107V617H108V616H107V617H106V618H105Z" fill="white"/>
<path d="M104 617H105V618H104V617Z" fill="white"/>
<path d="M104 617V616H103V617H104Z" fill="white"/>
<path fill-rule="evenodd" clip-rule="evenodd" d="M100 624V613H111V624H100ZM101 614H110V623H101V614Z" fill="white"/>
<path d="M155 611.5H155.5V611V610.5H169.5V611V611.5H170H170.5V625.5H170H169.5V626V626.5H155.5V626V625.5H155H154.5V611.5H155Z" fill="#FF3333" stroke="#FF3333"/>
<path d="M161 613H164V614H165V615H166V618H165V619H164V621H165V622H166V623H159V622H160V621H161V619H160V618H159V615H160V614H161V613Z" fill="white"/>
<path d="M212 611.5H212.5V611V610.5H226.5V611V611.5H227H227.5V625.5H227H226.5V626V626.5H212.5V626V625.5H212H211.5V611.5H212Z" fill="#FF3333" stroke="#FF3333"/>
<path fill-rule="evenodd" clip-rule="evenodd" d="M214 621V616H217V619H215V621H214ZM215 618H216V617H215V618Z" fill="white"/>
<path d="M218 616H220V617H219V620H220V621H218V616Z" fill="white"/>
<path d="M220 620H221V617H220V620Z" fill="white"/>
<path d="M223 618H224V619H223V621H222V616H225V617H223V618Z" fill="white"/>
<path d="M269 611.5H269.5V611V610.5H283.5V611V611.5H284H284.5V625.5H284H283.5V626V626.5H269.5V626V625.5H269H268.5V611.5H269Z" fill="#FF3333" stroke="#FF3333"/>
<path fill-rule="evenodd" clip-rule="evenodd" d="M274 620V619H275V620H276V621H277V622H278V624H280V621H279V620H282V618H281V615H280V614H275V615H274V614H271V620H274ZM272 619H273V615H272V619Z" fill="white"/>
<path d="M326 611.5H326.5V611V610.5H340.5V611V611.5H341H341.5V625.5H341H340.5V626V626.5H326.5V626V625.5H326H325.5V611.5H326Z" fill="#FF3333" stroke="#FF3333"/>
<path fill-rule="evenodd" clip-rule="evenodd" d="M338 613H329V624H330V623H331V622H332V621H333V620H334V621H335V622H336V623H337V624H338V613ZM337 614H330V622H331V621H332V620H333V619H334V620H335V621H336V622H337V614Z" fill="white"/>
<path d="M383 611.5H383.5V611V610.5H397.5V611V611.5H398H398.5V625.5H398H397.5V626V626.5H383.5V626V625.5H383H382.5V611.5H383Z" fill="#FF3333" stroke="#FF3333"/>
<path fill-rule="evenodd" clip-rule="evenodd" d="M385 624V613H390V624H385ZM386 614H389V623H386V614Z" fill="white"/>
<path fill-rule="evenodd" clip-rule="evenodd" d="M392 623H393V622H394V621H395V620H396V619H397V618H396V617H395V616H394V615H393V614H392V613H391V624H392V623ZM393 622H392V615H393V616H394V617H395V618H396V619H395V620H394V621H393V622Z" fill="white"/>
<path d="M440 611.5H440.5V611V610.5H454.5V611V611.5H455H455.5V625.5H455H454.5V626V626.5H440.5V626V625.5H440H439.5V611.5H440Z" fill="#FF3333" stroke="#FF3333"/>
<path fill-rule="evenodd" clip-rule="evenodd" d="M450 614H451V615H453V616H454V623H451V624H444V623H441V616H442V615H444V612H448V613H445V616H450V614ZM450 621H445V623H450V621ZM444 620V622H442V616H444V617H451V616H453V622H451V620H444Z" fill="white"/>
<path d="M450 614H448V613H450V614Z" fill="white"/>
<path d="M497 611.5H497.5V611V610.5H511.5V611V611.5H512H512.5V625.5H512H511.5V626V626.5H497.5V626V625.5H497H496.5V611.5H497Z" fill="#FF3333" stroke="#FF3333"/>
<path d="M505 614H503V616H501V614H502V613H506V614H507V618H506V619H505V621H503V619H504V618H505V614Z" fill="white"/>
<path d="M503 624V622H505V624H503Z" fill="white"/>
<path d="M554 611.5H554.5V611V610.5H568.5V611V611.5H569H569.5V625.5H569H568.5V626V626.5H554.5V626V625.5H554H553.5V611.5H554Z" fill="#FF3333" stroke="#FF3333"/>
<path d="M564 614V615H563V617H562V620H561V622H562V623H558V622H559V620H560V617H561V615H560V614H564Z" fill="white"/>
<path d="M611 611.5H611.5V611V610.5H625.5V611V611.5H626H626.5V625.5H626H625.5V626V626.5H611.5V626V625.5H611H610.5V611.5H611Z" fill="#FF3333" stroke="#FF3333"/>
<path fill-rule="evenodd" clip-rule="evenodd" d="M616 614V612H618V617H619V612H621V614H622V616H624V624H619V619H618V624H613V616H615V614H616ZM617 615H616V617H614V620H617V615ZM620 620H623V617H621V615H620V620ZM614 621V623H617V621H614ZM623 621H620V623H623V621Z" fill="white"/>
<path d="M668 611.5H668.5V611V610.5H682.5V611V611.5H683H683.5V625.5H683H682.5V626V626.5H668.5V626V625.5H668H667.5V611.5H668Z" fill="#FF3333" stroke="#FF3333"/>
<path d="M676 618V616H675V618H673V619H675V621H676V619H678V618H676Z" fill="white"/>
<path fill-rule="evenodd" clip-rule="evenodd" d="M671 613V624H680V616H679V615H678V614H677V613H671ZM677 614V615H678V616H679V623H672V614H677Z" fill="white"/>
<path d="M725 611.5H725.5V611V610.5H739.5V611V611.5H740H740.5V625.5H740H739.5V626V626.5H725.5V626V625.5H725H724.5V611.5H725Z" fill="#FF3333" stroke="#FF3333"/>
<path fill-rule="evenodd" clip-rule="evenodd" d="M731 613H729V616H730V617H727V619H728V622H729V623H734V622H735V623H738V617H735V618H734V617H733V616H732V615H731V613ZM737 618H736V622H737V618Z" fill="white"/>
<path d="M782 611.5H782.5V611V610.5H796.5V611V611.5H797H797.5V625.5H797H796.5V626V626.5H782.5V626V625.5H782H781.5V611.5H782Z" fill="#FF3333" stroke="#FF3333"/>
<path fill-rule="evenodd" clip-rule="evenodd" d="M791 614H792V615H793V616H794V617H795V618H796V619H795V620H794V621H793V622H792V623H791V624H790V622H784V615H790V613H791V614ZM791 615H792V616H793V617H794V618H795V619H794V620H793V621H792V622H791V620H790V621H785V616H790V617H791V615Z" fill="white"/>
<path d="M839 611.5H839.5V611V610.5H853.5V611V611.5H854H854.5V625.5H854H853.5V626V626.5H839.5V626V625.5H839H838.5V611.5H839Z" fill="#FF3333" stroke="#FF3333"/>
<path d="M845 613V612H848V613H845Z" fill="white"/>
<path d="M843 614V613H845V614H843Z" fill="white"/>
<path d="M842 615V614H843V615H842Z" fill="white"/>
<path d="M841 617V615H842V617H841Z" fill="white"/>
<path d="M841 620H840V617H841V620Z" fill="white"/>
<path d="M842 622H841V620H842V622Z" fill="white"/>
<path d="M843 623H842V622H843V623Z" fill="white"/>
<path d="M845 624H843V623H845V624Z" fill="white"/>
<path d="M848 624V625H845V624H848Z" fill="white"/>
<path d="M850 623V624H848V623H850Z" fill="white"/>
<path d="M851 622V623H850V622H851Z" fill="white"/>
<path d="M852 620V622H851V620H852Z" fill="white"/>
<path d="M852 617H853V620H852V617Z" fill="white"/>
<path d="M851 615H852V617H851V615Z" fill="white"/>
<path d="M850 614H851V615H850V614Z" fill="white"/>
<path d="M850 614V613H848V614H850Z" fill="white"/>
<path d="M844 619V618H849V619H844Z" fill="white"/>
<path d="M41 668.5H41.5V668V667.5H55.5V668V668.5H56H56.5V682.5H56H55.5V683V683.5H41.5V683V682.5H41H40.5V668.5H41Z" fill="#FF3333" stroke="#FF3333"/>
<path d="M45 670H44V671H45V670Z" fill="white"/>
<path d="M54 671H46V672H54V671Z" fill="white"/>
<path d="M45 673V675H44V674H43V673H45Z" fill="white"/>
<path d="M44 675V676H43V675H44Z" fill="white"/>
<path d="M45 677H43V678H44V679H43V680H45V677Z" fill="white"/>
<path d="M46 675H54V676H46V675Z" fill="white"/>
<path d="M54 679H46V680H54V679Z" fill="white"/>
<path d="M98 668.5H98.5V668V667.5H112.5V668V668.5H113H113.5V682.5H113H112.5V683V683.5H98.5V683V682.5H98H97.5V668.5H98Z" fill="#FF3333" stroke="#FF3333"/>
<path d="M104 670H111V671H104V670Z" fill="white"/>
<path fill-rule="evenodd" clip-rule="evenodd" d="M104 673V671H103V673H100V674H99V679H100V680H103V681H104V682H105V681H106V680H107V679H109V678H110V677H111V676H112V671H111V676H109V678H108V674H107V673H104ZM107 674H100V679H103V680H104V681H105V679H107V674Z" fill="white"/>
<path d="M155 668.5H155.5V668V667.5H169.5V668V668.5H170H170.5V682.5H170H169.5V683V683.5H155.5V683V682.5H155H154.5V668.5H155Z" fill="#FF3333" stroke="#FF3333"/>
<path d="M158 672H157V679H158V672Z" fill="white"/>
<path d="M166 673H165V675H159V676H165V678H166V677H167V676H168V675H167V674H166V673Z" fill="white"/>
<path d="M212 668.5H212.5V668V667.5H226.5V668V668.5H227H227.5V682.5H227H226.5V683V683.5H212.5V683V682.5H212H211.5V668.5H212Z" fill="#FF3333" stroke="#FF3333"/>
<path fill-rule="evenodd" clip-rule="evenodd" d="M216 670H215V680V681H216H224V673H223V672H222V671H221V670H216ZM216 671H221V672H222V673H223V680H216V671Z" fill="white"/>
<path d="M269 668.5H269.5V668V667.5H283.5V668V668.5H284H284.5V682.5H284H283.5V683V683.5H269.5V683V682.5H269H268.5V668.5H269Z" fill="#FF3333" stroke="#FF3333"/>
<path fill-rule="evenodd" clip-rule="evenodd" d="M282 681H271V670H282V681ZM272 671H278V672H277V673H276V674H275V675H274V676H273V678H277V679H281V680H272V671ZM277 676H276V677H274V676H275V675H276V674H277V673H278V672H279V671H281V672H280V673H279V674H278V675H277V676ZM277 676H278V675H279V674H280V673H281V678H278V677H277V676Z" fill="white"/>
<path d="M326 668.5H326.5V668V667.5H340.5V668V668.5H341H341.5V682.5H341H340.5V683V683.5H326.5V683V682.5H326H325.5V668.5H326Z" fill="#FF3333" stroke="#FF3333"/>
<path d="M334 670H333V671H332V672H331V673H333V679H334V673H336V672H335V671H334V670Z" fill="white"/>
<path d="M337 680H330V681H337V680Z" fill="white"/>
<path d="M383 668.5H383.5V668V667.5H397.5V668V668.5H398H398.5V682.5H398H397.5V683V683.5H383.5V683V682.5H383H382.5V668.5H383Z" fill="#FF3333" stroke="#FF3333"/>
<path d="M394 672H387V674H394V672Z" fill="white"/>
<path d="M387 675H389V679H387V675Z" fill="white"/>
<path d="M394 675H390V679H394V675Z" fill="white"/>
<path fill-rule="evenodd" clip-rule="evenodd" d="M385 670H396V681H385V670ZM386 671H395V680H386V671Z" fill="white"/>
<path d="M440 668.5H440.5V668V667.5H454.5V668V668.5H455H455.5V682.5H455H454.5V683V683.5H440.5V683V682.5H440H439.5V668.5H440Z" fill="#FF3333" stroke="#FF3333"/>
<path fill-rule="evenodd" clip-rule="evenodd" d="M448 670V669H447V670H446V671H445V672H444V673H443V674H442V675H444V681H451V675H453V674H452V673H451V672H450V671H449V670H448ZM448 671H449V672H450V673H451V674H449V675H450V680H445V675H446V674H444V673H445V672H446V671H447V670H448V671Z" fill="white"/>
<path d="M497 668.5H497.5V668V667.5H511.5V668V668.5H512H512.5V682.5H512H511.5V683V683.5H497.5V683V682.5H497H496.5V668.5H497Z" fill="#FF3333" stroke="#FF3333"/>
<path d="M499 672H503V673H500V674H499V677H500V678H503V679H499V678H498V673H499V672Z" fill="white"/>
<path fill-rule="evenodd" clip-rule="evenodd" d="M506 678H503V677H501V674H503V673H506V674H508V677H506V678ZM502 676H507V675H502V676Z" fill="white"/>
<path d="M509 678V677H510V674H509V673H506V672H510V673H511V678H510V679H506V678H509Z" fill="white"/>
<path d="M554 668.5H554.5V668V667.5H568.5V668V668.5H569H569.5V682.5H569H568.5V683V683.5H554.5V683V682.5H554H553.5V668.5H554Z" fill="#FF3333" stroke="#FF3333"/>
<path fill-rule="evenodd" clip-rule="evenodd" d="M557 671V672H558V679H557V680H564V679H565V676H564V675H565V672H564V671H557ZM563 676H560V679H563V676ZM563 675H560V672H563V675Z" fill="white"/>
<path d="M611 668.5H611.5V668V667.5H625.5V668V668.5H626H626.5V682.5H626H625.5V683V683.5H611.5V683V682.5H611H610.5V668.5H611Z" fill="#FF3333" stroke="#FF3333"/>
<path d="M622 671H615V670H622V671Z" fill="white"/>
<path d="M619 681H618V680H617V679H616V678H618V672H619V678H621V679H620V680H619V681Z" fill="white"/>
<path d="M668 668.5H668.5V668V667.5H682.5V668V668.5H683H683.5V682.5H683H682.5V683V683.5H668.5V683V682.5H668H667.5V668.5H668Z" fill="#FF3333" stroke="#FF3333"/>
<path d="M678 678H679V679H678V678Z" fill="white"/>
<path d="M677 677H678V678H677V677Z" fill="white"/>
<path d="M676 676H677V677H676V676Z" fill="white"/>
<path d="M675 675H676V676H675V675Z" fill="white"/>
<path d="M674 674H675V675H674V674Z" fill="white"/>
<path d="M673 673H674V674H673V673Z" fill="white"/>
<path d="M673 673V672H672V673H673Z" fill="white"/>
<path fill-rule="evenodd" clip-rule="evenodd" d="M670 670V681H681V670H670ZM680 671H672V672H671V680H679V679H680V671Z" fill="white"/>
<path d="M725 668.5H725.5V668V667.5H739.5V668V668.5H740H740.5V682.5H740H739.5V683V683.5H725.5V683V682.5H725H724.5V668.5H725Z" fill="#FF3333" stroke="#FF3333"/>
<path d="M730 672H733V673H730V672Z" fill="white"/>
<path d="M735 674H730V675H735V674Z" fill="white"/>
<path d="M730 676H735V677H730V676Z" fill="white"/>
<path d="M735 678H730V679H735V678Z" fill="white"/>
<path fill-rule="evenodd" clip-rule="evenodd" d="M728 670V681H737V673H736V672H735V671H734V670H728ZM734 671V672H735V673H736V680H729V671H734Z" fill="white"/>
<path d="M782 668.5H782.5V668V667.5H796.5V668V668.5H797H797.5V682.5H797H796.5V683V683.5H782.5V683V682.5H782H781.5V668.5H782Z" fill="#FF3333" stroke="#FF3333"/>
<path d="M788 670V669H791V670H788Z" fill="white"/>
<path d="M786 671V670H788V671H786Z" fill="white"/>
<path d="M785 672V671H786V672H785Z" fill="white"/>
<path d="M784 674V672H785V674H784Z" fill="white"/>
<path d="M784 677H783V674H784V677Z" fill="white"/>
<path d="M785 679H784V677H785V679Z" fill="white"/>
<path d="M786 680H785V679H786V680Z" fill="white"/>
<path d="M788 681H786V680H788V681Z" fill="white"/>
<path d="M791 681V682H788V681H791Z" fill="white"/>
<path d="M793 680V681H791V680H793Z" fill="white"/>
<path d="M794 679V680H793V679H794Z" fill="white"/>
<path d="M795 677V679H794V677H795Z" fill="white"/>
<path d="M795 674H796V677H795V674Z" fill="white"/>
<path d="M794 672H795V674H794V672Z" fill="white"/>
<path d="M793 671H794V672H793V671Z" fill="white"/>
<path d="M793 671V670H791V671H793Z" fill="white"/>
<path d="M789 673H790V675H792V676H790V678H789V676H787V675H789V673Z" fill="white"/>
<path d="M839 668.5H839.5V668V667.5H853.5V668V668.5H854H854.5V682.5H854H853.5V683V683.5H839.5V683V682.5H839H838.5V668.5H839Z" fill="#FF3333" stroke="#FF3333"/>
<path fill-rule="evenodd" clip-rule="evenodd" d="M841 680V671H852V680H841ZM843 672H850V673H849V674H848V675H847V676H846V675H845V674H844V673H843V672ZM842 673H843V674H844V675H845V676H846V677H847V676H848V675H849V674H850V673H851V679H842V673Z" fill="white"/>
</svg>
