<svg width="952" height="400" viewBox="0 0 952 400" fill="none" xmlns="http://www.w3.org/2000/svg">
<rect width="952" height="400" fill="white"/>
<path d="M52 40H64V90H52L52 40Z" fill="#BBCEC7"/>
<path d="M52 40L40 40V90H52V40Z" fill="#97B4A9"/>
<path d="M64 40H76V90H64V40Z" fill="#DBE5E1"/>
<path d="M40 40V46H41V41H45V40H40Z" fill="black"/>
<path d="M76 40V46H75V41H71V40H76Z" fill="black"/>
<path d="M128 45H140V90H128L128 45Z" fill="#BBCEC7"/>
<path d="M128 49.5L116 49.5V90H128V49.5Z" fill="#97B4A9"/>
<path d="M140 40H152V90H140V40Z" fill="#DBE5E1"/>
<path d="M116 40V46H117V41H121V40H116Z" fill="black"/>
<path d="M152 40V46H151V41H147V40H152Z" fill="black"/>
<path d="M204 65H216V90H204L204 65Z" fill="#BBCEC7"/>
<path d="M204 49.5L192 49.5V90H204V49.5Z" fill="#97B4A9"/>
<path d="M216 40H228V90H216V40Z" fill="#DBE5E1"/>
<path d="M192 40V46H193V41H197V40H192Z" fill="black"/>
<path d="M228 40V46H227V41H223V40H228Z" fill="black"/>
<path d="M280 50H292V90H280L280 50Z" fill="#BBCEC7"/>
<path d="M280 70L268 70V90H280V70Z" fill="#97B4A9"/>
<path d="M292 40H304V90H292V40Z" fill="#DBE5E1"/>
<path d="M268 40V46H269V41H273V40H268Z" fill="black"/>
<path d="M304 40V46H303V41H299V40H304Z" fill="black"/>
<path d="M356 40H368V90H356L356 40Z" fill="#BBCEC7"/>
<path d="M356 50L344 50V90H356V50Z" fill="#97B4A9"/>
<path d="M368 70H380V90H368V70Z" fill="#DBE5E1"/>
<path d="M344 40V46H345V41H349V40H344Z" fill="black"/>
<path d="M380 40V46H379V41H375V40H380Z" fill="black"/>
<path d="M432 55H444V90H432L432 55Z" fill="#BBCEC7"/>
<path d="M432 70L420 70V90H432V70Z" fill="#97B4A9"/>
<path d="M444 80H456V90H444V80Z" fill="#DBE5E1"/>
<path d="M420 40V46H421V41H425V40H420Z" fill="black"/>
<path d="M456 40V46H455V41H451V40H456Z" fill="black"/>
<path d="M508 55H520V90H508L508 55Z" fill="#BBCEC7"/>
<path d="M508 70L496 70V90H508V70Z" fill="#97B4A9"/>
<path d="M520 40H532V90H520V40Z" fill="#DBE5E1"/>
<path d="M496 40V46H497V41H501V40H496Z" fill="black"/>
<path d="M532 40V46H531V41H527V40H532Z" fill="black"/>
<path d="M584 70H596V90H584L584 70Z" fill="#BBCEC7"/>
<path d="M584 40L572 40V90H584V40Z" fill="#97B4A9"/>
<path d="M596 80H608V90H596V80Z" fill="#DBE5E1"/>
<path d="M572 40V46H573V41H577V40H572Z" fill="black"/>
<path d="M608 40V46H607V41H603V40H608Z" fill="black"/>
<path d="M660 40H672V90H660L660 40Z" fill="#BBCEC7"/>
<path d="M660 62L648 62V90H660V62Z" fill="#97B4A9"/>
<path d="M672 51H684V90H672V51Z" fill="#DBE5E1"/>
<path d="M648 40V46H649V41H653V40H648Z" fill="black"/>
<path d="M684 40V46H683V41H679V40H684Z" fill="black"/>
<path d="M736 75H748V90H736L736 75Z" fill="#BBCEC7"/>
<path d="M736 62L724 62V90H736V62Z" fill="#97B4A9"/>
<path d="M748 51H760V90H748V51Z" fill="#DBE5E1"/>
<path d="M724 40V46H725V41H729V40H724Z" fill="black"/>
<path d="M760 40V46H759V41H755V40H760Z" fill="black"/>
<path d="M812 75H824V90H812L812 75Z" fill="#BBCEC7"/>
<path d="M812 80L800 80V90H812V80Z" fill="#97B4A9"/>
<path d="M824 66H836V90H824V66Z" fill="#DBE5E1"/>
<path d="M800 40V46H801V41H805V40H800Z" fill="black"/>
<path d="M836 40V46H835V41H831V40H836Z" fill="black"/>
<path d="M888 40H900V90H888L888 40Z" fill="#BBCEC7"/>
<path d="M888 80L876 80V90H888V80Z" fill="#97B4A9"/>
<path d="M900 85H912V90H900V85Z" fill="#DBE5E1"/>
<path d="M876 40V46H877V41H881V40H876Z" fill="black"/>
<path d="M912 40V46H911V41H907V40H912Z" fill="black"/>
<path d="M52 130H64V180H52L52 130Z" fill="#BBCEC7"/>
<path d="M52 170L40 170V180H52V170Z" fill="#97B4A9"/>
<path d="M64 130H76V180H64V130Z" fill="#DBE5E1"/>
<path d="M40 130V136H41V131H45V130H40Z" fill="black"/>
<path d="M76 130V136H75V131H71V130H76Z" fill="black"/>
<path d="M128 176H140V180H128L128 176Z" fill="#BBCEC7"/>
<path d="M128 130L116 130V180H128V130Z" fill="#97B4A9"/>
<path d="M140 172H152V180H140V172Z" fill="#DBE5E1"/>
<path d="M116 130V136H117V131H121V130H116Z" fill="black"/>
<path d="M152 130V136H151V131H147V130H152Z" fill="black"/>
<path d="M204 167H216V180H204L204 167Z" fill="#BBCEC7"/>
<path d="M204 130L192 130V180H204V130Z" fill="#97B4A9"/>
<path d="M216 172H228V180H216V172Z" fill="#DBE5E1"/>
<path d="M192 130V136H193V131H197V130H192Z" fill="black"/>
<path d="M228 130V136H227V131H223V130H228Z" fill="black"/>
<path d="M280 167H292V180H280L280 167Z" fill="#BBCEC7"/>
<path d="M280 172L268 172V180H280V172Z" fill="#97B4A9"/>
<path d="M292 172H304V180H292V172Z" fill="#DBE5E1"/>
<path d="M268 130V136H269V131H273V130H268Z" fill="black"/>
<path d="M304 130V136H303V131H299V130H304Z" fill="black"/>
<path d="M356 148H368V180H356L356 148Z" fill="#BBCEC7"/>
<path d="M356 148L344 148V180H356V148Z" fill="#97B4A9"/>
<path d="M368 172H380V180H368V172Z" fill="#DBE5E1"/>
<path d="M344 130V136H345V131H349V130H344Z" fill="black"/>
<path d="M380 130V136H379V131H375V130H380Z" fill="black"/>
<path d="M432 130H444V180H432L432 130Z" fill="#BBCEC7"/>
<path d="M432 148L420 148V180H432V148Z" fill="#97B4A9"/>
<path d="M444 172H456V180H444V172Z" fill="#DBE5E1"/>
<path d="M420 130V136H421V131H425V130H420Z" fill="black"/>
<path d="M456 130V136H455V131H451V130H456Z" fill="black"/>
<path d="M508 176H520V180H508L508 176Z" fill="#BBCEC7"/>
<path d="M508 148L496 148V180H508V148Z" fill="#97B4A9"/>
<path d="M520 172H532V180H520V172Z" fill="#DBE5E1"/>
<path d="M496 130V136H497V131H501V130H496Z" fill="black"/>
<path d="M532 130V136H531V131H527V130H532Z" fill="black"/>
<path d="M584 176H596V180H584L584 176Z" fill="#BBCEC7"/>
<path d="M584 136L572 136V180H584V136Z" fill="#97B4A9"/>
<path d="M596 133H608V180H596V133Z" fill="#DBE5E1"/>
<path d="M572 130V136H573V131H577V130H572Z" fill="black"/>
<path d="M608 130V136H607V131H603V130H608Z" fill="black"/>
<path d="M660 143H672V180H660L660 143Z" fill="#BBCEC7"/>
<path d="M660 136L648 136V180H660V136Z" fill="#97B4A9"/>
<path d="M672 172H684V180H672V172Z" fill="#DBE5E1"/>
<path d="M648 130V136H649V131H653V130H648Z" fill="black"/>
<path d="M684 130V136H683V131H679V130H684Z" fill="black"/>
<path d="M736 180H748V179H736L736 180Z" fill="#BBCEC7"/>
<path d="M736 150L724 150V180H736V150Z" fill="#97B4A9"/>
<path d="M748 136H760V180H748V136Z" fill="#DBE5E1"/>
<path d="M724 130V136H725V131H729V130H724Z" fill="black"/>
<path d="M760 130V136H759V131H755V130H760Z" fill="black"/>
<path d="M812 143H824V180H812L812 143Z" fill="#BBCEC7"/>
<path d="M812 136L800 136V180H812V136Z" fill="#97B4A9"/>
<path d="M824 143H836V180H824V143Z" fill="#DBE5E1"/>
<path d="M800 130V136H801V131H805V130H800Z" fill="black"/>
<path d="M836 130V136H835V131H831V130H836Z" fill="black"/>
<path d="M888 162H900V180H888L888 162Z" fill="#BBCEC7"/>
<path d="M888 162L876 162V180H888V162Z" fill="#97B4A9"/>
<path d="M900 162H912V180H900V162Z" fill="#DBE5E1"/>
<path d="M876 130V136H877V131H881V130H876Z" fill="black"/>
<path d="M912 130V136H911V131H907V130H912Z" fill="black"/>
<path d="M52 220H64V270H52L52 220Z" fill="#BBCEC7"/>
<path d="M52 220L40 220V270H52V220Z" fill="#97B4A9"/>
<path d="M64 220H76V270H64V220Z" fill="#DBE5E1"/>
<rect x="117" y="229" width="11" height="1" fill="#97B4A9"/>
<path d="M128 230H117H116V230.8V270H128V230Z" fill="#97B4A9"/>
<path d="M128 225H140V270H128L128 225Z" fill="#BBCEC7"/>
<rect x="140" y="220" width="11" height="1" fill="#DBE5E1"/>
<path d="M140 221H151H152V221.98V270H140V221Z" fill="#DBE5E1"/>
<rect x="193" y="229" width="11" height="1" fill="#97B4A9"/>
<path d="M204 230H193H192V230.8V270H204V230Z" fill="#97B4A9"/>
<path d="M204 245H216V270H204L204 245Z" fill="#BBCEC7"/>
<rect x="216" y="220" width="11" height="1" fill="#DBE5E1"/>
<path d="M216 221H227H228V221.98V270H216V221Z" fill="#DBE5E1"/>
<rect x="269" y="250" width="11" height="1" fill="#97B4A9"/>
<path d="M280 251H269H268V251.38V270H280V251Z" fill="#97B4A9"/>
<path d="M280 230H292V270H280L280 230Z" fill="#BBCEC7"/>
<rect x="292" y="220" width="11" height="1" fill="#DBE5E1"/>
<path d="M292 221H303H304V221.98V270H292V221Z" fill="#DBE5E1"/>
<rect x="345" y="230" width="11" height="1" fill="#97B4A9"/>
<path d="M356 231H345H344V231.78V270H356V231Z" fill="#97B4A9"/>
<path d="M356 220H368V270H356L356 220Z" fill="#BBCEC7"/>
<rect x="368" y="250" width="11" height="1" fill="#DBE5E1"/>
<path d="M368 251H379H380V251.38V270H368V251Z" fill="#DBE5E1"/>
<rect x="421" y="250" width="11" height="1" fill="#97B4A9"/>
<path d="M432 251H421H420V251.38V270H432V251Z" fill="#97B4A9"/>
<path d="M432 235H444V270H432L432 235Z" fill="#BBCEC7"/>
<rect x="444" y="260" width="11" height="1" fill="#DBE5E1"/>
<path d="M444 261H455H456V261.18V270H444V261Z" fill="#DBE5E1"/>
<rect x="497" y="250" width="11" height="1" fill="#97B4A9"/>
<path d="M508 251H497H496V251.38V270H508V251Z" fill="#97B4A9"/>
<path d="M508 235H520V270H508L508 235Z" fill="#BBCEC7"/>
<rect x="520" y="220" width="11" height="1" fill="#DBE5E1"/>
<path d="M520 221H531H532V221.98V270H520V221Z" fill="#DBE5E1"/>
<rect x="573" y="220" width="11" height="1" fill="#97B4A9"/>
<path d="M584 221H573H572V221.98V270H584V221Z" fill="#97B4A9"/>
<path d="M584 250H596V270H584L584 250Z" fill="#BBCEC7"/>
<rect x="596" y="260" width="11" height="1" fill="#DBE5E1"/>
<path d="M596 261H607H608V261.18V270H596V261Z" fill="#DBE5E1"/>
<rect x="649" y="242" width="11" height="1" fill="#97B4A9"/>
<path d="M660 243H649H648V243.54V270H660V243Z" fill="#97B4A9"/>
<path d="M660 220H672V270H660L660 220Z" fill="#BBCEC7"/>
<rect x="672" y="231" width="11" height="1" fill="#DBE5E1"/>
<path d="M672 232H683H684V232.76V270H672V232Z" fill="#DBE5E1"/>
<rect x="725" y="242" width="11" height="1" fill="#97B4A9"/>
<path d="M736 243H725H724V243.54V270H736V243Z" fill="#97B4A9"/>
<path d="M736 255H748V270H736L736 255Z" fill="#BBCEC7"/>
<rect x="748" y="231" width="11" height="1" fill="#DBE5E1"/>
<path d="M748 232H759H760V232.76V270H748V232Z" fill="#DBE5E1"/>
<rect x="801" y="260" width="11" height="1" fill="#97B4A9"/>
<path d="M812 261H801H800V261.18V270H812V261Z" fill="#97B4A9"/>
<path d="M812 255H824V270H812L812 255Z" fill="#BBCEC7"/>
<rect x="824" y="246" width="11" height="1" fill="#DBE5E1"/>
<path d="M824 247H835H836V247.46V270H824V247Z" fill="#DBE5E1"/>
<rect x="877" y="260" width="11" height="1" fill="#97B4A9"/>
<path d="M888 261H877H876V261.18V270H888V261Z" fill="#97B4A9"/>
<path d="M888 220H900V270H888L888 220Z" fill="#BBCEC7"/>
<rect x="900" y="265" width="11" height="1" fill="#DBE5E1"/>
<path d="M900 266H911H912V266.08V270H900V266Z" fill="#DBE5E1"/>
<rect x="41" y="350" width="11" height="1" fill="#97B4A9"/>
<path d="M52 351H41H40V351.18V360H52V351Z" fill="#97B4A9"/>
<path d="M52 310H64V360H52L52 310Z" fill="#BBCEC7"/>
<rect x="64" y="310" width="11" height="1" fill="#DBE5E1"/>
<path d="M64 311H75H76V311.98V360H64V311Z" fill="#DBE5E1"/>
<rect x="117" y="310" width="11" height="1" fill="#97B4A9"/>
<path d="M128 311H117H116V311.98V360H128V311Z" fill="#97B4A9"/>
<path d="M128 356H140V360H128L128 356Z" fill="#BBCEC7"/>
<rect x="140" y="352" width="11" height="1" fill="#DBE5E1"/>
<path d="M140 353H151H152V353.14V360H140V353Z" fill="#DBE5E1"/>
<rect x="193" y="310" width="11" height="1" fill="#97B4A9"/>
<path d="M204 311H193H192V311.98V360H204V311Z" fill="#97B4A9"/>
<path d="M204 347H216V360H204L204 347Z" fill="#BBCEC7"/>
<rect x="216" y="352" width="11" height="1" fill="#DBE5E1"/>
<path d="M216 353H227H228V353.14V360H216V353Z" fill="#DBE5E1"/>
<rect x="269" y="352" width="11" height="1" fill="#97B4A9"/>
<path d="M280 353H269H268V353.14V360H280V353Z" fill="#97B4A9"/>
<path d="M280 347H292V360H280L280 347Z" fill="#BBCEC7"/>
<rect x="292" y="352" width="11" height="1" fill="#DBE5E1"/>
<path d="M292 353H303H304V353.14V360H292V353Z" fill="#DBE5E1"/>
<rect x="345" y="328" width="11" height="1" fill="#97B4A9"/>
<path d="M356 329H345H344V329.62V360H356V329Z" fill="#97B4A9"/>
<path d="M356 328H368V360H356L356 328Z" fill="#BBCEC7"/>
<rect x="368" y="352" width="11" height="1" fill="#DBE5E1"/>
<path d="M368 353H379H380V353.14V360H368V353Z" fill="#DBE5E1"/>
<rect x="421" y="328" width="11" height="1" fill="#97B4A9"/>
<path d="M432 329H421H420V329.62V360H432V329Z" fill="#97B4A9"/>
<path d="M432 310H444V360H432L432 310Z" fill="#BBCEC7"/>
<rect x="444" y="352" width="11" height="1" fill="#DBE5E1"/>
<path d="M444 353H455H456V353.14V360H444V353Z" fill="#DBE5E1"/>
<rect x="497" y="328" width="11" height="1" fill="#97B4A9"/>
<path d="M508 329H497H496V329.62V360H508V329Z" fill="#97B4A9"/>
<path d="M508 356H520V360H508L508 356Z" fill="#BBCEC7"/>
<rect x="520" y="352" width="11" height="1" fill="#DBE5E1"/>
<path d="M520 353H531H532V353.14V360H520V353Z" fill="#DBE5E1"/>
<rect x="573" y="316" width="11" height="1" fill="#97B4A9"/>
<path d="M584 317H573H572V317.86V360H584V317Z" fill="#97B4A9"/>
<path d="M584 356H596V360H584L584 356Z" fill="#BBCEC7"/>
<rect x="596" y="313" width="11" height="1" fill="#DBE5E1"/>
<path d="M596 314H607H608V314.92V360H596V314Z" fill="#DBE5E1"/>
<rect x="649" y="316" width="11" height="1" fill="#97B4A9"/>
<path d="M660 317H649H648V317.86V360H660V317Z" fill="#97B4A9"/>
<path d="M660 323H672V360H660L660 323Z" fill="#BBCEC7"/>
<rect x="672" y="352" width="11" height="1" fill="#DBE5E1"/>
<path d="M672 353H683H684V353.14V360H672V353Z" fill="#DBE5E1"/>
<rect x="725" y="330" width="11" height="1" fill="#97B4A9"/>
<path d="M736 331H725H724V331.58V360H736V331Z" fill="#97B4A9"/>
<path d="M736 360H748V359H736L736 360Z" fill="#BBCEC7"/>
<rect x="748" y="316" width="11" height="1" fill="#DBE5E1"/>
<path d="M748 317H759H760V317.86V360H748V317Z" fill="#DBE5E1"/>
<rect x="801" y="316" width="11" height="1" fill="#97B4A9"/>
<path d="M812 317H801H800V317.86V360H812V317Z" fill="#97B4A9"/>
<path d="M812 323H824V360H812L812 323Z" fill="#BBCEC7"/>
<rect x="824" y="323" width="11" height="1" fill="#DBE5E1"/>
<path d="M824 324H835H836V324.72V360H824V324Z" fill="#DBE5E1"/>
<rect x="877" y="342" width="11" height="1" fill="#97B4A9"/>
<path d="M888 343H877H876V343.34V360H888V343Z" fill="#97B4A9"/>
<path d="M888 342H900V360H888L888 342Z" fill="#BBCEC7"/>
<rect x="900" y="342" width="11" height="1" fill="#DBE5E1"/>
<path d="M900 343H911H912V343.34V360H900V343Z" fill="#DBE5E1"/>
</svg>
