<svg width="952" height="216" viewBox="0 0 952 216" fill="none" xmlns="http://www.w3.org/2000/svg">
<rect width="952" height="216" fill="white"/>
<path d="M40 40H76V56H40V40Z" fill="#B8B4A5"/>
<path d="M40 56H76V72H40L40 56Z" fill="#85784C"/>
<path d="M76 72L40 72V88H76V72Z" fill="#564319"/>
<path d="M40 40V46H41V41H45V40H40Z" fill="black"/>
<path d="M76 40V46H75V41H71V40H76Z" fill="black"/>
<path d="M116 40H152V58H116V40Z" fill="#B8B4A5"/>
<path d="M116 58H152V74H116L116 58Z" fill="#85784C"/>
<path d="M152 74L116 74V88H152V74Z" fill="#564319"/>
<path d="M116 40V46H117V41H121V40H116Z" fill="black"/>
<path d="M152 40V46H151V41H147V40H152Z" fill="black"/>
<path d="M192 40H228V61H192V40Z" fill="#B8B4A5"/>
<path d="M192 61H228V71H192L192 61Z" fill="#85784C"/>
<path d="M228 71L192 71V88H228V71Z" fill="#564319"/>
<path d="M192 40V46H193V41H197V40H192Z" fill="black"/>
<path d="M228 40V46H227V41H223V40H228Z" fill="black"/>
<path d="M268 40H304V62H268V40Z" fill="#B8B4A5"/>
<path d="M268 62H304V79H268L268 62Z" fill="#85784C"/>
<path d="M304 79L268 79V88H304V79Z" fill="#564319"/>
<path d="M268 40V46H269V41H273V40H268Z" fill="black"/>
<path d="M304 40V46H303V41H299V40H304Z" fill="black"/>
<path d="M344 40H380V49H344V40Z" fill="#B8B4A5"/>
<path d="M344 49H380V71H344L344 49Z" fill="#85784C"/>
<path d="M380 71L344 71V88H380V71Z" fill="#564319"/>
<path d="M344 40V46H345V41H349V40H344Z" fill="black"/>
<path d="M380 40V46H379V41H375V40H380Z" fill="black"/>
<path d="M420 40H456V48H420V40Z" fill="#B8B4A5"/>
<path d="M420 48H456V73H420L420 48Z" fill="#85784C"/>
<path d="M456 73L420 73V88H456V73Z" fill="#564319"/>
<path d="M420 40V46H421V41H425V40H420Z" fill="black"/>
<path d="M456 40V46H455V41H451V40H456Z" fill="black"/>
<path d="M496 40H532V63H496V40Z" fill="#B8B4A5"/>
<path d="M496 63H532V79H496L496 63Z" fill="#85784C"/>
<path d="M532 79L496 79V88H532V79Z" fill="#564319"/>
<path d="M496 40V46H497V41H501V40H496Z" fill="black"/>
<path d="M532 40V46H531V41H527V40H532Z" fill="black"/>
<path d="M572 40H608V46H572V40Z" fill="#B8B4A5"/>
<path d="M572 46H608V58H572L572 46Z" fill="#85784C"/>
<path d="M608 58L572 58V88H608V58Z" fill="#564319"/>
<path d="M572 40V46H573V41H577V40H572Z" fill="black"/>
<path d="M608 40V46H607V41H603V40H608Z" fill="black"/>
<path d="M648 40H684V56H648V40Z" fill="#B8B4A5"/>
<path d="M648 56H684V76H648L648 56Z" fill="#85784C"/>
<path d="M684 76L648 76V88H684V76Z" fill="#564319"/>
<path d="M648 40V46H649V41H653V40H648Z" fill="black"/>
<path d="M684 40V46H683V41H679V40H684Z" fill="black"/>
<path d="M724 40H760V63H724V40Z" fill="#B8B4A5"/>
<path d="M724 63H760V72H724L724 63Z" fill="#85784C"/>
<path d="M760 72L724 72V88H760V72Z" fill="#564319"/>
<path d="M724 40V46H725V41H729V40H724Z" fill="black"/>
<path d="M760 40V46H759V41H755V40H760Z" fill="black"/>
<path d="M800 40H836V63H800V40Z" fill="#B8B4A5"/>
<path d="M800 63H836V78H800L800 63Z" fill="#85784C"/>
<path d="M836 78L800 78V88H836V78Z" fill="#564319"/>
<path d="M800 40V46H801V41H805V40H800Z" fill="black"/>
<path d="M836 40V46H835V41H831V40H836Z" fill="black"/>
<path d="M876 40H912V44H876V40Z" fill="#B8B4A5"/>
<path d="M876 44H912V80H876L876 44Z" fill="#85784C"/>
<path d="M912 80L876 80V88H912V80Z" fill="#564319"/>
<path d="M876 40V46H877V41H881V40H876Z" fill="black"/>
<path d="M912 40V46H911V41H907V40H912Z" fill="black"/>
<path d="M40 128H76V150H40V128Z" fill="#B8B4A5"/>
<path d="M40 150H76V171H40L40 150Z" fill="#85784C"/>
<path d="M76 171L40 171V176H76V171Z" fill="#564319"/>
<path d="M40 128V134H41V129H45V128H40Z" fill="black"/>
<path d="M76 128V134H75V129H71V128H76Z" fill="black"/>
<path d="M116 128H152V134H116V128Z" fill="#B8B4A5"/>
<path d="M116 134H152V138H116L116 134Z" fill="#85784C"/>
<path d="M152 138L116 138V176H152V138Z" fill="#564319"/>
<path d="M116 128V134H117V129H121V128H116Z" fill="black"/>
<path d="M152 128V134H151V129H147V128H152Z" fill="black"/>
<path d="M192 128H228V134H192V128Z" fill="#B8B4A5"/>
<path d="M192 134H228V142H192L192 134Z" fill="#85784C"/>
<path d="M228 142L192 142V176H228V142Z" fill="#564319"/>
<path d="M192 128V134H193V129H197V128H192Z" fill="black"/>
<path d="M228 128V134H227V129H223V128H228Z" fill="black"/>
<path d="M268 128H304V141H268V128Z" fill="#B8B4A5"/>
<path d="M268 141H304V163H268L268 141Z" fill="#85784C"/>
<path d="M304 163L268 163V176H304V163Z" fill="#564319"/>
<path d="M268 128V134H269V129H273V128H268Z" fill="black"/>
<path d="M304 128V134H303V129H299V128H304Z" fill="black"/>
<path d="M344 128H380V133H344V128Z" fill="#B8B4A5"/>
<path d="M344 133H380V155H344L344 133Z" fill="#85784C"/>
<path d="M380 155L344 155V176H380V155Z" fill="#564319"/>
<path d="M344 128V134H345V129H349V128H344Z" fill="black"/>
<path d="M380 128V134H379V129H375V128H380Z" fill="black"/>
<path d="M420 128H456V132H420V128Z" fill="#B8B4A5"/>
<path d="M420 132H456V159H420L420 132Z" fill="#85784C"/>
<path d="M456 159L420 159V176H456V159Z" fill="#564319"/>
<path d="M420 128V134H421V129H425V128H420Z" fill="black"/>
<path d="M456 128V134H455V129H451V128H456Z" fill="black"/>
<path d="M496 128H532V137H496V128Z" fill="#B8B4A5"/>
<path d="M496 137H532V141H496L496 137Z" fill="#85784C"/>
<path d="M532 141L496 141V176H532V141Z" fill="#564319"/>
<path d="M496 128V134H497V129H501V128H496Z" fill="black"/>
<path d="M532 128V134H531V129H527V128H532Z" fill="black"/>
<path d="M572 128H608V152H572V128Z" fill="#B8B4A5"/>
<path d="M572 152H608V154H572L572 152Z" fill="#85784C"/>
<path d="M608 154L572 154V176H608V154Z" fill="#564319"/>
<path d="M572 128V134H573V129H577V128H572Z" fill="black"/>
<path d="M608 128V134H607V129H603V128H608Z" fill="black"/>
<path d="M648 128H684V133H648V128Z" fill="#B8B4A5"/>
<path d="M648 133H684V152H648L648 133Z" fill="#85784C"/>
<path d="M684 152L648 152V176H684V152Z" fill="#564319"/>
<path d="M648 128V134H649V129H653V128H648Z" fill="black"/>
<path d="M684 128V134H683V129H679V128H684Z" fill="black"/>
<path d="M724 128H760V156H724V128Z" fill="#B8B4A5"/>
<path d="M724 157H760V156H724L724 157Z" fill="#85784C"/>
<path d="M760 157L724 157V176H760V157Z" fill="#564319"/>
<path d="M724 128V134H725V129H729V128H724Z" fill="black"/>
<path d="M760 128V134H759V129H755V128H760Z" fill="black"/>
<path d="M800 128H836V143H800V128Z" fill="#B8B4A5"/>
<path d="M800 143H836V158H800L800 143Z" fill="#85784C"/>
<path d="M836 158L800 158V176H836V158Z" fill="#564319"/>
<path d="M800 128V134H801V129H805V128H800Z" fill="black"/>
<path d="M836 128V134H835V129H831V128H836Z" fill="black"/>
<path d="M876 128H912V144H876V128Z" fill="#B8B4A5"/>
<path d="M876 144H912V160H876L876 144Z" fill="#85784C"/>
<path d="M912 160L876 160V176H912V160Z" fill="#564319"/>
<path d="M876 128V134H877V129H881V128H876Z" fill="black"/>
<path d="M912 128V134H911V129H907V128H912Z" fill="black"/>
</svg>
