<svg width="1038" height="600" viewBox="0 0 1038 600" fill="none" xmlns="http://www.w3.org/2000/svg">
<rect width="1038" height="599.994" fill="white"/>
<path d="M564.249 139.453H557.779L564.953 100.546H573.253L580.416 139.453H573.947L572.764 130.835H565.431L564.249 139.453ZM566.409 125.014H571.798L569.16 108.312H569.058L566.42 125.014H566.409Z" fill="#97B4AA"/>
<path d="M595.902 110.142C595.833 109.312 595.674 108.629 595.447 108.061C595.208 107.504 594.924 107.06 594.583 106.742C594.242 106.424 593.878 106.185 593.48 106.037C593.082 105.889 592.707 105.821 592.343 105.821C591.263 105.821 590.433 106.151 589.864 106.822C589.285 107.481 589 108.436 589 109.653C589 110.767 589.33 111.79 590.001 112.723C590.66 113.655 591.502 114.587 592.502 115.519C593.503 116.452 594.606 117.395 595.788 118.35C596.97 119.305 598.073 120.351 599.074 121.5C600.074 122.648 600.916 123.922 601.575 125.297C602.235 126.684 602.576 128.253 602.576 130.016C602.576 131.63 602.314 133.063 601.791 134.302C601.268 135.541 600.552 136.587 599.631 137.429C598.71 138.27 597.596 138.907 596.288 139.339C594.981 139.771 593.548 139.987 592.002 139.987C590.456 139.987 589.069 139.702 587.852 139.123C586.636 138.554 585.601 137.77 584.748 136.781C583.907 135.791 583.247 134.654 582.781 133.358C582.315 132.062 582.042 130.686 581.974 129.208L588.33 128.287C588.477 130.266 588.898 131.732 589.626 132.71C590.342 133.677 591.24 134.166 592.32 134.166C593.469 134.166 594.401 133.859 595.117 133.245C595.833 132.631 596.197 131.755 596.197 130.607C596.197 129.311 595.868 128.162 595.197 127.162C594.526 126.161 593.696 125.184 592.696 124.251C591.684 123.319 590.592 122.387 589.41 121.454C588.227 120.522 587.124 119.499 586.124 118.385C585.112 117.27 584.282 116.02 583.623 114.61C582.963 113.211 582.622 111.574 582.622 109.71C582.622 106.583 583.52 104.184 585.317 102.513C587.136 100.841 589.683 100 592.991 100C594.355 100 595.583 100.239 596.652 100.705C597.732 101.171 598.653 101.83 599.426 102.672C600.199 103.513 600.825 104.514 601.314 105.662C601.803 106.81 602.109 108.072 602.257 109.437L595.902 110.142Z" fill="#97B4AA"/>
<path d="M606.328 139.453V100.546H615.924C620.051 100.546 623.098 101.422 625.053 103.184C627.009 104.946 627.987 107.891 627.987 112.018C627.987 114.099 627.748 115.872 627.259 117.328C626.77 118.783 626.043 119.965 625.053 120.886C624.064 121.807 622.802 122.467 621.279 122.876C619.755 123.285 617.959 123.49 615.912 123.49H613.002V139.442H606.316L606.328 139.453ZM613.013 118.01H615.594C616.674 118.01 617.584 117.919 618.311 117.737C619.05 117.555 619.642 117.237 620.085 116.771C620.528 116.304 620.847 115.679 621.029 114.917C621.211 114.156 621.301 113.189 621.301 112.03C621.301 110.87 621.211 109.915 621.029 109.142C620.847 108.369 620.54 107.755 620.085 107.311C619.63 106.868 619.039 106.538 618.311 106.345C617.572 106.151 616.663 106.049 615.594 106.049H613.013V118.01Z" fill="#97B4AA"/>
<path d="M632.239 139.453V100.546H638.924V139.453H632.239Z" fill="#97B4AA"/>
<path d="M650.578 139.453H643.893V100.546H653.272C657.013 100.546 659.833 101.422 661.731 103.184C663.63 104.946 664.585 107.891 664.585 112.018C664.585 113.599 664.449 114.951 664.176 116.054C663.903 117.169 663.55 118.112 663.096 118.885C662.641 119.658 662.141 120.284 661.584 120.75C661.026 121.216 660.458 121.58 659.89 121.83L665.552 139.453H658.764L654.023 123.342C653.591 123.41 653.056 123.456 652.431 123.479C651.806 123.501 651.18 123.501 650.578 123.501V139.453ZM652.943 118.01C653.841 118.01 654.603 117.919 655.228 117.737C655.853 117.555 656.365 117.237 656.763 116.771C657.161 116.304 657.445 115.679 657.627 114.917C657.809 114.156 657.9 113.189 657.9 112.03C657.9 109.733 657.525 108.164 656.763 107.311C656.012 106.47 654.728 106.049 652.931 106.049H650.566V118.01H652.943Z" fill="#97B4AA"/>
<path d="M669.372 100.546H687.268V106.367H676.057V116.395H684.675V122.217H676.057V133.643H688.018V139.464H669.372V100.546Z" fill="#97B4AA"/>
<path d="M719.648 100.546L724.173 125.332H724.275L727.993 100.546H734.246L727.402 139.453H721.796L716.942 113.746H716.828L712.303 139.453H706.698L699.33 100.546H705.583L709.676 125.332H709.779L714.145 100.546H719.648Z" fill="#97B4AA"/>
<path d="M738.021 139.453V100.546H744.706V139.453H738.021Z" fill="#97B4AA"/>
<path d="M754.757 106.367H748.288V100.546H767.901V106.367H761.431V139.453H754.746V106.367H754.757Z" fill="#97B4AA"/>
<path d="M771.129 139.453V100.546H777.815V116.384H784.932V100.546H791.617V139.453H784.932V122.205H777.815V139.453H771.129Z" fill="#97B4AA"/>
<path d="M796.609 139.453V100.546H803.294V139.453H796.609Z" fill="#97B4AA"/>
<path d="M808.263 139.453V100.546H814.459L822.6 122.808H822.713V100.546H828.75V139.453H822.929L814.413 115.145H814.311V139.453H808.263Z" fill="#97B4AA"/>
<path d="M833.093 139.453V133.097H839.449V139.453H833.093Z" fill="#97B4AA"/>
<path d="M866.839 100.546H860.153L853.138 114.929H853.025V100.546H846.351V139.464H853.025V125.662L855.412 121.353H855.503L860.96 139.464H867.748L859.619 115.042L866.839 100.546Z" fill="#574319"/>
<path d="M930.826 100.546H922.526L915.352 139.464H921.821L926.619 108.3H926.733L931.531 139.464H938L930.826 100.546Z" fill="#574319"/>
<path d="M903.05 100.546H893.136V139.476H903.05C909.951 139.476 913.612 135.701 913.612 127.72V112.302C913.612 104.332 909.951 100.546 903.05 100.546ZM906.938 128.527C906.938 132.62 905.699 133.961 902.14 133.961H899.821V106.038H902.14C905.699 106.038 906.938 107.379 906.938 111.472V128.527Z" fill="#574319"/>
<path d="M878.981 100C871.977 100 868.737 104.48 868.737 109.971V130.027C868.737 135.518 871.977 139.998 878.981 139.998C885.984 139.998 889.225 135.518 889.225 130.027V109.971C889.225 104.468 885.984 100 878.981 100ZM882.539 129.868C882.539 132.778 881.675 134.177 878.981 134.177C876.286 134.177 875.422 132.778 875.422 129.868V110.13C875.422 107.22 876.297 105.821 878.981 105.821C881.664 105.821 882.539 107.22 882.539 110.13V129.868Z" fill="#574319"/>
<path d="M269.934 226.365H263.465V220.544H283.077V226.365H276.608V259.45H269.923V226.365H269.934Z" fill="#97B4AA"/>
<path d="M286.568 259.45V220.544H293.253V236.393H300.37V220.544H307.055V259.45H300.37V242.203H293.253V259.45H286.568Z" fill="#97B4AA"/>
<path d="M311.898 220.544H329.793V226.365H318.583V236.393H327.201V242.214H318.583V253.641H330.544V259.462H311.898V220.544Z" fill="#97B4AA"/>
<path d="M345.631 229.969C345.631 228.605 345.836 227.309 346.256 226.092C346.666 224.876 347.302 223.807 348.144 222.909C348.985 222.01 350.042 221.306 351.327 220.783C352.6 220.26 354.124 219.998 355.875 219.998C357.626 219.998 359.149 220.26 360.434 220.783C361.707 221.306 362.765 222.01 363.617 222.909C364.459 223.807 365.095 224.864 365.505 226.092C365.914 227.309 366.119 228.605 366.119 229.969V250.013C366.119 251.378 365.914 252.674 365.505 253.89C365.095 255.107 364.459 256.175 363.617 257.074C362.776 257.972 361.707 258.677 360.434 259.2C359.161 259.723 357.637 259.984 355.875 259.984C354.113 259.984 352.6 259.723 351.327 259.2C350.054 258.677 348.996 257.972 348.144 257.074C347.302 256.175 346.666 255.118 346.256 253.89C345.847 252.674 345.631 251.378 345.631 250.013V229.969ZM352.316 249.854C352.316 251.332 352.566 252.412 353.067 253.117C353.567 253.822 354.499 254.163 355.863 254.163C357.228 254.163 358.16 253.811 358.66 253.117C359.161 252.412 359.411 251.332 359.411 249.854V230.14C359.411 228.673 359.161 227.581 358.66 226.877C358.16 226.172 357.228 225.831 355.863 225.831C354.499 225.831 353.567 226.183 353.067 226.877C352.566 227.581 352.316 228.662 352.316 230.14V249.865V249.854Z" fill="#97B4AA"/>
<path d="M370.86 259.45V220.544H380.456C384.583 220.544 387.63 221.42 389.586 223.182C391.541 224.944 392.519 227.889 392.519 232.016C392.519 234.097 392.28 235.87 391.791 237.326C391.303 238.781 390.575 239.963 389.586 240.884C388.597 241.805 387.335 242.465 385.811 242.874C384.288 243.283 382.491 243.488 380.445 243.488H377.534V259.439H370.849L370.86 259.45ZM377.546 238.008H380.126C381.207 238.008 382.116 237.917 382.844 237.735C383.583 237.553 384.174 237.235 384.617 236.768C385.061 236.302 385.379 235.677 385.561 234.915C385.743 234.153 385.834 233.187 385.834 232.027C385.834 230.868 385.743 229.913 385.561 229.14C385.379 228.366 385.072 227.753 384.617 227.309C384.163 226.866 383.571 226.536 382.844 226.343C382.105 226.149 381.195 226.047 380.126 226.047H377.546V238.008Z" fill="#97B4AA"/>
<path d="M396.611 259.45V220.544H406.207C410.334 220.544 413.381 221.42 415.337 223.182C417.292 224.944 418.27 227.889 418.27 232.016C418.27 234.097 418.031 235.87 417.543 237.326C417.054 238.781 416.326 239.963 415.337 240.884C414.348 241.805 413.086 242.465 411.562 242.874C410.039 243.283 408.242 243.488 406.196 243.488H403.285V259.439H396.6L396.611 259.45ZM403.297 238.008H405.878C406.958 238.008 407.867 237.917 408.595 237.735C409.334 237.553 409.925 237.235 410.368 236.768C410.812 236.302 411.13 235.677 411.312 234.915C411.494 234.153 411.585 233.187 411.585 232.027C411.585 230.868 411.494 229.913 411.312 229.14C411.13 228.366 410.823 227.753 410.368 227.309C409.914 226.866 409.322 226.536 408.595 226.343C407.856 226.149 406.946 226.047 405.878 226.047H403.297V238.008Z" fill="#97B4AA"/>
<path d="M422.363 229.969C422.363 228.605 422.568 227.309 422.989 226.092C423.398 224.876 424.035 223.807 424.876 222.909C425.717 222.01 426.775 221.306 428.059 220.783C429.333 220.26 430.856 219.998 432.607 219.998C434.358 219.998 435.882 220.26 437.166 220.783C438.44 221.306 439.497 222.01 440.35 222.909C441.191 223.807 441.828 224.864 442.237 226.092C442.646 227.309 442.851 228.605 442.851 229.969V250.013C442.851 251.378 442.646 252.674 442.237 253.89C441.828 255.107 441.191 256.175 440.35 257.074C439.508 257.972 438.44 258.677 437.166 259.2C435.893 259.723 434.369 259.984 432.607 259.984C430.845 259.984 429.333 259.723 428.059 259.2C426.786 258.677 425.729 257.972 424.876 257.074C424.035 256.175 423.398 255.118 422.989 253.89C422.579 252.674 422.363 251.378 422.363 250.013V229.969ZM429.049 249.854C429.049 251.332 429.299 252.412 429.799 253.117C430.299 253.822 431.231 254.163 432.596 254.163C433.96 254.163 434.892 253.811 435.393 253.117C435.893 252.412 436.143 251.332 436.143 249.854V230.14C436.143 228.673 435.893 227.581 435.393 226.877C434.892 226.172 433.96 225.831 432.596 225.831C431.231 225.831 430.299 226.183 429.799 226.877C429.299 227.581 429.049 228.662 429.049 230.14V249.865V249.854Z" fill="#97B4AA"/>
<path d="M454.278 259.45H447.592V220.544H456.972C460.713 220.544 463.532 221.42 465.431 223.182C467.33 224.944 468.285 227.889 468.285 232.016C468.285 233.596 468.148 234.949 467.876 236.052C467.603 237.166 467.25 238.11 466.795 238.883C466.341 239.656 465.84 240.282 465.283 240.748C464.726 241.214 464.158 241.578 463.589 241.828L469.251 259.45H462.464L457.723 243.34C457.291 243.408 456.756 243.454 456.131 243.476C455.506 243.499 454.88 243.499 454.266 243.499V259.45H454.278ZM456.654 238.008C457.552 238.008 458.314 237.917 458.939 237.735C459.564 237.553 460.076 237.235 460.474 236.768C460.872 236.302 461.156 235.677 461.338 234.915C461.52 234.142 461.611 233.187 461.611 232.027C461.611 229.731 461.236 228.162 460.474 227.309C459.724 226.468 458.439 226.047 456.643 226.047H454.266V238.008H456.654Z" fill="#97B4AA"/>
<path d="M477.801 226.365H471.332V220.544H490.944V226.365H484.475V259.45H477.789V226.365H477.801Z" fill="#97B4AA"/>
<path d="M494.435 220.544H501.12V249.911C501.12 252.754 502.302 254.175 504.678 254.175C507.055 254.175 508.237 252.754 508.237 249.911V220.544H514.922V249.65C514.922 253.027 514.013 255.596 512.205 257.358C510.386 259.121 507.885 259.996 504.69 259.996C501.495 259.996 498.982 259.121 497.175 257.358C495.356 255.596 494.457 253.027 494.457 249.65V220.544H494.435Z" fill="#97B4AA"/>
<path d="M519.743 259.45V220.544H525.939L534.079 242.806H534.182V220.544H540.219V259.45H534.398L525.882 235.143H525.78V259.45H519.743Z" fill="#97B4AA"/>
<path d="M545.494 259.45V220.544H552.179V259.45H545.494Z" fill="#97B4AA"/>
<path d="M562.503 226.365H556.034V220.544H575.646V226.365H569.177V259.45H562.492V226.365H562.503Z" fill="#97B4AA"/>
<path d="M592.632 259.45H585.947V243.283L577.863 220.544H584.651L589.335 235.359H589.437L593.905 220.544H600.693L592.609 243.283V259.45H592.632Z" fill="#97B4AA"/>
<path d="M627.763 233.528V230.515C627.763 228.866 627.445 227.672 626.797 226.933C626.149 226.194 625.398 225.831 624.534 225.831C623.17 225.831 622.238 226.183 621.737 226.877C621.237 227.57 620.987 228.662 620.987 230.14V249.865C620.987 251.343 621.237 252.424 621.737 253.128C622.238 253.833 623.17 254.174 624.534 254.174C625.751 254.174 626.604 253.833 627.07 253.151C627.536 252.469 627.775 251.503 627.775 250.241V245.556H634.46V250.025C634.46 251.389 634.255 252.685 633.846 253.902C633.437 255.118 632.823 256.187 632.015 257.085C631.208 257.983 630.174 258.688 628.912 259.211C627.65 259.734 626.194 259.996 624.546 259.996C622.783 259.996 621.271 259.734 619.998 259.211C618.725 258.688 617.667 257.983 616.815 257.085C615.973 256.187 615.337 255.129 614.927 253.902C614.518 252.685 614.302 251.389 614.302 250.025V229.969C614.302 228.605 614.507 227.309 614.927 226.092C615.337 224.876 615.973 223.807 616.815 222.909C617.656 222.01 618.713 221.306 619.998 220.783C621.271 220.26 622.795 219.998 624.546 219.998C626.194 219.998 627.65 220.282 628.912 220.862C630.174 221.442 631.197 222.204 632.015 223.181C632.834 224.159 633.437 225.285 633.846 226.581C634.255 227.877 634.46 229.241 634.46 230.674V233.528H627.763Z" fill="#97B4AA"/>
<path d="M639.235 229.969C639.235 228.605 639.439 227.309 639.849 226.092C640.258 224.876 640.895 223.807 641.736 222.909C642.577 222.01 643.635 221.306 644.919 220.783C646.193 220.26 647.716 219.998 649.467 219.998C651.218 219.998 652.741 220.26 654.026 220.783C655.3 221.306 656.357 222.01 657.21 222.909C658.051 223.807 658.688 224.864 659.097 226.092C659.506 227.32 659.711 228.605 659.711 229.969V250.013C659.711 251.378 659.506 252.674 659.097 253.89C658.688 255.107 658.051 256.175 657.21 257.074C656.368 257.972 655.311 258.677 654.026 259.2C652.753 259.723 651.229 259.984 649.467 259.984C647.705 259.984 646.193 259.723 644.919 259.2C643.646 258.677 642.589 257.972 641.736 257.074C640.895 256.175 640.258 255.118 639.849 253.89C639.439 252.662 639.235 251.378 639.235 250.013V229.969ZM645.92 249.854C645.92 251.332 646.17 252.412 646.67 253.117C647.17 253.822 648.103 254.163 649.467 254.163C650.831 254.163 651.764 253.811 652.264 253.117C652.764 252.424 653.014 251.332 653.014 249.854V230.14C653.014 228.673 652.764 227.581 652.264 226.877C651.764 226.172 650.831 225.831 649.467 225.831C648.103 225.831 647.17 226.183 646.67 226.877C646.17 227.57 645.92 228.662 645.92 230.14V249.865V249.854Z" fill="#97B4AA"/>
<path d="M691.454 220.544V259.45H685.633V229.06H685.531L679.493 259.45H676.265L670.227 229.06H670.125V259.45H664.304V220.544H673.092L677.834 243.283H677.936L682.677 220.544H691.465H691.454Z" fill="#97B4AA"/>
<path d="M723.141 220.544V259.45H717.32V229.06H717.217L711.18 259.45H707.951L701.914 229.06H701.812V259.45H695.991V220.544H704.779L709.52 243.283H709.623L714.364 220.544H723.152H723.141Z" fill="#97B4AA"/>
<path d="M727.825 220.544H734.51V249.911C734.51 252.754 735.693 254.175 738.069 254.175C740.445 254.175 741.627 252.754 741.627 249.911V220.544H748.313V249.65C748.313 253.027 747.403 255.596 745.595 257.358C743.776 259.121 741.275 259.996 738.08 259.996C734.885 259.996 732.373 259.121 730.565 257.358C728.746 255.596 727.848 253.027 727.848 249.65V220.544H727.825Z" fill="#97B4AA"/>
<path d="M753.134 259.45V220.544H759.33L767.471 242.806H767.573V220.544H773.61V259.45H767.789L759.273 235.143H759.171V259.45H753.134Z" fill="#97B4AA"/>
<path d="M778.874 259.45V220.544H785.559V259.45H778.874Z" fill="#97B4AA"/>
<path d="M795.882 226.365H789.413V220.544H809.025V226.365H802.556V259.45H795.871V226.365H795.882Z" fill="#97B4AA"/>
<path d="M826.011 259.45H819.326V243.283L811.242 220.544H818.03L822.714 235.359H822.816L827.285 220.544H834.072L825.988 243.283V259.45H826.011Z" fill="#97B4AA"/>
<path d="M833.083 259.45V253.095H839.438V259.45H833.083Z" fill="#97B4AA"/>
<path d="M866.829 220.544H860.143L853.14 234.927H853.026V220.544H846.341V259.473H853.026V245.659L855.402 241.35H855.505L860.951 259.473H867.749L859.609 235.04L866.829 220.544Z" fill="#574319"/>
<path d="M930.827 220.544H922.516L915.353 259.473H921.822L926.62 228.298H926.723L931.532 259.473H938.001L930.827 220.544Z" fill="#574319"/>
<path d="M903.052 220.543H893.137V259.472H903.052C909.953 259.472 913.614 255.698 913.614 247.705V232.288C913.614 224.318 909.953 220.532 903.052 220.532V220.543ZM906.929 248.524C906.929 252.617 905.689 253.958 902.131 253.958H899.811V226.035H902.131C905.689 226.035 906.929 227.376 906.929 231.469V248.524Z" fill="#574319"/>
<path d="M878.983 219.998C871.979 219.998 868.739 224.478 868.739 229.969V250.025C868.739 255.516 871.979 259.996 878.983 259.996C885.986 259.996 889.226 255.516 889.226 250.025V229.969C889.226 224.466 885.986 219.998 878.983 219.998ZM882.541 249.865C882.541 252.776 881.677 254.174 878.983 254.174C876.288 254.174 875.424 252.776 875.424 249.865V230.128C875.424 227.218 876.288 225.819 878.983 225.819C881.677 225.819 882.541 227.218 882.541 230.128V249.865Z" fill="#574319"/>
<path d="M364.971 379.461V340.555H371.656V379.461H364.971Z" fill="#97B4AA"/>
<path d="M382.73 346.911L379.012 353.596H376.158L378.796 346.911H376.374V340.555H382.73V346.911Z" fill="#97B4AA"/>
<path d="M413.894 340.544V379.45H408.073V349.06H407.97L401.933 379.45H398.704L392.667 349.06H392.565V379.45H386.744V340.544H395.532L400.273 363.283H400.375L405.117 340.544H413.905H413.894Z" fill="#97B4AA"/>
<path d="M456.085 340.544V379.45H450.264V349.06H450.161L444.124 379.45H440.895L434.858 349.06H434.756V379.45H428.935V340.544H437.723L442.464 363.283H442.567L447.308 340.544H456.096H456.085Z" fill="#97B4AA"/>
<path d="M460.451 349.98C460.451 348.616 460.656 347.32 461.077 346.103C461.486 344.887 462.123 343.818 462.964 342.92C463.805 342.021 464.863 341.317 466.148 340.794C467.421 340.271 468.944 340.009 470.695 340.009C472.446 340.009 473.97 340.271 475.254 340.794C476.528 341.317 477.585 342.021 478.438 342.92C479.279 343.818 479.916 344.875 480.325 346.103C480.734 347.32 480.939 348.616 480.939 349.98V370.024C480.939 371.389 480.734 372.685 480.325 373.901C479.916 375.118 479.279 376.186 478.438 377.085C477.597 377.983 476.528 378.688 475.254 379.211C473.981 379.734 472.458 379.995 470.695 379.995C468.933 379.995 467.421 379.734 466.148 379.211C464.874 378.688 463.817 377.983 462.964 377.085C462.123 376.186 461.486 375.129 461.077 373.901C460.667 372.685 460.451 371.389 460.451 370.024V349.98ZM467.137 369.865C467.137 371.343 467.387 372.423 467.887 373.128C468.387 373.833 469.32 374.174 470.684 374.174C472.048 374.174 472.981 373.822 473.481 373.128C473.981 372.423 474.231 371.343 474.231 369.865V350.139C474.231 348.661 473.981 347.581 473.481 346.876C472.981 346.171 472.048 345.83 470.684 345.83C469.32 345.83 468.387 346.183 467.887 346.876C467.387 347.581 467.137 348.661 467.137 350.139V369.865Z" fill="#97B4AA"/>
<path d="M492.092 379.461H485.406V340.555H494.786C498.527 340.555 501.346 341.431 503.245 343.193C505.144 344.955 506.099 347.9 506.099 352.027C506.099 353.607 505.962 354.96 505.689 356.063C505.417 357.177 505.064 358.121 504.609 358.894C504.155 359.667 503.654 360.293 503.097 360.759C502.54 361.225 501.972 361.589 501.403 361.839L507.065 379.461H500.278L495.537 363.351C495.105 363.419 494.57 363.465 493.945 363.487C493.32 363.51 492.694 363.51 492.08 363.51V379.461H492.092ZM492.092 358.007H494.468C495.366 358.007 496.128 357.916 496.753 357.734C497.378 357.553 497.89 357.234 498.288 356.768C498.686 356.302 498.97 355.677 499.152 354.903C499.334 354.13 499.425 353.175 499.425 352.016C499.425 349.719 499.05 348.15 498.288 347.297C497.538 346.456 496.253 346.035 494.456 346.035H492.08V357.996L492.092 358.007Z" fill="#97B4AA"/>
<path d="M510.885 340.555H528.781V346.376H517.571V356.404H526.189V362.225H517.571V373.652H529.531V379.473H510.885V340.555Z" fill="#97B4AA"/>
<path d="M547.961 346.365H541.492V340.544H561.104V346.365H554.635V379.45H547.95V346.365H547.961Z" fill="#97B4AA"/>
<path d="M564.333 379.461V340.555H571.018V356.404H578.135V340.555H584.82V379.461H578.135V362.214H571.018V379.461H564.333Z" fill="#97B4AA"/>
<path d="M594.462 379.461H587.993L595.156 340.555H603.455L610.618 379.461H604.149L602.967 370.843H595.633L594.451 379.461H594.462ZM596.622 365.011H602.012L599.374 348.309H599.271L596.634 365.011H596.622Z" fill="#97B4AA"/>
<path d="M613.79 379.461V340.555H619.986L628.126 362.817H628.229V340.555H634.266V379.461H628.445L619.929 355.154H619.827V379.461H613.79Z" fill="#97B4AA"/>
<path d="M653.89 379.461H647.42L654.583 340.555H662.883L670.045 379.461H663.576L662.394 370.843H655.061L653.878 379.461H653.89ZM656.038 365.011H661.427L658.79 348.309H658.687L656.05 365.011H656.038Z" fill="#97B4AA"/>
<path d="M689.886 379.461H683.201V340.555H692.58C696.321 340.555 699.141 341.431 701.039 343.193C702.938 344.955 703.893 347.9 703.893 352.027C703.893 353.607 703.757 354.96 703.484 356.063C703.211 357.177 702.858 358.121 702.404 358.894C701.949 359.667 701.449 360.293 700.891 360.759C700.334 361.225 699.766 361.589 699.197 361.839L704.859 379.461H698.072L693.331 363.351C692.899 363.419 692.364 363.465 691.739 363.487C691.114 363.51 690.488 363.51 689.886 363.51V379.461ZM689.886 358.007H692.251C693.149 358.007 693.911 357.916 694.536 357.734C695.161 357.553 695.673 357.234 696.071 356.768C696.469 356.302 696.753 355.677 696.935 354.903C697.117 354.13 697.208 353.175 697.208 352.016C697.208 349.719 696.833 348.15 696.071 347.297C695.32 346.456 694.036 346.035 692.239 346.035H689.875V357.996L689.886 358.007Z" fill="#97B4AA"/>
<path d="M708.679 340.555H726.574V346.376H715.364V356.404H723.982V362.225H715.364V373.652H727.324V379.473H708.679V340.555Z" fill="#97B4AA"/>
<path d="M743.924 350.139C743.856 349.309 743.696 348.627 743.469 348.07C743.23 347.513 742.946 347.069 742.605 346.751C742.264 346.432 741.9 346.194 741.502 346.046C741.104 345.898 740.729 345.83 740.365 345.83C739.285 345.83 738.466 346.16 737.887 346.83C737.307 347.49 737.022 348.433 737.022 349.661C737.022 350.776 737.352 351.799 738.023 352.731C738.682 353.663 739.524 354.596 740.524 355.528C741.525 356.46 742.628 357.404 743.81 358.359C744.992 359.314 746.095 360.36 747.096 361.508C748.096 362.657 748.938 363.93 749.597 365.306C750.256 366.693 750.598 368.262 750.598 370.024C750.598 371.638 750.336 373.071 749.813 374.31C749.29 375.55 748.574 376.595 747.653 377.437C746.732 378.278 745.618 378.915 744.31 379.347C743.003 379.779 741.57 379.995 740.024 379.995C738.478 379.995 737.091 379.711 735.874 379.131C734.646 378.551 733.623 377.778 732.77 376.789C731.929 375.8 731.27 374.663 730.803 373.367C730.337 372.07 730.064 370.695 729.996 369.217L736.352 368.296C736.5 370.274 736.932 371.741 737.648 372.719C738.364 373.696 739.262 374.174 740.342 374.174C741.491 374.174 742.423 373.867 743.139 373.253C743.856 372.639 744.219 371.763 744.219 370.615C744.219 369.319 743.89 368.171 743.219 367.17C742.559 366.17 741.718 365.192 740.718 364.26C739.717 363.327 738.614 362.395 737.432 361.463C736.249 360.531 735.147 359.507 734.146 358.393C733.146 357.279 732.304 356.017 731.645 354.618C730.985 353.22 730.644 351.583 730.644 349.718C730.644 346.592 731.542 344.193 733.339 342.521C735.135 340.85 737.682 340.02 740.99 340.02C742.355 340.02 743.571 340.259 744.651 340.725C745.731 341.191 746.652 341.851 747.426 342.692C748.199 343.533 748.824 344.534 749.313 345.682C749.802 346.83 750.109 348.092 750.256 349.457L743.901 350.162L743.924 350.139Z" fill="#97B4AA"/>
<path d="M754.35 340.544H761.036V369.911C761.036 372.754 762.218 374.164 764.594 374.164C766.971 374.164 768.153 372.742 768.153 369.911V340.544H774.838V369.65C774.838 373.027 773.929 375.596 772.121 377.358C770.302 379.121 767.8 379.996 764.606 379.996C761.411 379.996 758.898 379.121 757.091 377.358C755.271 375.596 754.373 373.027 754.373 369.65V340.544H754.35Z" fill="#97B4AA"/>
<path d="M806.365 340.544V379.45H800.543V349.06H800.441L794.404 379.45H791.175L785.138 349.06H785.036V379.45H779.214V340.544H788.003L792.744 363.283H792.846L797.587 340.544H806.376H806.365Z" fill="#97B4AA"/>
<path d="M810.799 340.555H828.694V346.376H817.484V356.404H826.102V362.225H817.484V373.652H829.445V379.473H810.799V340.555Z" fill="#97B4AA"/>
<path d="M833.095 379.461V373.106H839.45V379.461H833.095Z" fill="#97B4AA"/>
<path d="M866.839 340.542H860.154L853.139 354.936H853.025V340.542H846.352V379.471H853.025V365.657L855.413 361.348H855.504L860.961 379.471H867.749L859.62 355.038L866.839 340.542Z" fill="#574319"/>
<path d="M930.826 340.542H922.526L915.352 379.471H921.821L926.619 348.296H926.733L931.531 379.471H938L930.826 340.542Z" fill="#574319"/>
<path d="M903.05 340.542H893.136V379.471H903.05C909.951 379.471 913.612 375.697 913.612 367.715V352.298C913.612 344.328 909.951 340.542 903.05 340.542ZM906.927 368.522C906.927 372.615 905.688 373.957 902.129 373.957H899.81V346.034H902.129C905.688 346.034 906.927 347.375 906.927 351.468V368.522Z" fill="#574319"/>
<path d="M878.981 339.996C871.978 339.996 868.737 344.476 868.737 349.967V370.023C868.737 375.514 871.978 379.994 878.981 379.994C885.985 379.994 889.225 375.514 889.225 370.023V349.967C889.225 344.464 885.985 339.996 878.981 339.996ZM882.54 369.864C882.54 372.774 881.676 374.173 878.981 374.173C876.287 374.173 875.423 372.774 875.423 369.864V350.126C875.423 347.216 876.287 345.817 878.981 345.817C881.676 345.817 882.54 347.216 882.54 350.126V369.864Z" fill="#574319"/>
<path d="M382.688 460.542H388.18L392.705 485.328H392.807L396.548 460.542H402.801L395.956 499.449H390.351L385.496 473.742H385.394L380.869 499.449H375.264L367.874 460.542H374.127L378.22 485.328H378.322L382.688 460.542Z" fill="#97B4AA"/>
<path d="M406.133 460.542H424.028V466.364H412.818V476.392H421.436V482.213H412.818V493.639H424.779V499.46H406.133V460.542Z" fill="#97B4AA"/>
<path d="M434.385 466.898L430.667 473.583H427.813L430.451 466.898H428.03V460.542H434.385V466.898Z" fill="#97B4AA"/>
<path d="M445.243 499.449H438.558V460.542H447.938C451.678 460.542 454.498 461.418 456.397 463.18C458.295 464.942 459.251 467.887 459.251 472.014C459.251 473.595 459.114 474.948 458.841 476.05C458.568 477.165 458.216 478.108 457.761 478.881C457.306 479.655 456.806 480.28 456.249 480.746C455.692 481.212 455.123 481.576 454.555 481.826L460.217 499.449H453.429L448.688 483.338C448.256 483.407 447.722 483.452 447.096 483.475C446.471 483.497 445.846 483.497 445.232 483.497V499.449H445.243ZM447.619 478.006C448.518 478.006 449.279 477.915 449.905 477.733C450.53 477.551 451.042 477.233 451.44 476.767C451.838 476.301 452.122 475.675 452.304 474.913C452.486 474.14 452.577 473.185 452.577 472.026C452.577 469.729 452.201 468.16 451.44 467.307C450.689 466.466 449.404 466.045 447.608 466.045H445.232V478.006H447.619Z" fill="#97B4AA"/>
<path d="M464.048 460.542H481.944V466.364H470.734V476.392H479.352V482.213H470.734V493.639H482.694V499.46H464.048V460.542Z" fill="#97B4AA"/>
<path d="M501.124 499.449H494.655L501.818 460.542H510.118L517.281 499.449H510.811L509.629 490.831H502.295L501.113 499.449H501.124ZM503.273 485.01H508.662L506.025 468.308H505.922L503.285 485.01H503.273Z" fill="#97B4AA"/>
<path d="M520.293 499.449V460.542H526.979V493.628H537.484V499.449H520.293Z" fill="#97B4AA"/>
<path d="M540.623 499.449V460.542H547.308V493.628H557.814V499.449H540.623Z" fill="#97B4AA"/>
<path d="M571.172 460.542H589.818V466.364H577.857V476.392H586.805V482.213H577.857V499.46H571.172V460.542Z" fill="#97B4AA"/>
<path d="M600.347 499.449H593.661V460.542H603.041C606.782 460.542 609.601 461.418 611.5 463.18C613.399 464.942 614.354 467.887 614.354 472.014C614.354 473.595 614.217 474.948 613.945 476.05C613.672 477.165 613.319 478.108 612.864 478.881C612.41 479.655 611.909 480.28 611.352 480.746C610.795 481.212 610.227 481.576 609.658 481.826L615.32 499.449H608.533L603.792 483.338C603.36 483.407 602.825 483.452 602.2 483.475C601.574 483.497 600.949 483.497 600.335 483.497V499.449H600.347ZM602.723 478.006C603.621 478.006 604.383 477.915 605.008 477.733C605.633 477.551 606.145 477.233 606.543 476.767C606.941 476.301 607.225 475.675 607.407 474.913C607.589 474.14 607.68 473.185 607.68 472.026C607.68 469.729 607.305 468.16 606.543 467.307C605.793 466.466 604.508 466.045 602.711 466.045H600.335V478.006H602.723Z" fill="#97B4AA"/>
<path d="M619.584 499.449V460.542H626.269V499.449H619.584Z" fill="#97B4AA"/>
<path d="M631.237 460.542H649.133V466.364H637.923V476.392H646.541V482.213H637.923V493.639H649.883V499.46H631.237V460.542Z" fill="#97B4AA"/>
<path d="M653.727 499.449V460.542H659.923L668.064 482.804H668.166V460.542H674.203V499.449H668.382L659.866 475.141H659.764V499.449H653.727Z" fill="#97B4AA"/>
<path d="M678.796 460.542H688.711C692.19 460.542 694.827 461.497 696.601 463.396C698.375 465.295 699.273 468.262 699.273 472.287V487.704C699.273 491.729 698.386 494.697 696.601 496.595C694.827 498.494 692.19 499.449 688.711 499.449H678.796V460.542ZM685.47 493.957H687.79C689.586 493.957 690.837 493.56 691.53 492.775C692.235 491.991 692.576 490.569 692.576 488.523V471.491C692.576 469.445 692.224 468.024 691.53 467.239C690.825 466.455 689.586 466.057 687.79 466.057H685.47V493.969V493.957Z" fill="#97B4AA"/>
<path d="M716.737 470.138C716.668 469.308 716.509 468.626 716.282 468.057C716.043 467.5 715.759 467.057 715.418 466.738C715.077 466.42 714.713 466.181 714.315 466.033C713.917 465.886 713.542 465.817 713.178 465.817C712.098 465.817 711.279 466.147 710.699 466.818C710.12 467.477 709.835 468.432 709.835 469.649C709.835 470.763 710.165 471.786 710.836 472.719C711.495 473.651 712.337 474.583 713.337 475.516C714.338 476.448 715.441 477.392 716.623 478.347C717.805 479.302 718.908 480.348 719.909 481.496C720.909 482.644 721.751 483.918 722.41 485.293C723.07 486.68 723.411 488.249 723.411 490.012C723.411 491.626 723.149 493.059 722.626 494.298C722.103 495.537 721.387 496.583 720.466 497.425C719.545 498.266 718.431 498.903 717.123 499.335C715.816 499.767 714.383 499.983 712.837 499.983C711.291 499.983 709.904 499.699 708.687 499.119C707.459 498.55 706.436 497.766 705.583 496.777C704.742 495.787 704.082 494.65 703.616 493.354C703.15 492.058 702.877 490.683 702.809 489.204L709.165 488.284C709.312 490.262 709.744 491.729 710.461 492.706C711.177 493.684 712.075 494.162 713.155 494.162C714.304 494.162 715.236 493.855 715.952 493.241C716.668 492.627 717.032 491.751 717.032 490.603C717.032 489.307 716.703 488.158 716.032 487.158C715.372 486.157 714.531 485.18 713.53 484.247C712.53 483.315 711.427 482.383 710.245 481.45C709.062 480.518 707.959 479.495 706.959 478.381C705.958 477.266 705.117 476.016 704.458 474.606C703.798 473.196 703.457 471.57 703.457 469.706C703.457 466.579 704.355 464.18 706.152 462.509C707.948 460.837 710.529 459.996 713.837 459.996C715.202 459.996 716.418 460.235 717.498 460.701C718.579 461.167 719.499 461.827 720.273 462.668C721.046 463.509 721.671 464.51 722.16 465.658C722.649 466.806 722.956 468.068 723.104 469.433L716.748 470.138H716.737Z" fill="#97B4AA"/>
<path d="M737.759 499.449V460.542H744.445V476.38H751.562V460.542H758.247V499.449H751.562V482.201H744.445V499.449H737.759Z" fill="#97B4AA"/>
<path d="M762.829 460.542H780.725V466.364H769.514V476.392H778.132V482.213H769.514V493.639H781.475V499.46H762.829V460.542Z" fill="#97B4AA"/>
<path d="M792.003 499.449H785.318V460.542H794.698C798.439 460.542 801.258 461.418 803.157 463.18C805.056 464.942 806.011 467.887 806.011 472.014C806.011 473.595 805.874 474.948 805.601 476.05C805.329 477.153 804.976 478.108 804.521 478.881C804.067 479.655 803.566 480.28 803.009 480.746C802.452 481.212 801.884 481.576 801.315 481.826L806.977 499.449H800.19L795.448 483.338C795.016 483.407 794.482 483.452 793.857 483.475C793.231 483.497 792.606 483.497 792.003 483.497V499.449ZM794.38 478.006C795.278 478.006 796.04 477.915 796.665 477.733C797.29 477.551 797.802 477.233 798.2 476.767C798.598 476.301 798.882 475.675 799.064 474.913C799.246 474.152 799.337 473.185 799.337 472.026C799.337 469.729 798.962 468.16 798.2 467.307C797.449 466.466 796.165 466.045 794.368 466.045H791.992V478.006H794.38Z" fill="#97B4AA"/>
<path d="M810.798 460.542H828.693V466.364H817.483V476.392H826.101V482.213H817.483V493.639H829.444V499.46H810.798V460.542Z" fill="#97B4AA"/>
<path d="M833.081 499.449V493.093H839.437V499.449H833.081Z" fill="#97B4AA"/>
<path d="M866.826 460.542H860.152L853.137 474.925H853.023V460.542H846.338V499.46H853.023V485.658L855.399 481.349H855.502L860.948 499.46H867.747L859.606 475.039L866.826 460.542Z" fill="#574319"/>
<path d="M930.825 460.542H922.514L915.351 499.46H921.821L926.619 468.296H926.721L931.53 499.46H937.999L930.825 460.542Z" fill="#574319"/>
<path d="M903.049 460.542H893.135V499.472H903.049C909.951 499.472 913.612 495.697 913.612 487.716V472.298C913.612 464.328 909.951 460.542 903.049 460.542ZM906.926 488.523C906.926 492.616 905.687 493.957 902.128 493.957H899.809V466.034H902.128C905.687 466.034 906.926 467.375 906.926 471.469V488.523Z" fill="#574319"/>
<path d="M878.98 459.996C871.976 459.996 868.736 464.476 868.736 469.967V490.023C868.736 495.515 871.976 499.994 878.98 499.994C885.984 499.994 889.224 495.515 889.224 490.023V469.967C889.224 464.464 885.984 459.996 878.98 459.996ZM882.539 489.864C882.539 492.775 881.675 494.173 878.98 494.173C876.286 494.173 875.421 492.775 875.421 489.864V470.126C875.421 467.216 876.297 465.817 878.98 465.817C881.663 465.817 882.539 467.216 882.539 470.126V489.864Z" fill="#574319"/>
</svg>
