<svg width="163" height="100" viewBox="0 0 163 100" fill="none" xmlns="http://www.w3.org/2000/svg">
<path d="M70.7657 72.5344C67.0178 68.9398 65.8726 60.3042 65.8726 49.9973C65.8726 39.6904 67.0178 31.0548 70.7657 27.4603C72.3274 25.9534 73.9383 26.0575 73.9383 25.4822C73.9383 25.2247 73.774 25 73.4068 25C63.5 28.2164 57.4287 37.4932 57.4287 49.9918C57.4287 62.496 63.5 71.7727 73.4068 74.9892C73.7685 74.9892 73.9383 74.7645 73.9383 74.507C73.9383 73.9316 72.3274 74.0357 70.7657 72.5289V72.5344Z" fill="#222222"/>
<path d="M89.588 25.0054C89.2263 25.0054 89.0619 25.2245 89.0619 25.4875C89.0619 26.0574 90.6729 25.9588 92.2345 27.4656C95.9825 31.0547 97.1277 39.6958 97.1277 50.0027C97.1277 60.3096 95.9825 68.9452 92.2345 72.5397C90.6729 74.0466 89.0619 73.9425 89.0619 74.5178C89.0619 74.7753 89.2263 75 89.588 75C99.4948 71.7836 105.572 62.5068 105.572 50.0082C105.572 37.504 99.4948 28.2273 89.588 25.0163V25.0054Z" fill="#222222"/>
<path d="M73.0566 42.9121L81.221 34.7477L89.3689 42.8957L92.2511 40.0135L81.221 28.9833L70.1744 40.0299L73.0566 42.9121Z" fill="#222222"/>
<path d="M75.0946 42.9121V51.071H89.3686V46.9943H87.3303V42.9121H83.2481V46.9943H79.1714V42.9121H75.0946Z" fill="#222222"/>
<path d="M75.0948 46.989H73.0564V51.0658H75.0948V46.989Z" fill="#222222"/>
<path d="M79.1714 57.1863V53.1096H75.0946V69.4219H87.3303V53.1096H83.2536V57.1863H79.1714ZM83.2481 65.3397H79.1714V61.263H83.2481V65.3397Z" fill="#222222"/>
</svg>
