<svg width="163" height="100" viewBox="0 0 163 100" fill="none" xmlns="http://www.w3.org/2000/svg">
<path d="M88.3378 47.3103H86.5137V43.6621H82.8656V47.3103H79.2126V43.6621H75.5644V50.9584H88.3378V47.3103Z" fill="#222222"/>
<path d="M73.7406 43.6574L81.0467 36.3513L88.338 43.6427L90.9172 41.0635L81.0467 31.1929L71.1614 41.0782L73.7406 43.6574Z" fill="#222222"/>
<path d="M75.5644 52.7823V67.3797H86.5137V52.7823H82.8656V56.4304H79.2175V52.7823H75.5644ZM82.8656 60.0785V63.7267H79.2175V60.0785H82.8656Z" fill="#222222"/>
<path d="M75.5646 47.3105H73.7405V50.9586L75.5644 50.9584L75.5646 47.3105Z" fill="#222222"/>
<path d="M85.6557 25V28.6481H94.0748V71.3519H85.6557V75H97.7229V25H85.6557Z" fill="#222222"/>
<path d="M68.9255 28.6481H77.3446V25H65.2773V75H77.3446V71.3519H68.9255V28.6481Z" fill="#222222"/>
</svg>
