<svg width="163" height="100" viewBox="0 0 163 100" fill="none" xmlns="http://www.w3.org/2000/svg">
<path d="M79.674 55.9638V52.3164H76.0266V66.911H86.9738V52.3164H83.3263V55.9638H79.674ZM83.3214 63.2636H79.674V59.6162H83.3214V63.2636Z" fill="#222222"/>
<path d="M76.0267 46.8452H74.203V50.4926H76.0267V46.8452Z" fill="#222222"/>
<path d="M81.5073 30.7307L71.6239 40.619L74.2026 43.1977L81.5073 35.893L88.7973 43.1781L91.3759 40.5994L81.5073 30.7307Z" fill="#222222"/>
<path d="M86.9738 43.198H83.3214V46.8454H79.674V43.198H76.0266L76.0267 50.4926L88.7975 50.4929V46.8454H86.9738V43.198Z" fill="#222222"/>
<path d="M96.6118 25.0049H90.7828V28.6523H92.9644L94.0331 28.6327C95.0234 33.5303 95.3519 41.2174 95.3519 49.9977C95.3519 58.778 95.0185 66.4651 94.0331 71.3626L92.9644 71.343H90.7828V74.9905H96.6118C98.4551 71.0048 99.014 61.4253 99.014 49.9928C99.014 38.5602 98.4502 28.9808 96.6118 25V25.0049Z" fill="#222222"/>
<path d="M68.9667 71.3673C67.9764 66.4697 67.648 58.7826 67.648 50.0023C67.648 41.222 67.9814 33.5398 68.9667 28.6374L70.0355 28.657H72.2171V25.0096H66.388C64.5496 28.9953 63.9858 38.5747 63.9858 50.0023C63.9858 61.43 64.5496 71.0143 66.388 75H72.2171V71.3526H70.0355L68.9667 71.3722V71.3673Z" fill="#222222"/>
</svg>
