<svg width="163" height="100" viewBox="0 0 163 100" fill="none" xmlns="http://www.w3.org/2000/svg">
<path d="M47.9789 51.5103H50.3848V53.978C49.8235 54.2793 49.2829 54.4196 48.5195 54.4196C46.1301 54.4196 44.9293 52.5956 44.9293 49.9834C44.9293 47.3712 46.093 45.6297 48.4824 45.6297C49.9061 45.6297 51.1317 46.1497 52.1758 46.8141L52.638 43.8222C51.5361 43.1991 50.1083 42.7988 48.404 42.7988C44.1287 42.7988 41.5 45.7081 41.5 50.004C41.5 54.2999 43.9265 57.168 48.3214 57.168C50.228 57.168 51.9323 56.648 53.3766 55.703V48.9599H47.5786L47.9789 51.5103Z" fill="#222222"/>
<path d="M60.7015 48.3778C58.9766 47.7175 58.5928 47.375 58.5928 46.6735C58.5928 46.0297 59.0962 45.5881 60.1362 45.5881C61.1761 45.5881 62.5049 45.9884 63.747 46.7106L64.267 43.8219C63.062 43.2401 61.8983 42.8975 60.0949 42.8975C57.4456 42.8975 55.3616 44.3212 55.3616 46.9912C55.3616 49.2774 56.5666 50.1812 59.3356 51.2458C61.2834 51.9886 61.6837 52.3477 61.6837 53.1317C61.6837 53.953 61.0028 54.3739 60.0165 54.3739C58.634 54.3739 57.0453 53.8539 55.6216 53.0905L55.1181 56.0204C56.5212 56.6642 58.0893 57.0645 59.9546 57.0645C62.703 57.0645 64.9107 55.7398 64.9107 52.7315C64.9107 50.5237 63.7058 49.4796 60.6974 48.3778H60.7015Z" fill="#222222"/>
<path d="M75.0869 48.3778C73.362 47.7175 72.9823 47.375 72.9823 46.6735C72.9823 46.0297 73.4858 45.5881 74.5257 45.5881C75.5656 45.5881 76.8944 45.9884 78.1366 46.7106L78.6565 43.8219C77.4515 43.2401 76.2878 42.8975 74.4844 42.8975C71.8351 42.8975 69.747 44.3212 69.747 46.9912C69.747 49.2774 70.952 50.1812 73.721 51.2458C75.6688 51.9886 76.0691 52.3477 76.0691 53.1317C76.0691 53.953 75.3882 54.3739 74.4019 54.3739C73.0195 54.3739 71.4307 53.8539 70.007 53.0905L69.5035 56.0204C70.9066 56.6642 72.4747 57.0645 74.34 57.0645C77.0884 57.0645 79.2962 55.7398 79.2962 52.7315C79.2962 50.5237 78.0912 49.4796 75.0828 48.3778H75.0869Z" fill="#222222"/>
<path d="M89.2006 48.2376H84.4053V43.0628H80.976V56.9078H84.4053V51.246H89.2006V56.9078H92.634V43.0628H89.2006V48.2376Z" fill="#222222"/>
<path d="M116.061 43.0628H111.608V56.9078H115.038V52.3148H115.921C119.272 52.3148 121.5 50.7095 121.5 47.5774C121.5 44.4452 119.433 43.0628 116.061 43.0628ZM115.801 49.7232H114.996V45.6502H115.859C117.386 45.6502 118.166 46.3105 118.166 47.6351C118.166 49.0588 117.324 49.7232 115.797 49.7232H115.801Z" fill="#222222"/>
<path d="M99.3687 42.8979C99.3687 42.8236 99.3068 42.7617 99.2036 42.7617C97.8914 42.7617 94.6808 44.92 94.6808 49.9999C94.6808 55.0799 97.8914 57.2382 99.2036 57.2382C99.3109 57.2382 99.3687 57.1763 99.3687 57.102C99.3687 56.9369 98.9024 56.9658 98.4485 56.5284C97.3631 55.4884 97.0289 52.9836 97.0289 49.9999C97.0289 47.0163 97.3631 44.5114 98.4485 43.4715C98.9024 43.0341 99.3687 43.063 99.3687 42.8979Z" fill="#222222"/>
<path d="M105.072 42.7617C104.964 42.7617 104.906 42.8236 104.906 42.8979C104.906 43.063 105.373 43.0341 105.827 43.4715C106.912 44.5114 107.246 47.0163 107.246 49.9999C107.246 52.9836 106.916 55.4884 105.827 56.5284C105.373 56.9658 104.906 56.9369 104.906 57.102C104.906 57.1763 104.964 57.2382 105.072 57.2382C106.384 57.2382 109.594 55.0799 109.594 49.9999C109.594 44.92 106.384 42.7617 105.072 42.7617Z" fill="#222222"/>
</svg>
