<svg width="163" height="100" viewBox="0 0 163 100" fill="none" xmlns="http://www.w3.org/2000/svg">
<path d="M64.3318 42.3304C64.3318 42.1746 64.2302 42.0391 64.0134 42.0391C58.0919 43.9632 54.4604 49.512 54.4604 56.985C54.4604 64.458 58.0919 70.0068 64.0134 71.9309C64.2302 71.9309 64.3318 71.7954 64.3318 71.6396C64.3318 71.2941 63.3697 71.3618 62.4347 70.4607C60.1922 68.313 59.5079 63.1504 59.5079 56.985C59.5079 50.8196 60.1922 45.657 62.4347 43.5092C63.3697 42.6082 64.3318 42.6691 64.3318 42.3236V42.3304Z" fill="#222222"/>
<path d="M98.9866 42.0391C98.7698 42.0391 98.6682 42.1746 98.6682 42.3304C98.6682 42.6759 99.6302 42.6082 100.565 43.516C102.808 45.6637 103.492 50.8264 103.492 56.9918C103.492 63.1571 102.808 68.3198 100.565 70.4675C99.6302 71.3686 98.6682 71.3076 98.6682 71.6464C98.6682 71.8022 98.7698 71.9377 98.9866 71.9377C104.908 70.0136 108.54 64.4647 108.54 56.9918C108.54 49.5188 104.908 43.97 98.9866 42.0458V42.0391Z" fill="#222222"/>
<path d="M73.9392 47.2693H71.4188V52.31H73.9392V47.2693Z" fill="#222222"/>
<path d="M67.8552 38.6587L71.419 42.2224L81.5139 32.1275L91.5885 42.2021L95.1523 38.6383L81.5139 25L67.8552 38.6587Z" fill="#222222"/>
<path d="M78.9796 59.8711V54.8304H73.9389V75H89.0678V54.8304H84.0271V59.8711H78.9796ZM84.0203 69.9593H78.9796V64.9186H84.0203V69.9593Z" fill="#222222"/>
<path d="M89.0678 42.2289H84.0203V47.2696H78.9796V42.2289H73.9389L73.9392 52.31L91.5882 52.3103V47.2696H89.0678V42.2289Z" fill="#222222"/>
</svg>
