<svg width="163" height="100" viewBox="0 0 163 100" fill="none" xmlns="http://www.w3.org/2000/svg">
<path d="M47.9789 51.5126H50.3847V53.9803C49.8235 54.2816 49.2829 54.4219 48.5195 54.4219C46.1301 54.4219 44.9293 52.5979 44.9293 49.9857C44.9293 47.3735 46.093 45.6321 48.4823 45.6321C49.906 45.6321 51.1317 46.152 52.1757 46.8164L52.6379 43.8246C51.5361 43.2015 50.1082 42.8012 48.4039 42.8012C44.1287 42.8012 41.5 45.7105 41.5 50.0063C41.5 54.3022 43.9265 57.1703 48.3214 57.1703C50.2279 57.1703 51.9322 56.6503 53.3766 55.7053V48.9623H47.5786L47.9789 51.5126Z" fill="#222222"/>
<path d="M60.7014 48.3801C58.9765 47.7199 58.5968 47.3774 58.5968 46.6758C58.5968 46.0321 59.1003 45.5905 60.1402 45.5905C61.1801 45.5905 62.5089 45.9908 63.751 46.713L64.271 43.8243C63.066 43.2424 61.9023 42.8999 60.0989 42.8999C57.4496 42.8999 55.3615 44.3236 55.3615 46.9936C55.3615 49.2797 56.5665 50.1835 59.3355 51.2482C61.2833 51.991 61.6836 52.35 61.6836 53.1341C61.6836 53.9553 61.0027 54.3762 60.0164 54.3762C58.634 54.3762 57.0452 53.8562 55.6215 53.0928L55.118 56.0227C56.5211 56.6665 58.0892 57.0668 59.9545 57.0668C62.7029 57.0668 64.9106 55.7421 64.9106 52.7338C64.9106 50.526 63.7056 49.4819 60.6973 48.3801H60.7014Z" fill="#222222"/>
<path d="M75.0872 48.3801C73.3622 47.7199 72.9784 47.3774 72.9784 46.6758C72.9784 46.0321 73.4819 45.5905 74.5218 45.5905C75.5617 45.5905 76.8905 45.9908 78.1326 46.713L78.6526 43.8243C77.4476 43.2424 76.2839 42.8999 74.4805 42.8999C71.8312 42.8999 69.7472 44.3236 69.7472 46.9936C69.7472 49.2797 70.9522 50.1835 73.7212 51.2482C75.669 51.991 76.0693 52.35 76.0693 53.1341C76.0693 53.9553 75.3884 54.3762 74.4021 54.3762C73.0156 54.3762 71.4309 53.8562 70.0072 53.0928L69.5038 56.0227C70.9068 56.6665 72.475 57.0668 74.3402 57.0668C77.0886 57.0668 79.2964 55.7421 79.2964 52.7338C79.2964 50.526 78.0914 49.4819 75.083 48.3801H75.0872Z" fill="#222222"/>
<path d="M89.2003 48.24H84.4051V43.0651H80.9758V56.9101H84.4051V51.2483H89.2003V56.9101H92.6337V43.0651H89.2003V48.24Z" fill="#222222"/>
<path d="M116.061 43.0651H111.608V56.9101H115.038V52.3171H115.921C119.272 52.3171 121.5 50.7118 121.5 47.5797C121.5 44.4476 119.433 43.0651 116.061 43.0651ZM115.801 49.7256H114.996V45.6525H115.859C117.382 45.6525 118.166 46.3128 118.166 47.6375C118.166 49.0612 117.324 49.7256 115.797 49.7256H115.801Z" fill="#222222"/>
<path d="M99.348 42.8382C99.348 42.7639 99.2861 42.702 99.183 42.702C97.8583 42.702 94.6189 44.8768 94.6189 50.0021C94.6189 55.1275 97.8583 57.3022 99.183 57.3022C99.2903 57.3022 99.348 57.2403 99.348 57.166C99.348 56.9968 98.8776 57.0298 98.4195 56.5883C97.326 55.5401 96.9876 53.0146 96.9876 50.0021C96.9876 46.9896 97.3218 44.4641 98.4195 43.4159C98.8776 42.9744 99.348 43.0033 99.348 42.8382Z" fill="#222222"/>
<path d="M105.1 42.698C104.993 42.698 104.931 42.7599 104.931 42.8342C104.931 43.0034 105.402 42.9704 105.86 43.4119C106.957 44.4601 107.292 46.9856 107.292 49.9981C107.292 53.0106 106.957 55.5361 105.86 56.5843C105.402 57.0258 104.931 56.9969 104.931 57.162C104.931 57.2363 104.993 57.2982 105.1 57.2982C106.425 57.2982 109.664 55.1234 109.664 49.9981C109.664 44.8728 106.425 42.698 105.1 42.698Z" fill="#222222"/>
</svg>
