<svg width="163" height="100" viewBox="0 0 163 100" fill="none" xmlns="http://www.w3.org/2000/svg">
<path d="M70.7657 72.5344C67.0178 68.9398 65.8726 60.3042 65.8726 49.9973C65.8726 39.6904 67.0178 31.0548 70.7657 27.4603C72.3274 25.9534 73.9383 26.0575 73.9383 25.4822C73.9383 25.2247 73.774 25 73.4068 25C63.5 28.2164 57.4287 37.4932 57.4287 49.9918C57.4287 62.496 63.5 71.7727 73.4068 74.9892C73.7685 74.9892 73.9383 74.7645 73.9383 74.507C73.9383 73.9316 72.3274 74.0357 70.7657 72.5289V72.5344Z" fill="#222222"/>
<path d="M89.5874 25.0054C89.2258 25.0054 89.0614 25.2245 89.0614 25.4875C89.0614 26.0574 90.6724 25.9588 92.234 27.4656C95.982 31.0547 97.1272 39.6958 97.1272 50.0027C97.1272 60.3096 95.982 68.9452 92.234 72.5397C90.6724 74.0466 89.0614 73.9425 89.0614 74.5178C89.0614 74.7753 89.2258 75 89.5874 75C99.4943 71.7836 105.571 62.5068 105.571 50.0082C105.571 37.504 99.4943 28.2273 89.5874 25.0163V25.0054Z" fill="#222222"/>
<path d="M75.0941 42.9121V51.071H89.3681V46.9943H87.3298V42.9121H83.253V46.9943H79.1708V42.9121H75.0941Z" fill="#222222"/>
<path d="M75.0943 46.989H73.0559V51.0658H75.0943V46.989Z" fill="#222222"/>
<path d="M73.056 42.9121L81.2204 34.7477L89.3684 42.8957L92.2506 40.0135L81.2204 28.9833L70.1738 40.0299L73.056 42.9121Z" fill="#222222"/>
<path d="M79.1767 57.1863V53.1096H75.1V69.4219H87.3356V53.1096H83.2589V57.1863H79.1767ZM83.2534 65.3397H79.1767V61.263H83.2534V65.3397Z" fill="#222222"/>
</svg>
