<svg width="163" height="100" viewBox="0 0 163 100" fill="none" xmlns="http://www.w3.org/2000/svg">
<path d="M55.1021 50.0023C55.1021 65.8403 61.3515 74.9819 72.4864 74.9819C73.0977 74.9819 73.7683 74.9955 74.3795 74.9955V74.5029C72.7647 74.5029 69.6491 74.0969 69.6491 74.0969V25.8986C69.6491 25.8986 72.7647 25.4927 74.3795 25.4927V25C73.7683 25 73.0977 25.0137 72.4864 25.0137C61.3515 25.0137 55.1021 34.1598 55.1021 49.9932V50.0023Z" fill="#222222"/>
<path d="M90.5138 25.0181C89.9026 25.0181 89.232 25.0045 88.6207 25.0045V25.4971C90.2355 25.4971 93.3511 25.9031 93.3511 25.9031V74.1014C93.3511 74.1014 90.231 74.5073 88.6207 74.5073V75C89.232 75 89.9026 74.9863 90.5138 74.9863C101.649 74.9863 107.898 65.8402 107.898 50.0068C107.898 34.1733 101.649 25.0273 90.5138 25.0273V25.0181Z" fill="#222222"/>
</svg>
