<svg width="163" height="100" viewBox="0 0 163 100" fill="none" xmlns="http://www.w3.org/2000/svg">
<path d="M47.8938 51.5342H50.0088V52.7669C49.6926 52.9433 49.303 53.0487 48.5996 53.0487C46.8743 53.0487 45.6588 51.8503 45.6588 50.1054V50.0711C45.6588 48.3973 46.8229 47.1646 48.4256 47.1646C49.4476 47.1646 50.3469 47.5518 51.1557 48.2404L53.4642 45.4565C52.1261 44.2948 50.4156 43.5891 48.3006 43.5891C44.4065 43.5891 41.5 46.3363 41.5 50.0196V50.0539C41.5 53.877 44.583 56.4502 48.4232 56.4502C50.6606 56.4502 52.5281 55.693 53.8661 54.6V48.8923H47.8938V51.5342Z" fill="#222222"/>
<path d="M61.0661 48.2208C59.7624 47.9732 59.4266 47.7625 59.4266 47.4292V47.3949C59.4266 47.0959 59.7085 46.8827 60.326 46.8827C61.4705 46.8827 62.8625 47.2527 64.0266 48.0982L66.0337 45.3142C64.6074 44.1869 62.8453 43.6233 60.4657 43.6233C57.0642 43.6233 55.2335 45.4368 55.2335 47.7821V47.8164C55.2335 50.4239 57.6646 51.2179 60.4314 51.7816C61.7523 52.0463 62.1395 52.2399 62.1395 52.5928V52.6271C62.1395 52.9628 61.8234 53.1564 61.0833 53.1564C59.6374 53.1564 58.1057 52.7325 56.7676 51.7105L54.5645 54.3352C56.1329 55.71 58.3876 56.4134 60.8897 56.4134C64.203 56.4134 66.3327 54.8278 66.3327 52.2374V52.2031C66.3327 49.7181 64.2177 48.804 61.0637 48.2208H61.0661Z" fill="#222222"/>
<path d="M76.4884 48.2577C75.1846 48.0101 74.8489 47.7994 74.8489 47.4636V47.4293C74.8489 47.1304 75.1307 46.9171 75.7483 46.9171C76.8927 46.9171 78.2847 47.2872 79.4488 48.1327L81.4583 45.3487C80.032 44.2214 78.27 43.6577 75.8904 43.6577C72.4889 43.6577 70.6582 45.4712 70.6582 47.8165V47.8509C70.6582 50.4584 73.0893 51.2499 75.8561 51.8161C77.177 52.0807 77.5642 52.2743 77.5642 52.6272V52.664C77.5642 52.9997 77.2456 53.1933 76.508 53.1933C75.0645 53.1933 73.5304 52.7718 72.1899 51.7474L69.9892 54.3721C71.5576 55.747 73.8122 56.4503 76.3144 56.4503C79.6277 56.4503 81.7598 54.8647 81.7598 52.2743V52.24C81.7598 49.755 79.6448 48.8385 76.4908 48.2577H76.4884Z" fill="#222222"/>
<path d="M90.5993 48.2379H86.8301V43.888H82.7081V56.2198H86.8301V51.7988H90.5993V56.2198H94.7238V43.888H90.5993V48.2379Z" fill="#222222"/>
<path d="M115.988 43.888H110.438V56.2199H114.56V52.8722H115.898C119.228 52.8722 121.5 51.2866 121.5 48.3091V48.2723C121.5 45.3486 119.263 43.8856 115.986 43.8856L115.988 43.888ZM117.434 48.5737C117.434 49.4535 116.729 49.9314 115.672 49.9314H114.562V47.1817H115.689C116.782 47.1817 117.434 47.64 117.434 48.5394V48.5737Z" fill="#222222"/>
<path d="M100.049 43.6699C100.049 43.6037 99.9954 43.5498 99.9022 43.5498C98.7357 43.5498 95.8831 45.4662 95.8831 49.9804C95.8831 54.4945 98.7382 56.411 99.9022 56.411C99.9954 56.411 100.049 56.3571 100.049 56.2909C100.049 56.1439 99.6351 56.1708 99.2332 55.7812C98.2676 54.8572 97.9735 52.632 97.9735 49.9804C97.9735 47.3288 98.2676 45.1035 99.2332 44.1796C99.6351 43.79 100.049 43.8169 100.049 43.6699Z" fill="#222222"/>
<path d="M105.117 43.5498C105.024 43.5498 104.97 43.6037 104.97 43.6699C104.97 43.8169 105.384 43.79 105.786 44.1796C106.752 45.1035 107.046 47.3288 107.046 49.9804C107.046 52.632 106.752 54.8572 105.786 55.7812C105.384 56.1708 104.97 56.1439 104.97 56.2909C104.97 56.3571 105.024 56.411 105.117 56.411C106.284 56.411 109.136 54.4945 109.136 49.9804C109.136 45.4662 106.281 43.5498 105.117 43.5498Z" fill="#222222"/>
</svg>
