<svg width="163" height="100" viewBox="0 0 163 100" fill="none" xmlns="http://www.w3.org/2000/svg">
<path d="M74.9778 47.1013H72.9493V51.1585H74.9778V47.1013Z" fill="#222222"/>
<path d="M79.0349 57.2443V53.1871H74.9777V69.4212H87.1546V53.1871H83.0975V57.2443H79.0349ZM83.092 65.3641H79.0349V61.3069H83.092V65.3641Z" fill="#222222"/>
<path d="M81.0747 29.1767L70.0757 40.1703L72.9495 43.0386L81.0747 34.9134L89.1836 43.0223L92.052 40.1539L81.0747 29.1767Z" fill="#222222"/>
<path d="M87.1492 43.0445H83.092V47.1016H79.0349V43.0445H74.9777L74.9778 51.1585L89.1832 51.1588V47.1016H87.1492V43.0445Z" fill="#222222"/>
<path d="M68.7668 72.5462C65.015 68.9526 63.8699 60.3093 63.8699 49.9973C63.8699 39.6854 65.015 31.0421 68.7668 27.4485C70.3264 25.9379 71.9406 26.0415 71.9406 25.469C71.9406 25.2072 71.7333 25 71.368 25C66.8364 25 55.7446 32.4436 55.7446 49.9973C55.7446 67.5511 66.8364 74.9947 71.368 74.9947C71.7333 74.9947 71.9406 74.7874 71.9406 74.5257C71.9406 73.9531 70.3264 74.0567 68.7668 72.5462Z" fill="#222222"/>
<path d="M91.6318 25.0053C91.2664 25.0053 91.0592 25.2126 91.0592 25.4743C91.0592 26.0469 92.6734 25.9433 94.233 27.4538C97.9848 31.0474 99.1299 39.6907 99.1299 50.0027C99.1299 60.3146 97.9848 68.9579 94.233 72.5515C92.6679 74.062 91.0592 73.9584 91.0592 74.531C91.0592 74.7928 91.2664 75 91.6318 75C96.1634 75 107.255 67.551 107.255 50.0027C107.255 32.4544 96.1634 25.0053 91.6318 25.0053Z" fill="#222222"/>
</svg>
