<svg width="163" height="100" viewBox="0 0 163 100" fill="none" xmlns="http://www.w3.org/2000/svg">
<path d="M81.0777 29.1767L70.0786 40.1703L72.9524 43.0386L81.0777 34.9134L89.1811 43.0223L92.0549 40.1539L81.0777 29.1767Z" fill="#222222"/>
<path d="M79.0382 57.2443V53.1871H74.9811V69.4212H87.158V53.1871H83.1009V57.2443H79.0382ZM83.0954 65.3641H79.0382V61.3069H83.0954V65.3641Z" fill="#222222"/>
<path d="M74.9808 47.1013H72.9522V51.1585H74.9808V47.1013Z" fill="#222222"/>
<path d="M87.1526 43.0445H83.0954V47.1016H79.0382V43.0445H74.9811L74.9808 51.1585L89.1812 51.1588V47.1016H87.1526V43.0445Z" fill="#222222"/>
<path d="M68.7644 72.5462C65.0126 68.9526 63.8674 60.3093 63.8674 49.9973C63.8674 39.6854 65.0126 31.0421 68.7644 27.4485C70.324 25.9379 71.9381 26.0415 71.9381 25.469C71.9381 25.2072 71.7309 25 71.3655 25C66.8339 25 55.7422 32.4436 55.7422 49.9973C55.7422 67.5511 66.8339 74.9947 71.3655 74.9947C71.7309 74.9947 71.9381 74.7874 71.9381 74.5257C71.9381 73.9531 70.324 74.0567 68.7644 72.5462Z" fill="#222222"/>
<path d="M91.6347 25.0053C91.2693 25.0053 91.0621 25.2126 91.0621 25.4743C91.0621 26.0469 92.6763 25.9433 94.2359 27.4538C97.9876 31.0474 99.1328 39.6907 99.1328 50.0027C99.1328 60.3146 97.9876 68.9579 94.2359 72.5515C92.6708 74.062 91.0621 73.9584 91.0621 74.531C91.0621 74.7928 91.2693 75 91.6347 75C96.1663 75 107.258 67.551 107.258 50.0027C107.258 32.4544 96.1663 25.0053 91.6347 25.0053Z" fill="#222222"/>
</svg>
