<svg width="2200" height="1214" viewBox="0 0 2200 1214" fill="none" xmlns="http://www.w3.org/2000/svg">
<path fill-rule="evenodd" clip-rule="evenodd" d="M137.26 179.997C156.775 207.917 177.739 220.664 199.996 220.664C222.254 220.664 243.217 207.917 262.732 179.997C243.217 152.078 222.254 139.331 199.996 139.331C177.739 139.331 156.775 152.078 137.26 179.997ZM125.004 176.669C146.328 144.683 171.268 127.331 199.996 127.331C228.724 127.331 253.664 144.683 274.988 176.669C276.332 178.685 276.332 181.31 274.988 183.326C253.664 215.312 228.724 232.664 199.996 232.664C171.268 232.664 146.328 215.312 125.004 183.326C123.66 181.31 123.66 178.685 125.004 176.669ZM199.996 162.664C190.423 162.664 182.663 170.425 182.663 179.997C182.663 189.57 190.423 197.331 199.996 197.331C209.569 197.331 217.329 189.57 217.329 179.997C217.329 170.425 209.569 162.664 199.996 162.664ZM170.663 179.997C170.663 163.797 183.796 150.664 199.996 150.664C216.196 150.664 229.329 163.797 229.329 179.997C229.329 196.198 216.196 209.331 199.996 209.331C183.796 209.331 170.663 196.198 170.663 179.997Z" fill="#222222"/>
<path fill-rule="evenodd" clip-rule="evenodd" d="M152.956 400C167.592 420.94 183.315 430.5 200.008 430.5C216.701 430.5 232.424 420.94 247.06 400C232.424 379.061 216.701 369.5 200.008 369.5C183.315 369.5 167.592 379.061 152.956 400ZM143.764 397.504C159.757 373.515 178.462 360.5 200.008 360.5C221.554 360.5 240.259 373.515 256.252 397.504C257.26 399.016 257.26 400.985 256.252 402.497C240.259 426.486 221.554 439.5 200.008 439.5C178.462 439.5 159.757 426.486 143.764 402.497C142.756 400.985 142.756 399.016 143.764 397.504ZM200.008 387C192.828 387 187.008 392.821 187.008 400C187.008 407.18 192.828 413 200.008 413C207.188 413 213.008 407.18 213.008 400C213.008 392.821 207.188 387 200.008 387ZM178.008 400C178.008 387.85 187.858 378 200.008 378C212.158 378 222.008 387.85 222.008 400C222.008 412.151 212.158 422 200.008 422C187.858 422 178.008 412.151 178.008 400Z" fill="#222222"/>
<path fill-rule="evenodd" clip-rule="evenodd" d="M168.636 580C178.393 593.96 188.875 600.334 200.004 600.334C211.133 600.334 221.614 593.96 231.372 580C221.614 566.041 211.133 559.667 200.004 559.667C188.875 559.667 178.393 566.041 168.636 580ZM162.508 578.336C173.17 562.343 185.64 553.667 200.004 553.667C214.368 553.667 226.838 562.343 237.5 578.336C238.172 579.344 238.172 580.657 237.5 581.664C226.838 597.658 214.368 606.334 200.004 606.334C185.64 606.334 173.17 597.658 162.508 581.664C161.836 580.657 161.836 579.344 162.508 578.336ZM200.004 571.334C195.217 571.334 191.337 575.214 191.337 580C191.337 584.787 195.217 588.667 200.004 588.667C204.79 588.667 208.671 584.787 208.671 580C208.671 575.214 204.79 571.334 200.004 571.334ZM185.337 580C185.337 571.9 191.904 565.334 200.004 565.334C208.104 565.334 214.671 571.9 214.671 580C214.671 588.101 208.104 594.667 200.004 594.667C191.904 594.667 185.337 588.101 185.337 580Z" fill="#222222"/>
<path fill-rule="evenodd" clip-rule="evenodd" d="M176.474 729.999C183.792 740.469 191.653 745.249 200 745.249C208.347 745.249 216.208 740.469 223.526 729.999C216.208 719.529 208.347 714.749 200 714.749C191.653 714.749 183.792 719.529 176.474 729.999ZM171.878 728.751C179.874 716.756 189.227 710.249 200 710.249C210.773 710.249 220.126 716.756 228.122 728.751C228.626 729.507 228.626 730.491 228.122 731.247C220.126 743.242 210.773 749.749 200 749.749C189.227 749.749 179.874 743.242 171.878 731.247C171.374 730.491 171.374 729.507 171.878 728.751ZM200 723.499C196.41 723.499 193.5 726.409 193.5 729.999C193.5 733.589 196.41 736.499 200 736.499C203.59 736.499 206.5 733.589 206.5 729.999C206.5 726.409 203.59 723.499 200 723.499ZM189 729.999C189 723.924 193.925 718.999 200 718.999C206.075 718.999 211 723.924 211 729.999C211 736.074 206.075 740.999 200 740.999C193.925 740.999 189 736.074 189 729.999Z" fill="#222222"/>
<path fill-rule="evenodd" clip-rule="evenodd" d="M184.32 860C189.199 866.98 194.44 870.167 200.004 870.167C205.568 870.167 210.809 866.98 215.688 860C210.809 853.02 205.568 849.833 200.004 849.833C194.44 849.833 189.199 853.02 184.32 860ZM181.256 859.168C186.587 851.172 192.822 846.833 200.004 846.833C207.186 846.833 213.421 851.172 218.752 859.168C219.088 859.672 219.088 860.328 218.752 860.832C213.421 868.829 207.186 873.167 200.004 873.167C192.822 873.167 186.587 868.829 181.256 860.832C180.92 860.328 180.92 859.672 181.256 859.168ZM200.004 855.667C197.611 855.667 195.671 857.607 195.671 860C195.671 862.393 197.611 864.333 200.004 864.333C202.397 864.333 204.337 862.393 204.337 860C204.337 857.607 202.397 855.667 200.004 855.667ZM192.671 860C192.671 855.95 195.954 852.667 200.004 852.667C204.054 852.667 207.337 855.95 207.337 860C207.337 864.05 204.054 867.333 200.004 867.333C195.954 867.333 192.671 864.05 192.671 860Z" fill="#222222"/>
<path fill-rule="evenodd" clip-rule="evenodd" d="M190.591 972C193.518 976.188 196.663 978.1 200.002 978.1C203.34 978.1 206.485 976.188 209.412 972C206.485 967.812 203.34 965.9 200.002 965.9C196.663 965.9 193.518 967.812 190.591 972ZM188.753 971.501C191.951 966.703 195.692 964.1 200.002 964.1C204.311 964.1 208.052 966.703 211.25 971.501C211.452 971.803 211.452 972.197 211.25 972.499C208.052 977.297 204.311 979.9 200.002 979.9C195.692 979.9 191.951 977.297 188.753 972.499C188.551 972.197 188.551 971.803 188.753 971.501ZM200.002 969.4C198.566 969.4 197.402 970.564 197.402 972C197.402 973.436 198.566 974.6 200.002 974.6C201.438 974.6 202.602 973.436 202.602 972C202.602 970.564 201.438 969.4 200.002 969.4ZM195.602 972C195.602 969.57 197.572 967.6 200.002 967.6C202.432 967.6 204.402 969.57 204.402 972C204.402 974.43 202.432 976.4 200.002 976.4C197.572 976.4 195.602 974.43 195.602 972Z" fill="#222222"/>
<path d="M174.56 1096L167.768 1077.64H169.568L174.776 1091.94C175.304 1093.41 175.496 1094.32 175.496 1094.32H175.544C175.544 1094.32 175.76 1093.41 176.288 1091.97L181.52 1077.64H183.224L176.456 1096H174.56ZM186.704 1096V1077.64H188.408V1096H186.704ZM193.853 1096V1077.64H205.565V1079.15H195.557V1085.9H204.677V1087.38H195.557V1094.49H205.661V1096H193.853ZM215.584 1096H213.784L208.48 1077.64H210.208L214.192 1091.66C214.576 1092.98 214.696 1093.86 214.696 1093.86H214.744C214.744 1093.86 214.864 1092.98 215.248 1091.66L219.208 1077.64H221.248L225.208 1091.63C225.568 1092.9 225.76 1093.91 225.76 1093.91H225.808C225.808 1093.91 225.976 1092.9 226.336 1091.66L230.296 1077.64H231.976L226.696 1096H224.8L220.912 1082.42C220.384 1080.57 220.216 1079.54 220.216 1079.54H220.168C220.168 1079.54 219.976 1080.54 219.448 1082.37L215.584 1096Z" fill="#222222"/>
<g clip-path="url(#clip0_3754_46362)">
<path d="M456.663 117.468C446.353 117.468 437.996 125.825 437.996 136.134V202.801C437.996 213.11 446.353 221.468 456.663 221.468H492.225V210.801H456.663C452.244 210.801 448.663 207.219 448.663 202.801V136.134C448.663 131.716 452.244 128.134 456.663 128.134H543.329C547.748 128.134 551.329 131.716 551.329 136.134V201.836H561.996V136.134C561.996 125.825 553.639 117.468 543.329 117.468H456.663Z" fill="#222222"/>
<path d="M539.863 155.468H460.13V144.801H539.863V155.468Z" fill="#222222"/>
<path d="M460.13 175.201H539.796V164.534H460.13V175.201Z" fill="#222222"/>
<path d="M460.13 195.401H506.263V184.734H460.13V195.401Z" fill="#222222"/>
<path d="M535.53 226.525L548.225 213.83L555.767 221.372L533.967 243.172C532.967 244.172 531.611 244.734 530.196 244.734C528.782 244.734 527.425 244.172 526.425 243.172L504.625 221.372L512.167 213.83L524.863 226.525V186.868H535.53V226.525Z" fill="#222222"/>
</g>
<g clip-path="url(#clip1_3754_46362)">
<path d="M467.496 353.101C459.764 353.101 453.496 359.369 453.496 367.101V417.101C453.496 424.833 459.764 431.101 467.496 431.101H494.168V423.101H467.496C464.182 423.101 461.496 420.414 461.496 417.101V367.101C461.496 363.787 464.182 361.101 467.496 361.101H532.496C535.81 361.101 538.496 363.787 538.496 367.101V416.377H546.496V367.101C546.496 359.369 540.228 353.101 532.496 353.101H467.496Z" fill="#222222"/>
<path d="M529.896 381.601H470.096V373.601H529.896V381.601Z" fill="#222222"/>
<path d="M470.096 396.401H529.846V388.401H470.096V396.401Z" fill="#222222"/>
<path d="M470.096 411.551H504.696V403.551H470.096V411.551Z" fill="#222222"/>
<path d="M526.646 434.894L536.168 425.372L541.825 431.029L525.475 447.379C524.724 448.129 523.707 448.551 522.646 448.551C521.585 448.551 520.568 448.129 519.818 447.379L503.468 431.029L509.125 425.372L518.646 434.894V405.151H526.646V434.894Z" fill="#222222"/>
</g>
<g clip-path="url(#clip2_3754_46362)">
<path d="M478.329 548.734C473.175 548.734 468.996 552.912 468.996 558.067V591.4C468.996 596.555 473.175 600.734 478.329 600.734H496.11V595.4H478.329C476.12 595.4 474.329 593.609 474.329 591.4V558.067C474.329 555.858 476.12 554.067 478.329 554.067H521.663C523.872 554.067 525.663 555.858 525.663 558.067V590.918H530.996V558.067C530.996 552.912 526.817 548.734 521.663 548.734H478.329Z" fill="#222222"/>
<path d="M519.929 567.734H480.063V562.4H519.929V567.734Z" fill="#222222"/>
<path d="M480.063 577.6H519.896V572.267H480.063V577.6Z" fill="#222222"/>
<path d="M480.063 587.7H503.129V582.367H480.063V587.7Z" fill="#222222"/>
<path d="M517.763 603.262L524.111 596.915L527.882 600.686L516.982 611.586C516.482 612.086 515.803 612.367 515.096 612.367C514.389 612.367 513.711 612.086 513.211 611.586L502.311 600.686L506.082 596.915L512.43 603.262V583.434H517.763V603.262Z" fill="#222222"/>
</g>
<g clip-path="url(#clip3_3754_46362)">
<path d="M483.75 706.55C479.884 706.55 476.75 709.684 476.75 713.55V738.55C476.75 742.416 479.884 745.55 483.75 745.55H497.086V741.55H483.75C482.093 741.55 480.75 740.207 480.75 738.55V713.55C480.75 711.893 482.093 710.55 483.75 710.55H516.25C517.907 710.55 519.25 711.893 519.25 713.55V738.189H523.25V713.55C523.25 709.684 520.116 706.55 516.25 706.55H483.75Z" fill="#222222"/>
<path d="M514.95 720.8H485.05V716.8H514.95V720.8Z" fill="#222222"/>
<path d="M485.05 728.2H514.925V724.2H485.05V728.2Z" fill="#222222"/>
<path d="M485.05 735.775H502.35V731.775H485.05V735.775Z" fill="#222222"/>
<path d="M513.325 747.447L518.086 742.686L520.914 745.515L512.739 753.69C512.364 754.065 511.855 754.275 511.325 754.275C510.795 754.275 510.286 754.065 509.911 753.69L501.736 745.515L504.564 742.686L509.325 747.447V732.575H513.325V747.447Z" fill="#222222"/>
</g>
<g clip-path="url(#clip4_3754_46362)">
<path d="M489.167 844.367C486.589 844.367 484.5 846.456 484.5 849.034V865.7C484.5 868.278 486.589 870.367 489.167 870.367H498.057V867.7H489.167C488.062 867.7 487.167 866.805 487.167 865.7V849.034C487.167 847.929 488.062 847.034 489.167 847.034H510.833C511.938 847.034 512.833 847.929 512.833 849.034V865.459H515.5V849.034C515.5 846.456 513.411 844.367 510.833 844.367H489.167Z" fill="#222222"/>
<path d="M509.967 853.867H490.033V851.2H509.967V853.867Z" fill="#222222"/>
<path d="M490.033 858.8H509.95V856.134H490.033V858.8Z" fill="#222222"/>
<path d="M490.033 863.85H501.567V861.184H490.033V863.85Z" fill="#222222"/>
<path d="M508.883 871.631L512.057 868.457L513.943 870.343L508.493 875.793C508.243 876.043 507.904 876.184 507.55 876.184C507.196 876.184 506.857 876.043 506.607 875.793L501.157 870.343L503.043 868.457L506.217 871.631V861.717H508.883V871.631Z" fill="#222222"/>
</g>
<g clip-path="url(#clip5_3754_46362)">
<path d="M493.499 962.62C491.953 962.62 490.699 963.874 490.699 965.42V975.42C490.699 976.967 491.953 978.22 493.499 978.22H498.834V976.62H493.499C492.836 976.62 492.299 976.083 492.299 975.42V965.42C492.299 964.757 492.836 964.22 493.499 964.22H506.499C507.162 964.22 507.699 964.757 507.699 965.42V975.275H509.299V965.42C509.299 963.874 508.046 962.62 506.499 962.62H493.499Z" fill="#222222"/>
<path d="M505.979 968.32H494.019V966.72H505.979V968.32Z" fill="#222222"/>
<path d="M494.019 971.28H505.969V969.68H494.019V971.28Z" fill="#222222"/>
<path d="M494.019 974.31H500.939V972.71H494.019V974.31Z" fill="#222222"/>
<path d="M505.329 978.979L507.234 977.074L508.365 978.206L505.095 981.476C504.945 981.626 504.741 981.71 504.529 981.71C504.317 981.71 504.114 981.626 503.964 981.476L500.694 978.206L501.825 977.074L503.729 978.979V973.03H505.329V978.979Z" fill="#222222"/>
</g>
<path d="M444.416 1086.76H449.24C451.592 1086.76 453.488 1085.61 453.488 1082.78C453.488 1080.35 451.832 1079.08 449.288 1079.08H444.416V1086.76ZM453.44 1096L449.456 1088.18H444.416V1096H442.712V1077.64H449.288C450.608 1077.64 451.856 1077.9 452.888 1078.46C454.304 1079.25 455.24 1080.64 455.24 1082.75C455.24 1085.85 453.272 1087.38 451.232 1087.89V1087.94L455.408 1096H453.44ZM459.704 1096V1077.64H471.416V1079.15H461.408V1085.9H470.528V1087.38H461.408V1094.49H471.512V1096H459.704ZM474.82 1086.9C474.82 1080.23 478.66 1077.38 482.932 1077.38C487.252 1077.38 491.092 1080.23 491.092 1086.9C491.092 1090.84 489.772 1093.46 487.612 1094.82V1094.92C489.58 1095.02 490.636 1095.76 491.644 1097.22L490.252 1098.28C489.124 1096.6 488.092 1096.05 486.244 1096.05C485.188 1096.05 484.492 1096.34 482.932 1096.34C478.588 1096.34 474.82 1093.53 474.82 1086.9ZM482.932 1095.02C486.652 1095.02 489.316 1092.4 489.316 1086.9C489.316 1081.53 486.628 1078.74 482.932 1078.74C479.284 1078.74 476.596 1081.46 476.596 1086.9C476.596 1092.26 479.236 1095.02 482.932 1095.02ZM495.134 1089.88V1077.64H496.862V1088.1C496.862 1089.93 496.862 1092.06 497.846 1093.31C498.782 1094.46 500.198 1094.97 501.998 1094.97C503.798 1094.97 505.19 1094.46 506.102 1093.31C507.086 1092.06 507.062 1089.93 507.062 1088.1V1077.64H508.742V1089.88C508.742 1094.49 506.006 1096.36 501.95 1096.36C497.846 1096.36 495.134 1094.51 495.134 1089.88ZM513.821 1096V1077.64H525.533V1079.15H515.525V1085.9H524.645V1087.38H515.525V1094.49H525.629V1096H513.821ZM541.855 1082.54H540.175C539.983 1080.5 538.903 1078.74 535.855 1078.74C533.191 1078.74 531.439 1080.09 531.439 1082.27C531.439 1084.24 532.351 1085.15 534.751 1085.58L537.823 1086.14C540.871 1086.69 542.407 1088.32 542.407 1090.89C542.407 1094.13 540.055 1096.38 535.759 1096.38C531.535 1096.38 529.135 1093.77 528.919 1090.89H530.647C530.911 1092.9 532.327 1094.99 535.783 1094.99C539.335 1094.99 540.679 1093.14 540.679 1091.03C540.679 1089.28 539.839 1088.2 537.463 1087.77L534.511 1087.24C530.911 1086.59 529.687 1084.94 529.687 1082.37C529.687 1079.34 532.255 1077.38 535.855 1077.38C539.599 1077.38 541.735 1079.39 541.855 1082.54ZM559.162 1077.64V1079.13H552.562V1096H550.858V1079.13H544.282V1077.64H559.162Z" fill="#222222"/>
<g clip-path="url(#clip6_3754_46362)">
<path d="M843.197 131.332H807.844V141.998H843.197C847.615 141.998 851.197 145.58 851.197 149.998V216.665C851.197 221.083 847.615 224.665 843.197 224.665H756.53C752.112 224.665 748.53 221.083 748.53 216.665V153.756H737.863V216.665C737.863 226.974 746.221 235.332 756.53 235.332H843.197C853.506 235.332 861.863 226.974 861.863 216.665V149.998C861.863 139.689 853.506 131.332 843.197 131.332Z" fill="#222222"/>
<path d="M839.463 158.198H793.863V168.865H839.463V158.198Z" fill="#222222"/>
<path d="M839.596 178.198H760.53V188.865H839.596V178.198Z" fill="#222222"/>
<path d="M760.53 198.065H838.996V208.732H760.53V198.065Z" fill="#222222"/>
<path d="M773.767 109.961C771.685 107.878 768.308 107.878 766.225 109.961L744.425 131.761L751.967 139.303L764.663 126.607V166.132H775.33V126.608L788.025 139.303L795.567 131.761L773.767 109.961Z" fill="#222222"/>
</g>
<g clip-path="url(#clip7_3754_46362)">
<path d="M832.398 363.5H805.884V371.5H832.398C835.712 371.5 838.398 374.186 838.398 377.5V427.5C838.398 430.814 835.712 433.5 832.398 433.5H767.398C764.085 433.5 761.398 430.814 761.398 427.5V380.318H753.398V427.5C753.398 435.232 759.666 441.5 767.398 441.5H832.398C840.13 441.5 846.398 435.232 846.398 427.5V377.5C846.398 369.768 840.13 363.5 832.398 363.5Z" fill="#222222"/>
<path d="M829.598 383.65H795.398V391.65H829.598V383.65Z" fill="#222222"/>
<path d="M829.698 398.65H770.398V406.65H829.698V398.65Z" fill="#222222"/>
<path d="M770.398 413.55H829.248V421.55H770.398V413.55Z" fill="#222222"/>
<path d="M780.326 347.472C778.764 345.91 776.232 345.91 774.67 347.472L758.32 363.822L763.976 369.478L773.498 359.957V389.6H781.498V359.957L791.02 369.478L796.677 363.822L780.326 347.472Z" fill="#222222"/>
</g>
<g clip-path="url(#clip8_3754_46362)">
<path d="M821.6 555.667H803.924V561H821.6C823.809 561 825.6 562.791 825.6 565V598.333C825.6 600.542 823.809 602.333 821.6 602.333H778.267C776.058 602.333 774.267 600.542 774.267 598.333V566.879H768.934V598.333C768.934 603.488 773.112 607.667 778.267 607.667H821.6C826.755 607.667 830.934 603.488 830.934 598.333V565C830.934 559.845 826.755 555.667 821.6 555.667Z" fill="#222222"/>
<path d="M819.734 569.1H796.934V574.433H819.734V569.1Z" fill="#222222"/>
<path d="M819.8 579.1H780.267V584.433H819.8V579.1Z" fill="#222222"/>
<path d="M780.267 589.033H819.5V594.367H780.267V589.033Z" fill="#222222"/>
<path d="M786.886 544.981C785.844 543.94 784.156 543.94 783.114 544.981L772.214 555.881L775.986 559.652L782.333 553.304V573.067H787.667V553.305L794.014 559.652L797.786 555.881L786.886 544.981Z" fill="#222222"/>
</g>
<g clip-path="url(#clip9_3754_46362)">
<path d="M816.199 711.749H802.942V715.749H816.199C817.856 715.749 819.199 717.093 819.199 718.749V743.749C819.199 745.406 817.856 746.749 816.199 746.749H783.699C782.042 746.749 780.699 745.406 780.699 743.749V720.159H776.699V743.749C776.699 747.615 779.833 750.749 783.699 750.749H816.199C820.065 750.749 823.199 747.615 823.199 743.749V718.749C823.199 714.883 820.065 711.749 816.199 711.749Z" fill="#222222"/>
<path d="M814.799 721.824H797.699V725.824H814.799V721.824Z" fill="#222222"/>
<path d="M814.849 729.324H785.199V733.324H814.849V729.324Z" fill="#222222"/>
<path d="M785.199 736.774H814.624V740.774H785.199V736.774Z" fill="#222222"/>
<path d="M790.163 703.735C789.382 702.954 788.116 702.954 787.335 703.735L779.16 711.91L781.988 714.739L786.749 709.978V724.799H790.749V709.978L795.51 714.739L798.338 711.91L790.163 703.735Z" fill="#222222"/>
</g>
<g clip-path="url(#clip10_3754_46362)">
<path d="M810.798 847.833H801.96V850.5H810.798C811.903 850.5 812.798 851.396 812.798 852.5V869.167C812.798 870.271 811.903 871.167 810.798 871.167H789.132C788.027 871.167 787.132 870.271 787.132 869.167V853.44H784.465V869.167C784.465 871.744 786.554 873.833 789.132 873.833H810.798C813.376 873.833 815.465 871.744 815.465 869.167V852.5C815.465 849.923 813.376 847.833 810.798 847.833Z" fill="#222222"/>
<path d="M809.865 854.55H798.465V857.217H809.865V854.55Z" fill="#222222"/>
<path d="M809.898 859.55H790.131V862.217H809.898V859.55Z" fill="#222222"/>
<path d="M790.131 864.517H809.748V867.183H790.131V864.517Z" fill="#222222"/>
<path d="M793.441 842.491C792.92 841.97 792.076 841.97 791.555 842.491L786.105 847.941L787.991 849.826L791.165 846.652V856.533H793.831V846.652L797.005 849.826L798.891 847.941L793.441 842.491Z" fill="#222222"/>
</g>
<g clip-path="url(#clip11_3754_46362)">
<path d="M806.48 964.7H801.177V966.3H806.48C807.142 966.3 807.68 966.837 807.68 967.5V977.5C807.68 978.163 807.142 978.7 806.48 978.7H793.48C792.817 978.7 792.28 978.163 792.28 977.5V968.064H790.68V977.5C790.68 979.046 791.933 980.3 793.48 980.3H806.48C808.026 980.3 809.28 979.046 809.28 977.5V967.5C809.28 965.954 808.026 964.7 806.48 964.7Z" fill="#222222"/>
<path d="M805.92 968.73H799.08V970.33H805.92V968.73Z" fill="#222222"/>
<path d="M805.94 971.73H794.08V973.33H805.94V971.73Z" fill="#222222"/>
<path d="M794.08 974.71H805.85V976.31H794.08V974.71Z" fill="#222222"/>
<path d="M796.065 961.494C795.753 961.182 795.246 961.182 794.934 961.494L791.664 964.764L792.795 965.896L794.7 963.991V969.92H796.3V963.991L798.204 965.896L799.335 964.764L796.065 961.494Z" fill="#222222"/>
</g>
<path d="M779.388 1078.74C775.236 1078.74 772.932 1082.06 772.932 1087C772.932 1091.99 775.284 1094.99 779.316 1094.99C782.916 1094.99 785.076 1092.74 785.076 1089.42V1088.44H779.46V1086.93H786.732V1096H785.196V1093.1H785.124C784.284 1094.82 782.436 1096.38 779.172 1096.38C774.78 1096.38 771.156 1093.62 771.156 1086.9C771.156 1080.76 774.732 1077.38 779.388 1077.38C783.252 1077.38 785.844 1079.42 786.3 1082.51H784.548C784.092 1080.18 782.076 1078.74 779.388 1078.74ZM791.853 1096V1077.64H793.557V1096H791.853ZM803.849 1096L797.057 1077.64H798.857L804.065 1091.94C804.593 1093.41 804.785 1094.32 804.785 1094.32H804.833C804.833 1094.32 805.049 1093.41 805.577 1091.97L810.809 1077.64H812.513L805.745 1096H803.849ZM815.993 1096V1077.64H827.705V1079.15H817.697V1085.9H826.817V1087.38H817.697V1094.49H827.801V1096H815.993Z" fill="#222222"/>
<path d="M1080.02 126.318L1080.16 126.305L1080.96 126.058C1083.2 125.365 1084.68 123.381 1084.43 120.912L1083.13 109.489C1082.88 107.104 1080.7 104.703 1077.7 105.094C1075.32 105.349 1072.92 107.534 1073.32 110.53L1074.72 122.262C1075 124.912 1077.65 126.56 1080.02 126.318Z" fill="#222222"/>
<path d="M1093.52 126.049L1093.57 126.061L1093.62 126.069C1094.11 126.15 1094.52 126.169 1094.95 126.111C1095.33 126.06 1095.68 125.953 1095.98 125.86L1096.02 125.846C1096.79 125.61 1097.51 125.118 1098.08 124.537C1098.66 123.951 1099.17 123.19 1099.42 122.33L1099.44 122.279L1101.7 111.583C1102.38 108.769 1100.5 106.325 1097.91 105.687C1095.09 104.992 1092.63 106.87 1091.99 109.467L1089.74 120.153C1089.06 122.967 1090.93 125.411 1093.52 126.049Z" fill="#222222"/>
<path d="M1104.98 132.125L1105.05 132.181L1105.14 132.225C1106.35 132.868 1107.84 132.91 1108.83 132.605C1109.8 132.304 1110.99 131.451 1111.64 130.258L1117.53 120.718L1117.57 120.64C1118.72 118.456 1118.52 115.402 1115.9 114.013C1113.73 112.865 1110.69 113.058 1109.29 115.644L1103.34 125.285L1103.3 125.396C1102.27 127.995 1103 130.69 1104.98 132.125Z" fill="#222222"/>
<path fill-rule="evenodd" clip-rule="evenodd" d="M1071.31 135.897C1075.45 135.484 1079.48 136.692 1082.68 139.285L1100.15 153.573C1100.76 151.182 1101.96 148.94 1103.73 147.006C1106.35 144.043 1110.3 141.974 1114.21 141.584C1118.99 141.106 1123.44 142.718 1126.77 146.151L1153.09 171.238C1171.77 189.184 1173.71 219.131 1157.48 239.445L1157.34 239.655L1157.16 239.835C1148.31 249.978 1136.18 256.304 1122.96 257.627C1109.46 258.976 1096.26 255.008 1085.76 246.416L1041.44 210.157C1038.17 207.51 1036.07 203.677 1035.67 199.692C1035.27 195.705 1036.57 191.533 1039.26 188.29L1039.27 188.274L1039.49 188.017C1039.68 187.805 1039.87 187.584 1040.07 187.367C1034.85 181.767 1034.43 173.042 1039.42 166.946C1039.88 166.385 1040.36 165.86 1040.9 165.373C1039.87 163.522 1039.23 161.471 1039.02 159.322C1038.6 155.183 1039.81 151.15 1042.44 147.939C1045.07 144.728 1048.78 142.744 1052.92 142.33C1055.24 142.099 1057.52 142.367 1059.66 143.124C1060.01 142.57 1060.4 142.031 1060.83 141.506C1063.46 138.295 1067.17 136.311 1071.31 135.897ZM1075.65 147.929C1074.72 147.171 1073.55 146.858 1072.42 146.971C1071.28 147.085 1070.19 147.623 1069.44 148.55C1068.64 149.519 1068.21 150.714 1068.32 151.798C1068.43 152.881 1069.09 153.966 1070.06 154.76L1100.44 179.616C1102.15 181.018 1102.39 183.388 1100.99 185.102C1100.29 185.95 1099.35 186.446 1098.36 186.546C1097.36 186.645 1096.35 186.344 1095.5 185.651L1057.26 154.362C1056.33 153.604 1055.16 153.291 1054.03 153.404C1052.89 153.518 1051.8 154.056 1051.05 154.983C1049.53 156.842 1049.81 159.671 1051.67 161.192L1089.55 192.189C1091.27 193.592 1091.5 195.962 1090.1 197.676C1089.41 198.524 1088.47 199.02 1087.47 199.12C1086.48 199.219 1085.46 198.918 1084.61 198.225L1054.23 173.369C1053.31 172.611 1052.14 172.298 1051 172.412C1049.87 172.525 1048.78 173.063 1048.02 173.99C1046.5 175.849 1046.79 178.678 1048.65 180.2L1079.02 205.056C1080.74 206.459 1080.98 208.828 1079.57 210.543C1078.88 211.39 1077.94 211.887 1076.95 211.986C1075.95 212.085 1074.93 211.784 1074.09 211.091L1054.07 194.715C1053.15 193.957 1051.98 193.645 1050.84 193.758C1049.7 193.872 1048.62 194.41 1047.86 195.336C1047.07 196.306 1046.63 197.5 1046.74 198.584C1046.85 199.668 1047.51 200.753 1048.48 201.546L1092.8 237.807C1101.27 244.738 1111.69 247.569 1121.82 246.556C1131.85 245.553 1141.54 240.81 1148.76 232.535C1161.37 216.751 1159.99 193.332 1145.37 179.314L1118.85 154.039C1117.89 152.991 1116.74 152.549 1115.32 152.69C1114.19 152.803 1112.8 153.53 1112.03 154.464L1111.99 154.51C1110.48 156.057 1110.41 158.614 1112.05 160.49L1112.06 160.497L1132.13 184.08C1133.32 185.446 1133.35 187.038 1132.71 188.298C1132.1 189.521 1130.84 190.452 1129.45 190.591C1128.52 190.684 1127.57 190.41 1126.75 189.745L1075.65 147.929Z" fill="#222222"/>
<path d="M1085.02 359.739L1085.12 359.729L1085.72 359.544C1087.4 359.024 1088.51 357.536 1088.32 355.684L1087.35 347.117C1087.16 345.328 1085.52 343.528 1083.28 343.821C1081.49 344.012 1079.69 345.651 1079.99 347.898L1081.04 356.696C1081.25 358.684 1083.24 359.92 1085.02 359.739Z" fill="#222222"/>
<path d="M1095.14 359.537L1095.18 359.546L1095.22 359.552C1095.58 359.613 1095.89 359.626 1096.22 359.583C1096.5 359.545 1096.76 359.465 1096.99 359.395L1097.02 359.384C1097.59 359.208 1098.13 358.839 1098.56 358.403C1099 357.963 1099.38 357.393 1099.57 356.748L1099.58 356.709L1101.27 348.687C1101.78 346.577 1100.38 344.744 1098.44 344.266C1096.32 343.744 1094.48 345.153 1094 347.1L1092.3 355.115C1091.79 357.226 1093.2 359.058 1095.14 359.537Z" fill="#222222"/>
<path d="M1103.73 364.094L1103.79 364.136L1103.85 364.169C1104.77 364.651 1105.88 364.683 1106.62 364.454C1107.35 364.228 1108.24 363.588 1108.73 362.693L1113.15 355.539L1113.18 355.48C1114.04 353.842 1113.89 351.551 1111.92 350.51C1110.29 349.649 1108.02 349.794 1106.97 351.733L1102.51 358.964L1102.47 359.047C1101.71 360.996 1102.25 363.017 1103.73 364.094Z" fill="#222222"/>
<path fill-rule="evenodd" clip-rule="evenodd" d="M1078.48 366.923C1081.59 366.613 1084.61 367.519 1087.01 369.464L1100.11 380.179C1100.57 378.386 1101.47 376.705 1102.8 375.255C1104.76 373.033 1107.73 371.481 1110.66 371.188C1114.24 370.83 1117.58 372.038 1120.08 374.613L1139.82 393.428C1153.83 406.888 1155.29 429.348 1143.11 444.584L1143.01 444.741L1142.87 444.876C1136.23 452.484 1127.14 457.228 1117.22 458.22C1107.1 459.232 1097.19 456.256 1089.32 449.812L1056.08 422.618C1053.63 420.632 1052.05 417.758 1051.75 414.769C1051.45 411.779 1052.43 408.65 1054.44 406.217L1054.45 406.205L1054.62 406.013C1054.76 405.854 1054.9 405.688 1055.06 405.525C1051.14 401.325 1050.82 394.781 1054.56 390.21C1054.91 389.789 1055.27 389.395 1055.67 389.03C1054.9 387.642 1054.42 386.103 1054.26 384.491C1053.95 381.387 1054.86 378.363 1056.83 375.954C1058.8 373.546 1061.59 372.058 1064.69 371.748C1066.43 371.574 1068.14 371.776 1069.75 372.343C1070.01 371.927 1070.3 371.523 1070.62 371.129C1072.59 368.721 1075.38 367.233 1078.48 366.923ZM1081.74 375.947C1081.04 375.378 1080.16 375.143 1079.31 375.229C1078.46 375.314 1077.65 375.717 1077.08 376.412C1076.48 377.14 1076.16 378.035 1076.24 378.848C1076.32 379.661 1076.82 380.475 1077.54 381.07L1100.33 399.712C1101.61 400.764 1101.79 402.541 1100.74 403.827C1100.22 404.462 1099.52 404.835 1098.77 404.909C1098.02 404.984 1097.26 404.758 1096.62 404.238L1067.94 380.771C1067.25 380.203 1066.37 379.968 1065.52 380.053C1064.67 380.138 1063.85 380.542 1063.29 381.237C1062.15 382.632 1062.36 384.753 1063.75 385.894L1092.16 409.142C1093.45 410.194 1093.63 411.971 1092.58 413.257C1092.06 413.893 1091.35 414.265 1090.61 414.34C1089.86 414.414 1089.1 414.189 1088.46 413.669L1065.68 395.027C1064.98 394.458 1064.1 394.224 1063.25 394.309C1062.4 394.394 1061.59 394.798 1061.02 395.492C1059.88 396.887 1060.09 399.009 1061.49 400.15L1084.27 418.792C1085.56 419.844 1085.73 421.621 1084.68 422.907C1084.16 423.542 1083.46 423.915 1082.71 423.99C1081.97 424.064 1081.2 423.838 1080.57 423.318L1065.55 411.037C1064.86 410.468 1063.98 410.233 1063.13 410.319C1062.28 410.404 1061.47 410.808 1060.9 411.502C1060.3 412.23 1059.98 413.125 1060.06 413.938C1060.14 414.751 1060.64 415.565 1061.36 416.16L1094.6 443.355C1100.95 448.553 1108.77 450.677 1116.36 449.917C1123.89 449.165 1131.16 445.608 1136.57 439.402C1146.03 427.563 1144.99 409.999 1134.02 399.485L1114.14 380.529C1113.42 379.743 1112.55 379.412 1111.49 379.518C1110.65 379.602 1109.6 380.147 1109.03 380.848L1109 380.883C1107.86 382.043 1107.8 383.961 1109.04 385.368L1109.04 385.373L1124.1 403.06C1124.99 404.085 1125.01 405.279 1124.54 406.223C1124.07 407.141 1123.13 407.839 1122.09 407.944C1121.39 408.013 1120.68 407.807 1120.07 407.309L1081.74 375.947Z" fill="#222222"/>
<path d="M1090.01 553.159L1090.08 553.153L1090.48 553.029C1091.6 552.683 1092.34 551.691 1092.22 550.456L1091.57 544.745C1091.44 543.552 1090.35 542.352 1088.85 542.547C1087.66 542.675 1086.46 543.767 1086.66 545.265L1087.36 551.131C1087.5 552.456 1088.83 553.28 1090.01 553.159Z" fill="#222222"/>
<path d="M1096.76 553.025L1096.79 553.031L1096.81 553.035C1097.06 553.075 1097.26 553.084 1097.48 553.056C1097.67 553.03 1097.84 552.977 1097.99 552.93L1098.01 552.923C1098.4 552.805 1098.76 552.559 1099.04 552.269C1099.33 551.976 1099.59 551.595 1099.71 551.165L1099.72 551.139L1100.85 545.792C1101.19 544.385 1100.25 543.163 1098.96 542.844C1097.55 542.496 1096.32 543.435 1096 544.734L1094.87 550.077C1094.53 551.484 1095.47 552.706 1096.76 553.025Z" fill="#222222"/>
<path d="M1102.49 556.063L1102.53 556.091L1102.57 556.113C1103.18 556.434 1103.92 556.455 1104.41 556.303C1104.9 556.152 1105.5 555.725 1105.82 555.129L1108.77 550.359L1108.79 550.32C1109.36 549.228 1109.26 547.701 1107.95 547.007C1106.86 546.432 1105.35 546.529 1104.65 547.822L1101.67 552.643L1101.65 552.698C1101.14 553.997 1101.5 555.345 1102.49 556.063Z" fill="#222222"/>
<path fill-rule="evenodd" clip-rule="evenodd" d="M1085.66 557.949C1087.72 557.742 1089.74 558.346 1091.34 559.643L1100.08 566.786C1100.38 565.591 1100.98 564.47 1101.87 563.503C1103.18 562.022 1105.15 560.987 1107.11 560.792C1109.49 560.553 1111.72 561.359 1113.39 563.075L1126.55 575.619C1135.89 584.592 1136.86 599.566 1128.74 609.723L1128.67 609.828L1128.58 609.917C1124.15 614.989 1118.09 618.152 1111.48 618.813C1104.73 619.488 1098.13 617.504 1092.88 613.208L1070.72 595.079C1069.09 593.755 1068.04 591.839 1067.84 589.846C1067.64 587.853 1068.29 585.767 1069.63 584.145L1069.64 584.137L1069.75 584.009C1069.84 583.903 1069.94 583.792 1070.04 583.684C1067.43 580.884 1067.22 576.521 1069.71 573.473C1069.94 573.192 1070.18 572.93 1070.45 572.687C1069.94 571.761 1069.62 570.735 1069.51 569.661C1069.3 567.592 1069.91 565.575 1071.22 563.97C1072.53 562.364 1074.39 561.372 1076.46 561.165C1077.62 561.049 1078.76 561.184 1079.83 561.562C1080.01 561.285 1080.2 561.015 1080.42 560.753C1081.73 559.147 1083.59 558.156 1085.66 557.949ZM1087.83 563.964C1087.36 563.585 1086.78 563.429 1086.21 563.486C1085.64 563.543 1085.1 563.812 1084.72 564.275C1084.32 564.76 1084.11 565.357 1084.16 565.899C1084.21 566.441 1084.55 566.983 1085.03 567.38L1100.22 579.808C1101.08 580.509 1101.2 581.694 1100.49 582.551C1100.15 582.975 1099.68 583.223 1099.18 583.273C1098.68 583.323 1098.17 583.172 1097.75 582.826L1078.63 567.181C1078.17 566.802 1077.58 566.646 1077.01 566.702C1076.45 566.759 1075.9 567.028 1075.53 567.491C1074.76 568.421 1074.91 569.836 1075.84 570.596L1094.78 586.095C1095.64 586.796 1095.75 587.981 1095.05 588.838C1094.71 589.262 1094.24 589.51 1093.74 589.56C1093.24 589.61 1092.73 589.459 1092.31 589.113L1077.12 576.685C1076.66 576.306 1076.07 576.149 1075.5 576.206C1074.94 576.263 1074.39 576.532 1074.01 576.995C1073.25 577.925 1073.4 579.339 1074.32 580.1L1089.51 592.528C1090.37 593.229 1090.49 594.414 1089.79 595.271C1089.44 595.695 1088.97 595.943 1088.48 595.993C1087.98 596.043 1087.47 595.892 1087.05 595.546L1077.04 587.358C1076.57 586.979 1075.99 586.822 1075.42 586.879C1074.85 586.936 1074.31 587.205 1073.93 587.668C1073.54 588.153 1073.32 588.75 1073.37 589.292C1073.43 589.834 1073.76 590.377 1074.24 590.773L1096.4 608.904C1100.64 612.369 1105.84 613.785 1110.91 613.278C1115.93 612.777 1120.77 610.405 1124.38 606.268C1130.69 598.376 1130 586.666 1122.68 579.657L1109.43 567.019C1108.95 566.496 1108.37 566.275 1107.66 566.345C1107.1 566.402 1106.4 566.765 1106.02 567.232L1106 567.255C1105.24 568.029 1105.2 569.307 1106.03 570.245L1106.03 570.249L1116.07 582.04C1116.66 582.723 1116.68 583.519 1116.36 584.149C1116.05 584.761 1115.42 585.226 1114.72 585.296C1114.26 585.342 1113.79 585.205 1113.38 584.873L1087.83 563.964Z" fill="#222222"/>
<path d="M1092.51 709.869L1092.56 709.864L1092.86 709.772C1093.7 709.512 1094.26 708.768 1094.16 707.842L1093.68 703.559C1093.58 702.664 1092.76 701.764 1091.64 701.91C1090.75 702.006 1089.85 702.825 1090 703.949L1090.52 708.348C1090.63 709.342 1091.62 709.96 1092.51 709.869Z" fill="#222222"/>
<path d="M1097.57 709.768L1097.59 709.773L1097.61 709.776C1097.79 709.806 1097.95 709.813 1098.11 709.792C1098.25 709.773 1098.38 709.732 1098.49 709.697L1098.51 709.692C1098.8 709.604 1099.07 709.419 1099.28 709.201C1099.5 708.982 1099.69 708.696 1099.79 708.374L1099.79 708.355L1100.64 704.344C1100.89 703.288 1100.19 702.372 1099.22 702.133C1098.16 701.872 1097.24 702.576 1097 703.55L1096.15 707.558C1095.9 708.613 1096.6 709.529 1097.57 709.768Z" fill="#222222"/>
<path d="M1101.87 712.047L1101.9 712.068L1101.93 712.085C1102.38 712.326 1102.94 712.341 1103.31 712.227C1103.68 712.114 1104.12 711.794 1104.37 711.347L1106.58 707.769L1106.59 707.74C1107.02 706.921 1106.95 705.776 1105.96 705.255C1105.15 704.824 1104.01 704.897 1103.49 705.867L1101.26 709.482L1101.24 709.523C1100.85 710.498 1101.13 711.509 1101.87 712.047Z" fill="#222222"/>
<path fill-rule="evenodd" clip-rule="evenodd" d="M1089.24 713.462C1090.79 713.306 1092.31 713.76 1093.51 714.732L1100.06 720.09C1100.29 719.193 1100.74 718.352 1101.4 717.627C1102.38 716.516 1103.87 715.74 1105.33 715.594C1107.12 715.415 1108.79 716.019 1110.04 717.306L1119.91 726.714C1126.92 733.444 1127.64 744.674 1121.56 752.292L1121.5 752.371L1121.44 752.438C1118.12 756.242 1113.57 758.614 1108.61 759.11C1103.55 759.616 1098.6 758.128 1094.66 754.906L1078.04 741.309C1076.82 740.316 1076.03 738.879 1075.88 737.384C1075.73 735.889 1076.22 734.325 1077.22 733.109L1077.23 733.103L1077.31 733.007C1077.38 732.927 1077.45 732.844 1077.53 732.763C1075.57 730.663 1075.41 727.391 1077.28 725.105C1077.46 724.894 1077.64 724.698 1077.84 724.515C1077.45 723.821 1077.21 723.051 1077.13 722.246C1076.98 720.694 1077.43 719.181 1078.42 717.977C1079.4 716.773 1080.79 716.029 1082.35 715.874C1083.22 715.787 1084.07 715.888 1084.87 716.171C1085.01 715.964 1085.15 715.762 1085.31 715.565C1086.3 714.36 1087.69 713.617 1089.24 713.462ZM1090.87 717.973C1090.52 717.689 1090.08 717.572 1089.66 717.614C1089.23 717.657 1088.83 717.859 1088.54 718.206C1088.24 718.57 1088.08 719.018 1088.12 719.424C1088.16 719.831 1088.41 720.237 1088.77 720.535L1100.17 729.856C1100.81 730.382 1100.9 731.27 1100.37 731.913C1100.11 732.231 1099.76 732.417 1099.39 732.455C1099.01 732.492 1098.63 732.379 1098.31 732.119L1083.97 720.386C1083.63 720.101 1083.19 719.984 1082.76 720.027C1082.34 720.069 1081.93 720.271 1081.64 720.618C1081.07 721.316 1081.18 722.377 1081.88 722.947L1096.08 734.571C1096.73 735.097 1096.82 735.986 1096.29 736.629C1096.03 736.946 1095.68 737.133 1095.31 737.17C1094.93 737.207 1094.55 737.094 1094.23 736.834L1082.84 727.513C1082.49 727.229 1082.05 727.112 1081.63 727.154C1081.2 727.197 1080.8 727.399 1080.51 727.746C1079.94 728.443 1080.05 729.504 1080.74 730.075L1092.14 739.396C1092.78 739.922 1092.87 740.811 1092.34 741.454C1092.08 741.771 1091.73 741.958 1091.36 741.995C1090.98 742.032 1090.6 741.919 1090.28 741.659L1082.78 735.518C1082.43 735.234 1081.99 735.117 1081.57 735.159C1081.14 735.202 1080.73 735.404 1080.45 735.751C1080.15 736.115 1079.99 736.563 1080.03 736.969C1080.07 737.376 1080.32 737.782 1080.68 738.08L1097.3 751.678C1100.48 754.277 1104.38 755.338 1108.18 754.958C1111.95 754.582 1115.58 752.804 1118.29 749.701C1123.02 743.782 1122.5 735 1117.01 729.743L1107.07 720.265C1106.71 719.872 1106.28 719.706 1105.75 719.759C1105.33 719.801 1104.8 720.074 1104.51 720.424L1104.5 720.441C1103.93 721.021 1103.9 721.98 1104.52 722.684L1104.52 722.687L1112.05 731.53C1112.5 732.042 1112.51 732.639 1112.27 733.112C1112.04 733.57 1111.57 733.919 1111.04 733.972C1110.7 734.007 1110.34 733.904 1110.04 733.655L1090.87 717.973Z" fill="#222222"/>
<path d="M1095.01 846.579L1095.04 846.576L1095.24 846.514C1095.8 846.341 1096.17 845.845 1096.11 845.228L1095.78 842.372C1095.72 841.776 1095.17 841.176 1094.42 841.273C1093.83 841.337 1093.23 841.884 1093.33 842.633L1093.68 845.565C1093.75 846.228 1094.41 846.64 1095.01 846.579Z" fill="#222222"/>
<path d="M1098.38 846.512L1098.39 846.515L1098.4 846.517C1098.53 846.537 1098.63 846.542 1098.74 846.528C1098.83 846.515 1098.92 846.488 1098.99 846.465L1099 846.461C1099.2 846.403 1099.38 846.28 1099.52 846.134C1099.66 845.988 1099.79 845.797 1099.85 845.583L1099.86 845.57L1100.42 842.896C1100.59 842.192 1100.12 841.581 1099.48 841.422C1098.77 841.248 1098.16 841.717 1098 842.367L1097.43 845.038C1097.26 845.742 1097.73 846.353 1098.38 846.512Z" fill="#222222"/>
<path d="M1101.24 848.031L1101.26 848.045L1101.28 848.056C1101.59 848.217 1101.96 848.227 1102.21 848.151C1102.45 848.076 1102.75 847.863 1102.91 847.564L1104.38 845.18L1104.39 845.16C1104.68 844.614 1104.63 843.85 1103.97 843.503C1103.43 843.216 1102.67 843.265 1102.32 843.911L1100.83 846.321L1100.82 846.349C1100.57 846.999 1100.75 847.672 1101.24 848.031Z" fill="#222222"/>
<path fill-rule="evenodd" clip-rule="evenodd" d="M1092.83 848.974C1093.86 848.871 1094.87 849.173 1095.67 849.821L1100.04 853.393C1100.19 852.795 1100.49 852.235 1100.93 851.752C1101.59 851.011 1102.57 850.494 1103.55 850.396C1104.75 850.276 1105.86 850.679 1106.69 851.538L1113.27 857.809C1117.94 862.296 1118.43 869.783 1114.37 874.861L1114.33 874.914L1114.29 874.959C1112.08 877.494 1109.04 879.076 1105.74 879.407C1102.36 879.744 1099.06 878.752 1096.44 876.604L1085.36 867.539C1084.54 866.877 1084.02 865.919 1083.92 864.923C1083.82 863.926 1084.14 862.883 1084.81 862.072L1084.82 862.068L1084.87 862.004C1084.92 861.951 1084.97 861.896 1085.02 861.842C1083.71 860.442 1083.61 858.26 1084.85 856.736C1084.97 856.596 1085.09 856.465 1085.22 856.343C1084.97 855.881 1084.81 855.368 1084.75 854.83C1084.65 853.796 1084.95 852.787 1085.61 851.985C1086.27 851.182 1087.19 850.686 1088.23 850.583C1088.81 850.525 1089.38 850.592 1089.91 850.781C1090 850.642 1090.1 850.508 1090.21 850.376C1090.86 849.574 1091.79 849.078 1092.83 848.974ZM1093.91 851.982C1093.68 851.793 1093.39 851.714 1093.1 851.743C1092.82 851.771 1092.55 851.906 1092.36 852.137C1092.16 852.38 1092.05 852.678 1092.08 852.949C1092.11 853.22 1092.27 853.491 1092.51 853.69L1100.11 859.904C1100.54 860.255 1100.6 860.847 1100.25 861.276C1100.07 861.487 1099.84 861.612 1099.59 861.636C1099.34 861.661 1099.09 861.586 1098.87 861.413L1089.31 853.59C1089.08 853.401 1088.79 853.323 1088.51 853.351C1088.22 853.379 1087.95 853.514 1087.76 853.746C1087.38 854.21 1087.45 854.918 1087.92 855.298L1097.39 863.047C1097.82 863.398 1097.87 863.99 1097.52 864.419C1097.35 864.631 1097.12 864.755 1096.87 864.78C1096.62 864.805 1096.36 864.729 1096.15 864.556L1088.56 858.342C1088.33 858.153 1088.03 858.074 1087.75 858.103C1087.47 858.131 1087.19 858.266 1087.01 858.497C1086.62 858.962 1086.7 859.67 1087.16 860.05L1094.76 866.264C1095.18 866.615 1095.24 867.207 1094.89 867.636C1094.72 867.847 1094.48 867.972 1094.24 867.996C1093.99 868.021 1093.73 867.946 1093.52 867.773L1088.52 863.679C1088.29 863.489 1087.99 863.411 1087.71 863.439C1087.43 863.468 1087.15 863.602 1086.96 863.834C1086.77 864.076 1086.66 864.375 1086.68 864.646C1086.71 864.917 1086.88 865.188 1087.12 865.387L1098.2 874.452C1100.32 876.184 1102.92 876.892 1105.45 876.639C1107.96 876.388 1110.38 875.203 1112.19 873.134C1115.34 869.188 1115 863.333 1111.34 859.828L1104.71 853.51C1104.47 853.248 1104.18 853.137 1103.83 853.173C1103.55 853.201 1103.2 853.382 1103.01 853.616L1103 853.628C1102.62 854.014 1102.6 854.654 1103.01 855.122L1103.01 855.124L1108.03 861.02C1108.33 861.361 1108.34 861.759 1108.18 862.074C1108.02 862.38 1107.71 862.613 1107.36 862.648C1107.13 862.671 1106.89 862.602 1106.69 862.436L1093.91 851.982Z" fill="#222222"/>
<path d="M1097 963.948L1097.02 963.946L1097.14 963.909C1097.48 963.805 1097.7 963.507 1097.66 963.137L1097.47 961.423C1097.43 961.066 1097.1 960.706 1096.66 960.764C1096.3 960.802 1095.94 961.13 1096 961.58L1096.21 963.339C1096.25 963.737 1096.65 963.984 1097 963.948Z" fill="#222222"/>
<path d="M1099.03 963.907L1099.04 963.909L1099.04 963.91C1099.12 963.923 1099.18 963.925 1099.24 963.917C1099.3 963.909 1099.35 963.893 1099.4 963.879L1099.4 963.877C1099.52 963.842 1099.63 963.768 1099.71 963.681C1099.8 963.593 1099.88 963.479 1099.91 963.35L1099.92 963.342L1100.25 961.737C1100.36 961.315 1100.08 960.949 1099.69 960.853C1099.26 960.749 1098.9 961.031 1098.8 961.42L1098.46 963.023C1098.36 963.445 1098.64 963.812 1099.03 963.907Z" fill="#222222"/>
<path d="M1100.75 964.819L1100.76 964.827L1100.77 964.834C1100.95 964.93 1101.18 964.937 1101.32 964.891C1101.47 964.846 1101.65 964.718 1101.75 964.539L1102.63 963.108L1102.64 963.096C1102.81 962.768 1102.78 962.31 1102.38 962.102C1102.06 961.93 1101.6 961.959 1101.39 962.347L1100.5 963.793L1100.49 963.809C1100.34 964.199 1100.45 964.603 1100.75 964.819Z" fill="#222222"/>
<path fill-rule="evenodd" clip-rule="evenodd" d="M1095.7 965.385C1096.32 965.323 1096.92 965.504 1097.4 965.893L1100.02 968.036C1100.11 967.677 1100.29 967.341 1100.56 967.051C1100.95 966.607 1101.55 966.296 1102.13 966.238C1102.85 966.166 1103.52 966.408 1104.02 966.923L1107.96 970.686C1110.77 973.378 1111.06 977.87 1108.62 980.917L1108.6 980.948L1108.57 980.975C1107.25 982.497 1105.43 983.446 1103.44 983.644C1101.42 983.846 1099.44 983.251 1097.86 981.962L1091.22 976.524C1090.73 976.126 1090.41 975.552 1090.35 974.954C1090.29 974.356 1090.49 973.73 1090.89 973.243L1090.89 973.241L1090.92 973.203C1090.95 973.171 1090.98 973.138 1091.01 973.105C1090.23 972.265 1090.16 970.956 1090.91 970.042C1090.98 969.958 1091.05 969.879 1091.13 969.806C1090.98 969.528 1090.88 969.221 1090.85 968.898C1090.79 968.277 1090.97 967.673 1091.37 967.191C1091.76 966.709 1092.32 966.412 1092.94 966.35C1093.29 966.315 1093.63 966.355 1093.95 966.469C1094 966.385 1094.06 966.305 1094.12 966.226C1094.52 965.744 1095.08 965.447 1095.7 965.385ZM1096.35 967.189C1096.21 967.076 1096.03 967.029 1095.86 967.046C1095.69 967.063 1095.53 967.143 1095.42 967.282C1095.3 967.428 1095.23 967.607 1095.25 967.77C1095.26 967.932 1095.36 968.095 1095.51 968.214L1100.07 971.942C1100.32 972.153 1100.36 972.508 1100.15 972.765C1100.04 972.892 1099.9 972.967 1099.75 972.982C1099.6 972.997 1099.45 972.952 1099.32 972.848L1093.59 968.154C1093.45 968.041 1093.27 967.994 1093.1 968.011C1092.93 968.028 1092.77 968.108 1092.66 968.247C1092.43 968.526 1092.47 968.951 1092.75 969.179L1098.43 973.828C1098.69 974.039 1098.73 974.394 1098.52 974.651C1098.41 974.779 1098.27 974.853 1098.12 974.868C1097.97 974.883 1097.82 974.838 1097.69 974.734L1093.14 971.005C1093 970.892 1092.82 970.845 1092.65 970.862C1092.48 970.879 1092.32 970.96 1092.2 971.098C1091.98 971.377 1092.02 971.802 1092.3 972.03L1096.85 975.758C1097.11 975.969 1097.15 976.324 1096.94 976.581C1096.83 976.708 1096.69 976.783 1096.54 976.798C1096.39 976.813 1096.24 976.768 1096.11 976.664L1093.11 974.207C1092.97 974.094 1092.8 974.047 1092.63 974.064C1092.46 974.081 1092.29 974.162 1092.18 974.3C1092.06 974.446 1092 974.625 1092.01 974.788C1092.03 974.95 1092.13 975.113 1092.27 975.232L1098.92 980.671C1100.19 981.711 1101.75 982.135 1103.27 981.983C1104.78 981.833 1106.23 981.122 1107.31 979.88C1109.21 977.513 1109 974 1106.8 971.897L1102.83 968.106C1102.68 967.949 1102.51 967.882 1102.3 967.904C1102.13 967.92 1101.92 968.029 1101.81 968.17L1101.8 968.177C1101.57 968.409 1101.56 968.792 1101.81 969.074L1101.81 969.075L1104.82 972.612C1105 972.817 1105 973.056 1104.91 973.245C1104.81 973.428 1104.63 973.568 1104.42 973.589C1104.28 973.603 1104.14 973.561 1104.01 973.462L1096.35 967.189Z" fill="#222222"/>
<path d="M1058.92 1089.66V1096H1057.21V1077.64H1058.92V1087.58L1068.44 1077.64H1070.56L1063.14 1085.37L1071.04 1096H1068.97L1061.89 1086.52L1058.92 1089.66ZM1073.92 1089.88V1077.64H1075.64V1088.1C1075.64 1089.93 1075.64 1092.06 1076.63 1093.31C1077.56 1094.46 1078.98 1094.97 1080.78 1094.97C1082.58 1094.97 1083.97 1094.46 1084.88 1093.31C1085.87 1092.06 1085.84 1089.93 1085.84 1088.1V1077.64H1087.52V1089.88C1087.52 1094.49 1084.79 1096.36 1080.73 1096.36C1076.63 1096.36 1073.92 1094.51 1073.92 1089.88ZM1092.6 1096V1077.64H1098.31C1103.16 1077.64 1107.05 1080.18 1107.05 1086.64C1107.05 1093.14 1103.26 1096 1098.43 1096H1092.6ZM1094.31 1094.51H1098.27C1102.25 1094.51 1105.27 1092.62 1105.27 1086.71C1105.27 1081.19 1102.23 1079.13 1098.34 1079.13H1094.31V1094.51ZM1110.44 1086.9C1110.44 1080.23 1114.28 1077.38 1118.55 1077.38C1122.87 1077.38 1126.71 1080.23 1126.71 1086.9C1126.71 1093.53 1122.89 1096.38 1118.55 1096.38C1114.21 1096.38 1110.44 1093.53 1110.44 1086.9ZM1118.55 1095.02C1122.22 1095.02 1124.93 1092.23 1124.93 1086.9C1124.93 1081.53 1122.25 1078.74 1118.55 1078.74C1114.9 1078.74 1112.21 1081.46 1112.21 1086.9C1112.21 1092.26 1114.85 1095.02 1118.55 1095.02ZM1143.07 1082.54H1141.39C1141.19 1080.5 1140.11 1078.74 1137.07 1078.74C1134.4 1078.74 1132.65 1080.09 1132.65 1082.27C1132.65 1084.24 1133.56 1085.15 1135.96 1085.58L1139.03 1086.14C1142.08 1086.69 1143.62 1088.32 1143.62 1090.89C1143.62 1094.13 1141.27 1096.38 1136.97 1096.38C1132.75 1096.38 1130.35 1093.77 1130.13 1090.89H1131.86C1132.12 1092.9 1133.54 1094.99 1136.99 1094.99C1140.55 1094.99 1141.89 1093.14 1141.89 1091.03C1141.89 1089.28 1141.05 1088.2 1138.67 1087.77L1135.72 1087.24C1132.12 1086.59 1130.9 1084.94 1130.9 1082.37C1130.9 1079.34 1133.47 1077.38 1137.07 1077.38C1140.81 1077.38 1142.95 1079.39 1143.07 1082.54Z" fill="#222222"/>
<path d="M1453.45 126.548C1444.72 117.817 1430.46 117.817 1421.73 126.548L1348.84 199.444C1346 202.281 1345.78 204.391 1345.78 204.391L1340.11 233.346C1339.74 235.165 1340.32 237.056 1341.63 238.366C1342.94 239.675 1344.84 240.257 1346.65 239.893L1375.54 234.219C1375.54 234.219 1377.72 234.001 1380.48 231.163L1453.45 158.194C1462.26 149.464 1462.26 135.278 1453.45 126.548ZM1351.53 228.472L1354.15 215.013L1364.99 225.853L1351.53 228.472ZM1375.54 221.633L1358.37 204.464L1419.62 143.208L1436.79 160.377L1375.54 221.633ZM1444.07 153.102L1426.9 135.932L1429.08 133.75C1433.81 129.021 1441.52 129.021 1446.25 133.75C1450.98 138.479 1450.98 146.19 1446.25 150.919L1444.07 153.102Z" fill="#222222"/>
<path d="M1440.09 359.911C1433.54 353.363 1422.85 353.363 1416.3 359.911L1361.63 414.583C1359.5 416.711 1359.34 418.293 1359.34 418.293L1355.08 440.009C1354.81 441.373 1355.24 442.792 1356.23 443.774C1357.21 444.756 1358.63 445.193 1359.99 444.92L1381.65 440.664C1381.65 440.664 1383.29 440.5 1385.36 438.373L1440.09 383.646C1446.69 377.098 1446.69 366.458 1440.09 359.911ZM1363.65 436.354L1365.61 426.259L1373.74 434.389L1363.65 436.354ZM1381.65 431.225L1368.78 418.348L1414.72 372.406L1427.59 385.283L1381.65 431.225ZM1433.05 379.826L1420.17 366.949L1421.81 365.312C1425.36 361.766 1431.14 361.766 1434.69 365.312C1438.23 368.859 1438.23 374.643 1434.69 378.189L1433.05 379.826Z" fill="#222222"/>
<path d="M1426.73 553.274C1422.36 548.909 1415.23 548.909 1410.87 553.274L1374.42 589.722C1373 591.141 1372.89 592.196 1372.89 592.196L1370.05 606.673C1369.87 607.582 1370.16 608.528 1370.82 609.183C1371.47 609.838 1372.42 610.129 1373.33 609.947L1387.77 607.109C1387.77 607.109 1388.86 607 1390.24 605.582L1426.73 569.097C1431.13 564.732 1431.13 557.639 1426.73 553.274ZM1375.76 604.236L1377.07 597.506L1382.49 602.926L1375.76 604.236ZM1387.77 600.817L1379.18 592.232L1409.81 561.604L1418.4 570.188L1387.77 600.817ZM1422.03 566.551L1413.45 557.966L1414.54 556.875C1416.9 554.511 1420.76 554.511 1423.13 556.875C1425.49 559.239 1425.49 563.095 1423.13 565.46L1422.03 566.551Z" fill="#222222"/>
<path d="M1420.04 709.955C1416.77 706.682 1411.42 706.682 1408.15 709.955L1380.81 737.291C1379.75 738.355 1379.67 739.147 1379.67 739.147L1377.54 750.005C1377.4 750.687 1377.62 751.396 1378.11 751.887C1378.6 752.378 1379.31 752.596 1380 752.46L1390.83 750.332C1390.83 750.332 1391.64 750.25 1392.68 749.186L1420.04 721.823C1423.35 718.549 1423.35 713.229 1420.04 709.955ZM1381.82 748.177L1382.81 743.13L1386.87 747.195L1381.82 748.177ZM1390.83 745.612L1384.39 739.174L1407.36 716.203L1413.8 722.641L1390.83 745.612ZM1416.53 719.913L1410.09 713.475L1410.91 712.656C1412.68 710.883 1415.57 710.883 1417.34 712.656C1419.12 714.43 1419.12 717.321 1417.34 719.095L1416.53 719.913Z" fill="#222222"/>
<path d="M1413.36 846.637C1411.18 844.454 1407.62 844.454 1405.43 846.637L1387.21 864.861C1386.5 865.57 1386.45 866.098 1386.45 866.098L1385.03 873.336C1384.94 873.791 1385.08 874.264 1385.41 874.591C1385.74 874.919 1386.21 875.064 1386.66 874.973L1393.88 873.555C1393.88 873.555 1394.43 873.5 1395.12 872.791L1413.36 854.549C1415.56 852.366 1415.56 848.819 1413.36 846.637ZM1387.88 872.118L1388.54 868.753L1391.25 871.463L1387.88 872.118ZM1393.88 870.408L1389.59 866.116L1404.91 850.802L1409.2 855.094L1393.88 870.408ZM1411.02 853.275L1406.72 848.983L1407.27 848.437C1408.45 847.255 1410.38 847.255 1411.56 848.437C1412.74 849.62 1412.74 851.548 1411.56 852.73L1411.02 853.275Z" fill="#222222"/>
<path d="M1408.02 963.982C1406.71 962.673 1404.57 962.673 1403.26 963.982L1392.33 974.917C1391.9 975.342 1391.87 975.659 1391.87 975.659L1391.02 980.002C1390.96 980.275 1391.05 980.558 1391.25 980.755C1391.44 980.951 1391.73 981.039 1392 980.984L1396.33 980.133C1396.33 980.133 1396.66 980.1 1397.07 979.675L1408.02 968.729C1409.34 967.42 1409.34 965.292 1408.02 963.982ZM1392.73 979.271L1393.12 977.252L1394.75 978.878L1392.73 979.271ZM1396.33 978.245L1393.76 975.67L1402.94 966.481L1405.52 969.057L1396.33 978.245ZM1406.61 967.965L1404.03 965.39L1404.36 965.062C1405.07 964.353 1406.23 964.353 1406.94 965.062C1407.65 965.772 1407.65 966.929 1406.94 967.638L1406.61 967.965Z" fill="#222222"/>
<path d="M1373.71 1096V1077.64H1385.42V1079.15H1375.42V1085.9H1384.54V1087.38H1375.42V1094.49H1385.52V1096H1373.71ZM1390 1096V1077.64H1395.71C1400.56 1077.64 1404.45 1080.18 1404.45 1086.64C1404.45 1093.14 1400.66 1096 1395.83 1096H1390ZM1391.71 1094.51H1395.67C1399.65 1094.51 1402.67 1092.62 1402.67 1086.71C1402.67 1081.19 1399.63 1079.13 1395.74 1079.13H1391.71V1094.51ZM1408.77 1096V1077.64H1410.48V1096H1408.77ZM1428.47 1077.64V1079.13H1421.87V1096H1420.17V1079.13H1413.59V1077.64H1428.47Z" fill="#222222"/>
<path d="M1722.48 169.069L1721.53 167.359C1717.19 159.501 1709.01 154.667 1699.99 154.667C1693.45 154.667 1687.22 157.254 1682.64 161.808L1689.41 164.024L1669.52 181.832L1663.99 155.71L1672.33 158.386C1678.95 149.671 1688.97 144.666 1699.99 144.666C1712.72 144.666 1724.33 151.538 1730.38 162.641L1731.36 164.429L1722.48 169.069Z" fill="#222222"/>
<path d="M1700.05 203.961C1706.57 203.961 1712.78 201.391 1717.36 196.864L1710.63 194.663L1730.53 176.848L1735.98 202.984L1727.67 200.289C1721.04 209.012 1711.01 214.021 1699.99 214.021C1687.26 214.021 1675.65 207.148 1669.65 195.975L1668.69 194.192L1677.57 189.559L1678.51 191.269C1682.85 199.127 1691.03 203.961 1700.05 203.961Z" fill="#222222"/>
<path fill-rule="evenodd" clip-rule="evenodd" d="M1634.66 180C1634.66 143.961 1663.99 114.666 1699.99 114.666C1736 114.666 1765.3 143.964 1765.33 179.995C1765.33 216.032 1736.03 245.333 1699.99 245.333C1663.96 245.333 1634.66 216.036 1634.66 180ZM1699.99 125.333C1669.87 125.333 1645.33 149.856 1645.33 180C1645.33 210.145 1669.85 234.666 1699.99 234.666C1730.14 234.666 1754.66 210.148 1754.66 180.004C1754.64 149.853 1730.11 125.333 1699.99 125.333Z" fill="#222222"/>
<path d="M1716.86 391.802L1716.15 390.519C1712.89 384.625 1706.76 381 1699.99 381C1695.09 381 1690.42 382.941 1686.98 386.356L1692.06 388.018L1677.14 401.374L1672.99 381.782L1679.25 383.79C1684.21 377.253 1691.73 373.5 1699.99 373.5C1709.54 373.5 1718.25 378.654 1722.79 386.981L1723.52 388.322L1716.86 391.802Z" fill="#222222"/>
<path d="M1700.04 417.971C1704.93 417.971 1709.58 416.043 1713.02 412.648L1707.97 410.997L1722.9 397.636L1726.99 417.238L1720.75 415.217C1715.78 421.759 1708.26 425.516 1699.99 425.516C1690.45 425.516 1681.74 420.361 1677.24 411.981L1676.52 410.644L1683.18 407.169L1683.88 408.452C1687.14 414.346 1693.28 417.971 1700.04 417.971Z" fill="#222222"/>
<path fill-rule="evenodd" clip-rule="evenodd" d="M1651 400C1651 372.971 1672.99 351 1700 351C1727 351 1748.97 372.973 1749 399.996C1749 427.024 1727.02 449 1700 449C1672.97 449 1651 427.027 1651 400ZM1700 359C1677.41 359 1659 377.392 1659 400C1659 422.609 1677.39 441 1700 441C1722.6 441 1740.99 422.611 1741 400.003C1740.98 377.389 1722.58 359 1700 359Z" fill="#222222"/>
<path d="M1711.24 574.534L1710.77 573.679C1708.6 569.75 1704.51 567.334 1700 567.334C1696.73 567.334 1693.61 568.627 1691.32 570.904L1694.71 572.012L1684.76 580.916L1682 567.855L1686.16 569.193C1689.48 564.836 1694.49 562.333 1700 562.333C1706.36 562.333 1712.17 565.769 1715.19 571.321L1715.68 572.215L1711.24 574.534Z" fill="#222222"/>
<path d="M1700.03 591.981C1703.29 591.981 1706.39 590.695 1708.68 588.432L1705.32 587.332L1715.27 578.424L1717.99 591.492L1713.84 590.145C1710.52 594.506 1705.51 597.011 1700 597.011C1693.63 597.011 1687.83 593.574 1684.83 587.987L1684.35 587.096L1688.79 584.78L1689.26 585.635C1691.43 589.564 1695.52 591.981 1700.03 591.981Z" fill="#222222"/>
<path fill-rule="evenodd" clip-rule="evenodd" d="M1667.33 580C1667.33 561.981 1681.99 547.333 1700 547.333C1718 547.333 1732.65 561.982 1732.67 579.998C1732.67 598.016 1718.02 612.667 1700 612.667C1681.98 612.667 1667.33 598.018 1667.33 580ZM1700 552.667C1684.94 552.667 1672.67 564.928 1672.67 580C1672.67 595.073 1684.93 607.333 1700 607.333C1715.07 607.333 1727.33 595.074 1727.33 580.002C1727.32 564.926 1715.06 552.667 1700 552.667Z" fill="#222222"/>
<path d="M1708.43 725.901L1708.08 725.26C1706.45 722.313 1703.38 720.501 1700 720.501C1697.55 720.501 1695.21 721.471 1693.49 723.179L1696.03 724.01L1688.57 730.688L1686.5 720.892L1689.62 721.895C1692.11 718.627 1695.87 716.75 1700 716.75C1704.77 716.75 1709.13 719.327 1711.4 723.491L1711.76 724.162L1708.43 725.901Z" fill="#222222"/>
<path d="M1700.02 738.986C1702.47 738.986 1704.79 738.022 1706.51 736.325L1703.99 735.499L1711.45 728.819L1713.5 738.62L1710.38 737.609C1707.89 740.88 1704.13 742.759 1700 742.759C1695.23 742.759 1690.87 740.181 1688.62 735.991L1688.26 735.323L1691.59 733.585L1691.94 734.227C1693.57 737.173 1696.64 738.986 1700.02 738.986Z" fill="#222222"/>
<path fill-rule="evenodd" clip-rule="evenodd" d="M1675.5 730C1675.5 716.486 1686.5 705.5 1700 705.5C1713.5 705.5 1724.49 716.487 1724.5 729.999C1724.5 743.513 1713.51 754.5 1700 754.5C1686.49 754.5 1675.5 743.514 1675.5 730ZM1700 709.5C1688.71 709.5 1679.5 718.697 1679.5 730C1679.5 741.305 1688.7 750.5 1700 750.5C1711.3 750.5 1720.5 741.306 1720.5 730.002C1720.49 718.695 1711.29 709.5 1700 709.5Z" fill="#222222"/>
<path d="M1705.62 857.267L1705.38 856.84C1704.3 854.875 1702.25 853.667 1700 853.667C1698.36 853.667 1696.81 854.313 1695.66 855.452L1697.35 856.006L1692.38 860.458L1691 853.927L1693.08 854.596C1694.74 852.418 1697.24 851.167 1700 851.167C1703.18 851.167 1706.08 852.884 1707.6 855.66L1707.84 856.107L1705.62 857.267Z" fill="#222222"/>
<path d="M1700.01 865.99C1701.64 865.99 1703.19 865.348 1704.34 864.216L1702.66 863.666L1707.63 859.212L1709 865.746L1706.92 865.072C1705.26 867.253 1702.75 868.505 1700 868.505C1696.81 868.505 1693.91 866.787 1692.41 863.994L1692.17 863.548L1694.39 862.39L1694.63 862.817C1695.71 864.782 1697.76 865.99 1700.01 865.99Z" fill="#222222"/>
<path fill-rule="evenodd" clip-rule="evenodd" d="M1683.66 860C1683.66 850.99 1691 843.667 1700 843.667C1709 843.667 1716.32 850.991 1716.33 859.999C1716.33 869.008 1709.01 876.333 1700 876.333C1690.99 876.333 1683.66 869.009 1683.66 860ZM1700 846.333C1692.47 846.333 1686.33 852.464 1686.33 860C1686.33 867.536 1692.46 873.667 1700 873.667C1707.53 873.667 1713.66 867.537 1713.66 860.001C1713.66 852.463 1707.53 846.333 1700 846.333Z" fill="#222222"/>
<path d="M1703.37 970.36L1703.23 970.104C1702.58 968.925 1701.35 968.2 1700 968.2C1699.02 968.2 1698.08 968.588 1697.4 969.271L1698.41 969.604L1695.43 972.275L1694.6 968.356L1695.85 968.758C1696.84 967.451 1698.35 966.7 1700 966.7C1701.91 966.7 1703.65 967.731 1704.56 969.396L1704.7 969.664L1703.37 970.36Z" fill="#222222"/>
<path d="M1700.01 975.594C1700.99 975.594 1701.92 975.209 1702.6 974.53L1701.59 974.199L1704.58 971.527L1705.4 975.448L1704.15 975.043C1703.16 976.352 1701.65 977.103 1700 977.103C1698.09 977.103 1696.35 976.072 1695.45 974.396L1695.3 974.129L1696.64 973.434L1696.78 973.69C1697.43 974.869 1698.66 975.594 1700.01 975.594Z" fill="#222222"/>
<path fill-rule="evenodd" clip-rule="evenodd" d="M1690.2 972C1690.2 966.594 1694.6 962.2 1700 962.2C1705.4 962.2 1709.79 966.595 1709.8 971.999C1709.8 977.405 1705.4 981.8 1700 981.8C1694.59 981.8 1690.2 977.405 1690.2 972ZM1700 963.8C1695.48 963.8 1691.8 967.478 1691.8 972C1691.8 976.522 1695.48 980.2 1700 980.2C1704.52 980.2 1708.2 976.522 1708.2 972.001C1708.2 967.478 1704.52 963.8 1700 963.8Z" fill="#222222"/>
<path d="M1629.42 1086.76H1634.24C1636.59 1086.76 1638.49 1085.61 1638.49 1082.78C1638.49 1080.35 1636.83 1079.08 1634.29 1079.08H1629.42V1086.76ZM1638.44 1096L1634.46 1088.18H1629.42V1096H1627.71V1077.64H1634.29C1635.61 1077.64 1636.86 1077.9 1637.89 1078.46C1639.3 1079.25 1640.24 1080.64 1640.24 1082.75C1640.24 1085.85 1638.27 1087.38 1636.23 1087.89V1087.94L1640.41 1096H1638.44ZM1644.7 1096V1077.64H1656.42V1079.15H1646.41V1085.9H1655.53V1087.38H1646.41V1094.49H1656.51V1096H1644.7ZM1667.93 1078.74C1663.78 1078.74 1661.64 1082.18 1661.64 1086.88C1661.64 1091.8 1663.88 1094.97 1668 1094.97C1671.48 1094.97 1672.92 1092.76 1673.16 1090.67H1674.87C1674.58 1093.96 1671.96 1096.38 1667.86 1096.38C1663.25 1096.38 1659.82 1093.41 1659.82 1086.88C1659.82 1080.83 1663.32 1077.35 1667.93 1077.35C1671.05 1077.35 1674.46 1078.86 1674.87 1082.92H1673.12C1672.85 1080.9 1671.39 1078.74 1667.93 1078.74ZM1678.96 1089.88V1077.64H1680.69V1088.1C1680.69 1089.93 1680.69 1092.06 1681.67 1093.31C1682.61 1094.46 1684.03 1094.97 1685.83 1094.97C1687.63 1094.97 1689.02 1094.46 1689.93 1093.31C1690.91 1092.06 1690.89 1089.93 1690.89 1088.1V1077.64H1692.57V1089.88C1692.57 1094.49 1689.83 1096.36 1685.78 1096.36C1681.67 1096.36 1678.96 1094.51 1678.96 1089.88ZM1699.35 1086.76H1704.18C1706.53 1086.76 1708.43 1085.61 1708.43 1082.78C1708.43 1080.35 1706.77 1079.08 1704.23 1079.08H1699.35V1086.76ZM1708.38 1096L1704.39 1088.18H1699.35V1096H1697.65V1077.64H1704.23C1705.55 1077.64 1706.79 1077.9 1707.83 1078.46C1709.24 1079.25 1710.18 1080.64 1710.18 1082.75C1710.18 1085.85 1708.21 1087.38 1706.17 1087.89V1087.94L1710.35 1096H1708.38ZM1716.35 1086.76H1721.17C1723.52 1086.76 1725.42 1085.61 1725.42 1082.78C1725.42 1080.35 1723.76 1079.08 1721.22 1079.08H1716.35V1086.76ZM1725.37 1096L1721.39 1088.18H1716.35V1096H1714.64V1077.64H1721.22C1722.54 1077.64 1723.79 1077.9 1724.82 1078.46C1726.23 1079.25 1727.17 1080.64 1727.17 1082.75C1727.17 1085.85 1725.2 1087.38 1723.16 1087.89V1087.94L1727.34 1096H1725.37ZM1731.63 1096V1077.64H1733.34V1096H1731.63ZM1738.78 1096V1077.64H1740.89L1750.09 1092.21C1750.64 1093.1 1750.9 1093.7 1750.9 1093.7H1750.95V1077.64H1752.61V1096H1750.47L1741.35 1081.48C1740.77 1080.57 1740.49 1079.97 1740.49 1079.97H1740.44V1096H1738.78ZM1765.18 1078.74C1761.03 1078.74 1758.72 1082.06 1758.72 1087C1758.72 1091.99 1761.07 1094.99 1765.11 1094.99C1768.71 1094.99 1770.87 1092.74 1770.87 1089.42V1088.44H1765.25V1086.93H1772.52V1096H1770.99V1093.1H1770.91C1770.07 1094.82 1768.23 1096.38 1764.96 1096.38C1760.57 1096.38 1756.95 1093.62 1756.95 1086.9C1756.95 1080.76 1760.52 1077.38 1765.18 1077.38C1769.04 1077.38 1771.63 1079.42 1772.09 1082.51H1770.34C1769.88 1080.18 1767.87 1078.74 1765.18 1078.74Z" fill="#222222"/>
<path fill-rule="evenodd" clip-rule="evenodd" d="M1934.66 180C1934.66 143.961 1963.99 114.666 1999.99 114.666C2036 114.666 2065.3 143.964 2065.33 179.995C2065.33 216.032 2036.03 245.333 1999.99 245.333C1963.96 245.333 1934.66 216.036 1934.66 180ZM1999.99 125.333C1969.87 125.333 1945.33 149.856 1945.33 180C1945.33 210.145 1969.85 234.666 1999.99 234.666C2030.14 234.666 2054.66 210.148 2054.66 180.004C2054.64 149.853 2030.11 125.333 1999.99 125.333Z" fill="#222222"/>
<path fill-rule="evenodd" clip-rule="evenodd" d="M2045.33 143.257L1963.26 225.33C1960.11 222.773 1957.23 219.895 1954.67 216.747L2036.75 134.671C2039.9 137.229 2042.77 140.108 2045.33 143.257Z" fill="#222222"/>
<path fill-rule="evenodd" clip-rule="evenodd" d="M1951 400C1951 372.971 1972.99 351 2000 351C2027 351 2048.97 372.973 2049 399.996C2049 427.024 2027.02 449 2000 449C1972.97 449 1951 427.027 1951 400ZM2000 359C1977.41 359 1959 377.392 1959 400C1959 422.609 1977.39 441 2000 441C2022.6 441 2040.99 422.611 2041 400.003C2040.98 377.389 2022.58 359 2000 359Z" fill="#222222"/>
<path fill-rule="evenodd" clip-rule="evenodd" d="M2034 372.443L1972.44 433.997C1970.08 432.08 1967.92 429.921 1966 427.56L2027.56 366.003C2029.92 367.922 2032.08 370.081 2034 372.443Z" fill="#222222"/>
<path fill-rule="evenodd" clip-rule="evenodd" d="M1967.33 580C1967.33 561.981 1981.99 547.333 2000 547.333C2018 547.333 2032.65 561.982 2032.67 579.998C2032.67 598.016 2018.02 612.667 2000 612.667C1981.98 612.667 1967.33 598.018 1967.33 580ZM2000 552.667C1984.94 552.667 1972.67 564.928 1972.67 580C1972.67 595.073 1984.93 607.333 2000 607.333C2015.07 607.333 2027.33 595.074 2027.33 580.002C2027.32 564.926 2015.06 552.667 2000 552.667Z" fill="#222222"/>
<path fill-rule="evenodd" clip-rule="evenodd" d="M2022.67 561.629L1981.63 602.665C1980.05 601.386 1978.61 599.948 1977.34 598.374L2018.38 557.335C2019.95 558.615 2021.39 560.054 2022.67 561.629Z" fill="#222222"/>
<path fill-rule="evenodd" clip-rule="evenodd" d="M1975.5 730C1975.5 716.485 1986.49 705.5 2000 705.5C2013.5 705.5 2024.48 716.487 2024.5 729.998C2024.5 743.512 2013.51 754.5 2000 754.5C1986.48 754.5 1975.5 743.513 1975.5 730ZM2000 709.5C1988.7 709.5 1979.5 718.696 1979.5 730C1979.5 741.304 1988.69 750.5 2000 750.5C2011.3 750.5 2020.5 741.305 2020.5 730.001C2020.49 718.695 2011.29 709.5 2000 709.5Z" fill="#222222"/>
<path fill-rule="evenodd" clip-rule="evenodd" d="M2017 716.222L1986.22 746.999C1985.04 746.04 1983.96 744.961 1983 743.78L2013.78 713.002C2014.96 713.961 2016.04 715.041 2017 716.222Z" fill="#222222"/>
<path fill-rule="evenodd" clip-rule="evenodd" d="M1983.67 860C1983.67 850.99 1991 843.667 2000 843.667C2009 843.667 2016.33 850.991 2016.33 859.999C2016.33 869.008 2009.01 876.333 2000 876.333C1990.99 876.333 1983.67 869.009 1983.67 860ZM2000 846.333C1992.47 846.333 1986.33 852.464 1986.33 860C1986.33 867.536 1992.46 873.667 2000 873.667C2007.54 873.667 2013.67 867.537 2013.67 860.001C2013.66 852.463 2007.53 846.333 2000 846.333Z" fill="#222222"/>
<path fill-rule="evenodd" clip-rule="evenodd" d="M2011.34 850.814L1990.82 871.332C1990.03 870.693 1989.31 869.974 1988.67 869.187L2009.19 848.668C2009.98 849.307 2010.7 850.027 2011.34 850.814Z" fill="#222222"/>
<path fill-rule="evenodd" clip-rule="evenodd" d="M1990.2 972C1990.2 966.594 1994.6 962.2 2000 962.2C2005.4 962.2 2009.79 966.595 2009.8 971.999C2009.8 977.405 2005.4 981.8 2000 981.8C1994.59 981.8 1990.2 977.405 1990.2 972ZM2000 963.8C1995.48 963.8 1991.8 967.478 1991.8 972C1991.8 976.522 1995.48 980.2 2000 980.2C2004.52 980.2 2008.2 976.522 2008.2 972.001C2008.2 967.478 2004.52 963.8 2000 963.8Z" fill="#222222"/>
<path fill-rule="evenodd" clip-rule="evenodd" d="M2006.8 966.489L1994.49 978.8C1994.01 978.416 1993.58 977.984 1993.2 977.512L2005.51 965.201C2005.98 965.584 2006.41 966.016 2006.8 966.489Z" fill="#222222"/>
<path d="M1949.42 1086.76H1954.24C1956.59 1086.76 1958.49 1085.61 1958.49 1082.78C1958.49 1080.35 1956.83 1079.08 1954.29 1079.08H1949.42V1086.76ZM1958.44 1096L1954.46 1088.18H1949.42V1096H1947.71V1077.64H1954.29C1955.61 1077.64 1956.86 1077.9 1957.89 1078.46C1959.3 1079.25 1960.24 1080.64 1960.24 1082.75C1960.24 1085.85 1958.27 1087.38 1956.23 1087.89V1087.94L1960.41 1096H1958.44ZM1964.7 1096V1077.64H1976.42V1079.15H1966.41V1085.9H1975.53V1087.38H1966.41V1094.49H1976.51V1096H1964.7ZM1980.99 1096V1077.64H1983.35L1989.2 1092.02C1989.63 1093.1 1989.9 1093.89 1989.9 1093.89H1989.95C1989.95 1093.89 1990.19 1093.1 1990.62 1092.02L1996.5 1077.64H1998.8V1096H1997.07V1080.16H1997C1997 1080.16 1996.71 1081.1 1996.14 1082.51L1990.59 1096H1989.08L1983.61 1082.51C1983.06 1081.14 1982.72 1080.16 1982.72 1080.16H1982.65V1096H1980.99ZM2003.16 1086.9C2003.16 1080.23 2007 1077.38 2011.28 1077.38C2015.6 1077.38 2019.44 1080.23 2019.44 1086.9C2019.44 1093.53 2015.62 1096.38 2011.28 1096.38C2006.93 1096.38 2003.16 1093.53 2003.16 1086.9ZM2011.28 1095.02C2014.95 1095.02 2017.66 1092.23 2017.66 1086.9C2017.66 1081.53 2014.97 1078.74 2011.28 1078.74C2007.63 1078.74 2004.94 1081.46 2004.94 1086.9C2004.94 1092.26 2007.58 1095.02 2011.28 1095.02ZM2028.31 1096L2021.52 1077.64H2023.32L2028.53 1091.94C2029.05 1093.41 2029.25 1094.32 2029.25 1094.32H2029.29C2029.29 1094.32 2029.51 1093.41 2030.04 1091.97L2035.27 1077.64H2036.97L2030.21 1096H2028.31ZM2040.45 1096V1077.64H2052.17V1079.15H2042.16V1085.9H2051.28V1087.38H2042.16V1094.49H2052.26V1096H2040.45Z" fill="#222222"/>
<defs>
<clipPath id="clip0_3754_46362">
<rect width="160" height="160" fill="white" transform="translate(420 100)"/>
</clipPath>
<clipPath id="clip1_3754_46362">
<rect width="120" height="120" fill="white" transform="translate(440 340)"/>
</clipPath>
<clipPath id="clip2_3754_46362">
<rect width="80" height="80" fill="white" transform="translate(460 540)"/>
</clipPath>
<clipPath id="clip3_3754_46362">
<rect width="60" height="60" fill="white" transform="translate(470 700)"/>
</clipPath>
<clipPath id="clip4_3754_46362">
<rect width="40" height="40" fill="white" transform="translate(480 840)"/>
</clipPath>
<clipPath id="clip5_3754_46362">
<rect width="24" height="24" fill="white" transform="translate(488 960)"/>
</clipPath>
<clipPath id="clip6_3754_46362">
<rect width="160" height="160" fill="white" transform="translate(720 100)"/>
</clipPath>
<clipPath id="clip7_3754_46362">
<rect width="120" height="120" fill="white" transform="translate(740 340)"/>
</clipPath>
<clipPath id="clip8_3754_46362">
<rect width="80" height="80" fill="white" transform="translate(760 540)"/>
</clipPath>
<clipPath id="clip9_3754_46362">
<rect width="60" height="60" fill="white" transform="translate(770 700)"/>
</clipPath>
<clipPath id="clip10_3754_46362">
<rect width="40" height="40" fill="white" transform="translate(780 840)"/>
</clipPath>
<clipPath id="clip11_3754_46362">
<rect width="24" height="24" fill="white" transform="translate(788 960)"/>
</clipPath>
</defs>
</svg>
