<svg width="355" height="340" viewBox="0 0 355 340" fill="none" xmlns="http://www.w3.org/2000/svg">
<path d="M34.4752 95.44C19.8352 95.44 3.87516 83.2 3.87516 53.68C3.87516 21.88 21.8752 9.39999 34.9552 9.39999C49.2352 9.39999 65.7952 22 65.7952 51.76C65.7952 82.72 48.5152 95.44 34.4752 95.44ZM34.7152 89.56C45.2752 89.56 48.3952 79.48 48.3952 53.68C48.3952 25.24 44.9152 15.28 34.7152 15.28C24.9952 15.28 21.2752 24.52 21.2752 51.64C21.2752 79.12 24.5152 89.56 34.7152 89.56ZM81.0445 94V89.68L89.6845 88.48C93.8845 87.88 95.0845 86.92 95.0845 80.2V28.96L81.1645 28.36V23.8C92.8045 21.52 102.165 16.6 108.285 9.76L112.245 10.72V80.2C112.245 86.92 113.085 87.88 117.405 88.48L125.685 89.68V94H81.0445ZM143.934 109.6L189.294 5.92H197.214L151.734 109.6H143.934Z" fill="#222222"/>
<path d="M55.9152 222.86H44.9152V279.4C44.9152 290.62 45.7952 291.72 53.9352 293.04L64.4952 294.58V297H2.67516V294.58L10.8152 293.04C18.5152 291.5 19.6152 290.62 19.6152 279.4V162.14C19.6152 150.92 18.7352 150.04 10.8152 148.5L2.67516 146.96V144.54H110.035L112.235 186.34H109.375C105.195 175.78 102.115 168.08 99.0352 162.36C93.3152 151.36 89.5752 149.38 68.4552 149.38C56.7952 149.38 50.6352 150.04 44.9152 151.36V217.8H55.9152C74.3952 217.8 77.9152 216.7 80.5552 210.1C82.7552 205.04 84.0752 198.88 85.8352 192.28H88.2552V248.6H85.8352C84.0752 242 82.7552 236.72 80.7752 232.1C77.6952 224.18 75.2752 222.86 55.9152 222.86ZM116.92 297V294.58L125.06 293.04C132.76 291.28 133.86 290.84 133.86 279.4V162.14C133.86 150.7 132.76 150.26 125.06 148.5L116.92 146.96V144.54H181.6C215.92 144.54 231.76 156.64 231.76 181.06C231.76 201.52 220.1 213.4 199.42 220V220.44C209.98 240.24 227.14 270.6 237.92 284.46C243.42 291.72 245.62 292.82 249.58 293.7L253.54 294.58V297H216.58C203.16 277.86 187.76 250.36 175.44 225.28C171.04 225.28 164.88 225.06 159.16 224.84V279.4C159.16 290.62 159.82 291.28 167.96 293.04L175.88 294.58V297H116.92ZM173.02 220.22C194.58 220.22 206.02 209.88 206.02 184.58C206.02 158.4 195.68 149.6 177.86 149.6C169.94 149.6 164.44 150.26 159.16 151.36V219.12C162.02 219.56 166.42 220.22 173.02 220.22ZM297.331 299.2C279.731 299.2 265.431 296.56 255.531 291.72L252.671 253H255.531C260.151 263.12 263.671 270.82 268.951 278.74C275.771 289.3 283.911 294.36 299.091 294.36C317.131 294.36 327.691 282.92 327.691 265.98C327.691 249.48 319.331 242 293.811 229.46C271.591 219.34 255.971 207.46 255.971 184.58C255.971 161.04 273.571 142.34 303.491 142.34C318.451 142.34 330.771 144.98 337.591 148.28L340.011 183.92H337.371C332.971 174.24 329.451 166.98 325.051 160.6C318.671 150.7 314.051 147.18 301.291 147.18C284.351 147.18 274.231 155.98 274.231 172.26C274.231 188.54 282.371 195.8 303.711 205.92C335.171 221.1 347.931 231 347.931 254.32C347.931 276.32 331.431 299.2 297.331 299.2Z" fill="#222222"/>
</svg>
