<svg width="1003" height="340" viewBox="0 0 1003 340" fill="none" xmlns="http://www.w3.org/2000/svg">
<path d="M34.4752 95.44C19.8352 95.44 3.87516 83.2 3.87516 53.68C3.87516 21.88 21.8752 9.39999 34.9552 9.39999C49.2352 9.39999 65.7952 22 65.7952 51.76C65.7952 82.72 48.5152 95.44 34.4752 95.44ZM34.7152 89.56C45.2752 89.56 48.3952 79.48 48.3952 53.68C48.3952 25.24 44.9152 15.28 34.7152 15.28C24.9952 15.28 21.2752 24.52 21.2752 51.64C21.2752 79.12 24.5152 89.56 34.7152 89.56ZM73.7245 94V85.72C84.1645 77.44 92.6845 69.64 99.1645 62.44C108.165 52.48 113.205 45.28 113.205 31.6C113.205 18.88 107.685 14.68 100.485 14.68C94.4845 14.68 93.0445 16.36 92.8045 20.44C92.2045 27.88 89.4445 30.88 83.6845 30.88C78.4045 30.88 75.7645 27.76 75.7645 23.08C75.7645 16 84.5245 9.39999 102.165 9.39999C118.725 9.39999 130.965 17.32 130.965 33.4C130.965 50.68 110.565 66.4 88.3645 80.44V81.04H116.085C122.445 81.04 123.405 79.96 127.485 71.56H131.445L129.645 94H73.7245ZM143.934 109.6L189.294 5.92H197.214L151.734 109.6H143.934Z" fill="#222222"/>
<path d="M48.2152 299.2C30.6152 299.2 16.3152 296.56 6.41516 291.72L3.55516 253H6.41516C11.0352 263.12 14.5552 270.82 19.8352 278.74C26.6552 289.3 34.7952 294.36 49.9752 294.36C68.0152 294.36 78.5752 282.92 78.5752 265.98C78.5752 249.48 70.2152 242 44.6952 229.46C22.4752 219.34 6.85516 207.46 6.85516 184.58C6.85516 161.04 24.4552 142.34 54.3752 142.34C69.3352 142.34 81.6552 144.98 88.4752 148.28L90.8952 183.92H88.2552C83.8552 174.24 80.3352 166.98 75.9352 160.6C69.5552 150.7 64.9352 147.18 52.1752 147.18C35.2352 147.18 25.1152 155.98 25.1152 172.26C25.1152 188.54 33.2552 195.8 54.5952 205.92C86.0552 221.1 98.8152 231 98.8152 254.32C98.8152 276.32 82.3152 299.2 48.2152 299.2ZM141.409 299.2C125.569 299.2 115.889 291.72 115.889 275.22V192.5H103.129V190.52C118.089 184.8 129.089 173.36 135.249 158.4H138.769V184.8H168.249L167.369 192.5H138.769V274.34C138.769 285.12 143.389 288.86 153.509 288.86C160.109 288.86 165.609 287.1 169.789 285.78V288.2C164.729 292.82 154.609 299.2 141.409 299.2ZM207.033 299.86C187.233 299.86 174.913 289.74 174.913 272.8C174.913 252.56 191.853 247.06 208.573 242.66L237.613 235.4V211.42C237.613 195.14 236.293 185.68 218.473 185.68C208.573 185.68 206.373 188.54 205.053 195.8C203.953 207.24 200.433 210.98 192.513 210.98C185.253 210.98 181.293 207.02 181.293 200.64C181.293 186.78 202.633 181.06 222.433 181.06C248.833 181.06 260.493 190.96 260.493 210.1V278.3C260.493 285.12 262.033 287.98 264.893 289.74C267.973 291.94 272.153 292.38 276.333 292.6V294.36C273.033 296.56 265.773 299.64 257.413 299.64C245.973 299.64 240.033 295.02 238.713 285.78H238.053C231.893 293.26 221.113 299.86 207.033 299.86ZM216.933 289.74C227.053 289.74 234.093 285.78 237.613 280.72V241.78L224.853 243.98C207.253 247.06 198.233 252.56 198.233 268.84C198.233 282.04 204.833 289.74 216.933 289.74ZM312.751 299.2C296.911 299.2 287.231 291.72 287.231 275.22V192.5H274.471V190.52C289.431 184.8 300.431 173.36 306.591 158.4H310.111V184.8H339.591L338.711 192.5H310.111V274.34C310.111 285.12 314.731 288.86 324.851 288.86C331.451 288.86 336.951 287.1 341.131 285.78V288.2C336.071 292.82 325.951 299.2 312.751 299.2ZM424.407 280.28V205.04C424.407 196.24 423.967 195.58 416.487 191.62L410.767 188.32V186.56L446.187 181.72L447.287 182.38V276.32C447.287 286.22 448.607 287.54 455.647 290.18L461.587 292.38V294.36L425.947 299.2L424.627 298.76V284.46H423.967C413.187 291.72 399.547 299.2 383.267 299.2C365.447 299.2 354.667 289.3 354.667 270.6V204.82C354.667 196.02 353.787 195.58 346.747 191.62L341.027 188.32V186.56L376.227 181.72L377.547 182.38V266.2C377.547 280.06 384.587 286.66 396.467 286.66C407.027 286.66 417.147 283.36 424.407 280.28ZM502.575 299.2C488.495 299.2 477.275 297 468.475 294.14L467.815 262.02H470.235C473.755 269.28 476.395 275 479.475 280.06C485.195 290.62 491.795 294.8 504.555 294.8C517.755 294.8 525.895 286.66 525.895 274.34C525.895 262.46 518.855 256.96 499.935 249.48C479.915 241.56 468.915 232.32 468.915 214.28C468.915 194.7 484.755 181.06 508.955 181.06C520.395 181.06 530.295 183.26 537.775 186.12L538.435 213.84H536.015C532.275 206.58 529.195 200.86 526.335 196.46C521.495 189.2 516.655 185.68 506.535 185.68C492.895 185.68 485.195 193.82 485.195 204.38C485.195 215.6 493.335 221.1 511.595 228.36C531.615 236.5 544.595 244.86 544.595 263.56C544.595 283.36 529.635 299.2 502.575 299.2ZM670.427 149.38H662.947V279.4C662.947 290.4 663.607 291.28 672.407 293.04L680.547 294.58V297H620.267V294.58L628.627 293.04C636.987 291.5 637.867 290.62 637.867 279.4V149.38H630.607C611.467 149.38 608.387 153.34 603.767 163.24C600.247 170.28 596.287 179.74 592.327 189.86H589.687L592.107 144.54H708.707L710.907 189.86H708.267C704.527 179.74 700.567 170.28 697.267 163.24C692.427 153.12 689.567 149.38 670.427 149.38ZM742.973 299.86C723.173 299.86 710.853 289.74 710.853 272.8C710.853 252.56 727.793 247.06 744.513 242.66L773.553 235.4V211.42C773.553 195.14 772.233 185.68 754.413 185.68C744.513 185.68 742.313 188.54 740.993 195.8C739.893 207.24 736.373 210.98 728.453 210.98C721.193 210.98 717.233 207.02 717.233 200.64C717.233 186.78 738.573 181.06 758.373 181.06C784.773 181.06 796.433 190.96 796.433 210.1V278.3C796.433 285.12 797.973 287.98 800.833 289.74C803.913 291.94 808.093 292.38 812.273 292.6V294.36C808.973 296.56 801.713 299.64 793.353 299.64C781.913 299.64 775.973 295.02 774.653 285.78H773.993C767.833 293.26 757.053 299.86 742.973 299.86ZM752.873 289.74C762.993 289.74 770.033 285.78 773.553 280.72V241.78L760.793 243.98C743.193 247.06 734.173 252.56 734.173 268.84C734.173 282.04 740.773 289.74 752.873 289.74ZM854.412 339.9C826.032 339.9 809.312 331.54 809.312 315.48C809.312 304.04 817.012 295.9 833.952 291.28V290.84C823.172 288.64 818.332 282.48 818.332 273.68C818.332 263.56 825.812 254.76 834.612 250.14V249.48C823.392 243.98 815.912 233.42 815.912 220C815.912 193.82 837.692 181.06 858.592 181.06C867.612 181.06 876.852 183.04 883.892 187.44C891.592 180.18 898.192 176.44 905.452 176.44C912.272 176.44 917.112 179.74 917.112 187C917.112 192.28 914.252 195.8 908.312 195.8C903.692 195.8 901.712 193.82 900.392 190.08C897.532 183.48 893.352 184.36 886.972 189.2V189.64C896.212 195.36 901.712 205.26 901.712 217.8C901.712 243.54 879.932 255.2 858.592 255.2C850.672 255.2 843.632 253.88 838.352 251.46C835.272 253.66 831.312 258.5 831.312 263.34C831.312 268.84 835.052 271.48 844.512 271.48H881.032C901.712 271.48 913.592 279.4 913.592 298.32C913.592 317.02 895.992 339.9 854.412 339.9ZM858.152 335.06C880.152 335.06 897.532 326.26 897.532 308.66C897.532 296.78 891.152 291.94 875.532 291.94H839.452C832.412 295.24 828.232 302.28 828.232 312.18C828.232 328.24 839.012 335.06 858.152 335.06ZM858.592 251.24C872.232 251.24 879.052 242.66 879.052 220.44C879.052 195.8 872.232 185.68 858.592 185.68C845.172 185.68 838.352 194.7 838.352 217.14C838.352 241.56 845.172 251.24 858.592 251.24ZM955.208 299.2C941.128 299.2 929.908 297 921.108 294.14L920.448 262.02H922.868C926.388 269.28 929.028 275 932.108 280.06C937.828 290.62 944.428 294.8 957.188 294.8C970.388 294.8 978.528 286.66 978.528 274.34C978.528 262.46 971.488 256.96 952.568 249.48C932.548 241.56 921.548 232.32 921.548 214.28C921.548 194.7 937.388 181.06 961.588 181.06C973.028 181.06 982.928 183.26 990.408 186.12L991.068 213.84H988.648C984.908 206.58 981.828 200.86 978.968 196.46C974.128 189.2 969.288 185.68 959.168 185.68C945.528 185.68 937.828 193.82 937.828 204.38C937.828 215.6 945.968 221.1 964.228 228.36C984.248 236.5 997.228 244.86 997.228 263.56C997.228 283.36 982.268 299.2 955.208 299.2Z" fill="#222222"/>
</svg>
