<svg width="670" height="342" viewBox="0 0 670 342" fill="none" xmlns="http://www.w3.org/2000/svg">
<path d="M34.4752 95.44C19.8352 95.44 3.87516 83.2 3.87516 53.68C3.87516 21.88 21.8752 9.39999 34.9552 9.39999C49.2352 9.39999 65.7952 22 65.7952 51.76C65.7952 82.72 48.5152 95.44 34.4752 95.44ZM34.7152 89.56C45.2752 89.56 48.3952 79.48 48.3952 53.68C48.3952 25.24 44.9152 15.28 34.7152 15.28C24.9952 15.28 21.2752 24.52 21.2752 51.64C21.2752 79.12 24.5152 89.56 34.7152 89.56ZM104.565 95.44C86.9245 95.44 73.0045 82.96 73.0045 57.64C73.0045 23.08 93.6445 9.39999 112.845 9.39999C124.725 9.39999 132.885 13.12 132.885 20.32C132.885 24.52 130.245 27.4 125.085 27.4C119.685 27.4 117.285 25 116.325 19.24C115.845 16.12 114.885 14.68 110.325 14.68C101.085 14.68 91.9645 23.2 90.8845 49.6C95.2045 46.24 100.965 43.48 109.125 43.48C123.285 43.48 133.485 52.48 133.485 68.44C133.485 84.76 121.965 95.44 104.565 95.44ZM104.685 89.56C114.285 89.56 116.445 83.92 116.445 69.88C116.445 56.32 112.605 50.68 103.725 50.68C98.3245 50.68 94.3645 52.12 90.7645 54.64V57.4C90.7645 77.2 91.7245 89.56 104.685 89.56ZM143.934 109.6L189.294 5.92H197.214L151.734 109.6H143.934Z" fill="#222222"/>
<path d="M2.67516 297V294.58L10.8152 293.04C18.5152 291.5 19.6152 290.62 19.6152 279.4V162.14C19.6152 150.92 18.7352 150.04 10.8152 148.5L2.67516 146.96V144.54H62.0752V146.96L53.9352 148.5C45.7952 149.82 44.9152 150.92 44.9152 162.14V277.2C44.9152 289.52 46.0152 292.16 68.0152 292.16C88.9152 292.16 93.3152 290.18 99.4752 279.4C103.875 271.48 108.275 260.92 112.455 249.04H115.315L112.235 297H2.67516ZM118.414 297V294.8L124.574 293.26C132.054 291.5 132.714 290.62 132.714 282.04V204.16C132.714 196.02 131.614 195.36 124.134 191.62L118.414 188.32V186.56L155.374 181.72L156.474 182.16C156.254 185.9 155.594 193.6 155.594 207.68V282.04C155.594 290.62 156.694 291.5 164.394 293.26L170.114 294.8V297H118.414ZM129.854 152.68C129.854 145.2 135.574 139.7 143.274 139.7C150.754 139.7 156.694 145.2 156.694 152.68C156.694 160.38 150.754 165.66 143.274 165.66C135.574 165.66 129.854 160.38 129.854 152.68ZM223.119 299.2C208.379 299.2 192.099 295.68 181.759 289.52V152.68C181.759 143.66 180.879 142.34 173.399 139.26L166.579 136.18V134.42L204.419 130.9L205.739 131.34C205.739 131.34 204.859 144.32 204.859 158.4V176C204.859 185.9 204.639 195.36 204.639 195.36H205.079C213.659 188.32 227.299 181.06 241.599 181.06C264.259 181.06 285.159 194.7 285.159 234.96C285.159 276.76 260.739 299.2 223.119 299.2ZM226.419 294.8C248.199 294.8 261.179 278.74 261.179 238.26C261.179 207.24 249.079 193.38 229.059 193.38C217.619 193.38 209.919 197.12 204.859 199.32V286.66C209.479 291.28 217.839 294.8 226.419 294.8ZM289.327 297V294.8L295.487 293.26C302.967 291.5 303.627 290.4 303.627 281.82V204.16C303.627 196.02 302.747 195.36 295.267 191.4L289.767 188.32V186.56L325.187 181.72L326.507 182.6L326.287 198.44H326.727C335.307 190.52 346.747 181.06 357.967 181.06C366.987 181.06 372.047 186.12 372.047 194.48C372.047 202.18 367.207 206.8 360.387 206.8C353.787 206.8 351.147 203.06 348.947 198.66C347.407 194.92 346.747 193.82 343.887 193.82C340.147 193.82 332.667 198.22 326.507 202.84V281.82C326.507 289.52 327.387 291.72 333.987 293.04L343.447 294.8V297H289.327ZM406.09 299.86C386.29 299.86 373.97 289.74 373.97 272.8C373.97 252.56 390.91 247.06 407.63 242.66L436.67 235.4V211.42C436.67 195.14 435.35 185.68 417.53 185.68C407.63 185.68 405.43 188.54 404.11 195.8C403.01 207.24 399.49 210.98 391.57 210.98C384.31 210.98 380.35 207.02 380.35 200.64C380.35 186.78 401.69 181.06 421.49 181.06C447.89 181.06 459.55 190.96 459.55 210.1V278.3C459.55 285.12 461.09 287.98 463.95 289.74C467.03 291.94 471.21 292.38 475.39 292.6V294.36C472.09 296.56 464.83 299.64 456.47 299.64C445.03 299.64 439.09 295.02 437.77 285.78H437.11C430.95 293.26 420.17 299.86 406.09 299.86ZM415.99 289.74C426.11 289.74 433.15 285.78 436.67 280.72V241.78L423.91 243.98C406.31 247.06 397.29 252.56 397.29 268.84C397.29 282.04 403.89 289.74 415.99 289.74ZM474.848 297V294.8L481.008 293.26C488.488 291.5 489.148 290.4 489.148 281.82V204.16C489.148 196.02 488.268 195.36 480.788 191.4L475.288 188.32V186.56L510.708 181.72L512.028 182.6L511.808 198.44H512.248C520.828 190.52 532.268 181.06 543.488 181.06C552.508 181.06 557.568 186.12 557.568 194.48C557.568 202.18 552.728 206.8 545.908 206.8C539.308 206.8 536.668 203.06 534.468 198.66C532.928 194.92 532.268 193.82 529.408 193.82C525.668 193.82 518.188 198.22 512.028 202.84V281.82C512.028 289.52 512.908 291.72 519.508 293.04L528.968 294.8V297H474.848ZM623.163 269.06L645.383 208.34C647.583 201.96 648.243 197.78 648.243 195.36C648.243 191.84 646.043 189.86 641.203 188.54L635.923 187V184.8H669.583V187L666.063 188.32C659.903 190.3 657.703 193.82 652.863 205.92L613.923 308.88C605.123 331.76 595.443 341.88 578.943 341.88C569.043 341.88 562.443 336.6 562.443 329.12C562.443 322.52 566.623 318.34 573.443 318.34C579.163 318.34 582.903 321.64 584.003 327.8C584.883 331.54 585.103 333.74 588.183 333.74C593.243 333.74 601.163 327.14 606.883 311.74L611.283 299.2L573.443 203.5C569.263 192.5 566.843 189.86 562.003 188.54L557.823 187V184.8H608.863V187L603.143 188.54C598.303 189.86 596.763 192.06 596.763 195.58C596.763 199.1 598.083 202.84 599.623 207.02L622.283 269.06H623.163Z" fill="#222222"/>
</svg>
