<svg width="1093" height="340" viewBox="0 0 1093 340" fill="none" xmlns="http://www.w3.org/2000/svg">
<path d="M37.4752 95.44C22.8352 95.44 6.87516 83.2 6.87516 53.68C6.87516 21.88 24.8752 9.39999 37.9552 9.39999C52.2352 9.39999 68.7952 22 68.7952 51.76C68.7952 82.72 51.5152 95.44 37.4752 95.44ZM37.7152 89.56C48.2752 89.56 51.3952 79.48 51.3952 53.68C51.3952 25.24 47.9152 15.28 37.7152 15.28C27.9952 15.28 24.2752 24.52 24.2752 51.64C24.2752 79.12 27.5152 89.56 37.7152 89.56ZM98.5645 94V89.68L103.605 88.72C106.965 88 108.045 87.4 108.045 80.8V70.84H75.4045V64.48L114.765 10.84H124.245V62.56H136.125L134.805 70.84H124.245V80.8C124.245 87.4 124.845 88 128.805 88.72L133.845 89.68V94H98.5645ZM84.5245 62.56H108.045V30.04H107.685L84.5245 62.2V62.56ZM174.534 95.44C167.934 95.44 162.534 90.16 162.534 83.8C162.534 77.08 167.934 71.8 174.534 71.8C181.254 71.8 186.654 77.08 186.654 83.8C186.654 90.16 181.254 95.44 174.534 95.44Z" fill="#222222"/>
<path d="M0.835156 297V294.58L4.57516 293.48C12.2752 291.28 13.5952 288.64 20.8552 268.4L65.9552 144.54H77.8352L121.615 271.04C127.555 287.98 130.195 291.94 136.575 293.48L141.195 294.58V297H82.8952V294.58L87.9552 293.48C95.2152 291.72 96.7552 288.86 96.7552 284.46C96.7552 281.16 95.2152 275.44 93.8952 271.7L84.2152 241.78H37.1352L28.5552 266.86C25.6952 275.22 24.8152 280.06 24.8152 283.58C24.8152 288.86 27.2352 291.5 34.0552 293.26L39.9952 294.58V297H0.835156ZM61.1152 173.14L39.1152 236.5H82.4552L61.7752 173.14H61.1152ZM183.344 299.2C159.584 299.2 138.244 286 138.244 245.52C138.244 201.74 168.604 181.06 198.964 181.06C209.084 181.06 214.364 182.82 218.324 184.14V152.68C218.324 144.1 217.224 143 211.724 140.36L202.924 136.18V134.42L240.984 130.9L242.304 131.34C242.304 131.34 241.424 141.68 241.424 158.4V278.08C241.424 286.66 242.304 287.98 250.004 290.62L255.944 292.6V294.58L220.084 299.2L218.324 298.32L218.764 286H218.104C208.204 293.92 197.204 299.2 183.344 299.2ZM195.224 287.98C205.784 287.98 213.924 284.46 218.324 281.38V195.58C214.364 189.86 207.104 185.9 197.424 185.9C175.864 185.9 162.004 202.4 162.004 239.8C162.004 272.58 174.324 287.98 195.224 287.98ZM302.295 297L265.775 203.5C261.815 192.72 259.615 190.08 254.335 188.54L249.935 187V184.8H301.415V187L295.915 188.32C290.635 189.86 289.315 192.06 289.315 195.58C289.315 199.32 290.635 202.84 291.955 207.02L315.495 271.04H316.155L338.815 208.56C341.235 202.18 342.115 198.44 342.115 195.36C342.115 191.84 339.695 190.08 334.855 188.54L329.355 187V184.8H363.235V187L359.935 188.1C352.675 190.52 351.135 193.16 346.295 205.7L312.195 297H302.295ZM360.217 297V294.8L366.377 293.26C373.857 291.5 374.517 290.62 374.517 282.04V204.16C374.517 196.02 373.417 195.36 365.937 191.62L360.217 188.32V186.56L397.177 181.72L398.277 182.16C398.057 185.9 397.397 193.6 397.397 207.68V282.04C397.397 290.62 398.497 291.5 406.197 293.26L411.917 294.8V297H360.217ZM371.657 152.68C371.657 145.2 377.377 139.7 385.077 139.7C392.557 139.7 398.497 145.2 398.497 152.68C398.497 160.38 392.557 165.66 385.077 165.66C377.377 165.66 371.657 160.38 371.657 152.68ZM452.99 299.2C438.91 299.2 427.69 297 418.89 294.14L418.23 262.02H420.65C424.17 269.28 426.81 275 429.89 280.06C435.61 290.62 442.21 294.8 454.97 294.8C468.17 294.8 476.31 286.66 476.31 274.34C476.31 262.46 469.27 256.96 450.35 249.48C430.33 241.56 419.33 232.32 419.33 214.28C419.33 194.7 435.17 181.06 459.37 181.06C470.81 181.06 480.71 183.26 488.19 186.12L488.85 213.84H486.43C482.69 206.58 479.61 200.86 476.75 196.46C471.91 189.2 467.07 185.68 456.95 185.68C443.31 185.68 435.61 193.82 435.61 204.38C435.61 215.6 443.75 221.1 462.01 228.36C482.03 236.5 495.01 244.86 495.01 263.56C495.01 283.36 480.05 299.2 452.99 299.2ZM556.548 299.2C525.748 299.2 501.328 279.84 501.328 240.68C501.328 201.74 528.388 181.06 556.548 181.06C587.128 181.06 611.768 200.2 611.768 239.58C611.768 278.3 584.708 299.2 556.548 299.2ZM557.428 294.8C577.668 294.8 587.128 278.52 587.128 242.44C587.128 201.74 576.568 185.68 556.108 185.68C536.528 185.68 525.968 201.08 525.968 238.26C525.968 278.74 536.308 294.8 557.428 294.8ZM615.512 297V294.8L621.672 293.26C629.152 291.5 629.812 290.4 629.812 281.82V204.16C629.812 196.02 628.932 195.36 621.452 191.4L615.952 188.32V186.56L651.372 181.72L652.692 182.6L652.472 198.44H652.912C661.492 190.52 672.932 181.06 684.152 181.06C693.172 181.06 698.232 186.12 698.232 194.48C698.232 202.18 693.392 206.8 686.572 206.8C679.972 206.8 677.332 203.06 675.132 198.66C673.592 194.92 672.932 193.82 670.072 193.82C666.332 193.82 658.852 198.22 652.692 202.84V281.82C652.692 289.52 653.572 291.72 660.172 293.04L669.632 294.8V297H615.512ZM737.503 299.2C723.423 299.2 712.203 297 703.403 294.14L702.743 262.02H705.163C708.683 269.28 711.323 275 714.403 280.06C720.123 290.62 726.723 294.8 739.483 294.8C752.683 294.8 760.823 286.66 760.823 274.34C760.823 262.46 753.783 256.96 734.863 249.48C714.843 241.56 703.843 232.32 703.843 214.28C703.843 194.7 719.683 181.06 743.883 181.06C755.323 181.06 765.223 183.26 772.703 186.12L773.363 213.84H770.943C767.203 206.58 764.123 200.86 761.263 196.46C756.423 189.2 751.583 185.68 741.463 185.68C727.823 185.68 720.123 193.82 720.123 204.38C720.123 215.6 728.263 221.1 746.523 228.36C766.543 236.5 779.523 244.86 779.523 263.56C779.523 283.36 764.563 299.2 737.503 299.2ZM780.316 333.74V328.02H860.616V333.74H780.316ZM923.235 299.2C892.875 299.2 862.735 278.08 862.735 223.3C862.735 165 894.855 142.34 924.555 142.34C954.475 142.34 984.615 163.68 984.615 219.12C984.615 276.54 953.155 299.2 923.235 299.2ZM924.115 294.36C946.995 294.36 958.655 272.14 958.655 223.3C958.655 171.38 947.215 147.18 924.115 147.18C901.235 147.18 888.915 169.18 888.915 219.12C888.915 270.16 901.015 294.36 924.115 294.36ZM985.455 297V283.58C1005.92 267.74 1017.36 257.62 1028.36 246.62C1048.16 226.82 1057.84 207.9 1057.84 180.4C1057.84 157.08 1046.4 147.18 1031 147.18C1019.78 147.18 1018.02 150.26 1016.92 159.5C1015.6 171.82 1011.64 175.34 1003.06 175.34C996.015 175.34 991.835 170.94 991.835 164.56C991.835 152.24 1006.8 142.34 1033.2 142.34C1065.76 142.34 1084.02 158.62 1084.02 184.58C1084.02 217.8 1051.9 243.54 1000.86 276.54V277.42H1060.92C1073.24 277.42 1075 276.54 1082.48 258.72H1084.9L1081.6 297H985.455Z" fill="#222222"/>
</svg>
