<svg width="671" height="342" viewBox="0 0 671 342" fill="none" xmlns="http://www.w3.org/2000/svg">
<path d="M34.4752 95.44C19.8352 95.44 3.87516 83.2 3.87516 53.68C3.87516 21.88 21.8752 9.39999 34.9552 9.39999C49.2352 9.39999 65.7952 22 65.7952 51.76C65.7952 82.72 48.5152 95.44 34.4752 95.44ZM34.7152 89.56C45.2752 89.56 48.3952 79.48 48.3952 53.68C48.3952 25.24 44.9152 15.28 34.7152 15.28C24.9952 15.28 21.2752 24.52 21.2752 51.64C21.2752 79.12 24.5152 89.56 34.7152 89.56ZM97.9645 95.44C83.8045 95.44 74.6845 90.28 74.6845 82.36C74.6845 78.64 77.3245 74.92 82.4845 74.92C87.6445 74.92 90.5245 76.6 91.4845 84.04C92.2045 88.96 93.0445 90.16 98.8045 90.16C110.565 90.16 116.205 83.56 116.205 72.04C116.205 58.96 107.445 54.04 95.3245 54.04C89.0845 54.04 84.1645 55 81.2845 56.08L80.2045 55.24L85.1245 10.84H118.125C121.485 10.84 122.205 9.99999 125.205 4.47999H129.285L127.005 23.68H90.5245L88.2445 41.8C90.8845 41.08 93.8845 40.24 100.605 40.24C117.645 40.24 131.085 48.76 131.085 66.76C131.085 83.68 117.045 95.44 97.9645 95.44ZM143.934 109.6L189.294 5.92H197.214L151.734 109.6H143.934Z" fill="#222222"/>
<path d="M2.67516 297V294.58L10.8152 293.04C18.7352 291.5 19.6152 290.62 19.6152 279.4V162.14C19.6152 150.92 18.7352 150.04 10.8152 148.5L2.67516 146.96V144.54H61.6352V146.96L53.9352 148.5C45.5752 150.26 44.9152 150.92 44.9152 162.14V216.48H110.915V162.14C110.915 150.92 110.035 150.26 101.895 148.5L93.9752 146.96V144.54H153.155V146.96L144.795 148.5C137.095 150.04 136.215 150.92 136.215 162.14V279.4C136.215 290.62 137.095 291.5 144.795 293.04L153.155 294.58V297H93.9752V294.58L101.895 293.04C110.035 291.28 110.915 290.62 110.915 279.4V221.76H44.9152V279.4C44.9152 290.62 45.5752 291.28 53.9352 293.04L61.6352 294.58V297H2.67516ZM155.582 297V294.8L161.742 293.26C169.222 291.5 169.882 290.62 169.882 282.04V204.16C169.882 196.02 168.782 195.36 161.302 191.62L155.582 188.32V186.56L192.542 181.72L193.642 182.16C193.422 185.9 192.762 193.6 192.762 207.68V282.04C192.762 290.62 193.862 291.5 201.562 293.26L207.282 294.8V297H155.582ZM167.022 152.68C167.022 145.2 172.742 139.7 180.442 139.7C187.922 139.7 193.862 145.2 193.862 152.68C193.862 160.38 187.922 165.66 180.442 165.66C172.742 165.66 167.022 160.38 167.022 152.68ZM248.355 299.2C234.275 299.2 223.055 297 214.255 294.14L213.595 262.02H216.015C219.535 269.28 222.175 275 225.255 280.06C230.975 290.62 237.575 294.8 250.335 294.8C263.535 294.8 271.675 286.66 271.675 274.34C271.675 262.46 264.635 256.96 245.715 249.48C225.695 241.56 214.695 232.32 214.695 214.28C214.695 194.7 230.535 181.06 254.735 181.06C266.175 181.06 276.075 183.26 283.555 186.12L284.215 213.84H281.795C278.055 206.58 274.975 200.86 272.115 196.46C267.275 189.2 262.435 185.68 252.315 185.68C238.675 185.68 230.975 193.82 230.975 204.38C230.975 215.6 239.115 221.1 257.375 228.36C277.395 236.5 290.375 244.86 290.375 263.56C290.375 283.36 275.415 299.2 248.355 299.2ZM332.087 299.2C316.247 299.2 306.567 291.72 306.567 275.22V192.5H293.807V190.52C308.767 184.8 319.767 173.36 325.927 158.4H329.447V184.8H358.927L358.047 192.5H329.447V274.34C329.447 285.12 334.067 288.86 344.187 288.86C350.787 288.86 356.287 287.1 360.467 285.78V288.2C355.407 292.82 345.287 299.2 332.087 299.2ZM417.174 299.2C386.374 299.2 361.954 279.84 361.954 240.68C361.954 201.74 389.014 181.06 417.174 181.06C447.754 181.06 472.394 200.2 472.394 239.58C472.394 278.3 445.334 299.2 417.174 299.2ZM418.054 294.8C438.294 294.8 447.754 278.52 447.754 242.44C447.754 201.74 437.194 185.68 416.734 185.68C397.154 185.68 386.594 201.08 386.594 238.26C386.594 278.74 396.934 294.8 418.054 294.8ZM476.138 297V294.8L482.298 293.26C489.778 291.5 490.438 290.4 490.438 281.82V204.16C490.438 196.02 489.558 195.36 482.078 191.4L476.578 188.32V186.56L511.998 181.72L513.318 182.6L513.098 198.44H513.538C522.118 190.52 533.558 181.06 544.778 181.06C553.798 181.06 558.858 186.12 558.858 194.48C558.858 202.18 554.018 206.8 547.198 206.8C540.598 206.8 537.958 203.06 535.758 198.66C534.218 194.92 533.558 193.82 530.698 193.82C526.958 193.82 519.478 198.22 513.318 202.84V281.82C513.318 289.52 514.198 291.72 520.798 293.04L530.258 294.8V297H476.138ZM624.452 269.06L646.672 208.34C648.872 201.96 649.532 197.78 649.532 195.36C649.532 191.84 647.332 189.86 642.492 188.54L637.212 187V184.8H670.872V187L667.352 188.32C661.192 190.3 658.992 193.82 654.152 205.92L615.212 308.88C606.412 331.76 596.732 341.88 580.232 341.88C570.332 341.88 563.732 336.6 563.732 329.12C563.732 322.52 567.912 318.34 574.732 318.34C580.452 318.34 584.192 321.64 585.292 327.8C586.172 331.54 586.392 333.74 589.472 333.74C594.532 333.74 602.452 327.14 608.172 311.74L612.572 299.2L574.732 203.5C570.552 192.5 568.132 189.86 563.292 188.54L559.112 187V184.8H610.152V187L604.432 188.54C599.592 189.86 598.052 192.06 598.052 195.58C598.052 199.1 599.372 202.84 600.912 207.02L623.572 269.06H624.452Z" fill="#222222"/>
</svg>
