<svg width="501" height="340" viewBox="0 0 501 340" fill="none" xmlns="http://www.w3.org/2000/svg">
<path d="M34.4752 95.44C19.8352 95.44 3.87516 83.2 3.87516 53.68C3.87516 21.88 21.8752 9.39999 34.9552 9.39999C49.2352 9.39999 65.7952 22 65.7952 51.76C65.7952 82.72 48.5152 95.44 34.4752 95.44ZM34.7152 89.56C45.2752 89.56 48.3952 79.48 48.3952 53.68C48.3952 25.24 44.9152 15.28 34.7152 15.28C24.9952 15.28 21.2752 24.52 21.2752 51.64C21.2752 79.12 24.5152 89.56 34.7152 89.56ZM102.885 95.44C88.2445 95.44 72.2845 83.2 72.2845 53.68C72.2845 21.88 90.2845 9.39999 103.365 9.39999C117.645 9.39999 134.205 22 134.205 51.76C134.205 82.72 116.925 95.44 102.885 95.44ZM103.125 89.56C113.685 89.56 116.805 79.48 116.805 53.68C116.805 25.24 113.325 15.28 103.125 15.28C93.4045 15.28 89.6845 24.52 89.6845 51.64C89.6845 79.12 92.9245 89.56 103.125 89.56ZM143.934 109.6L189.294 5.92H197.214L151.734 109.6H143.934Z" fill="#222222"/>
<path d="M2.67516 297V294.58L10.8152 293.04C18.7352 291.5 19.6152 290.84 19.6152 279.4V162.14C19.6152 150.92 18.7352 150.04 10.8152 148.5L2.67516 146.96V144.54H65.3752C101.895 144.54 119.935 159.06 119.935 187C119.935 214.06 102.555 233.42 65.1552 233.42C58.9952 233.42 53.7152 232.76 51.2952 232.1V229.24C81.6552 230.12 93.7552 219.12 93.7552 188.98C93.7552 160.16 85.1752 149.38 62.9552 149.38C56.5752 149.38 49.9752 150.04 44.9152 151.14V279.4C44.9152 290.18 45.7952 291.5 54.3752 293.04L64.4952 294.58V297H2.67516ZM176.473 299.64C138.633 299.64 121.693 277.2 121.693 241.56C121.693 205.26 146.113 181.06 175.153 181.06C203.093 181.06 220.033 196.68 219.813 233.2H145.453V234.96C145.453 272.36 159.753 287.32 184.613 287.32C197.813 287.32 208.593 284.24 216.953 279.4V282.26C209.033 291.06 194.733 299.64 176.473 299.64ZM174.273 185.68C158.213 185.68 146.773 198.66 145.453 229.02L196.273 227.04C196.273 198.22 190.333 185.68 174.273 185.68ZM282.555 299.64C244.715 299.64 227.775 277.2 227.775 241.56C227.775 205.26 252.195 181.06 281.235 181.06C309.175 181.06 326.115 196.68 325.895 233.2H251.535V234.96C251.535 272.36 265.835 287.32 290.695 287.32C303.895 287.32 314.675 284.24 323.035 279.4V282.26C315.115 291.06 300.815 299.64 282.555 299.64ZM280.355 185.68C264.295 185.68 252.855 198.66 251.535 229.02L302.355 227.04C302.355 198.22 296.415 185.68 280.355 185.68ZM330.362 297V294.8L336.522 293.26C344.002 291.5 344.662 290.4 344.662 281.82V204.16C344.662 196.02 343.782 195.36 336.302 191.4L330.802 188.32V186.56L366.222 181.72L367.542 182.6L367.322 198.44H367.762C376.342 190.52 387.782 181.06 399.002 181.06C408.022 181.06 413.082 186.12 413.082 194.48C413.082 202.18 408.242 206.8 401.422 206.8C394.822 206.8 392.182 203.06 389.982 198.66C388.442 194.92 387.782 193.82 384.922 193.82C381.182 193.82 373.702 198.22 367.542 202.84V281.82C367.542 289.52 368.422 291.72 375.022 293.04L384.482 294.8V297H330.362ZM452.353 299.2C438.273 299.2 427.053 297 418.253 294.14L417.593 262.02H420.013C423.533 269.28 426.173 275 429.253 280.06C434.973 290.62 441.573 294.8 454.333 294.8C467.533 294.8 475.673 286.66 475.673 274.34C475.673 262.46 468.633 256.96 449.713 249.48C429.693 241.56 418.693 232.32 418.693 214.28C418.693 194.7 434.533 181.06 458.733 181.06C470.173 181.06 480.073 183.26 487.553 186.12L488.213 213.84H485.793C482.053 206.58 478.973 200.86 476.113 196.46C471.273 189.2 466.433 185.68 456.313 185.68C442.673 185.68 434.973 193.82 434.973 204.38C434.973 215.6 443.113 221.1 461.373 228.36C481.393 236.5 494.373 244.86 494.373 263.56C494.373 283.36 479.413 299.2 452.353 299.2Z" fill="#222222"/>
</svg>
