<svg width="1150" height="342" viewBox="0 0 1150 342" fill="none" xmlns="http://www.w3.org/2000/svg">
<path d="M34.4752 95.44C19.8352 95.44 3.87516 83.2 3.87516 53.68C3.87516 21.88 21.8752 9.39999 34.9552 9.39999C49.2352 9.39999 65.7952 22 65.7952 51.76C65.7952 82.72 48.5152 95.44 34.4752 95.44ZM34.7152 89.56C45.2752 89.56 48.3952 79.48 48.3952 53.68C48.3952 25.24 44.9152 15.28 34.7152 15.28C24.9952 15.28 21.2752 24.52 21.2752 51.64C21.2752 79.12 24.5152 89.56 34.7152 89.56ZM97.0045 95.44C81.1645 95.44 72.4045 90.52 72.4045 82.24C72.4045 78.16 75.0445 74.68 80.0845 74.68C84.8845 74.68 87.6445 76.36 88.8445 82.6C90.4045 88.72 90.4045 90.16 97.2445 90.16C108.165 90.16 112.005 82 112.005 70.6C112.005 58.72 107.445 53.8 95.6845 53.8H89.4445V47.68H94.6045C105.645 47.68 110.085 42.76 110.085 30.76C110.085 19.84 105.645 14.68 97.8445 14.68C93.5245 14.68 92.0845 15.4 91.7245 19.96C90.8845 27.04 88.7245 29.44 83.0845 29.44C77.8045 29.44 75.5245 26.08 75.5245 22.24C75.5245 13.96 86.8045 9.39999 99.8845 9.39999C117.285 9.39999 127.245 17.56 127.245 29.32C127.245 38.44 121.005 46.6 105.765 49.72V50.2C120.765 51.52 130.245 58.36 130.245 71.08C130.245 84.04 119.565 95.44 97.0045 95.44ZM143.934 109.6L189.294 5.92H197.214L151.734 109.6H143.934Z" fill="#222222"/>
<path d="M2.67516 297V294.58L11.0352 293.04C18.9552 291.5 19.8352 290.62 19.8352 279.4V162.14C19.8352 150.92 18.9552 150.04 11.0352 148.5L2.67516 146.96V144.54H62.0752V146.96L53.9352 148.5C45.7952 150.04 44.9152 150.92 44.9152 162.14V279.4C44.9152 290.62 45.7952 291.5 53.9352 293.04L62.0752 294.58V297H2.67516ZM117.723 299.64C86.7031 299.64 67.3431 279.18 67.3431 244.2C67.3431 200.42 100.123 181.06 125.643 181.06C146.763 181.06 157.983 188.76 157.983 200.64C157.983 207.68 154.023 211.86 145.883 211.86C137.963 211.86 135.323 207.9 133.783 198.44C132.023 189.42 131.143 186.34 121.903 186.34C105.843 186.34 91.1031 202.4 91.1031 236.06C91.1031 270.16 103.643 287.76 128.943 287.76C138.843 287.76 148.963 285.12 157.323 280.28V282.92C151.163 290.62 136.203 299.64 117.723 299.64ZM219.621 299.2C188.821 299.2 164.401 279.84 164.401 240.68C164.401 201.74 191.461 181.06 219.621 181.06C250.201 181.06 274.841 200.2 274.841 239.58C274.841 278.3 247.781 299.2 219.621 299.2ZM220.501 294.8C240.741 294.8 250.201 278.52 250.201 242.44C250.201 201.74 239.641 185.68 219.181 185.68C199.601 185.68 189.041 201.08 189.041 238.26C189.041 278.74 199.381 294.8 220.501 294.8ZM278.584 297V294.8L284.744 293.26C292.224 291.5 292.884 290.62 292.884 282.04V203.94C292.884 195.58 291.564 195.14 284.524 191.4L279.024 188.32V186.56L314.444 181.72L315.764 182.16L315.544 196.02H315.764C326.544 188.98 342.384 181.06 356.684 181.06C377.584 181.06 385.724 190.74 385.724 210.54V282.04C385.724 290.62 386.384 291.5 393.864 293.26L400.024 294.8V297H348.544V294.8L354.704 293.48C361.744 291.72 362.624 291.06 362.624 282.04V214.5C362.624 199.1 358.224 193.82 345.464 193.82C332.044 193.82 322.144 197.56 315.764 199.76V282.04C315.764 291.06 316.864 291.72 323.904 293.48L330.284 294.8V297H278.584ZM457.565 299.2C426.765 299.2 402.345 279.84 402.345 240.68C402.345 201.74 429.405 181.06 457.565 181.06C488.145 181.06 512.785 200.2 512.785 239.58C512.785 278.3 485.725 299.2 457.565 299.2ZM458.445 294.8C478.685 294.8 488.145 278.52 488.145 242.44C488.145 201.74 477.585 185.68 457.125 185.68C437.545 185.68 426.985 201.08 426.985 238.26C426.985 278.74 437.325 294.8 458.445 294.8ZM560.282 339.9C531.902 339.9 515.182 331.54 515.182 315.48C515.182 304.04 522.882 295.9 539.822 291.28V290.84C529.042 288.64 524.202 282.48 524.202 273.68C524.202 263.56 531.682 254.76 540.482 250.14V249.48C529.262 243.98 521.782 233.42 521.782 220C521.782 193.82 543.562 181.06 564.462 181.06C573.482 181.06 582.722 183.04 589.762 187.44C597.462 180.18 604.062 176.44 611.322 176.44C618.142 176.44 622.982 179.74 622.982 187C622.982 192.28 620.122 195.8 614.182 195.8C609.562 195.8 607.582 193.82 606.262 190.08C603.402 183.48 599.222 184.36 592.842 189.2V189.64C602.082 195.36 607.582 205.26 607.582 217.8C607.582 243.54 585.802 255.2 564.462 255.2C556.542 255.2 549.502 253.88 544.222 251.46C541.142 253.66 537.182 258.5 537.182 263.34C537.182 268.84 540.922 271.48 550.382 271.48H586.902C607.582 271.48 619.462 279.4 619.462 298.32C619.462 317.02 601.862 339.9 560.282 339.9ZM564.022 335.06C586.022 335.06 603.402 326.26 603.402 308.66C603.402 296.78 597.022 291.94 581.402 291.94H545.322C538.282 295.24 534.102 302.28 534.102 312.18C534.102 328.24 544.882 335.06 564.022 335.06ZM564.462 251.24C578.102 251.24 584.922 242.66 584.922 220.44C584.922 195.8 578.102 185.68 564.462 185.68C551.042 185.68 544.222 194.7 544.222 217.14C544.222 241.56 551.042 251.24 564.462 251.24ZM621.75 297V294.8L627.91 293.26C635.39 291.5 636.05 290.4 636.05 281.82V204.16C636.05 196.02 635.17 195.36 627.69 191.4L622.19 188.32V186.56L657.61 181.72L658.93 182.6L658.71 198.44H659.15C667.73 190.52 679.17 181.06 690.39 181.06C699.41 181.06 704.47 186.12 704.47 194.48C704.47 202.18 699.63 206.8 692.81 206.8C686.21 206.8 683.57 203.06 681.37 198.66C679.83 194.92 679.17 193.82 676.31 193.82C672.57 193.82 665.09 198.22 658.93 202.84V281.82C658.93 289.52 659.81 291.72 666.41 293.04L675.87 294.8V297H621.75ZM738.513 299.86C718.713 299.86 706.393 289.74 706.393 272.8C706.393 252.56 723.333 247.06 740.053 242.66L769.093 235.4V211.42C769.093 195.14 767.773 185.68 749.953 185.68C740.053 185.68 737.853 188.54 736.533 195.8C735.433 207.24 731.913 210.98 723.993 210.98C716.733 210.98 712.773 207.02 712.773 200.64C712.773 186.78 734.113 181.06 753.913 181.06C780.313 181.06 791.973 190.96 791.973 210.1V278.3C791.973 285.12 793.513 287.98 796.373 289.74C799.453 291.94 803.633 292.38 807.813 292.6V294.36C804.513 296.56 797.253 299.64 788.893 299.64C777.453 299.64 771.513 295.02 770.193 285.78H769.533C763.373 293.26 752.593 299.86 738.513 299.86ZM748.413 289.74C758.533 289.74 765.573 285.78 769.093 280.72V241.78L756.333 243.98C738.733 247.06 729.713 252.56 729.713 268.84C729.713 282.04 736.313 289.74 748.413 289.74ZM805.538 340.34V338.14L811.698 336.6C819.178 334.62 819.838 333.52 819.838 325.16V204.38C819.838 196.02 818.738 195.14 811.478 191.4L805.978 188.32V186.56L841.398 181.72L842.938 182.16L842.278 194.92H843.158C852.178 188.1 864.278 181.06 879.458 181.06C905.858 181.06 923.238 198.44 923.238 234.96C923.238 276.76 898.378 299.2 861.198 299.2C855.038 299.2 848.658 298.32 842.498 296.56C842.498 296.56 842.718 303.38 842.718 310.86V325.16C842.718 333.96 843.818 334.84 851.738 336.6L860.098 338.14V340.34H805.538ZM864.498 294.8C886.498 294.8 899.258 278.74 899.258 238.48C899.258 207.46 886.938 193.38 867.798 193.38C855.478 193.38 847.998 196.9 842.718 199.32V286.88C847.998 291.94 855.918 294.8 864.498 294.8ZM1003.26 181.06C1023.94 181.06 1032.08 190.74 1032.08 210.54V282.04C1032.08 290.62 1032.74 291.28 1040.22 293.26L1046.6 294.8V297H994.904V294.8L1001.06 293.48C1008.1 291.5 1009.2 291.06 1009.2 282.04V214.06C1009.2 198.88 1004.36 193.6 991.824 193.6C978.624 193.6 968.944 197.34 962.344 199.76V282.04C962.344 291.06 963.444 291.5 970.484 293.48L976.644 294.8V297H925.164V294.8L931.324 293.26C938.804 291.28 939.244 290.62 939.244 282.04V152.68C939.244 143.66 938.584 142.56 930.884 139.26L924.064 136.18V134.42L961.904 130.9L963.224 131.34C963.224 131.34 962.344 143.66 962.344 158.4V195.58H962.784C973.564 188.32 989.184 181.06 1003.26 181.06ZM1103.35 269.06L1125.57 208.34C1127.77 201.96 1128.43 197.78 1128.43 195.36C1128.43 191.84 1126.23 189.86 1121.39 188.54L1116.11 187V184.8H1149.77V187L1146.25 188.32C1140.09 190.3 1137.89 193.82 1133.05 205.92L1094.11 308.88C1085.31 331.76 1075.63 341.88 1059.13 341.88C1049.23 341.88 1042.63 336.6 1042.63 329.12C1042.63 322.52 1046.81 318.34 1053.63 318.34C1059.35 318.34 1063.09 321.64 1064.19 327.8C1065.07 331.54 1065.29 333.74 1068.37 333.74C1073.43 333.74 1081.35 327.14 1087.07 311.74L1091.47 299.2L1053.63 203.5C1049.45 192.5 1047.03 189.86 1042.19 188.54L1038.01 187V184.8H1089.05V187L1083.33 188.54C1078.49 189.86 1076.95 192.06 1076.95 195.58C1076.95 199.1 1078.27 202.84 1079.81 207.02L1102.47 269.06H1103.35Z" fill="#222222"/>
</svg>
