<svg width="903" height="340" viewBox="0 0 903 340" fill="none" xmlns="http://www.w3.org/2000/svg">
<path d="M34.4752 95.44C19.8352 95.44 3.87516 83.2 3.87516 53.68C3.87516 21.88 21.8752 9.39999 34.9552 9.39999C49.2352 9.39999 65.7952 22 65.7952 51.76C65.7952 82.72 48.5152 95.44 34.4752 95.44ZM34.7152 89.56C45.2752 89.56 48.3952 79.48 48.3952 53.68C48.3952 25.24 44.9152 15.28 34.7152 15.28C24.9952 15.28 21.2752 24.52 21.2752 51.64C21.2752 79.12 24.5152 89.56 34.7152 89.56ZM95.5645 94V89.68L100.605 88.72C103.965 88 105.045 87.4 105.045 80.8V70.84H72.4045V64.48L111.765 10.84H121.245V62.56H133.125L131.805 70.84H121.245V80.8C121.245 87.4 121.845 88 125.805 88.72L130.845 89.68V94H95.5645ZM81.5245 62.56H105.045V30.04H104.685L81.5245 62.2V62.56ZM143.934 109.6L189.294 5.92H197.214L151.734 109.6H143.934Z" fill="#222222"/>
<path d="M2.67516 297V294.58L10.8152 293.04C18.5152 291.28 19.6152 290.84 19.6152 279.4V162.14C19.6152 150.7 18.5152 150.26 10.8152 148.5L2.67516 146.96V144.54H67.3552C101.675 144.54 117.515 156.64 117.515 181.06C117.515 201.52 105.855 213.4 85.1752 220V220.44C95.7352 240.24 112.895 270.6 123.675 284.46C129.175 291.72 131.375 292.82 135.335 293.7L139.295 294.58V297H102.335C88.9152 277.86 73.5152 250.36 61.1952 225.28C56.7952 225.28 50.6352 225.06 44.9152 224.84V279.4C44.9152 290.62 45.5752 291.28 53.7152 293.04L61.6352 294.58V297H2.67516ZM58.7752 220.22C80.3352 220.22 91.7752 209.88 91.7752 184.58C91.7752 158.4 81.4352 149.6 63.6152 149.6C55.6952 149.6 50.1952 150.26 44.9152 151.36V219.12C47.7752 219.56 52.1752 220.22 58.7752 220.22ZM186.571 299.64C148.731 299.64 131.791 277.2 131.791 241.56C131.791 205.26 156.211 181.06 185.251 181.06C213.191 181.06 230.131 196.68 229.911 233.2H155.551V234.96C155.551 272.36 169.851 287.32 194.711 287.32C207.911 287.32 218.691 284.24 227.051 279.4V282.26C219.131 291.06 204.831 299.64 186.571 299.64ZM184.371 185.68C168.311 185.68 156.871 198.66 155.551 229.02L206.371 227.04C206.371 198.22 200.431 185.68 184.371 185.68ZM288.472 299.64C257.452 299.64 238.092 279.18 238.092 244.2C238.092 200.42 270.872 181.06 296.392 181.06C317.512 181.06 328.732 188.76 328.732 200.64C328.732 207.68 324.772 211.86 316.632 211.86C308.712 211.86 306.072 207.9 304.532 198.44C302.772 189.42 301.892 186.34 292.652 186.34C276.592 186.34 261.852 202.4 261.852 236.06C261.852 270.16 274.392 287.76 299.692 287.76C309.592 287.76 319.712 285.12 328.072 280.28V282.92C321.912 290.62 306.952 299.64 288.472 299.64ZM414.79 280.28V205.04C414.79 196.24 414.35 195.58 406.87 191.62L401.15 188.32V186.56L436.57 181.72L437.67 182.38V276.32C437.67 286.22 438.99 287.54 446.03 290.18L451.97 292.38V294.36L416.33 299.2L415.01 298.76V284.46H414.35C403.57 291.72 389.93 299.2 373.65 299.2C355.83 299.2 345.05 289.3 345.05 270.6V204.82C345.05 196.02 344.17 195.58 337.13 191.62L331.41 188.32V186.56L366.61 181.72L367.93 182.38V266.2C367.93 280.06 374.97 286.66 386.85 286.66C397.41 286.66 407.53 283.36 414.79 280.28ZM453.63 297V294.8L459.79 293.26C467.27 291.5 467.93 290.4 467.93 281.82V204.16C467.93 196.02 467.05 195.36 459.57 191.4L454.07 188.32V186.56L489.49 181.72L490.81 182.6L490.59 198.44H491.03C499.61 190.52 511.05 181.06 522.27 181.06C531.29 181.06 536.35 186.12 536.35 194.48C536.35 202.18 531.51 206.8 524.69 206.8C518.09 206.8 515.45 203.06 513.25 198.66C511.71 194.92 511.05 193.82 508.19 193.82C504.45 193.82 496.97 198.22 490.81 202.84V281.82C490.81 289.52 491.69 291.72 498.29 293.04L507.75 294.8V297H453.63ZM537.368 297V294.8L543.528 293.26C551.008 291.5 551.668 290.4 551.668 281.82V204.16C551.668 196.02 550.788 195.36 543.308 191.4L537.808 188.32V186.56L573.228 181.72L574.548 182.6L574.328 198.44H574.768C583.348 190.52 594.788 181.06 606.008 181.06C615.028 181.06 620.088 186.12 620.088 194.48C620.088 202.18 615.248 206.8 608.428 206.8C601.828 206.8 599.188 203.06 596.988 198.66C595.448 194.92 594.788 193.82 591.928 193.82C588.188 193.82 580.708 198.22 574.548 202.84V281.82C574.548 289.52 575.428 291.72 582.028 293.04L591.488 294.8V297H537.368ZM621.105 297V294.8L627.265 293.26C634.745 291.5 635.405 290.62 635.405 282.04V204.16C635.405 196.02 634.305 195.36 626.825 191.62L621.105 188.32V186.56L658.065 181.72L659.165 182.16C658.945 185.9 658.285 193.6 658.285 207.68V282.04C658.285 290.62 659.385 291.5 667.085 293.26L672.805 294.8V297H621.105ZM632.545 152.68C632.545 145.2 638.265 139.7 645.965 139.7C653.445 139.7 659.385 145.2 659.385 152.68C659.385 160.38 653.445 165.66 645.965 165.66C638.265 165.66 632.545 160.38 632.545 152.68ZM674.55 297V294.8L680.71 293.26C688.19 291.5 688.85 290.62 688.85 282.04V203.94C688.85 195.58 687.53 195.14 680.49 191.4L674.99 188.32V186.56L710.41 181.72L711.73 182.16L711.51 196.02H711.73C722.51 188.98 738.35 181.06 752.65 181.06C773.55 181.06 781.69 190.74 781.69 210.54V282.04C781.69 290.62 782.35 291.5 789.83 293.26L795.99 294.8V297H744.51V294.8L750.67 293.48C757.71 291.72 758.59 291.06 758.59 282.04V214.5C758.59 199.1 754.19 193.82 741.43 193.82C728.01 193.82 718.11 197.56 711.73 199.76V282.04C711.73 291.06 712.83 291.72 719.87 293.48L726.25 294.8V297H674.55ZM839.425 339.9C811.045 339.9 794.325 331.54 794.325 315.48C794.325 304.04 802.025 295.9 818.965 291.28V290.84C808.185 288.64 803.345 282.48 803.345 273.68C803.345 263.56 810.825 254.76 819.625 250.14V249.48C808.405 243.98 800.925 233.42 800.925 220C800.925 193.82 822.705 181.06 843.605 181.06C852.625 181.06 861.865 183.04 868.905 187.44C876.605 180.18 883.205 176.44 890.465 176.44C897.285 176.44 902.125 179.74 902.125 187C902.125 192.28 899.265 195.8 893.325 195.8C888.705 195.8 886.725 193.82 885.405 190.08C882.545 183.48 878.365 184.36 871.985 189.2V189.64C881.225 195.36 886.725 205.26 886.725 217.8C886.725 243.54 864.945 255.2 843.605 255.2C835.685 255.2 828.645 253.88 823.365 251.46C820.285 253.66 816.325 258.5 816.325 263.34C816.325 268.84 820.065 271.48 829.525 271.48H866.045C886.725 271.48 898.605 279.4 898.605 298.32C898.605 317.02 881.005 339.9 839.425 339.9ZM843.165 335.06C865.165 335.06 882.545 326.26 882.545 308.66C882.545 296.78 876.165 291.94 860.545 291.94H824.465C817.425 295.24 813.245 302.28 813.245 312.18C813.245 328.24 824.025 335.06 843.165 335.06ZM843.605 251.24C857.245 251.24 864.065 242.66 864.065 220.44C864.065 195.8 857.245 185.68 843.605 185.68C830.185 185.68 823.365 194.7 823.365 217.14C823.365 241.56 830.185 251.24 843.605 251.24Z" fill="#222222"/>
</svg>
