<svg width="400" height="200" viewBox="0 0 400 200" fill="none" xmlns="http://www.w3.org/2000/svg">
<path fill-rule="evenodd" clip-rule="evenodd" d="M286.804 64.6113C267.174 64.6113 251.161 80.8816 251.161 100.512C251.161 120.142 267.864 135.383 287.237 135.383C306.61 135.383 323.137 119.021 323.137 99.3078C323.137 79.595 306.265 64.6113 286.804 64.6113ZM287.067 128.756C271.311 128.581 258.138 115.758 258.138 100.002C258.138 84.2464 271.228 71.2486 286.979 71.2486C302.73 71.2486 316.335 83.7318 316.51 99.7448C316.68 115.758 303.162 128.843 287.067 128.761V128.756Z" fill="#222222"/>
<path d="M149.548 71.3264C159.103 71.2439 167.459 75.031 173.397 83.552H181.059C175.378 72.448 164.012 64.7861 150.067 64.6988C130.782 64.6113 114.856 79.3327 114.856 99.74C114.769 119.113 130.612 135.728 150.067 135.383C163.667 135.208 174.864 128.319 181.059 116.442H173.485C168.833 123.328 159.623 128.926 150.067 128.926C134.142 128.926 121.139 115.403 121.484 99.3903C121.828 83.9795 134.399 71.4136 149.548 71.3264Z" fill="#222222"/>
<path d="M60 134.092H108.127V127.634H66.6277V102.585H107.18V96.1277H66.6277V72.1033H108.214V65.6504H60V134.092Z" fill="#222222"/>
<path d="M195.237 96.1277H236.998V65.6504H243.626V134.092H236.998V102.585H195.324V134.092H188.609V65.6504H195.237V96.1277Z" fill="#222222"/>
<path d="M334.11 123.386C335.96 123.405 337.49 123.949 338.509 124.803L338.49 124.794C339.408 125.566 339.922 126.585 339.913 127.702C339.903 129.261 339.558 130.547 338.98 131.591C337.466 134.325 334.382 135.403 331.605 135.378C327.405 135.344 324.613 133.315 323.327 130.28C322.768 128.96 322.487 127.445 322.501 125.813C322.516 124.221 322.982 122.648 323.783 121.298C325.201 118.919 327.682 117.219 330.595 117.244C332.411 117.263 333.858 117.972 335.115 118.7C335.463 118.895 335.78 119.092 336.075 119.274C336.85 119.753 337.468 120.135 338.063 120.142C338.932 120.152 339.427 119.259 339.558 118.516L340 118.598C339.563 121.4 337.927 122.823 334.975 122.798C333.778 122.789 332.716 122.287 331.623 121.771C330.468 121.226 329.279 120.664 327.862 120.652C326.444 120.638 325.274 121.162 324.429 122.026C323.496 122.973 322.962 124.328 322.948 125.823V125.833C322.938 127.221 323.448 128.265 324.254 129.037C325.827 130.547 328.522 131.033 330.658 131.052C334.154 131.086 336.465 130.693 337.839 129.979C338.946 129.411 339.456 128.634 339.485 127.702C339.519 126.571 338.825 125.682 337.674 125.653H337.645C336.786 125.645 336.039 126.267 335.144 127.01C333.808 128.121 332.143 129.505 329.284 129.479C326.779 129.455 324.808 127.741 324.827 125.071C324.827 124.886 324.846 124.706 324.88 124.536L325.293 124.609C325.278 124.687 325.278 124.765 325.278 124.852C325.269 125.648 325.832 126.469 326.58 126.474C327.272 126.48 328.017 125.974 328.906 125.37C330.223 124.476 331.858 123.365 334.11 123.386Z" fill="#222222"/>
</svg>
