<svg width="400" height="200" viewBox="0 0 400 200" fill="none" xmlns="http://www.w3.org/2000/svg">
<g clip-path="url(#clip0_153_1400)">
<g style="mix-blend-mode:multiply">
<path d="M71.7659 47.8262H129.441V58.1796H83.1873V92.5079H128.073V102.861H83.1873V139.915H129.434V150.269H71.7659V47.8262Z" fill="#808080"/>
<path d="M191.31 104.906C189.54 99.7256 185.735 89.7823 172.814 89.7823C159.893 89.7823 149.007 100.136 149.007 116.622C149.007 130.104 155.943 142.641 172.266 142.641C183.965 142.641 188.998 134.603 191.31 126.836L202.599 128.199C199.065 139.915 190.63 152.174 172.127 152.174C149.549 152.174 137.579 135.278 137.579 116.483C137.579 93.7319 154.04 80.2493 172.266 80.2493C187.089 80.2493 199.468 87.6058 202.19 103.814L191.31 104.906Z" fill="#808080"/>
<path d="M258.372 109.126C258.372 94.9557 251.026 90.6026 243.41 90.6026C233.481 90.6026 224.365 98.2304 224.365 112.401V150.275H213.756V47.8262H224.365V93.7318H224.636C229.26 85.0124 236.606 81.0629 246.263 81.0629C254.428 81.0629 268.981 85.2837 268.981 104.495V150.269H258.372V109.126Z" fill="#808080"/>
<path d="M314.904 152.174C290.284 152.174 279.807 134.325 279.807 116.212C279.807 98.0982 292.048 80.2493 314.904 80.2493C339.523 80.2493 350 98.0982 350 116.212C350 134.325 337.76 152.174 314.904 152.174ZM314.904 142.641C329.595 142.641 338.572 131.606 338.572 116.212C338.572 100.817 329.595 89.7823 314.904 89.7823C300.212 89.7823 291.235 100.817 291.235 116.212C291.235 131.606 300.212 142.641 314.904 142.641Z" fill="#808080"/>
</g>
<g style="mix-blend-mode:multiply">
<path d="M50 47.8262H107.675V58.1796H61.4279V92.5079H106.314V102.861H61.4279V139.915H107.675V150.269H50V47.8262Z" fill="#222222"/>
<path d="M169.551 104.906C167.78 99.7256 163.976 89.7823 151.055 89.7823C138.134 89.7823 127.248 100.136 127.248 116.622C127.248 130.104 134.184 142.641 150.506 142.641C162.205 142.641 167.239 134.603 169.551 126.836L180.84 128.199C177.306 139.915 168.87 152.174 150.368 152.174C127.789 152.174 115.82 135.278 115.82 116.483C115.82 93.7319 132.281 80.2493 150.506 80.2493C165.33 80.2493 177.709 87.6058 180.43 103.814L169.551 104.906Z" fill="#222222"/>
<path d="M236.606 109.126C236.606 94.9557 229.26 90.6026 221.644 90.6026C211.715 90.6026 202.599 98.2304 202.599 112.401V150.275H191.991V47.8262H202.599V93.7318H202.87C207.494 85.0124 214.84 81.0629 224.497 81.0629C232.662 81.0629 247.215 85.2837 247.215 104.495V150.269H236.606V109.126Z" fill="#222222"/>
<path d="M293.138 152.174C268.518 152.174 258.041 134.325 258.041 116.212C258.041 98.0982 270.282 80.2493 293.138 80.2493C317.757 80.2493 328.234 98.0982 328.234 116.212C328.234 134.325 315.994 152.174 293.138 152.174ZM293.138 142.641C307.829 142.641 316.806 131.606 316.806 116.212C316.806 100.817 307.829 89.7823 293.138 89.7823C278.447 89.7823 269.469 100.817 269.469 116.212C269.469 131.606 278.447 142.641 293.138 142.641Z" fill="#222222"/>
</g>
</g>
<defs>
<clipPath id="clip0_153_1400">
<rect width="300" height="104.348" fill="white" transform="translate(50 47.8262)"/>
</clipPath>
</defs>
</svg>
