<svg width="400" height="200" viewBox="0 0 400 200" fill="none" xmlns="http://www.w3.org/2000/svg">
<path d="M231.71 54.973L254.813 55.9894L251.518 102.081L247.255 144.011L224.152 145.027L221.735 136.371L209.324 137.213L207.674 147L183.296 145.717L187.669 101.865L190.859 54.2832L215.232 53L216.882 62.7867L229.297 63.6283L231.71 54.973Z" fill="#222222"/>
<path d="M174.267 102.288L175.263 92.5702L185.348 93.1451L188.821 54.8028L129.647 56.7942L122.523 112.673L135.473 144.093L179.435 145.979L184.791 100.094L174.267 102.288Z" fill="#222222"/>
<path d="M113.476 117.092V111.242L120.485 110.07L123.57 83.1098L113.494 84.8484L112.096 80.5622L123.474 78.189L127.929 55.6168H68.9786L67 144.493L132.059 144.903L121.143 117.732L113.476 117.092Z" fill="#222222"/>
<path fill-rule="evenodd" clip-rule="evenodd" d="M280.314 57.7232H280.305L257.125 56.408L249.942 143.771H270.563L286.255 144.434H316.957L317.286 60.3677H298.135L280.314 57.7232ZM291.944 106.05L279.455 107.044L278.797 97.1187L291.944 96.4565V106.05Z" fill="#222222"/>
<path d="M328.198 64.3229C329.719 64.3229 330.971 64.7644 331.812 65.4635V65.4587C332.571 66.0842 333 66.9213 333 67.8411C333 69.1288 332.726 70.1912 332.26 71.0558C331.04 73.3184 328.517 74.2293 326.242 74.2293C322.796 74.2293 320.498 72.5828 319.42 70.0854C318.949 69.0001 318.711 67.7307 318.711 66.4109C318.711 65.0909 319.082 63.7938 319.73 62.6764C320.873 60.7079 322.892 59.2869 325.282 59.2869C326.767 59.2869 327.96 59.8617 328.997 60.455C329.284 60.6138 329.546 60.7741 329.789 60.9228C330.425 61.3124 330.933 61.6232 331.419 61.6232C332.132 61.6232 332.529 60.8828 332.63 60.2711L332.995 60.3309C332.657 62.6441 331.323 63.8307 328.906 63.8307C327.93 63.8307 327.059 63.4256 326.162 63.0085C325.21 62.5664 324.23 62.1107 323.066 62.1107C321.905 62.1107 320.946 62.5475 320.26 63.265C319.502 64.0561 319.072 65.1783 319.072 66.4109V66.4199C319.072 67.5651 319.497 68.4205 320.164 69.0553C321.462 70.2925 323.674 70.674 325.424 70.674C328.289 70.674 330.176 70.3338 331.3 69.7405C332.205 69.2622 332.612 68.6183 332.63 67.8503C332.648 66.9166 332.072 66.1854 331.131 66.1717H331.104C330.402 66.1717 329.795 66.6885 329.068 67.3076C327.981 68.2328 326.626 69.3864 324.286 69.3864C322.23 69.3864 320.603 67.979 320.603 65.7808C320.603 65.629 320.621 65.4819 320.644 65.3393L320.982 65.3943C320.973 65.4587 320.973 65.5232 320.973 65.5921C320.973 66.2452 321.439 66.9213 322.052 66.9213C322.616 66.9213 323.221 66.5005 323.943 65.9977C325.016 65.2508 326.349 64.3229 328.198 64.3229Z" fill="#222222"/>
</svg>
