<svg width="400" height="200" viewBox="0 0 400 200" fill="none" xmlns="http://www.w3.org/2000/svg">
<path d="M101.385 118.163L67.1302 57.3296H50V140.376H65.3637V80.1681L99.7249 140.376H116.956V57.3296H101.385V118.163Z" fill="#222222"/>
<path d="M186.602 107.584L172.299 114.958L171.799 116.033C170.401 119.208 167.433 123.422 162.769 125.709C156.031 128.949 149.344 128.894 143.575 124.043L142.308 122.943L185.124 100.872L184.159 98.0956C178.385 81.6872 158.429 71.0679 139.689 80.0267C123.26 88.0265 117.153 108.811 125.895 124.861C134.303 140.497 153.977 146.705 169.704 138.251C181.101 132.26 187.748 118.204 186.713 109.396L186.597 107.589L186.602 107.584ZM136.075 110.391C135.484 103.804 139.103 96.3291 146.073 92.8567C153.271 89.147 162.073 91.2668 165.838 95.3954L166.262 95.996L136.181 111.506L136.075 110.391Z" fill="#222222"/>
<path d="M241.354 84.5289L240.521 83.6961C236.574 79.3353 230.038 76.4282 222.876 76.2212C205.438 75.4944 190.59 91.9988 190.902 109.962C191.316 127.299 204.5 143.076 221.837 142.662C230.245 142.35 235.853 139.548 241.874 133.32L242.601 132.487L242.707 140.376H256.511V57.3296H241.354V84.5289ZM242.389 111.728C241.142 121.797 232.007 129.272 221.938 128.132C211.969 126.885 205.014 118.062 205.64 108.094C206.367 97.8131 215.603 89.3036 225.779 90.7571C236.574 92.2107 243.636 101.452 242.389 111.728Z" fill="#222222"/>
<path d="M313.327 87.224L311.98 85.5635C306.892 79.1283 300.144 76.635 293.088 76.3221C275.024 75.4893 261.013 92.4125 261.427 110.269C261.74 127.4 274.196 143.076 291.326 142.657C299.735 142.45 306.069 139.957 312.191 133.628L313.332 132.487V140.376H327.141V78.3006H313.332V87.229L313.327 87.224ZM312.908 112.142C311.455 122.105 302.319 129.479 292.25 128.333C282.287 127.087 275.12 117.643 276.266 107.468C277.305 97.2931 286.648 89.4044 296.823 90.752C307.619 92.2056 314.261 101.861 312.913 112.137L312.908 112.142Z" fill="#222222"/>
<path d="M348.45 131.453C347.391 130.564 345.801 129.999 343.878 129.979C339.956 129.944 337.836 133.204 336.05 133.189C335.272 133.184 334.687 132.331 334.697 131.503C334.697 131.412 334.697 131.332 334.712 131.251L334.283 131.175C334.248 131.352 334.228 131.539 334.228 131.73C334.207 134.506 336.256 136.288 338.861 136.313C343.822 136.359 345.326 132.316 347.552 132.336C347.562 132.336 347.572 132.336 347.582 132.336C348.779 132.366 349.5 133.29 349.465 134.466C349.435 135.435 348.905 136.242 347.754 136.833C346.326 137.575 343.923 137.984 340.289 137.948C338.068 137.928 335.267 137.424 333.632 135.854C332.794 135.051 332.264 133.966 332.274 132.523C332.274 132.523 332.274 132.518 332.274 132.513C332.289 130.958 332.845 129.55 333.814 128.566C334.692 127.667 335.908 127.122 337.382 127.137C340.249 127.163 342.217 129.348 344.776 129.368C347.845 129.393 349.546 127.915 350 125.002L349.536 124.917C349.399 125.689 348.885 126.617 347.981 126.607C347.128 126.597 346.23 125.845 344.917 125.108C343.61 124.351 342.106 123.614 340.219 123.594C337.19 123.569 334.611 125.336 333.137 127.809C332.305 129.212 331.82 130.847 331.805 132.503C331.79 134.198 332.082 135.773 332.663 137.146C334 140.305 336.903 142.41 341.268 142.445C344.155 142.471 347.36 141.35 348.935 138.509C349.536 137.424 349.894 136.086 349.904 134.466C349.914 133.305 349.379 132.245 348.425 131.443L348.45 131.453Z" fill="#222222"/>
</svg>
