<svg width="400" height="200" viewBox="0 0 400 200" fill="none" xmlns="http://www.w3.org/2000/svg">
<path d="M115.556 75.8537C115.556 77.2895 115.248 78.478 114.723 79.4428V79.4468C113.353 81.9746 110.52 82.9896 107.961 82.9896C104.09 82.9896 101.504 81.1449 100.292 78.3583C99.7637 77.1427 99.4974 75.7225 99.4974 74.2521C99.4974 72.7816 99.9142 71.3304 100.644 70.08C101.937 67.8763 104.202 66.2939 106.888 66.2939C108.559 66.2939 109.895 66.9347 111.064 67.5946C111.381 67.7691 111.67 67.9447 111.939 68.1079L111.947 68.113L111.952 68.1159C112.67 68.5521 113.24 68.899 113.789 68.899C114.588 68.899 115.039 68.0731 115.151 67.39L115.564 67.4595C115.186 70.0454 113.685 71.369 110.968 71.369C109.867 71.369 108.885 70.9156 107.875 70.4492C106.806 69.9553 105.705 69.447 104.399 69.447C103.094 69.447 102.018 69.9372 101.246 70.736C100.393 71.6161 99.9142 72.8704 99.9104 74.2481V74.2558C99.9104 75.5333 100.389 76.4904 101.138 77.1967C102.597 78.5745 105.082 79.003 107.05 79.003C110.269 79.003 112.392 78.6248 113.654 77.9609C114.669 77.4244 115.128 76.7066 115.147 75.8497C115.17 74.8078 114.518 73.9896 113.461 73.9741H113.43C112.641 73.9741 111.959 74.5509 111.142 75.2422C109.921 76.2752 108.399 77.5635 105.765 77.5635C103.457 77.5635 101.628 75.9965 101.628 73.538C101.628 73.372 101.643 73.21 101.67 73.0479L102.048 73.1135C102.037 73.1868 102.037 73.2601 102.037 73.3373C102.037 74.0706 102.562 74.8232 103.249 74.8232C103.884 74.8232 104.564 74.3529 105.376 73.7909C106.582 72.9569 108.08 71.921 110.157 71.921C111.863 71.921 113.275 72.4111 114.221 73.1907C115.074 73.8893 115.556 74.8232 115.556 75.8537Z" fill="#222222"/>
<path d="M220.586 74.9275H218.085V73.5226H237.305V74.9275H235.9C230.975 74.9275 228.868 77.5054 228.868 83.2868V130.318H212.539L183.478 81.6465V118.836C183.478 125.084 186.446 128.913 191.289 128.913H193.945V130.318H172.695V128.913H174.181C179.727 128.913 181.992 125.945 181.992 118.836V78.9913C180.506 76.2551 178.947 74.9275 177.461 74.9275H172.618V73.5226H206.835L227.382 108.211V83.2097C227.382 77.8953 224.963 74.9275 220.586 74.9275Z" fill="#222222"/>
<path d="M299.499 105.008C298.171 110.554 296.998 113.525 295.045 117.196C290.981 124.617 285.435 128.913 280.044 128.913H273.247C271.843 128.913 270.982 127.975 270.982 126.334V101.727C275.513 102.588 277.076 103.444 280.121 106.725C282.228 108.99 283.868 111.646 284.965 114.459C285.744 116.412 285.98 117.663 286.057 120.553H287.384V82.4301H286.057C285.509 86.1003 284.339 91.3376 278.558 96.7253C275.98 99.1489 274.652 99.7702 270.978 100.318V77.741C270.978 75.9424 271.916 74.9275 273.556 74.9275H279.805C282.772 74.9275 290.04 74.9275 295.663 86.7256C297.616 90.8667 298.164 92.8196 298.866 97.9757H300.194V73.5226H238.864V74.9275H243.862C245.112 74.9275 245.973 76.1007 245.973 77.9763V126.022C245.973 127.82 245.112 128.913 243.785 128.913H238.864V130.318H300.502V105.004H299.487L299.499 105.008Z" fill="#222222"/>
<path fill-rule="evenodd" clip-rule="evenodd" d="M109.883 101.92C109.883 84.3675 124.113 70.1341 141.669 70.1341C159.225 70.1341 173.455 84.3638 173.455 101.92C173.455 119.477 159.225 133.706 141.669 133.706C124.113 133.706 109.883 119.473 109.883 101.92ZM131.226 128.122H152.927C153.193 128.122 153.413 127.902 153.413 127.635C153.413 127.369 153.193 127.149 152.927 127.149H149.747C149.087 127.149 148.55 126.612 148.55 125.949V75.8654L131.226 80.1222C131.044 80.2109 130.921 80.3885 130.921 80.6046C130.921 80.8208 131.04 81.01 131.226 81.0948H134.614C135.278 81.0948 135.814 81.6313 135.814 82.295V125.949C135.814 126.612 135.278 127.149 134.614 127.149H131.226C130.955 127.149 130.739 127.365 130.739 127.635C130.739 127.905 130.955 128.122 131.226 128.122Z" fill="#222222"/>
</svg>
