<svg width="400" height="200" viewBox="0 0 400 200" fill="none" xmlns="http://www.w3.org/2000/svg">
<path fill-rule="evenodd" clip-rule="evenodd" d="M290.596 70.6008C306.703 70.6008 319.784 83.5515 320 99.6038C319.998 102.141 317.941 104.2 315.4 104.2L271.762 104.119C273.648 112.789 281.364 119.28 290.596 119.28C297.277 119.28 303.156 115.872 306.613 110.704C307.522 109.345 309.088 108.431 310.849 108.431C313.653 108.431 315.922 110.7 315.922 113.5C315.922 114.648 315.539 115.71 314.895 116.561C309.602 124.317 300.693 129.408 290.596 129.408C279.136 129.408 269.215 122.849 264.362 113.284V124.317C264.362 127.04 262.152 129.25 259.428 129.25C256.705 129.25 254.495 127.04 254.495 124.317C254.495 123.975 254.531 123.642 254.598 123.317V93.9319H254.562C254.562 86.4865 248.476 80.4456 241.076 80.4456C233.675 80.4456 227.67 86.41 227.598 93.7968H227.603V124.321C227.603 127.045 225.393 129.255 222.669 129.255C219.946 129.255 217.736 127.045 217.736 124.321V112.784C212.969 122.534 202.957 129.255 191.371 129.255C175.17 129.255 162.039 116.124 162.039 99.9234C162.039 83.7225 175.17 70.5918 191.371 70.5918C203.516 70.5918 213.937 77.9742 218.388 88.4985C220.837 78.2353 230.178 70.6052 241.071 70.6052C251.965 70.6052 261.112 78.0687 263.687 88.1565C268.242 77.8212 278.573 70.6008 290.596 70.6008ZM172.154 99.9234C172.154 110.533 180.756 119.14 191.371 119.14C201.985 119.14 210.587 110.533 210.587 99.9234C210.587 89.3133 201.985 80.7067 191.371 80.7067C180.756 80.7067 172.154 89.3133 172.154 99.9234ZM290.596 80.7291C281.643 80.7291 274.112 86.8375 271.947 95.1158H309.097C307.234 86.5225 299.55 80.7291 290.596 80.7291Z" fill="#222222"/>
<path d="M84.0063 91.2717C85.7799 89.4305 88.2602 88.2961 91.2627 88.2961C94.2703 88.2961 96.8052 89.4667 99.2673 90.6037C101.592 91.6775 103.852 92.7211 106.383 92.7211C112.64 92.7211 116.097 89.6692 116.971 83.7181L116.025 83.5605C115.76 85.1361 114.729 87.0358 112.892 87.0358C111.634 87.0358 110.324 86.2399 108.682 85.2416L108.674 85.2369C108.044 84.8545 107.365 84.4419 106.622 84.0333C103.934 82.5073 100.855 81.0353 97.011 81.0353C90.826 81.0353 85.6043 84.6815 82.6379 89.7547C80.9543 92.6309 80 95.9712 80 99.3607C80 102.75 80.6167 106.018 81.8321 108.814C84.614 115.233 90.5739 119.478 99.4914 119.478C105.384 119.478 111.906 117.141 115.062 111.312C116.268 109.088 116.98 106.356 116.98 103.052C116.98 100.68 115.872 98.5325 113.905 96.9163C111.722 95.1158 108.481 93.9904 104.546 93.9904C99.7625 93.9904 96.3151 96.3761 93.5392 98.2971C91.6684 99.5917 90.1027 100.675 88.6383 100.675C87.0538 100.675 85.8474 98.942 85.8474 97.2586C85.8474 97.0786 85.8519 96.9119 85.8699 96.7453L84.9966 96.5968C84.9336 96.966 84.8976 97.3397 84.8976 97.7267C84.8976 103.385 89.1065 106.995 94.4272 106.995C100.488 106.995 103.994 104.029 106.807 101.649C108.69 100.056 110.262 98.7259 112.082 98.7259C112.093 98.7259 112.104 98.727 112.116 98.7281L112.12 98.7288C112.13 98.7297 112.14 98.7306 112.149 98.7306C114.589 98.7666 116.079 100.648 116.03 103.047C115.98 105.019 114.927 106.676 112.591 107.909C109.683 109.44 104.794 110.313 97.3846 110.313C92.8562 110.313 87.1303 109.327 83.7677 106.153C82.0482 104.524 80.9453 102.323 80.9453 99.3787V99.3607C80.9543 96.1873 82.0571 93.3018 84.0153 91.2761L84.0063 91.2717Z" fill="#222222"/>
<path d="M135.269 102.224H132.064L131.533 98.8385H139.248V107.805C137.322 109.061 135.057 109.755 132.519 109.755C126.667 109.755 123.444 105.933 123.444 100.22C123.444 94.508 126.932 90.6413 132.622 90.6413C134.895 90.6413 136.79 91.1726 138.258 92.0008L137.646 95.9846C136.259 95.1024 134.625 94.4091 132.735 94.4091C129.552 94.4091 128.008 96.7273 128.008 100.198C128.008 103.669 129.611 106.095 132.784 106.095C133.801 106.095 134.522 105.906 135.269 105.505V102.224Z" fill="#222222"/>
<path d="M146.185 95.7866C146.185 96.7229 146.694 97.1775 148.989 98.0597H148.985C152.991 99.5273 154.594 100.914 154.594 103.849C154.594 107.855 151.65 109.615 147.995 109.615C145.514 109.615 143.435 109.079 141.558 108.224L142.224 104.33C144.119 105.343 146.23 106.041 148.071 106.041C149.381 106.041 150.295 105.429 150.295 104.384C150.295 103.34 149.759 102.863 147.166 101.868C143.484 100.459 141.882 99.2572 141.882 96.2141C141.882 92.667 144.659 90.7719 148.179 90.7719C150.583 90.7719 152.131 91.2264 153.738 91.9964L153.041 95.845C151.389 94.8817 149.633 94.3506 148.242 94.3506C146.851 94.3506 146.185 94.9357 146.185 95.7866Z" fill="#222222"/>
</svg>
