<svg width="400" height="200" viewBox="0 0 400 200" fill="none" xmlns="http://www.w3.org/2000/svg">
<path d="M216.147 73.8396H227.123V137.858H238.585V62.1423H216.147V73.8396Z" fill="#222222"/>
<path d="M88.3463 80.5434C83.4584 80.5434 79.426 82.3889 76.5354 85.3848H76.5312C73.3415 88.6841 71.5464 93.3825 71.5338 98.5484V98.5737C71.5338 103.369 73.333 106.95 76.1309 109.601C81.6044 114.767 90.9251 116.372 98.2948 116.372C110.354 116.372 118.314 114.952 123.046 112.462C126.855 110.456 128.57 107.759 128.646 104.553C128.726 100.643 126.299 97.5791 122.329 97.5244C122.307 97.5244 122.284 97.5215 122.263 97.519C122.248 97.5174 122.234 97.5159 122.22 97.5159C119.262 97.5159 116.703 99.6798 113.639 102.272C109.06 106.145 103.351 110.975 93.487 110.975C84.8321 110.975 77.9765 105.096 77.9765 95.8895C77.9765 95.2575 78.0354 94.6464 78.1408 94.0481L79.5608 94.2884C79.5313 94.5579 79.5229 94.832 79.5229 95.1227C79.5229 97.8657 81.4822 100.685 84.061 100.685C86.4446 100.685 88.9935 98.921 92.0389 96.8139C96.5573 93.6876 102.168 89.805 109.954 89.805C116.359 89.805 121.634 91.6421 125.186 94.5707C128.38 97.1958 130.188 100.693 130.188 104.553C130.188 109.934 129.025 114.379 127.066 117.999C121.929 127.484 111.315 131.289 101.725 131.289C87.2086 131.289 77.5129 124.382 72.9833 113.932C71.0029 109.386 70 104.068 70 98.5484C70 93.0284 71.5507 87.5971 74.2937 82.9115C79.1268 74.6568 87.6257 68.7198 97.6922 68.7198C103.949 68.7198 108.96 71.1174 113.333 73.5993C114.549 74.2665 115.658 74.9403 116.688 75.5656C119.363 77.1908 121.498 78.4872 123.543 78.4872C126.539 78.4872 128.216 75.3985 128.646 72.8322L130.188 73.0894C128.768 82.7765 123.139 87.7445 112.958 87.7445C108.837 87.7445 105.159 86.046 101.375 84.2988C97.3678 82.4484 93.2422 80.5434 88.3463 80.5434Z" fill="#222222"/>
<path d="M154.745 103.209H159.966V108.547C158.748 109.201 157.573 109.504 155.917 109.504C150.751 109.504 148.142 105.556 148.142 99.9052C148.142 94.2547 150.658 90.4792 155.832 90.4792C158.913 90.4792 161.567 91.6086 163.83 93.0453L164.824 86.5647C162.439 85.2206 159.351 84.3525 155.655 84.3525C146.394 84.3525 140.714 90.6477 140.714 99.9431C140.714 109.238 145.964 115.458 155.483 115.458C159.616 115.458 163.299 114.333 166.434 112.285V97.6931H153.877L154.741 103.204L154.745 103.209Z" fill="#222222"/>
<path d="M182.303 96.4372C178.561 95.0005 177.739 94.2631 177.739 92.7377C177.739 91.3514 178.822 90.399 181.089 90.399C183.356 90.399 186.209 91.2629 188.901 92.8346L190.039 86.5688C187.426 85.3132 184.907 84.5758 180.992 84.5758C175.262 84.5758 170.745 87.6601 170.745 93.4329C170.745 98.3881 173.349 100.343 179.34 102.635C183.558 104.254 184.435 105.033 184.435 106.727C184.435 108.509 182.947 109.424 180.819 109.424C177.819 109.424 174.385 108.286 171.301 106.643L170.214 112.98C173.264 114.371 176.652 115.243 180.689 115.243C186.643 115.243 191.425 112.378 191.425 105.859C191.425 101.081 188.817 98.8222 182.303 96.4331V96.4372Z" fill="#222222"/>
<path d="M202.537 62.1423H213.998V126.161H224.561V137.858H202.537V62.1423Z" fill="#222222"/>
<path d="M274.329 105.455H274.118L258.283 62.1423H246.224V137.858H257.967V90.5634H258.178L274.746 137.858H286.077V62.1423H274.329V105.455Z" fill="#222222"/>
<path d="M306.719 104.3V126.535H330V137.858H293.712V62.1423H328.529V73.4686H306.719V92.9737H323.498V104.3H306.719Z" fill="#222222"/>
</svg>
