<svg width="400" height="200" viewBox="0 0 400 200" fill="none" xmlns="http://www.w3.org/2000/svg">
<path d="M88.6225 97.6362H98.0416V103.77C98.0416 112.385 91.4701 116.328 85.4097 116.328C80.4446 116.328 77.743 115.452 74.8223 112.824C69.6382 108.15 68.3969 99.2426 68.3969 90.4014C68.3969 77.4776 70.9525 63.9635 85.4828 63.9635C97.6765 63.9635 100.743 73.8205 101.546 78.8589H102.35V64.2556H101.254C100.524 65.2048 99.867 65.7889 97.9686 65.7889C96.5039 65.7889 95.4064 65.3118 94.1099 64.7482C92.2393 63.9347 89.9546 62.9412 85.5558 62.9412C78.1081 62.9412 72.7779 65.9348 68.3969 70.3159C65.8413 72.8713 60 79.2237 60 90.4014C60 98.6523 63.6508 105.37 68.4699 110.195C73.435 115.16 78.5462 117.351 85.4097 117.351C91.0986 117.351 94.4702 115.62 97.0438 114.298C98.6322 113.483 99.9167 112.824 101.254 112.824C102.715 112.824 103.153 113.116 104.175 114.211H105.051V97.6302H110.893V96.6079H88.6164V97.6302L88.6225 97.6362Z" fill="#222222"/>
<path d="M211.88 70.6445C209.477 68.1922 206.745 66.2693 203.678 64.87C201.488 63.872 199.255 63.2395 196.985 62.9533V63.9694C199.328 64.2615 201.317 64.9371 202.942 66.0079C205.175 67.4803 206.915 69.4519 208.163 71.9283C209.41 74.4047 210.256 77.2218 210.7 80.386C211.138 83.5501 211.363 86.8236 211.363 90.2068C211.363 94.6182 211.071 98.4699 210.481 101.756C209.891 105.041 208.911 107.786 207.542 109.994C206.167 112.203 204.39 113.846 202.206 114.923C200.697 115.671 198.95 116.152 196.979 116.383V117.411C199.535 117.107 201.962 116.377 204.262 115.221C207.378 113.651 210.085 111.594 212.392 109.045C214.698 106.496 216.511 103.575 217.837 100.289C219.158 97.0033 219.821 93.6446 219.821 90.2127C219.821 86.2883 219.097 82.6618 217.649 79.3274C216.201 75.9927 214.278 73.1027 211.874 70.6445H211.88Z" fill="#222222"/>
<path d="M334.579 72.3603C336.294 72.3603 337.712 72.8532 338.661 73.6381L338.655 73.6259C339.513 74.3319 339.994 75.2689 339.994 76.3035C339.994 77.7453 339.677 78.9379 339.154 79.9056C337.779 82.4428 334.931 83.4649 332.364 83.4649C328.476 83.4649 325.877 81.6154 324.66 78.8164C324.131 77.5994 323.863 76.1754 323.863 74.697C323.863 73.2183 324.277 71.758 325.013 70.5046C326.309 68.2896 328.591 66.7016 331.287 66.7016C332.966 66.7016 334.305 67.3466 335.479 68.0098C335.803 68.188 336.1 68.3675 336.374 68.5342C337.094 68.9706 337.667 69.3179 338.217 69.3179C339.02 69.3179 339.471 68.4905 339.586 67.803L340 67.8698C339.617 70.468 338.114 71.8005 335.382 71.8005C334.276 71.8005 333.29 71.3454 332.275 70.8771C331.202 70.3816 330.097 69.8717 328.786 69.8717C327.478 69.8717 326.395 70.3646 325.622 71.1677C324.77 72.0501 324.283 73.3095 324.283 74.7029C324.283 75.987 324.764 76.9482 325.512 77.66C326.979 79.0413 329.473 79.4736 331.451 79.4736C334.682 79.4736 336.812 79.0962 338.083 78.4269C339.106 77.8915 339.568 77.1674 339.586 76.3094C339.611 75.2568 338.96 74.4353 337.895 74.4231H337.864C337.071 74.4231 336.385 75.0033 335.563 75.6985C334.335 76.7369 332.803 78.0314 330.161 78.0314C327.843 78.0314 326.005 76.4556 326.005 73.9851C326.005 73.8146 326.017 73.6503 326.048 73.4922L326.431 73.5591C326.419 73.6322 326.419 73.7053 326.419 73.7843C326.419 74.5205 326.942 75.2749 327.636 75.2749C328.275 75.2749 328.959 74.8022 329.777 74.2374C330.988 73.3998 332.493 72.3603 334.579 72.3603Z" fill="#222222"/>
<path fill-rule="evenodd" clip-rule="evenodd" d="M249.959 85.3206C251.82 86.2273 253.463 87.4259 254.887 88.9227L254.881 88.9108C256.305 90.4076 257.431 92.1599 258.264 94.1678C259.098 96.1818 259.518 98.2384 259.518 100.496C259.518 102.754 259.086 104.901 258.228 106.933C257.37 108.966 256.207 110.767 254.735 112.337C253.263 113.907 251.559 115.16 249.624 116.091C247.689 117.022 245.644 117.491 243.484 117.491C241.817 117.491 240.406 117.211 239.256 116.645C238.105 116.085 237.162 115.422 236.426 114.661C235.69 113.901 235.124 113.116 234.735 112.306C234.339 111.497 234.071 110.852 233.925 110.359H233.779V136.031H239.444V137.059H221.792V136.031H227.457V85.9353H221.792V84.907H233.633V91.0892H233.779C234.509 89.0323 235.726 87.3287 237.418 85.9778C239.109 84.6331 241.306 83.9578 244.002 83.9578C246.107 83.9578 248.097 84.4141 249.959 85.3206ZM250.841 111.905C251.425 110.438 251.796 108.655 251.942 106.575V106.568C252.088 104.481 252.161 102.163 252.161 99.6137C252.161 97.3622 252.039 95.336 251.796 93.5471C251.547 91.7583 251.121 90.2249 250.506 88.947C249.892 87.6754 249.034 86.6959 247.932 86.0084C246.831 85.3268 245.419 84.9801 243.703 84.9801C241.884 84.9801 240.393 85.2965 239.213 85.9353C238.039 86.5741 237.083 87.3834 236.347 88.3629C235.805 89.0507 235.373 89.787 235.057 90.5719C234.741 91.3569 234.479 92.2877 234.284 93.3647C234.09 94.4417 233.956 95.6768 233.883 97.0764C233.81 98.4758 233.773 100.131 233.773 102.042C233.773 103.66 233.895 105.327 234.138 107.043C234.388 108.759 234.85 110.317 235.538 111.716C236.225 113.116 237.193 114.254 238.446 115.136C239.7 116.018 241.397 116.462 243.411 116.462C245.425 116.462 247.02 116.073 248.194 115.288C249.368 114.503 250.251 113.377 250.841 111.905Z" fill="#222222"/>
<path fill-rule="evenodd" clip-rule="evenodd" d="M270.068 98.2262H292.722C292.722 95.5309 292.265 93.2735 291.359 91.4603C290.452 89.647 289.32 88.1865 287.976 87.0854C286.625 85.984 285.171 85.1869 283.601 84.694C282.031 84.2073 280.558 83.9578 279.189 83.9578C276.883 83.9578 274.729 84.4385 272.715 85.3937C270.701 86.3492 268.949 87.6145 267.458 89.1844C265.961 90.7543 264.787 92.5554 263.929 94.5938C263.071 96.6323 262.645 98.7254 262.645 100.885C262.645 103.386 263.059 105.656 263.892 107.688C264.726 109.727 265.9 111.479 267.422 112.945C268.943 114.418 270.744 115.544 272.831 116.328C274.912 117.113 277.181 117.503 279.634 117.503C282.086 117.503 284.082 117.125 285.627 116.365C287.173 115.604 288.396 114.722 289.302 113.718C290.209 112.714 290.872 111.71 291.286 110.7C291.7 109.696 291.986 108.923 292.132 108.382L291.03 108.163C290.836 108.753 290.537 109.514 290.148 110.444C289.752 111.375 289.156 112.294 288.347 113.201C287.538 114.107 286.436 114.88 285.037 115.519C283.637 116.158 281.861 116.474 279.701 116.474C277.54 116.474 275.812 116.012 274.516 115.075C273.214 114.144 272.235 112.97 271.577 111.546C270.914 110.122 270.482 108.528 270.288 106.763C270.093 104.999 269.995 103.307 269.995 101.689C269.995 100.904 270.008 100.252 270.032 99.7355C270.056 99.2183 270.068 98.7191 270.068 98.2262ZM270.762 92.5616C271.079 91.0889 271.559 89.7929 272.198 88.6612C272.837 87.5355 273.695 86.6412 274.772 85.9778C275.849 85.3146 277.224 84.986 278.891 84.986C279.822 84.986 280.692 85.12 281.502 85.3937C282.311 85.6614 282.998 86.1177 283.558 86.7568C284.124 87.3956 284.562 88.2536 284.885 89.3306C285.201 90.4076 285.365 91.7826 285.365 93.45V95.2876C285.365 95.8776 285.317 96.5164 285.219 97.1979H270.141C270.239 95.5796 270.446 94.0341 270.768 92.5616H270.762Z" fill="#222222"/>
<path d="M326.066 86.4585C328.104 88.0284 329.121 90.5291 329.121 93.961L329.108 93.9547V115.434H334.773V116.462H317.122V115.434H322.786V91.673C322.786 89.7564 322.33 88.1865 321.423 86.9636C320.517 85.7404 319.105 85.1257 317.195 85.1257C315.625 85.1257 314.128 85.4668 312.704 86.1543C311.286 86.8477 310.033 87.8032 308.956 89.0261C307.879 90.2493 307.033 91.6973 306.419 93.3644C305.804 95.0377 305.5 96.8509 305.5 98.8103V115.434H311.165V116.462H293.513V115.434H299.178V85.935H293.513V84.9067H305.354V92.7803H305.5C305.798 92.1415 306.224 91.3322 306.79 90.3527C307.356 89.3728 308.128 88.4176 309.108 87.4868C310.088 86.5556 311.311 85.7588 312.783 85.0954C314.256 84.4322 316.045 84.1036 318.156 84.1036C321.393 84.1036 324.028 84.8886 326.066 86.4585Z" fill="#222222"/>
<path d="M170.949 79.3271C172.494 75.9927 174.478 73.0965 176.905 70.6442L176.899 70.6564C179.327 68.2044 182.059 66.2815 185.102 64.8821C187.225 63.9023 189.343 63.2757 191.466 62.9836V63.9816C189.124 64.2737 187.134 64.949 185.509 66.0201C183.282 67.4925 181.542 69.4638 180.289 71.9405C179.041 74.4168 178.189 77.234 177.751 80.3982C177.307 83.562 177.088 86.8358 177.088 90.2187C177.088 94.6301 177.38 98.4817 177.97 101.768C178.554 105.053 179.534 107.797 180.909 110.006C182.284 112.215 184.049 113.858 186.209 114.935C187.706 115.683 189.464 116.164 191.466 116.395V117.43C188.832 117.143 186.337 116.432 184 115.3C180.861 113.779 178.153 111.753 175.871 109.227C173.595 106.702 171.813 103.781 170.541 100.471C169.269 97.1614 168.63 93.7417 168.63 90.2127C168.63 86.2942 169.403 82.6615 170.949 79.3271Z" fill="#222222"/>
<path d="M128.161 83.9821L136.99 86.7506C137.184 86.8126 137.392 86.8774 137.613 86.946C141.553 88.1731 149.476 90.6402 149.476 100.113C149.476 109.173 142.466 117.351 130.929 117.351C126.841 117.351 125.088 117.132 121.729 116.255C121.269 116.114 120.773 115.946 120.264 115.774C118.673 115.235 116.941 114.649 115.669 114.649C114.209 114.649 113.844 115.306 113.479 116.255H112.383V100.557H113.186C116.536 116.329 125.451 116.329 130.861 116.328H130.936C141.231 116.328 143.859 109.246 143.859 104.5C143.859 97.7093 138.164 94.9346 134.075 93.6933L125.678 91.1376C117.793 88.7281 113.704 84.9314 113.704 78.2869C113.704 69.4519 120.275 62.9533 129.694 62.9533C133.837 62.9533 136.159 64.0131 137.97 64.8397C139.127 65.3679 140.076 65.8008 141.158 65.8008C142.399 65.8008 142.618 65.6549 143.348 64.2677H144.371V77.4836H143.494C142.326 70.474 138.018 63.9754 129.694 63.9754C124.948 63.9754 117.647 66.239 117.647 73.9789C117.647 80.2582 123.123 82.3757 128.161 83.9821Z" fill="#222222"/>
</svg>
