<svg width="400" height="200" viewBox="0 0 400 200" fill="none" xmlns="http://www.w3.org/2000/svg">
<path d="M85.3784 83.6909C81.2799 83.6909 77.898 85.2375 75.4801 87.7482L75.475 87.7639C72.7994 90.5271 71.294 94.4658 71.2837 98.791V98.8116C71.2837 102.833 72.7942 105.839 75.1347 108.055C79.723 112.381 87.5334 113.726 93.7095 113.726C103.819 113.726 110.485 112.535 114.449 110.447C117.641 108.767 119.079 106.504 119.146 103.817C119.213 100.534 117.177 97.9714 113.851 97.925C113.821 97.925 113.79 97.9198 113.759 97.9198C111.28 97.9198 109.138 99.7329 106.571 101.905C102.735 105.152 97.9509 109.2 89.6832 109.2C82.4296 109.2 76.6865 104.271 76.6865 96.5587C76.6865 96.0227 76.738 95.5175 76.8257 95.0121L78.0166 95.2132C77.9908 95.44 77.9805 95.6721 77.9805 95.9092C77.9805 98.2085 79.6302 100.57 81.7851 100.57C83.7818 100.57 85.9181 99.0923 88.4705 97.3269C92.2578 94.7077 96.9611 91.4549 103.484 91.4549C108.851 91.4549 113.274 92.9915 116.249 95.4453C118.929 97.6466 120.44 100.58 120.44 103.812C120.44 108.323 119.466 112.046 117.821 115.082C113.516 123.026 104.618 126.218 96.581 126.218C84.4247 126.218 76.2998 120.428 72.5003 111.669C70.8403 107.859 70 103.4 70 98.7756C70 94.1512 71.3043 89.5992 73.6036 85.6758C77.6505 78.7573 84.7753 73.7825 93.2094 73.7825C98.4575 73.7825 102.654 75.7983 106.319 77.8758C107.34 78.4356 108.272 79.0013 109.136 79.5259C111.375 80.8849 113.161 81.9691 114.872 81.9691C117.383 81.9691 118.785 79.3811 119.151 77.2261L120.44 77.4428C119.249 85.5625 114.532 89.7228 106 89.7228C102.547 89.7228 99.4658 88.3003 96.2955 86.8367C92.9377 85.2869 89.4807 83.6909 85.3784 83.6909Z" fill="#222222"/>
<path fill-rule="evenodd" clip-rule="evenodd" d="M166.086 79.0924C162.508 75.7208 157.641 73.8598 152.542 73.8598C147.444 73.8598 142.572 75.726 138.999 79.0924C134.055 83.7528 133.978 88.2691 133.978 99.817C133.978 111.365 134.055 115.881 138.999 120.541C142.577 123.913 147.444 125.774 152.542 125.774C157.641 125.774 162.513 123.908 166.086 120.541C171.029 115.881 171.107 111.365 171.107 99.817C171.107 88.2691 171.029 83.7528 166.086 79.0924ZM162.812 118.392C160.074 120.974 156.419 122.335 152.537 122.335C148.655 122.335 145.005 120.974 142.263 118.392C138.381 114.737 138.076 110.788 138.076 99.817C138.076 88.8463 138.381 84.9025 142.263 81.2421C145 78.6594 148.655 77.2983 152.537 77.2983C156.419 77.2983 160.069 78.6594 162.812 81.2421C166.694 84.8974 166.998 88.8412 166.998 99.817C166.998 110.793 166.694 114.731 162.812 118.392Z" fill="#222222"/>
<path fill-rule="evenodd" clip-rule="evenodd" d="M200.75 74.2874H180.892V125.346H185V103.689H200.75C210.107 103.689 217.108 98.3114 217.108 88.9855C217.108 79.6595 210.107 74.2824 200.75 74.2824V74.2874ZM200.296 100.25H185V77.7313H200.296C207.751 77.7313 213.004 81.3194 213.004 88.9908C213.004 96.6619 207.756 100.25 200.296 100.25Z" fill="#222222"/>
<path d="M257.887 125.346H225.016V74.2877H257.887V77.7316H229.125V97.8838H253.629V101.322H229.125V121.902H257.887V125.346Z" fill="#222222"/>
<path d="M301.512 118.536L270.234 74.2877H266.125V125.346H270.234V80.9587L301.512 125.346H305.62V74.2877H301.512V118.536Z" fill="#222222"/>
<path d="M316.302 84.3869H330V97.296H316.302V84.3869Z" fill="#222222"/>
<path d="M330 102.529H316.302V115.438H330V102.529Z" fill="#222222"/>
</svg>
