<svg width="400" height="200" viewBox="0 0 400 200" fill="none" xmlns="http://www.w3.org/2000/svg">
<path d="M98.6452 97.1907H98.6397L98.4527 97.1797H98.448C93.9777 96.9102 90.4533 96.6978 87.8984 94.7836C86.3997 93.6545 85.6736 92.3015 85.6736 90.6507C85.6736 86.7415 90.2161 83.9039 96.4662 83.9039C101.775 83.9039 106.777 85.6121 111.36 88.9884L112.806 86.9363C107.741 83.5199 102.089 81.7144 96.3965 81.7144C88.4908 81.7144 82.9726 85.4747 82.9726 90.857C82.9726 93.7346 84.6107 96.0333 87.6835 97.4893C90.8608 98.9168 94.8514 99.186 99.8991 99.5241L100.471 99.5636C101.204 99.614 101.956 99.6657 102.734 99.7248C109.913 100.315 112.469 104.053 112.469 107.36C112.469 112.542 107.23 116.165 99.7307 116.165C94.2589 116.165 88.4502 114.124 83.263 110.392L81.7644 112.594C87.1432 116.468 92.9055 118.28 99.8004 118.28C108.891 118.28 115.24 113.849 115.24 107.498C115.24 102.19 110.872 98.395 103.843 97.5982C101.998 97.3941 100.293 97.2906 98.6452 97.1907Z" fill="#222222"/>
<path d="M61.4515 101.915H71.6515V108.713L71.4714 108.977C68.3057 113.7 63.8678 116.096 58.2857 116.096C49.2184 116.096 42.6313 109.338 42.6313 100.035C42.6313 90.7311 49.2126 83.9042 58.2857 83.9042C63.7284 83.9042 68.4334 86.3404 71.117 90.4791L73.185 89.0232C69.7927 84.3686 64.4197 81.7202 58.2857 81.7202C47.6907 81.7202 40 89.4242 40 100.04C40 110.656 47.6907 118.286 58.2857 118.286C65.1109 118.286 70.7279 115.185 74.1434 109.544V99.7995H61.4515V101.915Z" fill="#222222"/>
<path fill-rule="evenodd" clip-rule="evenodd" d="M148.099 100.011C148.099 89.4069 155.831 81.7144 166.379 81.7144C176.928 81.7144 184.723 89.4125 184.723 100.011C184.723 110.61 176.928 118.24 166.379 118.24C155.831 118.24 148.099 110.616 148.099 100.011ZM152.624 100.011C152.624 108.289 158.52 114.17 166.379 114.17C174.302 114.17 180.134 108.283 180.134 100.011C180.134 91.7398 174.238 85.7899 166.379 85.7899C158.52 85.7899 152.624 91.7342 152.624 100.011Z" fill="#222222"/>
<path fill-rule="evenodd" clip-rule="evenodd" d="M223.804 82.4883H203.561V117.334H207.952V102.075H224.396C231.013 102.075 234.875 97.7415 234.875 91.9234C234.875 86.105 230.745 82.4824 223.804 82.4824V82.4883ZM223.543 98.0051H207.952V86.4949H223.74C227.998 86.4949 230.292 88.6904 230.292 92.313C230.292 95.9359 227.998 97.9993 223.543 97.9993V98.0051Z" fill="#222222"/>
<path d="M269.873 100.722H255.723V113.327H280.549V117.334H251.331V82.4883H279.108V86.5008H255.723V96.7154H269.873V100.722Z" fill="#222222"/>
<path d="M323.527 108.547L300.6 82.4883H298.306V117.334H302.697V91.2813L325.694 117.334H327.919V82.4883H323.527V108.547Z" fill="#222222"/>
<path d="M355.905 109.04C357.206 109.04 358.275 109.407 358.995 109.991L358.983 109.997C359.634 110.524 360 111.224 360 111.997C360 113.069 359.762 113.963 359.367 114.686C358.321 116.583 356.172 117.345 354.226 117.345C351.287 117.345 349.318 115.964 348.4 113.872C347.999 112.96 347.796 111.9 347.796 110.794C347.796 109.687 348.11 108.598 348.667 107.664C349.649 106.013 351.374 104.826 353.413 104.826C354.679 104.826 355.696 105.302 356.584 105.801C356.828 105.934 357.05 106.068 357.257 106.192C357.801 106.519 358.236 106.781 358.652 106.781C359.256 106.781 359.599 106.168 359.686 105.652L360 105.704C359.715 107.641 358.571 108.633 356.509 108.633C355.674 108.633 354.928 108.293 354.161 107.944C353.348 107.574 352.511 107.194 351.519 107.194C350.532 107.194 349.713 107.561 349.126 108.163C348.476 108.822 348.11 109.762 348.11 110.799C348.11 111.756 348.47 112.479 349.039 113.006C350.148 114.038 352.042 114.359 353.535 114.359C355.98 114.359 357.595 114.072 358.554 113.574C359.326 113.172 359.675 112.634 359.692 111.992C359.704 111.212 359.216 110.599 358.408 110.587H358.385C357.784 110.587 357.265 111.021 356.644 111.54C355.716 112.315 354.559 113.281 352.559 113.281C350.805 113.281 349.417 112.1 349.417 110.26C349.417 110.134 349.428 110.014 349.451 109.894L349.742 109.939C349.736 109.991 349.736 110.048 349.736 110.106C349.736 110.656 350.131 111.218 350.654 111.218C351.138 111.218 351.655 110.864 352.273 110.442C353.189 109.816 354.327 109.04 355.905 109.04Z" fill="#222222"/>
</svg>
