<svg width="400" height="200" viewBox="0 0 400 200" fill="none" xmlns="http://www.w3.org/2000/svg">
<path fill-rule="evenodd" clip-rule="evenodd" d="M198.91 153.268C206.931 167.214 226.277 173.811 240.141 173.584C223.175 174.374 206.853 167.029 196.959 154.042C195.993 152.705 194.527 152.478 193.005 152.901C178.433 155.947 160.652 154.042 151.103 141.917C150.54 141.282 149.926 140.771 149.203 140.482C146.406 139.476 143.226 140.384 140.32 139.997C135.122 139.533 129.61 138.5 124.696 136.952C122.626 136.394 120.618 134.861 118.435 135.119C115.338 135.517 112.855 139.156 109.773 141.37C93.0187 153.185 84.4142 139.114 72.7747 128.714C71.6805 128.652 70.7256 129.772 69.7294 130.216C66.5808 132.12 63.5302 134.211 60.521 136.343C57.8782 138.856 54.5851 141.84 51.0958 138.727C49.1241 136.957 49.9758 135.821 52.3553 134.288C53.6973 133.323 55.0238 132.456 56.4639 131.589C59.9377 129.813 63.0554 127.645 65.9975 125.028C69.1977 122.855 70.4313 121.627 68.9912 117.503C65.6104 108.429 65.6517 90.4402 74.4574 84.4785C80.6153 82.961 86.6234 97.1555 91.274 101.693C92.5851 103.086 93.7671 104.253 95.3672 103.504C97.7364 102.188 99.6256 100.335 101.953 98.6988C108.086 93.9501 112.029 92.9281 110.651 84.7727C110.31 79.544 108.597 74.5991 110.429 69.4788C114.889 55.5682 135.236 43.1647 142.777 48.9303C145.239 50.7265 145.843 54.4739 145.528 57.7825C144.749 67.7909 137.481 75.9928 130.533 82.5635C128.397 84.8243 125.589 86.5741 123.214 88.5562C121.067 90.2699 121.444 92.8507 122.394 95.1425C124.386 101.151 125.3 105.151 125.578 110.777C125.94 119.314 123.395 123.609 123.916 126.277C124.567 130.071 134.683 130.758 138.648 131.955C144.583 133.246 145.874 133.524 144.805 126.799C144.501 124.275 144.067 121.885 144.016 119.423C143.34 105.837 156.522 90.9512 170.531 95.7412C184.168 101.847 182.656 121.508 172.126 130.556C170.283 132.306 167.496 133.69 165.132 134.923C162.438 136.322 160.296 137.525 160.729 138.841C167.775 146.377 180.183 147.781 190.15 146.124C192.029 145.912 192.644 144.787 192.148 142.996C191.028 137.38 191.059 131.393 193.025 126.025C195.451 119.722 200.025 111.035 207.199 108.465C209.837 107.536 213.171 107.783 215.597 109.549C230.076 120.006 221.755 141.995 206.595 148.519C205.888 148.947 205.61 149.469 205.862 150.129C220.743 170.926 256.467 169.883 273.237 151.611C273.212 151.466 272.742 151.683 272.572 151.745C270.842 152.545 269.784 153.103 267.725 153.897C227.598 170.755 239.718 105.559 277.506 112.129C279.225 112.413 280.025 112.088 279.586 110.457C272.401 83.4875 272.52 50.1691 288.531 28.6502C292.299 23.0498 300.424 29.0786 303.608 32.2634C322.366 53.4416 306.225 101.553 295.092 123.908C294.307 125.674 294.467 127.367 295.737 128.771C307.335 143.125 331.166 155.869 349.165 145.123C350.822 144.106 349.609 145.236 348.969 145.721C343.921 149.949 337.634 152.024 331.326 153.082C331.244 153.108 331.172 153.128 331.105 153.149C330.666 153.294 330.609 153.433 330.542 153.598C330.434 153.825 330.289 153.872 329.938 154.037C329.138 154.496 326.108 154.914 325.473 155.038C325.52 155.09 325.644 155.074 325.736 155.09C325.891 155.105 326.232 155.116 326.335 155.141C326.387 155.157 326.247 155.183 325.948 155.214C325.731 155.239 325.437 155.265 325.096 155.291C319.388 155.694 314.752 154.579 310.009 152.906C309.462 152.674 308.734 152.364 308.213 152.055C307.929 151.9 307.862 151.828 308.089 151.884C308.404 151.967 309.694 152.426 310.06 152.514C310.117 152.53 310.277 152.576 310.241 152.499C310.117 152.328 309.849 152.158 309.756 151.972C309.74 151.828 309.828 151.786 309.823 151.673C309.431 150.945 308.218 150.527 307.444 150.067C303.283 147.781 299.345 144.622 295.809 141.633C294.56 140.462 293.213 139.197 291.922 137.974C291.035 137.138 290.322 136.172 289.765 136.529C289.337 136.75 289.187 137.473 288.975 137.963C277.274 176.371 222.395 185.363 198.894 153.257L198.91 153.268ZM285.228 54.0765C285.321 53.9887 285.403 53.7564 285.29 53.6429C285.063 53.5448 285.001 54.1126 285.228 54.0765ZM282.048 84.876C282.198 86.1354 282.466 87.0026 282.342 88.3446C282.368 89.2427 282.105 90.2183 282.291 91.0596C282.353 91.55 282.657 92.0042 282.709 92.5668C282.89 93.7488 282.91 94.8999 282.941 96.0922C282.962 96.8561 283.194 97.4033 283.37 98.0588C283.385 98.3582 283.401 98.6575 283.452 99.086C283.607 99.8292 283.442 100.165 283.69 101.068C285.305 108.119 286.678 112.558 289.084 118.421C289.76 120.058 290.348 119.908 291.024 118.236C297.378 104.289 301.838 89.4027 304.827 74.3927C305.312 71.8841 305.539 69.5459 305.689 66.7173C306.773 44.2539 299.67 20.2677 288.216 43.9648C286.874 46.8553 285.723 50.4014 285.135 53.5293C285.032 54.1745 284.789 54.6339 284.67 55.243C284.356 56.6624 284.294 58.1438 283.937 59.5478C283.86 59.9814 283.685 60.3685 283.586 60.7866C283.545 61.375 283.261 62.1183 283.184 62.748C283.008 63.641 282.776 64.6939 282.817 65.5611C282.848 65.8243 282.915 65.9327 282.915 66.1908C282.895 66.4179 282.828 66.6502 282.807 66.8928C282.704 67.6103 282.626 68.3897 282.456 69.1278C282.389 69.4168 282.348 69.7007 282.353 70.0414C282.384 71.6931 282.012 73.732 281.981 75.5127C281.826 77.6393 282.079 79.7866 282.198 81.779C282.131 82.3829 282.26 83.0074 282.182 83.6268C282.115 84.014 282.048 84.4475 282.048 84.8347V84.876ZM284.175 57.4831C284.402 57.6173 284.454 57.1683 284.237 57.2354C284.252 57.3541 284.17 57.3696 284.175 57.4831ZM284.051 59.713C284.108 59.4394 284.066 59.3516 283.741 59.3413C283.705 59.6046 283.762 59.7749 284.051 59.713ZM130.193 62.2164C123.369 64.7662 119.839 72.1267 119.699 79.064C119.575 80.5505 119.126 85.2528 121.511 83.1417C128.495 76.9219 147.138 58.2832 130.291 62.1854L130.198 62.2164H130.193ZM75.0665 87.8336C75.0717 87.9936 75.0768 88.1536 75.2523 88.1433C75.3968 87.9368 75.371 87.6116 75.0665 87.8336ZM282.379 92.541C282.332 92.4016 282.492 92.0558 282.255 92.1074C282.188 92.1797 282.229 92.4997 282.379 92.541ZM282.503 93.2223C282.657 93.1294 282.43 92.7217 282.317 92.9126C282.461 92.9333 282.379 93.181 282.503 93.2223ZM74.6432 100.996C74.6174 104.81 74.5658 115.484 78.1635 117.219C78.5867 117.245 79.0564 116.93 79.4178 116.646C81.9108 114.442 85.0904 112.677 87.346 110.23C87.8674 109.595 87.3718 109.089 86.8402 108.676C83.5884 106.637 75.0304 90.146 74.6484 100.893V100.996H74.6432ZM109.464 100.232C106.831 102.255 104.379 104.108 101.572 105.93C100.993 106.312 100.369 106.741 99.9146 107.257C97.9945 109.616 101.876 111.644 103.486 113.095C107.967 116.336 116.912 127.485 118.238 120.352C118.894 115.737 117.676 112.413 117.041 107.598C116.37 104.351 115.188 96.0974 111.167 98.8021C110.599 99.2098 110.078 99.7002 109.541 100.16L109.459 100.232H109.464ZM173.065 123.733C175.306 121.462 176.508 117.962 176.26 115.134C175.435 105.899 165.927 102.477 159.444 109.146C154.726 114.096 153.807 122.097 155.299 128.693C155.475 129.457 155.8 130.298 156.362 130.789C160.481 133.881 169.266 126.788 172.998 123.8L173.065 123.733ZM280.226 110.173C280.19 110.013 280.169 109.512 279.968 109.389C279.746 109.368 279.917 109.461 279.937 109.626C279.968 109.817 280.02 110.147 280.2 110.199L280.226 110.173ZM110.171 129.478C103.197 125.565 98.3145 117.781 91.9709 114.241C91.6147 114.065 91.2689 113.957 90.9334 113.962C90.0404 113.941 89.2455 114.912 88.1564 115.65C87.4286 116.171 86.6699 116.651 85.9111 117.141C81.5856 119.893 78.1944 122.184 83.0103 126.577C90.1385 134.438 103.001 140.611 111.028 131.341C111.508 130.618 110.93 129.942 110.248 129.524L110.166 129.473L110.171 129.478ZM204.195 141.427C210.658 138.624 215.494 133.137 217.832 126.856C218.478 124.657 217.471 120.92 215.747 119.33C213.574 117.658 209.739 119.727 207.308 121.57C203.204 124.099 200.732 132.528 200.876 138.376C201.026 140.715 202.193 142.082 204.113 141.448L204.2 141.422L204.195 141.427ZM278.043 138.712C296.196 121.993 269.237 112.486 257.087 125.988C248.157 134.841 244.931 147.807 257.448 149.603C259.998 149.877 262.94 149.453 265.975 148.225C270.016 146.733 274.672 142.898 277.976 138.794L278.048 138.712H278.043ZM85.7304 139.569C88.6519 141.871 91.6044 144.225 95.5169 144.875C96.3531 144.968 94.8252 144.395 94.6085 144.302C86.8815 141.174 80.7753 135.697 75.8924 129.385C75.691 129.132 74.7568 127.878 75.2213 128.698C77.7505 133.111 81.7921 136.41 85.653 139.507L85.7304 139.574V139.569ZM86.7008 141.184C90.2624 144.142 94.8304 146.589 99.8166 145.732C90.9385 145.107 83.9755 139.398 77.9777 133.132C77.7093 132.859 77.5079 132.668 77.4357 132.611C79.8152 135.708 83.4851 138.521 86.6234 141.122L86.7008 141.184ZM84.2955 136.27C84.28 136.074 83.9703 135.857 83.8619 135.961C84.0529 136.017 84.0581 136.26 84.2955 136.27ZM89.5397 140.09C90.1282 140.457 90.7734 140.828 91.6715 141.319C93.5607 142.351 96.126 143.605 96.3531 143.239C96.3531 142.728 95.3517 142.31 94.8975 142.031C91.3721 140.348 87.8209 138.469 84.6 136.529C85.6788 137.416 88.11 139.207 89.4468 140.033L89.5294 140.085L89.5397 140.09ZM89.2094 140.983C88.8532 140.446 88.1874 139.982 87.599 139.693C87.9603 140.178 88.7242 140.627 89.1991 140.993L89.2094 140.983ZM154.256 143.43C158.122 147.869 164.12 150.816 169.612 152.029C165.519 150.64 161.859 148.545 158.355 146.005C156.435 144.534 154.597 142.237 152.646 140.771C152.161 140.395 151.856 140.235 151.887 140.415C152.15 141.091 153.544 142.635 154.184 143.357L154.256 143.435V143.43ZM98.0513 144.689C97.597 144.606 96.8383 144.292 96.3892 144.338C96.7351 144.576 97.6177 144.741 98.0616 144.699V144.689H98.0513ZM99.032 145.004C99.6927 145.071 100.694 145.277 101.313 144.968C100.699 145.019 99.6359 144.792 99.0217 144.994L99.032 145.009V145.004ZM275.152 158.305C277.862 156.153 280.515 153.304 282.27 150.439C280.123 153.216 277.563 155.781 275.147 158.3L275.152 158.305ZM310.432 151.668C309.09 151.559 311.444 152.736 311.65 152.044C311.697 151.9 311.439 151.822 311.279 151.838C311.129 151.843 310.948 151.874 310.861 151.843C310.788 151.817 310.907 151.755 310.737 151.637C310.577 151.523 310.184 151.322 310.432 151.647V151.668ZM311.614 152.277C311.614 152.514 313.478 153.015 312.729 152.571C312.456 152.385 311.795 152.483 311.934 152.06C311.908 151.91 311.826 151.972 311.779 152.106C311.743 152.184 311.661 152.21 311.63 152.241L311.614 152.272V152.277ZM310.375 152.251C310.102 151.998 309.606 151.853 309.942 152.313C310.262 152.406 310.138 152.008 310.375 152.251ZM312.667 152.437C312.843 152.385 312.827 152.524 312.977 152.499C313.292 152.189 312.719 152.168 312.667 152.437ZM315.165 152.994C314.82 152.597 313.859 152.442 313.369 152.39C313.612 152.87 314.711 152.71 315.145 152.994H315.165ZM313.039 152.746C313.188 153.072 313.947 153.051 313.287 152.622C313.333 152.793 312.992 152.576 313.039 152.746ZM311.253 153.134C311.506 153.201 312.326 153.619 311.723 153.072C311.96 153.01 312.435 152.948 312.099 152.881C311.883 152.839 311.413 152.953 311.248 153.097V153.134H311.253ZM328.178 153.722C328.297 153.763 329.659 153.593 329.205 153.309C328.885 153.164 328.152 153.314 327.858 153.583C327.77 153.675 327.925 153.67 328.064 153.619C328.199 153.562 328.147 153.629 328.152 153.686L328.178 153.717V153.722ZM326.975 153.614C327.192 153.567 327.177 153.438 327.347 153.614C327.46 153.314 326.882 153.381 326.975 153.614ZM178.945 153.918C178.805 153.892 178.129 153.774 178.015 153.861C178.15 153.97 178.779 154.047 178.945 153.934V153.918ZM268.318 163.09C268.509 163.075 268.561 162.92 268.69 162.843C268.463 162.822 268.37 162.935 268.318 163.09ZM267.637 163.524C267.859 163.498 267.978 163.369 268.071 163.214C267.9 163.292 267.689 163.328 267.637 163.524ZM265.665 164.752C265.211 164.964 264.287 165.398 264.029 165.81C265.139 165.155 266.47 164.505 267.431 163.648C267.002 163.73 266.14 164.422 265.743 164.711L265.665 164.758V164.752ZM257.918 168.562C259.931 167.813 262.346 166.987 263.802 165.841C261.897 166.714 259.848 167.653 257.918 168.556V168.562Z" fill="#222222"/>
</svg>
