<svg width="400" height="200" viewBox="0 0 400 200" fill="none" xmlns="http://www.w3.org/2000/svg">
<path d="M151.226 106.746L151.076 106.935C150.673 107.434 150.21 107.9 149.708 108.311C148.048 109.663 145.981 110.458 143.672 110.462C140.869 110.454 138.395 109.272 136.636 107.351C135.995 106.647 134.794 105.386 134.794 105.386L143.806 94.029L152.428 104.73C152.112 105.453 151.708 106.129 151.226 106.75V106.746Z" fill="#222222"/>
<path d="M170.497 105.026C169.924 103.809 169.604 102.449 169.6 101.002C169.604 98.8793 170.283 96.9621 171.45 95.3849L171.521 95.2979L171.726 95.0409C171.936 94.7801 172.157 94.5271 172.386 94.3018C174.122 92.5782 176.454 91.5307 179.091 91.5307C179.767 91.5307 180.419 91.6018 181.051 91.7363L170.501 105.026H170.497Z" fill="#222222"/>
<path d="M206.125 105.054C205.548 103.836 205.228 102.48 205.228 101.03C205.232 98.8951 205.92 96.97 207.098 95.3849L207.109 95.373L207.149 95.3217L207.351 95.0686C207.564 94.8078 207.785 94.5508 208.011 94.3255C209.742 92.6059 212.078 91.5624 214.711 91.5584C215.387 91.5584 216.039 91.6335 216.672 91.764L206.125 105.05V105.054Z" fill="#222222"/>
<path d="M258.775 105.335V105.342C258.72 105.441 258.692 105.512 258.668 105.556C258.668 105.56 258.668 105.564 258.664 105.568C258.659 105.577 258.652 105.588 258.645 105.599C258.639 105.608 258.633 105.617 258.627 105.628C258.618 105.642 258.61 105.657 258.601 105.674C258.17 106.445 257.636 107.153 257.016 107.774C255.284 109.493 252.952 110.541 250.315 110.541C247.683 110.537 245.351 109.485 243.615 107.758C241.896 106.026 240.848 103.69 240.848 101.053C240.848 100.761 240.868 100.461 240.896 100.16C240.896 100.138 240.901 100.101 240.908 100.049L240.908 100.045C240.914 100.005 240.92 99.9546 240.927 99.8952C240.955 99.6857 240.987 99.4763 241.022 99.2707L241.038 99.1942C241.051 99.1297 241.066 99.0529 241.085 98.9703C241.1 98.9043 241.116 98.8374 241.133 98.7697C241.161 98.6548 241.193 98.5377 241.228 98.4207C241.253 98.326 241.272 98.2577 241.287 98.2075C241.295 98.1801 241.301 98.1581 241.307 98.1401C241.333 98.0584 241.36 97.9772 241.389 97.8963C241.438 97.7582 241.49 97.6211 241.548 97.4839L241.57 97.4299C241.583 97.3964 241.593 97.3711 241.6 97.3529L241.607 97.3337C241.714 97.0847 241.832 96.8435 241.963 96.5985L241.974 96.5789C241.995 96.5421 242.035 96.4729 242.093 96.3692C242.196 96.1913 242.295 96.0213 242.394 95.8711L242.455 95.7819C242.49 95.731 242.53 95.6721 242.576 95.6102C242.619 95.5479 242.662 95.4875 242.704 95.4286C242.784 95.3196 242.864 95.2162 242.943 95.1161C242.962 95.0919 242.98 95.0693 242.999 95.0468C243.023 95.0179 243.047 94.9891 243.074 94.9579C243.267 94.7248 243.449 94.5311 243.619 94.3571C245.355 92.6297 247.691 91.5861 250.323 91.5861C252.96 91.59 255.292 92.6415 257.02 94.3689C258.119 95.4679 258.937 96.8277 259.392 98.3417C259.629 99.1442 259.763 99.994 259.783 100.887C259.783 100.982 259.791 101.053 259.791 101.085C259.791 102.623 259.419 104.05 258.767 105.335H258.775Z" fill="#222222"/>
<path fill-rule="evenodd" clip-rule="evenodd" d="M288.197 117.838C278.346 166.546 230.875 198.048 182.162 188.197C133.454 178.346 101.952 130.875 111.803 82.1622C121.654 33.4536 169.129 1.95227 217.838 11.8031C266.546 21.6539 298.048 69.1292 288.197 117.838ZM282.58 99.3735C281.777 98.737 280.805 98.4207 279.856 98.4207C278.571 98.4207 277.279 98.99 276.413 100.077L268.57 109.96L268.606 65.3856C268.606 62.9625 266.641 60.9979 264.222 60.9939C261.795 60.9939 259.834 62.9546 259.83 65.3778L259.815 85.4668C256.968 83.7355 253.636 82.7512 250.276 82.7433C249.07 82.7433 247.865 82.8698 246.675 83.1425C245.185 83.4903 243.548 84.0042 242.07 84.8067C240.077 85.8977 238.105 87.2813 236.504 89.1431C236.468 89.1827 236.413 89.2419 236.342 89.3289C236.128 89.5819 235.931 89.8349 235.729 90.0997L226.736 101.429C224.886 103.741 222.423 106.726 221.403 107.738C219.676 109.458 217.336 110.505 214.703 110.505C214.158 110.505 213.628 110.458 213.114 110.367L222.949 97.982L226.902 93.0052C227.538 92.2067 227.855 91.2303 227.855 90.2816C227.855 88.9929 227.281 87.7043 226.194 86.8385L226.092 86.7555C222.961 84.2651 219.012 82.7827 214.735 82.7788C209.11 82.7788 204.066 85.3246 200.717 89.3249L200.385 89.7321L193.705 98.1441C193.705 98.1441 193.27 98.7053 192.598 99.5474L192.246 99.994C190.373 102.358 187.04 106.473 185.787 107.714C184.056 109.434 181.719 110.481 179.087 110.481C178.787 110.481 178.492 110.467 178.201 110.439C177.964 110.416 177.729 110.384 177.498 110.343L187.329 97.9543L191.282 92.9775C191.918 92.179 192.234 91.2026 192.23 90.2539C192.23 88.9652 191.657 87.6766 190.57 86.8109L190.475 86.7317C187.341 84.2335 183.388 82.7512 179.11 82.7472C178.747 82.7472 178.383 82.7591 178.023 82.7788C173.719 83.0437 169.572 84.8384 166.449 87.8465C165.741 88.5304 165.097 89.2578 164.504 90.0286L158.235 97.9227L147.21 84.2375C146.376 83.2057 145.119 82.6049 143.795 82.6009H143.585C142.324 82.6642 141.146 83.2611 140.355 84.2573L118.278 112.07C117.642 112.869 117.325 113.841 117.325 114.794C117.325 116.083 117.899 117.371 118.986 118.237C119.788 118.873 120.757 119.19 121.709 119.19C122.994 119.19 124.287 118.621 125.152 117.529L129.311 112.288C129.48 112.457 129.637 112.642 129.798 112.832C129.915 112.97 130.035 113.111 130.165 113.252C133.438 116.846 138.165 119.138 143.403 119.217H143.415L143.684 119.221C148.068 119.221 152.127 117.672 155.278 115.091C156.397 114.177 157.401 113.134 158.274 111.983L161.966 107.331C164.54 114.284 171.224 119.237 179.075 119.245H179.3C185.182 119.249 190.444 116.466 193.784 112.153L193.847 112.078L197.595 107.355C200.168 114.308 206.852 119.261 214.699 119.273H214.924C220.81 119.277 226.076 116.49 229.416 112.169V112.161L229.503 112.051L229.705 111.798L230.306 111.039L232.914 107.758L233.215 107.378C233.235 107.434 233.256 107.489 233.277 107.544C233.333 107.693 233.391 107.84 233.452 107.987C233.452 107.987 233.452 107.999 233.456 108.003V108.019H233.464C233.466 108.023 233.468 108.028 233.47 108.033C233.474 108.041 233.477 108.049 233.48 108.058C233.673 108.521 233.891 108.987 234.124 109.438C234.124 109.434 234.129 109.444 234.14 109.466C234.151 109.488 234.168 109.521 234.191 109.564C234.425 110.007 234.674 110.434 234.934 110.841C234.966 110.888 235.002 110.948 235.049 111.019C235.302 111.41 235.587 111.806 235.879 112.185C235.931 112.256 235.978 112.312 235.99 112.331C236.294 112.719 236.611 113.086 236.939 113.446C237.001 113.512 237.036 113.547 237.048 113.56L237.049 113.561C237.397 113.928 237.745 114.276 238.121 114.608C238.147 114.633 238.169 114.652 238.186 114.668L238.218 114.696C238.227 114.704 238.233 114.709 238.235 114.711C238.978 115.371 239.801 115.992 240.678 116.537C240.681 116.539 240.686 116.542 240.694 116.548C240.711 116.559 240.739 116.579 240.777 116.6C241.216 116.869 241.643 117.106 242.074 117.324L242.104 117.341C242.137 117.358 242.185 117.384 242.247 117.415C242.413 117.496 242.579 117.575 242.744 117.65C243.021 117.777 243.297 117.895 243.572 118.004L243.677 118.047C243.713 118.062 243.75 118.077 243.785 118.091C244.24 118.265 244.694 118.419 245.161 118.557C245.211 118.573 245.257 118.585 245.298 118.596C245.331 118.605 245.359 118.613 245.382 118.621C245.857 118.755 246.331 118.87 246.813 118.964C246.932 118.984 246.995 118.996 247.023 119.004C247.521 119.091 248.023 119.166 248.541 119.217L248.6 119.221C248.632 119.224 248.656 119.225 248.671 119.225H248.675C248.958 119.25 249.241 119.271 249.527 119.284C249.788 119.297 250.052 119.304 250.319 119.304H250.545C254.589 119.308 258.34 117.988 261.376 115.766C262.906 117.913 265.412 119.316 268.254 119.324H268.258C270.911 119.324 273.298 118.095 274.844 116.174L274.852 116.162L283.299 105.524C283.936 104.722 284.252 103.749 284.252 102.801C284.252 101.516 283.679 100.223 282.592 99.3576L282.58 99.3735Z" fill="#222222"/>
<path d="M277.532 183.876C275.006 183.876 271.816 183.327 269.942 181.556L269.938 181.552C268.974 180.647 268.361 179.417 268.361 177.777V177.765C268.365 175.998 268.982 174.389 270.072 173.259C271.065 172.235 272.444 171.602 274.12 171.602C275.796 171.602 277.208 172.255 278.581 172.888C279.877 173.487 281.137 174.069 282.548 174.069C286.035 174.069 287.964 172.369 288.45 169.049L287.92 168.962C287.774 169.843 287.197 170.899 286.173 170.899C285.472 170.899 284.746 170.457 283.832 169.9C283.479 169.685 283.097 169.453 282.679 169.223C281.18 168.373 279.465 167.551 277.322 167.551C273.875 167.551 270.962 169.586 269.306 172.413C268.369 174.018 267.835 175.848 267.835 177.769C267.835 179.69 268.175 181.477 268.855 183.038C270.409 186.616 273.725 188.98 278.698 188.98C281.983 188.98 285.62 187.675 287.379 184.43C288.051 183.189 288.45 181.667 288.45 179.825C288.45 178.504 287.833 177.302 286.738 176.405C285.521 175.401 283.714 174.773 281.52 174.773C278.851 174.773 276.926 176.104 275.378 177.176C274.336 177.897 273.464 178.5 272.65 178.5C271.768 178.5 271.092 177.536 271.092 176.595C271.092 176.5 271.096 176.405 271.108 176.31L270.622 176.227C270.586 176.437 270.567 176.646 270.567 176.86C270.567 180.014 272.915 182.026 275.879 182.026C279.258 182.026 281.213 180.373 282.781 179.047C283.831 178.159 284.708 177.417 285.722 177.417H285.762C287.122 177.441 287.952 178.484 287.924 179.829C287.9 180.927 287.311 181.848 286.007 182.536C284.39 183.39 281.663 183.876 277.532 183.876Z" fill="#222222"/>
</svg>
