<svg width="400" height="200" viewBox="0 0 400 200" fill="none" xmlns="http://www.w3.org/2000/svg">
<path d="M269.139 52.5553V45H327V52.5553H269.139Z" fill="#222222"/>
<path d="M73 155V147.445H130.856V155H73Z" fill="#222222"/>
<path d="M203.76 79.1499V86.7052H261.616V79.1499H203.76Z" fill="#222222"/>
<path d="M138.378 120.85V113.295H196.234V120.85H138.378Z" fill="#222222"/>
<path d="M73 45V46.89H130.856V45H73Z" fill="#222222"/>
<path d="M73 100.925V99.0347H130.856V100.925H73Z" fill="#222222"/>
<path d="M130.856 100.961H128.979V139.889H130.856V100.961Z" fill="#222222"/>
<path d="M138.378 46.8902H140.259V105.74H138.378V46.8902Z" fill="#222222"/>
<path d="M140.259 128.405H138.378V154.999H196.238V153.109H140.259V128.405Z" fill="#222222"/>
<path d="M203.76 94.2603H205.637V153.109H261.616V154.999H203.76V94.2603Z" fill="#222222"/>
<path d="M205.637 46.8902H203.76V71.5899H205.637V46.8902Z" fill="#222222"/>
<path d="M269.139 60.0137H271.021V153.109H318.697L319.478 152.325V147.445H324.34L325.117 146.665V60.0137H326.999V147.445H327V155H319.478L319.478 154.999H269.139V60.0137Z" fill="#222222"/>
<path d="M138.378 46.8902V45H196.238V46.89L138.378 46.8902Z" fill="#222222"/>
<path d="M203.76 45V46.8902L261.616 46.89V45H203.76Z" fill="#222222"/>
</svg>
