<svg width="400" height="200" viewBox="0 0 400 200" fill="none" xmlns="http://www.w3.org/2000/svg">
<path d="M97.6506 74.5582C92.9428 74.5582 89.0692 76.3291 86.2885 79.2123L86.2836 79.1976C83.2149 82.3686 81.488 86.8911 81.4782 91.8575V91.8818C81.4782 96.4921 83.2052 99.9412 85.8981 102.488C91.1621 107.459 100.124 109.001 107.213 109.001C118.814 109.001 126.468 107.64 131.015 105.239C134.679 103.312 136.323 100.717 136.401 97.6336C136.479 93.8773 134.147 90.9306 130.327 90.8768C130.307 90.8768 130.288 90.8742 130.27 90.8718C130.253 90.8694 130.236 90.867 130.22 90.867C127.376 90.867 124.917 92.9473 121.971 95.4399C117.569 99.1646 112.078 103.81 102.588 103.81C94.2649 103.81 87.6739 98.1605 87.6739 89.306C87.6739 88.701 87.7276 88.1107 87.8301 87.5352L89.196 87.7643C89.1668 88.023 89.157 88.2865 89.157 88.5692C89.157 91.2086 91.045 93.9211 93.5233 93.9211C95.8156 93.9211 98.2668 92.2248 101.195 90.1981C105.541 87.191 110.937 83.4565 118.423 83.4565C124.585 83.4565 129.659 85.2226 133.074 88.0376C136.147 90.5647 137.884 93.9259 137.884 97.6386C137.884 102.815 136.767 107.088 134.879 110.572C129.942 119.695 119.726 123.353 110.506 123.353C96.548 123.353 87.2252 116.709 82.8686 106.659C80.9611 102.288 80 97.1703 80 91.8673C80 86.5642 81.4977 81.3346 84.1321 76.8317C88.7814 68.8943 96.9529 63.1863 106.632 63.1863C112.652 63.1863 117.472 65.4938 121.677 67.8795C122.847 68.5219 123.915 69.1706 124.906 69.7723C127.48 71.3359 129.532 72.5822 131.498 72.5822C134.376 72.5822 135.991 69.6113 136.406 67.1427L137.889 67.3916C136.518 76.7097 131.113 81.4856 121.316 81.4856C117.355 81.4856 113.819 79.8519 110.18 78.1714C106.326 76.3912 102.358 74.5582 97.6506 74.5582Z" fill="#222222"/>
<path d="M223.102 81.0077C220.561 78.8708 217.112 77.9684 213.994 77.9684C207.346 77.9684 203.674 81.6399 201.817 83.4958L201.681 83.6323V63.9376H189.04V121.958H201.681V100.619C201.681 96.9264 201.681 93.3942 203.32 91.1793C204.388 89.7841 206.276 88.7157 208.491 88.7157C209.808 88.7157 213.17 89.1255 214.399 92.9795C214.892 94.4578 214.975 96.0969 214.975 99.5462V121.948H227.527V93.7991C227.527 88.2181 226.873 84.1981 223.097 80.998L223.102 81.0077Z" fill="#222222"/>
<path d="M168.458 93.9747L168.455 93.9733C164.356 93.2327 161.652 92.7439 161.652 90.2817C161.652 89.0523 162.803 87.0814 167.726 87.0814C170.682 87.0814 174.458 88.2279 178.478 91.3501L186.274 84.13L186.119 84.022C183.108 81.9277 177.07 77.7293 167.15 77.7293C155.169 77.7293 149.09 85.0325 149.09 92.0917C149.09 95.292 150.402 98.2484 152.295 100.131C154.183 102.02 156.808 103.088 159.432 103.825C161.32 104.4 163.287 104.81 165.179 105.137C165.685 105.221 166.211 105.299 166.744 105.377L166.761 105.38C168.819 105.682 170.986 106 172.483 106.781C173.219 107.191 174.127 107.766 174.127 109.245C174.127 112.445 169.531 113.431 166.492 113.431C161.73 113.431 157.466 110.884 154.017 107.522L146.055 114.743C148.768 117.289 154.92 123.031 166.819 123.031C176.912 123.031 187.089 118.109 187.089 108.01C187.089 97.9118 177.078 95.5359 168.458 93.9747Z" fill="#222222"/>
<path fill-rule="evenodd" clip-rule="evenodd" d="M229.791 100.458C229.791 87.3253 238.079 76.9048 254.491 77.8074H254.496C271.976 78.7929 275.835 92.6624 275.835 100.458C275.835 111.294 269.595 123.192 252.852 123.192C240.787 123.192 229.791 116.299 229.791 100.458ZM242.504 100.371C242.504 107.185 245.785 113.175 252.842 113.177C259.657 113.177 263.019 107.679 263.019 100.946C263.019 96.1848 261.872 92.4919 259.491 90.1941C256.867 87.7303 253.91 87.6474 252.105 87.8132C248.495 88.0621 246.358 89.2915 244.636 91.999C243.08 94.4626 242.504 97.419 242.504 100.371Z" fill="#222222"/>
<path fill-rule="evenodd" clip-rule="evenodd" d="M301.374 78.1342C296.614 78.1349 292.763 79.8567 290.626 81.9103C290.49 82.0463 290.354 82.1914 290.218 82.3424C289.945 82.6469 289.671 82.9761 289.397 83.3055V79.2807H278.152V136.813H290.87V119.168L291.058 119.282C294.329 121.279 296.784 122.778 301.457 122.778C316.146 122.778 320 109.152 320 100.371C320 86.0911 311.877 78.1342 301.374 78.1342ZM298.998 113.669C296.949 113.669 294.812 112.767 293.334 111.206C291.695 109.401 290.299 106.035 290.299 100.619C290.299 96.5945 291.119 92.9063 292.924 90.5257C294.729 88.0669 297.11 87.0814 299.408 87.0814C299.983 87.0814 300.554 87.1645 301.135 87.3253C306.301 88.6376 307.862 94.6286 307.862 100.293C307.862 107.025 305.15 113.669 298.998 113.669Z" fill="#222222"/>
</svg>
