<svg width="400" height="200" viewBox="0 0 400 200" fill="none" xmlns="http://www.w3.org/2000/svg">
<path d="M246.457 97.7868C237.417 99.8651 234.689 108.727 236.698 117.45C238.699 126.173 245.027 132.949 254.075 130.871C263.122 128.792 265.85 119.93 263.841 111.207C261.832 102.484 255.512 95.7084 246.464 97.7868H246.457Z" fill="#222222"/>
<path fill-rule="evenodd" clip-rule="evenodd" d="M300.495 29.4392H159.396V108.688C174.208 105.389 178.851 114.707 179.662 118.246L170.012 120.672C169.24 117.311 165.531 115.982 161.652 116.871C160.826 117.064 160.076 117.303 159.389 117.589V127.989C160.308 128.259 161.243 128.398 162.07 128.476L171.643 129.271C178.581 129.851 184.028 132.547 185.751 140.05C187.118 145.999 184.901 155.889 171.457 158.979C166.342 160.154 162.41 159.999 159.381 159.095V170.561H300.502V108.395C298.517 109.708 296.245 110.628 293.935 111.153L287.02 112.744L291.107 130.515L281.411 132.748L270.238 84.1495L286.07 80.5104C290.713 79.4443 296.253 79.5367 300.495 82.4729V29.4392ZM220.558 146.733L215.914 126.513L195.749 131.149L200.4 151.376L190.703 153.602L179.531 105.003L189.22 102.778L193.755 122.488L213.913 117.844L209.386 98.1342L219.082 95.9012L230.255 144.5L220.558 146.733ZM273.916 108.889C276.922 121.947 271.181 136.055 256.053 139.532C240.932 143.009 229.613 132.818 226.608 119.768C223.61 106.718 229.343 92.6096 244.463 89.1252C259.584 85.6483 270.911 95.8393 273.908 108.889H273.916Z" fill="#222222"/>
<path d="M287.352 88.9324L281.859 90.1993L285.142 104.478L290.574 103.226C296.972 101.75 297.566 97.5393 296.817 94.3099C296.06 91.0108 292.907 87.6573 287.352 88.9324Z" fill="#222222"/>
<path d="M176.356 143.503C177.221 147.25 172.933 149.939 169.641 150.696V150.689C165.145 151.724 160.826 150.797 159.396 146.231V137.994L169.162 139.169C174.347 139.818 175.761 140.923 176.356 143.503Z" fill="#222222"/>
<path d="M130.677 133.289C135.831 132.107 140.42 132.609 143.82 134.309L143.828 134.293C146.887 135.823 148.989 138.296 149.707 141.409C150.704 145.744 150.588 149.537 149.684 152.821C147.297 161.405 139.455 166.427 131.736 168.204C120.046 170.893 110.96 167.13 105.381 159.559C102.94 156.259 101.163 152.242 100.128 147.722C99.1076 143.279 99.3472 138.613 100.692 134.34C103.048 126.799 108.789 120.448 116.901 118.586C121.939 117.427 126.42 118.423 130.399 119.613C131.508 119.928 132.531 120.269 133.48 120.584C135.929 121.398 137.881 122.047 139.524 121.669C141.935 121.112 142.707 118.308 142.584 116.167L143.874 116.083C144.523 124.149 140.907 129.186 132.709 131.072C129.391 131.837 126.115 131.15 122.744 130.442C119.176 129.693 115.503 128.922 111.562 129.828C107.622 130.74 104.717 132.972 102.948 135.916C100.985 139.169 100.413 143.279 101.356 147.444V147.467C102.245 151.322 104.362 153.872 107.104 155.487C112.459 158.639 120.262 158.207 126.196 156.839C135.908 154.606 142.058 151.979 145.404 149.105C148.093 146.779 148.973 144.292 148.448 141.695C147.791 138.535 145.273 136.519 142.058 137.206C142.035 137.222 142.004 137.222 141.973 137.222C139.596 137.77 137.939 139.983 135.953 142.635C132.983 146.601 129.279 151.549 121.329 153.378C114.367 154.977 107.761 151.515 106.054 144.098C105.983 143.794 105.933 143.489 105.897 143.184C105.874 142.986 105.857 142.789 105.845 142.592L107.035 142.522C107.058 142.746 107.097 142.97 107.151 143.202C107.661 145.412 109.762 147.32 111.841 146.841C113.757 146.402 115.482 144.512 117.545 142.251C120.606 138.897 124.409 134.729 130.677 133.289Z" fill="#222222"/>
</svg>
