<svg width="400" height="200" viewBox="0 0 400 200" fill="none" xmlns="http://www.w3.org/2000/svg">
<path d="M208.303 87.9252C210.693 85.4495 214.019 83.9256 218.064 83.9256C225.927 83.9256 231.385 89.8744 238.397 89.8744C246.811 89.8744 251.459 85.7735 252.628 77.7692L251.357 77.5565C251.003 79.6779 249.616 82.2295 247.14 82.2295C244.801 82.2295 242.32 80.174 238.705 78.1894C235.091 76.1389 230.954 74.1543 225.78 74.1543C217.467 74.1543 210.44 79.0602 206.45 85.8799C204.187 89.7479 202.901 94.2386 202.901 98.8002C202.901 103.362 203.731 107.751 205.367 111.508C209.108 120.145 217.117 125.846 229.111 125.846C237.035 125.846 245.803 122.702 250.046 114.87C251.666 111.878 252.623 108.207 252.623 103.762C252.623 100.572 251.135 97.6813 248.492 95.5144C245.555 93.0944 241.196 91.5806 235.911 91.5806C225.142 91.5806 219.406 100.572 214.515 100.572C212.384 100.572 210.764 98.2433 210.764 95.9752C210.764 95.7372 210.769 95.5094 210.794 95.2866L209.624 95.0892C209.538 95.5803 209.488 96.0866 209.488 96.608C209.488 104.212 215.148 109.073 222.297 109.073C235.906 109.073 239.941 97.9547 246.036 97.9547C246.062 97.9547 246.097 97.9598 246.128 97.9598C249.408 98.0054 251.413 100.537 251.347 103.767C251.281 106.42 249.869 108.647 246.72 110.303C242.811 112.364 236.235 113.538 226.271 113.538C220.18 113.538 212.485 112.212 207.959 107.944C205.65 105.757 204.162 102.795 204.162 98.8357V98.8154C204.172 94.5474 205.655 90.6693 208.293 87.9404L208.303 87.9252Z" fill="#222222"/>
<path d="M125.596 92.8107C120.366 91.8184 119.02 90.9678 119.02 89.6262V89.4844C119.02 88.2845 120.149 87.4339 122.624 87.4339C127.222 87.4339 132.806 88.9224 137.479 92.3145L145.539 81.1408C139.808 76.6146 132.735 74.3516 123.186 74.3516C109.537 74.3516 102.181 81.637 102.181 91.0437V91.1855C102.181 101.65 111.942 104.835 123.045 107.098C128.351 108.156 129.905 108.936 129.905 110.348V110.49C129.905 111.837 128.634 112.611 125.662 112.611C119.865 112.611 113.709 110.915 108.337 106.809L99.4974 117.35C105.791 122.864 114.843 125.694 124.888 125.694C138.183 125.694 146.744 119.33 146.744 108.931V108.789C146.744 98.8152 138.259 95.1396 125.596 92.8056V92.8107Z" fill="#222222"/>
<path d="M182.483 92.74H167.345V75.2732H150.794V124.783H167.345V107.027H182.483V124.783H199.033V75.2732H182.483V92.74Z" fill="#222222"/>
<path d="M278.363 75.273H256.086V124.783H272.637V111.341H278.013C291.379 111.341 300.502 104.977 300.502 93.0234V92.8816C300.502 81.1409 291.521 75.268 278.363 75.268V75.273ZM284.165 94.0866C284.165 97.6204 281.335 99.5291 277.092 99.5291H272.637V88.4972H277.168C281.552 88.4972 284.17 90.335 284.17 93.9448V94.0866H284.165Z" fill="#222222"/>
</svg>
