<svg width="160" height="108" viewBox="0 0 160 108" fill="none" xmlns="http://www.w3.org/2000/svg">
<path d="M116.985 30.5049C113.935 30.5049 111.455 32.9849 111.455 36.0249V50.8549C111.455 50.9749 111.555 51.0749 111.675 51.0749C111.735 51.0749 111.785 51.0449 111.825 51.0149L122.345 37.7449C122.445 37.6249 122.505 37.4649 122.505 37.2849V36.0249C122.505 32.9749 120.035 30.5049 116.985 30.5049Z" fill="#ED135D"/>
<path d="M131.705 30.5049C128.655 30.5049 126.185 32.9849 126.185 36.0249V50.8549C126.185 50.9749 126.275 51.0749 126.405 51.0749C126.455 51.0749 126.515 51.0449 126.555 51.0149L137.075 37.7449C137.175 37.6249 137.235 37.4649 137.235 37.2849V36.0249C137.235 32.9749 134.765 30.5049 131.715 30.5049" fill="#ED135D"/>
<path d="M60.8946 54.125C62.5546 54.125 63.9146 52.765 63.9146 51.105C63.9146 49.445 62.5646 48.085 60.8946 48.085C59.2246 48.085 57.8746 49.435 57.8746 51.105C57.8746 52.775 59.2246 54.125 60.8946 54.125ZM128.525 60.515C127.595 58.325 126.055 56.465 124.105 55.155C122.165 53.845 119.805 53.065 117.285 53.065C115.615 53.065 113.995 53.415 112.545 54.025C110.675 54.815 109.055 56.045 107.805 57.595L107.785 57.615C107.745 57.665 107.705 57.715 107.665 57.765L96.5946 71.745C96.5946 71.745 96.5446 71.775 96.5146 71.775C96.4546 71.775 96.4046 71.725 96.4046 71.665V53.875H101.715C103.265 53.875 104.525 52.615 104.525 51.065C104.525 49.515 103.265 48.255 101.715 48.255H96.4046V37.005C96.4046 36.945 96.3546 36.895 96.2946 36.895C96.2646 36.895 96.2346 36.915 96.2246 36.935L90.8746 43.675C90.8246 43.735 90.7946 43.825 90.7946 43.915V48.265H79.9947V37.005C79.9947 36.945 79.9447 36.895 79.8847 36.895C79.8447 36.895 79.8246 36.915 79.8046 36.935L74.4547 43.675C74.3947 43.735 74.3746 43.825 74.3746 43.915V48.265H69.0647C67.5147 48.265 66.2547 49.525 66.2547 51.075C66.2547 52.625 67.5147 53.885 69.0647 53.885H74.3746V58.365L63.7547 71.755C63.7547 71.755 63.7047 71.785 63.6847 71.785C63.6247 71.785 63.5746 71.735 63.5746 71.675V59.345C63.5746 58.145 62.8147 57.085 61.6847 56.695C60.5547 56.305 59.3047 56.665 58.5647 57.605L47.3346 71.765C47.3346 71.765 47.2846 71.795 47.2646 71.795C47.2046 71.795 47.1546 71.745 47.1546 71.685V38.135C47.1546 36.585 45.8946 35.335 44.3446 35.335C42.7946 35.335 41.5346 36.585 41.5346 38.135V54.995C39.6346 53.775 37.3646 53.065 34.9546 53.065C33.2746 53.065 31.6746 53.415 30.2146 54.025C28.0146 54.955 26.1646 56.495 24.8446 58.445C23.5246 60.385 22.7646 62.745 22.7646 65.265C22.7646 66.945 23.1046 68.555 23.7246 70.015C24.6546 72.205 26.1946 74.065 28.1446 75.385C30.0846 76.695 32.4446 77.465 34.9646 77.465C36.6446 77.465 38.2546 77.125 39.7146 76.505C40.7146 76.085 41.6346 75.535 42.4746 74.885C42.8946 75.525 43.4346 76.065 44.0546 76.495C44.9546 77.105 46.0746 77.465 47.2446 77.465C48.1346 77.465 48.9946 77.255 49.7446 76.895C50.5046 76.515 51.1546 75.995 51.6746 75.345L51.6946 75.325L57.9646 67.425V71.775C57.9646 72.555 58.1246 73.305 58.4146 73.995C58.8446 75.025 59.5647 75.885 60.4747 76.505C61.3747 77.115 62.4847 77.475 63.6646 77.475C64.5546 77.475 65.4146 77.265 66.1646 76.905C66.9246 76.525 67.5747 76.005 68.0947 75.355L68.1147 75.335L74.3746 67.435V71.785C74.3746 72.565 74.5346 73.315 74.8246 74.005C75.2546 75.035 75.9747 75.895 76.8847 76.515C77.7947 77.125 78.9046 77.485 80.0746 77.485C80.9646 77.485 81.8146 77.275 82.5746 76.915C83.3346 76.535 83.9847 76.015 84.5047 75.365L84.5247 75.345L90.7946 67.445V71.795C90.7946 72.575 90.9546 73.325 91.2446 74.015C91.6746 75.045 92.3946 75.905 93.3046 76.525C94.2046 77.135 95.3146 77.495 96.4846 77.495C97.3746 77.495 98.2346 77.285 98.9846 76.925C99.7446 76.545 100.395 76.025 100.915 75.375L100.935 75.355L105.755 69.265C105.845 69.535 105.945 69.795 106.055 70.045C106.985 72.235 108.525 74.095 110.465 75.415C112.405 76.725 114.765 77.495 117.285 77.495C118.965 77.495 120.575 77.155 122.035 76.535C124.225 75.615 126.085 74.065 127.405 72.125C128.715 70.185 129.485 67.815 129.485 65.305C129.485 63.635 129.145 62.015 128.525 60.555M34.9446 71.845C31.3146 71.845 28.3646 68.905 28.3646 65.265C28.3646 61.625 31.3046 58.685 34.9446 58.685C38.5846 58.685 41.5246 61.625 41.5246 65.265C41.5246 68.905 38.5746 71.845 34.9446 71.845ZM90.7746 58.365L80.1646 71.755C80.1646 71.755 80.1147 71.785 80.0947 71.785C80.0347 71.785 79.9846 71.735 79.9846 71.675V53.885H90.7846V58.365H90.7746ZM117.455 71.845C113.825 71.845 110.875 68.905 110.875 65.265C110.875 61.625 113.825 58.685 117.455 58.685C121.085 58.685 124.035 61.625 124.035 65.265C124.035 68.905 121.095 71.845 117.455 71.845Z" fill="#3E1865"/>
</svg>
