<svg width="160" height="108" viewBox="0 0 160 108" fill="none" xmlns="http://www.w3.org/2000/svg">
<path d="M126.862 43.9693C125.297 43.9693 124.035 44.7748 124.035 45.7626V50.5727C124.035 50.5727 124.089 50.6411 124.149 50.6411C124.18 50.6411 124.21 50.6335 124.225 50.6259L129.605 46.3249C129.659 46.2869 129.689 46.2338 129.689 46.173V45.7626C129.689 44.7748 128.42 43.9693 126.862 43.9693Z" fill="#ED135D"/>
<path d="M134.4 43.9693C132.835 43.9693 131.573 44.7748 131.573 45.7626V50.5727C131.573 50.5727 131.619 50.6411 131.687 50.6411C131.718 50.6411 131.741 50.6335 131.763 50.6259L137.151 46.3249C137.204 46.2869 137.235 46.2338 137.235 46.173V45.7626C137.235 44.7748 135.973 43.9693 134.408 43.9693" fill="#ED135D"/>
<path d="M60.8807 52.5715C62.5448 52.5715 63.8974 51.7128 63.8974 50.6642C63.8974 49.6156 62.5448 48.7569 60.8807 48.7569C59.2165 48.7569 57.8639 49.6156 57.8639 50.6642C57.8639 51.7128 59.2165 52.5715 60.8807 52.5715ZM128.518 56.6217C127.591 55.2311 126.049 54.0609 124.103 53.225C122.158 52.3892 119.802 51.9028 117.28 51.9028C115.608 51.9028 113.997 52.1232 112.538 52.5107C110.676 53.0123 109.05 53.7873 107.804 54.7676L107.789 54.7828C107.743 54.8132 107.713 54.8436 107.667 54.8816L96.5879 63.7343C96.5879 63.7343 96.5423 63.7495 96.5119 63.7495C96.4511 63.7495 96.3979 63.7191 96.3979 63.6811V52.4119H101.71C103.26 52.4119 104.521 51.6141 104.521 50.6338C104.521 49.6536 103.26 48.8557 101.71 48.8557H96.3979V41.7279C96.3979 41.7279 96.3447 41.6595 96.2839 41.6595C96.2535 41.6595 96.2307 41.6671 96.2079 41.6823L90.8583 45.9529C90.8051 45.9909 90.7747 46.0441 90.7747 46.1049V48.8633H79.9767V41.7355C79.9767 41.7355 79.9311 41.6671 79.8703 41.6671C79.8323 41.6671 79.8095 41.6747 79.7943 41.6899L74.4447 45.9605C74.3915 45.9985 74.3611 46.0517 74.3611 46.1125V48.8709H69.0495C67.4993 48.8709 66.2379 49.6687 66.2379 50.649C66.2379 51.6293 67.4993 52.4271 69.0495 52.4271H74.3611V55.2691L63.7455 63.7495C63.7455 63.7495 63.6999 63.7647 63.6695 63.7647C63.6087 63.7647 63.5631 63.7343 63.5631 63.6963V55.8922C63.5631 55.1323 62.8032 54.456 61.6786 54.2129C60.5463 53.9621 59.2925 54.1977 58.5554 54.7904L47.3319 63.7571C47.3319 63.7571 47.2863 63.7723 47.2559 63.7723C47.1951 63.7723 47.1495 63.7419 47.1495 63.7039V42.4422C47.1495 41.4619 45.8881 40.6641 44.3379 40.6641C42.7877 40.6641 41.5339 41.4543 41.5339 42.4422V53.1186C39.6342 52.3436 37.3621 51.8952 34.9533 51.8952C33.2815 51.8952 31.6705 52.1156 30.2116 52.5031C28.0155 53.0882 26.1613 54.0685 24.8467 55.2995C23.5321 56.5305 22.7646 58.0199 22.7646 59.6157C22.7646 60.6795 23.1066 61.6978 23.7221 62.6249C24.6568 64.0155 26.1993 65.1857 28.1371 66.0216C30.0824 66.8498 32.438 67.3362 34.9533 67.3362C36.6326 67.3362 38.2436 67.1234 39.7026 66.7283C40.698 66.4623 41.6251 66.1127 42.461 65.7024C42.8789 66.1051 43.4184 66.4547 44.0415 66.7207C44.9458 67.1082 46.0628 67.3362 47.2255 67.3362C48.1145 67.3362 48.9732 67.207 49.7255 66.9714C50.4778 66.7359 51.1389 66.4015 51.6632 65.9912L51.6784 65.976L57.9475 60.9683V63.7267C57.9475 64.2206 58.1071 64.6993 58.3958 65.1325C58.829 65.7784 59.5509 66.3331 60.4551 66.7207C61.3594 67.1082 62.4688 67.3362 63.6391 67.3362C64.5281 67.3362 65.3868 67.207 66.1391 66.9714C66.8914 66.7359 67.5525 66.4015 68.0768 65.9912L68.0996 65.976L74.3611 60.9683V63.7267C74.3611 64.2206 74.5207 64.6993 74.8094 65.1325C75.2426 65.7784 75.9645 66.3331 76.8687 66.7207C77.7806 67.1082 78.8825 67.3362 80.0603 67.3362C80.9493 67.3362 81.808 67.207 82.5603 66.9714C83.3126 66.7359 83.9737 66.4015 84.4904 65.9912L84.5132 65.976L90.7823 60.9683V63.7267C90.7823 64.2206 90.9419 64.6993 91.2306 65.1325C91.6638 65.7784 92.3857 66.3331 93.29 66.7207C94.1942 67.1082 95.3037 67.3362 96.4739 67.3362C97.363 67.3362 98.2216 67.207 98.9815 66.9714C99.7338 66.7359 100.395 66.4015 100.912 65.9912L100.934 65.976L105.76 62.1233C105.851 62.2905 105.95 62.4577 106.064 62.6173C106.991 64.0079 108.533 65.1781 110.479 66.014C112.424 66.8422 114.78 67.3286 117.295 67.3286C118.974 67.3286 120.585 67.1158 122.044 66.7207C124.24 66.1355 126.094 65.1553 127.409 63.9243C128.716 62.6932 129.491 61.1963 129.491 59.6081C129.491 58.5442 129.149 57.526 128.526 56.5989M34.9381 63.7875C31.3058 63.7875 28.365 61.9258 28.365 59.6233C28.365 57.3208 31.3134 55.4591 34.9381 55.4591C38.5627 55.4591 41.5187 57.3208 41.5187 59.6233C41.5187 61.9258 38.5703 63.7875 34.9381 63.7875ZM90.7747 55.2539L80.1591 63.7343C80.1591 63.7343 80.1135 63.7495 80.0831 63.7495C80.0223 63.7495 79.9691 63.7191 79.9691 63.6811V52.4119H90.7671V55.2539H90.7747ZM117.454 63.7875C113.822 63.7875 110.874 61.9258 110.874 59.6233C110.874 57.3208 113.822 55.4591 117.454 55.4591C121.087 55.4591 124.027 57.3208 124.027 59.6233C124.027 61.9258 121.087 63.7875 117.454 63.7875Z" fill="#3E1865"/>
</svg>
