<svg width="160" height="108" viewBox="0 0 160 108" fill="none" xmlns="http://www.w3.org/2000/svg">
<path d="M126.877 31.9472C125.307 31.9472 124.054 33.718 124.054 35.8898V46.4648C124.054 46.4648 124.104 46.6152 124.171 46.6152C124.204 46.6152 124.238 46.5985 124.238 46.5818L129.617 37.1261C129.667 37.0426 129.701 36.9256 129.701 36.792V35.8898C129.701 33.718 128.431 31.9472 126.877 31.9472Z" fill="#ED135D"/>
<path d="M134.411 31.9472C132.841 31.9472 131.588 33.718 131.588 35.8898V46.4648C131.588 46.4648 131.638 46.6152 131.705 46.6152C131.738 46.6152 131.755 46.5985 131.772 46.5818L137.151 37.1261C137.201 37.0426 137.235 36.9256 137.235 36.792V35.8898C137.235 33.718 135.965 31.9472 134.411 31.9472Z" fill="#ED135D"/>
<path d="M60.9048 50.8592C62.5587 50.8592 63.9287 48.9714 63.9287 46.666C63.9287 44.3605 62.5754 42.4727 60.9048 42.4727C59.2342 42.4727 57.881 44.3605 57.881 46.666C57.881 48.9714 59.2342 50.8592 60.9048 50.8592ZM128.548 59.7636C127.629 56.7064 126.076 54.1336 124.138 52.296C122.2 50.4583 119.827 49.3891 117.305 49.3891C115.634 49.3891 114.014 49.8736 112.56 50.7256C110.689 51.8282 109.069 53.5322 107.816 55.6873V55.7207C107.816 55.7207 107.715 55.8544 107.682 55.9379L96.6059 75.4006C96.6059 75.4006 96.5558 75.434 96.5224 75.434C96.4555 75.434 96.4054 75.3672 96.4054 75.2836V50.5084H101.718C103.272 50.5084 104.525 48.7542 104.525 46.5992C104.525 44.4441 103.272 42.6899 101.718 42.6899H96.4054V27.0195C96.4054 27.0195 96.3553 26.8692 96.2885 26.8692C96.2551 26.8692 96.2384 26.8859 96.2217 26.9193L90.8757 36.3082C90.8255 36.3917 90.7921 36.5086 90.7921 36.6423V42.7066H79.9833V27.0362C79.9833 27.0362 79.9331 26.8859 79.883 26.8859C79.8496 26.8859 79.8162 26.9026 79.7995 26.936L74.4535 36.3249C74.4034 36.4084 74.37 36.5253 74.37 36.659V42.7233H69.0574C67.5037 42.7233 66.2508 44.4775 66.2508 46.6326C66.2508 48.7877 67.5204 50.5418 69.0574 50.5418H74.37V56.7899L63.7616 75.434C63.7616 75.434 63.7115 75.4674 63.6947 75.4674C63.6279 75.4674 63.5778 75.4006 63.5778 75.317V58.1598C63.5778 56.4892 62.826 55.0023 61.69 54.4678C60.554 53.9164 59.301 54.4343 58.5659 55.7374L47.3394 75.4507C47.3394 75.4507 47.2893 75.4841 47.2726 75.4841C47.2058 75.4841 47.1557 75.4173 47.1557 75.3338V28.5899C47.1557 26.4348 45.9027 24.6807 44.349 24.6807C42.7954 24.6807 41.5424 26.4181 41.5424 28.5899V52.0621C39.6379 50.358 37.3825 49.3724 34.9601 49.3724C33.2895 49.3724 31.669 49.8569 30.2156 50.7089C28.0104 51.9952 26.156 54.1503 24.8529 56.8567C23.5331 59.5631 22.7646 62.8375 22.7646 66.3458C22.7646 68.6847 23.1155 70.9233 23.7169 72.9615C24.6525 76.0187 26.1894 78.5915 28.1273 80.4291C30.0652 82.2501 32.4375 83.3193 34.9435 83.3193C36.6141 83.3193 38.2346 82.8515 39.688 81.9828C40.6904 81.3981 41.6092 80.6296 42.4445 79.7275C42.8622 80.6129 43.3968 81.3814 44.0316 81.9661C44.9337 82.8181 46.0531 83.3193 47.2225 83.3193C48.1079 83.3193 48.9766 83.0353 49.7284 82.5174C50.4802 81.9995 51.1484 81.2644 51.6663 80.3623V80.3289L57.9478 69.3195V75.3839C57.9478 76.4698 58.1149 77.5223 58.3989 78.4745C58.8332 79.8945 59.5516 81.1141 60.4538 81.9661C61.3559 82.8181 62.4752 83.3193 63.6446 83.3193C64.5301 83.3193 65.3988 83.0353 66.1506 82.5174C66.9023 81.9995 67.5706 81.2644 68.0885 80.3623V80.3289L74.37 69.3195V75.3839C74.37 76.4698 74.5204 77.5223 74.8211 78.4745C75.2554 79.8945 75.9738 81.1141 76.8759 81.9661C77.7781 82.8181 78.8973 83.3193 80.0668 83.3193C80.9522 83.3193 81.8042 83.0353 82.5727 82.5174C83.3245 81.9995 83.9927 81.2644 84.5106 80.3623V80.3289L90.7921 69.3195V75.3839C90.7921 76.4698 90.9425 77.5223 91.2432 78.4745C91.6776 79.8945 92.3959 81.1141 93.2981 81.9661C94.2002 82.8181 95.3195 83.3193 96.489 83.3193C97.3744 83.3193 98.2431 83.0353 98.9949 82.5174C99.7467 81.9995 100.415 81.2644 100.933 80.3623V80.3289L105.778 71.8589C105.861 72.2264 105.961 72.5939 106.078 72.9448C106.997 76.002 108.551 78.5747 110.489 80.4124C112.427 82.2334 114.799 83.3026 117.305 83.3026C118.992 83.3026 120.596 82.8348 122.049 81.9661C124.238 80.6797 126.092 78.5246 127.412 75.8182C128.715 73.1118 129.5 69.8207 129.5 66.3291C129.5 63.9903 129.166 61.7516 128.531 59.7135M34.9601 75.5175C31.3349 75.5175 28.3779 71.4245 28.3779 66.3625C28.3779 61.3006 31.3182 57.2076 34.9601 57.2076C38.6021 57.2076 41.5424 61.3006 41.5424 66.3625C41.5424 71.4245 38.6021 75.5175 34.9601 75.5175ZM90.7921 56.7565L80.1837 75.4006C80.1837 75.4006 80.1336 75.434 80.1169 75.434C80.0501 75.434 80 75.3672 80 75.2836V50.5084H90.8089V56.7565H90.7921ZM117.472 75.5175C113.847 75.5175 110.89 71.4245 110.89 66.3625C110.89 61.3006 113.847 57.2076 117.472 57.2076C121.097 57.2076 124.054 61.3006 124.054 66.3625C124.054 71.4245 121.114 75.5175 117.472 75.5175Z" fill="#3E1865"/>
</svg>
