<svg width="160" height="108" viewBox="0 0 160 108" fill="none" xmlns="http://www.w3.org/2000/svg">
<path d="M37.9546 47.9399C38.6546 48.3099 39.3346 48.8199 39.9846 49.4699V41.0899C39.9846 40.0199 39.8646 39.2799 39.6246 38.8799C39.3846 38.4799 38.8246 38.2699 37.9246 38.2699C37.7146 38.2699 37.5246 38.2699 37.3746 38.2999C37.2146 38.3199 36.8646 38.3499 36.3246 38.4099V37.5399L38.4846 36.9899C39.2746 36.7799 40.0646 36.5599 40.8546 36.3299C41.6446 36.0999 42.3446 35.8799 42.9346 35.6699C43.2146 35.5799 43.6846 35.4199 44.3346 35.1699L44.4946 35.2199L44.4446 37.9899C44.4246 38.9899 44.4046 40.0299 44.3946 41.0899C44.3846 42.1499 44.3646 43.1999 44.3646 44.2399L44.3146 65.7799C44.3146 66.9199 44.4546 67.7199 44.7346 68.1799C45.0146 68.6399 45.7646 68.8699 46.9746 68.8699C47.1646 68.8699 47.3646 68.8699 47.5546 68.8599C47.7446 68.8499 47.9446 68.8299 48.1346 68.7899V69.6599C48.0246 69.6999 46.7546 70.1299 44.3146 70.9799L40.1746 72.5399L39.9946 72.2999V69.0599C39.0146 70.1299 38.1546 70.8999 37.4346 71.3499C36.1546 72.1399 34.6646 72.5399 32.9746 72.5399C29.9846 72.5399 27.5646 71.3799 25.7146 69.0699C23.8546 66.7599 22.9346 64.0799 22.9346 61.0399C22.9346 57.2299 24.0446 53.9499 26.2646 51.2199C28.4846 48.4899 31.2046 47.1199 34.4246 47.1199C35.7046 47.1199 36.8846 47.3999 37.9546 47.9599V47.9399ZM38.7246 68.4499C39.5646 67.6399 39.9946 66.8799 39.9946 66.1599V54.8499C39.9946 52.5699 39.3846 50.9499 38.1646 50.0099C36.9446 49.0699 35.7546 48.5999 34.5946 48.5999C32.3846 48.5999 30.6546 49.5799 29.4246 51.5399C28.1946 53.4999 27.5746 55.9099 27.5746 58.7799C27.5746 61.6499 28.2246 64.1299 29.5346 66.3499C30.8446 68.5699 32.8046 69.6699 35.4046 69.6699C36.7746 69.6699 37.8846 69.2699 38.7246 68.4599V68.4499Z" fill="#3E1865"/>
<path d="M48.6047 71.28C50.4847 71.11 51.6747 70.78 52.1647 70.32C52.6547 69.86 52.9047 68.59 52.9047 66.54V53.96C52.9047 52.82 52.8247 52.03 52.6647 51.59C52.4047 50.87 51.8447 50.51 51.0047 50.51C50.8147 50.51 50.6247 50.53 50.4347 50.56C50.2547 50.6 49.7147 50.74 48.8447 50.98V50.16L49.9747 49.79C53.0547 48.79 55.1947 48.03 56.4047 47.52C56.8947 47.31 57.2147 47.2 57.3547 47.2C57.3947 47.32 57.4047 47.45 57.4047 47.6V66.53C57.4047 68.53 57.6447 69.79 58.1247 70.3C58.6047 70.81 59.7047 71.13 61.4047 71.28V72.02H48.5947V71.28H48.6047ZM52.8047 36.02C53.3347 35.48 53.9847 35.21 54.7547 35.21C55.5247 35.21 56.1547 35.48 56.6947 36.01C57.2347 36.54 57.4947 37.2 57.4947 37.97C57.4947 38.74 57.2247 39.37 56.6947 39.9C56.1547 40.43 55.5147 40.7 54.7547 40.7C53.9947 40.7 53.3347 40.43 52.8047 39.9C52.2747 39.37 52.0147 38.72 52.0147 37.97C52.0147 37.22 52.2747 36.57 52.8047 36.03V36.02Z" fill="#3E1865"/>
<path d="M75.2646 47.7007V49.6007H69.8846L69.8346 64.7907C69.8346 66.1307 69.9446 67.1407 70.1746 67.8207C70.5946 69.0307 71.4246 69.6407 72.6546 69.6407C73.2846 69.6407 73.8346 69.4907 74.3046 69.1907C74.7646 68.8907 75.3046 68.4207 75.8946 67.7707L76.5846 68.3507L76.0046 69.1407C75.0946 70.3707 74.1246 71.2407 73.1046 71.7507C72.0846 72.2607 71.1046 72.5107 70.1546 72.5107C68.0846 72.5107 66.6746 71.5907 65.9346 69.7407C65.5346 68.7407 65.3246 67.3507 65.3246 65.5707V49.5907H62.4546C62.3646 49.5407 62.3046 49.4807 62.2546 49.4307C62.2046 49.3807 62.1846 49.3107 62.1846 49.2207C62.1846 49.0507 62.2246 48.9107 62.3046 48.8107C62.3846 48.7107 62.6346 48.4907 63.0546 48.1407C64.2646 47.1407 65.1446 46.3307 65.6746 45.7007C66.2046 45.0707 67.4746 43.4307 69.4546 40.7607C69.6846 40.7607 69.8146 40.7807 69.8646 40.8107C69.9046 40.8507 69.9346 40.9807 69.9346 41.2107V47.7007H75.2646Z" fill="#3E1865"/>
<path d="M89.244 47.7007V49.6007H83.8641L83.8141 64.7907C83.8141 66.1307 83.9241 67.1407 84.1541 67.8207C84.5741 69.0307 85.4041 69.6407 86.6341 69.6407C87.2641 69.6407 87.8141 69.4907 88.2841 69.1907C88.7441 68.8907 89.2841 68.4207 89.8741 67.7707L90.5641 68.3507L89.9841 69.1407C89.0741 70.3707 88.1041 71.2407 87.0841 71.7507C86.0641 72.2607 85.0841 72.5107 84.1341 72.5107C82.0641 72.5107 80.6541 71.5907 79.9141 69.7407C79.5141 68.7407 79.304 67.3507 79.304 65.5707V49.5907H76.4341C76.3441 49.5407 76.2841 49.4807 76.2341 49.4307C76.1841 49.3807 76.1641 49.3107 76.1641 49.2207C76.1641 49.0507 76.2041 48.9107 76.2841 48.8107C76.3641 48.7107 76.6141 48.4907 77.0341 48.1407C78.2441 47.1407 79.1241 46.3307 79.6541 45.7007C80.1841 45.0707 81.4541 43.4307 83.4341 40.7607C83.6641 40.7607 83.7941 40.7807 83.8441 40.8107C83.8841 40.8507 83.9141 40.9807 83.9141 41.2107V47.7007H89.244Z" fill="#3E1865"/>
<path d="M94.1945 50.9103C96.4145 48.4903 99.2745 47.2803 102.774 47.2803C106.274 47.2803 109.134 48.4203 111.424 50.7103C113.714 53.0003 114.854 56.0403 114.854 59.8303C114.854 63.3303 113.745 66.3703 111.535 68.9503C109.325 71.5303 106.454 72.8303 102.934 72.8303C99.4145 72.8303 96.7045 71.5903 94.3645 69.1103C92.0245 66.6303 90.8545 63.5203 90.8545 59.7803C90.8545 56.2803 91.9645 53.3203 94.1945 50.9103ZM98.4045 50.2303C96.6445 51.8303 95.7645 54.5903 95.7645 58.5103C95.7645 61.6403 96.4745 64.5603 97.8945 67.2603C99.3145 69.9703 101.284 71.3203 103.794 71.3203C105.764 71.3203 107.284 70.4103 108.354 68.6003C109.424 66.7903 109.954 64.4203 109.954 61.4803C109.954 58.5403 109.274 55.5703 107.924 52.8803C106.574 50.1903 104.604 48.8503 102.034 48.8503C100.644 48.8503 99.4345 49.3103 98.4145 50.2203L98.4045 50.2303Z" fill="#3E1865"/>
<path d="M122.775 45.47C121.485 46.98 120.095 48.06 118.625 48.73L118.155 47.68C119.405 46.89 120.455 46.01 121.305 45.05C122.155 44.09 122.585 43.05 122.585 41.94C122.585 41.75 122.535 41.58 122.435 41.44C122.335 41.3 122.155 41.23 121.895 41.23C120.845 41.35 120.224 41.41 120.044 41.41C119.464 41.41 118.915 41.25 118.385 40.94C117.555 40.43 117.145 39.64 117.145 38.57C117.145 37.83 117.405 37.14 117.935 36.5C118.465 35.86 119.275 35.54 120.385 35.54C121.655 35.54 122.685 36.02 123.495 36.99C124.305 37.96 124.705 39.07 124.705 40.32C124.705 42.26 124.055 43.98 122.765 45.49L122.775 45.47ZM135.195 45.38C133.935 46.93 132.545 48.05 131.015 48.74L130.515 47.69C132.375 46.61 133.674 45.35 134.414 43.9C134.784 43.16 134.965 42.48 134.965 41.86C134.965 41.67 134.895 41.51 134.765 41.4C134.635 41.29 134.455 41.23 134.225 41.23C133.185 41.35 132.595 41.41 132.435 41.41C131.735 41.41 131.065 41.17 130.445 40.7C129.825 40.23 129.505 39.53 129.505 38.62C129.505 37.71 129.785 37.01 130.345 36.42C130.905 35.83 131.705 35.54 132.745 35.54C133.955 35.54 134.985 36.01 135.815 36.95C136.645 37.89 137.065 39.09 137.065 40.53C137.065 42.22 136.434 43.84 135.174 45.39L135.195 45.38Z" fill="#ED135D"/>
</svg>
