<svg width="160" height="108" viewBox="0 0 160 108" fill="none" xmlns="http://www.w3.org/2000/svg">
<path d="M29.3251 38.1301C27.7651 38.1301 26.4951 39.4001 26.4951 40.9601V48.5501C26.4951 48.6101 26.5451 48.6601 26.6051 48.6601C26.6351 48.6601 26.6651 48.6501 26.6751 48.6301L32.0551 41.8301C32.1051 41.7701 32.1351 41.6901 32.1351 41.5901V40.9501C32.1351 39.3901 30.8651 38.1201 29.3051 38.1201" fill="#ED135D"/>
<path d="M36.8652 38.1301C35.3052 38.1301 34.0352 39.4001 34.0352 40.9601V48.5501C34.0352 48.6101 34.0852 48.6601 34.1452 48.6601C34.1752 48.6601 34.2052 48.6501 34.2252 48.6301L39.6052 41.8301C39.6552 41.7701 39.6852 41.6901 39.6852 41.5901V40.9501C39.6852 39.3901 38.4252 38.1201 36.8552 38.1201" fill="#ED135D"/>
<path d="M64.9152 51.7199C66.5752 51.7199 67.9352 50.3599 67.9352 48.6999C67.9352 47.0399 66.5852 45.6799 64.9152 45.6799C63.2452 45.6799 61.8952 47.0299 61.8952 48.6999C61.8952 50.3699 63.2452 51.7199 64.9152 51.7199ZM132.545 58.0999C131.615 55.9099 130.075 54.0499 128.125 52.7399C126.185 51.4299 123.825 50.6499 121.305 50.6499C119.635 50.6499 118.015 50.9999 116.565 51.6099C114.695 52.3999 113.075 53.6299 111.825 55.1799L111.805 55.1999C111.765 55.2499 111.725 55.2999 111.685 55.3499L100.615 69.3299C100.615 69.3299 100.565 69.3599 100.535 69.3599C100.475 69.3599 100.425 69.3099 100.425 69.2499V51.4599H105.735C107.285 51.4599 108.545 50.1999 108.545 48.6499C108.545 47.0999 107.285 45.8399 105.735 45.8399H100.425V34.5899C100.425 34.5299 100.375 34.4799 100.315 34.4799C100.285 34.4799 100.255 34.4999 100.245 34.5199L94.8952 41.2599C94.8452 41.3199 94.8152 41.4099 94.8152 41.4999V45.8499H84.0152V34.5899C84.0152 34.5299 83.9652 34.4799 83.9052 34.4799C83.8652 34.4799 83.8452 34.4999 83.8252 34.5199L78.4752 41.2599C78.4152 41.3199 78.3952 41.4099 78.3952 41.4999V45.8499H73.0852C71.5352 45.8499 70.2752 47.1099 70.2752 48.6599C70.2752 50.2099 71.5352 51.4699 73.0852 51.4699H78.3952V55.9499L67.7752 69.3399C67.7752 69.3399 67.7252 69.3699 67.7052 69.3699C67.6452 69.3699 67.5952 69.3199 67.5952 69.2599V56.9299C67.5952 55.7299 66.8352 54.6699 65.7052 54.2799C64.5752 53.8899 63.3252 54.2499 62.5852 55.1899L51.3552 69.3499C51.3552 69.3499 51.3052 69.3799 51.2852 69.3799C51.2252 69.3799 51.1752 69.3299 51.1752 69.2699V35.7199C51.1752 34.1699 49.9152 32.9199 48.3652 32.9199C46.8152 32.9199 45.5552 34.1699 45.5552 35.7199V52.5799C43.6552 51.3599 41.3852 50.6499 38.9752 50.6499C37.2952 50.6499 35.6952 50.9999 34.2352 51.6099C32.0352 52.5399 30.1852 54.0799 28.8652 56.0299C27.5452 57.9699 26.7852 60.3299 26.7852 62.8499C26.7852 64.5299 27.1252 66.1399 27.7452 67.5999C28.6752 69.7899 30.2152 71.6499 32.1652 72.9699C34.1052 74.2799 36.4652 75.0499 38.9852 75.0499C40.6652 75.0499 42.2752 74.7099 43.7352 74.0899C44.7352 73.6699 45.6552 73.1199 46.4952 72.4699C46.9152 73.1099 47.4552 73.6499 48.0752 74.0799C48.9752 74.6899 50.0952 75.0499 51.2652 75.0499C52.1552 75.0499 53.0152 74.8399 53.7652 74.4799C54.5252 74.0999 55.1752 73.5799 55.6952 72.9299L55.7152 72.9099L61.9852 65.0099V69.3599C61.9852 70.1399 62.1452 70.8899 62.4352 71.5799C62.8652 72.6099 63.5852 73.4699 64.4952 74.0899C65.3952 74.6999 66.5052 75.0599 67.6852 75.0599C68.5752 75.0599 69.4352 74.8499 70.1852 74.4899C70.9452 74.1099 71.5952 73.5899 72.1152 72.9399L72.1352 72.9199L78.3952 65.0199V69.3699C78.3952 70.1499 78.5552 70.8999 78.8452 71.5899C79.2752 72.6199 79.9952 73.4799 80.9052 74.0999C81.8152 74.7099 82.9252 75.0699 84.0952 75.0699C84.9852 75.0699 85.8352 74.8599 86.5952 74.4999C87.3552 74.1199 88.0052 73.5999 88.5252 72.9499L88.5452 72.9299L94.8152 65.0299V69.3799C94.8152 70.1599 94.9752 70.9099 95.2652 71.5999C95.6952 72.6299 96.4152 73.4899 97.3252 74.1099C98.2252 74.7199 99.3352 75.0799 100.505 75.0799C101.395 75.0799 102.255 74.8699 103.005 74.5099C103.765 74.1299 104.415 73.6099 104.935 72.9599L104.955 72.9399L109.775 66.8499C109.865 67.1199 109.965 67.3799 110.075 67.6299C111.005 69.8199 112.545 71.6799 114.485 72.9999C116.425 74.3099 118.785 75.0799 121.305 75.0799C122.985 75.0799 124.595 74.7399 126.055 74.1199C128.245 73.1999 130.105 71.6499 131.425 69.7099C132.735 67.7699 133.505 65.3999 133.505 62.8899C133.505 61.2199 133.165 59.5999 132.545 58.1399M38.9752 69.4299C35.3452 69.4299 32.3952 66.4899 32.3952 62.8499C32.3952 59.2099 35.3352 56.2699 38.9752 56.2699C42.6152 56.2699 45.5552 59.2099 45.5552 62.8499C45.5552 66.4899 42.6052 69.4299 38.9752 69.4299ZM94.8052 55.9499L84.1952 69.3399C84.1952 69.3399 84.1552 69.3699 84.1252 69.3699C84.0652 69.3699 84.0152 69.3199 84.0152 69.2599V51.4699H94.8152V55.9499H94.8052ZM121.485 69.4299C117.855 69.4299 114.905 66.4899 114.905 62.8499C114.905 59.2099 117.855 56.2699 121.485 56.2699C125.115 56.2699 128.065 59.2099 128.065 62.8499C128.065 66.4899 125.125 69.4299 121.485 69.4299Z" fill="#3E1865"/>
</svg>
