<svg width="160" height="108" viewBox="0 0 160 108" fill="none" xmlns="http://www.w3.org/2000/svg">
<path d="M64.7796 51.7199C66.4396 51.7199 67.7996 50.3599 67.7996 48.6999C67.7996 47.0399 66.4396 45.6799 64.7796 45.6799C63.1196 45.6799 61.7596 47.0299 61.7596 48.6999C61.7596 50.3699 63.1096 51.7199 64.7796 51.7199ZM132.41 58.0999C131.48 55.9099 129.94 54.0499 127.99 52.7399C126.05 51.4299 123.69 50.6499 121.17 50.6499C119.5 50.6499 117.88 50.9999 116.43 51.6099C114.56 52.3999 112.94 53.6299 111.69 55.1799L111.67 55.1999C111.63 55.2499 111.59 55.2999 111.55 55.3499L100.48 69.3299C100.48 69.3299 100.43 69.3599 100.4 69.3599C100.34 69.3599 100.29 69.3099 100.29 69.2499V51.4599H105.6C107.15 51.4599 108.41 50.1999 108.41 48.6499C108.41 47.0999 107.15 45.8399 105.6 45.8399H100.29V34.5899C100.29 34.5299 100.24 34.4799 100.18 34.4799C100.15 34.4799 100.12 34.4999 100.11 34.5199L94.7596 41.2599C94.7096 41.3199 94.6796 41.4099 94.6796 41.4999V45.8499H83.8796V34.5899C83.8796 34.5299 83.8296 34.4799 83.7696 34.4799C83.7296 34.4799 83.7096 34.4999 83.6896 34.5199L78.3396 41.2599C78.2796 41.3199 78.2596 41.4099 78.2596 41.4999V45.8499H72.9496C71.3996 45.8499 70.1396 47.1099 70.1396 48.6599C70.1396 50.2099 71.3996 51.4699 72.9496 51.4699H78.2596V55.9499L67.6396 69.3399C67.6396 69.3399 67.5896 69.3699 67.5696 69.3699C67.5096 69.3699 67.4596 69.3199 67.4596 69.2599V56.9299C67.4596 55.7299 66.6996 54.6699 65.5696 54.2799C64.4396 53.8899 63.1896 54.2499 62.4496 55.1899L51.2196 69.3499C51.2196 69.3499 51.1696 69.3799 51.1396 69.3799C51.0796 69.3799 51.0296 69.3299 51.0296 69.2699V35.7199C51.0296 34.1699 49.7696 32.9199 48.2196 32.9199C46.6696 32.9199 45.4096 34.1699 45.4096 35.7199V52.5799C43.5096 51.3599 41.2396 50.6499 38.8296 50.6499C37.1496 50.6499 35.5496 50.9999 34.0896 51.6099C31.8896 52.5399 30.0396 54.0799 28.7196 56.0299C27.3996 57.9699 26.6396 60.3299 26.6396 62.8499C26.6396 64.5299 26.9796 66.1399 27.5996 67.5999C28.5296 69.7899 30.0696 71.6499 32.0196 72.9699C33.9596 74.2799 36.3196 75.0499 38.8396 75.0499C40.5196 75.0499 42.1296 74.7099 43.5896 74.0899C44.5896 73.6699 45.5096 73.1199 46.3496 72.4699C46.7696 73.1099 47.3096 73.6499 47.9296 74.0799C48.8296 74.6899 49.9496 75.0499 51.1196 75.0499C52.0096 75.0499 52.8696 74.8399 53.6196 74.4799C54.3796 74.0999 55.0296 73.5799 55.5496 72.9299L55.5696 72.9099L61.8396 65.0099V69.3599C61.8396 70.1399 61.9996 70.8899 62.2896 71.5799C62.7196 72.6099 63.4396 73.4699 64.3496 74.0899C65.2496 74.6999 66.3596 75.0599 67.5396 75.0599C68.4296 75.0599 69.2896 74.8499 70.0396 74.4899C70.7996 74.1099 71.4496 73.5899 71.9696 72.9399L71.9896 72.9199L78.2496 65.0199V69.3699C78.2496 70.1499 78.4096 70.8999 78.6996 71.5899C79.1296 72.6199 79.8496 73.4799 80.7596 74.0999C81.6696 74.7099 82.7796 75.0699 83.9496 75.0699C84.8396 75.0699 85.6896 74.8599 86.4496 74.4999C87.2096 74.1199 87.8596 73.5999 88.3796 72.9499L88.3996 72.9299L94.6696 65.0299V69.3799C94.6696 70.1599 94.8296 70.9099 95.1196 71.5999C95.5496 72.6299 96.2696 73.4899 97.1796 74.1099C98.0796 74.7199 99.1896 75.0799 100.36 75.0799C101.25 75.0799 102.11 74.8699 102.86 74.5099C103.62 74.1299 104.27 73.6099 104.79 72.9599L104.81 72.9399L109.63 66.8499C109.72 67.1199 109.82 67.3799 109.93 67.6299C110.86 69.8199 112.4 71.6799 114.34 72.9999C116.28 74.3099 118.64 75.0799 121.16 75.0799C122.84 75.0799 124.45 74.7399 125.91 74.1199C128.1 73.1999 129.96 71.6499 131.28 69.7099C132.59 67.7699 133.36 65.3999 133.36 62.8899C133.36 61.2199 133.02 59.5999 132.4 58.1399M38.8396 69.4299C35.2096 69.4299 32.2596 66.4899 32.2596 62.8499C32.2596 59.2099 35.2096 56.2699 38.8396 56.2699C42.4696 56.2699 45.4196 59.2099 45.4196 62.8499C45.4196 66.4899 42.4696 69.4299 38.8396 69.4299ZM94.6696 55.9499L84.0596 69.3399C84.0596 69.3399 84.0196 69.3699 83.9896 69.3699C83.9296 69.3699 83.8796 69.3199 83.8796 69.2599V51.4699H94.6796V55.9499H94.6696ZM121.35 69.4299C117.72 69.4299 114.77 66.4899 114.77 62.8499C114.77 59.2099 117.72 56.2699 121.35 56.2699C124.98 56.2699 127.93 59.2099 127.93 62.8499C127.93 66.4899 124.99 69.4299 121.35 69.4299Z" fill="#3E1865"/>
</svg>
