<svg width="160" height="108" viewBox="0 0 160 108" fill="none" xmlns="http://www.w3.org/2000/svg">
<path fill-rule="evenodd" clip-rule="evenodd" d="M126.848 37.6751L126.85 37.665C128.661 37.665 130.135 39.1387 130.135 40.95V41.59C130.135 41.7835 130.076 41.9673 129.954 42.1159L124.59 48.8957C124.518 48.9993 124.421 49.0511 124.362 49.075C124.285 49.1054 124.211 49.115 124.15 49.115C123.839 49.115 123.585 48.8614 123.585 48.55V40.96C123.585 39.1562 125.047 37.6872 126.848 37.6751ZM126.872 38.5751L126.87 38.585C125.561 38.585 124.495 39.6513 124.495 40.96V47.5491L129.225 41.5707V40.95C129.225 39.6488 128.171 38.5872 126.872 38.5751Z" fill="#ED135D"/>
<path fill-rule="evenodd" clip-rule="evenodd" d="M133.955 37.7064C132.358 37.9287 131.125 39.3031 131.125 40.96V48.55C131.125 48.8612 131.379 49.115 131.69 49.115C131.81 49.115 131.967 49.0764 132.092 48.9518L132.11 48.9332L137.514 42.1161C137.636 41.9674 137.695 41.7835 137.695 41.59V40.95C137.695 39.1398 136.232 37.665 134.41 37.665H133.955V37.7064ZM134.63 38.585H134.41C133.101 38.585 132.035 39.6513 132.035 40.96V47.5632L136.785 41.5706V40.95C136.785 39.7141 135.843 38.6959 134.63 38.585Z" fill="#ED135D"/>
<path fill-rule="evenodd" clip-rule="evenodd" d="M41.0747 35.7198C41.0747 33.9164 42.5405 32.4648 44.3397 32.4648C46.1389 32.4648 47.6047 33.9164 47.6047 35.7198V68.2935L58.2122 54.9184V54.9184C59.0734 53.8249 60.5273 53.4073 61.8381 53.8597C63.1509 54.3128 64.0347 55.545 64.0347 56.9398V68.2709L73.9247 55.8013V51.9348H69.0697C67.2684 51.9348 65.8047 50.4711 65.8047 48.6698C65.8047 46.8686 67.2684 45.4048 69.0697 45.4048H73.9247V41.5098C73.9247 41.3772 73.9502 41.1535 74.1153 40.9719L79.4695 34.2265L79.488 34.2081L79.4913 34.2048C79.5232 34.1724 79.6587 34.0348 79.8897 34.0348C80.2011 34.0348 80.4547 34.2886 80.4547 34.5998V45.4048H90.3447V41.5098C90.3447 41.2989 90.4316 41.111 90.5359 40.9837L95.8694 34.2645C95.9198 34.1918 95.982 34.1429 96.0331 34.1122C96.1021 34.0708 96.1971 34.0348 96.3097 34.0348C96.6211 34.0348 96.8747 34.2886 96.8747 34.5998V45.3948H101.73C103.531 45.3948 104.995 46.8586 104.995 48.6598C104.995 50.4611 103.531 51.9248 101.73 51.9248H96.8747V68.2722L107.323 55.0774L107.46 54.906L107.481 54.8846C108.785 53.287 110.45 52.0174 112.383 51.2007C113.886 50.5682 115.567 50.2048 117.3 50.2048C119.914 50.2048 122.362 51.0141 124.374 52.3728C126.387 53.7319 127.984 55.6611 128.948 57.932L129.016 58.0903L129.005 58.122C129.607 59.5958 129.935 61.2191 129.935 62.8898C129.935 65.4942 129.126 67.9523 127.767 69.9645C126.408 71.9761 124.48 73.584 122.207 74.539C120.691 75.1825 119.021 75.5348 117.28 75.5348C114.666 75.5348 112.218 74.7363 110.205 73.3769L110.204 73.376C108.193 72.0078 106.597 70.0802 105.632 67.8103C105.625 67.7935 105.617 67.7766 105.61 67.7596L101.27 73.243L101.249 73.2642C100.689 73.958 99.9922 74.5123 99.1832 74.9168L99.1766 74.9201C98.3676 75.3084 97.4405 75.5348 96.4797 75.5348C95.2169 75.5348 94.0183 75.1466 93.0444 74.4865L93.0435 74.4859C92.0639 73.8184 91.2855 72.8902 90.8201 71.7759C90.5076 71.0322 90.3347 70.2225 90.3347 69.3798V66.335L84.8598 73.2332L84.8388 73.2542C84.279 73.948 83.5822 74.5023 82.7732 74.9068L82.7645 74.9111C81.948 75.2979 81.0317 75.5248 80.0697 75.5248C78.8065 75.5248 77.6088 75.1364 76.6263 74.4778L76.6235 74.4759C75.6438 73.8084 74.8655 72.8802 74.4001 71.7659C74.0876 71.0222 73.9147 70.2125 73.9147 69.3698V66.3267L68.45 73.223L68.429 73.244C67.8691 73.9379 67.1722 74.4923 66.3632 74.8968L66.3566 74.9001C65.5476 75.2884 64.6205 75.5149 63.6597 75.5149C62.3965 75.5149 61.1988 75.1264 60.2163 74.4678L60.2135 74.4659C59.2338 73.7984 58.4555 72.8702 57.9901 71.7559C57.6776 71.0122 57.5047 70.2025 57.5047 69.3598V66.315L52.0299 73.2131L52.009 73.234C51.4491 73.9279 50.7523 74.4823 49.9432 74.8868L49.9366 74.8901C49.1276 75.2784 48.2005 75.5048 47.2397 75.5048C45.9777 75.5048 44.769 75.117 43.7944 74.4565L43.7904 74.4537C43.2553 74.0826 42.7739 73.6338 42.3697 73.1122C41.6042 73.6628 40.7764 74.1353 39.8861 74.5093C38.3707 75.1526 36.7008 75.5048 34.9597 75.5048C32.3464 75.5048 29.8981 74.7063 27.8851 73.3469C25.8629 71.9781 24.2653 70.0488 23.3009 67.7777C22.6572 66.2619 22.3047 64.5915 22.3047 62.8498C22.3047 60.2379 23.0925 57.789 24.4632 55.7743C25.8317 53.7529 27.7504 52.1555 30.0325 51.1908L30.0343 51.19C31.5465 50.5582 33.2059 50.1948 34.9497 50.1948C37.1597 50.1948 39.2564 50.7705 41.0747 51.7783V35.7198ZM96.6097 69.3398C96.8437 69.73 96.8436 69.7301 96.8436 69.7301L96.8419 69.7311L96.8398 69.7324L96.8343 69.7356L96.8192 69.744C96.8077 69.7503 96.7912 69.7589 96.7716 69.768L96.7694 69.769C96.7485 69.7788 96.6499 69.8248 96.5297 69.8248C96.2183 69.8248 95.9647 69.5711 95.9647 69.2598V51.0148H101.73C103.028 51.0148 104.085 49.9586 104.085 48.6598C104.085 47.3611 103.028 46.3048 101.73 46.3048H95.9647V35.6082L91.2547 41.5419V46.3148H79.5447V35.5956L74.8347 41.5293V46.3148H69.0697C67.771 46.3148 66.7147 47.3711 66.7147 48.6698C66.7147 49.9686 67.771 51.0248 69.0697 51.0248H74.8347V56.1184L64.0647 69.6974L63.9938 69.74L63.9925 69.7408L63.9909 69.7417L63.9868 69.7442L63.9746 69.7511C63.9653 69.7563 63.9517 69.7638 63.9357 69.7718C63.921 69.7792 63.8971 69.7906 63.8688 69.8012L63.8674 69.8017C63.8506 69.8081 63.7796 69.8349 63.6897 69.8349C63.3783 69.8349 63.1247 69.5811 63.1247 69.2698V56.9398C63.1247 55.9347 62.4885 55.0469 61.5412 54.7199C60.5923 54.3924 59.546 54.6952 58.9272 55.4813L58.9262 55.4826L47.6447 69.7075L47.5737 69.75L47.3397 69.3598C47.5737 69.75 47.5737 69.75 47.5737 69.75L47.5719 69.7511L47.5698 69.7524L47.5643 69.7556L47.5492 69.764C47.5377 69.7703 47.5212 69.7789 47.5016 69.788L47.4994 69.789C47.4785 69.7988 47.38 69.8448 47.2597 69.8448C46.9483 69.8448 46.6947 69.5911 46.6947 69.2798V35.7198C46.6947 34.4232 45.6405 33.3748 44.3397 33.3748C43.0389 33.3748 41.9847 34.4232 41.9847 35.7198V53.4127L41.2838 52.9627C39.4548 51.7883 37.2697 51.1048 34.9497 51.1048C33.3337 51.1048 31.7934 51.4414 30.3857 52.0294C28.2685 52.9247 26.4878 54.4069 25.2165 56.2849L25.2159 56.2858C23.9468 58.151 23.2147 60.422 23.2147 62.8498C23.2147 64.4682 23.5422 66.0178 24.1385 67.422C25.034 69.5307 26.5167 71.3217 28.3943 72.5928C30.2613 73.8534 32.533 74.5948 34.9597 74.5948C36.5781 74.5948 38.1276 74.2674 39.5319 73.671L39.5335 73.6703C40.4944 73.2668 41.3803 72.7375 42.1912 72.11L42.5802 71.809L42.8501 72.2202C43.2357 72.8078 43.7328 73.306 44.3069 73.7045C45.132 74.2632 46.1625 74.5948 47.2397 74.5948C48.0576 74.5948 48.8493 74.4019 49.5396 74.0712C50.2413 73.7197 50.8377 73.2415 51.3144 72.6456L51.3301 72.626L51.3495 72.6066L58.4147 63.7047V69.3598C58.4147 70.0771 58.5617 70.7673 58.8291 71.4036L58.8296 71.4046C59.2241 72.3495 59.8852 73.1408 60.7248 73.7131C61.562 74.2738 62.5836 74.6048 63.6597 74.6048C64.4776 74.6048 65.2693 74.4119 65.9595 74.0812C66.6613 73.7298 67.2577 73.2515 67.7344 72.6556L67.7501 72.636L67.7694 72.6167L74.8247 63.713V69.3698C74.8247 70.0871 74.9717 70.7773 75.2391 71.4136L75.2396 71.4146C75.6341 72.3595 76.2952 73.1508 77.1348 73.7231C77.972 74.2838 78.9936 74.6148 80.0697 74.6148C80.886 74.6148 81.6682 74.4227 82.3706 74.0907C83.0719 73.7393 83.6679 73.2612 84.1444 72.6656L84.1602 72.6458L84.1796 72.6265L91.2447 63.7247V69.3798C91.2447 70.0971 91.3917 70.7873 91.6592 71.4236L91.6596 71.4246C92.0541 72.3697 92.7154 73.161 93.5552 73.7333C94.3813 74.2932 95.4026 74.6248 96.4797 74.6248C97.2976 74.6248 98.0893 74.4319 98.7796 74.1012C99.4813 73.7498 100.078 73.2715 100.554 72.6756L100.57 72.6558L100.589 72.6367L105.915 65.9076L106.181 66.706C106.267 66.9632 106.362 67.21 106.466 67.4466L106.469 67.452C107.364 69.5608 108.847 71.3521 110.715 72.6233C112.582 73.8837 114.853 74.6248 117.28 74.6248C118.898 74.6248 120.448 74.2974 121.852 73.701L121.853 73.7004C123.96 72.8153 125.751 71.3234 127.013 69.4552C128.274 67.5874 129.025 65.3055 129.025 62.8898C129.025 61.2813 128.697 59.7217 128.101 58.3177L128.034 58.1594L128.043 58.1312C127.141 56.09 125.686 54.3565 123.865 53.1269C121.997 51.8655 119.725 51.1148 117.3 51.1148C115.693 51.1148 114.133 51.4517 112.736 52.0391C110.937 52.7994 109.387 53.9831 108.173 55.4768L108.158 55.495L108.139 55.5137L108.036 55.6423L108.035 55.6441L96.9149 69.6874L96.8436 69.7301L96.6097 69.3398ZM57.4247 48.6998C57.4247 46.7786 58.9784 45.2248 60.8997 45.2248C62.822 45.2248 64.3747 46.7895 64.3747 48.6998C64.3747 50.6111 62.811 52.1748 60.8997 52.1748C58.9784 52.1748 57.4247 50.6211 57.4247 48.6998ZM60.8997 46.1348C59.481 46.1348 58.3347 47.2811 58.3347 48.6998C58.3347 50.1186 59.481 51.2648 60.8997 51.2648C62.3084 51.2648 63.4647 50.1086 63.4647 48.6998C63.4647 47.2902 62.3174 46.1348 60.8997 46.1348ZM79.5447 51.0148H91.2547V56.4048H91.0097L80.4998 69.6686L80.4527 69.7039L80.1797 69.3398C80.4527 69.7039 80.4527 69.7039 80.4527 69.7039L80.4516 69.7047L80.4504 69.7055L80.4479 69.7074L80.4418 69.7118C80.4372 69.715 80.4317 69.7189 80.4253 69.7231C80.413 69.7314 80.3953 69.7426 80.3738 69.7543L80.3726 69.755C80.3475 69.7687 80.2447 69.8248 80.1097 69.8248C79.7985 69.8248 79.5447 69.5712 79.5447 69.2598V51.0148ZM80.4547 68.2602L90.3447 55.7788V51.9248H80.4547V68.2602ZM34.9597 56.7248C31.5805 56.7248 28.8347 59.4616 28.8347 62.8498C28.8347 66.2381 31.5805 68.9748 34.9597 68.9748C38.3389 68.9748 41.0847 66.2381 41.0847 62.8498C41.0847 59.4616 38.3389 56.7248 34.9597 56.7248ZM27.9247 62.8498C27.9247 58.9581 31.0789 55.8148 34.9597 55.8148C38.8405 55.8148 41.9947 58.9581 41.9947 62.8498C41.9947 66.7416 38.8405 69.8848 34.9597 69.8848C31.0789 69.8848 27.9247 66.7416 27.9247 62.8498ZM117.47 56.7248C114.091 56.7248 111.345 59.4616 111.345 62.8498C111.345 66.2381 114.091 68.9748 117.47 68.9748C120.858 68.9748 123.595 66.2386 123.595 62.8498C123.595 59.4616 120.849 56.7248 117.47 56.7248ZM110.435 62.8498C110.435 58.9581 113.589 55.8148 117.47 55.8148C121.351 55.8148 124.505 58.9581 124.505 62.8498C124.505 66.7411 121.361 69.8848 117.47 69.8848C113.589 69.8848 110.435 66.7416 110.435 62.8498Z" fill="#3E1865"/>
</svg>
