<svg width="160" height="108" viewBox="0 0 160 108" fill="none" xmlns="http://www.w3.org/2000/svg">
<path d="M126.87 38.1291C125.31 38.1291 124.04 39.3991 124.04 40.9591V48.5491C124.04 48.6091 124.09 48.6591 124.15 48.6591C124.18 48.6591 124.21 48.6491 124.22 48.6291L129.6 41.8291C129.65 41.7691 129.68 41.6891 129.68 41.5891V40.9491C129.68 39.3891 128.41 38.1191 126.85 38.1191" fill="#F7931E"/>
<path d="M134.41 38.1291C132.85 38.1291 131.58 39.3991 131.58 40.9591V48.5491C131.58 48.6091 131.63 48.6591 131.69 48.6591C131.72 48.6591 131.75 48.6491 131.77 48.6291L137.16 41.8291C137.21 41.7691 137.24 41.6891 137.24 41.5891V40.9491C137.24 39.3891 135.98 38.1191 134.41 38.1191" fill="#F7931E"/>
<path d="M60.9007 51.7099C62.5607 51.7099 63.9207 50.3499 63.9207 48.6899C63.9207 47.0299 62.5707 45.6699 60.9007 45.6699C59.2307 45.6699 57.8807 47.0199 57.8807 48.6899C57.8807 50.3599 59.2307 51.7099 60.9007 51.7099ZM128.531 58.0999C127.601 55.9099 126.061 54.0499 124.121 52.7399C122.181 51.4299 119.821 50.6499 117.301 50.6499C115.631 50.6499 114.011 50.9999 112.561 51.6099C110.691 52.3999 109.081 53.6299 107.821 55.1799L107.801 55.1999C107.761 55.2499 107.721 55.2999 107.681 55.3499L96.6107 69.3299C96.6107 69.3299 96.5607 69.3599 96.5307 69.3599C96.4707 69.3599 96.4207 69.3099 96.4207 69.2499V51.4599H101.731C103.281 51.4599 104.541 50.1999 104.541 48.6499C104.541 47.0999 103.281 45.8399 101.731 45.8399H96.4207V34.5899C96.4207 34.5299 96.3707 34.4799 96.3107 34.4799C96.2807 34.4799 96.2507 34.4999 96.2407 34.5199L90.8907 41.2599C90.8407 41.3199 90.8007 41.4099 90.8007 41.4999V45.8499H80.0007V34.5899C80.0007 34.5299 79.9507 34.4799 79.8907 34.4799C79.8507 34.4799 79.8307 34.4999 79.8107 34.5199L74.4607 41.2599C74.4007 41.3199 74.3807 41.4099 74.3807 41.4999V45.8499H69.0707C67.5207 45.8499 66.2607 47.1099 66.2607 48.6599C66.2607 50.2099 67.5207 51.4699 69.0707 51.4699H74.3807V55.9499L63.7607 69.3399C63.7607 69.3399 63.7107 69.3699 63.6907 69.3699C63.6307 69.3699 63.5807 69.3199 63.5807 69.2599V56.9299C63.5807 55.7299 62.8207 54.6699 61.6907 54.2799C60.5607 53.8899 59.3107 54.2499 58.5707 55.1899L47.3407 69.3499C47.3407 69.3499 47.2907 69.3799 47.2607 69.3799C47.2007 69.3799 47.1507 69.3299 47.1507 69.2699V35.7199C47.1507 34.1699 45.8907 32.9199 44.3407 32.9199C42.7907 32.9199 41.5307 34.1699 41.5307 35.7199V52.5799C39.6307 51.3599 37.3607 50.6499 34.9507 50.6499C33.2707 50.6499 31.6707 50.9999 30.2107 51.6099C28.0107 52.5399 26.1607 54.0799 24.8407 56.0299C23.5207 57.9699 22.7607 60.3299 22.7607 62.8499C22.7607 64.5299 23.1007 66.1399 23.7207 67.5999C24.6507 69.7899 26.1907 71.6499 28.1407 72.9699C30.0807 74.2799 32.4407 75.0499 34.9607 75.0499C36.6407 75.0499 38.2507 74.7099 39.7107 74.0899C40.7107 73.6699 41.6307 73.1199 42.4707 72.4699C42.8907 73.1099 43.4307 73.6499 44.0507 74.0799C44.9507 74.6899 46.0707 75.0499 47.2407 75.0499C48.1307 75.0499 48.9907 74.8399 49.7407 74.4799C50.5007 74.0999 51.1507 73.5799 51.6707 72.9299L51.6907 72.9099L57.9607 65.0099V69.3599C57.9607 70.1399 58.1207 70.8899 58.4107 71.5799C58.8407 72.6099 59.5607 73.4699 60.4707 74.0899C61.3807 74.6999 62.4907 75.0599 63.6607 75.0599C64.5507 75.0599 65.4107 74.8499 66.1607 74.4899C66.9207 74.1099 67.5707 73.5899 68.0907 72.9399L68.1107 72.9199L74.3707 65.0199V69.3699C74.3707 70.1499 74.5307 70.8999 74.8207 71.5899C75.2507 72.6199 75.9707 73.4799 76.8807 74.0999C77.7907 74.7099 78.9007 75.0699 80.0707 75.0699C80.9607 75.0699 81.8107 74.8599 82.5707 74.4999C83.3307 74.1199 83.9807 73.5999 84.5007 72.9499L84.5207 72.9299L90.7907 65.0299V69.3799C90.7907 70.1599 90.9507 70.9099 91.2407 71.5999C91.6707 72.6299 92.3907 73.4899 93.3007 74.1099C94.2007 74.7199 95.3107 75.0799 96.4807 75.0799C97.3707 75.0799 98.2307 74.8699 98.9807 74.5099C99.7407 74.1299 100.391 73.6099 100.911 72.9599L100.931 72.9399L105.751 66.8499C105.841 67.1199 105.941 67.3799 106.051 67.6299C106.981 69.8199 108.521 71.6799 110.461 72.9999C112.401 74.3099 114.761 75.0799 117.281 75.0799C118.961 75.0799 120.571 74.7399 122.031 74.1199C124.221 73.1999 126.081 71.6499 127.391 69.7099C128.701 67.7699 129.481 65.3999 129.481 62.8899C129.481 61.2199 129.141 59.5999 128.521 58.1399M34.9607 69.4299C31.3307 69.4299 28.3807 66.4899 28.3807 62.8499C28.3807 59.2099 31.3307 56.2699 34.9607 56.2699C38.5907 56.2699 41.5407 59.2099 41.5407 62.8499C41.5407 66.4899 38.5907 69.4299 34.9607 69.4299ZM90.7907 55.9499L80.1807 69.3399C80.1807 69.3399 80.1407 69.3699 80.1107 69.3699C80.0507 69.3699 80.0007 69.3199 80.0007 69.2599V51.4699H90.8007V55.9499H90.7907ZM117.471 69.4299C113.841 69.4299 110.891 66.4899 110.891 62.8499C110.891 59.2099 113.841 56.2699 117.471 56.2699C121.101 56.2699 124.051 59.2099 124.051 62.8499C124.051 66.4899 121.111 69.4299 117.471 69.4299Z" fill="#F7931E"/>
</svg>
