<svg width="160" height="108" viewBox="0 0 160 108" fill="none" xmlns="http://www.w3.org/2000/svg">
<path d="M126.87 25.2102C125.31 25.2102 124.04 26.4802 124.04 28.0402V35.6302C124.04 35.6902 124.09 35.7402 124.15 35.7402C124.18 35.7402 124.21 35.7302 124.22 35.7102L129.6 28.9102C129.65 28.8502 129.68 28.7702 129.68 28.6702V28.0302C129.68 26.4702 128.41 25.2002 126.85 25.2002" fill="#ED135D"/>
<path d="M134.41 25.2102C132.85 25.2102 131.58 26.4802 131.58 28.0402V35.6302C131.58 35.6902 131.63 35.7402 131.69 35.7402C131.72 35.7402 131.75 35.7302 131.77 35.7102L137.15 28.9102C137.2 28.8502 137.23 28.7702 137.23 28.6702V28.0302C137.23 26.4702 135.97 25.2002 134.4 25.2002" fill="#ED135D"/>
<path d="M60.8995 38.8C62.5595 38.8 63.9195 37.44 63.9195 35.78C63.9195 34.12 62.5695 32.76 60.8995 32.76C59.2295 32.76 57.8795 34.11 57.8795 35.78C57.8795 37.45 59.2295 38.8 60.8995 38.8ZM128.53 45.19C127.6 43 126.06 41.14 124.11 39.83C122.17 38.52 119.81 37.74 117.29 37.74C115.62 37.74 114 38.09 112.55 38.7C110.68 39.49 109.06 40.72 107.81 42.27L107.79 42.29C107.75 42.34 107.71 42.39 107.67 42.44L96.5995 56.42C96.5995 56.42 96.5495 56.45 96.5195 56.45C96.4595 56.45 96.4095 56.4 96.4095 56.34V38.55H101.72C103.27 38.55 104.53 37.29 104.53 35.74C104.53 34.19 103.27 32.93 101.72 32.93H96.4095V21.68C96.4095 21.62 96.3595 21.57 96.2995 21.57C96.2695 21.57 96.2395 21.59 96.2295 21.61L90.8795 28.35C90.8295 28.41 90.7995 28.5 90.7995 28.59V32.94H79.9995V21.68C79.9995 21.62 79.9495 21.57 79.8895 21.57C79.8495 21.57 79.8295 21.59 79.8095 21.61L74.4595 28.35C74.3995 28.41 74.3795 28.5 74.3795 28.59V32.94H69.0695C67.5195 32.94 66.2595 34.2 66.2595 35.75C66.2595 37.3 67.5195 38.56 69.0695 38.56H74.3795V43.04L63.7595 56.43C63.7595 56.43 63.7095 56.46 63.6895 56.46C63.6295 56.46 63.5795 56.41 63.5795 56.35V44.02C63.5795 42.82 62.8195 41.76 61.6895 41.37C60.5595 40.98 59.3095 41.34 58.5695 42.28L47.3395 56.44C47.3395 56.44 47.2895 56.47 47.2695 56.47C47.2095 56.47 47.1595 56.42 47.1595 56.36V22.8C47.1595 21.25 45.8995 20 44.3495 20C42.7995 20 41.5395 21.25 41.5395 22.8V39.66C39.6395 38.44 37.3695 37.73 34.9595 37.73C33.2795 37.73 31.6795 38.08 30.2195 38.69C28.0195 39.62 26.1695 41.16 24.8495 43.11C23.5295 45.05 22.7695 47.41 22.7695 49.93C22.7695 51.61 23.1095 53.22 23.7295 54.68C24.6595 56.87 26.1995 58.73 28.1495 60.05C30.0895 61.36 32.4495 62.13 34.9695 62.13C36.6495 62.13 38.2595 61.79 39.7195 61.17C40.7195 60.75 41.6395 60.2 42.4795 59.55C42.8995 60.19 43.4395 60.73 44.0595 61.16C44.9595 61.77 46.0795 62.13 47.2495 62.13C48.1395 62.13 48.9995 61.92 49.7495 61.56C50.5095 61.18 51.1595 60.66 51.6795 60.01L51.6995 59.99L57.9695 52.08V56.44C57.9695 57.22 58.1295 57.97 58.4195 58.66C58.8495 59.69 59.5695 60.55 60.4795 61.17C61.3795 61.78 62.4895 62.14 63.6695 62.14C64.5595 62.14 65.4195 61.93 66.1695 61.57C66.9295 61.19 67.5795 60.67 68.0995 60.02L68.1195 60L74.3795 52.09V56.45C74.3795 57.23 74.5395 57.98 74.8295 58.67C75.2595 59.7 75.9795 60.56 76.8895 61.18C77.7995 61.79 78.9095 62.15 80.0795 62.15C80.9695 62.15 81.8195 61.94 82.5795 61.58C83.3395 61.2 83.9895 60.68 84.5095 60.03L84.5295 60.01L90.7995 52.1V56.46C90.7995 57.24 90.9595 57.99 91.2495 58.68C91.6795 59.71 92.3995 60.57 93.3095 61.19C94.2095 61.8 95.3195 62.16 96.4895 62.16C97.3795 62.16 98.2395 61.95 98.9895 61.59C99.7495 61.21 100.4 60.69 100.92 60.04L100.94 60.02L105.76 53.93C105.85 54.2 105.95 54.46 106.06 54.71C106.99 56.9 108.53 58.76 110.47 60.08C112.41 61.39 114.77 62.16 117.29 62.16C118.97 62.16 120.58 61.82 122.04 61.2C124.23 60.27 126.09 58.73 127.41 56.79C128.72 54.85 129.49 52.48 129.49 49.97C129.49 48.3 129.15 46.68 128.53 45.22M34.9495 56.51C31.3195 56.51 28.3695 53.57 28.3695 49.93C28.3695 46.29 31.3095 43.35 34.9495 43.35C38.5895 43.35 41.5295 46.29 41.5295 49.93C41.5295 53.57 38.5795 56.51 34.9495 56.51ZM90.7795 43.03L80.1695 56.42C80.1695 56.42 80.1195 56.45 80.0995 56.45C80.0395 56.45 79.9895 56.4 79.9895 56.34V38.55H90.7895V43.03H90.7795ZM117.46 56.51C113.83 56.51 110.88 53.57 110.88 49.93C110.88 46.29 113.83 43.35 117.46 43.35C121.09 43.35 124.04 46.29 124.04 49.93C124.04 53.57 121.1 56.51 117.46 56.51Z" fill="#3E1865"/>
<path d="M27.3494 73.1899V81.2499L28.8494 81.9999V82.5999H22.8594V81.9999L24.6894 81.2499V73.1899H23.0794V72.1199H24.6894V71.8199C24.6894 68.9599 24.9894 67.4199 28.3794 67.4199C29.6494 67.4199 32.2494 67.6299 33.0594 67.9999C33.6594 68.2799 33.8794 68.6199 33.8794 69.3099C33.8794 70.0599 33.3194 70.5099 32.4194 70.5099C31.3194 70.5099 31.0194 70.2299 30.2494 68.4699C30.0394 68.4499 29.9494 68.4499 29.8394 68.4499C28.0794 68.4499 27.3494 69.1999 27.3494 71.0299V72.1299H32.1394L33.6694 71.9599V81.2599L35.5794 82.0099V82.6099H29.6094V82.0099L31.0894 81.2599V73.1999H27.3494V73.1899Z" fill="#ED135D"/>
<path d="M37.0202 73.1902H35.4102V72.4602L35.6502 72.3702C37.4102 71.7702 37.5402 71.6802 38.2302 70.5902C38.5302 70.1202 38.6602 69.9002 38.8502 69.4502H39.6902V72.1102H43.0002V73.1802H39.6902V79.5802C39.6902 81.0202 40.1202 81.4502 41.6002 81.4502C41.8402 81.4502 42.0502 81.4502 42.2402 81.4102L42.8202 81.3202L42.9902 81.3002L43.1802 82.1402L41.8202 82.4802C41.0502 82.6702 40.1702 82.7802 39.5402 82.7802C37.8002 82.7802 37.0102 81.9602 37.0102 80.2002V73.1702L37.0202 73.1902Z" fill="#ED135D"/>
<path d="M52.1901 82.6701L48.3901 73.2801L47.1201 72.7201V72.1201H52.6801V72.7201L51.2001 73.2801L52.8801 77.8101C52.9001 77.9001 53.0101 78.2001 53.1601 78.6701C53.2901 79.0401 53.3801 79.2701 53.4001 79.3801C53.4201 79.4501 53.4401 79.5501 53.4901 79.6801L55.7501 73.4101L54.3101 72.7201V72.1201H58.5801V72.7201L57.2501 73.4701L52.9301 84.1701C52.1601 86.1001 51.9601 86.3801 51.1701 86.8801C50.5701 87.2401 49.9001 87.4201 49.0701 87.4201C48.4001 87.4201 47.8001 87.3601 47.3501 87.2301V85.1701H49.0901L49.4801 86.4601C50.4301 86.3301 51.0101 85.7301 51.5901 84.2701L52.2101 82.6801L52.1901 82.6701Z" fill="#ED135D"/>
<path d="M57.9199 77.6798C57.9199 74.2898 60.1799 72.0098 63.5299 72.0098C66.8799 72.0098 68.9199 74.0898 68.9199 77.2898C68.9199 80.4898 66.6599 82.9198 63.3099 82.9198C59.9599 82.9198 57.9199 80.8098 57.9199 77.6798ZM60.7999 77.2298C60.7999 80.1298 61.7899 81.8498 63.4399 81.8498C65.0899 81.8498 66.0399 80.2998 66.0399 77.6398C66.0399 74.7598 65.0299 72.9798 63.3999 72.9798C61.7699 72.9798 60.7999 74.5498 60.7999 77.2298Z" fill="#ED135D"/>
<path d="M77.37 82.9496V81.6796L77.18 81.7696C75.14 82.5896 74.32 82.8196 73.57 82.8196C72.78 82.8196 71.98 82.4796 71.53 81.9196C71.02 81.2796 70.86 80.6496 70.86 79.1896V73.7796L69.04 73.2397V72.6596L73.53 71.8896V78.5296C73.53 80.6096 74.02 81.2096 75.7 81.2096C76.28 81.2096 76.54 81.1897 77.2 81.0597L77.37 81.0396V73.7796L75.57 73.2397V72.6596L79.95 71.8896V80.9996L81.76 81.4897V82.0896L77.38 82.9496H77.37Z" fill="#ED135D"/>
<path d="M86.6993 73.7996V81.2496L88.9593 81.9996V82.5996H82.3193V81.9996L84.1493 81.2496V73.7996L82.3193 73.2397V72.6596L86.6993 71.8896V73.2197L86.9393 73.0896C88.5893 72.1896 89.2993 71.9096 89.9693 71.9096C90.3793 71.9096 90.8093 72.0396 91.2993 72.2996V74.9196H89.1093L88.5293 73.5696C88.3193 73.5496 88.1393 73.5296 88.0393 73.5296C87.7193 73.5296 87.1593 73.6597 86.7093 73.8097" fill="#ED135D"/>
<path d="M96.9901 81.2499V69.3899L95.0801 68.8799V68.2699L99.5701 67.4199V81.2499L101.48 81.9999V82.5999H95.1901V81.9999L96.9901 81.2499Z" fill="#ED135D"/>
<path d="M104.12 81.2499V73.7999L102.3 73.2599V72.6799L106.78 71.8799V81.2499L108.61 81.9999V82.5999H102.3V81.9999L104.12 81.2499Z" fill="#ED135D"/>
<path d="M113.79 73.1899V81.2499L116.04 81.9999V82.5999H109.3V81.9999L111.13 81.2499V73.1899H109.52V72.1199H111.13V71.6699C111.13 69.0499 113 67.4199 116.03 67.4199C116.91 67.4399 117.77 67.5499 118.61 67.8099V69.7899H116.98L116.14 68.3699C114.51 68.3899 113.8 69.1399 113.8 70.9099V72.1299H116.48V73.1999H113.8L113.79 73.1899Z" fill="#ED135D"/>
<path d="M126.049 77.1495H119.349C119.349 79.8395 120.829 81.4295 123.299 81.4295C123.919 81.4295 124.739 81.3195 125.729 81.1095L125.879 81.8995C124.139 82.4995 122.639 82.8195 121.609 82.8195C118.579 82.8195 116.649 80.8195 116.649 77.6695C116.649 74.5195 118.799 72.0195 121.699 72.0195C123.529 72.0195 124.749 72.6195 125.399 73.8395C125.889 74.7595 126.019 75.4095 126.069 77.1495M123.219 76.0495C123.179 73.7695 122.679 72.8695 121.439 72.8695C120.109 72.8695 119.379 74.0895 119.379 76.4095L123.229 76.0395L123.219 76.0495Z" fill="#ED135D"/>
<path d="M129.819 81.3697C129.819 82.1697 129.169 82.8097 128.379 82.8097C127.589 82.8097 126.939 82.1597 126.939 81.3697C126.939 80.5797 127.589 79.9297 128.379 79.9297C129.169 79.9297 129.819 80.5797 129.819 81.3697Z" fill="#ED135D"/>
<path d="M106.959 68.6599C106.959 69.5099 106.279 70.1899 105.429 70.1899C104.579 70.1899 103.899 69.5099 103.899 68.6599C103.899 67.8099 104.579 67.1299 105.429 67.1299C106.279 67.1299 106.959 67.8099 106.959 68.6599Z" fill="#ED135D"/>
</svg>
