<svg width="160" height="108" viewBox="0 0 160 108" fill="none" xmlns="http://www.w3.org/2000/svg">
<path d="M62.6641 75.1604V74.1004H63.6141V73.6504C63.6141 72.6404 64.2441 71.9004 65.5441 71.9004C65.8241 71.9004 66.1141 71.9304 66.3841 71.9404V73.1204C66.1941 73.1004 66.0041 73.0904 65.8041 73.0904C65.3841 73.0904 65.2041 73.2704 65.2041 73.7504V74.1004H66.2941V75.1604H65.2041V79.8604H63.6241V75.1604H62.6641Z" fill="#ED135D"/>
<path d="M68.5146 73.2102H66.9346V71.9102H68.5146V73.2102ZM66.9346 74.1002H68.5146V79.8602H66.9346V74.1002Z" fill="#ED135D"/>
<path d="M71.4045 74.0999H72.5645V75.1599H71.4045V78.0099C71.4045 78.5499 71.5345 78.6799 72.0745 78.6799C72.2445 78.6799 72.3945 78.6699 72.5645 78.6399V79.8799C72.2945 79.9199 71.9545 79.9399 71.6345 79.9399C70.6645 79.9399 69.8145 79.7199 69.8145 78.5699V75.1699H68.8545V74.1099H69.8145V72.3799H71.3945V74.1099L71.4045 74.0999Z" fill="#ED135D"/>
<path d="M78.8244 80.5906C78.4744 81.5206 77.9345 81.8906 76.8445 81.8906C76.5245 81.8906 76.1945 81.8706 75.8745 81.8306V80.5306C76.1745 80.5506 76.4844 80.6006 76.7944 80.5906C77.3444 80.5306 77.5245 79.9706 77.3445 79.5106L75.3145 74.1006H77.0045L78.3045 78.0506H78.3244L79.5845 74.1006H81.2245L78.8145 80.5906H78.8244Z" fill="#ED135D"/>
<path d="M84.0044 73.9404C85.8244 73.9404 86.9944 75.1404 86.9944 76.9804C86.9944 78.8204 85.8244 80.0104 84.0044 80.0104C82.1844 80.0104 81.0244 78.8104 81.0244 76.9804C81.0244 75.1504 82.1944 73.9404 84.0044 73.9404ZM84.0044 78.8304C85.0844 78.8304 85.4044 77.9104 85.4044 76.9904C85.4044 76.0704 85.0844 75.1404 84.0044 75.1404C82.9244 75.1404 82.6144 76.0604 82.6144 76.9904C82.6144 77.9204 82.9344 78.8304 84.0044 78.8304Z" fill="#ED135D"/>
<path d="M93.035 79.8604H91.525V79.0604H91.495C91.095 79.7104 90.405 80.0204 89.735 80.0204C88.055 80.0204 87.625 79.0704 87.625 77.6504V74.1104H89.205V77.3604C89.205 78.3104 89.485 78.7803 90.215 78.7803C91.075 78.7803 91.445 78.3004 91.445 77.1304V74.1104H93.025V79.8703L93.035 79.8604Z" fill="#ED135D"/>
<path d="M93.9541 74.1004H95.4541V75.1704H95.4741C95.7641 74.4404 96.5441 73.9404 97.3141 73.9404C97.4241 73.9404 97.5641 73.9604 97.6641 74.0004V75.4704C97.5241 75.4404 97.2841 75.4104 97.0941 75.4104C95.9341 75.4104 95.5341 76.2504 95.5341 77.2604V79.8604H93.9541V74.1004Z" fill="#ED135D"/>
<path d="M102.564 71.9004H100.984V79.8604H102.564V71.9004Z" fill="#ED135D"/>
<path d="M105.085 73.2102H103.505V71.9102H105.085V73.2102ZM103.505 74.1002H105.085V79.8602H103.505V74.1002Z" fill="#ED135D"/>
<path d="M105.435 75.1604V74.1004H106.385V73.6504C106.385 72.6404 107.015 71.9004 108.315 71.9004C108.595 71.9004 108.885 71.9304 109.155 71.9404V73.1204C108.965 73.1004 108.775 73.0904 108.575 73.0904C108.155 73.0904 107.975 73.2704 107.975 73.7504V74.1004H109.065V75.1604H107.975V79.8604H106.395V75.1604H105.435Z" fill="#ED135D"/>
<path d="M110.625 77.3702C110.665 78.3702 111.165 78.8302 112.045 78.8302C112.685 78.8302 113.195 78.4402 113.295 78.0802H114.685C114.235 79.4402 113.295 80.0202 111.985 80.0202C110.165 80.0202 109.045 78.7702 109.045 76.9902C109.045 75.2102 110.235 73.9502 111.985 73.9502C113.945 73.9502 114.895 75.6002 114.785 77.3702H110.625ZM113.195 76.3602C113.045 75.5602 112.705 75.1302 111.935 75.1302C110.935 75.1302 110.645 75.9102 110.615 76.3602H113.195Z" fill="#ED135D"/>
<path d="M117.085 78.1504H115.335V79.8704H117.085V78.1504Z" fill="#ED135D"/>
<path d="M126.875 31.3205C125.315 31.3205 124.045 32.5905 124.045 34.1505V41.7405C124.045 41.8005 124.095 41.8505 124.155 41.8505C124.185 41.8505 124.215 41.8405 124.225 41.8205L129.605 35.0205C129.655 34.9605 129.685 34.8805 129.685 34.7805V34.1405C129.685 32.5805 128.415 31.3105 126.855 31.3105" fill="#ED135D"/>
<path d="M134.415 31.3205C132.855 31.3205 131.585 32.5905 131.585 34.1505V41.7405C131.585 41.8005 131.635 41.8505 131.695 41.8505C131.725 41.8505 131.755 41.8405 131.775 41.8205L137.155 35.0205C137.205 34.9605 137.235 34.8805 137.235 34.7805V34.1405C137.235 32.5805 135.975 31.3105 134.405 31.3105" fill="#ED135D"/>
<path d="M60.9046 44.9104C62.5646 44.9104 63.9247 43.5504 63.9247 41.8904C63.9247 40.2304 62.5646 38.8704 60.9046 38.8704C59.2446 38.8704 57.8847 40.2204 57.8847 41.8904C57.8847 43.5604 59.2346 44.9104 60.9046 44.9104ZM128.535 51.3004C127.605 49.1104 126.065 47.2504 124.115 45.9404C122.175 44.6304 119.815 43.8504 117.295 43.8504C115.625 43.8504 114.005 44.2004 112.555 44.8104C110.685 45.6004 109.065 46.8304 107.815 48.3804L107.795 48.4004C107.755 48.4504 107.715 48.5004 107.675 48.5504L96.6047 62.5303C96.6047 62.5303 96.5547 62.5604 96.5247 62.5604C96.4647 62.5604 96.4147 62.5104 96.4147 62.4504V44.6604H101.725C103.275 44.6604 104.535 43.4004 104.535 41.8504C104.535 40.3004 103.275 39.0404 101.725 39.0404H96.4147V27.7904C96.4147 27.7304 96.3647 27.6804 96.3047 27.6804C96.2747 27.6804 96.2446 27.7004 96.2346 27.7204L90.8847 34.4604C90.8347 34.5204 90.8047 34.6104 90.8047 34.7004V39.0504H80.0047V27.7904C80.0047 27.7304 79.9547 27.6804 79.8947 27.6804C79.8547 27.6804 79.8347 27.7004 79.8147 27.7204L74.4647 34.4604C74.4047 34.5204 74.3847 34.6104 74.3847 34.7004V39.0504H69.0746C67.5246 39.0504 66.2646 40.3104 66.2646 41.8604C66.2646 43.4104 67.5246 44.6704 69.0746 44.6704H74.3847V49.1504L63.7646 62.5404C63.7646 62.5404 63.7147 62.5704 63.6947 62.5704C63.6347 62.5704 63.5847 62.5204 63.5847 62.4604V50.1304C63.5847 48.9304 62.8247 47.8704 61.6947 47.4804C60.5647 47.0904 59.3146 47.4504 58.5746 48.3904L47.3447 62.5504C47.3447 62.5504 47.2946 62.5804 47.2646 62.5804C47.2046 62.5804 47.1546 62.5304 47.1546 62.4704V28.9104C47.1546 27.3604 45.8947 26.1104 44.3447 26.1104C42.7947 26.1104 41.5347 27.3604 41.5347 28.9104V45.7704C39.6347 44.5504 37.3647 43.8404 34.9547 43.8404C33.2747 43.8404 31.6747 44.1904 30.2147 44.8004C28.0147 45.7304 26.1647 47.2704 24.8447 49.2204C23.5247 51.1604 22.7646 53.5204 22.7646 56.0404C22.7646 57.7204 23.1047 59.3304 23.7247 60.7904C24.6547 62.9804 26.1947 64.8404 28.1447 66.1604C30.0847 67.4704 32.4447 68.2404 34.9647 68.2404C36.6447 68.2404 38.2547 67.9003 39.7147 67.2803C40.7147 66.8603 41.6347 66.3104 42.4747 65.6604C42.8947 66.3004 43.4347 66.8404 44.0547 67.2704C44.9547 67.8804 46.0747 68.2404 47.2447 68.2404C48.1347 68.2404 48.9947 68.0304 49.7447 67.6704C50.5047 67.2904 51.1547 66.7703 51.6747 66.1203L51.6947 66.1004L57.9647 58.1904V62.5504C57.9647 63.3304 58.1247 64.0804 58.4147 64.7704C58.8447 65.8004 59.5647 66.6603 60.4747 67.2803C61.3747 67.8903 62.4847 68.2504 63.6647 68.2504C64.5547 68.2504 65.4147 68.0404 66.1647 67.6804C66.9247 67.3004 67.5747 66.7804 68.0947 66.1304L68.1147 66.1104L74.3746 58.2004V62.5604C74.3746 63.3404 74.5346 64.0903 74.8246 64.7803C75.2546 65.8103 75.9747 66.6704 76.8847 67.2904C77.7947 67.9004 78.9046 68.2604 80.0746 68.2604C80.9646 68.2604 81.8146 68.0504 82.5746 67.6904C83.3346 67.3104 83.9847 66.7904 84.5047 66.1404L84.5247 66.1203L90.7946 58.2104V62.5704C90.7946 63.3504 90.9547 64.1004 91.2447 64.7904C91.6747 65.8204 92.3947 66.6804 93.3047 67.3004C94.2047 67.9104 95.3146 68.2704 96.4846 68.2704C97.3746 68.2704 98.2346 68.0604 98.9846 67.7004C99.7446 67.3204 100.395 66.8004 100.915 66.1504L100.935 66.1304L105.755 60.0404C105.845 60.3104 105.945 60.5704 106.055 60.8204C106.985 63.0104 108.525 64.8704 110.465 66.1904C112.405 67.5004 114.765 68.2704 117.285 68.2704C118.965 68.2704 120.575 67.9304 122.035 67.3104C124.225 66.3804 126.085 64.8404 127.405 62.9004C128.715 60.9604 129.485 58.5904 129.485 56.0804C129.485 54.4104 129.145 52.7904 128.525 51.3304M34.9647 62.6203C31.3347 62.6203 28.3847 59.6804 28.3847 56.0404C28.3847 52.4004 31.3347 49.4604 34.9647 49.4604C38.5947 49.4604 41.5446 52.4004 41.5446 56.0404C41.5446 59.6804 38.5947 62.6203 34.9647 62.6203ZM90.7946 49.1404L80.1846 62.5303C80.1846 62.5303 80.1447 62.5604 80.1147 62.5604C80.0547 62.5604 80.0047 62.5104 80.0047 62.4504V44.6604H90.8047V49.1404H90.7946ZM117.475 62.6203C113.845 62.6203 110.895 59.6804 110.895 56.0404C110.895 52.4004 113.845 49.4604 117.475 49.4604C121.105 49.4604 124.055 52.4004 124.055 56.0404C124.055 59.6804 121.115 62.6203 117.475 62.6203Z" fill="#3E1865"/>
</svg>
