<svg width="160" height="108" viewBox="0 0 160 108" fill="none" xmlns="http://www.w3.org/2000/svg">
<path d="M126.87 31.3303C125.31 31.3303 124.04 32.6003 124.04 34.1603V41.7503C124.04 41.8103 124.09 41.8603 124.15 41.8603C124.18 41.8603 124.21 41.8503 124.22 41.8303L129.6 35.0303C129.65 34.9703 129.68 34.8903 129.68 34.7903V34.1503C129.68 32.5903 128.41 31.3203 126.85 31.3203" fill="#00A4C4"/>
<path d="M134.41 31.3303C132.85 31.3303 131.58 32.6003 131.58 34.1603V41.7503C131.58 41.8103 131.63 41.8603 131.69 41.8603C131.72 41.8603 131.75 41.8503 131.77 41.8303L137.16 35.0303C137.21 34.9703 137.24 34.8903 137.24 34.7903V34.1503C137.24 32.5903 135.98 31.3203 134.41 31.3203" fill="#00A4C4"/>
<path d="M60.8998 44.9201C62.5598 44.9201 63.9198 43.5601 63.9198 41.9001C63.9198 40.2401 62.5698 38.8801 60.8998 38.8801C59.2298 38.8801 57.8798 40.2301 57.8798 41.9001C57.8798 43.5701 59.2298 44.9201 60.8998 44.9201ZM128.53 51.3101C127.6 49.1201 126.06 47.2601 124.12 45.9501C122.18 44.6401 119.82 43.8601 117.3 43.8601C115.63 43.8601 114.01 44.2101 112.56 44.8201C110.69 45.6101 109.08 46.8401 107.82 48.3901L107.8 48.4101C107.76 48.4601 107.72 48.5101 107.68 48.5601L96.6098 62.5401C96.6098 62.5401 96.5598 62.5701 96.5298 62.5701C96.4698 62.5701 96.4198 62.5201 96.4198 62.4601V44.6701H101.73C103.28 44.6701 104.54 43.4101 104.54 41.8601C104.54 40.3101 103.28 39.0501 101.73 39.0501H96.4198V27.8001C96.4198 27.7401 96.3698 27.6901 96.3098 27.6901C96.2798 27.6901 96.2498 27.7101 96.2398 27.7301L90.8898 34.4701C90.8398 34.5301 90.7998 34.6201 90.7998 34.7101V39.0601H79.9998V27.8001C79.9998 27.7401 79.9498 27.6901 79.8898 27.6901C79.8498 27.6901 79.8298 27.7101 79.8098 27.7301L74.4598 34.4701C74.3998 34.5301 74.3798 34.6201 74.3798 34.7101V39.0601H69.0698C67.5198 39.0601 66.2598 40.3201 66.2598 41.8701C66.2598 43.4201 67.5198 44.6801 69.0698 44.6801H74.3798V49.1601L63.7598 62.5501C63.7598 62.5501 63.7098 62.5801 63.6898 62.5801C63.6298 62.5801 63.5798 62.5301 63.5798 62.4701V50.1401C63.5798 48.9401 62.8198 47.8801 61.6898 47.4901C60.5598 47.1001 59.3098 47.4601 58.5698 48.4001L47.3398 62.5601C47.3398 62.5601 47.2898 62.5901 47.2598 62.5901C47.1998 62.5901 47.1498 62.5401 47.1498 62.4801V28.9201C47.1498 27.3701 45.8898 26.1201 44.3398 26.1201C42.7898 26.1201 41.5298 27.3701 41.5298 28.9201V45.7801C39.6298 44.5601 37.3598 43.8501 34.9498 43.8501C33.2698 43.8501 31.6698 44.2001 30.2098 44.8101C28.0098 45.7401 26.1598 47.2801 24.8398 49.2301C23.5198 51.1701 22.7598 53.5301 22.7598 56.0501C22.7598 57.7301 23.0998 59.3401 23.7198 60.8001C24.6498 62.9901 26.1898 64.8501 28.1398 66.1701C30.0798 67.4801 32.4398 68.2501 34.9598 68.2501C36.6398 68.2501 38.2498 67.9101 39.7098 67.2901C40.7098 66.8701 41.6298 66.3201 42.4698 65.6701C42.8898 66.3101 43.4298 66.8501 44.0498 67.2801C44.9498 67.8901 46.0698 68.2501 47.2398 68.2501C48.1298 68.2501 48.9898 68.0401 49.7398 67.6801C50.4998 67.3001 51.1498 66.7801 51.6698 66.1301L51.6898 66.1101L57.9598 58.2001V62.5601C57.9598 63.3401 58.1198 64.0901 58.4098 64.7801C58.8398 65.8101 59.5598 66.6701 60.4698 67.2901C61.3798 67.9001 62.4898 68.2601 63.6598 68.2601C64.5498 68.2601 65.4098 68.0501 66.1598 67.6901C66.9198 67.3101 67.5698 66.7901 68.0898 66.1401L68.1098 66.1201L74.3698 58.2101V62.5701C74.3698 63.3501 74.5298 64.1001 74.8198 64.7901C75.2498 65.8201 75.9698 66.6801 76.8798 67.3001C77.7898 67.9101 78.8998 68.2701 80.0698 68.2701C80.9598 68.2701 81.8098 68.0601 82.5698 67.7001C83.3298 67.3201 83.9798 66.8001 84.4998 66.1501L84.5198 66.1301L90.7898 58.2201V62.5801C90.7898 63.3601 90.9498 64.1101 91.2398 64.8001C91.6698 65.8301 92.3898 66.6901 93.2998 67.3101C94.1998 67.9201 95.3098 68.2801 96.4798 68.2801C97.3698 68.2801 98.2298 68.0701 98.9798 67.7101C99.7398 67.3301 100.39 66.8101 100.91 66.1601L100.93 66.1401L105.75 60.0501C105.84 60.3201 105.94 60.5801 106.05 60.8301C106.98 63.0201 108.52 64.8801 110.46 66.2001C112.4 67.5101 114.76 68.2801 117.28 68.2801C118.96 68.2801 120.57 67.9401 122.03 67.3201C124.22 66.3901 126.08 64.8501 127.39 62.9101C128.7 60.9701 129.48 58.6001 129.48 56.0901C129.48 54.4201 129.14 52.8001 128.52 51.3401M34.9498 62.6301C31.3198 62.6301 28.3698 59.6901 28.3698 56.0501C28.3698 52.4101 31.3198 49.4701 34.9498 49.4701C38.5798 49.4701 41.5298 52.4101 41.5298 56.0501C41.5298 59.6901 38.5798 62.6301 34.9498 62.6301ZM90.7798 49.1501L80.1698 62.5401C80.1698 62.5401 80.1298 62.5701 80.0998 62.5701C80.0398 62.5701 79.9898 62.5201 79.9898 62.4601V44.6701H90.7898V49.1501H90.7798ZM117.46 62.6301C113.83 62.6301 110.88 59.6901 110.88 56.0501C110.88 52.4101 113.83 49.4701 117.46 49.4701C121.09 49.4701 124.04 52.4101 124.04 56.0501C124.04 59.6901 121.1 62.6301 117.46 62.6301Z" fill="#3E1865"/>
<path d="M64.9696 78.6697L65.7496 79.0597V79.3697H62.6396V79.0597L63.5896 78.6697V74.4797H62.7496V73.9197H63.5896V73.7597C63.5896 72.2697 63.7496 71.4697 65.5096 71.4697C66.1696 71.4697 67.5196 71.5797 67.9396 71.7697C68.2496 71.9097 68.3596 72.0897 68.3596 72.4497C68.3596 72.8397 68.0696 73.0697 67.5996 73.0697C67.0296 73.0697 66.8696 72.9197 66.4696 72.0097C66.3596 71.9997 66.3096 71.9997 66.2596 71.9997C65.3396 71.9997 64.9696 72.3897 64.9696 73.3397V73.9097H67.4597L68.2496 73.8197V78.6497L69.2397 79.0397V79.3497H66.1396V79.0397L66.9096 78.6497V74.4597H64.9696V78.6697Z" fill="#ED135D"/>
<path d="M69.9894 74.48H69.1494V74.1L69.2694 74.06C70.1894 73.75 70.2494 73.7 70.6094 73.13C70.7694 72.88 70.8294 72.77 70.9294 72.54H71.3694V73.92H73.0894V74.48H71.3694V77.81C71.3694 78.56 71.5894 78.78 72.3594 78.78C72.4794 78.78 72.5894 78.78 72.6994 78.76L72.9994 78.72H73.0894L73.1894 79.14L73.0694 79.17L72.4894 79.32C72.0894 79.42 71.6294 79.48 71.3094 79.48C70.4094 79.48 69.9894 79.06 69.9894 78.14V74.48Z" fill="#ED135D"/>
<path d="M77.8695 79.3999L75.8895 74.5199L75.2295 74.2299V73.9199H78.1195V74.2299L77.3495 74.5199L78.2195 76.8799C78.2195 76.8799 78.2895 77.0799 78.3595 77.3299C78.4295 77.5199 78.4695 77.6399 78.4795 77.6999C78.4895 77.7299 78.4995 77.7899 78.5195 77.8599L79.6895 74.5999L78.9395 74.2399V73.9299H81.1595V74.2399L80.4695 74.6299L78.2295 80.1899C77.8295 81.1999 77.7295 81.3399 77.3095 81.5999C76.9995 81.7899 76.6495 81.8799 76.2195 81.8799C75.8695 81.8799 75.5595 81.8499 75.3295 81.7799V80.7099H76.2295L76.4295 81.3799C76.9195 81.3099 77.2195 80.9999 77.5195 80.2399L77.8395 79.4099L77.8695 79.3999Z" fill="#ED135D"/>
<path d="M80.8496 76.8103C80.8496 75.0503 82.0196 73.8604 83.7596 73.8604C85.4996 73.8604 86.5596 74.9403 86.5596 76.6003C86.5596 78.2603 85.3896 79.5204 83.6496 79.5204C81.9096 79.5204 80.8496 78.4304 80.8496 76.8004M82.3396 76.5803C82.3396 78.0903 82.8496 78.9804 83.7096 78.9804C84.5696 78.9804 85.0596 78.1803 85.0596 76.7903C85.0596 75.3003 84.5396 74.3703 83.6896 74.3703C82.8396 74.3703 82.3396 75.1903 82.3396 76.5803Z" fill="#ED135D"/>
<path d="M90.9494 79.5398V78.8798L90.8494 78.9298C89.7894 79.3498 89.3694 79.4798 88.9694 79.4798C88.5594 79.4798 88.1394 79.2998 87.9094 79.0098C87.6394 78.6798 87.5594 78.3498 87.5594 77.5898V74.7798L86.6094 74.4998V74.1998L88.9394 73.7998V77.2498C88.9394 78.3298 89.1994 78.6498 90.0694 78.6498C90.3694 78.6498 90.4994 78.6398 90.8494 78.5698H90.9394V74.7898L89.9994 74.5098V74.2098L92.2794 73.8098V78.5398L93.2194 78.7998V79.1098L90.9394 79.5598L90.9494 79.5398Z" fill="#ED135D"/>
<path d="M95.7995 74.7898V78.6598L96.9695 79.0498V79.3598H93.5195V79.0498L94.4695 78.6598V74.7898L93.5195 74.4998V74.1998L95.7995 73.7998V74.4898L95.9195 74.4198C96.7795 73.9498 97.1495 73.8098 97.4895 73.8098C97.6995 73.8098 97.9295 73.8798 98.1795 74.0098V75.3698H97.0395L96.7395 74.6698C96.6295 74.6598 96.5395 74.6498 96.4795 74.6498C96.3095 74.6498 96.0195 74.7198 95.7895 74.7898" fill="#ED135D"/>
<path d="M101.149 78.6605V72.5005L100.149 72.2305V71.9205L102.489 71.4805V78.6605L103.479 79.0505V79.3705H100.209V79.0505L101.149 78.6605Z" fill="#ED135D"/>
<path d="M104.849 78.6598V74.7898L103.899 74.5098V74.2098L106.239 73.7998V78.6598L107.179 79.0498V79.3698H103.899V79.0498L104.849 78.6598Z" fill="#ED135D"/>
<path d="M109.869 74.4805V78.6705L111.039 79.0605V79.3705H107.529V79.0605L108.479 78.6705V74.4805H107.639V73.9205H108.479V73.6905C108.479 72.3305 109.449 71.4805 111.019 71.4805C111.479 71.4905 111.919 71.5505 112.359 71.6805V72.7105H111.509L111.069 71.9705C110.219 71.9805 109.849 72.3705 109.849 73.2905V73.9305H111.239V74.4905H109.849L109.869 74.4805Z" fill="#ED135D"/>
<path d="M116.249 76.5303H112.769C112.769 77.9303 113.539 78.7504 114.819 78.7504C115.139 78.7504 115.569 78.6903 116.079 78.5803L116.159 78.9903C115.259 79.3003 114.479 79.4703 113.939 79.4703C112.369 79.4703 111.359 78.4303 111.359 76.7903C111.359 75.1503 112.479 73.8604 113.979 73.8604C114.929 73.8604 115.559 74.1703 115.899 74.8103C116.159 75.2903 116.219 75.6303 116.249 76.5303ZM114.769 75.9604C114.749 74.7804 114.489 74.3103 113.839 74.3103C113.149 74.3103 112.769 74.9503 112.769 76.1503L114.769 75.9604Z" fill="#ED135D"/>
<path d="M118.2 78.7305C118.2 79.1405 117.86 79.4805 117.45 79.4805C117.04 79.4805 116.7 79.1405 116.7 78.7305C116.7 78.3205 117.04 77.9805 117.45 77.9805C117.86 77.9805 118.2 78.3205 118.2 78.7305Z" fill="#ED135D"/>
<path d="M106.33 72.1201C106.33 72.5601 105.97 72.9201 105.53 72.9201C105.09 72.9201 104.74 72.5601 104.74 72.1201C104.74 71.6801 105.1 71.3301 105.53 71.3301C105.96 71.3301 106.33 71.6801 106.33 72.1201Z" fill="#ED135D"/>
</svg>
