<svg width="990" height="456" viewBox="0 0 990 456" fill="none" xmlns="http://www.w3.org/2000/svg">
<rect width="990" height="456" fill="white"/>
<path d="M518.058 231.899C518.135 231.939 518.185 231.973 518.212 232C518.151 231.962 518.1 231.928 518.058 231.899Z" fill="#222222"/>
<path fill-rule="evenodd" clip-rule="evenodd" d="M424.131 284.791C418.315 284.246 412.149 284.074 406.222 284.029C405.583 284.222 404.942 284.413 404.298 284.602C404.382 284.608 404.486 284.613 404.613 284.616L404.231 284.621C393.426 287.78 381.908 290.288 371.158 292.069C371.924 292.163 372.684 292.232 373.452 292.301C373.736 292.326 374.021 292.352 374.308 292.379C369.256 293.049 366.58 293.603 364.442 294.046C361.475 294.661 359.543 295.061 353.738 295.259C356.321 294.63 352.546 294.782 349.778 294.893C348.582 294.941 347.574 294.982 347.348 294.949C346.528 294.999 346.498 295.109 346.598 295.219C347.218 296.239 341.918 295.359 340.738 295.069C339.841 294.875 338.953 294.687 338.073 294.502L338.069 294.501C330.613 292.93 323.751 291.484 317.098 286.959C316.71 286.7 317.548 286.4 318.352 286.113C318.794 285.955 319.225 285.8 319.438 285.659L317.188 286.359C333.888 278.949 351.228 271.849 368.688 266.609C368.382 266.733 367.378 267.049 366.08 267.458C362.277 268.654 355.948 270.646 357.238 270.959C358.238 270.576 362.164 269.519 366.629 268.318L366.633 268.317C368.067 267.931 369.558 267.53 371.024 267.132C371.006 267.095 370.987 267.059 370.968 267.023C370.938 266.965 370.908 266.906 370.878 266.848C370.098 265.338 369.298 263.798 367.598 263.028C364.854 261.01 363.919 257.627 362.984 254.247L362.968 254.188C362.428 252.228 361.888 250.278 361.008 248.588C356.948 243.628 356.128 237.108 356.018 230.788H356.008C358.604 204.314 368.091 189.447 394.247 183.57C391.27 183.958 388.326 184.381 385.425 184.797C381.219 185.401 377.102 185.992 373.097 186.448C372.317 186.378 372.607 186.008 374.217 185.648C372.032 185.898 369.686 185.997 367.26 186.1C363.269 186.269 359.063 186.448 355.007 187.318L356.827 187.398C350.967 188.372 348.271 188.373 344.868 188.373C342.783 188.374 340.433 188.374 336.927 188.598L336.87 187.939L336.857 187.938L336.848 187.817L336.837 187.818V187.672L336.827 187.538L336.835 187.538L336.777 186.868L337.131 186.868C338.1 186.867 339.172 186.866 340.347 186.928C339.267 186.898 337.977 186.908 336.787 186.928L336.84 187.538C337.492 187.526 338.221 187.491 338.99 187.445C339.397 187.401 339.753 187.358 340.037 187.318C340.021 187.34 340.004 187.361 339.987 187.382C340.29 187.362 340.596 187.341 340.903 187.32C342.204 187.231 343.537 187.141 344.757 187.098C343.84 187.127 343.534 186.991 343.212 186.848L343.167 186.828C345.009 186.799 347.223 186.629 349.646 186.441C351.394 186.307 353.251 186.163 355.157 186.058L348.707 186.828C350.347 187.198 353.927 186.684 357.063 186.235C359.111 185.941 360.97 185.675 361.977 185.698C361.912 185.361 361.232 185.25 360.701 185.163C359.924 185.037 359.466 184.962 361.717 184.308C367.726 183.478 368.948 183.653 370.697 183.902C372.046 184.095 373.708 184.332 378.117 184.188L376.397 184.668C377.454 184.59 378.45 184.602 379.471 184.615C381.571 184.641 383.773 184.669 386.807 183.908C386.727 183.542 385.118 183.593 383.511 183.644C382.709 183.67 381.907 183.695 381.297 183.668C381.692 183.487 382.73 183.512 384.055 183.543C386.02 183.59 388.616 183.652 390.677 183.078C387.627 182.628 379.727 183.158 374.377 183.758C375.017 183.458 374.987 183.178 374.187 182.928C377.083 182.732 380.026 182.542 382.999 182.351C396.332 181.494 410.25 180.599 422.997 178.808C418.813 178.739 419.669 178.64 421.341 178.446C422.997 178.254 425.455 177.969 424.608 177.528C425.371 177.865 427.237 177.61 429.498 177.3C431.207 177.067 433.142 176.802 434.997 176.738C435.838 176.2 433.421 176.304 431.409 176.39C429.57 176.468 428.069 176.532 429.707 176.078C432.875 175.811 436.495 175.694 440.353 175.569C442.586 175.497 444.899 175.422 447.252 175.314C441.129 173.479 436.229 172.135 426.918 170.719C427.408 170.629 425.888 170.169 423.158 169.479C425.352 168.487 427.941 167.283 430.689 166.004C432.178 165.312 433.713 164.598 435.257 163.884C435.023 163.776 434.79 163.668 434.558 163.559C435.461 163.347 436.384 163.139 437.321 162.933C438 162.621 438.678 162.312 439.352 162.005L439.352 162.002C438.909 162.054 438.499 162.094 438.128 162.119C438.513 162.043 438.927 161.962 439.367 161.876L439.518 160.609C439.984 160.838 440.455 161.066 440.929 161.292C443.236 160.254 445.457 159.28 447.458 158.449L447.73 159.311C451.853 158.288 458.398 156.917 463.561 155.835C467.082 155.097 469.96 154.494 470.988 154.229C467.773 155.836 459.226 159.735 452.17 162.953C451.176 163.407 450.211 163.847 449.295 164.265L449.542 165.044C455.825 167.539 462.444 169.663 468.916 171.202C472.876 170.805 474.948 171.261 476.655 171.637C478.821 172.114 480.402 172.463 484.507 170.778C486.912 170.123 489.523 169.765 492.184 169.572C492.673 169.49 493.167 169.407 493.664 169.321C491.694 169.534 489.887 169.657 488.617 169.538L497.44 168.653C497.936 168.563 498.434 168.473 498.934 168.381C498.661 167.892 497.373 168.101 495.968 168.329C494.825 168.515 493.603 168.714 492.787 168.558C494.267 167.89 496.728 167.704 499.341 167.506C501.461 167.345 503.681 167.177 505.557 166.738L504.847 166.758C507.676 166.521 509.401 166.353 510.784 166.219L511.068 166.191C514.113 165.673 517.13 165.2 520.037 164.828L519.887 164.908L523.467 164.629L523.702 166.486L523.712 166.486L523.475 164.629L523.477 164.628L523.716 166.485L523.817 166.478L524.057 168.338L523.955 168.349L524.187 170.158L524.18 170.159L523.949 168.35L523.939 168.351L524.168 170.159C524.14 170.16 524.108 170.161 524.073 170.162C523.78 170.169 523.272 170.182 523.097 170.338L524.186 170.299L524.197 170.388C522.424 170.547 521.003 170.585 519.732 170.618C516.757 170.697 514.603 170.754 510.687 172.288L508.389 172.544L508.387 172.544C503.009 173.142 497.509 173.754 491.876 174.356C491.26 174.572 490.654 174.796 490.057 175.028C492.697 174.688 495.347 174.378 497.997 174.108C496.627 174.446 494.952 174.787 493.272 175.13C490.523 175.69 487.763 176.253 486.314 176.804C486.828 176.835 487.341 176.867 487.854 176.902C488.945 176.65 489.329 176.753 489.681 176.847C490.017 176.937 490.326 177.019 491.198 176.777C489.87 176.687 488.741 176.57 488.128 176.349C489.775 176.253 491.494 176.284 493.253 176.402C493.486 176.384 493.647 176.387 493.651 176.43C497.722 176.732 501.993 177.48 506.074 178.195C508.46 178.613 510.78 179.019 512.958 179.319L511.618 178.999C512.812 179.252 514.713 179.651 516.536 180.033L516.539 180.034C518.026 180.346 519.461 180.647 520.418 180.849C519.907 181.208 519.364 181.575 518.806 181.953C515.191 184.399 510.912 187.293 510.228 191.599C511.991 192.744 514.206 193.658 516.472 194.593C517.401 194.976 518.338 195.362 519.256 195.77C519.571 195.46 519.884 195.15 520.197 194.841L520.198 194.84C520.819 194.227 521.436 193.618 522.049 193.016C522.032 192.696 522.011 192.37 521.99 192.041L521.987 191.998C521.787 188.948 521.577 185.698 524.727 185.178C525.646 185.071 526.937 184.744 528.394 184.374L528.497 184.348L528.499 184.348C534.038 182.928 541.877 180.919 540.567 187.658C540.449 189.471 540.321 191.274 540.193 193.071C540.137 193.851 540.082 194.63 540.027 195.408V195.428L540.023 195.486C539.851 197.915 539.68 200.334 539.519 202.747L539.636 202.771C546.956 204.253 554.323 205.744 560.647 207.912C560.605 207.022 560.556 206.13 560.507 205.239C560.127 198.349 559.757 191.469 562.517 185.249C569.687 181.669 578.367 181.699 586.847 181.739L586.85 181.739C587.695 181.741 588.54 181.743 589.381 181.742C585.586 181.071 581.651 180.53 577.411 179.947L577.409 179.946C575.765 179.72 574.074 179.488 572.328 179.239C572.328 179.519 573.718 180.049 577.028 180.229C578.476 180.407 578.229 180.331 577.711 180.171C577.503 180.107 577.251 180.029 577.048 179.949C577.523 180.075 577.998 180.198 578.473 180.321C579.346 180.547 580.216 180.772 581.078 181.019C576.38 180.528 574.455 180.138 572.546 179.751C570.566 179.35 568.602 178.953 563.578 178.449C562.29 178.492 563.904 178.864 565.649 179.267C566.711 179.512 567.821 179.768 568.358 179.969C567.431 179.821 566.501 179.675 565.569 179.528C553.963 177.698 541.989 175.81 530.298 171.969C530.049 171.712 530.668 171.737 531.289 171.761C532.219 171.797 533.154 171.834 531.188 170.929C547.029 174.936 549.95 174.707 535.099 170.688C537.912 171.418 541.27 172.23 540.228 171.659C542.438 172.169 544.668 172.619 546.898 173.029C537.887 170.862 543.042 171.407 547.563 171.886C551.271 172.278 554.553 172.625 549.243 171.394C549.584 171.471 549.928 171.549 550.276 171.627C557.375 173.232 565.83 175.143 569.408 174.459C568.24 174.247 567.073 174.037 565.906 173.827C562.724 173.255 559.543 172.683 556.368 172.069C566.901 173.607 566.059 173.29 564.79 172.811C563.592 172.359 562.015 171.764 569.248 172.449C574.661 173.434 579.732 173.944 584.581 174.432C593.75 175.354 602.124 176.197 610.511 180.023C619.57 179.038 627.525 179.318 626.759 188.588C631.29 192.188 636.166 197.187 639.648 201.439C638.498 199.429 635.018 195.399 633.138 193.519C633.138 193.509 633.228 193.569 633.608 193.929C636.263 196.331 638.855 199.776 641.223 202.922C641.851 203.757 642.464 204.571 643.058 205.339C643.225 205.448 643.031 205.491 642.858 205.53C642.764 205.551 642.675 205.57 642.658 205.599C637.298 207.354 632.53 208.951 628.003 210.468C618.038 213.806 609.235 216.755 597.839 220.145C598.189 220.199 598.535 220.221 598.877 220.199L598.987 220.159C600.637 219.479 602.177 218.849 603.857 220.139C606.797 218.819 610.267 218.939 613.717 219.059C614.877 219.099 616.037 219.139 617.167 219.129C627.437 222.089 623.117 232.689 614.427 234.509C612.008 236.508 611.018 235.699 609.818 234.72L609.817 234.719C608.957 234.009 607.987 233.219 606.307 233.299C603.101 233.328 599.859 233.116 596.615 232.903L596.237 232.879C590.496 232.498 584.748 232.118 579.14 232.949C578.644 233.867 578.07 234.746 577.429 235.585C578.986 237.967 578.776 240.635 578.557 243.401L578.557 243.409C578.427 245.039 578.297 246.699 578.517 248.349C579.097 250.338 578.847 252.028 578.587 253.787L578.587 253.789C578.367 255.269 578.147 256.789 578.397 258.559C580.877 258.599 583.307 258.579 585.697 258.559L585.731 258.558C591.329 258.519 596.738 258.48 602.287 259.099C605.42 259.024 608.483 258.843 611.517 258.664L612.117 258.629C618.467 258.249 624.727 257.879 631.337 258.399C632.427 263.269 632.407 269.409 630.017 274.089C628.123 272.948 626.229 273.244 624.257 273.551L624.207 273.559C622.477 273.839 620.687 274.119 618.787 273.479C616.227 272.669 613.967 273.299 611.687 273.939L611.633 273.954C611.279 274.052 610.926 274.151 610.571 274.244C612.746 277.097 611.448 281.883 610.224 286.394C609.611 288.653 609.017 290.844 608.888 292.689C601.018 297.799 591.638 298.669 582.548 298.469C582.293 298.304 580.838 298.062 579.096 297.773C575.441 297.165 570.52 296.347 572.748 295.589C568.767 294.687 566.881 294.556 565.463 294.457C563.327 294.308 562.252 294.233 556.668 291.709C558.308 292.739 556.688 292.369 555.128 291.969C548.218 290.579 571.458 298.039 573.268 298.429C568.128 297.809 563.078 296.719 558.128 295.299C561.619 296.159 557.17 294.239 555.095 293.344C555.001 293.303 554.911 293.265 554.828 293.229C548.488 291.429 529.788 284.249 521.928 279.829C523.085 280.287 524.222 280.694 525.297 281.079C528.136 282.094 530.547 282.957 531.758 284.219C536.357 285.846 535.386 285.004 534.402 284.15C533.651 283.498 532.892 282.84 534.598 283.269C527.478 279.499 517.99 276.294 508.522 274.042C508.471 274.128 508.419 274.213 508.368 274.299C508.35 274.349 508.309 274.407 508.267 274.466C508.167 274.607 508.059 274.76 508.228 274.859C509.438 276.162 510.331 277.704 510.947 279.358C517.268 281.446 522.507 283.063 531.198 284.959C529.298 284.665 526.304 283.901 523.217 283.113C518.957 282.026 514.52 280.894 512.538 280.889C512.913 281.068 513.392 281.258 513.952 281.456C513.073 281.181 512.213 280.924 511.38 280.699C511.399 280.769 511.418 280.839 511.436 280.91C511.943 281.129 512.217 281.298 512.518 281.484L512.608 281.539L511.968 281.337L511.508 281.191C511.835 282.532 512.002 283.914 512.028 285.279C512.123 284.005 512.164 282.721 511.974 281.376C512.018 281.663 512.068 281.96 512.12 282.263C512.399 283.909 512.706 285.722 512.118 286.859C507.878 287.589 503.698 288.219 499.668 288.799L500.079 287.988L500.081 287.984C501.842 284.519 503.706 280.848 505.468 277.539C506.38 277.841 507.256 278.132 508.105 278.415C508.765 278.634 509.408 278.849 510.039 279.058C509.956 278.838 509.869 278.612 509.778 278.379C509.444 277.578 508.968 276.962 508.545 276.414C507.872 275.542 507.332 274.844 507.716 273.853C507.557 273.816 507.397 273.779 507.237 273.743C506.826 274.243 506.474 274.765 506.408 275.019C506.509 274.574 506.636 274.114 506.785 273.64C500.364 272.192 494.019 271.194 488.498 270.769C489.525 271.022 490.771 271.159 492.06 271.301C494.285 271.546 496.637 271.806 498.208 272.699C493.083 272.214 487.589 271.739 482.023 271.56C481.704 271.63 481.386 271.699 481.07 271.768C480.985 271.787 480.901 271.805 480.816 271.824C480.766 271.974 480.712 272.121 480.655 272.266C480.691 272.261 480.727 272.257 480.763 272.252C481.534 272.155 482.305 272.057 483.078 271.969C482.322 272.095 481.49 272.226 480.618 272.358C479.294 275.584 476.087 277.444 469.097 277.418C467.568 277.555 466.408 276.724 465.533 275.193C464.192 275.423 462.755 275.679 461.258 275.945C456.647 276.766 451.464 277.689 446.758 278.279L446.918 278.829L445.298 278.976C445.067 279.207 445.167 279.287 445.259 279.359C445.433 279.498 445.572 279.608 443.278 280.699C441.109 281.38 439.058 282.35 437.066 283.483C434.758 286.225 431.986 289.52 430.468 291.329L429.448 290.276C429.518 290.202 429.585 290.131 429.65 290.06C429.582 290.133 429.515 290.205 429.448 290.276L428.4 289.195C425.49 291.203 422.518 293.166 419.288 294.669C419.605 294.281 421.049 292.519 422.539 290.702C423.885 289.06 425.269 287.373 425.894 286.61L425.808 286.521L425.288 286.899C425.423 286.735 425.559 286.57 425.695 286.404L424.131 284.791ZM434.643 273.346C435.142 273.156 435.64 272.965 436.139 272.773C436.356 272.78 436.576 272.783 436.788 272.786C437.56 272.797 438.235 272.807 438.308 272.959C436.859 273.182 435.673 273.296 434.643 273.346ZM437.304 272.324C441.012 271.771 444.645 271.422 448.246 271.101C448.634 270.962 449.066 270.812 449.504 270.659C451.392 270 453.4 269.3 452.618 269.269L457.358 267.689C454.157 268.5 453.302 268.57 453.619 268.272C452.493 268.609 451.432 268.891 450.448 269.109C452.436 268.361 454.306 267.562 456.031 266.825C457.497 266.198 458.858 265.617 460.098 265.149C460.709 264.755 459.916 264.815 455.938 265.899C457.949 265.292 460.365 264.783 462.754 264.28C462.906 264.248 463.059 264.215 463.211 264.183C463.191 263.885 463.173 263.583 463.156 263.279C463.143 263.282 463.13 263.285 463.118 263.289C463.13 263.285 463.143 263.281 463.156 263.278C463.137 262.937 463.12 262.594 463.105 262.247C458.766 263.889 454.044 265.752 449.132 267.691C445.277 269.212 441.303 270.781 437.304 272.324ZM481.274 263.663C481.26 263.491 481.246 263.318 481.231 263.144C483.828 262.538 486.632 262.087 487.858 262.059C493.721 260.703 492.536 260.524 491.617 260.384C491.145 260.313 490.743 260.252 491.398 260.049C494.188 259.957 497.927 259.196 501.725 258.424C501.916 258.385 502.108 258.346 502.3 258.307C502.119 258.983 502.038 259.682 502.07 260.404C500.572 260.524 498.794 260.727 495.978 261.459C493.192 262.507 496.454 261.833 498.938 261.321C500.244 261.051 501.335 260.825 501.218 260.919C496.999 261.881 492.757 263.197 488.696 264.456C488.387 264.552 488.079 264.647 487.773 264.742C485.596 264.679 483.459 264.661 481.349 264.698C481.335 264.478 481.319 264.255 481.302 264.03C481.822 263.88 482.399 263.704 483.048 263.499C482.751 263.527 482.453 263.554 482.156 263.581C481.862 263.608 481.568 263.634 481.274 263.663ZM451.578 270.159C450.735 270.412 449.764 270.713 448.655 271.065C449.017 271.033 449.378 271.001 449.739 270.969C450.425 270.909 451.109 270.848 451.793 270.787C454.031 270.217 453.815 269.837 451.578 270.159ZM432.605 286.291C431.844 287.384 431.053 288.449 430.228 289.41C431.264 288.439 432.795 286.811 434.286 285.178C433.724 285.541 433.163 285.913 432.605 286.291ZM488.642 268.853C488.232 268.871 487.825 268.886 487.421 268.897C487.684 268.814 487.93 268.736 488.161 268.664C488.486 268.69 488.811 268.716 489.135 268.739C488.972 268.778 488.807 268.816 488.642 268.853ZM501.132 266.88C500.369 266.773 499.63 266.675 498.911 266.586C499.096 266.565 499.27 266.549 499.437 266.536C499.94 266.628 500.442 266.722 500.944 266.816C501.028 266.831 501.112 266.847 501.196 266.863C501.174 266.869 501.153 266.874 501.132 266.88ZM504.192 266.496C505.956 266.758 507.689 267.084 509.396 267.467C509.544 267.166 509.695 266.863 509.849 266.559C508.166 266.54 506.49 266.493 504.828 266.429C504.806 266.404 504.785 266.379 504.765 266.354C504.574 266.402 504.383 266.449 504.192 266.496ZM509.635 265.099C509.959 265.093 510.284 265.081 510.609 265.067L510.681 264.928C510.207 264.897 509.75 264.852 509.31 264.794C509.083 264.87 508.853 264.951 508.618 265.039L509.788 265.059C509.737 265.072 509.686 265.086 509.635 265.099ZM504.059 260.245C503.912 260.26 503.766 260.273 503.62 260.285C503.675 259.497 503.894 258.696 504.232 257.919C504.446 257.877 504.659 257.836 504.871 257.794C504.483 258.535 504.204 259.349 504.059 260.245ZM498.853 254.461C499.44 254.477 500.025 254.496 500.607 254.518C501.123 254.413 501.471 254.318 501.685 254.232C502.062 254.271 502.321 254.374 502.358 254.579C498.808 255.169 494.118 255.669 498.088 254.569C498.23 254.555 498.466 254.519 498.757 254.475C498.788 254.47 498.82 254.466 498.853 254.461ZM488.366 254.391C487.794 254.59 487.223 254.79 486.651 254.991C485.068 255.546 483.472 256.106 481.799 256.654L481.889 256.613C483.565 255.85 485.2 255.105 486.771 254.395C487.303 254.394 487.835 254.393 488.366 254.391ZM490.946 253.513C490.501 253.66 490.059 253.809 489.619 253.959C489.02 253.942 488.464 253.905 487.989 253.847C488.131 253.783 488.271 253.72 488.412 253.658C488.493 253.621 488.575 253.584 488.657 253.548C489.205 253.537 489.773 253.529 490.347 253.521C490.546 253.518 490.746 253.516 490.946 253.513ZM560.197 256.614C559.993 256.685 559.79 256.755 559.588 256.825C559.887 256.807 560.198 256.788 560.52 256.769C560.412 256.717 560.304 256.666 560.197 256.614ZM596.167 274.791C588.877 275.038 581.651 275.738 574.365 276.443L574.307 276.449C571.057 276.769 567.797 277.079 564.507 277.359C558.137 276.479 559.707 267.639 560.867 261.159C561.064 260.051 561.248 259.015 561.378 258.098C559.634 258.073 557.885 258.03 556.107 257.986C550.999 259.636 546.051 260.994 541.088 262.093C541.207 265.103 541.173 268.111 540.807 271.108C539.837 273.858 536.657 273.858 533.607 273.848C532.037 273.848 530.507 273.848 529.327 274.218C529.209 274.205 529.09 274.198 528.97 274.197C532.391 275.692 535.815 277.296 539.303 278.93C541.964 280.177 544.663 281.441 547.428 282.689L543.518 279.699C546.658 281.029 549.768 282.319 552.878 283.529L552.698 284.369C553.935 284.803 555.177 285.25 556.424 285.698C568.679 290.104 581.368 294.665 594.048 289.819C592.873 290.082 591.309 290.162 589.762 290.241C588.084 290.327 586.426 290.411 585.308 290.729C583.508 290.539 583.168 290.409 583.728 290.319C587.698 290.129 594.118 289.589 598.168 288.049C592.728 290.199 602.818 287.489 601.268 287.199C601.958 286.819 604.978 278.039 603.118 279.119C603.258 278.889 603.338 278.629 603.338 278.339C602.317 277.991 600.831 277.371 599.422 276.784C598.442 276.376 597.5 275.983 596.778 275.709C596.793 275.435 596.565 275.125 596.167 274.791ZM517.894 269.86C517.167 268.745 516.446 267.627 515.728 266.505C514.701 266.538 513.674 266.558 512.648 266.565C512.395 267.068 512.139 267.569 511.879 268.067C513.913 268.593 515.914 269.195 517.894 269.86ZM605.971 274.77C609.433 278.209 608.458 283.173 606.638 289.869C604.278 292.909 598.208 293.669 594.498 293.959C594.036 294.26 593.941 294.456 593.857 294.63C593.703 294.948 593.584 295.195 591.358 295.879C593.071 295.502 594.808 295.243 596.507 294.989C601.177 294.292 605.562 293.637 608.378 290.719C609.238 287.129 610.048 283.639 609.238 280.269C610.136 277.587 609.366 276.066 607.627 274.781C607.169 274.813 606.703 274.816 606.227 274.779C606.142 274.776 606.056 274.773 605.971 274.77ZM609.13 274.578C610.771 276.036 611.097 278.354 609.568 281.479C611.538 279.095 611.959 276.309 610.408 274.286C609.985 274.395 609.56 274.495 609.13 274.578ZM558.259 245.862C558.274 245.856 558.29 245.849 558.305 245.843C559.177 245.766 560.059 245.64 560.944 245.466C560.971 245.831 560.999 246.196 561.03 246.561C560.727 246.582 560.423 246.604 560.117 246.628C560.327 246.718 560.692 246.799 561.056 246.877C561.074 247.087 561.092 247.298 561.11 247.508C561.061 247.515 561.01 247.522 560.957 247.528C559.885 247.184 557.369 247.187 555.222 247.191H555.221C555.129 247.191 555.037 247.191 554.947 247.191C555.401 247.007 555.854 246.824 556.305 246.642C558.167 246.232 559.664 245.828 558.259 245.862ZM555.134 244.793C554.931 244.81 554.728 244.826 554.524 244.843C554.342 244.819 554.161 244.795 553.98 244.771C553.845 244.754 553.711 244.736 553.578 244.719C554.096 244.749 554.614 244.774 555.134 244.793ZM541.916 241.32C543.031 241.236 544.164 241.16 545.307 241.083C550.541 240.732 555.984 240.367 560.848 239.09C560.934 237.902 561.097 236.732 561.367 235.589C561.556 235.509 561.703 235.422 561.814 235.33C560.783 234.231 559.874 233.215 559.298 232.299C558.776 231.99 558.264 231.705 557.776 231.446C552.193 232.852 546.556 234.281 541.698 235.539L549.978 234.069L538.945 236.287C539.021 237.498 539.111 238.709 539.217 239.922L541.488 241.059L541.448 241.019C541.588 241.113 541.745 241.214 541.916 241.32ZM518.713 232.298C520.002 232.097 521.072 231.868 522.016 231.244C522.087 229.514 522.1 227.621 522.075 225.632C520.898 226.01 519.712 226.369 518.529 226.728C515.88 227.531 513.243 228.33 510.738 229.329L510.914 229.381C512.842 229.949 515.65 230.777 517.348 232.039C517.758 232.098 518.372 232.158 518.212 232C518.341 232.081 518.51 232.182 518.713 232.298ZM522 222.066C522.002 222.141 522.004 222.216 522.006 222.291C520.563 222.684 519.1 222.996 517.604 223.314C515.601 223.741 513.538 224.18 511.38 224.845C512.338 224.51 513.379 224.047 514.434 223.579C517.323 222.296 520.317 220.967 522 222.066ZM448.945 163.155C449.003 163.136 449.061 163.117 449.118 163.099L449.105 163.059C449.046 163.063 448.984 163.068 448.919 163.074L448.945 163.155ZM448.114 160.527L448.114 160.525C448.162 160.496 448.21 160.467 448.278 160.439L448.287 160.469C448.253 160.48 448.226 160.49 448.203 160.499C448.168 160.511 448.143 160.521 448.114 160.527ZM417.213 204.595C413.185 201.631 408.286 199.801 403.118 199.245C402.959 200.87 405.925 201.735 410.008 202.809C411.765 203.343 414.264 204.009 417.01 204.7C417.077 204.665 417.144 204.63 417.213 204.595ZM415.053 206.397C414.971 206.374 414.889 206.352 414.808 206.329C414.3 206.335 414.302 206.442 414.651 206.614C414.785 206.541 414.919 206.469 415.053 206.397ZM416.863 207.863C417.909 208.121 418.945 208.37 419.964 208.615C420.624 208.774 421.277 208.931 421.92 209.088C424.127 211.829 425.781 215.095 426.678 218.838C426.89 220.055 427.07 221.3 427.214 222.566C424.368 222.88 420.994 223.351 416.238 224.209L418.818 224.129C412.475 225.498 405.987 225.937 399.554 226.372C397.578 226.505 395.607 226.639 393.648 226.799C396.995 225.693 392.994 226.247 388.919 226.812C386.36 227.166 383.772 227.525 382.958 227.479C392.125 221.235 405.69 212.579 416.863 207.863ZM413.78 207.084C408.599 205.73 403.373 204.102 399.068 201.779C399.112 200.801 399.263 199.899 399.51 199.065C398.33 199.073 397.144 199.147 395.958 199.288C387.808 198.628 377.628 206.818 377.158 215.528C375.823 219.985 375.951 224.381 376.404 228.754C388.42 221.095 401.281 213.835 413.78 207.084ZM376.639 230.828C378.793 230.758 381.833 230.497 384.554 230.262C387.219 230.033 389.58 229.83 390.508 229.859C389.638 229.609 390.078 229.289 391.258 228.939C389.274 228.974 386.701 229.253 384.288 229.514C377.854 230.211 372.555 230.785 382.598 226.299C380.695 227.946 379.007 228.646 379.074 228.918C379.127 229.137 380.31 229.081 383.418 229.019C382.959 228.965 382.232 228.964 381.525 228.963C380.365 228.961 379.262 228.958 379.498 228.729C379.632 228.561 379.896 228.474 380.143 228.393C380.264 228.353 380.382 228.315 380.478 228.269L380.408 228.359C383.893 227.721 385.19 227.779 386.916 227.857C387.814 227.897 388.828 227.943 390.328 227.899L387.768 228.429C391.474 228.342 393.639 228.477 395.495 228.593C398.772 228.799 401.088 228.943 409.228 227.699C412.443 226.877 411.816 226.838 410.723 226.77C409.968 226.723 408.989 226.662 408.908 226.319C410.451 226.276 413.39 225.801 416.558 225.288C420.592 224.636 424.996 223.923 427.36 223.969C427.362 224 427.365 224.03 427.368 224.061C425.34 224.395 423.311 224.7 421.28 225.006C420.393 225.139 419.506 225.273 418.618 225.409C421.674 225.088 424.64 224.714 427.395 224.361C428.353 235.431 426.569 247.699 419.876 255.582C409.176 257.693 398.916 259.745 391.871 261.545C384.125 258.801 377.786 253.396 377.458 244.098C377.797 240.214 377.319 236.34 376.84 232.456L376.838 232.438C376.771 231.902 376.704 231.365 376.639 230.828ZM445.245 221.898C445.575 224.375 445.792 226.966 445.898 229.668C446.081 232.563 446.001 235.474 445.668 238.355C449.858 234.004 455.332 229.729 460.877 226.075C460.496 225.976 460.1 225.883 459.686 225.786C459.51 225.745 459.33 225.702 459.147 225.659C458.578 226.061 458.086 226.463 457.698 226.859C457.212 227.045 456.218 227.696 455.372 228.251C454.354 228.918 453.55 229.444 454.108 228.849C455.535 227.663 457.065 226.564 458.67 225.543C456.97 225.121 454.977 224.521 452.537 223.178C451.011 222.565 449.838 221.627 449.02 220.485C448.064 221.207 446.764 221.625 445.245 221.898ZM449.008 220.468C448.926 220.353 448.848 220.236 448.773 220.116C447.73 220.312 446.442 220.519 445.081 220.733C445.115 220.961 445.148 221.19 445.18 221.42C446.742 221.092 448.128 220.754 449.008 220.468ZM445.072 220.675C446.208 220.507 447.433 220.316 448.762 220.098C447.907 218.729 447.526 217.106 447.617 215.418C449.117 213.368 447.127 214.698 446.937 215.818C446.946 214.81 447.752 213.52 448.873 212.233C446.867 211.842 444.867 211.473 442.879 211.122C442.937 211.303 442.995 211.485 443.051 211.667C443.411 211.784 443.38 211.807 443.082 211.768C443.933 214.545 444.597 217.515 445.072 220.675ZM417.567 207.57C417.841 207.457 418.114 207.347 418.385 207.24C419.184 207.425 419.984 207.601 420.777 207.768C421.029 208.038 421.274 208.314 421.514 208.597C421.268 208.535 421.019 208.472 420.768 208.409C419.68 208.14 418.559 207.848 417.567 207.57ZM440.542 195.697C440.972 196.037 441.499 196.414 442.127 196.818V196.798C443.482 198.176 445.724 199.143 447.946 200.102C450.512 201.209 453.052 202.304 454.167 204.008C456.447 204.628 458.767 205.028 457.987 204.558C460.037 205.086 461.691 205.273 462.879 205.379C462.673 200.649 462.611 195.928 463.097 191.228C462.799 190.14 462.642 189.2 462.607 188.392C461.672 188.724 460.696 189.047 459.691 189.38C456.915 190.3 453.924 191.29 451.008 192.739C448.629 192.777 444.788 194.018 440.542 195.697ZM470.086 184.039C471.747 184.26 473.517 184.646 475.213 185.015L475.227 185.018L475.3 185.034C477.597 185.529 479.759 185.996 481.301 185.978C481.233 185.689 481.145 185.446 481.011 185.232C480.318 184.125 478.374 183.801 471.289 182.031C470.984 182.781 470.578 183.445 470.086 184.039ZM464.427 183.661C465.567 183.378 466.708 183.1 467.85 182.828C467.909 182.82 467.964 182.814 468.018 182.809C463.475 184.482 458.802 186.119 454.192 187.733C447.464 190.09 440.871 192.399 435.017 194.705M482.255 185.981C482.214 185.977 482.173 185.973 482.132 185.97C482.149 185.821 482.171 185.673 482.198 185.529C482.207 185.597 482.215 185.668 482.224 185.738C482.235 185.82 482.245 185.902 482.255 185.981ZM489.216 195.684C488.92 195.022 488.634 194.342 488.35 193.664L488.347 193.658L488.34 193.642C487.531 191.711 486.727 189.796 485.716 188.361C485.204 186.357 485.01 184.286 485.218 182.249M497.002 209.04C497.62 209.434 498.255 209.81 498.903 210.168C498.507 210.325 498.11 210.474 497.712 210.618C497.484 210.087 497.246 209.562 497.002 209.04ZM504.067 207.632C503.979 207.685 503.892 207.737 503.804 207.788C501.892 206.854 500.056 205.795 498.348 204.579C499.408 205.429 500.518 206.259 501.678 206.999C498.148 204.959 494.988 202.299 492.508 199.099C494.877 201.699 499.295 204.549 502.58 206.668C503.11 207.01 503.61 207.333 504.067 207.632ZM504.535 212.761C502.838 213.558 501.104 214.292 499.349 214.982C499.913 215.187 500.431 215.431 500.903 215.711C502.358 214.775 503.838 213.911 505.349 213.064C505.077 212.965 504.805 212.864 504.535 212.761ZM506.66 213.52C505.348 214.147 503.97 214.702 502.588 215.259C502.102 215.455 501.615 215.652 501.131 215.851C501.206 215.899 501.28 215.949 501.353 215.999C502.622 216.082 505.313 214.982 507.732 213.867C507.373 213.755 507.016 213.639 506.66 213.52ZM508.2 214.012C506.309 215.047 504.377 215.998 502.415 216.887C504.241 218.747 504.846 221.485 504.197 224.848C504.786 224.854 505.328 224.891 505.801 224.991C511.166 223.079 516.644 221.156 521.91 219.327C521.904 219.15 521.898 218.972 521.891 218.795C520.628 218.012 519.387 217.181 518.181 216.273C518.076 216.256 517.97 216.239 517.864 216.222C518.866 217.215 519.926 218.166 521.028 219.049L520.782 218.869C519.811 218.159 518.492 217.194 517.281 216.124C514.288 215.613 511.209 214.928 508.2 214.012ZM507.546 226.224C507.465 226.043 507.364 225.884 507.245 225.746C507.551 225.619 507.86 225.49 508.17 225.36C511.035 224.166 514.043 222.911 516.248 222.012C514.481 222.775 512.904 223.577 511.365 224.359C510.094 225.006 508.849 225.638 507.546 226.224ZM511.762 210.124C511.787 210.099 511.812 210.074 511.837 210.048C512.601 210.26 513.369 210.459 514.141 210.647C514.127 210.668 514.114 210.689 514.102 210.71C513.318 210.527 512.538 210.332 511.762 210.124ZM511.176 209.861C511.135 209.884 511.094 209.907 511.053 209.93C510.789 209.856 510.526 209.78 510.264 209.703C510.304 209.678 510.344 209.653 510.385 209.628C510.648 209.708 510.911 209.785 511.176 209.861ZM493.517 201.617C493.514 201.61 493.511 201.604 493.508 201.597C493.552 201.639 493.595 201.682 493.639 201.725C493.612 201.701 493.584 201.676 493.556 201.652C493.543 201.641 493.53 201.629 493.517 201.617ZM494.798 202.857C495.011 203.132 495.089 203.359 494.928 203.499C494.89 203.695 495.281 204.052 495.63 204.37C495.742 204.472 495.85 204.571 495.938 204.659C498.267 206.303 496.632 204.651 494.798 202.857ZM492.94 201.035C492.852 200.977 492.765 200.915 492.679 200.85C492.461 200.634 492.285 200.432 492.188 200.259C492.367 200.456 492.629 200.725 492.94 201.035ZM503.318 258.101C503.077 258.837 502.949 259.582 502.948 260.338C502.968 260.336 502.987 260.335 503.006 260.333C502.955 259.661 503.065 258.915 503.356 258.094C503.344 258.096 503.331 258.099 503.318 258.101ZM502.92 266.32C502.777 266.301 502.635 266.283 502.492 266.266C502.909 266.192 503.386 266.09 503.948 265.949C503.58 266.086 503.239 266.209 502.92 266.32ZM483.876 265.928C483.055 265.965 482.238 266.013 481.416 266.07C481.411 265.905 481.404 265.738 481.396 265.57C482.931 265.446 484.458 265.353 485.994 265.29C485.28 265.508 484.574 265.722 483.876 265.928ZM384.368 276.235C382.285 275.165 380.26 273.915 378.298 272.705L378.288 272.698C377.992 272.514 377.698 272.332 377.405 272.151C363.128 275.64 349.078 279.973 335.208 286.289C335.229 286.301 335.25 286.312 335.27 286.323C335.315 286.348 335.356 286.371 335.398 286.399C334.978 286.359 333.808 286.589 332.848 286.839C334.029 288.273 335.682 288.225 337.716 288.167C339.057 288.128 340.563 288.085 342.208 288.459C341.498 290.199 369.168 289.199 356.858 288.599C362.121 287.875 367.102 287.024 371.932 286.039L371.757 284.085C371.737 284.086 371.717 284.087 371.698 284.089L371.338 279.999C371.356 279.998 371.374 279.998 371.392 279.997L371.138 277.159L371.151 277.158L371.098 276.559C375.576 276.334 379.988 276.237 384.368 276.235ZM371.163 277.289H371.158L371.398 279.997C371.4 279.997 371.402 279.997 371.404 279.997L371.163 277.289ZM371.495 281.022C371.493 281.022 371.491 281.022 371.489 281.023L371.514 281.305C371.516 281.305 371.518 281.305 371.52 281.304L371.495 281.022ZM371.658 282.845C371.656 282.845 371.653 282.846 371.651 282.846L371.677 283.134C371.679 283.133 371.681 283.133 371.683 283.132L371.658 282.845ZM371.768 284.085C371.766 284.085 371.764 284.085 371.761 284.085L371.935 286.038C371.937 286.038 371.94 286.037 371.942 286.037L371.768 284.085ZM384.506 286.659C383.919 286.799 383.389 286.927 382.938 287.039C383.528 286.903 384.149 286.77 384.8 286.634C384.702 286.643 384.604 286.651 384.506 286.659ZM371.672 283.134L371.646 282.846C371.64 282.847 371.634 282.848 371.628 282.849L371.488 281.309C371.495 281.308 371.502 281.307 371.509 281.306L371.483 281.024C371.475 281.025 371.466 281.027 371.458 281.029L371.648 283.139C371.656 283.137 371.664 283.136 371.672 283.134ZM555.912 285.759C554.651 285.297 553.404 284.84 552.128 284.289C552.373 284.821 554.082 285.321 555.769 285.815C556.331 285.979 556.891 286.143 557.393 286.307C556.895 286.12 556.402 285.939 555.912 285.759ZM550.358 289.489C548.828 289.549 546.288 288.379 545.078 287.489C546.828 288.179 548.588 288.839 550.358 289.489ZM493.114 271.69C492.446 271.605 491.777 271.52 491.108 271.429C491.016 271.441 490.921 271.464 490.826 271.487C490.766 271.502 490.706 271.517 490.648 271.529C491.557 271.599 492.464 271.737 493.371 271.876C494.658 272.072 495.943 272.269 497.228 272.269C495.867 272.039 494.493 271.865 493.114 271.69ZM531.678 276.762L531.588 276.719C531.93 277.51 533.331 277.968 535.348 278.627C537.281 279.259 539.781 280.076 542.458 281.549C542.858 281.209 527.668 273.219 535.868 278.629C534.46 278.087 533.528 277.643 531.678 276.762ZM391.798 219.969L396.588 217.129C394.998 218.949 394.078 219.389 391.798 219.969ZM451.192 189.885C452.276 189.499 455.01 188.526 455.748 187.779L451.098 189.919L451.192 189.885ZM563.778 292.869C564.19 292.977 564.604 293.09 565.018 293.206C564.604 293.096 564.191 292.984 563.778 292.869ZM555.56 290.311C551.498 288.836 544.749 286.386 543.668 284.939C541.436 286.035 555.99 290.613 558.248 291.324L558.328 291.349C557.839 291.139 556.831 290.773 555.56 290.311ZM564.659 292.054C564.158 291.919 563.541 291.753 562.798 291.539H562.808C562.642 291.485 562.472 291.427 562.293 291.366C563.193 291.698 563.937 292.03 564.647 292.347C566.519 293.183 568.158 293.915 571.798 294.259C571.144 294.049 570.295 293.886 569.426 293.718C568.298 293.501 567.136 293.277 566.318 292.939C566.658 292.591 566.215 292.472 564.659 292.054ZM498.91 246.822L498.914 246.823L498.915 246.823L498.916 246.824C499.714 247.019 500.405 247.189 500.912 247.328C499.397 247.258 497.879 247.188 496.352 247.124C496.595 247.073 496.837 247.021 497.078 246.969L495.568 247.091C495.368 247.083 495.167 247.074 494.967 247.066L497.811 246.551C498.193 246.646 498.562 246.736 498.91 246.822ZM489.937 240.497C492.364 239.958 494.664 239.487 496.875 239.059C497.278 238.938 497.68 238.814 498.083 238.687C494.732 233.663 491.244 228.728 487.497 223.958L487.465 223.909C486.958 223.673 486.449 223.441 485.939 223.213L485.312 223.432C483.516 224.058 481.727 224.682 479.954 225.318C479.952 226.787 479.927 228.343 479.827 229.908C479.799 232.406 479.789 234.902 479.806 237.398C480.856 238.845 482.035 240.147 483.447 241.192C485.011 240.845 486.563 240.438 488.097 239.938C487.547 239.888 486.977 239.838 485.667 240.178C486.097 239.805 488.668 239.498 490.376 239.293C490.772 239.246 491.122 239.204 491.387 239.168C490.766 239.413 489.916 239.723 489.106 240.017C488.561 240.216 488.034 240.408 487.607 240.568C488.393 240.588 489.169 240.561 489.937 240.497ZM502.247 245.878C501.914 246.346 500.913 246.343 499.938 246.165L502.458 245.709L502.238 245.179L502.308 245.164C502.548 245.538 502.786 245.912 503.025 246.287C502.704 246.168 502.442 246.032 502.247 245.878ZM540.757 256.618C541.144 256.636 541.519 256.652 541.883 256.667L541.691 256.708L540.757 256.618ZM576.814 234.768C576.967 234.946 577.108 235.126 577.238 235.307C577.872 234.543 578.424 233.797 578.902 232.985C578.459 233.053 578.017 233.129 577.576 233.214C577.338 233.743 577.084 234.262 576.814 234.768ZM615.898 207.299C609.287 209.563 604.363 211.043 599.321 212.505L580.947 215.428C581.257 215.492 581.849 215.477 582.418 215.463C583.373 215.44 584.265 215.418 583.657 215.768C581.168 216.453 580.066 216.548 579.045 216.637L579.044 216.637C578.899 216.649 578.755 216.662 578.608 216.676C578.105 215.304 578.394 212.896 578.681 210.507L578.692 210.415C578.96 208.18 579.224 205.98 578.837 204.679C578.677 200.229 581.077 200.659 583.847 201.159L583.886 201.166C585.445 201.444 587.128 201.744 588.527 201.189C595.987 198.929 603.587 197.939 611.157 197.369C612.417 197.229 613.647 196.979 614.857 196.729H614.827C618.087 196.059 621.207 195.419 624.567 196.999C624.746 196.533 624.914 196.08 625.071 195.638C626.753 197.067 628.292 198.671 629.708 200.509C629.738 200.279 629.708 199.999 629.658 199.679C629.859 200.003 630.237 200.376 630.618 200.75C631.222 201.344 631.83 201.942 631.738 202.359C626.118 204.799 620.708 206.679 614.478 207.369L615.898 207.299ZM627.138 190.869C626.926 190.709 626.72 190.552 626.518 190.398C626.618 189.843 626.691 189.315 626.739 188.813C627.216 189.252 627.784 189.766 628.363 190.29L628.365 190.292C631.118 192.784 634.142 195.521 629.028 191.689C627.089 190.027 627.179 190.164 627.405 190.508C627.596 190.798 627.882 191.234 627.138 190.869ZM545.48 208.518C550.647 209.273 556.07 210.067 560.763 211.502C560.804 214.676 560.64 217.81 559.957 220.839C559.901 221.195 559.868 221.55 559.856 221.903C557.743 222.421 555.698 222.907 554.127 223.068L556.767 223.128C555.368 223.661 553.988 224.063 552.665 224.374C551.951 224.079 551.232 223.797 550.508 223.529C548.369 222.666 546.108 221.813 543.803 220.943C542.116 220.307 540.406 219.661 538.702 218.997C538.803 215.187 538.988 211.374 539.215 207.546C541.211 207.893 543.323 208.202 545.48 208.518ZM553.818 231.089C554.523 230.846 555.154 230.632 555.725 230.442C555.823 230.486 555.924 230.531 556.028 230.579C555.272 230.761 554.526 230.934 553.818 231.089ZM560.846 243.956C560.841 243.868 560.837 243.78 560.832 243.692C560.462 243.767 560.09 243.836 559.718 243.899V243.909C560.069 243.955 560.446 243.97 560.846 243.956ZM576.627 234.558C576.538 234.462 576.445 234.366 576.349 234.27C576.573 233.964 576.787 233.651 576.993 233.33C577.119 233.304 577.245 233.278 577.371 233.253C577.157 233.694 576.908 234.129 576.627 234.558ZM575.735 233.645C575.725 233.659 575.715 233.672 575.705 233.686L575.665 233.653L575.679 233.631L575.76 233.61C575.752 233.622 575.744 233.633 575.735 233.645ZM539.688 225.519C540.857 226 541.849 226.378 542.708 226.681C542.667 226.692 542.626 226.704 542.585 226.716C542.546 226.727 542.507 226.739 542.468 226.75L542.124 226.624C540.637 226.079 539.666 225.724 539.688 225.519ZM538.616 225.427C539.455 225.761 540.656 226.197 542.364 226.78C541.459 227.046 540.623 227.317 539.827 227.576C539.421 227.708 539.024 227.836 538.635 227.959C538.623 227.115 538.617 226.271 538.616 225.427ZM521.571 198.551C520.626 198.263 519.701 197.963 518.801 197.649C519.228 197.193 519.656 196.735 520.081 196.274C520.129 196.255 520.175 196.233 520.218 196.209L520.164 196.184C520.816 195.475 521.459 194.76 522.081 194.034C522.086 194.81 522.029 195.519 521.837 196.098C521.722 196.831 521.635 197.653 521.571 198.551ZM517.734 197.265C518.058 196.949 518.38 196.632 518.702 196.316C517.248 196.07 515.196 195.184 513.241 194.34C511.601 193.633 510.03 192.955 508.938 192.709C511.351 194.532 514.349 196.011 517.734 197.265ZM487.388 177.412C495.251 177.937 503.011 179.21 510.177 181.023C510.721 180.524 511.288 180.045 511.873 179.587C503.899 177.949 493.753 176.29 504.398 178.769C507.488 179.339 510.208 179.949 507.488 179.449C502.19 178.365 494.871 177.751 488.437 177.239C488.091 177.294 487.741 177.352 487.388 177.412ZM514.248 182.129C513.699 182.429 513.176 182.759 512.681 183.115L513.138 185.349C512.299 185.203 511.457 185.06 510.613 184.921C508.525 187.13 507.182 189.972 506.708 193.229C508.308 193.969 510.398 194.689 511.078 194.869C512.17 195.019 510.526 194.06 509.294 193.34C508.721 193.006 508.237 192.724 508.158 192.629C509.598 187.389 514.498 183.979 519.018 181.309C518.084 180.936 515.212 180.274 511.963 179.605L512.371 181.6C513.002 181.772 513.627 181.948 514.248 182.129ZM485.797 177.029C486.197 177.061 486.604 177.094 487.015 177.126C486.802 177.189 486.57 177.262 486.317 177.345C486.012 177.328 485.706 177.311 485.401 177.296C485.489 177.207 485.623 177.118 485.797 177.029ZM484.083 176.89C483.583 176.999 483.083 177.099 482.593 177.187C481.695 177.163 480.797 177.149 479.899 177.146C480.637 177.002 481.374 176.858 482.112 176.721C482.745 176.778 483.404 176.834 484.083 176.89ZM424.217 179.458C432.073 179.196 439.697 178.807 447.105 178.327C445.304 178.566 442.97 178.968 439.698 179.609C440.78 179.498 441.872 179.451 442.963 179.404C443.545 179.379 444.127 179.353 444.708 179.319C443.129 179.687 441.797 180.011 440.652 180.29C439.215 180.64 438.075 180.918 437.118 181.119C444.038 180.059 451.318 179.429 458.288 179.299C453.765 180.189 449.063 180.875 444.326 181.566C436.098 182.767 427.764 183.982 420.085 186.312C414.001 184.012 406.847 182.904 398.625 183.03C404.789 182.321 411.079 181.836 417.427 181.918L417.627 181.208C421.563 180.614 421.638 180.923 421.709 181.218C421.765 181.455 421.82 181.682 423.857 181.428C422.477 181.578 422.378 181.523 422.212 181.429C422.167 181.404 422.118 181.376 422.037 181.348C426.917 181.272 427.64 180.899 428.329 180.545C428.819 180.292 429.29 180.049 431.227 179.928C430.246 179.722 428.447 179.825 426.872 179.915C424.79 180.034 423.101 180.13 424.217 179.458ZM421.2 186.752C420.896 186.627 420.59 186.505 420.28 186.386C422.037 185.923 424.32 185.322 425.108 185.329C423.934 185.851 422.612 186.313 421.2 186.752ZM442.469 251.042C443.995 247.225 445.041 243.197 445.577 239.099L446.531 239.328C452.104 240.664 457.787 242.027 463.222 243.934L463.196 244.901C461.664 245.326 460.149 245.827 458.657 246.438C459.161 246.372 459.684 246.277 460.175 246.187C460.942 246.047 461.635 245.92 462.067 245.938C460.801 246.404 459.364 246.679 457.901 246.958C456.221 247.28 454.506 247.608 452.977 248.238C453.108 248.359 453.246 248.478 453.392 248.595C450.111 249.389 446.412 250.209 442.469 251.042ZM463.315 240.095L463.319 239.89C462.386 239.595 461.318 239.297 460.068 238.989C460.8 239.281 461.771 239.595 462.797 239.927L462.816 239.933C462.982 239.987 463.148 240.04 463.315 240.095ZM463.188 232.577C463.279 233.495 463.326 234.62 463.342 235.908C463.158 235.863 462.973 235.82 462.788 235.779C462.97 235.879 463.155 235.98 463.344 236.081C463.353 236.909 463.349 237.801 463.337 238.746C462.252 238.426 461.12 238.083 459.928 237.699C463.848 238.129 458.858 236.269 457.758 235.909C458.598 235.159 461.248 233.229 462.138 233.179C462.485 232.975 462.835 232.774 463.188 232.577ZM454.983 255.436C457.652 255.015 460.323 254.593 462.995 254.167C462.99 254.771 462.986 255.375 462.986 255.977C458.766 257.541 454.516 259.101 450.248 260.667L450.247 260.667C443.812 263.028 437.337 265.404 430.869 267.833C433.618 265.383 436.02 262.573 438.051 259.504C438.653 259.37 439.255 259.235 439.858 259.099L439.028 258.799L447.133 257.761C447.535 257.717 448.057 257.65 448.718 257.559L447.133 257.761C444.696 258.033 446.687 257.503 448.882 256.919C450.473 256.496 452.172 256.044 452.368 255.849L454.983 255.436ZM462.988 257.131C457.758 258.427 459.591 257.569 462.986 256.352C462.986 256.612 462.987 256.872 462.988 257.131ZM458.234 259.065C460.304 258.317 461.526 257.876 462.989 257.246L462.99 257.457C460.506 258.659 458.786 259.471 457.808 259.219L458.234 259.065ZM441.833 252.558C445.572 251.92 447.492 251.661 441.485 253.33C441.604 253.074 441.719 252.816 441.833 252.558ZM479.947 223.139C481.155 222.815 482.373 222.502 483.584 222.194C482.844 221.883 482.101 221.58 481.354 221.283C480.879 221.456 480.407 221.63 479.938 221.806C479.94 222.233 479.944 222.679 479.947 223.139ZM484.824 220.064C485.036 220.353 485.258 220.661 485.489 220.989C484.968 220.781 484.447 220.576 483.923 220.374C484.081 220.319 484.239 220.264 484.398 220.21C484.539 220.161 484.681 220.112 484.824 220.064ZM463.137 210.458C463.199 211.584 463.26 212.709 463.316 213.835C461.588 213.374 459.865 212.929 458.15 212.497C458.437 212.337 458.722 212.214 458.997 212.148C459.577 211.348 459.627 211.058 459.477 210.968C459.997 210.685 461.019 209.924 463.017 208.226C463.056 208.967 463.096 209.707 463.137 210.448L463.137 210.458ZM455.537 214.698C455.79 214.44 456.096 214.129 456.434 213.814C456.775 213.891 457.115 213.968 457.455 214.046C456.903 214.189 456.264 214.406 455.537 214.698ZM456.037 216.448C454.811 215.213 456.498 214.514 457.574 214.074C459.518 214.521 461.459 214.994 463.395 215.498C463.466 217.126 463.521 218.753 463.543 220.38C462.946 220.311 462.398 220.353 461.947 220.538C462.511 220.72 463.044 220.9 463.55 221.078C463.553 221.427 463.554 221.775 463.553 222.123C463.359 222.063 463.167 222.003 462.976 221.944L462.967 221.941C459.389 220.835 456.253 219.866 454.587 216.018C455.297 217.348 456.997 217.738 458.327 217.888C456.312 217.621 456.354 217.343 456.495 216.39C456.539 216.094 456.593 215.734 456.597 215.288C456.287 215.598 456.067 216.038 456.037 216.448ZM453.702 207.92C452.736 208.607 451.552 209.561 450.446 210.606C449.515 210.382 448.589 210.16 447.669 209.939L447.667 209.939C445.743 209.477 443.847 209.022 441.985 208.568C441.214 206.546 440.332 204.64 439.338 202.852C440.313 203.357 441.136 203.776 441.547 203.948C442.931 203.517 444.932 204.467 446.958 205.43C448.315 206.074 449.684 206.724 450.887 206.968C451.536 207.399 452.116 207.527 452.712 207.657C453.033 207.728 453.359 207.799 453.702 207.92ZM396.688 262.319C396.249 262.417 395.824 262.51 395.41 262.599C394.895 262.472 394.383 262.336 393.875 262.189C396.01 261.886 397.878 261.703 396.688 262.319ZM442.714 184.339C436.816 185.39 430.912 186.783 425.028 188.569C426.34 189.282 427.59 190.062 428.779 190.91C430.103 190.372 431.418 189.838 432.731 189.304L432.735 189.302C434.84 188.447 436.94 187.594 439.067 186.728C439.018 186.719 438.971 186.709 438.926 186.699C438.201 186.547 437.746 186.451 431.857 188.708C435.207 187.014 438.899 185.612 442.714 184.339ZM444.699 185.137C446.026 184.546 447.32 183.969 448.667 183.393L448.91 183.359C448.492 183.61 448.112 183.871 447.736 184.129C446.402 185.046 445.117 185.93 442.307 186.198C443.126 185.838 443.917 185.486 444.697 185.138L444.699 185.137ZM457.5 182.507C457.564 182.463 457.629 182.42 457.698 182.376C457.925 182.356 458.153 182.337 458.38 182.319L457.817 182.918V182.908C453.939 183.923 452.485 184.094 450.487 184.33C449.59 184.436 448.583 184.555 447.197 184.768C452.467 182.398 454.387 183.098 453.897 183.798C456.407 183.237 456.931 182.886 457.5 182.507ZM483.697 176.438C483.36 176.495 483.023 176.555 482.687 176.616C483.403 176.647 484.12 176.682 484.836 176.72C486.508 176.329 488.138 175.862 489.397 175.448C486.78 175.785 484.163 176.17 481.546 176.568L481.905 176.583C482.257 176.553 482.609 176.525 482.961 176.497L482.962 176.497C483.207 176.478 483.452 176.458 483.697 176.438ZM481.24 176.641L481.132 176.631L480.757 176.688C480.918 176.672 481.079 176.656 481.24 176.641ZM499.928 178.139C496.547 177.66 493.152 177.303 489.749 177.039C490.383 176.948 490.997 176.868 491.583 176.802C491.99 176.827 492.411 176.851 492.84 176.875C495.824 177.043 499.131 177.229 499.928 178.139ZM498.668 179.659C496.202 179.219 487.017 179.068 478.515 179.105C478.28 179.151 478.05 179.197 477.823 179.241C480.164 179.371 483.014 179.662 485.688 179.936C489.479 180.323 492.919 180.675 494.058 180.479C493.035 180.288 491.206 180.087 489.439 179.894C487.595 179.692 485.818 179.497 485.098 179.329C489.888 179.169 494.688 179.759 499.388 180.769C499.424 180.674 498.871 180.585 498.189 180.475C496.991 180.282 495.391 180.024 495.867 179.559C497.133 179.639 498.189 179.689 498.668 179.659ZM509.808 280.309C510.052 280.363 510.3 280.422 510.551 280.484L510.582 280.576C510.356 280.494 510.1 280.406 509.808 280.309ZM506.388 279.569C507.907 280.053 509.35 280.51 510.701 280.937C512.437 286.339 510.679 286.439 506.646 286.667C505.301 286.743 503.703 286.833 501.898 287.139C502.618 285.779 503.618 283.939 504.328 282.959C504.118 283.399 502.688 286.399 502.518 286.759C503.275 286.66 504.242 286.534 505.27 286.399L505.312 286.394C507.203 286.146 509.295 285.873 510.668 285.699C510.675 285.691 510.683 285.684 510.69 285.676C510.697 285.667 510.705 285.659 510.712 285.649L510.718 285.649L510.72 285.638C510.87 285.422 510.84 285.031 510.81 284.656C510.808 284.627 510.806 284.599 510.804 284.57C510.801 284.526 510.797 284.482 510.795 284.439L510.795 284.428C510.795 284.299 510.795 284.171 510.798 284.049C510.784 284.163 510.786 284.296 510.795 284.439C510.794 284.851 510.793 285.284 510.72 285.638L510.712 285.649L509.117 285.816C507.039 286.033 504.937 286.252 502.918 286.459C503.47 285.364 504.015 284.279 504.548 283.22L504.562 283.194C505.192 281.941 505.804 280.724 506.388 279.569ZM609.307 180.076C609.377 180.096 609.448 180.116 609.518 180.135C609.066 180.188 608.611 180.243 608.156 180.3C604.827 178.822 606.815 179.379 608.954 179.978C609.072 180.011 609.189 180.043 609.307 180.076ZM603.778 180.659C603.886 180.706 604.014 180.757 604.159 180.813C603.77 180.862 603.382 180.911 602.996 180.958C601.622 180.339 601.213 180.01 603.778 180.659ZM480.918 254.799C481.239 254.66 481.559 254.52 481.878 254.38L482.264 254.384C481.863 254.51 481.471 254.63 481.094 254.745L480.918 254.799ZM538.66 229.412C541.474 228.492 543.542 227.537 539.937 227.838L538.638 228.163C538.644 228.579 538.651 228.996 538.66 229.412ZM578.684 216.86C578.748 217.002 578.823 217.131 578.91 217.244C579.031 217.19 579.14 217.135 579.237 217.078C579.296 216.909 579.052 216.851 578.684 216.86ZM462.998 207.846L462.705 208.091L462.703 208.092C462.238 208.48 461.701 208.929 461.087 209.448C461.346 209.468 461.992 208.961 463.012 208.129L462.998 207.846ZM485.654 175.011C485.669 175.048 485.734 175.072 485.897 175.068C486.147 175.033 486.402 174.994 486.659 174.952C485.481 175.185 484.421 175.374 483.89 175.192C484.479 175.132 485.067 175.071 485.654 175.011ZM504.928 167.281C503.188 167.364 501.102 167.53 498.467 167.808C498.036 168.111 498.741 168.214 499.75 168.232C500.424 168.108 501.103 167.983 501.784 167.858L501.785 167.858C502.827 167.666 503.876 167.473 504.928 167.281ZM498.631 169.355C498.356 169.356 498.08 169.358 497.804 169.361C498.034 169.241 498.291 169.104 498.407 168.998L500.417 168.858C499.661 169.073 499.076 169.235 498.631 169.355ZM495.997 169.198L498.407 168.998C498.617 168.798 498.317 168.718 495.997 169.198ZM336.875 187.939C337.222 187.958 337.528 187.997 337.804 188.032C338.696 188.146 339.277 188.219 339.933 187.447C341.519 187.305 342.881 187.269 343.347 187.428C342.987 188.018 339.797 188.298 336.927 188.538L336.875 187.939ZM454.097 208.078C453.948 208.126 453.805 208.074 453.794 207.953C453.894 207.99 453.995 208.031 454.097 208.078ZM491.297 171.604C490.573 171.701 489.834 171.798 489.098 171.893C488.501 172.095 488.086 172.282 487.967 172.428C487.512 172.564 488.748 172.25 490.501 171.806L491.297 171.604ZM400.607 181.688L404.897 181.268C403.627 182.138 402.027 182.208 400.607 181.688ZM443.478 224.068C442.288 225.778 442.468 227.308 442.658 228.898C442.748 229.638 442.828 230.388 442.788 231.178C444.438 229.228 444.098 227.428 443.698 225.318V225.278C443.618 224.888 443.538 224.478 443.478 224.068ZM425.678 212.778C426.636 212.798 426.319 212.002 426.01 211.223L426.008 211.218C425.868 210.868 425.728 210.518 425.708 210.258C425.198 210.228 425.068 210.468 425.098 210.818C425.128 211.108 425.258 211.478 425.398 211.838C425.528 212.178 425.658 212.518 425.668 212.778H425.678ZM330.148 286.499L330.115 286.507C330.96 286.231 331.729 285.89 332.487 285.554C333.855 284.948 335.184 284.36 336.848 284.199C334.708 285.589 332.778 286.049 330.158 286.509L330.148 286.499ZM399.188 261.289C398.268 261.009 412.778 256.929 416.468 257.079C415.498 257.298 414.517 257.518 413.54 257.738L413.529 257.74C407.059 259.195 400.759 260.611 399.188 261.289ZM618.588 208.599C617.737 208.865 617.099 209.137 616.55 209.372C615.738 209.719 615.121 209.983 614.298 210.019C614.933 209.801 615.557 209.589 616.163 209.383C623.838 206.77 628.506 205.18 614.918 208.119C615.972 207.85 617.065 207.595 618.172 207.337C621.223 206.625 624.384 205.889 627.158 204.759C626.41 204.679 625.929 204.841 625.292 205.055C624.967 205.164 624.601 205.287 624.138 205.399C624.583 205.257 625.108 205.078 625.68 204.882C627.933 204.114 630.9 203.101 632.488 203.189C629.678 205.139 623.038 207.299 618.588 208.599ZM340.868 281.809C346.035 279.792 344.146 280.2 342.327 280.593C340.792 280.925 339.305 281.247 342.158 280.089L341.64 280.28C340.132 280.835 338.627 281.39 337.138 282.009C341.206 280.094 342.385 279.9 343.82 279.664C344.882 279.489 346.085 279.291 348.701 278.357C347.899 278.647 347.108 278.959 346.319 279.271C345.912 279.431 345.505 279.591 345.098 279.749C343.835 280.559 346.233 279.827 348.548 279.121C350.376 278.563 352.151 278.021 352.028 278.269C350.498 278.849 338.628 282.969 340.878 281.809H340.868Z" fill="#222222"/>
<path d="M513.952 281.456C514.596 281.658 515.249 281.87 515.909 282.086C515.187 281.871 514.527 281.66 513.952 281.456Z" fill="#222222"/>
<path d="M515.909 282.086C516.24 282.194 516.573 282.303 516.907 282.413C521.727 283.998 526.755 285.651 530.548 285.229C527.159 284.842 520.369 283.41 515.909 282.086Z" fill="#222222"/>
<path d="M549.243 171.394C548.2 171.159 547.195 170.934 546.248 170.729C547.457 170.989 548.447 171.209 549.243 171.394Z" fill="#222222"/>
<path d="M535.099 170.688C533.729 170.332 532.488 169.996 531.948 169.849C533.075 170.145 534.126 170.424 535.099 170.688Z" fill="#222222"/>
<path d="M524.186 170.299L524.197 170.298L524.18 170.159L524.168 170.159L524.186 170.299Z" fill="#222222"/>
<path d="M523.449 164.489L523.467 164.629L523.475 164.629L523.457 164.488L523.449 164.489Z" fill="#222222"/>
<path d="M523.449 164.489L523.437 164.398C522.797 164.478 522.147 164.558 521.487 164.638L523.449 164.489Z" fill="#222222"/>
<path d="M424.608 177.528C424.598 177.522 424.587 177.517 424.575 177.511C424.566 177.507 424.557 177.503 424.547 177.498C424.567 177.509 424.587 177.518 424.608 177.528Z" fill="#222222"/>
<path d="M406.068 284.599C405.414 284.619 404.939 284.624 404.613 284.616L406.068 284.599Z" fill="#222222"/>
<path d="M119.739 203.925C120.114 198.932 118.495 194.308 117.451 189.552C116.211 183.905 115.231 178.205 114.232 172.505C113.53 168.513 112.731 164.516 112.42 160.486C111.974 154.731 111.949 148.947 111.717 143.177C111.634 141.174 111.577 139.148 111.285 137.172C110.888 134.503 112.44 133.018 115.108 133.023C117.527 133.021 118.259 134.279 119.089 136.172C120.324 138.983 121.961 141.622 123.434 144.334C124.908 147.032 126.314 149.768 127.897 152.406C129.119 154.438 130.553 156.338 131.915 158.285C134.414 161.857 136.913 165.428 139.444 168.975C140.066 169.85 140.805 170.635 141.791 171.38C142.025 164.623 141.413 157.986 140.8 151.193C141.031 151.035 141.386 150.785 141.614 150.621C139.993 149.02 140.548 146.89 140.252 145.038C139.953 143.174 139.214 141.174 140.963 139.55C139.427 138.662 139.422 137.811 140.89 135.994C139.738 135.739 139.843 134.965 139.572 133.998C138.915 131.675 139.516 129.385 139.2 127.097C139.053 126.058 138.735 124.829 138.894 123.844C139.158 122.18 138.54 120.628 138.777 119.021C138.819 118.72 138.921 118.396 138.85 118.122C138.358 116.197 138.759 114.211 138.487 112.234C138.287 110.744 137.535 108.762 139.006 107.204C139.165 107.038 138.585 106.277 138.518 105.769C138.136 103.007 137.756 100.237 137.479 97.4639C137.376 96.3956 137.725 95.4447 139.018 95.1787C140.948 94.7859 142.453 95.2828 142.944 96.5939C143.721 98.6621 143.168 100.703 142.759 102.746C142.631 103.379 142.562 104.024 142.468 104.658C142.334 105.58 142.76 106.443 142.054 107.468C141.546 108.203 142.088 109.618 142.07 110.73C142.054 111.677 141.876 112.628 141.834 113.578C141.791 114.582 141.735 115.606 141.84 116.605C142.014 118.269 142.281 119.871 141.911 121.601C141.644 122.877 142.115 124.304 142.271 125.804C141.671 125.637 141.292 125.534 140.768 125.388C140.883 125.613 140.928 125.72 140.989 125.814C141.779 127.12 142.861 128.382 141.564 129.987C141.469 130.103 141.604 130.403 141.635 130.624C141.891 132.155 142.182 133.689 142.385 135.226C142.446 135.702 142.35 136.214 142.242 136.696C141.705 139.086 142.856 141.32 142.955 143.672C143.009 144.928 142.938 146.196 142.98 147.456C142.989 147.842 142.994 148.277 143.17 148.596C144.033 150.162 144.8 151.613 144.216 153.603C143.945 154.526 144.767 155.766 145.074 156.87C145.715 159.151 146.479 161.414 146.936 163.734C147.526 166.77 148.189 169.854 148.202 172.92C148.211 175.038 148.846 176.789 149.707 178.52C151.347 181.813 150.017 184.583 146.385 185.075C144.833 185.284 143.949 184.175 143.145 183.154C140.888 180.294 138.631 177.433 136.526 174.464C133.412 170.076 130.401 165.61 127.398 161.148C124.456 156.78 121.571 152.364 118.652 147.981C118.519 147.783 118.286 147.649 117.697 147.13C117.636 149.171 117.517 150.763 117.552 152.347C117.606 154.763 117.603 157.193 117.906 159.581C118.295 162.587 118.971 165.557 119.516 168.541C120.35 173.133 121.041 177.763 122.061 182.317C122.804 185.625 124.065 188.815 124.936 192.098C125.558 194.44 125.906 196.86 126.387 199.246" fill="black"/>
<path d="M161.621 146.305C159.283 138.514 158.262 130.564 158.38 122.416C158.486 115.228 160.258 108.411 162.557 101.712C164.575 95.8295 169.478 93.3941 175.639 94.5394C181.024 95.5404 185.594 97.8161 189.193 101.975C191.634 104.797 193.61 107.901 195.004 111.365C195.499 112.593 196.355 113.759 196.536 115.025C196.887 117.45 197.808 119.712 198.2 122.116C198.965 126.781 199.345 131.421 198.419 136.119C197.574 140.393 196.006 144.367 193.3 147.761C190.071 151.812 186.461 155.585 181.817 158.016C179.767 159.086 177.333 159.619 175.011 159.893C173.994 160.012 172.614 159.102 171.79 158.272C170.456 156.936 169.369 155.47 167.578 154.537C164.368 152.872 162.886 150.552 161.624 146.311L161.621 146.305ZM167.458 144.374C169.09 148.427 170.175 149.43 173.628 150.592C175.192 151.122 176.748 151.914 178.04 152.924C178.867 153.569 179.421 153.609 180.141 153.139C183.907 150.696 187.01 147.569 189.518 143.872C191.878 140.391 193.011 136.519 193.316 132.302C193.669 127.399 193.509 122.572 192.152 117.84C190.998 113.806 189.006 110.141 186.6 106.754C183.697 102.665 179.751 100.015 174.673 99.314C171.952 98.9331 169.685 99.4943 168.539 102.109C167.347 104.829 166.102 107.589 165.417 110.462C164.001 116.421 163.679 122.534 164.52 128.59C165.25 133.882 166.463 139.109 167.468 144.364L167.458 144.374Z" fill="black"/>
<path d="M239.817 76.6542C240.935 79.9578 240.467 82.8272 239.421 85.7204C236.938 92.5948 232.514 97.9627 226.611 102.128C223.802 104.112 220.747 105.734 217.85 107.606C217.495 107.836 217.227 108.594 217.314 109.027C217.554 110.209 218.269 111.344 218.322 112.52C218.464 115.982 220.042 119.066 220.91 122.302C221.988 126.315 222.552 130.323 222.879 134.415C223.028 136.278 222.125 137.23 220.372 137.736C218.991 138.137 217.906 138.485 217.002 136.92C216.353 135.795 216.088 134.792 216.07 133.427C216.031 130.309 215.658 127.155 215.044 124.093C214.161 119.689 213.032 115.326 211.845 110.99C210.638 106.579 209.133 102.254 207.971 97.8346C207.16 94.7555 206.713 91.5865 206.108 88.4538C205.933 87.5477 205.899 86.8435 204.456 86.9181C202.622 87.0099 202.144 85.1826 201.554 83.8048C201.058 82.6523 202.064 82.2163 202.755 81.6474C204.556 80.1688 206.269 78.5784 208.151 77.2136C209.273 76.3949 210.625 75.8756 211.9 75.295C213.248 74.6884 214.649 74.2126 216.006 73.6098C221.307 71.2565 226.875 70.5203 232.526 71.5414C235.699 72.1149 238.569 73.691 239.822 76.6663L239.817 76.6542ZM233.979 78.047C233.604 77.745 233.046 77.0856 232.337 76.7468C229.836 75.5703 227.122 75.5142 224.552 76.1638C221.458 76.9537 218.399 78.0312 215.49 79.3551C213.538 80.2401 210.837 81.039 211.97 84.3097C212.013 84.4305 211.885 84.6062 211.89 84.7544C211.919 86.4156 211.713 88.127 212.046 89.7201C212.692 92.8173 213.615 95.8633 214.494 98.9043C215.423 102.119 215.45 102.082 218.513 100.73C221.784 99.2896 224.512 97.0618 226.964 94.5785C229.75 91.75 231.793 88.3356 233.372 84.6782C234.225 82.6936 234.77 80.6492 233.983 78.0388L233.979 78.047Z" fill="black"/>
<path d="M265.999 110.511C267.744 108.875 269.381 107.36 270.989 105.821C273.884 103.049 277.449 101.4 281.09 99.9639C283.15 99.1496 285.367 98.6607 287.554 98.2578C288.361 98.1048 289.375 98.4364 290.137 98.8452C291.256 99.4466 291.192 101.23 290.069 101.817C288.77 102.502 287.424 103.094 286.056 103.646C280.903 105.728 276.631 109.083 272.774 112.985C271.619 114.15 270.621 115.538 269.816 116.973C268.845 118.686 267.234 119.19 265.611 119.24C264.792 119.261 263.82 118.287 263.14 117.555C262.323 116.688 262.529 115.605 263.118 114.616C263.451 114.059 263.797 113.519 264.253 112.789C263.564 112.832 263.082 112.821 262.613 112.886C260.061 113.243 257.105 110.17 257.92 107.755C258.424 106.264 258.212 104.949 257.812 103.605C256.428 98.9305 254.965 94.284 253.539 89.6245C252.117 84.9974 251.444 80.2451 251.066 75.4411C250.964 74.127 250.715 72.8245 250.572 71.5114C250.415 70.0462 251.393 68.979 252.827 69.3171C254.052 69.6072 255.21 70.2423 256.327 70.8581C256.701 71.0646 257.01 71.677 257.063 72.1288C257.283 74.076 257.327 76.0456 257.562 77.9945C257.845 80.3831 258.242 82.765 258.622 85.1391C258.665 85.4104 258.9 85.6466 259.114 86.0134C260.355 85.0151 261.434 83.9252 262.705 83.1619C265.705 81.3686 268.709 79.5264 271.882 78.0805C275.051 76.6428 278.365 75.3988 281.738 74.5698C284.503 73.8913 287.42 73.39 290.324 74.1283C291.581 74.4482 292.814 74.9881 292.674 76.4643C292.538 77.8774 291.28 78.5612 289.991 78.4574C284.356 77.9966 279.559 80.592 274.767 82.8032C270.766 84.6485 266.838 86.9045 264.427 90.9695C264.015 91.6699 262.89 92.2104 262.03 92.3281C260.76 92.5042 260.758 93.0508 261.061 93.9721C261.959 96.7201 262.904 99.4507 263.735 102.223C264.531 104.877 265.209 107.568 266.009 110.501L265.999 110.511Z" fill="black"/>
<path d="M267.429 57.3897C261.926 59.8492 256.513 62.4063 252.563 67.249C250.964 69.2146 247.393 69.3229 245.821 67.6838C244.456 66.2632 244.561 64.9362 246.067 63.6859C249.866 60.535 253.656 57.3599 258.125 55.1826C263.701 52.4714 269.31 49.7351 275.532 48.8595C277.035 48.6474 278.708 49.1932 280.208 49.678C280.78 49.8616 281.574 50.9888 281.435 51.4207C281.182 52.221 280.379 52.8981 279.676 53.4713C279.328 53.7599 278.691 53.6611 278.204 53.8086C275.461 54.6431 272.712 55.4797 269.976 56.3526C269.105 56.6311 268.274 57.0387 267.427 57.3836L267.429 57.3897Z" fill="black"/>
</svg>
