<svg width="990" height="456" viewBox="0 0 990 456" fill="none" xmlns="http://www.w3.org/2000/svg">
<rect width="990" height="456" fill="white"/>
<path d="M559.841 275.768C552.801 262.698 555.991 246.928 557.101 232.628C543.571 234.328 529.941 232.918 516.601 235.788C512.661 247.348 515.911 258.738 516.601 270.478C517.481 275.898 511.361 275.698 507.861 277.748C504.761 279.578 501.801 278.168 498.501 277.178C497.151 267.438 493.831 270.608 495.921 258.118C496.621 246.968 496.441 234.798 496.291 223.028C496.851 210.828 493.511 197.938 497.011 186.518C499.211 184.308 499.041 179.848 503.201 180.998C509.941 181.268 514.011 181.338 516.751 188.298C520.451 192.418 515.431 196.098 516.791 200.528C520.211 205.078 512.861 220.508 518.961 219.418C529.421 217.018 540.091 218.638 550.461 218.068C561.751 222.368 556.751 201.708 556.641 195.558C553.111 184.088 561.651 182.438 571.011 183.968C575.091 184.858 570.661 190.708 575.411 192.188C573.251 217.788 577.881 243.268 573.901 268.888C574.801 272.098 571.621 277.768 568.081 275.378C565.381 272.968 562.721 275.528 559.841 275.768Z" fill="#222222"/>
<path d="M314.811 185.709C314.531 185.389 314.021 184.829 313.381 184.139C334.441 181.599 354.731 185.019 375.051 182.179C381.411 183.659 381.041 191.959 378.651 196.809C364.681 198.619 350.871 199.469 336.721 198.379C324.181 195.339 332.761 214.429 330.171 221.589C333.591 220.889 336.491 218.139 340.141 218.829C350.261 218.869 360.411 218.949 370.071 220.729C373.481 222.369 376.731 216.089 377.191 221.179C380.381 236.689 370.991 231.059 360.931 234.119C353.921 234.699 336.691 236.819 331.471 233.249C331.111 261.799 327.841 259.109 356.051 258.849C364.101 258.919 372.261 259.739 380.151 257.739C386.011 256.269 383.671 264.309 382.861 267.419C380.921 270.189 385.441 271.509 383.881 273.399C374.101 275.019 363.931 276.709 354.251 274.219C346.611 273.169 339.241 274.309 331.571 273.859C322.141 272.959 313.481 280.499 314.481 265.539C313.821 260.339 315.261 255.769 314.301 250.479C313.261 247.429 315.041 246.779 315.091 244.189C313.771 239.939 315.331 235.129 312.471 231.529C315.961 231.799 316.371 230.779 313.211 229.309C313.461 227.999 314.801 226.749 313.211 225.619C314.251 214.279 308.271 195.869 314.811 185.709ZM360.181 229.169C358.691 226.769 356.081 226.959 353.551 229.019C355.901 229.069 358.041 229.119 360.181 229.169ZM348.891 191.139C348.931 189.859 346.571 190.949 345.621 190.759C345.721 191.799 347.971 190.909 348.891 191.139ZM324.311 191.129C324.201 190.189 323.121 190.899 322.461 190.879C322.811 192.269 323.361 191.749 324.311 191.129ZM332.281 266.749C332.321 267.459 334.491 266.989 335.271 267.249C335.441 266.049 333.151 266.969 332.281 266.749Z" fill="#222222"/>
<path d="M412.72 234.019C414.42 235.229 414.85 236.519 415.07 238.529C415.29 244.479 418.08 249.859 420.59 255.179C426.82 267.319 444.11 261.039 451.63 253.369C458.51 250.129 459.77 238.809 468.03 239.549C472.71 240.249 478.08 239.759 482.08 242.809C477.86 256.959 466.5 266.329 456.83 276.539C448.43 276.529 441.01 277.789 432.78 278.359C427.23 277.769 422.41 273.809 416.51 274.589C415.63 274.689 414.43 274.279 413.76 273.679C407.07 269.039 403.49 261.699 399.22 255.329C395.37 252.489 394.73 240.019 395.24 235.189C396.87 228.389 394.38 220.699 397.91 214.229C399.51 211.059 395.95 208.099 398.56 205.229C400.87 200.809 402.14 195.839 407.38 194.209C412.15 190.359 417.05 185.999 422.61 182.919C437.62 176.779 453.39 179.309 466.26 188.709C468.35 192.519 473.4 194.329 473.54 199.509C474.77 202.459 477.8 207.149 474.02 209.449C470.36 211.149 474.82 210.979 476.65 211.469C460.25 219.139 459.36 204.469 449.91 196.209C440.49 190.169 426.04 196.439 419.04 204.409C413.46 213.019 416.56 224.349 412.71 234.019H412.72ZM462.51 190.949C461.96 189.959 461.26 189.699 460.4 190.179C461.23 190.489 461.87 190.719 462.51 190.949ZM443.85 186.459C442.84 186.039 442.49 185.639 441.93 186.619C442.76 187.179 442.94 187.339 443.85 186.459ZM436.08 182.379C436.4 181.109 433.88 181.719 434.3 182.579C434.89 182.509 435.49 182.439 436.08 182.379Z" fill="#222222"/>
<path d="M506.08 288.999C507.72 289.239 510.09 289.469 511.83 289.549C506.34 289.309 503.71 288.769 506.08 288.999Z" fill="#222222"/>
<path d="M578.27 266.679C557.55 274.849 535.37 291.999 511.83 289.559C533.72 292.129 559.06 272.769 578.27 266.679Z" fill="#222222"/>
<path d="M502.861 286.798C510.811 288.138 518.961 288.458 526.861 286.908C516.291 288.878 514.621 288.348 502.861 286.798Z" fill="#222222"/>
<path d="M511.561 288.709C506.881 289.469 501.981 287.639 497.361 286.809C502.051 287.799 506.791 288.489 511.561 288.709Z" fill="#222222"/>
<path d="M550.27 250.708C548.89 253.098 548.13 254.698 548.39 253.358C548.99 252.438 549.63 251.568 550.27 250.708Z" fill="#222222"/>
<path d="M590.682 210.048C592.442 206.798 592.882 202.628 593.002 199.168C592.912 202.888 592.492 206.668 590.682 210.048Z" fill="#222222"/>
<path d="M573.082 294.309C570.142 292.559 567.232 290.769 564.352 288.909C567.132 290.629 570.192 292.519 573.082 294.309Z" fill="#222222"/>
<path d="M365.641 172.778C375.001 174.168 383.871 175.478 390.601 176.478C372.281 174.628 370.791 173.778 365.641 172.778Z" fill="#222222"/>
<path d="M456.75 173.438L461.27 173.918C465.6 174.828 467.93 175.388 456.75 173.438Z" fill="#222222"/>
<path d="M598.24 197.318C597.53 197.228 597.98 193.878 597.92 193.008L598.24 197.318Z" fill="#222222"/>
<path d="M602.891 309.679C601.701 311.239 598.841 309.159 597.291 308.659C599.081 309.199 601.441 310.859 602.891 309.679Z" fill="#222222"/>
<path d="M448.69 192.479C444.75 196.369 442.13 201.459 439.65 206.309C441.65 201.999 445.57 193.929 448.69 192.479Z" fill="#222222"/>
<path d="M593.03 197.778C593.03 197.668 593.03 197.778 593.05 197.668C593.04 198.088 593.02 198.768 593.01 199.178C593.01 198.648 593.02 198.288 593.03 197.778Z" fill="#222222"/>
<path d="M553.23 263.579C553.66 259.939 554.92 256.439 557.04 252.699C555.01 256.529 553.87 259.719 553.23 263.579Z" fill="#222222"/>
<path d="M365.641 172.778C363.001 172.378 360.37 171.979 357.73 171.579C361.48 172.049 363.771 172.418 365.641 172.778Z" fill="#222222"/>
<path d="M487.48 266.568C495.4 265.498 497.3 265.478 498.83 265.508C494.46 265.988 490.56 266.368 487.48 266.568Z" fill="#222222"/>
<path d="M478.271 182.988L481.461 182.878C480.111 182.938 479.081 182.978 478.271 182.988Z" fill="#222222"/>
<path d="M542.451 227.869C543.871 228.119 545.361 228.379 546.441 228.619C543.841 228.379 542.391 228.049 542.451 227.869Z" fill="#222222"/>
<path d="M346.55 249.159C363.31 240.479 380.98 232.689 396.09 221.359C394.56 221.789 393.23 222.319 391.78 223.159C396.16 220.279 400.88 219.839 406.19 219.309L405.93 218.769C424.49 217.589 445.71 214.139 463.63 213.849C463.21 219.179 468.24 221.429 474.05 221.929C472.86 221.319 471.22 220.659 469.95 220.269C480.05 222.299 491.13 224.429 501.24 226.139C495.43 225.069 489.63 223.969 483.84 222.789C507.51 226.929 556.72 232.889 576.47 233.989L577.36 224.059C576.49 223.959 576.12 223.909 575.82 223.879L577.34 224.219L576.48 233.829L574.92 233.549C575.46 233.569 575.98 233.599 576.49 233.619L577.31 224.429C572.4 223.949 568.29 223.289 563 222.569L567.45 223.599C513.79 216.969 499.5 216.229 444.29 207.219C428.65 204.879 452.92 208.739 453.13 209.049C444.52 208.139 424.51 204.549 420.21 203.579C424.61 205.139 448.83 208.749 430.37 206.439C417.4 203.929 439.14 208.639 416.23 204.699L407.42 202.189C394.65 200.199 404.74 202.559 384.62 198.949C361.73 194.429 412.93 202.809 375.97 196.089C370.76 195.179 365.37 194.369 359.5 193.559L359.41 199.449C389.24 193.469 414.39 190.699 444.94 187.199C435.65 187.629 426.36 188.199 417.08 188.879C431.29 185.949 447.47 186.479 466.38 185.619C425.37 187.029 501.86 182.679 464.06 183.579C468.79 183.349 473.52 183.139 478.25 182.969C474.11 182.679 492.7 182.259 495.82 182.149C456.77 183.119 460.29 182.019 496.67 180.879C488.11 177.439 440.51 181.909 417.24 183.229C420.42 183.239 432.01 182.449 427.73 183.159C406.75 185.429 410.56 184.099 390.14 186.959L399.06 186.349C397.45 186.369 394.62 186.639 398.99 186.069C406 184.979 409.12 185.019 409.21 185.279C375.99 188.839 362.52 192.109 334.99 195.409C357.53 200.729 388.45 205.869 410.43 209.739L400.3 207.399C419.99 210.009 437.43 213.429 448.89 215.419L444.52 214.229C471.81 218.569 485.61 218.809 506.2 223.459L503.36 222.729C530.86 225.909 546.19 228.429 576.5 231.489L576.94 226.509C574.71 226.379 572.34 226.239 569.86 226.099C573.42 226.409 575.46 226.679 576.92 226.939L576.55 231.059C573.34 230.349 572.46 229.789 564.64 228.729C569.57 229.119 573.47 229.499 576.69 229.869L576.85 228.119C561.96 226.999 560.06 225.639 543.98 224.149C537.52 223.699 540.39 224.149 545.26 224.739C550.13 225.339 557.01 226.049 558.55 226.339C528.41 223.079 498.95 221.979 470.3 214.839L483.95 216.649C477.48 214.439 470.97 216.409 470.01 211.619C469.72 210.649 469.62 210.379 469.75 211.009C470.18 213.069 470.53 214.569 472.65 214.749C468.69 214.979 469.48 209.529 468.11 206.799C459.96 207.649 451.64 208.379 443.61 209.029C420.89 212.109 394.48 206.589 377.35 225.159C379.01 224.429 383.42 220.689 384.69 220.129C371.8 232.329 358.22 232.219 342.53 242.679C344.32 241.769 346.13 240.899 347.96 240.069C339.08 245.079 332.71 249.169 333.75 248.259C334.49 249.399 314.55 261.649 317.58 264.429C345.5 299.449 392.73 308.639 436.22 301.059C438.95 300.769 448.07 298.259 447.38 297.989C446.12 298.129 427.5 301.289 432.5 299.699C449.19 296.729 456.95 295.419 474.83 288.799C475.17 289.179 465.21 293.139 459.85 295.089C457.18 296.079 455.72 296.699 457.4 296.369C458.15 296.679 472.54 292.339 478.87 289.179C475.02 290.649 464.89 294.739 460.01 295.389C470.41 291.549 480.08 288.199 489.83 284.229C491.72 283.429 494.79 282.169 496.65 281.379C494.51 275.579 491.5 268.339 492.96 261.419C492.73 281.859 505.11 279.779 490.24 285.219C492.87 284.099 495.54 282.959 498.18 281.819C477.37 243.089 526.36 222.799 557.5 235.479C556.55 235.129 555.6 234.779 554.65 234.449C561.24 236.119 566.23 237.639 570.1 238.699L568.96 237.699C569.2 238.199 568.33 239.099 567.94 238.999L567.69 242.369C581.29 241.249 578.06 240.379 602.26 239.999C619.41 238.729 596.01 239.419 621.94 237.779C629.26 237.329 624.99 237.929 623.69 238.129C645.62 236.999 642.83 236.769 650.72 236.149C650.24 235.969 648.91 235.179 648.43 235.079C646.83 234.959 646.41 237.679 647.72 238.389C648.44 238.769 651.21 237.329 651.94 237.189C645.91 237.489 643.45 237.489 634.01 237.969C636.15 238.119 638.29 238.279 640.42 238.459C625.21 239.159 609.69 240.579 594.62 242.839L594.83 244.899C607.39 244.909 619.34 244.879 631.37 244.699C624.11 237.669 614.48 233.429 604.78 231.899C610.22 233.449 623.88 238.049 628.62 243.769C626.96 243.769 624.23 243.739 623.02 243.669C624.64 243.669 626.7 243.679 628.43 243.689C620 235.579 607.85 232.779 596.37 231.109C565.1 226.579 525.49 220.479 497.69 214.479C508.94 216.009 480.34 209.649 504.29 213.719C510.28 215.839 521.6 217.289 534.38 219.609C517 214.929 473.67 208.589 451.32 202.979C454.19 197.079 459.57 192.229 465.93 190.159C465.23 190.769 462.69 191.879 461.71 192.689C466.74 189.319 473.34 188.009 479.12 186.179C474.87 182.629 466.83 178.519 462.15 175.359L460.88 182.079L478.98 178.449C474.19 179.169 467.66 180.149 460.71 181.199L461.67 176.119C488.95 192.749 466.76 180.809 454.15 196.889C453.41 197.529 450.83 201.809 450.78 200.949C451.12 198.749 459.96 190.519 454.82 194.429C465.77 182.759 484.55 190.039 460.65 177.739L460.36 179.299C463.81 178.529 468.56 177.569 475.94 176.249C466.1 179.029 492.51 174.489 495.44 174.129C487.11 172.169 476.03 170.469 468.45 168.209C464.95 167.729 457.97 166.299 454.66 165.419C478.83 160.149 506.04 159.669 527.48 146.339C522.69 149.789 507.23 156.189 503.2 154.859C513.15 153.709 523.55 148.059 530.87 142.239C505.11 159.089 476.52 159.369 441.27 165.469C442.32 165.669 443.74 165.949 445.21 166.239C442.53 165.889 440.51 165.639 439.06 165.479C459.59 158.739 493.7 158.959 517.71 148.629C536.18 134.359 556.68 136.419 578.85 139.359C569.71 137.969 560 138.609 550.77 139.059C563.28 138.209 571.11 138.659 582.93 141.679C579.93 140.619 576.74 139.889 573.45 139.369C585.61 140.899 591.57 142.629 597.71 151.109C595.6 147.639 592.74 144.869 589.15 142.809C597.07 145.859 601.94 154.649 603.03 162.279C603.05 166.689 600.82 170.919 597.22 174.659C600.28 171.379 601.08 169.929 602.55 167.039C593.77 181.609 592.14 178.849 593.02 197.599C593.57 194.859 593.62 205.519 592.03 208.729C580.22 222.099 558.36 234.349 550.24 250.629L550.33 250.499C543.82 261.069 544.9 276.089 555.55 283.579C549.36 278.329 562.1 287.849 564.32 288.829L563.03 287.999C567.41 290.709 565.07 288.699 564.83 288.159C570.87 290.809 585.09 300.629 593.58 304.779C590.75 302.699 603.75 309.609 605.71 310.439L604.84 307.139C596.4 320.879 567.06 281.579 580.66 266.479C581.54 264.729 584.62 262.639 584.41 261.029C579.26 259.979 573.57 259.819 568.22 259.169C573.43 259.699 578.9 260.329 584.07 260.959C584.62 262.649 581 265.039 580.31 266.479C578.55 267.669 584.44 261.809 583 261.369C577.18 260.719 571.01 259.989 565.31 259.069L566.78 259.409C548.01 256.949 529.26 254.409 510.59 251.479C509.32 251.749 545.27 256.539 532.41 255.499C523.28 255.089 507.25 252.119 497.89 250.669C499.24 250.509 517.86 252.829 499.13 249.889C497.97 249.809 492.91 249.209 489.2 248.789C485.49 248.349 483.11 248.129 487.29 248.959C466.51 245.179 444.36 240.789 423.96 234.799C418.6 233.579 426.91 235.969 429.72 236.629C442.44 239.279 431.89 238.419 455.12 242.709C447.44 243.209 414.15 233.629 403.32 230.699C413.19 233.839 424.09 237.059 434.16 239.639C414.96 235.879 395.9 230.559 377.34 224.069C377.37 222.159 378.9 219.299 379.42 217.139C359.25 209.889 338.37 202.319 318.37 194.949C332.29 193.859 346.4 192.679 359.86 191.499C351.97 192.519 343.39 192.999 336.25 194.149C351.78 194.739 376.95 190.779 394.87 189.839C382.95 188.159 368.98 186.199 356.01 184.369L355.91 189.679C357.99 189.489 360.32 189.279 362.87 189.049L360.02 189.269C369.95 188.009 382.64 186.989 393.22 186.029C382.13 180.909 368.37 174.869 357.15 172.659C361.35 174.329 378.05 178.729 380.62 181.459C367.6 175.959 354 172.039 340.3 168.879C354.43 172.519 374.89 178.449 389.01 185.259C383.38 185.829 375.91 186.579 371 186.999C361.4 187.919 386.46 185.809 390.42 185.679C388.35 184.469 378.42 180.679 379.29 180.099C382.62 181.519 389.32 184.379 392.68 185.819C380.86 186.949 364.17 188.469 355.85 189.059L355.93 184.979C366.2 186.589 375.52 188.389 385.02 190.129C370.39 190.779 328.8 192.919 371.7 188.949V189.479C365.26 188.689 361.8 187.979 355.67 186.879V187.149C364.79 186.609 375.96 185.789 386.59 184.929C361.02 172.729 332.65 167.049 304.39 163.469L304.35 163.729C325.15 166.569 316.14 167.689 351.7 171.699L341.47 169.819C349.06 170.519 354.03 171.029 357.69 171.489C342.9 169.229 326.99 166.709 313.64 164.529C333.42 165.739 369.93 172.209 398.79 175.799C397.31 175.459 387.22 174.239 384.25 173.539C475.55 185.159 489.07 185.709 526.95 189.669C520.96 188.229 544.25 190.959 545.79 190.799C545.45 190.699 542.17 190.299 533.82 189.209C556.49 191.359 580.48 193.279 603.35 188.659C622.13 184.929 650.98 180.509 662.32 199.119C654.69 214.869 627.71 219.139 630.02 239.909C628.02 241.569 624.96 242.809 622.51 244.029C625.43 243.009 625.58 243.249 623.24 244.619C625.74 243.329 628.77 242.059 630.83 240.289C625.95 218.969 664.92 211.769 662.79 196.589C668.85 204.109 640.87 218.239 637.47 223.509C640.83 219.749 652.05 212.199 655.06 210.479C643.03 220.159 631.45 225.799 631.11 241.579C632.42 241.169 631.81 239.979 631.64 239.029C631.43 237.569 631.34 235.819 631.6 234.399C632.23 252.179 590.07 250.799 573.52 254.869C558.06 257.629 573.74 255.409 574.12 256.209C563.96 257.229 531.49 262.509 520.85 263.029L546.82 259.479C528.6 261.679 511.4 263.979 498.76 265.379C500.09 265.379 501.16 265.429 505.03 264.989C493.39 269.009 468.79 262.009 467.58 278.049C467.73 278.229 468.43 278.199 468.7 278.289C468.43 278.199 468.09 278.109 467.81 277.989C468.74 264.059 490.6 268.189 499.34 265.929C491.61 269.709 469.67 264.549 468.38 277.759C468.97 277.969 469.6 278.199 470.17 278.409C469.57 278.189 468.99 277.969 468.4 277.749C470.47 265.139 485.94 269.899 494.96 267.369C517.37 264.929 524.99 264.329 553.16 260.179L545.94 260.859C571.55 255.909 598.51 256.869 622.74 246.909C609.52 252.939 625.01 247.109 629.02 244.349C630.31 243.589 631.68 242.699 632.97 241.919C630.33 225.849 647.33 218.179 657.85 208.889C660.64 206.429 663.62 202.319 665.38 198.009C657.72 187.779 644.68 183.459 632.29 183.259C607.2 184.019 582.85 193.449 557.47 188.659C541.32 189.839 548.18 187.799 531.7 186.239C538.75 186.939 537.47 186.919 538.89 187.229C505.59 183.149 520.28 186.009 501.58 183.899C510.4 185.559 537.66 187.809 529.21 187.929C452.18 178.789 380.29 170.079 304.79 160.199L303.76 166.909C339.25 173.849 354.46 176.179 381.81 187.539L382.9 180.789C365.21 182.689 344.73 184.899 327.82 186.719C335.97 187.749 366.1 191.449 371.25 192.519L371.4 185.799C344.47 190.019 326.55 189.949 300 192.609C301.42 193.119 302.91 193.649 304.4 194.189L300.17 192.629L314.52 191.499C314.14 191.739 301.71 192.619 300.83 192.709L313.79 197.479L312.69 197.149C332.57 204.239 353.86 211.829 374.88 219.329C374.14 221.559 373.33 223.999 372.58 226.239C392.97 233.469 414.09 239.799 434.97 245.009C413.64 239.439 440.6 245.279 430.54 242.579C456.15 250.679 502.09 257.729 532.45 261.269C532.32 260.969 535.25 261.099 530.89 260.339C538.09 261.439 545.29 262.489 552.5 263.529L549.67 262.849C557.56 263.779 566.07 264.679 574.01 265.739C574.75 265.619 572.64 267.649 572.63 268.299V268.289C563.26 288.999 597.18 336.249 612.99 306.679C609.65 305.199 605.14 303.199 601.97 301.799C606.45 303.959 608.89 305.139 612.65 306.949C607.89 312.849 605.65 319.939 597.29 314.669C599.63 315.519 602.18 315.799 604.66 315.999C607.58 312.899 609.21 309.939 611.51 307.149C595.31 297.589 553.62 284.829 553.19 263.459C553.07 264.379 553.04 265.319 552.89 265.899C553.4 233.349 603.33 226.009 597.64 191.559C596.28 182.629 604.04 177.299 607.55 169.979C613.94 132.939 577.99 131.629 550.14 132.169C533.75 130.409 522.35 142.899 508.19 147.609C494.36 150.749 479.22 151.979 464.85 155.219C465.76 155.159 470.4 154.289 469.66 154.679C459.19 156.449 444.72 159.239 434.74 160.709C437.39 160.019 440.46 159.509 444.91 158.569C436.36 160.139 421.49 162.869 406.23 165.669C427.62 169.399 443.31 172.469 458.3 174.699C455.77 174.009 452.67 173.509 448.41 172.609C450.18 173.299 425.64 168.759 409.13 165.659C416.45 164.309 427.5 162.449 412.06 165.649C436.01 169.789 460.59 173.159 484.02 177.859L483.98 169.979C472.23 172.099 460.59 174.209 449.16 176.279C451.38 177.759 458.87 182.659 460.94 184.069C450.22 187.489 444.14 197.989 439.98 208.059C441.93 208.569 443.79 209.039 445.94 209.599C445.48 211.379 452.86 211.779 454.05 212.549C459.85 213.829 471.71 216.269 477.64 217.489L464.58 213.519C519.38 226.829 560.32 230.699 614.82 241.619C609.18 239.199 602.79 237.859 596.19 236.759C607.38 238.609 615.67 240.119 623.88 246.449L626.56 238.699C615.04 239.089 606.13 239.459 594.71 239.789L595.54 247.989C602.79 246.689 611.22 245.389 622.21 244.279C610.29 245.799 602.59 247.149 595.62 248.439L594.69 239.329C603.77 238.999 611.93 238.689 626.53 238.019L623.43 246.969C617.61 242.429 610.34 240.309 601.96 238.969C610.42 240.399 617.87 242.869 623.16 247.289L626.52 237.599C615.45 237.899 604.94 238.109 594.66 238.299L595.79 249.449C613.45 246.459 630.59 244.709 648.78 243.759L647.91 236.699C648.08 236.879 648.14 237.359 648.15 237.489C648.51 237.079 649.24 236.959 649.77 236.969C649.81 237.049 648.39 236.619 648.26 236.169C648.26 236.309 648.09 236.759 647.9 236.909L648.36 229.999C642.65 230.389 636.81 230.809 630.82 231.279C633.92 231.429 645.5 230.949 634.24 231.979C625.2 231.789 590.82 234.629 597.59 233.369C574.75 236.229 555.01 236.939 533.7 237.599C541.07 237.009 579.87 255.559 574.76 235.209C569.79 229.139 542.82 225.189 533.73 224.749C534.26 224.799 534.79 224.859 535.31 224.939C507.42 222.939 477.95 247.499 487.96 276.869C448 297.499 390.13 305.489 347.86 280.969C348.21 281.359 348.54 281.779 348.92 282.129C343.41 278.679 338.28 274.709 333.71 270.239C334.89 271.509 336.67 272.919 337.57 273.909C334.63 272.059 328.59 266.829 326.47 264.069C336.45 255.779 347.7 248.719 359.69 243.589C357.01 242.919 352.75 245.809 346.53 249.169L346.55 249.159ZM448.42 210.099C446.29 209.539 442.36 208.539 440.27 207.989C442.75 201.649 446.41 194.659 451.84 190.029C446.43 194.689 443.13 201.269 440.52 207.719C442.72 208.569 447.87 209.509 448.42 210.099ZM409.27 173.619C415.17 174.689 400.68 172.759 396.53 172.319C398.93 172.649 431.53 176.539 409.27 173.619ZM451.73 205.419C455.38 205.549 463 207.389 466.52 208.469L451.73 205.419ZM624.23 239.889C619.21 236.459 613.45 234.369 607.68 232.919C613.98 234.109 620.12 236.739 625.4 240.539L624.23 239.889ZM556.28 229.619C557.39 229.899 558.39 230.189 559.62 230.539C546.79 226.779 537.49 226.369 525.17 226.819C535.68 224.629 546.9 226.819 556.28 229.619ZM511.5 222.129C505.71 220.939 502.86 220.349 498.62 219.599C524.53 226.369 477.93 215.989 478.7 215.559C495.83 219.679 508.38 220.349 511.5 222.139V222.129ZM596.8 205.409C597.05 203.789 597.18 202.189 597.24 200.639C596.96 206.449 594.94 212.959 590.45 217.059C593.68 214.129 595.99 209.689 596.8 205.409ZM552.15 263.899C550.28 279.679 572.07 286.789 582.63 294.379C577.91 288.189 550.72 278.339 552.15 263.899ZM608.87 241.159L613.36 241.549L609.15 241.719L626.61 241.589C614.19 242.299 603.67 242.369 594.79 242.299L595.12 245.519C602.54 244.469 608.83 243.869 614.13 243.279C609.74 243.819 602.05 244.699 595.17 245.769L594.79 242.039C603.91 242.009 611.67 241.859 608.88 241.169L608.87 241.159ZM565.05 263.489C556.72 262.169 527.92 258.589 523.05 256.879C526.83 259.169 554.99 262.049 565.05 263.489ZM566.11 261.789C592.72 264.839 565.48 260.939 575.82 290.789C572.25 283.099 570.42 269.479 577.69 265.009C581.57 261.939 564.14 262.779 560.57 261.899L566.11 261.789ZM572.43 271.209C569.81 285.859 578.44 297.569 587.86 308.269C577.6 298.689 570.03 286.079 572.43 271.209ZM396.18 233.749C398.45 234.559 403.04 236.089 405.34 236.799C400.41 235.259 396.87 234.559 396.18 233.749L388.59 231.109C408.68 236.949 398.3 234.089 396.18 233.749ZM543.63 261.559L570.91 264.839C563.02 263.309 551.2 262.519 543.63 261.559ZM402.35 234.709C408.93 236.809 436.69 243.529 439.05 243.969C428.58 242.319 412.68 237.969 402.35 234.709ZM624.29 185.089C618.46 185.579 612.72 186.609 607.02 187.659C612.62 185.859 618.39 184.909 624.29 185.089ZM421.57 177.519C424.41 177.399 433 178.479 435.92 178.839L421.57 177.519ZM372.38 180.299C371.06 180.709 379.63 183.599 379.23 183.829C370.57 179.719 359.4 176.069 350.55 174.149C355.86 175.949 363.36 178.019 368.62 180.139C362.93 178.379 320.65 165.559 325.32 169.689C320.94 168.629 309.88 166.299 304.16 164.989L304.56 162.389C310.47 163.389 307.61 163.379 304.5 162.889L304.25 164.489C326.15 168.339 356.08 173.969 377.96 182.199C377 181.929 374.9 181.129 372.38 180.299ZM438.62 241.559C447.1 243.699 457.92 245.559 458.56 246.679C449.24 244.719 447.74 243.269 438.62 241.559ZM482.63 249.889C475.22 248.529 467.16 246.959 459.82 245.369C463.62 246.309 467.43 247.159 471.25 247.999C459.79 245.679 448.41 243.019 437.09 240.159C456.75 244.259 479.64 248.819 482.63 249.889ZM490.78 250.759L495.44 252.019C493.05 251.459 490.66 250.939 488.28 250.339L490.78 250.759L489.71 250.469C502.59 252.589 515.51 254.499 528.45 256.279C515.87 254.589 503.3 252.779 490.77 250.769L490.78 250.759ZM575.41 136.279C565.88 137.749 603.44 136.139 603.85 163.949C603.93 164.889 604.03 165.689 604.23 165.309C606.28 157.489 601.1 148.409 594.38 143.449C607.03 152.299 607.77 167.249 597.97 177.839C608.45 168.939 606.74 152.809 596.94 144.519C601.62 148.719 605.01 154.539 605.72 160.889C606.29 146.889 588.54 136.779 575.41 136.289V136.279ZM474.15 175.909C474.15 175.909 460.22 178.509 460.19 178.519C460.22 178.539 468.96 184.029 468.99 184.049L460.25 178.499V178.569C460.72 178.469 474.26 176.079 474.15 175.919V175.909ZM427.06 301.009C416.33 303.509 400.83 304.009 389.55 301.779C400.87 303.359 418.27 302.799 427.06 301.009ZM446.59 209.779L419.05 211.999C424.25 210.479 443.62 209.729 456.5 208.329C461.03 208.409 450.84 209.039 446.59 209.779ZM534.22 224.309L525.53 223.019L534.56 225.209L534.22 224.309ZM546.05 227.149C540.49 226.929 559.21 229.439 563.64 229.889L546.05 227.149ZM385.77 204.049L397.13 205.959C396.05 205.929 386.38 202.289 385.77 204.049ZM404.03 206.139C406.6 207.199 405.31 207.969 431.57 211.799C432.77 211.299 425.64 210.159 435.49 210.939C426.89 209.409 419.79 208.509 415.48 207.859C421.32 208.939 428.3 209.799 429.84 210.489C416.01 208.539 409.2 207.409 398.33 204.619C398.38 204.839 400.56 205.409 404.05 206.139H404.03ZM499.1 220.099C503.72 220.729 505.75 220.569 508.54 221.289C489.6 219.009 474.38 216.879 505.93 222.589C497.39 221.249 490.06 219.659 478.67 218.359C480.14 218.739 478.7 218.659 485.85 219.669L470.17 217.509C445.48 212.999 490.21 218.799 499.1 220.099ZM373.8 198.819L382.3 200.499C386.64 201.499 383.82 201.229 385.32 201.669C375.33 199.849 362.36 197.089 373.8 198.819ZM347.01 286.349C343.85 285.739 361.63 294.679 365.34 295.279C355.78 294.069 339.1 283.079 333.59 278.379C331.64 275.809 344.3 285.749 347 286.349H347.01ZM472.46 211.559C470.4 210.499 454.7 207.129 446.61 205.349C446.92 200.949 454.31 193.139 457.27 191.189C453.46 194.099 448.84 199.549 446.63 205.089C450.4 206.079 480.99 212.109 472.46 211.549V211.559ZM466.11 185.129C466.65 184.879 467.65 184.819 467.88 184.559C466.7 183.529 461.87 181.429 462.52 180.679C461.55 179.979 460.01 178.999 458.84 178.259C463.22 177.499 468.73 176.289 472.49 175.769C466.06 177.159 462.9 177.759 459.31 178.339C469.98 186.709 470.46 182.439 459.8 188.009C461.85 186.699 463.88 185.819 466.11 185.129ZM601.15 237.559C593.97 237.189 577.64 238.119 570.35 238.699L601.15 237.559ZM449.41 293.509C443.45 295.859 432.28 297.649 425.69 298.329C436.87 297.959 448.53 294.609 459.58 291.579C458.64 291.679 448.01 295.289 450.9 293.279C452.71 292.729 454.52 292.219 456.31 291.599C451.26 293.009 446.16 294.259 441.02 295.289C443.83 294.789 446.61 294.119 449.41 293.499V293.509ZM510.81 225.549C523.69 226.799 525.19 227.119 533.82 228.279C531.02 228.219 519.49 226.929 510.81 225.549ZM515.17 229.939C512.63 230.809 509.42 232.189 507.7 233.429C508.33 233.189 521.65 228.399 511.83 232.459C515.45 230.889 519.26 229.809 523.12 229.099C512.42 231.999 506.12 233.499 498.59 240.549C499.74 238.699 507.45 233.989 506.39 234.079C502.11 236.029 496.48 241.309 493.51 245.169C497.6 237.989 508.76 231.069 516.32 229.409C517.5 229.149 517.33 229.169 515.16 229.929L515.17 229.939ZM531.07 228.479C549.72 229.949 546.35 230.509 561.71 232.199C544.85 231.269 547.44 230.459 531.07 228.479ZM420.28 296.429L421.58 296.169C415.5 296.759 409.42 296.619 403.37 296.729C408.99 296.939 414.63 296.799 420.27 296.419L420.28 296.429Z" fill="#222222"/>
<path d="M558.25 225.208C563.53 225.588 567.02 225.848 569.88 226.118C566.19 225.868 562.32 225.588 558.25 225.208Z" fill="#222222"/>
<path d="M471.821 168.568C470.731 168.568 469.741 168.418 468.471 168.268C469.741 168.238 469.401 168.248 471.821 168.568Z" fill="#222222"/>
<path d="M459.75 164.858C460.25 164.758 460.68 164.698 461.2 164.648L459.75 164.858Z" fill="#222222"/>
<path d="M499.972 264.149C490.942 264.619 508.572 262.879 515.752 261.909C508.562 262.869 505.872 263.749 499.972 264.149Z" fill="#222222"/>
<path d="M556.6 257.789C552.31 258.149 546.24 258.809 538.82 259.739C543.47 259.099 548.56 258.489 556.6 257.789Z" fill="#222222"/>
<path d="M510.48 263.639C521.46 262.019 531.03 260.709 538.82 259.729C531.58 260.729 525.48 261.829 510.48 263.639Z" fill="#222222"/>
<path d="M644.83 187.798C650.02 189.978 665.76 195.098 659.95 202.328C660.64 201.028 661.94 199.628 661.8 198.378C659.97 196.208 657.32 193.978 655.01 192.778C653.82 191.998 660.63 197.248 661.1 198.708C660.09 201.948 653.39 208.138 651.89 208.838C655.87 205.618 658.75 202.968 660.87 198.718C656.54 193.228 651.8 190.268 644.83 187.798Z" fill="#222222"/>
<path d="M595.82 190.699C599.63 190.119 603.25 189.409 606.05 188.829C602.5 189.609 599.13 190.239 595.82 190.699Z" fill="#222222"/>
<path d="M581.942 192.539C571.512 192.929 566.772 192.399 558.432 191.389C574.102 191.839 584.172 192.249 595.822 190.699C586.702 192.119 577.642 192.209 581.942 192.539Z" fill="#222222"/>
<path d="M367.661 185.639C364.711 185.179 357.601 184.209 357.441 183.909C366.831 185.189 392.201 188.639 401.911 189.959C396.821 190.419 369.691 192.909 365.251 193.309C358.611 193.789 366.171 192.999 372.031 192.399L399.361 189.609C396.141 189.209 370.191 185.969 367.661 185.649V185.639Z" fill="#222222"/>
<path d="M334.23 199.758C341.69 202.588 340.18 201.348 348.07 204.098C345.16 205.398 337.42 200.468 334.23 199.758Z" fill="#222222"/>
<path d="M311.481 196.889L304.451 194.309C307.171 195.279 309.841 196.239 312.741 197.269L311.471 196.889H311.481Z" fill="#222222"/>
<path d="M401.971 229.608L390.881 225.068C397.561 227.268 405.471 230.138 401.971 229.608Z" fill="#222222"/>
<path d="M466.31 244.008C463 243.288 459.71 242.508 456.4 241.758C466.49 243.878 477.5 245.938 487.63 247.668C482.3 246.818 471.61 244.988 466.31 244.008Z" fill="#222222"/>
<path d="M545.051 256.089C545.621 255.759 568.121 258.839 569.561 258.989L545.051 256.089Z" fill="#222222"/>
<path d="M640.761 236.389C638.511 237.349 603.571 240.389 599.291 241.929C608.801 239.029 629.681 238.089 640.761 236.389Z" fill="#222222"/>
<path d="M528.13 222.558C517.14 221.178 506.17 219.628 495.24 217.858C514.33 220.318 505.28 219.458 528.13 222.558Z" fill="#222222"/>
<path d="M472.631 206.438C471.731 206.198 470.321 205.818 469.201 205.508C472.491 206.268 474.081 206.658 472.631 206.438Z" fill="#222222"/>
<path d="M428.16 190.798C439.18 196.028 457.401 202.468 469.201 205.508C456.671 202.548 439.21 197.508 428.16 190.798Z" fill="#222222"/>
<path d="M474.371 208.609C469.401 207.449 464.501 206.019 459.621 204.559C468.331 206.639 466.601 206.709 474.371 208.609Z" fill="#222222"/>
<path d="M469.191 206.368C472.071 206.158 475.001 207.858 477.901 208.308C475.321 207.788 471.711 207.008 469.191 206.368Z" fill="#222222"/>
<path d="M433.08 194.499C434.65 194.599 435.61 194.749 434.88 195.019L433.08 194.499Z" fill="#222222"/>
<path d="M398.171 195.929C395.061 196.399 392.891 196.729 391.031 197.009C393.151 196.619 394.941 196.369 398.171 195.929Z" fill="#222222"/>
<path d="M464.711 194.818C462.651 194.648 460.591 194.618 458.531 194.528C460.501 194.568 462.671 194.598 464.711 194.818Z" fill="#222222"/>
<path d="M612.59 245.789C618.43 245.609 623.97 245.229 628.17 244.849C616.9 246.579 615.83 245.849 612.59 245.789Z" fill="#222222"/>
<path d="M429.631 183.909L428.131 184.359C426.441 184.359 425.601 184.309 429.631 183.909Z" fill="#222222"/>
<path d="M388.941 192.088C387.981 192.248 387.921 198.578 387.791 199.478L388.281 192.578H388.301C388.251 192.578 387.811 199.438 387.791 199.448C388.441 199.618 389.101 199.918 389.721 200.118C389.181 200.018 373.921 197.158 372.801 196.948L388.231 192.298L388.941 192.088Z" fill="#222222"/>
<path d="M489.182 196.798C490.962 196.978 492.712 197.498 494.472 197.818C491.802 197.438 490.122 197.078 489.182 196.798Z" fill="#222222"/>
<path d="M380.282 193.739C378.112 194.299 375.972 194.719 374.102 195.119C378.742 193.619 381.022 193.249 380.282 193.739Z" fill="#222222"/>
<path d="M390.172 197.159C390.102 197.159 390.172 197.159 390.102 197.159C390.362 197.119 390.772 197.059 391.022 197.019C390.702 197.069 390.482 197.109 390.172 197.159Z" fill="#222222"/>
<path d="M440.131 187.568C437.421 187.558 434.871 187.518 431.971 187.608C435.421 187.338 438.321 187.468 440.131 187.568Z" fill="#222222"/>
<path d="M612.59 245.789C610.94 245.829 609.3 245.899 607.65 245.909C609.97 245.769 611.41 245.739 612.59 245.789Z" fill="#222222"/>
<path d="M513.09 211.199C517.98 211.359 519.14 211.589 520.06 211.859C517.36 211.669 514.96 211.489 513.09 211.199Z" fill="#222222"/>
<path d="M652.59 219.838L654.55 219.948C653.72 219.928 653.09 219.888 652.59 219.838Z" fill="#222222"/>
<path d="M464.451 217.309C463.571 217.379 462.641 217.459 461.951 217.469C463.521 217.129 464.441 217.119 464.451 217.309Z" fill="#222222"/>
<path d="M545.558 236.958C544.957 236.9 544.374 236.846 543.804 236.795C543.791 236.77 543.783 236.744 543.781 236.718L545.558 236.958Z" fill="#222222"/>
<path d="M569.361 240.168C558.474 238.37 551.264 237.506 545.558 236.958L569.361 240.168Z" fill="#222222"/>
<path d="M591.718 244.788C591.595 244.819 591.472 244.85 591.349 244.881L591.381 245.087C591.509 245.085 591.636 245.083 591.765 245.08L591.718 244.788Z" fill="#222222"/>
<path d="M533.37 211.876C533.425 211.875 533.48 211.873 533.534 211.872C533.578 211.809 533.621 211.745 533.664 211.681C533.566 211.748 533.468 211.812 533.37 211.876Z" fill="#222222"/>
<path fill-rule="evenodd" clip-rule="evenodd" d="M457.974 225.732C455.664 226.127 453.303 226.512 450.881 226.878L453.721 226.918C452.815 227.039 451.965 227.144 451.144 227.245C448.701 227.546 446.526 227.814 443.981 228.368L445.921 228.388C444.666 228.599 441.247 229.112 436.515 229.822C424.385 231.642 403.629 234.756 388.581 237.388L399.361 236.218L381.423 238.502C388.265 238.919 395.046 239.386 396.801 239.548C397.102 239.407 399.348 239.365 401.465 239.325C404.537 239.267 407.339 239.215 403.531 238.872L414.481 239.768L413.521 239.288C431.201 239.48 448.033 240.051 464.608 240.613C486.158 241.344 507.273 242.061 529.251 241.908L529.551 251.068C520.241 251.698 510.791 252.418 501.081 253.208L502.001 253.338C497.683 253.38 493.735 253.357 489.947 253.336C479.113 253.275 469.596 253.221 456.511 254.688C458.618 254.263 454.34 254.266 448.843 254.27C443.357 254.273 436.658 254.278 433.881 253.858C428.98 254.069 431.059 254.265 433.386 254.485C434.369 254.578 435.396 254.674 435.961 254.778C414.479 255.172 396.642 254.106 376.897 252.926C369.536 252.486 361.91 252.03 353.731 251.628C362.829 251.862 369.271 252.048 374.698 252.205C385.066 252.505 391.729 252.698 406.131 252.908C395.78 252.343 388.902 252.116 382.657 251.909C373.427 251.603 365.582 251.343 349.961 250.108C354.105 250.556 358.258 250.953 362.412 251.341C355.171 250.667 349.409 250.67 344.736 250.671C334.626 250.675 329.609 250.677 325.722 243.828C324.264 243.722 322.822 243.615 321.409 243.511C317.596 243.229 313.997 242.963 310.891 242.758C315.467 242.045 319.906 241.42 324.273 240.839C322.645 236.965 321.141 231.565 319.411 224.038C329.49 217.046 339.071 212.06 349.849 206.986C347.988 207.237 346.138 207.512 344.301 207.818C355.37 201.691 365.258 197.368 374.537 194.595C374.505 194.579 374.473 194.564 374.441 194.548C374.597 194.527 374.754 194.505 374.911 194.484C379.942 193 384.795 191.972 389.563 191.36C403.681 188.015 418.396 185.815 433.16 183.607C440.232 182.549 447.315 181.49 454.349 180.303L460.821 179.664C456.594 181.73 450.428 184.659 444.039 187.591C445.629 187.62 447.201 187.656 448.757 187.701C452.611 186.162 456.409 184.614 459.9 183.192C464.354 181.377 468.308 179.767 471.233 178.637L474.161 178.348C470.365 179.755 465.556 181.649 460.235 183.745C456.989 185.023 453.553 186.377 450.039 187.741C465.159 188.227 478.883 189.536 493.951 191.958C493.886 191.917 493.827 191.876 493.768 191.836C492.993 191.308 492.357 190.875 483.231 189.508C499.001 191.538 523.621 195.308 539.201 204.228C540.955 205.573 537.13 209.333 533.764 211.614L533.892 211.862C533.893 211.862 533.894 211.862 533.895 211.862C533.895 211.863 533.894 211.864 533.893 211.864L534.061 212.188H534.045L533.882 211.88C533.743 212.063 533.604 212.243 533.465 212.421L533.628 212.725C539.29 213.144 545.845 213.493 552.841 213.418L546.511 212.478C562.155 213.445 572.619 213.772 583.85 214.124C587.053 214.224 590.318 214.326 593.783 214.446C604.328 169.924 672.393 161.218 679.12 221.249C679.758 224.314 680.108 227.295 680.196 230.181C689.397 228.634 698.866 228.03 703.741 232.098C703.822 236.181 699.888 238.048 696.976 239.43C696.328 239.737 695.732 240.02 695.241 240.298C699.811 240.118 704.871 235.658 704.471 230.468C701.521 229.658 697.231 228.908 695.201 228.578C697.633 228.805 699.091 228.974 700.152 229.096C701.988 229.307 702.635 229.382 705.081 229.388C706.12 236.45 701.144 240.652 694.719 241.926C690.09 241.887 684.783 241.957 679.02 242.103C669.658 281.854 608.309 295.749 595.789 247.303C595.784 247.303 595.78 247.303 595.776 247.303C594.468 247.694 593.281 248.049 592.281 248.348L592.111 247.276C589.46 247.227 586.904 247.121 584.305 247.013C581.986 246.916 579.634 246.818 577.151 246.758C577.837 246.59 578.671 246.379 579.61 246.14C576.098 246.158 573.16 246.101 570.941 245.948C560.382 246.321 547.793 243.676 538.572 236.965C534.608 236.425 530.643 235.934 527.091 235.678L528.831 235.948C520.357 234.833 515.887 234.276 512.071 233.8C506.755 233.138 502.71 232.634 490.881 230.998C490.172 230.228 493.668 230.573 499.029 231.102C501.533 231.349 504.443 231.636 507.521 231.868C500.402 231.025 492.73 230.055 484.737 229.044C476.092 227.951 467.072 226.811 457.974 225.732ZM349.347 237.65C345.422 237.347 341.631 237.056 338.061 236.868L341.681 237.428L333.711 236.818L333.873 239.606C332.866 239.732 331.858 239.859 330.847 239.987C330.74 239.619 330.633 239.252 330.526 238.884C329.469 235.264 328.42 231.669 327.371 228.058C326.335 225.814 336.029 220.721 342.17 217.494C344.156 216.45 345.771 215.602 346.531 215.108C344.019 216.748 345.613 216.25 347.195 215.755C347.446 215.676 347.697 215.598 347.931 215.528C349.993 215.354 345.411 217.861 340.271 220.673C335.665 223.193 330.611 225.959 329.491 227.258L329.621 227.185C342.825 219.71 358.665 210.743 373.202 204.762C373.647 204.729 374.092 204.696 374.536 204.663C383.633 203.985 392.775 203.305 401.743 202.003C414.279 203.268 427.347 201.987 439.031 197.998C435.925 196.963 432.899 196.024 429.933 195.191C430.722 194.919 431.519 194.641 432.322 194.358C432.584 194.384 432.833 194.414 433.071 194.448L432.981 194.428C439.179 194.361 445.666 194.592 451.866 194.906C452.047 194.918 452.259 194.929 452.501 194.938C452.289 194.927 452.078 194.917 451.866 194.906C449.079 194.725 453.169 194.338 458.511 194.488L457.591 194.448C459.961 194.471 459.462 194.186 458.966 193.903C458.812 193.815 458.657 193.727 458.591 193.648C462.58 192.9 468.198 193.776 473.332 194.577C475.199 194.868 477.003 195.149 478.641 195.338C490.582 195.638 509.538 199.892 524.464 204.233C524.897 204.473 525.616 204.637 526.345 204.804C526.424 204.822 526.504 204.84 526.583 204.858C527.13 205.022 527.67 205.185 528.203 205.348C528.433 205.459 528.608 205.587 528.701 205.738L528.791 205.528C528.596 205.468 528.4 205.408 528.203 205.348C527.787 205.147 527.193 204.999 526.583 204.858C525.887 204.65 525.18 204.442 524.464 204.233C524.449 204.225 524.435 204.217 524.421 204.208C524.376 204.191 524.325 204.173 524.271 204.152C523.596 203.901 522.367 203.444 524.071 203.638C524.465 203.813 525.207 203.978 526.024 204.16C528.29 204.664 531.129 205.295 528.711 206.618C528.939 206.504 529.161 206.376 529.388 206.246C529.438 206.217 529.489 206.188 529.541 206.158C525.805 209.894 517.586 210.159 510.481 210.388C507.849 210.473 505.37 210.553 503.328 210.803C500.938 210.646 498.594 210.605 496.331 210.798C498.043 210.952 501.674 211.165 505.645 211.398C506.969 211.475 508.33 211.555 509.671 211.636C508.068 211.81 506.352 211.959 504.616 212.093C502.977 211.928 501.362 211.747 499.811 211.573C499.795 211.549 499.688 211.535 499.467 211.535C498.094 211.381 496.773 211.233 495.531 211.108C496.721 211.258 497.907 211.403 499.088 211.542C498.334 211.568 496.933 211.668 494.621 211.868C494.206 211.969 492.948 212.179 491.518 212.417C488.123 212.982 483.763 213.708 487.451 213.518C483.554 213.796 479.087 214.152 474.463 214.521C464.92 215.281 454.712 216.095 447.491 216.378C444.242 216.891 449.117 216.534 451.053 216.392L451.241 216.378C454.598 215.917 455.413 216.002 456.325 216.096C457.571 216.225 458.998 216.373 467.321 215.178C468.184 215.949 459.123 216.789 449.314 217.699C444.232 218.17 438.949 218.66 434.741 219.168L454.511 217.968C449.817 218.719 444.883 219.419 439.774 220.08C438.294 219.927 436.816 219.775 435.342 219.623C432.238 219.304 429.149 218.986 426.091 218.668L426.109 221.716C425.983 221.73 425.857 221.744 425.731 221.758V222.328C425.858 222.34 425.985 222.351 426.112 222.362L426.125 224.508C425.373 224.618 424.567 224.744 423.701 224.888C419.172 225.912 422.319 225.519 426.128 225.014L426.13 225.279C419.631 226.386 413.165 227.72 407.007 228.99C395.959 231.269 385.901 233.344 378.421 233.538L387.021 231.528C385.454 231.733 384.048 231.916 382.805 232.078C374.588 233.147 373.499 233.288 379.971 232.758C369.025 234.906 359.058 236.375 349.347 237.65ZM351.227 237.796C353.035 237.519 355.036 237.251 357.08 236.976C360.535 236.513 364.114 236.033 367.101 235.468C368.697 235.497 367.373 235.732 365.465 236.07C364.013 236.328 362.222 236.646 361.121 236.978V236.988L353.992 238.006C353.064 237.937 352.142 237.866 351.227 237.796ZM432.364 224.296C431.807 224.376 431.249 224.459 430.691 224.543L429.118 224.62C430.65 224.423 431.98 224.265 432.601 224.241C432.521 224.26 432.441 224.278 432.364 224.296ZM470.78 223.406C472.056 223.553 473.323 223.7 474.581 223.848H474.181C474.375 223.855 475.605 224.036 477.195 224.27C480.518 224.76 485.41 225.481 485.681 225.318L478.171 224.258C493.403 226.113 507.295 227.65 520.633 229.126C524.375 229.54 528.074 229.95 531.746 230.36C530.58 228.832 529.553 227.179 528.691 225.398C529.281 226.868 529.951 228.318 530.781 229.678C527.709 225.533 526.553 222.408 527.043 219.422C526.699 219.41 526.306 219.395 525.861 219.378C504.963 217.049 488.87 220.025 470.78 223.406ZM528.516 219.467C528.515 219.481 528.514 219.495 528.513 219.51C528.515 219.495 528.518 219.481 528.52 219.467C528.519 219.467 528.518 219.467 528.516 219.467ZM528.534 219.396C528.531 219.395 528.527 219.395 528.523 219.395C528.54 219.228 528.561 219.062 528.586 218.896C528.611 218.897 528.635 218.899 528.66 218.9C528.61 219.062 528.568 219.227 528.534 219.396ZM528.761 219.472C529.278 219.479 529.208 219.458 528.774 219.417C528.817 219.248 528.867 219.081 528.923 218.915C533.978 219.213 539.209 219.67 540.841 219.888C539.616 219.48 536.029 219.151 533.358 218.906C529.944 218.592 528.027 218.416 534.451 218.388C537.777 218.717 537.438 218.605 536.878 218.419C536.075 218.153 534.818 217.736 543.221 218.248C549.036 219.777 550.244 219.68 552.658 219.487C554.507 219.338 557.064 219.133 562.941 219.558C569.721 220.108 566.135 220.197 562.929 220.277C559.364 220.366 556.269 220.444 568.421 221.128C575.549 221.096 583.912 221.1 592.674 221.116C592.149 226.423 592.401 232.151 593.591 238.254C572.159 235.004 552.833 232.719 532.771 230.474C530.58 227.749 528.954 224.717 528.566 221.71C528.66 222.17 528.805 222.661 529.007 223.188C529.254 223.901 529.619 224.664 530.121 225.488C529.641 224.645 529.274 223.884 529.007 223.188C528.524 221.794 528.489 220.587 528.761 219.472ZM535.451 234.412C521.985 232.095 510.314 230.207 503.831 230.758C522.039 234.913 529.239 235.597 537.663 236.282C536.899 235.688 536.161 235.065 535.451 234.412ZM538.933 236.384C538.213 235.844 537.494 235.261 536.789 234.642C537.335 234.737 537.884 234.831 538.435 234.927C538.519 235.187 539.111 235.693 539.748 236.238C539.838 236.316 539.93 236.394 540.021 236.473C539.655 236.443 539.292 236.413 538.933 236.384ZM540.01 237.162C540.491 237.495 540.969 237.808 541.441 238.098C541.458 237.907 541.241 237.618 540.915 237.288C540.614 237.246 540.312 237.204 540.01 237.162ZM544.174 237.746C556.156 243.737 561.689 244.063 580.941 244.648L576.581 245.088C579.075 245.033 581.41 245.054 583.784 245.079C585.686 244.6 587.727 244.096 589.714 243.633C587.11 243.692 584.514 243.759 582.013 243.823C578.304 243.919 574.802 244.009 571.791 244.058C573.451 243.808 573.441 243.528 571.531 243.208C578.147 243.072 584.775 242.952 591.41 242.835L591.291 242.078C592.25 242.099 593.21 242.111 594.169 242.114C589.186 241.347 582.545 240.937 579.811 240.788C566.819 239.825 552.193 237.303 538.96 235.017C540.024 235.593 541.037 236.133 542.005 236.638C542.591 236.687 543.189 236.74 543.804 236.795C544.113 237.397 547.364 237.749 550.942 238.137C553.815 238.449 556.899 238.783 558.841 239.288C555.319 239.283 549.968 238.56 544.174 237.746ZM591.683 244.566C591.555 244.567 591.428 244.568 591.301 244.568L591.349 244.881C591.057 244.954 590.766 245.027 590.476 245.1C590.775 245.097 591.077 245.093 591.381 245.087L591.468 245.642C591.597 245.648 591.726 245.653 591.856 245.658L591.765 245.08C592.615 245.064 593.49 245.039 594.396 245.005C594.66 244.919 594.92 244.832 595.177 244.746C595.158 244.678 595.138 244.61 595.118 244.542C594.275 244.549 593.443 244.554 592.624 244.56C592.322 244.636 592.02 244.712 591.718 244.788L591.683 244.566ZM591.61 245.888C591.577 245.898 591.544 245.908 591.511 245.918L591.506 245.891C591.541 245.89 591.575 245.889 591.61 245.888ZM613.319 244.988C618.509 244.743 623.903 244.476 629.375 244.205C638.677 243.744 648.205 243.273 657.346 242.878C656.387 248.638 655.112 254.243 650.18 257.559C646.905 253.348 641.771 255.505 636.849 257.572C633.611 258.933 630.465 260.254 628 259.699L627.954 259.679C622.305 257.249 614.031 253.69 614.11 247.019C613.831 246.355 613.567 245.677 613.319 244.988ZM679.397 240.343C683.008 240.155 686.616 239.951 690.221 239.729C688.612 239.775 687.326 239.706 686.109 239.642C685.891 239.63 685.675 239.619 685.461 239.608C686.531 239.618 697.991 238.848 696.631 237.418C698.766 237.254 701.75 234.943 701.896 232.271C696.726 231.168 690.457 231.157 685.011 231.668C683.707 231.972 686.08 231.988 689.206 232.01C692.987 232.036 697.87 232.07 698.681 232.628C693.025 232.155 686.774 232.543 680.186 233.405C680.097 235.791 679.829 238.106 679.397 240.343ZM658.292 237.31C658.037 238.613 657.822 239.945 657.607 241.278C657.606 241.284 657.605 241.29 657.604 241.295C649.648 241.583 641.682 241.813 633.714 242.008C640.672 240.935 647.891 239.45 655.091 237.968C656.159 237.748 657.226 237.528 658.292 237.31ZM659.018 234.206C659.213 233.513 659.431 232.836 659.68 232.179C659.648 230.365 658.874 228.729 658.093 227.078C657.178 225.143 656.252 223.187 656.5 220.899C656.389 220.521 656.282 220.134 656.179 219.738C653.012 219.583 650.446 219.503 652.591 219.828L643.891 219.358C655.695 220.453 649.422 220.484 643.624 220.513C637.983 220.541 632.792 220.567 645.141 221.568C642.051 221.352 638.49 220.982 634.885 220.609C626.846 219.775 618.586 218.919 614.831 219.678L631.931 221.198C625.388 221.195 618.285 221.178 611.065 221.16C610.009 227.84 610.46 234.881 612.147 241.23C612.248 241.247 612.349 241.264 612.45 241.281C626.53 240.022 640.507 237.519 654.276 235.053C655.859 234.77 657.44 234.487 659.018 234.206ZM612.564 214.845C614.639 215.028 617.321 215.204 621.871 215.328C623.551 215.196 621.344 214.915 619.007 214.618C617.644 214.445 616.238 214.267 615.531 214.108L655.525 217.002C655.405 216.467 655.287 215.923 655.167 215.374C653.866 209.408 652.429 202.815 648.03 199.479C640.92 196.139 631.4 193.459 624.32 198.609C618.504 202.504 614.685 208.302 612.564 214.845ZM655.884 218.559L647.221 218.218C641.45 218.474 648.91 219.043 656.132 219.557C656.047 219.23 655.965 218.897 655.884 218.559ZM533.225 211.97L533.329 212.165C533.397 212.069 533.466 211.971 533.534 211.872C533.647 211.869 533.76 211.866 533.872 211.863L533.747 211.626C533.719 211.644 533.692 211.663 533.664 211.681C533.685 211.651 533.706 211.62 533.727 211.588L533.701 211.538C533.538 211.651 533.38 211.765 533.226 211.88C533.274 211.878 533.322 211.877 533.37 211.876C533.321 211.908 533.273 211.939 533.225 211.97ZM537.912 207.086C537.737 207.343 537.528 207.603 537.291 207.863C537.503 207.613 537.71 207.354 537.912 207.086ZM537.281 206.858C536.637 208.047 535.538 209.052 534.138 209.899C535.412 209.037 536.488 208.029 537.281 206.858ZM516.958 212.114C516.482 212.077 515.976 212.041 515.447 212.004C515.879 212.042 516.311 212.078 516.742 212.111C516.814 212.112 516.886 212.113 516.958 212.114ZM476.171 215.604C470.549 215.944 463.098 216.622 456.301 217.598L468.938 216.818C469.524 216.721 470.112 216.624 470.703 216.525L470.621 216.528L470.738 216.52C472.505 216.226 474.302 215.924 476.171 215.604ZM457.79 218.481C457.697 218.487 457.604 218.493 457.511 218.498V218.508C457.604 218.499 457.697 218.49 457.79 218.481ZM435.419 223.243C435.372 223.248 435.326 223.253 435.281 223.258C435.345 223.255 435.413 223.252 435.482 223.249C435.461 223.247 435.44 223.245 435.419 223.243ZM527.165 218.818C524.525 218.683 522.061 218.606 520.341 218.648C520.406 218.785 523.786 219.036 526.333 219.226C526.587 219.245 526.834 219.263 527.068 219.281C527.096 219.126 527.128 218.972 527.165 218.818ZM498.5 213.646C498.369 213.633 498.226 213.622 498.072 213.614L509.119 212.592C509.154 212.595 509.189 212.599 509.224 212.602L498.5 213.646ZM504.273 212.12C502.774 211.963 501.271 211.796 499.76 211.621C499.51 211.734 498.41 211.945 497.237 212.17C495.822 212.442 494.301 212.734 494.041 212.898C495.915 212.718 498.133 212.561 500.457 212.397C501.711 212.308 502.996 212.218 504.273 212.12ZM510.713 211.516C512.498 211.301 514.105 211.048 515.391 210.738C520.472 209.861 515.823 210.201 510.554 210.585C508.736 210.718 506.845 210.856 505.255 210.951C506.955 211.1 508.673 211.29 510.397 211.481C510.502 211.493 510.607 211.505 510.713 211.516ZM361.892 205.668C362.556 205.608 363.222 205.55 363.888 205.493C360.95 206.58 359.09 207.097 359.571 206.368C360.311 206.164 361.087 205.929 361.892 205.668ZM351.51 206.77C351.732 206.742 351.954 206.714 352.176 206.686C349.687 207.82 347.077 209.409 344.563 210.94C341.473 212.822 338.526 214.616 336.122 215.372C339.361 213.653 340.928 212.764 343.251 211.418C331.156 216.611 344.795 209.545 351.51 206.77ZM373.776 201.562C373.763 201.567 373.751 201.572 373.739 201.577L373.686 201.303C373.698 201.298 373.71 201.294 373.723 201.289L373.776 201.562ZM422.414 200.5C422.43 200.506 422.445 200.512 422.461 200.518L422.474 199.879C422.458 199.875 422.443 199.872 422.427 199.868L422.414 200.5ZM429.33 195.022C430.023 194.788 430.735 194.542 431.461 194.287C430.744 194.24 429.957 194.215 429.113 194.208C428.744 194.364 428.38 194.516 428.021 194.666C428.456 194.782 428.892 194.901 429.33 195.022ZM372.903 197.039C372.889 197.039 372.875 197.039 372.861 197.038L372.866 197.067C372.879 197.062 372.893 197.058 372.906 197.053L372.903 197.039ZM373.359 199.617C373.373 199.616 373.386 199.615 373.4 199.614L373.392 199.572C373.379 199.577 373.366 199.582 373.354 199.587L373.359 199.617ZM382.878 197.985C382.071 198.232 381.241 198.504 380.393 198.795C380.099 198.922 379.765 199.056 379.395 199.199C379.518 199.191 379.64 199.182 379.762 199.174C380.926 198.724 381.999 198.325 382.928 198.002C382.911 197.996 382.895 197.991 382.878 197.985ZM384.649 198.559C384.324 198.632 383.991 198.705 383.651 198.778C384.207 198.676 384.586 198.624 384.819 198.612C384.763 198.595 384.706 198.577 384.649 198.559ZM385.109 198.701C385.094 198.727 385.061 198.757 385.013 198.791C385.117 198.783 385.221 198.775 385.325 198.767C385.253 198.745 385.181 198.723 385.109 198.701ZM395.565 196.097C396.38 196.198 397.191 196.279 398.009 196.348C398.249 196.301 398.489 196.254 398.729 196.208C397.816 196.14 396.914 196.083 396.02 196.041C395.868 196.06 395.716 196.079 395.565 196.097ZM402.053 196.496C401.908 196.532 401.764 196.569 401.619 196.605C401.642 196.607 401.665 196.608 401.687 196.61C402.239 196.645 402.802 196.681 403.38 196.721C403.495 196.702 403.61 196.682 403.725 196.663C403.162 196.605 402.605 196.549 402.053 196.496ZM366.504 205.277C366.432 205.308 366.36 205.339 366.288 205.37C365.445 205.733 364.639 206.081 363.911 206.388C364.959 206.128 366.271 205.701 367.605 205.189C367.238 205.218 366.871 205.247 366.504 205.277ZM348.106 244.405C348.126 244.402 348.145 244.399 348.164 244.396C348.907 244.45 349.596 244.514 350.25 244.586C349.536 244.525 348.821 244.465 348.106 244.405ZM370.696 246.469C371.208 246.522 371.719 246.575 372.231 246.628C371.933 246.577 371.605 246.526 371.252 246.476C371.065 246.474 370.879 246.472 370.696 246.469ZM379.691 246.768C379.719 246.755 379.751 246.742 379.787 246.729C379.802 246.747 379.771 246.761 379.691 246.768ZM382.575 246.38C390.344 245.945 411.697 246.629 432.073 247.281C438.797 247.496 445.414 247.708 451.402 247.875C449.174 247.994 449.426 248.156 449.672 248.314C450.05 248.557 450.411 248.789 441.661 248.838C437.399 248.81 439.53 248.523 440.453 248.398C440.507 248.391 440.557 248.384 440.601 248.378C431.749 248.148 429.306 248.309 427.431 248.432C425.241 248.576 423.826 248.669 413.881 248.028L417.761 249.088C406.86 248.522 395.727 247.54 384.981 246.592C384.176 246.521 383.374 246.45 382.575 246.38ZM474.851 247.192C476.8 247.042 479.382 246.924 483.179 246.888C481.458 246.81 479.881 246.719 478.34 246.629C475.343 246.455 472.479 246.288 468.951 246.248C471.714 246.624 473.646 246.936 474.851 247.192ZM513.305 249.209C514.392 249.151 515.227 249.14 515.919 249.155C515.077 249.177 514.192 249.195 513.305 249.209ZM511.892 249.299C510.866 249.375 509.657 249.485 508.211 249.638L514.618 249.253C513.704 249.27 512.795 249.285 511.892 249.299ZM514.851 249.249C515.585 249.235 516.322 249.221 517.062 249.206C517.424 249.23 517.755 249.261 518.084 249.291C519.452 249.416 520.791 249.538 524.256 249.254L518.981 249.688C516.628 250.149 519.506 250.061 522.665 249.964C525.132 249.888 527.769 249.807 528.221 249.978C526.541 250.248 509.571 251.078 512.911 250.528H512.921C520.133 249.998 517.655 249.878 515.24 249.76C513.25 249.663 511.304 249.569 514.851 249.249ZM488.96 252.007C489.538 252.036 490.126 252.071 490.727 252.106C494.976 252.355 499.916 252.644 506.921 251.618C503.238 251.245 500.051 251.461 496.63 251.693C494.265 251.853 491.789 252.021 488.96 252.007ZM380.752 250.034L378.041 249.388L380.631 249.468L369.921 248.558C379.627 248.648 387.395 249.454 393.64 250.103C396.487 250.398 399.017 250.661 401.271 250.808C399.184 250.736 395.912 250.463 392.574 250.184C385.83 249.621 378.814 249.036 380.752 250.034ZM535.498 206.365C536.606 205.801 535.696 204.948 533.713 203.973C534.337 204.187 534.871 204.362 535.337 204.514C535.925 204.706 536.404 204.863 536.821 205.018L536.814 205.032C536.018 206.653 535.626 207.452 533.961 208.868C534.569 208.12 535.098 207.282 535.498 206.365ZM529.133 202.102C530.025 200.497 520.66 198.418 515.375 197.245C514.14 196.971 513.127 196.746 512.521 196.588C513.302 197.003 515.941 197.827 519.182 198.839C522.313 199.818 526.008 200.972 529.133 202.102ZM520.123 197.537C513.577 196.001 506.377 194.737 500.241 193.668C505.439 195.365 509.502 195.925 513.533 196.48C515.683 196.777 517.824 197.072 520.123 197.537ZM636.991 242.398L647.671 242.028C645.001 242.828 639.721 242.938 636.991 242.398ZM652.613 237.727C650.561 238.134 648.511 238.541 646.551 239.298C649.431 238.638 652.301 237.938 655.151 237.198C654.309 237.391 653.461 237.559 652.613 237.727ZM549.055 235.483C554.568 235.953 564.683 237.253 573.72 238.414C590.025 240.509 602.822 242.154 578.751 237.658C582.355 239.458 576.59 238.471 568.968 237.167C563.036 236.152 555.98 234.945 551.341 234.708C552.469 234.946 554.355 235.235 556.304 235.533C559.036 235.952 561.89 236.39 562.941 236.728C558.331 236.438 550.171 235.338 544.411 234.158C544.349 234.253 545.055 234.363 545.937 234.501C547.42 234.733 549.398 235.042 549.055 235.483ZM442.521 246.678C447.131 247.628 466.601 247.138 465.541 246.658C463.578 246.901 456.599 246.825 448.963 246.742C446.835 246.719 444.656 246.696 442.521 246.678ZM554.891 214.418C554.957 214.409 555.053 214.414 555.174 214.43L554.891 214.418ZM569.543 218.135L569.601 218.138C576.721 218.148 568.601 217.348 562.371 216.988C562.253 217.686 568.404 218.065 569.543 218.135ZM414.621 244.448C411.081 244.518 419.231 245.428 427.181 245.438C423.591 246.638 388.381 244.528 414.621 244.448ZM481.571 244.616C482.355 244.686 483.477 244.679 484.448 244.674C484.458 244.674 484.467 244.674 484.477 244.674C483.569 244.652 482.59 244.633 481.571 244.616ZM416.532 231.222C412.95 231.686 411.259 231.905 404.701 233.388C410.041 232.668 417.041 231.448 418.691 230.938C417.883 231.047 417.177 231.138 416.532 231.222ZM429.701 229.893C427.32 229.971 425.021 230.046 417.141 231.708C421.323 231.08 423.474 230.962 425.369 230.857C427.91 230.716 429.99 230.601 435.891 229.318C432.794 229.791 431.231 229.843 429.701 229.893ZM669.406 256.893C668.013 255.06 666.932 256.872 666.107 258.256C665.879 258.638 665.671 258.987 665.48 259.219C665.267 259.426 665.035 259.625 664.801 259.825C663.771 260.707 662.697 261.627 662.99 263.509C665.11 261.329 667.23 259.14 669.351 256.95L669.406 256.893ZM640.497 259.78C641.869 259.419 643.287 259.045 643.3 260.309C642.817 260.242 642.109 260.413 641.388 260.586C640.053 260.908 638.671 261.242 638.58 260.099C639.064 260.157 639.774 259.97 640.497 259.78ZM621.84 272.349C621.38 270.879 620.78 270.279 619.41 271.889C620.45 272.089 621.14 272.219 621.84 272.349Z" fill="#222222"/>
<path d="M694.719 241.926C693.229 242.221 691.66 242.359 690.071 242.338C691.653 242.545 691.716 242.534 694.112 242.093C694.38 242.044 694.678 241.989 695.011 241.928C694.914 241.927 694.817 241.927 694.719 241.926Z" fill="#222222"/>
<path d="M534.045 212.188H533.691C533.8 212.198 533.911 212.208 534.061 212.218L534.045 212.188Z" fill="#222222"/>
<path d="M533.895 211.862C533.944 211.861 533.992 211.86 534.041 211.858L533.981 211.748C533.952 211.786 533.924 211.824 533.895 211.862Z" fill="#222222"/>
<path d="M461.045 179.555C460.971 179.591 460.896 179.628 460.821 179.664L471.233 178.637C471.559 178.511 471.871 178.392 472.171 178.278C471.675 178.387 467.019 178.901 461.045 179.555Z" fill="#222222"/>
<path d="M454.587 180.263C454.507 180.276 454.428 180.289 454.349 180.303L453.123 180.424C453.612 180.37 454.1 180.316 454.587 180.263Z" fill="#222222"/>
<path d="M453.123 180.424L433.511 182.358C428.351 182.868 426.241 183.198 432.131 183.018C432.686 182.712 443.066 181.532 453.123 180.424Z" fill="#222222"/>
<path d="M454.587 180.263C457.213 179.818 459.832 179.356 462.441 178.868C462.005 179.084 461.539 179.313 461.045 179.555C460.548 179.609 460.043 179.665 459.53 179.721C457.938 179.895 456.274 180.077 454.587 180.263Z" fill="#222222"/>
<path d="M401.891 238.738C402.537 238.787 403.08 238.832 403.531 238.872L401.891 238.738Z" fill="#222222"/>
<path d="M432.361 223.148C435.571 222.538 437.691 222.198 439.451 221.958C437.201 222.358 434.851 222.768 432.361 223.148Z" fill="#222222"/>
<path d="M425.08 191.828C425.36 191.658 426.47 191.388 427.99 191.208C427.81 191.318 427.08 191.458 425.08 191.828Z" fill="#222222"/>
<path d="M417.251 189.889C416.651 190.059 416.151 190.189 415.541 190.299L417.251 189.889Z" fill="#222222"/>
<path d="M520.88 210.668C515.39 209.848 526.18 210.668 530.61 210.408C526.19 210.598 524.48 211.018 520.88 210.668Z" fill="#222222"/>
<path d="M533.851 230.359C532.031 227.799 530.111 224.089 529.441 220.749C530.391 224.369 531.521 226.879 533.851 230.359Z" fill="#222222"/>
<path d="M527.301 211.538C530.181 211.388 532.721 211.258 535.371 211.128C533.721 214.308 529.141 217.408 529.431 220.748C529.121 217.218 533.111 214.798 534.981 211.348C532.551 211.438 530.431 211.498 527.301 211.538Z" fill="#222222"/>
<path d="M624.19 241.669C618.67 241.439 608.1 242.079 608.1 242.079C631.14 240.769 603.43 241.419 601.5 241.149C615.85 240.749 615.96 241.309 624.19 241.659V241.669Z" fill="#222222"/>
<path d="M654.72 240.708C652.35 240.808 650.09 240.909 648.34 241.049C650.57 240.849 652.67 240.758 654.72 240.708Z" fill="#222222"/>
<path d="M663.281 239.938C671.261 239.728 674.101 240.128 677.761 240.378C668.121 241.118 661.92 240.548 654.72 240.708C660.38 240.478 665.921 240.318 663.281 239.938Z" fill="#222222"/>
<path d="M517.441 234.959C519.251 235.229 523.631 235.749 523.721 236.049L510.451 234.479C505.151 233.689 514.781 234.699 517.441 234.959Z" fill="#222222"/>
<path d="M468.64 228.069C458.02 226.909 463.48 228.219 458.12 227.489C458.01 225.629 467.92 228.259 468.64 228.069Z" fill="#222222"/>
<path d="M475.061 223.858L478.191 224.288C477.011 224.148 475.861 224.018 474.611 223.868H475.071L475.061 223.858Z" fill="#222222"/>
<path d="M433.671 218.588L426.211 218.298C435.161 217.628 435.371 218.458 433.671 218.588Z" fill="#222222"/>
<path d="M474.11 213.599L467.84 213.919L487.38 212.179L474.11 213.599Z" fill="#222222"/>
<path d="M521.021 209.128C523.061 208.288 526.881 207.928 527.531 205.608C527.071 207.828 523.261 208.828 521.021 209.128Z" fill="#222222"/>
<path d="M418.11 247.008C416.77 248.218 395.22 246.758 392.5 246.978C398.54 246.068 411.23 247.988 418.11 247.008Z" fill="#222222"/>
<path d="M414.05 226.608L393.82 229.758C409.41 226.808 398.19 229.028 414.05 226.608Z" fill="#222222"/>
<path d="M796.383 137.869C798.479 138.471 800.429 138.892 802.277 139.6C805.379 140.782 808.318 142.293 810.505 144.912C811.504 146.107 812.354 147.389 811.781 149.393C812.912 148.768 813.872 148.308 814.752 147.728C817.423 145.987 820.097 144.251 822.698 142.41C824.798 140.922 826.737 139.203 828.872 137.776C829.51 137.347 830.774 137.209 831.409 137.564C832.737 138.299 833.752 139.566 833.548 141.23C833.475 141.828 832.794 142.397 832.302 142.899C831.191 144.044 830.05 145.173 828.877 146.251C828.369 146.719 827.71 147.024 827.183 147.473C826.564 147.999 825.526 148.273 825.897 149.487C825.947 149.65 825.567 149.97 825.346 150.181C824.471 151.007 823.579 151.814 822.69 152.632C822.746 152.716 822.806 152.805 822.862 152.889C822.461 152.835 822.06 152.789 821.436 152.71L821.993 153.316C821.44 154.398 820.871 155.502 820.302 156.613C820.388 156.706 820.47 156.796 820.56 156.885C821.062 156.66 821.553 156.43 822.055 156.212C822.721 155.922 823.421 155.686 824.052 155.336C824.656 154.995 825.184 154.517 825.76 154.13C827.615 152.889 829.473 151.652 831.346 150.438C832.612 149.617 833.892 148.827 835.193 148.06C835.37 147.955 835.782 147.991 835.922 148.127C836.231 148.431 836.434 148.847 836.582 149.062C836.042 149.379 835.563 149.662 835.096 149.941C835.05 149.79 835.001 149.635 834.948 149.476C834.854 149.476 834.761 149.475 834.675 149.476C834.608 149.839 834.537 150.205 834.463 150.624C834.324 150.566 834.114 150.479 834.206 150.516C833.037 151.427 832.003 152.235 830.876 153.114C830.545 152.981 830.116 152.81 829.4 152.523C829.712 153.096 829.879 153.394 829.969 153.562C829.235 154.237 828.538 154.914 827.799 155.544C827.334 155.943 826.849 156.475 826.299 156.587C825.23 156.811 825.014 157.605 824.738 158.403C824.648 158.665 824.765 158.994 824.669 159.248C824.514 159.648 824.335 160.093 824.035 160.383C822.033 162.289 819.985 164.145 817.979 166.041C817.59 166.405 817.255 166.851 816.982 167.31C816.444 168.213 815.633 168.392 814.711 168.216C811.67 167.645 810.383 165.194 811.726 162.361C812.79 160.12 813.982 157.941 815.189 155.77C815.629 154.978 816.281 154.307 816.793 153.555C817.004 153.247 817.102 152.87 817.019 152.344C816.224 152.803 815.393 153.209 814.64 153.723C811.661 155.768 808.7 157.833 805.746 159.913C804.423 160.843 803.132 161.816 801.855 162.805C801.538 163.053 801.284 163.408 801.083 163.766C800.176 165.375 799.274 165.68 797.555 164.918C795.469 163.991 794.788 163.142 795.247 161.638C795.459 160.941 795.989 160.216 796.586 159.789C799.519 157.671 802.512 155.627 805.513 153.605C806.707 152.799 807.99 152.121 809.202 151.343C809.605 151.087 809.92 150.697 810.254 150.39C808.788 149.014 807.442 147.715 806.057 146.459C803.65 144.287 800.587 143.872 797.563 143.522C796.24 143.37 794.859 143.802 793.504 143.801C792.589 143.804 791.601 143.674 790.777 143.299C790.062 142.975 789.638 143.036 789.103 143.499C787.295 145.062 785.479 146.611 783.656 148.159C782.112 149.472 780.557 150.767 779.012 152.08C778.768 152.29 778.571 152.558 778.222 152.943C779.666 153.586 780.987 154.227 782.346 154.776C785.07 155.883 787.852 156.865 790.522 158.085C791.105 158.352 791.603 159.384 791.652 160.099C791.72 161.069 790.657 161.208 789.979 161.101C788.402 160.86 786.847 160.463 785.311 160.041C782.152 159.17 779.028 158.151 775.846 157.373C774.763 157.108 773.507 156.966 772.548 158.128C771.675 159.189 770.395 158.632 769.438 158.301C767.528 157.636 766.574 155.804 765.595 154.21C765.266 153.674 765.704 152.404 766.169 151.732C766.471 151.297 767.499 151.082 768.129 151.198C770.011 151.545 771.608 151.302 773.1 149.986C776.2 147.263 779.379 144.625 782.536 141.971C786.394 138.73 790.312 135.563 794.108 132.256C795.666 130.902 797.002 129.293 798.366 127.737C798.778 127.265 798.937 126.581 799.216 125.995C800.096 124.139 801.431 123.541 802.942 124.825C806.191 127.584 810.375 128.057 814.024 129.803C816.085 130.789 818.137 131.804 820.186 132.815C821.327 133.378 821.697 134.442 821.84 135.587C821.967 136.574 821.167 137.138 820.062 136.779C817.689 136.008 815.359 135.119 812.987 134.349C810.217 133.449 807.459 132.431 804.615 131.887C803.641 131.701 802.303 132.623 801.351 133.334C799.806 134.491 798.441 135.89 797.002 137.185C796.823 137.35 796.662 137.541 796.365 137.85L796.383 137.869Z" fill="black"/>
<path d="M724.182 107.148C723.153 106.746 722.341 106.533 721.645 106.127C720.569 105.496 719.539 104.781 718.559 104.013C717.684 103.327 717.121 103.415 716.579 104.401C715.545 106.284 714.565 108.218 713.341 109.974C711.416 112.728 709.316 115.362 707.256 118.024C706.574 118.903 705.765 119.676 705.061 120.539C703.943 121.919 701.574 122.141 700.295 120.946C699.687 120.379 699.964 118.303 700.598 117.613C702.768 115.265 705.076 113.013 706.96 110.448C709.085 107.554 710.784 104.342 712.717 101.302C713.233 100.491 713.09 99.8911 712.433 99.3411C711.441 98.512 710.421 97.7229 709.409 96.9192C708.658 96.3204 708.021 96.5552 707.471 97.2118C703.703 101.696 699.425 105.617 694.569 108.91C694.123 109.212 693.772 109.672 693.302 109.932C691.934 110.689 690.941 109.789 689.929 109.064C688.889 108.322 688.831 107.301 689.058 106.153C689.285 104.99 689.974 104.507 691.053 104.052C692.642 103.379 694.191 102.483 695.535 101.404C698.321 99.1645 700.96 96.7505 703.657 94.3986C704.373 93.7751 704.443 93.0799 704.321 92.0817C704.192 91.0384 704.491 89.6956 705.115 88.8778C705.641 88.1866 706.808 88.3957 707.729 89.0463C708.074 89.2884 708.972 89.1428 709.362 88.8417C710.966 87.6017 712.494 86.254 714.01 84.9021C715.914 83.208 717.785 81.4788 719.653 79.7458C720.321 79.1315 722.187 79.3211 722.834 80.1881C723.81 81.4981 724.555 82.8059 724.269 84.6458C723.829 87.4873 723.41 90.2812 722.092 92.8995C721.216 94.6365 720.623 96.5084 719.851 98.2944C719.504 99.0939 719.563 99.7199 720.253 100.29C721.249 101.115 722.244 101.948 723.185 102.839C723.9 103.514 724.533 104.28 725.344 105.161C726.267 104.053 727.241 102.907 728.182 101.74C729.013 100.703 729.91 99.6986 730.584 98.5693C731.218 97.513 731.66 96.3255 732.078 95.1594C732.766 93.2578 733.803 92.9127 735.657 93.6581C740.152 95.458 743.935 98.2998 747.55 101.418C748.18 101.963 748.736 102.599 749.273 103.237C751.471 105.867 753.461 108.638 754.514 111.942C755.432 114.817 754.838 116.898 752.721 118.064C751.032 118.995 749.233 119.689 747.246 119.812C744.068 120.012 740.983 119.674 737.873 118.944C734.716 118.208 731.458 117.893 728.251 117.375C727.227 117.213 726.21 116.987 725.191 116.785C724.243 116.596 723.591 117.009 723.092 117.784C721.783 119.812 720.416 121.809 719.168 123.881C718.442 125.094 717.429 125.022 716.338 124.787C714.21 124.328 713.495 122.227 714.762 120.495C717.142 117.237 719.467 113.937 721.803 110.648C722.569 109.571 723.287 108.466 724.178 107.151L724.182 107.148ZM726.768 112.717C730.047 113.514 733.049 114.214 736.034 114.973C739.54 115.87 743.1 115.999 746.609 115.294C749.851 114.641 750.949 113.559 749.409 110.546C746.986 105.808 742.967 102.71 738.438 100.203C737.939 99.9245 737.012 99.8448 736.579 100.122C735.501 100.812 734.469 101.662 733.648 102.639C731.718 104.945 729.875 107.328 728.102 109.756C727.523 110.546 727.272 111.566 726.768 112.717ZM714.572 89.0659C714.085 89.7289 713.463 90.7745 712.646 91.6329C711.94 92.3763 711.663 92.9322 712.554 93.6824C713.127 94.1655 713.649 94.7099 714.191 95.2365C714.937 95.9619 715.563 96.1037 716.026 94.9394C716.78 93.0481 717.616 91.1825 718.33 89.2783C718.553 88.679 718.511 87.9791 718.617 87.1286C717.208 87.8017 716.054 88.3548 714.572 89.0659Z" fill="black"/>
<path d="M785.624 58.2532C785.294 58.4709 784.917 58.6382 784.648 58.9145C781.911 61.7127 779.234 64.5769 776.453 67.3359C773.656 70.1167 770.874 72.9056 767.525 75.0773C765.694 76.2667 764.13 77.8631 762.422 79.248C761.711 79.8233 760.901 80.2749 760.216 80.8699C758.682 82.1949 756.043 80.5581 755.17 78.9463C754.476 77.663 755.47 76.0466 757.02 75.1367C759.741 73.5363 762.45 71.8607 764.957 69.9489C767.938 67.6723 770.756 65.1799 773.524 62.648C775.88 60.4948 778.053 58.1435 780.331 55.8974C782.609 53.6513 784.872 51.3897 787.207 49.2057C788.427 48.0617 790.602 48.4621 791.726 49.8865C793.301 51.886 793.005 54.1362 792.385 56.2982C791.07 60.8841 788.911 65.1214 786.525 69.2298C785.234 71.4497 783.786 73.5848 782.426 75.7682C782.226 76.0959 782.12 76.4872 781.894 77.0528C782.331 76.9665 782.558 76.9871 782.689 76.888C785.214 74.8874 787.69 72.8175 790.258 70.871C792.856 68.8958 795.547 67.044 798.184 65.1265C799.644 64.0634 801.071 62.958 802.527 61.891C804.06 60.7676 805.621 59.6826 807.146 58.5514C808.507 57.5365 809.892 56.5413 811.156 55.4216C812.47 54.2554 813.714 54.337 814.637 55.839C814.941 56.3332 815.26 56.8207 815.492 57.3455C815.864 58.201 815.591 58.9252 814.813 59.3968C812.932 60.5394 811.017 61.6283 809.132 62.7744C806.466 64.3958 803.824 66.0518 801.173 67.6888C800.966 67.8146 800.778 68.0307 800.556 68.07C799.044 68.3282 798.184 69.4423 797.266 70.4943C797.133 70.6456 796.945 70.761 796.776 70.8809C794.986 72.1691 793.125 73.3648 791.421 74.7611C789.917 75.9941 788.609 77.4629 787.187 78.8C784.571 81.271 782.586 84.3656 779.439 86.344C778.369 87.0201 777.698 88.3399 776.881 89.3924C775.867 90.698 773.906 91.2623 772.836 90.5121C770.757 89.0555 770.477 87.4571 771.571 85.5687C773.51 82.2295 775.259 78.7779 777.085 75.3705C777.502 74.6001 777.853 73.7896 778.335 73.0592C781.086 68.8727 783.318 64.4108 785.466 59.8968C785.679 59.4427 785.749 58.9192 785.882 58.4245C785.795 58.3686 785.704 58.3088 785.617 58.2529L785.624 58.2532Z" fill="black"/>
<path d="M686.409 72.4413C684.654 74.0558 682.82 75.5923 681.17 77.3045C679.585 78.9485 678.195 80.7798 676.703 82.5173C675.95 83.3969 675.153 84.2448 674.399 85.1244C673.788 85.8307 673.761 86.3 674.75 86.8377C677.528 88.3608 680.277 89.9462 682.93 91.6695C684.002 92.3675 684.549 92.0654 685.21 91.2566C687.744 88.1438 690.278 85.0235 692.845 81.9308C695.09 79.2278 697.145 76.4198 698.477 73.1301C698.897 72.0835 700.543 72.0027 701.672 72.871C703.257 74.0869 703.58 76.1761 702.367 77.7945C700.473 80.3179 698.593 82.8644 696.591 85.3011C694.818 87.4562 692.842 89.4461 691.032 91.5698C690.227 92.5182 689.559 93.5918 688.935 94.6746C688.807 94.8933 689.054 95.5756 689.313 95.732C690.238 96.2932 691.267 96.6795 692.216 97.2043C692.814 97.5354 693.517 97.8782 693.254 98.8081C693.009 99.6715 692.594 100.498 691.568 100.295C689.994 99.9866 688.421 99.5628 686.914 99.0147C686.171 98.7448 685.675 98.6346 685.191 99.3238C683.271 102.029 681.311 104.707 679.431 107.44C678.124 109.345 675.485 110.132 673.768 108.141C672.828 107.049 673.278 105.029 674.467 104.28C675.353 103.716 676.14 102.92 676.806 102.092C678.136 100.445 679.319 98.6837 680.624 97.0169C681.314 96.1309 681.177 95.4905 680.237 95.0072C677.291 93.5032 674.344 91.9992 671.373 90.5465C670.415 90.0809 669.785 90.7604 669.278 91.4561C666.361 95.4303 663.465 99.4204 660.537 103.39C660.07 104.021 659.55 104.671 658.923 105.119C657.803 105.92 656.898 106.043 655.587 104.812C654.728 104.011 654.653 102.324 655.511 101.27C657.416 98.9073 659.401 96.608 661.285 94.2223C662.775 92.3354 664.244 90.4178 665.545 88.3961C666.156 87.4471 666.331 86.2186 666.749 85.1384C666.891 84.7784 667.157 84.2257 667.423 84.1957C669.682 83.9238 670.591 81.9904 671.885 80.5919C674.63 77.6298 677.241 74.5463 679.957 71.5605C681.275 70.1108 682.723 68.7859 684.096 67.387C685.464 65.9916 686.82 66.1712 687.819 67.904C688.908 69.7974 688.608 70.9125 686.42 72.438L686.409 72.4413Z" fill="black"/>
<path d="M886.652 191.12C888.604 189.719 890.555 188.318 892.51 186.913C892.841 186.673 893.169 186.414 893.521 186.212C896.267 184.654 899.009 183.092 901.771 181.575C902.238 181.318 903.036 181.422 903.297 181.075C903.724 180.503 904.028 180.023 904.842 180.112C904.979 180.129 905.165 179.779 905.326 179.588C906.237 178.513 907.617 178.025 908.802 178.519C909.969 179.008 910.31 180.135 910.409 181.263C910.439 181.607 910.065 182.167 909.73 182.332C908.46 182.955 907.146 183.498 905.815 183.976C905.528 184.076 905.096 183.778 904.701 183.653C903.965 184.022 903.14 184.753 902.256 184.821C900.716 184.94 900.55 185.788 900.706 187.422C899.866 186.79 899.32 186.375 898.596 185.83C898.736 186.239 898.822 186.504 898.945 186.871C898.756 186.751 898.61 186.656 898.348 186.488C898.189 187.265 898.196 188.091 897.834 188.703C897.533 189.209 896.823 189.49 896.261 189.813C894.043 191.073 892.307 192.863 890.544 194.679C889.81 195.433 888.926 196.131 888.076 196.813C886.373 198.179 884.573 199.434 882.909 200.85C882.197 201.455 881.69 202.323 881.153 203.111C880.346 204.29 879.139 204.599 877.93 203.846C877.366 203.498 876.81 203.143 876.285 202.744C875.026 201.78 874.93 199.962 875.989 198.472C879.205 193.957 881.189 188.82 883.418 183.802C883.488 183.644 883.565 183.494 883.639 183.341C883.515 183.268 883.391 183.196 883.271 183.128C882.724 183.445 882.141 183.708 881.64 184.083C877.783 186.972 873.974 189.931 870.082 192.767C867.74 194.477 865.276 196.013 862.86 197.619C861.743 198.36 860.344 198.328 859.353 197.57C857.649 196.271 857.212 195.361 857.751 193.811C857.908 193.366 858.374 192.93 858.809 192.702C862.027 191.01 865.167 189.218 868.075 187.002C872.706 183.472 877.471 180.12 882.159 176.66C883.284 175.833 884.313 174.886 885.395 173.998C886.563 173.039 887.806 173.665 888.967 173.938C890.15 174.218 891.279 176.778 890.942 177.962C890.348 180.028 889.905 182.149 889.171 184.165C888.476 186.066 887.468 187.853 886.629 189.708C886.461 190.078 886.446 190.514 886.358 190.917C886.464 190.985 886.566 191.049 886.667 191.12L886.652 191.12Z" fill="black"/>
<path d="M859.732 163.69C856.659 166.81 853.561 169.847 850.595 173.013C848.895 174.828 847.397 176.83 845.852 178.782C844.859 180.04 845.076 180.377 846.562 181.182C849.738 182.905 852.878 184.697 855.978 186.547C856.871 187.08 857.656 187.849 856.953 189.141C856.52 189.941 855.949 190.286 855.124 189.942C853.67 189.337 852.25 188.665 850.821 188.008C848.231 186.814 845.742 185.176 843.021 184.548C840.935 184.065 839.132 183.266 837.203 182.517C835.208 181.744 832.804 181.912 830.576 181.891C829.199 181.874 828.219 181.206 827.475 180.335C826.766 179.503 826.394 178.413 827.127 177.207C827.728 176.224 828.562 176.095 829.485 176.256C832.599 176.797 835.689 177.444 838.808 177.943C839.231 178.013 839.888 177.574 840.199 177.18C841.845 175.128 843.332 172.95 845.029 170.937C846.954 168.658 849.044 166.519 851.048 164.303C852.105 163.137 853.118 161.932 854.157 160.755C854.623 160.225 854.654 159.753 853.94 159.491C852.275 158.873 850.622 158.144 848.901 157.777C847.743 157.531 846.368 157.548 845.276 157.951C843.471 158.615 840.84 157.244 840.114 155.489C839.47 153.931 840.331 152.451 842 152.263C847.739 151.621 853.033 152.7 857.628 156.385C860.648 158.811 863.578 161.348 866.677 163.665C870.406 166.449 874.262 169.058 878.083 171.722C878.805 172.227 879.546 172.627 879.512 173.705C879.474 174.894 878.821 175.681 877.717 175.291C875.753 174.597 873.722 173.863 872.016 172.71C868.2 170.12 864.563 167.266 860.854 164.521C860.521 164.275 860.188 164.03 859.739 163.698L859.732 163.69Z" fill="black"/>
<path d="M831.094 71.2336C834.511 75.3295 835.4 79.8877 832.509 85.4647C830.727 88.9038 828.361 91.919 825.454 94.4787C822.307 97.2524 819.051 99.861 814.884 101.035C811.363 102.024 808.004 101.638 804.619 100.358C802.778 99.658 801.139 98.8357 799.999 97.1828C799.847 96.9637 799.53 96.79 799.263 96.7415C796.693 96.2389 795.974 94.4131 795.776 92.0939C795.562 89.5238 796.744 87.4113 798.158 85.5586C799.863 83.3298 801.868 81.2776 803.98 79.4278C807.045 76.7441 810.228 74.181 813.534 71.8059C816.055 69.9955 818.753 68.3232 822.017 68.123C825.461 67.9154 828.678 68.389 831.083 71.2369L831.094 71.2336ZM822.31 90.9205C824.679 88.7193 826.711 86.2689 828.29 83.4187C829.239 81.6997 829.795 79.9121 829.857 77.977C829.918 76.1651 828.504 73.8961 827.006 73.4753C824.43 72.7558 821.826 72.7856 819.492 74.1446C816.554 75.8517 813.62 77.6188 810.936 79.6874C808.806 81.3237 807.031 83.4302 805.161 85.3871C804.814 85.7497 804.697 86.4094 804.626 86.9478C804.487 88.0359 804.467 89.1365 804.381 90.2268C804.279 91.5106 804.083 92.7942 804.078 94.0746C804.077 94.4777 804.459 95.0574 804.831 95.2671C807.064 96.5248 809.552 96.7441 811.979 96.2962C815.929 95.572 819.358 93.6576 822.306 90.9167L822.31 90.9205Z" fill="black"/>
<path d="M779.392 114.866C780.501 116.655 781.747 118.369 782.677 120.244C783.745 122.387 784.671 124.624 785.401 126.906C786.134 129.207 785.443 131.541 783.915 133.184C781.917 135.337 779.054 136.121 776.15 136.463C774.691 136.638 773.231 136.812 771.767 136.919C771.359 136.951 770.93 136.75 770.517 136.643C770.406 136.616 770.299 136.492 770.205 136.507C767.896 136.911 765.25 136.693 762.58 136.261C760.014 135.848 757.405 135.725 754.813 135.486C754.289 135.438 753.713 135.272 753.255 135.429C752.649 135.635 752.195 136.045 751.794 136.701C749.972 139.675 747.985 142.549 746.05 145.448C745.695 145.982 743.54 146.094 742.8 145.656C740.928 144.548 741.035 141.984 742.783 140.612C744.007 139.651 745.031 138.364 745.914 137.065C748.054 133.906 749.977 130.588 752.139 127.445C755.088 123.155 757.483 118.464 761.201 114.714C762.69 113.208 764.064 111.592 765.61 110.148C766.049 109.745 766.91 109.597 767.562 109.636C772.112 109.922 776.029 111.616 779.119 115.06C779.215 114.993 779.314 114.93 779.411 114.863L779.392 114.866ZM776.976 118.357C776.895 118.417 776.811 118.481 776.73 118.541C775.162 116.557 773.072 115.57 770.624 115.255C768.949 115.04 767.618 115.642 766.506 116.88C766.008 117.438 765.41 117.902 764.888 118.44C763.577 119.797 762.157 121.082 761.012 122.572C759.397 124.667 758.004 126.924 756.487 129.093C755.848 130.004 755.951 131.12 756.773 131.289C759.812 131.912 762.838 132.661 765.908 133.084C768.002 133.365 770.167 133.287 772.289 133.163C773.738 133.078 775.256 132.85 776.581 132.304C778.01 131.713 779.441 130.869 780.517 129.779C781.943 128.345 781.413 126.389 780.693 124.836C779.656 122.586 778.234 120.511 776.976 118.364L776.976 118.357Z" fill="black"/>
<path d="M924.531 209.243C925.246 210.527 926.117 211.754 926.628 213.119C927.135 214.473 926.436 215.848 925.044 216.361C920.964 217.872 916.886 219.416 912.717 220.635C911.156 221.089 909.346 220.711 907.653 220.678C906.91 220.666 906.166 220.597 905.43 220.522C902.189 220.185 900.468 217.933 898.977 215.385C896.687 211.478 896.691 207.532 898.877 203.628C900.2 201.264 902.253 199.576 904.558 198.186C906.075 197.27 907.539 196.267 909.035 195.307C912.987 192.768 917.438 191.318 921.735 189.537C923.231 188.92 924.766 188.382 926.464 189.028C927.658 189.477 929.225 191.67 929.03 192.924C928.831 194.219 927.915 195.133 926.734 194.893C924.302 194.4 922.191 195.238 920.083 196.203C916.806 197.706 913.364 198.951 910.299 200.81C907.277 202.644 904.201 204.693 902.769 208.233C902.111 209.863 902.289 211.412 903.126 213.022C904.252 215.197 906.088 215.673 908.226 215.52C910.623 215.35 913.058 215.232 915.387 214.709C916.835 214.381 918.138 213.375 919.466 212.605C919.703 212.465 919.944 211.807 919.847 211.702C919.332 211.158 918.759 210.395 918.114 210.301C916.596 210.077 915.209 209.762 913.989 208.748C912.726 207.702 912.415 206.039 913.328 204.375C913.74 203.623 915.446 203.365 916.647 203.736C919.866 204.725 922.076 207.042 924.535 209.239L924.531 209.243Z" fill="black"/>
<path d="M874.903 100.946C872.963 99.5842 871.026 98.2118 869.082 96.8541C867.595 95.814 866.143 94.712 864.596 93.7702C863.194 92.9167 861.713 92.1718 860.206 91.5155C857.643 90.3896 855.048 89.3296 852.432 88.3247C851.289 87.8851 850.068 87.6178 848.874 87.3329C847.82 87.0837 846.743 86.9418 845.686 86.7037C843.233 86.1573 840.783 85.9173 838.298 86.5046C837.253 86.7486 835.426 85.8922 834.887 84.8543C834.372 83.8659 834.388 82.754 835.143 81.9305C835.628 81.4056 836.449 80.8722 837.113 80.8849C839.143 80.9246 841.21 81.0367 843.186 81.4699C846.753 82.2455 850.302 83.166 853.789 84.237C855.924 84.8896 858.018 85.7795 859.987 86.8358C863.266 88.5926 866.5 90.4632 869.615 92.4931C872.465 94.3441 875.154 96.4497 877.881 98.4858C879.796 99.9208 880.158 101.444 879.19 103.095C878.803 103.759 878.334 103.926 877.767 103.536C876.711 102.809 875.715 101.991 874.698 101.213C874.762 101.126 874.829 101.036 874.892 100.949L874.903 100.946Z" fill="black"/>
<path d="M833.78 110.954C832.418 109.232 832.622 107.474 834.231 106.145C834.838 105.644 835.197 104.811 835.601 104.089C838.517 98.8752 841.652 93.8198 846.115 89.7419C846.647 89.2526 847.094 88.5618 847.72 88.3153C848.609 87.964 849.433 88.4239 849.928 89.2585C850.57 90.338 850.745 91.525 849.959 92.5564C848.699 94.2101 847.305 95.7575 845.97 97.3521C842.83 101.093 840.194 105.131 838.585 109.787C838.008 111.451 837.064 112.069 835.34 111.784C834.791 111.694 834.302 111.241 833.787 110.954L833.78 110.954Z" fill="black"/>
<path d="M843.985 145.484C843.985 145.484 843.901 145.697 843.792 145.991C843.485 145.836 843.203 145.694 843.017 145.6C842.784 145.814 842.491 146.205 842.389 146.156C840.882 145.485 840.157 147.027 839.005 147.341C838.416 147.503 837.972 148.134 837.433 148.515C837.245 148.645 836.807 148.769 836.764 148.708C836.603 148.462 836.391 147.983 836.489 147.878C837.077 147.287 837.696 146.689 838.405 146.252C839.98 145.283 841.611 144.407 843.213 143.491C843.32 143.429 843.415 143.298 843.52 143.288C845.437 143.166 846.793 141.882 848.325 140.967C849.401 140.322 850.541 140.649 851.194 141.374C851.818 142.069 852.125 143.22 852.152 144.184C852.164 144.532 850.984 145.151 850.301 145.227C848.835 145.387 847.336 145.261 845.853 145.285C845.281 145.295 844.717 145.398 843.982 145.472L843.985 145.484Z" fill="black"/>
</svg>
