<svg width="400" height="100" viewBox="0 0 400 100" fill="none" xmlns="http://www.w3.org/2000/svg">
<path d="M320.821 17.0893C324.081 16.4197 327.199 15.7797 330.559 17.3619C338.211 -2.46568 324.879 -0.733782 311.885 0.953768C309.19 1.30384 306.51 1.65199 304.035 1.80554C300.445 2.12356 296.658 2.10944 292.83 2.09507C284.349 2.06327 275.67 2.03061 268.501 5.6103C265.738 11.8295 266.115 18.7115 266.493 25.6041C266.784 30.8947 267.075 36.1913 265.945 41.1994C265.574 43.5428 266.246 45.8438 266.895 48.0639C267.406 49.8136 267.902 51.5131 267.862 53.1437C267.602 53.4699 267.754 53.875 267.91 54.2901C268.138 54.8951 268.374 55.5209 267.35 55.9541C266.398 59.971 266.781 64.3119 267.161 68.6259C267.405 71.3908 267.647 74.1446 267.537 76.7949C267.471 78.0177 267.175 79.6742 266.845 81.5239C265.689 88.0001 264.11 96.8427 270.488 97.7202C273.774 97.442 277.037 97.1256 280.287 96.8104C290.926 95.7788 301.432 94.7598 312.204 95.1382C314.137 95.2865 315.907 94.7919 317.662 94.3014C319.946 93.6631 322.205 93.0321 324.758 93.8357C326.658 94.4804 328.447 94.1968 330.176 93.9228C332.168 93.6072 334.079 93.3044 335.984 94.449C338.372 89.7723 338.397 83.6262 337.301 78.7571C330.695 78.2354 324.433 78.6101 318.083 78.99C314.848 79.1837 311.59 79.3786 308.253 79.457C302.696 78.844 297.27 78.8827 291.662 78.9227C289.27 78.9398 286.844 78.9572 284.36 78.9242C284.108 77.1512 284.33 75.63 284.546 74.1526C284.803 72.3937 285.052 70.6968 284.478 68.711C284.255 67.0563 284.386 65.3965 284.514 63.7703C284.794 60.2189 285.06 56.8276 281.607 53.9971C288.309 52.3228 295.26 52.7829 302.192 53.2418C305.564 53.465 308.931 53.6878 312.262 53.6644C313.943 53.581 314.91 54.373 315.767 55.0758C316.967 56.0583 317.954 56.8666 320.382 54.8654C329.075 53.0486 333.393 42.4467 323.124 39.4887C321.991 39.503 320.836 39.4628 319.678 39.4224C316.23 39.3023 312.761 39.1817 309.818 40.4983C308.14 39.2121 306.601 39.8416 304.95 40.5173L304.838 40.5625C303.764 40.6265 302.65 40.2557 301.526 39.8819C299.871 39.3315 298.195 38.7743 296.598 39.5863C294.834 40.1977 293.292 39.5284 291.733 38.8514C290.098 38.1415 288.444 37.4232 286.494 38.1639C283.716 38.5459 284.191 34.6457 284.656 30.819C284.929 28.5726 285.2 26.3516 284.807 25.0371C284.647 20.589 287.043 21.0206 289.812 21.5194C291.385 21.8027 293.079 22.1079 294.493 21.5525C301.951 19.2927 309.549 18.2997 317.124 17.7334C318.389 17.5886 319.615 17.337 320.821 17.0893Z" fill="#222222"/>
<path d="M205.217 35.2972C209.442 36.7814 211.128 40.3411 210.188 45.2104C212.29 45.2266 213.774 45.6481 213.765 47.884C229.311 75.1368 228.502 54.7171 227.739 35.4706C227.443 28.0093 227.155 20.7243 227.829 16.4616C228.175 15.4018 228.079 13.9079 227.979 12.3621C227.782 9.31315 227.573 6.06262 230.721 5.54451C231.657 5.43333 232.991 5.09172 234.495 4.70675C240.032 3.2892 247.87 1.28279 246.562 8.02149C246.389 10.617 246.206 13.1987 246.024 15.7694L246.022 15.785C244.79 33.154 243.594 50.0258 246.003 67.2917C246.118 69.6574 246.32 72.0303 246.521 74.4059L246.523 74.426C247.006 80.1122 247.49 85.8135 246.798 91.4674C245.826 94.2182 242.643 94.215 239.593 94.2121C238.025 94.2107 236.491 94.2092 235.311 94.5823C234.186 94.449 233.001 94.9271 231.851 95.3908C230.066 96.1111 228.367 96.7967 227.113 95.1021C222.952 88.9437 219.012 82.6284 215.069 76.3079L215.061 76.2967C208.26 65.3947 201.449 54.4775 193.47 44.3229C185.837 32.6564 185.864 36.2409 185.919 43.5046L185.919 43.5247C185.934 45.5698 185.951 47.9052 185.8 50.2732C185.691 59.8817 185.857 69.4799 186.767 79.0498C186.81 79.4856 186.853 79.9161 186.896 80.3412C187.948 90.7352 188.664 97.8301 175.063 97.7816C168.234 98.3929 168.759 79.6862 169.155 65.5687C169.328 59.4071 169.477 54.1196 168.979 51.694C169.868 44.749 169.49 37.7782 169.112 30.8197C168.763 24.3888 168.415 17.9684 169.068 11.5887C166.491 2.17171 174.446 3.90606 181.195 5.37739C183.749 5.93434 186.131 6.45363 187.704 6.31628C191.063 6.26404 192.674 10.1053 194.315 14.0173C195.653 17.2093 197.012 20.4485 199.357 21.6579C200.064 23.4336 200.896 25.128 201.729 26.8229C203.061 29.5351 204.394 32.2484 205.217 35.2972Z" fill="#222222"/>
<path fill-rule="evenodd" clip-rule="evenodd" d="M62 51.1536C64.6675 23.9165 74.6264 8.96602 102.519 3.45474C134.161 2.19287 150.662 18.5034 151.886 50.0334C153.074 68.866 143.129 88.4467 124.975 95.4768C124.45 95.7619 123.897 96.0775 123.322 96.4056C119.405 98.6391 114.475 101.451 110.535 99.1301C109.315 97.8554 107.359 97.8727 105.516 98.5174C97.8697 101.447 90.7248 97.0363 84.2782 93.0567C83.2184 92.4024 82.1775 91.7597 81.1561 91.1631C78.7256 90.8015 77.8043 89.0253 76.8622 87.2097C76.0779 85.6973 75.2794 84.1577 73.5827 83.3859C70.8267 81.3606 69.8896 77.9492 68.9564 74.5527C68.4176 72.5915 67.8801 70.6351 66.9945 68.9533C62.9379 63.9907 62.1111 57.4665 62 51.1536ZM101.954 19.6469C93.8056 18.9892 83.6197 27.1765 83.1556 35.8891C81.4444 41.5989 82.1393 47.2127 82.8315 52.799C83.3138 56.6929 83.7942 60.5735 83.4567 64.4637C83.9373 78.0613 97.2759 83.3278 109.071 84.1286C131.841 82.3752 135.87 57.5193 132.678 39.2C129.361 25.3406 115.65 18.0174 101.954 19.6469ZM149.468 44.4265C148.28 46.1359 148.459 47.666 148.646 49.2641C148.732 50.0014 148.819 50.7531 148.776 51.5436C150.427 49.5897 150.087 47.7859 149.69 45.6795L149.682 45.6386C149.609 45.246 149.533 44.843 149.468 44.4265ZM131.669 33.1353C132.631 33.1648 132.311 32.3637 132 31.5831C131.859 31.232 131.721 30.885 131.702 30.6197C131.195 30.5879 131.063 30.8289 131.096 31.1846C131.123 31.4742 131.26 31.8398 131.394 32.1961C131.524 32.5448 131.652 32.8845 131.669 33.1353Z" fill="#222222"/>
</svg>
