<svg width="400" height="100" viewBox="0 0 400 100" fill="none" xmlns="http://www.w3.org/2000/svg">
<path d="M203.528 2.36238C207.269 2.16563 210.771 2.68727 214.069 1.03574C219.152 1.22593 224.601 3.08064 229.799 3.2969C244.463 2.53223 259.701 2.79362 269.761 14.9206C288.232 32.3145 288.148 60.5546 273.611 80.5189C265.703 92.2474 248.354 91.7313 235.673 93.0411C227.79 91.9193 203.732 98.7657 202.56 88.3356C200.974 59.6068 202.342 31.0608 203.532 2.36227L203.528 2.36238ZM262.932 64.2825C263.217 62.8646 265.485 59.3022 263.146 59.1301C264.403 64.2605 259.317 64.1725 262.932 64.2825ZM260.224 60.148C261.139 58.2072 260.338 55.9238 262.372 54.4888C262.813 54.1757 263.084 52.8077 262.785 52.3921C261.475 50.5721 262.238 48.603 262.042 46.7127C261.807 35.4835 259.714 30.9878 251.402 23.726C248.514 19.8176 226.529 18.1066 224.389 22.5014C223.017 40.621 225.607 62.0169 224.239 77.9899C224.933 74.953 237.522 77.3102 241.519 75.1402C246.951 74.4077 251.438 70.3922 256.252 69.5634C256.975 65.5347 259.943 63.3434 262.577 60.4513C261.645 60.3316 261.163 60.2674 260.224 60.148ZM205.663 5.85266C205.179 7.56627 205.623 8.41196 207.091 8.81809C208.325 7.0947 207.319 6.49666 205.663 5.85266ZM248.365 20.1086C250.142 20.0739 250.747 19.2708 250.181 17.6991C249.65 18.4067 249.112 19.1178 248.365 20.1086ZM246.155 18.8988C247.758 18.7839 245.993 16.7111 245.804 15.0576C244.685 17.0112 246.187 17.7982 246.155 18.8988ZM215.937 9.47912C214.556 9.09997 213.713 8.86569 212.786 8.6109C212.894 10.2625 213.944 10.5519 215.937 9.47912ZM238.195 17.404C237.719 19.0713 239.667 18.0635 240.701 18.1702C240.748 17.2535 238.912 17.7047 238.195 17.404ZM261.529 26.9355C260.398 27.4343 261.986 28.4162 262.288 29.1609C263.507 28.6364 261.878 27.6985 261.529 26.9355ZM243.579 86.8535C242.954 88.2784 244.491 88.3466 245.824 87.4762C244.671 87.1558 244.124 87.0047 243.579 86.8535ZM228.165 18.3167C228.823 17.2364 227.689 17.3864 226.894 17.1078C226.459 17.9771 227.653 17.9406 228.165 18.3167Z" fill="#222222"/>
<path d="M40.4285 30.342C37.8712 35.6385 40.435 41.7461 40.0997 47.2511C38.3767 55.8208 40.3311 63.8533 39.5525 72.5159C39.2728 80.8045 45.4078 89.7889 38.2749 96.934C31.8935 105.617 31.3551 92.8625 23.1216 94.056C20.9119 81.1226 24.879 68.9615 23.9399 56.3448C22.6029 46.2193 25.4533 36.6209 24.1997 26.743C24.5735 21.8525 18.9576 13.3724 23.3906 10.198C24.4137 9.85065 24.623 8.72816 24.2251 7.66707C21.4632 1.86507 33.2682 1.83642 37.7704 0.493719C40.9065 7.22585 45.7266 9.28088 50.1766 14.409C56.0152 25.1112 65.6216 34.2462 69.6598 45.3953C73.7984 52.0737 73.2726 62.5426 80.5926 65.4956C81.6728 59.2633 80.2274 52.8054 81.7682 46.4569C81.6952 42.1332 82.341 37.738 82.1473 33.4509C81.912 31.249 82.3897 29.8615 84.7929 29.3205C83.9553 25.9387 84.705 22.5708 83.1684 19.3717C81.4963 14.8631 85.913 9.00612 82.7318 5.1001C85.9913 0.697433 96.0804 0.322919 98.9819 5.30747C100.002 14.2278 97.3755 22.8515 99.2105 32.1486C94.9654 28.5517 99.5323 42.5587 98.7734 44.656C94.3923 51.3547 105.613 91.8252 96.0471 91.5614C90.0913 89.4029 84.5679 98.1514 80.7344 93.8012C79.7553 90.6377 73.173 85.4365 78.6913 84.1648C62.5466 73.5244 58.1008 53.1433 44.9049 39.5616C43.7178 35.6275 43.9423 33.2798 40.3458 30.4368C40.1376 29.7649 39.9544 29.0495 38.4575 29.7307C39.4181 30.0273 39.9233 30.1863 40.4318 30.3419L40.4285 30.342Z" fill="#222222"/>
<path d="M140.095 17.6827C139.989 43.8098 136.838 34.7472 158.847 36.701C164.729 38.1738 170.268 37.787 176.276 38.3242C179.275 36.29 185.789 37.8323 184.381 42.5207C183.716 46.044 187.605 49.316 184.327 52.162C182.917 54.3616 181.121 53.3597 179.107 52.7398C174.638 57.647 165.631 53.9884 159.561 54.5757C139.67 52.5472 138.061 56.7644 141.063 75.8959C155.377 75.0069 172.325 76.6152 187.173 79.8449C190.413 82.7615 191.499 90.6065 186.502 92.4483C165.322 99.2198 142.527 92.8653 120.776 93.2246C120.278 93.0654 119.486 92.1447 119.616 91.4691C120.568 84.5823 118.777 77.6971 119.434 70.8621C121.315 53.4808 118.788 36.1982 119.893 18.8243C121.707 -3.00277 111.541 2.38487 133.44 1.05315C148.844 -0.244492 164.342 -0.0668035 179.823 0.157529C190.021 0.566499 186.423 3.45853 187.887 11.1768C187.907 21.201 175.757 17.0723 169.44 16.9725C159.492 17.4284 150.137 17.922 140.095 17.6893L140.095 17.6827ZM162.963 48.1308C161.805 47.5177 160.799 47.4793 159.97 49.2035C162.493 48.3855 163.159 47.9964 164.622 45.6438C162.877 46.1877 162.501 46.9104 162.963 48.1341L162.963 48.1308ZM122.234 19.0621C124.522 16.681 126.063 7.64602 121.794 4.6885L122.234 19.0621ZM124.945 88.4024C122.983 87.8259 122.099 88.3391 122.296 89.9419C123.137 89.4519 123.881 89.0209 124.945 88.4024ZM138.601 48.1519L138.67 50.4148C140.816 50.4117 141.161 48.3402 138.601 48.1519ZM122.191 30.685C122.96 29.5684 122.157 27.318 122.352 25.8174C121.555 26.678 122.404 29.2496 122.191 30.685ZM141.188 40.7212C142.23 41.2029 143.138 40.9183 143.911 39.8675C142.851 40.1995 142.098 40.4365 141.188 40.7212ZM142.921 83.3519C143.384 82.2381 144.978 82.3606 143.753 81.0844C141.68 80.0515 142.192 81.5009 142.921 83.3519ZM133.894 10.3036C132.104 10.2299 131.36 11.8659 132.606 12.641C132.999 11.9277 133.364 11.268 133.894 10.3036ZM182.257 4.61316C181.733 5.45225 183.172 5.46418 183.704 5.85614C184.349 4.87508 182.907 4.97518 182.257 4.61316ZM181.179 85.9181C180.434 86.8495 180.405 87.4233 181.528 87.6391C182.546 87.1174 182.137 86.5472 181.179 85.9181ZM137.765 40.6284C137.536 41.6626 138.607 41.1623 139.285 41.237C139.369 40.3291 138.339 40.7787 137.765 40.6284ZM132.702 64.6355C132.933 63.6802 132.245 63.8988 131.529 63.8746C131.368 64.9462 131.981 64.6312 132.702 64.6355Z" fill="#222222"/>
<path d="M377.598 95.7607C374.915 93.8378 373.091 97.7982 369.623 97.0977C365.104 95.9751 362.23 98.7758 360.085 96.5632C359.355 95.7361 359.36 93.3063 358.427 92.7291C353.336 89.2305 354.267 82.1237 351.63 76.8512C323.1 80.0978 320.696 64.5793 311.236 90.5646C310.231 92.811 310.291 92.8388 307.722 92.5816C306.72 95.0255 305.712 97.4794 304.677 100C297.9 97.8106 302.243 94.606 291.613 92.8868C294.234 84.609 298.181 76.8733 301.278 68.7652C308.134 47.2811 317.014 26.3244 324.904 5.3123C325.08 -1.52117 346.451 1.09745 346.97 6.74422C352.038 27.5574 359.243 48.0418 368.026 67.6317C369.159 73.6449 381.389 92.3558 377.595 95.7641L377.598 95.7607ZM336.377 22.8315C334.38 23.528 334.284 25.4306 333.924 27.0251C324.688 71.4071 312.575 57.1734 342.013 59.723C349.415 62.2356 343.51 51.9339 342.678 48.6539C339.409 40.2666 336.905 31.9151 336.377 22.8315ZM320.572 23.2789C318.655 23.2683 318.521 27.3713 317.25 29.1946C320.991 30.2093 319.578 25.4558 320.572 23.2789ZM321.531 67.0131C322.883 67.5084 323.976 68.0543 325.13 66.4882C323.798 66.0153 322.659 64.9407 321.531 67.0131Z" fill="#222222"/>
</svg>
