<svg width="400" height="100" viewBox="0 0 400 100" fill="none" xmlns="http://www.w3.org/2000/svg">
<path d="M316.068 28.5647C314.974 49.365 315.646 70.3629 317.076 91.2323C317.481 97.0129 296.226 94.009 298.706 87.5861L298.723 87.2136L298.723 87.2125C299.155 77.6577 299.574 68.3942 300.943 59.1179C300.907 53.636 300.458 48.1679 300.011 42.7157C299.407 35.3425 298.805 27.9984 299.227 20.6892C299.333 2.46411 302.33 2.85028 316.431 4.66758C317.608 4.81926 318.862 4.98091 320.198 5.14254C322.972 5.28955 323.877 8.67424 324.728 11.8535C325.154 13.4467 325.566 14.9883 326.193 16.045C327.923 21.3322 330.854 25.7572 333.797 30.1991C335.124 32.2019 336.453 34.2082 337.675 36.2985C337.944 37.5959 338.838 38.0164 339.75 38.4456C340.502 38.7998 341.267 39.1599 341.704 40.0238C341.714 40.0538 341.725 40.0839 341.735 40.114C341.748 40.1526 341.762 40.1912 341.775 40.2298C341.794 40.285 341.812 40.3402 341.831 40.3953C342.214 41.527 342.583 42.6152 343.881 43.0903C344.823 44.8273 345.74 46.6153 346.666 48.4201L346.666 48.4212C350.224 55.3566 353.909 62.5398 359.612 68.0309C360.664 62.7466 360.069 57.5607 359.476 52.398C358.861 47.041 358.249 41.7091 359.483 36.3183C359.33 30.6509 359.369 24.7787 359.409 18.8287V18.8247C359.446 13.309 359.484 7.72643 359.368 2.17813C360.81 2.05882 362.469 1.60691 364.164 1.1454C369.207 -0.227823 374.562 -1.68593 375.412 5.28088C376.178 20.3493 375.519 35.3349 374.858 50.3605L374.858 50.3626L374.856 50.4107C374.784 52.05 374.712 53.6897 374.641 55.33C375.495 58.8801 375.153 62.67 374.814 66.4294C374.338 71.7109 373.868 76.9323 376.723 81.3444C376.792 86.3213 373.841 94.2033 367.514 93.7718C366.544 93.7335 365.787 93.2346 365.04 92.7415C364.054 92.0911 363.083 91.4508 361.657 91.8911C359.083 92.4569 357.985 90.5001 356.826 88.4334C355.9 86.7825 354.935 85.0615 353.146 84.4998C350.032 82.5278 348.671 79.2503 347.294 75.9374C346.054 72.9531 344.802 69.9401 342.247 67.8267C340.175 63.9005 337.557 61.0118 334.375 58.0177C333.255 55.8918 332.149 53.7584 331.044 51.6253C329.289 48.2393 327.535 44.8538 325.722 41.4994C325.017 40.195 324.072 38.7063 322.84 38.0739C320.747 37.1938 319.894 34.9715 319.09 32.8765C318.351 30.9492 317.653 29.1295 316.068 28.5614V28.5647Z" fill="#222222"/>
<path fill-rule="evenodd" clip-rule="evenodd" d="M105.727 21.7365C107.591 24.2299 107.334 26.5059 105.651 28.9302C106.872 29.4221 107.788 29.7367 108.494 29.9796C109.522 30.3327 110.109 30.5341 110.548 30.9083C111.131 31.4051 111.454 32.2065 112.208 34.072C112.49 34.7718 112.833 35.6213 113.273 36.6607C114.106 48.9399 114.469 62.125 108.82 73.2942C107.776 78.4019 104.044 81.6836 100.375 84.9106C99.6334 85.5626 98.8945 86.2124 98.1809 86.8745C97.5326 87.4053 96.7639 88.3713 95.9219 89.4295C93.2942 92.7317 89.9528 96.9309 87.3311 91.5978C87.0165 96.5086 83.0213 97.1551 78.9291 97.8174C76.766 98.1674 74.5759 98.5219 72.8879 99.5128C71.4524 100.324 70.2143 99.9597 68.9324 99.582C67.92 99.2837 66.8802 98.9774 65.6942 99.2361C55.6613 99.7467 42.3182 95.6887 37.2688 86.4496C36.8145 85.5979 35.8696 85.2581 34.9114 84.9134C33.7091 84.481 32.4856 84.041 32.1832 82.5728C31.9919 82.1936 31.8011 81.8164 31.6111 81.4407C27.858 74.0212 24.4223 67.229 24.2122 58.4853C24.3478 56.5896 24.0511 54.7398 23.7569 52.9048C23.2433 49.7024 22.7369 46.5451 24.5482 43.268C25.8933 40.5007 26.7234 37.5143 27.5528 34.5307C28.7056 30.3834 29.8568 26.2417 32.3874 22.7016L32.7938 22.2932C41.6931 13.3473 53.4693 1.50964 67.3543 4.11146C70.5447 5.06356 74.0916 5.66512 77.6916 6.2757C88.5012 8.10907 99.7899 10.0237 103.346 21.753C103.869 22.672 104.129 22.6291 105.727 21.7332V21.7365ZM88.8561 78.3436C93.2997 71.8778 93.814 65.0897 94.3541 57.9616C94.4782 56.3239 94.6036 54.6683 94.7784 52.9946C98.0854 43.324 94.393 33.2187 88.5004 25.4387C80.9543 16.2721 57.6409 15.0435 51.2872 25.7681C46.3761 36.5652 42.6113 46.8846 44.3472 58.9366C44.0178 65.3134 44.3603 72.0162 48.5797 77.1545C49.0803 74.2297 63.6323 84.4239 60.7107 85.7414C69.2294 88.4493 76.2369 84.7929 83.2264 81.1459C85.0959 80.1705 86.964 79.1957 88.8594 78.3436H88.8561ZM97.5748 17.9421C97.9602 15.1226 96.3429 13.4757 93.1578 12.9981C94.0228 13.9677 94.8344 14.8757 95.7077 15.8527C96.2911 16.5054 96.9021 17.1889 97.5748 17.9421ZM86.6427 15.3927C85.6118 12.504 85.592 12.4942 82.7725 12.9619C82.9123 13.1257 83.0463 13.2921 83.1791 13.4568L83.1793 13.4571C84.0097 14.4878 84.7913 15.458 86.6427 15.3927ZM51.139 79.6908C51.5869 81.0654 52.4499 81.7472 53.7279 81.7362C53.5155 81.5682 53.313 81.408 53.1133 81.2499C52.4984 80.7633 51.9097 80.2974 51.139 79.6908ZM77.4629 15.7945C78.4214 14.9711 75.8589 14.1213 75.8358 15.1094C76.1802 15.2534 76.5245 15.3988 76.8681 15.5437C77.0667 15.6276 77.265 15.7113 77.4629 15.7945ZM58.6857 6.15554C57.7718 5.92721 57.6168 5.8885 57.081 6.62791C57.365 7.09484 57.687 6.90392 58.1396 6.63549C58.3799 6.49302 58.657 6.32872 58.9848 6.22937C58.8767 6.20325 58.7774 6.17844 58.6857 6.15554Z" fill="#222222"/>
<path d="M272.211 6.47316C271.882 5.17541 271.711 4.50348 271.477 3.5878L271.48 3.58451C269.193 5.20221 266.775 4.79789 264.277 4.38031C262.864 4.14406 261.426 3.90357 259.971 4.02258C258.732 3.92883 257.522 4.01887 256.333 4.10741C254.013 4.28018 251.769 4.44724 249.524 3.23207C247.822 2.06907 246.365 2.82815 245.045 3.51536C243.79 4.16914 242.659 4.75788 241.562 3.56474C240.32 2.30631 238.495 2.78091 236.651 3.26025C235.488 3.56253 234.318 3.8667 233.282 3.73932C231.392 3.44573 229.82 4.29907 228.283 5.13336C226.423 6.14303 224.614 7.12481 222.356 6.01203C220.234 4.89794 218.487 6.28376 216.768 7.64646C216.139 8.14506 215.514 8.64056 214.876 9.00938C214.122 10.2069 214.776 11.0248 215.456 11.8763C216.116 12.7016 216.801 13.5584 216.253 14.8229C215.19 17.5954 215.521 20.3517 215.851 23.112C216.205 26.0675 216.56 29.0275 215.206 32.0165C214.516 36.8307 214.724 41.6524 214.93 46.4311C215.111 50.6467 215.292 54.8291 214.853 58.9432C214.124 64.8482 214.551 70.7365 214.975 76.5714C215.303 81.0897 215.629 85.5761 215.413 90.0136C215.07 96.9731 226.265 96.2594 235.219 95.6885C239.059 95.4437 242.486 95.2252 244.415 95.6492C249.237 94.6892 254.135 95.0676 259.031 95.4458C264.366 95.8579 269.699 96.2699 274.932 94.951C275.577 94.7797 276.243 94.3218 276.687 93.8146C277.729 91.7425 278.885 92.6501 279.968 93.5003C280.913 94.2421 281.802 94.9403 282.511 93.5774C282.195 91.4878 282.632 89.5153 283.072 87.5277C283.163 87.1123 283.256 86.6963 283.341 86.2784C282.685 81.6737 277.425 79.5821 274.052 82.451C269.517 81.0643 266.161 80.175 261.694 80.0531C252.77 79.6665 246.423 80.2536 241.97 80.6656C237.418 81.0867 234.845 81.3248 233.52 80.1523C231.798 78.6278 232.187 74.7187 233.081 65.7268L233.082 65.7231C233.297 63.56 233.541 61.1029 233.792 58.3141C233.695 54.147 238.265 54.5783 242.676 54.9945C245.109 55.224 247.494 55.449 249.02 54.8952C252.655 55.2391 256.428 55.0904 260.171 54.9428C264.171 54.7852 268.136 54.6288 271.862 55.0763C276.962 58.907 277.469 54.153 277.97 49.4484C278.208 47.2194 278.445 45.0014 279.168 43.7127C275.684 40.4497 271.95 41.5425 268.112 42.6659L267.946 42.7147C267.358 40.1426 266.219 40.8095 264.993 41.5276C264.371 41.8918 263.727 42.2692 263.12 42.2437C256.091 41.229 250.178 41.7682 245.464 42.1981C233.834 43.2587 229.492 43.6546 233.648 18.4197C242.919 17.303 252.491 18.0378 261.855 18.7566C262.821 18.8307 263.784 18.9047 264.744 18.9764C266.482 18.9591 268.347 18.6025 270.23 18.2427C274.787 17.3714 279.448 16.4804 282.662 20.3334C282.623 19.1028 282.655 17.8179 282.688 16.5188C282.825 11.1279 282.967 5.49229 277.985 2.4745C276.987 4.19532 275.947 4.23675 274.975 4.27548C273.93 4.31711 272.964 4.35562 272.211 6.47316Z" fill="#222222"/>
<path fill-rule="evenodd" clip-rule="evenodd" d="M138.527 95.9554C148.467 97.8395 135.826 99.1702 131.626 98.8836C128.623 99.3011 128.91 96.3005 129.122 94.08L129.122 94.0793C129.152 93.7599 129.181 93.4567 129.199 93.1821C129.232 92.841 129.311 92.4995 129.39 92.159C129.627 91.1416 129.861 90.1335 128.85 89.1735C128.652 88.6366 128.87 88.0585 129.085 87.4878C129.426 86.5811 129.76 85.6932 128.411 85.0201C128.581 81.0003 128.404 76.8101 128.224 72.5818C127.931 65.6712 127.633 58.6587 128.843 52.1217C127.28 44.9308 127.539 37.6172 127.799 30.308C127.863 28.5006 127.927 26.6935 127.963 24.8886C128.252 22.8713 128 20.7476 127.748 18.6168C127.299 14.8297 126.848 11.02 129.419 7.74444C131.625 5.59767 134.7 5.8194 137.773 6.04092C139.527 6.16743 141.281 6.29387 142.871 5.97897C148.671 4.39559 154.685 5.0005 160.6 5.59545C160.812 5.61684 161.025 5.63821 161.237 5.65947C161.514 5.67827 161.789 5.70469 162.062 5.731C163.466 5.86605 164.841 5.99827 166.297 5.08306C169.485 4.17485 173.027 5.04212 176.434 5.8763C178.081 6.27946 179.696 6.67489 181.224 6.85841C185.602 6.42693 189.393 9.01255 190.954 12.8959C192.084 15.0997 193.615 17.1931 195.151 19.2922C198.494 23.8629 201.857 28.4602 201.135 34.2792C201.529 41.8797 196.626 47.3594 191.85 52.6963C190.001 54.7628 188.171 56.8079 186.675 58.9464C183.985 62.5012 175.276 62.2679 166.652 62.0369C156.059 61.7531 145.593 61.4728 146.57 68.2217C146.587 70.8109 146.774 73.4377 146.962 76.0732C147.359 81.6418 147.759 87.2486 146.56 92.6188C146.23 94.6981 144.227 94.7084 142.28 94.7185C140.649 94.7269 139.058 94.7351 138.523 95.9587L138.527 95.9554ZM146.241 23.2483C146.527 25.1766 146.284 27.9249 146.025 30.8513C145.488 36.9077 144.884 43.7266 148.77 45.6164C151.644 45.566 154.562 45.6871 157.486 45.8086C164.496 46.0996 171.548 46.3924 178.144 44.3286C183.342 41.5783 182.528 28.996 179.05 24.8853C172.504 17.5475 161.988 19.8825 152.773 21.9285C150.489 22.4357 148.285 22.9251 146.241 23.245V23.2483ZM132.486 94.6215C131.569 94.4428 131.709 94.9878 131.868 95.6028C131.926 95.827 131.986 96.0605 131.998 96.2716C132.676 96.3387 132.602 95.8097 132.526 95.2697C132.494 95.0408 132.461 94.8098 132.486 94.6215Z" fill="#222222"/>
<path d="M108.969 26.8544C108.638 26.4259 108.311 26.0033 107.875 25.4387C107.651 27.3293 108.204 27.7938 109.953 28.1264C109.567 27.6268 109.266 27.2382 108.969 26.8544Z" fill="#222222"/>
</svg>
