<svg width="400" height="100" viewBox="0 0 400 100" fill="none" xmlns="http://www.w3.org/2000/svg">
<path fill-rule="evenodd" clip-rule="evenodd" d="M83.0198 28.8409C90.0752 30.2506 96.3251 31.2891 101.718 25.5613H101.711C99.9693 -5.10743 56.9946 -5.46876 38.3232 10.2253C25.4418 23.4058 36.4895 45.179 50.1035 53.3778C53.1187 55.755 56.9022 56.3372 60.6067 56.9074C63.3132 57.3239 65.9773 57.7337 68.2689 58.8325C65.2017 61.1308 68.6427 61.6523 73.3937 62.3724C80.2928 63.4182 89.9542 64.8828 86.457 72.8149C81.4099 83.3103 63.6553 83.8196 55.0525 77.5861C52.751 75.6006 51.5123 72.7308 50.2771 69.8684C49.5089 68.088 48.7419 66.3108 47.7211 64.7509C21.3442 60.0779 31.5046 75.1873 41.6288 89.1463C58.2102 105.514 91.9811 101.64 102.5 80.1263C111.681 59.9236 102.348 49.0992 83.2304 41.8503C79.8169 40.7878 76.3313 40.0244 72.8543 39.2629L72.8446 39.2609C65.5162 37.6564 58.2249 36.0599 51.7238 31.6931C44.9216 25.2885 56.3175 18.0987 62.0286 15.7757C68.2788 14.5729 77.4435 13.5181 81.252 19.5447C81.5803 20.1999 81.9801 20.8604 82.3803 21.5211C83.9062 24.0415 85.4359 26.5679 83.0198 28.8409ZM72.5212 42.34C74.3481 42.1558 75.2168 42.8297 75.1269 44.3607L74.6048 43.9551L72.5212 42.34ZM70.2405 58.0078C69.2515 59.3354 72.2154 60.5708 72.7676 58.6977C71.8081 58.4349 71.0258 58.2215 70.2405 58.0078ZM34.0873 70.8693C32.4346 69.3645 32.4314 68.9634 34.3305 67.718L34.2121 69.2564C34.1685 69.8289 34.1293 70.3385 34.0873 70.8693ZM99.3782 79.9444C99.1122 80.7203 98.8516 81.4796 98.0108 80.7505C98.1357 80.5503 98.2409 80.2807 98.3468 80.0095C98.642 79.2525 98.9418 78.484 99.6869 79.1832C99.6118 79.3154 99.547 79.4717 99.4863 79.6366C99.4494 79.7371 99.4138 79.8411 99.3782 79.9444ZM45.2239 8.75655C45.7627 9.92303 47.4519 7.81341 46.6532 7.40587L45.2239 8.75655Z" fill="#222222"/>
<path fill-rule="evenodd" clip-rule="evenodd" d="M288.707 66.1594C287.974 75.9623 287.243 85.7277 288.431 95.4161H288.434C290.716 100.318 297.886 99.9222 304.719 99.5452C308.443 99.3395 312.068 99.1395 314.746 99.806C318.193 100.26 321.728 99.8308 325.233 99.4049C329.521 98.8844 333.765 98.369 337.751 99.481C339.508 97.1525 341.215 96.8415 343.164 96.4863C344.474 96.2476 345.894 95.9889 347.511 95.084C367.589 83.6091 377.154 38.7414 360.606 21.825C349.154 6.46016 331.34 6.23714 313.731 6.01668C307.49 5.93838 301.275 5.8604 295.378 5.10884C294.597 6.36839 293.33 7.10967 292.122 7.81662C290.262 8.90416 288.543 9.90987 288.953 12.5945C289.755 22.4723 290.205 32.2681 289.472 42.2017C289.901 50.198 289.303 58.191 288.707 66.1594ZM348.299 48.984C353.952 76.4488 328.685 83.7275 306.103 81.2861H306.1C308.258 72.9166 308.112 64.3414 307.964 55.7114C307.837 48.2706 307.709 40.7888 309.057 33.3624C309.455 32.3253 309.357 30.8453 309.258 29.3444C309.082 26.6748 308.902 23.9401 311.496 23.5171L311.603 23.5142C333.497 22.9048 347.958 22.5021 348.299 48.984ZM354.658 84.4505C358.296 81.5784 358.703 80.8227 357.937 78.3514L354.658 84.4505ZM356.209 30.8453C356.932 29.9843 357.441 29.6194 357.385 29.4025C355.785 22.41 354.517 24.3848 356.209 30.8453ZM351.612 51.6523C353.215 49.1156 353.219 49.0565 351.829 46.6247C350.508 48.3139 350.478 49.0103 351.612 51.6523ZM299.265 48.4747L299.557 52.0072C300.694 50.4958 300.537 49.6643 299.265 48.4747ZM295.893 12.2692C296.485 11.6219 296.659 11.4082 295.956 10.8857C295.355 11.3754 295.358 11.6052 295.893 12.2692Z" fill="#222222"/>
<path fill-rule="evenodd" clip-rule="evenodd" d="M156.766 79.7371H156.769C161.874 79.6703 166.977 79.6036 172.105 80.3202C174.126 80.8622 176.242 80.7441 177.905 79.2323C181.322 80.9969 184.579 81.6542 187.421 78.8841C191.032 80.8548 189.37 85.289 187.851 89.3417C187.166 91.1683 186.51 92.9175 186.38 94.3286C184.986 97.8148 180.98 96.9709 176.96 96.124C174.371 95.5788 171.776 95.0323 169.87 95.6398C165.088 95.9154 160.362 95.6824 155.624 95.4488C154.712 95.4039 153.801 95.359 152.888 95.3176C144.112 94.8215 137.577 94.9617 132.716 95.066C126.059 95.2091 122.543 95.2848 120.709 93.5654C118.654 91.6394 118.711 87.4619 118.832 78.6053C118.882 74.8738 118.944 70.3118 118.864 64.7378C120.239 52.3827 119.711 39.9425 119.18 27.4655V27.4597C119.104 25.6556 119.027 23.8509 118.956 22.0455C119.821 20.2401 119.588 17.3965 119.352 14.5286C118.91 9.14933 118.461 3.68403 125.242 4.82003C130.313 5.28662 135.409 4.84731 140.519 4.40671C146.453 3.89519 152.407 3.38206 158.362 4.28412C161.173 4.66856 164.875 4.23534 168.714 3.78576C178.073 2.6902 188.25 1.49933 188.331 11.8192C188.597 13.3474 187.511 13.7049 186.348 14.088C185.342 14.4192 184.28 14.7693 183.984 15.9104C182.998 18.0791 181.165 18.7264 178.858 18.5621C177.463 18.779 173.094 18.4209 167.757 17.9835H167.752C155.229 16.9572 137.378 15.4945 140.092 19.9917C139.899 21.532 140.104 23.132 140.308 24.7179C140.721 27.9366 141.127 31.0972 138.18 33.5826C140.018 34.5985 140.262 36.2801 140.475 37.7466C140.705 39.3306 140.899 40.6633 143.026 40.6344C148.935 39.6354 154.741 40.4438 160.558 41.3343C162.46 42.3147 165.818 41.9642 169.184 41.6128C174.538 41.0542 179.912 40.4932 179.472 45.2875C179.426 45.4226 179.38 45.5564 179.335 45.688C178.767 47.3323 178.319 48.6291 180.869 48.2944C181.044 47.5024 181.095 46.6805 181.146 45.8472C181.259 43.9972 181.376 42.0894 182.873 40.3225C185.216 45.4322 185.699 52.7633 179.265 54.7022C178.23 55.5314 177.329 55.1919 176.389 54.8382C175.712 54.5834 175.016 54.3209 174.234 54.482C172.492 55.1883 171.053 55.1357 170.048 52.8849C164.241 56.093 156.99 55.8366 149.956 55.5875C147.011 55.4832 144.104 55.3805 141.357 55.5336C138.525 56.2855 138.782 60.3398 139.032 64.2888V64.2927C139.178 66.5871 139.321 68.8456 138.853 70.3995C138.757 71.0201 138.628 71.634 138.5 72.245C138.053 74.3709 137.613 76.461 138.594 78.6739V78.6771C144.685 79.895 150.727 79.816 156.766 79.7371ZM143.05 82.6563C141.909 81.5062 140.737 81.754 139.341 82.0486C138.895 82.1429 138.425 82.2421 137.927 82.3017C139.235 83.3367 140.358 83.0745 141.404 82.8299C141.969 82.6981 142.512 82.5713 143.05 82.6563ZM172.233 6.30838C171.587 7.4893 172.767 7.60932 173.938 7.72805C174.488 7.78389 175.035 7.83941 175.391 8.00403C175.846 7.01372 174.731 6.83787 173.646 6.66651C173.1 6.5805 172.561 6.49546 172.233 6.30838ZM126.711 11.6482C128.226 10.5639 128.141 10.1467 126.826 9.16088C125.61 9.43237 125.996 10.2041 126.457 11.1232C126.543 11.2939 126.631 11.4698 126.711 11.6482ZM150.236 90.1289C149.714 91.1478 150.66 91.082 151.423 91.3547C151.806 90.4633 151.347 90.3728 150.764 90.2576C150.593 90.2239 150.411 90.1879 150.236 90.1289ZM126.179 91.2726C127.119 91.7787 127.447 89.8597 126.547 89.9155C126.472 90.1972 126.395 90.4774 126.318 90.7582L126.179 91.2726Z" fill="#222222"/>
<path fill-rule="evenodd" clip-rule="evenodd" d="M222.494 60.1152C222.635 57.4533 222.758 55.1501 222.638 53.7491L222.634 53.7459C227.806 53.657 232.692 53.8399 237.717 54.0279C238.82 54.0693 239.929 54.1111 241.049 54.1499C242.761 54.2888 244.496 54.0568 246.221 53.8261C249.47 53.3916 252.686 52.9613 255.653 55.024C256.622 55.4174 257.789 55.3513 258.95 55.2856C259.816 55.2368 260.678 55.188 261.452 55.3298C268.178 56.6151 267.408 51.1308 266.736 46.3545C266.639 45.6607 266.544 44.982 266.474 44.3412C266.355 43.4933 265.304 42.3763 264.459 42.1199C262.267 41.1915 260.057 41.3927 257.858 41.5929C255.426 41.8147 253.008 42.0348 250.645 40.7233C247.817 39.4394 244.695 39.9374 241.6 40.431C239.656 40.741 237.723 41.0493 235.88 40.9139C221.101 41.5442 221.111 41.4742 222.129 34.3993C222.57 31.3298 223.202 26.9421 222.897 20.7211C223.202 17.3885 235.452 17.4001 243.406 17.4075C246.024 17.41 248.177 17.4119 249.285 17.2939C251.105 16.6273 252.814 17.4107 254.551 18.2068C256.29 19.0043 258.058 19.8145 259.994 19.193C262.974 18.0156 264.591 19.5463 266.526 21.3783C266.859 21.6934 267.201 22.0172 267.561 22.3378C270.522 18.0396 273.64 5.5857 266.612 4.20197C258.262 3.44721 249.993 3.67633 241.712 3.90578C236.113 4.06077 230.509 4.21609 224.869 4.06751C220.942 3.79378 217.161 4.19395 213.385 4.59347C210.725 4.87523 208.068 5.15634 205.366 5.20094C203.019 5.63609 203.63 7.65778 204.244 9.6907C204.581 10.8052 204.919 11.9232 204.771 12.7852C205.203 21.8824 204.898 30.963 204.593 40.0346C204.342 47.4748 204.092 54.9091 204.249 62.3422C201.686 72.8608 201.775 82.8373 204.683 93.379C213.582 96.3435 223.237 96.0191 232.865 95.6956C240.877 95.4267 248.871 95.1581 256.395 96.7863C258.72 98.6088 260.485 97.3848 262.251 96.1609C264.019 94.9351 265.787 93.7092 268.117 95.5445C269.733 96.6519 270.949 95.9716 271.63 94.1052C276.892 81.7857 268.293 80.8355 263.759 80.3343C260.878 80.016 259.639 79.8789 264.64 77.1227C262.417 76.2473 262.305 76.3047 260.058 77.4446L259.888 77.5302C254.504 78.4342 248.911 78.3877 243.286 78.3408C238.034 78.2969 232.754 78.2526 227.59 78.9826C221.411 80.4569 222.047 68.5039 222.494 60.1152ZM229.733 87.4638C230.367 87.4038 231.016 87.3422 231.126 87.7334C230.877 87.6721 230.504 87.7074 230.127 87.7433C229.492 87.8033 228.843 87.8649 228.734 87.4737C228.983 87.535 229.355 87.4997 229.733 87.4638Z" fill="#222222"/>
</svg>
