<svg width="400" height="100" viewBox="0 0 400 100" fill="none" xmlns="http://www.w3.org/2000/svg">
<path fill-rule="evenodd" clip-rule="evenodd" d="M246.764 1.6634C249.619 -1.22595 251.9 0.223747 254.232 1.70627C255.95 2.79781 257.695 3.90715 259.718 3.31553C265.551 2.87245 271.108 7.31291 275.057 11.1405C292.711 19.5627 295.443 41.042 292.996 58.5257C292.131 60.4401 292.19 62.4831 292.246 64.4708C292.328 67.3312 292.407 70.0772 289.726 72.1611C293.19 76.8122 283.911 83.7931 279.948 85.488C276.63 85.5978 276.816 86.5387 277.032 87.6356C277.21 88.5347 277.408 89.5386 275.714 90.2753C267.352 95.8322 257.708 97.4541 247.955 98.8591C244.436 99.9382 241.681 98.721 238.686 97.398L238.685 97.3978C237.88 97.0423 237.058 96.6793 236.2 96.351C234.496 95.7608 232.698 95.2672 230.882 94.769L230.882 94.7689C225.001 93.1551 218.945 91.4934 215.391 86.3447C208.546 77.4728 204.317 66.4022 204.096 55.2963C201.966 54.0888 203.173 51.8363 203.727 51.1981C205.26 49.4303 205.308 47.395 205.355 45.428V45.4277C205.37 44.7691 205.386 44.118 205.457 43.4874C207.131 30.3576 209.399 15.2619 222.595 9.0354C224.855 9.21329 228.544 7.21772 232.425 5.1184C238.066 2.06663 244.113 -1.20438 246.764 1.6634ZM233.406 17.5481C227.869 23.0323 224.91 28.4817 224.397 35.9488C224.033 38.9601 223.552 41.9862 223.069 45.0237C222.239 50.2395 221.404 55.4886 221.152 60.7529C224.896 78.2991 250.925 88.2747 265.738 78.3109C280.898 66.5855 276.249 42.7758 271.185 26.9558C268.47 22.6429 264.209 20.8821 259.908 19.105C256.915 17.8681 253.903 16.6233 251.379 14.5047C249.471 14.8589 247.518 15.6596 245.554 16.4649C241.452 18.1467 237.3 19.8487 233.409 17.5482L233.406 17.5481ZM271.227 20.01C272.196 16.8303 269.834 15.8138 267.015 16.9131C267.61 17.3506 268.134 17.7358 268.616 18.0898L268.62 18.0927C269.583 18.8006 270.376 19.3834 271.227 20.01ZM252.331 91.3326C250.465 94.3395 256.087 94.3226 256.248 91.2646C255.658 91.2749 255.102 91.2845 254.574 91.2936L254.461 91.2956C254 91.3035 253.559 91.3111 253.134 91.3186C252.86 91.3233 252.593 91.328 252.331 91.3326Z" fill="#222222"/>
<path fill-rule="evenodd" clip-rule="evenodd" d="M145.274 55.6607C152.218 54.3115 159.089 52.9768 165.255 56.0459C165.257 61.5647 166.009 67.0588 166.76 72.5442C167.72 79.5595 168.678 86.5605 168.063 93.5803C167.309 97.3097 171.474 97.3831 174.501 97.4365C175.074 97.4466 175.607 97.4559 176.057 97.4893C186.355 95.2347 185.033 80.6332 183.949 68.6629C183.53 64.0362 183.147 59.8026 183.484 56.8269C184.636 49.4931 184.436 42.2408 184.233 34.8646C184.146 31.7076 184.058 28.5279 184.076 25.3094C183.639 23.088 183.958 20.0832 184.29 16.9667C184.917 11.0732 185.586 4.7805 181.26 2.63164C164.924 -2.9141 166.34 12.87 167.445 25.1742C168.183 33.4077 168.783 40.0829 163.829 37.7659C161.039 37.3168 156.153 38.1408 150.769 39.0487C138.27 41.1564 123.092 43.716 125.251 31.8448C125.18 28.6468 125.329 25.4784 125.477 22.3232C125.792 15.6081 126.104 8.95312 124.289 2.20036C119.531 3.53148 115.733 3.14554 112.771 2.8446C107.001 2.25831 104.405 1.99461 104.078 15.3782C105.712 21.7356 105.624 28.1928 105.537 34.6485C105.488 38.2374 105.439 41.8259 105.686 45.3964C107.269 47.819 106.877 50.3412 106.49 52.8278C106.14 55.0753 105.795 57.2937 106.917 59.3833C106.903 62.2047 107.241 65.0628 107.583 67.945C108.216 73.2901 108.858 78.7182 107.282 84.1488C105.801 102.216 114.303 100.879 126.94 98.8932C128.069 98.7158 129.231 98.5332 130.421 98.3588C129.521 93.7311 129.41 88.877 129.301 84.0735C129.203 79.7751 129.106 75.5172 128.445 71.4986C128.107 71.1568 127.818 70.3642 127.984 69.9912C128.777 68.4829 128.089 66.1315 127.414 63.8246C126.426 60.4498 125.467 57.1702 129.212 56.7649C134.412 57.771 139.866 56.7115 145.274 55.6607ZM165.498 55.9529L165.405 55.9641C165.499 55.7328 165.577 55.4936 165.652 55.2612C165.983 54.2429 166.27 53.3555 167.751 53.8416C167.951 55.6583 166.875 55.7876 165.498 55.9529Z" fill="#222222"/>
<path fill-rule="evenodd" clip-rule="evenodd" d="M56.7303 59.4514C86.3367 72.239 65.5669 89.1171 42.4596 85.5797L42.4631 85.5764C40.1491 83.9698 38.4408 81.058 36.8685 78.3779C35.1856 75.5094 33.6584 72.9063 31.711 72.4533C31.7115 72.086 31.7518 71.6893 31.7927 71.2873C31.935 69.8886 32.0838 68.4254 30.5818 67.9138C26.2366 65.1023 15.8665 64.7408 14.3477 70.4757C15.1944 72.16 15.5154 74.1815 15.8333 76.1833C16.2881 79.0477 16.7365 81.8717 18.7099 83.6095C20.4397 84.5313 21.8495 86.6167 23.2516 88.6906C25.4144 91.8897 27.5588 95.0616 30.8307 93.893C32.8722 94.3289 34.8032 95.5452 36.7308 96.7593C38.636 97.9594 40.538 99.1573 42.5403 99.5979C48.4371 99.9163 54.6268 99.1415 60.5931 98.3946C63.4725 98.0341 66.2999 97.6802 69.0172 97.4588C71.0073 96.0279 73.2723 95.0112 75.5157 94.0042C79.7418 92.1073 83.8914 90.2447 85.9829 85.7123C86.4126 84.968 86.8816 84.2175 87.3563 83.4581C89.7044 79.7008 92.1898 75.724 90.7245 71.1907C90.0526 69.3145 89.6499 67.2725 89.2459 65.2236C88.2057 59.9482 87.1565 54.6274 81.4801 51.9755C77.0753 47.5463 71.0086 46.1841 64.9169 44.8162C61.3301 44.0108 57.7346 43.2034 54.4644 41.7669C52.2381 40.3984 49.0857 39.8561 45.9075 39.3095C39.7976 38.2585 33.592 37.1911 33.6865 30.2047C32.7163 25.6898 35.9617 19.4323 40.1513 17.638C42.1052 17.4433 44.1965 16.8531 46.3221 16.2533C50.8169 14.9849 55.4646 13.6734 59.2885 15.9673C60.0634 16.4462 60.8545 16.9167 61.6489 17.3892C66.6981 20.392 71.8787 23.4731 73.8417 29.2946C74.5078 29.2387 75.2256 29.1943 75.9705 29.1482C81.9991 28.7753 89.8036 28.2926 86.3108 20.694C85.9096 17.431 84.1667 15.4485 81.4023 13.667C81.0859 13.4629 80.7539 13.2616 80.4168 13.0572C78.4321 11.8537 76.2697 10.5424 76.0563 7.91341C70.8382 3.64154 64.5842 1.43631 57.8277 2.08989C55.2421 3.13048 52.6517 2.47519 50.0998 1.82965C47.0619 1.06115 44.0785 0.306455 41.2228 2.44317C39.9726 3.72075 39.0001 3.28172 37.9688 2.81613C37.1192 2.43261 36.2298 2.03107 35.1124 2.55619C31.2007 4.38152 27.434 6.50629 24.7148 9.91582C16.7936 18.3697 16.1113 30.8829 21.1129 40.9948C22.6872 46.4169 27.104 48.1129 31.707 49.8803C34.5464 50.9706 37.4567 52.0881 39.8143 54.1242C41.8553 55.2783 43.3478 56.2807 44.5855 57.1119C48.2918 59.6011 49.7129 60.5555 56.7303 59.4514ZM32.4306 8.57689C31.2741 7.048 29.55 9.4366 29.8765 11.1274C30.7279 10.2761 31.5793 9.42482 32.4306 8.57689ZM33.0638 14.5512C33.5663 15.9645 33.1357 16.837 31.7722 17.1686C32.052 16.6031 32.33 16.0393 32.6704 15.349L33.0638 14.5512Z" fill="#222222"/>
<path fill-rule="evenodd" clip-rule="evenodd" d="M331.698 61.2349C327.997 64.784 329.099 71.5535 330.17 78.1369C331.27 84.8973 332.337 91.4615 328.14 94.1401C328.756 98.8753 325.554 98.6634 322.146 98.438C320.44 98.325 318.682 98.2087 317.326 98.7088C314.028 98.8745 312.521 97.1156 313.347 93.9865C313.148 92.2919 312.752 90.6272 312.357 88.9638C311.514 85.4171 310.673 81.8767 311.742 78.0662C311.387 76.258 311.662 74.7964 311.953 73.2479C312.181 72.0345 312.419 70.7678 312.372 69.2392C311.882 66.5177 311.521 63.8132 312.791 60.9676C313.24 55.8465 312.741 50.5984 312.239 45.3291C311.687 39.531 311.133 33.7073 311.837 27.9994C311.833 25.9433 311.7 23.727 311.566 21.4874V21.487C310.874 9.92515 310.145 -2.25861 326.824 3.75549C330.226 3.94988 333.656 3.79788 337.107 3.64496C342.625 3.40041 348.196 3.15353 353.791 4.31739C356.284 4.03709 358.474 4.89027 360.658 5.74096C362.948 6.63278 365.23 7.52187 367.847 7.09939C370.396 7.21307 372.6 8.97095 374.684 10.6335C375.44 11.2361 376.18 11.8263 376.915 12.321C380.53 18.6414 384.033 24.8025 384.004 32.2109C385.732 34.2264 385.503 36.5802 385.276 38.9027C385.182 39.8647 385.089 40.8214 385.136 41.7464C386.642 45.2421 384.556 47.8557 382.605 49.9462C382.06 50.5317 381.517 51.1415 380.967 51.7587L380.965 51.7607C378.233 54.8261 375.341 58.0706 371.412 59.4025C367.767 59.8392 364.249 60.9675 360.74 62.0928C354.937 63.9542 349.159 65.807 342.883 64.5064C341.496 64.3661 340.026 64.6707 338.619 64.9623C335.392 65.6309 332.498 66.2306 331.698 61.2349ZM330.098 17.0479C330.181 19.6609 330.356 22.2742 330.53 24.8772C331.045 32.5781 331.555 40.1883 329.664 47.4344C331.693 46.6497 333.778 47.0321 335.842 47.4105C337.313 47.6802 338.773 47.948 340.194 47.7898C343.343 46.7723 346.904 47.1471 350.428 47.5179C356.109 48.1159 361.692 48.7036 365.295 43.4294C365.358 43.2339 365.422 43.0364 365.487 42.837C367.544 36.4914 370.217 28.2454 365.192 22.6744C364.315 22.0024 363.498 21.2072 362.691 20.4217C360.32 18.1144 358.034 15.89 354.57 17.1133C350.548 17.448 346.651 17.2459 342.749 17.0435C338.591 16.8278 334.427 16.6118 330.098 17.0445L330.098 17.0479Z" fill="#222222"/>
<path d="M294.366 68.2138C295.006 68.9373 295.089 69.1434 294.355 69.6647C293.83 69.0835 293.638 68.8712 294.366 68.2138Z" fill="#222222"/>
</svg>
