<svg width="400" height="100" viewBox="0 0 400 100" fill="none" xmlns="http://www.w3.org/2000/svg">
<path d="M383.159 42.6115C394.675 97.9688 312.051 125.62 299.252 66.221C278.998 -2.56654 375.097 -29.309 383.159 42.6115ZM354.218 78.9226C362.305 73.4817 360.557 61.8824 363.716 53.5371C363.652 49.598 360.081 46.501 360.543 42.2598C358.535 35.4403 357.907 25.2724 352.074 20.8405C344.956 17.4957 335.438 14.8167 328.36 19.9732C313.309 30.0474 311.634 52.8722 318.152 68.3768C318.072 75.0653 326.394 78.6343 332.039 81.0638C338.251 82.4649 348.792 71.9393 354.221 78.9225L354.218 78.9226ZM373.451 78.257C371.666 75.9062 370.402 79.5069 369.52 80.5802C368.374 81.6972 366.667 82.5601 367.026 84.8737C369.168 82.667 371.309 80.4603 373.451 78.2536L373.451 78.257ZM347.34 81.6707C347.324 79.7444 344.02 81.6285 342.616 81.4632C342.758 83.2218 345.959 81.4813 347.34 81.6707ZM325.875 93.7123C325.425 92.2436 324.819 91.645 323.447 93.2545C324.493 93.4525 325.184 93.5824 325.875 93.7123Z" fill="#222222"/>
<path d="M263.879 97.1287C256.843 84.0608 260.029 68.2865 261.142 53.9921C247.608 55.6928 233.981 54.2809 220.638 57.1548C216.695 68.7057 219.949 80.0985 220.644 91.8424C221.525 97.2575 215.397 97.0592 211.902 99.1127C208.803 100.941 205.837 99.5338 202.539 98.5411C201.191 88.8012 197.865 91.9748 199.958 79.4812C200.661 68.3258 200.482 56.1558 200.331 44.3879C200.887 32.1923 197.555 19.3045 201.05 7.87917C203.253 5.66759 203.078 1.21446 207.236 2.36295C213.976 2.62939 218.05 2.69587 220.793 9.66088C224.491 13.7818 219.47 17.4555 220.829 21.895C224.252 26.4358 216.898 41.8674 222.996 40.7775C233.464 38.3803 244.13 39.9992 254.501 39.4338C265.789 43.7255 260.793 23.0695 260.679 16.9163C257.155 5.45332 265.689 3.80067 275.053 5.33225C279.131 6.21763 274.703 12.0713 279.45 13.5504C277.292 39.1467 281.918 64.6323 277.941 90.2452C278.836 93.4613 275.655 99.1319 272.123 96.7388C269.416 94.3345 266.756 96.8936 263.875 97.1254L263.879 97.1287Z" fill="#222222"/>
<path d="M18.8536 7.06516C18.567 6.75365 18.0558 6.19284 17.4203 5.49756C38.4751 2.95907 58.7735 6.37795 79.0887 3.53623C85.4474 5.01752 85.0801 13.3179 82.6872 18.166C68.723 19.9751 54.9056 20.8304 40.7627 19.7372C28.2179 16.6964 36.7984 35.7933 34.2132 42.9524C37.6323 42.2469 40.5323 39.4971 44.1785 40.1854C54.2999 40.2273 64.4524 40.3054 74.1084 42.0879C77.5173 43.7289 80.7728 37.4455 81.2326 42.5358C84.4242 58.0488 75.025 52.4162 64.9734 55.4808C57.9629 56.0638 40.7338 58.175 35.5131 54.6069C35.1463 83.1646 31.878 80.466 60.0943 80.2139C68.1386 80.2823 76.2995 81.0997 84.1867 79.1044C90.0532 77.6311 87.7055 85.6736 86.8992 88.7791C84.9597 91.5478 89.4817 92.875 87.9191 94.7646C78.1391 96.3822 67.9748 98.0668 58.2907 95.5801C50.6508 94.5278 43.2755 95.674 35.6139 95.2164C26.1755 94.3212 17.5178 101.861 18.5228 86.8983C17.8587 81.6958 19.3023 77.1339 18.3405 71.8417C17.302 68.7903 19.0845 68.1403 19.1321 65.5545C17.8143 61.2985 19.3656 56.4855 16.5107 52.8934C20.0018 53.1628 20.4051 52.1387 17.249 50.6691C17.5008 49.3636 18.8381 48.1108 17.2548 46.9766C18.2858 35.6382 12.3111 17.2328 18.8503 7.06525L18.8536 7.06516ZM64.2185 50.5324C62.7303 48.1337 60.1204 48.325 57.5919 50.3771C59.9362 50.431 62.0791 50.4833 64.2185 50.5324ZM52.9291 12.4997C52.9666 11.2165 50.615 12.3141 49.6601 12.1205C49.7639 13.155 52.0137 12.2748 52.9291 12.4997ZM28.3514 12.487C28.2366 11.5468 27.1574 12.2626 26.4989 12.2393C26.8534 13.6265 27.404 13.1089 28.3514 12.487ZM36.3173 88.1091C36.3592 88.823 38.5256 88.3544 39.3143 88.6094C39.4782 87.4136 37.1857 88.3318 36.3173 88.1091Z" fill="#222222"/>
<path d="M116.76 55.3778C118.456 56.5896 118.889 57.8775 119.105 59.8893C119.332 65.8416 122.119 71.2178 124.632 76.5406C130.862 88.6826 148.152 82.3975 155.675 74.7322C162.553 71.4941 163.806 60.1667 172.069 60.9109C176.75 61.613 182.124 61.119 186.12 64.1715C181.902 78.3242 170.539 87.6927 160.869 97.8972C152.467 97.8916 145.054 99.1463 136.818 99.7172C131.275 99.1313 126.454 95.1668 120.553 95.9529C119.666 96.0496 118.47 95.6406 117.804 95.0401C111.105 90.3989 107.533 83.0624 103.264 76.6938C99.4081 73.8492 98.7719 61.3754 99.2754 56.5457C100.91 49.7467 98.4196 42.0569 101.946 35.5852C103.552 32.4155 99.989 29.4626 102.604 26.5859C104.907 22.1664 106.175 17.1961 111.417 15.5744C116.188 11.7157 121.091 7.36031 126.648 4.27703C141.662 -1.85556 157.43 0.672804 170.299 10.0729C172.394 13.8825 177.442 15.6929 177.575 20.8688C178.809 23.8245 181.843 28.5096 178.063 30.8121C174.4 32.5108 178.857 32.3391 180.692 32.8324C164.291 40.4977 163.403 25.825 153.947 17.5725C144.527 11.5276 130.08 17.8034 123.082 25.7741C117.503 34.383 120.597 45.7094 116.754 55.378L116.76 55.3778ZM166.554 12.3107C166.004 11.3156 165.301 11.0596 164.443 11.5426C165.273 11.8469 165.913 12.0788 166.554 12.3107ZM147.893 7.81925C146.882 7.40217 146.526 7.00184 145.973 7.98275C146.803 8.5354 146.982 8.69861 147.893 7.81925ZM140.118 3.73939C140.438 2.47242 137.916 3.08106 138.34 3.93616C138.933 3.87058 139.525 3.80497 140.118 3.73939Z" fill="#222222"/>
</svg>
