<svg width="2000" height="1548" viewBox="0 0 2000 1548" fill="none" xmlns="http://www.w3.org/2000/svg">
<rect width="990" height="120" fill="white"/>
<path d="M413.78 43.24C406.86 43.24 403.3 48.96 403.3 56.8C403.3 65 407.02 70.28 413.9 70.28C419.7 70.28 422.1 66.6 422.5 63.12H425.34C424.86 68.6 420.5 72.64 413.66 72.64C405.98 72.64 400.26 67.68 400.26 56.8C400.26 46.72 406.1 40.92 413.78 40.92C418.98 40.92 424.66 43.44 425.34 50.2H422.42C421.98 46.84 419.54 43.24 413.78 43.24ZM440.128 72.52C433.848 72.52 430.928 67.92 430.928 61.52C430.928 55.2 434.328 50.52 440.128 50.52C446.448 50.52 449.288 55.2 449.288 61.52C449.288 67.96 445.968 72.52 440.128 72.52ZM440.128 52.68C436.008 52.68 433.768 56.12 433.768 61.52C433.768 66.92 435.768 70.32 440.168 70.32C444.408 70.32 446.408 66.92 446.408 61.52C446.408 56.12 444.488 52.68 440.128 52.68ZM456.105 72V51.04H458.705V55.4H458.785C459.665 52.96 462.225 50.64 465.385 50.64H465.745V53.4H465.185C461.905 53.4 458.905 55.56 458.905 60.52V72H456.105ZM474.352 62.88C474.352 66.64 476.352 70.28 480.712 70.28C484.872 70.28 486.952 66.8 486.952 61.28C486.952 56.56 485.432 52.76 480.792 52.76C476.592 52.76 474.352 56.2 474.352 59.84V62.88ZM471.632 79.52V51.04H474.272V54.76H474.352C475.672 52.16 478.112 50.52 481.352 50.52C485.712 50.52 489.792 53.2 489.792 61.28C489.792 68.88 485.712 72.52 480.912 72.52C477.712 72.52 475.272 70.52 474.512 68.52H474.432V79.52H471.632ZM504.481 72.52C498.201 72.52 495.281 67.92 495.281 61.52C495.281 55.2 498.681 50.52 504.481 50.52C510.801 50.52 513.641 55.2 513.641 61.52C513.641 67.96 510.321 72.52 504.481 72.52ZM504.481 52.68C500.361 52.68 498.121 56.12 498.121 61.52C498.121 66.92 500.121 70.32 504.521 70.32C508.761 70.32 510.761 66.92 510.761 61.52C510.761 56.12 508.841 52.68 504.481 52.68ZM520.458 72V51.04H523.058V55.4H523.138C524.018 52.96 526.578 50.64 529.738 50.64H530.098V53.4H529.538C526.258 53.4 523.258 55.56 523.258 60.52V72H520.458ZM541.265 70.08C544.265 70.08 547.705 67.72 547.705 62.56V61.68C542.505 62 539.865 62.32 538.545 63.28C537.585 63.96 537.105 65 537.105 66.32C537.105 68.8 538.745 70.08 541.265 70.08ZM537.985 56.6H535.345C535.385 53.32 538.225 50.52 542.945 50.52C548.745 50.52 550.385 53.72 550.385 58.24V67.36C550.385 69.28 550.945 69.96 552.425 70V72.2H552.065C549.065 72.2 547.985 70.88 547.825 68.08H547.745C546.465 70.8 543.905 72.32 540.705 72.32C536.785 72.32 534.265 70.16 534.265 66.44C534.265 64.04 535.305 62.32 537.145 61.32C539.225 60.16 542.665 59.8 547.745 59.52V58.2C547.745 54.92 546.585 52.64 542.865 52.64C539.665 52.64 538.145 54.44 537.985 56.6ZM559.86 44.76H562.46V51.04H567.82V53.2H562.46V66.76C562.46 69 563.42 69.96 565.82 69.96C567.02 69.96 568.22 69.72 568.22 69.72V72.04C568.22 72.04 567.02 72.36 565.14 72.36C561.1 72.36 559.7 70.2 559.7 67.08V53.2H555.7V51.12H556.62C559.3 51.12 559.86 50.52 559.86 46.68V44.76ZM587.382 60.04V59.84C587.342 56.56 586.222 52.68 581.782 52.68C577.862 52.68 575.782 55.72 575.422 60.04H587.382ZM589.862 66.76C589.102 69.96 586.022 72.52 581.902 72.52C575.502 72.52 572.582 68.24 572.582 61.68C572.582 55.32 575.822 50.52 581.782 50.52C587.982 50.52 590.182 55.48 590.182 60.44V62.16H575.382C575.542 67.24 577.542 70.32 581.942 70.32C585.622 70.32 586.862 67.92 587.222 66.76H589.862Z" fill="#222222"/>
<rect width="990" height="456" transform="translate(0 140)" fill="white"/>
<path fill-rule="evenodd" clip-rule="evenodd" d="M541.764 319.663C544.619 316.774 546.9 318.224 549.232 319.706C550.95 320.798 552.695 321.907 554.718 321.316C560.551 320.872 566.108 325.313 570.057 329.141C587.711 337.563 590.443 359.042 587.996 376.526C587.131 378.44 587.19 380.483 587.246 382.471C587.328 385.331 587.407 388.077 584.726 390.161C588.19 394.812 578.911 401.793 574.948 403.488C571.63 403.598 571.816 404.539 572.032 405.636C572.21 406.535 572.408 407.539 570.714 408.275C562.352 413.832 552.708 415.454 542.955 416.859C539.436 417.938 536.681 416.721 533.686 415.398L533.685 415.398C532.88 415.042 532.058 414.679 531.2 414.351C529.496 413.761 527.698 413.267 525.882 412.769L525.882 412.769C520.001 411.155 513.945 409.493 510.391 404.345C503.546 395.473 499.317 384.402 499.096 373.296C496.966 372.089 498.173 369.836 498.727 369.198C500.26 367.43 500.308 365.395 500.355 363.428V363.428C500.37 362.769 500.386 362.118 500.457 361.487C502.131 348.358 504.399 333.262 517.595 327.035C519.855 327.213 523.544 325.218 527.425 323.118C533.066 320.067 539.113 316.796 541.764 319.663ZM528.406 335.548C522.869 341.032 519.91 346.482 519.397 353.949C519.033 356.96 518.552 359.986 518.069 363.024C517.239 368.239 516.404 373.489 516.152 378.753C519.896 396.299 545.925 406.275 560.738 396.311C575.898 384.585 571.249 360.776 566.185 344.956C563.47 340.643 559.209 338.882 554.908 337.105C551.915 335.868 548.903 334.623 546.379 332.505C544.471 332.859 542.518 333.66 540.554 334.465C536.452 336.147 532.3 337.849 528.409 335.548L528.406 335.548ZM566.227 338.01C567.196 334.83 564.834 333.814 562.015 334.913C562.61 335.351 563.134 335.736 563.616 336.09L563.62 336.093C564.583 336.801 565.376 337.383 566.227 338.01ZM547.331 409.333C545.465 412.34 551.087 412.323 551.248 409.265C550.658 409.275 550.102 409.284 549.574 409.294L549.461 409.296C549 409.304 548.559 409.311 548.134 409.319C547.86 409.323 547.593 409.328 547.331 409.333Z" fill="#222222"/>
<path fill-rule="evenodd" clip-rule="evenodd" d="M440.274 373.661C447.218 372.312 454.089 370.977 460.255 374.046C460.257 379.565 461.009 385.059 461.76 390.544C462.72 397.56 463.678 404.56 463.063 411.58C462.309 415.31 466.474 415.383 469.501 415.436C470.074 415.447 470.607 415.456 471.057 415.489C481.355 413.235 480.033 398.633 478.949 386.663C478.53 382.036 478.147 377.803 478.484 374.827C479.636 367.493 479.436 360.241 479.233 352.865C479.146 349.708 479.058 346.528 479.076 343.309C478.639 341.088 478.958 338.083 479.29 334.967C479.917 329.073 480.586 322.781 476.26 320.632C459.924 315.086 461.34 330.87 462.445 343.174C463.183 351.408 463.783 358.083 458.829 355.766C456.039 355.317 451.153 356.141 445.769 357.049C433.27 359.156 418.092 361.716 420.251 349.845C420.18 346.647 420.329 343.478 420.477 340.323C420.792 333.608 421.104 326.953 419.289 320.2C414.531 321.531 410.733 321.146 407.771 320.845C402.001 320.258 399.405 319.995 399.078 333.378C400.712 339.736 400.624 346.193 400.537 352.648C400.488 356.237 400.439 359.826 400.686 363.396C402.269 365.819 401.877 368.341 401.49 370.828C401.14 373.075 400.795 375.294 401.917 377.383C401.903 380.205 402.241 383.063 402.583 385.945C403.216 391.29 403.858 396.718 402.282 402.149C400.801 420.216 409.303 418.879 421.94 416.893C423.069 416.716 424.231 416.533 425.421 416.359C424.521 411.731 424.41 406.877 424.301 402.074C424.203 397.775 424.106 393.517 423.445 389.499C423.107 389.157 422.818 388.364 422.984 387.991C423.777 386.483 423.089 384.132 422.414 381.825C421.426 378.45 420.467 375.17 424.212 374.765C429.412 375.771 434.866 374.711 440.274 373.661ZM460.498 373.953L460.405 373.964C460.499 373.733 460.577 373.494 460.652 373.261C460.983 372.243 461.27 371.355 462.751 371.842C462.951 373.658 461.875 373.788 460.498 373.953Z" fill="#222222"/>
<path fill-rule="evenodd" clip-rule="evenodd" d="M351.73 377.451C381.337 390.239 360.567 407.117 337.46 403.58L337.463 403.576C335.149 401.97 333.441 399.058 331.868 396.378C330.186 393.509 328.658 390.906 326.711 390.453C326.711 390.086 326.752 389.689 326.793 389.287C326.935 387.889 327.084 386.425 325.582 385.914C321.237 383.102 310.866 382.741 309.348 388.476C310.194 390.16 310.515 392.182 310.833 394.183C311.288 397.048 311.736 399.872 313.71 401.609C315.44 402.531 316.85 404.617 318.252 406.691C320.414 409.89 322.559 413.062 325.831 411.893C327.872 412.329 329.803 413.545 331.731 414.759C333.636 415.959 335.538 417.157 337.54 417.598C343.437 417.916 349.627 417.141 355.593 416.395C358.472 416.034 361.3 415.68 364.017 415.459C366.007 414.028 368.272 413.011 370.516 412.004C374.742 410.107 378.891 408.245 380.983 403.712C381.413 402.968 381.882 402.218 382.356 401.458C384.704 397.701 387.19 393.724 385.724 389.191C385.053 387.315 384.65 385.272 384.246 383.224C383.206 377.948 382.156 372.627 376.48 369.976C372.075 365.546 366.009 364.184 359.917 362.816C356.33 362.011 352.735 361.203 349.464 359.767C347.238 358.398 344.086 357.856 340.908 357.309C334.798 356.259 328.592 355.191 328.687 348.205C327.716 343.69 330.962 337.432 335.151 335.638C337.105 335.443 339.197 334.853 341.322 334.253C345.817 332.985 350.465 331.673 354.289 333.967C355.063 334.446 355.855 334.917 356.649 335.389C361.698 338.392 366.879 341.473 368.842 347.295C369.508 347.239 370.226 347.194 370.971 347.148C376.999 346.775 384.804 346.293 381.311 338.694C380.91 335.431 379.167 333.448 376.402 331.667C376.086 331.463 375.754 331.262 375.417 331.057C373.432 329.854 371.27 328.542 371.056 325.913C365.838 321.642 359.584 319.436 352.828 320.09C350.242 321.13 347.652 320.475 345.1 319.83C342.062 319.061 339.079 318.306 336.223 320.443C334.973 321.721 334 321.282 332.969 320.816C332.119 320.433 331.23 320.031 330.112 320.556C326.201 322.382 322.434 324.506 319.715 327.916C311.794 336.37 311.111 348.883 316.113 358.995C317.687 364.417 322.104 366.113 326.707 367.88C329.546 368.971 332.457 370.088 334.814 372.124C336.855 373.278 338.348 374.281 339.586 375.112C343.292 377.601 344.713 378.556 351.73 377.451ZM327.431 326.577C326.274 325.048 324.55 327.437 324.876 329.127C325.728 328.276 326.579 327.425 327.431 326.577ZM328.064 332.551C328.566 333.965 328.136 334.837 326.772 335.169C327.052 334.603 327.33 334.039 327.67 333.349L328.064 332.551Z" fill="#222222"/>
<path fill-rule="evenodd" clip-rule="evenodd" d="M626.698 379.235C622.997 382.784 624.099 389.554 625.17 396.137C626.27 402.897 627.338 409.461 623.14 412.14C623.756 416.875 620.554 416.663 617.146 416.438C615.44 416.325 613.682 416.209 612.326 416.709C609.028 416.875 607.521 415.116 608.347 411.987C608.148 410.292 607.752 408.627 607.357 406.964C606.514 403.417 605.673 399.877 606.742 396.066C606.387 394.258 606.662 392.796 606.953 391.248C607.181 390.035 607.419 388.768 607.372 387.239C606.882 384.518 606.521 381.813 607.791 378.968C608.24 373.847 607.741 368.598 607.239 363.329C606.687 357.531 606.133 351.707 606.837 345.999C606.833 343.943 606.7 341.727 606.566 339.487V339.487C605.874 327.925 605.145 315.741 621.824 321.755C625.226 321.95 628.656 321.798 632.107 321.645C637.625 321.4 643.196 321.154 648.791 322.317C651.284 322.037 653.474 322.89 655.658 323.741C657.948 324.633 660.23 325.522 662.847 325.099C665.396 325.213 667.6 326.971 669.684 328.633C670.44 329.236 671.18 329.826 671.915 330.321C675.53 336.641 679.033 342.803 679.004 350.211C680.732 352.226 680.503 354.58 680.276 356.903C680.182 357.865 680.089 358.821 680.136 359.746C681.642 363.242 679.556 365.856 677.605 367.946C677.06 368.532 676.517 369.142 675.967 369.759L675.965 369.761C673.233 372.826 670.341 376.071 666.412 377.403C662.767 377.839 659.249 378.968 655.74 380.093C649.937 381.954 644.159 383.807 637.883 382.506C636.496 382.366 635.026 382.671 633.619 382.962C630.392 383.631 627.498 384.231 626.698 379.235ZM625.098 335.048C625.181 337.661 625.356 340.274 625.53 342.877C626.045 350.578 626.555 358.188 624.664 365.434C626.693 364.65 628.778 365.032 630.842 365.41C632.313 365.68 633.773 365.948 635.194 365.79C638.343 364.772 641.904 365.147 645.428 365.518C651.109 366.116 656.692 366.704 660.295 361.429C660.358 361.234 660.422 361.036 660.487 360.837C662.544 354.491 665.217 346.245 660.192 340.674C659.315 340.002 658.498 339.207 657.691 338.422C655.32 336.114 653.034 333.89 649.57 335.113C645.548 335.448 641.651 335.246 637.749 335.043C633.591 334.828 629.427 334.612 625.098 335.044L625.098 335.048Z" fill="#222222"/>
<path d="M589.366 386.214C590.006 386.937 590.089 387.143 589.355 387.665C588.83 387.083 588.638 386.871 589.366 386.214Z" fill="#222222"/>
<rect width="990" height="456" transform="translate(0 616)" fill="white"/>
<path d="M611.068 822.565C609.974 843.365 610.646 864.363 612.076 885.232C612.481 891.013 591.226 888.009 593.706 881.586L593.723 881.214L593.723 881.213C594.155 871.658 594.574 862.394 595.943 853.118C595.907 847.636 595.458 842.168 595.011 836.716C594.407 829.342 593.805 821.998 594.227 814.689C594.333 796.464 597.33 796.85 611.431 798.668C612.608 798.819 613.862 798.981 615.198 799.143C617.972 799.29 618.877 802.674 619.728 805.853C620.154 807.447 620.566 808.988 621.193 810.045C622.923 815.332 625.854 819.757 628.797 824.199C630.124 826.202 631.453 828.208 632.675 830.299C632.944 831.596 633.838 832.016 634.75 832.446C635.502 832.8 636.267 833.16 636.704 834.024C636.714 834.054 636.725 834.084 636.735 834.114C636.748 834.153 636.762 834.191 636.775 834.23C636.794 834.285 636.812 834.34 636.831 834.395C637.214 835.527 637.583 836.615 638.881 837.09C639.823 838.827 640.74 840.615 641.666 842.42L641.666 842.421C645.224 849.357 648.909 856.54 654.612 862.031C655.664 856.747 655.069 851.561 654.476 846.398C653.861 841.041 653.249 835.709 654.483 830.318C654.33 824.651 654.369 818.779 654.409 812.829V812.825C654.446 807.309 654.484 801.726 654.368 796.178C655.81 796.059 657.469 795.607 659.164 795.145C664.207 793.772 669.562 792.314 670.412 799.281C671.178 814.349 670.519 829.335 669.858 844.36L669.858 844.363L669.856 844.411C669.784 846.05 669.712 847.69 669.641 849.33C670.495 852.88 670.153 856.67 669.814 860.429C669.338 865.711 668.868 870.932 671.723 875.344C671.792 880.321 668.841 888.203 662.514 887.772C661.544 887.733 660.787 887.235 660.04 886.742C659.054 886.091 658.083 885.451 656.657 885.891C654.083 886.457 652.985 884.5 651.826 882.433C650.9 880.783 649.935 879.061 648.146 878.5C645.032 876.528 643.671 873.25 642.294 869.937C641.054 866.953 639.802 863.94 637.247 861.827C635.175 857.9 632.557 855.012 629.375 852.018C628.255 849.892 627.149 847.758 626.044 845.625C624.289 842.239 622.535 838.854 620.722 835.499C620.017 834.195 619.072 832.706 617.84 832.074C615.747 831.194 614.894 828.972 614.09 826.876C613.351 824.949 612.653 823.13 611.068 822.561V822.565Z" fill="#222222"/>
<path fill-rule="evenodd" clip-rule="evenodd" d="M400.727 815.737C402.591 818.23 402.334 820.506 400.651 822.93C401.872 823.422 402.788 823.737 403.494 823.98C404.522 824.333 405.109 824.534 405.548 824.908C406.131 825.405 406.454 826.206 407.208 828.072C407.49 828.772 407.833 829.621 408.273 830.661C409.106 842.94 409.469 856.125 403.82 867.294C402.776 872.402 399.044 875.684 395.375 878.911C394.633 879.563 393.895 880.212 393.181 880.875C392.533 881.405 391.764 882.371 390.922 883.429C388.294 886.732 384.953 890.931 382.331 885.598C382.017 890.509 378.021 891.155 373.929 891.817C371.766 892.167 369.576 892.522 367.888 893.513C366.452 894.324 365.214 893.96 363.932 893.582C362.92 893.284 361.88 892.977 360.694 893.236C350.661 893.747 337.318 889.689 332.269 880.45C331.814 879.598 330.87 879.258 329.911 878.913C328.709 878.481 327.486 878.041 327.183 876.573C326.992 876.194 326.801 875.816 326.611 875.441C322.858 868.021 319.422 861.229 319.212 852.485C319.348 850.59 319.051 848.74 318.757 846.905C318.243 843.702 317.737 840.545 319.548 837.268C320.893 834.501 321.723 831.514 322.553 828.531C323.706 824.383 324.857 820.242 327.387 816.702L327.794 816.293C336.693 807.347 348.469 795.51 362.354 798.111C365.545 799.064 369.092 799.665 372.692 800.276C383.501 802.109 394.79 804.024 398.346 815.753C398.869 816.672 399.129 816.629 400.727 815.733V815.737ZM383.856 872.344C388.3 865.878 388.814 859.09 389.354 851.962C389.478 850.324 389.604 848.668 389.778 846.995C393.085 837.324 389.393 827.219 383.5 819.439C375.954 810.272 352.641 809.044 346.287 819.768C341.376 830.565 337.611 840.885 339.347 852.937C339.018 859.313 339.36 866.016 343.58 871.155C344.08 868.23 358.632 878.424 355.711 879.741C364.229 882.449 371.237 878.793 378.226 875.146C380.096 874.17 381.964 873.196 383.859 872.344H383.856ZM392.575 811.942C392.96 809.123 391.343 807.476 388.158 806.998C389.023 807.968 389.834 808.876 390.708 809.853C391.291 810.505 391.902 811.189 392.575 811.942ZM381.643 809.393C380.612 806.504 380.592 806.494 377.773 806.962C377.912 807.126 378.046 807.292 378.179 807.457L378.179 807.457C379.01 808.488 379.791 809.458 381.643 809.393ZM346.139 873.691C346.587 875.065 347.45 875.747 348.728 875.736C348.515 875.568 348.313 875.408 348.113 875.25C347.498 874.763 346.91 874.297 346.139 873.691ZM372.463 809.795C373.421 808.971 370.859 808.121 370.836 809.109C371.18 809.253 371.525 809.399 371.868 809.544C372.067 809.628 372.265 809.711 372.463 809.795ZM353.686 800.156C352.772 799.927 352.617 799.889 352.081 800.628C352.365 801.095 352.687 800.904 353.14 800.635C353.38 800.493 353.657 800.329 353.985 800.229C353.877 800.203 353.777 800.178 353.686 800.156Z" fill="#222222"/>
<path d="M567.211 800.473C566.882 799.175 566.711 798.503 566.477 797.588L566.48 797.585C564.193 799.202 561.775 798.798 559.277 798.38C557.864 798.144 556.426 797.904 554.971 798.023C553.732 797.929 552.522 798.019 551.333 798.107C549.013 798.28 546.769 798.447 544.524 797.232C542.822 796.069 541.365 796.828 540.045 797.515C538.79 798.169 537.659 798.758 536.562 797.565C535.32 796.306 533.495 796.781 531.651 797.26C530.488 797.563 529.318 797.867 528.282 797.739C526.392 797.446 524.82 798.299 523.283 799.133C521.423 800.143 519.614 801.125 517.356 800.012C515.234 798.898 513.487 800.284 511.768 801.646C511.139 802.145 510.514 802.641 509.876 803.009C509.122 804.207 509.776 805.025 510.456 805.876C511.116 806.702 511.801 807.558 511.253 808.823C510.19 811.595 510.521 814.352 510.851 817.112C511.205 820.067 511.56 823.027 510.206 826.017C509.516 830.831 509.724 835.652 509.93 840.431C510.111 844.647 510.292 848.829 509.853 852.943C509.124 858.848 509.551 864.736 509.975 870.571C510.303 875.09 510.629 879.576 510.413 884.014C510.07 890.973 521.265 890.259 530.219 889.688C534.059 889.444 537.486 889.225 539.415 889.649C544.237 888.689 549.135 889.068 554.031 889.446C559.366 889.858 564.699 890.27 569.932 888.951C570.577 888.78 571.243 888.322 571.687 887.815C572.729 885.743 573.885 886.65 574.968 887.5C575.913 888.242 576.802 888.94 577.511 887.577C577.195 885.488 577.632 883.515 578.072 881.528C578.163 881.112 578.256 880.696 578.341 880.278C577.685 875.674 572.425 873.582 569.052 876.451C564.517 875.064 561.161 874.175 556.694 874.053C547.77 873.666 541.423 874.254 536.97 874.666C532.418 875.087 529.845 875.325 528.52 874.152C526.798 872.628 527.187 868.719 528.081 859.727L528.082 859.723C528.297 857.56 528.541 855.103 528.792 852.314C528.695 848.147 533.265 848.578 537.676 848.994C540.109 849.224 542.494 849.449 544.02 848.895C547.655 849.239 551.428 849.09 555.171 848.943C559.171 848.785 563.136 848.629 566.862 849.076C571.962 852.907 572.469 848.153 572.97 843.448C573.208 841.219 573.445 839.001 574.168 837.713C570.684 834.45 566.95 835.543 563.112 836.666L562.946 836.715C562.358 834.143 561.219 834.81 559.993 835.528C559.371 835.892 558.727 836.269 558.12 836.244C551.091 835.229 545.178 835.768 540.464 836.198C528.834 837.259 524.492 837.655 528.648 812.42C537.919 811.303 547.491 812.038 556.855 812.757C557.821 812.831 558.784 812.905 559.744 812.976C561.482 812.959 563.347 812.603 565.23 812.243C569.787 811.371 574.448 810.48 577.662 814.333C577.623 813.103 577.655 811.818 577.688 810.519C577.825 805.128 577.967 799.492 572.985 796.474C571.987 798.195 570.947 798.237 569.975 798.275C568.93 798.317 567.964 798.356 567.211 800.473Z" fill="#222222"/>
<path fill-rule="evenodd" clip-rule="evenodd" d="M433.527 889.955C443.467 891.839 430.826 893.17 426.626 892.884C423.623 893.301 423.91 890.301 424.122 888.08L424.122 888.079C424.152 887.76 424.181 887.457 424.199 887.182C424.232 886.841 424.311 886.499 424.39 886.159C424.627 885.142 424.861 884.134 423.85 883.174C423.652 882.637 423.87 882.058 424.085 881.488C424.426 880.581 424.76 879.693 423.411 879.02C423.581 875 423.404 870.81 423.224 866.582C422.931 859.671 422.633 852.659 423.843 846.122C422.28 838.931 422.539 831.617 422.799 824.308C422.863 822.501 422.927 820.694 422.963 818.889C423.252 816.871 423 814.748 422.748 812.617C422.299 808.83 421.848 805.02 424.419 801.744C426.625 799.598 429.7 799.819 432.773 800.041C434.527 800.167 436.281 800.294 437.871 799.979C443.671 798.396 449.685 799.001 455.6 799.595C455.812 799.617 456.025 799.638 456.237 799.659C456.514 799.678 456.789 799.705 457.062 799.731C458.466 799.866 459.841 799.998 461.297 799.083C464.485 798.175 468.027 799.042 471.434 799.876C473.081 800.279 474.696 800.675 476.224 800.858C480.602 800.427 484.393 803.013 485.954 806.896C487.084 809.1 488.615 811.193 490.151 813.292C493.494 817.863 496.857 822.46 496.135 828.279C496.529 835.88 491.626 841.359 486.85 846.696C485.001 848.763 483.171 850.808 481.675 852.946C478.985 856.501 470.276 856.268 461.652 856.037C451.059 855.753 440.593 855.473 441.57 862.222C441.587 864.811 441.774 867.438 441.962 870.073C442.359 875.642 442.759 881.249 441.56 886.619C441.23 888.698 439.227 888.708 437.28 888.718C435.649 888.727 434.058 888.735 433.523 889.959L433.527 889.955ZM441.241 817.248C441.527 819.177 441.284 821.925 441.025 824.851C440.488 830.908 439.884 837.727 443.77 839.616C446.644 839.566 449.562 839.687 452.486 839.809C459.496 840.1 466.548 840.392 473.144 838.329C478.342 835.578 477.528 822.996 474.05 818.885C467.504 811.547 456.988 813.882 447.773 815.929C445.489 816.436 443.285 816.925 441.241 817.245V817.248ZM427.486 888.621C426.569 888.443 426.709 888.988 426.868 889.603C426.926 889.827 426.986 890.06 426.998 890.272C427.676 890.339 427.602 889.81 427.526 889.27C427.494 889.041 427.461 888.81 427.486 888.621Z" fill="#222222"/>
<path d="M403.969 820.854C403.638 820.426 403.311 820.003 402.875 819.439C402.651 821.329 403.204 821.794 404.953 822.126C404.567 821.627 404.266 821.238 403.969 820.854Z" fill="#222222"/>
<rect width="990" height="456" transform="translate(0 1092)" fill="white"/>
<path d="M615.821 1287.09C619.081 1286.42 622.199 1285.78 625.559 1287.36C633.211 1267.53 619.879 1269.27 606.885 1270.95C604.19 1271.3 601.51 1271.65 599.035 1271.81C595.445 1272.12 591.658 1272.11 587.83 1272.1C579.349 1272.06 570.67 1272.03 563.501 1275.61C560.738 1281.83 561.115 1288.71 561.493 1295.6C561.784 1300.89 562.075 1306.19 560.945 1311.2C560.574 1313.54 561.246 1315.84 561.895 1318.06C562.406 1319.81 562.902 1321.51 562.862 1323.14C562.602 1323.47 562.754 1323.88 562.91 1324.29C563.138 1324.9 563.374 1325.52 562.35 1325.95C561.398 1329.97 561.781 1334.31 562.161 1338.63C562.405 1341.39 562.647 1344.14 562.537 1346.79C562.471 1348.02 562.175 1349.67 561.845 1351.52C560.689 1358 559.11 1366.84 565.488 1367.72C568.774 1367.44 572.037 1367.13 575.287 1366.81C585.926 1365.78 596.432 1364.76 607.204 1365.14C609.137 1365.29 610.907 1364.79 612.662 1364.3C614.946 1363.66 617.205 1363.03 619.758 1363.84C621.658 1364.48 623.447 1364.2 625.176 1363.92C627.168 1363.61 629.079 1363.3 630.984 1364.45C633.372 1359.77 633.397 1353.63 632.301 1348.76C625.695 1348.24 619.433 1348.61 613.083 1348.99C609.848 1349.18 606.59 1349.38 603.253 1349.46C597.696 1348.84 592.27 1348.88 586.662 1348.92C584.27 1348.94 581.844 1348.96 579.36 1348.92C579.108 1347.15 579.33 1345.63 579.546 1344.15C579.803 1342.39 580.052 1340.7 579.478 1338.71C579.255 1337.06 579.386 1335.4 579.514 1333.77C579.794 1330.22 580.06 1326.83 576.607 1324C583.309 1322.32 590.26 1322.78 597.192 1323.24C600.564 1323.46 603.931 1323.69 607.262 1323.66C608.943 1323.58 609.91 1324.37 610.767 1325.08C611.967 1326.06 612.954 1326.87 615.382 1324.87C624.075 1323.05 628.393 1312.45 618.124 1309.49C616.991 1309.5 615.836 1309.46 614.678 1309.42C611.23 1309.3 607.761 1309.18 604.818 1310.5C603.14 1309.21 601.601 1309.84 599.95 1310.52L599.838 1310.56C598.764 1310.63 597.65 1310.26 596.526 1309.88C594.871 1309.33 593.195 1308.77 591.598 1309.59C589.834 1310.2 588.292 1309.53 586.733 1308.85C585.098 1308.14 583.444 1307.42 581.494 1308.16C578.716 1308.55 579.191 1304.65 579.656 1300.82C579.929 1298.57 580.2 1296.35 579.807 1295.04C579.647 1290.59 582.043 1291.02 584.812 1291.52C586.385 1291.8 588.079 1292.11 589.493 1291.55C596.951 1289.29 604.549 1288.3 612.124 1287.73C613.389 1287.59 614.615 1287.34 615.821 1287.09Z" fill="#222222"/>
<path d="M500.217 1305.3C504.442 1306.78 506.128 1310.34 505.188 1315.21C507.29 1315.23 508.774 1315.65 508.765 1317.88C524.311 1345.14 523.502 1324.72 522.739 1305.47C522.443 1298.01 522.155 1290.72 522.829 1286.46C523.175 1285.4 523.079 1283.91 522.979 1282.36C522.782 1279.31 522.573 1276.06 525.721 1275.54C526.657 1275.43 527.991 1275.09 529.495 1274.71C535.032 1273.29 542.87 1271.28 541.562 1278.02C541.389 1280.62 541.206 1283.2 541.024 1285.77L541.022 1285.79C539.79 1303.15 538.594 1320.03 541.003 1337.29C541.118 1339.66 541.32 1342.03 541.521 1344.41L541.523 1344.43C542.006 1350.11 542.49 1355.81 541.798 1361.47C540.826 1364.22 537.643 1364.22 534.593 1364.21C533.025 1364.21 531.491 1364.21 530.311 1364.58C529.186 1364.45 528.001 1364.93 526.851 1365.39C525.066 1366.11 523.367 1366.8 522.113 1365.1C517.952 1358.94 514.012 1352.63 510.069 1346.31L510.061 1346.3C503.26 1335.39 496.449 1324.48 488.47 1314.32C480.837 1302.66 480.864 1306.24 480.919 1313.5L480.919 1313.52C480.934 1315.57 480.951 1317.91 480.8 1320.27C480.691 1329.88 480.857 1339.48 481.767 1349.05C481.81 1349.49 481.853 1349.92 481.896 1350.34C482.948 1360.74 483.664 1367.83 470.063 1367.78C463.234 1368.39 463.759 1349.69 464.155 1335.57C464.328 1329.41 464.477 1324.12 463.979 1321.69C464.868 1314.75 464.49 1307.78 464.112 1300.82C463.763 1294.39 463.415 1287.97 464.068 1281.59C461.491 1272.17 469.446 1273.91 476.195 1275.38C478.749 1275.93 481.131 1276.45 482.704 1276.32C486.063 1276.26 487.674 1280.11 489.315 1284.02C490.653 1287.21 492.012 1290.45 494.357 1291.66C495.064 1293.43 495.896 1295.13 496.729 1296.82C498.061 1299.54 499.394 1302.25 500.217 1305.3Z" fill="#222222"/>
<path fill-rule="evenodd" clip-rule="evenodd" d="M357 1321.15C359.667 1293.92 369.626 1278.97 397.519 1273.45C429.161 1272.19 445.662 1288.5 446.886 1320.03C448.074 1338.87 438.129 1358.45 419.975 1365.48C419.45 1365.76 418.897 1366.08 418.322 1366.41C414.405 1368.64 409.475 1371.45 405.535 1369.13C404.315 1367.86 402.359 1367.87 400.516 1368.52C392.87 1371.45 385.725 1367.04 379.278 1363.06C378.218 1362.4 377.178 1361.76 376.156 1361.16C373.726 1360.8 372.804 1359.03 371.862 1357.21C371.078 1355.7 370.279 1354.16 368.583 1353.39C365.827 1351.36 364.89 1347.95 363.956 1344.55C363.418 1342.59 362.88 1340.64 361.994 1338.95C357.938 1333.99 357.111 1327.47 357 1321.15ZM396.954 1289.65C388.806 1288.99 378.62 1297.18 378.156 1305.89C376.444 1311.6 377.139 1317.21 377.832 1322.8C378.314 1326.69 378.794 1330.57 378.457 1334.46C378.937 1348.06 392.276 1353.33 404.071 1354.13C426.841 1352.38 430.87 1327.52 427.678 1309.2C424.361 1295.34 410.65 1288.02 396.954 1289.65ZM444.468 1314.43C443.28 1316.14 443.459 1317.67 443.646 1319.26C443.732 1320 443.819 1320.75 443.776 1321.54C445.427 1319.59 445.087 1317.79 444.69 1315.68L444.682 1315.64C444.609 1315.25 444.533 1314.84 444.468 1314.43ZM426.669 1303.14C427.631 1303.16 427.311 1302.36 427 1301.58C426.859 1301.23 426.721 1300.88 426.702 1300.62C426.195 1300.59 426.063 1300.83 426.096 1301.18C426.123 1301.47 426.26 1301.84 426.394 1302.2C426.524 1302.54 426.652 1302.88 426.669 1303.14Z" fill="#222222"/>
<rect width="990" height="120" transform="translate(1010)" fill="white"/>
<path d="M1422.68 49.56H1419.88C1419.56 46.16 1417.76 43.24 1412.68 43.24C1408.24 43.24 1405.32 45.48 1405.32 49.12C1405.32 52.4 1406.84 53.92 1410.84 54.64L1415.96 55.56C1421.04 56.48 1423.6 59.2 1423.6 63.48C1423.6 68.88 1419.68 72.64 1412.52 72.64C1405.48 72.64 1401.48 68.28 1401.12 63.48H1404C1404.44 66.84 1406.8 70.32 1412.56 70.32C1418.48 70.32 1420.72 67.24 1420.72 63.72C1420.72 60.8 1419.32 59 1415.36 58.28L1410.44 57.4C1404.44 56.32 1402.4 53.56 1402.4 49.28C1402.4 44.24 1406.68 40.96 1412.68 40.96C1418.92 40.96 1422.48 44.32 1422.68 49.56ZM1433.64 51.04V64.44C1433.64 66.12 1433.8 67.72 1434.56 68.72C1435.28 69.68 1436.48 70.2 1438.2 70.2C1442.24 70.2 1444.24 67.08 1444.24 62.36V51.04H1447V72H1444.4V68.12H1444.32C1443.32 70.44 1441.08 72.52 1437.6 72.52C1433.12 72.52 1430.88 70.16 1430.88 65.36V51.04H1433.64ZM1455.55 72V40.48H1458.35V54.64H1458.39C1459.63 52.08 1462.03 50.52 1465.27 50.52C1469.63 50.52 1473.71 53.32 1473.71 61.4C1473.71 69 1469.67 72.52 1464.87 72.52C1461.47 72.52 1459.23 70.52 1458.23 68.4H1458.15V72H1455.55ZM1464.63 70.28C1468.79 70.28 1470.87 66.92 1470.87 61.4C1470.87 56.64 1469.35 52.76 1464.71 52.76C1460.43 52.76 1458.27 56.16 1458.27 59.68V62.96C1458.27 66.64 1460.27 70.28 1464.63 70.28ZM1479.48 59.88V57.4H1490.88V59.88H1479.48ZM1509.45 72H1498.61V41.4H1510.53C1515.49 41.4 1519.57 43.76 1519.57 48.72C1519.57 52.48 1517.49 54.96 1513.85 55.64V55.72C1517.89 56.36 1520.45 59.44 1520.45 63.16C1520.45 69.76 1515.57 72 1509.45 72ZM1501.45 54.52H1510.09C1513.49 54.52 1516.61 53.36 1516.61 49.08C1516.61 45.48 1514.05 43.76 1510.45 43.76H1501.45V54.52ZM1501.45 69.64H1509.33C1514.61 69.64 1517.49 67.64 1517.49 63.16C1517.49 58.8 1514.37 56.92 1509.85 56.92H1501.45V69.64ZM1527.64 72V51.04H1530.24V55.4H1530.32C1531.2 52.96 1533.76 50.64 1536.92 50.64H1537.28V53.4H1536.72C1533.44 53.4 1530.44 55.56 1530.44 60.52V72H1527.64ZM1548.44 70.08C1551.44 70.08 1554.88 67.72 1554.88 62.56V61.68C1549.68 62 1547.04 62.32 1545.72 63.28C1544.76 63.96 1544.28 65 1544.28 66.32C1544.28 68.8 1545.92 70.08 1548.44 70.08ZM1545.16 56.6H1542.52C1542.56 53.32 1545.4 50.52 1550.12 50.52C1555.92 50.52 1557.56 53.72 1557.56 58.24V67.36C1557.56 69.28 1558.12 69.96 1559.6 70V72.2H1559.24C1556.24 72.2 1555.16 70.88 1555 68.08H1554.92C1553.64 70.8 1551.08 72.32 1547.88 72.32C1543.96 72.32 1541.44 70.16 1541.44 66.44C1541.44 64.04 1542.48 62.32 1544.32 61.32C1546.4 60.16 1549.84 59.8 1554.92 59.52V58.2C1554.92 54.92 1553.76 52.64 1550.04 52.64C1546.84 52.64 1545.32 54.44 1545.16 56.6ZM1579.47 72V58.76C1579.47 57 1579.31 55.4 1578.55 54.36C1577.83 53.36 1576.67 52.88 1575.03 52.88C1570.75 52.88 1568.83 56.04 1568.83 59.64V72H1566.03V51.04H1568.63V54.76H1568.71C1569.83 52.4 1572.19 50.52 1575.67 50.52C1580.19 50.52 1582.23 52.96 1582.23 57.76V72H1579.47ZM1604.38 63.24V59.96C1604.38 56.04 1602.06 52.76 1598.22 52.76C1593.82 52.76 1591.78 56.4 1591.78 61.48C1591.78 66.68 1593.54 70.28 1597.98 70.28C1602.22 70.28 1604.38 66.8 1604.38 63.24ZM1607.1 40.48V72H1604.46V68.36H1604.34C1603.26 70.52 1601.1 72.52 1597.7 72.52C1593.5 72.52 1588.9 70 1588.9 61.64C1588.9 54.48 1592.5 50.52 1597.9 50.52C1601.02 50.52 1603.26 52.16 1604.22 54.48H1604.3V40.48H1607.1Z" fill="#222222"/>
<rect width="990" height="456" transform="translate(1010 140)" fill="white"/>
<path fill-rule="evenodd" clip-rule="evenodd" d="M1388.02 346.841C1395.08 348.251 1401.33 349.289 1406.72 343.561H1406.71C1404.97 312.893 1361.99 312.531 1343.32 328.225C1330.44 341.406 1341.49 363.179 1355.1 371.378C1358.12 373.755 1361.9 374.337 1365.61 374.907C1368.31 375.324 1370.98 375.734 1373.27 376.833C1370.2 379.131 1373.64 379.652 1378.39 380.372C1385.29 381.418 1394.95 382.883 1391.46 390.815C1386.41 401.31 1368.66 401.82 1360.05 395.586C1357.75 393.601 1356.51 390.731 1355.28 387.868C1354.51 386.088 1353.74 384.311 1352.72 382.751C1326.34 378.078 1336.5 393.187 1346.63 407.146C1363.21 423.514 1396.98 419.64 1407.5 398.126C1416.68 377.924 1407.35 367.099 1388.23 359.85C1384.82 358.788 1381.33 358.024 1377.85 357.263L1377.84 357.261C1370.52 355.656 1363.22 354.06 1356.72 349.693C1349.92 343.289 1361.32 336.099 1367.03 333.776C1373.28 332.573 1382.44 331.518 1386.25 337.545C1386.58 338.2 1386.98 338.86 1387.38 339.521C1388.91 342.041 1390.44 344.568 1388.02 346.841ZM1377.52 360.34C1379.35 360.156 1380.22 360.83 1380.13 362.361L1379.6 361.955L1377.52 360.34ZM1375.24 376.008C1374.25 377.335 1377.22 378.571 1377.77 376.698C1376.81 376.435 1376.03 376.222 1375.24 376.008ZM1339.09 388.869C1337.43 387.365 1337.43 386.963 1339.33 385.718L1339.21 387.256C1339.17 387.829 1339.13 388.338 1339.09 388.869ZM1404.38 397.944C1404.11 398.72 1403.85 399.48 1403.01 398.75C1403.14 398.55 1403.24 398.281 1403.35 398.01C1403.64 397.253 1403.94 396.484 1404.69 397.183C1404.61 397.315 1404.55 397.472 1404.49 397.637C1404.45 397.737 1404.41 397.841 1404.38 397.944ZM1350.22 326.757C1350.76 327.923 1352.45 325.813 1351.65 325.406L1350.22 326.757Z" fill="#222222"/>
<path fill-rule="evenodd" clip-rule="evenodd" d="M1593.71 384.159C1592.97 393.962 1592.24 403.728 1593.43 413.416H1593.43C1595.72 418.318 1602.89 417.922 1609.72 417.545C1613.44 417.339 1617.07 417.14 1619.75 417.806C1623.19 418.26 1626.73 417.831 1630.23 417.405C1634.52 416.884 1638.76 416.369 1642.75 417.481C1644.51 415.152 1646.22 414.842 1648.16 414.486C1649.47 414.248 1650.89 413.989 1652.51 413.084C1672.59 401.609 1682.15 356.741 1665.61 339.825C1654.15 324.46 1636.34 324.237 1618.73 324.017C1612.49 323.938 1606.27 323.86 1600.38 323.109C1599.6 324.368 1598.33 325.11 1597.12 325.817C1595.26 326.904 1593.54 327.91 1593.95 330.595C1594.76 340.472 1595.21 350.268 1594.47 360.202C1594.9 368.198 1594.3 376.191 1593.71 384.159ZM1653.3 366.984C1658.95 394.449 1633.68 401.728 1611.1 399.286H1611.1C1613.26 390.917 1613.11 382.341 1612.96 373.711C1612.84 366.271 1612.71 358.789 1614.06 351.362C1614.45 350.325 1614.36 348.845 1614.26 347.344C1614.08 344.675 1613.9 341.94 1616.5 341.517L1616.6 341.514C1638.5 340.905 1652.96 340.502 1653.3 366.984ZM1659.66 402.451C1663.3 399.578 1663.7 398.823 1662.94 396.351L1659.66 402.451ZM1661.21 348.845C1661.93 347.984 1662.44 347.619 1662.39 347.402C1660.79 340.41 1659.52 342.385 1661.21 348.845ZM1656.61 369.652C1658.22 367.116 1658.22 367.057 1656.83 364.625C1655.51 366.314 1655.48 367.01 1656.61 369.652ZM1604.27 366.475L1604.56 370.007C1605.69 368.496 1605.54 367.664 1604.27 366.475ZM1600.89 330.269C1601.49 329.622 1601.66 329.408 1600.96 328.886C1600.35 329.375 1600.36 329.605 1600.89 330.269Z" fill="#222222"/>
<path fill-rule="evenodd" clip-rule="evenodd" d="M1461.77 397.737H1461.77C1466.87 397.67 1471.98 397.604 1477.1 398.32C1479.13 398.862 1481.24 398.744 1482.9 397.232C1486.32 398.997 1489.58 399.654 1492.42 396.884C1496.03 398.855 1494.37 403.289 1492.85 407.342C1492.17 409.168 1491.51 410.918 1491.38 412.329C1489.99 415.815 1485.98 414.971 1481.96 414.124C1479.37 413.579 1476.78 413.032 1474.87 413.64C1470.09 413.915 1465.36 413.682 1460.62 413.449C1459.71 413.404 1458.8 413.359 1457.89 413.318C1449.11 412.821 1442.58 412.962 1437.72 413.066C1431.06 413.209 1427.54 413.285 1425.71 411.565C1423.65 409.639 1423.71 405.462 1423.83 396.605C1423.88 392.874 1423.94 388.312 1423.86 382.738C1425.24 370.383 1424.71 357.943 1424.18 345.466V345.46C1424.1 343.656 1424.03 341.851 1423.96 340.045C1424.82 338.24 1424.59 335.397 1424.35 332.529C1423.91 327.149 1423.46 321.684 1430.24 322.82C1435.31 323.287 1440.41 322.847 1445.52 322.407C1451.45 321.895 1457.41 321.382 1463.36 322.284C1466.17 322.669 1469.87 322.235 1473.71 321.786C1483.07 320.69 1493.25 319.499 1493.33 329.819C1493.6 331.347 1492.51 331.705 1491.35 332.088C1490.34 332.419 1489.28 332.769 1488.98 333.91C1488 336.079 1486.16 336.726 1483.86 336.562C1482.46 336.779 1478.09 336.421 1472.76 335.983H1472.75C1460.23 334.957 1442.38 333.495 1445.09 337.992C1444.9 339.532 1445.1 341.132 1445.31 342.718C1445.72 345.937 1446.13 349.097 1443.18 351.583C1445.02 352.599 1445.26 354.28 1445.47 355.747C1445.71 357.331 1445.9 358.663 1448.03 358.634C1453.93 357.635 1459.74 358.444 1465.56 359.334C1467.46 360.315 1470.82 359.964 1474.18 359.613C1479.54 359.054 1484.91 358.493 1484.47 363.288C1484.43 363.423 1484.38 363.556 1484.33 363.688C1483.77 365.332 1483.32 366.629 1485.87 366.294C1486.04 365.502 1486.09 364.681 1486.15 363.847C1486.26 361.997 1486.38 360.089 1487.87 358.322C1490.22 363.432 1490.7 370.763 1484.27 372.702C1483.23 373.531 1482.33 373.192 1481.39 372.838C1480.71 372.583 1480.02 372.321 1479.23 372.482C1477.49 373.188 1476.05 373.136 1475.05 370.885C1469.24 374.093 1461.99 373.837 1454.96 373.588C1452.01 373.483 1449.1 373.381 1446.36 373.534C1443.52 374.285 1443.78 378.34 1444.03 382.289V382.293C1444.18 384.587 1444.32 386.846 1443.85 388.399C1443.76 389.02 1443.63 389.634 1443.5 390.245C1443.05 392.371 1442.61 394.461 1443.59 396.674V396.677C1449.68 397.895 1455.73 397.816 1461.77 397.737ZM1448.05 400.656C1446.91 399.506 1445.74 399.754 1444.34 400.049C1443.89 400.143 1443.43 400.242 1442.93 400.302C1444.23 401.337 1445.36 401.074 1446.4 400.83C1446.97 400.698 1447.51 400.571 1448.05 400.656ZM1477.23 324.308C1476.59 325.489 1477.77 325.609 1478.94 325.728C1479.49 325.784 1480.04 325.839 1480.39 326.004C1480.85 325.014 1479.73 324.838 1478.65 324.667C1478.1 324.581 1477.56 324.495 1477.23 324.308ZM1431.71 329.648C1433.23 328.564 1433.14 328.147 1431.83 327.161C1430.61 327.432 1431 328.204 1431.46 329.123C1431.54 329.294 1431.63 329.47 1431.71 329.648ZM1455.24 408.129C1454.71 409.148 1455.66 409.082 1456.42 409.355C1456.81 408.463 1456.35 408.373 1455.76 408.258C1455.59 408.224 1455.41 408.188 1455.24 408.129ZM1431.18 409.273C1432.12 409.779 1432.45 407.86 1431.55 407.915C1431.47 408.197 1431.39 408.477 1431.32 408.758L1431.18 409.273Z" fill="#222222"/>
<path fill-rule="evenodd" clip-rule="evenodd" d="M1527.49 378.115C1527.64 375.453 1527.76 373.15 1527.64 371.749L1527.63 371.746C1532.81 371.657 1537.69 371.84 1542.72 372.028C1543.82 372.069 1544.93 372.111 1546.05 372.15C1547.76 372.289 1549.5 372.057 1551.22 371.826C1554.47 371.392 1557.69 370.961 1560.65 373.024C1561.62 373.417 1562.79 373.351 1563.95 373.286C1564.82 373.237 1565.68 373.188 1566.45 373.33C1573.18 374.615 1572.41 369.131 1571.74 364.355C1571.64 363.661 1571.54 362.982 1571.47 362.341C1571.36 361.493 1570.3 360.376 1569.46 360.12C1567.27 359.191 1565.06 359.393 1562.86 359.593C1560.43 359.815 1558.01 360.035 1555.64 358.723C1552.82 357.439 1549.69 357.937 1546.6 358.431C1544.66 358.741 1542.72 359.049 1540.88 358.914C1526.1 359.544 1526.11 359.474 1527.13 352.399C1527.57 349.33 1528.2 344.942 1527.9 338.721C1528.2 335.389 1540.45 335.4 1548.41 335.407C1551.02 335.41 1553.18 335.412 1554.28 335.294C1556.1 334.627 1557.81 335.411 1559.55 336.207C1561.29 337.004 1563.06 337.815 1564.99 337.193C1567.97 336.016 1569.59 337.546 1571.53 339.378C1571.86 339.693 1572.2 340.017 1572.56 340.338C1575.52 336.04 1578.64 323.586 1571.61 322.202C1563.26 321.447 1554.99 321.676 1546.71 321.906C1541.11 322.061 1535.51 322.216 1529.87 322.068C1525.94 321.794 1522.16 322.194 1518.39 322.593C1515.73 322.875 1513.07 323.156 1510.37 323.201C1508.02 323.636 1508.63 325.658 1509.24 327.691C1509.58 328.805 1509.92 329.923 1509.77 330.785C1510.2 339.882 1509.9 348.963 1509.59 358.035C1509.34 365.475 1509.09 372.909 1509.25 380.342C1506.69 390.861 1506.77 400.837 1509.68 411.379C1518.58 414.344 1528.24 414.019 1537.86 413.696C1545.88 413.427 1553.87 413.158 1561.4 414.786C1563.72 416.609 1565.49 415.385 1567.25 414.161C1569.02 412.935 1570.79 411.709 1573.12 413.544C1574.73 414.652 1575.95 413.972 1576.63 412.105C1581.89 399.786 1573.29 398.836 1568.76 398.334C1565.88 398.016 1564.64 397.879 1569.64 395.123C1567.42 394.247 1567.3 394.305 1565.06 395.445L1564.89 395.53C1559.5 396.434 1553.91 396.388 1548.29 396.341C1543.03 396.297 1537.75 396.253 1532.59 396.983C1526.41 398.457 1527.05 386.504 1527.49 378.115ZM1534.73 405.464C1535.37 405.404 1536.02 405.342 1536.13 405.733C1535.88 405.672 1535.5 405.707 1535.13 405.743C1534.49 405.803 1533.84 405.865 1533.73 405.474C1533.98 405.535 1534.35 405.5 1534.73 405.464Z" fill="#222222"/>
<rect width="990" height="456" transform="translate(1010 616)" fill="white"/>
<path d="M1508.53 796.362C1512.27 796.166 1515.77 796.687 1519.07 795.036C1524.15 795.226 1529.6 797.081 1534.8 797.297C1549.46 796.532 1564.7 796.794 1574.76 808.921C1593.23 826.315 1593.15 854.555 1578.61 874.519C1570.7 886.247 1553.35 885.731 1540.67 887.041C1532.79 885.919 1508.73 892.766 1507.56 882.336C1505.97 853.607 1507.34 825.061 1508.53 796.362L1508.53 796.362ZM1567.93 858.282C1568.22 856.865 1570.49 853.302 1568.15 853.13C1569.4 858.261 1564.32 858.172 1567.93 858.282ZM1565.22 854.148C1566.14 852.207 1565.34 849.924 1567.37 848.489C1567.81 848.176 1568.08 846.808 1567.79 846.392C1566.48 844.572 1567.24 842.603 1567.04 840.713C1566.81 829.484 1564.71 824.988 1556.4 817.726C1553.51 813.818 1531.53 812.107 1529.39 816.501C1528.02 834.621 1530.61 856.017 1529.24 871.99C1529.93 868.953 1542.52 871.31 1546.52 869.14C1551.95 868.408 1556.44 864.392 1561.25 863.563C1561.97 859.535 1564.94 857.343 1567.58 854.451C1566.65 854.332 1566.16 854.267 1565.22 854.148ZM1510.66 799.853C1510.18 801.566 1510.62 802.412 1512.09 802.818C1513.33 801.095 1512.32 800.497 1510.66 799.853ZM1553.37 814.109C1555.14 814.074 1555.75 813.271 1555.18 811.699C1554.65 812.407 1554.11 813.118 1553.37 814.109ZM1551.16 812.899C1552.76 812.784 1550.99 810.711 1550.8 809.058C1549.69 811.011 1551.19 811.798 1551.16 812.899ZM1520.94 803.479C1519.56 803.1 1518.71 802.866 1517.79 802.611C1517.89 804.262 1518.94 804.552 1520.94 803.479ZM1543.19 811.404C1542.72 813.071 1544.67 812.064 1545.7 812.17C1545.75 811.253 1543.91 811.705 1543.19 811.404ZM1566.53 820.936C1565.4 821.434 1566.99 822.416 1567.29 823.161C1568.51 822.636 1566.88 821.699 1566.53 820.936ZM1548.58 880.853C1547.95 882.278 1549.49 882.347 1550.82 881.476C1549.67 881.156 1549.12 881.005 1548.58 880.853ZM1533.17 812.317C1533.82 811.236 1532.69 811.386 1531.89 811.108C1531.46 811.977 1532.65 811.941 1533.17 812.317Z" fill="#222222"/>
<path d="M1345.43 824.342C1342.87 829.638 1345.44 835.746 1345.1 841.251C1343.38 849.821 1345.33 857.853 1344.55 866.516C1344.27 874.804 1350.41 883.789 1343.27 890.934C1336.89 899.617 1336.36 886.863 1328.12 888.056C1325.91 875.123 1329.88 862.962 1328.94 850.345C1327.6 840.219 1330.45 830.621 1329.2 820.743C1329.57 815.853 1323.96 807.372 1328.39 804.198C1329.41 803.851 1329.62 802.728 1329.23 801.667C1326.46 795.865 1338.27 795.836 1342.77 794.494C1345.91 801.226 1350.73 803.281 1355.18 808.409C1361.02 819.111 1370.62 828.246 1374.66 839.395C1378.8 846.074 1378.27 856.543 1385.59 859.496C1386.67 853.263 1385.23 846.805 1386.77 840.457C1386.7 836.133 1387.34 831.738 1387.15 827.451C1386.91 825.249 1387.39 823.862 1389.79 823.321C1388.96 819.939 1389.7 816.571 1388.17 813.372C1386.5 808.863 1390.91 803.006 1387.73 799.1C1390.99 794.697 1401.08 794.323 1403.98 799.307C1405 808.228 1402.38 816.852 1404.21 826.149C1399.97 822.552 1404.53 836.559 1403.77 838.656C1399.39 845.355 1410.61 885.825 1401.05 885.561C1395.09 883.403 1389.57 892.151 1385.73 887.801C1384.76 884.638 1378.17 879.436 1383.69 878.165C1367.55 867.524 1363.1 847.143 1349.9 833.562C1348.72 829.627 1348.94 827.28 1345.35 824.437C1345.14 823.765 1344.95 823.05 1343.46 823.731C1344.42 824.027 1344.92 824.186 1345.43 824.342L1345.43 824.342Z" fill="#222222"/>
<path d="M1445.09 811.683C1444.99 837.81 1441.84 828.747 1463.85 830.701C1469.73 832.174 1475.27 831.787 1481.28 832.324C1484.28 830.29 1490.79 831.832 1489.38 836.521C1488.72 840.044 1492.61 843.316 1489.33 846.162C1487.92 848.362 1486.12 847.36 1484.11 846.74C1479.64 851.647 1470.63 847.988 1464.56 848.576C1444.67 846.547 1443.06 850.764 1446.06 869.896C1460.38 869.007 1477.32 870.615 1492.17 873.845C1495.41 876.761 1496.5 884.607 1491.5 886.448C1470.32 893.22 1447.53 886.865 1425.78 887.225C1425.28 887.065 1424.49 886.145 1424.62 885.469C1425.57 878.582 1423.78 871.697 1424.43 864.862C1426.32 847.481 1423.79 830.198 1424.89 812.824C1426.71 790.997 1416.54 796.385 1438.44 795.053C1453.84 793.756 1469.34 793.933 1484.82 794.158C1495.02 794.566 1491.42 797.459 1492.89 805.177C1492.91 815.201 1480.76 811.072 1474.44 810.973C1464.49 811.428 1455.14 811.922 1445.1 811.689L1445.09 811.683ZM1467.96 842.131C1466.8 841.518 1465.8 841.479 1464.97 843.203C1467.49 842.386 1468.16 841.996 1469.62 839.644C1467.88 840.188 1467.5 840.91 1467.96 842.134L1467.96 842.131ZM1427.23 813.062C1429.52 810.681 1431.06 801.646 1426.79 798.688L1427.23 813.062ZM1429.94 882.402C1427.98 881.826 1427.1 882.339 1427.3 883.942C1428.14 883.452 1428.88 883.021 1429.94 882.402ZM1443.6 842.152L1443.67 844.415C1445.82 844.412 1446.16 842.34 1443.6 842.152ZM1427.19 824.685C1427.96 823.568 1427.16 821.318 1427.35 819.817C1426.56 820.678 1427.4 823.25 1427.19 824.685ZM1446.19 834.721C1447.23 835.203 1448.14 834.918 1448.91 833.867C1447.85 834.199 1447.1 834.437 1446.19 834.721ZM1447.92 877.352C1448.38 876.238 1449.98 876.361 1448.75 875.084C1446.68 874.052 1447.19 875.501 1447.92 877.352ZM1438.89 804.304C1437.1 804.23 1436.36 805.866 1437.61 806.641C1438 805.928 1438.36 805.268 1438.89 804.304ZM1487.26 798.613C1486.73 799.452 1488.17 799.464 1488.7 799.856C1489.35 798.875 1487.91 798.975 1487.26 798.613ZM1486.18 879.918C1485.43 880.85 1485.41 881.423 1486.53 881.639C1487.55 881.117 1487.14 880.547 1486.18 879.918ZM1442.76 834.628C1442.54 835.663 1443.61 835.162 1444.28 835.237C1444.37 834.329 1443.34 834.779 1442.76 834.628ZM1437.7 858.635C1437.93 857.68 1437.24 857.899 1436.53 857.875C1436.37 858.946 1436.98 858.631 1437.7 858.635Z" fill="#222222"/>
<path d="M1682.6 889.761C1679.92 887.838 1678.09 891.798 1674.62 891.098C1670.1 889.975 1667.23 892.776 1665.09 890.563C1664.36 889.736 1664.36 887.306 1663.43 886.729C1658.34 883.23 1659.27 876.124 1656.63 870.851C1628.1 874.098 1625.7 858.579 1616.24 884.565C1615.23 886.811 1615.29 886.839 1612.72 886.582C1611.72 889.025 1610.71 891.479 1609.68 894C1602.9 891.811 1607.24 888.606 1596.61 886.887C1599.23 878.609 1603.18 870.873 1606.28 862.765C1613.13 841.281 1622.01 820.324 1629.9 799.312C1630.08 792.479 1651.45 795.097 1651.97 800.744C1657.04 821.557 1664.24 842.042 1673.03 861.632C1674.16 867.645 1686.39 886.356 1682.6 889.764L1682.6 889.761ZM1641.38 816.831C1639.38 817.528 1639.28 819.431 1638.92 821.025C1629.69 865.407 1617.57 851.173 1647.01 853.723C1654.41 856.236 1648.51 845.934 1647.68 842.654C1644.41 834.267 1641.91 825.915 1641.38 816.831ZM1625.57 817.279C1623.66 817.268 1623.52 821.371 1622.25 823.195C1625.99 824.209 1624.58 819.456 1625.57 817.279ZM1626.53 861.013C1627.88 861.508 1628.98 862.054 1630.13 860.488C1628.8 860.015 1627.66 858.941 1626.53 861.013Z" fill="#222222"/>
<rect width="990" height="456" transform="translate(1010 1092)" fill="white"/>
<path d="M1688.16 1312.61C1699.68 1367.97 1617.05 1395.62 1604.25 1336.22C1584 1267.43 1680.1 1240.69 1688.16 1312.61ZM1659.22 1348.92C1667.31 1343.48 1665.56 1331.88 1668.72 1323.54C1668.65 1319.6 1665.08 1316.5 1665.54 1312.26C1663.53 1305.44 1662.91 1295.27 1657.07 1290.84C1649.96 1287.5 1640.44 1284.82 1633.36 1289.97C1618.31 1300.05 1616.63 1322.87 1623.15 1338.38C1623.07 1345.07 1631.39 1348.63 1637.04 1351.06C1643.25 1352.46 1653.79 1341.94 1659.22 1348.92L1659.22 1348.92ZM1678.45 1348.26C1676.67 1345.91 1675.4 1349.51 1674.52 1350.58C1673.37 1351.7 1671.67 1352.56 1672.03 1354.87C1674.17 1352.67 1676.31 1350.46 1678.45 1348.25L1678.45 1348.26ZM1652.34 1351.67C1652.32 1349.74 1649.02 1351.63 1647.62 1351.46C1647.76 1353.22 1650.96 1351.48 1652.34 1351.67ZM1630.88 1363.71C1630.42 1362.24 1629.82 1361.64 1628.45 1363.25C1629.49 1363.45 1630.18 1363.58 1630.88 1363.71Z" fill="#222222"/>
<path d="M1568.88 1367.13C1561.84 1354.06 1565.03 1338.29 1566.14 1323.99C1552.61 1325.69 1538.98 1324.28 1525.64 1327.15C1521.7 1338.71 1524.95 1350.1 1525.64 1361.84C1526.52 1367.26 1520.4 1367.06 1516.9 1369.11C1513.8 1370.94 1510.84 1369.53 1507.54 1368.54C1506.19 1358.8 1502.87 1361.97 1504.96 1349.48C1505.66 1338.33 1505.48 1326.16 1505.33 1314.39C1505.89 1302.19 1502.55 1289.3 1506.05 1277.88C1508.25 1275.67 1508.08 1271.21 1512.24 1272.36C1518.98 1272.63 1523.05 1272.7 1525.79 1279.66C1529.49 1283.78 1524.47 1287.46 1525.83 1291.89C1529.25 1296.44 1521.9 1311.87 1528 1310.78C1538.46 1308.38 1549.13 1310 1559.5 1309.43C1570.79 1313.73 1565.79 1293.07 1565.68 1286.92C1562.15 1275.45 1570.69 1273.8 1580.05 1275.33C1584.13 1276.22 1579.7 1282.07 1584.45 1283.55C1582.29 1309.15 1586.92 1334.63 1582.94 1360.25C1583.84 1363.46 1580.66 1369.13 1577.12 1366.74C1574.42 1364.33 1571.76 1366.89 1568.88 1367.13L1568.88 1367.13Z" fill="#222222"/>
<path d="M1323.85 1277.07C1323.57 1276.75 1323.06 1276.19 1322.42 1275.5C1343.48 1272.96 1363.77 1276.38 1384.09 1273.54C1390.45 1275.02 1390.08 1283.32 1387.69 1288.17C1373.72 1289.98 1359.91 1290.83 1345.76 1289.74C1333.22 1286.7 1341.8 1305.79 1339.21 1312.95C1342.63 1312.25 1345.53 1309.5 1349.18 1310.19C1359.3 1310.23 1369.45 1310.31 1379.11 1312.09C1382.52 1313.73 1385.77 1307.45 1386.23 1312.54C1389.42 1328.05 1380.03 1322.42 1369.97 1325.48C1362.96 1326.06 1345.73 1328.18 1340.51 1324.61C1340.15 1353.16 1336.88 1350.47 1365.09 1350.21C1373.14 1350.28 1381.3 1351.1 1389.19 1349.1C1395.05 1347.63 1392.71 1355.67 1391.9 1358.78C1389.96 1361.55 1394.48 1362.87 1392.92 1364.76C1383.14 1366.38 1372.97 1368.07 1363.29 1365.58C1355.65 1364.53 1348.28 1365.67 1340.61 1365.22C1331.18 1364.32 1322.52 1371.86 1323.52 1356.9C1322.86 1351.7 1324.3 1347.13 1323.34 1341.84C1322.3 1338.79 1324.08 1338.14 1324.13 1335.55C1322.81 1331.3 1324.37 1326.49 1321.51 1322.89C1325 1323.16 1325.41 1322.14 1322.25 1320.67C1322.5 1319.36 1323.84 1318.11 1322.25 1316.98C1323.29 1305.64 1317.31 1287.23 1323.85 1277.07L1323.85 1277.07ZM1369.22 1320.53C1367.73 1318.13 1365.12 1318.32 1362.59 1320.38C1364.94 1320.43 1367.08 1320.48 1369.22 1320.53ZM1357.93 1282.5C1357.97 1281.22 1355.61 1282.31 1354.66 1282.12C1354.76 1283.16 1357.01 1282.27 1357.93 1282.5ZM1333.35 1282.49C1333.24 1281.55 1332.16 1282.26 1331.5 1282.24C1331.85 1283.63 1332.4 1283.11 1333.35 1282.49ZM1341.32 1358.11C1341.36 1358.82 1343.53 1358.35 1344.31 1358.61C1344.48 1357.41 1342.19 1358.33 1341.32 1358.11Z" fill="#222222"/>
<path d="M1421.76 1325.38C1423.46 1326.59 1423.89 1327.88 1424.11 1329.89C1424.33 1335.84 1427.12 1341.22 1429.63 1346.54C1435.86 1358.68 1453.15 1352.4 1460.67 1344.73C1467.55 1341.49 1468.81 1330.17 1477.07 1330.91C1481.75 1331.61 1487.12 1331.12 1491.12 1334.17C1486.9 1348.32 1475.54 1357.69 1465.87 1367.9C1457.47 1367.89 1450.05 1369.15 1441.82 1369.72C1436.27 1369.13 1431.45 1365.17 1425.55 1365.95C1424.67 1366.05 1423.47 1365.64 1422.8 1365.04C1416.11 1360.4 1412.53 1353.06 1408.26 1346.69C1404.41 1343.85 1403.77 1331.38 1404.28 1326.55C1405.91 1319.75 1403.42 1312.06 1406.95 1305.59C1408.55 1302.42 1404.99 1299.46 1407.6 1296.59C1409.91 1292.17 1411.18 1287.2 1416.42 1285.57C1421.19 1281.72 1426.09 1277.36 1431.65 1274.28C1446.66 1268.14 1462.43 1270.67 1475.3 1280.07C1477.39 1283.88 1482.44 1285.69 1482.58 1290.87C1483.81 1293.82 1486.84 1298.51 1483.06 1300.81C1479.4 1302.51 1483.86 1302.34 1485.69 1302.83C1469.29 1310.5 1468.4 1295.83 1458.95 1287.57C1449.53 1281.53 1435.08 1287.8 1428.08 1295.77C1422.5 1304.38 1425.6 1315.71 1421.75 1325.38L1421.76 1325.38ZM1471.55 1282.31C1471 1281.32 1470.3 1281.06 1469.44 1281.54C1470.27 1281.85 1470.91 1282.08 1471.55 1282.31ZM1452.89 1277.82C1451.88 1277.4 1451.53 1277 1450.97 1277.98C1451.8 1278.54 1451.98 1278.7 1452.89 1277.82ZM1445.12 1273.74C1445.44 1272.47 1442.92 1273.08 1443.34 1273.94C1443.93 1273.87 1444.53 1273.8 1445.12 1273.74Z" fill="#222222"/>
</svg>
