<svg width="1996" height="1216" viewBox="0 0 1996 1216" fill="none" xmlns="http://www.w3.org/2000/svg">
<rect width="660" height="400" fill="#EFEFE7"/>
<path d="M338.303 187.925C340.693 185.449 344.019 183.925 348.064 183.925C355.927 183.925 361.385 189.874 368.397 189.874C376.811 189.874 381.459 185.773 382.628 177.769L381.358 177.556C381.003 179.678 379.616 182.229 377.14 182.229C374.801 182.229 372.32 180.174 368.706 178.189C365.091 176.139 360.954 174.154 355.78 174.154C347.467 174.154 340.44 179.06 336.45 185.88C334.187 189.748 332.901 194.238 332.901 198.8C332.901 203.362 333.731 207.751 335.367 211.508C339.108 220.145 347.118 225.846 359.111 225.846C367.035 225.846 375.804 222.702 380.046 214.87C381.666 211.877 382.623 208.207 382.623 203.762C382.623 200.572 381.135 197.681 378.492 195.514C375.556 193.094 371.196 191.58 365.911 191.58C355.142 191.58 349.406 200.572 344.515 200.572C342.384 200.572 340.764 198.243 340.764 195.975C340.764 195.737 340.769 195.509 340.794 195.286L339.625 195.089C339.538 195.58 339.488 196.086 339.488 196.608C339.488 204.212 345.148 209.073 352.297 209.073C365.906 209.073 369.941 197.955 376.037 197.955C376.062 197.955 376.097 197.96 376.128 197.96C379.408 198.005 381.413 200.537 381.347 203.767C381.282 206.42 379.869 208.647 376.72 210.303C372.811 212.363 366.235 213.538 356.271 213.538C350.181 213.538 342.485 212.212 337.959 207.944C335.65 205.756 334.162 202.795 334.162 198.836V198.815C334.172 194.547 335.655 190.669 338.293 187.94L338.303 187.925Z" fill="#222222"/>
<path d="M255.597 192.811C250.367 191.818 249.02 190.968 249.02 189.626V189.484C249.02 188.284 250.149 187.434 252.625 187.434C257.222 187.434 262.806 188.922 267.479 192.314L275.539 181.141C269.808 176.615 262.735 174.351 253.187 174.351C239.537 174.351 232.181 181.637 232.181 191.044V191.185C232.181 201.65 241.942 204.835 253.045 207.098C258.351 208.156 259.905 208.936 259.905 210.348V210.49C259.905 211.837 258.634 212.611 255.662 212.611C249.865 212.611 243.709 210.915 238.337 206.809L229.498 217.35C235.791 222.864 244.843 225.694 254.888 225.694C268.183 225.694 276.744 219.33 276.744 208.931V208.789C276.744 198.815 268.259 195.139 255.597 192.806V192.811Z" fill="#222222"/>
<path d="M312.483 192.74H297.345V175.273H280.794V224.783H297.345V207.027H312.483V224.783H329.033V175.273H312.483V192.74Z" fill="#222222"/>
<path d="M408.363 175.273H386.086V224.782H402.637V211.341H408.013C421.379 211.341 430.503 204.977 430.503 193.023V192.881C430.503 181.141 421.521 175.268 408.363 175.268V175.273ZM414.165 194.086C414.165 197.62 411.335 199.529 407.092 199.529H402.637V188.497H407.168C411.552 188.497 414.17 190.335 414.17 193.945V194.086H414.165Z" fill="#222222"/>
<rect width="660" height="400" transform="translate(668)" fill="#EFEFE7"/>
<path d="M1044.46 197.787C1035.42 199.865 1032.69 208.727 1034.7 217.45C1036.7 226.173 1043.03 232.949 1052.08 230.871C1061.12 228.792 1063.85 219.93 1061.84 211.207C1059.83 202.484 1053.51 195.708 1044.46 197.787H1044.46Z" fill="#222222"/>
<path fill-rule="evenodd" clip-rule="evenodd" d="M1098.49 129.439H957.396V208.688C972.208 205.389 976.851 214.707 977.663 218.246L968.012 220.672C967.24 217.311 963.531 215.982 959.652 216.871C958.826 217.064 958.076 217.303 957.389 217.589V227.989C958.308 228.259 959.243 228.398 960.07 228.476L969.643 229.271C976.581 229.851 982.028 232.547 983.751 240.05C985.119 245.999 982.901 255.889 969.457 258.979C964.342 260.154 960.41 259.999 957.381 259.095V270.561H1098.5V208.395C1096.52 209.708 1094.25 210.628 1091.94 211.153L1085.02 212.744L1089.11 230.515L1079.41 232.748L1068.24 184.149L1084.07 180.51C1088.71 179.444 1094.25 179.537 1098.49 182.473V129.439ZM1018.56 246.733L1013.91 226.513L993.749 231.149L998.4 251.376L988.704 253.602L977.531 205.003L987.22 202.778L991.755 222.488L1011.91 217.844L1007.39 198.134L1017.08 195.901L1028.25 244.5L1018.56 246.733ZM1071.92 208.889C1074.92 221.947 1069.18 236.055 1054.05 239.532C1038.93 243.009 1027.61 232.818 1024.61 219.768C1021.61 206.718 1027.34 192.61 1042.46 189.125C1057.58 185.648 1068.91 195.839 1071.91 208.889H1071.92Z" fill="#222222"/>
<path d="M1085.35 188.932L1079.86 190.199L1083.14 204.478L1088.57 203.226C1094.97 201.75 1095.57 197.539 1094.82 194.31C1094.06 191.011 1090.91 187.657 1085.35 188.932Z" fill="#222222"/>
<path d="M974.356 243.503C975.221 247.25 970.933 249.939 967.642 250.696V250.689C963.145 251.724 958.826 250.797 957.396 246.231V237.994L967.163 239.169C972.347 239.818 973.761 240.923 974.356 243.503Z" fill="#222222"/>
<path d="M928.678 233.289C933.831 232.107 938.421 232.609 941.82 234.309L941.828 234.293C944.887 235.823 946.989 238.296 947.708 241.409C948.704 245.744 948.588 249.537 947.684 252.821C945.297 261.405 937.455 266.427 929.736 268.204C918.046 270.893 908.96 267.13 903.382 259.559C900.94 256.259 899.163 252.242 898.128 247.722C897.108 243.279 897.347 238.613 898.692 234.34C901.048 226.799 906.789 220.448 914.902 218.586C919.939 217.427 924.42 218.423 928.399 219.613C929.508 219.928 930.531 220.269 931.48 220.584C933.929 221.398 935.881 222.047 937.524 221.669C939.935 221.112 940.708 218.308 940.584 216.167L941.874 216.083C942.523 224.149 938.907 229.186 930.71 231.072C927.391 231.837 924.115 231.15 920.744 230.442C917.176 229.693 913.503 228.922 909.563 229.828C905.622 230.74 902.717 232.972 900.948 235.916C898.985 239.169 898.414 243.279 899.356 247.444V247.467C900.245 251.322 902.362 253.872 905.104 255.487C910.459 258.639 918.262 258.207 924.196 256.839C933.908 254.606 940.058 251.979 943.404 249.105C946.093 246.779 946.974 244.292 946.448 241.695C945.791 238.535 943.273 236.519 940.058 237.206C940.035 237.222 940.004 237.222 939.974 237.222C937.596 237.77 935.939 239.983 933.953 242.635C930.983 246.601 927.279 251.549 919.329 253.378C912.367 254.977 905.761 251.515 904.054 244.098C903.983 243.794 903.933 243.489 903.897 243.184C903.874 242.986 903.857 242.789 903.845 242.592L905.035 242.522C905.058 242.746 905.097 242.97 905.151 243.202C905.661 245.412 907.762 247.32 909.841 246.841C911.757 246.402 913.482 244.512 915.545 242.251C918.606 238.897 922.409 234.729 928.678 233.289Z" fill="#222222"/>
<rect width="660" height="400" transform="translate(1336)" fill="#EFEFE7"/>
<path d="M1563.65 174.558C1558.94 174.558 1555.07 176.329 1552.29 179.212L1552.28 179.198C1549.21 182.369 1547.49 186.891 1547.48 191.858V191.882C1547.48 196.492 1549.21 199.941 1551.9 202.488C1557.16 207.459 1566.12 209.001 1573.21 209.001C1584.81 209.001 1592.47 207.64 1597.01 205.24C1600.68 203.312 1602.32 200.717 1602.4 197.634C1602.48 193.877 1600.15 190.931 1596.33 190.877C1596.31 190.877 1596.29 190.874 1596.27 190.872C1596.25 190.87 1596.24 190.867 1596.22 190.867C1593.38 190.867 1590.92 192.947 1587.97 195.44C1583.57 199.165 1578.08 203.81 1568.59 203.81C1560.26 203.81 1553.67 198.161 1553.67 189.306C1553.67 188.701 1553.73 188.111 1553.83 187.535L1555.2 187.764C1555.17 188.023 1555.16 188.287 1555.16 188.569C1555.16 191.209 1557.05 193.921 1559.52 193.921C1561.82 193.921 1564.27 192.225 1567.2 190.198C1571.54 187.191 1576.94 183.457 1584.42 183.457C1590.59 183.457 1595.66 185.223 1599.07 188.038C1602.15 190.565 1603.88 193.926 1603.88 197.639C1603.88 202.815 1602.77 207.088 1600.88 210.572C1595.94 219.695 1585.73 223.354 1576.51 223.354C1562.55 223.354 1553.23 216.709 1548.87 206.659C1546.96 202.288 1546 197.17 1546 191.867C1546 186.564 1547.5 181.335 1550.13 176.832C1554.78 168.894 1562.95 163.186 1572.63 163.186C1578.65 163.186 1583.47 165.494 1587.68 167.88C1588.85 168.522 1589.92 169.171 1590.91 169.772C1593.48 171.336 1595.53 172.582 1597.5 172.582C1600.38 172.582 1601.99 169.611 1602.41 167.143L1603.89 167.392C1602.52 176.71 1597.11 181.486 1587.32 181.486C1583.36 181.486 1579.82 179.852 1576.18 178.171C1572.33 176.391 1568.36 174.558 1563.65 174.558Z" fill="#222222"/>
<path d="M1689.1 181.008C1686.56 178.871 1683.11 177.969 1679.99 177.969C1673.35 177.969 1669.67 181.64 1667.82 183.496L1667.68 183.632V163.938H1655.04V221.958H1667.68V200.619C1667.68 196.926 1667.68 193.394 1669.32 191.179C1670.39 189.784 1672.28 188.716 1674.49 188.716C1675.81 188.716 1679.17 189.126 1680.4 192.98C1680.89 194.458 1680.97 196.097 1680.97 199.546V221.949H1693.53V193.799C1693.53 188.218 1692.87 184.198 1689.1 180.998L1689.1 181.008Z" fill="#222222"/>
<path d="M1634.46 193.975L1634.46 193.973C1630.36 193.233 1627.65 192.744 1627.65 190.282C1627.65 189.052 1628.8 187.082 1633.73 187.082C1636.68 187.082 1640.46 188.228 1644.48 191.35L1652.27 184.13L1652.12 184.022C1649.11 181.928 1643.07 177.729 1633.15 177.729C1621.17 177.729 1615.09 185.033 1615.09 192.092C1615.09 195.292 1616.4 198.249 1618.3 200.132C1620.18 202.02 1622.81 203.088 1625.43 203.825C1627.32 204.4 1629.29 204.81 1631.18 205.137C1631.68 205.221 1632.21 205.299 1632.74 205.377L1632.76 205.38C1634.82 205.682 1636.99 206 1638.48 206.781C1639.22 207.191 1640.13 207.766 1640.13 209.245C1640.13 212.445 1635.53 213.431 1632.49 213.431C1627.73 213.431 1623.47 210.884 1620.02 207.523L1612.06 214.743C1614.77 217.289 1620.92 223.031 1632.82 223.031C1642.91 223.031 1653.09 218.109 1653.09 208.01C1653.09 197.912 1643.08 195.536 1634.46 193.975Z" fill="#222222"/>
<path fill-rule="evenodd" clip-rule="evenodd" d="M1695.79 200.458C1695.79 187.325 1704.08 176.905 1720.49 177.808H1720.5C1737.98 178.793 1741.83 192.663 1741.83 200.458C1741.83 211.294 1735.59 223.193 1718.85 223.193C1706.79 223.193 1695.79 216.299 1695.79 200.458ZM1708.5 200.371C1708.5 207.185 1711.79 213.175 1718.84 213.177C1725.66 213.177 1729.02 207.679 1729.02 200.946C1729.02 196.185 1727.87 192.492 1725.49 190.194C1722.87 187.73 1719.91 187.647 1718.11 187.813C1714.5 188.062 1712.36 189.292 1710.64 191.999C1709.08 194.463 1708.5 197.419 1708.5 200.371Z" fill="#222222"/>
<path fill-rule="evenodd" clip-rule="evenodd" d="M1767.37 178.134C1762.61 178.135 1758.76 179.857 1756.63 181.91C1756.49 182.046 1756.35 182.192 1756.22 182.343C1755.94 182.647 1755.67 182.976 1755.4 183.306V179.281H1744.15V236.814H1756.87V219.168L1757.06 219.282C1760.33 221.279 1762.78 222.778 1767.46 222.778C1782.15 222.778 1786 209.152 1786 200.371C1786 186.091 1777.88 178.134 1767.37 178.134ZM1765 213.67C1762.95 213.67 1760.81 212.767 1759.33 211.206C1757.69 209.401 1756.3 206.035 1756.3 200.619C1756.3 196.595 1757.12 192.906 1758.92 190.526C1760.73 188.067 1763.11 187.082 1765.41 187.082C1765.98 187.082 1766.55 187.165 1767.13 187.325C1772.3 188.638 1773.86 194.629 1773.86 200.293C1773.86 207.025 1771.15 213.67 1765 213.67Z" fill="#222222"/>
<rect width="660" height="400" transform="translate(0 408)" fill="#EFEFE7"/>
<path fill-rule="evenodd" clip-rule="evenodd" d="M420.596 578.601C436.703 578.601 449.784 591.552 450 607.604C449.998 610.141 447.941 612.2 445.4 612.2L401.762 612.119C403.648 620.789 411.364 627.28 420.596 627.28C427.277 627.28 433.156 623.872 436.613 618.704C437.522 617.345 439.088 616.431 440.849 616.431C443.653 616.431 445.922 618.7 445.922 621.5C445.922 622.648 445.539 623.71 444.895 624.561C439.602 632.317 430.693 637.408 420.596 637.408C409.136 637.408 399.215 630.849 394.362 621.284V632.317C394.362 635.04 392.152 637.25 389.428 637.25C386.705 637.25 384.495 635.04 384.495 632.317C384.495 631.975 384.531 631.642 384.598 631.317V601.932H384.562C384.562 594.487 378.476 588.446 371.076 588.446C363.675 588.446 357.67 594.41 357.598 601.797H357.603V632.321C357.603 635.045 355.393 637.255 352.669 637.255C349.946 637.255 347.736 635.045 347.736 632.321V620.784C342.969 630.534 332.957 637.255 321.371 637.255C305.17 637.255 292.039 624.124 292.039 607.924C292.039 591.723 305.17 578.592 321.371 578.592C333.516 578.592 343.937 585.974 348.388 596.499C350.837 586.235 360.178 578.605 371.071 578.605C381.965 578.605 391.112 586.069 393.687 596.157C398.242 585.821 408.573 578.601 420.596 578.601ZM302.154 607.924C302.154 618.533 310.756 627.14 321.371 627.14C331.985 627.14 340.587 618.533 340.587 607.924C340.587 597.313 331.985 588.707 321.371 588.707C310.756 588.707 302.154 597.313 302.154 607.924ZM420.596 588.729C411.643 588.729 404.112 594.838 401.947 603.116H439.097C437.234 594.523 429.55 588.729 420.596 588.729Z" fill="#222222"/>
<path d="M214.006 599.272C215.78 597.431 218.26 596.296 221.263 596.296C224.27 596.296 226.805 597.467 229.267 598.604C231.592 599.678 233.852 600.721 236.383 600.721C242.64 600.721 246.097 597.669 246.971 591.718L246.025 591.561C245.76 593.136 244.729 595.036 242.892 595.036C241.634 595.036 240.324 594.24 238.682 593.242L238.674 593.237C238.044 592.855 237.365 592.442 236.622 592.033C233.934 590.507 230.855 589.035 227.011 589.035C220.826 589.035 215.604 592.682 212.638 597.755C210.954 600.631 210 603.971 210 607.361C210 610.751 210.617 614.019 211.832 616.814C214.614 623.233 220.574 627.478 229.491 627.478C235.384 627.478 241.906 625.142 245.062 619.312C246.268 617.088 246.98 614.356 246.98 611.052C246.98 608.68 245.872 606.533 243.905 604.916C241.722 603.116 238.481 601.991 234.546 601.991C229.762 601.991 226.315 604.376 223.539 606.297C221.668 607.592 220.103 608.675 218.638 608.675C217.054 608.675 215.847 606.942 215.847 605.259C215.847 605.079 215.852 604.912 215.87 604.745L214.997 604.597C214.934 604.966 214.898 605.34 214.898 605.727C214.898 611.385 219.106 614.995 224.427 614.995C230.488 614.995 233.994 612.029 236.807 609.65C238.69 608.056 240.262 606.726 242.082 606.726C242.093 606.726 242.104 606.727 242.116 606.728L242.12 606.729C242.13 606.73 242.14 606.731 242.149 606.731C244.589 606.767 246.079 608.648 246.03 611.047C245.98 613.019 244.927 614.676 242.591 615.909C239.683 617.44 234.794 618.313 227.385 618.313C222.856 618.313 217.13 617.327 213.768 614.153C212.048 612.524 210.945 610.323 210.945 607.379V607.361C210.954 604.187 212.057 601.302 214.015 599.276L214.006 599.272Z" fill="#222222"/>
<path d="M265.269 610.224H262.064L261.533 606.839H269.248V615.805C267.322 617.061 265.057 617.755 262.519 617.755C256.667 617.755 253.444 613.933 253.444 608.22C253.444 602.508 256.932 598.641 262.622 598.641C264.895 598.641 266.79 599.173 268.258 600.001L267.646 603.985C266.259 603.102 264.625 602.409 262.735 602.409C259.552 602.409 258.008 604.727 258.008 608.198C258.008 611.669 259.611 614.095 262.784 614.095C263.801 614.095 264.522 613.906 265.269 613.505V610.224Z" fill="#222222"/>
<path d="M276.185 603.787C276.185 604.723 276.694 605.178 278.989 606.06H278.985C282.991 607.527 284.594 608.914 284.594 611.849C284.594 615.855 281.65 617.615 277.995 617.615C275.514 617.615 273.435 617.079 271.558 616.224L272.224 612.33C274.119 613.343 276.23 614.041 278.071 614.041C279.381 614.041 280.295 613.429 280.295 612.385C280.295 611.34 279.759 610.863 277.166 609.868C273.484 608.459 271.882 607.257 271.882 604.214C271.882 600.667 274.659 598.772 278.179 598.772C280.583 598.772 282.131 599.227 283.738 599.996L283.041 603.845C281.389 602.882 279.633 602.351 278.242 602.351C276.851 602.351 276.185 602.936 276.185 603.787Z" fill="#222222"/>
<rect width="660" height="400" transform="translate(668 408)" fill="#EFEFE7"/>
<path d="M913.556 583.854C913.556 585.289 913.248 586.478 912.723 587.443V587.447C911.353 589.975 908.52 590.99 905.961 590.99C902.09 590.99 899.504 589.145 898.293 586.358C897.764 585.143 897.498 583.722 897.498 582.252C897.498 580.782 897.914 579.33 898.644 578.08C899.937 575.876 902.202 574.294 904.888 574.294C906.559 574.294 907.895 574.935 909.064 575.595C909.381 575.769 909.67 575.945 909.939 576.108L909.948 576.113L909.952 576.116C910.67 576.552 911.241 576.899 911.789 576.899C912.588 576.899 913.039 576.073 913.151 575.39L913.564 575.459C913.186 578.045 911.685 579.369 908.968 579.369C907.867 579.369 906.885 578.916 905.875 578.449C904.806 577.955 903.705 577.447 902.399 577.447C901.094 577.447 900.018 577.937 899.246 578.736C898.393 579.616 897.914 580.87 897.91 582.248V582.256C897.91 583.533 898.389 584.49 899.138 585.197C900.597 586.574 903.082 587.003 905.05 587.003C908.269 587.003 910.392 586.625 911.654 585.961C912.669 585.424 913.128 584.707 913.147 583.85C913.171 582.808 912.518 581.989 911.461 581.974H911.43C910.641 581.974 909.959 582.551 909.142 583.242C907.921 584.275 906.399 585.563 903.765 585.563C901.457 585.563 899.628 583.996 899.628 581.538C899.628 581.372 899.643 581.21 899.67 581.048L900.049 581.113C900.037 581.187 900.037 581.26 900.037 581.337C900.037 582.071 900.562 582.823 901.249 582.823C901.884 582.823 902.564 582.353 903.376 581.791C904.582 580.957 906.08 579.921 908.157 579.921C909.863 579.921 911.276 580.411 912.221 581.191C913.074 581.889 913.556 582.823 913.556 583.854Z" fill="#222222"/>
<path d="M1018.59 582.927H1016.09V581.523H1035.3V582.927H1033.9C1028.98 582.927 1026.87 585.505 1026.87 591.287V638.317H1010.54L981.478 589.646V626.836C981.478 633.084 984.446 636.913 989.289 636.913H991.945V638.317H970.695V636.913H972.181C977.727 636.913 979.992 633.945 979.992 626.836V586.991C978.506 584.255 976.947 582.927 975.461 582.927H970.618V581.523H1004.84L1025.38 616.211V591.21C1025.38 585.895 1022.96 582.927 1018.59 582.927Z" fill="#222222"/>
<path d="M1097.5 613.008C1096.17 618.554 1095 621.525 1093.05 625.196C1088.98 632.617 1083.44 636.913 1078.04 636.913H1071.25C1069.84 636.913 1068.98 635.975 1068.98 634.334V609.727C1073.51 610.588 1075.08 611.444 1078.12 614.725C1080.23 616.99 1081.87 619.646 1082.96 622.459C1083.74 624.412 1083.98 625.662 1084.06 628.553H1085.38V590.43H1084.06C1083.51 594.1 1082.34 599.338 1076.56 604.725C1073.98 607.149 1072.65 607.77 1068.98 608.318V585.741C1068.98 583.942 1069.92 582.927 1071.56 582.927H1077.8C1080.77 582.927 1088.04 582.927 1093.66 594.726C1095.62 598.867 1096.16 600.82 1096.87 605.976H1098.19V581.523H1036.86V582.927H1041.86C1043.11 582.927 1043.97 584.101 1043.97 585.976V634.022C1043.97 635.82 1043.11 636.913 1041.78 636.913H1036.86V638.317H1098.5V613.004H1097.49L1097.5 613.008Z" fill="#222222"/>
<path fill-rule="evenodd" clip-rule="evenodd" d="M907.883 609.92C907.883 592.367 922.113 578.134 939.669 578.134C957.226 578.134 971.455 592.364 971.455 609.92C971.455 627.476 957.226 641.706 939.669 641.706C922.113 641.706 907.883 627.473 907.883 609.92ZM929.226 636.121H950.927C951.193 636.121 951.413 635.902 951.413 635.635C951.413 635.369 951.193 635.149 950.927 635.149H947.747C947.087 635.149 946.55 634.612 946.55 633.949V583.865L929.226 588.122C929.044 588.211 928.921 588.388 928.921 588.605C928.921 588.821 929.04 589.01 929.226 589.095H932.614C933.278 589.095 933.814 589.631 933.814 590.295V633.949C933.814 634.612 933.278 635.149 932.614 635.149H929.226C928.955 635.149 928.739 635.365 928.739 635.635C928.739 635.905 928.955 636.121 929.226 636.121Z" fill="#222222"/>
<rect width="660" height="400" transform="translate(1336 408)" fill="#EFEFE7"/>
<path d="M1682.15 581.84H1693.12V645.858H1704.58V570.142H1682.15V581.84Z" fill="#222222"/>
<path d="M1554.35 588.543C1549.46 588.543 1545.43 590.389 1542.54 593.385H1542.53C1539.34 596.684 1537.55 601.383 1537.53 606.548V606.574C1537.53 611.369 1539.33 614.95 1542.13 617.601C1547.6 622.767 1556.93 624.372 1564.29 624.372C1576.35 624.372 1584.31 622.952 1589.05 620.462C1592.86 618.456 1594.57 615.759 1594.65 612.553C1594.73 608.643 1592.3 605.579 1588.33 605.524C1588.31 605.524 1588.28 605.521 1588.26 605.519C1588.25 605.517 1588.23 605.516 1588.22 605.516C1585.26 605.516 1582.7 607.68 1579.64 610.272C1575.06 614.145 1569.35 618.975 1559.49 618.975C1550.83 618.975 1543.98 613.096 1543.98 603.89C1543.98 603.257 1544.04 602.646 1544.14 602.048L1545.56 602.288C1545.53 602.558 1545.52 602.832 1545.52 603.123C1545.52 605.866 1547.48 608.685 1550.06 608.685C1552.44 608.685 1554.99 606.921 1558.04 604.814C1562.56 601.688 1568.17 597.805 1575.95 597.805C1582.36 597.805 1587.63 599.642 1591.19 602.571C1594.38 605.196 1596.19 608.693 1596.19 612.553C1596.19 617.934 1595.02 622.379 1593.07 625.999C1587.93 635.484 1577.32 639.289 1567.72 639.289C1553.21 639.289 1543.51 632.382 1538.98 621.932C1537 617.386 1536 612.068 1536 606.548C1536 601.028 1537.55 595.597 1540.29 590.912C1545.13 582.657 1553.63 576.72 1563.69 576.72C1569.95 576.72 1574.96 579.117 1579.33 581.599C1580.55 582.266 1581.66 582.94 1582.69 583.566C1585.36 585.191 1587.5 586.487 1589.54 586.487C1592.54 586.487 1594.22 583.399 1594.65 580.832L1596.19 581.089C1594.77 590.777 1589.14 595.744 1578.96 595.744C1574.84 595.744 1571.16 594.046 1567.38 592.299C1563.37 590.448 1559.24 588.543 1554.35 588.543Z" fill="#222222"/>
<path d="M1620.75 611.209H1625.97V616.547C1624.75 617.201 1623.57 617.504 1621.92 617.504C1616.75 617.504 1614.14 613.556 1614.14 607.905C1614.14 602.255 1616.66 598.479 1621.83 598.479C1624.91 598.479 1627.57 599.609 1629.83 601.045L1630.82 594.565C1628.44 593.221 1625.35 592.353 1621.66 592.353C1612.39 592.353 1606.71 598.648 1606.71 607.943C1606.71 617.238 1611.96 623.458 1621.48 623.458C1625.62 623.458 1629.3 622.333 1632.43 620.285V605.693H1619.88L1620.74 611.204L1620.75 611.209Z" fill="#222222"/>
<path d="M1648.3 604.437C1644.56 603 1643.74 602.263 1643.74 600.738C1643.74 599.351 1644.82 598.399 1647.09 598.399C1649.36 598.399 1652.21 599.263 1654.9 600.835L1656.04 594.569C1653.43 593.313 1650.91 592.576 1646.99 592.576C1641.26 592.576 1636.74 595.66 1636.74 601.433C1636.74 606.388 1639.35 608.343 1645.34 610.635C1649.56 612.254 1650.43 613.033 1650.43 614.727C1650.43 616.509 1648.95 617.424 1646.82 617.424C1643.82 617.424 1640.39 616.286 1637.3 614.643L1636.21 620.98C1639.26 622.371 1642.65 623.243 1646.69 623.243C1652.64 623.243 1657.43 620.378 1657.43 613.859C1657.43 609.081 1654.82 606.822 1648.3 604.433V604.437Z" fill="#222222"/>
<path d="M1668.54 570.142H1680V634.161H1690.56V645.858H1668.54V570.142Z" fill="#222222"/>
<path d="M1740.33 613.455H1740.12L1724.28 570.142H1712.22V645.858H1723.97V598.563H1724.18L1740.75 645.858H1752.08V570.142H1740.33V613.455Z" fill="#222222"/>
<path d="M1772.72 612.3V634.535H1796V645.858H1759.71V570.142H1794.53V581.469H1772.72V600.974H1789.5V612.3H1772.72Z" fill="#222222"/>
<rect width="660" height="400" transform="translate(0 816)" fill="#EFEFE7"/>
<path d="M215.378 999.691C211.28 999.691 207.898 1001.24 205.48 1003.75L205.475 1003.76C202.799 1006.53 201.294 1010.47 201.284 1014.79V1014.81C201.284 1018.83 202.794 1021.84 205.135 1024.06C209.723 1028.38 217.533 1029.73 223.709 1029.73C233.819 1029.73 240.485 1028.54 244.449 1026.45C247.641 1024.77 249.079 1022.5 249.146 1019.82C249.213 1016.53 247.177 1013.97 243.851 1013.93C243.821 1013.93 243.79 1013.92 243.759 1013.92C241.28 1013.92 239.138 1015.73 236.571 1017.91C232.735 1021.15 227.951 1025.2 219.683 1025.2C212.43 1025.2 206.686 1020.27 206.686 1012.56C206.686 1012.02 206.738 1011.52 206.826 1011.01L208.017 1011.21C207.991 1011.44 207.98 1011.67 207.98 1011.91C207.98 1014.21 209.63 1016.57 211.785 1016.57C213.782 1016.57 215.918 1015.09 218.47 1013.33C222.258 1010.71 226.961 1007.45 233.484 1007.45C238.851 1007.45 243.274 1008.99 246.249 1011.45C248.929 1013.65 250.44 1016.58 250.44 1019.81C250.44 1024.32 249.466 1028.05 247.821 1031.08C243.516 1039.03 234.618 1042.22 226.581 1042.22C214.425 1042.22 206.3 1036.43 202.5 1027.67C200.84 1023.86 200 1019.4 200 1014.78C200 1010.15 201.304 1005.6 203.604 1001.68C207.651 994.757 214.775 989.782 223.209 989.782C228.458 989.782 232.654 991.798 236.319 993.876C237.34 994.436 238.272 995.001 239.136 995.526C241.375 996.885 243.161 997.969 244.872 997.969C247.383 997.969 248.785 995.381 249.151 993.226L250.44 993.443C249.249 1001.56 244.532 1005.72 236 1005.72C232.547 1005.72 229.466 1004.3 226.296 1002.84C222.938 1001.29 219.481 999.691 215.378 999.691Z" fill="#222222"/>
<path fill-rule="evenodd" clip-rule="evenodd" d="M296.086 995.092C292.508 991.721 287.641 989.86 282.542 989.86C277.444 989.86 272.572 991.726 268.999 995.092C264.055 999.753 263.978 1004.27 263.978 1015.82C263.978 1027.36 264.055 1031.88 268.999 1036.54C272.577 1039.91 277.444 1041.77 282.542 1041.77C287.641 1041.77 292.513 1039.91 296.086 1036.54C301.029 1031.88 301.107 1027.36 301.107 1015.82C301.107 1004.27 301.029 999.753 296.086 995.092ZM292.812 1034.39C290.074 1036.97 286.419 1038.34 282.537 1038.34C278.655 1038.34 275.005 1036.97 272.263 1034.39C268.381 1030.74 268.076 1026.79 268.076 1015.82C268.076 1004.85 268.381 1000.9 272.263 997.242C275 994.659 278.655 993.298 282.537 993.298C286.419 993.298 290.069 994.659 292.812 997.242C296.694 1000.9 296.998 1004.84 296.998 1015.82C296.998 1026.79 296.694 1030.73 292.812 1034.39Z" fill="#222222"/>
<path fill-rule="evenodd" clip-rule="evenodd" d="M330.75 990.287H310.892V1041.35H315V1019.69H330.75C340.107 1019.69 347.108 1014.31 347.108 1004.99C347.108 995.66 340.107 990.282 330.75 990.282V990.287ZM330.296 1016.25H315V993.731H330.296C337.751 993.731 343.004 997.319 343.004 1004.99C343.004 1012.66 337.756 1016.25 330.296 1016.25Z" fill="#222222"/>
<path d="M387.887 1041.35H355.016V990.288H387.887V993.732H359.125V1013.88H383.629V1017.32H359.125V1037.9H387.887V1041.35Z" fill="#222222"/>
<path d="M431.512 1034.54L400.234 990.288H396.125V1041.35H400.234V996.959L431.512 1041.35H435.62V990.288H431.512V1034.54Z" fill="#222222"/>
<path d="M446.302 1000.39H460V1013.3H446.302V1000.39Z" fill="#222222"/>
<path d="M460 1018.53H446.302V1031.44H460V1018.53Z" fill="#222222"/>
<rect width="660" height="400" transform="translate(668 816)" fill="#EFEFE7"/>
<path d="M886.622 1013.64H896.042V1019.77C896.042 1028.39 889.47 1032.33 883.41 1032.33C878.445 1032.33 875.743 1031.45 872.822 1028.82C867.638 1024.15 866.397 1015.24 866.397 1006.4C866.397 993.478 868.952 979.963 883.483 979.963C895.677 979.963 898.743 989.82 899.546 994.859H900.35V980.255H899.254C898.524 981.205 897.867 981.789 895.969 981.789C894.504 981.789 893.406 981.312 892.11 980.748C890.239 979.935 887.955 978.941 883.556 978.941C876.108 978.941 870.778 981.935 866.397 986.316C863.841 988.871 858 995.224 858 1006.4C858 1014.65 861.651 1021.37 866.47 1026.2C871.435 1031.16 876.546 1033.35 883.41 1033.35C889.099 1033.35 892.47 1031.62 895.044 1030.3C896.632 1029.48 897.917 1028.82 899.254 1028.82C900.715 1028.82 901.153 1029.12 902.175 1030.21H903.051V1013.63H908.893V1012.61H886.616V1013.63L886.622 1013.64Z" fill="#222222"/>
<path d="M1009.88 986.644C1007.48 984.192 1004.74 982.269 1001.68 980.87C999.488 979.872 997.255 979.239 994.985 978.953V979.969C997.328 980.261 999.317 980.937 1000.94 982.008C1003.18 983.48 1004.92 985.452 1006.16 987.928C1007.41 990.405 1008.26 993.222 1008.7 996.386C1009.14 999.55 1009.36 1002.82 1009.36 1006.21C1009.36 1010.62 1009.07 1014.47 1008.48 1017.76C1007.89 1021.04 1006.91 1023.79 1005.54 1025.99C1004.17 1028.2 1002.39 1029.85 1000.21 1030.92C998.697 1031.67 996.95 1032.15 994.979 1032.38V1033.41C997.535 1033.11 999.962 1032.38 1002.26 1031.22C1005.38 1029.65 1008.09 1027.59 1010.39 1025.04C1012.7 1022.5 1014.51 1019.57 1015.84 1016.29C1017.16 1013 1017.82 1009.64 1017.82 1006.21C1017.82 1002.29 1017.1 998.662 1015.65 995.327C1014.2 991.993 1012.28 989.103 1009.87 986.644H1009.88Z" fill="#222222"/>
<path d="M1132.58 988.36C1134.29 988.36 1135.71 988.853 1136.66 989.638L1136.66 989.626C1137.51 990.332 1137.99 991.269 1137.99 992.303C1137.99 993.745 1137.68 994.938 1137.15 995.905C1135.78 998.443 1132.93 999.465 1130.36 999.465C1126.48 999.465 1123.88 997.615 1122.66 994.816C1122.13 993.599 1121.86 992.175 1121.86 990.697C1121.86 989.218 1122.28 987.758 1123.01 986.504C1124.31 984.29 1126.59 982.702 1129.29 982.702C1130.97 982.702 1132.3 983.347 1133.48 984.01C1133.8 984.188 1134.1 984.367 1134.37 984.534C1135.09 984.971 1135.67 985.318 1136.22 985.318C1137.02 985.318 1137.47 984.49 1137.59 983.803L1138 983.87C1137.62 986.468 1136.11 987.8 1133.38 987.8C1132.28 987.8 1131.29 987.345 1130.28 986.877C1129.2 986.381 1128.1 985.872 1126.79 985.872C1125.48 985.872 1124.39 986.365 1123.62 987.168C1122.77 988.05 1122.28 989.309 1122.28 990.703C1122.28 991.987 1122.76 992.948 1123.51 993.66C1124.98 995.041 1127.47 995.473 1129.45 995.473C1132.68 995.473 1134.81 995.096 1136.08 994.427C1137.11 993.891 1137.57 993.167 1137.59 992.309C1137.61 991.257 1136.96 990.435 1135.89 990.423H1135.86C1135.07 990.423 1134.38 991.003 1133.56 991.698C1132.33 992.737 1130.8 994.031 1128.16 994.031C1125.84 994.031 1124.01 992.455 1124.01 989.985C1124.01 989.815 1124.02 989.65 1124.05 989.492L1124.43 989.559C1124.42 989.632 1124.42 989.705 1124.42 989.784C1124.42 990.52 1124.94 991.275 1125.64 991.275C1126.28 991.275 1126.96 990.802 1127.78 990.237C1128.99 989.4 1130.49 988.36 1132.58 988.36Z" fill="#222222"/>
<path fill-rule="evenodd" clip-rule="evenodd" d="M1047.96 1001.32C1049.82 1002.23 1051.46 1003.43 1052.89 1004.92L1052.88 1004.91C1054.3 1006.41 1055.43 1008.16 1056.26 1010.17C1057.1 1012.18 1057.52 1014.24 1057.52 1016.5C1057.52 1018.75 1057.09 1020.9 1056.23 1022.93C1055.37 1024.97 1054.21 1026.77 1052.74 1028.34C1051.26 1029.91 1049.56 1031.16 1047.62 1032.09C1045.69 1033.02 1043.64 1033.49 1041.48 1033.49C1039.82 1033.49 1038.41 1033.21 1037.26 1032.64C1036.11 1032.08 1035.16 1031.42 1034.43 1030.66C1033.69 1029.9 1033.12 1029.12 1032.73 1028.31C1032.34 1027.5 1032.07 1026.85 1031.93 1026.36H1031.78V1052.03H1037.44V1053.06H1019.79V1052.03H1025.46V1001.94H1019.79V1000.91H1031.63V1007.09H1031.78C1032.51 1005.03 1033.73 1003.33 1035.42 1001.98C1037.11 1000.63 1039.31 999.958 1042 999.958C1044.11 999.958 1046.1 1000.41 1047.96 1001.32ZM1048.84 1027.9C1049.42 1026.44 1049.8 1024.66 1049.94 1022.57V1022.57C1050.09 1020.48 1050.16 1018.16 1050.16 1015.61C1050.16 1013.36 1050.04 1011.34 1049.8 1009.55C1049.55 1007.76 1049.12 1006.22 1048.51 1004.95C1047.89 1003.68 1047.03 1002.7 1045.93 1002.01C1044.83 1001.33 1043.42 1000.98 1041.7 1000.98C1039.88 1000.98 1038.39 1001.3 1037.21 1001.94C1036.04 1002.57 1035.08 1003.38 1034.35 1004.36C1033.81 1005.05 1033.37 1005.79 1033.06 1006.57C1032.74 1007.36 1032.48 1008.29 1032.28 1009.36C1032.09 1010.44 1031.96 1011.68 1031.88 1013.08C1031.81 1014.48 1031.77 1016.13 1031.77 1018.04C1031.77 1019.66 1031.89 1021.33 1032.14 1023.04C1032.39 1024.76 1032.85 1026.32 1033.54 1027.72C1034.23 1029.12 1035.19 1030.25 1036.45 1031.14C1037.7 1032.02 1039.4 1032.46 1041.41 1032.46C1043.43 1032.46 1045.02 1032.07 1046.19 1031.29C1047.37 1030.5 1048.25 1029.38 1048.84 1027.9Z" fill="#222222"/>
<path fill-rule="evenodd" clip-rule="evenodd" d="M1068.07 1014.23H1090.72C1090.72 1011.53 1090.27 1009.27 1089.36 1007.46C1088.45 1005.65 1087.32 1004.19 1085.98 1003.09C1084.62 1001.98 1083.17 1001.19 1081.6 1000.69C1080.03 1000.21 1078.56 999.958 1077.19 999.958C1074.88 999.958 1072.73 1000.44 1070.72 1001.39C1068.7 1002.35 1066.95 1003.61 1065.46 1005.18C1063.96 1006.75 1062.79 1008.56 1061.93 1010.59C1061.07 1012.63 1060.65 1014.73 1060.65 1016.89C1060.65 1019.39 1061.06 1021.66 1061.89 1023.69C1062.73 1025.73 1063.9 1027.48 1065.42 1028.95C1066.94 1030.42 1068.74 1031.54 1070.83 1032.33C1072.91 1033.11 1075.18 1033.5 1077.63 1033.5C1080.09 1033.5 1082.08 1033.13 1083.63 1032.36C1085.17 1031.6 1086.4 1030.72 1087.3 1029.72C1088.21 1028.71 1088.87 1027.71 1089.29 1026.7C1089.7 1025.7 1089.99 1024.92 1090.13 1024.38L1089.03 1024.16C1088.84 1024.75 1088.54 1025.51 1088.15 1026.44C1087.75 1027.38 1087.16 1028.29 1086.35 1029.2C1085.54 1030.11 1084.44 1030.88 1083.04 1031.52C1081.64 1032.16 1079.86 1032.47 1077.7 1032.47C1075.54 1032.47 1073.81 1032.01 1072.52 1031.07C1071.21 1030.14 1070.23 1028.97 1069.58 1027.55C1068.91 1026.12 1068.48 1024.53 1068.29 1022.76C1068.09 1021 1068 1019.31 1068 1017.69C1068 1016.9 1068.01 1016.25 1068.03 1015.74C1068.06 1015.22 1068.07 1014.72 1068.07 1014.23ZM1068.76 1008.56C1069.08 1007.09 1069.56 1005.79 1070.2 1004.66C1070.84 1003.54 1071.69 1002.64 1072.77 1001.98C1073.85 1001.31 1075.22 1000.99 1076.89 1000.99C1077.82 1000.99 1078.69 1001.12 1079.5 1001.39C1080.31 1001.66 1081 1002.12 1081.56 1002.76C1082.12 1003.4 1082.56 1004.25 1082.88 1005.33C1083.2 1006.41 1083.37 1007.78 1083.37 1009.45V1011.29C1083.37 1011.88 1083.32 1012.52 1083.22 1013.2H1068.14C1068.24 1011.58 1068.45 1010.03 1068.77 1008.56H1068.76Z" fill="#222222"/>
<path d="M1124.07 1002.46C1126.1 1004.03 1127.12 1006.53 1127.12 1009.96L1127.11 1009.95V1031.43H1132.77V1032.46H1115.12V1031.43H1120.79V1007.67C1120.79 1005.76 1120.33 1004.19 1119.42 1002.96C1118.52 1001.74 1117.11 1001.13 1115.19 1001.13C1113.62 1001.13 1112.13 1001.47 1110.7 1002.15C1109.29 1002.85 1108.03 1003.8 1106.96 1005.03C1105.88 1006.25 1105.03 1007.7 1104.42 1009.36C1103.8 1011.04 1103.5 1012.85 1103.5 1014.81V1031.43H1109.16V1032.46H1091.51V1031.43H1097.18V1001.93H1091.51V1000.91H1103.35V1008.78H1103.5C1103.8 1008.14 1104.22 1007.33 1104.79 1006.35C1105.36 1005.37 1106.13 1004.42 1107.11 1003.49C1108.09 1002.56 1109.31 1001.76 1110.78 1001.1C1112.26 1000.43 1114.04 1000.1 1116.16 1000.1C1119.39 1000.1 1122.03 1000.89 1124.07 1002.46Z" fill="#222222"/>
<path d="M968.949 995.327C970.494 991.993 972.478 989.096 974.905 986.644L974.899 986.656C977.327 984.204 980.059 982.281 983.102 980.882C985.225 979.902 987.343 979.276 989.466 978.984V979.982C987.124 980.274 985.134 980.949 983.509 982.02C981.282 983.492 979.542 985.464 978.289 987.94C977.041 990.417 976.189 993.234 975.751 996.398C975.307 999.562 975.088 1002.84 975.088 1006.22C975.088 1010.63 975.38 1014.48 975.97 1017.77C976.554 1021.05 977.534 1023.8 978.909 1026.01C980.284 1028.22 982.049 1029.86 984.209 1030.93C985.706 1031.68 987.464 1032.16 989.466 1032.4V1033.43C986.832 1033.14 984.337 1032.43 982 1031.3C978.861 1029.78 976.153 1027.75 973.871 1025.23C971.595 1022.7 969.813 1019.78 968.541 1016.47C967.269 1013.16 966.63 1009.74 966.63 1006.21C966.63 1002.29 967.403 998.661 968.949 995.327Z" fill="#222222"/>
<path d="M926.161 999.982L934.99 1002.75C935.184 1002.81 935.392 1002.88 935.613 1002.95C939.553 1004.17 947.476 1006.64 947.476 1016.11C947.476 1025.17 940.466 1033.35 928.929 1033.35C924.841 1033.35 923.088 1033.13 919.729 1032.26C919.269 1032.11 918.773 1031.95 918.264 1031.77C916.673 1031.24 914.941 1030.65 913.669 1030.65C912.209 1030.65 911.844 1031.31 911.479 1032.26H910.383V1016.56H911.186C914.536 1032.33 923.451 1032.33 928.861 1032.33H928.936C939.231 1032.33 941.859 1025.25 941.859 1020.5C941.859 1013.71 936.164 1010.93 932.075 1009.69L923.678 1007.14C915.793 1004.73 911.704 1000.93 911.704 994.287C911.704 985.452 918.275 978.953 927.694 978.953C931.837 978.953 934.159 980.013 935.97 980.84C937.127 981.368 938.076 981.801 939.158 981.801C940.399 981.801 940.618 981.655 941.348 980.268H942.371V993.483H941.494C940.326 986.474 936.018 979.975 927.694 979.975C922.948 979.975 915.647 982.239 915.647 989.979C915.647 996.258 921.123 998.376 926.161 999.982Z" fill="#222222"/>
<rect width="660" height="400" transform="translate(1336 816)" fill="#EFEFE7"/>
<path d="M1564.65 1013.19H1564.64L1564.45 1013.18H1564.45C1559.98 1012.91 1556.45 1012.7 1553.9 1010.78C1552.4 1009.65 1551.67 1008.3 1551.67 1006.65C1551.67 1002.74 1556.22 999.904 1562.47 999.904C1567.78 999.904 1572.78 1001.61 1577.36 1004.99L1578.81 1002.94C1573.74 999.52 1568.09 997.714 1562.4 997.714C1554.49 997.714 1548.97 1001.47 1548.97 1006.86C1548.97 1009.73 1550.61 1012.03 1553.68 1013.49C1556.86 1014.92 1560.85 1015.19 1565.9 1015.52L1566.47 1015.56C1567.2 1015.61 1567.96 1015.67 1568.73 1015.72C1575.91 1016.32 1578.47 1020.05 1578.47 1023.36C1578.47 1028.54 1573.23 1032.16 1565.73 1032.16C1560.26 1032.16 1554.45 1030.12 1549.26 1026.39L1547.76 1028.59C1553.14 1032.47 1558.91 1034.28 1565.8 1034.28C1574.89 1034.28 1581.24 1029.85 1581.24 1023.5C1581.24 1018.19 1576.87 1014.39 1569.84 1013.6C1568 1013.39 1566.29 1013.29 1564.65 1013.19Z" fill="#222222"/>
<path d="M1527.45 1017.91H1537.65V1024.71L1537.47 1024.98C1534.31 1029.7 1529.87 1032.1 1524.29 1032.1C1515.22 1032.1 1508.63 1025.34 1508.63 1016.03C1508.63 1006.73 1515.21 999.904 1524.29 999.904C1529.73 999.904 1534.43 1002.34 1537.12 1006.48L1539.18 1005.02C1535.79 1000.37 1530.42 997.72 1524.29 997.72C1513.69 997.72 1506 1005.42 1506 1016.04C1506 1026.66 1513.69 1034.29 1524.29 1034.29C1531.11 1034.29 1536.73 1031.18 1540.14 1025.54V1015.8H1527.45V1017.91Z" fill="#222222"/>
<path fill-rule="evenodd" clip-rule="evenodd" d="M1614.1 1016.01C1614.1 1005.41 1621.83 997.714 1632.38 997.714C1642.93 997.714 1650.72 1005.41 1650.72 1016.01C1650.72 1026.61 1642.93 1034.24 1632.38 1034.24C1621.83 1034.24 1614.1 1026.62 1614.1 1016.01ZM1618.62 1016.01C1618.62 1024.29 1624.52 1030.17 1632.38 1030.17C1640.3 1030.17 1646.13 1024.28 1646.13 1016.01C1646.13 1007.74 1640.24 1001.79 1632.38 1001.79C1624.52 1001.79 1618.62 1007.73 1618.62 1016.01Z" fill="#222222"/>
<path fill-rule="evenodd" clip-rule="evenodd" d="M1689.8 998.488H1669.56V1033.33H1673.95V1018.07H1690.4C1697.01 1018.07 1700.88 1013.74 1700.88 1007.92C1700.88 1002.1 1696.75 998.482 1689.8 998.482V998.488ZM1689.54 1014.01H1673.95V1002.49H1689.74C1694 1002.49 1696.29 1004.69 1696.29 1008.31C1696.29 1011.94 1694 1014 1689.54 1014V1014.01Z" fill="#222222"/>
<path d="M1735.87 1016.72H1721.72V1029.33H1746.55V1033.33H1717.33V998.488H1745.11V1002.5H1721.72V1012.72H1735.87V1016.72Z" fill="#222222"/>
<path d="M1789.53 1024.55L1766.6 998.488H1764.31V1033.33H1768.7V1007.28L1791.69 1033.33H1793.92V998.488H1789.53V1024.55Z" fill="#222222"/>
<path d="M1821.9 1025.04C1823.21 1025.04 1824.27 1025.41 1825 1025.99L1824.98 1026C1825.63 1026.52 1826 1027.22 1826 1028C1826 1029.07 1825.76 1029.96 1825.37 1030.69C1824.32 1032.58 1822.17 1033.35 1820.23 1033.35C1817.29 1033.35 1815.32 1031.96 1814.4 1029.87C1814 1028.96 1813.8 1027.9 1813.8 1026.79C1813.8 1025.69 1814.11 1024.6 1814.67 1023.66C1815.65 1022.01 1817.37 1020.83 1819.41 1020.83C1820.68 1020.83 1821.7 1021.3 1822.58 1021.8C1822.83 1021.93 1823.05 1022.07 1823.26 1022.19C1823.8 1022.52 1824.24 1022.78 1824.65 1022.78C1825.26 1022.78 1825.6 1022.17 1825.69 1021.65L1826 1021.7C1825.72 1023.64 1824.57 1024.63 1822.51 1024.63C1821.67 1024.63 1820.93 1024.29 1820.16 1023.94C1819.35 1023.57 1818.51 1023.19 1817.52 1023.19C1816.53 1023.19 1815.71 1023.56 1815.13 1024.16C1814.48 1024.82 1814.11 1025.76 1814.11 1026.8C1814.11 1027.76 1814.47 1028.48 1815.04 1029.01C1816.15 1030.04 1818.04 1030.36 1819.53 1030.36C1821.98 1030.36 1823.6 1030.07 1824.55 1029.57C1825.33 1029.17 1825.67 1028.63 1825.69 1027.99C1825.7 1027.21 1825.22 1026.6 1824.41 1026.59H1824.39C1823.78 1026.59 1823.27 1027.02 1822.64 1027.54C1821.72 1028.32 1820.56 1029.28 1818.56 1029.28C1816.8 1029.28 1815.42 1028.1 1815.42 1026.26C1815.42 1026.13 1815.43 1026.01 1815.45 1025.89L1815.74 1025.94C1815.74 1025.99 1815.74 1026.05 1815.74 1026.11C1815.74 1026.66 1816.13 1027.22 1816.65 1027.22C1817.14 1027.22 1817.66 1026.86 1818.27 1026.44C1819.19 1025.82 1820.33 1025.04 1821.9 1025.04Z" fill="#222222"/>
</svg>
