<svg width="1024" height="1108" viewBox="0 0 1024 1108" fill="none" xmlns="http://www.w3.org/2000/svg">
<rect width="1024" height="1108" fill="white"/>
<rect width="166" height="80" transform="translate(4 4)" fill="#F2F5EE"/>
<rect width="166" height="80" transform="translate(174 4)" fill="#F2F5EE"/>
<path d="M244.82 49H239.876V36.76H244.868C247.412 36.76 248.932 37.784 248.932 39.832C248.932 41.288 247.972 42.168 246.772 42.44V42.488C248.308 42.744 249.412 43.864 249.412 45.432C249.412 47.944 247.492 49 244.82 49ZM242.116 41.848H244.58C245.764 41.848 246.708 41.384 246.708 40.072C246.708 38.92 245.924 38.36 244.692 38.36H242.116V41.848ZM242.116 47.368H244.692C246.196 47.368 247.14 46.84 247.14 45.288C247.14 43.96 246.196 43.4 244.628 43.4H242.116V47.368ZM251.165 42.92C251.165 38.76 253.597 36.584 256.845 36.584C260.205 36.584 262.525 38.728 262.525 42.92C262.525 47.08 260.157 49.256 256.845 49.256C253.405 49.256 251.165 47.096 251.165 42.92ZM256.829 47.592C258.845 47.592 260.141 45.976 260.141 42.936C260.141 39.848 258.797 38.232 256.829 38.232C254.829 38.232 253.565 39.784 253.565 42.936C253.565 46.008 254.765 47.592 256.829 47.592ZM263.411 49L267.523 42.664L263.715 36.76H266.291L268.851 40.92H268.883L271.539 36.76H273.891L270.051 42.584L274.259 49H271.619L268.707 44.36H268.691L265.747 49H263.411Z" fill="#303A3F"/>
<rect width="166" height="80" transform="translate(344 4)" fill="#F2F5EE"/>
<path d="M387.876 49V36.76H390.116V47.208H395.668V49H387.876ZM402.455 38.744C402.439 38.808 402.279 39.544 401.975 40.44L400.695 44.28H404.231L402.951 40.44C402.631 39.496 402.487 38.744 402.487 38.744H402.455ZM405.815 49L404.791 45.96H400.135L399.111 49H396.967L401.271 36.76H403.799L408.151 49H405.815ZM410.102 49V36.76H412.662L417.142 44.264C417.686 45.176 417.926 45.864 417.926 45.864H417.974V36.76H420.022V49H417.558L413.014 41.416C412.422 40.44 412.182 39.8 412.182 39.8H412.15V49H410.102ZM425.894 49V43.848L421.718 36.76H424.198L427.046 41.864H427.078L429.974 36.76H432.262L428.102 43.8V49H425.894ZM437.154 38.744C437.138 38.808 436.978 39.544 436.674 40.44L435.394 44.28H438.93L437.65 40.44C437.33 39.496 437.186 38.744 437.186 38.744H437.154ZM440.514 49L439.49 45.96H434.834L433.81 49H431.666L435.97 36.76H438.498L442.85 49H440.514ZM447.041 42.52H449.201C450.449 42.52 451.489 41.944 451.489 40.392C451.489 38.92 450.385 38.36 449.249 38.36H447.041V42.52ZM451.601 49L449.217 44.152H447.041V49H444.801V36.76H449.473C450.289 36.76 451.153 36.904 451.889 37.24C452.993 37.768 453.777 38.712 453.777 40.296C453.777 42.376 452.449 43.288 451.313 43.672V43.704L454.049 49H451.601ZM456.258 49V36.76H460.306C463.81 36.76 466.354 38.488 466.354 42.728C466.354 46.968 463.906 49 460.402 49H456.258ZM458.498 47.272H460.21C462.498 47.272 464.002 46.104 464.002 42.776C464.002 39.624 462.482 38.472 460.306 38.472H458.498V47.272Z" fill="#303A3F"/>
<rect width="166" height="80" transform="translate(514 4)" fill="#F2F5EE"/>
<path d="M554.32 49H549.376V36.76H554.368C556.912 36.76 558.432 37.784 558.432 39.832C558.432 41.288 557.472 42.168 556.272 42.44V42.488C557.808 42.744 558.912 43.864 558.912 45.432C558.912 47.944 556.992 49 554.32 49ZM551.616 41.848H554.08C555.264 41.848 556.208 41.384 556.208 40.072C556.208 38.92 555.424 38.36 554.192 38.36H551.616V41.848ZM551.616 47.368H554.192C555.696 47.368 556.64 46.84 556.64 45.288C556.64 43.96 555.696 43.4 554.128 43.4H551.616V47.368ZM561.067 49V36.76H563.307V49H561.067ZM566.243 49V36.76H568.483V47.208H574.035V49H566.243ZM576.122 49V36.76H578.362V47.208H583.914V49H576.122ZM590.944 49H586V36.76H590.992C593.536 36.76 595.056 37.784 595.056 39.832C595.056 41.288 594.096 42.168 592.896 42.44V42.488C594.432 42.744 595.536 43.864 595.536 45.432C595.536 47.944 593.616 49 590.944 49ZM588.24 41.848H590.704C591.888 41.848 592.832 41.384 592.832 40.072C592.832 38.92 592.048 38.36 590.816 38.36H588.24V41.848ZM588.24 47.368H590.816C592.32 47.368 593.264 46.84 593.264 45.288C593.264 43.96 592.32 43.4 590.752 43.4H588.24V47.368ZM597.29 42.92C597.29 38.76 599.722 36.584 602.97 36.584C606.33 36.584 608.65 38.728 608.65 42.92C608.65 47.08 606.282 49.256 602.97 49.256C599.53 49.256 597.29 47.096 597.29 42.92ZM602.954 47.592C604.97 47.592 606.266 45.976 606.266 42.936C606.266 39.848 604.922 38.232 602.954 38.232C600.954 38.232 599.69 39.784 599.69 42.936C599.69 46.008 600.89 47.592 602.954 47.592ZM615.146 38.744C615.13 38.808 614.97 39.544 614.666 40.44L613.386 44.28H616.922L615.642 40.44C615.322 39.496 615.178 38.744 615.178 38.744H615.146ZM618.506 49L617.482 45.96H612.826L611.802 49H609.658L613.962 36.76H616.49L620.842 49H618.506ZM625.033 42.52H627.193C628.441 42.52 629.481 41.944 629.481 40.392C629.481 38.92 628.377 38.36 627.241 38.36H625.033V42.52ZM629.593 49L627.209 44.152H625.033V49H622.793V36.76H627.465C628.281 36.76 629.145 36.904 629.881 37.24C630.985 37.768 631.769 38.712 631.769 40.296C631.769 42.376 630.441 43.288 629.305 43.672V43.704L632.041 49H629.593ZM634.25 49V36.76H638.298C641.802 36.76 644.346 38.488 644.346 42.728C644.346 46.968 641.898 49 638.394 49H634.25ZM636.49 47.272H638.202C640.49 47.272 641.994 46.104 641.994 42.776C641.994 39.624 640.474 38.472 638.298 38.472H636.49V47.272Z" fill="#303A3F"/>
<rect width="166" height="80" transform="translate(684 4)" fill="#F2F5EE"/>
<path d="M720.996 38.264C719.044 38.264 717.796 39.976 717.796 42.936C717.796 45.864 718.98 47.56 720.98 47.56C722.676 47.56 723.524 46.44 723.668 44.968H725.94C725.78 47.48 723.924 49.24 721.012 49.24C717.428 49.24 715.396 47.016 715.396 43C715.396 38.984 717.588 36.568 720.996 36.568C723.668 36.568 725.732 37.976 725.94 40.728H723.636C723.492 39.368 722.564 38.264 720.996 38.264ZM732.533 38.744C732.517 38.808 732.357 39.544 732.053 40.44L730.773 44.28H734.309L733.029 40.44C732.709 39.496 732.565 38.744 732.565 38.744H732.533ZM735.893 49L734.869 45.96H730.213L729.189 49H727.045L731.349 36.76H733.877L738.229 49H735.893ZM747.982 36.76V38.552H744.141V49H741.918V38.552H738.077V36.76H747.982ZM753.337 38.744C753.321 38.808 753.161 39.544 752.857 40.44L751.577 44.28H755.114L753.833 40.44C753.513 39.496 753.369 38.744 753.369 38.744H753.337ZM756.698 49L755.674 45.96H751.017L749.993 49H747.849L752.153 36.76H754.681L759.033 49H756.698ZM760.985 49V36.76H763.225V47.208H768.777V49H760.985ZM769.899 42.92C769.899 38.76 772.331 36.584 775.579 36.584C778.939 36.584 781.259 38.728 781.259 42.92C781.259 47.08 778.891 49.256 775.579 49.256C772.139 49.256 769.899 47.096 769.899 42.92ZM775.563 47.592C777.579 47.592 778.875 45.976 778.875 42.936C778.875 39.848 777.531 38.232 775.563 38.232C773.563 38.232 772.299 39.784 772.299 42.936C772.299 46.008 773.499 47.592 775.563 47.592ZM789.021 38.232C786.845 38.232 785.661 39.96 785.661 42.952C785.661 46.152 786.893 47.592 788.957 47.592C790.861 47.592 791.981 46.456 792.061 44.488L792.077 44.28H788.957V42.6H794.174V49H792.365V47.304H792.317C791.725 48.392 790.525 49.256 788.653 49.256C785.309 49.256 783.293 46.984 783.293 43.016C783.293 39.032 785.645 36.584 789.021 36.584C791.805 36.584 793.597 37.928 793.885 40.296H791.613C791.437 39.048 790.413 38.232 789.021 38.232ZM796.852 44.792V36.76H799.076V43.864C799.076 44.824 799.092 45.944 799.588 46.584C800.084 47.208 800.804 47.48 801.732 47.48C802.692 47.48 803.428 47.208 803.908 46.584C804.42 45.944 804.388 44.824 804.388 43.864V36.76H806.58V44.792C806.58 47.88 804.628 49.24 801.7 49.24C798.772 49.24 796.852 47.896 796.852 44.792ZM809.343 49V36.76H817.327V38.52H811.583V41.992H816.959V43.72H811.583V47.256H817.455V49H809.343Z" fill="#303A3F"/>
<rect width="166" height="80" transform="translate(854 4)" fill="#F2F5EE"/>
<path d="M923.048 49H920.76L917.432 36.76H919.72L921.672 44.328C921.992 45.56 922.056 46.344 922.056 46.344H922.088C922.088 46.344 922.168 45.56 922.504 44.344L924.568 36.76H926.728L928.808 44.328C929.144 45.56 929.272 46.344 929.272 46.344H929.304C929.304 46.344 929.384 45.56 929.688 44.344L931.608 36.76H933.688L930.36 49H928.104L925.976 41.304C925.64 40.072 925.576 39.368 925.576 39.368H925.544C925.544 39.368 925.48 40.072 925.144 41.288L923.048 49ZM935.645 49V36.76H943.629V38.52H937.885V41.992H943.261V43.72H937.885V47.256H943.757V49H935.645ZM951.296 49H946.352V36.76H951.344C953.888 36.76 955.408 37.784 955.408 39.832C955.408 41.288 954.448 42.168 953.248 42.44V42.488C954.784 42.744 955.888 43.864 955.888 45.432C955.888 47.944 953.968 49 951.296 49ZM948.592 41.848H951.056C952.24 41.848 953.184 41.384 953.184 40.072C953.184 38.92 952.4 38.36 951.168 38.36H948.592V41.848ZM948.592 47.368H951.168C952.672 47.368 953.616 46.84 953.616 45.288C953.616 43.96 952.672 43.4 951.104 43.4H948.592V47.368Z" fill="#303A3F"/>
<rect width="166" height="100" transform="translate(4 88)" fill="#F2F5EE"/>
<path d="M89.0764 134.981C89.6738 134.362 90.5054 133.981 91.5167 133.981C93.4823 133.981 94.8468 135.469 96.5998 135.469C98.7034 135.469 99.8653 134.443 100.158 132.442L99.84 132.389C99.7514 132.919 99.4046 133.557 98.7857 133.557C98.2009 133.557 97.5807 133.044 96.677 132.547C95.7733 132.035 94.7392 131.539 93.4456 131.539C91.3673 131.539 89.6105 132.765 88.6131 134.47C88.0474 135.437 87.7259 136.56 87.7259 137.7C87.7259 138.84 87.9335 139.938 88.3423 140.877C89.2776 143.036 91.28 144.461 94.2785 144.461C96.2593 144.461 98.4515 143.675 99.5122 141.717C99.9172 140.969 100.156 140.052 100.156 138.94C100.156 138.143 99.7843 137.42 99.1236 136.879C98.3895 136.274 97.2997 135.895 95.9783 135.895C93.2862 135.895 91.8521 138.143 90.6294 138.143C90.0966 138.143 89.6915 137.561 89.6915 136.994C89.6915 136.934 89.6928 136.877 89.6991 136.822L89.4067 136.772C89.3852 136.895 89.3726 137.022 89.3726 137.152C89.3726 139.053 90.7876 140.268 92.5748 140.268C95.9771 140.268 96.9858 137.489 98.5097 137.489C98.5161 137.489 98.5249 137.49 98.5325 137.49C99.3527 137.501 99.8539 138.134 99.8375 138.942C99.821 139.605 99.4679 140.162 98.6806 140.576C97.7035 141.091 96.0593 141.385 93.5684 141.385C92.0458 141.385 90.1219 141.053 88.9903 139.986C88.4132 139.439 88.041 138.699 88.041 137.709V137.704C88.0436 136.637 88.4144 135.667 89.0739 134.985L89.0764 134.981Z" fill="#231F20"/>
<path d="M68.3997 136.203C67.0923 135.955 66.7556 135.742 66.7556 135.407V135.371C66.7556 135.071 67.0378 134.858 67.6568 134.858C68.806 134.858 70.2021 135.231 71.3704 136.079L73.3854 133.285C71.9526 132.154 70.1844 131.588 67.7973 131.588C64.3849 131.588 62.5458 133.409 62.5458 135.761V135.796C62.5458 138.413 64.9861 139.209 67.7618 139.775C69.0883 140.039 69.4769 140.234 69.4769 140.587V140.623C69.4769 140.959 69.1592 141.153 68.4162 141.153C66.967 141.153 65.4278 140.729 64.0849 139.702L61.875 142.338C63.4483 143.716 65.7114 144.423 68.2225 144.423C71.5463 144.423 73.6866 142.832 73.6866 140.233V140.197C73.6866 137.704 71.5653 136.785 68.3997 136.201V136.203Z" fill="#231F20"/>
<path d="M82.6213 136.185H78.8368V131.818H74.6992V144.196H78.8368V139.757H82.6213V144.196H86.7589V131.818H82.6213V136.185Z" fill="#231F20"/>
<path d="M106.591 131.818H101.022V144.196H105.16V140.835H106.504C109.845 140.835 112.126 139.244 112.126 136.256V136.22C112.126 133.285 109.881 131.817 106.591 131.817V131.818ZM108.042 136.522C108.042 137.405 107.334 137.882 106.274 137.882H105.16V135.124H106.293C107.389 135.124 108.043 135.584 108.043 136.486V136.522H108.042Z" fill="#231F20"/>
<rect x="184" y="98" width="146" height="80" fill="#E40E62" stroke="#F2F5EE" stroke-width="20"/>
<rect x="354" y="98" width="146" height="80" fill="#E40E62" stroke="#F2F5EE" stroke-width="20"/>
<rect x="524" y="98" width="146" height="80" fill="#E40E62" stroke="#F2F5EE" stroke-width="20"/>
<rect x="694" y="98" width="146" height="80" fill="#F8B5CB" stroke="#F2F5EE" stroke-width="20"/>
<rect x="854" y="88" width="166" height="100" fill="#F2F5EE"/>
<rect width="166" height="100" transform="translate(4 192)" fill="#F2F5EE"/>
<path d="M98.6148 241.447C96.3549 241.966 95.673 244.182 96.1752 246.363C96.6755 248.543 98.2575 250.237 100.519 249.718C102.781 249.198 103.463 246.983 102.961 244.802C102.459 242.621 100.879 240.927 98.6168 241.447H98.6148Z" fill="#231F20"/>
<path fill-rule="evenodd" clip-rule="evenodd" d="M112.124 224.36H76.8497V244.172C80.5526 243.347 81.7134 245.677 81.9163 246.561L79.5037 247.168C79.3106 246.328 78.3834 245.996 77.4137 246.218C77.2071 246.266 77.0197 246.326 76.8478 246.397V248.997C77.0776 249.065 77.3114 249.1 77.518 249.119L79.9113 249.318C81.6458 249.463 83.0076 250.137 83.4383 252.012C83.7802 253.5 83.2259 255.972 79.8649 256.745C78.5862 257.038 77.603 257 76.8458 256.774V259.64H112.126V244.099C111.63 244.427 111.062 244.657 110.484 244.788L108.756 245.186L109.777 249.629L107.353 250.187L104.56 238.037L108.518 237.128C109.679 236.861 111.064 236.884 112.124 237.618V224.36ZM92.1401 253.683L90.9793 248.628L85.9378 249.787L87.1006 254.844L84.6765 255.4L81.8834 243.251L84.3056 242.694L85.4395 247.622L90.479 246.461L89.3471 241.534L91.7712 240.975L94.5643 253.125L92.1401 253.683ZM105.48 244.222C106.231 247.487 104.796 251.014 101.014 251.883C97.2337 252.752 94.404 250.204 93.6526 246.942C92.9031 243.68 94.3364 240.152 98.1165 239.281C101.897 238.412 104.728 240.96 105.478 244.222H105.48Z" fill="#231F20"/>
<path d="M108.839 239.233L107.465 239.55L108.286 243.119L109.644 242.807C111.244 242.438 111.392 241.385 111.205 240.578C111.016 239.753 110.228 238.914 108.839 239.233Z" fill="#231F20"/>
<path d="M81.0895 252.876C81.3059 253.813 80.2338 254.485 79.411 254.674V254.672C78.2868 254.931 77.2071 254.699 76.8497 253.558V251.499L79.2912 251.792C80.5873 251.954 80.9408 252.231 81.0895 252.876Z" fill="#231F20"/>
<path d="M69.67 250.322C70.9584 250.027 72.1057 250.152 72.9556 250.577L72.9576 250.573C73.7225 250.956 74.2479 251.574 74.4275 252.352C74.6767 253.436 74.6477 254.384 74.4217 255.205C73.8249 257.351 71.8643 258.607 69.9346 259.051C67.0122 259.723 64.7406 258.783 63.346 256.89C62.7356 256.065 62.2914 255.06 62.0325 253.931C61.7775 252.82 61.8374 251.653 62.1735 250.585C62.7627 248.7 64.1978 247.112 66.226 246.646C67.4854 246.357 68.6057 246.606 69.6005 246.903C69.8777 246.982 70.1335 247.067 70.3706 247.146C70.9829 247.35 71.4709 247.512 71.8817 247.417C72.4843 247.278 72.6775 246.577 72.6466 246.042L72.9692 246.021C73.1314 248.037 72.2274 249.297 70.178 249.768C69.3484 249.959 68.5293 249.787 67.6865 249.611C66.7947 249.423 65.8764 249.231 64.8913 249.457C63.9062 249.685 63.1799 250.243 62.7375 250.979C62.2469 251.792 62.104 252.82 62.3396 253.861V253.867C62.5618 254.831 63.091 255.468 63.7767 255.872C65.1153 256.66 67.0662 256.552 68.5497 256.21C70.9777 255.652 72.5152 254.995 73.3516 254.276C74.0238 253.695 74.244 253.073 74.1127 252.424C73.9485 251.634 73.3188 251.13 72.5152 251.302C72.5094 251.305 72.5017 251.305 72.494 251.305C71.8995 251.443 71.4853 251.996 70.9889 252.659C70.2465 253.65 69.3203 254.887 67.3328 255.344C65.5924 255.744 63.9409 254.879 63.514 253.025C63.4965 252.948 63.4839 252.872 63.4749 252.796C63.4692 252.747 63.4649 252.697 63.4619 252.648L63.7594 252.631C63.7652 252.687 63.7748 252.743 63.7883 252.801C63.9158 253.353 64.4412 253.83 64.9608 253.71C65.4398 253.601 65.8712 253.128 66.3869 252.563C67.1521 251.724 68.1029 250.682 69.67 250.322Z" fill="#231F20"/>
<rect x="184" y="202" width="146" height="80" fill="#009FC2" stroke="#F2F5EE" stroke-width="20"/>
<rect x="354" y="202" width="146" height="80" fill="#009FC2" stroke="#F2F5EE" stroke-width="20"/>
<rect x="524" y="202" width="146" height="80" fill="#009FC2" stroke="#F2F5EE" stroke-width="20"/>
<rect x="694" y="202" width="146" height="80" fill="#F8B5CB" stroke="#F2F5EE" stroke-width="20"/>
<rect x="854" y="192" width="166" height="100" fill="#F2F5EE"/>
<rect width="166" height="100" transform="translate(4 296)" fill="#F2F5EE"/>
<path d="M61.4127 339.64C60.2357 339.64 59.2673 340.082 58.5721 340.803L58.5709 340.799C57.8037 341.592 57.372 342.723 57.3696 343.964V343.971C57.3696 345.123 57.8013 345.985 58.4745 346.622C59.7905 347.865 62.031 348.25 63.8031 348.25C66.7034 348.25 68.617 347.91 69.7537 347.31C70.6697 346.828 71.0807 346.179 71.1002 345.408C71.1197 344.469 70.5367 343.733 69.5818 343.719C69.5767 343.719 69.572 343.719 69.5674 343.718C69.5632 343.717 69.5591 343.717 69.5549 343.717C68.844 343.717 68.2293 344.237 67.4928 344.86C66.3922 345.791 65.0195 346.953 62.6469 346.953C60.5662 346.953 58.9185 345.54 58.9185 343.327C58.9185 343.175 58.9319 343.028 58.9575 342.884L59.299 342.941C59.2917 343.006 59.2893 343.072 59.2893 343.142C59.2893 343.802 59.7613 344.48 60.3808 344.48C60.9539 344.48 61.5667 344.056 62.2989 343.55C63.3851 342.798 64.7341 341.864 66.6059 341.864C68.1463 341.864 69.4147 342.306 70.2684 343.009C71.0368 343.641 71.471 344.482 71.471 345.41C71.471 346.704 71.1917 347.772 70.7197 348.643C69.4854 350.924 66.9315 351.838 64.6264 351.838C61.137 351.838 58.8063 350.177 57.7171 347.665C57.2403 346.572 57 345.293 57 343.967C57 342.641 57.3744 341.334 58.033 340.208C59.1953 338.224 61.2382 336.797 63.658 336.797C65.163 336.797 66.368 337.374 67.4194 337.97C67.7119 338.131 67.9788 338.293 68.2265 338.443C68.87 338.834 69.383 339.146 69.8745 339.146C70.5941 339.146 70.9978 338.403 71.1014 337.786L71.4722 337.848C71.1295 340.177 69.7781 341.371 67.3291 341.371C66.3388 341.371 65.4547 340.963 64.5451 340.543C63.5816 340.098 62.5896 339.64 61.4127 339.64Z" fill="#231F20"/>
<path d="M92.7756 341.252C92.1402 340.718 91.2779 340.492 90.4985 340.492C88.8365 340.492 87.9184 341.41 87.4543 341.874L87.4202 341.908V336.984H84.2601V351.49H87.4202V346.155C87.4202 345.232 87.4202 344.349 87.83 343.795C88.0971 343.446 88.5691 343.179 89.1228 343.179C89.4521 343.179 90.2924 343.281 90.5998 344.245C90.7229 344.615 90.7437 345.024 90.7437 345.887V351.487H93.8818V344.45C93.8818 343.055 93.7184 342.05 92.7744 341.25L92.7756 341.252Z" fill="#231F20"/>
<path d="M79.1144 344.494L79.1138 344.493C78.0891 344.308 77.413 344.186 77.413 343.57C77.413 343.263 77.7009 342.77 78.9315 342.77C79.6706 342.77 80.6146 343.057 81.6196 343.838L83.5685 342.033L83.5297 342.006C82.7769 341.482 81.2676 340.432 78.7876 340.432C75.7922 340.432 74.2725 342.258 74.2725 344.023C74.2725 344.823 74.6006 345.562 75.0738 346.033C75.5458 346.505 76.2019 346.772 76.8581 346.956C77.3301 347.1 77.8216 347.203 78.2948 347.284C78.4211 347.305 78.5527 347.325 78.6861 347.344L78.6902 347.345C79.2049 347.421 79.7466 347.5 80.1206 347.695C80.3048 347.798 80.5317 347.942 80.5317 348.311C80.5317 349.111 79.3828 349.358 78.6229 349.358C77.4326 349.358 76.3666 348.721 75.5043 347.881L73.5139 349.686C74.192 350.322 75.7299 351.758 78.7046 351.758C81.2281 351.758 83.7722 350.527 83.7722 348.003C83.7722 345.478 81.2695 344.884 79.1144 344.494Z" fill="#231F20"/>
<path fill-rule="evenodd" clip-rule="evenodd" d="M94.4477 346.115C94.4477 342.831 96.5199 340.226 100.623 340.452H100.624C104.994 340.698 105.959 344.166 105.959 346.115C105.959 348.824 104.399 351.798 100.213 351.798C97.1968 351.798 94.4477 350.075 94.4477 346.115ZM97.6261 346.093C97.6261 347.796 98.4463 349.294 100.21 349.294C101.914 349.294 102.755 347.92 102.755 346.237C102.755 345.046 102.468 344.123 101.873 343.549C101.217 342.933 100.478 342.912 100.026 342.953C99.1238 343.016 98.5896 343.323 98.1591 344C97.77 344.616 97.6261 345.355 97.6261 346.093Z" fill="#231F20"/>
<path fill-rule="evenodd" clip-rule="evenodd" d="M112.343 340.534C111.153 340.534 110.191 340.964 109.657 341.478C109.623 341.512 109.589 341.548 109.555 341.586C109.486 341.662 109.418 341.744 109.349 341.826V340.82H106.538V355.203H109.718V350.792L109.764 350.821C110.582 351.32 111.196 351.694 112.364 351.694C116.036 351.694 117 348.288 117 346.093C117 342.523 114.969 340.534 112.343 340.534ZM111.749 349.417C111.237 349.417 110.703 349.192 110.333 348.802C109.924 348.35 109.575 347.509 109.575 346.155C109.575 345.149 109.78 344.227 110.231 343.631C110.682 343.017 111.277 342.77 111.852 342.77C111.996 342.77 112.139 342.791 112.284 342.831C113.575 343.159 113.966 344.657 113.966 346.073C113.966 347.756 113.287 349.417 111.749 349.417Z" fill="#231F20"/>
<rect x="184" y="306" width="146" height="80" fill="#009FC2" stroke="#F2F5EE" stroke-width="20"/>
<rect x="354" y="306" width="146" height="80" fill="#009FC2" stroke="#F2F5EE" stroke-width="20"/>
<rect x="524" y="306" width="146" height="80" fill="#009FC2" stroke="#F2F5EE" stroke-width="20"/>
<rect x="684" y="296" width="166" height="100" fill="#F2F5EE"/>
<rect x="854" y="296" width="166" height="100" fill="#F2F5EE"/>
<rect width="166" height="100" transform="translate(4 400)" fill="#F2F5EE"/>
<path fill-rule="evenodd" clip-rule="evenodd" d="M109.649 442.65C113.676 442.65 116.946 445.888 117 449.901C116.999 450.535 116.485 451.05 115.85 451.05L104.941 451.03C105.412 453.197 107.341 454.82 109.649 454.82C111.319 454.82 112.789 453.968 113.653 452.676C113.88 452.336 114.272 452.108 114.712 452.108C115.413 452.108 115.98 452.675 115.98 453.375C115.98 453.662 115.885 453.927 115.724 454.14C114.4 456.079 112.173 457.352 109.649 457.352C106.784 457.352 104.304 455.712 103.09 453.321V456.079C103.09 456.76 102.538 457.313 101.857 457.313C101.176 457.313 100.624 456.76 100.624 456.079C100.624 455.994 100.633 455.91 100.65 455.829V448.483H100.641C100.641 446.622 99.1191 445.111 97.269 445.111C95.4189 445.111 93.9176 446.602 93.8996 448.449H93.9007V456.08C93.9007 456.761 93.3482 457.314 92.6673 457.314C91.9865 457.314 91.4339 456.761 91.4339 456.08V453.196C90.2422 455.634 87.7394 457.314 84.8427 457.314C80.7925 457.314 77.5098 454.031 77.5098 449.981C77.5098 445.931 80.7925 442.648 84.8427 442.648C87.8789 442.648 90.4841 444.494 91.5971 447.125C92.2093 444.559 94.5445 442.651 97.2678 442.651C99.9912 442.651 102.278 444.517 102.922 447.039C104.061 444.455 106.643 442.65 109.649 442.65ZM80.0385 449.981C80.0385 452.633 82.1891 454.785 84.8427 454.785C87.4963 454.785 89.6469 452.633 89.6469 449.981C89.6469 447.328 87.4963 445.177 84.8427 445.177C82.1891 445.177 80.0385 447.328 80.0385 449.981ZM109.649 445.182C107.411 445.182 105.528 446.709 104.987 448.779H114.274C113.808 446.631 111.887 445.182 109.649 445.182Z" fill="#231F20"/>
<path d="M58.0016 447.818C58.445 447.358 59.065 447.074 59.8157 447.074C60.5676 447.074 61.2013 447.367 61.8168 447.651C62.398 447.919 62.9629 448.18 63.5958 448.18C65.16 448.18 66.0243 447.417 66.2426 445.93L66.0063 445.89C65.9399 446.284 65.6822 446.759 65.223 446.759C64.9085 446.759 64.5811 446.56 64.1704 446.31L64.1686 446.309C64.0111 446.214 63.8414 446.11 63.6554 446.008C62.9836 445.627 62.2138 445.259 61.2528 445.259C59.7065 445.259 58.4011 446.17 57.6595 447.439C57.2386 448.158 57 448.993 57 449.84C57 450.688 57.1542 451.505 57.458 452.203C58.1535 453.808 59.6435 454.869 61.8728 454.869C63.3459 454.869 64.9766 454.285 65.7655 452.828C66.0671 452.272 66.2449 451.589 66.2449 450.763C66.2449 450.17 65.968 449.633 65.4762 449.229C64.9304 448.779 64.1202 448.498 63.1366 448.498C61.9406 448.498 61.0788 449.094 60.3848 449.574C59.9171 449.898 59.5257 450.169 59.1596 450.169C58.7635 450.169 58.4618 449.736 58.4618 449.315C58.4618 449.27 58.463 449.228 58.4675 449.186L58.2492 449.149C58.2334 449.242 58.2244 449.335 58.2244 449.432C58.2244 450.846 59.2766 451.749 60.6068 451.749C62.122 451.749 62.9986 451.007 63.7017 450.412C64.1725 450.014 64.5655 449.681 65.0205 449.681C65.0233 449.681 65.0261 449.682 65.0289 449.682L65.0301 449.682C65.0325 449.682 65.0349 449.683 65.0374 449.683C65.6473 449.692 66.0198 450.162 66.0074 450.762C65.9951 451.255 65.7317 451.669 65.1477 451.977C64.4207 452.36 63.1985 452.578 61.3462 452.578C60.2141 452.578 58.7826 452.332 57.9419 451.538C57.512 451.131 57.2363 450.581 57.2363 449.845V449.84C57.2386 449.047 57.5143 448.325 58.0038 447.819L58.0016 447.818Z" fill="#231F20"/>
<path d="M70.8172 450.556H70.016L69.8832 449.71H71.8121V451.951C71.3304 452.265 70.7644 452.439 70.1296 452.439C68.6667 452.439 67.8609 451.483 67.8609 450.055C67.8609 448.627 68.7331 447.66 70.1555 447.66C70.7238 447.66 71.1976 447.793 71.5645 448L71.4114 448.996C71.0648 448.776 70.6563 448.602 70.1837 448.602C69.388 448.602 69.002 449.182 69.002 450.049C69.002 450.917 69.4027 451.524 70.196 451.524C70.4504 451.524 70.6304 451.476 70.8172 451.376V450.556Z" fill="#231F20"/>
<path d="M73.5463 448.947C73.5463 449.181 73.6734 449.294 74.2474 449.515H74.2462C75.2478 449.882 75.6484 450.228 75.6484 450.962C75.6484 451.964 74.9124 452.404 73.9986 452.404C73.3786 452.404 72.8587 452.27 72.3894 452.056L72.5559 451.083C73.0297 451.336 73.5575 451.51 74.0178 451.51C74.3453 451.51 74.5737 451.357 74.5737 451.096C74.5737 450.835 74.4398 450.716 73.7916 450.467C72.871 450.115 72.4704 449.814 72.4704 449.054C72.4704 448.167 73.1648 447.693 74.0448 447.693C74.6457 447.693 75.0329 447.807 75.4346 447.999L75.2602 448.961C74.8472 448.72 74.4083 448.588 74.0605 448.588C73.7128 448.588 73.5463 448.734 73.5463 448.947Z" fill="#231F20"/>
<rect x="184" y="410" width="146" height="80" fill="#F8B5CB" stroke="#F2F5EE" stroke-width="20"/>
<rect x="354" y="410" width="146" height="80" fill="#009FC2" stroke="#F2F5EE" stroke-width="20"/>
<rect x="524" y="410" width="146" height="80" fill="#009FC2" stroke="#F2F5EE" stroke-width="20"/>
<rect x="694" y="410" width="146" height="80" fill="#009FC2" stroke="#F2F5EE" stroke-width="20"/>
<rect x="854" y="400" width="166" height="100" fill="#F2F5EE"/>
<rect width="166" height="100" transform="translate(4 504)" fill="#F2F5EE"/>
<path d="M65.8897 547.963C65.8897 548.322 65.8126 548.619 65.6813 548.861V548.862C65.3388 549.494 64.6306 549.747 63.9909 549.747C63.0232 549.747 62.3767 549.286 62.0738 548.59C61.9416 548.286 61.875 547.931 61.875 547.563C61.875 547.195 61.9792 546.833 62.1616 546.52C62.4848 545.969 63.0511 545.573 63.7227 545.573C64.1405 545.573 64.4743 545.734 64.7666 545.899C64.8458 545.942 64.9181 545.986 64.9853 546.027L64.9875 546.028L64.9886 546.029C65.1681 546.138 65.3107 546.225 65.4478 546.225C65.6476 546.225 65.7604 546.018 65.7884 545.847L65.8917 545.865C65.7971 546.511 65.4218 546.842 64.7425 546.842C64.4674 546.842 64.2219 546.729 63.9694 546.612C63.7021 546.489 63.4268 546.362 63.1004 546.362C62.7742 546.362 62.505 546.484 62.3121 546.684C62.0988 546.904 61.9792 547.218 61.9782 547.562V547.564C61.9782 547.883 62.0979 548.123 62.2851 548.299C62.6498 548.644 63.2711 548.751 63.7632 548.751C64.5679 548.751 65.0986 548.656 65.4141 548.49C65.6678 548.356 65.7826 548.177 65.7875 547.962C65.7933 547.702 65.6302 547.497 65.3658 547.494H65.3581C65.1608 547.494 64.9904 547.638 64.7862 547.811C64.481 548.069 64.1003 548.391 63.4419 548.391C62.8649 548.391 62.4076 547.999 62.4076 547.385C62.4076 547.343 62.4114 547.302 62.4182 547.262L62.5128 547.278C62.5099 547.297 62.5099 547.315 62.5099 547.334C62.5099 547.518 62.6411 547.706 62.8128 547.706C62.9717 547.706 63.1416 547.588 63.3447 547.448C63.6461 547.239 64.0205 546.98 64.5399 546.98C64.9664 546.98 65.3195 547.103 65.5559 547.298C65.7691 547.472 65.8897 547.706 65.8897 547.963Z" fill="#231F20"/>
<path d="M92.1471 547.732H91.5219V547.381H96.3269V547.732H95.9756C94.7445 547.732 94.2177 548.376 94.2177 549.822V561.579H90.1354L82.8701 549.412V558.709C82.8701 560.271 83.6121 561.228 84.823 561.228H85.4868V561.579H80.1743V561.228H80.5458C81.9323 561.228 82.4986 560.486 82.4986 558.709V548.748C82.1272 548.064 81.7374 547.732 81.3659 547.732H80.155V547.381H88.7094L93.8462 556.053V549.802C93.8462 548.474 93.2413 547.732 92.1471 547.732Z" fill="#231F20"/>
<path d="M111.875 555.252C111.543 556.638 111.25 557.381 110.762 558.299C109.746 560.154 108.359 561.228 107.012 561.228H105.312C104.961 561.228 104.746 560.994 104.746 560.584V554.432C105.879 554.647 106.27 554.861 107.031 555.681C107.558 556.248 107.968 556.911 108.242 557.615C108.437 558.103 108.496 558.416 108.515 559.138H108.847V549.608H108.515C108.378 550.525 108.085 551.834 106.64 553.181C105.996 553.787 105.664 553.943 104.745 554.08V548.435C104.745 547.986 104.98 547.732 105.39 547.732H106.952C107.694 547.732 109.511 547.732 110.916 550.681C111.405 551.717 111.542 552.205 111.717 553.494H112.049V547.381H96.7167V547.732H97.9661C98.2787 547.732 98.4939 548.025 98.4939 548.494V560.505C98.4939 560.955 98.2787 561.228 97.9468 561.228H96.7167V561.579H112.126V555.251H111.873L111.875 555.252Z" fill="#231F20"/>
<path fill-rule="evenodd" clip-rule="evenodd" d="M64.4714 554.48C64.4714 550.092 68.0288 546.534 72.4179 546.534C76.807 546.534 80.3644 550.091 80.3644 554.48C80.3644 558.869 76.807 562.427 72.4179 562.427C68.0288 562.427 64.4714 558.868 64.4714 554.48ZM69.807 561.03H75.2324C75.2989 561.03 75.3539 560.975 75.3539 560.909C75.3539 560.842 75.2989 560.787 75.2324 560.787H74.4373C74.2723 560.787 74.1382 560.653 74.1382 560.487V547.966L69.807 549.031C69.7617 549.053 69.7308 549.097 69.7308 549.151C69.7308 549.205 69.7607 549.252 69.807 549.274H70.6542C70.8201 549.274 70.9542 549.408 70.9542 549.574V560.487C70.9542 560.653 70.8201 560.787 70.6542 560.787H69.807C69.7395 560.787 69.6855 560.841 69.6855 560.909C69.6855 560.976 69.7395 561.03 69.807 561.03Z" fill="#231F20"/>
<rect x="184" y="514" width="146" height="80" fill="#E40E62" stroke="#F2F5EE" stroke-width="20"/>
<rect x="354" y="514" width="146" height="80" fill="#E40E62" stroke="#F2F5EE" stroke-width="20"/>
<rect x="524" y="514" width="146" height="80" fill="#F8B5CB" stroke="#F2F5EE" stroke-width="20"/>
<rect x="694" y="514" width="146" height="80" fill="#E40E62" stroke="#F2F5EE" stroke-width="20"/>
<rect x="854" y="504" width="166" height="100" fill="#F2F5EE"/>
<rect width="166" height="100" transform="translate(4 608)" fill="#F2F5EE"/>
<path d="M91.0367 651.46H93.7808V667.464H96.6461V648.536H91.0367V651.46Z" fill="#231F20"/>
<path d="M59.0866 653.136C57.8646 653.136 56.8565 653.597 56.1338 654.346H56.1328C55.3354 655.171 54.8866 656.346 54.8834 657.637V657.643C54.8834 658.842 55.3333 659.738 56.0327 660.4C57.4011 661.692 59.7313 662.093 61.5737 662.093C64.5886 662.093 66.5785 661.738 67.7615 661.116C68.7138 660.614 69.1425 659.94 69.1614 659.138C69.1815 658.161 68.5747 657.395 67.5824 657.381C67.5767 657.381 67.5711 657.38 67.5656 657.38C67.562 657.379 67.5584 657.379 67.555 657.379C66.8154 657.379 66.1759 657.92 65.4097 658.568C64.2651 659.536 62.8378 660.744 60.3717 660.744C58.208 660.744 56.4941 659.274 56.4941 656.972C56.4941 656.814 56.5089 656.662 56.5352 656.512L56.8902 656.572C56.8828 656.64 56.8807 656.708 56.8807 656.781C56.8807 657.466 57.3706 658.171 58.0152 658.171C58.6112 658.171 59.2484 657.73 60.0097 657.204C61.1393 656.422 62.5421 655.451 64.4885 655.451C66.0897 655.451 67.4086 655.911 68.2966 656.643C69.0951 657.299 69.547 658.173 69.547 659.138C69.547 660.483 69.2562 661.595 68.7664 662.5C67.4823 664.871 64.8288 665.822 62.4312 665.822C58.8021 665.822 56.3782 664.096 55.2458 661.483C54.7507 660.347 54.5 659.017 54.5 657.637C54.5 656.257 54.8877 654.899 55.5734 653.728C56.7817 651.664 58.9064 650.18 61.423 650.18C62.9874 650.18 64.2399 650.779 65.3333 651.4C65.6371 651.567 65.9145 651.735 66.1719 651.891C66.8408 652.298 67.3746 652.622 67.8858 652.622C68.6347 652.622 69.054 651.85 69.1614 651.208L69.547 651.272C69.192 653.694 67.7846 654.936 65.2396 654.936C64.2092 654.936 63.2897 654.512 62.3438 654.075C61.3419 653.612 60.3105 653.136 59.0866 653.136Z" fill="#231F20"/>
<path d="M75.6863 658.802H76.9915V660.137C76.6871 660.3 76.3932 660.376 75.9792 660.376C74.6877 660.376 74.0356 659.389 74.0356 657.976C74.0356 656.564 74.6645 655.62 75.9581 655.62C76.7281 655.62 77.3918 655.902 77.9575 656.261L78.2061 654.641C77.6099 654.305 76.8377 654.088 75.9138 654.088C73.5984 654.088 72.1784 655.662 72.1784 657.986C72.1784 660.31 73.491 661.864 75.8707 661.864C76.9041 661.864 77.8247 661.583 78.6085 661.071V657.423H75.4693L75.6853 658.801L75.6863 658.802Z" fill="#231F20"/>
<path d="M82.5757 657.109C81.6402 656.75 81.4348 656.566 81.4348 656.184C81.4348 655.838 81.7055 655.6 82.2723 655.6C82.839 655.6 83.5522 655.816 84.2253 656.209L84.5097 654.642C83.8566 654.328 83.2267 654.144 82.248 654.144C80.8154 654.144 79.6861 654.915 79.6861 656.358C79.6861 657.597 80.3371 658.086 81.8351 658.659C82.8896 659.063 83.1087 659.258 83.1087 659.682C83.1087 660.127 82.7368 660.356 82.2048 660.356C81.4548 660.356 80.5963 660.072 79.8252 659.661L79.5534 661.245C80.3161 661.593 81.163 661.811 82.1722 661.811C83.6607 661.811 84.8563 661.094 84.8563 659.465C84.8563 658.27 84.2042 657.706 82.5757 657.108V657.109Z" fill="#231F20"/>
<path d="M87.6342 648.536H90.4995V664.54H93.1404V667.464H87.6342V648.536Z" fill="#231F20"/>
<path d="M105.582 659.364H105.53L101.571 648.536H98.556V667.464H101.492V655.641H101.545L105.687 667.464H108.519V648.536H105.582V659.364Z" fill="#231F20"/>
<path d="M113.68 659.075V664.634H119.5V667.464H110.428V648.536H119.132V651.367H113.68V656.243H117.875V659.075H113.68Z" fill="#231F20"/>
<rect x="184" y="618" width="146" height="80" fill="#F8B5CB" stroke="#F2F5EE" stroke-width="20"/>
<rect x="354" y="618" width="146" height="80" fill="#009FC2" stroke="#F2F5EE" stroke-width="20"/>
<rect x="524" y="618" width="146" height="80" fill="#009FC2" stroke="#F2F5EE" stroke-width="20"/>
<rect x="684" y="608" width="166" height="100" fill="#F2F5EE"/>
<rect x="854" y="608" width="166" height="100" fill="#F2F5EE"/>
<rect width="166" height="100" transform="translate(4 712)" fill="#F2F5EE"/>
<path d="M58.3446 757.923C57.32 757.923 56.4745 758.309 55.87 758.937L55.8687 758.941C55.1998 759.632 54.8235 760.616 54.8209 761.698V761.703C54.8209 762.708 55.1986 763.46 55.7837 764.014C56.9307 765.095 58.8833 765.431 60.4274 765.431C62.9548 765.431 64.6213 765.134 65.6124 764.612C66.4102 764.192 66.7697 763.626 66.7865 762.954C66.8033 762.133 66.2942 761.493 65.4629 761.481C65.4551 761.481 65.4474 761.48 65.4397 761.48C64.8201 761.48 64.2844 761.933 63.6427 762.476C62.6837 763.288 61.4877 764.3 59.4208 764.3C57.6074 764.3 56.1716 763.068 56.1716 761.14C56.1716 761.006 56.1845 760.879 56.2064 760.753L56.5042 760.803C56.4977 760.86 56.4951 760.918 56.4951 760.977C56.4951 761.552 56.9076 762.142 57.4463 762.142C57.9455 762.142 58.4795 761.773 59.1176 761.332C60.0644 760.677 61.2403 759.864 62.871 759.864C64.2127 759.864 65.3185 760.248 66.0622 760.861C66.7324 761.412 67.11 762.145 67.11 762.953C67.11 764.081 66.8664 765.011 66.4553 765.77C65.3791 767.757 63.1546 768.554 61.1452 768.554C58.1062 768.554 56.075 767.107 55.1251 764.917C54.7101 763.965 54.5 762.85 54.5 761.694C54.5 760.538 54.8261 759.4 55.4009 758.419C56.4126 756.689 58.1938 755.446 60.3024 755.446C61.6144 755.446 62.6635 755.95 63.5799 756.469C63.8351 756.609 64.068 756.75 64.284 756.881C64.8437 757.221 65.2903 757.492 65.7181 757.492C66.3457 757.492 66.6963 756.845 66.7878 756.306L67.11 756.361C66.8123 758.391 65.633 759.431 63.5 759.431C62.6368 759.431 61.8664 759.075 61.0739 758.709C60.2344 758.322 59.3702 757.923 58.3446 757.923Z" fill="#231F20"/>
<path fill-rule="evenodd" clip-rule="evenodd" d="M78.5214 756.773C77.6269 755.93 76.4103 755.465 75.1356 755.465C73.8609 755.465 72.643 755.931 71.7498 756.773C70.5138 757.938 70.4945 759.067 70.4945 761.954C70.4945 764.841 70.5138 765.97 71.7498 767.135C72.6443 767.978 73.8609 768.443 75.1356 768.443C76.4103 768.443 77.6282 767.977 78.5214 767.135C79.7574 765.97 79.7767 764.841 79.7767 761.954C79.7767 759.067 79.7574 757.938 78.5214 756.773ZM77.703 766.598C77.0186 767.244 76.1048 767.584 75.1343 767.584C74.1638 767.584 73.2513 767.244 72.5657 766.598C71.5952 765.684 71.5191 764.697 71.5191 761.954C71.5191 759.212 71.5952 758.226 72.5657 757.31C73.25 756.665 74.1638 756.325 75.1343 756.325C76.1048 756.325 77.0173 756.665 77.703 757.31C78.6735 758.224 78.7495 759.21 78.7495 761.954C78.7495 764.698 78.6735 765.683 77.703 766.598Z" fill="#231F20"/>
<path fill-rule="evenodd" clip-rule="evenodd" d="M87.1875 755.572H82.2229V768.336H83.2501V762.922H87.1875C89.5268 762.922 91.277 761.578 91.277 759.246C91.277 756.915 89.5268 755.571 87.1875 755.571V755.572ZM87.0741 762.062H83.2501V756.433H87.0741C88.9378 756.433 90.2511 757.33 90.2511 759.248C90.2511 761.165 88.9391 762.062 87.0741 762.062Z" fill="#231F20"/>
<path d="M101.472 768.337H93.2541V755.572H101.472V756.433H94.2813V761.471H100.407V762.331H94.2813V767.476H101.472V768.337Z" fill="#231F20"/>
<path d="M112.378 766.634L104.558 755.572H103.531V768.337H104.558V757.24L112.378 768.337H113.405V755.572H112.378V766.634Z" fill="#231F20"/>
<path d="M116.076 758.097H119.5V761.324H116.076V758.097Z" fill="#231F20"/>
<path d="M119.5 762.632H116.076V765.859H119.5V762.632Z" fill="#231F20"/>
<rect x="184" y="722" width="146" height="80" fill="#009FC2" stroke="#F2F5EE" stroke-width="20"/>
<rect x="354" y="722" width="146" height="80" fill="#009FC2" stroke="#F2F5EE" stroke-width="20"/>
<rect x="524" y="722" width="146" height="80" fill="#009FC2" stroke="#F2F5EE" stroke-width="20"/>
<rect x="694" y="722" width="146" height="80" fill="#F8B5CB" stroke="#F2F5EE" stroke-width="20"/>
<rect x="854" y="712" width="166" height="100" fill="#F2F5EE"/>
<rect width="166" height="100" transform="translate(4 816)" fill="#F2F5EE"/>
<path d="M59.1556 865.409H61.5104V866.942C61.5104 869.096 59.8675 870.082 58.3524 870.082C57.1112 870.082 56.4358 869.863 55.7056 869.206C54.4095 868.038 54.0992 865.811 54.0992 863.6C54.0992 860.369 54.7381 856.991 58.3707 856.991C61.4191 856.991 62.1858 859.455 62.3866 860.715H62.5874V857.064H62.3136C62.131 857.301 61.9668 857.447 61.4921 857.447C61.126 857.447 60.8516 857.328 60.5275 857.187C60.0598 856.984 59.4887 856.735 58.3889 856.735C56.527 856.735 55.1945 857.484 54.0992 858.579C53.4603 859.218 52 860.806 52 863.6C52 865.663 52.9127 867.343 54.1175 868.549C55.3588 869.79 56.6365 870.338 58.3524 870.338C59.7746 870.338 60.6175 869.905 61.2609 869.575C61.6581 869.371 61.9792 869.206 62.3136 869.206C62.6787 869.206 62.7882 869.279 63.0437 869.553H63.2628V865.408H64.7231V865.152H59.1541V865.408L59.1556 865.409Z" fill="#231F20"/>
<path d="M89.9701 858.661C89.3692 858.048 88.6862 857.567 87.9195 857.218C87.3719 856.968 86.8137 856.81 86.2463 856.738V856.992C86.8319 857.065 87.3293 857.234 87.7355 857.502C88.2938 857.87 88.7288 858.363 89.0407 858.982C89.3525 859.601 89.5639 860.306 89.675 861.097C89.7845 861.888 89.8408 862.706 89.8408 863.552C89.8408 864.655 89.7678 865.618 89.6202 866.439C89.4727 867.26 89.2278 867.946 88.8855 868.499C88.5417 869.051 88.0975 869.462 87.5514 869.731C87.1742 869.918 86.7376 870.038 86.2447 870.096V870.353C86.8836 870.277 87.4906 870.094 88.0656 869.805C88.8444 869.413 89.5214 868.899 90.0979 868.261C90.6744 867.624 91.1277 866.894 91.4593 866.072C91.7894 865.251 91.9552 864.411 91.9552 863.553C91.9552 862.572 91.7742 861.666 91.4122 860.832C91.0501 859.998 90.5694 859.276 89.9686 858.661H89.9701Z" fill="#231F20"/>
<path d="M120.645 859.09C121.074 859.09 121.428 859.213 121.665 859.41L121.664 859.407C121.878 859.583 121.998 859.817 121.998 860.076C121.998 860.436 121.919 860.735 121.789 860.976C121.445 861.611 120.733 861.866 120.091 861.866C119.119 861.866 118.469 861.404 118.165 860.704C118.033 860.4 117.966 860.044 117.966 859.674C117.966 859.305 118.069 858.94 118.253 858.626C118.577 858.072 119.148 857.675 119.822 857.675C120.242 857.675 120.576 857.837 120.87 858.003C120.951 858.047 121.025 858.092 121.094 858.134C121.273 858.243 121.417 858.33 121.554 858.33C121.755 858.33 121.868 858.123 121.897 857.951L122 857.968C121.904 858.617 121.528 858.95 120.845 858.95C120.569 858.95 120.322 858.836 120.069 858.719C119.8 858.595 119.524 858.468 119.196 858.468C118.869 858.468 118.599 858.591 118.405 858.792C118.192 859.013 118.071 859.327 118.071 859.676C118.071 859.997 118.191 860.237 118.378 860.415C118.745 860.76 119.368 860.868 119.863 860.868C120.67 860.868 121.203 860.774 121.521 860.607C121.776 860.473 121.892 860.292 121.897 860.077C121.903 859.814 121.74 859.609 121.474 859.606H121.466C121.268 859.606 121.096 859.751 120.891 859.925C120.584 860.184 120.201 860.508 119.54 860.508C118.961 860.508 118.501 860.114 118.501 859.496C118.501 859.454 118.504 859.413 118.512 859.373L118.608 859.39C118.605 859.408 118.605 859.426 118.605 859.446C118.605 859.63 118.736 859.819 118.909 859.819C119.069 859.819 119.24 859.701 119.444 859.559C119.747 859.35 120.123 859.09 120.645 859.09Z" fill="#231F20"/>
<path fill-rule="evenodd" clip-rule="evenodd" d="M99.4896 862.33C99.9551 862.557 100.366 862.857 100.722 863.231L100.72 863.228C101.076 863.602 101.358 864.04 101.566 864.542C101.774 865.046 101.879 865.56 101.879 866.124C101.879 866.688 101.771 867.225 101.557 867.733C101.342 868.242 101.052 868.692 100.684 869.084C100.316 869.477 99.8897 869.79 99.406 870.023C98.9222 870.256 98.4111 870.373 97.8711 870.373C97.4543 870.373 97.1014 870.303 96.8139 870.161C96.5264 870.021 96.2906 869.856 96.1065 869.665C95.9225 869.475 95.781 869.279 95.6836 869.077C95.5848 868.874 95.5178 868.713 95.4813 868.59H95.4448V875.008H96.861V875.265H92.4481V875.008H93.8643V862.484H92.4481V862.227H95.4083V863.772H95.4448C95.6274 863.258 95.9316 862.832 96.3545 862.495C96.7774 862.158 97.3265 861.99 98.0004 861.99C98.5267 861.99 99.0241 862.104 99.4896 862.33ZM99.7102 868.976C99.8562 868.61 99.949 868.164 99.9855 867.644V867.642C100.022 867.12 100.04 866.541 100.04 865.903C100.04 865.341 100.01 864.834 99.949 864.387C99.8867 863.94 99.7802 863.556 99.6265 863.237C99.4729 862.919 99.2584 862.674 98.9831 862.502C98.7077 862.332 98.3548 862.245 97.9259 862.245C97.471 862.245 97.0983 862.324 96.8032 862.484C96.5096 862.644 96.2708 862.846 96.0868 863.091C95.9514 863.263 95.8434 863.447 95.7643 863.643C95.6852 863.839 95.6198 864.072 95.5711 864.341C95.5224 864.61 95.4889 864.919 95.4707 865.269C95.4524 865.619 95.4433 866.033 95.4433 866.51C95.4433 866.915 95.4737 867.332 95.5346 867.761C95.5969 868.19 95.7125 868.579 95.8844 868.929C96.0563 869.279 96.2982 869.563 96.6116 869.784C96.9249 870.005 97.3493 870.116 97.8528 870.116C98.3563 870.116 98.7549 870.018 99.0485 869.822C99.3421 869.626 99.5626 869.344 99.7102 868.976Z" fill="#231F20"/>
<path fill-rule="evenodd" clip-rule="evenodd" d="M104.517 865.557H110.18C110.18 864.883 110.066 864.318 109.84 863.865C109.613 863.412 109.33 863.047 108.994 862.771C108.656 862.496 108.293 862.297 107.9 862.174C107.508 862.052 107.14 861.99 106.797 861.99C106.221 861.99 105.682 862.11 105.179 862.348C104.675 862.587 104.237 862.904 103.865 863.296C103.49 863.689 103.197 864.139 102.982 864.649C102.768 865.158 102.661 865.681 102.661 866.221C102.661 866.847 102.765 867.414 102.973 867.922C103.182 868.432 103.475 868.87 103.855 869.236C104.236 869.605 104.686 869.886 105.208 870.082C105.728 870.278 106.295 870.376 106.908 870.376C107.521 870.376 108.02 870.281 108.407 870.091C108.793 869.901 109.099 869.681 109.326 869.43C109.552 869.179 109.718 868.928 109.821 868.675C109.925 868.424 109.996 868.231 110.033 868.096L109.758 868.041C109.709 868.188 109.634 868.378 109.537 868.611C109.438 868.844 109.289 869.074 109.087 869.3C108.884 869.527 108.609 869.72 108.259 869.88C107.909 870.04 107.465 870.119 106.925 870.119C106.385 870.119 105.953 870.003 105.629 869.769C105.304 869.536 105.059 869.243 104.894 868.886C104.729 868.531 104.621 868.132 104.572 867.691C104.523 867.25 104.499 866.827 104.499 866.422C104.499 866.226 104.502 866.063 104.508 865.934C104.514 865.805 104.517 865.68 104.517 865.557ZM104.691 864.14C104.77 863.772 104.89 863.448 105.05 863.165C105.209 862.884 105.424 862.66 105.693 862.495C105.962 862.329 106.306 862.247 106.723 862.247C106.956 862.247 107.173 862.28 107.375 862.348C107.578 862.415 107.75 862.529 107.89 862.689C108.031 862.849 108.141 863.063 108.221 863.333C108.3 863.602 108.341 863.946 108.341 864.363V864.822C108.341 864.969 108.329 865.129 108.305 865.3H104.535C104.56 864.895 104.611 864.509 104.692 864.14H104.691Z" fill="#231F20"/>
<path d="M118.517 862.615C119.026 863.007 119.28 863.632 119.28 864.49L119.277 864.489V869.859H120.693V870.116H116.28V869.859H117.697V863.918C117.697 863.439 117.582 863.047 117.356 862.741C117.129 862.435 116.776 862.281 116.299 862.281C115.906 862.281 115.532 862.367 115.176 862.539C114.822 862.712 114.508 862.951 114.239 863.257C113.97 863.562 113.758 863.924 113.605 864.341C113.451 864.759 113.375 865.213 113.375 865.703V869.859H114.791V870.116H110.378V869.859H111.794V862.484H110.378V862.227H113.338V864.195H113.375C113.449 864.035 113.556 863.833 113.697 863.588C113.839 863.343 114.032 863.104 114.277 862.872C114.522 862.639 114.828 862.44 115.196 862.274C115.564 862.108 116.011 862.026 116.539 862.026C117.348 862.026 118.007 862.222 118.517 862.615Z" fill="#231F20"/>
<path d="M79.7371 860.832C80.1235 859.998 80.6194 859.274 81.2264 858.661L81.2248 858.664C81.8318 858.051 82.5148 857.57 83.2754 857.221C83.8063 856.976 84.3357 856.819 84.8666 856.746V856.995C84.2809 857.068 83.7835 857.237 83.3773 857.505C82.8206 857.873 82.3855 858.366 82.0722 858.985C81.7603 859.604 81.5473 860.309 81.4378 861.1C81.3268 861.891 81.272 862.709 81.272 863.555C81.272 864.658 81.345 865.62 81.4926 866.442C81.6386 867.263 81.8835 867.949 82.2273 868.502C82.5711 869.054 83.0122 869.465 83.5523 869.734C83.9265 869.921 84.3661 870.041 84.8666 870.099V870.357C84.2079 870.286 83.5842 870.108 83.0001 869.825C82.2151 869.445 81.5382 868.938 80.9678 868.307C80.3989 867.676 79.9532 866.945 79.6352 866.118C79.3173 865.29 79.1576 864.435 79.1576 863.553C79.1576 862.574 79.3508 861.665 79.7371 860.832Z" fill="#231F20"/>
<path d="M69.0402 861.996L71.2475 862.688C71.2959 862.703 71.348 862.719 71.4032 862.737C72.3883 863.043 74.3689 863.66 74.3689 866.028C74.3689 868.293 72.6165 870.338 69.7324 870.338C68.7101 870.338 68.272 870.283 67.4323 870.064C67.3171 870.028 67.1934 869.987 67.0659 869.943C66.6683 869.809 66.2352 869.662 65.9172 869.662C65.5522 869.662 65.4609 869.827 65.3696 870.064H65.0958V866.139H65.2966C66.134 870.082 68.3626 870.082 69.7154 870.082H69.7339C72.3077 870.082 72.9649 868.312 72.9649 867.125C72.9649 865.427 71.541 864.734 70.5188 864.423L68.4196 863.784C66.4481 863.182 65.4259 862.233 65.4259 860.572C65.4259 858.363 67.0688 856.738 69.4236 856.738C70.4592 856.738 71.0397 857.003 71.4924 857.21C71.7818 857.342 72.019 857.45 72.2895 857.45C72.5998 857.45 72.6545 857.414 72.8371 857.067H73.0926V860.371H72.8736C72.5815 858.619 71.5045 856.994 69.4236 856.994C68.237 856.994 66.4116 857.56 66.4116 859.495C66.4116 861.065 67.7807 861.594 69.0402 861.996Z" fill="#231F20"/>
<rect x="184" y="826" width="146" height="80" fill="#009FC2" stroke="#F2F5EE" stroke-width="20"/>
<rect x="354" y="826" width="146" height="80" fill="#009FC2" stroke="#F2F5EE" stroke-width="20"/>
<rect x="524" y="826" width="146" height="80" fill="#009FC2" stroke="#F2F5EE" stroke-width="20"/>
<rect x="694" y="826" width="146" height="80" fill="#F8B5CB" stroke="#F2F5EE" stroke-width="20"/>
<rect x="864" y="826" width="146" height="80" fill="#F8B5CB" stroke="#F2F5EE" stroke-width="20"/>
<rect width="166" height="100" transform="translate(4 920)" fill="#F2F5EE"/>
<path d="M61.6613 969.298H61.6599L61.6132 969.295H61.612C60.4944 969.227 59.6133 969.174 58.9746 968.696C58.5999 968.414 58.4184 968.075 58.4184 967.663C58.4184 966.685 59.554 965.976 61.1165 965.976C62.4438 965.976 63.6941 966.403 64.8399 967.247L65.2015 966.734C63.9352 965.88 62.5222 965.428 61.0991 965.428C59.1227 965.428 57.7431 966.369 57.7431 967.714C57.7431 968.434 58.1527 969.008 58.9209 969.372C59.7152 969.729 60.7128 969.796 61.9748 969.881L62.1179 969.891C62.301 969.903 62.489 969.916 62.6834 969.931C64.4783 970.079 65.1173 971.013 65.1173 971.84C65.1173 973.135 63.8074 974.041 61.9327 974.041C60.5647 974.041 59.1125 973.531 57.8158 972.598L57.4411 973.148C58.7858 974.117 60.2264 974.57 61.9501 974.57C64.2227 974.57 65.81 973.462 65.81 971.874C65.81 970.547 64.7179 969.599 62.9608 969.399C62.4995 969.348 62.0733 969.323 61.6613 969.298Z" fill="#231F20"/>
<path d="M52.3629 970.479H54.9129V972.178L54.8679 972.244C54.0764 973.425 52.967 974.024 51.5714 974.024C49.3046 974.024 47.6578 972.334 47.6578 970.009C47.6578 967.683 49.3031 965.976 51.5714 965.976C52.9321 965.976 54.1084 966.585 54.7793 967.62L55.2962 967.256C54.4482 966.092 53.1049 965.43 51.5714 965.43C48.9227 965.43 47 967.356 47 970.01C47 972.664 48.9227 974.571 51.5714 974.571C53.2777 974.571 54.682 973.796 55.5359 972.386V969.95H52.3629V970.479Z" fill="#231F20"/>
<path fill-rule="evenodd" clip-rule="evenodd" d="M74.0249 970.003C74.0249 967.352 75.9577 965.428 78.5948 965.428C81.232 965.428 83.1808 967.353 83.1808 970.003C83.1808 972.652 81.232 974.56 78.5948 974.56C75.9577 974.56 74.0249 972.654 74.0249 970.003ZM75.1561 970.003C75.1561 972.072 76.6301 973.542 78.5948 973.542C80.5756 973.542 82.0336 972.071 82.0336 970.003C82.0336 967.935 80.5596 966.447 78.5948 966.447C76.6301 966.447 75.1561 967.933 75.1561 970.003Z" fill="#231F20"/>
<path fill-rule="evenodd" clip-rule="evenodd" d="M92.951 965.622H87.8902V974.333H88.988V970.519H93.0991C94.7531 970.519 95.7188 969.435 95.7188 967.981C95.7188 966.526 94.6863 965.62 92.951 965.62V965.622ZM92.8856 969.501H88.988V966.624H92.935C93.9995 966.624 94.5731 967.172 94.5731 968.078C94.5731 968.984 93.9995 969.5 92.8856 969.5V969.501Z" fill="#231F20"/>
<path d="M104.468 970.18H100.931V973.332H107.137V974.333H99.8328V965.622H106.777V966.625H100.931V969.179H104.468V970.18Z" fill="#231F20"/>
<path d="M117.882 972.137L112.15 965.622H111.577V974.333H112.674V967.82L118.424 974.333H118.98V965.622H117.882V972.137Z" fill="#231F20"/>
<path d="M125.976 972.26C126.302 972.26 126.569 972.352 126.749 972.498L126.746 972.499C126.909 972.631 127 972.806 127 972.999C127 973.267 126.94 973.491 126.842 973.671C126.58 974.146 126.043 974.336 125.557 974.336C124.822 974.336 124.329 973.991 124.1 973.468C124 973.24 123.949 972.975 123.949 972.698C123.949 972.422 124.027 972.149 124.167 971.916C124.412 971.503 124.844 971.206 125.353 971.206C125.67 971.206 125.924 971.325 126.146 971.45C126.207 971.483 126.263 971.517 126.314 971.548C126.45 971.63 126.559 971.695 126.663 971.695C126.814 971.695 126.9 971.542 126.922 971.413L127 971.426C126.929 971.91 126.643 972.158 126.127 972.158C125.918 972.158 125.732 972.073 125.54 971.986C125.337 971.893 125.128 971.798 124.88 971.798C124.633 971.798 124.428 971.89 124.282 972.041C124.119 972.205 124.027 972.44 124.027 972.7C124.027 972.939 124.117 973.12 124.26 973.251C124.537 973.509 125.011 973.59 125.384 973.59C125.995 973.59 126.399 973.518 126.638 973.393C126.832 973.293 126.919 973.158 126.923 972.998C126.926 972.803 126.804 972.65 126.602 972.647H126.596C126.446 972.647 126.316 972.755 126.161 972.885C125.929 973.079 125.64 973.32 125.14 973.32C124.701 973.32 124.354 973.025 124.354 972.565C124.354 972.533 124.357 972.503 124.363 972.473L124.435 972.485C124.434 972.498 124.434 972.512 124.434 972.526C124.434 972.664 124.533 972.804 124.663 972.804C124.785 972.804 124.914 972.716 125.068 972.61C125.297 972.454 125.582 972.26 125.976 972.26Z" fill="#231F20"/>
<rect x="184" y="930" width="146" height="80" fill="#F8B5CB" stroke="#F2F5EE" stroke-width="20"/>
<rect x="354" y="930" width="146" height="80" fill="#F8B5CB" stroke="#F2F5EE" stroke-width="20"/>
<rect x="524" y="930" width="146" height="80" fill="#F8B5CB" stroke="#F2F5EE" stroke-width="20"/>
<rect x="694" y="930" width="146" height="80" fill="#F8B5CB" stroke="#F2F5EE" stroke-width="20"/>
<rect x="854" y="920" width="166" height="100" fill="#F2F5EE"/>
<rect width="1016" height="80" transform="translate(4 1024)" fill="#F2F5EE"/>
<rect width="24" height="24" transform="translate(50 1052)" fill="#009FC2"/>
<path d="M83.664 1069V1056.76H85.568L91.008 1065.86C91.424 1066.54 91.632 1067.06 91.632 1067.06H91.68V1056.76H93.088V1069H91.184L85.76 1059.91C85.28 1059.11 85.12 1058.73 85.12 1058.73H85.088V1069H83.664ZM100.703 1058.25C100.671 1058.33 100.447 1059.08 100.207 1059.77L98.6867 1064.15H102.751L101.215 1059.77C100.959 1059.03 100.735 1058.25 100.735 1058.25H100.703ZM104.447 1069L103.167 1065.35H98.2708L97.0067 1069H95.5187L99.8707 1056.76H101.631L106.031 1069H104.447ZM108.484 1069V1056.76H109.972V1069H108.484ZM113.472 1069V1056.76H114.96V1067.67H121.04V1069H113.472ZM123.273 1069V1056.76H131.097V1058.09H124.761V1062.17H130.585V1063.46H124.761V1067.67H131.177V1069H123.273ZM134.261 1069V1056.76H138.021C141.365 1056.76 143.941 1058.39 143.941 1062.73C143.941 1067.03 141.541 1069 138.197 1069H134.261ZM135.749 1067.72H138.021C140.613 1067.72 142.389 1066.38 142.389 1062.78C142.389 1059.35 140.581 1058.04 138.117 1058.04H135.749V1067.72ZM151.362 1069V1056.76H152.85V1069H151.362ZM164.894 1056.76V1058.06H160.654V1069H159.166V1058.06H154.926V1056.76H164.894ZM166.899 1065.21L166.723 1056.39H168.355L168.163 1065.21H166.899ZM168.483 1069H166.595V1067.11H168.483V1069Z" fill="#303A3F"/>
<rect width="24" height="24" transform="translate(210 1052)" fill="#F8B5CB"/>
<path d="M251.872 1060.04H250.352C250.208 1058.84 249.52 1057.77 247.808 1057.77C246.144 1057.77 245.248 1058.71 245.248 1059.88C245.248 1061 245.856 1061.64 247.296 1061.91L249.024 1062.22C251.408 1062.65 252.24 1063.82 252.24 1065.56C252.24 1067.8 250.72 1069.24 247.792 1069.24C244.96 1069.24 243.344 1067.72 243.216 1065.56H244.768C244.944 1066.87 245.856 1068.04 247.824 1068.04C250 1068.04 250.72 1066.98 250.72 1065.69C250.72 1064.63 250.144 1063.9 248.64 1063.64L246.928 1063.34C244.528 1062.89 243.68 1061.61 243.68 1060.01C243.68 1058.02 245.312 1056.58 247.824 1056.58C250.416 1056.58 251.76 1057.96 251.872 1060.04ZM254.67 1062.92C254.67 1058.54 257.23 1056.58 260.142 1056.58C263.118 1056.58 265.662 1058.54 265.662 1062.92C265.662 1067.29 263.134 1069.26 260.142 1069.26C257.134 1069.26 254.67 1067.29 254.67 1062.92ZM260.142 1068.06C262.446 1068.06 264.094 1066.23 264.094 1062.94C264.094 1059.58 262.494 1057.77 260.142 1057.77C257.854 1057.77 256.238 1059.48 256.238 1062.94C256.238 1066.28 257.806 1068.06 260.142 1068.06ZM270.066 1062.58H272.882C274.322 1062.58 275.394 1061.9 275.394 1060.22C275.394 1058.71 274.354 1057.98 272.946 1057.98H270.066V1062.58ZM275.314 1069L272.786 1063.82H270.066V1069H268.578V1056.76H273.01C273.906 1056.76 274.706 1056.95 275.378 1057.3C276.354 1057.85 276.962 1058.79 276.962 1060.2C276.962 1062.5 275.458 1063.29 274.338 1063.58V1063.61L277.042 1069H275.314ZM288.672 1056.76V1058.06H284.432V1069H282.944V1058.06H278.704V1056.76H288.672ZM294.105 1058.25C294.073 1058.33 293.849 1059.08 293.609 1059.77L292.089 1064.15H296.153L294.617 1059.77C294.361 1059.03 294.137 1058.25 294.137 1058.25H294.105ZM297.849 1069L296.569 1065.35H291.673L290.409 1069H288.921L293.273 1056.76H295.033L299.433 1069H297.849ZM306.405 1069V1056.76H308.309L313.749 1065.86C314.165 1066.54 314.373 1067.06 314.373 1067.06H314.421V1056.76H315.829V1069H313.925L308.501 1059.91C308.021 1059.11 307.861 1058.73 307.861 1058.73H307.829V1069H306.405ZM323.444 1058.25C323.412 1058.33 323.188 1059.08 322.948 1059.77L321.428 1064.15H325.492L323.956 1059.77C323.7 1059.03 323.476 1058.25 323.476 1058.25H323.444ZM327.188 1069L325.908 1065.35H321.012L319.748 1069H318.26L322.612 1056.76H324.372L328.772 1069H327.188ZM331.225 1069V1056.76H332.713V1069H331.225ZM336.213 1069V1056.76H337.701V1067.67H343.781V1069H336.213ZM346.014 1069V1056.76H353.838V1058.09H347.502V1062.17H353.326V1063.46H347.502V1067.67H353.918V1069H346.014ZM357.002 1069V1056.76H360.762C364.106 1056.76 366.682 1058.39 366.682 1062.73C366.682 1067.03 364.282 1069 360.938 1069H357.002ZM358.49 1067.72H360.762C363.354 1067.72 365.13 1066.38 365.13 1062.78C365.13 1059.35 363.322 1058.04 360.858 1058.04H358.49V1067.72ZM374.103 1069V1056.76H375.591V1069H374.103ZM387.636 1056.76V1058.06H383.396V1069H381.908V1058.06H377.668V1056.76H387.636ZM395.241 1059.56C395.241 1058.36 394.393 1057.5 393.081 1057.5C391.497 1057.5 390.569 1058.52 390.601 1060.38H389.241C389.161 1057.9 390.729 1056.25 393.049 1056.25C395.561 1056.25 396.665 1057.88 396.665 1059.43C396.665 1061.11 395.785 1061.91 394.921 1062.65L394.329 1063.16C393.689 1063.74 393.465 1063.82 393.465 1064.58V1065.37H392.153V1064.34C392.153 1063.26 392.489 1063.06 393.369 1062.31L394.153 1061.64C394.857 1061.06 395.241 1060.46 395.241 1059.56ZM393.737 1069H391.849V1067.11H393.737V1069Z" fill="#303A3F"/>
<rect width="24" height="24" transform="translate(438 1052)" fill="#E40E62"/>
<path d="M479.872 1060.04H478.352C478.208 1058.84 477.52 1057.77 475.808 1057.77C474.144 1057.77 473.248 1058.71 473.248 1059.88C473.248 1061 473.856 1061.64 475.296 1061.91L477.024 1062.22C479.408 1062.65 480.24 1063.82 480.24 1065.56C480.24 1067.8 478.72 1069.24 475.792 1069.24C472.96 1069.24 471.344 1067.72 471.216 1065.56H472.768C472.944 1066.87 473.856 1068.04 475.824 1068.04C478 1068.04 478.72 1066.98 478.72 1065.69C478.72 1064.63 478.144 1063.9 476.64 1063.64L474.928 1063.34C472.528 1062.89 471.68 1061.61 471.68 1060.01C471.68 1058.02 473.312 1056.58 475.824 1056.58C478.416 1056.58 479.76 1057.96 479.872 1060.04ZM483.246 1069V1056.76H491.07V1058.09H484.734V1062.17H490.558V1063.46H484.734V1067.67H491.15V1069H483.246ZM494.234 1069V1056.76H502.058V1058.09H495.722V1062.17H501.546V1063.46H495.722V1067.67H502.138V1069H494.234ZM505.222 1069V1056.76H507.126L512.566 1065.86C512.982 1066.54 513.19 1067.06 513.19 1067.06H513.238V1056.76H514.646V1069H512.742L507.318 1059.91C506.838 1059.11 506.678 1058.73 506.678 1058.73H506.646V1069H505.222ZM522.62 1069V1056.76H524.108V1069H522.62ZM536.152 1056.76V1058.06H531.912V1069H530.424V1058.06H526.184V1056.76H536.152ZM547.189 1069H542.741V1056.76H547.557C549.653 1056.76 551.333 1057.74 551.333 1059.74C551.333 1061.22 550.501 1062.15 549.093 1062.47V1062.5C550.629 1062.76 551.717 1063.98 551.717 1065.45C551.717 1068.2 549.653 1069 547.189 1069ZM544.229 1061.91H547.285C548.581 1061.91 549.781 1061.45 549.781 1059.88C549.781 1058.55 548.837 1057.96 547.477 1057.96H544.229V1061.91ZM544.229 1067.8H547.205C548.997 1067.8 550.165 1067.19 550.165 1065.35C550.165 1063.74 549.013 1063.14 547.077 1063.14H544.229V1067.8ZM554.385 1069V1056.76H562.209V1058.09H555.873V1062.17H561.697V1063.46H555.873V1067.67H562.289V1069H554.385ZM566.861 1063.8V1069H565.373V1056.76H572.685V1058.09H566.861V1062.5H572.189V1063.8H566.861ZM574.707 1062.92C574.707 1058.54 577.267 1056.58 580.179 1056.58C583.155 1056.58 585.699 1058.54 585.699 1062.92C585.699 1067.29 583.171 1069.26 580.179 1069.26C577.171 1069.26 574.707 1067.29 574.707 1062.92ZM580.179 1068.06C582.483 1068.06 584.131 1066.23 584.131 1062.94C584.131 1059.58 582.531 1057.77 580.179 1057.77C577.891 1057.77 576.275 1059.48 576.275 1062.94C576.275 1066.28 577.843 1068.06 580.179 1068.06ZM590.103 1062.58H592.919C594.359 1062.58 595.431 1061.9 595.431 1060.22C595.431 1058.71 594.391 1057.98 592.983 1057.98H590.103V1062.58ZM595.351 1069L592.823 1063.82H590.103V1069H588.615V1056.76H593.047C593.943 1056.76 594.743 1056.95 595.415 1057.3C596.391 1057.85 596.999 1058.79 596.999 1060.2C596.999 1062.5 595.495 1063.29 594.375 1063.58V1063.61L597.079 1069H595.351ZM599.853 1069V1056.76H607.677V1058.09H601.341V1062.17H607.165V1063.46H601.341V1067.67H607.757V1069H599.853ZM610.778 1065.21L610.602 1056.39H612.234L612.042 1065.21H610.778ZM612.362 1069H610.474V1067.11H612.362V1069Z" fill="#303A3F"/>
<rect x="655" y="1053" width="22" height="22" fill="#F2F5EE"/>
<rect x="655" y="1053" width="22" height="22" stroke="#222222" stroke-width="2"/>
<path d="M691.824 1058.25C691.792 1058.33 691.568 1059.08 691.328 1059.77L689.808 1064.15H693.872L692.336 1059.77C692.08 1059.03 691.856 1058.25 691.856 1058.25H691.824ZM695.568 1069L694.288 1065.35H689.392L688.128 1069H686.64L690.992 1056.76H692.752L697.152 1069H695.568ZM701.093 1062.58H703.909C705.349 1062.58 706.421 1061.9 706.421 1060.22C706.421 1058.71 705.381 1057.98 703.973 1057.98H701.093V1062.58ZM706.341 1069L703.813 1063.82H701.093V1069H699.605V1056.76H704.037C704.933 1056.76 705.733 1056.95 706.405 1057.3C707.381 1057.85 707.989 1058.79 707.989 1060.2C707.989 1062.5 706.485 1063.29 705.365 1063.58V1063.61L708.069 1069H706.341ZM710.843 1069V1056.76H718.667V1058.09H712.331V1062.17H718.155V1063.46H712.331V1067.67H718.747V1069H710.843ZM730.431 1069H728.783L725.279 1056.76H726.799L729.199 1065.43C729.535 1066.66 729.631 1067.38 729.631 1067.38H729.663C729.663 1067.38 729.759 1066.66 730.079 1065.45L732.431 1056.76H734.159L736.527 1065.43C736.879 1066.66 736.975 1067.38 736.975 1067.38H737.007C737.007 1067.38 737.087 1066.66 737.423 1065.45L739.807 1056.76H741.263L737.759 1069H736.095L733.695 1060.47C733.343 1059.24 733.263 1058.5 733.263 1058.5H733.231C733.231 1058.5 733.135 1059.24 732.799 1060.46L730.431 1069ZM743.683 1069V1056.76H751.507V1058.09H745.171V1062.17H750.995V1063.46H745.171V1067.67H751.587V1069H743.683ZM759.19 1069V1056.76H767.014V1058.09H760.678V1062.17H766.502V1063.46H760.678V1067.67H767.094V1069H759.19ZM773.398 1069L768.998 1056.76H770.582L773.734 1065.77C774.15 1067.02 774.262 1067.67 774.262 1067.67H774.294C774.294 1067.67 774.422 1067.02 774.838 1065.8L777.974 1056.76H779.478L775.126 1069H773.398ZM781.948 1069V1056.76H789.772V1058.09H783.436V1062.17H789.26V1063.46H783.436V1067.67H789.852V1069H781.948ZM792.936 1069V1056.76H794.84L800.28 1065.86C800.696 1066.54 800.904 1067.06 800.904 1067.06H800.952V1056.76H802.36V1069H800.456L795.032 1059.91C794.552 1059.11 794.392 1058.73 794.392 1058.73H794.36V1069H792.936ZM810.334 1069V1056.76H814.094C817.438 1056.76 820.014 1058.39 820.014 1062.73C820.014 1067.03 817.614 1069 814.27 1069H810.334ZM811.822 1067.72H814.094C816.686 1067.72 818.462 1066.38 818.462 1062.78C818.462 1059.35 816.654 1058.04 814.19 1058.04H811.822V1067.72ZM822.418 1062.92C822.418 1058.54 824.978 1056.58 827.89 1056.58C830.866 1056.58 833.41 1058.54 833.41 1062.92C833.41 1067.29 830.882 1069.26 827.89 1069.26C824.882 1069.26 822.418 1067.29 822.418 1062.92ZM827.89 1068.06C830.194 1068.06 831.842 1066.23 831.842 1062.94C831.842 1059.58 830.242 1057.77 827.89 1057.77C825.602 1057.77 823.986 1059.48 823.986 1062.94C823.986 1066.28 825.554 1068.06 827.89 1068.06ZM836.326 1069V1056.76H837.814V1069H836.326ZM841.314 1069V1056.76H843.218L848.658 1065.86C849.074 1066.54 849.282 1067.06 849.282 1067.06H849.33V1056.76H850.738V1069H848.834L843.41 1059.91C842.93 1059.11 842.77 1058.73 842.77 1058.73H842.738V1069H841.314ZM859.201 1057.77C856.545 1057.77 855.185 1059.85 855.185 1062.98C855.185 1066.23 856.561 1068.04 859.041 1068.04C861.361 1068.04 862.737 1066.71 862.737 1064.31V1064.14H859.201V1062.82H864.193V1069H862.897V1067.24H862.833C862.257 1068.31 860.993 1069.26 859.009 1069.26C855.921 1069.26 853.617 1067.24 853.617 1062.94C853.617 1058.94 856.033 1056.58 859.201 1056.58C861.713 1056.58 863.521 1057.85 863.825 1060.01H862.273C862.065 1058.62 860.801 1057.77 859.201 1057.77ZM872.122 1069V1056.76H873.61V1069H872.122ZM885.654 1056.76V1058.06H881.414V1069H879.926V1058.06H875.686V1056.76H885.654ZM893.26 1059.56C893.26 1058.36 892.412 1057.5 891.1 1057.5C889.516 1057.5 888.588 1058.52 888.62 1060.38H887.26C887.18 1057.9 888.748 1056.25 891.068 1056.25C893.58 1056.25 894.684 1057.88 894.684 1059.43C894.684 1061.11 893.804 1061.91 892.94 1062.65L892.348 1063.16C891.708 1063.74 891.484 1063.82 891.484 1064.58V1065.37H890.172V1064.34C890.172 1063.26 890.508 1063.06 891.388 1062.31L892.172 1061.64C892.876 1061.06 893.26 1060.46 893.26 1059.56ZM891.756 1069H889.868V1067.11H891.756V1069Z" fill="#303A3F"/>
</svg>
