<svg width="2000" height="2320" viewBox="0 0 2000 2320" fill="none" xmlns="http://www.w3.org/2000/svg">
<rect width="2000" height="2320" fill="white"/>
<rect width="2000" height="800" fill="#443E2D"/>
<path d="M1149.35 370.02C1149.36 387.357 1147.39 402.09 1141.08 408.141C1141.08 408.141 1139.12 410.11 1136.07 411.246C1135.86 411.327 1135.71 411.528 1135.71 411.769C1135.71 412.07 1135.96 412.322 1136.26 412.322C1136.32 412.322 1136.37 412.322 1136.43 412.291C1153.27 406.935 1163.62 391.166 1163.68 370.02C1163.74 348.864 1153.28 333.115 1136.43 327.749C1136.38 327.739 1136.32 327.729 1136.26 327.729C1135.96 327.729 1135.71 327.98 1135.71 328.281C1135.71 328.523 1135.86 328.724 1136.07 328.804C1139.12 329.94 1141.08 331.909 1141.08 331.909C1147.39 337.96 1149.33 352.683 1149.35 370.03M1096.52 370.02C1096.51 387.357 1098.48 402.09 1104.79 408.141C1104.79 408.141 1106.75 410.11 1109.81 411.246C1110.02 411.327 1110.17 411.528 1110.17 411.769C1110.17 412.07 1109.92 412.322 1109.62 412.322C1109.57 412.322 1109.51 412.322 1109.46 412.291C1092.62 406.935 1082.27 391.166 1082.21 370.02C1082.15 348.864 1092.61 333.115 1109.46 327.749C1109.51 327.739 1109.57 327.729 1109.62 327.729C1109.92 327.729 1110.17 327.98 1110.17 328.281C1110.17 328.523 1110.02 328.724 1109.81 328.804C1106.76 329.94 1104.79 331.909 1104.79 331.909C1098.48 337.96 1096.54 352.683 1096.52 370.03" fill="#BED730"/>
<path d="M806.775 412.834C780.584 412.834 766.111 395.608 766.111 370.131C766.111 344.653 781.78 327.186 807.257 327.186C817.428 327.186 825.92 329.578 832.493 333.286L829.739 351.115C823.518 347.166 816.222 344.06 807.729 344.06C793.498 344.06 786.564 354.593 786.564 370.02C786.564 385.447 793.739 396.452 807.971 396.452C812.513 396.452 815.739 395.618 819.096 393.829V379.115H804.744L802.353 363.919H836.925V404.11C828.312 409.739 818.141 412.844 806.785 412.844" fill="white"/>
<path d="M875.539 412.231C864.413 412.231 855.086 409.839 846.715 406.01L849.699 388.542C858.192 393.085 867.639 396.201 875.9 396.201C881.76 396.201 885.83 393.688 885.83 388.784C885.83 383.879 883.438 381.959 871.84 377.537C855.338 371.196 848.162 365.819 848.162 352.181C848.162 336.271 860.604 327.779 876.393 327.779C887.157 327.779 894.101 329.809 901.267 333.276L898.162 350.502C890.745 346.191 882.976 343.809 876.634 343.809C870.292 343.809 867.418 346.442 867.418 350.271C867.418 354.452 869.689 356.492 879.981 360.442C897.921 367.025 905.096 373.236 905.096 386.402C905.096 404.341 891.941 412.241 875.549 412.241" fill="white"/>
<path d="M961.92 412.231C950.794 412.231 941.468 409.839 933.096 406.01L936.081 388.542C944.573 393.085 954.03 396.201 962.282 396.201C968.141 396.201 972.211 393.688 972.211 388.784C972.211 383.879 969.819 381.959 958.211 377.537C941.709 371.196 934.533 365.819 934.533 352.181C934.533 336.271 946.975 327.779 962.764 327.779C973.528 327.779 980.473 329.809 987.638 333.276L984.533 350.502C977.116 346.191 969.347 343.809 963.005 343.809C956.664 343.809 953.799 346.442 953.799 350.271C953.799 354.452 956.071 356.492 966.362 360.442C984.302 367.025 991.478 373.236 991.478 386.402C991.478 404.341 978.322 412.241 961.93 412.241" fill="white"/>
<path d="M1050.48 411.276V377.547H1021.9V411.276H1001.45V328.743H1021.9V359.608H1050.48V328.743H1070.95V411.276H1050.48Z" fill="white"/>
<path d="M1200.28 344.18H1195.14V368.462H1199.92C1209.02 368.462 1214.04 364.512 1214.04 356.02C1214.04 348.13 1209.38 344.18 1200.29 344.18M1200.64 383.889H1195.38V411.286H1174.92V328.753H1201.48C1221.57 328.753 1233.89 337.728 1233.89 355.668C1233.89 373.607 1220.61 383.899 1200.63 383.899" fill="white"/>
<path d="M949.247 465.246C940.483 465.246 934.785 458.502 934.785 448.864C934.785 439.226 940.704 432.382 949.016 432.382C952.684 432.382 955.76 433.387 958.192 435.135L957.78 437.527C955.388 435.598 952.544 434.362 948.966 434.362C941.81 434.362 937.076 440.191 937.076 448.824C937.076 457.457 941.76 463.286 949.328 463.286C952.493 463.286 954.925 462.462 957.227 460.945V450.573H949.328L949.006 448.603H959.428V461.96C956.353 464.02 953.227 465.266 949.237 465.266L949.247 465.246ZM981.79 453.859H966.554C966.554 459.367 969.127 463.226 973.941 463.226C976.554 463.226 979.307 461.849 981.428 459.919L981.75 461.939C979.78 463.728 976.925 465.105 973.85 465.105C968.162 465.105 964.353 460.884 964.353 453.859C964.353 446.834 968.302 442.613 973.528 442.613C979.036 442.613 981.79 447.427 981.79 453.397V453.859ZM973.528 444.402C969.448 444.402 967.147 447.568 966.644 452.07H979.498C979.358 447.849 977.297 444.402 973.528 444.402Z" fill="#BED730"/>
<path d="M991.89 465.015C988.815 465.015 986.795 463.728 986.795 460.1V444.904H983.448V443.065H986.795V435.397L988.956 434.935V443.055H994.232L994.503 444.894H988.945V459.718C988.945 462.241 989.951 463.115 992.342 463.115C993.036 463.115 993.991 462.934 994.503 462.794L994.825 464.543C994.272 464.774 993.076 465.005 991.89 465.005V465.015Z" fill="#BED730"/>
<path d="M1014.47 465.015C1011.4 465.015 1009.38 463.729 1009.38 460.1V444.904H1006.03V443.065H1009.38V435.397L1011.54 434.935V443.055H1016.81L1017.09 444.894H1011.53V459.719C1011.53 462.241 1012.53 463.116 1014.93 463.116C1015.61 463.116 1016.57 462.935 1017.09 462.794L1017.41 464.543C1016.85 464.774 1015.66 465.005 1014.47 465.005V465.015ZM1035.41 464.643V449.638C1035.41 446.382 1033.85 444.593 1030.77 444.593C1028.39 444.593 1025.91 445.97 1023.2 448.492V464.653H1021.04V432.291L1023.2 431.829V446.291C1025.81 444.04 1028.15 442.623 1031 442.623C1035.45 442.623 1037.56 445.105 1037.56 449.367V464.653H1035.4L1035.41 464.643Z" fill="#BED730"/>
<path d="M1059.28 453.859H1044.04C1044.04 459.366 1046.61 463.226 1051.43 463.226C1054.04 463.226 1056.79 461.849 1058.91 459.919L1059.23 461.939C1057.26 463.728 1054.4 465.105 1051.33 465.105C1045.64 465.105 1041.83 460.884 1041.83 453.859C1041.83 446.834 1045.78 442.613 1051.01 442.613C1056.51 442.613 1059.27 447.427 1059.27 453.396V453.859H1059.28ZM1051.02 444.401C1046.94 444.401 1044.63 447.567 1044.13 452.07H1056.99C1056.84 447.849 1054.78 444.401 1051.02 444.401Z" fill="#BED730"/>
<path d="M1075.35 450.462V464.643H1073.19V443.075H1074.61L1075.31 447.577C1076.96 445.145 1079.49 442.663 1083.07 442.623L1083.44 444.643C1079.9 444.874 1076.82 447.577 1075.36 450.472L1075.35 450.462ZM1102.01 453.859H1086.77C1086.77 459.366 1089.35 463.226 1094.16 463.226C1096.77 463.226 1099.53 461.849 1101.64 459.919L1101.96 461.939C1099.99 463.728 1097.15 465.105 1094.07 465.105C1088.38 465.105 1084.57 460.884 1084.57 453.859C1084.57 446.834 1088.52 442.613 1093.75 442.613C1099.26 442.613 1102.01 447.427 1102.01 453.396V453.859ZM1093.75 444.401C1089.67 444.401 1087.37 447.567 1086.87 452.07H1099.72C1099.58 447.849 1097.52 444.401 1093.75 444.401Z" fill="#BED730"/>
<path d="M1119.73 464.643L1119.23 461.749C1116.98 463.719 1114.31 465.096 1111.61 465.096C1107.98 465.096 1105.1 463.257 1105.1 459.357C1105.1 454.533 1108.76 451.97 1119.14 451.005V449.126C1119.14 446.101 1117.35 444.623 1114.36 444.623C1111.88 444.623 1109.36 445.317 1106.98 446.553L1106.7 444.533C1109.14 443.427 1111.62 442.653 1114.46 442.653C1118.87 442.653 1121.26 444.905 1121.26 449.035V464.643H1119.73ZM1119.14 452.804C1110.23 453.769 1107.3 455.648 1107.3 459.186C1107.3 461.94 1109.27 463.226 1111.7 463.226C1113.99 463.226 1116.79 461.849 1119.14 459.789V452.804ZM1126.8 464.643V432.282L1128.92 431.819V464.633H1126.8V464.643Z" fill="#BED730"/>
<path d="M1152.78 465.015C1149.89 465.015 1147.05 464.141 1145.12 463.086L1145.53 460.975C1147.55 462.121 1150.16 463.086 1153.01 463.086C1156.22 463.086 1158.33 461.659 1158.33 459.136C1158.33 456.885 1157.01 455.739 1152.36 454.452C1147.82 453.216 1145.75 451.648 1145.75 448.352C1145.75 445.056 1148.59 442.664 1152.86 442.664C1155.3 442.664 1157.46 443.257 1159.2 444.131L1158.82 446.191C1156.85 445.186 1154.83 444.633 1152.76 444.633C1149.37 444.633 1147.85 446.241 1147.85 448.211C1147.85 450.181 1149.14 451.236 1153 452.292C1157.91 453.618 1160.43 455.317 1160.43 458.945C1160.43 462.844 1157.27 465.005 1152.76 465.005L1152.78 465.015Z" fill="#BED730"/>
<path d="M1168.8 465.015C1165.73 465.015 1163.71 463.728 1163.71 460.1V444.904H1160.36V443.065H1163.71V435.397L1165.87 434.935V443.055H1171.15L1171.42 444.894H1165.86V459.718C1165.86 462.241 1166.86 463.115 1169.26 463.115C1169.94 463.115 1170.9 462.934 1171.42 462.794L1171.74 464.543C1171.19 464.774 1169.99 465.005 1168.8 465.005V465.015ZM1182.67 465.105C1177.31 465.105 1173.18 460.975 1173.18 453.859C1173.18 446.744 1177.45 442.613 1182.67 442.613C1187.9 442.613 1192.22 446.693 1192.22 453.859C1192.22 461.025 1187.95 465.105 1182.67 465.105ZM1182.67 444.492C1177.99 444.492 1175.42 448.301 1175.42 453.859C1175.42 459.417 1178.03 463.226 1182.67 463.226C1187.32 463.226 1189.97 459.467 1189.97 453.859C1189.97 448.251 1187.36 444.492 1182.67 444.492Z" fill="#BED730"/>
<path d="M1198.78 450.463V464.643H1196.62V443.076H1198.05L1198.74 447.578C1200.39 445.146 1202.92 442.664 1206.5 442.623L1206.87 444.643C1203.34 444.875 1200.26 447.578 1198.79 450.473L1198.78 450.463ZM1218.29 467.95C1216.95 471.528 1215.4 472.814 1212.51 472.814C1212.14 472.814 1211.78 472.774 1211.51 472.724L1211.19 470.844C1211.51 470.844 1211.92 470.895 1212.56 470.895C1214.44 470.895 1215.46 470.111 1216.37 467.729L1217.52 464.794L1209.12 443.317L1211.23 442.854L1218.57 462.221L1225.51 443.086H1227.76L1218.3 467.96L1218.29 467.95Z" fill="#BED730"/>
<path d="M1231.06 460.925H1228.3V464.643H1231.06V460.925Z" fill="#BED730"/>
<rect width="497" height="300" transform="translate(0 804)" fill="#F2F5EE"/>
<path d="M304.19 934.633C303.959 934.654 303.843 934.812 303.843 935.001C303.843 935.442 305.093 935.368 306.301 936.534C309.2 939.317 310.092 946.018 310.092 954C310.092 961.982 309.21 968.683 306.301 971.466C305.093 972.632 303.843 972.558 303.843 972.999C303.843 973.188 303.959 973.346 304.2 973.367C313.453 972.033 319.272 964.492 319.272 953.958C319.272 943.424 313.453 935.915 304.19 934.644V934.633Z" fill="#222222"/>
<path d="M298.676 935.001C298.676 934.812 298.56 934.665 298.329 934.633C289.066 935.915 283.247 943.371 283.247 953.947C283.247 964.524 289.066 972.022 298.319 973.356C298.56 973.335 298.676 973.178 298.676 972.989C298.676 972.548 297.426 972.621 296.218 971.455C293.319 968.672 292.427 961.971 292.427 953.989C292.427 946.008 293.309 939.307 296.218 936.524C297.426 935.358 298.676 935.431 298.676 934.99V935.001Z" fill="#222222"/>
<path d="M164.989 957.917H171.112V964.198C169.684 964.964 168.308 965.321 166.365 965.321C160.284 965.321 157.228 960.679 157.228 954.031C157.228 947.383 160.189 942.951 166.27 942.951C169.894 942.951 173.013 944.274 175.67 945.965L176.846 938.351C174.042 936.765 170.408 935.746 166.071 935.746C155.19 935.746 148.5 943.15 148.5 954.084C148.5 965.017 154.675 972.316 165.861 972.316C170.713 972.316 175.05 970.993 178.726 968.588V951.426H163.97L164.989 957.906V957.917Z" fill="#222222"/>
<path d="M197.368 949.946C192.978 948.265 192.002 947.393 192.002 945.608C192.002 943.97 193.283 942.856 195.929 942.856C198.576 942.856 201.958 943.875 205.119 945.713L206.443 938.361C203.376 936.88 200.414 936.009 195.824 936.009C189.082 936.009 183.778 939.632 183.778 946.427C183.778 952.246 186.845 954.546 193.892 957.255C198.849 959.146 199.868 960.06 199.868 962.055C199.868 964.145 198.135 965.216 195.625 965.216C192.107 965.216 188.063 963.893 184.44 961.95L183.158 969.407C186.729 971.045 190.72 972.064 195.467 972.064C202.462 972.064 208.081 968.693 208.081 961.036C208.081 955.417 205.014 952.76 197.358 949.956L197.368 949.946Z" fill="#222222"/>
<path d="M233.98 949.946C229.59 948.265 228.613 947.393 228.613 945.608C228.613 943.97 229.894 942.856 232.541 942.856C235.188 942.856 238.569 943.875 241.731 945.713L243.054 938.361C239.987 936.88 237.026 936.009 232.436 936.009C225.693 936.009 220.379 939.632 220.379 946.427C220.379 952.246 223.446 954.546 230.493 957.255C235.45 959.146 236.469 960.06 236.469 962.055C236.469 964.145 234.736 965.216 232.226 965.216C228.708 965.216 224.664 963.893 221.041 961.95L219.759 969.407C223.33 971.045 227.321 972.064 232.068 972.064C239.063 972.064 244.682 968.693 244.682 961.036C244.682 955.417 241.615 952.76 233.959 949.956L233.98 949.946Z" fill="#222222"/>
<path d="M269.91 949.589H257.695V936.419H248.968V971.655H257.695V957.245H269.91V971.655H278.637V936.419H269.91V949.589Z" fill="#222222"/>
<path d="M334.658 936.419H323.325V971.655H332.053V959.966H334.301C342.829 959.966 348.5 955.88 348.5 947.909C348.5 939.937 343.238 936.419 334.658 936.419ZM333.996 953.37H331.948V943.004H334.143C338.029 943.004 340.014 944.684 340.014 948.056C340.014 951.679 337.871 953.37 333.985 953.37H333.996Z" fill="#222222"/>
<rect width="497" height="300" transform="translate(501 804)" fill="#F2F5EE"/>
<path d="M665.697 957.755H671.712V963.925C670.309 964.678 668.957 965.028 667.049 965.028C661.075 965.028 658.073 960.469 658.073 953.938C658.073 947.408 660.982 943.054 666.956 943.054C670.515 943.054 673.579 944.354 676.189 946.015L677.345 938.535C674.59 936.977 671.021 935.977 666.76 935.977C656.072 935.977 649.5 943.25 649.5 953.99C649.5 964.729 655.566 971.899 666.553 971.899C671.32 971.899 675.581 970.6 679.191 968.237V951.379H664.696L665.697 957.755Z" fill="#222222"/>
<path d="M697.504 949.935C693.191 948.284 692.242 947.428 692.242 945.674C692.242 944.065 693.501 942.971 696.1 942.971C698.7 942.971 702.022 943.972 705.128 945.777L706.427 938.556C703.415 937.101 700.506 936.245 695.997 936.245C689.374 936.245 684.154 939.804 684.154 946.479C684.154 952.194 687.166 954.454 694.089 957.115C698.958 958.972 699.959 959.87 699.959 961.83C699.959 963.883 698.257 964.935 695.791 964.935C692.335 964.935 688.363 963.636 684.804 961.727L683.545 969.052C687.053 970.661 690.973 971.662 695.636 971.662C702.507 971.662 708.027 968.35 708.027 960.829C708.027 955.31 705.014 952.7 697.493 949.945L697.504 949.935Z" fill="#222222"/>
<path d="M733.468 949.935C729.156 948.284 728.196 947.428 728.196 945.674C728.196 944.065 729.455 942.971 732.055 942.971C734.654 942.971 737.976 943.972 741.082 945.777L742.382 938.556C739.369 937.101 736.46 936.245 731.951 936.245C725.328 936.245 720.118 939.804 720.118 946.479C720.118 952.194 723.131 954.454 730.053 957.115C734.923 958.972 735.923 959.87 735.923 961.83C735.923 963.883 734.221 964.935 731.755 964.935C728.289 964.935 724.327 963.636 720.768 961.727L719.509 969.052C723.017 970.661 726.937 971.662 731.601 971.662C738.471 971.662 743.991 968.35 743.991 960.829C743.991 955.31 740.978 952.7 733.458 949.945L733.468 949.935Z" fill="#222222"/>
<path d="M768.751 949.584H756.763V936.637H748.19V971.249H756.763V957.105H768.751V971.249H777.334V936.637H768.751V949.584Z" fill="#222222"/>
<path d="M793.645 935.729C793.645 935.533 793.521 935.368 793.253 935.368C785.866 937.762 781.337 944.684 781.337 954C781.337 963.316 785.866 970.239 793.253 972.632C793.521 972.632 793.645 972.467 793.645 972.271C793.645 971.848 792.438 971.92 791.282 970.796C788.486 968.124 787.641 961.676 787.641 954C787.641 946.324 788.497 939.877 791.282 937.205C792.448 936.08 793.645 936.163 793.645 935.729Z" fill="#222222"/>
<path d="M808.852 935.368C808.583 935.368 808.46 935.533 808.46 935.729C808.46 936.152 809.656 936.08 810.822 937.205C813.618 939.877 814.464 946.324 814.464 954C814.464 961.676 813.608 968.124 810.822 970.796C809.656 971.92 808.46 971.838 808.46 972.271C808.46 972.467 808.583 972.632 808.852 972.632C816.238 970.239 820.767 963.326 820.767 954C820.767 944.684 816.238 937.762 808.852 935.368Z" fill="#222222"/>
<path d="M835.903 936.637H824.771V971.249H833.344V959.767H835.552C843.929 959.767 849.5 955.753 849.5 947.923C849.5 940.093 844.331 936.637 835.903 936.637ZM835.253 953.298H833.241V943.115H835.397C839.204 943.115 841.164 944.766 841.164 948.078C841.164 951.637 839.06 953.298 835.242 953.298H835.253Z" fill="#222222"/>
<rect width="497" height="300" transform="translate(1002 804)" fill="#F2F5EE"/>
<path fill-rule="evenodd" clip-rule="evenodd" d="M1296.84 935.033C1297.11 935.033 1297.24 935.201 1297.24 935.401C1297.24 935.597 1297 935.689 1296.63 935.832C1296.16 936.01 1295.5 936.267 1294.84 936.903C1292 939.623 1291.13 946.187 1291.13 954C1291.13 961.814 1291.99 968.377 1294.84 971.097C1295.49 971.737 1296.17 971.997 1296.63 972.176C1297 972.318 1297.24 972.409 1297.24 972.599C1297.24 972.799 1297.11 972.967 1296.84 972.967C1289.32 970.53 1284.71 963.483 1284.71 954C1284.71 944.517 1289.32 937.47 1296.84 935.033ZM1167 957.833H1173.12V964.113C1171.69 964.88 1170.32 965.237 1168.37 965.237C1162.29 965.237 1159.24 960.595 1159.24 953.947C1159.24 947.3 1162.2 942.868 1168.28 942.868C1171.9 942.868 1175.02 944.191 1177.68 945.882L1178.85 938.268C1176.05 936.682 1172.42 935.663 1168.08 935.663C1157.19 935.663 1150.5 943.067 1150.5 954C1150.5 964.932 1156.67 972.231 1167.86 972.231C1172.71 972.231 1177.05 970.908 1180.72 968.503V951.343H1165.97L1166.99 957.823L1167 957.833ZM1199.38 949.861C1194.99 948.18 1194.02 947.309 1194.02 945.523C1194.02 943.885 1195.3 942.772 1197.95 942.772C1200.59 942.772 1203.98 943.791 1207.14 945.628L1208.46 938.277C1205.39 936.796 1202.43 935.925 1197.84 935.925C1191.1 935.925 1185.79 939.548 1185.79 946.343C1185.79 952.161 1188.85 954.461 1195.9 957.17C1200.86 959.061 1201.87 959.974 1201.87 961.97C1201.87 964.059 1200.14 965.131 1197.63 965.131C1194.11 965.131 1190.07 963.807 1186.45 961.865L1185.17 969.321C1188.74 970.959 1192.73 971.978 1197.47 971.978C1204.47 971.978 1210.09 968.607 1210.09 960.951C1210.09 955.332 1207.02 952.675 1199.36 949.871L1199.38 949.861ZM1230.62 945.523C1230.62 947.309 1231.6 948.18 1235.99 949.861L1235.98 949.871C1243.63 952.675 1246.7 955.332 1246.7 960.951C1246.7 968.607 1241.08 971.978 1234.09 971.978C1229.34 971.978 1225.35 970.959 1221.78 969.321L1223.06 961.865C1226.68 963.807 1230.71 965.131 1234.24 965.131C1236.75 965.131 1238.49 964.059 1238.49 961.97C1238.49 959.974 1237.47 959.061 1232.51 957.17C1225.46 954.461 1222.4 952.161 1222.4 946.343C1222.4 939.548 1227.7 935.925 1234.44 935.925C1239.03 935.925 1241.99 936.796 1245.06 938.277L1243.74 945.628C1240.58 943.791 1237.19 942.772 1234.55 942.772C1231.9 942.772 1230.62 943.885 1230.62 945.523ZM1271.9 949.507H1259.7V936.337H1250.97V971.571H1259.7V957.163H1271.9V971.571H1280.64V936.337H1271.9V949.507ZM1309.11 935.033C1308.84 935.033 1308.71 935.201 1308.71 935.401C1308.71 935.591 1308.95 935.683 1309.32 935.825C1309.78 936.005 1310.45 936.264 1311.12 936.903C1313.96 939.623 1314.82 946.187 1314.82 954C1314.82 961.814 1313.95 968.377 1311.12 971.097C1310.46 971.733 1309.79 971.99 1309.32 972.168C1308.95 972.311 1308.71 972.403 1308.71 972.599C1308.71 972.799 1308.84 972.967 1309.11 972.967C1316.63 970.53 1321.24 963.483 1321.24 954C1321.24 944.517 1316.63 937.47 1309.11 935.033ZM1325.33 936.337H1336.66C1345.24 936.337 1350.5 939.855 1350.5 947.826C1350.5 955.797 1344.83 959.883 1336.3 959.883H1334.05V971.571H1325.33V936.337ZM1333.94 953.287H1335.98C1339.86 953.287 1342 951.597 1342 947.973C1342 944.602 1340.02 942.922 1336.13 942.922H1333.94V953.287Z" fill="#222222"/>
<rect width="497" height="300" transform="translate(1503 804)" fill="#F2F5EE"/>
<path d="M1667.99 957.991H1674.11V964.271C1672.68 965.038 1671.31 965.395 1669.36 965.395C1663.28 965.395 1660.23 960.753 1660.23 954.105C1660.23 947.457 1663.19 943.025 1669.27 943.025C1672.89 943.025 1676.01 944.348 1678.67 946.039L1679.85 938.425C1677.04 936.839 1673.41 935.82 1669.07 935.82C1658.19 935.82 1651.5 943.224 1651.5 954.157C1651.5 965.09 1657.68 972.39 1668.86 972.39C1673.71 972.39 1678.05 971.066 1681.73 968.661V951.5H1666.97L1667.99 957.98V957.991Z" fill="#222222"/>
<path d="M1700.37 950.019C1695.98 948.339 1695 947.467 1695 945.682C1695 944.043 1696.28 942.93 1698.93 942.93C1701.58 942.93 1704.96 943.949 1708.12 945.787L1709.44 938.435C1706.38 936.954 1703.41 936.082 1698.82 936.082C1692.08 936.082 1686.77 939.706 1686.77 946.501C1686.77 952.319 1689.83 954.619 1696.88 957.329C1701.84 959.22 1702.86 960.133 1702.86 962.129C1702.86 964.219 1701.12 965.29 1698.61 965.29C1695.1 965.29 1691.05 963.967 1687.43 962.024L1686.15 969.481C1689.72 971.119 1693.71 972.138 1698.46 972.138C1705.45 972.138 1711.07 968.766 1711.07 961.11C1711.07 955.491 1708 952.834 1700.35 950.03L1700.37 950.019Z" fill="#222222"/>
<path d="M1736.98 950.019C1732.59 948.339 1731.61 947.467 1731.61 945.682C1731.61 944.043 1732.9 942.93 1735.54 942.93C1738.19 942.93 1741.57 943.949 1744.73 945.787L1746.05 938.435C1742.99 936.954 1740.03 936.082 1735.44 936.082C1728.69 936.082 1723.39 939.706 1723.39 946.501C1723.39 952.319 1726.46 954.619 1733.5 957.329C1738.46 959.22 1739.48 960.133 1739.48 962.129C1739.48 964.219 1737.75 965.29 1735.24 965.29C1731.72 965.29 1727.68 963.967 1724.05 962.024L1722.77 969.481C1726.34 971.119 1730.33 972.138 1735.08 972.138C1742.07 972.138 1747.69 968.766 1747.69 961.11C1747.69 955.491 1744.63 952.834 1736.97 950.03L1736.98 950.019Z" fill="#222222"/>
<path d="M1772.91 949.663H1760.71V936.493H1751.97V971.729H1760.71V957.319H1772.91V971.729H1781.64V936.493H1772.91V949.663Z" fill="#222222"/>
<path d="M1837.66 936.493H1826.33V971.729H1835.05V960.039H1837.3C1845.83 960.039 1851.5 955.954 1851.5 947.982C1851.5 940.011 1846.24 936.493 1837.66 936.493ZM1837 953.444H1834.95V943.078H1837.14C1841.03 943.078 1843.01 944.758 1843.01 948.13C1843.01 951.753 1840.87 953.444 1836.99 953.444H1837Z" fill="#222222"/>
<path d="M1811.01 935.589C1810.76 935.589 1810.61 935.747 1810.61 935.925V936.167C1811.29 936.261 1811.95 936.471 1812.55 936.902C1813.62 937.679 1814.11 938.939 1814.44 940.431C1815.26 944.012 1815.3 949.789 1815.3 953.59V954.41C1815.3 958.212 1815.26 963.988 1814.44 967.569C1814.11 969.061 1813.62 970.321 1812.55 971.098C1811.95 971.529 1811.29 971.739 1810.61 971.833V972.075C1810.61 972.243 1810.74 972.38 1810.96 972.411C1818 969.796 1822.27 962.98 1822.27 953.958C1822.27 944.936 1818.02 938.162 1811.01 935.589Z" fill="#222222"/>
<path d="M1797.52 935.589C1790.5 938.162 1786.26 944.926 1786.26 953.958C1786.26 962.99 1790.53 969.796 1797.57 972.411C1797.79 972.38 1797.92 972.254 1797.92 972.075V971.833C1797.24 971.739 1796.58 971.529 1795.98 971.098C1794.91 970.332 1794.42 969.061 1794.09 967.569C1793.27 963.988 1793.23 958.212 1793.23 954.41V953.59C1793.23 949.789 1793.27 944.012 1794.09 940.431C1794.42 938.939 1794.91 937.679 1795.98 936.902C1796.58 936.471 1797.24 936.261 1797.92 936.167V935.925C1797.92 935.736 1797.77 935.6 1797.52 935.589Z" fill="#222222"/>
<rect width="497" height="300" transform="translate(0 1108)" fill="#F2F5EE"/>
<path d="M164.696 1261.65H170.711V1267.82C169.308 1268.57 167.956 1268.93 166.048 1268.93C160.075 1268.93 157.073 1264.37 157.073 1257.84C157.073 1251.3 159.982 1246.95 165.955 1246.95C169.514 1246.95 172.578 1248.25 175.188 1249.91L176.343 1242.43C173.589 1240.88 170.02 1239.87 165.759 1239.87C155.071 1239.87 148.5 1247.15 148.5 1257.89C148.5 1268.63 154.566 1275.8 165.553 1275.8C170.319 1275.8 174.579 1274.5 178.19 1272.13V1255.28H163.696L164.696 1261.65Z" fill="#222222"/>
<path d="M196.512 1253.83C192.2 1252.18 191.24 1251.33 191.24 1249.57C191.24 1247.96 192.499 1246.87 195.098 1246.87C197.698 1246.87 201.02 1247.87 204.125 1249.67L205.425 1242.45C202.413 1241 199.503 1240.14 194.995 1240.14C188.372 1240.14 183.152 1243.7 183.152 1250.38C183.152 1256.09 186.165 1258.35 193.087 1261.01C197.956 1262.87 198.957 1263.77 198.957 1265.73C198.957 1267.78 197.254 1268.83 194.789 1268.83C191.333 1268.83 187.361 1267.53 183.802 1265.62L182.544 1272.95C186.051 1274.56 189.971 1275.56 194.634 1275.56C201.505 1275.56 207.024 1272.25 207.024 1264.73C207.024 1259.21 204.012 1256.6 196.491 1253.84L196.512 1253.83Z" fill="#222222"/>
<path d="M232.463 1253.83C228.151 1252.18 227.192 1251.33 227.192 1249.57C227.192 1247.96 228.45 1246.87 231.05 1246.87C233.65 1246.87 236.972 1247.87 240.077 1249.67L241.377 1242.45C238.364 1241 235.455 1240.14 230.947 1240.14C224.324 1240.14 219.104 1243.7 219.104 1250.38C219.104 1256.09 222.116 1258.35 229.038 1261.01C233.908 1262.87 234.908 1263.77 234.908 1265.73C234.908 1267.78 233.206 1268.83 230.741 1268.83C227.285 1268.83 223.313 1267.53 219.754 1265.62L218.495 1272.95C222.003 1274.56 225.923 1275.56 230.586 1275.56C237.456 1275.56 242.976 1272.25 242.976 1264.73C242.976 1259.21 239.963 1256.6 232.443 1253.84L232.463 1253.83Z" fill="#222222"/>
<path d="M267.756 1253.48H255.768V1240.53H247.185V1275.15H255.768V1261H267.756V1275.15H276.328V1240.53H267.756V1253.48Z" fill="#222222"/>
<path d="M334.903 1240.53H323.772V1275.15H332.345V1263.66H334.552C342.929 1263.66 348.5 1259.65 348.5 1251.82C348.5 1243.99 343.332 1240.53 334.903 1240.53ZM334.253 1257.2H332.242V1247.01H334.398C338.215 1247.01 340.164 1248.66 340.164 1251.98C340.164 1255.53 338.06 1257.2 334.243 1257.2H334.253Z" fill="#222222"/>
<path d="M305.007 1239.38C305.049 1239.43 305.111 1239.48 305.172 1239.5H305.183C305.183 1239.5 305.193 1239.5 305.203 1239.5C305.203 1239.5 305.585 1239.62 306.163 1239.86C307.514 1240.45 308.639 1241.68 309.495 1242.82C309.949 1243.43 310.361 1244.09 310.702 1244.77C311.94 1247.19 312.497 1249.92 312.672 1252.61C312.786 1254.4 312.91 1256.2 312.899 1258C312.91 1259.79 312.786 1261.59 312.672 1263.38C312.507 1266.08 311.94 1268.81 310.702 1271.23C310.361 1271.91 309.949 1272.57 309.495 1273.17C308.639 1274.32 307.514 1275.55 306.163 1276.14C305.585 1276.38 305.203 1276.5 305.203 1276.5C305.203 1276.5 305.193 1276.5 305.183 1276.5H305.172C305.111 1276.52 305.059 1276.55 305.018 1276.6C313.735 1275.09 319.254 1267.91 319.254 1257.95C319.254 1247.98 313.735 1240.82 305.007 1239.38Z" fill="#222222"/>
<path d="M294.96 1276.5C294.96 1276.5 294.949 1276.5 294.939 1276.5C294.939 1276.5 294.557 1276.38 293.979 1276.14C292.628 1275.55 291.504 1274.32 290.647 1273.18C290.193 1272.57 289.781 1271.91 289.44 1271.23C288.202 1268.81 287.645 1266.08 287.48 1263.39C287.367 1261.6 287.243 1259.8 287.253 1258C287.243 1256.21 287.367 1254.41 287.48 1252.62C287.645 1249.92 288.213 1247.19 289.44 1244.77C289.781 1244.09 290.193 1243.43 290.647 1242.83C291.504 1241.68 292.628 1240.45 293.979 1239.86C294.557 1239.62 294.939 1239.5 294.939 1239.5C294.939 1239.5 294.949 1239.5 294.96 1239.5H294.97C295.032 1239.48 295.083 1239.44 295.125 1239.4C286.407 1240.9 280.888 1248.05 280.888 1258.05C280.888 1268.06 286.438 1275.17 295.135 1276.62C295.094 1276.57 295.032 1276.53 294.97 1276.5H294.96Z" fill="#222222"/>
<rect width="497" height="300" transform="translate(501 1108)" fill="#F2F5EE"/>
<path d="M805.976 1238.98C805.749 1239 805.636 1239.16 805.636 1239.34C805.636 1239.78 806.863 1239.7 808.05 1240.85C810.897 1243.58 811.774 1250.16 811.774 1258.01C811.774 1265.85 810.907 1272.43 808.05 1275.16C806.863 1276.31 805.636 1276.23 805.636 1276.67C805.636 1276.85 805.749 1277.01 805.986 1277.03C815.075 1275.72 820.79 1268.31 820.79 1257.96C820.79 1247.62 815.075 1240.24 805.976 1238.99V1238.98Z" fill="#222222"/>
<path d="M797.011 1239.33C797.011 1239.15 796.898 1239 796.671 1238.97C787.572 1240.23 781.857 1247.56 781.857 1257.94C781.857 1268.33 787.572 1275.7 796.661 1277.01C796.898 1276.99 797.011 1276.83 797.011 1276.65C797.011 1276.21 795.784 1276.29 794.597 1275.14C791.75 1272.41 790.873 1265.83 790.873 1257.98C790.873 1250.14 791.74 1243.56 794.597 1240.83C795.784 1239.68 797.011 1239.76 797.011 1239.32V1239.33Z" fill="#222222"/>
<path d="M665.696 1261.84H671.711V1268.01C670.308 1268.76 668.956 1269.12 667.048 1269.12C661.075 1269.12 658.073 1264.56 658.073 1258.03C658.073 1251.5 660.982 1247.14 666.955 1247.14C670.514 1247.14 673.578 1248.44 676.188 1250.1L677.343 1242.62C674.589 1241.07 671.02 1240.06 666.759 1240.06C656.071 1240.06 649.5 1247.34 649.5 1258.08C649.5 1268.82 655.566 1275.99 666.553 1275.99C671.319 1275.99 675.579 1274.69 679.19 1272.32V1255.47H664.696L665.696 1261.84Z" fill="#222222"/>
<path d="M697.501 1254.02C693.189 1252.37 692.23 1251.52 692.23 1249.76C692.23 1248.15 693.488 1247.06 696.088 1247.06C698.688 1247.06 702.01 1248.06 705.115 1249.87L706.415 1242.64C703.402 1241.19 700.493 1240.33 695.985 1240.33C689.362 1240.33 684.152 1243.89 684.152 1250.57C684.152 1256.28 687.164 1258.54 694.087 1261.2C698.956 1263.06 699.957 1263.96 699.957 1265.92C699.957 1267.97 698.254 1269.02 695.789 1269.02C692.333 1269.02 688.361 1267.72 684.802 1265.81L683.544 1273.14C687.051 1274.75 690.971 1275.75 695.634 1275.75C702.505 1275.75 708.024 1272.44 708.024 1264.92C708.024 1259.4 705.012 1256.79 697.491 1254.03L697.501 1254.02Z" fill="#222222"/>
<path d="M733.463 1254.02C729.151 1252.37 728.192 1251.52 728.192 1249.76C728.192 1248.15 729.45 1247.06 732.05 1247.06C734.65 1247.06 737.971 1248.06 741.077 1249.87L742.377 1242.64C739.364 1241.19 736.455 1240.33 731.947 1240.33C725.324 1240.33 720.104 1243.89 720.104 1250.57C720.104 1256.28 723.116 1258.54 730.038 1261.2C734.908 1263.06 735.908 1263.96 735.908 1265.92C735.908 1267.97 734.206 1269.02 731.741 1269.02C728.285 1269.02 724.313 1267.72 720.754 1265.81L719.495 1273.14C723.003 1274.75 726.923 1275.75 731.586 1275.75C738.456 1275.75 743.976 1272.44 743.976 1264.92C743.976 1259.4 740.963 1256.79 733.443 1254.03L733.463 1254.02Z" fill="#222222"/>
<path d="M768.756 1253.67H756.758V1240.72H748.185V1275.34H756.758V1261.19H768.756V1275.34H777.328V1240.72H768.756V1253.67Z" fill="#222222"/>
<path d="M835.903 1240.72H824.772V1275.34H833.345V1263.85H835.552C843.929 1263.85 849.5 1259.84 849.5 1252.01C849.5 1244.18 844.332 1240.72 835.903 1240.72ZM835.253 1257.39H833.242V1247.2H835.398C839.215 1247.2 841.164 1248.85 841.164 1252.17C841.164 1255.72 839.06 1257.39 835.243 1257.39H835.253Z" fill="#222222"/>
<rect width="497" height="300" transform="translate(1002 1108)" fill="#F2F5EE"/>
<path d="M1166.48 1261.84H1171.77V1264.92C1170.98 1265.36 1170.01 1265.62 1168.25 1265.62C1163.94 1265.62 1160.9 1262.63 1160.9 1258.26V1258.18C1160.9 1253.99 1163.81 1250.91 1167.81 1250.91C1170.37 1250.91 1172.62 1251.88 1174.64 1253.6L1180.41 1246.64C1177.07 1243.74 1172.79 1241.97 1167.5 1241.97C1157.77 1241.97 1150.5 1248.84 1150.5 1258.05V1258.13C1150.5 1267.69 1158.21 1274.13 1167.81 1274.13C1173.4 1274.13 1178.07 1272.23 1181.42 1269.5V1255.23H1166.48V1261.84Z" fill="#222222"/>
<path d="M1199.42 1253.55C1196.16 1252.93 1195.32 1252.41 1195.32 1251.57V1251.49C1195.32 1250.74 1196.02 1250.21 1197.57 1250.21C1200.43 1250.21 1203.91 1251.13 1206.82 1253.25L1211.83 1246.29C1208.27 1243.47 1203.86 1242.06 1197.91 1242.06C1189.41 1242.06 1184.83 1246.59 1184.83 1252.46V1252.54C1184.83 1259.06 1190.91 1261.04 1197.83 1262.45C1201.13 1263.12 1202.1 1263.6 1202.1 1264.48V1264.57C1202.1 1265.41 1201.31 1265.89 1199.46 1265.89C1195.84 1265.89 1192.01 1264.83 1188.67 1262.28L1183.16 1268.84C1187.08 1272.28 1192.72 1274.03 1198.97 1274.03C1207.26 1274.03 1212.58 1270.07 1212.58 1263.59V1263.51C1212.58 1257.3 1207.29 1255.01 1199.41 1253.55H1199.42Z" fill="#222222"/>
<path d="M1237.97 1253.64C1234.71 1253.03 1233.87 1252.5 1233.87 1251.66V1251.57C1233.87 1250.83 1234.58 1250.29 1236.12 1250.29C1238.98 1250.29 1242.46 1251.22 1245.37 1253.33L1250.4 1246.37C1246.83 1243.55 1242.43 1242.14 1236.48 1242.14C1227.97 1242.14 1223.4 1246.68 1223.4 1252.54V1252.63C1223.4 1259.15 1229.47 1261.12 1236.39 1262.54C1239.69 1263.2 1240.66 1263.69 1240.66 1264.57V1264.66C1240.66 1265.5 1239.86 1265.98 1238.02 1265.98C1234.41 1265.98 1230.58 1264.93 1227.22 1262.37L1221.72 1268.93C1225.64 1272.37 1231.28 1274.13 1237.54 1274.13C1245.82 1274.13 1251.15 1270.16 1251.15 1263.69V1263.6C1251.15 1257.39 1245.86 1255.1 1237.98 1253.64H1237.97Z" fill="#222222"/>
<path d="M1273.25 1253.59H1263.83V1242.72H1253.52V1273.55H1263.83V1262.5H1273.25V1273.55H1283.56V1242.72H1273.25V1253.59Z" fill="#222222"/>
<path d="M1336.72 1242.72H1322.84V1273.55H1333.15V1265.18H1336.49C1344.82 1265.18 1350.5 1261.22 1350.5 1253.77V1253.68C1350.5 1246.37 1344.91 1242.71 1336.71 1242.71L1336.72 1242.72ZM1340.34 1254.43C1340.34 1256.63 1338.57 1257.83 1335.93 1257.83H1333.16V1250.95H1335.97C1338.71 1250.95 1340.34 1252.1 1340.34 1254.35V1254.43Z" fill="#222222"/>
<path d="M1296.87 1242.17C1296.87 1242.01 1296.74 1241.87 1296.51 1241.87C1293.59 1241.87 1286.46 1246.67 1286.46 1257.95C1286.46 1269.24 1293.6 1274.03 1296.51 1274.03C1296.74 1274.03 1296.87 1273.89 1296.87 1273.73C1296.87 1273.36 1295.84 1273.43 1294.83 1272.45C1292.42 1270.14 1291.68 1264.58 1291.68 1257.95C1291.68 1251.32 1292.42 1245.76 1294.83 1243.45C1295.84 1242.47 1296.87 1242.54 1296.87 1242.17Z" fill="#222222"/>
<path d="M1309.54 1241.87C1309.31 1241.87 1309.18 1242.01 1309.18 1242.17C1309.18 1242.54 1310.21 1242.47 1311.22 1243.45C1313.63 1245.76 1314.36 1251.32 1314.36 1257.95C1314.36 1264.58 1313.63 1270.14 1311.22 1272.45C1310.21 1273.43 1309.18 1273.36 1309.18 1273.73C1309.18 1273.89 1309.31 1274.03 1309.54 1274.03C1312.46 1274.03 1319.59 1269.24 1319.59 1257.95C1319.59 1246.67 1312.45 1241.87 1309.54 1241.87Z" fill="#222222"/>
<rect width="497" height="300" transform="translate(1503 1108)" fill="#F2F5EE"/>
<path d="M1667.7 1261.91H1673.71V1268.08C1672.31 1268.83 1670.96 1269.18 1669.05 1269.18C1663.07 1269.18 1660.07 1264.62 1660.07 1258.09C1660.07 1251.56 1662.98 1247.21 1668.95 1247.21C1672.51 1247.21 1675.58 1248.51 1678.19 1250.17L1679.34 1242.69C1676.59 1241.13 1673.02 1240.13 1668.76 1240.13C1658.07 1240.13 1651.5 1247.41 1651.5 1258.14C1651.5 1268.88 1657.57 1276.05 1668.55 1276.05C1673.32 1276.05 1677.58 1274.75 1681.19 1272.39V1255.53H1666.7L1667.7 1261.91Z" fill="#222222"/>
<path d="M1699.5 1254.09C1695.19 1252.44 1694.23 1251.58 1694.23 1249.83C1694.23 1248.22 1695.49 1247.13 1698.09 1247.13C1700.69 1247.13 1704.01 1248.13 1707.11 1249.93L1708.41 1242.71C1705.4 1241.26 1702.49 1240.4 1697.98 1240.4C1691.36 1240.4 1686.14 1243.96 1686.14 1250.63C1686.14 1256.35 1689.15 1258.61 1696.08 1261.27C1700.95 1263.13 1701.95 1264.02 1701.95 1265.98C1701.95 1268.04 1700.24 1269.09 1697.78 1269.09C1694.32 1269.09 1690.35 1267.79 1686.79 1265.88L1685.53 1273.21C1689.04 1274.82 1692.96 1275.82 1697.62 1275.82C1704.49 1275.82 1710.01 1272.5 1710.01 1264.98C1710.01 1259.46 1707 1256.85 1699.48 1254.1L1699.5 1254.09Z" fill="#222222"/>
<path d="M1735.46 1254.09C1731.15 1252.44 1730.19 1251.58 1730.19 1249.83C1730.19 1248.22 1731.45 1247.13 1734.05 1247.13C1736.65 1247.13 1739.97 1248.13 1743.08 1249.93L1744.38 1242.71C1741.36 1241.26 1738.46 1240.4 1733.95 1240.4C1727.32 1240.4 1722.11 1243.96 1722.11 1250.63C1722.11 1256.35 1725.13 1258.61 1732.05 1261.27C1736.92 1263.13 1737.92 1264.02 1737.92 1265.98C1737.92 1268.04 1736.22 1269.09 1733.75 1269.09C1730.3 1269.09 1726.32 1267.79 1722.76 1265.88L1721.51 1273.21C1725.01 1274.82 1728.93 1275.82 1733.6 1275.82C1740.47 1275.82 1745.99 1272.5 1745.99 1264.98C1745.99 1259.46 1742.97 1256.85 1735.45 1254.1L1735.46 1254.09Z" fill="#222222"/>
<path d="M1770.76 1253.74H1758.77V1240.79H1750.18V1275.4H1758.77V1261.26H1770.76V1275.4H1779.33V1240.79H1770.76V1253.74Z" fill="#222222"/>
<path d="M1837.9 1240.79H1826.77V1275.4H1835.34V1263.92H1837.55C1845.93 1263.92 1851.5 1259.91 1851.5 1252.08C1851.5 1244.25 1846.33 1240.79 1837.9 1240.79ZM1837.25 1257.45H1835.24V1247.27H1837.4C1841.2 1247.27 1843.16 1248.92 1843.16 1252.23C1843.16 1255.79 1841.06 1257.45 1837.24 1257.45H1837.25Z" fill="#222222"/>
<path d="M1811.72 1239.92C1811.47 1239.92 1811.33 1240.07 1811.33 1240.25V1240.48C1811.99 1240.58 1812.64 1240.78 1813.23 1241.21C1814.28 1241.96 1814.76 1243.21 1815.08 1244.67C1815.89 1248.19 1815.93 1253.86 1815.93 1257.6V1258.4C1815.93 1262.14 1815.89 1267.81 1815.08 1271.33C1814.76 1272.79 1814.28 1274.03 1813.23 1274.79C1812.63 1275.22 1811.99 1275.42 1811.33 1275.52V1275.75C1811.33 1275.92 1811.45 1276.05 1811.67 1276.08C1818.58 1273.52 1822.78 1266.82 1822.78 1257.96C1822.78 1249.1 1818.6 1242.44 1811.72 1239.92Z" fill="#222222"/>
<path d="M1794.93 1239.92C1788.04 1242.44 1783.87 1249.09 1783.87 1257.96C1783.87 1266.83 1788.07 1273.52 1794.98 1276.08C1795.19 1276.05 1795.32 1275.93 1795.32 1275.75V1275.52C1794.66 1275.42 1794.01 1275.22 1793.42 1274.79C1792.37 1274.04 1791.88 1272.79 1791.56 1271.33C1790.76 1267.81 1790.72 1262.14 1790.72 1258.4V1257.6C1790.72 1253.86 1790.76 1248.19 1791.56 1244.67C1791.88 1243.21 1792.37 1241.97 1793.42 1241.21C1794.01 1240.78 1794.66 1240.58 1795.32 1240.48V1240.25C1795.32 1240.06 1795.17 1239.93 1794.93 1239.92Z" fill="#222222"/>
<rect width="497" height="300" transform="translate(0 1412)" fill="#F2F5EE"/>
<path d="M164.697 1565.78H170.712V1571.95C169.309 1572.7 167.957 1573.05 166.049 1573.05C160.075 1573.05 157.073 1568.49 157.073 1561.96C157.073 1555.43 159.982 1551.08 165.956 1551.08C169.515 1551.08 172.579 1552.38 175.189 1554.04L176.345 1546.56C173.59 1545 170.021 1544 165.76 1544C155.072 1544 148.5 1551.28 148.5 1562.02C148.5 1572.76 154.566 1579.93 165.553 1579.93C170.32 1579.93 174.581 1578.63 178.191 1576.26V1559.41H163.696L164.697 1565.78Z" fill="#222222"/>
<path d="M196.504 1557.95C192.191 1556.3 191.242 1555.44 191.242 1553.69C191.242 1552.08 192.501 1550.98 195.1 1550.98C197.7 1550.98 201.022 1551.98 204.128 1553.78L205.427 1546.56C202.415 1545.11 199.506 1544.25 194.997 1544.25C188.374 1544.25 183.154 1547.81 183.154 1554.48C183.154 1560.2 186.166 1562.46 193.089 1565.12C197.958 1566.98 198.959 1567.87 198.959 1569.83C198.959 1571.89 197.257 1572.94 194.791 1572.94C191.335 1572.94 187.363 1571.64 183.804 1569.73L182.545 1577.06C186.053 1578.67 189.973 1579.67 194.636 1579.67C201.507 1579.67 207.027 1576.35 207.027 1568.83C207.027 1563.31 204.014 1560.7 196.493 1557.95H196.504Z" fill="#222222"/>
<path d="M232.468 1557.95C228.156 1556.3 227.196 1555.44 227.196 1553.69C227.196 1552.08 228.455 1550.98 231.055 1550.98C233.654 1550.98 236.976 1551.98 240.082 1553.78L241.382 1546.56C238.369 1545.11 235.46 1544.25 230.951 1544.25C224.328 1544.25 219.118 1547.81 219.118 1554.48C219.118 1560.2 222.131 1562.46 229.053 1565.12C233.923 1566.98 234.923 1567.87 234.923 1569.83C234.923 1571.89 233.221 1572.94 230.755 1572.94C227.289 1572.94 223.327 1571.64 219.768 1569.73L218.509 1577.06C222.017 1578.67 225.937 1579.67 230.601 1579.67C237.471 1579.67 242.991 1576.35 242.991 1568.83C242.991 1563.31 239.978 1560.7 232.458 1557.95H232.468Z" fill="#222222"/>
<path d="M267.751 1557.6H255.763V1544.66H247.19V1579.27H255.763V1565.12H267.751V1579.27H276.334V1544.66H267.751V1557.6Z" fill="#222222"/>
<path d="M334.903 1544.66H323.771V1579.27H332.344V1567.79H334.552C342.929 1567.79 348.5 1563.78 348.5 1555.95C348.5 1548.12 343.331 1544.66 334.903 1544.66ZM334.253 1561.31H332.241V1551.13H334.397C338.204 1551.13 340.164 1552.78 340.164 1556.09C340.164 1559.65 338.06 1561.31 334.242 1561.31H334.253Z" fill="#222222"/>
<path d="M293.12 1544.1C293.12 1543.91 292.965 1543.75 292.707 1543.75C289.396 1543.75 281.297 1549.19 281.297 1562C281.297 1574.82 289.396 1580.26 292.707 1580.26C292.976 1580.26 293.12 1580.1 293.12 1579.91C293.12 1579.49 291.944 1579.57 290.799 1578.47C288.065 1575.85 287.219 1569.54 287.219 1562C287.219 1554.47 288.055 1548.16 290.799 1545.54C291.944 1544.44 293.12 1544.51 293.12 1544.1Z" fill="#222222"/>
<path d="M307.501 1543.74C307.233 1543.74 307.078 1543.9 307.078 1544.09C307.078 1544.51 308.254 1544.43 309.399 1545.53C312.143 1548.15 312.979 1554.46 312.979 1561.99C312.979 1569.53 312.143 1575.84 309.399 1578.46C308.254 1579.56 307.078 1579.49 307.078 1579.9C307.078 1580.09 307.233 1580.25 307.501 1580.25C310.812 1580.25 318.911 1574.81 318.911 1561.99C318.911 1549.18 310.812 1543.74 307.501 1543.74Z" fill="#222222"/>
<rect width="497" height="300" transform="translate(501 1412)" fill="#F2F5EE"/>
<path d="M665.989 1565.73H672.112V1572.01C670.684 1572.78 669.308 1573.13 667.365 1573.13C661.284 1573.13 658.228 1568.49 658.228 1561.84C658.228 1555.19 661.189 1550.76 667.27 1550.76C670.894 1550.76 674.013 1552.09 676.67 1553.78L677.846 1546.16C675.042 1544.58 671.408 1543.56 667.071 1543.56C656.19 1543.56 649.5 1550.96 649.5 1561.89C649.5 1572.83 655.676 1580.13 666.861 1580.13C671.713 1580.13 676.05 1578.8 679.726 1576.4V1559.24H664.97L665.989 1565.72V1565.73Z" fill="#222222"/>
<path d="M698.379 1557.76C693.989 1556.08 693.012 1555.2 693.012 1553.42C693.012 1551.78 694.293 1550.67 696.94 1550.67C699.587 1550.67 702.968 1551.69 706.13 1553.52L707.453 1546.17C704.386 1544.69 701.425 1543.82 696.835 1543.82C690.092 1543.82 684.778 1547.44 684.778 1554.24C684.778 1560.06 687.845 1562.36 694.892 1565.07C699.849 1566.96 700.868 1567.87 700.868 1569.87C700.868 1571.96 699.135 1573.03 696.625 1573.03C693.107 1573.03 689.063 1571.7 685.44 1569.76L684.158 1577.22C687.729 1578.86 691.72 1579.87 696.467 1579.87C703.462 1579.87 709.081 1576.5 709.081 1568.85C709.081 1563.23 706.014 1560.57 698.358 1557.77L698.379 1557.76Z" fill="#222222"/>
<path d="M734.98 1557.76C730.59 1556.08 729.613 1555.2 729.613 1553.42C729.613 1551.78 730.894 1550.67 733.541 1550.67C736.188 1550.67 739.57 1551.69 742.731 1553.52L744.054 1546.17C740.987 1544.69 738.026 1543.82 733.436 1543.82C726.693 1543.82 721.379 1547.44 721.379 1554.24C721.379 1560.06 724.446 1562.36 731.493 1565.07C736.45 1566.96 737.469 1567.87 737.469 1569.87C737.469 1571.96 735.736 1573.03 733.226 1573.03C729.708 1573.03 725.664 1571.7 722.041 1569.76L720.759 1577.22C724.33 1578.86 728.321 1579.87 733.068 1579.87C740.063 1579.87 745.682 1576.5 745.682 1568.85C745.682 1563.23 742.615 1560.57 734.959 1557.77L734.98 1557.76Z" fill="#222222"/>
<path d="M770.91 1557.4H758.706V1544.23H749.968V1579.47H758.706V1565.06H770.91V1579.47H779.637V1544.23H770.91V1557.4Z" fill="#222222"/>
<path d="M835.658 1544.23H824.325V1579.47H833.053V1567.78H835.301C843.829 1567.78 849.5 1563.69 849.5 1555.72C849.5 1547.75 844.238 1544.23 835.658 1544.23ZM834.996 1561.18H832.948V1550.81H835.143C839.029 1550.81 841.014 1552.5 841.014 1555.87C841.014 1559.49 838.871 1561.18 834.985 1561.18H834.996Z" fill="#222222"/>
<path d="M805.221 1543.04C805.263 1543.1 805.326 1543.15 805.399 1543.17H805.41C805.41 1543.17 805.42 1543.17 805.431 1543.17C805.431 1543.17 805.819 1543.28 806.408 1543.54C807.783 1544.14 808.928 1545.39 809.8 1546.55C810.262 1547.17 810.682 1547.84 811.029 1548.54C812.289 1550.99 812.856 1553.78 813.035 1556.52C813.15 1558.33 813.276 1560.17 813.266 1562C813.276 1563.83 813.15 1565.66 813.035 1567.48C812.867 1570.22 812.289 1573.01 811.029 1575.46C810.682 1576.16 810.262 1576.83 809.8 1577.45C808.928 1578.62 807.783 1579.87 806.408 1580.46C805.819 1580.72 805.431 1580.83 805.431 1580.83C805.431 1580.83 805.42 1580.83 805.41 1580.83H805.399C805.336 1580.85 805.284 1580.89 805.242 1580.94C814.116 1579.4 819.735 1572.09 819.735 1561.95C819.735 1551.8 814.117 1544.51 805.231 1543.04H805.221Z" fill="#222222"/>
<path d="M798.605 1580.83C798.605 1580.83 798.594 1580.83 798.584 1580.83C798.584 1580.83 798.195 1580.72 797.607 1580.46C796.231 1579.86 795.086 1578.61 794.215 1577.45C793.753 1576.83 793.332 1576.16 792.986 1575.46C791.726 1573.01 791.158 1570.22 790.99 1567.48C790.875 1565.67 790.749 1563.83 790.759 1562C790.749 1560.17 790.875 1558.34 790.99 1556.52C791.158 1553.78 791.736 1550.99 792.986 1548.54C793.332 1547.84 793.753 1547.17 794.215 1546.55C795.086 1545.38 796.231 1544.13 797.607 1543.54C798.195 1543.28 798.584 1543.17 798.584 1543.17C798.584 1543.17 798.594 1543.17 798.605 1543.17H798.615C798.678 1543.15 798.731 1543.11 798.773 1543.06C789.898 1544.59 784.279 1551.86 784.279 1562.05C784.279 1572.24 789.93 1579.48 798.783 1580.96C798.741 1580.9 798.678 1580.86 798.615 1580.83H798.605Z" fill="#222222"/>
<rect width="497" height="300" transform="translate(1002 1412)" fill="#F2F5EE"/>
<path d="M1166.7 1565.78H1172.71V1571.95C1171.31 1572.7 1169.96 1573.05 1168.05 1573.05C1162.08 1573.05 1159.07 1568.49 1159.07 1561.96C1159.07 1555.43 1161.98 1551.07 1167.96 1551.07C1171.52 1551.07 1174.58 1552.37 1177.19 1554.04L1178.34 1546.56C1175.59 1545 1172.02 1544 1167.76 1544C1157.07 1544 1150.5 1551.27 1150.5 1562.01C1150.5 1572.75 1156.57 1579.92 1167.55 1579.92C1172.32 1579.92 1176.58 1578.62 1180.19 1576.26V1559.4H1165.7L1166.7 1565.78Z" fill="#222222"/>
<path d="M1198.5 1557.94C1194.19 1556.29 1193.23 1555.44 1193.23 1553.68C1193.23 1552.07 1194.49 1550.97 1197.09 1550.97C1199.69 1550.97 1203.01 1551.97 1206.12 1553.78L1207.42 1546.56C1204.4 1545.1 1201.5 1544.24 1196.99 1544.24C1190.36 1544.24 1185.15 1547.8 1185.15 1554.48C1185.15 1560.19 1188.17 1562.45 1195.09 1565.11C1199.96 1566.97 1200.96 1567.87 1200.96 1569.83C1200.96 1571.88 1199.26 1572.93 1196.79 1572.93C1193.34 1572.93 1189.36 1571.64 1185.8 1569.73L1184.55 1577.05C1188.05 1578.66 1191.97 1579.66 1196.64 1579.66C1203.51 1579.66 1209.03 1576.35 1209.03 1568.83C1209.03 1563.31 1206.01 1560.7 1198.49 1557.94H1198.5Z" fill="#222222"/>
<path d="M1234.47 1557.94C1230.15 1556.29 1229.21 1555.44 1229.21 1553.68C1229.21 1552.07 1230.46 1550.97 1233.06 1550.97C1235.66 1550.97 1238.99 1551.97 1242.09 1553.78L1243.39 1546.56C1240.38 1545.1 1237.47 1544.24 1232.96 1544.24C1226.34 1544.24 1221.12 1547.8 1221.12 1554.48C1221.12 1560.19 1224.13 1562.45 1231.05 1565.11C1235.92 1566.97 1236.92 1567.87 1236.92 1569.83C1236.92 1571.88 1235.22 1572.93 1232.75 1572.93C1229.3 1572.93 1225.33 1571.64 1221.77 1569.73L1220.51 1577.05C1224.02 1578.66 1227.94 1579.66 1232.6 1579.66C1239.47 1579.66 1244.99 1576.35 1244.99 1568.83C1244.99 1563.31 1241.98 1560.7 1234.46 1557.94H1234.47Z" fill="#222222"/>
<path d="M1269.75 1557.59H1257.76V1544.66H1249.19V1579.27H1257.76V1565.12H1269.75V1579.27H1278.33V1544.66H1269.75V1557.59Z" fill="#222222"/>
<path d="M1336.9 1544.66H1325.77V1579.27H1334.34V1567.79H1336.55C1344.93 1567.79 1350.5 1563.77 1350.5 1555.94C1350.5 1548.11 1345.33 1544.66 1336.9 1544.66ZM1336.25 1561.31H1334.24V1551.13H1336.4C1340.21 1551.13 1342.16 1552.78 1342.16 1556.09C1342.16 1559.65 1340.06 1561.31 1336.24 1561.31H1336.25Z" fill="#222222"/>
<path d="M1295.17 1544.24C1295.17 1544.06 1295.02 1543.9 1294.76 1543.9C1291.48 1543.9 1283.45 1549.3 1283.45 1562C1283.45 1574.7 1291.48 1580.1 1294.76 1580.1C1295.03 1580.1 1295.17 1579.94 1295.17 1579.76C1295.17 1579.34 1294.01 1579.41 1292.87 1578.32C1290.16 1575.72 1289.32 1569.46 1289.32 1562C1289.32 1554.54 1290.16 1548.28 1292.87 1545.68C1294.01 1544.59 1295.17 1544.66 1295.17 1544.24Z" fill="#222222"/>
<path d="M1309.43 1543.9C1309.16 1543.9 1309.02 1544.06 1309.02 1544.24C1309.02 1544.66 1310.18 1544.59 1311.32 1545.68C1314.03 1548.28 1314.87 1554.54 1314.87 1562C1314.87 1569.46 1314.04 1575.72 1311.32 1578.32C1310.18 1579.41 1309.02 1579.34 1309.02 1579.76C1309.02 1579.94 1309.16 1580.1 1309.43 1580.1C1312.71 1580.1 1320.74 1574.7 1320.74 1562C1320.74 1549.3 1312.71 1543.9 1309.43 1543.9Z" fill="#222222"/>
<rect width="497" height="300" transform="translate(1503 1412)" fill="#F2F5EE"/>
<path d="M1765.18 1556.62H1761.53V1549.32H1754.23V1556.62H1746.93V1549.32H1739.63V1563.92H1765.18V1556.62Z" fill="#222222"/>
<path d="M1735.98 1549.31L1750.59 1534.7L1765.18 1549.29L1770.33 1544.13L1750.59 1524.39L1730.82 1544.16L1735.98 1549.31Z" fill="#222222"/>
<path d="M1739.63 1567.56V1596.76H1761.53V1567.56H1754.23V1574.86H1746.93V1567.56H1739.63ZM1754.23 1582.16V1589.45H1746.93V1582.16H1754.23Z" fill="#222222"/>
<path d="M1739.63 1556.62H1735.98V1563.92L1739.63 1563.92L1739.63 1556.62Z" fill="#222222"/>
<path d="M1759.81 1512V1519.3H1776.65V1604.7H1759.81V1612H1783.95V1512H1759.81Z" fill="#222222"/>
<path d="M1726.35 1519.3H1743.19V1512H1719.05V1612H1743.19V1604.7H1726.35V1519.3Z" fill="#222222"/>
<rect width="497" height="300" transform="translate(0 1716)" fill="#F2F5EE"/>
<path d="M214.165 1850.66C214.165 1850.35 213.961 1850.08 213.528 1850.08C201.685 1853.93 194.422 1865.02 194.422 1879.97C194.422 1894.92 201.685 1906.01 213.528 1909.86C213.961 1909.86 214.165 1909.59 214.165 1909.28C214.165 1908.59 212.24 1908.72 210.371 1906.92C205.885 1902.63 204.517 1892.3 204.517 1879.97C204.517 1867.64 205.885 1857.31 210.371 1853.02C212.24 1851.22 214.165 1851.34 214.165 1850.65V1850.66Z" fill="#222222"/>
<path d="M283.474 1850.08C283.041 1850.08 282.837 1850.35 282.837 1850.66C282.837 1851.35 284.761 1851.22 286.631 1853.03C291.117 1857.33 292.485 1867.65 292.485 1879.98C292.485 1892.31 291.117 1902.64 286.631 1906.94C284.761 1908.74 282.837 1908.62 282.837 1909.29C282.837 1909.6 283.041 1909.88 283.474 1909.88C295.317 1906.03 302.58 1894.93 302.58 1879.98C302.58 1865.04 295.317 1853.94 283.474 1850.09V1850.08Z" fill="#222222"/>
<path d="M233.365 1860.54H228.324V1870.62H233.365V1860.54Z" fill="#222222"/>
<path d="M263.623 1850.46H253.542V1860.54H243.46V1850.46H233.379V1870.62H268.664V1860.54H263.623V1850.46Z" fill="#222222"/>
<path d="M243.46 1885.74V1875.66H233.379V1916H263.637V1875.66H253.555V1885.74H243.46ZM253.542 1905.92H243.46V1895.84H253.542V1905.92Z" fill="#222222"/>
<path d="M221.197 1843.32L228.324 1850.44L248.514 1830.25L268.663 1850.4L275.791 1843.28L248.514 1816L221.197 1843.32Z" fill="#222222"/>
<rect width="497" height="300" transform="translate(501 1716)" fill="#F2F5EE"/>
<path d="M715.165 1850.66C715.165 1850.35 714.961 1850.08 714.528 1850.08C702.685 1853.93 695.422 1865.02 695.422 1879.97C695.422 1894.92 702.685 1906.01 714.528 1909.86C714.961 1909.86 715.165 1909.59 715.165 1909.28C715.165 1908.59 713.24 1908.72 711.37 1906.92C706.885 1902.63 705.517 1892.3 705.517 1879.97C705.517 1867.64 706.885 1857.31 711.37 1853.02C713.24 1851.22 715.165 1851.34 715.165 1850.65V1850.66Z" fill="#222222"/>
<path d="M784.474 1850.08C784.041 1850.08 783.837 1850.35 783.837 1850.66C783.837 1851.35 785.761 1851.22 787.631 1853.03C792.117 1857.33 793.485 1867.65 793.485 1879.98C793.485 1892.31 792.117 1902.64 787.631 1906.94C785.761 1908.74 783.837 1908.62 783.837 1909.29C783.837 1909.6 784.041 1909.88 784.474 1909.88C796.317 1906.03 803.58 1894.93 803.58 1879.98C803.58 1865.04 796.317 1853.94 784.474 1850.09V1850.08Z" fill="#222222"/>
<path d="M734.379 1860.54H729.339V1870.62H734.379V1860.54Z" fill="#222222"/>
<path d="M722.211 1843.32L729.339 1850.44L749.529 1830.25L769.678 1850.4L776.805 1843.28L749.529 1816L722.211 1843.32Z" fill="#222222"/>
<path d="M744.46 1885.74V1875.66H734.379V1916H764.637V1875.66H754.555V1885.74H744.46ZM754.542 1905.92H744.46V1895.84H754.542V1905.92Z" fill="#222222"/>
<path d="M764.637 1850.46H754.542V1860.54H744.46V1850.46H734.379L734.379 1870.62L769.677 1870.62V1860.54H764.637V1850.46Z" fill="#222222"/>
<rect width="497" height="300" transform="translate(1002 1716)" fill="#F2F5EE"/>
<path d="M1197.7 1866C1197.7 1897.68 1210.2 1915.96 1232.47 1915.96C1233.69 1915.96 1235.04 1915.99 1236.26 1915.99V1915.01C1233.03 1915.01 1226.8 1914.19 1226.8 1914.19V1817.8C1226.8 1817.8 1233.03 1816.99 1236.26 1816.99V1816C1235.04 1816 1233.69 1816.03 1232.47 1816.03C1210.2 1816.03 1197.7 1834.32 1197.7 1865.99V1866Z" fill="#222222"/>
<path d="M1268.53 1816.04C1267.3 1816.04 1265.96 1816.01 1264.74 1816.01V1816.99C1267.97 1816.99 1274.2 1817.81 1274.2 1817.81V1914.2C1274.2 1914.2 1267.96 1915.01 1264.74 1915.01V1916C1265.96 1916 1267.3 1915.97 1268.53 1915.97C1290.8 1915.97 1303.3 1897.68 1303.3 1866.01C1303.3 1834.35 1290.8 1816.05 1268.53 1816.05V1816.04Z" fill="#222222"/>
<rect width="497" height="300" transform="translate(1503 1716)" fill="#F2F5EE"/>
<path d="M1730.03 1911.07C1722.54 1903.88 1720.25 1886.61 1720.25 1865.99C1720.25 1845.38 1722.54 1828.11 1730.03 1820.92C1733.15 1817.91 1736.38 1818.12 1736.38 1816.96C1736.38 1816.45 1736.05 1816 1735.31 1816C1715.5 1822.43 1703.36 1840.99 1703.36 1865.98C1703.36 1890.99 1715.5 1909.55 1735.31 1915.98C1736.04 1915.98 1736.38 1915.53 1736.38 1915.01C1736.38 1913.86 1733.15 1914.07 1730.03 1911.06V1911.07Z" fill="#222222"/>
<path d="M1767.68 1816.01C1766.95 1816.01 1766.62 1816.45 1766.62 1816.98C1766.62 1818.11 1769.85 1817.92 1772.97 1820.93C1780.46 1828.11 1782.76 1845.39 1782.76 1866.01C1782.76 1886.62 1780.46 1903.89 1772.97 1911.08C1769.85 1914.09 1766.62 1913.88 1766.62 1915.04C1766.62 1915.55 1766.95 1916 1767.68 1916C1787.49 1909.57 1799.64 1891.01 1799.64 1866.02C1799.64 1841.01 1787.49 1822.45 1767.68 1816.03V1816.01Z" fill="#222222"/>
<path d="M1734.61 1851.82L1750.94 1835.5L1767.24 1851.79L1773 1846.03L1750.94 1823.97L1728.85 1846.06L1734.61 1851.82Z" fill="#222222"/>
<path d="M1738.69 1851.82V1868.14H1767.24V1859.99H1763.16V1851.82H1755V1859.99H1746.84V1851.82H1738.69Z" fill="#222222"/>
<path d="M1738.69 1859.98H1734.61V1868.13H1738.69V1859.98Z" fill="#222222"/>
<path d="M1746.84 1880.37V1872.22H1738.69V1904.84H1763.16V1872.22H1755.01V1880.37H1746.84ZM1755 1896.68H1746.84V1888.53H1755V1896.68Z" fill="#222222"/>
<rect width="497" height="300" transform="translate(0 2020)" fill="#F2F5EE"/>
<path d="M235.457 2164.2H231.4V2172.32H235.457V2164.2Z" fill="#222222"/>
<path d="M243.571 2184.49V2176.37H235.456V2208.84H259.81V2176.37H251.696V2184.49H243.571ZM251.685 2200.73H243.571V2192.61H251.685V2200.73Z" fill="#222222"/>
<path d="M247.65 2128.35L225.652 2150.34L231.4 2156.08L247.65 2139.83L263.868 2156.04L269.605 2150.31L247.65 2128.35Z" fill="#222222"/>
<path d="M259.799 2156.09H251.685V2164.2H243.571V2156.09H235.456L235.457 2172.32L263.867 2172.32V2164.2H259.799V2156.09Z" fill="#222222"/>
<path d="M223.035 2215.09C215.531 2207.91 213.241 2190.62 213.241 2169.99C213.241 2149.37 215.531 2132.08 223.035 2124.9C226.154 2121.88 229.382 2122.08 229.382 2120.94C229.382 2120.41 228.968 2120 228.237 2120C219.174 2120 196.99 2134.89 196.99 2169.99C196.99 2205.1 219.174 2219.99 228.237 2219.99C228.968 2219.99 229.382 2219.57 229.382 2219.05C229.382 2217.91 226.154 2218.11 223.035 2215.09Z" fill="#222222"/>
<path d="M268.765 2120.01C268.034 2120.01 267.619 2120.43 267.619 2120.95C267.619 2122.09 270.848 2121.89 273.967 2124.91C281.47 2132.09 283.761 2149.38 283.761 2170.01C283.761 2190.63 281.47 2207.92 273.967 2215.1C270.837 2218.12 267.619 2217.92 267.619 2219.06C267.619 2219.59 268.034 2220 268.765 2220C277.828 2220 300.011 2205.1 300.011 2170.01C300.011 2134.91 277.828 2120.01 268.765 2120.01Z" fill="#222222"/>
<rect width="497" height="300" transform="translate(501 2020)" fill="#F2F5EE"/>
<path d="M748.655 2128.35L726.657 2150.34L732.405 2156.08L748.655 2139.83L764.862 2156.04L770.61 2150.31L748.655 2128.35Z" fill="#222222"/>
<path d="M744.576 2184.49V2176.37H736.462V2208.84H760.816V2176.37H752.702V2184.49H744.576ZM752.691 2200.73H744.576V2192.61H752.691V2200.73Z" fill="#222222"/>
<path d="M736.462 2164.2H732.404V2172.32H736.462V2164.2Z" fill="#222222"/>
<path d="M760.805 2156.09H752.691V2164.2H744.576V2156.09H736.462L736.462 2172.32L764.862 2172.32V2164.2H760.805V2156.09Z" fill="#222222"/>
<path d="M724.029 2215.09C716.525 2207.91 714.235 2190.62 714.235 2169.99C714.235 2149.37 716.525 2132.08 724.029 2124.9C727.148 2121.88 730.376 2122.08 730.376 2120.94C730.376 2120.41 729.962 2120 729.231 2120C720.168 2120 697.984 2134.89 697.984 2169.99C697.984 2205.1 720.168 2219.99 729.231 2219.99C729.962 2219.99 730.376 2219.57 730.376 2219.05C730.376 2217.91 727.148 2218.11 724.029 2215.09Z" fill="#222222"/>
<path d="M769.769 2120.01C769.039 2120.01 768.624 2120.43 768.624 2120.95C768.624 2122.09 771.853 2121.89 774.972 2124.91C782.475 2132.09 784.766 2149.38 784.766 2170.01C784.766 2190.63 782.475 2207.92 774.972 2215.1C771.842 2218.12 768.624 2217.92 768.624 2219.06C768.624 2219.59 769.039 2220 769.769 2220C778.833 2220 801.016 2205.1 801.016 2170.01C801.016 2134.91 778.833 2120.01 769.769 2120.01Z" fill="#222222"/>
<rect width="497" height="300" transform="translate(1002 2020)" fill="#F2F5EE"/>
<path d="M1229.03 2215.07C1221.54 2207.88 1219.25 2190.61 1219.25 2169.99C1219.25 2149.38 1221.54 2132.11 1229.03 2124.92C1232.15 2121.91 1235.38 2122.12 1235.38 2120.96C1235.38 2120.45 1235.05 2120 1234.31 2120C1214.5 2126.43 1202.36 2144.99 1202.36 2169.98C1202.36 2194.99 1214.5 2213.55 1234.31 2219.98C1235.04 2219.98 1235.38 2219.53 1235.38 2219.01C1235.38 2217.86 1232.15 2218.07 1229.03 2215.06V2215.07Z" fill="#222222"/>
<path d="M1266.67 2120.01C1265.95 2120.01 1265.62 2120.45 1265.62 2120.98C1265.62 2122.11 1268.84 2121.92 1271.97 2124.93C1279.46 2132.11 1281.75 2149.39 1281.75 2170.01C1281.75 2190.62 1279.46 2207.89 1271.97 2215.08C1268.84 2218.09 1265.62 2217.88 1265.62 2219.04C1265.62 2219.55 1265.95 2220 1266.67 2220C1286.49 2213.57 1298.64 2195.01 1298.64 2170.02C1298.64 2145.01 1286.49 2126.45 1266.67 2120.03V2120.01Z" fill="#222222"/>
<path d="M1237.69 2155.82V2172.14H1266.24V2163.99H1262.16V2155.82H1254.01V2163.99H1245.84V2155.82H1237.69Z" fill="#222222"/>
<path d="M1237.69 2163.98H1233.61V2172.13H1237.69V2163.98Z" fill="#222222"/>
<path d="M1233.61 2155.82L1249.94 2139.5L1266.24 2155.79L1272 2150.03L1249.94 2127.97L1227.85 2150.06L1233.61 2155.82Z" fill="#222222"/>
<path d="M1245.85 2184.37V2176.22H1237.7V2208.84H1262.17V2176.22H1254.02V2184.37H1245.85ZM1254.01 2200.68H1245.85V2192.53H1254.01V2200.68Z" fill="#222222"/>
<rect width="497" height="300" transform="translate(1503 2020)" fill="#F2F5EE"/>
</svg>
