<svg width="2000" height="1408" viewBox="0 0 2000 1408" fill="none" xmlns="http://www.w3.org/2000/svg">
<rect width="990" height="456" fill="white"/>
<path fill-rule="evenodd" clip-rule="evenodd" d="M541.764 179.663C544.619 176.774 546.9 178.224 549.232 179.706C550.95 180.798 552.695 181.907 554.718 181.316C560.551 180.872 566.108 185.313 570.057 189.141C587.711 197.563 590.443 219.042 587.996 236.526C587.131 238.44 587.19 240.483 587.246 242.471C587.328 245.331 587.407 248.077 584.726 250.161C588.19 254.812 578.911 261.793 574.948 263.488C571.63 263.598 571.816 264.539 572.032 265.636C572.21 266.535 572.408 267.539 570.714 268.275C562.352 273.832 552.708 275.454 542.955 276.859C539.436 277.938 536.681 276.721 533.686 275.398L533.685 275.398C532.88 275.042 532.058 274.679 531.2 274.351C529.496 273.761 527.698 273.267 525.882 272.769L525.882 272.769C520.001 271.155 513.945 269.493 510.391 264.345C503.546 255.473 499.317 244.402 499.096 233.296C496.966 232.089 498.173 229.836 498.727 229.198C500.26 227.43 500.308 225.395 500.355 223.428V223.428C500.37 222.769 500.386 222.118 500.457 221.487C502.131 208.358 504.399 193.262 517.595 187.035C519.855 187.213 523.544 185.218 527.425 183.118C533.066 180.067 539.113 176.796 541.764 179.663ZM528.406 195.548C522.869 201.032 519.91 206.482 519.397 213.949C519.033 216.96 518.552 219.986 518.069 223.024C517.239 228.239 516.404 233.489 516.152 238.753C519.896 256.299 545.925 266.275 560.738 256.311C575.898 244.585 571.249 220.776 566.185 204.956C563.47 200.643 559.209 198.882 554.908 197.105C551.915 195.868 548.903 194.623 546.379 192.505C544.471 192.859 542.518 193.66 540.554 194.465C536.452 196.147 532.3 197.849 528.409 195.548L528.406 195.548ZM566.227 198.01C567.196 194.83 564.834 193.814 562.015 194.913C562.61 195.351 563.134 195.736 563.616 196.09L563.62 196.093C564.583 196.801 565.376 197.383 566.227 198.01ZM547.331 269.333C545.465 272.34 551.087 272.323 551.248 269.265C550.658 269.275 550.102 269.284 549.574 269.294L549.461 269.296C549 269.304 548.559 269.311 548.134 269.319C547.86 269.323 547.593 269.328 547.331 269.333Z" fill="#222222"/>
<path fill-rule="evenodd" clip-rule="evenodd" d="M440.274 233.661C447.218 232.312 454.089 230.977 460.255 234.046C460.257 239.565 461.009 245.059 461.76 250.544C462.72 257.56 463.678 264.56 463.063 271.58C462.309 275.31 466.474 275.383 469.501 275.436C470.074 275.447 470.607 275.456 471.057 275.489C481.355 273.235 480.033 258.633 478.949 246.663C478.53 242.036 478.147 237.803 478.484 234.827C479.636 227.493 479.436 220.241 479.233 212.865C479.146 209.708 479.058 206.528 479.076 203.309C478.639 201.088 478.958 198.083 479.29 194.967C479.917 189.073 480.586 182.781 476.26 180.632C459.924 175.086 461.34 190.87 462.445 203.174C463.183 211.408 463.783 218.083 458.829 215.766C456.039 215.317 451.153 216.141 445.769 217.049C433.27 219.156 418.092 221.716 420.251 209.845C420.18 206.647 420.329 203.478 420.477 200.323C420.792 193.608 421.104 186.953 419.289 180.2C414.531 181.531 410.733 181.146 407.771 180.845C402.001 180.258 399.405 179.995 399.078 193.378C400.712 199.736 400.624 206.193 400.537 212.648C400.488 216.237 400.439 219.826 400.686 223.396C402.269 225.819 401.877 228.341 401.49 230.828C401.14 233.075 400.795 235.294 401.917 237.383C401.903 240.205 402.241 243.063 402.583 245.945C403.216 251.29 403.858 256.718 402.282 262.149C400.801 280.216 409.303 278.879 421.94 276.893C423.069 276.716 424.231 276.533 425.421 276.359C424.521 271.731 424.41 266.877 424.301 262.074C424.203 257.775 424.106 253.517 423.445 249.499C423.107 249.157 422.818 248.364 422.984 247.991C423.777 246.483 423.089 244.132 422.414 241.825C421.426 238.45 420.467 235.17 424.212 234.765C429.412 235.771 434.866 234.711 440.274 233.661ZM460.498 233.953L460.405 233.964C460.499 233.733 460.577 233.494 460.652 233.261C460.983 232.243 461.27 231.355 462.751 231.842C462.951 233.658 461.875 233.788 460.498 233.953Z" fill="#222222"/>
<path fill-rule="evenodd" clip-rule="evenodd" d="M351.73 237.451C381.337 250.239 360.567 267.117 337.46 263.58L337.463 263.576C335.149 261.97 333.441 259.058 331.868 256.378C330.186 253.509 328.658 250.906 326.711 250.453C326.711 250.086 326.752 249.689 326.793 249.287C326.935 247.889 327.084 246.425 325.582 245.914C321.237 243.102 310.866 242.741 309.348 248.476C310.194 250.16 310.515 252.182 310.833 254.183C311.288 257.048 311.736 259.872 313.71 261.609C315.44 262.531 316.85 264.617 318.252 266.691C320.414 269.89 322.559 273.062 325.831 271.893C327.872 272.329 329.803 273.545 331.731 274.759C333.636 275.959 335.538 277.157 337.54 277.598C343.437 277.916 349.627 277.141 355.593 276.395C358.472 276.034 361.3 275.68 364.017 275.459C366.007 274.028 368.272 273.011 370.516 272.004C374.742 270.107 378.891 268.245 380.983 263.712C381.413 262.968 381.882 262.218 382.356 261.458C384.704 257.701 387.19 253.724 385.724 249.191C385.053 247.315 384.65 245.272 384.246 243.224C383.206 237.948 382.156 232.627 376.48 229.976C372.075 225.546 366.009 224.184 359.917 222.816C356.33 222.011 352.735 221.203 349.464 219.767C347.238 218.398 344.086 217.856 340.908 217.309C334.798 216.259 328.592 215.191 328.687 208.205C327.716 203.69 330.962 197.432 335.151 195.638C337.105 195.443 339.197 194.853 341.322 194.253C345.817 192.985 350.465 191.673 354.289 193.967C355.063 194.446 355.854 194.917 356.649 195.389C361.698 198.392 366.879 201.473 368.842 207.295C369.508 207.239 370.226 207.194 370.971 207.148C376.999 206.775 384.804 206.293 381.311 198.694C380.91 195.431 379.167 193.448 376.402 191.667C376.086 191.463 375.754 191.262 375.417 191.057C373.432 189.854 371.27 188.542 371.056 185.913C365.838 181.642 359.584 179.436 352.828 180.09C350.242 181.13 347.652 180.475 345.1 179.83C342.062 179.061 339.079 178.306 336.223 180.443C334.973 181.721 334 181.282 332.969 180.816C332.119 180.433 331.23 180.031 330.112 180.556C326.201 182.382 322.434 184.506 319.715 187.916C311.794 196.37 311.111 208.883 316.113 218.995C317.687 224.417 322.104 226.113 326.707 227.88C329.546 228.971 332.457 230.088 334.814 232.124C336.855 233.278 338.348 234.281 339.586 235.112C343.292 237.601 344.713 238.556 351.73 237.451ZM327.431 186.577C326.274 185.048 324.55 187.437 324.876 189.127C325.728 188.276 326.579 187.425 327.431 186.577ZM328.064 192.551C328.566 193.965 328.136 194.837 326.772 195.169C327.052 194.603 327.33 194.039 327.67 193.349L328.064 192.551Z" fill="#222222"/>
<path fill-rule="evenodd" clip-rule="evenodd" d="M626.698 239.235C622.997 242.784 624.099 249.554 625.17 256.137C626.27 262.897 627.337 269.461 623.14 272.14C623.756 276.875 620.554 276.663 617.146 276.438C615.44 276.325 613.682 276.209 612.326 276.709C609.028 276.875 607.521 275.116 608.347 271.987C608.148 270.292 607.752 268.627 607.357 266.964C606.514 263.417 605.673 259.877 606.742 256.066C606.387 254.258 606.662 252.796 606.953 251.248C607.181 250.035 607.419 248.768 607.372 247.239C606.882 244.518 606.521 241.813 607.791 238.968C608.24 233.847 607.741 228.598 607.239 223.329C606.687 217.531 606.133 211.707 606.837 205.999C606.833 203.943 606.7 201.727 606.566 199.487V199.487C605.874 187.925 605.145 175.741 621.824 181.755C625.226 181.95 628.656 181.798 632.107 181.645C637.625 181.4 643.196 181.154 648.791 182.317C651.284 182.037 653.474 182.89 655.658 183.741C657.948 184.633 660.23 185.522 662.847 185.099C665.396 185.213 667.6 186.971 669.684 188.633C670.44 189.236 671.18 189.826 671.915 190.321C675.53 196.641 679.033 202.803 679.004 210.211C680.732 212.226 680.503 214.58 680.276 216.903C680.182 217.865 680.089 218.821 680.136 219.746C681.642 223.242 679.556 225.856 677.605 227.946C677.06 228.532 676.517 229.142 675.967 229.759L675.965 229.761C673.233 232.826 670.341 236.071 666.412 237.403C662.767 237.839 659.249 238.968 655.74 240.093C649.937 241.954 644.159 243.807 637.883 242.506C636.496 242.366 635.026 242.671 633.619 242.962C630.392 243.631 627.498 244.231 626.698 239.235ZM625.098 195.048C625.181 197.661 625.356 200.274 625.53 202.877C626.045 210.578 626.555 218.188 624.664 225.434C626.693 224.65 628.778 225.032 630.842 225.41C632.313 225.68 633.773 225.948 635.194 225.79C638.343 224.772 641.904 225.147 645.428 225.518C651.109 226.116 656.692 226.704 660.295 221.429C660.358 221.234 660.422 221.036 660.487 220.837C662.544 214.491 665.217 206.245 660.192 200.674C659.315 200.002 658.498 199.207 657.691 198.422C655.32 196.114 653.034 193.89 649.57 195.113C645.548 195.448 641.651 195.246 637.749 195.043C633.591 194.828 629.427 194.612 625.098 195.044L625.098 195.048Z" fill="#222222"/>
<path d="M589.366 246.214C590.006 246.937 590.089 247.143 589.355 247.665C588.83 247.083 588.638 246.871 589.366 246.214Z" fill="#222222"/>
<rect width="990" height="456" transform="translate(0 476)" fill="white"/>
<path d="M611.068 682.565C609.974 703.365 610.646 724.363 612.076 745.232C612.481 751.013 591.226 748.009 593.706 741.586L593.723 741.214L593.723 741.213C594.155 731.658 594.574 722.394 595.943 713.118C595.907 707.636 595.458 702.168 595.011 696.716C594.407 689.342 593.805 681.998 594.227 674.689C594.333 656.464 597.33 656.85 611.431 658.668C612.608 658.819 613.862 658.981 615.198 659.143C617.972 659.29 618.877 662.674 619.728 665.853C620.154 667.447 620.566 668.988 621.193 670.045C622.923 675.332 625.854 679.757 628.797 684.199C630.124 686.202 631.453 688.208 632.675 690.299C632.944 691.596 633.838 692.016 634.75 692.446C635.502 692.8 636.267 693.16 636.704 694.024C636.714 694.054 636.725 694.084 636.735 694.114C636.748 694.153 636.762 694.191 636.775 694.23C636.794 694.285 636.812 694.34 636.831 694.395C637.214 695.527 637.583 696.615 638.881 697.09C639.823 698.827 640.74 700.615 641.666 702.42L641.666 702.421C645.224 709.357 648.909 716.54 654.612 722.031C655.664 716.747 655.069 711.561 654.476 706.398C653.861 701.041 653.249 695.709 654.483 690.318C654.33 684.651 654.369 678.779 654.409 672.829V672.825C654.446 667.309 654.484 661.726 654.368 656.178C655.81 656.059 657.469 655.607 659.164 655.145C664.207 653.772 669.562 652.314 670.412 659.281C671.178 674.349 670.519 689.335 669.858 704.36L669.858 704.363L669.856 704.411C669.784 706.05 669.712 707.69 669.641 709.33C670.495 712.88 670.153 716.67 669.814 720.429C669.338 725.711 668.868 730.932 671.723 735.344C671.792 740.321 668.841 748.203 662.514 747.772C661.544 747.733 660.787 747.235 660.04 746.742C659.054 746.091 658.083 745.451 656.657 745.891C654.083 746.457 652.985 744.5 651.826 742.433C650.9 740.783 649.935 739.061 648.146 738.5C645.032 736.528 643.671 733.25 642.294 729.937C641.054 726.953 639.802 723.94 637.247 721.827C635.175 717.9 632.557 715.012 629.375 712.018C628.255 709.892 627.149 707.758 626.044 705.625C624.289 702.239 622.535 698.854 620.722 695.499C620.017 694.195 619.072 692.706 617.84 692.074C615.747 691.194 614.894 688.972 614.09 686.876C613.351 684.949 612.653 683.13 611.068 682.561V682.565Z" fill="#222222"/>
<path fill-rule="evenodd" clip-rule="evenodd" d="M400.727 675.737C402.591 678.23 402.334 680.506 400.651 682.93C401.872 683.422 402.788 683.737 403.494 683.98C404.522 684.333 405.109 684.534 405.548 684.908C406.131 685.405 406.454 686.206 407.208 688.072C407.49 688.772 407.833 689.621 408.273 690.661C409.106 702.94 409.469 716.125 403.82 727.294C402.776 732.402 399.044 735.684 395.375 738.911C394.633 739.563 393.895 740.212 393.181 740.875C392.533 741.405 391.764 742.371 390.922 743.429C388.294 746.732 384.953 750.931 382.331 745.598C382.017 750.509 378.021 751.155 373.929 751.817C371.766 752.167 369.576 752.522 367.888 753.513C366.452 754.324 365.214 753.96 363.932 753.582C362.92 753.284 361.88 752.977 360.694 753.236C350.661 753.747 337.318 749.689 332.269 740.45C331.814 739.598 330.87 739.258 329.911 738.913C328.709 738.481 327.486 738.041 327.183 736.573C326.992 736.194 326.801 735.816 326.611 735.441C322.858 728.021 319.422 721.229 319.212 712.485C319.348 710.59 319.051 708.74 318.757 706.905C318.243 703.702 317.737 700.545 319.548 697.268C320.893 694.501 321.723 691.514 322.553 688.531C323.706 684.383 324.857 680.242 327.387 676.702L327.794 676.293C336.693 667.347 348.469 655.51 362.354 658.111C365.545 659.064 369.092 659.665 372.692 660.276C383.501 662.109 394.79 664.024 398.346 675.753C398.869 676.672 399.129 676.629 400.727 675.733V675.737ZM383.856 732.344C388.3 725.878 388.814 719.09 389.354 711.962C389.478 710.324 389.604 708.668 389.778 706.995C393.085 697.324 389.393 687.219 383.5 679.439C375.954 670.272 352.641 669.044 346.287 679.768C341.376 690.565 337.611 700.885 339.347 712.937C339.018 719.313 339.36 726.016 343.58 731.155C344.08 728.23 358.632 738.424 355.711 739.741C364.229 742.449 371.237 738.793 378.226 735.146C380.096 734.17 381.964 733.196 383.859 732.344H383.856ZM392.575 671.942C392.96 669.123 391.343 667.476 388.158 666.998C389.023 667.968 389.834 668.876 390.708 669.853C391.291 670.505 391.902 671.189 392.575 671.942ZM381.643 669.393C380.612 666.504 380.592 666.494 377.773 666.962C377.912 667.126 378.046 667.292 378.179 667.457L378.179 667.457C379.01 668.488 379.791 669.458 381.643 669.393ZM346.139 733.691C346.587 735.065 347.45 735.747 348.728 735.736C348.515 735.568 348.313 735.408 348.113 735.25C347.498 734.763 346.91 734.297 346.139 733.691ZM372.463 669.795C373.421 668.971 370.859 668.121 370.836 669.109C371.18 669.253 371.525 669.399 371.868 669.544C372.067 669.628 372.265 669.711 372.463 669.795ZM353.686 660.156C352.772 659.927 352.617 659.889 352.081 660.628C352.365 661.095 352.687 660.904 353.14 660.635C353.38 660.493 353.657 660.329 353.985 660.229C353.877 660.203 353.777 660.178 353.686 660.156Z" fill="#222222"/>
<path d="M567.211 660.473C566.882 659.175 566.711 658.503 566.477 657.588L566.48 657.585C564.193 659.202 561.775 658.798 559.277 658.38C557.864 658.144 556.426 657.904 554.971 658.023C553.732 657.929 552.522 658.019 551.333 658.107C549.013 658.28 546.769 658.447 544.524 657.232C542.822 656.069 541.365 656.828 540.045 657.515C538.79 658.169 537.659 658.758 536.562 657.565C535.32 656.306 533.495 656.781 531.651 657.26C530.488 657.563 529.318 657.867 528.282 657.739C526.392 657.446 524.82 658.299 523.283 659.133C521.423 660.143 519.614 661.125 517.356 660.012C515.234 658.898 513.487 660.284 511.768 661.646C511.139 662.145 510.514 662.641 509.876 663.009C509.122 664.207 509.776 665.025 510.456 665.876C511.116 666.702 511.801 667.558 511.253 668.823C510.19 671.595 510.521 674.352 510.851 677.112C511.205 680.067 511.56 683.027 510.206 686.017C509.516 690.831 509.724 695.652 509.93 700.431C510.111 704.647 510.292 708.829 509.853 712.943C509.124 718.848 509.551 724.736 509.975 730.571C510.303 735.09 510.629 739.576 510.413 744.014C510.07 750.973 521.265 750.259 530.219 749.688C534.059 749.444 537.486 749.225 539.415 749.649C544.237 748.689 549.135 749.068 554.031 749.446C559.366 749.858 564.699 750.27 569.932 748.951C570.577 748.78 571.243 748.322 571.687 747.815C572.729 745.743 573.885 746.65 574.968 747.5C575.913 748.242 576.802 748.94 577.511 747.577C577.195 745.488 577.632 743.515 578.072 741.528C578.163 741.112 578.256 740.696 578.341 740.278C577.685 735.674 572.425 733.582 569.052 736.451C564.517 735.064 561.161 734.175 556.694 734.053C547.77 733.666 541.423 734.254 536.97 734.666C532.418 735.087 529.845 735.325 528.52 734.152C526.798 732.628 527.187 728.719 528.081 719.727L528.082 719.723C528.297 717.56 528.541 715.103 528.792 712.314C528.695 708.147 533.265 708.578 537.676 708.994C540.109 709.224 542.494 709.449 544.02 708.895C547.655 709.239 551.428 709.09 555.171 708.943C559.171 708.785 563.136 708.629 566.862 709.076C571.962 712.907 572.469 708.153 572.97 703.448C573.208 701.219 573.445 699.001 574.168 697.713C570.684 694.45 566.95 695.543 563.112 696.666L562.946 696.715C562.358 694.143 561.219 694.81 559.993 695.528C559.371 695.892 558.727 696.269 558.12 696.244C551.091 695.229 545.178 695.768 540.464 696.198C528.834 697.259 524.492 697.655 528.648 672.42C537.919 671.303 547.491 672.038 556.855 672.757C557.821 672.831 558.784 672.905 559.744 672.976C561.482 672.959 563.347 672.603 565.23 672.243C569.787 671.371 574.448 670.48 577.662 674.333C577.623 673.103 577.655 671.818 577.688 670.519C577.825 665.128 577.967 659.492 572.985 656.474C571.987 658.195 570.947 658.237 569.975 658.275C568.93 658.317 567.964 658.356 567.211 660.473Z" fill="#222222"/>
<path fill-rule="evenodd" clip-rule="evenodd" d="M433.527 749.955C443.467 751.839 430.826 753.17 426.626 752.884C423.623 753.301 423.91 750.301 424.122 748.08L424.122 748.079C424.152 747.76 424.181 747.457 424.199 747.182C424.232 746.841 424.311 746.499 424.39 746.159C424.627 745.142 424.861 744.134 423.85 743.174C423.652 742.637 423.87 742.058 424.085 741.488C424.426 740.581 424.76 739.693 423.411 739.02C423.581 735 423.404 730.81 423.224 726.582C422.931 719.671 422.633 712.659 423.843 706.122C422.28 698.931 422.539 691.617 422.799 684.308C422.863 682.501 422.927 680.694 422.963 678.889C423.252 676.871 423 674.748 422.748 672.617C422.299 668.83 421.848 665.02 424.419 661.744C426.625 659.598 429.7 659.819 432.773 660.041C434.527 660.167 436.281 660.294 437.871 659.979C443.671 658.396 449.685 659.001 455.6 659.595C455.812 659.617 456.025 659.638 456.237 659.659C456.514 659.678 456.789 659.705 457.062 659.731C458.466 659.866 459.841 659.998 461.297 659.083C464.485 658.175 468.027 659.042 471.434 659.876C473.081 660.279 474.696 660.675 476.224 660.858C480.602 660.427 484.393 663.013 485.954 666.896C487.084 669.1 488.615 671.193 490.151 673.292C493.494 677.863 496.857 682.46 496.135 688.279C496.529 695.88 491.626 701.359 486.85 706.696C485.001 708.763 483.171 710.808 481.675 712.946C478.985 716.501 470.276 716.268 461.652 716.037C451.059 715.753 440.593 715.473 441.57 722.222C441.587 724.811 441.774 727.438 441.962 730.073C442.359 735.642 442.759 741.249 441.56 746.619C441.23 748.698 439.227 748.708 437.28 748.718C435.649 748.727 434.058 748.735 433.523 749.959L433.527 749.955ZM441.241 677.248C441.527 679.177 441.284 681.925 441.025 684.851C440.488 690.908 439.884 697.727 443.77 699.616C446.644 699.566 449.562 699.687 452.486 699.809C459.496 700.1 466.548 700.392 473.144 698.329C478.342 695.578 477.528 682.996 474.05 678.885C467.504 671.547 456.988 673.882 447.773 675.929C445.489 676.436 443.285 676.925 441.241 677.245V677.248ZM427.486 748.621C426.569 748.443 426.709 748.988 426.868 749.603C426.926 749.827 426.986 750.06 426.998 750.272C427.676 750.339 427.602 749.81 427.526 749.27C427.494 749.041 427.461 748.81 427.486 748.621Z" fill="#222222"/>
<path d="M403.969 680.854C403.638 680.426 403.311 680.003 402.875 679.439C402.651 681.329 403.204 681.794 404.953 682.126C404.567 681.627 404.266 681.238 403.969 680.854Z" fill="#222222"/>
<rect x="0.5" y="952.5" width="989" height="455" fill="white"/>
<rect x="0.5" y="952.5" width="989" height="455" stroke="white"/>
<path d="M428.47 1172.33C427.501 1176.35 426.513 1180.38 425.573 1184.41C424.743 1187.94 423.905 1191.49 423.172 1195.05C421.156 1204.85 419.16 1214.66 417.217 1224.47C416.412 1228.55 415.81 1232.66 415.009 1236.74C414.31 1240.3 408.944 1242.36 406.215 1239.97C405.362 1239.23 404.832 1237.41 405.049 1236.26C405.926 1231.59 407.127 1226.98 408.269 1222.37C409.19 1218.64 410.26 1214.96 411.162 1211.22C412.387 1206.16 413.524 1201.06 414.667 1195.97C415.757 1191.12 416.687 1186.23 417.897 1181.41C419.377 1175.51 421.046 1169.65 422.699 1163.79C423.099 1162.37 423.504 1160.83 424.358 1159.68C426.576 1156.68 431.662 1157.18 433.253 1160.59C435.042 1164.42 436.623 1168.36 438.127 1172.32C440.943 1179.75 443.638 1187.22 446.386 1194.67C446.994 1196.31 447.606 1197.96 448.667 1199.58C449.274 1197.1 449.857 1194.63 450.489 1192.16C452.389 1184.73 454.129 1177.26 456.265 1169.9C459.032 1160.37 462.089 1150.93 465.112 1141.47C465.531 1140.16 466.356 1138.91 467.2 1137.8C468.241 1136.42 469.668 1136.55 471.119 1137.21C474.316 1138.68 474.832 1140.72 473.038 1143.7C471.852 1145.67 470.767 1147.77 470.097 1149.96C467.537 1158.37 465.15 1166.83 462.73 1175.29C461.4 1179.93 460.001 1184.57 458.873 1189.26C457.996 1192.92 457.504 1196.68 456.81 1200.38C455.884 1205.32 454.838 1210.25 454.023 1215.21C453.714 1217.08 453.806 1219.04 453.907 1220.95C454.042 1223.55 453.208 1224.72 450.296 1225.56C448.064 1226.21 446.025 1225.22 444.877 1223.44C443.315 1221 444.583 1218.35 443.927 1215.86C442.635 1210.94 441.763 1205.88 440.2 1201.05C437.877 1193.86 435.162 1186.8 432.501 1179.73C431.537 1177.17 430.24 1174.74 429.097 1172.26C428.89 1172.28 428.687 1172.31 428.48 1172.34L428.47 1172.33Z" fill="#222222"/>
<path d="M566.503 1161.1C560.925 1161.86 555.337 1162.58 549.764 1163.39C546.775 1163.82 546.674 1166.65 545.97 1168.68C544.118 1174.03 542.58 1179.49 540.946 1184.92C540.507 1186.37 540.237 1187.87 539.755 1189.31C539.061 1191.39 537.272 1191.76 535.426 1191.67C533.536 1191.58 531.935 1190.87 530.923 1189.05C530.035 1187.45 530.464 1186.2 531.159 1184.61C532.827 1180.81 534.201 1176.87 535.585 1172.95C539.673 1161.35 543.574 1149.67 549.378 1138.78C552.049 1133.77 555.159 1129 558.081 1124.12C558.929 1122.71 559.609 1121.12 560.718 1119.95C562.347 1118.22 567.275 1118.99 568.355 1121.14C569.232 1122.89 569.767 1124.84 570.269 1126.75C572.496 1135.26 574.622 1143.79 576.859 1152.3C577.559 1154.95 577.857 1155.01 581.064 1154.82C582.611 1154.74 584.313 1154.34 584.829 1156.63C585.35 1158.92 584.742 1160.22 582.158 1160.78C580.123 1161.22 580.312 1162.25 580.586 1163.78C581.141 1166.88 581.695 1170 581.898 1173.14C582.081 1175.95 579.574 1177.97 576.479 1177.91C574.343 1177.87 571.657 1174.99 571.725 1172.8C571.734 1172.54 571.739 1172.21 571.884 1172.03C573.822 1169.72 573.036 1167.15 572.588 1164.63C572.173 1162.31 571.508 1161.81 569.131 1161.74C568.273 1161.72 567.415 1161.65 566.561 1161.61L566.494 1161.11L566.503 1161.1ZM563.35 1132.65C557.695 1139.62 554.571 1147.28 551.085 1154.83H569.305C567.323 1147.45 565.428 1140.38 563.355 1132.65H563.35Z" fill="#222222"/>
<path d="M527.109 1125.69C525.691 1129.07 524.457 1132.54 522.823 1135.81C520.137 1141.19 517.206 1146.45 514.352 1151.74C512.794 1154.63 511.068 1157.43 509.641 1160.38C507.775 1164.23 506.141 1168.2 504.391 1172.11C501.744 1178.02 499.049 1183.91 496.441 1189.83C493.914 1195.57 491.436 1201.32 489.021 1207.1C488.49 1208.37 488.307 1209.78 488.008 1211.14C487.531 1213.28 485.024 1215.14 482.85 1214.92C479.277 1214.56 477.932 1212.76 479.19 1209.39C481.042 1204.45 483.11 1199.58 485.27 1194.76C488.384 1187.81 491.581 1180.89 494.893 1174.03C500.307 1162.83 505.837 1151.69 511.329 1140.53C513.489 1136.15 515.75 1131.82 517.799 1127.39C518.353 1126.19 518.508 1124.7 518.469 1123.35C518.401 1121.12 519.766 1119.75 521.969 1120.16C524.327 1120.6 526.675 1123.31 526.578 1125.46C526.752 1125.54 526.925 1125.61 527.099 1125.68L527.109 1125.69Z" fill="#222222"/>
<rect width="990" height="456" transform="translate(1010)" fill="white"/>
<path fill-rule="evenodd" clip-rule="evenodd" d="M1388.02 206.841C1395.08 208.251 1401.33 209.289 1406.72 203.561H1406.71C1404.97 172.893 1361.99 172.531 1343.32 188.225C1330.44 201.406 1341.49 223.179 1355.1 231.378C1358.12 233.755 1361.9 234.337 1365.61 234.907C1368.31 235.324 1370.98 235.734 1373.27 236.833C1370.2 239.131 1373.64 239.652 1378.39 240.372C1385.29 241.418 1394.95 242.883 1391.46 250.815C1386.41 261.31 1368.66 261.82 1360.05 255.586C1357.75 253.601 1356.51 250.731 1355.28 247.868C1354.51 246.088 1353.74 244.311 1352.72 242.751C1326.34 238.078 1336.5 253.187 1346.63 267.146C1363.21 283.514 1396.98 279.64 1407.5 258.126C1416.68 237.924 1407.35 227.099 1388.23 219.85C1384.82 218.788 1381.33 218.024 1377.85 217.263L1377.84 217.261C1370.52 215.656 1363.22 214.06 1356.72 209.693C1349.92 203.289 1361.32 196.099 1367.03 193.776C1373.28 192.573 1382.44 191.518 1386.25 197.545C1386.58 198.2 1386.98 198.86 1387.38 199.521C1388.91 202.041 1390.44 204.568 1388.02 206.841ZM1377.52 220.34C1379.35 220.156 1380.22 220.83 1380.13 222.361L1379.6 221.955L1377.52 220.34ZM1375.24 236.008C1374.25 237.335 1377.22 238.571 1377.77 236.698C1376.81 236.435 1376.03 236.222 1375.24 236.008ZM1339.09 248.869C1337.43 247.365 1337.43 246.963 1339.33 245.718L1339.21 247.256C1339.17 247.829 1339.13 248.338 1339.09 248.869ZM1404.38 257.944C1404.11 258.72 1403.85 259.48 1403.01 258.75C1403.14 258.55 1403.24 258.281 1403.35 258.01C1403.64 257.253 1403.94 256.484 1404.69 257.183C1404.61 257.315 1404.55 257.472 1404.49 257.637C1404.45 257.737 1404.41 257.841 1404.38 257.944ZM1350.22 186.757C1350.76 187.923 1352.45 185.813 1351.65 185.406L1350.22 186.757Z" fill="#222222"/>
<path fill-rule="evenodd" clip-rule="evenodd" d="M1593.71 244.159C1592.97 253.962 1592.24 263.728 1593.43 273.416H1593.43C1595.72 278.318 1602.89 277.922 1609.72 277.545C1613.44 277.339 1617.07 277.14 1619.75 277.806C1623.19 278.26 1626.73 277.831 1630.23 277.405C1634.52 276.884 1638.76 276.369 1642.75 277.481C1644.51 275.152 1646.22 274.842 1648.16 274.486C1649.47 274.248 1650.89 273.989 1652.51 273.084C1672.59 261.609 1682.15 216.741 1665.61 199.825C1654.15 184.46 1636.34 184.237 1618.73 184.017C1612.49 183.938 1606.27 183.86 1600.38 183.109C1599.6 184.368 1598.33 185.11 1597.12 185.817C1595.26 186.904 1593.54 187.91 1593.95 190.595C1594.76 200.472 1595.21 210.268 1594.47 220.202C1594.9 228.198 1594.3 236.191 1593.71 244.159ZM1653.3 226.984C1658.95 254.449 1633.68 261.728 1611.1 259.286H1611.1C1613.26 250.917 1613.11 242.341 1612.96 233.711C1612.84 226.271 1612.71 218.789 1614.06 211.362C1614.45 210.325 1614.36 208.845 1614.26 207.344C1614.08 204.675 1613.9 201.94 1616.5 201.517L1616.6 201.514C1638.5 200.905 1652.96 200.502 1653.3 226.984ZM1659.66 262.451C1663.3 259.578 1663.7 258.823 1662.94 256.351L1659.66 262.451ZM1661.21 208.845C1661.93 207.984 1662.44 207.619 1662.39 207.402C1660.79 200.41 1659.52 202.385 1661.21 208.845ZM1656.61 229.652C1658.22 227.116 1658.22 227.057 1656.83 224.625C1655.51 226.314 1655.48 227.01 1656.61 229.652ZM1604.27 226.475L1604.56 230.007C1605.69 228.496 1605.54 227.664 1604.27 226.475ZM1600.89 190.269C1601.49 189.622 1601.66 189.408 1600.96 188.886C1600.35 189.375 1600.36 189.605 1600.89 190.269Z" fill="#222222"/>
<path fill-rule="evenodd" clip-rule="evenodd" d="M1461.77 257.737H1461.77C1466.87 257.67 1471.98 257.604 1477.1 258.32C1479.13 258.862 1481.24 258.744 1482.9 257.232C1486.32 258.997 1489.58 259.654 1492.42 256.884C1496.03 258.855 1494.37 263.289 1492.85 267.342C1492.17 269.168 1491.51 270.918 1491.38 272.329C1489.99 275.815 1485.98 274.971 1481.96 274.124C1479.37 273.579 1476.78 273.032 1474.87 273.64C1470.09 273.915 1465.36 273.682 1460.62 273.449C1459.71 273.404 1458.8 273.359 1457.89 273.318C1449.11 272.821 1442.58 272.962 1437.72 273.066C1431.06 273.209 1427.54 273.285 1425.71 271.565C1423.65 269.639 1423.71 265.462 1423.83 256.605C1423.88 252.874 1423.94 248.312 1423.86 242.738C1425.24 230.383 1424.71 217.943 1424.18 205.466V205.46C1424.1 203.656 1424.03 201.851 1423.96 200.045C1424.82 198.24 1424.59 195.397 1424.35 192.529C1423.91 187.149 1423.46 181.684 1430.24 182.82C1435.31 183.287 1440.41 182.847 1445.52 182.407C1451.45 181.895 1457.41 181.382 1463.36 182.284C1466.17 182.669 1469.87 182.235 1473.71 181.786C1483.07 180.69 1493.25 179.499 1493.33 189.819C1493.6 191.347 1492.51 191.705 1491.35 192.088C1490.34 192.419 1489.28 192.769 1488.98 193.91C1488 196.079 1486.16 196.726 1483.86 196.562C1482.46 196.779 1478.09 196.421 1472.76 195.983H1472.75C1460.23 194.957 1442.38 193.495 1445.09 197.992C1444.9 199.532 1445.1 201.132 1445.31 202.718C1445.72 205.937 1446.13 209.097 1443.18 211.583C1445.02 212.599 1445.26 214.28 1445.47 215.747C1445.71 217.331 1445.9 218.663 1448.03 218.634C1453.93 217.635 1459.74 218.444 1465.56 219.334C1467.46 220.315 1470.82 219.964 1474.18 219.613C1479.54 219.054 1484.91 218.493 1484.47 223.288C1484.43 223.423 1484.38 223.556 1484.33 223.688C1483.77 225.332 1483.32 226.629 1485.87 226.294C1486.04 225.502 1486.09 224.681 1486.15 223.847C1486.26 221.997 1486.38 220.089 1487.87 218.322C1490.22 223.432 1490.7 230.763 1484.27 232.702C1483.23 233.531 1482.33 233.192 1481.39 232.838C1480.71 232.583 1480.02 232.321 1479.23 232.482C1477.49 233.188 1476.05 233.136 1475.05 230.885C1469.24 234.093 1461.99 233.837 1454.96 233.588C1452.01 233.483 1449.1 233.381 1446.36 233.534C1443.52 234.285 1443.78 238.34 1444.03 242.289V242.293C1444.18 244.587 1444.32 246.846 1443.85 248.399C1443.76 249.02 1443.63 249.634 1443.5 250.245C1443.05 252.371 1442.61 254.461 1443.59 256.674V256.677C1449.68 257.895 1455.73 257.816 1461.77 257.737ZM1448.05 260.656C1446.91 259.506 1445.74 259.754 1444.34 260.049C1443.89 260.143 1443.43 260.242 1442.93 260.302C1444.23 261.337 1445.36 261.074 1446.4 260.83C1446.97 260.698 1447.51 260.571 1448.05 260.656ZM1477.23 184.308C1476.59 185.489 1477.77 185.609 1478.94 185.728C1479.49 185.784 1480.04 185.839 1480.39 186.004C1480.85 185.014 1479.73 184.838 1478.65 184.667C1478.1 184.581 1477.56 184.495 1477.23 184.308ZM1431.71 189.648C1433.23 188.564 1433.14 188.147 1431.83 187.161C1430.61 187.432 1431 188.204 1431.46 189.123C1431.54 189.294 1431.63 189.47 1431.71 189.648ZM1455.24 268.129C1454.71 269.148 1455.66 269.082 1456.42 269.355C1456.81 268.463 1456.35 268.373 1455.76 268.258C1455.59 268.224 1455.41 268.188 1455.24 268.129ZM1431.18 269.273C1432.12 269.779 1432.45 267.86 1431.55 267.915C1431.47 268.197 1431.39 268.477 1431.32 268.758L1431.18 269.273Z" fill="#222222"/>
<path fill-rule="evenodd" clip-rule="evenodd" d="M1527.49 238.115C1527.64 235.453 1527.76 233.15 1527.64 231.749L1527.63 231.746C1532.81 231.657 1537.69 231.84 1542.72 232.028C1543.82 232.069 1544.93 232.111 1546.05 232.15C1547.76 232.289 1549.5 232.057 1551.22 231.826C1554.47 231.392 1557.69 230.961 1560.65 233.024C1561.62 233.417 1562.79 233.351 1563.95 233.286C1564.82 233.237 1565.68 233.188 1566.45 233.33C1573.18 234.615 1572.41 229.131 1571.74 224.355C1571.64 223.661 1571.54 222.982 1571.47 222.341C1571.36 221.493 1570.3 220.376 1569.46 220.12C1567.27 219.191 1565.06 219.393 1562.86 219.593C1560.43 219.815 1558.01 220.035 1555.64 218.723C1552.82 217.439 1549.69 217.937 1546.6 218.431C1544.66 218.741 1542.72 219.049 1540.88 218.914C1526.1 219.544 1526.11 219.474 1527.13 212.399C1527.57 209.33 1528.2 204.942 1527.9 198.721C1528.2 195.389 1540.45 195.4 1548.41 195.407C1551.02 195.41 1553.18 195.412 1554.28 195.294C1556.1 194.627 1557.81 195.411 1559.55 196.207C1561.29 197.004 1563.06 197.815 1564.99 197.193C1567.97 196.016 1569.59 197.546 1571.53 199.378C1571.86 199.693 1572.2 200.017 1572.56 200.338C1575.52 196.04 1578.64 183.586 1571.61 182.202C1563.26 181.447 1554.99 181.676 1546.71 181.906C1541.11 182.061 1535.51 182.216 1529.87 182.068C1525.94 181.794 1522.16 182.194 1518.39 182.593C1515.73 182.875 1513.07 183.156 1510.37 183.201C1508.02 183.636 1508.63 185.658 1509.24 187.691C1509.58 188.805 1509.92 189.923 1509.77 190.785C1510.2 199.882 1509.9 208.963 1509.59 218.035C1509.34 225.475 1509.09 232.909 1509.25 240.342C1506.69 250.861 1506.77 260.837 1509.68 271.379C1518.58 274.343 1528.24 274.019 1537.86 273.696C1545.88 273.427 1553.87 273.158 1561.4 274.786C1563.72 276.609 1565.49 275.385 1567.25 274.161C1569.02 272.935 1570.79 271.709 1573.12 273.544C1574.73 274.652 1575.95 273.972 1576.63 272.105C1581.89 259.786 1573.29 258.836 1568.76 258.334C1565.88 258.016 1564.64 257.879 1569.64 255.123C1567.42 254.247 1567.3 254.305 1565.06 255.445L1564.89 255.53C1559.5 256.434 1553.91 256.388 1548.29 256.341C1543.03 256.297 1537.75 256.253 1532.59 256.983C1526.41 258.457 1527.05 246.504 1527.49 238.115ZM1534.73 265.464C1535.37 265.404 1536.02 265.342 1536.13 265.733C1535.88 265.672 1535.5 265.707 1535.13 265.743C1534.49 265.803 1533.84 265.865 1533.73 265.474C1533.98 265.535 1534.35 265.5 1534.73 265.464Z" fill="#222222"/>
<rect width="990" height="456" transform="translate(1010 476)" fill="white"/>
<path d="M1508.53 656.362C1512.27 656.166 1515.77 656.687 1519.07 655.036C1524.15 655.226 1529.6 657.081 1534.8 657.297C1549.46 656.532 1564.7 656.794 1574.76 668.921C1593.23 686.315 1593.15 714.555 1578.61 734.519C1570.7 746.247 1553.35 745.731 1540.67 747.041C1532.79 745.919 1508.73 752.766 1507.56 742.336C1505.97 713.607 1507.34 685.061 1508.53 656.362L1508.53 656.362ZM1567.93 718.282C1568.22 716.865 1570.49 713.302 1568.15 713.13C1569.4 718.261 1564.32 718.172 1567.93 718.282ZM1565.22 714.148C1566.14 712.207 1565.34 709.924 1567.37 708.489C1567.81 708.176 1568.08 706.808 1567.79 706.392C1566.48 704.572 1567.24 702.603 1567.04 700.713C1566.81 689.484 1564.71 684.988 1556.4 677.726C1553.51 673.818 1531.53 672.107 1529.39 676.501C1528.02 694.621 1530.61 716.017 1529.24 731.99C1529.93 728.953 1542.52 731.31 1546.52 729.14C1551.95 728.408 1556.44 724.392 1561.25 723.563C1561.97 719.535 1564.94 717.343 1567.58 714.451C1566.65 714.332 1566.16 714.267 1565.22 714.148ZM1510.66 659.853C1510.18 661.566 1510.62 662.412 1512.09 662.818C1513.33 661.095 1512.32 660.497 1510.66 659.853ZM1553.37 674.109C1555.14 674.074 1555.75 673.271 1555.18 671.699C1554.65 672.407 1554.11 673.118 1553.37 674.109ZM1551.16 672.899C1552.76 672.784 1550.99 670.711 1550.8 669.058C1549.69 671.011 1551.19 671.798 1551.16 672.899ZM1520.94 663.479C1519.56 663.1 1518.71 662.866 1517.79 662.611C1517.89 664.262 1518.94 664.552 1520.94 663.479ZM1543.19 671.404C1542.72 673.071 1544.67 672.064 1545.7 672.17C1545.75 671.253 1543.91 671.705 1543.19 671.404ZM1566.53 680.936C1565.4 681.434 1566.99 682.416 1567.29 683.161C1568.51 682.636 1566.88 681.699 1566.53 680.936ZM1548.58 740.853C1547.95 742.278 1549.49 742.347 1550.82 741.476C1549.67 741.156 1549.12 741.005 1548.58 740.853ZM1533.17 672.317C1533.82 671.236 1532.69 671.386 1531.89 671.108C1531.46 671.977 1532.65 671.941 1533.17 672.317Z" fill="#222222"/>
<path d="M1345.43 684.342C1342.87 689.638 1345.44 695.746 1345.1 701.251C1343.38 709.821 1345.33 717.853 1344.55 726.516C1344.27 734.804 1350.41 743.789 1343.27 750.934C1336.89 759.617 1336.36 746.863 1328.12 748.056C1325.91 735.123 1329.88 722.962 1328.94 710.345C1327.6 700.219 1330.45 690.621 1329.2 680.743C1329.57 675.853 1323.96 667.372 1328.39 664.198C1329.41 663.851 1329.62 662.728 1329.23 661.667C1326.46 655.865 1338.27 655.836 1342.77 654.494C1345.91 661.226 1350.73 663.281 1355.18 668.409C1361.02 679.111 1370.62 688.246 1374.66 699.395C1378.8 706.074 1378.27 716.543 1385.59 719.496C1386.67 713.263 1385.23 706.805 1386.77 700.457C1386.7 696.133 1387.34 691.738 1387.15 687.451C1386.91 685.249 1387.39 683.862 1389.79 683.321C1388.96 679.939 1389.7 676.571 1388.17 673.372C1386.5 668.863 1390.91 663.006 1387.73 659.1C1390.99 654.697 1401.08 654.323 1403.98 659.307C1405 668.228 1402.38 676.852 1404.21 686.149C1399.97 682.552 1404.53 696.559 1403.77 698.656C1399.39 705.355 1410.61 745.825 1401.05 745.561C1395.09 743.403 1389.57 752.151 1385.73 747.801C1384.76 744.638 1378.17 739.436 1383.69 738.165C1367.55 727.524 1363.1 707.143 1349.9 693.562C1348.72 689.627 1348.94 687.28 1345.35 684.437C1345.14 683.765 1344.95 683.05 1343.46 683.731C1344.42 684.027 1344.92 684.186 1345.43 684.342L1345.43 684.342Z" fill="#222222"/>
<path d="M1445.09 671.683C1444.99 697.81 1441.84 688.747 1463.85 690.701C1469.73 692.174 1475.27 691.787 1481.28 692.324C1484.28 690.29 1490.79 691.832 1489.38 696.521C1488.72 700.044 1492.61 703.316 1489.33 706.162C1487.92 708.362 1486.12 707.36 1484.11 706.74C1479.64 711.647 1470.63 707.988 1464.56 708.576C1444.67 706.547 1443.06 710.764 1446.06 729.896C1460.38 729.007 1477.32 730.615 1492.17 733.845C1495.41 736.761 1496.5 744.607 1491.5 746.448C1470.32 753.22 1447.53 746.865 1425.78 747.225C1425.28 747.065 1424.49 746.145 1424.62 745.469C1425.57 738.582 1423.78 731.697 1424.43 724.862C1426.32 707.481 1423.79 690.198 1424.89 672.824C1426.71 650.997 1416.54 656.385 1438.44 655.053C1453.84 653.756 1469.34 653.933 1484.82 654.158C1495.02 654.566 1491.42 657.459 1492.89 665.177C1492.91 675.201 1480.76 671.072 1474.44 670.973C1464.49 671.428 1455.14 671.922 1445.1 671.689L1445.09 671.683ZM1467.96 702.131C1466.8 701.518 1465.8 701.479 1464.97 703.203C1467.49 702.386 1468.16 701.996 1469.62 699.644C1467.88 700.188 1467.5 700.91 1467.96 702.134L1467.96 702.131ZM1427.23 673.062C1429.52 670.681 1431.06 661.646 1426.79 658.688L1427.23 673.062ZM1429.94 742.402C1427.98 741.826 1427.1 742.339 1427.3 743.942C1428.14 743.452 1428.88 743.021 1429.94 742.402ZM1443.6 702.152L1443.67 704.415C1445.82 704.412 1446.16 702.34 1443.6 702.152ZM1427.19 684.685C1427.96 683.568 1427.16 681.318 1427.35 679.817C1426.56 680.678 1427.4 683.25 1427.19 684.685ZM1446.19 694.721C1447.23 695.203 1448.14 694.918 1448.91 693.867C1447.85 694.199 1447.1 694.437 1446.19 694.721ZM1447.92 737.352C1448.38 736.238 1449.98 736.361 1448.75 735.084C1446.68 734.052 1447.19 735.501 1447.92 737.352ZM1438.89 664.304C1437.1 664.23 1436.36 665.866 1437.61 666.641C1438 665.928 1438.36 665.268 1438.89 664.304ZM1487.26 658.613C1486.73 659.452 1488.17 659.464 1488.7 659.856C1489.35 658.875 1487.91 658.975 1487.26 658.613ZM1486.18 739.918C1485.43 740.85 1485.41 741.423 1486.53 741.639C1487.55 741.117 1487.14 740.547 1486.18 739.918ZM1442.76 694.628C1442.54 695.663 1443.61 695.162 1444.28 695.237C1444.37 694.329 1443.34 694.779 1442.76 694.628ZM1437.7 718.635C1437.93 717.68 1437.24 717.899 1436.53 717.875C1436.37 718.946 1436.98 718.631 1437.7 718.635Z" fill="#222222"/>
<path d="M1682.6 749.761C1679.92 747.838 1678.09 751.798 1674.62 751.098C1670.1 749.975 1667.23 752.776 1665.09 750.563C1664.36 749.736 1664.36 747.306 1663.43 746.729C1658.34 743.23 1659.27 736.124 1656.63 730.851C1628.1 734.098 1625.7 718.579 1616.24 744.565C1615.23 746.811 1615.29 746.839 1612.72 746.582C1611.72 749.025 1610.71 751.479 1609.68 754C1602.9 751.811 1607.24 748.606 1596.61 746.887C1599.23 738.609 1603.18 730.873 1606.28 722.765C1613.13 701.281 1622.01 680.324 1629.9 659.312C1630.08 652.479 1651.45 655.097 1651.97 660.744C1657.04 681.557 1664.24 702.042 1673.03 721.632C1674.16 727.645 1686.39 746.356 1682.6 749.764L1682.6 749.761ZM1641.38 676.831C1639.38 677.528 1639.28 679.431 1638.92 681.025C1629.69 725.407 1617.57 711.173 1647.01 713.723C1654.41 716.236 1648.51 705.934 1647.68 702.654C1644.41 694.267 1641.91 685.915 1641.38 676.831ZM1625.57 677.279C1623.66 677.268 1623.52 681.371 1622.25 683.195C1625.99 684.209 1624.58 679.456 1625.57 677.279ZM1626.53 721.013C1627.88 721.508 1628.98 722.054 1630.13 720.488C1628.8 720.015 1627.66 718.941 1626.53 721.013Z" fill="#222222"/>
<rect width="990" height="456" transform="translate(1010 952)" fill="white"/>
<g clip-path="url(#clip0_327_48)">
<path fill-rule="evenodd" clip-rule="evenodd" d="M1436.79 1213.12C1436.93 1208.9 1437.07 1204.73 1436.63 1200.76C1436.31 1200.41 1436.07 1199.61 1436.25 1199.26C1437.13 1197.83 1436.57 1195.49 1436.02 1193.19L1435.64 1161.75C1435.75 1158.61 1436.07 1155.52 1436.39 1152.44C1437.08 1145.88 1437.76 1139.38 1436.32 1132.67C1431.5 1133.7 1427.73 1133.11 1424.78 1132.65C1419.05 1131.75 1416.47 1131.34 1415.4 1144.43C1416.68 1150.75 1416.23 1157.07 1415.79 1163.38C1415.54 1166.89 1415.29 1170.4 1415.34 1173.91C1416.79 1176.37 1416.25 1178.82 1415.73 1181.23C1415.26 1183.41 1414.79 1185.56 1415.79 1187.67C1415.62 1190.43 1415.79 1193.25 1415.98 1196.09C1416.31 1201.36 1416.65 1206.71 1414.78 1211.94C1412.3 1229.55 1420.86 1228.72 1433.59 1227.49C1434.73 1227.38 1435.9 1227.27 1437.1 1227.16C1436.46 1222.58 1436.62 1217.82 1436.77 1213.11L1436.79 1213.12Z" fill="#222222"/>
<path d="M1319.97 1137.59C1323.71 1137.39 1327.21 1137.92 1330.51 1136.26C1335.59 1136.45 1341.04 1138.3 1346.24 1138.52C1360.9 1137.75 1376.14 1138.02 1386.2 1150.14C1404.67 1167.53 1404.59 1195.77 1390.05 1215.74C1382.14 1227.47 1364.79 1226.95 1352.11 1228.26C1344.23 1227.14 1320.17 1233.98 1319 1223.55C1317.41 1194.82 1318.78 1166.27 1319.97 1137.58V1137.59ZM1379.37 1199.51C1379.66 1198.09 1381.93 1194.53 1379.59 1194.36C1380.84 1199.49 1375.76 1199.4 1379.37 1199.51ZM1376.66 1195.37C1377.58 1193.43 1376.78 1191.15 1378.81 1189.71C1379.25 1189.4 1379.52 1188.03 1379.23 1187.61C1377.92 1185.79 1378.68 1183.82 1378.48 1181.93C1378.25 1170.7 1376.15 1166.2 1367.84 1158.94C1364.95 1155.03 1342.97 1153.32 1340.83 1157.71C1339.46 1175.83 1342.05 1197.23 1340.68 1213.2C1341.37 1210.16 1353.96 1212.52 1357.96 1210.35C1363.39 1209.62 1367.88 1205.6 1372.69 1204.77C1373.41 1200.74 1376.38 1198.55 1379.02 1195.66C1378.09 1195.54 1377.6 1195.48 1376.66 1195.36V1195.37ZM1322.1 1141.08C1321.62 1142.79 1322.06 1143.64 1323.53 1144.04C1324.77 1142.32 1323.76 1141.72 1322.1 1141.08ZM1364.81 1155.33C1366.58 1155.29 1367.19 1154.49 1366.62 1152.92C1366.09 1153.63 1365.55 1154.34 1364.81 1155.33ZM1362.6 1154.12C1364.2 1154.01 1362.43 1151.93 1362.24 1150.28C1361.13 1152.23 1362.63 1153.02 1362.6 1154.12ZM1332.38 1144.7C1331 1144.32 1330.15 1144.09 1329.23 1143.83C1329.33 1145.48 1330.38 1145.77 1332.38 1144.7ZM1354.63 1152.63C1354.16 1154.3 1356.11 1153.29 1357.14 1153.4C1357.19 1152.48 1355.35 1152.94 1354.63 1152.63ZM1377.97 1162.16C1376.84 1162.66 1378.43 1163.64 1378.73 1164.39C1379.95 1163.86 1378.32 1162.93 1377.97 1162.16ZM1360.02 1222.08C1359.39 1223.5 1360.93 1223.57 1362.26 1222.7C1361.11 1222.38 1360.56 1222.23 1360.02 1222.08ZM1344.61 1153.54C1345.26 1152.46 1344.13 1152.61 1343.33 1152.33C1342.9 1153.2 1344.09 1153.16 1344.61 1153.54Z" fill="#222222"/>
<path d="M1516.81 1141.88C1516.73 1131.56 1506.55 1132.75 1497.19 1133.85C1493.35 1134.3 1489.65 1134.73 1486.84 1134.35C1480.89 1133.45 1474.93 1133.96 1469 1134.47C1463.89 1134.91 1458.79 1135.35 1453.72 1134.88C1446.94 1133.74 1447.78 1144.16 1448.22 1149.54L1469.15 1148.89C1469.3 1151.1 1469.3 1153.16 1468.62 1154.58C1468.69 1156.39 1468.76 1158.19 1468.84 1160C1469.37 1172.48 1469.9 1184.92 1468.52 1197.28C1468.6 1202.85 1468.54 1207.42 1468.49 1211.15C1468.37 1220.01 1468.31 1224.18 1470.37 1226.11C1472.2 1227.83 1484.53 1227.02 1491.19 1226.88L1488.58 1194.87C1488.47 1192.36 1488.58 1190.04 1489.73 1188.83L1492.69 1173.18C1490.56 1173.21 1490.37 1171.88 1490.13 1170.29C1489.92 1168.82 1489.68 1167.14 1487.84 1166.13C1490.79 1163.64 1490.38 1160.48 1489.97 1157.27C1489.83 1156.25 1490.34 1151.74 1490.77 1148.23L1496.24 1148.06H1496.25C1501.58 1148.5 1505.95 1148.86 1507.35 1148.64C1509.65 1148.8 1511.49 1148.16 1512.47 1145.99C1512.77 1144.85 1513.83 1144.5 1514.84 1144.17C1516 1143.79 1517.09 1143.43 1516.82 1141.9L1516.81 1141.88ZM1455.19 1141.71C1455.11 1141.53 1455.02 1141.36 1454.94 1141.18C1454.48 1140.26 1454.09 1139.49 1455.31 1139.22C1456.62 1140.21 1456.71 1140.62 1455.19 1141.71ZM1503.87 1138.06C1503.52 1137.89 1502.97 1137.84 1502.42 1137.78C1501.25 1137.66 1500.07 1137.54 1500.71 1136.36C1501.04 1136.55 1501.58 1136.63 1502.13 1136.72C1503.21 1136.89 1504.33 1137.07 1503.87 1138.06Z" fill="#222222"/>
<path fill-rule="evenodd" clip-rule="evenodd" d="M1592.95 1134.48C1591.12 1132.76 1587.6 1132.84 1580.94 1132.98C1576.08 1133.08 1569.55 1133.23 1560.77 1132.73C1559.86 1132.69 1558.95 1132.64 1558.04 1132.6C1553.3 1132.37 1548.57 1132.13 1543.79 1132.41C1541.88 1133.02 1539.29 1132.47 1536.7 1131.93C1532.68 1131.08 1528.67 1130.24 1527.28 1133.72C1527.15 1135.13 1526.49 1136.88 1525.81 1138.71C1524.29 1142.76 1522.63 1147.2 1526.24 1149.17C1529.08 1146.4 1532.34 1147.06 1535.76 1148.82C1537.42 1147.31 1539.53 1147.19 1541.56 1147.73C1544.57 1148.15 1547.57 1148.3 1550.58 1148.34C1550.85 1149.96 1550.52 1151.54 1550.18 1153.14C1550.05 1153.75 1549.92 1160.58 1549.83 1161.2C1549.36 1162.75 1549.5 1165.01 1549.65 1167.31C1549.9 1171.26 1550.16 1175.32 1547.32 1176.07L1548.16 1227.2C1553.27 1226.76 1558.37 1226.32 1563.44 1226.79C1570.22 1227.93 1569.77 1222.46 1569.33 1217.08C1569.09 1214.21 1568.86 1211.37 1569.72 1209.56C1569.65 1207.75 1569.58 1205.95 1569.5 1204.15C1568.97 1191.67 1568.44 1179.23 1569.82 1166.87C1569.75 1162.04 1569.79 1153.31 1569.82 1148.63C1571.56 1148.8 1573.31 1149.03 1575.06 1149.38L1594.82 1149.45C1594.94 1140.59 1595 1136.42 1592.94 1134.49L1592.95 1134.48ZM1562.24 1136.69C1563 1136.96 1563.95 1136.9 1563.42 1137.92C1563.25 1137.86 1563.07 1137.82 1562.9 1137.79C1562.31 1137.67 1561.85 1137.58 1562.24 1136.69ZM1587.34 1137.28C1587.27 1137.56 1587.19 1137.84 1587.11 1138.12C1586.21 1138.18 1586.54 1136.26 1587.48 1136.76L1587.34 1137.28Z" fill="#222222"/>
<path fill-rule="evenodd" clip-rule="evenodd" d="M1683.71 1148.55C1685.57 1151.04 1685.32 1153.32 1683.63 1155.74C1684.85 1156.23 1685.77 1156.55 1686.47 1156.79C1687.5 1157.14 1688.09 1157.34 1688.52 1157.72C1689.1 1158.22 1689.43 1159.02 1690.18 1160.88C1690.46 1161.58 1690.8 1162.43 1691.25 1163.47C1692.08 1175.75 1692.45 1188.93 1686.8 1200.1C1685.76 1205.21 1682.02 1208.49 1678.35 1211.72C1677.61 1212.37 1676.87 1213.02 1676.16 1213.68C1675.51 1214.21 1674.74 1215.18 1673.9 1216.23C1671.27 1219.53 1667.93 1223.73 1665.31 1218.4C1665 1223.31 1661 1223.96 1656.91 1224.62C1654.75 1224.97 1652.56 1225.32 1650.87 1226.32C1649.43 1227.13 1648.2 1226.77 1646.91 1226.39C1645.9 1226.09 1644.86 1225.79 1643.67 1226.04C1633.64 1226.55 1620.29 1222.49 1615.25 1213.25C1614.79 1212.4 1613.85 1212.06 1612.89 1211.71C1611.69 1211.28 1610.46 1210.84 1610.16 1209.37C1609.97 1208.99 1609.78 1208.61 1609.59 1208.24C1605.84 1200.82 1602.4 1194.03 1602.19 1185.28C1602.33 1183.39 1602.03 1181.54 1601.73 1179.7C1601.22 1176.5 1600.71 1173.34 1602.52 1170.06C1603.87 1167.29 1604.69 1164.31 1605.53 1161.32C1606.68 1157.17 1607.83 1153.03 1610.36 1149.49L1610.77 1149.08C1619.67 1140.13 1631.44 1128.3 1645.33 1130.9C1648.52 1131.85 1652.07 1132.45 1655.67 1133.06C1666.48 1134.89 1677.77 1136.81 1681.32 1148.54C1681.84 1149.46 1682.1 1149.42 1683.7 1148.52L1683.71 1148.55ZM1666.84 1205.16C1671.28 1198.69 1671.8 1191.91 1672.34 1184.78C1672.46 1183.14 1672.59 1181.49 1672.76 1179.81C1676.07 1170.14 1672.37 1160.03 1666.48 1152.25C1658.93 1143.08 1635.62 1141.85 1629.27 1152.58C1624.36 1163.38 1620.59 1173.7 1622.33 1185.75C1622 1192.13 1622.34 1198.83 1626.56 1203.97C1627.06 1201.04 1641.61 1211.24 1638.69 1212.56C1647.21 1215.27 1654.22 1211.61 1661.21 1207.96C1663.08 1206.98 1664.95 1206.01 1666.84 1205.16ZM1675.56 1144.76C1675.94 1141.94 1674.33 1140.29 1671.14 1139.82C1672.01 1140.79 1672.82 1141.7 1673.69 1142.68C1674.27 1143.33 1674.88 1144.02 1675.56 1144.77V1144.76ZM1664.63 1142.21C1663.6 1139.32 1663.58 1139.31 1660.76 1139.78C1660.9 1139.94 1661.03 1140.11 1661.17 1140.27C1662 1141.3 1662.78 1142.27 1664.63 1142.21ZM1629.13 1206.51C1629.58 1207.88 1630.44 1208.57 1631.72 1208.56C1631.51 1208.39 1631.3 1208.23 1631.11 1208.07C1630.49 1207.58 1629.91 1207.12 1629.14 1206.51H1629.13ZM1655.45 1142.61C1656.41 1141.79 1653.85 1140.94 1653.82 1141.92C1654.16 1142.06 1654.51 1142.21 1654.85 1142.35C1655.05 1142.43 1655.25 1142.52 1655.45 1142.6V1142.61ZM1636.67 1132.97C1635.76 1132.74 1635.6 1132.7 1635.06 1133.44C1635.34 1133.91 1635.67 1133.72 1636.12 1133.44C1636.36 1133.3 1636.64 1133.13 1636.96 1133.03C1636.85 1133 1636.75 1132.98 1636.66 1132.96L1636.67 1132.97Z" fill="#222222"/>
</g>
<path d="M1829.3 1081.84C1835.56 1063.99 1838.71 1045.42 1842.72 1027.04C1842.5 1026.88 1842.28 1026.71 1842.05 1026.55C1843.09 1026.15 1844.13 1025.41 1845.15 1025.42C1847.1 1025.45 1848.52 1028.42 1847.78 1030.57C1846.83 1033.33 1845.7 1036.04 1844.93 1038.84C1844.3 1041.14 1844.08 1043.54 1843.68 1045.9C1843 1049.94 1842.24 1053.97 1841.66 1058.02C1841.29 1060.52 1841.19 1063.05 1840.97 1065.57C1840.95 1065.81 1840.94 1066.07 1840.89 1066.31C1839.94 1071.16 1839.02 1076.02 1838.03 1080.86C1837.28 1084.51 1836.47 1088.14 1835.61 1091.76C1835.18 1093.55 1832.95 1095.41 1831.35 1095.48C1829.19 1095.56 1826.62 1094.23 1825.8 1092.47C1823.64 1087.83 1821.16 1083.33 1818.84 1078.76C1818.15 1077.4 1817.56 1075.99 1816.47 1074.66C1816.21 1077.84 1816.02 1081.03 1815.68 1084.21C1815.3 1087.8 1814.85 1091.38 1814.3 1094.95C1814.02 1096.77 1812 1098.19 1809.58 1098.53C1807.57 1098.81 1805.76 1098 1804.96 1096.18C1804.65 1095.47 1804.55 1094.32 1804.92 1093.71C1806.82 1090.56 1806.86 1087.02 1807.23 1083.6C1808.09 1075.75 1808.68 1067.87 1809.31 1060C1809.49 1057.74 1813.47 1056.13 1815.47 1056.67C1818.46 1057.47 1819.6 1059.33 1820.55 1062.1C1822.43 1067.61 1824.83 1072.94 1827.04 1078.34C1827.54 1079.58 1828.12 1080.78 1828.67 1082C1828.88 1081.95 1829.09 1081.89 1829.3 1081.84L1829.3 1081.84Z" fill="#222222"/>
<path d="M1854.51 1053C1853.26 1053.3 1852.18 1053.54 1851.11 1053.82C1849.03 1054.35 1847.72 1053.23 1846.77 1051.66C1845.89 1050.19 1846.9 1048.98 1847.86 1048.04C1849.83 1046.14 1851.89 1044.32 1854 1042.58C1855.08 1041.7 1855.78 1040.82 1855.87 1039.34C1855.99 1037.42 1859.51 1035.72 1861.13 1036.81C1862.41 1037.69 1863.5 1037.44 1864.83 1037.04C1872.12 1034.78 1879.45 1032.62 1886.77 1030.44C1887.36 1030.26 1888.08 1030.03 1888.6 1030.21C1889.42 1030.49 1890.31 1030.96 1890.79 1031.62C1891.04 1031.96 1890.69 1033.23 1890.24 1033.5C1888.21 1034.76 1886.14 1036.08 1883.91 1036.9C1878.1 1039.06 1872.18 1040.93 1866.35 1043.01C1864.32 1043.74 1862.83 1044.96 1862.72 1047.48C1862.57 1050.88 1862.09 1054.26 1861.78 1057.65C1861.75 1057.98 1861.93 1058.33 1862.08 1058.95C1863.17 1057.92 1864.09 1057.03 1865.04 1056.17C1868.59 1052.97 1872.82 1050.91 1877.26 1049.38C1879.58 1048.58 1882.11 1048.25 1884.57 1048.01C1886.22 1047.85 1888.17 1048.31 1888.41 1050.22C1888.64 1052.14 1886.72 1052.53 1885.24 1053.08C1881.74 1054.4 1878.12 1055.52 1874.8 1057.2C1871.67 1058.79 1869.01 1061.08 1867.93 1064.74C1867.23 1067.11 1865.45 1067.87 1861.83 1067.54C1861.87 1069.07 1861.91 1070.54 1861.96 1072.25C1864.65 1071.12 1866.96 1070.04 1869.36 1069.19C1871.65 1068.38 1874.05 1067.87 1876.38 1067.14C1878.09 1066.61 1879.3 1067.62 1879.68 1068.82C1879.9 1069.53 1878.92 1071.07 1878.08 1071.59C1875.93 1072.94 1873.62 1074.08 1871.26 1075.01C1867.33 1076.55 1864.43 1079.36 1861.63 1082.31C1860.16 1083.85 1858.85 1085.53 1856.46 1085.67C1854.5 1085.78 1853.33 1084.8 1852.48 1083.19C1851.79 1081.85 1851.97 1080.73 1853.14 1079.74C1853.31 1079.6 1853.43 1079.32 1853.46 1079.09C1853.83 1075.19 1854.32 1071.3 1854.5 1067.4C1854.69 1063.18 1854.58 1058.95 1854.6 1054.73C1854.6 1054.26 1854.55 1053.78 1854.51 1053Z" fill="#222222"/>
<path d="M1913.62 1062.34C1913.01 1063.68 1912.5 1064.59 1912.18 1065.56C1911.16 1068.62 1909.56 1070.14 1907.11 1070.24C1904.32 1070.37 1902.12 1069.05 1901.22 1066.03C1899.84 1061.45 1898.58 1056.8 1897.71 1052.1C1896.77 1046.98 1896.33 1041.76 1895.66 1036.58C1895.62 1036.21 1895.43 1035.87 1895.38 1035.5C1895.23 1034.4 1894.63 1032.63 1895.08 1032.31C1896.37 1031.38 1898.08 1030.57 1899.62 1030.56C1902.07 1030.55 1903.72 1032.77 1903.66 1035.25C1903.52 1041.5 1904.48 1047.63 1905.52 1053.75C1905.71 1054.83 1906.02 1055.87 1906.28 1056.93C1906.61 1057.02 1906.94 1057.12 1907.27 1057.21C1907.64 1056.33 1907.91 1055.39 1908.39 1054.58C1910.72 1050.72 1914.39 1048.89 1918.09 1052.21C1918.65 1052.72 1919.05 1053.51 1919.3 1054.24C1920.16 1056.77 1920.87 1059.36 1921.76 1061.88C1922.46 1063.87 1923.45 1064.09 1924.57 1062.33C1926.73 1058.92 1928.82 1055.43 1930.54 1051.79C1931.93 1048.83 1932.46 1045.47 1933.85 1042.51C1935.68 1038.58 1935.66 1034.33 1936.64 1030.27C1936.78 1029.7 1936.62 1029.06 1936.6 1028.45C1939.19 1028.36 1940 1028.75 1940.32 1031.13C1940.71 1033.99 1940.88 1036.92 1940.72 1039.79C1940.53 1043.3 1940.34 1046.91 1939.38 1050.25C1937.48 1056.79 1934.67 1062.94 1929.66 1067.87C1925.14 1072.31 1917.73 1070.86 1914.92 1065.07C1914.57 1064.34 1914.22 1063.61 1913.62 1062.33L1913.62 1062.34Z" fill="#222222"/>
<path d="M1945.85 1033.65C1944.67 1028.09 1945.68 1022.8 1947.33 1017.6C1947.93 1015.72 1949.86 1015.08 1951.6 1015.26C1952.69 1015.36 1954.31 1016.29 1954.58 1017.19C1954.97 1018.5 1954.52 1020.15 1954.16 1021.58C1952.5 1028.05 1953.04 1034.27 1956.14 1040.18C1956.91 1041.64 1956.73 1043.17 1955.71 1043.87C1954.79 1044.5 1952.92 1044.6 1951.92 1044.08C1950.69 1043.43 1949.72 1042.02 1949.03 1040.73C1947.81 1038.45 1946.9 1036.02 1945.85 1033.65L1945.85 1033.65Z" fill="#222222"/>
<path d="M1956.86 1059.71C1956.83 1059.75 1956.63 1060.34 1956.22 1060.59C1953.87 1062.06 1950.18 1061.77 1948.33 1059.75C1947.79 1059.16 1947.72 1057.77 1947.97 1056.91C1948.36 1055.61 1951.39 1054.73 1952.65 1055.39C1954.35 1056.28 1956.56 1056.65 1956.86 1059.7L1956.86 1059.71Z" fill="#222222"/>
<defs>
<clipPath id="clip0_327_48">
<rect width="373.45" height="98.88" fill="white" transform="translate(1318.28 1130.56)"/>
</clipPath>
</defs>
</svg>
