<svg width="1354" height="923" viewBox="0 0 1354 923" fill="none" xmlns="http://www.w3.org/2000/svg">
<path d="M1037.76 328.46C1033.92 318.814 1038.66 308.845 1036.27 298.99C1029.41 301.765 1026.57 309.394 1023.1 315.328C1021.53 317.522 1022.58 321.993 1018.72 321.4C1019.52 313.324 1019.51 305.081 1015.15 297.912C1006.95 305.943 1003.28 317.157 999.037 327.464C992.938 332.395 999.143 319.452 999.459 317.341C1000.99 313.89 1001.82 301.422 1004.25 300.294C1006.06 301.707 1004.78 303.6 1005.2 305.625C1008.33 302.276 1010.41 298.533 1013.29 295.042C1018.43 287.572 1021.07 307.908 1022.19 310.795C1029.33 299.936 1041.58 282.937 1039.93 308.343C1039.06 315 1041.04 322.413 1037.77 328.46H1037.76Z" fill="#222222"/>
<path d="M957.459 330C958.667 308.534 966.84 308.867 940.861 312.106C940.409 317.686 942.863 325.243 938.751 329.389C937.649 315.82 937.273 300.264 941.114 287.175C945.436 287.336 940.033 305.19 941.354 308.489C946.705 308.303 952.101 307.851 957.446 308.653C958.586 308.994 959.739 308.713 960.383 307.727C961.647 302.028 961.98 286.919 966.408 284C965.986 288.988 964.806 293.902 963.841 298.831C963.621 302.781 961.892 306.966 963.689 310.718C959.986 312.054 961.907 328.671 957.459 329.998V330Z" fill="#222222"/>
<path d="M1080.99 300.46C1076.98 298.585 1072.94 299.012 1068.73 299.26C1065.11 300.028 1059.01 298.933 1057.91 303.446C1056.59 310.335 1054.15 316.968 1055.07 324.085C1062.02 323.501 1070.15 321.616 1076.71 324.319C1071.43 326.269 1060.65 326.279 1054.13 327.57C1052.75 325.275 1051.3 325.966 1051.75 322.542C1051.99 316.064 1053.29 309.796 1055.24 303.63C1057.16 299.38 1053.17 302.234 1052.53 299.375C1052.21 294.98 1063.7 296.304 1066.89 295.735C1070.99 296.344 1081.26 294.304 1080.99 300.463V300.46Z" fill="#222222"/>
<path d="M973.005 329.431C972.702 327.891 972.472 326.723 972.229 325.484C975.709 327.792 979.134 326.617 982.291 324.53C990.81 321.002 991.096 296.657 981.062 302.612C974.708 308.296 973.111 317.015 978.798 323.663C976.103 324.406 975.598 324.291 974.521 322.473C969.727 314.302 975.252 303.715 982.417 298.783C985.829 296.759 988.844 300.987 989.794 303.809C994.371 314.968 986.001 330.166 973.007 329.431H973.005Z" fill="#222222"/>
<path d="M1080.38 312.24C1072.22 312.121 1065.32 311.515 1058.27 315.599C1056.94 312.166 1062.1 310.002 1064.76 309.726C1069.89 310.029 1076.67 307.761 1080.38 312.24Z" fill="#222222"/>
<path d="M1037.76 328.46C1033.92 318.814 1038.66 308.845 1036.27 298.99C1029.41 301.765 1026.57 309.394 1023.1 315.328C1021.53 317.522 1022.58 321.993 1018.72 321.4C1019.52 313.324 1019.51 305.081 1015.15 297.912C1006.95 305.943 1003.28 317.157 999.037 327.464C992.938 332.395 999.143 319.452 999.459 317.341C1000.99 313.89 1001.82 301.422 1004.25 300.294C1006.06 301.707 1004.78 303.6 1005.2 305.625C1008.33 302.276 1010.41 298.533 1013.29 295.042C1018.43 287.572 1021.07 307.908 1022.19 310.795C1029.33 299.936 1041.58 282.937 1039.93 308.343C1039.06 315 1041.04 322.413 1037.77 328.46H1037.76Z" stroke="#222222"/>
<path d="M957.459 330C958.667 308.534 966.84 308.867 940.861 312.106C940.409 317.686 942.863 325.243 938.751 329.389C937.649 315.82 937.273 300.264 941.114 287.175C945.436 287.336 940.033 305.19 941.354 308.489C946.705 308.303 952.101 307.851 957.446 308.653C958.586 308.994 959.739 308.713 960.383 307.727C961.647 302.028 961.98 286.919 966.408 284C965.986 288.988 964.806 293.902 963.841 298.831C963.621 302.781 961.892 306.966 963.689 310.718C959.986 312.054 961.907 328.671 957.459 329.998V330Z" stroke="#222222"/>
<path d="M1080.99 300.46C1076.98 298.585 1072.94 299.012 1068.73 299.26C1065.11 300.028 1059.01 298.933 1057.91 303.446C1056.59 310.335 1054.15 316.968 1055.07 324.085C1062.02 323.501 1070.15 321.616 1076.71 324.319C1071.43 326.269 1060.65 326.279 1054.13 327.57C1052.75 325.275 1051.3 325.966 1051.75 322.542C1051.99 316.064 1053.29 309.796 1055.24 303.63C1057.16 299.38 1053.17 302.234 1052.53 299.375C1052.21 294.98 1063.7 296.304 1066.89 295.735C1070.99 296.344 1081.26 294.304 1080.99 300.463V300.46Z" stroke="#222222"/>
<path d="M973.005 329.431C972.702 327.891 972.472 326.723 972.229 325.484C975.709 327.792 979.134 326.617 982.291 324.53C990.81 321.002 991.096 296.657 981.062 302.612C974.708 308.296 973.111 317.015 978.798 323.663C976.103 324.406 975.598 324.291 974.521 322.473C969.727 314.302 975.252 303.715 982.417 298.783C985.829 296.759 988.844 300.987 989.794 303.809C994.371 314.968 986.001 330.166 973.007 329.431H973.005Z" stroke="#222222"/>
<path d="M1080.38 312.24C1072.22 312.121 1065.32 311.515 1058.27 315.599C1056.94 312.166 1062.1 310.002 1064.76 309.726C1069.89 310.029 1076.67 307.761 1080.38 312.24Z" stroke="#222222"/>
<path d="M891.275 418.146C888.017 425.897 886.118 433.388 882.993 441.096C882.263 442.997 882.162 442.992 880 442.049C880.568 433.688 885.443 425.867 887.757 417.758C888.507 416.037 889.75 411.963 892.187 414.001C895.37 416.595 898.383 419.344 899.747 423.396C900.717 426.28 901.74 429.148 902.761 432.085C906.714 428.766 924.021 390.411 922.839 413.184C922.94 422.73 921.068 432.482 924.508 441.672C915.605 451.609 919.118 417.195 918.681 413.521C914.804 417.225 912.601 423.151 909.689 427.83C907.633 431.727 905.567 435.619 903.629 439.573C902.634 441.376 899.401 441.011 899.265 438.833C897.848 431.207 897.189 423.994 891.273 418.141L891.275 418.146Z" fill="#222222"/>
<path d="M981.962 433.843C998.87 415.132 1002.65 400.62 998.718 436.934C999.307 437.075 999.908 437.22 1000.54 437.372C1000.22 440.384 995.137 441.889 994.556 438.148C993.593 432.462 995.316 427.71 996.084 421.905C990.524 426.047 987.38 432.525 982.906 437.765C981.479 439.501 978.163 438.93 978.14 436.567C976.145 433.16 980.027 420.502 976.89 425.139C974.998 428.263 973.086 431.374 971.297 434.556C968.905 437.982 966.167 436.234 968.832 432.83C970.643 430.477 985.288 400.7 983.497 416.225C982.596 421.29 979.479 429.589 981.964 433.846L981.962 433.843Z" fill="#222222"/>
<path d="M1026.54 426.995C1030.04 429.791 1036.23 433.938 1030.51 437.835C1025.63 441.061 1018.98 443.052 1013.31 441.149C1011.33 440.439 1011.01 440.071 1011.2 438.015C1011.54 434.208 1011.97 430.404 1012.51 426.617C1013.53 423.658 1013.06 415.455 1015.97 414.407C1033.69 409.019 1051.4 413.011 1026.54 426.995ZM1014.87 438.265C1018.41 438.535 1032.41 438.883 1029.37 432.905C1027.25 428.686 1015.22 429.088 1025.6 424.229C1046.44 413.876 1029.73 412.969 1017.46 417.353C1016.9 424.244 1014.83 430.887 1014.87 438.268V438.265Z" fill="#222222"/>
<path d="M1101.44 436.872C1097.48 436.269 1094.4 433.488 1090.17 433.375C1089.02 435.609 1089.27 438.333 1087.13 439.808C1086.19 440.509 1085.31 440.111 1085.16 438.95C1085.27 436.172 1085.49 433.293 1085.87 430.544C1088.32 426.177 1087.96 420.907 1089.61 416.48C1095.58 412.588 1091.37 425.317 1091.21 427.795C1097.13 428.573 1099.99 422.633 1103.72 419.259C1104.78 418.121 1104.68 416.628 1104.47 415.217C1103.3 411.403 1097.92 413.146 1094.88 412.891C1092.62 413.389 1090.49 415.257 1088.19 413.894C1090.45 409.497 1098.28 410.27 1102.64 409.87C1106.41 409.737 1108.95 413.259 1107.59 417.208C1106.11 422.015 1101.22 424.791 1097.87 428.323C1093.81 430.587 1095.91 431.212 1098.95 432.778C1100.14 433.675 1101.5 434.356 1102.97 435.246C1102.34 435.909 1101.81 436.472 1101.44 436.872H1101.44Z" fill="#222222"/>
<path d="M1108.83 442.977C1117.88 439.731 1126.6 438.177 1135.48 434.381C1132.13 430.169 1125.53 430.289 1120.74 428.321C1110.59 423.033 1129.37 410.845 1134.68 408.832C1136.17 408.489 1136.82 410.017 1136.16 410.958C1135.04 411.84 1133.76 412.531 1132.5 413.221C1129.79 414.026 1128.18 416.393 1125.5 417.386C1123.25 418.534 1122.18 420.79 1121.71 423.211C1121.11 427.523 1132.42 428.468 1135.6 430.316C1139.47 431.334 1140.55 436.089 1136.12 437.25C1132.55 437.965 1129.82 440.328 1126.01 440.626C1120.5 441.967 1114.35 445.823 1108.83 442.977Z" fill="#222222"/>
<path d="M941.075 431.204C941.027 433.148 940.982 435.024 940.926 437.26C947.375 435.856 953.528 434.909 960.224 436.574C957.031 438.34 953.432 437.432 949.972 438.258C947.17 438.675 944.384 439.268 941.644 439.978C939.229 440.604 938.676 440.466 937.913 438.157C936.504 432.222 937.772 425.777 938.946 419.947C943.286 416.177 941.957 425.249 941.727 427.798C947.673 424.604 955.114 425.354 959.214 430.396C951.755 428.913 948.181 427.683 941.075 431.204Z" fill="#222222"/>
<path d="M1052.09 432.052C1053.17 434.013 1052.12 435.881 1052.66 437.987C1052.78 439.851 1051.75 440.506 1049.41 440.366C1048.38 437.422 1049.15 434.463 1049.69 431.577C1049.49 428.936 1054.28 420.174 1051.13 419.647C1049.19 419.609 1049.37 417.441 1050.79 416.81C1052.27 416.24 1053.82 415.865 1054.76 414.407C1054.9 414.204 1055.49 414.042 1055.66 414.159C1061.46 416.235 1074.32 409.412 1079.36 415.862C1078.74 416.03 1078.26 416.34 1077.96 416.215C1075 414.969 1072.01 414.862 1068.91 415.605C1064.28 416.395 1056.93 416.22 1055.43 421.685C1054.45 423.738 1054.28 432.027 1052.09 432.052H1052.09Z" fill="#222222"/>
<path d="M962.118 416.885C958.074 411.248 946.279 416.002 940.752 417.638C938.832 418.393 936.857 419.299 934.771 417.763C936.574 413.814 942.52 414.559 946.044 412.733C949.426 411.243 967.92 409.715 962.118 416.885Z" fill="#222222"/>
<path d="M1053.96 430.939C1057.79 424.821 1071.34 424.364 1075.39 429.046C1070.39 428.641 1065.74 427.793 1060.85 429.133C1058.35 429.541 1056.67 432.002 1053.96 430.937V430.939Z" fill="#222222"/>
<path d="M1073.98 438.92C1068 439.911 1061.85 439.123 1055.84 439.873C1054.42 439.901 1054.1 438.483 1055.1 437.785C1061.17 436.644 1067.86 437.627 1074.01 438.28C1074 438.493 1073.99 438.708 1073.98 438.92Z" fill="#222222"/>
<path d="M891.275 418.146C888.017 425.897 886.118 433.388 882.993 441.096C882.263 442.997 882.162 442.992 880 442.049C880.568 433.688 885.443 425.867 887.757 417.758C888.507 416.037 889.75 411.963 892.187 414.001C895.37 416.595 898.383 419.344 899.747 423.396C900.717 426.28 901.74 429.148 902.761 432.085C906.714 428.766 924.021 390.411 922.839 413.184C922.94 422.73 921.068 432.482 924.508 441.672C915.605 451.609 919.118 417.195 918.681 413.521C914.804 417.225 912.601 423.151 909.689 427.83C907.633 431.727 905.567 435.619 903.629 439.573C902.634 441.376 899.401 441.011 899.265 438.833C897.848 431.207 897.189 423.994 891.273 418.141L891.275 418.146Z" stroke="#222222"/>
<path d="M981.962 433.843C998.87 415.132 1002.65 400.62 998.718 436.934C999.307 437.075 999.908 437.22 1000.54 437.372C1000.22 440.384 995.137 441.889 994.556 438.148C993.593 432.462 995.316 427.71 996.084 421.905C990.524 426.047 987.38 432.525 982.906 437.765C981.479 439.501 978.163 438.93 978.14 436.567C976.145 433.16 980.027 420.502 976.89 425.139C974.998 428.263 973.086 431.374 971.297 434.556C968.905 437.982 966.167 436.234 968.832 432.83C970.643 430.477 985.288 400.7 983.497 416.225C982.596 421.29 979.479 429.589 981.964 433.846L981.962 433.843Z" stroke="#222222"/>
<path d="M1026.54 426.995C1030.04 429.791 1036.23 433.938 1030.51 437.835C1025.63 441.061 1018.98 443.052 1013.31 441.149C1011.33 440.439 1011.01 440.071 1011.2 438.015C1011.54 434.208 1011.97 430.404 1012.51 426.617C1013.53 423.658 1013.06 415.455 1015.97 414.407C1033.69 409.019 1051.4 413.011 1026.54 426.995ZM1014.87 438.265C1018.41 438.535 1032.41 438.883 1029.37 432.905C1027.25 428.686 1015.22 429.088 1025.6 424.229C1046.44 413.876 1029.73 412.969 1017.46 417.353C1016.9 424.244 1014.83 430.887 1014.87 438.268V438.265Z" stroke="#222222"/>
<path d="M1101.44 436.872C1097.48 436.269 1094.4 433.488 1090.17 433.375C1089.02 435.609 1089.27 438.333 1087.13 439.808C1086.19 440.509 1085.31 440.111 1085.16 438.95C1085.27 436.172 1085.49 433.293 1085.87 430.544C1088.32 426.177 1087.96 420.907 1089.61 416.48C1095.58 412.588 1091.37 425.317 1091.21 427.795C1097.13 428.573 1099.99 422.633 1103.72 419.259C1104.78 418.121 1104.68 416.628 1104.47 415.217C1103.3 411.403 1097.92 413.146 1094.88 412.891C1092.62 413.389 1090.49 415.257 1088.19 413.894C1090.45 409.497 1098.28 410.27 1102.64 409.87C1106.41 409.737 1108.95 413.259 1107.59 417.208C1106.11 422.015 1101.22 424.791 1097.87 428.323C1093.81 430.587 1095.91 431.212 1098.95 432.778C1100.14 433.675 1101.5 434.356 1102.97 435.246C1102.34 435.909 1101.81 436.472 1101.44 436.872H1101.44Z" stroke="#222222"/>
<path d="M1108.83 442.977C1117.88 439.731 1126.6 438.177 1135.48 434.381C1132.13 430.169 1125.53 430.289 1120.74 428.321C1110.59 423.033 1129.37 410.845 1134.68 408.832C1136.17 408.489 1136.82 410.017 1136.16 410.958C1135.04 411.84 1133.76 412.531 1132.5 413.221C1129.79 414.026 1128.18 416.393 1125.5 417.386C1123.25 418.534 1122.18 420.79 1121.71 423.211C1121.11 427.523 1132.42 428.468 1135.6 430.316C1139.47 431.334 1140.55 436.089 1136.12 437.25C1132.55 437.965 1129.82 440.328 1126.01 440.626C1120.5 441.967 1114.35 445.823 1108.83 442.977Z" stroke="#222222"/>
<path d="M941.075 431.204C941.027 433.148 940.982 435.024 940.926 437.26C947.375 435.856 953.528 434.909 960.224 436.574C957.031 438.34 953.432 437.432 949.972 438.258C947.17 438.675 944.384 439.268 941.644 439.978C939.229 440.604 938.676 440.466 937.913 438.157C936.504 432.222 937.772 425.777 938.946 419.947C943.286 416.177 941.957 425.249 941.727 427.798C947.673 424.604 955.114 425.354 959.214 430.396C951.755 428.913 948.181 427.683 941.075 431.204Z" stroke="#222222"/>
<path d="M1052.09 432.052C1053.17 434.013 1052.12 435.881 1052.66 437.987C1052.78 439.851 1051.75 440.506 1049.41 440.366C1048.38 437.422 1049.15 434.463 1049.69 431.577C1049.49 428.936 1054.28 420.174 1051.13 419.647C1049.19 419.609 1049.37 417.441 1050.79 416.81C1052.27 416.24 1053.82 415.865 1054.76 414.407C1054.9 414.204 1055.49 414.042 1055.66 414.159C1061.46 416.235 1074.32 409.412 1079.36 415.862C1078.74 416.03 1078.26 416.34 1077.96 416.215C1075 414.969 1072.01 414.862 1068.91 415.605C1064.28 416.395 1056.93 416.22 1055.43 421.685C1054.45 423.738 1054.28 432.027 1052.09 432.052H1052.09Z" stroke="#222222"/>
<path d="M962.118 416.885C958.074 411.248 946.279 416.002 940.752 417.638C938.832 418.393 936.857 419.299 934.771 417.763C936.574 413.814 942.52 414.559 946.044 412.733C949.426 411.243 967.92 409.715 962.118 416.885Z" stroke="#222222"/>
<path d="M1053.96 430.939C1057.79 424.821 1071.34 424.364 1075.39 429.046C1070.39 428.641 1065.74 427.793 1060.85 429.133C1058.35 429.541 1056.67 432.002 1053.96 430.937V430.939Z" stroke="#222222"/>
<path d="M1073.98 438.92C1068 439.911 1061.85 439.123 1055.84 439.873C1054.42 439.901 1054.1 438.483 1055.1 437.785C1061.17 436.644 1067.86 437.627 1074.01 438.28C1074 438.493 1073.99 438.708 1073.98 438.92Z" stroke="#222222"/>
<path d="M1237.37 174.435C1238.39 157.214 1237.89 140.049 1237.8 122.834C1237.31 118.77 1231.75 118.421 1228.57 118.366C1208.91 116.372 1189.11 115.73 1169.45 113.832C1132.71 115.109 1095.85 115.216 1059.07 113.618C969.753 114.591 880.002 108.612 791.217 120.888C791.203 139.155 790.727 157.228 791.231 175.467C791.054 178.78 792.228 189.207 791.067 195.528V205.976C797.665 204.44 804.79 204.44 811.304 202.646C830.864 198.447 850.743 200.072 870.431 202.067C906.134 201.445 941.713 201.966 977.434 202.491C1009.95 202.474 1042.48 204.92 1074.96 203.616C1128.8 202.632 1182.8 202.781 1236.5 206V198.737C1236.26 197.954 1236.29 196.791 1236.4 195.076C1236.84 188.203 1237.15 181.323 1237.37 174.439V174.435Z" fill="#FACDBE"/>
<path d="M881.375 141.132C879.385 151.4 877.464 161.613 874.049 171.509C873.758 172.549 873.38 173.834 871.986 174.213C868.855 166.788 868.1 159.025 867.268 150.849C867.08 150.68 866.619 150.125 866.033 149.76C861.124 146.531 860.628 154.932 858.558 157.692C855.566 162.988 853.982 169.079 849.97 173.703C847.876 167.115 846.489 160.596 844.021 154.153C842.044 149.009 841.819 142.183 836.036 139.723C835.166 139.254 834.476 139.709 834.184 140.646C833.293 142.965 835.859 144.64 837.017 146.349C838.768 151.048 840.658 155.714 842.082 160.517C844.832 166.685 844.957 179.251 849.551 183.33C853 181.325 853.357 177.263 855.188 174.027C858.01 168.028 860.701 162.963 863.107 156.586C867.188 165.065 865.967 175.412 872.073 182.838C874.531 181.797 875.179 179.875 875.835 177.676C879.021 172.694 879.694 166.891 881.268 161.316C881.607 157.826 884.919 153.164 884.014 150.153C885.706 147.655 883.733 144.536 885.525 141.918C886.69 139.233 881.344 137.445 881.375 141.132Z" fill="#222222"/>
<path d="M991.737 148.881C996.136 144.581 999.954 140.746 1004.54 136.239C1000.58 133.617 1000.3 135.312 997.71 138.052C990.464 143.685 984.941 151.307 977.147 156.103C976.377 150.373 976.71 145.597 975.732 140.109C975.476 137.428 974.491 132.769 970.788 133.82C968.549 134.916 971.541 143.113 970.986 145.89C972.452 150.101 967.73 181.339 976.523 170.943C973.198 166.75 977.612 167.422 975.587 163.618C978.676 162.577 979.584 160.424 982.105 158.846C983.173 158.484 983.925 157.195 985.097 156.045C988.495 159.952 993.799 182.242 1000.17 177.318C996.285 170.53 992.929 163.604 990.204 156.296C988.429 152.061 988.422 152.079 991.737 148.888V148.881Z" fill="#222222"/>
<path d="M1027.04 143.654C1029.25 139.023 1034.33 140.019 1035.41 135.798C1030.06 131.164 1024.52 140.257 1021.69 144.044C1017.42 149.061 1014.97 160.169 1024.48 159.914C1029.97 159.663 1042.22 165.124 1032.72 169.948C1027.88 172.666 1005.44 181.249 1004.64 172.229C998.785 178.496 1011.62 182.101 1016.6 179.458C1022.23 178.042 1028.14 178.09 1033.18 174.782C1036.46 172.987 1041.92 168.349 1038.91 164.297C1029.96 151.951 1013.17 163.064 1027.04 143.658V143.654Z" fill="#222222"/>
<path d="M1106.67 166.271C1108.63 165.468 1108.11 164.087 1107.62 162.626C1110.63 154.611 1115.99 145.815 1124.61 142.81C1124.57 144.037 1124.55 144.788 1124.53 145.398C1126.24 143.327 1127.95 141.246 1129.64 139.192C1125.94 134.582 1121.99 138.193 1118.61 140.729C1112.94 145.143 1108.68 150.47 1105.62 156.934C1100.88 163.987 1100.42 177.583 1110.91 179.251C1119.05 178.706 1126.63 173.438 1131.49 167.078C1125.72 166.967 1120.56 172.267 1114.94 173.79C1109.5 176.674 1106.84 170.916 1106.67 166.278V166.271Z" fill="#222222"/>
<path d="M1169.75 155.879C1168.92 155.435 1168.09 154.987 1167.27 154.542C1167.84 155.917 1167.91 155.917 1169.75 155.879Z" fill="#222222"/>
<path d="M1142.2 172.828C1142.39 168.728 1139.76 160.755 1145.98 160.29C1146.64 157.003 1150.48 158.04 1151.91 155.225C1156.7 154.89 1161.96 154.453 1167.03 154.391C1162.51 150.563 1154.95 150.921 1149.54 153.471C1147.36 154.628 1143.96 155.59 1142.56 155.552C1141.77 151.838 1144.67 148.216 1142.73 144.557C1144.42 142.851 1145.34 140.746 1147.77 142.045C1156.97 141.987 1153.15 142.445 1160.49 145.108C1157.44 136.656 1143.2 136.208 1138.11 142.745C1134.45 146.228 1140.57 146.81 1139.34 150.325C1138.19 157.354 1139.04 164.459 1139.36 171.522C1139.9 176.27 1138.05 174.058 1136.26 176.835C1138.94 179.475 1141.81 176.508 1145.06 177.214C1150.03 176.088 1155.29 175.406 1160.4 174.723C1156.32 171.857 1143.42 177.325 1142.21 172.828H1142.2Z" fill="#222222"/>
<path d="M1167.12 154.463C1167.17 154.491 1167.22 154.518 1167.27 154.542C1167.25 154.491 1167.23 154.443 1167.2 154.387C1167.2 154.387 1167.17 154.418 1167.14 154.439L1167.2 154.387C1167.14 154.387 1167.09 154.387 1167.03 154.387C1167.06 154.411 1167.09 154.436 1167.12 154.46L1167.12 154.463Z" fill="#222222"/>
<path d="M1185.29 154.456C1187.64 152.041 1190.04 149.601 1193.61 149.147C1193.73 145.315 1196.15 146.938 1199 145.549C1195.49 143.668 1191.16 144.795 1187.44 145.715C1182.23 147.713 1175.78 157.109 1180.52 161.861C1182.64 164.566 1185.96 165.799 1188.67 167.849C1198.86 177.363 1169 183.906 1162.4 181.79C1161.62 182.39 1161.55 183.196 1162.07 184.282C1165.43 189.953 1171.96 184.843 1176.94 185.753C1177.38 185.212 1178.34 184.261 1179.08 184.199C1183.96 182.91 1188.92 181.732 1192.6 177.79C1203.02 166.013 1177.35 163.994 1185.29 154.456Z" fill="#222222"/>
<path d="M1065.38 135.044C1060.18 133.7 1056.07 135.643 1050.59 135.609C1046.74 139.416 1047.9 139.733 1049.41 144.257C1048.92 148.523 1051.13 155.835 1048.34 159.049C1046.6 160.324 1046.56 161.634 1047.97 163.356C1051.95 166.302 1045.72 178.417 1051.59 177.604C1052.62 173.938 1050.57 165.31 1055.57 165.076C1060.38 164.435 1063.9 162.237 1066.46 157.985C1070.09 155.325 1070.19 150.566 1072.89 147.348C1074.46 141.442 1071.33 136.498 1065.38 135.037L1065.38 135.044ZM1053.72 160.41C1051.63 153.85 1051.84 148.158 1053.06 141.311C1055.57 140.508 1059.15 137.966 1062.03 138.651C1062.8 137.018 1063.49 138.965 1063.81 138.696C1065.57 137.173 1066.42 139.068 1067.6 139.609C1075.48 143.989 1060.89 163.797 1053.73 160.414L1053.72 160.41Z" fill="#222222"/>
<path d="M1098.68 150.256C1097.25 145.574 1093.57 141.642 1088.75 139.899C1083.04 136.984 1081.94 144.126 1079.55 147.768C1078.23 149.97 1064.16 179.892 1070.9 176.973C1072.28 175.351 1074.14 174.045 1074.34 171.609C1075.38 163.339 1087.48 166.082 1093.58 164.662C1094.61 169.407 1091.77 173.445 1091.66 177.828C1096.08 177.497 1096.03 173.938 1096.64 170.764C1097.44 167.791 1098.79 164.979 1098.89 161.795C1098.93 160.631 1097.8 159.084 1099.59 158.181C1099.11 155.642 1098.16 152.992 1098.67 150.256H1098.68ZM1090.06 163.649C1085.65 161.523 1076.93 165.537 1077.84 158.436C1082.68 155.476 1082.82 147.382 1087.25 142.917C1091.64 145.722 1094.58 148.795 1094.68 153.736C1094.78 157.289 1095.69 164.965 1090.06 163.653V163.649Z" fill="#222222"/>
<path d="M908.665 140.033C901.654 132.98 891.898 142.266 889.717 149.588C886.749 159.266 890.074 176.66 902.455 176.35C913.03 177.745 916.92 165.782 916.93 157.375C918.081 150.638 913.494 144.247 908.668 140.033H908.665ZM906.269 171.708C903.752 172.019 900.448 173.852 898.458 171.533C896.256 168.673 894.432 165.582 893.493 162.057C890.261 154.68 896.329 135.347 906.387 142.934C910.485 146.256 913.605 151.214 913.748 156.527C912.555 162.319 913.113 169.841 906.269 171.708Z" fill="#222222"/>
<path d="M943.488 157.898C950.405 148.499 960.793 132.914 940.836 133C937.279 134.082 929.977 133.035 930.573 138.517C933.302 148.974 931.464 159.918 931.672 170.589C930.868 174.317 935.549 175.137 935.223 171.033C934.942 168.208 934.966 165.351 934.852 162.305C942.101 161.685 949.393 163.591 952.856 170.613C954.524 172.77 955.689 175.936 958.785 176.243C957.256 165.727 953.04 161.919 943.492 157.898H943.488ZM939.151 156.41C933.805 159.986 936.835 141.549 934.706 138.475C938.801 135.805 949.736 134.341 949.278 141.411C947.763 147.183 944.549 153.45 939.151 156.41Z" fill="#222222"/>
<path d="M1167.27 154.542C1168.09 154.987 1168.92 155.435 1169.75 155.879C1167.91 155.917 1167.84 155.917 1167.27 154.542ZM1167.27 154.542C1167.22 154.518 1167.17 154.491 1167.12 154.463L1167.12 154.46C1167.09 154.436 1167.06 154.411 1167.03 154.387C1167.09 154.387 1167.14 154.387 1167.2 154.387L1167.14 154.439C1167.17 154.418 1167.2 154.387 1167.2 154.387C1167.23 154.443 1167.25 154.491 1167.27 154.542ZM881.375 141.132C879.385 151.4 877.464 161.613 874.049 171.509C873.758 172.549 873.38 173.834 871.986 174.213C868.855 166.788 868.1 159.025 867.268 150.849C867.08 150.68 866.619 150.125 866.033 149.76C861.124 146.531 860.628 154.932 858.558 157.692C855.566 162.988 853.982 169.079 849.97 173.703C847.876 167.115 846.489 160.596 844.021 154.153C842.044 149.009 841.819 142.183 836.036 139.723C835.166 139.254 834.476 139.709 834.184 140.646C833.293 142.965 835.859 144.64 837.017 146.349C838.768 151.048 840.658 155.714 842.082 160.517C844.832 166.685 844.957 179.251 849.551 183.33C853 181.325 853.357 177.263 855.188 174.027C858.01 168.028 860.701 162.963 863.107 156.586C867.188 165.065 865.967 175.412 872.073 182.838C874.531 181.797 875.179 179.875 875.835 177.676C879.021 172.694 879.694 166.891 881.268 161.316C881.607 157.826 884.919 153.164 884.014 150.153C885.706 147.655 883.733 144.536 885.525 141.918C886.69 139.233 881.344 137.445 881.375 141.132ZM991.737 148.881C996.136 144.581 999.954 140.746 1004.54 136.239C1000.58 133.617 1000.3 135.312 997.71 138.052C990.464 143.685 984.941 151.307 977.147 156.103C976.377 150.373 976.71 145.597 975.732 140.109C975.476 137.428 974.491 132.769 970.788 133.82C968.549 134.916 971.541 143.113 970.986 145.89C972.452 150.101 967.73 181.339 976.523 170.943C973.198 166.75 977.612 167.422 975.587 163.618C978.676 162.577 979.584 160.424 982.105 158.846C983.173 158.484 983.925 157.195 985.097 156.045C988.495 159.952 993.799 182.242 1000.17 177.318C996.285 170.53 992.929 163.604 990.204 156.296C988.429 152.061 988.422 152.079 991.737 148.888V148.881ZM1027.04 143.654C1029.25 139.023 1034.33 140.019 1035.41 135.798C1030.06 131.164 1024.52 140.257 1021.69 144.044C1017.42 149.061 1014.97 160.169 1024.48 159.914C1029.97 159.663 1042.22 165.124 1032.72 169.948C1027.88 172.666 1005.44 181.249 1004.64 172.229C998.785 178.496 1011.62 182.101 1016.6 179.458C1022.23 178.042 1028.14 178.09 1033.18 174.782C1036.46 172.987 1041.92 168.349 1038.91 164.297C1029.96 151.951 1013.17 163.064 1027.04 143.658V143.654ZM1106.67 166.271C1108.63 165.468 1108.11 164.087 1107.62 162.626C1110.63 154.611 1115.99 145.815 1124.61 142.81C1124.57 144.037 1124.55 144.788 1124.53 145.398C1126.24 143.327 1127.95 141.246 1129.64 139.192C1125.94 134.582 1121.99 138.193 1118.61 140.729C1112.94 145.143 1108.68 150.47 1105.62 156.934C1100.88 163.987 1100.42 177.583 1110.91 179.251C1119.05 178.706 1126.63 173.438 1131.49 167.078C1125.72 166.967 1120.56 172.267 1114.94 173.79C1109.5 176.674 1106.84 170.916 1106.67 166.278V166.271ZM1142.2 172.828C1142.39 168.728 1139.76 160.755 1145.98 160.29C1146.64 157.003 1150.48 158.04 1151.91 155.225C1156.7 154.89 1161.96 154.453 1167.03 154.391C1162.51 150.563 1154.95 150.921 1149.54 153.471C1147.36 154.628 1143.96 155.59 1142.56 155.552C1141.77 151.838 1144.67 148.216 1142.73 144.557C1144.42 142.851 1145.34 140.746 1147.77 142.045C1156.97 141.987 1153.15 142.445 1160.49 145.108C1157.44 136.656 1143.2 136.208 1138.11 142.745C1134.45 146.228 1140.57 146.81 1139.34 150.325C1138.19 157.354 1139.04 164.459 1139.36 171.522C1139.9 176.27 1138.05 174.058 1136.26 176.835C1138.94 179.475 1141.81 176.508 1145.06 177.214C1150.03 176.088 1155.29 175.406 1160.4 174.723C1156.32 171.857 1143.42 177.325 1142.21 172.828H1142.2ZM1185.29 154.456C1187.64 152.041 1190.04 149.601 1193.61 149.147C1193.73 145.315 1196.15 146.938 1199 145.549C1195.49 143.668 1191.16 144.795 1187.44 145.715C1182.23 147.713 1175.78 157.109 1180.52 161.861C1182.64 164.566 1185.96 165.799 1188.67 167.849C1198.86 177.363 1169 183.906 1162.4 181.79C1161.62 182.39 1161.55 183.196 1162.07 184.282C1165.43 189.953 1171.96 184.843 1176.94 185.753C1177.38 185.212 1178.34 184.261 1179.08 184.199C1183.96 182.91 1188.92 181.732 1192.6 177.79C1203.02 166.013 1177.35 163.994 1185.29 154.456ZM1065.38 135.044C1060.18 133.7 1056.07 135.643 1050.59 135.609C1046.74 139.416 1047.9 139.733 1049.41 144.257C1048.92 148.523 1051.13 155.835 1048.34 159.049C1046.6 160.324 1046.56 161.634 1047.97 163.356C1051.95 166.302 1045.72 178.417 1051.59 177.604C1052.62 173.938 1050.57 165.31 1055.57 165.076C1060.38 164.435 1063.9 162.237 1066.46 157.985C1070.09 155.325 1070.19 150.566 1072.89 147.348C1074.46 141.442 1071.33 136.498 1065.38 135.037L1065.38 135.044ZM1053.72 160.41C1051.63 153.85 1051.84 148.158 1053.06 141.311C1055.57 140.508 1059.15 137.966 1062.03 138.651C1062.8 137.018 1063.49 138.965 1063.81 138.696C1065.57 137.173 1066.42 139.068 1067.6 139.609C1075.48 143.989 1060.89 163.797 1053.73 160.414L1053.72 160.41ZM1098.68 150.256C1097.25 145.574 1093.57 141.642 1088.75 139.899C1083.04 136.984 1081.94 144.126 1079.55 147.768C1078.23 149.97 1064.16 179.892 1070.9 176.973C1072.28 175.351 1074.14 174.045 1074.34 171.609C1075.38 163.339 1087.48 166.082 1093.58 164.662C1094.61 169.407 1091.77 173.445 1091.66 177.828C1096.08 177.497 1096.03 173.938 1096.64 170.764C1097.44 167.791 1098.79 164.979 1098.89 161.795C1098.93 160.631 1097.8 159.084 1099.59 158.181C1099.11 155.642 1098.16 152.992 1098.67 150.256H1098.68ZM1090.06 163.649C1085.65 161.523 1076.93 165.537 1077.84 158.436C1082.68 155.476 1082.82 147.382 1087.25 142.917C1091.64 145.722 1094.58 148.795 1094.68 153.736C1094.78 157.289 1095.69 164.965 1090.06 163.653V163.649ZM908.665 140.033C901.654 132.98 891.898 142.266 889.717 149.588C886.749 159.266 890.074 176.66 902.455 176.35C913.03 177.745 916.92 165.782 916.93 157.375C918.081 150.638 913.494 144.247 908.668 140.033H908.665ZM906.269 171.708C903.752 172.019 900.448 173.852 898.458 171.533C896.256 168.673 894.432 165.582 893.493 162.057C890.261 154.68 896.329 135.347 906.387 142.934C910.485 146.256 913.605 151.214 913.748 156.527C912.555 162.319 913.113 169.841 906.269 171.708ZM943.488 157.898C950.405 148.499 960.793 132.914 940.836 133C937.279 134.082 929.977 133.035 930.573 138.517C933.302 148.974 931.464 159.918 931.672 170.589C930.868 174.317 935.549 175.137 935.223 171.033C934.942 168.208 934.966 165.351 934.852 162.305C942.101 161.685 949.393 163.591 952.856 170.613C954.524 172.77 955.689 175.936 958.785 176.243C957.256 165.727 953.04 161.919 943.492 157.898H943.488ZM939.151 156.41C933.805 159.986 936.835 141.549 934.706 138.475C938.801 135.805 949.736 134.341 949.278 141.411C947.763 147.183 944.549 153.45 939.151 156.41Z" stroke="#222222"/>
<path d="M188.161 451.998C186.883 446.211 187.414 440.47 187.001 434.795C186.984 434.558 187.274 434.296 187.628 433.697C187.883 434.827 188.05 435.567 188.308 436.704C191.118 430.434 192.635 423.496 196.059 417.343C198.119 414.341 201.585 402.369 205.835 408.942C211.085 416.08 210.584 425.326 212.587 433.601C216.702 434.795 222.953 432.782 225.876 435.345C222.715 435.549 219.559 435.887 216.395 436.001C212.88 436.163 212.846 436.265 212.6 439.809C212.165 442.287 212.177 445.58 208.78 445.79C210.314 443.669 211.029 436.016 207.359 436.681C203.101 436.334 196.521 438.378 192.962 436.783C193.436 432.772 205.788 435.071 209.353 434.158C208.182 425.876 208.035 417.466 202.915 410.508C195.779 421.148 191.037 434.338 190.944 447.292C190.936 449.383 191.108 451.978 188.166 452L188.161 451.998Z" fill="#222222"/>
<path d="M228.196 412.398C230.015 414.112 229.659 415.488 232.673 415.338C236.832 415.577 240.998 415.67 245.049 416.948C262.242 422.697 255.607 439.922 241.49 444.468C239.098 445.225 236.195 446.179 234.003 443.491C233.808 443.254 233.273 443.119 232.955 443.195C231.331 443.59 230.888 442.539 230.689 441.328C229.472 433.892 228.302 426.446 227.147 418.998C227.066 416.79 225.22 413.401 228.196 412.398ZM230.571 418.719C231.547 426.513 232.488 434.025 233.467 441.824C234.534 441.079 235.291 441.076 236.244 441.713C242.09 443.259 248.742 439.098 251.849 434.047C257.947 421.802 239.58 416.487 230.569 418.719H230.571Z" fill="#222222"/>
<path d="M377.378 445.232C371.754 450.32 361.125 441.35 367.474 435.599C370.468 432.106 375.613 429.753 376.25 424.799C376.923 422.147 373.094 417.856 371.181 421.008C367.039 425.975 366.022 432.565 363.841 438.499C363.177 440.522 362.772 440.667 360.306 439.572C360.67 437.912 360.965 436.159 361.449 434.457C363.205 428.283 365.38 421.95 370.127 417.372C375.788 412.136 382.646 424.231 376.331 429.522C374.286 433.105 368.187 434.716 369.296 439.653C370.481 443.387 373.573 444.793 377.381 445.235L377.378 445.232Z" fill="#222222"/>
<path d="M261.969 416.877C265.164 424.226 266.561 432.05 270.314 439.454C274.916 432.972 277.268 425.366 281.776 418.82C282.787 416.889 285.341 418.49 284.387 420.329C280.429 427.748 277.01 435.466 272.812 442.756C267.47 450.868 261.069 423.612 260.182 420.221C259.697 418.418 259.752 418.327 261.969 416.877Z" fill="#222222"/>
<path d="M306.997 419.575C304.347 419.94 297.973 417.032 298.325 421.57C298.91 427.309 299.522 432.558 299.541 438.445C303.762 438.445 307.82 438.272 312.245 439.804C307.604 440.857 303.961 440.351 299.475 441.116C295.232 441.296 291.498 443.281 287.241 443.17C287.113 441.515 288.219 440.943 289.365 440.588C291.489 439.409 297.683 440.031 296.71 436.807C295.758 431.075 296.044 425.294 294.677 419.639C292.595 420.302 290.759 420.904 288.912 421.474C285.7 422.714 283.07 419.861 287.275 418.502C290.237 416.97 307.25 414.911 306.999 419.575H306.997Z" fill="#222222"/>
<path d="M387.255 444.483C398.621 439.476 417.124 443.311 394.794 431.275C383.032 426.703 397.788 413.507 401.684 416.107C399.241 418.536 395.959 419.755 394.403 423.148C390.94 428.187 399.047 429.243 401.777 431.766C404.381 434.449 411.986 438.154 407.734 442.334C406.49 445.215 389.433 446.293 387.255 444.483Z" fill="#222222"/>
<path d="M314.861 446.739C317.269 446.088 335.391 443.846 330.514 439.281C325.925 435.012 311.397 435.108 316.842 425.913C319.428 422.796 323.545 416.191 328.088 419.915C327.37 420.297 326.809 420.707 326.183 420.914C322.419 422.058 315.291 429.48 321.266 432.052C326.07 433.717 339.784 437.984 331.94 444.335C329.961 445.819 314.833 450.742 314.861 446.739Z" fill="#222222"/>
<path d="M338.549 445.181C362.467 447.233 354.685 408.698 343.49 433.201C341.502 438.778 343.965 437.414 346.425 440.781C345.816 441.086 345.132 441.742 344.609 441.631C338.151 441.175 339.034 435.848 341.684 431.477C343.962 428.604 345.393 424.648 348.736 422.865C355.501 419.844 357.978 430.015 356.253 435.157C354.547 442.016 348.158 446.89 341.226 446.724C340.391 446.769 339.24 446.789 338.544 445.178L338.549 445.181Z" fill="#222222"/>
<path d="M188.161 451.998C186.883 446.211 187.414 440.47 187.001 434.795C186.984 434.558 187.274 434.296 187.628 433.697C187.883 434.827 188.05 435.567 188.308 436.704C191.118 430.434 192.635 423.496 196.059 417.343C198.119 414.341 201.585 402.369 205.835 408.942C211.085 416.08 210.584 425.326 212.587 433.601C216.702 434.795 222.953 432.782 225.876 435.345C222.715 435.549 219.559 435.887 216.395 436.001C212.88 436.163 212.846 436.265 212.6 439.809C212.165 442.287 212.177 445.58 208.78 445.79C210.314 443.669 211.029 436.016 207.359 436.681C203.101 436.334 196.521 438.378 192.962 436.783C193.436 432.772 205.788 435.071 209.353 434.158C208.182 425.876 208.035 417.466 202.915 410.508C195.779 421.148 191.037 434.338 190.944 447.292C190.936 449.383 191.108 451.978 188.166 452L188.161 451.998Z" stroke="#222222"/>
<path d="M228.196 412.398C230.015 414.112 229.659 415.488 232.673 415.338C236.832 415.577 240.998 415.67 245.049 416.948C262.242 422.697 255.607 439.922 241.49 444.468C239.098 445.225 236.195 446.179 234.003 443.491C233.808 443.254 233.273 443.119 232.955 443.195C231.331 443.59 230.888 442.539 230.689 441.328C229.472 433.892 228.302 426.446 227.147 418.998C227.066 416.79 225.22 413.401 228.196 412.398ZM230.571 418.719C231.547 426.513 232.488 434.025 233.467 441.824C234.534 441.079 235.291 441.076 236.244 441.713C242.09 443.259 248.742 439.098 251.849 434.047C257.947 421.802 239.58 416.487 230.569 418.719H230.571Z" stroke="#222222"/>
<path d="M377.378 445.232C371.754 450.32 361.125 441.35 367.474 435.599C370.468 432.106 375.613 429.753 376.25 424.799C376.923 422.147 373.094 417.856 371.181 421.008C367.039 425.975 366.022 432.565 363.841 438.499C363.177 440.522 362.772 440.667 360.306 439.572C360.67 437.912 360.965 436.159 361.449 434.457C363.205 428.283 365.38 421.95 370.127 417.372C375.788 412.136 382.646 424.231 376.331 429.522C374.286 433.105 368.187 434.716 369.296 439.653C370.481 443.387 373.573 444.793 377.381 445.235L377.378 445.232Z" stroke="#222222"/>
<path d="M261.969 416.877C265.164 424.226 266.561 432.05 270.314 439.454C274.916 432.972 277.268 425.366 281.776 418.82C282.787 416.889 285.341 418.49 284.387 420.329C280.429 427.748 277.01 435.466 272.812 442.756C267.47 450.868 261.069 423.612 260.182 420.221C259.697 418.418 259.752 418.327 261.969 416.877Z" stroke="#222222"/>
<path d="M306.997 419.575C304.347 419.94 297.973 417.032 298.325 421.57C298.91 427.309 299.522 432.558 299.541 438.445C303.762 438.445 307.82 438.272 312.245 439.804C307.604 440.857 303.961 440.351 299.475 441.116C295.232 441.296 291.498 443.281 287.241 443.17C287.113 441.515 288.219 440.943 289.365 440.588C291.489 439.409 297.683 440.031 296.71 436.807C295.758 431.075 296.044 425.294 294.677 419.639C292.595 420.302 290.759 420.904 288.912 421.474C285.7 422.714 283.07 419.861 287.275 418.502C290.237 416.97 307.25 414.911 306.999 419.575H306.997Z" stroke="#222222"/>
<path d="M387.255 444.483C398.621 439.476 417.124 443.311 394.794 431.275C383.032 426.703 397.788 413.507 401.684 416.107C399.241 418.536 395.959 419.755 394.403 423.148C390.94 428.187 399.047 429.243 401.777 431.766C404.381 434.449 411.986 438.154 407.734 442.334C406.49 445.215 389.433 446.293 387.255 444.483Z" stroke="#222222"/>
<path d="M314.861 446.739C317.269 446.088 335.391 443.846 330.514 439.281C325.925 435.012 311.397 435.108 316.842 425.913C319.428 422.796 323.545 416.191 328.088 419.915C327.37 420.297 326.809 420.707 326.183 420.914C322.419 422.058 315.291 429.48 321.266 432.052C326.07 433.717 339.784 437.984 331.94 444.335C329.961 445.819 314.833 450.742 314.861 446.739Z" stroke="#222222"/>
<path d="M338.549 445.181C362.467 447.233 354.685 408.698 343.49 433.201C341.502 438.778 343.965 437.414 346.425 440.781C345.816 441.086 345.132 441.742 344.609 441.631C338.151 441.175 339.034 435.848 341.684 431.477C343.962 428.604 345.393 424.648 348.736 422.865C355.501 419.844 357.978 430.015 356.253 435.157C354.547 442.016 348.158 446.89 341.226 446.724C340.391 446.769 339.24 446.789 338.544 445.178L338.549 445.181Z" stroke="#222222"/>
<path d="M332.305 320.212C329.547 313.596 329.977 305.761 324.207 300.658C321.574 303.092 319.949 306.117 319.557 309.646C319.747 311.524 317.953 317.999 316.64 313.616C315.24 306.637 313.044 300.214 308.959 294.235C304.234 301.722 301.981 309.412 302.148 318.093C302.141 319.517 301.893 320.686 299.972 321.066C299.158 314.412 300.226 307.698 299.021 301.073C298.901 300.123 298.569 299.146 299.605 298.186C301.819 299.256 300.556 301.79 301.871 303.443C311.15 282.04 310.551 291.904 317.855 306.642C319.807 303.932 322.225 294.284 326.433 298.453C328.841 300.45 330.044 303.133 330.94 305.935C332.105 309.584 333.036 313.309 334.007 317.015C334.496 318.876 334.436 318.891 332.305 320.209V320.212Z" fill="#222222"/>
<path d="M342.971 295.381C340.792 295.507 334.576 298.51 336.031 294.785C336.338 294.188 336.937 293.5 337.543 293.329C342.964 291.742 363.924 285.424 363.912 294.927C359.876 291.541 350.281 294.016 345.277 294.785C345.157 303.153 343.565 311.612 346.163 319.745C354.121 318.161 361.773 315.274 369.991 316.496C367.291 318.493 363.959 318.355 360.952 319.269C354.676 321.179 348.586 323.018 342.252 324.924C340.842 323.156 342.457 322.161 343.298 320.988C340.887 312.622 342.824 303.978 342.974 295.384L342.971 295.381Z" fill="#222222"/>
<path d="M245.593 304.037C245.64 299.234 244.936 294.726 244.559 289.977C244.34 287.789 242.755 285.729 245.039 284C246.119 284.85 246.226 286.004 246.336 287.077C246.958 292.631 247.21 298.144 248.101 303.679C252.253 304.982 258.727 303.917 261.54 306.635C257.314 306.76 253.092 306.883 248.807 307.008C247.364 314.579 250.259 321.764 247.681 329.204C245.974 324.256 247.003 318.608 246.518 313.361C246.471 307.497 245.944 306.949 240.15 307.431C236.718 307.715 233.252 307.61 229.895 308.629C228.79 308.965 228.131 308.145 228.5 307.082C230.015 303.35 241.537 304.533 245.593 304.035V304.037Z" fill="#222222"/>
<path d="M268.482 308.806C268.847 302.78 273.159 286.485 281.397 294.146C287.484 299.777 293.069 309.636 285.744 316.558C277.504 325.786 267.953 320.374 268.482 308.806ZM270.324 307.062C270.686 308.919 270.559 313.331 272.133 314.932C275.051 314.318 274.033 319.566 278.233 318.218C291.981 313.911 288.01 302.024 278.238 295.674C272.595 293.407 271.27 302.915 270.324 307.065V307.062Z" fill="#222222"/>
<path d="M226.624 284.737C227.203 298.704 225.967 312.698 228.126 326.591C227.911 330.581 230.746 330.51 230.312 332.352C223.986 338.058 224.737 304.297 224.714 301C224.163 297.117 223.404 293.513 224.767 289.697C225.328 288.258 224.897 284.913 226.626 284.734L226.624 284.737Z" fill="#222222"/>
<path d="M372 304.683C363.338 304.99 354.858 303.602 346.343 306.112C343.113 298.539 369.397 300.742 372 304.683Z" fill="#222222"/>
<path d="M332.305 320.212C329.547 313.596 329.977 305.761 324.207 300.658C321.574 303.092 319.949 306.117 319.557 309.646C319.747 311.524 317.953 317.999 316.64 313.616C315.24 306.637 313.044 300.214 308.959 294.235C304.234 301.722 301.981 309.412 302.148 318.093C302.141 319.517 301.893 320.686 299.972 321.066C299.158 314.412 300.226 307.698 299.021 301.073C298.901 300.123 298.569 299.146 299.605 298.186C301.819 299.256 300.556 301.79 301.871 303.443C311.15 282.04 310.551 291.904 317.855 306.642C319.807 303.932 322.225 294.284 326.433 298.453C328.841 300.45 330.044 303.133 330.94 305.935C332.105 309.584 333.036 313.309 334.007 317.015C334.496 318.876 334.436 318.891 332.305 320.209V320.212Z" stroke="#222222"/>
<path d="M342.971 295.381C340.792 295.507 334.576 298.51 336.031 294.785C336.338 294.188 336.937 293.5 337.543 293.329C342.964 291.742 363.924 285.424 363.912 294.927C359.876 291.541 350.281 294.016 345.277 294.785C345.157 303.153 343.565 311.612 346.163 319.745C354.121 318.161 361.773 315.274 369.991 316.496C367.291 318.493 363.959 318.355 360.952 319.269C354.676 321.179 348.586 323.018 342.252 324.924C340.842 323.156 342.457 322.161 343.298 320.988C340.887 312.622 342.824 303.978 342.974 295.384L342.971 295.381Z" stroke="#222222"/>
<path d="M245.593 304.037C245.64 299.234 244.936 294.726 244.559 289.977C244.34 287.789 242.755 285.729 245.039 284C246.119 284.85 246.226 286.004 246.336 287.077C246.958 292.631 247.21 298.144 248.101 303.679C252.253 304.982 258.727 303.917 261.54 306.635C257.314 306.76 253.092 306.883 248.807 307.008C247.364 314.579 250.259 321.764 247.681 329.204C245.974 324.256 247.003 318.608 246.518 313.361C246.471 307.497 245.944 306.949 240.15 307.431C236.718 307.715 233.252 307.61 229.895 308.629C228.79 308.965 228.131 308.145 228.5 307.082C230.015 303.35 241.537 304.533 245.593 304.035V304.037Z" stroke="#222222"/>
<path d="M268.482 308.806C268.847 302.78 273.159 286.485 281.397 294.146C287.484 299.777 293.069 309.636 285.744 316.558C277.504 325.786 267.953 320.374 268.482 308.806ZM270.324 307.062C270.686 308.919 270.559 313.331 272.133 314.932C275.051 314.318 274.033 319.566 278.233 318.218C291.981 313.911 288.01 302.024 278.238 295.674C272.595 293.407 271.27 302.915 270.324 307.065V307.062Z" stroke="#222222"/>
<path d="M226.624 284.737C227.203 298.704 225.967 312.698 228.126 326.591C227.911 330.581 230.746 330.51 230.312 332.352C223.986 338.058 224.737 304.297 224.714 301C224.163 297.117 223.404 293.513 224.767 289.697C225.328 288.258 224.897 284.913 226.626 284.734L226.624 284.737Z" stroke="#222222"/>
<path d="M372 304.683C363.338 304.99 354.858 303.602 346.343 306.112C343.113 298.539 369.397 300.742 372 304.683Z" stroke="#222222"/>
<path d="M731.529 538.421C732.382 542.081 725.094 543.321 722.8 545.517C712.095 555.819 732.504 554.531 737.93 558.512C744.164 562.932 734.775 572.003 730.049 574.205C723.937 575.957 717.451 574.112 711.31 574.26C714.372 568.765 721.955 571.869 727.064 570.531C731.175 569.809 733.624 566.829 735.634 563.544C737.936 559.307 724.05 558.844 721.292 557.536C714.037 555.71 714.412 545.254 720.175 541.843C723.625 539.981 727.367 536.863 731.526 538.423L731.529 538.421Z" fill="#222222"/>
<path d="M593.159 552.644C582.624 557.059 583.14 557.818 584.036 568.2C584.121 569.749 584.107 569.771 582.854 571.359C580.393 568.844 580.422 562.494 579.475 558.989C579.458 553.151 580.546 547.215 580.898 541.36C580.972 540.529 580.949 539.468 582.128 539.668C585.879 541.207 583.146 549.34 583.469 553.107C590.361 550.209 595.776 546.502 603.146 545.158C604.201 544.895 605.403 544.991 606.5 545.158C607.986 545.495 608.32 547.642 606.426 547.719C602.914 548.15 599.75 549.534 596.481 551.078C596.739 560.835 602.92 568.932 610.381 575.14C602.31 578.219 593.771 558.948 593.156 552.644H593.159Z" fill="#222222"/>
<path d="M541.237 571.814C549.337 573.909 560.699 570.991 563.625 566.053C559.84 561.537 542.947 562.847 549.393 554.092C551.786 551.791 567.412 535.939 566.655 546.238C562.59 544.895 554.142 554.676 551.542 557.741C592.751 568.296 536.948 583.427 541.237 571.814Z" fill="#222222"/>
<path d="M685.637 540.395C689.087 540.266 689.124 540.379 688.971 543.058C687.871 575.417 684.639 560.223 708.158 569.872C701.686 570.723 695.131 569.245 688.656 568.973C685.535 568.866 684.934 568.433 684.781 565.31C684.03 556.924 685.226 548.827 685.637 540.395Z" fill="#222222"/>
<path d="M630.535 567.259C636.559 567.591 642.368 567.832 647.788 570.344C646.504 572.28 634.736 568.905 630.384 570.399C626.01 570.915 621.647 571.521 617.293 572.165C615.816 572.384 615.201 571.762 614.886 570.141C618.03 569.664 621.083 568.831 624.224 568.663C627.172 568.312 627.618 568.005 627.807 565.151C628.202 558.794 628.08 552.414 627.895 546.049C627.878 545.292 627.861 544.505 628.856 544.344C633.497 545.037 629.46 563.157 630.538 567.262L630.535 567.259Z" fill="#222222"/>
<path d="M664.001 539.66C670.609 536.767 662.135 562.598 661.801 565.521C668.378 565.718 674.558 565.905 681.291 566.108C675.715 569.766 669.739 567.619 663.655 568.792C659.437 568.315 658.711 573.81 656.826 570.953C655.703 568.219 659.201 565.768 659.661 563.061C662.683 555.504 663.802 547.738 664.001 539.663V539.66Z" fill="#222222"/>
<path d="M649.325 543.036C642.376 540.365 635.331 542.526 628.219 542.789C624.36 542.915 620.723 544.113 617.035 544.936C615.218 542.161 617.46 541.626 619.53 540.941C623.697 539.605 651.434 536.013 649.327 543.033L649.325 543.036Z" fill="#222222"/>
<path d="M588.66 666.643C595.629 666.807 604.154 665.129 612.17 665.491C620.345 665.502 628.515 663.638 636.64 664.559C640.921 665.618 645.325 666.174 649.881 666.974C649.577 659.626 686.674 663.155 682.116 671.008C676.605 666.625 668.24 665.988 661.695 667.978C663.562 674.553 658.47 679.841 659.617 686.673C664.218 687.938 669.227 686.475 673.724 688.97C665.858 690.312 657.771 691.107 649.774 692.063C645.594 690.723 650.318 688.043 652.522 688C659.339 687.543 653.933 678.955 660.62 668.067C658.248 667.463 656.005 667.64 653.607 668.921C654.349 669.367 654.97 669.74 655.701 670.178C652.999 670.049 650.542 668.346 647.68 669.055C646.333 669.324 644.861 668.942 643.442 668.878C628.473 666.719 636.797 675.017 627.158 689.176C625.568 683.091 630.241 676.153 631.319 670.03C627.867 666.934 620.575 669.13 615.757 670.003C613.402 666.813 609.233 669.426 605.944 668.967C602.335 669.3 603.503 678.007 601.943 680.896C600.697 684.331 599.99 687.804 597.641 690.739C596.624 683.633 600.247 676.905 600.001 669.839C597.168 669.297 583.826 672.748 588.673 666.619L588.652 666.641L588.66 666.643Z" fill="#222222"/>
<path d="M694.17 682.58C692.479 684.498 687.32 692.426 685.039 689.904C683.719 688.465 683.978 685.696 685.653 684.764C687.64 683.66 688.878 681.96 689.761 680.005C691.422 677.727 694.73 664.828 697 665.744C702.828 667.898 692.937 676.72 700.422 686.982C707.749 682.763 709.571 673.911 712.745 666.652C714.946 663.2 716.781 669.292 715.461 671.247C712.183 681.839 701.644 703.615 694.167 682.583L694.17 682.58Z" fill="#222222"/>
<path d="M536.923 685.535C531.402 680.955 515.363 676.602 524.848 667.637C525.686 666.982 526.553 666.284 527.161 665.43C528.948 662.188 545.814 651.555 544.283 660.504C538.337 660.069 530.359 667.758 526.51 671.999C523.632 677.776 537.881 680.695 540.183 685.68C541.746 688.658 536.854 691.062 534.528 691.693C521.237 696.237 506.225 682.422 514.251 681.576C514.179 690.151 532.778 691.04 536.921 685.537L536.923 685.535Z" fill="#222222"/>
<path d="M730.243 664.251C736.189 667.014 728.395 672.31 727.144 675.998C722.919 684.587 723.201 695.748 734.596 686.206C732.228 684.992 729.019 683.12 731.566 680.421C736.933 675.933 747.845 680.128 740.878 686.99C736.343 688.886 730.11 697.489 725.231 694.088C715.565 685.897 723.38 671.722 730.249 664.251H730.243ZM739.408 682.736C737.69 682.081 736.53 682.57 735.33 683.432C737.194 684.82 737.482 684.777 739.408 682.736Z" fill="#222222"/>
<path d="M769 669.942C763.052 669.606 754.538 672.92 753.452 678.751C756.181 682.58 761.139 683.647 764.735 686.461C769.211 689.378 763.935 693.933 760.475 694.537C759.085 694.873 757.378 694.596 756.373 696.065C752.276 696.71 747.122 698.281 743.604 694.929C746.021 691.545 751.187 692.968 754.722 691.534C757.069 690.949 759.331 690.006 762.043 689.077C758.963 686.37 755.434 685.422 752.18 683.096C741.145 675.85 764.778 658.721 768.997 669.942H769Z" fill="#222222"/>
<path d="M588.681 666.622C585.325 666.525 582.202 664.96 578.937 664.275C572.282 663.923 566.339 665.529 559.38 666.311C560.839 667.863 560.62 669.13 560.089 670.514C558.892 674.864 558.153 679.881 560.116 684.063C568.617 683.136 579.182 683.762 585.584 687.925C576.128 687.699 567.006 686.107 557.71 688.983C556.998 688.462 556.409 687.35 556.379 685.932C556.19 679.325 555.472 673.108 558.244 666.834C557.155 666.987 556.417 666.995 555.744 667.213C553.965 667.935 551.426 665.212 553.653 664.095C564.808 661.256 579.23 658.227 588.681 666.627V666.622Z" fill="#222222"/>
<path d="M559.441 678.976C563.024 674.47 580.313 674.773 583.664 679.524C577.441 679.135 571.711 677.934 565.502 679.564C563.384 679.72 561.34 680.421 559.441 678.979V678.976Z" fill="#222222"/>
<path d="M544.617 796.677C541.841 801.934 520.08 791.788 521.385 786.718C521.664 785.684 522.645 785.957 523.479 786.157C529.227 787.785 535.329 784.761 538.44 779.88C543.237 768.555 521.193 768.143 515.725 773.631C515.365 784.082 515.792 793.507 517.047 804.112C510.894 796.757 513.712 781.502 513.266 772.237C515.055 764.868 528.916 766.817 534.351 768.871C549.021 775.363 538.337 787.494 526.944 789.113C528.038 791.34 530.373 791.467 532.046 792.479C536.027 795.063 539.695 796.031 544.62 796.68L544.617 796.677Z" fill="#222222"/>
<path d="M613.106 799.655C614.358 800.79 615.533 801.854 617.042 803.226C615.053 803.446 614.028 802.638 613.109 801.799C610.339 799.113 606.558 803.317 603.187 801.315C599.652 800.081 597.311 804.263 593.943 800.183C587.298 793.584 593.22 785.514 598.026 780.001C604.364 772.924 612.569 780.491 614.801 787.824C616.859 791.981 614.707 795.61 613.103 799.655H613.106ZM608.076 798.723C607.076 796.468 602.907 793.768 604.123 791.5C607.084 790.108 608.394 795.088 610.441 796.834C616.912 791.115 608.635 775.478 601.117 782.107C596.392 785.984 590.159 797.637 600.688 797.887C603.079 798.525 605.123 799.924 608.076 798.725V798.723Z" fill="#222222"/>
<path d="M680.698 783.1C673.972 782.484 667.227 782.069 660.476 781.857C657.878 781.387 658.368 783.512 657.379 785.385C655.014 789.803 656.485 794.684 657.313 799.289C663.939 797.892 672.947 794.827 678.26 799.297C671.59 799.547 664.92 799.677 658.762 802.503C657.95 802.825 657.421 803.842 656.673 804.634C655.307 804.535 654.626 803.837 654.723 802.173C654.878 799.498 654.083 796.977 653.368 794.392C650.321 786.493 656.172 784.274 652.515 781.137C655.324 776.498 676.459 780.095 680.939 782.355C680.858 782.602 680.778 782.85 680.698 783.1Z" fill="#222222"/>
<path d="M741.876 803.196C743.045 801.997 744.148 802.132 745.392 802.456C749.815 803.606 754.342 803.6 758.848 803.229C761.286 803.262 766.912 799.767 763.408 797.439C760.261 795.173 755.535 793.785 755.585 789.091C754.378 782.709 770.829 777.293 768.832 784.821C765.812 783.785 763.1 784.579 760.912 786.848C754.865 791.093 763.136 793.083 765.884 796.067C775.485 807.738 745.838 810.851 741.874 803.199L741.876 803.196Z" fill="#222222"/>
<path d="M694.357 803.243C697.118 812.022 720.569 798.937 703.5 798.934C698.478 799.437 692.03 795.033 696.132 789.605C698.434 786.768 705.088 779.952 706.309 787.345C702.65 787.01 694.553 795.206 701.343 795.838C704.232 795.896 707.027 796.221 709.653 797.491C712.545 798.893 713.844 801.662 712.337 804.26C708.985 809.168 702.617 810.677 696.982 809.734C694.032 809.424 689.623 804.554 694.357 803.246V803.243Z" fill="#222222"/>
<path d="M630.898 779.374C631.385 780.053 631.948 780.837 632.696 781.882C628.732 783.609 628.729 792.297 629.319 796.036C630.457 807.081 643.845 787.527 645.114 783.9C650.111 789.448 640.352 798.153 636.502 802.082C623.726 810.466 622.796 781.964 630.898 779.377V779.374Z" fill="#222222"/>
<path d="M730.292 787.282C727.727 793.023 730.151 799.24 728.079 805.044C723.788 803.963 726.785 792.121 725.744 788.118C723.328 788.319 721.06 788.505 720.162 785.421C724.359 783.983 728.223 782.861 732.683 782.987C740.414 783.441 749.849 780.513 756.788 782.943C752.486 784.997 747.056 784.89 742.339 785.503C739.242 785.495 736.375 787.109 733.192 786.43C732.287 786.237 731.176 786.999 730.292 787.282Z" fill="#222222"/>
<path d="M558.478 786.639C558.409 789.578 558.337 792.652 558.259 795.885C559.431 795.767 559.495 795.698 560.578 795.891C560.348 801.56 556.14 800.4 555.852 795.594C555.863 789.319 555.592 782.993 557.459 776.905C559.766 778.274 558.966 780.359 559.42 782.363C567.071 780.392 574.564 780.21 581.644 784.329C573.854 783.713 566.035 782.52 558.478 786.636V786.639Z" fill="#222222"/>
<path d="M574.378 777.378C568.943 776.289 564.367 776.298 559.049 776.52C544.7 772.187 573.353 771.032 574.378 777.378Z" fill="#222222"/>
<path d="M683.044 805.66C676.786 808.096 669.689 806.592 663.374 809.124C661.551 809.721 661.413 809.688 660.26 807.557C663.149 804.095 678.933 804.095 683.044 805.66Z" fill="#222222"/>
<path d="M582.148 801.527C575.517 802.19 568.722 804.145 562.14 804.087C556.827 799.715 580.256 799.996 582.228 800.856C582.201 801.082 582.173 801.304 582.148 801.53V801.527Z" fill="#222222"/>
<path d="M731.529 538.421C732.382 542.081 725.094 543.321 722.8 545.517C712.095 555.819 732.504 554.531 737.93 558.512C744.164 562.932 734.775 572.003 730.049 574.205C723.937 575.957 717.451 574.112 711.31 574.26C714.372 568.765 721.955 571.869 727.064 570.531C731.175 569.809 733.624 566.829 735.634 563.544C737.936 559.307 724.05 558.844 721.292 557.536C714.037 555.71 714.412 545.254 720.175 541.843C723.625 539.981 727.367 536.863 731.526 538.423L731.529 538.421Z" stroke="#222222"/>
<path d="M593.159 552.644C582.624 557.059 583.14 557.818 584.036 568.2C584.121 569.749 584.107 569.771 582.854 571.359C580.393 568.844 580.422 562.494 579.475 558.989C579.458 553.151 580.546 547.215 580.898 541.36C580.972 540.529 580.949 539.468 582.128 539.668C585.879 541.207 583.146 549.34 583.469 553.107C590.361 550.209 595.776 546.502 603.146 545.158C604.201 544.895 605.403 544.991 606.5 545.158C607.986 545.495 608.32 547.642 606.426 547.719C602.914 548.15 599.75 549.534 596.481 551.078C596.739 560.835 602.92 568.932 610.381 575.14C602.31 578.219 593.771 558.948 593.156 552.644H593.159Z" stroke="#222222"/>
<path d="M541.237 571.814C549.337 573.909 560.699 570.991 563.625 566.053C559.84 561.537 542.947 562.847 549.393 554.092C551.786 551.791 567.412 535.939 566.655 546.238C562.59 544.895 554.142 554.676 551.542 557.741C592.751 568.296 536.948 583.427 541.237 571.814Z" stroke="#222222"/>
<path d="M685.637 540.395C689.087 540.266 689.124 540.379 688.971 543.058C687.871 575.417 684.639 560.223 708.158 569.872C701.686 570.723 695.131 569.245 688.656 568.973C685.535 568.866 684.934 568.433 684.781 565.31C684.03 556.924 685.226 548.827 685.637 540.395Z" stroke="#222222"/>
<path d="M630.535 567.259C636.559 567.591 642.368 567.832 647.788 570.344C646.504 572.28 634.736 568.905 630.384 570.399C626.01 570.915 621.647 571.521 617.293 572.165C615.816 572.384 615.201 571.762 614.886 570.141C618.03 569.664 621.083 568.831 624.224 568.663C627.172 568.312 627.618 568.005 627.807 565.151C628.202 558.794 628.08 552.414 627.895 546.049C627.878 545.292 627.861 544.505 628.856 544.344C633.497 545.037 629.46 563.157 630.538 567.262L630.535 567.259Z" stroke="#222222"/>
<path d="M664.001 539.66C670.609 536.767 662.135 562.598 661.801 565.521C668.378 565.718 674.558 565.905 681.291 566.108C675.715 569.766 669.739 567.619 663.655 568.792C659.437 568.315 658.711 573.81 656.826 570.953C655.703 568.219 659.201 565.768 659.661 563.061C662.683 555.504 663.802 547.738 664.001 539.663V539.66Z" stroke="#222222"/>
<path d="M649.325 543.036C642.376 540.365 635.331 542.526 628.219 542.789C624.36 542.915 620.723 544.113 617.035 544.936C615.218 542.161 617.46 541.626 619.53 540.941C623.697 539.605 651.434 536.013 649.327 543.033L649.325 543.036Z" stroke="#222222"/>
<path d="M588.66 666.643C595.629 666.807 604.154 665.129 612.17 665.491C620.345 665.502 628.515 663.638 636.64 664.559C640.921 665.618 645.325 666.174 649.881 666.974C649.577 659.626 686.674 663.155 682.116 671.008C676.605 666.625 668.24 665.988 661.695 667.978C663.562 674.553 658.47 679.841 659.617 686.673C664.218 687.938 669.227 686.475 673.724 688.97C665.858 690.312 657.771 691.107 649.774 692.063C645.594 690.723 650.318 688.043 652.522 688C659.339 687.543 653.933 678.955 660.62 668.067C658.248 667.463 656.005 667.64 653.607 668.921C654.349 669.367 654.97 669.74 655.701 670.178C652.999 670.049 650.542 668.346 647.68 669.055C646.333 669.324 644.861 668.942 643.442 668.878C628.473 666.719 636.797 675.017 627.158 689.176C625.568 683.091 630.241 676.153 631.319 670.03C627.867 666.934 620.575 669.13 615.757 670.003C613.402 666.813 609.233 669.426 605.944 668.967C602.335 669.3 603.503 678.007 601.943 680.896C600.697 684.331 599.99 687.804 597.641 690.739C596.624 683.633 600.247 676.905 600.001 669.839C597.168 669.297 583.826 672.748 588.673 666.619L588.652 666.641L588.66 666.643Z" stroke="#222222"/>
<path d="M694.17 682.58C692.479 684.498 687.32 692.426 685.039 689.904C683.719 688.465 683.978 685.696 685.653 684.764C687.64 683.66 688.878 681.96 689.761 680.005C691.422 677.727 694.73 664.828 697 665.744C702.828 667.898 692.937 676.72 700.422 686.982C707.749 682.763 709.571 673.911 712.745 666.652C714.946 663.2 716.781 669.292 715.461 671.247C712.183 681.839 701.644 703.615 694.167 682.583L694.17 682.58Z" stroke="#222222"/>
<path d="M536.923 685.535C531.402 680.955 515.363 676.602 524.848 667.637C525.686 666.982 526.553 666.284 527.161 665.43C528.948 662.188 545.814 651.555 544.283 660.504C538.337 660.069 530.359 667.758 526.51 671.999C523.632 677.776 537.881 680.695 540.183 685.68C541.746 688.658 536.854 691.062 534.528 691.693C521.237 696.237 506.225 682.422 514.251 681.576C514.179 690.151 532.778 691.04 536.921 685.537L536.923 685.535Z" stroke="#222222"/>
<path d="M730.243 664.251C736.189 667.014 728.395 672.31 727.144 675.998C722.919 684.587 723.201 695.748 734.596 686.206C732.228 684.992 729.019 683.12 731.566 680.421C736.933 675.933 747.845 680.128 740.878 686.99C736.343 688.886 730.11 697.489 725.231 694.088C715.565 685.897 723.38 671.722 730.249 664.251H730.243ZM739.408 682.736C737.69 682.081 736.53 682.57 735.33 683.432C737.194 684.82 737.482 684.777 739.408 682.736Z" stroke="#222222"/>
<path d="M769 669.942C763.052 669.606 754.538 672.92 753.452 678.751C756.181 682.58 761.139 683.647 764.735 686.461C769.211 689.378 763.935 693.933 760.475 694.537C759.085 694.873 757.378 694.596 756.373 696.065C752.276 696.71 747.122 698.281 743.604 694.929C746.021 691.545 751.187 692.968 754.722 691.534C757.069 690.949 759.331 690.006 762.043 689.077C758.963 686.37 755.434 685.422 752.18 683.096C741.145 675.85 764.778 658.721 768.997 669.942H769Z" stroke="#222222"/>
<path d="M588.681 666.622C585.325 666.525 582.202 664.96 578.937 664.275C572.282 663.923 566.339 665.529 559.38 666.311C560.839 667.863 560.62 669.13 560.089 670.514C558.892 674.864 558.153 679.881 560.116 684.063C568.617 683.136 579.182 683.762 585.584 687.925C576.128 687.699 567.006 686.107 557.71 688.983C556.998 688.462 556.409 687.35 556.379 685.932C556.19 679.325 555.472 673.108 558.244 666.834C557.155 666.987 556.417 666.995 555.744 667.213C553.965 667.935 551.426 665.212 553.653 664.095C564.808 661.256 579.23 658.227 588.681 666.627V666.622Z" stroke="#222222"/>
<path d="M559.441 678.976C563.024 674.47 580.313 674.773 583.664 679.524C577.441 679.135 571.711 677.934 565.502 679.564C563.384 679.72 561.34 680.421 559.441 678.979V678.976Z" stroke="#222222"/>
<path d="M544.617 796.677C541.841 801.934 520.08 791.788 521.385 786.718C521.664 785.684 522.645 785.957 523.479 786.157C529.227 787.785 535.329 784.761 538.44 779.88C543.237 768.555 521.193 768.143 515.725 773.631C515.365 784.082 515.792 793.507 517.047 804.112C510.894 796.757 513.712 781.502 513.266 772.237C515.055 764.868 528.916 766.817 534.351 768.871C549.021 775.363 538.337 787.494 526.944 789.113C528.038 791.34 530.373 791.467 532.046 792.479C536.027 795.063 539.695 796.031 544.62 796.68L544.617 796.677Z" stroke="#222222"/>
<path d="M613.106 799.655C614.358 800.79 615.533 801.854 617.042 803.226C615.053 803.446 614.028 802.638 613.109 801.799C610.339 799.113 606.558 803.317 603.187 801.315C599.652 800.081 597.311 804.263 593.943 800.183C587.298 793.584 593.22 785.514 598.026 780.001C604.364 772.924 612.569 780.491 614.801 787.824C616.859 791.981 614.707 795.61 613.103 799.655H613.106ZM608.076 798.723C607.076 796.468 602.907 793.768 604.123 791.5C607.084 790.108 608.394 795.088 610.441 796.834C616.912 791.115 608.635 775.478 601.117 782.107C596.392 785.984 590.159 797.637 600.688 797.887C603.079 798.525 605.123 799.924 608.076 798.725V798.723Z" stroke="#222222"/>
<path d="M680.698 783.1C673.972 782.484 667.227 782.069 660.476 781.857C657.878 781.387 658.368 783.512 657.379 785.385C655.014 789.803 656.485 794.684 657.313 799.289C663.939 797.892 672.947 794.827 678.26 799.297C671.59 799.547 664.92 799.677 658.762 802.503C657.95 802.825 657.421 803.842 656.673 804.634C655.307 804.535 654.626 803.837 654.723 802.173C654.878 799.498 654.083 796.977 653.368 794.392C650.321 786.493 656.172 784.274 652.515 781.137C655.324 776.498 676.459 780.095 680.939 782.355C680.858 782.602 680.778 782.85 680.698 783.1Z" stroke="#222222"/>
<path d="M741.876 803.196C743.045 801.997 744.148 802.132 745.392 802.456C749.815 803.606 754.342 803.6 758.848 803.229C761.286 803.262 766.912 799.767 763.408 797.439C760.261 795.173 755.535 793.785 755.585 789.091C754.378 782.709 770.829 777.293 768.832 784.821C765.812 783.785 763.1 784.579 760.912 786.848C754.865 791.093 763.136 793.083 765.884 796.067C775.485 807.738 745.838 810.851 741.874 803.199L741.876 803.196Z" stroke="#222222"/>
<path d="M694.357 803.243C697.118 812.022 720.569 798.937 703.5 798.934C698.478 799.437 692.03 795.033 696.132 789.605C698.434 786.768 705.088 779.952 706.309 787.345C702.65 787.01 694.553 795.206 701.343 795.838C704.232 795.896 707.027 796.221 709.653 797.491C712.545 798.893 713.844 801.662 712.337 804.26C708.985 809.168 702.617 810.677 696.982 809.734C694.032 809.424 689.623 804.554 694.357 803.246V803.243Z" stroke="#222222"/>
<path d="M630.898 779.374C631.385 780.053 631.948 780.837 632.696 781.882C628.732 783.609 628.729 792.297 629.319 796.036C630.457 807.081 643.845 787.527 645.114 783.9C650.111 789.448 640.352 798.153 636.502 802.082C623.726 810.466 622.796 781.964 630.898 779.377V779.374Z" stroke="#222222"/>
<path d="M730.292 787.282C727.727 793.023 730.151 799.24 728.079 805.044C723.788 803.963 726.785 792.121 725.744 788.118C723.328 788.319 721.06 788.505 720.162 785.421C724.359 783.983 728.223 782.861 732.683 782.987C740.414 783.441 749.849 780.513 756.788 782.943C752.486 784.997 747.056 784.89 742.339 785.503C739.242 785.495 736.375 787.109 733.192 786.43C732.287 786.237 731.176 786.999 730.292 787.282Z" stroke="#222222"/>
<path d="M558.478 786.639C558.409 789.578 558.337 792.652 558.259 795.885C559.431 795.767 559.495 795.698 560.578 795.891C560.348 801.56 556.14 800.4 555.852 795.594C555.863 789.319 555.592 782.993 557.459 776.905C559.766 778.274 558.966 780.359 559.42 782.363C567.071 780.392 574.564 780.21 581.644 784.329C573.854 783.713 566.035 782.52 558.478 786.636V786.639Z" stroke="#222222"/>
<path d="M574.378 777.378C568.943 776.289 564.367 776.298 559.049 776.52C544.7 772.187 573.353 771.032 574.378 777.378Z" stroke="#222222"/>
<path d="M683.044 805.66C676.786 808.096 669.689 806.592 663.374 809.124C661.551 809.721 661.413 809.688 660.26 807.557C663.149 804.095 678.933 804.095 683.044 805.66Z" stroke="#222222"/>
<path d="M582.148 801.527C575.517 802.19 568.722 804.145 562.14 804.087C556.827 799.715 580.256 799.996 582.228 800.856C582.201 801.082 582.173 801.304 582.148 801.53V801.527Z" stroke="#222222"/>
<path d="M489.82 163.168C489.786 146.689 486.994 130.249 483.038 114.36L469.454 113.34C462.611 114.132 455.031 111.453 447.904 111.591C439.064 110.563 430.27 109.993 421.45 108.942C388.656 107.123 355.809 105.283 322.948 106.676C292.4 105.78 261.775 105.719 231.221 106.83C204.187 108.825 177.102 109.902 149.994 110.406C139.363 111.265 128.612 110.161 118.055 111.51L116 119.147C116.577 122.572 115.809 126.741 116.654 129.873C119.939 155.078 118.762 180.595 119.899 205.92C181.443 203.486 243.048 204.235 304.64 206.538C334.557 208.294 364.414 208.777 394.348 209.996C426.147 210.107 457.677 208.025 489.455 207.367C489.957 198.592 489.398 190.397 489.263 181.719C489.572 175.529 490.35 169.379 489.82 163.172V163.168Z" fill="#9AF5C4"/>
<path d="M200.536 154.76C204.726 154.803 203.698 153.642 206.083 151.902C208.207 151.32 210.149 150.44 212.417 150.46C214.812 148.873 217.023 149.71 219.728 149.127C213.788 145.569 206.255 148.764 200.307 150.927C199.706 146.726 196.917 141.137 202.562 139.46C204.249 138.53 203.147 137.452 206.1 137.459C209.856 136.93 213.828 133.172 217.114 137.026C218.713 128.625 193.88 137.747 190.123 139.976C188.363 143.098 195.493 141.163 195.298 144.057C196.101 153.92 197.078 163.63 199.051 173.361C202.468 173 207.195 169.987 209.961 171.383C210.676 170.89 211.305 170.103 211.812 170.169C213.667 170.417 214.947 169.24 216.482 168.711C219.587 167.699 219.755 169.299 222.849 166.607C207.303 165.02 199.528 177.161 200.533 154.753L200.536 154.76Z" fill="#222222"/>
<path d="M280.947 152.236C267.641 147.146 277.409 146.2 278.749 141.074C282.929 138.871 286.847 136.804 290.58 134.006C287.747 129.157 283.141 134.472 279.667 135.702C275.057 138.398 263.666 147.173 271.834 151.641C274.16 152.13 277.194 155.835 279.015 152.904C279.263 155.722 282.882 155.064 285.778 158.193C294.004 164.699 285.432 168.77 278.672 169.848C274.381 171.26 270.269 169.99 265.961 169.478C264.15 175.914 276.841 173.023 280.372 173.503C281.844 173.708 282.99 173.51 284.028 172.676C287.573 170.745 291.712 171.522 293.207 166.253C292.791 159.658 286.954 154.429 280.947 152.243V152.236Z" fill="#222222"/>
<path d="M369.512 141.481C367.574 148.304 365.413 155.064 363.179 161.798C361.277 160.915 361.485 156.652 360.719 154.538C358.555 149.041 357.92 143.217 356.039 137.677C355.481 135.861 353.186 134.733 351.469 135.54C349.158 137.068 349.91 140.545 349.134 142.919C347.427 152.431 345.643 161.93 343.916 171.439C343.173 174.78 346.54 174.409 348.761 173.668C350.71 165.899 351.627 157.879 352.894 149.974C353.015 149.213 353.018 148.314 354.06 148.042C356.828 154.165 357.164 160.955 359.745 167.12C361.445 171.181 360.884 171.151 365.689 171.132C368.229 168.343 368.417 163.356 369.895 159.784C371.216 153.721 374.095 147.699 374.233 141.507C373.843 139.546 369.67 138.858 369.509 141.477L369.512 141.481Z" fill="#222222"/>
<path d="M436.006 172.835C432.972 172.603 414.462 172.342 416.391 168.009C416.32 159.668 418.44 151.568 418.665 143.27C418.927 140.518 416.73 136.877 413.773 139.016C413.551 146.683 413.508 154.197 412.5 161.762C412.339 169.895 407.299 175.378 419.341 174.148C422.885 174.962 426.524 175.239 430.113 175.031C434.857 176.939 439.884 174.879 444.735 176.222C445.313 176.427 446.123 175.993 447 175.821C445.034 171.697 439.682 173.5 436.003 172.828L436.006 172.835Z" fill="#222222"/>
<path d="M253.099 165.767C248.651 163.673 244.387 161.732 240.929 158.229C243.654 158.226 245.254 155.583 247.438 157.224C257.461 151.829 259.991 135.534 246.998 132.365C240.701 129.514 234.156 131.525 228.514 134.757C224.671 137.145 230.618 137.634 230.403 140.33C231.377 149.59 231.716 158.997 234.922 167.847C235.634 170.417 239.851 170.731 240.086 167.913C237.956 166.045 238.208 163.531 236.877 161.123C240.96 163.134 246.789 168.684 250.64 166.349C251.732 168.929 254.067 168.952 256.224 169.706C256.486 167.044 254.49 166.26 253.096 165.764L253.099 165.767ZM236.676 154.495C236.118 151.562 234.609 149.379 235.889 146.554C236.39 145.846 235.91 144.408 235.738 143.319C235.318 141.424 234.69 139.582 234.304 137.66C237.496 134.313 242.579 134.327 246.789 135.401C259.063 141.236 247.596 158.219 236.676 154.495Z" fill="#222222"/>
<path d="M398.368 157.65C396.412 149.709 396.513 140.819 392.827 133.48C386.678 126.733 384.948 149.329 382.794 152.703C381.833 155.696 381.696 159.046 379.011 161.408C379.831 162.777 379.481 164.007 378.967 165.38C378.077 169.114 372.822 178.077 380.825 176.013C382.519 172.537 382.979 164.708 385.886 163.081C388.731 162.585 391.345 160.544 394.023 162.565C394.484 165.694 390.606 174.505 395.703 174.257C398.502 174.7 397.209 165.988 398.516 163.594C398.996 160.902 402.188 161.49 404.207 160.829C404.221 160.637 404.238 160.442 404.251 160.25C402.259 159.552 398.996 160.22 398.371 157.65H398.368ZM393.734 158.285C391.349 158.219 389.158 158.16 386.759 158.094C386.702 152.59 389.027 147.86 391.114 143.018C392.192 148.069 394.124 152.894 393.734 158.285Z" fill="#222222"/>
<path d="M158.771 138.17C156.621 139.248 151.581 140.161 152.028 143.22C153.254 145.234 156.386 142.77 156.799 147.229C157.024 151.654 159.574 156.407 157.189 160.581C157.118 160.667 157.226 160.889 157.29 161.309C159.215 161.643 159.259 163.25 159.359 164.861C159.584 169.571 160.169 174.267 160.831 178.927C161.987 178.96 162.803 178.983 163.519 179C168.253 174.568 163.062 169.306 163.999 164.123C164.362 161.834 164.587 161.401 166.815 161.14C170.027 160.766 172.927 159.592 175.712 158.074C179.103 156.156 182.493 154.654 184.542 151.257C186.505 148.734 188.02 145.724 186.461 142.635C183.618 134.833 165.367 136.258 158.771 138.173V138.17ZM182.869 145.645C179.758 153.004 171.58 157.214 163.845 157.806C160.908 152.921 162.575 147.093 159.705 142.076C164.419 139.503 184.64 136.731 182.869 145.645Z" fill="#222222"/>
<path d="M309.708 143.184C305.932 149.041 300.858 156.466 302.85 163.544C294.407 181.573 324.146 180.571 329.414 167.904C332.143 162.932 335.466 158.405 335.677 152.488C340.512 130.454 321.297 129.184 309.708 143.187V143.184ZM313.018 174.3C310.609 174.71 308.435 173.963 307.071 171.618C306.425 169.69 303.344 167.44 303.852 165.744C308.747 169.217 308.381 165.731 312.887 163.753C311.814 163.305 310.314 163.426 308.388 164.117C304.799 160.379 307.689 155.544 308.388 151.231C310.175 150.854 310.353 148.79 310.793 147.391C311.492 145.919 312.625 143.128 314.355 143.564C314.325 143.022 314.298 142.486 314.254 141.719C317.355 142.711 316.159 138.663 318.612 139.566C320.218 137.965 322.59 138.229 324.452 137.224C328.541 134.598 331.565 139.85 332.149 143.27C333.503 155.904 327.351 172.412 313.011 174.3H313.018Z" fill="#222222"/>
<path d="M200.536 154.76C204.726 154.803 203.698 153.642 206.083 151.902C208.207 151.32 210.149 150.44 212.417 150.46C214.812 148.873 217.023 149.71 219.728 149.127C213.788 145.569 206.255 148.764 200.307 150.927C199.706 146.726 196.917 141.137 202.562 139.46C204.249 138.53 203.147 137.452 206.1 137.459C209.856 136.93 213.828 133.172 217.114 137.026C218.713 128.625 193.88 137.747 190.123 139.976C188.363 143.098 195.493 141.163 195.298 144.057C196.101 153.92 197.078 163.63 199.051 173.361C202.468 173 207.195 169.987 209.961 171.383C210.676 170.89 211.305 170.103 211.812 170.169C213.667 170.417 214.947 169.24 216.482 168.711C219.587 167.699 219.755 169.299 222.849 166.607C207.303 165.02 199.528 177.161 200.533 154.753L200.536 154.76Z" stroke="#222222"/>
<path d="M280.947 152.236C267.641 147.146 277.409 146.2 278.749 141.074C282.929 138.871 286.847 136.804 290.58 134.006C287.747 129.157 283.141 134.472 279.667 135.702C275.057 138.398 263.666 147.173 271.834 151.641C274.16 152.13 277.194 155.835 279.015 152.904C279.263 155.722 282.882 155.064 285.778 158.193C294.004 164.699 285.432 168.77 278.672 169.848C274.381 171.26 270.269 169.99 265.961 169.478C264.15 175.914 276.841 173.023 280.372 173.503C281.844 173.708 282.99 173.51 284.028 172.676C287.573 170.745 291.712 171.522 293.207 166.253C292.791 159.658 286.954 154.429 280.947 152.243V152.236Z" stroke="#222222"/>
<path d="M369.512 141.481C367.574 148.304 365.413 155.064 363.179 161.798C361.277 160.915 361.485 156.652 360.719 154.538C358.555 149.041 357.92 143.217 356.039 137.677C355.481 135.861 353.186 134.733 351.469 135.54C349.158 137.068 349.91 140.545 349.134 142.919C347.427 152.431 345.643 161.93 343.916 171.439C343.173 174.78 346.54 174.409 348.761 173.668C350.71 165.899 351.627 157.879 352.894 149.974C353.015 149.213 353.018 148.314 354.06 148.042C356.828 154.165 357.164 160.955 359.745 167.12C361.445 171.181 360.884 171.151 365.689 171.132C368.229 168.343 368.417 163.356 369.895 159.784C371.216 153.721 374.095 147.699 374.233 141.507C373.843 139.546 369.67 138.858 369.509 141.477L369.512 141.481Z" stroke="#222222"/>
<path d="M436.006 172.835C432.972 172.603 414.462 172.342 416.391 168.009C416.32 159.668 418.44 151.568 418.665 143.27C418.927 140.518 416.73 136.877 413.773 139.016C413.551 146.683 413.508 154.197 412.5 161.762C412.339 169.895 407.299 175.378 419.341 174.148C422.885 174.962 426.524 175.239 430.113 175.031C434.857 176.939 439.884 174.879 444.735 176.222C445.313 176.427 446.123 175.993 447 175.821C445.034 171.697 439.682 173.5 436.003 172.828L436.006 172.835Z" stroke="#222222"/>
<path d="M253.099 165.767C248.651 163.673 244.387 161.732 240.929 158.229C243.654 158.226 245.254 155.583 247.438 157.224C257.461 151.829 259.991 135.534 246.998 132.365C240.701 129.514 234.156 131.525 228.514 134.757C224.671 137.145 230.618 137.634 230.403 140.33C231.377 149.59 231.716 158.997 234.922 167.847C235.634 170.417 239.851 170.731 240.086 167.913C237.956 166.045 238.208 163.531 236.877 161.123C240.96 163.134 246.789 168.684 250.64 166.349C251.732 168.929 254.067 168.952 256.224 169.706C256.486 167.044 254.49 166.26 253.096 165.764L253.099 165.767ZM236.676 154.495C236.118 151.562 234.609 149.379 235.889 146.554C236.39 145.846 235.91 144.408 235.738 143.319C235.318 141.424 234.69 139.582 234.304 137.66C237.496 134.313 242.579 134.327 246.789 135.401C259.063 141.236 247.596 158.219 236.676 154.495Z" stroke="#222222"/>
<path d="M398.368 157.65C396.412 149.709 396.513 140.819 392.827 133.48C386.678 126.733 384.948 149.329 382.794 152.703C381.833 155.696 381.696 159.046 379.011 161.408C379.831 162.777 379.481 164.007 378.967 165.38C378.077 169.114 372.822 178.077 380.825 176.013C382.519 172.537 382.979 164.708 385.886 163.081C388.731 162.585 391.345 160.544 394.023 162.565C394.484 165.694 390.606 174.505 395.703 174.257C398.502 174.7 397.209 165.988 398.516 163.594C398.996 160.902 402.188 161.49 404.207 160.829C404.221 160.637 404.238 160.442 404.251 160.25C402.259 159.552 398.996 160.22 398.371 157.65H398.368ZM393.734 158.285C391.349 158.219 389.158 158.16 386.759 158.094C386.702 152.59 389.027 147.86 391.114 143.018C392.192 148.069 394.124 152.894 393.734 158.285Z" stroke="#222222"/>
<path d="M158.771 138.17C156.621 139.248 151.581 140.161 152.028 143.22C153.254 145.234 156.386 142.77 156.799 147.229C157.024 151.654 159.574 156.407 157.189 160.581C157.118 160.667 157.226 160.889 157.29 161.309C159.215 161.643 159.259 163.25 159.359 164.861C159.584 169.571 160.169 174.267 160.831 178.927C161.987 178.96 162.803 178.983 163.519 179C168.253 174.568 163.062 169.306 163.999 164.123C164.362 161.834 164.587 161.401 166.815 161.14C170.027 160.766 172.927 159.592 175.712 158.074C179.103 156.156 182.493 154.654 184.542 151.257C186.505 148.734 188.02 145.724 186.461 142.635C183.618 134.833 165.367 136.258 158.771 138.173V138.17ZM182.869 145.645C179.758 153.004 171.58 157.214 163.845 157.806C160.908 152.921 162.575 147.093 159.705 142.076C164.419 139.503 184.64 136.731 182.869 145.645Z" stroke="#222222"/>
<path d="M309.708 143.184C305.932 149.041 300.858 156.466 302.85 163.544C294.407 181.573 324.146 180.571 329.414 167.904C332.143 162.932 335.466 158.405 335.677 152.488C340.512 130.454 321.297 129.184 309.708 143.187V143.184ZM313.018 174.3C310.609 174.71 308.435 173.963 307.071 171.618C306.425 169.69 303.344 167.44 303.852 165.744C308.747 169.217 308.381 165.731 312.887 163.753C311.814 163.305 310.314 163.426 308.388 164.117C304.799 160.379 307.689 155.544 308.388 151.231C310.175 150.854 310.353 148.79 310.793 147.391C311.492 145.919 312.625 143.128 314.355 143.564C314.325 143.022 314.298 142.486 314.254 141.719C317.355 142.711 316.159 138.663 318.612 139.566C320.218 137.965 322.59 138.229 324.452 137.224C328.541 134.598 331.565 139.85 332.149 143.27C333.503 155.904 327.351 172.412 313.011 174.3H313.018Z" stroke="#222222"/>
<path d="M641 119L641 447" stroke="#222222" stroke-width="2" stroke-linejoin="round"/>
<path d="M372 556H498" stroke="#222222" stroke-width="2" stroke-linejoin="round" stroke-dasharray="2 4"/>
<path d="M372 673H458" stroke="#222222" stroke-width="2" stroke-linejoin="round" stroke-dasharray="2 4"/>
<path d="M372 790H448" stroke="#222222" stroke-width="2" stroke-linejoin="round" stroke-dasharray="2 4"/>
<path d="M488 543L505 556L488 569V543Z" fill="#222222"/>
<path d="M448 660L465 673L448 686V660Z" fill="#222222"/>
<path d="M438 777L455 790L438 803V777Z" fill="#222222"/>
<path d="M909 556H783" stroke="#222222" stroke-width="2" stroke-linejoin="round" stroke-dasharray="2 4"/>
<path d="M909 673H823" stroke="#222222" stroke-width="2" stroke-linejoin="round" stroke-dasharray="2 4"/>
<path d="M909 790H833" stroke="#222222" stroke-width="2" stroke-linejoin="round" stroke-dasharray="2 4"/>
<path d="M793 543L776 556L793 569V543Z" fill="#222222"/>
<path d="M833 660L816 673L833 686V660Z" fill="#222222"/>
<path d="M843 777L826 790L843 803V777Z" fill="#222222"/>
</svg>
