<svg width="2005" height="625" viewBox="0 0 2005 625" fill="none" xmlns="http://www.w3.org/2000/svg">
<g filter="url(#filter0_d_245_5543)">
<g clip-path="url(#clip0_245_5543)">
<rect x="5" y="3" width="1980" height="585.918" fill="white"/>
<path d="M1819.46 3L1353.41 588.918H1985V3H1819.46Z" fill="#49176D"/>
<path d="M1894.29 431.199C1890.5 431.199 1887.43 434.263 1887.43 438.051V456.439C1887.43 456.439 1887.56 456.695 1887.69 456.695C1887.77 456.695 1887.82 456.695 1887.86 456.609L1900.88 440.18C1900.88 440.18 1901.1 439.839 1901.1 439.626V438.051C1901.1 434.263 1898.03 431.199 1894.24 431.199" fill="#E40E62"/>
<path d="M1912.55 431.199C1908.76 431.199 1905.69 434.263 1905.69 438.051V456.439C1905.69 456.439 1905.82 456.695 1905.95 456.695C1906.03 456.695 1906.08 456.695 1906.12 456.609L1919.14 440.18C1919.14 440.18 1919.36 439.839 1919.36 439.626V438.051C1919.36 434.263 1916.29 431.199 1912.5 431.199" fill="#E40E62"/>
<path d="M1734.67 464.101C1738.71 464.101 1741.99 460.823 1741.99 456.78C1741.99 452.736 1738.71 449.459 1734.67 449.459C1730.63 449.459 1727.35 452.736 1727.35 456.78C1727.35 460.823 1730.63 464.101 1734.67 464.101ZM1898.33 479.552C1896.07 474.231 1892.37 469.762 1887.65 466.57C1882.92 463.377 1877.22 461.504 1871.13 461.504C1867.09 461.504 1863.17 462.356 1859.64 463.845C1855.13 465.761 1851.21 468.74 1848.19 472.486H1848.15C1848.15 472.486 1847.98 472.784 1847.85 472.912L1821.03 506.75C1821.03 506.75 1820.91 506.835 1820.86 506.835C1820.74 506.835 1820.61 506.708 1820.61 506.58V463.505H1833.46C1837.21 463.505 1840.27 460.44 1840.27 456.695C1840.27 452.949 1837.21 449.884 1833.46 449.884H1820.61V422.643C1820.61 422.643 1820.48 422.388 1820.35 422.388C1820.27 422.388 1820.22 422.388 1820.18 422.473L1807.24 438.775C1807.24 438.775 1807.03 439.116 1807.03 439.328V449.842H1780.9V422.601C1780.9 422.601 1780.77 422.345 1780.64 422.345C1780.55 422.345 1780.51 422.345 1780.47 422.43L1767.53 438.733C1767.53 438.733 1767.32 439.073 1767.32 439.286V449.799H1754.46C1750.72 449.799 1747.65 452.864 1747.65 456.609C1747.65 460.355 1750.72 463.42 1754.46 463.42H1767.32V474.274L1741.61 506.665C1741.61 506.665 1741.48 506.75 1741.44 506.75C1741.27 506.75 1741.18 506.622 1741.18 506.495V476.657C1741.18 473.763 1739.35 471.166 1736.63 470.23C1733.9 469.294 1730.88 470.145 1729.09 472.443L1701.94 506.708C1701.94 506.708 1701.81 506.793 1701.77 506.793C1701.64 506.793 1701.51 506.665 1701.51 506.537V425.367C1701.51 421.622 1698.45 418.6 1694.7 418.6C1690.96 418.6 1687.89 421.622 1687.89 425.367V466.144C1683.3 463.207 1677.8 461.462 1671.97 461.462C1667.93 461.462 1664.01 462.313 1660.48 463.803C1655.16 466.059 1650.69 469.762 1647.5 474.486C1644.31 479.169 1642.48 484.915 1642.48 491.001C1642.48 495.045 1643.33 498.961 1644.78 502.494C1647.03 507.814 1650.78 512.283 1655.46 515.476C1660.14 518.668 1665.89 520.498 1671.97 520.498C1676.02 520.498 1679.93 519.69 1683.47 518.157C1685.89 517.136 1688.11 515.816 1690.15 514.241C1691.17 515.774 1692.45 517.093 1693.98 518.157C1696.15 519.647 1698.87 520.498 1701.68 520.498C1703.85 520.498 1705.9 519.988 1707.73 519.094C1709.56 518.2 1711.13 516.923 1712.41 515.348L1727.56 496.152V506.708C1727.56 508.58 1727.95 510.411 1728.67 512.071C1729.69 514.539 1731.44 516.668 1733.65 518.115C1735.86 519.605 1738.54 520.456 1741.35 520.456C1743.48 520.456 1745.57 519.945 1747.4 519.051C1749.23 518.157 1750.8 516.88 1752.08 515.306H1752.12L1767.27 496.109V506.665C1767.27 508.538 1767.66 510.368 1768.34 512.028C1769.4 514.497 1771.15 516.625 1773.32 518.072C1775.53 519.562 1778.21 520.413 1781.02 520.413C1783.19 520.413 1785.24 519.903 1787.07 519.009C1788.9 518.115 1790.47 516.838 1791.75 515.263H1791.79L1806.94 496.067V506.622C1806.94 508.495 1807.33 510.326 1808.05 511.986C1809.12 514.454 1810.82 516.582 1813.03 518.03C1815.2 519.519 1817.88 520.371 1820.74 520.371C1822.91 520.371 1824.95 519.86 1826.78 518.966C1828.61 518.072 1830.18 516.795 1831.46 515.22H1831.5L1843.17 500.451C1843.38 501.089 1843.64 501.728 1843.89 502.366C1846.15 507.687 1849.89 512.156 1854.57 515.348C1859.3 518.54 1865 520.371 1871.09 520.371C1875.13 520.371 1879.05 519.562 1882.58 518.03C1887.9 515.774 1892.37 512.071 1895.56 507.346C1898.71 502.664 1900.59 496.918 1900.59 490.831C1900.59 486.788 1899.78 482.872 1898.25 479.339M1671.89 506.963C1663.12 506.963 1655.97 499.855 1655.97 491.044C1655.97 482.233 1663.08 475.125 1671.89 475.125C1680.7 475.125 1687.81 482.233 1687.81 491.044C1687.81 499.855 1680.66 506.963 1671.89 506.963ZM1806.99 474.316L1781.32 506.708C1781.32 506.708 1781.24 506.793 1781.15 506.793C1780.98 506.793 1780.85 506.665 1780.85 506.537V463.462H1806.99V474.316ZM1871.56 506.963C1862.79 506.963 1855.64 499.855 1855.64 491.044C1855.64 482.233 1862.79 475.125 1871.56 475.125C1880.33 475.125 1887.48 482.233 1887.48 491.044C1887.48 499.855 1880.37 506.963 1871.56 506.963Z" fill="white"/>
</g>
<rect x="5" y="3" width="1980" height="585.918" stroke="#80848A" stroke-width="1.06411"/>
</g>
<defs>
<filter id="filter0_d_245_5543" x="0.248391" y="0.35857" width="1993.72" height="599.643" filterUnits="userSpaceOnUse" color-interpolation-filters="sRGB">
<feFlood flood-opacity="0" result="BackgroundImageFix"/>
<feColorMatrix in="SourceAlpha" type="matrix" values="0 0 0 0 0 0 0 0 0 0 0 0 0 0 0 0 0 0 127 0" result="hardAlpha"/>
<feOffset dx="2.11018" dy="4.22036"/>
<feGaussianBlur stdDeviation="3.16527"/>
<feComposite in2="hardAlpha" operator="out"/>
<feColorMatrix type="matrix" values="0 0 0 0 0 0 0 0 0 0 0 0 0 0 0 0 0 0 0.25 0"/>
<feBlend mode="normal" in2="BackgroundImageFix" result="effect1_dropShadow_245_5543"/>
<feBlend mode="normal" in="SourceGraphic" in2="effect1_dropShadow_245_5543" result="shape"/>
</filter>
<clipPath id="clip0_245_5543">
<rect x="5" y="3" width="1980" height="585.918" fill="white"/>
</clipPath>
</defs>
</svg>
