<svg width="2003" height="625" viewBox="0 0 2003 625" fill="none" xmlns="http://www.w3.org/2000/svg">
<g filter="url(#filter0_d_245_5529)">
<rect x="3" y="3" width="1980" height="585.918" fill="white"/>
<rect x="3" y="3" width="1980" height="585.918" stroke="#80848A" stroke-width="1.06411"/>
<path d="M1465.38 60.9688C1396.3 60.9688 1340.28 116.983 1340.28 185.937V521.684C1340.28 524.323 1342.54 526.621 1345.26 526.621C1346.71 526.621 1347.82 526.026 1348.58 525.302L1586.64 224.798C1588.86 221.989 1590.26 218.499 1590.26 214.455V185.98C1590.26 117.026 1534.29 61.0113 1465.33 61.0113" fill="#E40E62"/>
<path d="M1798.7 60.9688C1729.66 60.9688 1673.65 116.983 1673.65 185.937V521.684C1673.65 524.323 1675.77 526.621 1678.67 526.621C1679.9 526.621 1681.14 526.026 1682.03 525.302L1920.14 224.798C1922.31 221.989 1923.75 218.499 1923.75 214.455V185.98C1923.75 117.026 1867.91 61.0113 1798.74 61.0113" fill="#E40E62"/>
<path d="M218.535 468.821C216.067 468.821 214.109 470.822 214.109 473.248V485.123C214.109 485.123 214.194 485.294 214.279 485.294C214.322 485.294 214.364 485.294 214.407 485.251L222.834 474.61C222.834 474.61 222.962 474.397 222.962 474.227V473.205C222.962 470.779 220.962 468.779 218.535 468.779" fill="#ED135D"/>
<path d="M230.323 468.821C227.896 468.821 225.896 470.822 225.896 473.248V485.123C225.896 485.123 225.981 485.294 226.066 485.294C226.066 485.294 226.151 485.294 226.194 485.251L234.622 474.61C234.622 474.61 234.749 474.397 234.749 474.227V473.205C234.749 470.779 232.791 468.779 230.323 468.779" fill="#ED135D"/>
<path d="M115.19 490.104C117.787 490.104 119.915 487.976 119.915 485.38C119.915 482.783 117.787 480.655 115.19 480.655C112.594 480.655 110.466 482.783 110.466 485.38C110.466 487.976 112.594 490.104 115.19 490.104ZM221.133 500.107C219.685 496.659 217.259 493.765 214.237 491.722C211.173 489.679 207.512 488.444 203.554 488.444C200.915 488.444 198.403 488.998 196.105 489.934C193.168 491.169 190.657 493.084 188.699 495.51V495.553C188.656 495.638 188.571 495.723 188.486 495.808L171.162 517.686C171.162 517.686 171.077 517.729 171.035 517.729C170.949 517.729 170.864 517.643 170.864 517.558V489.679H179.164C181.59 489.679 183.548 487.721 183.548 485.295C183.548 482.869 181.59 480.911 179.164 480.911H170.864V463.289C170.864 463.289 170.779 463.119 170.694 463.119C170.694 463.119 170.609 463.119 170.566 463.161L162.181 473.717C162.181 473.717 162.054 473.93 162.054 474.1V480.911H145.155V463.289C145.155 463.289 145.07 463.119 144.985 463.119C144.943 463.119 144.9 463.119 144.858 463.161L136.472 473.717C136.472 473.717 136.345 473.93 136.345 474.1V480.911H128.002C125.576 480.911 123.618 482.869 123.618 485.295C123.618 487.721 125.576 489.679 128.002 489.679H136.345V496.702L119.702 517.686C119.702 517.686 119.617 517.729 119.574 517.729C119.489 517.729 119.404 517.643 119.404 517.558V498.234C119.404 496.361 118.212 494.701 116.425 494.063C114.637 493.467 112.679 494.02 111.53 495.468L93.9507 517.643C93.9507 517.643 93.8656 517.686 93.823 517.686C93.7379 517.686 93.6528 517.601 93.6528 517.516V464.992C93.6528 462.565 91.6948 460.607 89.2687 460.607C86.8425 460.607 84.8845 462.565 84.8845 464.992V491.381C81.905 489.466 78.3722 488.359 74.584 488.359C71.945 488.359 69.4337 488.913 67.1353 489.849C63.6876 491.296 60.7932 493.722 58.7501 496.744C56.707 499.809 55.4727 503.47 55.4727 507.428C55.4727 510.067 56.026 512.578 56.9624 514.877C58.4096 518.325 60.8358 521.219 63.8578 523.262C66.8799 525.305 70.583 526.539 74.5414 526.539C77.1804 526.539 79.6917 526.029 81.9902 525.05C83.565 524.411 85.0122 523.517 86.2892 522.496C86.9276 523.517 87.7789 524.369 88.7579 525.007C90.1625 525.944 91.9076 526.539 93.7379 526.539C95.1425 526.539 96.462 526.199 97.6538 525.646C98.8456 525.05 99.8672 524.241 100.676 523.219L110.508 510.791V517.601C110.508 518.835 110.764 519.985 111.189 521.091C111.87 522.709 112.977 524.071 114.424 525.007C115.829 525.944 117.574 526.539 119.404 526.539C120.809 526.539 122.128 526.199 123.32 525.646C124.512 525.05 125.533 524.241 126.342 523.219L136.132 510.791V517.601C136.132 518.835 136.387 519.985 136.813 521.091C137.494 522.709 138.643 524.071 140.048 525.007C141.452 525.944 143.198 526.539 145.028 526.539C146.432 526.539 147.752 526.199 148.944 525.646C150.136 525.05 151.157 524.241 151.966 523.219L161.756 510.791V517.601C161.756 518.835 162.011 519.985 162.479 521.091C163.16 522.709 164.267 524.071 165.714 525.007C167.119 525.944 168.864 526.539 170.694 526.539C172.099 526.539 173.418 526.199 174.61 525.646C175.802 525.05 176.823 524.241 177.632 523.219L185.166 513.642C185.294 514.068 185.464 514.451 185.634 514.877C187.081 518.325 189.507 521.219 192.529 523.262C195.552 525.305 199.255 526.539 203.213 526.539C205.852 526.539 208.363 526.029 210.662 525.05C214.11 523.602 217.004 521.176 219.047 518.154C221.09 515.132 222.324 511.429 222.324 507.471C222.324 504.832 221.814 502.32 220.835 500.022M74.584 517.814C68.8804 517.814 64.2835 513.217 64.2835 507.513C64.2835 501.81 68.8804 497.213 74.584 497.213C80.2876 497.213 84.8845 501.81 84.8845 507.513C84.8845 513.217 80.2876 517.814 74.584 517.814ZM162.011 496.702L145.411 517.686C145.411 517.686 145.326 517.729 145.283 517.729C145.198 517.729 145.113 517.643 145.113 517.558V489.679H162.011V496.702ZM203.809 517.814C198.105 517.814 193.508 513.217 193.508 507.513C193.508 501.81 198.105 497.213 203.809 497.213C209.513 497.213 214.11 501.81 214.11 507.513C214.11 513.217 209.513 517.814 203.809 517.814Z" fill="#3E1865"/>
</g>
<defs>
<filter id="filter0_d_245_5529" x="0.179028" y="0.179028" width="1993.72" height="599.643" filterUnits="userSpaceOnUse" color-interpolation-filters="sRGB">
<feFlood flood-opacity="0" result="BackgroundImageFix"/>
<feColorMatrix in="SourceAlpha" type="matrix" values="0 0 0 0 0 0 0 0 0 0 0 0 0 0 0 0 0 0 127 0" result="hardAlpha"/>
<feOffset dx="4.04082" dy="4.04082"/>
<feGaussianBlur stdDeviation="3.16527"/>
<feComposite in2="hardAlpha" operator="out"/>
<feColorMatrix type="matrix" values="0 0 0 0 0 0 0 0 0 0 0 0 0 0 0 0 0 0 0.25 0"/>
<feBlend mode="normal" in2="BackgroundImageFix" result="effect1_dropShadow_245_5529"/>
<feBlend mode="normal" in="SourceGraphic" in2="effect1_dropShadow_245_5529" result="shape"/>
</filter>
</defs>
</svg>
