<svg width="2000" height="1097" viewBox="0 0 2000 1097" fill="none" xmlns="http://www.w3.org/2000/svg">
<path d="M399.026 95.2967L335.767 86.2258L326.379 83C326.379 83 320.415 93.67 278.528 93.6976C236.64 93.6424 230.676 83 230.676 83L221.288 86.2258L158.03 95.2967L52 132.407L70.9693 207.042L144.527 208.614C152.038 253.224 144.527 472 144.527 472H412.473C412.473 472 404.962 253.251 412.473 208.614L486.031 207.042L505 132.407L399.026 95.2967Z" fill="#F8B5CB"/>
<path d="M61 130L80 208" stroke="white" stroke-width="2"/>
<path d="M55 131L75 208" stroke="white" stroke-width="2"/>
<path d="M235 95C235 95 247.02 102 279 102" stroke="white" stroke-width="2"/>
<path d="M157.514 95C157.514 95 168.586 145.648 144 209" stroke="white" stroke-width="2"/>
<path d="M496 130L477 208" stroke="white" stroke-width="2"/>
<path d="M500 131L482 208" stroke="white" stroke-width="2"/>
<path d="M335.945 86.2237L326.518 83C326.518 83 320.114 125.955 278.472 126.12C236.831 125.955 230.426 83 230.426 83L221 86.2237C221 86.2237 230.565 133.669 278.25 134C278.25 134 278.417 134 278.5 134C278.583 134 278.666 134 278.75 134C326.435 133.669 336 86.2237 336 86.2237H335.945Z" stroke="white" stroke-width="2"/>
<path d="M322 95C322 95 309.953 102 278 102" stroke="white" stroke-width="2"/>
<path d="M324 91L320.276 92.8785C319.947 93.0187 319.427 93.271 318.687 93.5514C317.209 94.1122 314.853 94.9252 311.485 95.7383C304.803 97.3364 294.123 98.9907 278.514 99.0187C262.904 99.0187 252.224 97.3364 245.515 95.7383C242.147 94.9252 239.791 94.1402 238.313 93.5514C237.573 93.271 237.053 93.0187 236.724 92.8785L233 91L236.724 100.252C236.724 100.252 247.87 105.944 278.267 106C278.267 106 278.432 106 278.514 106H278.76C309.157 105.944 320.276 100.252 320.276 100.252L324 91Z" stroke="white" stroke-width="2"/>
<path d="M398.486 95C398.486 95 387.414 145.648 412 209" stroke="white" stroke-width="2"/>
<path d="M145 467H412" stroke="white" stroke-width="2"/>
<path d="M324.486 176C315.94 176 309 183.107 309 191.83V234.387C309 234.721 309.272 235 309.626 235C309.789 235 309.925 234.916 310.061 234.833L339.537 196.763C339.809 196.401 340 195.955 340 195.453V191.858C340 183.107 333.087 176.028 324.514 176.028" fill="#E40E62"/>
<path d="M366.5 176C357.946 176 351 183.107 351 191.83V234.387C351 234.721 351.272 235 351.627 235C351.79 235 351.926 234.916 352.035 234.833L381.537 196.763C381.837 196.401 382 195.955 382 195.453V191.858C382 183.107 375.081 176.028 366.527 176.028" fill="#E40E62"/>
<path d="M899.971 95.2967L836.712 86.2258L827.324 83C827.324 83 821.36 93.67 779.472 93.6976C737.585 93.6424 731.621 83 731.621 83L722.233 86.2258L658.974 95.2967L553 132.407L571.969 207.042L645.527 208.614C653.038 253.224 645.527 472 645.527 472H913.473C913.473 472 905.962 253.251 913.473 208.614L987.031 207.042L1006 132.407L900.026 95.2967H899.971Z" fill="#F8B5CB"/>
<path d="M562 130L580 208" stroke="white" stroke-width="2"/>
<path d="M556 131L574 208" stroke="white" stroke-width="2"/>
<path d="M722 86C722 86 737.59 103 779 103" stroke="white" stroke-width="2"/>
<path d="M658.514 95C658.514 95 669.586 145.648 645 209" stroke="white" stroke-width="2"/>
<path d="M997 130L977 208" stroke="white" stroke-width="2"/>
<path d="M1001 131L983 208" stroke="white" stroke-width="2"/>
<path d="M837 86C837 86 821.144 103 779 103" stroke="white" stroke-width="2"/>
<path d="M899.486 95C899.486 95 888.414 145.648 913 209" stroke="white" stroke-width="2"/>
<path d="M645 467H913" stroke="white" stroke-width="2"/>
<path d="M887.017 416C885.353 416 884 417.083 884 418.417V424.889C884 424.889 884.035 425 884.104 425C884.104 425 884.173 425 884.173 424.972L889.896 419.167C889.896 419.167 890 419.028 890 418.972V418.417C890 417.083 888.647 416 886.983 416" fill="#E40E62"/>
<path d="M893.529 416C892.134 416 891 417.083 891 418.417V424.889C891 424.889 891.029 425 891.087 425C891.116 425 891.145 425 891.145 424.972L895.942 419.167C895.942 419.167 896 419.028 896 418.972V418.417C896 417.083 894.866 416 893.471 416" fill="#E40E62"/>
<path d="M831.098 427.676C832.499 427.676 833.653 426.541 833.653 425.162C833.653 423.784 832.527 422.649 831.098 422.649C829.669 422.649 828.542 423.757 828.542 425.162C828.542 426.568 829.696 427.676 831.098 427.676ZM888.176 433C887.379 431.189 886.087 429.649 884.466 428.541C882.817 427.459 880.838 426.811 878.695 426.811C877.293 426.811 875.919 427.108 874.682 427.622C873.116 428.27 871.742 429.297 870.698 430.568C870.698 430.568 870.643 430.676 870.588 430.703L861.244 442.297C861.244 442.297 861.217 442.297 861.189 442.297C861.134 442.297 861.107 442.27 861.107 442.216V427.459H865.586C866.878 427.459 867.95 426.405 867.95 425.135C867.95 423.865 866.878 422.811 865.586 422.811H861.107V413.459C861.107 413.459 861.079 413.378 860.997 413.378H860.942L856.435 418.973C856.435 418.973 856.38 419.108 856.38 419.162V422.784H847.256V413.432C847.256 413.432 847.229 413.351 847.174 413.351H847.119L842.612 418.946C842.612 418.946 842.53 419.081 842.53 419.135V422.757H838.05C836.759 422.757 835.687 423.811 835.687 425.081C835.687 426.351 836.759 427.405 838.05 427.405H842.53V431.135L833.571 442.243C833.571 442.243 833.544 442.243 833.516 442.243C833.461 442.243 833.434 442.216 833.434 442.162V431.919C833.434 430.919 832.802 430.027 831.84 429.73C830.878 429.405 829.834 429.703 829.202 430.487L819.721 442.243C819.721 442.243 819.693 442.243 819.666 442.243C819.611 442.243 819.583 442.216 819.583 442.162V414.324C819.583 413.027 818.511 412 817.22 412C815.928 412 814.856 413.054 814.856 414.324V428.324C813.263 427.324 811.339 426.73 809.305 426.73C807.876 426.73 806.53 427.027 805.293 427.541C803.452 428.297 801.885 429.595 800.759 431.189C799.659 432.811 799 434.757 799 436.865C799 438.243 799.275 439.595 799.797 440.811C800.594 442.622 801.885 444.162 803.534 445.27C805.183 446.351 807.162 447 809.278 447C810.679 447 812.053 446.703 813.29 446.216C814.142 445.865 814.911 445.405 815.626 444.865C815.983 445.405 816.423 445.838 816.973 446.189C817.742 446.703 818.676 447 819.666 447C820.408 447 821.15 446.838 821.782 446.514C822.414 446.216 822.963 445.757 823.43 445.216L828.707 438.622V442.243C828.707 442.892 828.844 443.514 829.092 444.081C829.449 444.946 830.053 445.649 830.823 446.162C831.592 446.676 832.527 446.973 833.516 446.973C834.258 446.973 835 446.811 835.632 446.486C836.264 446.189 836.814 445.73 837.253 445.189L842.53 438.595V442.216C842.53 442.865 842.667 443.486 842.915 444.054C843.272 444.919 843.876 445.622 844.646 446.135C845.415 446.649 846.35 446.946 847.339 446.946C848.081 446.946 848.823 446.784 849.455 446.459C850.087 446.162 850.637 445.703 851.076 445.162L856.353 438.568V442.189C856.353 442.838 856.49 443.459 856.737 444.027C857.095 444.892 857.699 445.595 858.469 446.108C859.238 446.622 860.173 446.919 861.162 446.919C861.904 446.919 862.646 446.757 863.278 446.432C863.91 446.135 864.46 445.676 864.899 445.135L868.966 440.054C869.049 440.27 869.131 440.486 869.214 440.703C870.011 442.514 871.302 444.054 872.951 445.162C874.6 446.243 876.579 446.892 878.695 446.892C880.124 446.892 881.47 446.595 882.707 446.108C884.548 445.324 886.114 444.054 887.241 442.432C888.34 440.811 889 438.865 889 436.784C889 435.378 888.725 434.054 888.176 432.838M809.195 442.378C806.118 442.378 803.644 439.946 803.644 436.919C803.644 433.892 806.118 431.459 809.195 431.459C812.273 431.459 814.747 433.892 814.747 436.919C814.747 439.946 812.273 442.378 809.195 442.378ZM856.325 431.189L847.366 442.297H847.311C847.256 442.297 847.229 442.27 847.229 442.216V427.459H856.353V431.189H856.325ZM878.832 442.378C875.754 442.378 873.281 439.946 873.281 436.919C873.281 433.892 875.754 431.459 878.832 431.459C881.91 431.459 884.383 433.892 884.383 436.919C884.383 439.946 881.91 442.378 878.832 442.378Z" fill="#49176D"/>
<path d="M1444.94 125.369L1378.54 102C1378.54 102 1352.44 119.402 1317.5 119.706C1282.56 119.402 1256.46 102 1256.46 102L1190.06 125.369L1145 147.108L1180.02 240.942L1198.92 241.743C1211.39 298.121 1199.34 483 1199.34 483H1435.66C1435.66 483 1423.6 298.149 1436.08 241.743L1454.98 240.942L1490 147.108L1444.94 125.369Z" fill="#009FC2"/>
<path d="M1251 105C1251 105 1273.54 126 1316.84 126H1319.16C1362.46 126 1385 105 1385 105" stroke="white" stroke-width="2"/>
<path d="M1191 125C1191 125 1225.1 158.373 1199.43 242" stroke="white" stroke-width="2"/>
<path d="M1159 141L1196 242" stroke="white" stroke-width="2"/>
<path d="M1190 241L1153 143" stroke="white" stroke-width="2"/>
<path d="M1384.7 103.677V103.342L1379.02 101C1379.02 101 1378.72 101.641 1378.08 102.84C1377.44 104.039 1376.45 105.824 1375.15 107.943C1372.55 112.182 1368.59 117.814 1363.39 123.447C1353.06 134.545 1337.95 145.336 1317.97 145.67C1297.99 145.336 1282.88 134.545 1272.56 123.447C1267.33 117.814 1263.4 112.182 1260.8 107.943C1259.5 105.824 1258.5 104.067 1257.86 102.84C1257.23 101.613 1256.92 101 1256.92 101L1251.25 103.342V103.677L1251 103.426C1251.08 103.621 1256.84 115.723 1267.99 127.741C1278.79 139.396 1295.17 151.275 1317.06 151.944V152C1317.36 152 1317.7 151.972 1318 151.972C1318.3 151.972 1318.61 152 1318.94 152V151.944C1340.8 151.275 1357.19 139.396 1368.01 127.741C1379.16 115.723 1384.89 103.621 1385 103.426L1384.75 103.677H1384.7Z" fill="#009FC2"/>
<path d="M1384.7 103.677V103.342L1379.02 101C1379.02 101 1378.72 101.641 1378.08 102.84C1377.44 104.039 1376.45 105.824 1375.15 107.943C1372.55 112.182 1368.59 117.814 1363.39 123.447C1353.06 134.545 1337.95 145.336 1317.97 145.67C1297.99 145.336 1282.88 134.545 1272.56 123.447C1267.33 117.814 1263.4 112.182 1260.8 107.943C1259.5 105.824 1258.5 104.067 1257.86 102.84C1257.23 101.613 1256.92 101 1256.92 101L1251.25 103.342V103.677L1251 103.426C1251.08 103.621 1256.84 115.723 1267.99 127.741C1278.79 139.396 1295.17 151.275 1317.06 151.944V152C1317.36 152 1317.7 151.972 1318 151.972C1318.3 151.972 1318.61 152 1318.94 152V151.944C1340.8 151.275 1357.19 139.396 1368.01 127.741C1379.16 115.723 1384.89 103.621 1385 103.426L1384.75 103.677H1384.7Z" stroke="white" stroke-width="2"/>
<path d="M1445 125C1445 125 1409.01 158.373 1436.1 242" stroke="white" stroke-width="2"/>
<path d="M1477 141L1438 242" stroke="white" stroke-width="2"/>
<path d="M1445 241L1483 143" stroke="white" stroke-width="2"/>
<path d="M1435 475H1316.66H1200" stroke="white" stroke-width="2"/>
<path d="M1435 469H1316.52H1200" stroke="white" stroke-width="2"/>
<path d="M1343.5 172C1334.95 172 1328 179.107 1328 187.83V230.387C1328 230.721 1328.27 231 1328.6 231C1328.76 231 1328.9 230.916 1329.04 230.833L1358.54 192.763C1358.81 192.401 1359 191.955 1359 191.453V187.858C1359 179.107 1352.08 172.028 1343.5 172.028" fill="#F9D445"/>
<path d="M1385.01 172C1376.18 172 1369 179.107 1369 187.83V230.387C1369 230.721 1369.28 231 1369.62 231C1369.79 231 1369.93 230.916 1370.04 230.833L1400.52 192.763C1400.83 192.401 1401 191.955 1401 191.453V187.858C1401 179.107 1393.85 172.028 1384.99 172.028" fill="#F9D445"/>
<path d="M1890.81 125.369L1824.22 102C1824.22 102 1798.04 111.944 1763 112.248C1727.96 111.944 1701.78 102 1701.78 102L1635.19 125.369L1590 147.108L1625.12 240.942L1644.08 241.743C1656.59 298.121 1644.49 483 1644.49 483H1881.51C1881.51 483 1869.41 298.149 1881.92 241.743L1900.88 240.942L1936 147.108L1890.81 125.369Z" fill="#009FC2"/>
<path d="M1696 105C1696 105 1718.54 119 1761.84 119H1764.16C1807.46 119 1830 105 1830 105" stroke="white" stroke-width="2"/>
<path d="M1636 125C1636 125 1671.99 158.373 1644.9 242" stroke="white" stroke-width="2"/>
<path d="M1604 141L1641 242" stroke="white" stroke-width="2"/>
<path d="M1635 241L1598 143" stroke="white" stroke-width="2"/>
<path d="M1890 125C1890 125 1855.9 158.373 1881.57 242" stroke="white" stroke-width="2"/>
<path d="M1922 141L1884 242" stroke="white" stroke-width="2"/>
<path d="M1891 241L1928 143" stroke="white" stroke-width="2"/>
<path d="M1881 475H1762.14H1645" stroke="white" stroke-width="2"/>
<path d="M1881 469H1762.52H1646" stroke="white" stroke-width="2"/>
<path d="M1851.51 421C1850.13 421 1849 422.083 1849 423.417V429.889C1849 429.889 1849.06 430 1849.09 430C1849.09 430 1849.14 430 1849.14 429.972L1853.91 424.167C1853.91 424.167 1854 424.056 1854 423.972V423.417C1854 422.083 1852.87 421 1851.49 421" fill="#F9D445"/>
<path d="M1858.02 421C1856.35 421 1855 422.083 1855 423.417V429.889C1855 429.889 1855.07 430 1855.1 430C1855.14 430 1855.17 430 1855.17 429.972L1860.9 424.167C1860.9 424.167 1861 424.056 1861 423.972V423.417C1861 422.083 1859.65 421 1857.98 421" fill="#F9D445"/>
<path d="M1795.43 432.676C1796.84 432.676 1798.01 431.541 1798.01 430.162C1798.01 428.784 1796.87 427.649 1795.43 427.649C1793.98 427.649 1792.84 428.757 1792.84 430.162C1792.84 431.568 1793.98 432.676 1795.43 432.676ZM1853.14 437.973C1852.36 436.162 1851.03 434.622 1849.39 433.514C1847.72 432.432 1845.72 431.784 1843.55 431.784C1842.14 431.784 1840.75 432.081 1839.5 432.595C1837.91 433.243 1836.52 434.27 1835.47 435.541C1835.47 435.541 1835.41 435.649 1835.36 435.676L1825.91 447.297C1825.91 447.297 1825.88 447.297 1825.85 447.297C1825.8 447.297 1825.77 447.27 1825.77 447.216V432.459H1830.3C1831.6 432.459 1832.69 431.405 1832.69 430.135C1832.69 428.865 1831.6 427.811 1830.3 427.811H1825.77V418.459C1825.77 418.459 1825.74 418.378 1825.69 418.378H1825.63L1821.07 423.973C1821.07 423.973 1821.02 424.108 1821.02 424.162V427.784H1811.79V418.432C1811.79 418.432 1811.76 418.351 1811.71 418.351H1811.65L1807.1 423.946C1807.1 423.946 1807.01 424.081 1807.01 424.135V427.757H1802.48C1801.18 427.757 1800.09 428.811 1800.09 430.081C1800.09 431.351 1801.18 432.405 1802.48 432.405H1807.01V436.135L1797.96 447.243C1797.96 447.243 1797.93 447.243 1797.9 447.243C1797.84 447.243 1797.82 447.216 1797.82 447.162V436.919C1797.82 435.919 1797.18 435.027 1796.2 434.73C1795.23 434.405 1794.18 434.703 1793.54 435.486L1783.95 447.243C1783.95 447.243 1783.92 447.243 1783.9 447.243C1783.84 447.243 1783.81 447.216 1783.81 447.162V419.324C1783.81 418.027 1782.73 417 1781.42 417C1780.12 417 1779.03 418.054 1779.03 419.324V433.324C1777.42 432.324 1775.48 431.73 1773.42 431.73C1771.97 431.73 1770.61 432.027 1769.36 432.541C1767.5 433.297 1765.92 434.595 1764.78 436.189C1763.67 437.811 1763 439.757 1763 441.865C1763 443.243 1763.28 444.595 1763.81 445.811C1764.61 447.622 1765.92 449.162 1767.58 450.27C1769.25 451.351 1771.25 452 1773.39 452C1774.81 452 1776.2 451.703 1777.45 451.216C1778.31 450.865 1779.09 450.405 1779.81 449.865C1780.17 450.405 1780.62 450.838 1781.17 451.189C1781.95 451.703 1782.9 452 1783.9 452C1784.65 452 1785.4 451.838 1786.03 451.513C1786.67 451.216 1787.23 450.757 1787.7 450.216L1793.04 443.649V447.27C1793.04 447.919 1793.18 448.541 1793.43 449.108C1793.79 449.973 1794.4 450.676 1795.18 451.189C1795.95 451.703 1796.9 452 1797.9 452C1798.65 452 1799.4 451.838 1800.04 451.513C1800.68 451.216 1801.23 450.757 1801.68 450.216L1807.01 443.649V447.27C1807.01 447.919 1807.15 448.541 1807.4 449.108C1807.76 449.973 1808.37 450.676 1809.15 451.189C1809.93 451.703 1810.88 452 1811.88 452C1812.63 452 1813.38 451.838 1814.02 451.513C1814.65 451.216 1815.21 450.757 1815.65 450.216L1820.99 443.649V447.27C1820.99 447.919 1821.13 448.541 1821.38 449.108C1821.74 449.973 1822.35 450.676 1823.13 451.189C1823.91 451.703 1824.85 452 1825.85 452C1826.6 452 1827.35 451.838 1827.99 451.513C1828.63 451.216 1829.19 450.757 1829.63 450.216L1833.74 445.135C1833.83 445.351 1833.91 445.568 1833.99 445.784C1834.8 447.595 1836.11 449.135 1837.77 450.243C1839.44 451.324 1841.44 451.973 1843.58 451.973C1845.03 451.973 1846.39 451.676 1847.64 451.189C1849.5 450.405 1851.08 449.135 1852.22 447.514C1853.33 445.892 1854 443.946 1854 441.838C1854 440.432 1853.72 439.108 1853.17 437.892M1773.28 447.378C1770.17 447.378 1767.67 444.946 1767.67 441.919C1767.67 438.892 1770.17 436.459 1773.28 436.459C1776.39 436.459 1778.89 438.892 1778.89 441.919C1778.89 444.946 1776.39 447.378 1773.28 447.378ZM1820.93 436.189L1811.88 447.297H1811.82C1811.76 447.297 1811.74 447.27 1811.74 447.216V432.459H1820.96V436.189H1820.93ZM1843.69 447.378C1840.58 447.378 1838.08 444.946 1838.08 441.919C1838.08 438.892 1840.61 436.459 1843.69 436.459C1846.78 436.459 1849.3 438.892 1849.3 441.919C1849.3 444.946 1846.78 447.378 1843.69 447.378Z" fill="#49176D"/>
<path fill-rule="evenodd" clip-rule="evenodd" d="M714.663 801.696C715.436 751.694 698.408 713.46 658.724 681.221C651.107 675.668 642.414 670.585 634.107 665.557C633.196 665.64 632.976 664.867 631.872 665.115C631.623 664.038 630.547 664.01 629.636 663.762C629.912 662.823 628.477 663.789 628.753 662.85C627.815 663.071 627.898 662.187 626.959 662.408C627.291 661.662 625.938 662.049 625.607 661.966C625.442 661.386 624.945 660.861 624.255 661.082C622.323 659.839 619.646 659.038 617.107 658.375C611.864 655.253 604.523 653.071 597.872 650.75C598.341 649.59 595.168 651.026 595.637 649.866C593.733 649.866 593.125 648.54 590.725 648.982C591.111 648.236 589.676 648.623 589.372 648.54C589.676 647.932 588.765 648.098 588.489 648.098C588.958 647.242 586.502 647.794 586.254 647.656C586.64 646.91 585.177 647.297 584.902 647.214C583.687 645.971 580.127 645.999 578.195 645.418C578.637 644.617 576.678 645.087 576.402 644.976C576.926 644.037 573.504 644.728 573.256 644.534C573.642 643.816 572.179 644.175 571.903 644.092C572.29 643.346 570.827 643.733 570.551 643.65C571.075 642.711 567.653 643.402 567.405 643.208C567.791 642.49 566.329 642.849 566.053 642.766C558.05 640.612 547.728 639.037 538.759 638.319C539.173 638.208 540.36 638.567 540.111 637.849C547.397 636.191 540.332 632.02 537.876 630.224C537.71 630.307 536.579 630.335 536.993 629.782H535.199C535.503 628.843 534.012 629.81 534.316 628.898C526.396 626.633 505.615 628.429 521.511 636.854C446.392 629.064 375.467 639.617 336.555 702.327C336.804 703.57 336.003 703.543 336.114 704.565C335.424 704.482 335.727 705.007 335.672 705.449C334.982 705.338 335.286 705.891 335.231 706.333C333.851 706.885 334.044 710.311 332.112 711.25C332.36 712.549 331.477 713.958 330.76 714.372C330.539 715.366 330.649 717.328 329.408 717.521C329.104 719.124 328.773 721.278 327.614 721.997C327.421 723.212 327.117 725.477 326.261 725.588C326.096 726.859 325.82 729.566 324.909 729.621C325.185 731.113 324.385 731.969 324.468 733.213C323.143 733.903 323.364 737.163 322.674 738.6C321.542 738.185 322.895 740.81 321.791 740.395C320.852 743.904 320.77 748.545 319.114 750.258C318.976 750.617 319.5 752.882 318.672 752.495C318.589 752.91 318.976 754.098 318.231 753.849C318.148 754.263 318.534 755.451 317.789 755.175C311.828 786.668 309.482 827.223 308.517 864.379C307.413 869.186 304.708 876.479 298.996 876.534C297.726 877.998 295.794 879.103 294.083 879.214C293.973 879.545 293.393 880.512 292.731 880.098C293.09 880.761 291.682 880.512 291.379 880.54C290.744 881.977 289.364 882.115 288.26 882.336C287.708 884.131 285.197 882.943 284.673 885.015C284.01 884.546 282.962 885.236 282.879 885.899C282.603 885.789 281.665 885.816 281.996 886.341C281.361 885.872 280.257 886.59 280.202 887.225C277.387 888.275 274.489 890.043 272.585 891.259C270.543 892.308 267.562 893.054 265.879 895.292C265.299 894.795 264.113 895.568 264.085 896.204C262.926 896.287 263.119 896.811 261.85 896.646C261.16 898.635 258.897 897.585 258.262 899.325C255.861 899.85 253.791 901.342 252.439 902.447C251.529 901.895 250.507 903.082 250.204 903.801C249.266 904.077 248.217 904.022 247.968 905.154C239.386 908.497 231.576 914.934 222.91 918.58C219.902 921.592 215.459 922.42 212.617 925.293C209.581 925.901 207.98 928.747 205 929.327C201.357 932.559 196.196 934.327 192.084 938.278C190.484 939.189 188.718 939.907 188 941.869C198.846 950.295 216.397 940.653 229.175 944.549C235.439 946.068 241.566 947.726 247.527 950.82C247.389 951.593 248.41 951.151 248.879 951.262C249.321 953.085 252.025 952.118 252.467 953.941C252.881 954.024 254.123 953.637 253.819 954.383C254.813 954.19 254.785 954.632 255.171 955.267C256.165 955.488 257.738 955.599 258.29 957.063C258.676 957.146 259.946 956.759 259.642 957.505C260.525 957.339 260.691 957.726 260.994 958.417C262.181 958.582 263.34 958.638 263.671 959.77C264.196 959.77 264.72 959.605 264.554 960.212C265.686 960.102 265.962 960.212 266.348 961.124C267.286 960.986 267.424 961.842 268.584 961.566C268.915 963.196 271.04 962.174 271.26 963.362C272.226 963.141 272.723 964.715 273.937 964.246C273.717 965.185 275.069 964.19 274.82 965.157C276.559 965.378 278.298 967.45 280.174 967.395C280.892 968.417 282.713 968.859 284.203 969.191C284.866 970.848 288.15 970.682 288.674 971.87C289.475 972.008 291.075 972.478 291.351 973.224C292.4 973.196 293.669 973.5 294.028 974.578C295.629 974.274 295.794 975.185 297.174 975.02C297.698 975.904 297.947 976.014 298.968 975.904C298.637 976.953 300.651 975.738 300.32 976.815C301.755 977.395 304.736 977.699 305.674 979.053C311.469 980.324 315.388 983.003 320.88 984.44C326.399 987.341 333.05 987.893 337.88 990.711C349.222 993.639 358.578 995.905 370.996 999.662C379.662 1001.13 404.278 1003.14 412.613 1005.05C487.18 1011.26 557.746 986.899 603.668 935.625C606.62 933.83 607.09 931.012 609.353 928.636C624.089 928.802 633.721 927.835 645.726 926.675C645.256 925.708 649.479 926.454 649.755 926.233C649.286 925.432 651.328 925.901 651.549 925.791C652.873 924.161 658.807 925.293 660.048 923.553C664.74 923.719 667.362 921.509 671.694 920.873C685.051 916.591 698.188 911.232 710.634 902.502C713.642 870.512 715.877 836.256 714.663 801.724" fill="#F8B5CB"/>
<path d="M440.023 780.09C425.631 778.907 412.992 789.479 411.795 803.712L406.005 872.899C405.949 873.449 406.367 873.945 406.924 874C407.202 874 407.453 873.917 407.647 873.78L462.461 815.936C462.99 815.386 463.324 814.67 463.407 813.871L463.909 808.007C465.106 793.774 454.416 781.302 440.023 780.118" fill="#E40E62"/>
<path d="M509.007 786.09C494.622 784.907 481.989 795.479 480.793 809.712L475.005 878.899C474.949 879.449 475.367 879.945 475.951 880C476.229 880 476.48 879.917 476.674 879.78L531.462 821.936C531.99 821.386 532.352 820.67 532.408 819.871L532.909 814.007C534.105 799.774 523.42 787.302 509.035 786.118" fill="#E40E62"/>
<path d="M355.497 893.094C354.316 892.599 355.607 877.505 355.634 876.459C356.074 861.999 357.008 847.566 358.573 833.217C361.897 802.727 367.473 771.466 377.718 742.464C383.431 726.269 391.314 710.101 401.093 695.972C421.418 666.556 453.967 645.183 489.51 639.895C503.957 637.747 522.69 634.469 536.698 640.226C568.56 653.336 573.642 695.118 575.482 724.809C578.256 769.318 569.275 813.579 563.012 857.427C562.051 864.147 555.871 924.466 549.059 923.997C549.059 923.997 407.19 914.275 355.497 893.067V893.094Z" stroke="white" stroke-width="2"/>
<path d="M355 894C355 894 329.368 884.889 306 870" stroke="white" stroke-width="2"/>
<path d="M549 924C549 924 598.234 929 609 929" stroke="white" stroke-width="2"/>
<path fill-rule="evenodd" clip-rule="evenodd" d="M1739.45 801.873C1740.14 784.516 1737.47 768.818 1734.07 755.275C1732.72 751.765 1731.56 747.923 1730.49 743.639C1729.69 743.75 1730.18 743.169 1730.04 742.755C1728.83 742.561 1729.22 741.345 1729.16 740.516C1728.33 740.792 1728.86 739.521 1728.72 739.189C1727.95 739.3 1728.42 738.72 1728.28 738.277C1727.45 738.554 1727.97 737.282 1727.84 736.923C1727.2 737.172 1727.64 735.707 1726.48 735.596C1726.26 735.127 1726.82 734.546 1726.04 734.684C1718.07 713.541 1699.06 693.392 1679.52 678.219C1678.78 678.412 1678.39 677.97 1678.17 677.307C1677.73 677.307 1677.12 677.5 1677.29 676.865C1676.49 676.644 1675.71 676.422 1675.49 675.51C1674.61 675.87 1674.08 674.736 1673.7 674.156C1668.65 672.332 1664.51 667.965 1659.38 666.528C1659.18 665.92 1658.74 665.422 1658.03 665.643C1658.36 664.897 1657 665.284 1656.67 665.201C1656.67 663.875 1654.33 664.372 1654.44 663.405C1654.11 663.46 1653.31 663.543 1653.56 662.963C1653.22 663.018 1652.42 663.101 1652.67 662.52C1652.34 662.576 1651.54 662.659 1651.79 662.078C1651.04 662.244 1650.13 662.078 1650 661.194C1648.95 660.613 1646.6 660.917 1645.97 659.397C1644.7 659.314 1642.52 659.038 1641.94 658.043C1641.66 658.126 1640.75 658.181 1641.06 657.601C1640.83 657.628 1639.32 657.822 1639.7 657.158C1639.46 657.241 1638.52 657.269 1638.82 656.716C1637.55 656.136 1635.4 655.859 1634.79 654.92C1634.16 654.864 1631.59 654.671 1631.65 653.565C1630.38 653.897 1629.66 652.93 1628.5 653.123C1628.78 652.515 1627.92 652.681 1627.62 652.681C1627.12 651.52 1622.98 651.962 1622.71 650.442C1622.68 650.47 1619.84 650.719 1620.47 650C1620.36 650.083 1618.65 650.194 1619.15 649.558C1618.98 649.668 1617.9 649.641 1618.26 649.116C1618.21 649.06 1614.92 649.503 1615.59 648.673C1615.5 648.756 1613.74 648.867 1614.23 648.231C1614.1 648.342 1612.97 648.314 1613.35 647.789C1613.3 647.734 1610.48 648.148 1611.12 647.347C1611.06 647.43 1609.27 647.54 1609.76 646.905C1609.71 646.987 1607.92 647.098 1608.41 646.462C1606.45 646.158 1603.86 646.241 1603.03 645.108C1602.95 645.108 1600.66 645.412 1601.24 644.666C1597.54 645.108 1596 642.897 1592.3 643.312C1584.65 640.741 1572.98 639.304 1563.68 638.42C1564.1 638.309 1565.28 638.668 1565.01 637.95C1575.38 634.744 1557.75 627.668 1553.83 628.553C1553.36 627.475 1543.1 628.166 1543.1 628.995C1538.16 630.239 1542.44 636.955 1546.38 636.982C1499.36 631.012 1455.41 636.236 1420.06 650.525C1420.14 651.41 1419.62 650.746 1419.15 650.967C1419.12 652.073 1417.22 652.128 1416.47 652.322C1416.09 653.317 1416 653.151 1415.12 653.234C1415.4 654.118 1414.13 653.483 1413.77 653.676C1409.74 656.053 1404.97 658.789 1400.36 661.304C1391.58 667.689 1382.59 675.151 1374.42 684.161C1373.92 686.759 1370.45 688.279 1369.95 690.877C1369.23 691.375 1368.35 691.651 1368.6 692.674C1367.94 693.337 1366.97 693.392 1367.25 694.47C1364.43 696.516 1363.91 700.302 1361.42 702.541C1361.7 703.785 1360.85 703.785 1360.98 704.78C1360.29 704.697 1360.6 705.222 1360.54 705.664C1359.6 705.415 1360.6 706.825 1359.66 706.548C1359.88 707.543 1359 707.322 1359.22 708.345C1358.36 708.898 1356.82 712.131 1356.98 713.265C1355.6 713.679 1355.46 715.863 1355.19 717.3C1353.42 719.207 1352.79 722.219 1352.04 724.928C1351.16 724.817 1350.86 727.885 1350.69 728.963C1349.75 728.714 1350.75 730.124 1349.81 729.848C1350.08 731.34 1349.28 732.197 1349.37 733.441C1348.43 733.164 1349.42 734.601 1348.48 734.325C1348.21 735.956 1348.32 738.333 1347.13 738.802C1346.69 740.599 1346.55 744.164 1345.34 745.519C1345.17 745.905 1345.78 748.614 1344.9 748.199C1345.17 749.388 1344.32 749.471 1344.45 750.438C1343.6 749.968 1344.15 752.428 1344.01 752.677C1342.96 752.318 1344.18 754.363 1343.13 754.031C1343.05 754.446 1343.43 755.634 1342.69 755.386C1342.94 757.845 1341.7 760.499 1341.78 761.659C1340.92 761.19 1341.47 763.649 1341.34 763.898C1340.4 763.29 1341.09 767.298 1340.9 767.491C1337.58 782.222 1336.51 805.494 1335.07 823.044C1333.42 839.406 1336.07 857.344 1330.6 873.236C1327.82 876.166 1323.62 876.276 1321.22 879.068C1320.92 878.985 1320.01 878.985 1320.34 879.51C1319.65 879.068 1318.63 879.731 1318.54 880.394C1318.27 880.284 1317.36 880.311 1317.66 880.837C1315.9 880.284 1315.84 882.716 1314.07 882.191C1314.35 882.661 1313.49 882.744 1313.19 882.633C1312.64 884.429 1310.13 883.241 1309.6 885.314C1307.73 885.01 1307.42 887.055 1305.58 886.641C1304.17 888.907 1300.28 888.852 1298.87 891.118C1298.65 891.118 1297.08 890.869 1297.52 891.56C1296.94 891.09 1296.28 892.03 1296.17 892.445C1294.4 892.914 1291.94 893.771 1290.79 895.568C1290.21 895.07 1289.02 895.844 1288.99 896.452C1288.72 896.397 1287.78 896.342 1288.11 896.894C1287.12 896.342 1286.26 897.475 1285.87 898.249C1285.65 898.249 1284.08 898 1284.52 898.691C1282.48 898.884 1280.82 901.317 1278.7 901.372L1278.26 902.256H1277.38C1277.76 902.892 1276.3 902.671 1276.02 902.699C1274.84 904.495 1272.68 905.379 1270.67 905.849C1270.23 906.761 1269.54 907.508 1268.43 907.204V907.646C1267.83 907.286 1267.19 908.005 1267.08 908.53C1266.2 907.95 1265.12 909.194 1264.85 909.884C1264.41 909.553 1262.47 910.603 1262.61 911.239C1258.56 912.759 1254.64 914.804 1251.44 917.513C1250.58 916.905 1249.45 918.176 1249.2 918.867C1248.54 918.867 1247.55 918.867 1247.41 919.751C1243.57 920.774 1241.67 923.814 1238.03 924.671C1237.28 926.495 1234.66 925.86 1234 927.794H1233.12C1233.5 928.264 1232.48 928.347 1232.23 928.236C1227.68 931.995 1222.05 933.958 1217.08 938.546C1216.97 938.684 1216.04 939.237 1215.68 938.988L1214.79 940.342C1213.74 940.259 1213.47 941.005 1213 942.139C1218.9 948.247 1231.98 944.847 1239.41 943.935C1252.9 943.99 1264.71 946.036 1274.28 952.448C1275.36 952.973 1277.07 952.862 1277.43 954.244C1277.84 954.327 1279.09 953.94 1278.78 954.686C1279.78 954.493 1279.75 954.935 1280.13 955.571C1280.66 955.571 1281.16 955.405 1281.02 956.013C1282.84 955.488 1282.78 957.865 1284.6 957.34C1284.6 957.975 1284.99 957.754 1285.49 957.782L1285.93 958.694C1287.14 958.887 1288.27 958.915 1288.61 960.048H1289.49C1289.35 960.822 1290.4 960.38 1290.84 960.49L1291.28 961.375C1291.81 961.375 1292.3 961.209 1292.17 961.817C1293.3 961.707 1293.57 961.817 1293.96 962.729C1296.33 962.674 1296.8 964.581 1298.87 964.526C1298.65 965.465 1300 964.47 1299.75 965.41C1300.58 965.272 1300.91 965.576 1301.11 966.295C1302.1 966.488 1303.62 966.488 1303.78 967.649C1304.17 967.732 1305.44 967.345 1305.13 968.091C1306.62 968.782 1308.78 968.837 1309.6 970.33C1312.28 971.131 1314.54 972.043 1316.31 973.453C1316.7 973.536 1317.99 973.149 1317.66 973.895C1318.82 973.674 1318.49 974.172 1319.01 974.807C1319.32 974.945 1321.25 974.393 1320.81 975.249C1322.21 975.222 1322.08 975.111 1322.6 976.134C1323.84 975.913 1324.06 976.825 1325.28 976.576C1325.22 977.184 1325.69 977.018 1326.16 977.018C1325.55 977.82 1328.7 977.709 1328.84 977.903C1329.14 979.008 1332.01 979.423 1333.31 979.699C1333.09 980.639 1334.44 979.672 1334.19 980.584C1335.87 980.805 1337.97 981.302 1338.66 982.38C1339.79 982.325 1340.56 982.187 1340.9 983.265C1341.34 983.32 1342.52 982.961 1342.25 983.707C1343.38 983.707 1345.42 984.094 1345.83 985.061C1350.06 986.194 1354.5 987.41 1357.48 989.096C1357.89 989.152 1359.13 988.82 1358.83 989.539C1360.24 989.456 1362.31 989.815 1362.86 990.865C1366.75 991.639 1370.92 992.524 1373.59 993.988C1373.84 994.154 1376.35 993.518 1375.83 994.43C1376.21 994.486 1377.48 994.154 1377.18 994.873C1412.75 1004.08 1455.68 1008.77 1494.84 1004.27C1499.64 1002.53 1506.1 1002.94 1509.16 1001.15C1513.19 1001.59 1515.15 999.488 1519.01 999.792C1518.65 998.991 1520.06 999.488 1520.36 999.35C1520 998.549 1521.41 999.046 1521.71 998.908C1524.09 997.72 1528.12 996.752 1531.57 996.227C1531.57 995.315 1534.05 995.26 1535.15 995.343C1534.74 994.652 1536.67 994.624 1536.95 994.43C1537.5 993.463 1540.06 993.629 1540.97 993.076C1543.21 991.473 1547.49 991.611 1549.47 989.483C1549.47 989.207 1551.87 989.953 1551.27 989.041C1551.85 989.152 1552.51 988.848 1552.62 988.157C1552.62 987.88 1555.02 988.626 1554.41 987.714C1554.27 987.355 1557.83 987.162 1557.09 986.36C1557.67 986.36 1558.86 986.443 1558.88 985.448C1558.94 985.282 1560.21 985.752 1559.77 985.006C1560.32 984.923 1562.06 985.282 1562 984.121C1563.3 983.762 1565.15 983.652 1565.59 982.325H1566.94C1566.58 981.634 1567.57 981.966 1567.82 981.883C1567.82 981.164 1568.6 980.86 1569.17 980.998C1568.79 980.224 1570.25 980.667 1570.53 980.556C1571.22 978.953 1574.09 979.257 1574.56 977.875C1575.49 978.096 1575.38 977.212 1576.35 977.433C1575.99 976.742 1576.98 977.074 1577.23 976.991C1578.06 976.3 1579.66 975.084 1580.38 975.194C1580.57 973.978 1581.95 974.614 1582.17 973.398C1582.67 973.453 1583.99 973.453 1583.97 972.486C1585.98 971.822 1588.02 970.523 1589.35 968.893C1591.17 969.307 1591.44 966.986 1593.37 967.096C1593.84 965.687 1595.55 965.825 1596.05 964.415C1597.84 964.194 1599.14 961.817 1600.96 961.734C1601.76 960.076 1603.58 959.993 1604.55 958.141C1606.12 958.583 1606.09 955.902 1607.67 956.345C1607.83 955.488 1608.83 955.405 1609.02 954.548C1617.27 948.855 1626.43 939.762 1632.28 931.332C1641.94 925.058 1655.85 930.309 1665.39 927.214C1665.45 927.02 1668.76 927.711 1668.07 926.772C1668.12 926.578 1671.44 927.269 1670.75 926.329H1674.77C1674.31 925.528 1676.32 925.998 1676.57 925.887C1678.25 924.533 1682.69 924.837 1685.07 924.091C1684.6 923.151 1687.91 923.842 1688.19 923.648C1687.72 922.847 1689.76 923.317 1689.98 923.206C1689.68 922.267 1691.19 923.261 1690.86 922.322C1692.57 922.184 1693.73 921.437 1695.77 921.437C1696.3 920.277 1698.56 920.387 1700.24 920.083C1699.91 919.143 1701.46 920.111 1701.13 919.199C1706.31 918.839 1710.29 915.163 1715.45 914.279C1715.14 913.45 1716.8 913.229 1717.24 913.395C1717.02 912.289 1719.26 913.146 1719.03 912.04C1719.26 912.04 1720.28 912.178 1719.92 911.598H1721.27L1721.71 910.714C1721.79 910.548 1725.33 909.94 1724.86 908.917C1728.97 907.977 1731.87 904.633 1735.59 902.643C1736.72 897.281 1736 888.741 1737.38 884.264C1738.98 857.952 1740.81 829.484 1739.62 801.818" fill="#009FC2"/>
<path d="M1464.99 780.09C1450.61 778.907 1437.99 789.479 1436.79 803.712L1431 872.899C1430.95 873.449 1431.37 873.945 1431.95 874C1432.23 874 1432.48 873.917 1432.7 873.78L1487.46 815.936C1487.99 815.386 1488.32 814.67 1488.41 813.871L1488.91 808.007C1490.1 793.774 1479.42 781.302 1465.05 780.118" fill="#F9D445"/>
<path d="M1535.01 786.09C1520.62 784.907 1507.99 795.479 1506.79 809.712L1501 878.899C1500.95 879.449 1501.37 879.945 1501.95 880C1502.23 880 1502.48 879.917 1502.67 879.78L1557.46 821.936C1557.99 821.386 1558.35 820.67 1558.41 819.871L1558.91 814.007C1560.11 799.774 1549.42 787.302 1535.03 786.118" fill="#F9D445"/>
<path d="M1379.5 893.094C1378.31 892.599 1379.61 877.505 1379.64 876.459C1380.08 861.999 1381.03 847.566 1382.61 833.217C1385.96 802.727 1391.58 771.466 1401.92 742.464C1407.68 726.269 1415.64 710.101 1425.53 695.972C1446.04 666.556 1478.88 645.183 1514.74 639.895C1529.31 637.747 1548.21 634.469 1562.35 640.226C1594.47 653.336 1599.62 695.118 1601.48 724.809C1604.28 769.318 1595.21 813.579 1588.9 857.427C1587.93 864.147 1581.69 924.466 1574.82 923.997C1574.82 923.997 1431.68 914.275 1379.53 893.067L1379.5 893.094Z" stroke="white" stroke-width="2"/>
<path d="M1380 894C1380 894 1354.89 884.889 1332 870" stroke="white" stroke-width="2"/>
<path d="M1574 924C1574 924 1624.05 929 1635 929" stroke="white" stroke-width="2"/>
</svg>
