<svg width="421" height="81" viewBox="0 0 421 81" fill="none" xmlns="http://www.w3.org/2000/svg">
<path d="M16.9205 36.2735L11.0715 50.8126L16.8788 53.4447V55.5336H0V53.4447L5.72374 50.8126L26.0284 4.60492H29.7885L47.8371 50.8126L53.5608 53.4447V55.5336H31.8357V53.4447L37.5594 50.8126L32.3788 36.2317L16.9623 36.3153L16.9205 36.2735ZM18.2157 32.6805H31.1672L27.24 21.8597C26.5715 20.1467 25.7359 17.1804 25.3599 15.3839L18.2157 32.6805ZM66.9301 55.4501V67.7749L74.7428 70.1981V72.3706H51.5554V70.1981L57.9476 67.7749V24.7842L51.4719 22.8206V20.7734L66.8883 18.0578V22.6535C72.069 19.9379 76.3722 18.4338 79.2132 18.4338C86.9423 18.4338 92.6661 25.7451 92.6661 35.605C92.6661 47.4285 83.8507 56.2857 72.1107 56.2857C70.1471 56.2857 68.7266 56.0768 66.8466 55.4501H66.9301ZM66.9301 52.2331C68.2253 52.5256 68.6431 52.5256 69.9382 52.5256C78.294 52.5256 83.0151 46.8854 83.0151 37.0255C83.0151 28.0012 79.7981 23.8651 72.6956 23.8651C71.0245 23.8651 69.98 24.0322 66.8883 24.5336V52.2331H66.9301ZM109.963 55.4501V67.7749L117.775 70.1981V72.3706H94.5879V70.1981L100.98 67.7749V24.7842L94.5043 22.8206V20.7734L109.921 18.0578V22.6535C115.101 19.9379 119.405 18.4338 122.246 18.4338C129.975 18.4338 135.699 25.7451 135.699 35.605C135.699 47.4285 126.883 56.2857 115.143 56.2857C113.18 56.2857 111.759 56.0768 109.879 55.4501H109.963ZM109.963 52.2331C111.258 52.5256 111.676 52.5256 112.971 52.5256C121.327 52.5256 126.048 46.8854 126.048 37.0255C126.048 28.0012 122.831 23.8651 115.728 23.8651C114.057 23.8651 113.012 24.0322 109.921 24.5336V52.2331H109.963ZM143.469 50.8126V9.28418L136.785 7.48768V5.39872L152.494 2.39062V50.8544L159.178 53.4865V55.5754H137.119V53.4865L143.428 50.8544L143.469 50.8126ZM168.453 50.8126V24.7007L162.061 22.8206V20.7734L177.77 17.9742V50.7708L184.162 53.4029V55.4919H162.061V53.4029L168.453 50.7708V50.8126ZM167.325 7.61301C167.325 4.81381 169.038 3.47688 172.757 3.47688C176.809 3.47688 178.564 4.68848 178.564 7.4459C178.564 10.454 176.976 11.7491 173.091 11.7491C168.955 11.7491 167.367 10.6211 167.367 7.61301H167.325ZM216.499 28.5861H210.191L206.723 21.6508H206.138C199.579 21.6508 194.774 27.8759 194.774 36.3988C194.774 46.008 199.871 51.3557 208.979 51.3557C210.943 51.3557 212.656 51.1468 215.371 50.6037L216.207 50.3948L216.75 53.3194C210.274 55.3665 205.846 56.1603 202.294 56.1603C192.142 56.1603 185.081 48.849 185.081 38.3207C185.081 26.3718 193.354 18.392 205.679 18.392C208.896 18.392 212.154 18.9351 216.499 20.0632V28.5861ZM232.292 21.6926L228.824 28.6279H222.139V21.4001C228.699 19.4365 233.587 18.4756 237.18 18.4756C240.481 18.4756 242.987 19.0187 244.993 20.1467C247.834 21.8179 248.669 23.3637 248.669 27.5834V48.8072C248.669 49.6428 249.421 50.2277 251.092 50.6873L255.061 51.6482V53.7371L254.309 53.946L251.009 54.907C249.296 55.4501 248.168 55.7425 247.708 55.8261C246.664 56.1186 245.619 56.2857 244.533 56.2857C242.068 56.2857 240.857 55.2412 239.937 52.2331C235.634 54.7816 231.665 56.2857 228.949 56.2857C223.226 56.2857 219.09 52.3167 219.09 46.8854C219.09 42.2897 221.555 39.198 226.234 38.0282C229.534 37.1926 233.545 36.6077 239.687 36.0646V27.2492C239.687 23.0295 238.35 21.5255 234.506 21.5255C234.214 21.5255 233.921 21.5255 232.793 21.609C232.626 21.609 232.501 21.6926 232.25 21.6926H232.292ZM239.77 38.5296L238.809 38.6967L235.425 39.4487C229.952 40.5767 228.49 41.8719 228.49 45.2978C228.49 48.7237 230.955 51.0215 234.799 51.0215C236.303 51.0215 238.016 50.7291 239.77 50.1859V38.5296ZM260.033 22.5699H254.393V20.0214L255.229 19.729C261.412 17.64 261.83 17.3058 264.253 13.5039C265.297 11.8327 265.757 11.0807 266.425 9.53485H269.35V18.8516H280.923V22.6117H269.35V45.0471C269.35 50.1024 270.854 51.6064 276.035 51.6064C276.87 51.6064 277.622 51.6064 278.291 51.4393L280.923 51.0633L281.591 53.9878L280.756 54.1967L276.828 55.1576C274.113 55.8261 271.021 56.2021 268.849 56.2021C262.749 56.2021 259.991 53.3611 259.991 47.1778V22.5699H260.033ZM290.824 50.8126V24.7007L284.432 22.8206V20.7734L300.141 17.9742V50.7708L306.533 53.4029V55.4919H284.432V53.4029L290.824 50.7708V50.8126ZM289.696 7.61301C289.696 4.81381 291.409 3.47688 295.128 3.47688C299.18 3.47688 300.935 4.68848 300.935 7.4459C300.935 10.454 299.347 11.7491 295.462 11.7491C291.326 11.7491 289.738 10.6211 289.738 7.61301H289.696ZM307.411 38.3207C307.411 26.4554 315.307 18.4756 327.047 18.4756C338.787 18.4756 345.931 25.7869 345.931 36.9837C345.931 48.1805 338.035 56.7035 326.295 56.7035C314.555 56.7035 307.411 49.3503 307.411 38.3624V38.3207ZM317.521 36.733C317.521 46.8854 320.989 52.9016 326.754 52.9016C332.52 52.9016 335.862 47.4703 335.862 38.1535C335.862 28.0848 332.311 21.8179 326.629 21.8179C320.947 21.8179 317.521 27.291 317.521 36.733ZM363.311 24.7007V50.8126L368.951 53.4447V55.5336H347.978V53.4447L354.37 50.8126V24.7007L347.978 22.9042V20.857L363.311 18.0578V22.2775L364.063 21.985L367.74 20.6481C369.912 19.8125 371.333 19.3112 371.959 19.144C373.171 18.768 374.591 18.5591 376.263 18.5591C379.48 18.5591 381.527 19.5201 383.323 21.7344C385.287 24.1993 385.788 26.0794 385.788 31.1346V50.8544L392.097 53.4865V55.5754H371.918V53.4865L376.722 50.8544V33.4743C376.722 26.2465 375.009 24.1575 369.202 24.1575C367.029 24.1575 365.818 24.3247 363.269 24.7424L363.311 24.7007ZM395.857 54.2385V45.4231H400.912L404.463 52.4838C405.383 52.5673 405.759 52.5673 406.135 52.5673C410.647 52.5673 413.112 50.7708 413.112 47.3867C413.112 44.9635 412.527 44.2115 408.683 41.9554L402.458 38.1953C397.654 35.3543 395.899 32.8476 395.899 28.795C395.899 22.8624 400.996 18.4338 408.015 18.4338C409.059 18.4338 410.814 18.6009 412.527 18.8098C413.947 18.9769 415.075 19.1858 415.911 19.3529L419.003 20.0214L419.838 20.1885V28.2519H414.867L411.566 21.9432C411.19 21.8597 411.023 21.8597 410.73 21.8597C406.427 21.8597 404.129 23.4473 404.129 26.4554C404.129 28.6279 404.965 29.6306 408.265 31.5107L414.867 35.1872C418.919 37.5269 420.966 40.7438 420.966 44.9635C420.966 51.6482 415.535 56.3275 407.889 56.3275C406.009 56.3275 403.753 56.035 400.453 55.283L397.069 54.5309L395.941 54.3221L395.857 54.2385Z" fill="#E7AEC6"/>
</svg>
