<svg width="471" height="81" viewBox="0 0 471 81" fill="none" xmlns="http://www.w3.org/2000/svg">
<path d="M6.30459 13.3819L0 10.7514V8.66384H23.089C28.809 8.66384 32.1074 9.62416 35.0301 12.2128C37.577 14.4674 38.8713 17.2648 38.8713 20.6467C38.8713 27.4941 34.0698 31.7527 24.8843 32.8801C35.4059 33.2558 41.1259 37.6816 41.1259 45.4893C41.1259 49.6228 39.08 53.5474 35.8651 55.7185C32.4832 57.9731 28.7255 58.8082 21.7946 58.8082H0V56.7206L6.30459 54.0902V13.3819ZM16.0746 31.5023H19.1642C25.1766 31.5023 28.7673 27.7446 28.7673 21.5652C28.7673 15.3859 25.3018 12.004 19.206 12.004H16.0328V31.4605L16.0746 31.5023ZM16.0746 55.3845H19.4565C23.757 55.3845 25.7611 54.7999 27.8905 52.9628C29.9781 51.084 31.0636 48.6207 31.0636 45.364C31.0636 38.6837 26.8467 34.8424 19.5818 34.8424H16.1163V55.3845H16.0746ZM58.8288 54.0484L66.72 56.6788V58.7665H43.5058V56.6788L49.8939 54.0484V27.9533L43.5058 25.991V23.9452L58.8288 21.2313V25.9075L59.6639 25.4482C65.4674 22.275 67.9308 21.3147 70.2689 21.3147C71.6885 21.3147 73.1916 21.774 74.9452 22.6508V31.8362H67.2628L65.2169 27.1184C64.4654 27.0349 63.8808 26.9513 63.5051 26.9513C62.3778 26.9513 60.4154 27.4105 58.8288 27.9115V54.0484ZM89.1409 24.9472L85.6755 31.878H78.9951V24.6549C85.5502 22.6925 90.4352 21.7323 94.0259 21.7323C97.3243 21.7323 99.8295 22.275 101.834 23.4024C104.673 25.0724 105.508 26.6173 105.508 30.8342V52.0443C105.508 52.8793 106.259 53.4639 107.929 53.9232L111.896 54.8835V56.9711L111.144 57.1798L107.846 58.1402C106.134 58.683 105.007 58.9752 104.547 59.0587C103.504 59.351 102.46 59.518 101.374 59.518C98.9109 59.518 97.7001 58.4741 96.7815 55.468C92.4811 58.0149 88.5146 59.518 85.8007 59.518C80.0807 59.518 75.9472 55.5515 75.9472 50.1237C75.9472 45.531 78.4106 42.4413 83.0868 41.2723C86.3853 40.4372 90.3935 39.8527 96.531 39.3099V30.5003C96.531 26.2833 95.195 24.7801 91.3538 24.7801C91.0615 24.7801 90.7692 24.7802 89.6419 24.8637C89.4749 24.8637 89.3497 24.9472 89.0992 24.9472H89.1409ZM96.5728 41.7733L95.6125 41.9403L92.2306 42.6918C86.761 43.8191 85.2997 45.1134 85.2997 48.5371C85.2997 51.9608 87.7631 54.2573 91.6043 54.2573C93.1074 54.2573 94.8192 53.965 96.5728 53.4222V41.7733ZM130.016 27.9533V54.0484L135.653 56.6788V58.7665H114.693V56.6788L121.081 54.0484V27.9533L114.693 26.158V24.1122L130.016 21.3147V25.5318L130.768 25.2395L134.442 23.9034C136.613 23.0683 138.033 22.5673 138.659 22.4003C139.87 22.0246 141.289 21.8157 142.959 21.8157C146.174 21.8157 148.22 22.7761 150.016 24.989C151.978 27.4523 152.479 29.3312 152.479 34.3832V54.0902L158.784 56.7206V58.8082H138.617V56.7206L143.419 54.0902V36.7213C143.419 29.4982 141.707 27.4105 135.903 27.4105C133.732 27.4105 132.521 27.5776 129.975 27.9951L130.016 27.9533ZM194.941 53.1299L200.87 54.8417V56.9293L185.547 59.852V54.967L184.879 55.3427C178.95 58.5159 176.152 59.4763 173.313 59.4763C165.714 59.4763 159.786 51.8774 159.786 42.1074C159.786 30.4585 168.261 21.6487 179.576 21.6487C181.747 21.6487 183.334 21.941 185.588 22.6091V12.4633L178.908 10.668V8.58038L194.983 5.57422V53.0881L194.941 53.1299ZM185.547 25.6152C184.127 25.1559 183.501 25.0724 181.998 25.0724C174.482 25.0724 169.43 31.0848 169.43 40.0198C169.43 48.9547 173.773 53.8397 180.787 53.8397C182.29 53.8397 183.877 53.6309 185.505 53.0881V25.5734L185.547 25.6152ZM234.689 35.26V55.4263H250.555L254.897 46.8671H257.987L257.068 58.8082H218.573V56.7206L224.877 54.0902V13.4235L218.573 10.7932V8.70563H256.692V20.7302H253.77L250.012 12.0875H234.689V31.5441H247.298L250.012 24.7801H253.018V41.6062H250.012L247.298 35.3017H234.689V35.26ZM263.164 57.5139V48.7042H268.216L271.765 55.7603C272.683 55.8438 273.059 55.8437 273.435 55.8437C277.944 55.8437 280.408 54.0484 280.408 50.6665C280.408 48.2449 279.823 47.4934 275.982 45.2388L269.761 41.481C264.959 38.6418 263.206 36.1367 263.206 32.0867C263.206 26.1579 268.299 21.7323 275.314 21.7323C276.358 21.7323 278.111 21.8993 279.823 22.108C281.243 22.2751 282.37 22.4838 283.205 22.6508L286.295 23.3189L287.13 23.4858V31.5441H282.161L278.863 25.2395C278.487 25.156 278.32 25.156 278.028 25.156C273.727 25.156 271.431 26.7425 271.431 29.7486C271.431 31.9198 272.266 32.9219 275.564 34.8007L282.161 38.4748C286.211 40.8129 288.257 44.028 288.257 48.2449C288.257 54.9253 282.829 59.6015 275.189 59.6015C273.31 59.6015 271.055 59.3093 267.757 58.5577L264.375 57.8061L263.247 57.5974L263.164 57.5139ZM293.977 57.5139V48.7042H299.029L302.578 55.7603C303.497 55.8438 303.872 55.8437 304.248 55.8437C308.757 55.8437 311.221 54.0484 311.221 50.6665C311.221 48.2449 310.636 47.4934 306.795 45.2388L300.574 41.481C295.772 38.6418 294.019 36.1367 294.019 32.0867C294.019 26.1579 299.113 21.7323 306.127 21.7323C307.171 21.7323 308.924 21.8993 310.636 22.108C312.056 22.2751 313.183 22.4838 314.018 22.6508L317.108 23.3189L317.943 23.4858V31.5441H312.974L309.676 25.2395C309.3 25.156 309.133 25.156 308.841 25.156C304.54 25.156 302.244 26.7425 302.244 29.7486C302.244 31.9198 303.079 32.9219 306.377 34.8007L312.974 38.4748C317.024 40.8129 319.07 44.028 319.07 48.2449C319.07 54.9253 313.642 59.6015 306.002 59.6015C304.123 59.6015 301.868 59.3093 298.57 58.5577L295.188 57.8061L294.061 57.5974L293.977 57.5139ZM356.355 39.6857H332.89C332.89 49.0799 338.067 54.633 346.71 54.633C348.881 54.633 351.762 54.2572 355.186 53.5056L355.729 56.3031C349.633 58.3907 344.372 59.518 340.781 59.518C330.176 59.518 323.412 52.5453 323.412 41.481C323.412 30.4167 330.928 21.6905 341.074 21.6905C347.462 21.6905 351.762 23.7781 354.017 28.0786C355.729 31.2935 356.188 33.5482 356.355 39.644V39.6857ZM346.46 35.8445C346.293 27.8699 344.581 24.7385 340.239 24.7385C335.562 24.7385 333.015 29.0389 333.015 37.1389L346.46 35.8445ZM375.018 27.9533V54.0484L380.655 56.6788V58.7665H359.695V56.6788L366.083 54.0484V27.9533L359.695 26.158V24.1122L375.018 21.3147V25.5318L375.77 25.2395L379.444 23.9034C381.615 23.0683 383.034 22.5673 383.661 22.4003C384.872 22.0246 386.291 21.8157 387.961 21.8157C391.176 21.8157 393.222 22.7761 395.017 24.989C396.98 27.4523 397.481 29.3312 397.481 34.3832V54.0902L403.785 56.7206V58.8082H383.619V56.7206L388.42 54.0902V36.7213C388.42 29.4982 386.709 27.4105 380.905 27.4105C378.734 27.4105 377.523 27.5776 374.976 27.9951L375.018 27.9533ZM435.893 31.8362H429.588L426.123 24.9054H425.538C418.983 24.9054 414.182 31.1266 414.182 39.644C414.182 49.247 419.275 54.5912 428.377 54.5912C430.34 54.5912 432.052 54.3825 434.765 53.8397L435.6 53.6309L436.143 56.5536C429.672 58.5994 425.246 59.3927 421.697 59.3927C411.551 59.3927 404.495 52.0861 404.495 41.5646C404.495 29.6235 412.762 21.6487 425.079 21.6487C428.294 21.6487 431.551 22.1916 435.893 23.3189V31.8362ZM470.839 39.6857H447.375C447.375 49.0799 452.552 54.633 461.195 54.633C463.366 54.633 466.247 54.2572 469.67 53.5056L470.213 56.3031C464.117 58.3907 458.856 59.518 455.266 59.518C444.661 59.518 437.897 52.5453 437.897 41.481C437.897 30.4167 445.412 21.6905 455.558 21.6905C461.946 21.6905 466.247 23.7781 468.501 28.0786C470.213 31.2935 470.672 33.5482 470.839 39.644V39.6857ZM460.902 35.8445C460.735 27.8699 459.023 24.7385 454.681 24.7385C450.005 24.7385 447.458 29.0389 447.458 37.1389L460.902 35.8445Z" fill="white"/>
</svg>
