<svg width="501" height="80" viewBox="0 0 501 80" fill="none" xmlns="http://www.w3.org/2000/svg">
<path d="M23.6317 58.902L5.80349 12.6824L0 10.1355V8.04789H21.7112V10.1355L15.991 12.6824L25.9281 38.9027C26.9719 41.5331 27.4312 43.0362 28.3498 46.2511L42.0445 12.6406L36.3244 10.0937V8.0061H53.5263V10.0937L47.7227 12.6406L27.4312 58.8603H23.59L23.6317 58.902ZM57.9937 53.3908V27.2956L51.6056 25.4168V23.3709L67.3045 20.5735V53.349L73.6926 55.9794V58.067H51.6056V55.9794L57.9937 53.349V53.3908ZM56.8664 10.2608C56.8664 7.46336 58.5782 6.12726 62.2942 6.12726C66.3441 6.12726 68.0978 7.33806 68.0978 10.0937C68.0978 13.0999 66.5112 14.3942 62.6283 14.3942C58.4948 14.3942 56.9082 13.2669 56.9082 10.2608H56.8664ZM77.4502 56.8562V48.0465H82.5023L86.0512 55.1026C86.9697 55.1861 87.3456 55.1861 87.7214 55.1861C92.2306 55.1861 94.6939 53.3908 94.6939 50.0088C94.6939 47.5872 94.1094 46.8357 90.2682 44.581L84.0472 40.8233C79.2457 37.9842 77.492 35.479 77.492 31.4291C77.492 25.5003 82.5858 21.0745 89.6001 21.0745C90.6439 21.0745 92.3976 21.2415 94.1094 21.4503C95.529 21.6173 96.6563 21.8261 97.4914 21.9931L100.581 22.6612L101.416 22.8281V30.8863H96.4476L93.1491 24.5817C92.7733 24.4982 92.6063 24.4983 92.314 24.4983C88.0135 24.4983 85.7172 26.0848 85.7172 29.091C85.7172 31.2621 86.5522 32.2642 89.8506 34.143L96.4476 37.8171C100.498 40.1553 102.543 43.3702 102.543 47.5872C102.543 54.2676 97.1155 58.9438 89.4749 58.9438C87.596 58.9438 85.3414 58.6515 82.043 57.9L78.6611 57.1484L77.5338 56.9397L77.4502 56.8562ZM134.651 59.3196V54.8938L133.983 55.1861C126.843 58.0252 124.004 58.8603 121.374 58.8603C118.576 58.8603 115.82 57.6495 114.234 55.6871C112.439 53.4325 111.896 51.2614 111.896 46.1259V27.1704L105.508 25.2915V23.2457L121.207 20.5318V43.746C121.207 51.0526 122.918 53.1403 128.805 53.1403C130.851 53.1403 131.728 53.0567 134.066 52.5975L134.651 52.5139V27.0869L128.346 25.208V23.1622L143.669 20.4483V52.3052L149.974 54.017V56.1046L134.651 59.1108V59.3196ZM165.84 24.2895L162.374 31.2204H155.694V23.9972C162.249 22.0348 167.134 21.0745 170.725 21.0745C174.023 21.0745 176.528 21.6174 178.532 22.7447C181.371 24.4148 182.207 25.9596 182.207 30.1766V51.3866C182.207 52.2217 182.958 52.8062 184.628 53.2655L188.595 54.2258V56.3134L187.843 56.5222L184.545 57.4825C182.833 58.0252 181.705 58.3175 181.246 58.401C180.202 58.6933 179.159 58.8603 178.073 58.8603C175.61 58.8603 174.399 57.8165 173.48 54.8103C169.18 57.3572 165.213 58.8603 162.499 58.8603C156.779 58.8603 152.646 54.8938 152.646 49.466C152.646 44.8733 155.109 41.7837 159.786 40.6146C163.084 39.7796 167.092 39.195 173.23 38.6522V29.8425C173.23 25.6256 171.894 24.1224 168.053 24.1224C167.76 24.1224 167.468 24.1225 166.341 24.206C166.174 24.206 166.048 24.2895 165.798 24.2895H165.84ZM173.272 41.1573L172.311 41.3244L168.929 42.0759C163.46 43.2032 161.998 44.4976 161.998 47.9212C161.998 51.3449 164.462 53.6413 168.303 53.6413C169.806 53.6413 171.518 53.349 173.272 52.8062V41.1573ZM197.53 53.3908V11.8891L190.849 10.0937V8.0061L206.548 5V53.4325L213.228 56.0629V58.1505H191.183V56.0629L197.488 53.4325L197.53 53.3908ZM265.878 54.2258L270.011 43.913H273.393L272.475 56.2299L271.347 56.5222C264.416 58.234 260.241 58.8603 255.69 58.8603C240.033 58.8603 230.639 49.4661 230.639 33.8925C230.639 18.3189 241.328 7.21286 258.154 7.21286C262.83 7.21286 266.963 7.79734 272.892 9.38393V21.7843H269.594L265.836 11.5551C264.542 11.2628 264.166 11.2628 262.454 11.2628C255.314 11.2628 250.513 12.9329 246.881 16.6071C242.831 20.8241 240.701 26.6694 240.701 33.6837C240.701 46.8357 248.133 54.7268 260.408 54.7268C262.12 54.7268 263.707 54.5598 265.586 54.2675L265.794 54.1841L265.878 54.2258ZM276.733 40.9068C276.733 29.0492 284.625 21.0745 296.357 21.0745C308.089 21.0745 315.229 28.3812 315.229 39.5708C315.229 50.7604 307.338 59.2778 295.605 59.2778C283.873 59.2778 276.733 51.9294 276.733 40.9486V40.9068ZM286.838 39.3202C286.838 49.466 290.303 55.4784 296.065 55.4784C301.826 55.4784 305.167 50.0506 305.167 40.7399C305.167 30.6776 301.618 24.4147 295.939 24.4147C290.261 24.4147 286.838 29.8842 286.838 39.3202ZM332.598 27.2956V53.3908L338.234 56.0211V58.1087H317.275V56.0211L323.663 53.3908V27.2956L317.275 25.5003V23.4545L332.598 20.6571V24.874L333.349 24.5817L337.023 23.2457C339.195 22.4106 340.614 21.9096 341.24 21.7426C342.451 21.3668 343.871 21.1581 345.541 21.1581C348.756 21.1581 350.802 22.1183 352.597 24.3312C354.56 26.7946 355.06 28.6734 355.06 33.7255V53.4325L361.365 56.0629V58.1505H341.199V56.0629L346 53.4325V36.0636C346 28.8404 344.288 26.7528 338.485 26.7528C336.314 26.7528 335.103 26.9199 332.556 27.3374L332.598 27.2956ZM393.472 31.1786H387.168L383.703 24.2477H383.118C376.563 24.2477 371.761 30.4688 371.761 38.9863C371.761 48.5893 376.855 53.9335 385.957 53.9335C387.919 53.9335 389.631 53.7248 392.345 53.182L393.18 52.9732L393.723 55.8958C387.251 57.9417 382.826 58.735 379.277 58.735C369.131 58.735 362.075 51.4284 362.075 40.9068C362.075 28.9657 370.342 20.991 382.659 20.991C385.874 20.991 389.13 21.5338 393.472 22.6612V31.1786ZM428.419 39.028H404.954C404.954 48.4222 410.132 53.9753 418.774 53.9753C420.945 53.9753 423.826 53.5995 427.25 52.848L427.793 55.6453C421.697 57.733 416.436 58.8603 412.846 58.8603C402.24 58.8603 395.476 51.8876 395.476 40.8233C395.476 29.759 402.992 21.0328 413.138 21.0328C419.526 21.0328 423.826 23.1204 426.081 27.4209C427.793 30.6358 428.252 32.8905 428.419 38.9863V39.028ZM418.482 35.1868C418.315 27.2121 416.603 24.0807 412.261 24.0807C407.585 24.0807 405.038 28.3812 405.038 36.4811L418.482 35.1868ZM445.704 58.067V70.3839L453.512 72.8055V74.9766H430.34V72.8055L436.728 70.3839V27.3791L430.256 25.4168V23.3709L445.663 20.6571V25.2498C450.84 22.5359 455.14 21.0328 457.98 21.0328C465.704 21.0328 471.424 28.3395 471.424 38.193C471.424 50.0088 462.614 58.8603 450.882 58.8603C448.919 58.8603 447.5 58.6515 445.621 58.0253L445.704 58.067ZM445.704 54.8103C446.999 55.1026 447.416 55.1026 448.711 55.1026C457.061 55.1026 461.779 49.466 461.779 39.6125C461.779 30.5941 458.564 26.4606 451.466 26.4606C449.796 26.4606 448.752 26.6276 445.663 27.1286V54.8103H445.704ZM478.48 25.208H472.843V22.6612L473.678 22.3689C479.858 20.2812 480.275 19.9473 482.697 16.1478C483.741 14.4777 484.2 13.7261 484.868 12.1813H487.791V21.4921H499.356V25.2498H487.791V47.6707C487.791 52.7227 489.294 54.2258 494.471 54.2258C495.306 54.2258 496.057 54.2258 496.726 54.0588L499.356 53.683L500.024 56.6056L499.189 56.8144L495.264 57.7747C492.55 58.4428 489.461 58.8186 487.29 58.8186C481.194 58.8186 478.438 55.9794 478.438 49.8001V25.208H478.48Z" fill="white"/>
</svg>
