<svg width="381" height="80" viewBox="0 0 381 80" fill="none" xmlns="http://www.w3.org/2000/svg">
<path d="M234.355 58.0234H212.043C212.043 57.3929 211.998 56.7533 212.07 56.1288C212.091 55.9494 212.423 55.7552 212.653 55.6596C214.464 54.8975 216.278 54.1444 218.104 53.4212C218.561 53.2389 218.743 52.9998 218.743 52.4888C218.728 43.8881 218.725 35.2873 218.743 26.6865C218.743 26.1127 218.522 25.9215 218.017 25.79C216.236 25.3238 214.47 24.8008 212.689 24.3316C212.201 24.2031 212.004 24.0089 212.013 23.4739C212.037 22.0873 212.007 22.0813 213.4 21.8333C218.298 20.9636 223.196 20.097 228.094 19.2273C228.19 19.2094 228.285 19.2034 228.485 19.1765V23.5217C230.042 22.9121 231.468 22.3413 232.902 21.7974C235.272 20.8949 237.618 19.8938 240.185 19.6816C242.827 19.4604 245.421 19.583 247.749 21.0622C250.415 22.7537 251.583 25.3477 252.002 28.3451C252.145 29.3731 252.178 30.4251 252.181 31.4651C252.196 38.4013 252.199 45.3374 252.175 52.2707C252.175 52.9102 252.339 53.2389 252.964 53.475C254.73 54.1444 256.457 54.9154 258.218 55.5998C258.741 55.803 258.971 56.072 258.911 56.6368C258.863 57.0731 258.902 57.5184 258.902 58.0085H237.418C237.418 57.3869 237.376 56.7922 237.442 56.2094C237.466 56.0032 237.714 55.7582 237.923 55.6416C239.244 54.8975 240.577 54.1683 241.922 53.472C242.355 53.2479 242.522 52.9759 242.519 52.4858C242.504 45.9979 242.516 39.51 242.498 33.022C242.498 32.257 242.43 31.477 242.283 30.7269C241.703 27.7414 239.976 26.0261 236.97 25.5569C234.31 25.1415 231.659 25.4015 229.023 25.8707C228.441 25.9753 228.506 26.3548 228.506 26.7523C228.506 31.9731 228.506 37.1939 228.506 42.4118C228.506 45.7439 228.518 49.073 228.494 52.4051C228.491 52.958 228.665 53.2479 229.176 53.475C230.652 54.1295 232.093 54.8736 233.572 55.5161C234.164 55.7731 234.435 56.0899 234.355 56.7414C234.304 57.1478 234.346 57.5692 234.346 58.0204L234.355 58.0234Z" fill="white"/>
<path d="M140.476 58.0234H119.006C119.006 57.3869 118.971 56.7713 119.027 56.1616C119.045 55.9763 119.287 55.7612 119.482 55.6536C120.826 54.9035 122.18 54.1624 123.549 53.4481C123.955 53.2359 124.111 52.9759 124.111 52.5127C124.096 46.0248 124.108 39.5369 124.09 33.0459C124.09 32.2809 124.018 31.5009 123.872 30.7508C123.28 27.7056 121.499 25.9723 118.43 25.533C115.818 25.1594 113.215 25.3985 110.63 25.8677C110.205 25.9454 110.077 26.1486 110.077 26.5759C110.089 35.2514 110.089 43.9269 110.077 52.6054C110.077 53.0716 110.301 53.2569 110.669 53.4272C112.181 54.1265 113.672 54.8706 115.199 55.5341C115.77 55.7821 116.012 56.0959 115.94 56.7085C115.892 57.1209 115.931 57.5393 115.931 58.0085H93.6046C93.6046 57.3869 93.5598 56.7683 93.6315 56.1646C93.6524 55.9793 93.9632 55.7672 94.1844 55.6745C95.9715 54.9184 97.7586 54.1713 99.5666 53.4631C100.104 53.2539 100.329 52.9909 100.329 52.3812C100.308 43.8283 100.308 35.2783 100.329 26.7254C100.329 26.1307 100.113 25.9155 99.5666 25.775C97.7825 25.3148 96.0193 24.7829 94.2382 24.3226C93.7271 24.1912 93.5777 23.961 93.5867 23.447C93.6106 22.0873 93.5837 22.0783 94.9225 21.8392C99.8206 20.9696 104.722 20.1029 109.62 19.2363C109.736 19.2154 109.856 19.2064 110.062 19.1795V23.4978C110.394 23.3783 110.609 23.3006 110.827 23.2229C113.821 22.1441 116.765 20.8979 119.819 20.0402C122.712 19.2273 125.704 19.2751 128.507 20.608C131.37 21.9677 132.84 24.4123 133.411 27.4157C133.665 28.7485 133.754 30.1292 133.76 31.489C133.793 38.3504 133.787 45.2119 133.76 52.0734C133.757 52.8504 133.949 53.2688 134.72 53.5497C136.423 54.1713 138.076 54.9304 139.77 55.5819C140.326 55.797 140.565 56.0809 140.493 56.6756C140.443 57.091 140.484 57.5154 140.484 58.0204L140.476 58.0234Z" fill="white"/>
<path d="M44.1248 20.2374C43.0758 20.2374 42.0807 20.2733 41.0915 20.2075C40.8793 20.1926 40.5984 19.8519 40.5028 19.6039C39.3343 16.4869 38.1897 13.361 37.0481 10.2321C36.9047 9.8406 36.7583 9.52382 36.2622 9.47302C30.4855 8.89027 24.906 9.39831 19.8556 12.5661C15.6926 15.175 13.1375 19.0331 11.8525 23.6921C10.0116 30.3653 9.95481 37.0325 12.755 43.4816C15.4267 49.6348 20.3218 53.0477 26.8575 54.1773C29.822 54.6883 32.8015 54.6315 35.781 54.1922C36.4773 54.0906 36.9017 53.8366 37.1796 53.1164C38.387 50.0144 39.6869 46.9482 40.9182 43.8522C41.1214 43.3442 41.3844 43.1798 41.9074 43.2037C42.7979 43.2425 43.6885 43.2156 44.6627 43.2156C44.6627 43.5743 44.6806 43.8641 44.6627 44.148C44.3698 47.9165 44.065 51.6819 43.7871 55.4504C43.7512 55.9495 43.5899 56.1855 43.0818 56.3021C38.3541 57.4048 33.6323 58.5165 28.7552 58.7586C23.7525 59.0066 18.8514 58.5763 14.1865 56.5979C7.87783 53.9233 3.62527 49.3001 1.58415 42.7913C-0.734888 35.4008 -0.53765 28.0074 2.3731 20.8052C5.15237 13.9437 10.2447 9.38934 17.1988 6.92088C23.4566 4.70046 29.8938 4.61081 36.3698 5.61194C38.8203 5.99147 41.226 6.66686 43.6556 7.19881C44.0202 7.2795 44.2055 7.41995 44.2025 7.83834C44.1875 11.8399 44.1935 15.8444 44.1875 19.8459C44.1875 19.9416 44.1577 20.0372 44.1248 20.2374Z" fill="white"/>
<path d="M49.8208 40.3587C49.8865 35.6788 50.8578 31.5756 53.3531 27.9148C56.0935 23.8953 59.859 21.3193 64.5658 20.1627C69.3533 18.9883 74.1169 19.0929 78.6892 21.0593C84.8484 23.71 88.2852 28.5453 89.3192 35.0691C90.1111 40.0569 89.5284 44.9071 87.0599 49.3898C84.0685 54.8258 79.3856 57.9457 73.304 58.9588C69.0246 59.6701 64.7959 59.3802 60.7824 57.6469C54.6053 54.9842 51.1506 50.1847 50.0838 43.6071C50.015 43.1917 49.9612 42.7704 49.9314 42.349C49.8776 41.581 49.8447 40.8099 49.8208 40.3557V40.3587ZM79.5499 39.1514C79.4782 38.2488 79.4214 36.6321 79.2152 35.0333C78.8327 32.0568 78.1125 29.1759 76.3463 26.6626C73.8599 23.1213 69.3533 21.9438 65.6626 23.9162C63.3525 25.1504 62.0854 27.2334 61.2815 29.6272C59.7962 34.059 59.7843 38.6134 60.2774 43.1917C60.5553 45.7738 61.1739 48.2751 62.4052 50.5912C64.2789 54.1086 67.2763 55.7492 71.1075 55.2621C74.3649 54.8467 76.4031 52.8265 77.718 49.9785C79.2003 46.7719 79.5021 43.3382 79.5469 39.1543L79.5499 39.1514Z" fill="white"/>
<path d="M206.864 52.6114C207.052 53.6185 207.22 54.515 207.405 55.5072C206.771 55.7134 206.168 55.9166 205.561 56.1048C201.637 57.3241 197.68 58.4299 193.559 58.7377C187.977 59.1561 182.915 57.883 178.826 53.8396C176.098 51.138 174.628 47.7641 174.033 44.0195C173.193 38.7419 173.746 33.6377 176.376 28.9069C179.687 22.9539 184.815 19.8101 191.62 19.4754C194.321 19.3439 196.987 19.6487 199.536 20.6498C203.529 22.2158 205.863 25.2311 207.064 29.2387C207.865 31.9133 207.991 34.6627 208.032 37.427C208.041 38.0187 207.802 38.1203 207.279 38.1173C203.323 38.0994 199.366 38.1084 195.409 38.1084C191.725 38.1084 188.043 38.1084 184.358 38.1084C183.987 38.1084 183.602 38.0277 183.611 38.6344C183.671 42.4327 184.472 45.9949 186.988 48.9744C189.848 52.3603 193.607 53.8665 197.961 53.7111C200.558 53.6185 203.143 53.1463 205.734 52.8385C206.075 52.7966 206.41 52.707 206.861 52.6143L206.864 52.6114ZM183.733 35.365C183.99 35.365 184.164 35.3799 184.331 35.365C188.192 34.9854 192.05 34.597 195.911 34.2264C197.827 34.0441 197.842 34.059 197.749 32.1464C197.642 29.8513 197.373 27.586 196.243 25.524C195.454 24.0866 194.307 23.0794 192.666 22.7119C189.863 22.0783 187.182 23.208 185.625 25.7392C183.808 28.6888 183.644 31.9701 183.73 35.368L183.733 35.365Z" fill="white"/>
<path d="M293.272 47.516C294.991 47.516 296.604 47.4951 298.215 47.5429C298.418 47.5489 298.675 47.8746 298.795 48.1077C299.856 50.1877 300.905 52.2766 301.93 54.3745C302.145 54.8138 302.402 55.029 302.901 54.9752C304.428 54.8138 306.003 54.8527 307.473 54.4791C310.492 53.7081 312.022 50.5194 310.817 47.6326C310.513 46.9004 309.882 46.1862 309.219 45.7379C306.977 44.2168 304.652 42.8212 302.36 41.3748C300.761 40.3677 299.141 39.3934 297.573 38.3415C290.672 33.7094 292.447 23.7309 299.862 20.6409C302.432 19.568 305.112 19.2124 307.832 19.5411C311.062 19.9296 314.263 20.5542 317.479 21.0563C318.064 21.1459 318.235 21.4119 318.226 21.9946C318.193 24.2808 318.196 26.567 318.226 28.8561C318.235 29.4478 318.052 29.6391 317.461 29.6182C316.217 29.5793 314.971 29.5853 313.728 29.6182C313.241 29.6301 312.966 29.4747 312.742 29.0295C311.824 27.2125 310.853 25.4194 309.927 23.6054C309.73 23.2169 309.514 23.0077 309.039 22.9749C307.449 22.8613 305.919 23.0675 304.437 23.6562C301.239 24.9293 301.048 29.5405 303.37 31.1184C304.808 32.0956 306.284 33.019 307.781 33.8977C309.517 34.9167 311.304 35.8521 313.059 36.8413C315.106 37.9978 316.869 39.4651 318.058 41.5332C320.676 46.0846 319.929 53.6065 313.229 57.0881C309.873 58.8333 306.281 59.171 302.623 58.6032C299.679 58.146 296.775 57.4287 293.858 56.7982C293.637 56.7504 293.302 56.4635 293.302 56.2842C293.266 53.4033 293.278 50.5254 293.278 47.522L293.272 47.516Z" fill="white"/>
<path d="M259.625 23.8206C259.625 22.9928 259.586 22.2726 259.649 21.5613C259.667 21.3551 259.942 21.0802 260.16 20.9965C261.134 20.62 262.129 20.3002 263.119 19.9655C266.322 18.8837 268.623 16.7559 270.24 13.8392C270.808 12.8171 271.322 11.7682 271.914 10.764C272.057 10.522 272.41 10.2889 272.685 10.265C273.471 10.1992 274.266 10.2411 275.144 10.2411V19.8997H287.262V23.7967H275.165C275.165 24.1822 275.165 24.4482 275.165 24.7141C275.165 32.3945 275.165 40.0748 275.168 47.7581C275.168 48.302 275.186 48.8549 275.264 49.3928C275.631 51.9718 277.123 53.3883 279.717 53.744C282.039 54.0607 284.337 53.8217 286.635 53.5408C287.167 53.475 287.403 53.5706 287.501 54.1116C287.621 54.769 287.845 55.4085 287.965 56.066C287.995 56.2274 287.818 56.5681 287.687 56.5979C283.255 57.5841 278.892 59.1023 274.266 58.7795C272.724 58.6719 271.125 58.403 269.696 57.8411C266.753 56.6876 265.614 54.1773 265.512 51.1918C265.414 48.311 265.468 45.4271 265.468 42.5432C265.465 36.6022 265.456 30.6612 265.483 24.7201C265.486 24.0059 265.294 23.7817 264.571 23.8056C262.957 23.8564 261.344 23.8206 259.625 23.8206Z" fill="white"/>
<path d="M168.899 53.49C169.129 54.3955 169.365 55.2322 169.538 56.078C169.571 56.2334 169.38 56.5681 169.242 56.6009C164.906 57.5662 160.645 59.0066 156.114 58.8064C155.098 58.7616 154.073 58.663 153.084 58.4448C149.282 57.5991 147.313 55.2292 147.083 51.3144C147.05 50.7436 147.044 50.1728 147.044 49.599C147.044 41.321 147.032 33.043 147.059 24.7649C147.059 24.0298 146.901 23.7698 146.115 23.8027C144.507 23.8684 142.893 23.8236 141.202 23.8236C141.202 22.9838 141.175 22.2188 141.223 21.4567C141.235 21.2924 141.501 21.0802 141.692 21.0055C142.576 20.6737 143.473 20.3719 144.372 20.085C147.69 19.0211 150.122 16.8993 151.796 13.881C152.349 12.8828 152.916 11.8847 153.407 10.8567C153.64 10.3725 153.93 10.2082 154.441 10.2321C155.179 10.2679 155.92 10.2411 156.715 10.2411V19.8938H168.848V23.7907H156.781C156.763 24.1344 156.736 24.3974 156.736 24.6574C156.736 32.3885 156.73 40.1196 156.742 47.8507C156.742 48.568 156.784 49.3001 156.936 49.9965C157.411 52.175 158.941 53.4212 161.308 53.744C163.657 54.0637 165.976 53.7918 168.301 53.5437C168.471 53.5258 168.645 53.5139 168.896 53.49H168.899Z" fill="white"/>
</svg>
