<svg width="471" height="80" viewBox="0 0 471 80" fill="none" xmlns="http://www.w3.org/2000/svg">
<path d="M206.786 59.1526V54.4284C205.708 54.9636 204.826 55.4718 203.894 55.853C201.503 56.8348 199.166 58.1246 196.671 58.6366C191.604 59.6839 187.577 57.574 184.562 53.539C181.436 49.3577 180.527 44.5295 180.966 39.4511C181.405 34.3381 183.354 29.8372 187.188 26.3181C192.398 21.5478 198.55 20.1809 205.396 21.567C205.8 21.6479 206.201 21.748 206.693 21.8635C206.72 21.5247 206.767 21.2474 206.767 20.9741C206.77 18.2212 206.747 15.4722 206.786 12.7193C206.797 12.0378 206.555 11.7837 205.916 11.6258C204.145 11.1869 202.397 10.6556 200.633 10.1935C199.701 9.95098 200.163 9.2233 200.067 8.69967C199.979 8.2338 200.137 7.92963 200.683 7.82953C205.727 6.89778 210.767 5.94678 215.807 5.00349C215.868 4.99194 215.934 5.01119 216.176 5.03044V6.20475C216.176 21.2705 216.184 36.3402 216.157 51.406C216.157 52.2376 216.33 52.665 217.212 52.8652C218.679 53.1925 220.107 53.7007 221.563 54.0742C222.602 54.3398 222.09 55.1368 222.202 55.7182C222.302 56.2303 222.033 56.4574 221.532 56.5498C216.712 57.4315 211.899 58.3325 207.078 59.2219C207.025 59.2334 206.959 59.1949 206.782 59.1487L206.786 59.1526ZM206.77 38.7504C206.77 34.5614 206.728 30.3685 206.801 26.1795C206.82 25.1092 206.47 24.6972 205.469 24.5663C200.056 23.8579 195.093 25.8484 192.486 31.1809C190.634 34.9618 190.384 38.9737 191.027 43.0742C191.47 45.9195 192.459 48.5376 194.627 50.5281C197.842 53.4812 201.669 53.7122 205.719 52.846C206.505 52.6765 206.805 52.3647 206.797 51.5099C206.747 47.2555 206.774 43.001 206.774 38.7504H206.77Z" fill="black"/>
<path d="M50.9878 58.0553C50.9878 57.5855 50.907 57.1505 51.011 56.7654C51.1111 56.392 51.3113 55.93 51.6154 55.7451C52.7589 55.0406 53.9525 54.413 55.1499 53.7931C55.6658 53.5274 55.8737 53.1963 55.8737 52.5957C55.8506 46.3584 55.8622 40.1172 55.8468 33.8799C55.8468 33.21 55.7659 32.5362 55.6581 31.8778C55.173 28.9016 53.3134 26.938 50.2948 26.7417C47.9192 26.5877 45.5129 26.9111 43.1181 27.0112C42.4789 27.0381 42.3557 27.3769 42.3596 27.9545C42.375 36.1785 42.375 44.3986 42.3596 52.6226C42.3596 53.1848 42.5251 53.4889 43.0449 53.7199C44.277 54.2628 45.4782 54.8673 46.6949 55.441C48.2196 56.1571 48.2504 56.2187 47.9115 58.0745H26.7085C26.2273 56.4497 26.3774 56.1225 27.8906 55.5026C29.3113 54.9174 30.7243 54.3013 32.1566 53.7469C32.7456 53.5197 32.9844 53.2233 32.9805 52.5572C32.9574 44.3678 32.9574 36.1746 32.9805 27.9853C32.9805 27.3615 32.7918 27.0805 32.1797 26.9303C30.655 26.5569 29.165 26.0409 27.6326 25.7252C26.697 25.5327 26.4044 25.0976 26.543 24.2275C26.5815 23.9811 26.5738 23.727 26.5892 23.4035C31.81 22.4795 37.004 21.5593 42.3288 20.6122V24.7973C43.2451 24.4431 43.9998 24.112 44.7813 23.8579C47.5766 22.9454 50.3372 21.8866 53.194 21.2359C54.7302 20.8855 56.4667 21.0588 58.0568 21.336C61.6798 21.9674 64.1786 24.7165 64.8601 28.6321C65.0872 29.9489 65.1874 31.3003 65.1951 32.6402C65.2297 39.1354 65.2374 45.6307 65.1796 52.1221C65.1719 53.1424 65.5069 53.6044 66.4194 53.924C67.69 54.3668 68.9105 54.9366 70.1579 55.4487C71.2617 55.903 71.7288 56.7732 71.5594 58.0591H51.0032L50.9878 58.0553Z" fill="black"/>
<path d="M405.309 23.4112C410.619 22.4718 415.816 21.5516 421.168 20.6045V24.7665C423.448 23.9002 425.569 23.0994 427.683 22.287C430.205 21.3167 432.804 20.8624 435.502 21.0973C439.911 21.4823 442.91 24.2775 443.688 28.8131C443.904 30.0682 443.969 31.358 443.973 32.6325C444 39.1585 444 45.6885 443.965 52.2145C443.961 53.0693 444.154 53.5544 445.012 53.8509C446.345 54.309 447.623 54.9135 448.928 55.4448C450.034 55.8966 450.504 56.7654 450.337 58.0514H429.912C429.469 56.4805 429.604 56.1456 430.967 55.4025C432.01 54.8365 433.069 54.2975 434.074 53.6699C434.359 53.4928 434.64 53.0423 434.644 52.7189C434.675 46.3507 434.679 39.9825 434.636 33.6181C434.628 32.671 434.463 31.6969 434.19 30.7882C433.423 28.2663 431.564 26.8726 429.023 26.734C426.674 26.6069 424.302 26.9072 421.938 27.0035C421.291 27.0304 421.18 27.3846 421.18 27.9468C421.191 36.1708 421.195 44.3948 421.176 52.6188C421.176 53.2348 421.399 53.5313 421.934 53.7662C423.078 54.2705 424.194 54.8365 425.326 55.3678C426.387 55.8658 426.86 56.7577 426.747 58.0437H405.456C405.001 56.4189 405.14 56.1302 406.68 55.4987C408.162 54.8904 409.633 54.2551 411.123 53.6622C411.608 53.4697 411.793 53.204 411.793 52.6688C411.778 44.414 411.778 36.1592 411.793 27.9044C411.793 27.3654 411.631 27.1074 411.092 26.9727C409.541 26.58 408.016 26.064 406.453 25.7291C405.513 25.5289 405.144 25.1053 405.298 24.1813C405.332 23.9657 405.302 23.7424 405.302 23.4112H405.309Z" fill="black"/>
<path d="M253.554 59.1449V54.9597C252.029 55.5488 250.69 56.1379 249.3 56.5845C246.866 57.3661 244.448 58.294 241.95 58.7483C236.571 59.7224 232.108 56.5806 231.027 51.2366C230.761 49.9314 230.676 48.5684 230.669 47.2324C230.634 40.895 230.638 34.5614 230.669 28.224C230.669 27.4578 230.472 27.0882 229.694 26.8957C228.077 26.4952 226.495 25.9755 224.889 25.5289C223.904 25.2555 224.404 24.4778 224.366 23.9272C224.35 23.7116 224.762 23.3073 225.028 23.2572C229.852 22.3909 234.684 21.5632 239.516 20.7315C239.639 20.7084 239.77 20.7315 240.055 20.7315C240.055 21.1358 240.055 21.5401 240.055 21.9405C240.055 29.3636 240.032 36.7907 240.075 44.2138C240.082 45.7385 240.221 47.2863 240.513 48.784C240.968 51.1172 242.473 52.5533 244.822 53.0154C247.575 53.5582 250.316 53.3349 253.027 52.7112C253.238 52.6611 253.489 52.3108 253.519 52.0721C253.596 51.5369 253.546 50.9863 253.546 50.4434C253.546 43.0203 253.535 35.5971 253.566 28.1701C253.566 27.3962 253.369 27.042 252.584 26.8533C250.998 26.4683 249.45 25.9216 247.867 25.525C246.878 25.2786 247.297 24.5471 247.209 23.9849C247.117 23.3804 247.482 23.2649 247.994 23.1764C252.669 22.3794 257.339 21.5555 262.013 20.7431C262.263 20.7007 262.517 20.6892 262.949 20.6468C262.949 21.0934 262.949 21.49 262.949 21.8904C262.949 31.7161 262.964 41.5379 262.925 51.3636C262.925 52.2954 263.222 52.6419 264.092 52.8421C265.559 53.1771 266.991 53.6583 268.447 54.0472C269.421 54.309 268.924 55.0829 269.028 55.6373C269.12 56.1186 268.932 56.3843 268.393 56.4844C263.541 57.3892 258.698 58.3171 253.851 59.2334C253.797 59.245 253.735 59.2026 253.546 59.1526L253.554 59.1449Z" fill="black"/>
<path d="M176.304 39.5666C176.246 44.5603 174.987 49.0458 171.764 52.819C167.783 57.4854 162.539 59.3104 156.552 59.2758C151.974 59.2488 147.728 58.0784 144.166 55.0714C139.977 51.5369 138.164 46.8743 138.037 41.5187C137.898 35.678 139.523 30.4301 143.839 26.295C148.378 21.9443 153.973 20.643 160.075 21.1858C164.534 21.5824 168.453 23.2418 171.545 26.5684C174.979 30.2607 176.273 34.7462 176.304 39.5705V39.5666ZM166.621 40.7102C166.547 37.5068 166.313 34.4497 165.3 31.512C164.457 29.0672 163.225 26.8841 160.926 25.5096C156.726 23.007 151.64 24.8089 149.533 29.5407C147.693 33.6759 147.639 38.0535 147.916 42.4543C148.078 44.9877 148.548 47.4711 149.576 49.812C150.554 52.0413 151.932 53.9279 154.258 54.9251C158.35 56.6807 162.817 54.7633 164.838 50.4165C166.289 47.294 166.559 43.9597 166.624 40.7063L166.621 40.7102Z" fill="black"/>
<path d="M401.428 39.6822C401.444 44.5257 400.215 48.9881 397.031 52.7497C393.046 57.4585 387.779 59.3104 381.754 59.2796C377.241 59.2565 373.056 58.0976 369.506 55.2023C365.818 52.1914 363.889 48.1911 363.396 43.5246C362.78 37.707 363.893 32.2821 367.731 27.6927C371.782 22.8491 377.207 21.0126 383.367 21.0742C387.964 21.1204 392.157 22.4063 395.657 25.5019C399.338 28.7553 401.02 32.9713 401.421 37.7686C401.475 38.4039 401.428 39.0469 401.428 39.686V39.6822ZM391.826 40.3752C391.768 39.4242 391.726 38.2114 391.61 37.0024C391.337 34.1841 390.767 31.4389 389.354 28.9363C387.733 26.0679 385.338 24.4007 381.958 24.4469C378.577 24.4932 376.329 26.3027 374.897 29.2289C374.477 30.0875 374.142 31 373.892 31.9202C372.852 35.7088 372.844 39.5705 373.222 43.4438C373.484 46.1081 374.08 48.6877 375.401 51.0441C376.949 53.8085 379.197 55.518 382.493 55.5141C385.758 55.5141 388.099 53.9356 389.643 51.1365C391.452 47.8638 391.722 44.2677 391.826 40.3713V40.3752Z" fill="black"/>
<path d="M0.199984 8.02974H22.4348C22.8622 9.74307 22.7659 9.95098 21.2644 10.5824C19.8475 11.1792 18.4383 11.7875 17.0061 12.3419C16.4247 12.5653 16.186 12.8425 16.1898 13.5124C16.2129 26.5299 16.2129 39.5474 16.1937 52.5649C16.1937 53.1655 16.3708 53.4889 16.9368 53.7084C18.3382 54.2551 19.7166 54.8635 21.1065 55.441C22.2102 55.8979 22.6723 56.7693 22.4926 58.0553H0.234636C-0.235088 56.4382 -0.08108 56.1148 1.4513 55.4872C2.90282 54.8904 4.34664 54.2705 5.80586 53.6968C6.32179 53.4966 6.54125 53.2271 6.54125 52.6457C6.52585 39.5628 6.52585 26.4837 6.54125 13.4008C6.54125 12.804 6.31024 12.573 5.79816 12.3728C4.33509 11.8068 2.89127 11.1946 1.4436 10.5901C-0.111882 9.94713 -0.146533 9.87398 0.199984 8.02974Z" fill="black"/>
<path d="M118.755 20.7161V25.2555C119.883 24.6048 120.853 24.0735 121.793 23.4998C124.145 22.0598 126.636 21.028 129.42 20.8085C130.96 20.6892 132.431 20.9856 133.802 21.6671C134.11 21.8211 134.433 22.3139 134.441 22.6566C134.495 25.2478 134.456 27.839 134.479 30.4301C134.483 31 134.318 31.2233 133.717 31.2156C131.665 31.1886 129.613 31.2348 127.56 31.1771C127.222 31.1655 126.744 30.8421 126.59 30.5341C126.032 29.4214 125.628 28.2317 125.073 27.1151C124.911 26.7879 124.473 26.4413 124.118 26.3836C122.428 26.1218 120.796 26.4837 119.236 27.119C118.994 27.2152 118.778 27.7042 118.778 28.0161C118.755 36.2401 118.763 44.4641 118.747 52.6842C118.747 53.2271 118.94 53.4774 119.448 53.6429C121.339 54.259 123.21 54.9212 125.092 55.5565C126.245 55.9441 126.715 56.7808 126.502 58.0668H103.027C102.673 56.2226 102.719 56.1417 104.359 55.4602C105.749 54.8827 107.131 54.2782 108.533 53.7276C109.08 53.512 109.311 53.2348 109.311 52.6072C109.287 44.4179 109.291 36.2247 109.311 28.0353C109.311 27.4501 109.122 27.196 108.564 27.0381C106.869 26.5646 105.195 26.0063 103.501 25.5327C102.58 25.2747 103.008 24.5663 102.915 24.035C102.823 23.4998 103.131 23.3111 103.616 23.2303C108.479 22.4025 113.342 21.5593 118.204 20.7277C118.355 20.7007 118.509 20.7277 118.767 20.7277L118.755 20.7161Z" fill="black"/>
<path d="M304.465 53.0962C304.631 54.0049 304.804 54.7788 304.889 55.568C304.908 55.7567 304.673 56.1148 304.488 56.1648C299.899 57.4662 295.321 58.9177 290.489 58.8946C284.456 58.8677 279.512 56.5806 276.128 51.4445C274.099 48.3682 273.271 44.9146 273.24 41.253C273.194 35.8281 274.668 30.9576 278.511 26.9765C281.757 23.6076 285.834 21.9058 290.408 21.2821C295.098 20.643 299.672 21.3822 304.192 22.5642C304.43 22.6258 304.754 22.9993 304.758 23.2341C304.796 25.8215 304.785 28.4126 304.785 31.077C304.496 31.1193 304.257 31.1809 304.018 31.1848C302.382 31.1925 300.746 31.2271 299.117 31.1617C298.767 31.1463 298.278 30.846 298.116 30.5418C297.123 28.6822 296.183 26.7917 295.279 24.8859C295.013 24.3314 294.689 24.1697 294.093 24.2044C289.661 24.47 286.654 26.8418 284.852 30.7074C282.427 35.9167 282.284 41.3108 284.409 46.6394C286.196 51.1172 289.881 53.2271 294.516 53.8547C297.211 54.2205 299.891 54.0472 302.548 53.4889C303.141 53.3657 303.734 53.2502 304.477 53.1001L304.465 53.0962Z" fill="black"/>
<path d="M99.7236 56.7269C94.7376 57.7357 89.9518 59.449 84.7964 58.7406C80.4379 58.1438 78.0162 55.6335 77.9854 51.2558C77.9276 43.0318 77.9623 34.8078 77.9546 26.5838C77.9546 26.1718 77.9546 25.756 77.9546 25.2208H72.3371C72.3371 24.4084 72.2794 23.7116 72.368 23.0301C72.3988 22.7952 72.7684 22.5257 73.0417 22.414C74.4625 21.8365 75.9294 21.3552 77.3347 20.7392C79.5678 19.7613 81.0925 17.9979 82.3168 15.9611C82.9252 14.9485 83.5104 13.9128 84.0186 12.8463C84.2997 12.2611 84.6462 12.0416 85.2776 12.0917C85.9052 12.1417 86.5405 12.1032 87.2759 12.1032V21.4168H98.9189V25.1669H87.2913C87.2913 25.6713 87.2913 26.0486 87.2913 26.4221C87.2913 33.5912 87.2913 40.7564 87.2913 47.9254C87.2913 52.3878 88.8468 54.0318 93.313 54.1319C94.9416 54.1666 96.5779 53.9856 98.2027 53.8355C98.788 53.7815 99.0883 53.8586 99.1845 54.5054C99.2923 55.2215 99.5195 55.9223 99.7197 56.7231L99.7236 56.7269Z" fill="black"/>
<path d="M334.701 21.4361V25.1669C334.323 25.1669 333.985 25.1669 333.646 25.1669C330.439 25.1669 327.235 25.19 324.028 25.1515C323.281 25.1438 323.035 25.3479 323.038 26.1179C323.065 33.5719 323.05 41.0259 323.065 48.4798C323.065 49.1767 323.142 49.889 323.293 50.5705C323.654 52.2145 324.702 53.2502 326.311 53.7392C328.356 54.3591 330.439 54.1974 332.514 54.0049C334.828 53.7892 334.828 53.7777 335.332 56.084C335.371 56.2649 335.382 56.4536 335.421 56.7423C330.519 57.7357 325.768 59.4375 320.647 58.7521C316.177 58.1515 313.786 55.6835 313.748 51.1519C313.679 42.9625 313.721 34.7732 313.713 26.5838C313.713 24.9937 313.833 25.1862 312.339 25.1785C310.964 25.1708 309.59 25.1785 308.088 25.1785C308.088 24.42 308.042 23.7231 308.115 23.0416C308.138 22.8222 308.454 22.5527 308.697 22.4564C309.651 22.0829 310.629 21.7749 311.596 21.4322C314.364 20.4504 316.493 18.6909 317.972 16.1536C318.568 15.1333 319.111 14.0822 319.708 13.0581C319.904 12.7193 320.155 12.2033 320.44 12.161C321.221 12.0493 322.037 12.1109 322.827 12.1956C322.931 12.2072 323.046 12.7385 323.046 13.0311C323.065 15.4606 323.089 17.8939 323.038 20.3234C323.023 21.1666 323.212 21.4823 324.14 21.4669C327.281 21.4053 330.423 21.4438 333.565 21.4438C333.911 21.4438 334.258 21.4438 334.701 21.4438V21.4361Z" fill="black"/>
<path d="M338.724 58.0553C338.374 56.211 338.42 56.1302 340.041 55.4679C341.492 54.8712 342.932 54.2436 344.395 53.6737C344.9 53.4774 345.05 53.1925 345.05 52.6688C345.035 44.4448 345.035 36.2247 345.05 28.0007C345.05 27.427 344.892 27.1536 344.311 26.9958C342.644 26.5453 341.007 25.9601 339.332 25.5443C338.293 25.2863 338.686 24.5509 338.609 23.9541C338.524 23.3227 338.944 23.2534 339.429 23.1687C344.037 22.364 348.638 21.5362 353.243 20.7161C353.613 20.6507 353.986 20.6045 354.46 20.539V21.7749C354.46 31.9818 354.471 42.1886 354.441 52.3916C354.441 53.154 354.649 53.5351 355.365 53.8046C356.685 54.2975 357.967 54.8904 359.269 55.4333C360.37 55.8927 360.833 56.7654 360.659 58.0514H338.724V58.0553Z" fill="black"/>
<path d="M349.312 14.6713C348.438 14.5327 347.445 14.448 346.49 14.2016C345.081 13.8397 344.272 12.8656 344.06 11.4295C343.991 10.9559 343.93 10.4746 343.937 10.001C343.995 7.42526 345.081 6.11619 347.641 5.86978C349.089 5.73117 350.594 5.78123 352.027 6.02379C354.133 6.38186 355.08 7.79488 355.087 10.1281C355.099 12.4806 354.175 13.8127 352.092 14.3017C351.226 14.5058 350.325 14.5443 349.308 14.6752L349.312 14.6713Z" fill="black"/>
</svg>
