<svg width="329" height="80" viewBox="0 0 329 80" fill="none" xmlns="http://www.w3.org/2000/svg">
<path d="M234.404 58.0201H212.085C212.085 57.3863 212.049 56.7466 212.109 56.1188C212.124 55.9544 212.423 55.7661 212.629 55.6823C214.465 54.9111 216.3 54.1488 218.151 53.4164C218.611 53.234 218.787 52.9919 218.787 52.4807C218.772 43.8803 218.769 35.2798 218.79 26.6794C218.79 26.1024 218.563 25.9171 218.061 25.7855C216.279 25.3192 214.513 24.7961 212.731 24.3297C212.241 24.2012 212.049 24.0009 212.061 23.4688C212.085 22.0907 212.055 22.0817 213.38 21.8455C218.327 20.9637 223.277 20.0878 228.225 19.2119C228.294 19.1999 228.368 19.2119 228.545 19.2119V23.5256C229.8 23.0323 230.915 22.548 232.06 22.1534C234.386 21.3553 236.688 20.4286 239.076 19.8875C241.725 19.2836 244.436 19.3912 246.965 20.599C249.853 21.9801 251.33 24.4403 251.904 27.4686C252.152 28.7779 252.23 30.1321 252.236 31.4684C252.269 38.4276 252.257 45.3869 252.236 52.3462C252.236 52.9321 252.397 53.2311 252.959 53.4463C254.723 54.1249 256.451 54.8932 258.214 55.5688C258.8 55.793 259.045 56.0949 258.974 56.7137C258.926 57.1232 258.965 57.5447 258.965 58.0081H237.477C237.477 57.3833 237.435 56.7884 237.501 56.2055C237.525 55.9992 237.776 55.7571 237.982 55.6405C239.304 54.8961 240.637 54.1667 241.982 53.4702C242.415 53.246 242.58 52.971 242.577 52.4807C242.562 46.0177 242.574 39.5546 242.556 33.0946C242.556 32.3024 242.49 31.5012 242.338 30.724C241.761 27.7406 240.03 26.0247 237.02 25.5554C234.359 25.1398 231.708 25.4029 229.071 25.8722C228.485 25.9769 228.557 26.3625 228.557 26.7571C228.557 32.3233 228.557 37.8925 228.557 43.4588C228.557 46.4422 228.572 49.4256 228.545 52.406C228.539 52.959 228.718 53.246 229.229 53.4732C230.706 54.1279 232.144 54.8722 233.627 55.5149C234.222 55.772 234.488 56.0949 234.404 56.7406C234.353 57.1471 234.395 57.5687 234.395 58.0171L234.404 58.0201Z" fill="#E7AEC6"/>
<path d="M140.504 58.0082H119.035C119.035 57.3804 118.999 56.7437 119.059 56.1129C119.077 55.9336 119.346 55.7363 119.546 55.6256C120.873 54.8873 122.2 54.1549 123.549 53.4583C123.985 53.2312 124.138 52.9531 124.138 52.4659C124.123 46.0267 124.161 39.5906 124.099 33.1515C124.087 31.8571 123.863 30.5148 123.453 29.2892C122.7 27.0471 120.9 25.9172 118.634 25.5644C115.95 25.1459 113.274 25.397 110.614 25.8753C110.019 25.9829 110.111 26.3835 110.111 26.7691C110.111 33.008 110.111 39.2468 110.111 45.4857C110.111 47.7486 110.135 50.0116 110.096 52.2716C110.084 52.9053 110.261 53.2521 110.865 53.5122C112.327 54.1429 113.737 54.8873 115.196 55.518C115.794 55.7751 116.048 56.104 115.965 56.7467C115.914 57.1353 115.956 57.5329 115.956 57.9902H93.6279C93.6279 57.3804 93.5921 56.7407 93.6518 56.1129C93.6668 55.9485 93.9657 55.7632 94.172 55.6765C95.9596 54.9231 97.7473 54.1728 99.5559 53.4673C100.121 53.2461 100.348 52.9681 100.348 52.3313C100.324 43.8056 100.327 35.2799 100.345 26.7542C100.345 26.1862 100.19 25.9231 99.6157 25.7797C97.8788 25.3432 96.1629 24.8171 94.4261 24.3746C93.8252 24.2222 93.5681 23.989 93.598 23.3254C93.6548 22.0937 93.61 22.0788 94.8386 21.8606C99.8787 20.9578 104.922 20.064 110.081 19.1432V23.5227C111.645 22.9128 113.068 22.3419 114.503 21.7948C116.873 20.892 119.22 19.8906 121.788 19.6783C124.431 19.4571 127.025 19.5797 129.357 21.0564C132.027 22.7454 133.189 25.3432 133.608 28.3356C133.754 29.3878 133.79 30.464 133.793 31.5312C133.808 38.4427 133.811 45.3511 133.787 52.2626C133.787 52.9023 133.955 53.2341 134.579 53.4703C136.322 54.131 138.026 54.8992 139.766 55.5629C140.358 55.7901 140.582 56.104 140.516 56.7138C140.472 57.1233 140.507 57.5448 140.507 58.0052L140.504 58.0082Z" fill="#E7AEC6"/>
<path d="M44.1238 20.2344C43.0715 20.2344 42.076 20.2702 41.0866 20.2045C40.8743 20.1895 40.5993 19.8458 40.5036 19.5946C39.3348 16.4767 38.1898 13.3528 37.0479 10.2229C36.9044 9.82833 36.749 9.52043 36.2557 9.4726C30.4802 8.89266 24.8961 9.40085 19.847 12.5696C15.6828 15.1823 13.1418 19.0416 11.8444 23.6991C10.0807 30.0336 9.97904 36.392 12.3855 42.595C15.1208 49.6409 20.5076 53.3627 27.9034 54.3223C30.531 54.6631 33.1677 54.5824 35.7954 54.1908C36.5008 54.0861 36.9104 53.8171 37.1884 53.1086C38.3991 50.0086 39.6935 46.9385 40.9281 43.8475C41.1135 43.3841 41.3317 43.1809 41.8459 43.2048C42.7606 43.2466 43.6783 43.2167 44.6678 43.2167C44.6678 43.5814 44.6858 43.8714 44.6678 44.1554C44.3749 47.922 44.073 51.6887 43.789 55.4553C43.7561 55.9007 43.6455 56.1667 43.1522 56.2833C38.3513 57.4103 33.5563 58.5373 28.6029 58.7675C23.6525 58.9977 18.7977 58.5523 14.1821 56.5942C7.87452 53.9157 3.62362 49.2912 1.58187 42.7833C-0.734903 35.3935 -0.537604 27.9978 2.37704 20.8024C5.15418 13.9357 10.2481 9.3859 17.2074 6.91667C23.4671 4.69855 29.9033 4.61186 36.3813 5.6133C38.8086 5.98698 41.1912 6.65959 43.5946 7.18572C43.9713 7.26942 44.2105 7.37704 44.2075 7.84936C44.1895 11.8521 44.1955 15.8549 44.1925 19.8577C44.1925 19.9534 44.1596 20.049 44.1238 20.2374V20.2344Z" fill="#E7AEC6"/>
<path d="M49.8275 40.3558C49.8933 35.6744 50.8678 31.573 53.364 27.914C56.1052 23.8933 59.8748 21.3194 64.5801 20.1625C69.3691 18.9877 74.1342 19.0953 78.7079 21.0623C84.8691 23.7109 88.3039 28.5477 89.3412 35.0735C90.1334 40.0598 89.5504 44.9086 87.0812 49.3927C84.0888 54.8274 79.4045 57.9483 73.3211 58.9587C69.0403 59.6702 64.8103 59.3802 60.7956 57.6464C54.6165 54.9828 51.1638 50.1849 50.0936 43.6082C50.0248 43.1927 49.971 42.7712 49.9411 42.3497C49.8873 41.5814 49.8544 40.8102 49.8305 40.3558H49.8275ZM79.5629 39.1481C79.4912 38.2423 79.4344 36.628 79.2281 35.0287C78.8425 32.0513 78.122 29.1725 76.3583 26.6584C73.8711 23.119 69.3601 21.9442 65.6712 23.9172C63.3634 25.1518 62.093 27.2354 61.2918 29.6269C59.8061 34.0571 59.7941 38.613 60.2904 43.1897C60.5714 45.7696 61.1872 48.2717 62.4218 50.5884C64.2961 54.1069 67.2945 55.7451 71.1269 55.2549C74.3853 54.8393 76.4241 52.8185 77.7394 49.9696C79.2221 46.762 79.5211 43.3302 79.5659 39.1481H79.5629Z" fill="#E7AEC6"/>
<path d="M206.938 52.75C207.096 53.6169 207.263 54.5317 207.449 55.5361C205.751 56.0473 204.125 56.5734 202.474 57.0218C198.771 58.0322 195.04 58.9171 191.163 58.8065C186.463 58.675 182.263 57.2341 178.879 53.8561C176.141 51.1238 174.655 47.7398 174.06 43.9672C173.232 38.7148 173.791 33.6359 176.401 28.9276C179.686 22.9967 184.789 19.8459 191.563 19.4782C194.29 19.3317 196.983 19.6336 199.557 20.641C203.581 22.2135 205.924 25.2477 207.123 29.2863C207.903 31.914 208.029 34.6134 208.08 37.3248C208.091 37.9496 207.891 38.12 207.275 38.117C199.757 38.099 192.239 38.105 184.72 38.105C183.623 38.105 183.635 38.105 183.671 39.2021C183.776 42.3111 184.419 45.2735 186.212 47.8773C189.046 51.9847 193.088 53.8411 197.981 53.7036C200.603 53.6289 203.213 53.1326 205.829 52.8217C206.124 52.7859 206.414 52.7111 206.71 52.6633C206.752 52.6573 206.8 52.6962 206.938 52.75ZM183.776 35.4086C184.894 35.301 185.907 35.2053 186.924 35.1067C190.317 34.7748 193.707 34.4311 197.1 34.1202C197.659 34.0693 197.892 33.89 197.838 33.3041C197.76 32.4401 197.79 31.5642 197.7 30.7003C197.5 28.7632 197.144 26.8619 196.086 25.1759C195.285 23.8995 194.182 23.0296 192.687 22.7007C189.907 22.0849 187.25 23.197 185.695 25.6931C183.851 28.6556 183.686 31.9618 183.776 35.4086Z" fill="#E7AEC6"/>
<path d="M293.429 47.5126C295.053 47.5126 296.643 47.4887 298.23 47.5395C298.455 47.5455 298.742 47.8803 298.87 48.1284C299.925 50.1851 300.96 52.2508 301.973 54.3284C302.197 54.7858 302.457 55.0339 302.989 54.9741C304.541 54.8007 306.143 54.8456 307.635 54.451C310.609 53.6648 312.125 50.3495 310.849 47.5365C310.502 46.7712 309.799 46.0628 309.088 45.5815C306.926 44.1197 304.681 42.7804 302.469 41.3963C300.972 40.4607 299.45 39.5608 297.982 38.5833C294.643 36.3562 292.915 33.2951 293.397 29.2146C293.887 25.0534 296.257 22.2733 300.021 20.6112C302.52 19.5081 305.178 19.2121 307.847 19.535C311.103 19.9266 314.328 20.5544 317.569 21.0596C318.113 21.1433 318.301 21.3794 318.292 21.9414C318.262 24.2522 318.265 26.563 318.292 28.8768C318.298 29.4179 318.152 29.6301 317.578 29.6152C316.283 29.5793 314.989 29.6361 313.694 29.5793C313.401 29.5673 313.001 29.3132 312.86 29.0562C311.868 27.2506 310.917 25.4181 309.982 23.5796C309.778 23.179 309.539 22.9997 309.079 22.9698C307.462 22.8592 305.889 23.0266 304.412 23.7022C301.48 25.0444 300.891 29.0472 303.411 31.062C304.78 32.1561 306.35 33.0111 307.868 33.9049C309.626 34.9393 311.437 35.8809 313.21 36.8883C315.231 38.0363 316.965 39.5041 318.137 41.5488C320.743 46.1046 319.987 53.6199 313.273 57.0906C309.889 58.8394 306.272 59.1622 302.586 58.5793C299.692 58.1219 296.837 57.4104 293.962 56.8186C293.597 56.7438 293.322 56.6601 293.325 56.1758C293.346 53.3927 293.34 50.6096 293.343 47.8265C293.343 47.7577 293.379 47.686 293.426 47.5126H293.429Z" fill="#E7AEC6"/>
<path d="M275.197 19.9175H287.322V23.8126H275.227C275.227 24.1714 275.227 24.4344 275.227 24.7005C275.227 32.3802 275.227 40.0599 275.227 47.7397C275.227 48.1133 275.227 48.487 275.251 48.8577C275.454 51.7604 277.021 53.5271 279.92 53.7035C282.141 53.838 284.383 53.6228 286.616 53.554C286.859 53.548 287.098 53.5032 287.391 53.4703C287.645 54.4837 287.884 55.4373 288.147 56.4836C287.621 56.6211 287.155 56.7616 286.679 56.8603C283.612 57.488 280.563 58.2713 277.463 58.6718C275.574 58.914 273.571 58.7705 271.682 58.4387C267.807 57.7601 265.688 55.1503 265.562 51.1984C265.496 49.064 265.526 46.9236 265.526 44.7862C265.523 38.0989 265.514 31.4146 265.541 24.7274C265.541 24.0279 265.383 23.7738 264.644 23.8007C263.03 23.8545 261.413 23.8186 259.688 23.8186C259.688 22.9936 259.661 22.2044 259.712 21.4241C259.721 21.2657 260.008 21.0654 260.208 20.9937C261.189 20.6319 262.181 20.3031 263.171 19.9713C266.375 18.8921 268.68 16.7667 270.3 13.852C270.868 12.8326 271.424 11.8043 271.951 10.761C272.145 10.3754 272.378 10.2139 272.814 10.2319C273.58 10.2648 274.348 10.2409 275.203 10.2409V19.9175H275.197Z" fill="#E7AEC6"/>
<path d="M141.225 23.8188C141.225 22.9728 141.198 22.2075 141.249 21.4482C141.261 21.2868 141.53 21.0745 141.724 21.0028C142.585 20.6799 143.458 20.384 144.337 20.106C147.712 19.0358 150.178 16.8834 151.867 13.8073C152.417 12.8059 152.964 11.8015 153.478 10.7821C153.67 10.4054 153.885 10.2111 154.33 10.2291C155.119 10.2619 155.909 10.238 156.752 10.238V19.8728H168.853V23.7889H156.808C156.79 24.1357 156.767 24.3957 156.767 24.6588C156.767 32.3893 156.761 40.1199 156.773 47.8504C156.773 48.5679 156.814 49.3003 156.97 49.9968C157.448 52.1761 158.976 53.4167 161.349 53.7395C163.672 54.0564 165.968 53.7903 168.273 53.5452C168.467 53.5243 168.664 53.5063 168.936 53.4794C169.184 54.4719 169.427 55.4465 169.69 56.4927C169.14 56.6332 168.667 56.7737 168.189 56.8694C165.119 57.4972 162.07 58.2774 158.973 58.675C157.083 58.9171 155.078 58.7677 153.191 58.4269C149.377 57.7363 147.38 55.279 147.123 51.3749C147.084 50.78 147.078 50.1821 147.078 49.5873C147.078 41.3097 147.066 33.0321 147.093 24.7545C147.093 24.0071 146.917 23.768 146.142 23.7979C144.534 23.8606 142.92 23.8158 141.234 23.8158L141.225 23.8188Z" fill="#E7AEC6"/>
</svg>
