<svg width="523" height="81" viewBox="0 0 523 81" fill="none" xmlns="http://www.w3.org/2000/svg">
<path d="M6.30462 13.1045L0 10.4742V8.38662H23.0889C28.809 8.38662 32.1074 9.34682 35.0301 11.9355C37.577 14.1901 38.8713 16.9876 38.8713 20.3695C38.8713 27.2168 34.0698 31.4755 24.8843 32.6028C35.4059 32.9786 41.1259 37.4043 41.1259 45.2119C41.1259 49.3454 39.0801 53.2702 35.8652 55.4413C32.4832 57.6959 28.7255 58.5309 21.7946 58.5309H0V56.4433L6.30462 53.8129V13.1045ZM16.0746 31.2249H19.1643C25.1766 31.2249 28.7672 27.4674 28.7672 21.288C28.7672 15.1087 25.3018 11.7267 19.206 11.7267H16.0329V31.1833L16.0746 31.2249ZM16.0746 55.1072H19.4565C23.757 55.1072 25.7611 54.5227 27.8905 52.6856C29.9781 50.8068 31.0636 48.3434 31.0636 45.0867C31.0636 38.4063 26.8467 34.5652 19.5818 34.5652H16.1163V55.1072H16.0746ZM58.8289 53.7712L66.72 56.4016V58.4892H43.5058V56.4016L49.8939 53.7712V27.6761L43.5058 25.7138V23.6678L58.8289 20.9539V25.6302L59.6639 25.171C65.4674 21.9978 67.9308 21.0375 70.2689 21.0375C71.6885 21.0375 73.1916 21.4967 74.9452 22.3735V31.559H67.2628L65.2169 26.841C64.4654 26.7575 63.8809 26.674 63.5051 26.674C62.3778 26.674 60.4154 27.1333 58.8289 27.6343V53.7712ZM89.1409 24.6699L85.6755 31.6008H78.9951V24.3777C85.5502 22.4153 90.4352 21.4549 94.0259 21.4549C97.3243 21.4549 99.8295 21.9978 101.834 23.1251C104.673 24.7952 105.508 26.34 105.508 30.557V51.7671C105.508 52.6021 106.259 53.1867 107.929 53.646L111.896 54.6062V56.6938L111.144 56.9026L107.846 57.8628C106.134 58.4056 105.007 58.6979 104.547 58.7814C103.504 59.0737 102.46 59.2407 101.374 59.2407C98.9109 59.2407 97.7001 58.1969 96.7816 55.1908C92.4811 57.7377 88.5146 59.2407 85.8007 59.2407C80.0807 59.2407 75.9472 55.2743 75.9472 49.8465C75.9472 45.2538 78.4106 42.1641 83.0869 40.9951C86.3853 40.16 90.3935 39.5755 96.5311 39.0327V30.2229C96.5311 26.006 95.195 24.5029 91.3538 24.5029C91.0615 24.5029 90.7692 24.5029 89.6419 24.5864C89.4749 24.5864 89.3497 24.6699 89.0992 24.6699H89.1409ZM96.5728 41.4961L95.6125 41.663L92.2306 42.4146C86.7611 43.5419 85.2997 44.8362 85.2997 48.2599C85.2997 51.6836 87.7631 53.9799 91.6043 53.9799C93.1074 53.9799 94.8192 53.6876 96.5728 53.1448V41.4961ZM130.016 27.6761V53.7712L135.653 56.4016V58.4892H114.693V56.4016L121.081 53.7712V27.6761L114.693 25.8807V23.8349L130.016 21.0375V25.2544L130.768 24.9621L134.442 23.6261C136.613 22.7911 138.033 22.29 138.659 22.123C139.87 21.7472 141.289 21.5385 142.959 21.5385C146.174 21.5385 148.22 22.4987 150.016 24.7116C151.978 27.175 152.479 29.0538 152.479 34.1059V53.8129L158.784 56.4433V58.5309H138.617V56.4433L143.419 53.8129V36.444C143.419 29.2208 141.707 27.1333 135.903 27.1333C133.732 27.1333 132.521 27.3003 129.975 27.7178L130.016 27.6761ZM194.941 52.8527L200.87 54.5645V56.6521L185.547 59.5747V54.6898L184.879 55.0655C178.95 58.2387 176.152 59.1989 173.313 59.1989C165.714 59.1989 159.786 51.6 159.786 41.83C159.786 30.1812 168.261 21.3715 179.576 21.3715C181.747 21.3715 183.334 21.6638 185.588 22.3318V12.186L178.908 10.3906V8.30304L194.983 5.29688V52.8109L194.941 52.8527ZM185.547 25.338C184.127 24.8787 183.501 24.7952 181.998 24.7952C174.482 24.7952 169.43 30.8075 169.43 39.7424C169.43 48.6774 173.773 53.5624 180.787 53.5624C182.29 53.5624 183.877 53.3537 185.505 52.8109V25.2962L185.547 25.338ZM234.689 34.9827V55.149H250.555L254.897 46.5898H257.987L257.068 58.5309H218.573V56.4433L224.877 53.8129V13.1463L218.573 10.5159V8.42829H256.692V20.4529H253.77L250.012 11.8102H234.689V31.2667H247.298L250.012 24.5029H253.018V41.329H250.012L247.298 35.0244H234.689V34.9827ZM267.548 53.7712V12.2695L260.868 10.4742V8.38662L276.566 5.38046V53.8129L283.247 56.4433V58.5309H261.202V56.4433L267.506 53.8129L267.548 53.7712ZM317.149 39.4085H293.685C293.685 48.8027 298.862 54.3557 307.505 54.3557C309.676 54.3557 312.557 53.98 315.98 53.2284L316.523 56.0257C310.427 58.1134 305.167 59.2407 301.576 59.2407C290.971 59.2407 284.207 52.2681 284.207 41.2038C284.207 30.1394 291.723 21.4133 301.868 21.4133C308.256 21.4133 312.557 23.5009 314.811 27.8014C316.523 31.0163 316.982 33.2708 317.149 39.3667V39.4085ZM307.213 35.5672C307.046 27.5925 305.334 24.4611 300.991 24.4611C296.315 24.4611 293.768 28.7616 293.768 36.8615L307.213 35.5672ZM335.771 27.6761V53.7712L341.032 56.4016V58.4892H320.448V56.4016L326.836 53.7712V27.6761L320.448 25.6302V23.7514L335.771 20.9539V25.2544L336.606 24.9621L340.155 23.5426C345.249 21.5802 345.624 21.4549 347.963 21.4549C351.512 21.4549 353.432 22.5823 355.77 25.672L356.522 25.3797C362.91 22.6658 366.835 21.4549 369.757 21.4549C372.68 21.4549 375.561 22.7493 377.44 24.8369C379.318 27.0915 379.903 29.1792 379.903 33.6466V53.8129L386.291 56.4433V58.5309H365.707V56.4433L370.968 53.8129V35.5255C370.968 29.5967 368.505 26.7158 363.286 26.7158C361.24 26.7158 358.944 27.0916 356.898 27.6761C357.649 29.2627 357.858 30.7657 357.858 33.6048V53.7712L363.035 56.4016V58.4892H343.62V56.4016L348.798 53.7712V35.5672C348.798 29.8472 346.251 27.0915 341.115 27.0915C339.028 27.0915 337.065 27.3003 335.687 27.6761H335.771ZM420.11 39.4085H396.646C396.646 48.8027 401.823 54.3557 410.466 54.3557C412.637 54.3557 415.518 53.98 418.941 53.2284L419.484 56.0257C413.388 58.1134 408.128 59.2407 404.537 59.2407C393.932 59.2407 387.168 52.2681 387.168 41.2038C387.168 30.1394 394.683 21.4133 404.829 21.4133C411.217 21.4133 415.518 23.5009 417.772 27.8014C419.484 31.0163 419.943 33.2708 420.11 39.3667V39.4085ZM410.173 35.5672C410.006 27.5925 408.295 24.4611 403.952 24.4611C399.276 24.4611 396.729 28.7616 396.729 36.8615L410.173 35.5672ZM438.732 27.6761V53.7712L444.368 56.4016V58.4892H423.409V56.4016L429.797 53.7712V27.6761L423.409 25.8807V23.8349L438.732 21.0375V25.2544L439.483 24.9621L443.158 23.6261C445.329 22.7911 446.748 22.29 447.375 22.123C448.585 21.7472 450.005 21.5385 451.675 21.5385C454.89 21.5385 456.936 22.4987 458.731 24.7116C460.693 27.175 461.195 29.0538 461.195 34.1059V53.8129L467.499 56.4433V58.5309H447.333V56.4433L452.134 53.8129V36.444C452.134 29.2208 450.422 27.1333 444.619 27.1333C442.448 27.1333 441.237 27.3003 438.69 27.7178L438.732 27.6761ZM472.175 25.5885H466.539V23.0415L467.374 22.7493C473.553 20.6616 473.971 20.3277 476.392 16.5282C477.436 14.8581 477.895 14.1067 478.563 12.5618H481.486V21.8725H493.051V25.6302H481.486V48.0512C481.486 53.1032 482.989 54.6062 488.167 54.6062C489.002 54.6062 489.753 54.6063 490.421 54.4393L493.051 54.0634L493.719 56.9861L492.885 57.1948L488.96 58.1551C486.246 58.8232 483.156 59.1989 480.985 59.1989C474.889 59.1989 472.134 56.3598 472.134 50.1805V25.5885H472.175ZM497.435 57.2366V48.4269H502.487L506.036 55.4831C506.955 55.5666 507.331 55.5665 507.706 55.5665C512.216 55.5665 514.679 53.7712 514.679 50.3893C514.679 47.9677 514.095 47.2161 510.253 44.9614L504.032 41.2038C499.231 38.3646 497.477 35.8595 497.477 31.8095C497.477 25.8807 502.571 21.4549 509.585 21.4549C510.629 21.4549 512.383 21.6219 514.095 21.8307C515.514 21.9977 516.641 22.2065 517.476 22.3735L520.566 23.0415L521.401 23.2086V31.2667H516.433L513.134 24.9621C512.758 24.8786 512.592 24.8787 512.299 24.8787C507.999 24.8787 505.702 26.4653 505.702 29.4714C505.702 31.6425 506.537 32.6446 509.836 34.5234L516.433 38.1976C520.483 40.5357 522.528 43.7506 522.528 47.9676C522.528 54.648 517.101 59.3242 509.46 59.3242C507.581 59.3242 505.327 59.0319 502.028 58.2804L498.646 57.5289L497.519 57.3201L497.435 57.2366Z" fill="black"/>
</svg>
