<svg width="381" height="81" viewBox="0 0 381 81" fill="none" xmlns="http://www.w3.org/2000/svg">
<path d="M35.2388 55.1606L39.3723 44.8478H42.7542L41.8357 57.1648L40.7084 57.457C33.7775 59.1688 29.6023 59.7951 25.0513 59.7951C9.39424 59.7951 0 50.4009 0 34.8273C0 19.2538 10.6886 8.14769 27.5147 8.14769C32.1909 8.14769 36.3244 8.73224 42.2532 10.3188V22.7192H38.9548L35.1971 12.4899C33.9028 12.1976 33.527 12.1977 31.8152 12.1977C24.6755 12.1977 19.874 13.8677 16.2416 17.5419C12.1916 21.7589 10.0623 27.6042 10.0623 34.6186C10.0623 47.7705 17.4942 55.6617 29.7693 55.6617C31.4811 55.6617 33.0677 55.4947 34.9466 55.2024L35.1553 55.1189L35.2388 55.1606ZM46.0944 41.8835C46.0944 30.0258 53.9856 22.0512 65.7179 22.0512C77.4503 22.0512 84.5899 29.3578 84.5899 40.5474C84.5899 51.7369 76.6988 60.2544 64.9664 60.2544C53.234 60.2544 46.0944 52.906 46.0944 41.9252V41.8835ZM56.1984 40.2969C56.1984 50.4426 59.6639 56.455 65.4257 56.455C71.1875 56.455 74.5276 51.0271 74.5276 41.7164C74.5276 31.6541 70.9787 25.3914 65.3004 25.3914C59.6221 25.3914 56.1984 30.8609 56.1984 40.2969ZM101.959 28.2723V54.3674L109.85 56.9977V59.0853H86.6358V56.9977L93.0239 54.3674V28.2723L86.6358 26.3099V24.264L101.959 21.5502V26.2264L102.794 25.7671C108.597 22.5939 111.061 21.6336 113.399 21.6336C114.818 21.6336 116.322 22.0929 118.075 22.9697V32.1552H110.393L108.347 27.4372C107.595 27.3537 107.011 27.2702 106.635 27.2702C105.508 27.2702 103.545 27.7295 101.959 28.2305V28.2723ZM152.604 40.0046H129.139C129.139 49.3989 134.317 54.9519 142.959 54.9519C145.131 54.9519 148.011 54.5761 151.435 53.8246L151.978 56.622C145.882 58.7096 140.621 59.8369 137.031 59.8369C126.426 59.8369 119.662 52.8643 119.662 41.7999C119.662 30.7356 127.177 22.0094 137.323 22.0094C143.711 22.0094 148.011 24.097 150.266 28.3975C151.978 31.6124 152.437 33.867 152.604 39.9628V40.0046ZM142.709 36.1634C142.542 28.1888 140.83 25.0573 136.488 25.0573C131.812 25.0573 129.265 29.3578 129.265 37.4577L142.709 36.1634ZM189.221 59.8369L171.393 13.6172L165.589 11.0703V8.98272H187.3V11.0703L181.58 13.6172L191.517 39.8376C192.561 42.468 193.02 43.9711 193.939 47.186L207.634 13.5755L201.914 11.0286V8.94099H219.115V11.0286L213.312 13.5755L193.02 59.7951H189.179L189.221 59.8369ZM226.422 25.2661L222.957 32.1969H216.276V24.9738C222.831 23.0115 227.716 22.0512 231.307 22.0512C234.605 22.0512 237.111 22.5939 239.115 23.7212C241.954 25.3913 242.789 26.9361 242.789 31.1531V52.3632C242.789 53.1983 243.54 53.7828 245.211 54.2421L249.177 55.2024V57.29L248.425 57.4988L245.127 58.4591C243.415 59.0019 242.288 59.2941 241.829 59.3776C240.785 59.6699 239.741 59.8369 238.655 59.8369C236.192 59.8369 234.981 58.7931 234.063 55.7869C229.762 58.3338 225.796 59.8369 223.082 59.8369C217.362 59.8369 213.228 55.8704 213.228 50.4427C213.228 45.8499 215.692 42.7602 220.368 41.5912C223.666 40.7561 227.675 40.1716 233.812 39.6288V30.8191C233.812 26.6021 232.476 25.0991 228.635 25.0991C228.343 25.0991 228.05 25.0991 226.923 25.1826C226.756 25.1826 226.631 25.2661 226.38 25.2661H226.422ZM233.854 42.0922L232.894 42.2592L229.512 43.0108C224.042 44.1381 222.581 45.4324 222.581 48.8561C222.581 52.2797 225.044 54.5761 228.885 54.5761C230.389 54.5761 232.1 54.2838 233.854 53.7411V42.0922ZM258.112 54.3674V12.8657L251.432 11.0703V8.98272L267.13 5.97656V54.4091L273.811 57.0395V59.1271H251.766V57.0395L258.07 54.4091L258.112 54.3674ZM301.701 60.2962V55.8704L301.033 56.1627C293.894 59.0018 291.054 59.8369 288.424 59.8369C285.627 59.8369 282.871 58.626 281.284 56.6637C279.489 54.4091 278.946 52.238 278.946 47.1025V28.147L272.558 26.2681V24.2223L288.257 21.5084V44.7226C288.257 52.0292 289.969 54.1168 295.856 54.1168C297.902 54.1168 298.779 54.0334 301.117 53.5741L301.701 53.4906V28.0635L295.397 26.1847V24.1388L310.72 21.4249V53.2818L317.024 54.9936V57.0812L301.701 60.0874V60.2962ZM351.094 40.0046H327.629C327.629 49.3989 332.807 54.9519 341.449 54.9519C343.62 54.9519 346.501 54.5761 349.925 53.8246L350.468 56.622C344.372 58.7096 339.111 59.8369 335.52 59.8369C324.915 59.8369 318.152 52.8643 318.152 41.7999C318.152 30.7356 325.667 22.0094 335.813 22.0094C342.201 22.0094 346.501 24.097 348.756 28.3975C350.468 31.6124 350.927 33.867 351.094 39.9628V40.0046ZM341.157 36.1634C340.99 28.1888 339.278 25.0573 334.936 25.0573C330.26 25.0573 327.713 29.3578 327.713 37.4577L341.157 36.1634ZM355.729 57.791V48.9813H360.781L364.329 56.0374C365.248 56.1209 365.624 56.121 366 56.121C370.509 56.121 372.972 54.3256 372.972 50.9437C372.972 48.522 372.388 47.7705 368.546 45.5159L362.325 41.7582C357.524 38.9191 355.77 36.4139 355.77 32.364C355.77 26.4352 360.864 22.0094 367.878 22.0094C368.922 22.0094 370.676 22.1764 372.388 22.3852C373.807 22.5522 374.935 22.7609 375.77 22.9279L378.859 23.596L379.694 23.763V31.8212H374.726L371.427 25.5166C371.052 25.4331 370.885 25.4331 370.592 25.4331C366.292 25.4331 363.995 27.0197 363.995 30.0259C363.995 32.197 364.831 33.199 368.129 35.0778L374.726 38.752C378.776 41.0902 380.822 44.3051 380.822 48.522C380.822 55.2024 375.394 59.8786 367.753 59.8786C365.874 59.8786 363.62 59.5864 360.321 58.8348L356.939 58.0833L355.812 57.8745L355.729 57.791Z" fill="white"/>
</svg>
