<svg width="379" height="81" viewBox="0 0 379 81" fill="none" xmlns="http://www.w3.org/2000/svg">
<path d="M6.34628 52.3904V11.7238L0.0416655 9.0934V7.00579H23.7987C32.3579 7.00579 37.1594 8.50889 41.8356 12.4753C47.0964 16.9846 49.7267 23.2891 49.7267 31.3473C49.7267 39.4055 47.0964 46.0858 42.0443 50.7621C37.1593 55.1878 31.0636 57.1502 22.2539 57.1502H0V55.0626L6.30449 52.4322L6.34628 52.3904ZM16.1163 53.3925H20.7925C26.6378 53.3925 30.9383 51.8059 33.9444 48.591C37.7021 44.4575 39.6646 38.7375 39.6646 31.8066C39.6646 24.8757 37.7856 19.5732 34.2367 15.7737C30.8548 12.1831 26.9301 10.7217 20.2497 10.7217H16.1163V53.3925ZM59.4969 52.3904V26.2953L53.1088 24.4164V22.3706L68.8075 19.5732V52.3487L75.1956 54.9791V57.0667H53.1088V54.9791L59.4969 52.3487V52.3904ZM58.3695 9.26041C58.3695 6.46301 60.0814 5.12695 63.7973 5.12695C67.8473 5.12695 69.6008 6.33775 69.6008 9.0934C69.6008 12.0996 68.0142 13.3939 64.1313 13.3939C59.9978 13.3939 58.4113 12.2666 58.4113 9.26041H58.3695ZM78.9533 55.8559V47.0461H84.0054L87.5543 54.1022C88.4729 54.1857 88.8486 54.1858 89.2244 54.1858C93.7336 54.1858 96.1969 52.3904 96.1969 49.0085C96.1969 46.5869 95.6124 45.8353 91.7712 43.5807L85.5502 39.823C80.7487 36.9839 78.995 34.4787 78.995 30.4288C78.995 24.5 84.0888 20.0742 91.1032 20.0742C92.147 20.0742 93.9006 20.2412 95.6125 20.45C97.032 20.617 98.1593 20.8258 98.9944 20.9928L102.084 21.6608L102.919 21.8278V29.886H97.9506L94.6521 23.5814C94.2763 23.4979 94.1094 23.4979 93.8171 23.4979C89.5167 23.4979 87.2202 25.0845 87.2202 28.0907C87.2202 30.2618 88.0552 31.2638 91.3537 33.1427L97.9506 36.8168C102.001 39.155 104.046 42.3699 104.046 46.5869C104.046 53.2672 98.6185 57.9435 90.9779 57.9435C89.0991 57.9435 86.8444 57.6512 83.546 56.8997L80.1641 56.1481L79.0368 55.9393L78.9533 55.8559ZM112.773 24.2077H107.136V21.6608L107.971 21.3685C114.15 19.2809 114.568 18.9469 116.99 15.1475C118.033 13.4774 118.493 12.7258 119.161 11.181H122.083V20.4918H133.649V24.2495H122.083V46.6704C122.083 51.7224 123.586 53.2254 128.764 53.2254C129.599 53.2254 130.35 53.2254 131.018 53.0584L133.649 52.6827L134.317 55.6053L133.482 55.8141L129.557 56.7744C126.843 57.4424 123.753 57.8182 121.582 57.8182C115.486 57.8182 112.731 54.979 112.731 48.7997V24.2077H112.773ZM143.502 52.3904V26.2953L137.114 24.4164V22.3706L152.813 19.5732V52.3487L159.201 54.9791V57.0667H137.114V54.9791L143.502 52.3487V52.3904ZM142.375 9.26041C142.375 6.46301 144.087 5.12695 147.803 5.12695C151.853 5.12695 153.606 6.33775 153.606 9.0934C153.606 12.0996 152.02 13.3939 148.137 13.3939C144.003 13.3939 142.417 12.2666 142.417 9.26041H142.375ZM177.405 26.3371V52.4322L183.042 55.0626V57.1502H162.082V55.0626L168.47 52.4322V26.3371L162.082 24.5417V22.4958L177.405 19.6985V23.9154L178.156 23.6232L181.831 22.2871C184.002 21.4521 185.421 20.951 186.048 20.784C187.259 20.4082 188.678 20.1995 190.348 20.1995C193.563 20.1995 195.609 21.1598 197.404 23.3726C199.367 25.836 199.868 27.7149 199.868 32.7669V52.4739L206.172 55.1043V57.1919H186.006V55.1043L190.807 52.4739V35.105C190.807 27.8819 189.096 25.7943 183.292 25.7943C181.121 25.7943 179.91 25.9613 177.363 26.3788L177.405 26.3371ZM238.28 30.22H231.975L228.51 23.2891H227.925C221.37 23.2891 216.569 29.5102 216.569 38.0277C216.569 47.6307 221.662 52.9749 230.764 52.9749C232.727 52.9749 234.438 52.7662 237.152 52.2234L237.987 52.0146L238.53 54.9373C232.058 56.9832 227.633 57.7764 224.084 57.7764C213.938 57.7764 206.882 50.4698 206.882 39.9483C206.882 28.0071 215.149 20.0325 227.466 20.0325C230.681 20.0325 233.937 20.5753 238.28 21.7026V30.22ZM246.087 24.2077H240.451V21.6608L241.286 21.3685C247.465 19.2809 247.883 18.9469 250.304 15.1475C251.348 13.4774 251.807 12.7258 252.475 11.181H255.398V20.4918H266.963V24.2495H255.398V46.6704C255.398 51.7224 256.901 53.2254 262.078 53.2254C262.913 53.2254 263.665 53.2254 264.333 53.0584L266.963 52.6827L267.631 55.6053L266.796 55.8141L262.872 56.7744C260.158 57.4424 257.068 57.8182 254.897 57.8182C248.801 57.8182 246.046 54.979 246.046 48.7997V24.2077H246.087ZM276.817 52.3904V26.2953L270.429 24.4164V22.3706L286.128 19.5732V52.3487L292.516 54.9791V57.0667H270.429V54.9791L276.817 52.3487V52.3904ZM275.69 9.26041C275.69 6.46301 277.401 5.12695 281.117 5.12695C285.167 5.12695 286.921 6.33775 286.921 9.0934C286.921 12.0996 285.334 13.3939 281.451 13.3939C277.318 13.3939 275.731 12.2666 275.731 9.26041H275.69ZM293.434 39.9065C293.434 28.0489 301.325 20.0742 313.058 20.0742C324.79 20.0742 331.93 27.3809 331.93 38.5705C331.93 49.76 324.039 58.2775 312.306 58.2775C300.574 58.2775 293.434 50.9291 293.434 39.9483V39.9065ZM303.497 38.3617C303.497 48.5075 306.962 54.5198 312.724 54.5198C318.486 54.5198 321.826 49.092 321.826 39.7812C321.826 29.719 318.277 23.4562 312.599 23.4562C306.92 23.4562 303.497 28.9257 303.497 38.3617ZM349.299 26.3371V52.4322L354.935 55.0626V57.1502H333.976V55.0626L340.364 52.4322V26.3371L333.976 24.5417V22.4958L349.299 19.6985V23.9154L350.05 23.6232L353.724 22.2871C355.896 21.4521 357.315 20.951 357.941 20.784C359.152 20.4082 360.572 20.1995 362.242 20.1995C365.457 20.1995 367.503 21.1598 369.298 23.3726C371.26 25.836 371.761 27.7149 371.761 32.7669V52.4739L378.066 55.1043V57.1919H357.9V55.1043L362.701 52.4739V35.105C362.701 27.8819 360.989 25.7943 355.186 25.7943C353.015 25.7943 351.804 25.9613 349.257 26.3788L349.299 26.3371Z" fill="black"/>
</svg>
