<svg width="818" height="889" viewBox="0 0 818 889" fill="none" xmlns="http://www.w3.org/2000/svg">
<path d="M173.79 236.881C77.8037 236.881 0.00195312 314.709 0.00195312 410.536V876.976C0.00195312 880.66 3.15644 883.815 6.94712 883.815C8.96174 883.815 10.4992 882.993 11.5861 881.959L342.277 464.507C345.378 460.584 347.366 455.707 347.366 450.087V410.536C347.366 314.709 269.591 236.881 173.79 236.881Z" fill="white"/>
<path d="M636.866 236.881C540.986 236.881 463.131 314.709 463.131 410.536V876.976C463.131 880.66 466.1 883.815 470.103 883.815C471.799 883.815 473.522 882.993 474.741 881.959L805.538 464.507C808.56 460.584 810.548 455.707 810.548 450.087V410.536C810.522 314.709 732.958 236.881 636.866 236.881Z" fill="white"/>
</svg>
