<svg width="395" height="81" viewBox="0 0 395 81" fill="none" xmlns="http://www.w3.org/2000/svg">
<path d="M16.1163 34.8923V55.0586H31.9822L36.3244 46.4994H39.4141L38.4955 58.4405H0V56.3529L6.30458 53.7225V13.0559L0 10.4255V8.33793H38.1197V20.3625H35.1971L31.4394 11.7198H16.1163V31.1764H28.7255L31.4394 24.4125H34.4455V41.2386H31.4394L28.7255 34.934H16.1163V34.8923ZM58.119 27.5857V53.6808L63.7556 56.3111V58.3987H42.796V56.3111L49.1841 53.6808V27.5857L42.796 25.7903V23.7445L58.119 20.9471V25.1641L58.8706 24.8718L62.5448 23.5357C64.7159 22.7007 66.1354 22.1996 66.7617 22.0326C67.9725 21.6569 69.3921 21.4481 71.0622 21.4481C74.2771 21.4481 76.323 22.4084 78.1183 24.6213C80.0807 27.0846 80.5817 28.9635 80.5817 34.0155V53.7225L86.8863 56.3529V58.4405H66.72V56.3529L71.5215 53.7225V36.3536C71.5215 29.1305 69.8096 27.0429 64.0061 27.0429C61.835 27.0429 60.6242 27.2099 58.0773 27.6274L58.119 27.5857ZM91.5625 25.4981H85.926V22.9512L86.761 22.6589C92.9403 20.5713 93.3579 20.2373 95.7795 16.4379C96.8233 14.7678 97.2826 14.0162 97.9506 12.4714H100.873V21.7821H112.439V25.5398H100.873V47.9607C100.873 53.0127 102.376 54.5158 107.554 54.5158C108.389 54.5158 109.14 54.5159 109.808 54.3488L112.439 53.973L113.107 56.8957L112.272 57.1044L108.347 58.0648C105.633 58.7328 102.543 59.1086 100.372 59.1086C94.2764 59.1086 91.5208 56.2694 91.5208 50.0901V25.4981H91.5625ZM131.102 27.3769V53.6808L136.655 56.3111V58.3987H115.737V56.3111L122.042 53.6808V12.1791L115.361 10.3837V8.29614L131.06 5.29004V25.1223L131.895 24.83C137.824 22.4919 141.874 21.3646 144.379 21.3646C147.009 21.3646 149.64 22.5754 151.226 24.5377C153.272 26.9594 153.857 29.214 153.857 33.8485V53.6808L160.245 56.3111V58.3987H139.661V56.3111L144.922 53.6808V36.0196C144.922 29.2557 142.751 26.6253 137.239 26.6253C135.152 26.6253 132.521 26.9176 131.06 27.3769H131.102ZM187.843 59.6096V55.1839L187.175 55.4761C180.035 58.3153 177.196 59.1503 174.566 59.1503C171.768 59.1503 169.013 57.9395 167.426 55.9772C165.631 53.7226 165.088 51.5514 165.088 46.4159V27.4604L158.7 25.5815V23.5357L174.399 20.8218V44.0361C174.399 51.3427 176.111 53.4303 181.998 53.4303C184.044 53.4303 184.92 53.3468 187.259 52.8875L187.843 52.804V27.3769L181.538 25.4981V23.4522L196.862 20.7383V52.5952L203.166 54.3071V56.3947L187.843 59.4008V59.6096ZM206.924 57.1462V48.3365H211.976L215.525 55.3927C216.443 55.4762 216.819 55.4761 217.195 55.4761C221.704 55.4761 224.167 53.6808 224.167 50.2989C224.167 47.8773 223.583 47.1257 219.742 44.8711L213.521 41.1134C208.719 38.2742 206.966 35.7691 206.966 31.7191C206.966 25.7903 212.059 21.3646 219.074 21.3646C220.117 21.3646 221.871 21.5316 223.583 21.7403C225.002 21.9074 226.13 22.1161 226.965 22.2831L230.054 22.9512L230.89 23.1182V31.1764H225.921L222.623 24.8718C222.247 24.7883 222.08 24.7883 221.788 24.7883C217.487 24.7883 215.191 26.3748 215.191 29.381C215.191 31.5521 216.026 32.5542 219.324 34.433L225.921 38.1072C229.971 40.4453 232.017 43.6603 232.017 47.8772C232.017 54.5576 226.589 59.2338 218.948 59.2338C217.07 59.2338 214.815 58.9416 211.517 58.19L208.135 57.4385L207.007 57.2297L206.924 57.1462ZM241.996 53.6808V27.5857L235.608 25.7069V23.661L251.306 20.8636V53.639L257.694 56.2694V58.357H235.608V56.2694L241.996 53.639V53.6808ZM240.868 10.5091C240.868 7.71167 242.58 6.37557 246.296 6.37557C250.346 6.37557 252.1 7.58637 252.1 10.342C252.1 13.3482 250.513 14.6425 246.63 14.6425C242.497 14.6425 240.91 13.5152 240.91 10.5091H240.868ZM273.059 24.5795L269.594 31.5104H262.913V24.2872C269.469 22.3249 274.354 21.3646 277.944 21.3646C281.243 21.3646 283.748 21.9074 285.752 23.0347C288.591 24.7048 289.426 26.2496 289.426 30.4666V51.6766C289.426 52.5117 290.178 53.0963 291.848 53.5555L295.814 54.5158V56.6034L295.063 56.8122L291.764 57.7725C290.052 58.3153 288.925 58.6075 288.466 58.691C287.422 58.9833 286.378 59.1503 285.293 59.1503C282.829 59.1503 281.618 58.1065 280.7 55.1004C276.399 57.6472 272.433 59.1503 269.719 59.1503C263.999 59.1503 259.866 55.1839 259.866 49.7561C259.866 45.1633 262.329 42.0737 267.005 40.9046C270.304 40.0696 274.312 39.4851 280.449 38.9423V30.1326C280.449 25.9156 279.113 24.4125 275.272 24.4125C274.98 24.4125 274.688 24.4125 273.56 24.496C273.393 24.496 273.268 24.5795 273.017 24.5795H273.059ZM280.491 41.4056L279.531 41.5726L276.149 42.3242C270.679 43.4515 269.218 44.7458 269.218 48.1695C269.218 51.5932 271.681 53.8896 275.523 53.8896C277.026 53.8896 278.738 53.5973 280.491 53.0545V41.4056ZM299.488 57.1462V48.3365H304.54L308.089 55.3927C309.008 55.4762 309.384 55.4761 309.759 55.4761C314.269 55.4761 316.732 53.6808 316.732 50.2989C316.732 47.8773 316.147 47.1257 312.306 44.8711L306.085 41.1134C301.284 38.2742 299.53 35.7691 299.53 31.7191C299.53 25.7903 304.624 21.3646 311.638 21.3646C312.682 21.3646 314.436 21.5316 316.147 21.7403C317.567 21.9074 318.694 22.1161 319.529 22.2831L322.619 22.9512L323.454 23.1182V31.1764H318.486L315.187 24.8718C314.811 24.7883 314.644 24.7883 314.352 24.7883C310.052 24.7883 307.755 26.3748 307.755 29.381C307.755 31.5521 308.59 32.5542 311.889 34.433L318.486 38.1072C322.536 40.4453 324.581 43.6603 324.581 47.8772C324.581 54.5576 319.154 59.2338 311.513 59.2338C309.634 59.2338 307.38 58.9416 304.081 58.19L300.699 57.4385L299.572 57.2297L299.488 57.1462ZM343.537 27.5857V53.6808L348.798 56.3111V58.3987H328.214V56.3111L334.602 53.6808V27.5857L328.214 25.5398V23.661L343.537 20.8636V25.1641L344.372 24.8718L347.921 23.4522C353.015 21.4898 353.39 21.3646 355.729 21.3646C359.277 21.3646 361.198 22.4919 363.536 25.5815L364.288 25.2893C370.676 22.5754 374.601 21.3646 377.523 21.3646C380.446 21.3646 383.327 22.6589 385.206 24.7465C387.084 27.0011 387.669 29.0887 387.669 33.5562V53.7225L394.057 56.3529V58.4405H373.473V56.3529L378.734 53.7225V35.4351C378.734 29.5062 376.271 26.6253 371.052 26.6253C369.006 26.6253 366.709 27.0012 364.663 27.5857C365.415 29.1723 365.624 30.6753 365.624 33.5145V53.6808L370.801 56.3111V58.3987H351.386V56.3111L356.564 53.6808V35.4768C356.564 29.7568 354.017 27.0012 348.881 27.0012C346.794 27.0012 344.831 27.2099 343.453 27.5857H343.537Z" fill="black"/>
</svg>
