<svg width="287" height="80" viewBox="0 0 287 80" fill="none" xmlns="http://www.w3.org/2000/svg">
<path d="M43.0382 41.8958V56.2697C35.893 58.0665 30.461 58.9022 25.5722 58.9022C9.52689 58.9022 0 49.5006 0 33.706C0 17.9114 10.9894 7.21458 28.121 7.21458C32.4249 7.21458 36.0183 7.75778 42.5785 9.09489L43.7903 9.38738V21.7974H40.2386L36.478 11.4766C35.1826 11.3095 34.7648 11.2677 33.177 11.2677C25.0708 11.2677 20.3073 12.7719 16.5467 16.3654C12.2429 20.5857 10.0701 26.4355 10.0701 33.6642C10.0701 46.6593 17.5078 54.7237 29.7089 54.7237C31.422 54.7237 32.0488 54.6401 33.6366 54.3476V41.854L27.3271 39.2216V37.1324H49.3894V39.2216L43.0799 41.854L43.0382 41.8958ZM51.7294 40.9348C51.7294 29.0679 59.6266 21.0871 71.3681 21.0871C83.1096 21.0871 90.2548 28.3994 90.2548 39.5977C90.2548 50.7959 82.3575 59.32 70.616 59.32C58.8745 59.32 51.7294 51.9659 51.7294 40.9766V40.9348ZM61.8412 39.347C61.8412 49.5006 65.3094 55.5176 71.0756 55.5176C76.8419 55.5176 80.1847 50.0856 80.1847 40.7676C80.1847 30.6975 76.633 24.4298 70.9503 24.4298C65.2676 24.4298 61.8412 29.9036 61.8412 39.347ZM144.658 52.5091L150.592 54.2223V56.3115L135.257 59.2364V54.3476L134.588 54.7237C128.655 57.8993 125.855 58.8604 123.014 58.8604C115.409 58.8604 109.476 51.2556 109.476 41.478C109.476 29.8201 117.958 21.0035 129.282 21.0035C131.454 21.0035 133.042 21.296 135.299 21.9646V11.8945L128.613 10.0977V8.00849L144.7 5V52.5509L144.658 52.5091ZM135.257 24.973C133.836 24.5134 133.209 24.4298 131.705 24.4298C124.184 24.4298 119.128 30.4468 119.128 39.3887C119.128 48.3306 123.474 53.2194 130.493 53.2194C131.998 53.2194 133.585 53.0105 135.215 52.4673V24.9313L135.257 24.973ZM160.286 53.4284V27.313L153.893 25.4327V23.3852L169.604 20.5857V53.3866L175.997 56.019V58.1082H153.893V56.019L160.286 53.3866V53.4284ZM159.158 10.2231C159.158 7.42351 160.871 6.0864 164.59 6.0864C168.643 6.0864 170.398 7.29815 170.398 10.0559C170.398 13.0644 168.81 14.3598 164.924 14.3598C160.787 14.3598 159.199 13.2316 159.199 10.2231H159.158ZM180.718 25.182H175.078V22.6331L175.913 22.3406C182.097 20.2514 182.515 19.9171 184.939 16.1147C185.983 14.4433 186.443 13.6912 187.112 12.1452H190.036V21.4631H201.611V25.2238H190.036V47.6621C190.036 52.718 191.541 54.2223 196.722 54.2223C197.558 54.2223 198.31 54.2223 198.978 54.0551L201.611 53.6791L202.279 56.604L201.444 56.8129L197.516 57.774C194.8 58.4425 191.708 58.8186 189.535 58.8186C183.434 58.8186 180.677 55.9772 180.677 49.7931V25.182H180.718ZM209.926 25.182H204.285V22.6331L205.121 22.3406C211.305 20.2514 211.723 19.9171 214.146 16.1147C215.191 14.4433 215.65 13.6912 216.319 12.1452H219.244V21.4631H230.818V25.2238H219.244V47.6621C219.244 52.718 220.748 54.2223 225.929 54.2223C226.765 54.2223 227.517 54.2223 228.186 54.0551L230.818 53.6791L231.487 56.604L230.651 56.8129L226.723 57.774C224.007 58.4425 220.915 58.8186 218.742 58.8186C212.642 58.8186 209.884 55.9772 209.884 49.7931V25.182H209.926ZM232.49 40.9348C232.49 29.0679 240.387 21.0871 252.128 21.0871C263.87 21.0871 271.015 28.3994 271.015 39.5977C271.015 50.7959 263.118 59.32 251.376 59.32C239.635 59.32 232.49 51.9659 232.49 40.9766V40.9348ZM242.56 39.347C242.56 49.5006 246.028 55.5176 251.794 55.5176C257.56 55.5176 260.903 50.0856 260.903 40.7676C260.903 30.6975 257.351 24.4298 251.669 24.4298C245.986 24.4298 242.56 29.9036 242.56 39.347ZM279.33 46.5757L275.486 7.96671H286.935L283.091 46.5757H279.33ZM276.238 54.6819C276.238 51.757 277.909 50.2527 281.336 50.2527C284.553 50.2527 286.308 51.757 286.308 54.473C286.308 57.4815 284.72 58.9022 281.336 58.9022C277.742 58.9022 276.238 57.6068 276.238 54.6819Z" fill="#E7AEC6"/>
</svg>
