<svg width="471" height="81" viewBox="0 0 471 81" fill="none" xmlns="http://www.w3.org/2000/svg">
<path d="M31.1901 43.0943L45.637 8.35515H61.7122V10.4428L55.3239 13.0733V53.7416L61.7122 56.3721V58.4598H39.6244V56.3721L45.637 53.7416V19.5034L29.3112 58.8773H27.4323L11.19 19.5034V53.7833L17.2026 56.4138V58.5015H0V56.4138L6.30483 53.7833V13.0733L0 10.4428V8.35515H16.785L31.2319 43.0943H31.1901ZM96.2844 39.42H72.8187C72.8187 48.8146 77.9962 54.3679 86.6392 54.3679C88.8104 54.3679 91.6915 53.9921 95.1153 53.2405L95.6581 56.038C89.562 58.1257 84.301 59.2531 80.7102 59.2531C70.1047 59.2531 63.3406 52.2802 63.3406 41.2154C63.3406 30.1507 70.8563 21.4241 81.0025 21.4241C87.3908 21.4241 91.6915 23.5118 93.9462 27.8124C95.6581 31.0275 96.1174 33.2822 96.2844 39.3783V39.42ZM86.347 35.5787C86.1799 27.6037 84.468 24.4721 80.1256 24.4721C75.4492 24.4721 72.9022 28.7728 72.9022 36.873L86.347 35.5787ZM132.944 39.42H109.479C109.479 48.8146 114.656 54.3679 123.299 54.3679C125.47 54.3679 128.351 53.9921 131.775 53.2405L132.318 56.038C126.222 58.1257 120.961 59.2531 117.37 59.2531C106.765 59.2531 100 52.2802 100 41.2154C100 30.1507 107.516 21.4241 117.662 21.4241C124.051 21.4241 128.351 23.5118 130.606 27.8124C132.318 31.0275 132.777 33.2822 132.944 39.3783V39.42ZM123.049 35.5787C122.882 27.6037 121.17 24.4721 116.827 24.4721C112.151 24.4721 109.604 28.7728 109.604 36.873L123.049 35.5787ZM140.001 25.5577H134.364V23.0107L135.199 22.7185C141.379 20.6308 141.796 20.2967 144.218 16.4971C145.262 14.827 145.721 14.0754 146.389 12.5305H149.312V21.8416H160.878V25.5995H149.312V48.0213C149.312 53.0735 150.815 54.5767 155.992 54.5767C156.827 54.5767 157.579 54.5767 158.247 54.4096L160.878 54.0339L161.546 56.9566L160.711 57.1654L156.786 58.1257C154.072 58.7938 150.982 59.1696 148.811 59.1696C142.715 59.1696 139.959 56.3303 139.959 50.1507V25.5577H140.001ZM214.281 52.8647L220.21 54.5767V56.6643L204.886 59.5871V54.7019L204.218 55.0777C198.289 58.251 195.492 59.2113 192.652 59.2113C185.053 59.2113 179.124 51.6121 179.124 41.8417C179.124 30.1924 187.6 21.3823 198.915 21.3823C201.087 21.3823 202.673 21.6746 204.928 22.3427V12.28L198.247 10.4846V8.3969L214.323 5.39062V52.9065L214.281 52.8647ZM204.886 25.349C203.467 24.8897 202.84 24.8062 201.337 24.8062C193.821 24.8062 188.769 30.8187 188.769 39.754C188.769 48.6894 193.112 53.5746 200.126 53.5746C201.629 53.5746 203.216 53.3658 204.844 52.823V25.3072L204.886 25.349ZM229.897 53.7833V27.6872L223.508 25.8083V23.7623L239.208 20.9648V53.7416L245.596 56.3721V58.4598H223.508V56.3721L229.897 53.7416V53.7833ZM228.769 10.6099C228.769 7.81235 230.481 6.47623 234.197 6.47623C238.247 6.47623 240.001 7.68709 240.001 10.4428C240.001 13.4491 238.414 14.7435 234.531 14.7435C230.398 14.7435 228.811 13.6161 228.811 10.6099H228.769ZM250.356 25.5577H244.719V23.0107L245.554 22.7185C251.734 20.6308 252.152 20.2967 254.573 16.4971C255.617 14.827 256.076 14.0754 256.744 12.5305H259.667V21.8416H271.233V25.5995H259.667V48.0213C259.667 53.0735 261.17 54.5767 266.348 54.5767C267.183 54.5767 267.934 54.5767 268.603 54.4096L271.233 54.0339L271.901 56.9566L271.066 57.1654L267.141 58.1257C264.427 58.7938 261.337 59.1696 259.166 59.1696C253.07 59.1696 250.314 56.3303 250.314 50.1507V25.5577H250.356ZM279.5 25.5577H273.863V23.0107L274.699 22.7185C280.878 20.6308 281.296 20.2967 283.717 16.4971C284.761 14.827 285.221 14.0754 285.889 12.5305H288.811V21.8416H300.377V25.5995H288.811V48.0213C288.811 53.0735 290.315 54.5767 295.492 54.5767C296.327 54.5767 297.079 54.5767 297.747 54.4096L300.377 54.0339L301.045 56.9566L300.21 57.1654L296.285 58.1257C293.571 58.7938 290.482 59.1696 288.31 59.1696C282.214 59.1696 279.459 56.3303 279.459 50.1507V25.5577H279.5ZM302.047 41.2989C302.047 29.4408 309.939 21.4659 321.672 21.4659C333.404 21.4659 340.544 28.7728 340.544 39.9628C340.544 51.1528 332.653 59.6706 320.92 59.6706C309.187 59.6706 302.047 52.3219 302.047 41.3407V41.2989ZM312.11 39.7123C312.11 49.8585 315.576 55.871 321.338 55.871C327.1 55.871 330.44 50.443 330.44 41.1319C330.44 31.0692 326.891 24.8062 321.212 24.8062C315.534 24.8062 312.11 30.2759 312.11 39.7123Z" fill="#E7AEC6"/>
</svg>
