<svg width="439" height="81" viewBox="0 0 439 81" fill="none" xmlns="http://www.w3.org/2000/svg">
<path d="M15.7406 36.2992V52.5408L22.0451 55.1712V57.2588H0V55.1712L6.01231 52.5408V11.8742L0 9.2438V7.15619H19.6235C27.0554 7.15619 30.9801 8.07474 34.362 10.4546C37.8275 13.0015 39.6228 16.6757 39.6228 21.2684C39.6228 30.4957 32.3997 36.2992 20.7508 36.2992H15.6988H15.7406ZM15.7406 33.0008H17.9117C21.9616 33.0008 24.0075 32.4163 25.8863 30.8297C28.3497 28.7421 29.5605 25.6524 29.5605 21.6442C29.5605 17.97 28.6002 15.0891 26.5544 13.085C24.6755 11.2062 22.6297 10.5381 18.9555 10.5381H15.7406V33.0008ZM53.8186 23.4395L50.3531 30.3704H43.6728V23.1473C50.2279 21.1849 55.1129 20.2246 58.7036 20.2246C62.002 20.2246 64.5071 20.7674 66.5112 21.8947C69.3504 23.5648 70.1854 25.1096 70.1854 29.3266V50.5367C70.1854 51.3717 70.9369 51.9563 72.607 52.4156L76.5735 53.3758V55.4635L75.8219 55.6722L72.5235 56.6325C70.8117 57.1753 69.6844 57.4676 69.2251 57.5511C68.1813 57.8433 67.1375 58.0103 66.0519 58.0103C63.5886 58.0103 62.3777 56.9665 61.4592 53.9604C57.1587 56.5073 53.1923 58.0103 50.4784 58.0103C44.7583 58.0103 40.6249 54.0439 40.6249 48.6161C40.6249 44.0234 43.0882 40.9337 47.7645 39.7646C51.0629 38.9296 55.0711 38.3451 61.2087 37.8023V28.9926C61.2087 24.7756 59.8726 23.2725 56.0314 23.2725C55.7391 23.2725 55.4469 23.2725 54.3196 23.356C54.1526 23.356 54.0273 23.4395 53.7768 23.4395H53.8186ZM61.2504 40.3074L60.2901 40.4744L56.9082 41.226C51.4387 42.3533 49.9774 43.6476 49.9774 47.0713C49.9774 50.4949 52.4407 52.7913 56.2819 52.7913C57.785 52.7913 59.4968 52.4991 61.2504 51.9563V40.3074ZM94.6939 52.5408L102.585 55.1712V57.2588H79.3709V55.1712L85.759 52.5408V26.4457L79.3709 24.4833V22.4375L94.6939 19.7236V24.3998L95.529 23.9406C101.333 20.7674 103.796 19.8071 106.134 19.8071C107.554 19.8071 109.057 20.2664 110.81 21.1432V30.3286H103.128L101.082 25.6107C100.33 25.5271 99.7459 25.4436 99.3702 25.4436C98.2429 25.4436 96.2805 25.9029 94.6939 26.4039V52.5408ZM118.284 24.3581H112.647V21.8112L113.482 21.5189C119.662 19.4313 120.079 19.0973 122.501 15.2979C123.545 13.6278 124.004 12.8762 124.672 11.3314H127.595V20.6421H139.16V24.3998H127.595V46.8208C127.595 51.8728 129.098 53.3758 134.275 53.3758C135.11 53.3758 135.862 53.3758 136.53 53.2088L139.16 52.8331L139.828 55.7557L138.993 55.9645L135.068 56.9248C132.354 57.5928 129.265 57.9686 127.094 57.9686C120.998 57.9686 118.242 55.1294 118.242 48.9501V24.3581H118.284ZM149.055 52.5408V26.4457L142.667 24.5668V22.521L158.366 19.7236V52.4991L164.754 55.1294V57.217H142.667V55.1294L149.055 52.4991V52.5408ZM147.928 9.41081C147.928 6.61341 149.64 5.27734 153.356 5.27734C157.406 5.27734 159.159 6.48816 159.159 9.2438C159.159 12.25 157.573 13.5443 153.69 13.5443C149.556 13.5443 147.97 12.417 147.97 9.41081H147.928ZM197.07 30.3704H190.766L187.3 23.4395H186.716C180.161 23.4395 175.359 29.6606 175.359 38.1781C175.359 47.7811 180.453 53.1253 189.555 53.1253C191.517 53.1253 193.229 52.9166 195.943 52.3738L196.778 52.165L197.321 55.0877C190.849 57.1335 186.423 57.9268 182.875 57.9268C172.729 57.9268 165.673 50.6202 165.673 40.0987C165.673 28.1575 173.94 20.1829 186.256 20.1829C189.471 20.1829 192.728 20.7257 197.07 21.853V30.3704ZM206.297 52.5408V26.4457L199.909 24.5668V22.521L215.608 19.7236V52.4991L221.996 55.1294V57.217H199.909V55.1294L206.297 52.4991V52.5408ZM205.17 9.41081C205.17 6.61341 206.882 5.27734 210.598 5.27734C214.648 5.27734 216.401 6.48816 216.401 9.2438C216.401 12.25 214.815 13.5443 210.932 13.5443C206.798 13.5443 205.212 12.417 205.212 9.41081H205.17ZM236.693 57.217V69.5339L244.501 71.9556V74.1267H221.328V71.9556L227.716 69.5339V26.5292L221.245 24.5668V22.521L236.651 19.8071V24.3998C241.829 21.6859 246.129 20.1829 248.968 20.1829C256.692 20.1829 262.412 27.4895 262.412 37.343C262.412 49.1589 253.603 58.0103 241.87 58.0103C239.908 58.0103 238.488 57.8016 236.61 57.1753L236.693 57.217ZM236.693 53.9604C237.987 54.2526 238.405 54.2526 239.699 54.2526C248.05 54.2526 252.768 48.6161 252.768 38.7626C252.768 29.7441 249.553 25.6107 242.455 25.6107C240.785 25.6107 239.741 25.7777 236.651 26.2787V53.9604H236.693ZM278.821 23.4395L275.356 30.3704H268.675V23.1473C275.23 21.1849 280.115 20.2246 283.706 20.2246C287.004 20.2246 289.51 20.7674 291.514 21.8947C294.353 23.5648 295.188 25.1096 295.188 29.3266V50.5367C295.188 51.3717 295.939 51.9563 297.609 52.4156L301.576 53.3758V55.4635L300.824 55.6722L297.526 56.6325C295.814 57.1753 294.687 57.4676 294.228 57.5511C293.184 57.8433 292.14 58.0103 291.054 58.0103C288.591 58.0103 287.38 56.9665 286.462 53.9604C282.161 56.5073 278.195 58.0103 275.481 58.0103C269.761 58.0103 265.627 54.0439 265.627 48.6161C265.627 44.0234 268.091 40.9337 272.767 39.7646C276.065 38.9296 280.074 38.3451 286.211 37.8023V28.9926C286.211 24.7756 284.875 23.2725 281.034 23.2725C280.742 23.2725 280.449 23.2725 279.322 23.356C279.155 23.356 279.03 23.4395 278.779 23.4395H278.821ZM286.295 40.3074L285.334 40.4744L281.952 41.226C276.483 42.3533 275.022 43.6476 275.022 47.0713C275.022 50.4949 277.485 52.7913 281.326 52.7913C282.829 52.7913 284.541 52.4991 286.295 51.9563V40.3074ZM306.544 24.3581H300.908V21.8112L301.743 21.5189C307.922 19.4313 308.34 19.0973 310.761 15.2979C311.805 13.6278 312.265 12.8762 312.933 11.3314H315.855V20.6421H327.421V24.3998H315.855V46.8208C315.855 51.8728 317.358 53.3758 322.536 53.3758C323.371 53.3758 324.122 53.3758 324.79 53.2088L327.421 52.8331L328.089 55.7557L327.254 55.9645L323.329 56.9248C320.615 57.5928 317.525 57.9686 315.354 57.9686C309.258 57.9686 306.503 55.1294 306.503 48.9501V24.3581H306.544ZM337.316 52.5408V26.4457L330.928 24.5668V22.521L346.627 19.7236V52.4991L353.015 55.1294V57.217H330.928V55.1294L337.316 52.4991V52.5408ZM336.189 9.41081C336.189 6.61341 337.9 5.27734 341.616 5.27734C345.666 5.27734 347.42 6.48816 347.42 9.2438C347.42 12.25 345.833 13.5443 341.95 13.5443C337.817 13.5443 336.23 12.417 336.23 9.41081H336.189ZM353.891 40.0569C353.891 28.1993 361.783 20.2246 373.515 20.2246C385.247 20.2246 392.387 27.5313 392.387 38.7208C392.387 49.9104 384.496 58.4279 372.763 58.4279C361.031 58.4279 353.891 51.0795 353.891 40.0987V40.0569ZM363.995 38.4703C363.995 48.6161 367.461 54.6284 373.223 54.6284C378.984 54.6284 382.325 49.2006 382.325 39.8899C382.325 29.8276 378.776 23.5648 373.097 23.5648C367.419 23.5648 363.995 29.0343 363.995 38.4703ZM409.756 26.4457V52.5408L415.392 55.1712V57.2588H394.433V55.1712L400.821 52.5408V26.4457L394.433 24.6504V22.6045L409.756 19.8071V24.0241L410.507 23.7318L414.182 22.3957C416.353 21.5607 417.772 21.0597 418.399 20.8927C419.609 20.5169 421.029 20.3081 422.699 20.3081C425.914 20.3081 427.96 21.2684 429.755 23.4813C431.717 25.9447 432.218 27.8235 432.218 32.8755V52.5826L438.523 55.2129V57.3006H418.357V55.2129L423.158 52.5826V35.2137C423.158 27.9905 421.446 25.9029 415.643 25.9029C413.472 25.9029 412.261 26.0699 409.714 26.4874L409.756 26.4457Z" fill="black"/>
</svg>
