<svg width="524" height="80" viewBox="0 0 524 80" fill="none" xmlns="http://www.w3.org/2000/svg">
<path d="M15.7405 37.1492V53.3908L22.0451 56.0212V58.1088H0V56.0212L6.01232 53.3908V12.6824L0 10.052V7.9644H19.6234C27.0553 7.9644 30.98 8.88295 34.362 11.2628C37.8274 13.8097 39.6228 17.4839 39.6228 22.0766C39.6228 31.3039 32.3997 37.1074 20.7508 37.1074H15.6987L15.7405 37.1492ZM15.7405 33.809H17.9116C21.9616 33.809 24.0074 33.2245 25.8863 31.6379C28.3497 29.5503 29.5605 26.4606 29.5605 22.4524C29.5605 18.7782 28.6002 15.8973 26.5543 13.8932C24.6755 12.0144 22.6296 11.3463 18.9554 11.3463H15.7405V33.809ZM73.108 39.028H49.6433C49.6433 48.4223 54.8205 53.9753 63.4632 53.9753C65.6343 53.9753 68.5152 53.5995 71.9389 52.848L72.4817 55.6454C66.3859 57.733 61.1252 58.8603 57.5345 58.8603C46.9294 58.8603 40.1656 51.8877 40.1656 40.8234C40.1656 29.759 47.6809 21.0328 57.8267 21.0328C64.2147 21.0328 68.5152 23.1204 70.7699 27.4209C72.4817 30.6358 72.941 32.8905 73.108 38.9863V39.028ZM63.1709 35.1868C63.0039 27.2122 61.2921 24.0807 56.9499 24.0807C52.2737 24.0807 49.7267 28.3812 49.7267 36.4811L63.1709 35.1868ZM91.7295 53.3908L99.6206 56.0212V58.1088H76.4064V56.0212L82.7945 53.3908V27.2957L76.4064 25.3333V23.2875L91.7295 20.5736V25.2498L92.5645 24.7905C98.3681 21.6174 100.831 20.6571 103.17 20.6571C104.589 20.6571 106.092 21.1163 107.846 21.9931V31.1786H100.163L98.1176 26.4606C97.3661 26.3771 96.7815 26.2936 96.4058 26.2936C95.2785 26.2936 93.3161 26.7529 91.7295 27.2539V53.3908ZM111.019 56.8145V48.0047H116.071L119.62 55.0609C120.539 55.1444 120.914 55.1444 121.29 55.1444C125.799 55.1444 128.263 53.349 128.263 49.9671C128.263 47.5455 127.678 46.7939 123.837 44.5393L117.616 40.7816C112.814 37.9425 111.061 35.4373 111.061 31.3874C111.061 25.4586 116.155 21.0328 123.169 21.0328C124.213 21.0328 125.966 21.1998 127.678 21.4086C129.098 21.5756 130.225 21.7844 131.06 21.9514L134.15 22.6194L134.985 22.7864V30.8446H130.016L126.718 24.54C126.342 24.4565 126.175 24.4565 125.883 24.4565C121.582 24.4565 119.286 26.0431 119.286 29.0493C119.286 31.2204 120.121 32.2224 123.419 34.1013L130.016 37.7755C134.066 40.1136 136.112 43.3285 136.112 47.5455C136.112 54.2258 130.684 58.9021 123.044 58.9021C121.165 58.9021 118.91 58.6098 115.612 57.8583L112.23 57.1067L111.102 56.898L111.019 56.8145ZM140.496 40.9069C140.496 29.0493 148.387 21.0746 160.119 21.0746C171.852 21.0746 178.992 28.3812 178.992 39.5708C178.992 50.7604 171.1 59.2778 159.368 59.2778C147.636 59.2778 140.496 51.9294 140.496 40.9486V40.9069ZM150.558 39.3203C150.558 49.4661 154.024 55.4784 159.786 55.4784C165.547 55.4784 168.887 50.0506 168.887 40.7399C168.887 30.6776 165.339 24.4148 159.66 24.4148C153.982 24.4148 150.558 29.8843 150.558 39.3203ZM196.36 27.2957V53.3908L201.997 56.0212V58.1088H181.037V56.0212L187.425 53.3908V27.2957L181.037 25.5003V23.4545L196.36 20.6571V24.874L197.112 24.5818L200.786 23.2457C202.957 22.4107 204.377 21.9096 205.003 21.7426C206.214 21.3669 207.633 21.1581 209.304 21.1581C212.518 21.1581 214.564 22.1184 216.36 24.3313C218.322 26.7946 218.823 28.6735 218.823 33.7255V53.4325L225.128 56.0629V58.1505H204.961V56.0629L209.763 53.4325V36.0636C209.763 28.8405 208.051 26.7529 202.248 26.7529C200.076 26.7529 198.866 26.9199 196.319 27.3374L196.36 27.2957ZM240.534 24.2895L237.069 31.2204H230.388V23.9972C236.944 22.0349 241.829 21.0746 245.419 21.0746C248.718 21.0746 251.223 21.6174 253.227 22.7447C256.066 24.4148 256.901 25.9596 256.901 30.1766V51.3867C256.901 52.2217 257.653 52.8062 259.323 53.2655L263.289 54.2258V56.3134L262.538 56.5222L259.239 57.4825C257.527 58.0253 256.4 58.3175 255.941 58.401C254.897 58.6933 253.853 58.8603 252.768 58.8603C250.304 58.8603 249.093 57.8165 248.175 54.8103C243.874 57.3572 239.908 58.8603 237.194 58.8603C231.474 58.8603 227.341 54.8938 227.341 49.4661C227.341 44.8733 229.804 41.7837 234.48 40.6146C237.779 39.7796 241.787 39.195 247.924 38.6523V29.8425C247.924 25.6256 246.588 24.1225 242.747 24.1225C242.455 24.1225 242.163 24.1225 241.035 24.206C240.868 24.206 240.743 24.2895 240.492 24.2895H240.534ZM247.966 41.1156L247.006 41.2826L243.624 42.0342C238.154 43.1615 236.693 44.4558 236.693 47.8795C236.693 51.3032 239.156 53.5995 242.998 53.5995C244.501 53.5995 246.213 53.3073 247.966 52.7645V41.1156ZM272.224 53.3908V11.8891L265.544 10.0938V8.00616L281.243 5V53.4325L287.923 56.0629V58.1505H265.878V56.0629L272.182 53.4325L272.224 53.3908ZM297.192 53.3908V27.2957L290.804 25.4168V23.371L306.503 20.5736V53.349L312.891 55.9794V58.067H290.804V55.9794L297.192 53.349V53.3908ZM296.065 10.219C296.065 7.42163 297.776 6.08556 301.492 6.08556C305.542 6.08556 307.296 7.29637 307.296 10.052C307.296 13.0582 305.709 14.3525 301.826 14.3525C297.693 14.3525 296.106 13.2252 296.106 10.219H296.065ZM338.151 54.3511L342.368 46.5434H346.209V58.1088H315.897V55.1026L335.312 25.1663H325.249L321.575 32.3059H317.442V21.4086H346.251V24.4148L326.627 54.3511H338.193H338.151ZM363.703 24.2895L360.238 31.2204H353.557V23.9972C360.112 22.0349 364.998 21.0746 368.588 21.0746C371.887 21.0746 374.392 21.6174 376.396 22.7447C379.235 24.4148 380.07 25.9596 380.07 30.1766V51.3867C380.07 52.2217 380.822 52.8062 382.492 53.2655L386.458 54.2258V56.3134L385.706 56.5222L382.408 57.4825C380.696 58.0253 379.569 58.3175 379.11 58.401C378.066 58.6933 377.022 58.8603 375.937 58.8603C373.473 58.8603 372.262 57.8165 371.344 54.8103C367.043 57.3572 363.077 58.8603 360.363 58.8603C354.643 58.8603 350.509 54.8938 350.509 49.4661C350.509 44.8733 352.973 41.7837 357.649 40.6146C360.947 39.7796 364.956 39.195 371.093 38.6523V29.8425C371.093 25.6256 369.757 24.1225 365.916 24.1225C365.624 24.1225 365.331 24.1225 364.204 24.206C364.037 24.206 363.912 24.2895 363.661 24.2895H363.703ZM371.135 41.1156L370.175 41.2826L366.793 42.0342C361.323 43.1615 359.862 44.4558 359.862 47.8795C359.862 51.3032 362.325 53.5995 366.167 53.5995C367.67 53.5995 369.381 53.3073 371.135 52.7645V41.1156ZM391.427 25.1663H385.79V22.6194L386.625 22.3272C392.804 20.2395 393.222 19.9055 395.644 16.1061C396.687 14.436 397.147 13.6845 397.815 12.1396H400.737V21.4504H412.303V25.2081H400.737V47.629C400.737 52.681 402.24 54.1841 407.418 54.1841C408.253 54.1841 409.004 54.1841 409.672 54.0171L412.303 53.6413L412.971 56.5639L412.136 56.7727L408.211 57.733C405.497 58.401 402.407 58.7768 400.236 58.7768C394.14 58.7768 391.385 55.9377 391.385 49.7583V25.1663H391.427ZM422.156 53.3908V27.2957L415.768 25.4168V23.371L431.467 20.5736V53.349L437.855 55.9794V58.067H415.768V55.9794L422.156 53.349V53.3908ZM421.029 10.219C421.029 7.42163 422.741 6.08556 426.457 6.08556C430.507 6.08556 432.26 7.29637 432.26 10.052C432.26 13.0582 430.674 14.3525 426.791 14.3525C422.657 14.3525 421.071 13.2252 421.071 10.219H421.029ZM438.774 40.9069C438.774 29.0493 446.665 21.0746 458.397 21.0746C470.129 21.0746 477.269 28.3812 477.269 39.5708C477.269 50.7604 469.378 59.2778 457.646 59.2778C445.913 59.2778 438.774 51.9294 438.774 40.9486V40.9069ZM448.836 39.3203C448.836 49.4661 452.301 55.4784 458.063 55.4784C463.825 55.4784 467.165 50.0506 467.165 40.7399C467.165 30.6776 463.616 24.4148 457.938 24.4148C452.26 24.4148 448.836 29.8843 448.836 39.3203ZM494.638 27.2957V53.3908L500.274 56.0212V58.1088H479.315V56.0212L485.703 53.3908V27.2957L479.315 25.5003V23.4545L494.638 20.6571V24.874L495.39 24.5818L499.064 23.2457C501.235 22.4107 502.654 21.9096 503.281 21.7426C504.491 21.3669 505.911 21.1581 507.581 21.1581C510.796 21.1581 512.842 22.1184 514.637 24.3313C516.6 26.7946 517.101 28.6735 517.101 33.7255V53.4325L523.405 56.0629V58.1505H503.239V56.0629L508.04 53.4325V36.0636C508.04 28.8405 506.329 26.7529 500.525 26.7529C498.354 26.7529 497.143 26.9199 494.596 27.3374L494.638 27.2957Z" fill="black"/>
</svg>
