<svg width="462" height="81" viewBox="0 0 462 81" fill="none" xmlns="http://www.w3.org/2000/svg">
<path d="M25.8028 9.03505V50.662L34.0698 53.2923V55.38H7.80766V53.2923L16.0746 50.662V9.03505H6.76385L3.08966 19.4731H0V5.27734H41.8774V19.4731H38.7043L34.9466 9.03505H25.7611H25.8028ZM59.3716 50.7037L67.2628 53.3341V55.4217H44.0485V53.3341L50.4366 50.7037V24.6086L44.0485 22.6463V20.6004L59.3716 17.8865V22.5627L60.2066 22.1035C66.0102 18.9303 68.4736 17.97 70.8117 17.97C72.2313 17.97 73.7343 18.4293 75.4879 19.3061V28.4916H67.8055L65.7597 23.7736C65.0081 23.6901 64.4236 23.6065 64.0478 23.6065C62.9205 23.6065 60.9582 24.0658 59.3716 24.5669V50.7037ZM89.6419 21.6025L86.1765 28.5333H79.4961V21.3102C86.0512 19.3478 90.9362 18.3875 94.5269 18.3875C97.8253 18.3875 100.33 18.9303 102.335 20.0576C105.174 21.7277 106.009 23.2725 106.009 27.4895V48.6996C106.009 49.5347 106.76 50.1192 108.43 50.5785L112.397 51.5388V53.6264L111.645 53.8351L108.347 54.7954C106.635 55.3382 105.508 55.6305 105.048 55.714C104.005 56.0062 102.961 56.1733 101.875 56.1733C99.4119 56.1733 98.2011 55.1294 97.2826 52.1233C92.9821 54.6702 89.0156 56.1733 86.3017 56.1733C80.5817 56.1733 76.4482 52.2068 76.4482 46.779C76.4482 42.1863 78.9116 39.0966 83.5879 37.9275C86.8863 37.0925 90.8945 36.508 97.0321 35.9652V27.1555C97.0321 22.9385 95.696 21.4354 91.8548 21.4354C91.5625 21.4354 91.2703 21.4354 90.1429 21.5189C89.9759 21.5189 89.8507 21.6025 89.6002 21.6025H89.6419ZM97.1156 38.4286L96.1553 38.5956L92.7733 39.3471C87.3038 40.4744 85.8425 41.7688 85.8425 45.1924C85.8425 48.6161 88.3059 50.9125 92.1471 50.9125C93.6501 50.9125 95.362 50.6202 97.1156 50.0774V38.4286ZM130.559 24.6086V50.7037L136.196 53.3341V55.4217H115.236V53.3341L121.624 50.7037V24.6086L115.236 22.8133V20.7674L130.559 17.97V22.187L131.311 21.8947L134.985 20.5587C137.156 19.7236 138.575 19.2226 139.202 19.0556C140.413 18.6798 141.832 18.471 143.502 18.471C146.717 18.471 148.763 19.4314 150.558 21.6442C152.521 24.1076 153.022 25.9864 153.022 31.0385V50.7455L159.326 53.3759V55.4635H139.16V53.3759L143.962 50.7455V33.3766C143.962 26.1534 142.25 24.0658 136.446 24.0658C134.275 24.0658 133.064 24.2328 130.517 24.6504L130.559 24.6086ZM163.084 54.1692V45.3595H168.136L171.685 52.4156C172.603 52.4991 172.979 52.4991 173.355 52.4991C177.864 52.4991 180.328 50.7037 180.328 47.3218C180.328 44.9002 179.743 44.1486 175.902 41.894L169.681 38.1363C164.879 35.2972 163.126 32.792 163.126 28.7421C163.126 22.8133 168.22 18.3875 175.234 18.3875C176.278 18.3875 178.031 18.5545 179.743 18.7633C181.163 18.9303 182.29 19.1391 183.125 19.3061L186.215 19.9741L187.05 20.1411V28.1993H182.081L178.783 21.8947C178.407 21.8112 178.24 21.8112 177.948 21.8112C173.647 21.8112 171.351 23.3978 171.351 26.404C171.351 28.5751 172.186 29.5771 175.484 31.456L182.081 35.1302C186.131 37.4683 188.177 40.6832 188.177 44.9002C188.177 51.5805 182.749 56.2568 175.109 56.2568C173.23 56.2568 170.975 55.9645 167.677 55.213L164.295 54.4614L163.168 54.2527L163.084 54.1692ZM206.924 55.38V67.6969L214.731 70.1185V72.2896H191.559V70.1185L197.947 67.6969V24.6921L191.475 22.7298V20.6839L206.882 17.97V22.5627C212.059 19.8489 216.36 18.3458 219.199 18.3458C226.923 18.3458 232.643 25.6524 232.643 35.5059C232.643 47.3218 223.833 56.1733 212.101 56.1733C210.139 56.1733 208.719 55.9645 206.84 55.3382L206.924 55.38ZM206.924 52.1233C208.218 52.4156 208.636 52.4156 209.93 52.4156C218.28 52.4156 222.998 46.779 222.998 36.9255C222.998 27.907 219.783 23.7736 212.686 23.7736C211.015 23.7736 209.972 23.9406 206.882 24.4416V52.1233H206.924ZM249.052 21.6025L245.586 28.5333H238.906V21.3102C245.461 19.3478 250.346 18.3875 253.937 18.3875C257.235 18.3875 259.74 18.9303 261.744 20.0576C264.584 21.7277 265.419 23.2725 265.419 27.4895V48.6996C265.419 49.5347 266.17 50.1192 267.84 50.5785L271.807 51.5388V53.6264L271.055 53.8351L267.757 54.7954C266.045 55.3382 264.918 55.6305 264.458 55.714C263.414 56.0062 262.371 56.1733 261.285 56.1733C258.822 56.1733 257.611 55.1294 256.692 52.1233C252.392 54.6702 248.425 56.1733 245.712 56.1733C239.992 56.1733 235.858 52.2068 235.858 46.779C235.858 42.1863 238.321 39.0966 242.998 37.9275C246.296 37.0925 250.304 36.508 256.442 35.9652V27.1555C256.442 22.9385 255.106 21.4354 251.265 21.4354C250.972 21.4354 250.68 21.4354 249.553 21.5189C249.386 21.5189 249.26 21.6025 249.01 21.6025H249.052ZM256.525 38.4286L255.565 38.5956L252.183 39.3471C246.714 40.4744 245.252 41.7688 245.252 45.1924C245.252 48.6161 247.716 50.9125 251.557 50.9125C253.06 50.9125 254.772 50.6202 256.525 50.0774V38.4286ZM289.969 50.7037L297.86 53.3341V55.4217H274.646V53.3341L281.034 50.7037V24.6086L274.646 22.6463V20.6004L289.969 17.8865V22.5627L290.804 22.1035C296.607 18.9303 299.071 17.97 301.409 17.97C302.829 17.97 304.332 18.4293 306.085 19.3061V28.4916H298.403L296.357 23.7736C295.605 23.6901 295.021 23.6065 294.645 23.6065C293.518 23.6065 291.555 24.0658 289.969 24.5669V50.7037ZM340.614 36.341H317.15C317.15 45.7352 322.327 51.2883 330.969 51.2883C333.141 51.2883 336.022 50.9125 339.445 50.1609L339.988 52.9584C333.892 55.046 328.631 56.1733 325.041 56.1733C314.436 56.1733 307.672 49.2006 307.672 38.1363C307.672 27.072 315.187 18.3458 325.333 18.3458C331.721 18.3458 336.022 20.4334 338.276 24.7339C339.988 27.9488 340.447 30.2034 340.614 36.2992V36.341ZM330.677 32.4998C330.51 24.5251 328.798 21.3937 324.456 21.3937C319.78 21.3937 317.233 25.6942 317.233 33.7941L330.677 32.4998ZM359.236 24.6086V50.7037L364.872 53.3341V55.4217H343.913V53.3341L350.301 50.7037V24.6086L343.913 22.8133V20.7674L359.236 17.97V22.187L359.987 21.8947L363.661 20.5587C365.833 19.7236 367.252 19.2226 367.878 19.0556C369.089 18.6798 370.509 18.471 372.179 18.471C375.394 18.471 377.44 19.4314 379.235 21.6442C381.197 24.1076 381.698 25.9864 381.698 31.0385V50.7455L388.003 53.3759V55.4635H367.837V53.3759L372.638 50.7455V33.3766C372.638 26.1534 370.926 24.0658 365.123 24.0658C362.952 24.0658 361.741 24.2328 359.194 24.6504L359.236 24.6086ZM420.11 28.4916H413.806L410.34 21.5607H409.756C403.201 21.5607 398.399 27.7818 398.399 36.2992C398.399 45.9022 403.493 51.2465 412.595 51.2465C414.557 51.2465 416.269 51.0377 418.983 50.495L419.818 50.2862L420.361 53.2089C413.889 55.2547 409.464 56.048 405.915 56.048C395.769 56.048 388.713 48.7414 388.713 38.2198C388.713 26.2787 396.98 18.304 409.297 18.304C412.511 18.304 415.768 18.8468 420.11 19.9741V28.4916ZM438.815 55.6722L425.496 22.8133L421.071 20.8509V18.7633H440.527V20.8509L435.35 22.8133L441.195 38.6791C441.279 38.9714 441.655 40.0152 442.156 41.6852C442.615 42.9796 442.907 43.7729 442.991 44.1486C443.074 44.3574 443.158 44.7332 443.283 45.1924L451.174 23.2308L446.122 20.8092V18.7215H461.069V20.8092L456.393 23.4396L441.279 60.8912C438.565 67.6551 437.897 68.6154 435.099 70.369C433.012 71.6633 430.674 72.2478 427.751 72.2478C425.413 72.2478 423.325 72.0391 421.739 71.5798V64.3567H427.835L429.171 68.8659C432.469 68.4066 434.515 66.319 436.519 61.1835L438.69 55.6305L438.815 55.6722Z" fill="black"/>
</svg>
